<?xml version='1.0' encoding='UTF-8'?>
<svg xmlns="http://www.w3.org/2000/svg" xmlns:dc="http://purl.org/dc/elements/1.1/" xmlns:ns2="http://creativecommons.org/ns#" xmlns:rdf="http://www.w3.org/1999/02/22-rdf-syntax-ns#" id="wrapper" viewBox="0 0 1520 840" preserveAspectRatio="xMinYMin" height="840" width="1520" style="background-color: rgb(255, 255, 255);">
  <metadata>
    <rdf:rdf>
      <ns2:work rdf:about="">
        <dc:format>image/svg+xml</dc:format>
        <dc:type rdf:resource="http://purl.org/dc/dcmitype/StillImage"/>
        <dc:title>MapChart Map</dc:title>
        <dc:creator>
          <ns2:agent>
            <dc:title>MapChart.net</dc:title>
          </ns2:agent>
        </dc:creator>
        <ns2:license rdf:resource="http://creativecommons.org/licenses/by-sa/4.0/"/>
        <dc:description>This map was created with MapChart.net, a website for creating custom maps.</dc:description>
      </ns2:work>
      <ns2:license rdf:about="http://creativecommons.org/licenses/by-sa/4.0/">
        <ns2:permits rdf:resource="http://creativecommons.org/ns#Reproduction"/>
        <ns2:permits rdf:resource="http://creativecommons.org/ns#Distribution"/>
        <ns2:requires rdf:resource="http://creativecommons.org/ns#Notice"/>
        <ns2:requires rdf:resource="http://creativecommons.org/ns#Attribution"/>
        <ns2:requires rdf:resource="http://creativecommons.org/ns#ShareAlike"/>
      </ns2:license>
    </rdf:rdf>
  </metadata>
  <g id="map-group" transform="translate(-4099.323834603873,-2330.770999495722) scale(4.751719175915751)">
    <svg id="map" width="1520" height="840" version="1.1" viewBox="0 0 1520 840" preserveAspectRatio="xMinYMin" data-originalStrokeWidth="0.3">
      <defs>
        <pattern id="circles3" width="10" height="10" patternUnits="userSpaceOnUse">    <rect width="10" height="10" fill="#fff"/>    <circle cx="4" cy="4" r="2" fill="#000"/>    </pattern>
        <pattern id="diagonal1" width="10" height="10" patternUnits="userSpaceOnUse">    <rect width="10" height="10" fill="#fff"/>    </pattern>
        <pattern id="diagonal3" width="10" height="10" patternUnits="userSpaceOnUse">    <rect width="10" height="10" fill="#fff"/>    </pattern>
        <pattern id="vertical1" width="10" height="10" patternUnits="userSpaceOnUse">    <rect width="10" height="10" fill="#fff"/>    <rect x="2" y="0" width="1" height="10" fill="#000"/>    </pattern>
        <pattern id="vertical3" width="10" height="10" patternUnits="userSpaceOnUse">    <rect width="10" height="10" fill="#fff"/>    <rect x="2" y="0" width="3" height="10" fill="#000"/>    </pattern>
        <pattern id="horizontal1" width="10" height="10" patternUnits="userSpaceOnUse">    <rect width="10" height="10" fill="#fff"/>    <rect x="0" y="2" width="10" height="1" fill="#000"/>    </pattern>
        <pattern id="horizontal3" width="10" height="10" patternUnits="userSpaceOnUse">    <rect width="10" height="10" fill="#fff"/>    <rect x="0" y="2" width="10" height="3" fill="#000"/>    </pattern>
        <pattern id="crosshatch" width="8" height="8" patternUnits="userSpaceOnUse">    <rect width="8" height="8" fill="#fff"/>    </pattern>
        <pattern id="subtlepatch" width="5" height="5" patternUnits="userSpaceOnUse">    <rect width="5" height="5" fill="#fff"/>    <rect x="2" y="2" width="1" height="1" fill="#000"/>    </pattern>
        <pattern id="checkers" width="8" height="8" patternUnits="userSpaceOnUse">    <rect width="8" height="8" fill="#fff"/>    </pattern>
        <pattern id="raindrops" width="10" height="10" patternUnits="userSpaceOnUse">    <rect width="10" height="10" fill="#fff"/>    </pattern>
        <pattern id="texture" width="4" height="4" patternUnits="userSpaceOnUse">    <rect width="4" height="4" fill="#fff"/>    </pattern>
        <pattern id="circles3_a03500_000000" width="10" height="10" patternUnits="userSpaceOnUse">    <rect width="10" height="10" fill="#a03500"/>    <circle cx="4" cy="4" r="2" fill="#000000"/>    </pattern>
        <pattern id="diagonal1_d9b400_535353" width="10" height="10" patternUnits="userSpaceOnUse">    <rect width="10" height="10" fill="#d9b400"/>    </pattern>
        <pattern id="diagonal3_3264c8_ffffff" width="10" height="10" patternUnits="userSpaceOnUse">    <rect width="10" height="10" fill="#3264c8"/>    </pattern>
        <pattern id="horizontal1_72b38e_000000" width="10" height="10" patternUnits="userSpaceOnUse">    <rect width="10" height="10" fill="#72b38e"/>    <rect x="0" y="2" width="10" height="1" fill="#000000"/>    </pattern>
        <pattern id="horizontal3_986ba1_ffffff" width="10" height="10" patternUnits="userSpaceOnUse">    <rect width="10" height="10" fill="#986ba1"/>    <rect x="0" y="2" width="10" height="3" fill="#ffffff"/>    </pattern>
        <pattern id="vertical1_b9a087_ffffff" width="10" height="10" patternUnits="userSpaceOnUse">    <rect width="10" height="10" fill="#b9a087"/>    <rect x="2" y="0" width="1" height="10" fill="#ffffff"/>    </pattern>
        <pattern id="vertical3_4c91bf_ffff33" width="10" height="10" patternUnits="userSpaceOnUse">    <rect width="10" height="10" fill="#4c91bf"/>    <rect x="2" y="0" width="3" height="10" fill="#ffff33"/>    </pattern>
        <pattern id="checkers_cc3333_f7f7f7" width="8" height="8" patternUnits="userSpaceOnUse">    <rect width="8" height="8" fill="#cc3333"/>    </pattern>
        <pattern id="texture_d1dbdd_525252" width="4" height="4" patternUnits="userSpaceOnUse">    <rect width="4" height="4" fill="#d1dbdd"/>    </pattern>
        <style id="map-style">svg { background-color: #ffffff; }</style>
      </defs>
      <g id="state_lines" stroke="rgb(209, 219, 221)" style="display: none; stroke: rgb(0, 0, 0);" stroke-width="0.1"/>
      <path id="AL02" d="m1065.7 574.3-.22.05-.3.06-.52.1-.2.03.03.14.2.98-.48.1-.29.05-.79.16-3.4.6-1.2.23-.98.18.3 1.31.1.47-1.17.21-1.54.27-.1-.53-.15-.73-.08-.35-.03-.15-.08-.42-.12-.52-.17.03-1.15.2-.27-.08-1.09-.34-.42-.14-.37-.11-.4-.08h-.04l-.33-.16-.49-.15-.51-.15-.92-.28-.08-.45-.9.15-.07-.43-.44.08.08.43-.97.16-1.27.22.1.63.13.73.08.45.16.89-.46.08-.89.14-.43.08-.5.1h-.04l.1.04.12.08.09.1.16.08.16.03h.1l.13-.06.06.04.03.05v.06l-.04.02-.14-.02-.32.12-.05.06.02.1-.06.1-.02.07.03.16-.08.14.05.07.07.01-.04.1-.24.09-.12.01-.1-.04-.08-.02-.14.03-.43.02-.15-.05h-.06l-.05.03-.13.14-.1.15-.05.05-.13.06-.1.08-.05.02h-.09l-.04-.02-.07-.1-.02-.1-.1-.04-.08-.02-.12-.04h-.13l-.05.08v.04l.06.05.13.05-.02.06-.1.13-.07.06-.07-.02-.14-.14-.02-.06v-.12l-.02-.03-.09.04-.05.2.04.09.15.16.03.11-.04.1-.06.07-.12.06h-.04l-.16-.02-.05.05-.1.16-.05.07-.1.06h-.06l-.16-.06-.15.01-.09.06-.1.13-.03.06v.1l.04.13-.06.09-.09.01-.14-.04-.15.02-.34-.04h-.07l-.07-.03-.17-.14-.09-.1h-.05l-.12.12-.1.03h-.13l-.16.05-.09.07-.08.02-.03-.02-.04-.18-.05-.04-.05.03-.04.1-.06.03-.13-.05-.02-.08.05-.06.05-.17v-.05l-.07-.01-.06.08-.08.04-.1.02-.07.04-.08.1-.2.1-.1-.05-.04-.11.01-.13-.04-.02-.05.03h-.07l-.09-.08-.06-.03-.17-.02-.05.03h-.1l-.04.05-.06.12-.1.1-.1.02-.06-.1-.09-.07.01-.09.13-.05.08-.08.09-.06v-.09l-.12-.05-.12-.15h-.06l-.07.07-.08.12-.06.02-.04-.03-.07-.13-.16-.16-.09-.12-.03-.1-.01-.1-.07-.04-.05.02-.04.06-.07.14-.07.03-.07-.01-.06-.07-.02-.14.05-.11.08-.01.03-.05-.12-.14-.05-.02-.09-.1-.09-.02-.02.06v.08l-.06.02-.07-.04v-.1l.04-.09-.02-.05-.13-.01-.12.03-.04-.03-.07-.08-.04-.01-.12.02-.16-.03-.03.03.02.07v.06l-.06.05v.05l.03.05.13.05.02.03-.04.08-.11.05-.05.05-.06.02-.11-.05h-.05l-.08.06-.04.1-.04.07-.1.1v.04l.02.07-.05.04-.12-.04-.1-.06-.14-.18-.05-.09-.07-.08-.1-.03-.07.02-.03.04-.01.09.03.08.09.08.06.1.05.14.02.1v.07l-.03.24-.1.33-.04.06-.11.08-.06.1.04.09.21.07.06.05.1.14.08.16.11.16v.07l-.03.13-.06.08h-.05l-.07-.03-.07-.16-.06-.05-.23-.07-.14-.06-.16-.1-.18-.07h-.15l-.09.03-.07.08-.42.07-.25.13-.18.06h-.18l-.04.02-.02.1.1.14.04.1-.04.1-.07.05-.17.04-.06.03-.36.31-.13.05-.15.04-.12.05-.1.02-.09-.01-.1-.08-.13-.05-.08.01-.05.09.01.05.06.12.02.06-.05.18v.06l.05.23v.09l-.15.18-.1.16-.02.1-.04.04h-.08l-.12-.04h-.07l-.13.1v.1l.01.07.1.2.01.06-.02.14-.03.04-.1.04-.03.15.07-.06h.03v.08l.08.03v-.09l.06-.08.05.11.12-.07h.1l.03.06-.11.04-.04.03.03.1-.05.1h.05l.06-.09.08.03.04-.04.07.05-.06.03.02.05.08.07.02.04-.05.05-.1-.04.01.07.03.04v.14l-.02.04-.1-.03-.07-.07h-.04v.07l.04.05.1.01v.06l-.05.01.01.13.03.07-.07.04h-.05l-.02.13.02.02.1-.03-.01.06.02.07-.05.04v.09l.03.05.07-.02.03.09-.07.01.03.1.09.03.03.08.08.01-.09.16.03.02.15-.01-.01.08.23.05.05-.05h.05l.06-.07h.09l.04-.05h.09l.04.04.18.1v.14l.09-.01.05.07.07-.04.07.05h.03l.06.04h.12l.04.05.07-.04.05.03.01.04.09.02.03.05-.05.04.01.07.16.05.08-.03h.07l.1.06.03.22.15.88.07.45.03.22.2 1.24.14.78.07.46.06.26v.06l.12.75.03.24.08.43.04.24.25-.04.04.22-.26.04.12.7.12.76.14.81h-.23l-.52.08-.75.13-.8.12-.2.06-1.34.2-1.65.24-.33.06-.5.07-1.67.28-1.08.18-.63.1-.87.14-.47.04-.48.08-.58.09-.26.05-.89.13.15.93.06.46.05.22.06.4.11.68.01.06.08.42.06.47.07.44-.44.06-.06.01-1.28.2-.88.14-1.1.18-.47.07-.87.14h-.1l-.8.15-1.04.15-1.05.14-.38-.03-.43.05-.14.03-.9.13-1 .15-.23.04-.43.07-.13.02-.6.09-.41.07-.6.1-.79.12-.63.1-.44.04-.46.08-1.32.23.06.09.01.07.2.07h.07l.05.03.05.1v.07l-.01.04.03.2.05.07.07.05-.1.13v.11l.05.17v.36l.06.24.06.06.04.08v.09l.02.07.05.06.04.14.1.07-.08.04h-.18l-.12.03-.14.05-.12.1-.08.03v.06l.07.06-.02.05-.08.07-.07-.02-.1.06v.02l.06.16v.07l.05.08-.01.16.03.05.1.07v.06l.07.1-.12.05-.05.08.03.06v.1l.05.04-.05.15.03.03.17 1.17-.09-.14-.06-.02-.08.01-.08-.01-.1.17-.06.05-.01.04-.08.04-.03.1-.04.03-.05-.03h-.07l-.12-.06-.23-.22-.01-.1-.09.02-.08.04-.13-.06-.07-.01-.13.06-.02.08-.13.07h-.05l-.12.04-.05-.05h-.08l-.05.08-.16.05-.06.04h-.14l-.05-.03-.05.08-.02.2-.06.09-.05.12v.07l.05.1v.2h-.11l-.16-.05-.22-.02-.17-.03-.28-.08-.02.2-.05.18h.04l.06.1-.04.03-.02.07.03.1-.07.08-.03.08-.07.07h-.08l-.05.17-.03.02.07.22.08-.05-.01.12-.03.02-.04.1-.01.06.06.03-.03.06h-.08l-.04.05-.13.01-.05.2-.06.08-.14.11-.12.14-.1.03-.4.21-.09.02-.05.03h-.08l-.09-.06-.2-.27-.16-.17-.03-.14-.12-.01h-.23l.05.15.04.1-.12-.02-.15-.05h-.12l-.1.02-.04.04-.12.19-.07.04-.04.05-.02.06-.07.11v.06l-.05.08-.07.08h-.05l.04.13-.03.06v.14l.04.13.05.07v.08l.05.03.09.19v.1l.02.03.04.11.05.03.06.1.03.1-.02.03.05.06-.03.15-.1.08-.15.1-.29.2-.01-.02.06-.07.03-.15.03-.04-.02-.13-.13-.2-.03-.06-.06-.06v-.1l-.02-.03h-.18l-.06.03-.13-.05h-.08l-.06-.04-.13-.02-.07.13-.07.1-.07.19-.03.16.03.1.04.35.16-.02v.1l-.08.03-.23.03v.06l.05.04-.1.12-.08.04h-.08v-.1l.03-.1v-.21l-.05-.17v-.07l.06-.1-.02-.03-.12.07-.15.03h-.3l-.1.03-.08.03-.13.14-.18-.13-.1-.01h-.65l-.09-.02-.05-.04-.08-.11-.12-.06-.27-.03-.08-.02-.16-.08-.33-.14-.2-.01-.36-.21-.16-.22-.12-.12v-.07l.08-.03h.1l.16.06.1.02.13-.05.03-.05-.03-.09-.14-.15-.1-.06h-.06l-.25.06-.37.05-.25-.09-.16-.07-.19-.1-.1-.12-.1-.07-.04-.06-.01-.08.1-.22v-.13l-.06-.1-.15-.15-.1-.15-.06-.13-.05-.15-.01-.12-.05-.17-.12-.2v-.07l.03-.03.13-.03.08-.04.05-.09-.03-.25-.03-.13-.05-.09-.08-.08-.12-.16-.06-.2v-.1l-.03-.1-.97.15-.45.06-1.01.14-1.98.26-.32.05-1.39.18-1.44.2-.12.02-.52.06-.19.03-.71.1-.7.1h-.15l-.4.2.08.42.13.65.13.8v.07l.04.07.17.97.13.7.1.63.2 1.1.03.19.03.17.1.56.6 3.48.21 1.13.3 1.71.13.65.05.34.23 1.2.18 1.11.02.07.14.85.12.56.08.57.1.57.04.32.08.31.1.6.2 1.09.1.56.14.9.27 1.57.23 1.26.07.38v.04h.02v.1l.35 2 .03.2.5.2.12.03.18.1.1.1.2.13.18-.02.08-.12.12-.02.2.03.15-.02.19.02h.1l.17.08.07.08.05.17.05.1.11.09.05.06h.05l.03-.1.05-.06.11-.03.03-.21.06-.02.16.03.12.06.08.02.08.06.05.1.08.04.16.05.23.02.2.03.13.08.05.01.17.01.03.14.14-.05-.05-.1.2-.01.05.01.08.07.04.05.03.14.04.05.08.06-.07.01.01.1-.1.05.04.32.06.03h.07l.14-.02v.15l.15.12.06.03.31.1.15.03.04.04.04.3-.1.07-.04.2-.09.2v.33l.03.12.1.04.02.03.11-.03.07.03.06-.02.1.03.05.03.05.09.03.1.05.12.06.1.15-.16.2 1.44.02.15h.07v.04l.07.07.07.16.1.03.05.03.2.24.16-.18.17-.16.14-.1-.02-.43v-.05l.08-.25.04-.17.09.05.16-.02.1.02.04.02.1-.18.15-.24.07-.09.11-.11.12-.09.19-.08.16-.12.3-.2.14-.13.23-.18.2-.2.01-.04.12-.1.15-.18.14-.13V644l.15-.15.14-.23.02-.13v-.28l.02-.09.07-.05-.02-.04.14-.06v.05l.17-.07.43.13.1.05v-.03l.13-.3.02-.15-.04-.2-.07-.1-.2-.13-.08-.1-.09-.18-.03-.13v-.25l-.01-.1-.08-.1-.12-.12-.14-.09-.05-.12.03-.12.09-.25-.02-.1-.07-.13v-.07l.11-.23-.1-.03h-.15l-.4.12-.42.13-.08-.01-.08.07-.07-.02-.05-.05-.15-.04-.02-.19-.11.01-.03-.03-.1-.02-.1.07v-.07l-.1.02-.07.03-.07.11h-.17l-.05.02v.05l-.08-.02-.05.03-.06.09-.01.11-.06.03-.07-.08-.09-.03-.03-.05h-.09l-.05.07-.1.02-.06-.07-.11.03-.05-.05-.1-.03-.05-.07h-.06l-.11-.37-.13.02-.02-.12-.07-.12-.3-.23-.09.02-.03.07v.08l-.14.02-.12.1h-.36l-.04-.24-.14.02-.14.09h-.17l-.08-.15-.07-.04-.1-.02-.1-.13-.05-.01-.04-.06v-.07l.07-.02h.12l.08-.05h.06l.18.07h.13l.04-.03.06-.07.07-.02h.1l.11-.03-.12-.13-.07-.1-.12-.25.08-.02.11-.05.1.02v-.1l.11-.08.06-.1v-.06l.05-.04-.03-.16.04-.09.03-.01.05-.1.1-.09.06.05.05.01.06-.04.14.09.14-.02.07-.05.01-.03-.04-.05v-.1h-.1l-.14-.03-.07-.05-.01-.04-.1-.14.05-.1.03-.04.08-.05.08-.14.06-.07.01-.06-.03-.15-.01-.16-.03-.27-.04-.16v-.16l.03-.08-.19.1-.22.12h-.1l-.05.03-.07.11-.15.08-.05.06h-.07l-.12-.02.04-.07-.01-.1.02-.15.08-.06v-.12l-.04-.09-.08-.11-.07-.07-.12-.07-.07-.1.05-.18v-.08l.06-.1.14-.15.1-.2v-.06l-.03-.1-.1-.08.15-.03.07-.03.02-.04-.01-.08-.04-.07v-.09l-.07-.06.02-.06.07-.06h.05v-.06l.04-.16.07-.09-.01-.04-.15.03h-.11l-.1-.02-.62-.2-.09-.07-.03-.09.02-.18-.02-.09-.13-.25-.15-.18h.04l.14-.13h.08l.04.1.02.09.15-.07-.01.1.04.05-.04.07-.01.15.04.04h.14l.07-.08.1-.02h.08l.03-.07.12-.12.08-.1-.06-.05-.08-.15.01-.06-.06-.14.01-.07.06-.08.04-.02h.16l.03-.01.06.06.08.12v.07l.02.08.07-.05.12-.29.1-.09-.02-.07-.06-.1.05-.11v-.06l-.06-.03-.08.04-.02-.1-.07-.11h-.08l-.06.04-.19.06-.04-.04v-.1l-.03-.12-.16-.1-.05-.34-.09.01.04-.12-.05-.01-.06-.08-.02-.1.12-.03-.02-.06.01-.07-.03-.1-.16-.09-.07-.1-.08-.02-.03-.06-.1-.04-.1.02-.13-.08-.1-.14h-.05l-.1-.05-.02-.06 1.07-.14.85-.12.07-.01 1.24-.16.35-.04.11-.03.95-.13.52-.7.26-.33.45.23.02.04.12-.02.2.05.1-.02.13-.06h.17l.06-.01.06-.06v-.1l-.16-.17-.05-.12.02-.11v-.11l-.05-.21-.03-.1.08.01.1.07.18-.03h.05l.18.1h.1l.1-.02.11-.07-.06-.07.02-.05h.09v-.08l.07-.08.03-.11.13-.01.06.04.06-.1.1-.06.07-.1.1-.04.01.12.1.01.1.07.06-.02.06-.1v-.1l-.07-.14-.03-.1.01-.07.14-.06.05.03.09.15.17.14.1.02.07-.01.1-.1.01-.07-.04-.1-.24-.12-.06-.06-.13-.22-.03-.1v-.06l.08-.14.08-.07.1-.01.13.05.13.16.03.07.07.04.07-.03.07-.1-.02-.07-.13-.05-.1-.08-.03-.1.04-.08.09-.08.03-.1-.05-.07-.04-.01-.07-.09-.01-.07-.1.02-.04.05-.12.02-.04-.07.01-.08.08-.06h.07l.14.06.02.04.15-.08.04-.05.06-.2.02-.32.02-.1.04-.03.11-.03.08.02.48.21h.05l.14-.06.15-.12.06-.06.04-.07v-.07l-.08-.09-.13-.03-.12-.09-.04-.09v-.04l-.24-.26-.1-.06-.08-.08-.04-.12v-.15l.04-.08.03-.04.08-.01.11.06.03.1.03.16.03.08.06.07.1.08.1.02v.04l.13-.03h.1l.24.09.08-.02.07-.05v-.07l.13-.02.03-.07.13.05h.08l.08-.02.05-.11.04-.04h.1l.06-.06h.22l.03.04.05-.03.15-.02v-.05l.09-.03.04.05.05-.02.07.02.1.11h.02l.09.07.01.07.1.1v.07l.03.03.1-.01.06.04.09-.02.05.02.05.14.05.09.14.16.07.06.07.01.06.06.03.08.08.01.04.05.16.04.1.07.03.06.22.08.07-.01.08.03.09-.03.15.12.09-.03.15.05.04-.06.06.02.09-.01.11-.06.08-.01.08.02.07.05.05.01.13-.06h.07l.1.05.12-.02.23.02.05.04.1.03.03.07.09.03.08-.02.11.05.05-.05.09.07.03-.01.13.02.01.03.14-.09.13-.03.03-.07.06-.05.05-.01.1-.1.07-.05.04-.14.1-.05.05-.1.1-.09.12.02.02-.03.2-.05.1-.05.02-.03.16-.08.02-.04.14-.08.04-.04.03-.12.96-.14.53-.08 1.14-.17.66-.1v.01l.27-.04.77-.11.25-.05.32-.04 1.46-.2.57-.09 2.1-.3 2.3-.35.54-.08.15-.02.9-.13h.08l1.23-.2.5-.08 1.19-.18.5-.08.73-.1.42-.07.51-.07.28-.04.9-.12-.03.03v.13l-.02.08-.1.1-.02.05.05.1-.03.06v.07l.1.08.03.07.03.23.04.08.1.08.04.07-.02.1-.14.2-.03.08.1.05h.1l.01.03-.1.13-.05.02.02.07.1.1.04.01.07-.03.03.03-.05.12.03.03.07-.02-.01.11.02.05-.05.08-.05.04.02.04.08.02.04-.2.07-.18.02-.02.14-.02.08.02.04-.02.08-.08.05-.03.08.02.03.07.03.02.08-.03.04.06-.07.02-.04.08.08.05.12-.03.12.04.06-.06.11.01.07-.02-.01-.05-.08-.07h-.04v-.06h.18l.07-.03h.1l.02-.04-.04-.03.02-.07.17.02-.08-.55-.2-1.21-.2-1.3-.15-1.01-.07-.4.05-.11-.02-.07-.09-.07.07-.1.08.01.1-.02-.02-.05h.1l.03-.04-.01-.05.03-.04.09-.01.04-.07.03-.09-.02-.14.15-.05.07-.1.08-.14-.03-.13-.08-.14-.03-.12-.05-.05-.1-.02-.01-.14.05-.02.18-.09-.03-.23.08-.07v-.05l-.05-.02v-.05l-.05-.05-.05-.02v-.07l-.08-.1-.02-.08.08-.01.01-.08-.05-.06-.1-.03-.08-.07-.06-.15.02-.15-.06-.06-.7.1-.06-.4-.1-.67-.16-1.02-.1-.62.3-.04.05-.02.3-.04h.04l1.34-.2.15-.03.92-.14.26-.04.97-.16.29-.05.55-.09.18-.04 2.21-.35.4-.1.14.82.26 1.53.1-.02.01-.05.08-.1.06-.07.09-.03-.06-.04.06-.1.1-.13.1-.08-.08-.04v-.08l.18-.07.03-.12.03-.02v-.08l.05-.02.02-.14-.04-.05.14-.06.06.04.03-.03.07.07.18-.08-.04-.05.06-.06.12.06.07-.02.06-.12-.03-.02.07-.07.05-.14.04-.07.03-.1h.03l.06-.08.11-.05-.03-.1.02-.05.09-.12.12-.1.06-.1.14-.08v-.05l.08-.16-.05-.03.5-.07.11.42.09.48.23 1.35.44-.07.03.46.31-.06.11-.01.93-.16.45-.02-.17-1.06-.11-.7-.02-.1-.15-.93 1-.16-.04-.23.34-.06-.44-2.48.55-.1h.03l.76-.13 1.04-.17 1.36-.22.1-.03 1.08-.16.9-.14 1.33-.2 2.27-.34 1.03-.16.5-.1h.04l.53-.08.49-.07 1.74-.27.15-.03.9-.14.45-.08.44-.09.85-.17.5-.1.86-.16 1.34-.18-.03-.18-.12-.84-.08-.4-.06-.38-.01-.13-.13-.78.49-.07.66-.1.5-.08.19-.02.32-.06.38-.06.23-.01.54-.08 1.08-.15.8-.09.1-.01.05-.15.08-.13v-.08l-.08-.11v-.05l-.04-.22.04-.1-.01-.13.03-.14-.02-.1v-.06l.08-.06.12-.01.12-.15.04-.02.09.02.02-.1.1-.1.03-.06.05.01.1-.04v-.07l.06-.03.04-.11.05-.04.08.02v-.08l.08-.1-.02-.1.04-.05v-.08h.09l.03-.07.04.02.04-.05.08.01.15.06v-.01l-.03-.13-.37-.23-.12-.13.08-.15.08-.4v-.09l-.03-.36-.1-.27-.02-.18-.3-.32.08-.22-.15-.35.17-.53.04-.2-.18-.4.43-.07.13-.15.03-.25-.17-.2.26-.23.02-.22.46-.6-.28-.52.07-.14.23-.1.18-.26-.2-.3.05-.12-.02-.32.05-.3.2-.23-.02-.32.13-.03v-.07l-.06-.03-.2-.1.05-.3-.2-.25v-.42l.02-.26-.05-.15.01-.27.18-.25-.3-.5-.38-.82.38-.43.39-.76.36-.56.87-.47.25-.2-.08-.23-.12.01-.13.03-.16-.08.13-.34.32-.07.17-.02.13-.06.24-.01.26-.1.12-.3.04-.18.11-.1.06-.24-.32-.04.01-.14h.41l.08-.1.04-.22.33-.09v-.05l-.5-.33-.6-.34-.32-.31-.2-.1-.27-.02-1.06-.29-.37-.03-.2-.41.03-.3.1-.14.36-.49-.03-.38.24-.07.02-.08-.03-.03-.06-.03h-.12l-.1.04h-.08l-.03-.01-.04-.05v-.06l.02-.09.03-.1.04-.06.14.04.04-.04.17-.01.02-.03v-.05l-.03-.02h-.05l-.08-.04v-.02l-.08-.02-.04-.05-.05-.05-.04-.05-.01-.1v-.21l.37-.38v-.07l-.32-.53-.34-.03-.26-.12-.13-.2-.06-.2-.04-.14.02-.13v-.24l-.02-.2-.14-.22-.02-.1.04-.15zm.44.15-.05.15.06.03.03-.14-.02-.04z" fill="#d1dbdd" stroke="rgb(209, 219, 221)" stroke-width="0.1" data-originalStrokeWidth="0.1" style="stroke: rgb(0, 0, 0); fill: rgb(209, 219, 221); pointer-events: auto; stroke-width: 0.1;" pointer-events="auto"/>
      <path id="AL03" d="m1042.21 513.7-.03.04v.07l.09.1-.04.05-.06-.01-.15.11-.03.04v.09l-.04.09-.09.07-.03.09-.02.1-.06.02-.15-.08h-.07l-.03.06-.05-.01-.02.04.05.17.01.13-.03.06-.18.02-.07.08v.06l-.12.05-.02.06.06.04.06.1.06.02.01.14.05.16-.03.05-.08-.1h-.12l-.03.01v.1l.05.03.03.06v.13l-.1.05-.01.03.04.1.07.09.06.17.03.2-.04.07-.03.16-.13.1-.02.04.06.11-.01.04-.08.03-.07.04-.06.03-.06.05.01.1.05.03-.01.05-.15.12-.04.16-.06.07v.1l-.03.08v.17l-.04.04h-.06l-.19-.1-.04.03.02.08.15.13.05.02.01.05-.07.1-.02.07-.08.02-.04.05v.06l.05.09.02.06-.01.05-.07.04-.05.05-.04.12-.1.03-.08-.08-.09.01.02.1-.01.06-.1.02-.07.05-.25.07-.1.15.02.1-.06.06-.02.1-.08.1.05.11-1.28 1.85-.82 1.19-.37.06-.52.09.05.27.02.1.04.23-.26.06h-.14l-.53-.08.04.24.03.19.16.97-.8.12-2.44.4-.32.05-.02.01-.28.04-.13.03-.22.03-1.02.15-.53.07h-.05l-.45.07-.45.06.08.45-.57.07-1 .13-.12.1-.05.08-.04-.03h-.07l-.07.07-.08-.02h-.09l-.07.07-.07.02-.04.1-.1.07-.13.16-.94 1.19-.02.02-1.18 1.47-.36.92-.12.84.12.78.07.46.02.21.06.44-.05.08.05.05-.06.03v.14l-.12.03.04.1.05.05-.12.15.01.09-.08.03.01.06-.08.07.06.09-.02.05-.07.07-.12.05-.01.11-.04.05.02.03-.13.15-.03.01-.04.1 1.14-.18-.03.1.09.07h.04l.02.05-.03.1-.1.01-.02.1-.07.08-.02.11-.04.05-.09-.01v.04l-.06.02-.07.07-.03.05-.05.29.07.1v.06l.1.12h.04l.11.05v.07l-.02.03.02.05-.05.08v.05l-.06.12-.06.04.02.04-.14.07-.03.07-.07.07-.19.1-.06.13-.02.08-.12.16-.1.1-.01.03-.1.08-.03.04-.11.12.01.1-.14.26-.12.1-.05.12-.15.17h-.02l-.18.19-.07.03-.09.1.02.08-.07.04-.07-.03-.1.04-.16-.08-.07-.08-.03.05-.11.07-.13.01-.14.07-.17.06h-.05l-.15.13-.07.09h-.1l-.04.08-.06.02-.05-.02-.05.05-.15.01-.15.16-.04-.06-.06-.01-.05.03h-.05l-.02.05-.05.06-.13.2-.7.11-.73.1.06.45.1.7h.1l.8-.13.08.47.07.45.23-.03.06.45.23-.04.05.32.04.34.2 1.38.05.23-.23.03.08.45-.24.04.07.45-.22.03.09.6.09.65.08.6.09-.03.14-.02.03.23.68-.08.04.22.45-.07.46-.06.2 1.36.64-.1.39-.05.82-.13.82-.13.1.64.32 2.1.1.74v.06l.05.1.12.07.25.08.13.05.1.07.1.05.1.11.01.04.12.16.15.17.02.08v.07l-.04.06-.1.06-.07.03h-.12l-.19.05-.1.1-.02.1.03.16.07.1.05.07.01.08-.04.24v.07l.05.07.13.14.09.2.05.07.05.14-.01.08-.06.08-.12.08-.2.1-.12.08-.09.13-.14.15-.1.12-.26.13-.16.01-.2-.03-.11-.05-.14-.11-.06-.04-.08-.01-.05.03-.02.1.04.13.08.1.14.14.06.1.04.09-.01.15-.05.19-.08.2-.06.08-.1.05h-.07l-.2-.04h-.09l-.08.04-.04.05-.12.36-.02.08v.13l.04.13.04.1.11.18.03.1.02.14v.1l-.07.1-.06.04h-.12l-.13-.07-.12-.05h-.14l-.08.06-.05.05-.03.08-.07.24-.08.25-.02.1v.1l.03.06.08.05h.1l.13.04.11.08.12.16.32-.1.12-.07.06-.05.18-.18.08-.04.12-.03.69-.1.1-.01.07.07.04.09.03.18.13.08.02.03h.16l.07-.04.16-.04.14-.05.23-.03.1-.04.19-.04.37-.21v-.04l.16-.02.16-.01.24-.04h.1l.05.04.08.03.2-.03.13.03-.01.08.02.06-.02.06.07.11-.08.08-.22.22h-.12l-.05.04.06.07.81.48.17-.1.04-.06.16-.04-.02.07.03.1-.1-.03.04.08.01.1.05.12.25.16.19-.04.54-.09h.05l2.45-.4.76-.11h.02l2.98-.47.53 3.24.15.93.13.88.13.78.06.34.16.98.14.87.1.6-.13.02-.03.05.04.03h.11l-.03.06-.04-.01-.04.12.05.04.03.07.07.08.05.03.05.3.1.03v.07l-.04.13.02.1-.03.01.12.74.06.4.19-.03.72-.11-.08-.45.45-.06.08.44.46-.07 1.5-.23-.04.11.02.1.05.1.03.15-.03.08-.25.36v.1l.12.22v.06l-.06.19-.09.15-.12.07-.08.15-.02.18-.02.3.04.2.06.04.08.1.06.16.06.07.1.14.1.09.16.07.07.06.08.12v.71l-.02.1v.24l.04.16.02.2.04.13.1.26.07.29.06.18v.14l.1.3.05.11.09.27.02.15-.03.33v.36l.01.15.04.08.03.31.03.13.06.12.09.08h.03l.5-.1.44-.08.9-.14.45-.08-.16-.9-.08-.44-.12-.73-.11-.63 1.27-.22.97-.16-.08-.43.44-.08.08.43.9-.15.07.45.92.28.51.15.49.15.33.16h.05l.39.08.37.11.42.14 1.1.34.26.07 1.15-.2.17-.02.12.52.08.42.03.15.08.35.15.73.1.53 1.54-.27 1.17-.2-.1-.48-.3-1.31.99-.18 1.2-.22 3.4-.61.78-.16.29-.06.48-.09-.2-.98-.03-.14.2-.04.52-.09.3-.06.54-.1-.04-.14-.06-.05-.09-.05-.02-.12-.06-.07h-.01v.25l-.13.08-.06-.03-.04-.19-.23-.3h-.14l-.23-.24-.06-.26-.07.02-.07-.05-.12.05-.06-.06-.01-.11-.05-.07-.03-.04-.05-.03-.03.02-.03-.05h-.02l-.09.02-.07-.06v-.05l-.03-.07-.07-.06-.07-.02-.2-.17v-.04l-.02-.03-.1-.1-.1-.04h-.1l-.08-.13-.1-.12-.18-.26-.05-.08v-.05l-.04-.02-.03-.06-.03-.18-.05-.06-.17-.2-.07-.1-.05-.05v-.08l.03-.04.07-.03.05-.12.02-.05-.03-.06-.4.1-.17-.16-.05-.13.32-.38.06-.08-.16-.2-.24-.33-.12-.1-.1-.03-.13-.04-.1-.17-.07-.06-.03-.17-.03-.02-.03-.1v-.04l-.02-.02-.02-.07-.02-.06.03-.06-.02-.05h-.05l-.05-.06-.04-.1v-.16l.02-.09.05-.05.03-.04.01-.02.06-.2-.12-.2-.12-.04h-.18l-.07-.02-.1-.01-.09-.09-.05-.07-.05-.04-.02-.07-.05-.08-.05-.07-.02-.07.02-.1.08-.08.02-.03v-.13l.36-.12-.27-.18-.12-.11-.13-.06-.07-.1-.05-.05-.34-.13-.2-.16-.13-.12-.05-.06-.04-.1.04-.15-.02-.1-.1-.21.06-.2.24-.24-.01-.13-.03-.1-.18-.19-.2.1h-.12l-.16-.01-.19-.15-.03-.15-.03-.12.02-.05-.05-.1-.02-.06-.02-.03-.02-.1-.23-.68-.11-.31-.37-1.09-.07-.16-.4-1.2-.16-.49-.33-.92-.07-.23-.17-.48-.12-.4-.15-.42-.2-.55-.19-.63-.22-.66-.22-.7-.76-2.27-.17-.5-.11-.35-.18-.56-.56-1.67-.26-.76-.45-1.4-.08-.22-.12-.38-.14-.4-.11-.38-.12-.33-.48-1.43-.14-.41-.43-1.3-.22-.7-.22-.61-.01-.03-.3-.9-.28-.86-.18-.51-.27-.82-.25-.73-.15-.5-.08-.22-.58-1.76-.23-.74-.12-.35-.34-.99v-.06l-.49-1.44-.1-.27-.02-.07-.38-1.2-.05-.08-.66-1.97-.14-.5-.4-1.27-.17-.5-.64-1.9-.45-1.31-.2-.69-.23-.6-.14-.45-.4-1.22-.22-.58-.3-.9-.27-.77-.33-.96-.2-.53-.18-.56z" fill="#d1dbdd" stroke="rgb(209, 219, 221)" stroke-width="0.1" data-originalStrokeWidth="0.1" style="stroke: rgb(0, 0, 0); fill: rgb(209, 219, 221); pointer-events: auto; stroke-width: 0.1;" pointer-events="auto"/>
      <path id="AL04" d="m1038.8 503.65-.02.04-.1.03-.01.04-.1.05v.06l.06.08-.09.12-.07.09-.11.05-.08.15-.15.14-.09.03-.07.53-.01.08.07.44-.04.18-.08.3-.12.28-.13.45-.07.22v.05l-.13.18-.16.19-.49.1-.7 1.7-.37.86-.22.55-.42.91-.04.1-.4.43-1.58 1.74-.33.37-.17.18-.32.31-.19.24-.4.44-.06.1-.33.54v.03l-.05.1-.02.1-.23.15-.1.17-.09.04-.11.02-.02.03.04.1-.03.03h-.11l-.08.1h-.06l-.2.17-.1-.03-.1.04-.1-.02-.16.03-.03.1-.05.1-.1.04-.12.07-.05-.02-.08-.08-.1.05h-.1l-.16.07-.05-.02-.1.03-.11.13-.12.06-.05.1-.05.04-.09.03-.1.08-.14-.05-.06-.05-.02-.07.02-.24v-.08l-.05-.06-.09-.04-.13-.12-.06-.16-.08-.09.04-.08-.06-.08-.01-.06-.13-.05.1-.16.04-.03v-.07l-.05-.1.03-.06.06-.03-.08-.05-.05.01-.1.1h-.11l-.05-.03-.04-.06.01-.08.05-.05-.08-.08-.07.01-.07.09-.01.06-.05.03-.11-.08-.1-.17-.06-.01-.04.05.01.09-.1.11-.11.1-.06.1-.06.05-.07-.02.1-.27.04-.15-.25.03.01.1-.11.03-.02-.12h.12l-.01-.05h.15l-.01-.22-.35-.24.02-.01h.13l-.22-1.54-2.47.35-.22.03-1.85.3.06.04.14-.06.08-.02.05.02.1.1h.14l.07.05-.05.13-.01.1v.1h.14l.07.06-.08.02-.27.14-.12.03h-.09l-.04.09-.05.06h-.05l-.07-.02v.1l.06.05-.01.06.05.04.18-.03.26.03.06-.04.05.03.03.06-.04.1-.05.13.02.1-.03.01v.08l.1.27-.1.08-.1.16-.1.13-.04.16.01.12-.04.08-.09.02.02.05.06.02.03.07-.04.03h-.07l-.03.03.02.08-.08-.01-.07-.07-.15-.1-.06-.02-.08-.07-.1-.04-.04-.06-.04.1-.12.06-.03.1-.05.06-.08.04-.13-.08-.13-.06-.12-.03-.04.03v.08l-.05.03-.03-.05-.06-.03-.05.06.04.08.04.05-.01.13.02.09.08-.05.03.08-.07.04.04.03v.13l-.12.1-.07.07h-.04l-.14-.04-.03.05-.07.02-.03.04-.06.01-.04.14-.13.23-.05.13-.04.02-.17-.03-.1-.06h-.08l-.3.02-.1.04-.2.2-.14.11-.1-.07-.09-.03-.28.03h-.2l-.15-.02-.8-.39-.15-.12-.07-.11-.02-.15-.03-.07-.2-.3-.2-.33-.1-.12-.02-.1-.05.03.02.06v1.27l.01.9v.13l.01.5.02.78.02 1.07v.74l.18 1.16.1.67.03.25-.36.04-.9.13-.22.02-.1.02-.67.1-.18.02-.63.08-.9.12-.18.02-.36.05-.22.02-.25.04-.45.06-.48.07-.67.08-.42.06-.54.06-1.26.13-.11.02-1.14.13-.76.11-2.27.31-.47.02.07.45-.38.06-.95.14-.9.13-1.35.2-.24.03-1.1.15-.44.05-1.42.17-3.22.34-.3.03-.45.07-.07-.45-.07-.45-.07-.46-.13-.84-.15-1.03-.1-.67-.15-1.25-.01-.05-.07-.63-.05-.3-.08-.62-.04-.24-.11-.79-.06-.44.14-.01.1-.06.08.05.04-.06-.11-.1v-.21l.08-.04h.1l.02-.03.05-.15-.01-.08-.06-.04-.07-.03.04-.16-.04-.02-.08.02-.03-.11.07-.03.01-.04-.03-.06.06-.09.07-.02v-.1l.07-.04-.04-.05v-.1l-.1-.04.01-.04h.06l.1-.17v-.1l.11.03-.04-.09h.1l.05-.06.05-.02.01-.07h.08l.02-.04-.04-.05.02-.12.07-.02.08-.05-.04-.07-.13-.06v-.06l-.06-.03v-.08l.07-.07.07-.05h.04l.22.04.24.11-.03-.06v-.1l.1.04.02-.08.14.02.05-.02.04-.06.01-.1-.1-.13.1-.11-.12-.07-.03-.05v-.13l.05-.1.05-.09-.12-.1-.09.1-.05-.03.06-.11-.04-.05-.06-.1-.02-.09v-.2l.05-.06h.05l.05-.07.17-.06.06-.13.1-.1.1-.1.02-.02-.03-.1-.07-.04v-.05l-.06-.03h-.05v-.07l-.07-.17-.05-.07v-.07l.06-.04v-.09l-.01-.11.17-.07.06-.09-.08-.1-.04-.08-.02-.1-.04-.04.18-.2.05-.07.02-.1v-.09l-.03-.07-.08-.06-.22-.08-.14.03-.04-.02.04-.18-.06-.05.05-.03h.06l.05-.12v-.1l-.1-.19.04-.18-.11-.03-.11-.06-.41-.09-.43-.04h-.06l-.3.01-.17-.03-.13-.07-.11-.04.01-.3-.04-.3v-.07l.04-.08.08-.08v-.14l-.05-.13-.02-.11.02-.06-.07-.16h-.08l-.06-.08-.08-.05-.01-.09.21-.03.06-.17.06-.08.01-.03.07-.07-.03-.24.01-.03.1-.11.06-.1.1-.12.07-.06.09-.05.08-.07.15-.03.04-.04-.05-.09v-.22l.03-.06.1.01.03-.04-.02-.1.03-.14.14-.08.08.08.04-.04-.08-.12-.04-.08.01-.12-.01-.07.05-.06v-.08l-.03-.05v-.11l-.03-.09-.13-.09-.03-.06.07-.04.02-.1-.06-.07v-.08l-.04-.06.05-.25-.04-.13-.09-.08-.03-.06-.05-.01-.03-.07.02-.05-.06-.22.1-.16v-.05l.2-.02.01-.06h-.14l.03-.45-.1.01-.07.03-.2.03-1.62.21-.19.02-.51.08-.82.1-.62.09-.68.1h-.04l-.5.05-.2.03-.25.04-1.14.16-.21.03-.33.03-.3.04-.2.01-.55.09h-.2l-.37.06-.5.06-.5.07-.91.11-.83.11-.9.11-.26.04-1.47.2-.07-.5-.3.54-.14.02-.68.09-.47.06-.63.08-1.08.12-.98.13-.38.03-.28.03-.18.02.06.56.05.21.1.23.1.15.17.21.16.2.38.74.08.08.2.28.4.28.3.15.75.18.05.07.08 1.82.02.77v.12l.03.9v.7l.02.32.05 1.3-.02.49.02.95v1.97l.03.36.02.52v1L975 524l.02.38.02.64v.42l.06 1.15.04 1.17.03 1.34.02.58v.58l.03.44.01.67v.34l.02.3.06 1.51v.83l.07 2.66.03.73.02.79v.7l.04.93.01.43.02 1.09.05 1.68-.01.17.02.45v.07l.01.74.02 1.16v.25l.04 1.14v.49l.02 1.02.09 1.96.02.8v.4l.03.57.02 1.11.4.03v.33l.04 1.01.63-.07h.1l1.04-.12 1.84-.18.29-.03.75-.07.3-.03.84-.06.29-.03.43-.06.58-.06h.04l1.39-.11 1.84-.28.43-.07.46-.05.06.41.07.38.43 2.81.08.65.06.35.15 1.13.1.73.15 1.05.05.41.07.54.04.16.16 1 .14.95.07.6.1.96.05.48.11.86.2-.02.08.59.05.38.07.57.1.84v.01l.48-.06.59-.08.29-.04.74-.1.05-.02 1-.15v.07l.05.05.06.02.07-.02.03-.04.04-.11.09-.07.05.03.03.09.07.1.15.05.07-.05.1-.32.08-.17.05-.05.08.01.02.03.01.22.05.07.08.01.05-.01.07-.07.03-.09-.01-.19v-.1l.04-.07.05-.01.32.08.04.26.05.1.1.12.06.05.04-.01.2-.14.05-.06v-.05l-.07-.05-.16-.15-.02-.04-.02-.17-.04-.06-.1-.09-.05-.13v-.07l.04-.05.11-.04h.1l.06-.02.04-.06-.06-.08-.1-.09-.08-.19v-.04l.07-.04.21-.04h.1l.08.02.07-.01.08-.05.09-.08.07-.09.1-.14.04-.07v-.05l.08-.12.08-.09.03-.1v-.05l-.13-.05.07-.06.02-.08.15-.08.04-.07.02-.16.1-.02.1-.05h.1v-.07l.03-.08.08-.01.03-.05.05.09.06-.02v-.28l.13-.02.03-.06v-.14h-.07l-.05.07h-.06l-.05.1-.08.01-.05-.03v-.12l.03-.08-.16-.05-.34.03.04-.07.03-.3-.03-.13-.06.02.03-.79-.2.15-.12.08-.16.08-.09-.17.16-.06.06-.05.03-.07v-.08l-.02-.07.04-.2-.22.02-.01-.06-.05-.08v-.07l-.09.01-.05-.07h-.03l-.07.06.01.1h-.07l-.01-.06-.1.1-.08.05-.49.04-.02-.01.1-.21.08-.08.04-.2.06-.05.04-.05.12-.1.1-.03-.01-.14.41-.23.18-.08.21-.1.1-.07.37-.19.17-.1.1-.01h.14l.14-.03.12-.07h.05l.07.1-.01.09.11.05.2-.02.12-.07.05-.05.06-.13.03-.03.18-.07.08-.02.02.11-.07.02.03.1h-.05l.03.23.11-.01.04.1.12-.01-.01-.06h.09v-.05l.08-.02-.03-.06.06-.05.26-.02.05-.04.05-.15-.05-.02h-.17l-.05-.08-.05-.16.05-.03.09-.02h.08v-.04l-.05-.04-.06-.08.04-.08.08.01.06-.02-.06-.13.06-.08-.1-.03-.04.02v.08l-.06-.03-.06-.1v-.08l.08-.13.13-.01.2-.08.17-.03h.23l.08-.03.07-.08.06-.13.02-.07v-.12l-.02-.12-.07-.16v-.05l.01-.06.11-.12.16-.09.27-.07.14-.08.04-.08-.02-.26-.05-.18-.05-.08-.1-.07-.17-.05-.1-.04-.12-.17-.1-.16-.07-.16-.03-.1v-.09l.01-.2-.02-.11-.05-.19-.01-.09.08-.25.02-.1-.01-.1-.1-.21-.02-.12.02-.07.05-.1.18-.29.07-.15.03-.19.04-.27.02-.29.05-.23.06-.15.08-.12.1-.22-.01-.04.1-.16.1-.12.08-.06.07-.1.06-.13.14-.25.2-.2.08-.16.05-.15.04-.18v-.2l.09-.06h.08l.05.02.22.12.15-.1.06-.03h.06l.07.05.1.2.07.06h.1l.1-.03.07-.08-.01-.13-.13-.28-.03-.08v-.08l.07-.08.09-.02.13.01.07.03.08.06.1.02.12-.05.04-.09.01-.1-.03-.08-.1-.1-.08-.08-.08-.06-.1-.03-.03-.04-.04-.08v-.08l.02-.14.07-.1.04-.01.12.03.08.08.1.25.1.08.1.02.08-.05.12-.22.04-.13.02-.11-.02-.14v-.1l.07-.1.08-.02.36.05.14-.03.09-.09.2-.35.06-.05.26-.08.03-.08v-.06l-.08-.07-.14-.03-.1-.07-.23-.28-.04-.1v-.1l.05-.17.08-.19v-.12l-.03-.19.45-.06-.06-.46.9-.11-.06-.47.5-.06.83-.12-.13-.9.9-.12-.04-.27-.01-.16-.04-.28-.03-.2.45-.07v-.06l-.22-1.3.23-.03-.06-.46.21-.03-.13-.91.45-.06-.07-.46.15-.02.34-.04.41-.05-.07-.46.45-.05-.06-.45.44-.07.66-.58.56-.5.22-.02h.08l.94-.12.46-.05.38-.04.86-.12.28-.03.27.14.46.23.56.3 1 .52.16.07.8.41-.08.01.04.22.23-.03-.03-.1.18.08.2-.02.28-.03.62-.1.32-.05-.1-.7-.06-.44.72-.1.71-.12.13-.2.05-.06.02-.05h.05l.05-.03h.06l.04.07.15-.16.15-.01.05-.05.05.02.06-.02.03-.09h.11l.07-.08.15-.13h.05l.17-.06.14-.07h.13l.11-.08.03-.05.07.08.15.08.1-.04.08.03.07-.04-.02-.08.1-.1.06-.03.18-.2h.02l.15-.16.05-.13.12-.1.14-.25-.01-.1.11-.12.03-.04.1-.08.01-.04.1-.09.12-.16.02-.08.06-.12.19-.1.07-.08.03-.07.14-.07-.02-.04.06-.04.07-.12-.01-.05.05-.08-.02-.05.03-.03v-.07l-.12-.06-.03.01-.11-.12v-.07l-.07-.1.05-.28.03-.05.07-.07.06-.02v-.04l.1.01.03-.05.02-.11.07-.07.02-.1.1-.02.03-.1-.02-.05h-.04l-.1-.07.04-.1-1.14.18.04-.1h.03l.13-.16-.02-.03.04-.05.01-.11.12-.05.07-.07.02-.05-.06-.09.08-.07v-.06l.07-.03-.01-.1.12-.14-.05-.04-.04-.1.12-.04v-.14l.06-.03-.05-.05.05-.08-.06-.44-.03-.21-.06-.46-.12-.78.12-.84.36-.92 1.18-1.47.02-.02.94-1.19.12-.16.11-.07.04-.1.07-.02.07-.06.1-.01.07.02.07-.07h.07l.04.03.05-.09.11-.09 1.01-.13.57-.07-.08-.45.45-.06.45-.07h.05l.53-.07 1.02-.15.22-.03.13-.03.28-.04h.02l.32-.05 2.44-.41.8-.12-.16-.97-.03-.19-.04-.24.53.08h.14l.26-.06-.04-.23-.02-.1-.05-.27.52-.1.37-.05.82-1.19 1.28-1.85-.05-.11.08-.1.02-.1.06-.06-.02-.1.1-.15.25-.07.07-.05.1-.02v-.16h.08l.08.07.1-.03.04-.12.05-.05.07-.04.01-.05-.02-.06-.05-.1v-.05l.04-.05.08-.02.02-.08.07-.09-.01-.05-.05-.02-.15-.13-.02-.08.04-.02.2.09h.05l.04-.04v-.17l.03-.07v-.11l.06-.07.04-.16.15-.12.01-.05-.05-.03-.01-.1.06-.05.06-.03.07-.04.08-.03.01-.04-.06-.1.02-.06.13-.09.03-.16.04-.07-.03-.2-.06-.17-.07-.1-.04-.09.01-.03.1-.05v-.13l-.03-.06-.05-.04v-.09l.03-.01h.12l.08.1.03-.05-.05-.16-.01-.14-.06-.03-.06-.09-.06-.04.02-.06.12-.05v-.06l.07-.08.18-.02.03-.06v-.13l-.06-.17.02-.04.05.01.03-.05.07-.01.15.08.06-.01.02-.11.03-.09.09-.07.03-.1.01-.08.03-.04.15-.11h.06l.04-.05-.1-.09.01-.07.03-.03-.06-.18-.04-.1-.03-.08-.07-.18v-.03l-.11-.35-.06-.15-.25-.76-.19-.5-.17-.57-.56-1.61-.2-.53-.1-.34-.14-.42-.04-.13-.08-.2v-.02l-.38-1.09-.13-.42-.43-1.28-.02-.04-.16-.5-.15-.46-.04-.12zm-51.54 1.46-.33.14.36-.04zm-.65.17v.43l-.09.1.1-.1z" fill="#d1dbdd" stroke="rgb(209, 219, 221)" stroke-width="0.1" data-originalStrokeWidth="0.1" style="stroke: rgb(0, 0, 0); fill: rgb(209, 219, 221); pointer-events: auto; stroke-width: 0.1;" pointer-events="auto"/>
      <path id="AL05" d="m1037.05 499.35-.42.06-.47.06-.52.08-1.15.17-.12.01-.93.12-.24.05-.88.12h-.14l-.88.15-.64.1-.66.09-.23.04-1.19.17-1.13.18-1.7.25-.45.07-1 .14-2.4.36-.72.1-1.12.15-2.16.3-1.08.19-.36.07-.13.01-.4.07-.32.06-.6.08-.94.14-.43.06-.64.1-.45.05v.02l-.52.06-1.06.15-.42.05-.09.02-.16.01-.05.02-.85.13-.22.02-.18.03-.27.04-.22.03-.72.1-1.86.29h-.13l-.57.09-.52.05-.17.03-.83.09-.76.1h-.06l-.47.07-.58.06-.47.06h-.02l-.14.02-.17.02-.32.04-.45.05-.42.06-.84.1-.87.1-.11.02-.3.03-.5.06-.61.08h-.14l-.36.05-1.12.12-.47.06h-.12l-.45.06-.23.05h-.17l-.18.03-.33.04-.06.45-.3.04-.48.06-.5.07-.02.06-.2.02v.05l-.1.16.06.22-.02.05.03.07h.05l.03.07.09.08.04.13-.05.25.03.06.01.08.06.06-.02.1-.07.05.03.06.13.1.04.08-.01.1.03.06v.08l-.05.06.01.07-.01.12.04.08.08.12-.04.04-.08-.08-.14.08-.03.14.02.1-.02.04h-.1l-.04.05v.22l.05.09-.04.04-.15.03-.08.07-.09.05-.07.06-.1.12-.06.1-.1.1-.01.04.03.24-.07.07v.03l-.07.08-.06.17-.21.03v.1l.09.04.06.08h.08l.07.16-.02.06.02.1.04.14v.14l-.07.08-.03.08-.01.07.04.3-.01.3.1.04.14.07.18.03.29-.02h.06l.43.05.41.1.1.05.12.03-.03.18.1.18v.1l-.06.13h-.06l-.05.03.06.05-.04.18.04.02.14-.03.22.08.08.06.02.07v.09l-.01.1-.05.07-.18.2.04.05.02.1.04.07.08.1-.06.09-.17.07.02.11-.01.09-.06.04v.07l.05.07.06.17v.07h.06l.05.03.01.05.07.04.03.1-.01.03-.12.1-.1.1-.05.12-.17.06-.05.06-.05.01-.04.06v.2l.01.09.06.1.04.05-.06.1.05.04.09-.1.12.1-.05.08-.04.1v.14l.02.05.12.07-.1.1.1.15v.1l-.05.05-.05.02-.14-.02-.02.08-.1-.05v.1l.03.07-.24-.1-.22-.06h-.04l-.07.06-.06.07v.08l.05.03v.06l.13.06.04.07-.08.05-.07.02-.02.12.04.05-.02.04h-.08l-.01.07-.05.02-.06.06h-.1l.05.09-.1-.02-.02.09-.09.17h-.06v.04l.08.05.01.09.04.05-.07.04v.1l-.07.02-.06.09.03.06-.01.04-.07.03.03.1h.08l.04.01-.04.16.07.03.06.04v.08l-.04.15-.03.04-.09-.01-.07.04-.02.03v.19l.12.09-.04.06-.09-.05-.09.06-.14.01.06.44.11.8.04.23.08.62.05.3.07.63.02.05.15 1.25.09.67.15 1.03.13.84.07.46.07.45.07.45.45-.07.3-.03 3.22-.34 1.42-.17.44-.05 1.1-.15.24-.03 1.35-.2.9-.13.95-.14.38-.06-.07-.45.47-.02 2.27-.31.76-.1 1.14-.14.1-.02 1.27-.13.54-.06.42-.06.67-.08.48-.07.45-.06.25-.04.22-.02.36-.05.18-.02.9-.12.63-.08.18-.01.67-.1.1-.03.21-.02.9-.13.37-.04-.04-.25-.1-.67-.16-1.16v-.74l-.03-1.07-.02-.78v-.63l-.01-.9v-1.27l-.03-.06.05-.03.03.1.1.12.2.32.2.31.02.07.02.15.07.11.16.12.79.4.14.01h.21l.28-.03.09.03.1.07.14-.1.2-.21.1-.04.3-.01.08-.01.1.06.17.03.04-.02.05-.13.13-.23.04-.14.06-.01.03-.04.07-.02.03-.05.14.05.04-.01.07-.07.11-.1.01-.13-.04-.03.07-.04-.03-.08-.08.05-.02-.09v-.13l-.03-.05-.04-.08.05-.06.06.03.03.05.04-.03.01-.08.05-.03.1.03.14.06.13.08.08-.04.05-.06.03-.1.12-.05.04-.1.05.05.09.04.08.07.06.02.15.1.07.07h.08l-.02-.07.03-.04.07.01.04-.03-.03-.07-.06-.02-.02-.05.09-.03.04-.07-.01-.12.04-.16.1-.13.1-.16.1-.08-.1-.27v-.08l.03-.02-.02-.09.05-.12.05-.1-.04-.07-.05-.03-.06.04-.26-.03-.18.03-.05-.04.01-.06-.06-.06v-.09l.07.03.05-.01.05-.06.04-.09h.09l.12-.03.27-.14.08-.02-.07-.06h-.13l-.01-.1.01-.1.05-.13-.07-.04-.13-.02-.1-.09-.06-.02-.08.02-.14.06-.06-.04 1.85-.3.22-.03 2.47-.35.22 1.55-.13-.01-.02.01.35.24v.22h-.14v.04l.26-.03-.04.15-.1.27.07.02.06-.06.06-.1.11-.09.1-.11v-.09l.03-.05h.05l.1.18.12.08.05-.03.01-.06.07-.09.07-.01.08.08-.05.05v.08l.03.06.05.02.1.01.1-.1.06-.01.08.05-.06.03-.03.06.06.1-.01.07-.04.03-.1.16.13.05.01.06.06.08-.04.08.08.1.06.15.13.12.1.04.03.06.01.08-.02.24.02.07.06.05.13.05.11-.08.1-.03.04-.04.05-.1.12-.06.11-.13.1-.03.05.02.16-.08.1.01.1-.05.08.08.05.02.11-.07.11-.03.05-.12.03-.1.16-.02.1.02.1-.04.1.03.2-.17h.06l.08-.1h.11l.03-.04-.04-.09.02-.03.11-.02.1-.04.1-.17.22-.16.02-.1.06-.09V516l.32-.54.05-.1.41-.44.2-.24.31-.31.17-.18.33-.37 1.58-1.74.4-.44.04-.09.42-.91.22-.55.36-.86.71-1.7.5-.1.15-.2.13-.17v-.05l.07-.22.13-.45.12-.28.08-.3.04-.18-.07-.44.01-.08.07-.53.09-.03.15-.14.08-.15.11-.05.07-.09.09-.12-.07-.08.02-.06.09-.05.02-.04.1-.03.01-.04-.18-.55-.2-.64-.22-.7-.07-.22-.22-.69-.1-.32-.15-.5-.1-.33-.24.03zm-10.8 16.6h-.12l.02.12.11-.02z" fill="#d1dbdd" stroke="rgb(209, 219, 221)" stroke-width="0.1" data-originalStrokeWidth="0.1" style="stroke: rgb(0, 0, 0); fill: rgb(209, 219, 221); pointer-events: auto; stroke-width: 0.1;" pointer-events="auto"/>
      <path id="AL06" d="m1007.44 545.82-.2-1.3.23-.03-.07-.46.21-.03-.13-.91.45-.06-.07-.46.15-.02.34-.04.41-.05-.07-.46.45-.05-.06-.45.44-.07.66-.58.56-.49.22-.03h.08l.94-.12.46-.05.38-.04.86-.12.28-.03.27.14.46.23.56.3 1 .52.16.07.8.41-.07.01.03.23.23-.04-.02-.1.17.08.2-.02.28-.03.62-.1.32-.05h.1l.8-.13.08.47.07.45.23-.03.06.45.23-.04.05.32.04.34.2 1.38.05.23-.23.03.08.45-.24.04.07.45-.22.03.09.6.09.65.08.6.09-.03.14-.02.03.23.68-.08.04.22.45-.07.46-.06.2 1.36.64-.1.39-.05.82-.13.82-.13.1.64.32 2.1.1.74v.06l.05.1.12.07.25.08.13.05.1.07.1.05.1.11.01.04.12.16.15.17.02.08v.07l-.04.06-.1.06-.07.03h-.12l-.19.05-.1.1-.02.1.03.16.07.1.05.07.01.08-.04.24v.07l.05.07.13.14.09.2.05.07.05.15-.01.08-.06.07-.12.08-.2.1-.12.08-.09.13-.14.15-.09.12-.27.13-.16.01-.2-.03-.11-.05-.14-.11-.07-.04-.07-.01-.05.03-.02.1.04.13.08.1.14.14.06.1.04.09-.01.15-.05.19-.08.2-.06.08-.1.05h-.07l-.2-.04h-.09l-.08.04-.04.05-.12.36-.02.08v.13l.04.14.04.1.1.17.04.1.02.14v.1l-.07.1-.06.04h-.12l-.13-.07-.12-.05-.14.01-.08.05-.05.05-.03.08-.07.24-.08.25-.02.1v.1l.03.06.08.05h.1l.13.04.11.08.12.16.32-.1.12-.07.06-.05.18-.18.08-.04.12-.03.69-.1.1-.01.07.07.04.09.03.18.13.08.02.03h.16l.07-.04.16-.04.14-.05.22-.03.12-.05.18-.03.38-.21-.01-.04.16-.02.16-.01.24-.04h.1l.05.04.08.03.2-.03.13.03v.19l.06.12-.08.08-.22.22h-.12l-.05.04.06.07.81.48.17-.1.04-.06.16-.04-.02.07.03.1-.1-.03.04.08.01.1.05.12.25.16.19-.03.54-.1h.05l2.45-.4.76-.11h.02l2.98-.47.53 3.24.15.93.13.88.13.78.06.34.16.98.14.87.1.6-.13.02-.03.05.04.03h.11l-.03.06-.04-.01-.04.12.05.04.03.07.07.09.05.02.05.3.1.03v.07l-.04.13.02.1-.03.01.12.74.06.4.19-.03.72-.11-.08-.44.45-.07.08.44.46-.07 1.5-.23-.04.11.02.1.05.1.03.15-.03.08-.25.35v.1l.12.23v.06l-.06.19-.09.15-.12.07-.08.15-.02.18-.02.3.03.2.07.04.08.1.06.16.06.07.1.14.1.09.16.07.07.06.08.12v.71l-.02.1v.24l.04.16.02.2.04.13.1.27.07.28.06.18v.14l.1.3.05.11.08.27.03.15-.03.33v.36l.01.15.04.08.03.31.04.13.05.12.09.08.1.04.12.08.09.1.16.08.16.03h.1l.14-.06.05.04.03.06v.05l-.04.02-.15-.02-.31.12-.05.07.02.1-.06.09-.02.07.03.16-.08.14.05.07.07.01-.04.09-.24.1-.12.01-.1-.04-.08-.02-.14.03-.43.02-.15-.05h-.06l-.05.03-.13.14-.1.15-.05.05-.13.06-.1.08-.05.02h-.09l-.04-.02-.07-.1-.02-.1-.1-.04-.08-.02-.12-.04h-.13l-.05.08v.04l.06.05.13.05-.02.06-.1.13-.07.06-.07-.02-.13-.14-.03-.06v-.12l-.02-.03-.09.04-.05.19.04.1.15.16.03.11-.04.1-.06.07-.12.06h-.04l-.16-.02-.05.05-.1.16-.05.07-.1.06h-.06l-.16-.06-.15.01-.09.06-.1.13-.04.06v.1l.05.13-.06.09h-.09l-.14-.03-.15.02-.34-.04h-.07l-.07-.03-.17-.14-.09-.1h-.05l-.12.12-.1.03h-.13l-.16.05-.09.07-.08.02-.03-.02-.04-.18-.05-.04-.05.03-.04.1-.06.03-.13-.05-.02-.08.04-.06.06-.17v-.05l-.07-.01-.06.08-.08.04-.1.02-.06.04-.09.1-.2.1-.1-.05-.04-.11.01-.13-.04-.02-.05.03h-.07l-.09-.08-.06-.03-.17-.02-.05.03h-.1l-.04.05-.06.12-.1.1-.1.02-.06-.1-.08-.07v-.09l.13-.05.08-.08.09-.06v-.09l-.12-.05-.12-.15h-.06l-.07.07-.08.12-.06.02-.04-.03-.07-.13-.16-.16-.09-.12-.03-.1-.01-.1-.07-.04-.05.02-.04.06-.06.14-.08.03-.07-.01-.06-.08-.02-.13.05-.11.08-.01.03-.05-.12-.14-.05-.02-.09-.1-.09-.02-.02.06v.08l-.06.02-.07-.04v-.1l.04-.09-.02-.05-.13-.01-.12.03-.04-.03-.07-.08-.05-.01-.11.02-.16-.03-.03.03.02.07v.06l-.06.05v.05l.03.06.13.04.02.03-.04.08-.11.05-.05.05-.06.02-.11-.05h-.05l-.08.06-.04.1-.04.07-.1.1v.04l.03.07-.06.04-.12-.04-.1-.06-.14-.18-.05-.09-.07-.08-.1-.03-.07.02-.03.04-.01.09.03.08.09.08.06.1.05.14.02.1v.07l-.03.24-.1.34-.05.05-.1.08-.06.1.04.09.21.08.06.04.1.14.08.16.11.16v.07l-.03.13-.06.08h-.05l-.07-.03-.07-.16-.06-.05-.23-.07-.14-.06-.16-.1-.18-.07h-.16l-.08.03-.07.08-.42.07-.25.13-.18.06h-.18l-.04.02-.02.1.1.14.04.1-.04.1-.07.05-.17.04-.06.03-.36.31-.13.05-.15.04-.12.05-.1.02-.09-.01-.1-.08-.13-.05-.08.01-.05.09.01.05.06.12.02.06-.05.18v.06l.05.23v.09l-.15.18-.1.16-.02.1-.04.04h-.08l-.12-.04h-.07l-.13.1v.1l.02.07.09.2.01.06-.02.14-.03.04-.1.04-.16.05-.43.17-.32.1-.14-.06-.07-.12-.17-.56-.05-.08-.12-.07-.29.05-.33-.14-.13-.02-.1.02-.06.04-.14.25-.03.19-.12.04-.57-.33-.05-.09-.03-.08v-.08l.03-.19v-.18l-.03-.14-.08-.13-.07-.08-.06-.01h-.08l-.04.07-.1.08-.1.04h-.17l-.15.04-.1.07-.1.12v.08l-.01.2.06.14.03.1-.03.14-.12.18-.14.22-.13.19-.12.15-.06.06-.05.02h-.08l-.3-.07-.18-.02-.2-.03-.09-.05-.05-.15-.12-.12-.04-.14v-.12l-.07-.33v-.08l.03-.08v-.14l-.03-.07-.1-.05h-.08l-.07.03-.04.04-.07.15-.12.15-.1.12-.11.07-.09.04-.2.02-.16-.02-.17-.08-.15-.01-.09.03-.07.08v.11l.03.12.04.17-.02.14.03.15.06.05.32.84-.35.88-.16.22-.33.08-.14-.06-.14-.14-.1-.56.02-.12.23-.31.03-.1v-.1l-.02-.08-.13-.2-.16-.29-.07-.06-.12-.04-.15-.1-.1-.1-.12-.21-.1-.1-.1-.06-.12-.14-.1-.28-.01-.18.04-.06.06-.05.11-.07.22-.05.07-.07.01-.05-.03-.05-.1-.07-.12-.03h-.11l-.12-.03-.1-.06-.15-.1-.1-.01-.1.03-.03-.04h-.05l-.05.05h-.13l.03-.08-.02-.06.03-.07.05-.05v-.06l.04-.07-.06-.1-.02-.06-.07-.06-.11.03-.03-.02-.02-.1-.04-.06v-.16l-.07.03-.02-.04v-.08h-.06l-.05-.05-.04-.13-.1-.01-.02-.05h-.06l-.01-.05.1-.03.02-.12-.14-.1.01-.16h-.05l-.03-.06-.08-.09h-.05l-.04-.05V582l-.06-.02.02-.06-.11-.04-.04-.1v-.09l-.03-.04-.1-.08-.1-.12-.05-.04.06-.05-.03-.11-.06-.03-.07.01v-.1h.08l-.03-.07-.08-.03v-.12l.04-.15-.04-.05.05-.07.07-.06-.03-.04.02-.07v-.22l-.06-.05-.06-.18.06-.08-.08-.07-.03-.07-.04-.02-.01-.13-.06-.02-.01-.07.03-.07-.03-.08-.06-.07v-.1l-.04-.11-.05-.05.04-.04-.02-.04-.06.02-.01-.08-.07-.04.05-.05-.03-.14-.07-.04.01-.12-.05-.04.04-.07v-.06l-.13-.26-.06-.04v-.04l-.06-.04-.03-.07.03-.09h.07l.03-.03-.06-.08-.09-.02v-.08l-.1-.06v-.13l.05-.12h-.11l-.24.04-.52.08-.12.02-.4.07-.08.01-.66.1-.47.08-.06-.45-.07-.45-.2-1.37-.06-.44-.1-.59-.09-.6-.1-.6-.08-.53-.07-.4-.6.11-.59.09-.86.14-.7.12-.5.07-.28.05-.44.05-.64.1-.7.1-.24.14-.43.07-1.8.27-.16-1.07-.05-.3-.42.08-1.6.23-.62.1-.1-.89-.1-.61-.07-.47-.15-1.07-.12-.73-.04-.16-.01-.1 1.21-.2.26-.04 1.2-.23-.06-.51-.15-2.26.42-.94.06-.12.12-.27.83-.08.75-.08.39-.05.18-.02-.06-.43-.11-.8-.06-.4-.06-.43.04-.05.82-1 .2-.25.22-.03-.02-.12.56-.07.08.45.45-.07.6-.9.24-.03 2-.26.19-.03-.03-.22.11-.01-.01-.12.1-.02v-.1l.1-.02-.03-.23.57-.07-.03-.23.34-.05-.02-.12.22-.03-.08-.58.1-.01-.01-.12.12-.01-.02-.12.23-.03-.02-.12.23-.04-.04-.22.11-.02-.01-.11.1-.02-.03-.22.23-.03-.03-.23 1.34-.17-.12-.9.06-.06-.04-.05.04-.04V555l.04-.01.06-.09.14-.08-.09-.07.07-.14-.03-.03-.07.05-.06-.02.01-.12-.08-.05-.15-.02-.07-.02-.02-.05.04-.1-.02-.1-.04-.1-.11-.06-.18.08-.05-.1.12-.05-.03-.14h-.1l-.02-.13.01-.1.06-.03v-.07l.08-.1.06-.03.16-.02.02.04.13.02-.01-.08.05-.11-.1-.03.05-.05-.1-.14-.04-.09.04-.14.08-.16.02-.1-.02-.07.11-.06.21-.2-.03-.05-.04-.11h-.08l-.02.05h-.05l.01-.07.04-.07.08-.07-.03-.23.08-.03.17-.04.06-.07.04-.01.02.08.1-.01-.02-.2-.12.01-.1.06-.01-.12.02-.07.04-.03-.02-.07.16-.13-.01-.03.1-.07.03-.06.13-.12.06-.03.06-.08.2-.14.04-.08h.05l.31-.32.07.04.02.14h.06l.03.16.03.02.14-.04.02-.1-.02-.05.06-.13h.02l.08-.1.15-.16.09-.07.11-.14.07-.07.02-.09.07-.03.09-.08-.01-.06.08-.07.23-.3.1-.05v-.08l-.08-.07-.18-.06-.08.1-.07.15-.1.09-.03-.18.1-.01.07-.13h.04l.18-.3.12-.34.05-.1.16-.15-.03-.09-.07.02v-.04l.23-.13.1-.05.09-.09.05-.1.04-.04-.1-.1v-.1l-.07-.03-.05-.06-.07-.05-.15-.06.03-.12-.02-.14.01-.05-.1-.04-.14.02.03-.08v-.16l-.17.02-.01-.08-.12-.04-.06-.07h-.08l-.03-.07-.05-.32v-.12l-.2.03-.05-.04-.07.05v.06l.01.12h.05v.06l-.04.03-.13.15-.17-.14-.03.05-.1.03-.01-.04-.1-.06.03-.07-.1-.03.16-.25-.2-.1-.06.02-.15.21-.19.16-.14.15-.05.03-.35.14-.16.05-.12.08-.05.05-.22.28-.08-.03-.05-.05h-.1l-.05-.06-.12.02.04.24-.12-.03-.11.02-.05.02h-.12l.02.18.07.07-.12.02-.1-.02-.35.04-.02-.12-.1.02-.02-.12-.23.03-.1.04.01.04h-.09l-.12-.06h-.06l-.11.06h-.12l-.16.06-.12-.02-.06-.06v-.09l.14-.01.02-.04.17-.08-.02-.08-.1-.03-.02-.19-.07-.1-.03-.1-.07.03-.1-.09-.53.15.01-.08-.04-.03-.17-.2-.05-.13-.05-.01h-.1l-.01.03.06.1-.02.04.06.17.04.08.12.17v.08h-.67l-.04-.22-.03-.05-.05-.02-.1.04-.01-.05-.14-.1h-.12l-.08-.05-.04-.12-.03-.2.02-.14-.02-.1.11.04v-.06l.08.03-.02-.16-.23.03-.04-.24-.04-.28.12-.06-.16-.01-.02.05-.05.05h-.07l-.17-.08.03.2-.18-.04h-.1l-.22.13-.04.1.01.1v.05l.05.04-.12.11-.07.04-.14-.05.01.1-.03.07-.07-.07-.1-.12-.16-.06h-.04v.07l-.04.08-.08-.06-.14.03-.06.04-.07.07-.12.07h-.08Z" fill="#d1dbdd" stroke="rgb(209, 219, 221)" stroke-width="0.1" data-originalStrokeWidth="0.1" style="stroke: rgb(0, 0, 0); fill: rgb(209, 219, 221); pointer-events: auto; stroke-width: 0.1;" pointer-events="auto"/>
      <path id="AL07" d="m1009.57 544.78-.02.05-.05.05h-.07l-.17-.09.03.22-.18-.05h-.1l-.22.13-.04.1.01.1v.05l.05.04-.12.11-.07.04-.14-.05.01.1-.03.06-.07-.06-.1-.12-.16-.06h-.04l-.01.07-.03.08-.08-.06-.14.03-.06.04-.07.07-.12.07h-.08l-.06.12.01.06-.45.07.03.2.04.28.01.16.04.27-.9.11.13.91-.83.12-.5.06.06.47-.9.11.06.46-.45.06.03.2v.11l-.08.19-.05.17v.1l.04.1.23.28.1.07.14.03.08.07v.06l-.03.08-.26.08-.06.05-.2.35-.1.1-.13.02-.36-.05-.08.02-.07.1v.1l.02.14-.02.1-.04.14-.12.22-.08.05-.1-.02-.1-.08-.1-.25-.08-.08-.12-.03-.04.01-.07.1-.03.14v.08l.05.08.03.04.1.03.08.06.09.08.09.1.03.09v.1l-.05.08-.12.05-.1-.02-.08-.06-.07-.03-.13-.01-.09.02-.06.08v.08l.02.08.13.28v.13l-.06.08-.1.03h-.1l-.08-.06-.1-.2-.06-.05h-.06l-.06.03-.15.1-.22-.12-.05-.02h-.08l-.09.07v.19l-.04.18-.05.15-.08.15-.2.21-.14.25-.06.14-.07.1-.07.05-.11.12-.1.16v.04l-.1.22-.07.12-.06.15-.05.23-.02.29-.04.27-.03.19-.07.15-.18.29-.05.1-.02.07.01.12.11.2.01.1-.02.11-.08.25v.1l.06.18.02.1-.01.21v.1l.03.09.08.16.09.16.13.17.1.04.16.05.1.07.05.08.05.18.02.26-.04.08-.14.08-.27.07-.16.09-.1.12-.03.06.01.05.07.16.02.12v.12l-.02.07-.06.13-.07.08-.08.03h-.23l-.16.03-.21.08h-.13l-.07.14v.08l.05.1.06.03v-.08l.04-.02.1.03-.06.08.06.13-.06.02-.08-.01-.04.08.06.08.05.04v.04h-.08l-.1.02-.04.03.05.16.05.08h.17l.05.02-.05.15-.05.04-.25.02-.07.05.03.06-.09.02.01.05h-.09v.06h-.1l-.05-.1-.11.02-.03-.23h.05l-.03-.1.07-.02-.02-.11-.08.02-.18.07-.03.03-.06.13-.05.05-.13.07-.19.02-.11-.05.01-.1-.07-.1h-.05l-.12.08-.14.03h-.14l-.1.02-.17.1-.36.18-.1.06-.22.11-.18.08-.41.23.02.14-.1.04-.13.1-.04.04-.06.05-.04.2-.07.08-.1.2.01.02.49-.04.08-.05.1-.1v.06h.08v-.1l.06-.06h.03l.05.07.08-.01.01.07.05.08v.06l.23-.02-.04.2.03.07v.08l-.04.07-.06.05-.16.06.1.17.15-.08.12-.08.2-.15-.03.79.06-.02.03.12-.03.3-.04.08.34-.03.16.05-.03.08v.12l.05.03.08-.01.05-.1h.06l.05-.07h.08v.14l-.04.06-.13.02v.28l-.06.02-.05-.1-.03.06-.08.01-.03.08v.07h-.1l-.1.05-.1.02-.02.16-.04.07-.15.08-.02.08-.07.06.12.05.01.04-.03.11-.08.1-.08.11v.05l-.04.07-.1.14-.07.1-.1.07-.07.05h-.07l-.09-.01h-.09l-.21.04-.06.04v.04l.07.2.1.08.06.08-.04.06-.06.02h-.1l-.1.04-.05.05v.07l.05.13.1.09.05.06v.17l.03.04.16.15.06.05.01.05-.05.06-.2.14h-.04l-.07-.04-.09-.12-.05-.1-.04-.26-.32-.08-.05.01-.04.08v.1l.01.18-.03.09-.07.07-.05.01-.08-.01-.05-.07-.01-.22-.02-.03-.08-.01-.05.05-.08.17-.1.32-.07.05-.15-.06-.07-.1-.03-.08-.05-.03-.09.07-.04.1-.03.05-.07.02-.06-.02-.06-.05.02-.07-1.01.15-.05.01-.74.11-.3.04-.58.08-.47.06-.1-.85-.08-.57-.05-.38-.08-.6-.2.03-.1-.86-.06-.48-.1-.96-.07-.6-.14-.95-.16-1-.04-.16-.07-.54-.05-.4-.15-1.06-.1-.73-.15-1.13-.06-.35-.08-.65-.43-2.8-.07-.39-.06-.41-.46.05-.43.07-1.84.28-1.4.12h-.03l-.58.05-.43.06-.3.03-.83.06-.3.03-.75.07-.3.03-1.83.18-1.04.13h-.1l-.63.06-.4.27v.11l.03.57v.14l.01.53.02.3.01.7.03 1.01.02.34.02.53.02.74.01.34.03.88.01.56.03.48-.29.04.7.26-.4.3v.8l.03.21v.53l.05 1.14.03 1.35.1 3.08.05 1.45.03 1.42.05 1.4.1 2.57.03.92.05 1.63.03.67.01.96v.12l.06 1.36.03.86v.56l.03.77.08 2.62v.58l.1 2.5.02.68-.02.27.01.3.03.81.02.78.04 1.15.02.78v.1l.01.49.02.83.02.91v.37l.04 1.17.04 2.03.01.57v.45l.1 3.14-.02.19.02.65.03.5-.32.14.77.07-.39.24.25 1.38.25 1.54.34 1.97.08.54.04.22.42-.03.04.23.14-.02.7-.1.72-.09.2-.03.5-.06.13-.02 1.44-.2 1.4-.18.31-.05 1.98-.26 1-.14.46-.06.97-.15.03.1v.1l.06.2.12.16.08.08.05.09.03.13.03.25-.05.09-.08.04-.13.03-.04.03v.07l.13.2.05.17.01.12.05.15.06.13.1.15.15.15.06.1v.13l-.1.22v.08l.04.06.1.07.11.11.19.1.16.08.25.09.37-.05.25-.06h.06l.1.06.14.15.03.09-.03.05-.13.05-.1-.02-.15-.06h-.11l-.08.03v.07l.12.12.16.22.37.2.19.02.33.14.16.08.08.02.27.03.12.06.08.11.05.04.09.01h.65l.1.02.18.13.13-.14.07-.03.12-.02h.29l.15-.04.12-.07.02.03-.07.1v.07l.06.17v.21l-.03.1v.1h.08l.07-.04.11-.12-.05-.04v-.06l.23-.03.09-.03-.01-.1-.16.02-.04-.34-.03-.11.03-.16.07-.2.07-.09.07-.13.13.02.06.04h.08l.13.05.06-.02h.18l.03.03v.1l.05.05.03.06.13.2.02.13-.03.04-.03.15-.06.07.01.03.29-.2.15-.11.1-.08.03-.15-.05-.06.02-.03-.03-.1-.06-.1-.05-.03-.04-.11-.03-.04v-.1l-.08-.18-.04-.03-.01-.08-.05-.07-.04-.13v-.14l.03-.06-.04-.13h.05l.07-.08.05-.08v-.06l.07-.11.02-.06.04-.05.07-.04.12-.2.04-.03.1-.02h.12l.15.05.12.02-.04-.1-.05-.16.08.01h.15l.12.01.03.14.16.17.2.27.09.07h.08l.05-.04.1-.02.39-.21.1-.03.12-.14.14-.1.06-.1.05-.19h.13l.04-.07h.08l.03-.05-.06-.03v-.06l.05-.1.03-.02.01-.12-.08.05-.07-.22.03-.02.05-.16h.08l.07-.08.03-.08.07-.07-.03-.11.02-.07.04-.04-.06-.09h-.04l.05-.17.02-.21.28.08.17.03.22.02.16.05h.11v-.2l-.04-.1v-.07l.04-.12.06-.08.02-.2.05-.09.05.03h.14l.06-.04.16-.05.05-.08h.08l.05.05.12-.05h.05l.13-.06.02-.08.13-.06h.07l.13.07.08-.04.09-.02.01.1.23.22.12.06h.07l.05.03.04-.03.03-.1.08-.04v-.04l.07-.05.1-.17.08.01h.08l.06.01.1.14-.18-1.17-.03-.03.05-.15-.05-.05v-.1l-.03-.05.05-.08.12-.05-.06-.1v-.06l-.1-.07-.04-.05.01-.16-.04-.08-.01-.07-.06-.16v-.02l.1-.06.07.02.08-.07.02-.05-.07-.06v-.06l.08-.02.12-.11.14-.05.12-.03h.18l.08-.04-.1-.07-.04-.14-.05-.06-.03-.07.01-.1-.04-.07-.06-.06-.06-.24V607l-.05-.17v-.1l.1-.14-.07-.05-.05-.07-.03-.2.02-.04-.01-.08-.05-.09-.05-.03h-.08l-.19-.07-.01-.07-.06-.09 1.32-.23.46-.08.44-.05.63-.09.78-.12.6-.1.41-.07.6-.1.14-.01.43-.07.23-.04 1-.15.9-.13.14-.03.43-.05.38.03 1.05-.14 1.03-.15.82-.14.1-.01.86-.14.47-.07 1.1-.18.88-.13 1.28-.2.06-.02.44-.06-.07-.44-.06-.47-.08-.42v-.06l-.12-.69-.06-.4-.05-.2-.06-.47-.15-.93.9-.13.25-.05.58-.09.48-.08.47-.04.87-.14.63-.1 1.08-.18 1.67-.28.5-.07.33-.06 1.65-.25 1.34-.2.2-.05.8-.12.75-.13.52-.08h.23l-.14-.81-.12-.76-.12-.7.26-.04-.04-.22-.25.04-.04-.24-.08-.43-.03-.24-.12-.75v-.06l-.06-.26-.07-.46-.14-.78-.2-1.24-.03-.22-.07-.45-.15-.88-.04-.22-.1-.05-.06-.01-.08.03-.16-.05-.01-.07.05-.04-.03-.05-.09-.02v-.04l-.06-.03-.07.04-.04-.04-.12-.01-.06-.05-.03.01-.07-.05-.07.04-.05-.07-.08.01-.01-.14-.18-.1-.04-.03-.09-.01-.04.05h-.09l-.06.06-.05.01-.05.05-.23-.05.01-.08-.15.01-.03-.02.09-.16-.08-.01-.03-.08-.1-.03-.02-.1.07-.01-.03-.09-.07.02-.04-.05.01-.09.05-.04-.02-.07v-.06l-.09.03-.02-.02.02-.13h.05l.07-.04-.03-.07v-.13h.05l-.01-.07-.1-.01-.05-.05.01-.08.04.01.07.07.1.03.02-.04v-.14l-.03-.04v-.07l.09.04.05-.05-.02-.04-.08-.07-.02-.05.06-.03-.07-.05-.04.04-.08-.03-.06.1-.05-.02.05-.1-.03-.09.04-.03.1-.04-.01-.07h-.1l-.13.08-.05-.11-.06.08v.1l-.07-.04v-.07h-.04l-.07.05.03-.15-.16.05-.43.17-.32.1-.14-.06-.07-.12-.17-.56-.05-.08-.12-.07-.29.04-.33-.14h-.13l-.1.01-.06.04-.14.26-.03.17-.12.05-.57-.33-.05-.09-.03-.08v-.08l.03-.19v-.18l-.03-.14-.08-.13-.07-.08-.05-.01h-.09l-.04.07-.1.08-.1.04h-.17l-.15.04-.1.07-.09.12-.02.08v.2l.06.14.03.1-.03.15-.12.17-.14.22-.13.19-.12.15-.06.06-.05.02h-.07l-.3-.07-.19-.02-.2-.03-.09-.05-.05-.15-.12-.12-.04-.14v-.12l-.07-.33v-.08l.03-.08v-.14l-.04-.07-.08-.05h-.09l-.08.03-.02.04-.08.15-.12.16-.1.1-.11.08-.09.04-.2.02-.16-.02-.17-.08-.15-.01-.09.03-.07.08v.11l.03.12.04.17-.02.14.03.15.06.05.32.84-.35.88-.16.22-.33.08-.15-.06-.13-.14-.1-.56.02-.12.23-.31.03-.1v-.1l-.02-.08-.13-.2-.16-.29-.07-.06-.12-.05-.16-.09-.09-.1-.12-.21-.1-.1-.1-.06-.12-.14-.1-.28-.01-.18.04-.06.06-.05.12-.07.2-.06.08-.06.01-.05-.03-.05-.1-.07-.12-.03h-.11l-.12-.03-.1-.06-.15-.1-.1-.01-.1.03-.03-.04h-.05l-.05.05h-.13l.03-.08-.03-.06.04-.07.05-.05v-.06l.04-.07-.06-.1-.02-.06-.07-.06-.11.03-.03-.02-.02-.1-.04-.06v-.16l-.07.03-.02-.04v-.08h-.06l-.05-.05-.04-.12-.1-.02-.02-.05h-.06l-.01-.05.1-.03.02-.12-.14-.11.01-.15h-.05l-.03-.06-.08-.09h-.05l-.04-.05V582l-.06-.02.03-.06-.12-.04-.04-.1v-.1l-.03-.03-.11-.08-.08-.12-.06-.04.06-.05-.03-.11-.06-.03-.07.01v-.1h.08l-.03-.07-.08-.03v-.12l.04-.15-.04-.05.05-.07.07-.06-.03-.04.02-.07v-.22l-.06-.05-.05-.18.05-.08-.08-.07-.03-.07-.04-.02-.01-.14-.06-.01-.01-.07.03-.07-.03-.08-.06-.07v-.1l-.04-.12-.05-.04.04-.04-.02-.04-.06.02-.01-.08-.07-.04.05-.05-.03-.14-.07-.04.01-.12-.05-.04.04-.07v-.07l-.13-.25-.06-.04v-.04l-.06-.04-.03-.07.03-.09h.07l.03-.04-.06-.07-.09-.02v-.08l-.1-.06v-.12l.05-.13h-.11l-.24.04-.52.08-.12.02-.4.07-.08.01-.67.11-.46.07-.06-.45-.07-.45-.2-1.37-.06-.44-.1-.58-.09-.6-.1-.61-.08-.53-.07-.4-.6.11-.59.09-.86.14-.7.12-.5.07-.28.05-.44.05-.64.1-.7.1-.24.14-.43.07-1.8.27-.16-1.07-.05-.3-.42.08-1.6.23-.62.1-.1-.89-.1-.61-.07-.47-.15-1.07-.12-.73-.04-.16-.01-.1 1.21-.2.26-.05 1.2-.22-.06-.51-.15-2.26.42-.94.06-.12.12-.27.83-.08.75-.08.39-.05.18-.02-.05-.43-.12-.8-.06-.4-.06-.43.04-.05.82-1 .2-.25.22-.03-.02-.12.57-.07.07.45.45-.07.6-.9.24-.03 2-.26.19-.03-.03-.22.11-.01-.01-.12.1-.01v-.12l.1-.01-.03-.23.57-.07-.03-.23.33-.05v-.12l.21-.03-.08-.57.1-.02-.01-.12.12-.01-.02-.12.23-.03-.02-.12.23-.04-.04-.22.1-.02v-.11l.1-.02-.03-.22.23-.03-.03-.23 1.34-.17-.12-.9.06-.06-.04-.05.04-.04V555l.04-.02.06-.08.14-.08-.09-.07.07-.14-.03-.03-.07.05-.06-.02.01-.12-.08-.05-.15-.02-.07-.02-.02-.05.04-.1-.02-.1-.05-.1-.1-.06-.18.08-.06-.1.13-.05-.03-.14h-.1l-.02-.13.02-.1.05-.03v-.07l.08-.1.06-.03.16-.03.02.05.13.02-.01-.08.05-.11-.1-.03.05-.05-.1-.14-.04-.09.04-.15.08-.15.02-.1-.02-.07.12-.06.2-.2-.03-.05-.04-.11h-.08l-.02.05h-.05l.01-.07.04-.07.08-.07-.03-.23.08-.03.17-.04.06-.06.04-.02.02.08.1-.01-.02-.2-.12.01-.1.06-.01-.12.02-.07.04-.04-.02-.06.16-.13-.01-.03.1-.07.03-.06.13-.12.06-.04.06-.07.2-.14.04-.08h.05l.31-.32.07.04.02.14h.06l.03.16.03.02.14-.04.02-.1-.02-.05.06-.13h.02l.08-.1.15-.16.09-.07.1-.14.08-.07.02-.09.07-.03.09-.08v-.06l.07-.07.23-.3.1-.05v-.08l-.08-.07-.18-.06-.08.1-.07.15-.1.08-.03-.17.1-.01.07-.13h.04l.18-.3.12-.34.05-.09.16-.16-.03-.09-.07.03v-.05l.23-.12.1-.06.09-.09.05-.1.04-.04-.1-.1v-.1l-.07-.03-.05-.06-.07-.05-.15-.06.03-.12-.02-.14.01-.05-.1-.04-.14.02.03-.08v-.16l-.17.02-.01-.08-.12-.04-.06-.07h-.08l-.03-.07-.05-.32v-.12l-.2.03-.05-.04-.07.05v.06l.01.12h.05v.06l-.04.03-.13.15-.17-.14-.03.05-.1.03-.01-.04-.1-.06.03-.07-.1-.03.16-.25-.2-.1-.06.02-.15.21-.19.16-.14.15-.05.03-.35.14-.16.05-.12.08-.05.05-.22.28-.08-.03-.05-.05h-.1l-.06-.06-.1.02.03.24-.12-.03-.11.02-.05.02h-.12l.02.18.07.07-.12.02-.1-.02-.35.04-.01-.12-.12.02-.02-.12-.22.03-.1.04.01.04h-.09l-.12-.06h-.06l-.11.06h-.12l-.16.06-.12-.02-.06-.06v-.09l.14-.01.02-.04.17-.08-.02-.08-.1-.03-.02-.19-.07-.1-.03-.1-.07.03-.1-.09-.53.15.01-.07-.04-.04-.17-.2-.05-.13-.05-.01h-.1v.03l.05.1-.01.04.05.17.04.08.12.17v.08h-.68l-.03-.22-.03-.05-.05-.02-.1.03-.02-.04-.13-.1h-.12l-.08-.05-.04-.12-.03-.2.02-.14-.02-.1.11.04v-.06l.09.03-.03-.16-.23.03-.04-.24-.04-.28.12-.06-.16-.01z" fill="#d1dbdd" stroke="rgb(209, 219, 221)" stroke-width="0.1" data-originalStrokeWidth="0.1" style="stroke: rgb(0, 0, 0); fill: rgb(209, 219, 221); pointer-events: auto; stroke-width: 0.1;" pointer-events="auto"/>
      <path id="AL01" d="m1010.5 653.59-.4.18v.12l-1.03.43-.62.16-1.94.9-2.08.55-1.7.6-1 .22-2.38.2-.97.18-1 .24-.37.12-.37.05.07-.23.33-.1 1.2-.25.38-.74.33-.2.5.2.15.15.6.2.38-.02.5-.12 1.07-.61.43-.02.4-.09.48-.34.27-.58-.05-.35-.55-.58-.7-.3-.38-.2-.64-.6-.27-.42-.03-.25h-.44l-.32-.12-1.23-.65-.1-.15-.26-.98-.27-.75-.15-.18-.36-.14.23-.46.08-.52.12-.17.2-.67.04-.41-.12-.48-.25-.28-.13-.3-.06-.93-.3-.32.02-.29-.15-.16-.06-.23-.34-.22-.52.03-.74-.13-.57-.07-.14-.08-.2.34-.03.5-.14.04-.2.39-.18-.04-.42.25.22.28-.12.26-.09-.12.2.18-.14.15-.06.64-.44.55v.3l.15.52.05.56-.18.19-.24.45.02.54.26.67-.19.6.18.78.12 1.58-.15.68-.16.5-.16.24-.1.73-.25-.32-.27-.1-.52.17-.4.28-.25-.8.2-.08-.03-.57-.24.02-.34.15-.22-.2-.24-.09-.28.02-.73-.24-.18.06-.54-.03-.05-.09-.3.1-.07.44-.26.06.04-.2-.14-.45-.68-.33-.12.16-.4-.11-.1.58-.28.11-.3.63a2 2 0 0 0-.75-.36l-.44-2.55-.1-.53-.13-.8-.07-.31-.12-.76-.02-.22-.1-.32v-.18l-.03-.1-.05-.1-.05-.57-.05-.2-.13-.77-.05-.35v-.16l-.06-.2-.08-.62-.26-1.4-.02-.13-.08-.5-.09-.41-.04-.3-.09-.54-.06-.34.43-.24.11.02.19.1.09.1.2.14.18-.02.08-.13.12-.02.2.03.16-.01.18.02h.1l.17.08.07.08.05.16.05.1.12.1.04.05.05.01.03-.11.05-.05.11-.04.03-.2.06-.02.16.03.12.06.08.01.08.06.05.1.08.05.16.04.23.03.2.02.13.08.05.02h.17l.03.14.14-.05-.05-.1h.2l.05.01.08.06.04.06.04.13.03.05.08.06-.07.02.02.1-.11.04.04.33.06.02h.07l.14-.02v.16l.15.12.06.03.31.1.15.03.04.04.04.3-.1.06-.04.2-.09.2v.33l.03.12.1.05.02.02.11-.02.07.02.07-.02.09.03.05.04.05.08.03.11.05.11.07.1.14-.15.2 1.44.02.15.07-.01v.05l.07.06.08.17.1.02.04.04.2.24.16-.18.18-.16.13-.11-.02-.43v-.05l.09-.25.03-.16.09.05.16-.03.1.02.04.03.1-.18.16-.25.06-.08.12-.12.1-.08.2-.08.17-.12.3-.21.13-.12.23-.18.2-.21.02-.04.11-.1.15-.17.14-.14v-.03l.16-.14.13-.24.03-.13v-.36l.08-.05-.02-.05.14-.05v.04l.17-.07.43.14.1.05.01-.04.12-.3.02-.14-.04-.2-.06-.1-.21-.14-.08-.1-.08-.18-.04-.13v-.34l-.09-.11-.12-.11-.14-.1-.05-.11.03-.12.09-.25-.02-.1-.07-.13v-.08l.11-.22-.1-.04h-.15l-.4.12-.42.14-.08-.02-.08.08-.07-.02-.05-.06-.14-.04-.03-.18h-.11l-.03-.02-.1-.03-.1.08v-.08l-.1.03-.06.03-.08.1h-.17l-.05.03v.04l-.08-.01-.05.02-.06.1-.01.1-.06.03-.07-.07-.09-.03-.03-.05h-.09l-.05.06-.1.03-.05-.07-.12.03-.04-.06-.1-.03-.06-.06h-.05l-.12-.37-.13.02-.02-.12-.07-.13-.3-.22-.09.02-.03.07v.07l-.14.03-.12.09h-.36l-.03-.24-.15.02-.14.1h-.03l-.13-.01-.09-.14-.07-.04-.1-.03-.1-.13h-.05l-.04-.07v-.07l.07-.01h.12l.08-.05.07-.01.17.07h.13l.05-.02.05-.07.07-.03h.11l.1-.02-.12-.13-.06-.1-.13-.26.08-.01.12-.06.09.03v-.11l.12-.08.05-.1v-.05l.05-.05-.03-.15.04-.1h.03l.05-.11.1-.08.06.05h.05l.06-.03.14.09.14-.03.07-.04.02-.04-.04-.05v-.1h-.11l-.14-.03-.06-.04-.02-.05-.1-.13.05-.1.03-.05.08-.04.08-.15.07-.07v-.06l-.03-.14-.01-.17-.03-.27-.04-.16v-.15l.03-.09-.18.11-.23.11-.09.01-.04.03-.08.1-.15.09-.05.05-.06.01-.13-.03.04-.07-.01-.1.02-.14.08-.06v-.13l-.04-.08-.08-.12-.07-.07-.11-.06-.08-.11.05-.17v-.08l.06-.11.14-.15.1-.2v-.05l-.03-.11-.1-.07.15-.04.07-.03.02-.04-.01-.07-.04-.07v-.1l-.07-.05.02-.06.08-.06h.04v-.06l.04-.16.07-.1v-.03l-.16.02h-.11l-.09-.02-.63-.2-.09-.07-.02-.08.01-.19-.02-.08-.13-.25-.15-.18h.04l.15-.13h.07l.05.1.01.08.16-.07-.02.1.05.06-.05.07v.14l.03.05h.14l.07-.08.1-.03h.08l.03-.06.12-.13.08-.1-.06-.04-.08-.16.01-.06-.06-.13.02-.07.06-.08.04-.02h.15l.03-.02.06.06.08.12v.08l.02.08.07-.05.12-.3.1-.08-.01-.07-.07-.1.05-.11v-.07l-.06-.03-.08.05-.01-.1-.08-.12-.08.01-.05.04-.2.06-.04-.04v-.1l-.03-.12-.16-.11-.05-.33h-.08l.03-.11-.05-.02-.06-.07-.02-.1.12-.03-.02-.06.02-.07-.03-.1-.17-.1-.07-.09-.07-.03-.04-.05-.1-.05-.1.02-.13-.07-.1-.15-.05.01-.1-.06-.02-.06 1.07-.14.85-.12h.07l1.24-.17.36-.04.1-.02.95-.14.53-.69.25-.34.45.23.02.05.12-.02.2.05.1-.03.13-.06h.23l.06-.07v-.09l-.16-.18-.05-.11.02-.12v-.1l-.05-.22-.03-.09h.09l.09.08.18-.03h.05l.18.09h.1l.1-.01.11-.08-.06-.07.02-.04.09-.01v-.07l.07-.08.03-.12h.13l.06.03.06-.1.1-.06.07-.1.1-.04.02.13.1.01.09.07.06-.02.06-.11v-.1l-.07-.14-.03-.09.01-.08.14-.05.05.03.1.14.16.14.1.02h.07l.1-.1.02-.08-.05-.1-.24-.11-.05-.06-.14-.23-.03-.09v-.06l.08-.15.09-.06.1-.01.12.05.13.15.03.07.07.05.07-.03.07-.1-.01-.07-.14-.05-.1-.08-.03-.1.04-.09.1-.08.02-.1-.05-.06-.04-.02-.07-.08-.01-.08-.1.02-.04.05-.12.02-.03-.06v-.08l.08-.07.07.01.14.06.03.03.14-.08.04-.04.07-.2v-.33l.03-.09.04-.03.11-.03.08.01.48.22h.05l.14-.06.16-.13.05-.06.04-.07v-.07l-.08-.08-.12-.04-.13-.08-.04-.1v-.04l-.24-.25-.1-.07-.08-.07-.04-.12v-.15l.04-.09.03-.03.08-.02.11.07.03.1.03.15.03.08.06.08.1.07.1.03.01.04.12-.04h.1l.25.1.07-.02.08-.06v-.07l.13-.02.02-.07.13.05h.08l.08-.01.05-.12.04-.04h.1l.06-.05.06-.01h.16l.03.04.06-.02.14-.03v-.04l.09-.04.04.05.05-.02.07.02.1.12h.02l.1.06v.08l.11.1-.01.07.03.03.1-.01.06.03.1-.02.04.03.05.13.05.1.14.15.07.06.07.02.07.06.02.08h.08l.04.06.16.03.1.08.03.06.22.07h.07l.08.02.09-.03.16.13.08-.04.15.05.04-.05.06.02.09-.02.12-.06h.07l.09.01.06.06h.06l.13-.05.06-.01.1.06.12-.02.23.01.05.05.1.02.03.08.1.03.07-.03.11.05.06-.05.08.08.03-.02.13.02.02.04.13-.1.13-.03.04-.06.06-.06h.04l.1-.11.07-.04.04-.14.1-.05.05-.1.11-.1.11.02.02-.02.2-.06.1-.04.02-.04.16-.07.03-.05.13-.07.04-.04.04-.13.96-.14.52-.08 1.15-.16.65-.1.27-.03.77-.12.25-.04.32-.04 1.46-.2.57-.1 2.1-.3 2.3-.34.54-.08.16-.03.9-.13h.07l1.23-.2.5-.08 1.2-.18.49-.07.73-.11.42-.06.52-.07.27-.04.9-.12-.03.03v.12l-.02.09-.1.09-.02.06.05.09-.03.07v.06l.1.08.03.07.03.23.04.08.1.09.04.07-.02.1-.14.19-.02.09.1.04h.08l.03.04-.1.12-.06.03.03.06.08.1.06.02.06-.04.04.03-.06.13.03.02.07-.01-.01.1.02.05-.05.09-.05.03.02.04.08.03.05-.21.06-.17.02-.02.15-.03.07.02.05-.02.07-.07.06-.03.07.01.03.08.04.02.07-.03.04.05-.06.03-.05.07.09.05.11-.02.12.04.06-.07.11.02.07-.02-.01-.05-.08-.07h-.04v-.07h.19l.06-.02h.1l.02-.04-.04-.03.02-.07.18.02-.08-.55-.2-1.22-.2-1.3-.15-1-.08-.41.05-.1-.02-.07-.09-.07.07-.1h.08l.1-.01-.02-.06h.1l.03-.04-.01-.04.03-.05h.09l.04-.07.03-.1-.02-.13.15-.05.07-.1.08-.14-.02-.13-.08-.15-.04-.12-.05-.04-.09-.02-.02-.15.05-.01.19-.1-.04-.22.08-.08v-.04l-.05-.02v-.05l-.05-.05-.05-.02v-.07l-.08-.11-.02-.07.08-.02.01-.08-.05-.06-.1-.03-.08-.07-.06-.14.02-.16-.06-.05-.7.1-.06-.4-.1-.67-.16-1.03-.1-.62.3-.03.05-.02.3-.04h.04l1.34-.2.15-.03.92-.15.26-.03.97-.16.29-.05.55-.1.18-.03 2.22-.35.4-.11.13.83.26 1.52.1-.01.01-.06.08-.1.06-.06.09-.04-.06-.04.06-.1.1-.12.1-.09-.08-.03v-.09l.18-.07.03-.11.03-.02v-.08l.05-.03.02-.13-.04-.06.14-.05.06.04.04-.04.06.07.18-.07-.03-.05.05-.07.12.07.07-.03.06-.11-.02-.03.06-.06.05-.15.04-.06.03-.1.03-.01.06-.08.12-.04-.04-.1.02-.06.09-.12.12-.1.07-.09.13-.08v-.05l.08-.17-.05-.02.5-.08.11.42.1.49.22 1.35.44-.08.03.46.31-.05.12-.01.92-.16.45-.02-.17-1.06-.11-.71-.02-.1-.15-.92 1-.17-.03-.22.33-.06-.44-2.48.56-.1h.03l.75-.13 1.04-.18 1.36-.22.11-.02 1.07-.17.9-.13 1.33-.2 2.27-.34 1.03-.16.51-.1h.03l.53-.08.5-.07 1.73-.28.15-.02.9-.14.45-.08.44-.1.85-.17.5-.1.86-.15 1.34-.18-.02-.19-.13-.83-.08-.4-.06-.39v-.13l-.14-.78.49-.07.66-.1.5-.08.19-.01.32-.07.38-.05.23-.02.54-.07 1.08-.16.8-.08.1-.02.06-.15.07-.13v-.08l-.08-.1v-.06l-.03-.22.04-.1-.02-.12.03-.15-.02-.1V599l.08-.05.12-.02.12-.14.04-.03.1.02.02-.1.1-.1.02-.05h.05l.1-.03v-.07l.06-.03.04-.12.05-.04.09.02v-.08l.08-.1-.03-.1.04-.04v-.08h.09l.03-.08.04.03.04-.06.08.02.15.05-.05.16v.07l.04.06.05.12.08.1.1.14.04.16.03.08.06.07v.05l-.05.07v.09l.01.1-.02.05-.06.07v.1l.02.24.03.11.06.28.37.25.17.27.53.46.33.07-.02.2-.03.14v.25h.15l.4.32.24.08.04.05.02.17.1.25.03.4v.15l.1.24.01.3.1.12.06.1.28.43.1.05.06.22-.12.37.13.26-.22.67-.07.38-.1.3-.04.36.3.86.03.33-.24.2.03.26-.05.16.12.31-.1.65-.03.25-.09.3.03.13.02.12.04.07.07-.03.07.01.03.13v.51l.11.1.1.37-.06.21.02.58-.17.3-.37.21-.03.13.14.43.04.12.23.33.33.63.02.44-.16.3.02.36.05.18.25.13.03.44.26.16.2-.03h.1l.13.05.1.15.3.25.37.64.2.08.1.09.21.09.26.4.16.38-.02.2.13.21.45.43.05.16.1.48.22.43.12.08.02.06v.4l-1.03.2-1.8.27-.5.07-.08.04-.4.05-.25.04-.25.04-1.04.17-.97.16-.42.09-.22.05-.35.04-.4.08-.96.17-.55.12-.66.1-.6.11-.29.07-1 .17-.88.15-.5.1-.4.08h-.07l-.58.1-.47.07-.47.1-1.16.2-.78.12-.46.08-.72.1-1.36.23-.2.06-.29.04-.22.04-.3.04-.56.1-3.58.6-.79.13-.34.06-.5.09h-.07l-1.39.2-.1.03-.6.1-.63.1-.76.1h-.05l-1 .15-.13.01-.14.03-.54.08-.15.02-.57.09-.76.12-.48.07-.38.07-.54.07-.23.02-.36.06-.08.02-.38.05-.44.08-1.08.14-.22.04-1.08.2-.56.07-.65.11-.54.07-1.2.14-.24.03-.45.08-.19.03-.79.12-.68.1-.63.1-.3.05-.49.06-.36.02-.25.02-.08.01-.35.07-.8.1-.34.03-.54.07-.62.1-.48.05-.96.16h-.08l-1.1.16-.96.12-.56.08-.34.04-.7.1-.4.06-.37.03-.43.06-.68.1-.6.08-.16.05-.42.03-.57.1h-.05l-1.1.2-.63.13-.26.05h-.35l-.13.02-.08.03-.42.03-.34.04-.4.07-.24.03-.56.1-.12-.01-.45.09-1.4.18-.19.02-.29.05-.64.1-.9.11-.44.07-.4.07-.5.07-1.38.2-.36.04v.04l.05.1.08.16.1.3.05.11.13.25v.38l-.09.38-.12.22-.13.64-.05.2-.2.51.1.23-.2.25-.1.45v.05h.04l.03.02v.02h.04v.03h.01l.02.03.04.01.01.01h.02l.03.07.04.05.01.27.02.01v.01l.03.04v-.01l.02.02h.03l.26.3.35.12.1.24.67.3.2.24.62.4.2.2v.2l.32.39.07.28.03.02v.04h.04l.01.02-.02.07v.02h.1v.06h.11l.02.05h.03l.04.03h.07l.03.03h.04v.03l.04.03.03-.01.02.03h.07l.02-.02h.03v.05h.04l.03.07v.04h.04l.03.03.04.01v.02h-.02l.07.05h.01v.07h.1l.01.02h.02v-.02l.47.05.38.33.04.15.3.08.17-.12.45.3.87.32.14.5.2.07.1.27.1.5v.18h-.04l.03.12v.07l-.02.03.02.01h.02l.02.05v.04l-.03.08-.05.2-.18.09.05.62-.07.32-.02.02-.14.12.04.25-.2.13-.19.33-.07.58-.08.24-.02.02-.05.06-.05.25h.04l.03.02.02.1.1.07h.13l.07.07.04.07.03.02.14.08.1.25-.09.2-.05.12.2.28.44.37.3.1h.46l.18-.01.3.07.13.18-.04.28-.2.24-.2.18-.2.1-.33.32-.48.08-.24.45-.08.14.1.33-.09.2-.16.18-.03.27.1.44-.3.5-.2.06-.48.1-.26.1-.12.32.05.26.06.1.15.03h.34l.04.05.14.03.1.02.3-.03.09-.08.06-.01.05-.04.15-.03v.1l-1.28.57-.42.18.24-.19 1.45-.31.46-.16h.07l-1.23.55h-.06l-.17.1-.08.02-.17.08.02.1m-17.72 3.36 1.08-.23.25-.27.11-.38-.03-.3 1.12.6.36.3-.68.3-.3.04-.36-.14.27.44.3.21-.18-.02-.28-.27-.17-.28-.27-.08-.8.1-.89.17-2.75 1-.58.06.15-.12.57-.08 1.95-.7.61-.26.52-.09m-2.53-2.73v-.57l.24.9v.42l-.27-.28.13-.13-.1-.34m5.17-5.53-.25-.15.44-.54.25.14.18.75-.08.05-.54-.26" fill="#d1dbdd" stroke="rgb(209, 219, 221)" stroke-width="0.1" data-originalStrokeWidth="0.1" style="stroke: rgb(0, 0, 0); fill: rgb(209, 219, 221); pointer-events: auto; stroke-width: 0.1;" pointer-events="auto"/>
      <g id="state_abbr" fill="#000000" style="display: none; fill: rgb(0, 0, 0);">
        <text id="HI_label" x="491.79" y="769.82" style="font-size: 19.2455px; stroke-width: 1.60379; display: none;">
          <tspan id="HI_tspan" x="491.79" y="769.82" fill="#000000" dy="0" font-family="Arial" font-size="24.06" font-style="normal" font-weight="400" style="text-align: center; stroke-width: 2.57215; fill: rgb(0, 0, 0);" text-anchor="middle">HI</tspan>
        </text>
        <text id="AK_label" x="205.24" y="672.25" style="font-size: 19.2455px; stroke-width: 1.60379; display: none;">
          <tspan id="AK_tspan" x="205.24" y="672.25" fill="#000000" dy="0" font-family="Arial" font-size="24.06" font-style="normal" font-weight="400" style="text-align: center; stroke-width: 2.57215; fill: rgb(0, 0, 0);" text-anchor="middle">AK</tspan>
        </text>
        <text id="FL_label" x="1188.11" y="708.7" style="font-size: 19.2455px; stroke-width: 1.60379; display: none;">
          <tspan id="FL_tspan" x="1188.11" y="708.7" fill="#000000" dy="0" font-family="Arial" font-size="24.06" font-style="normal" font-weight="400" style="text-align: center; stroke-width: 2.57215; fill: rgb(0, 0, 0);" text-anchor="middle">FL</tspan>
        </text>
        <text id="NH_label" x="1306.05" y="167.79" stroke-width="1.1" font-size="13.25" style="display: none;">
          <tspan id="NH_tspan" x="1306.05" y="167.79" fill="#000000" stroke-width="1.1" dy="0" font-family="Arial" font-size="16.56" font-style="normal" font-weight="400" style="text-align: center; fill: rgb(0, 0, 0);" text-anchor="middle">NH</tspan>
        </text>
        <text id="MI_label" x="1019.65" y="246.58" style="font-size: 19.2455px; stroke-width: 1.60379; display: none;">
          <tspan id="MI_tspan" x="1019.65" y="246.58" fill="#000000" dy="0" font-family="Arial" font-size="24.06" font-style="normal" font-weight="400" style="text-align: center; stroke-width: 2.57215; fill: rgb(0, 0, 0);" text-anchor="middle">MI</tspan>
        </text>
        <text id="VT_label" x="1274.28" y="145.01" stroke-width="1.05" font-size="12.65" style="display: none;">
          <tspan id="VT_tspan" x="1274.28" y="145.01" fill="#000000" stroke-width="1.05" dy="0" font-family="Arial" font-size="15.81" font-style="normal" font-weight="400" style="text-align: center; fill: rgb(0, 0, 0);" text-anchor="middle">VT</tspan>
        </text>
        <text id="ME_label" x="1338.99" y="105.14" stroke-width="1.45" font-size="17.36" style="display: none;">
          <tspan id="ME_tspan" x="1338.99" y="105.14" fill="#000000" stroke-width="1.45" dy="0" font-family="Arial" font-size="21.7" font-style="normal" font-weight="400" style="text-align: center; fill: rgb(0, 0, 0);" text-anchor="middle">ME</tspan>
        </text>
        <text id="RI_label" x="1361.38" y="262.84" stroke-width="1.25" font-size="14.98" style="display: none;">
          <tspan id="RI_tspan" x="1361.38" y="262.84" fill="#000000" stroke-width="1.25" dy="0" font-family="Arial" font-size="18.72" font-style="normal" font-weight="400" style="text-align: center; fill: rgb(0, 0, 0);" text-anchor="middle">RI</tspan>
        </text>
        <text id="NY_label" x="1227.27" y="204.12" style="font-size: 19.2455px; stroke-width: 1.60379; display: none;">
          <tspan id="NY_tspan" x="1227.27" y="204.12" fill="#000000" dy="0" font-family="Arial" font-size="24.06" font-style="normal" font-weight="400" style="text-align: center; stroke-width: 2.57215; fill: rgb(0, 0, 0);" text-anchor="middle">NY</tspan>
        </text>
        <text id="PA_label" x="1187.28" y="284.69" style="font-size: 19.2455px; stroke-width: 1.60379; display: none;">
          <tspan id="PA_tspan" x="1187.28" y="284.69" fill="#000000" dy="0" font-family="Arial" font-size="24.06" font-style="normal" font-weight="400" style="text-align: center; stroke-width: 2.57215; fill: rgb(0, 0, 0);" text-anchor="middle">PA</tspan>
        </text>
        <text id="NJ_label" x="1330.57" y="290.09" stroke-width="1.28" font-size="15.4" style="display: none;">
          <tspan id="NJ_tspan" x="1330.57" y="290.09" fill="#000000" stroke-width="1.28" dy="0" font-family="Arial" font-size="19.25" font-style="normal" font-weight="400" style="text-align: center; fill: rgb(0, 0, 0);" text-anchor="middle">NJ</tspan>
        </text>
        <text id="DE_label" x="1320.8" y="328.42" stroke-width="1.36" font-size="16.38" style="display: none;">
          <tspan id="DE_tspan" x="1320.8" y="328.42" fill="#000000" stroke-width="1.36" dy="0" font-family="Arial" font-size="20.47" font-style="normal" font-weight="400" style="text-align: center; fill: rgb(0, 0, 0);" text-anchor="middle">DE</tspan>
        </text>
        <text id="MD_label" x="1310.72" y="368.46" stroke-width="1.34" font-size="16.11" style="display: none;">
          <tspan id="MD_tspan" x="1310.72" y="368.46" fill="#000000" stroke-width="1.34" dy="0" font-family="Arial" font-size="20.13" font-style="normal" font-weight="400" style="text-align: center; fill: rgb(0, 0, 0);" text-anchor="middle">MD</tspan>
        </text>
        <text id="VA_label" x="1198.59" y="392.33" style="font-size: 19.2455px; stroke-width: 1.60379; display: none;">
          <tspan id="VA_tspan" x="1198.59" y="392.33" fill="#000000" dy="0" font-family="Arial" font-size="24.06" font-style="normal" font-weight="400" style="text-align: center; stroke-width: 2.57215; fill: rgb(0, 0, 0);" text-anchor="middle">VA</tspan>
        </text>
        <text id="WV_label" x="1129.66" y="382.3" style="font-size: 19.2455px; stroke-width: 1.60379; display: none;">
          <tspan id="WV_tspan" x="1129.66" y="382.3" fill="#000000" dy="0" font-family="Arial" font-size="24.06" font-style="normal" font-weight="400" style="text-align: center; stroke-width: 2.57215; fill: rgb(0, 0, 0);" text-anchor="middle">WV</tspan>
        </text>
        <text id="OH_label" x="1079.05" y="334.46" style="font-size: 19.2455px; stroke-width: 1.60379; display: none;">
          <tspan id="OH_tspan" x="1079.05" y="334.46" fill="#000000" dy="0" font-family="Arial" font-size="24.06" font-style="normal" font-weight="400" style="text-align: center; stroke-width: 2.57215; fill: rgb(0, 0, 0);" text-anchor="middle">OH</tspan>
        </text>
        <text id="IN_label" x="998.79" y="352.94" style="font-size: 19.2455px; stroke-width: 1.60379; display: none;">
          <tspan id="IN_tspan" x="998.79" y="352.94" fill="#000000" dy="0" font-family="Arial" font-size="24.06" font-style="normal" font-weight="400" style="text-align: center; stroke-width: 2.57215; fill: rgb(0, 0, 0);" text-anchor="middle">IN</tspan>
        </text>
        <text id="IL_label" x="927.43" y="364.36" style="font-size: 19.2455px; stroke-width: 1.60379; display: none;">
          <tspan id="IL_tspan" x="927.43" y="364.36" fill="#000000" dy="0" font-family="Arial" font-size="24.06" font-style="normal" font-weight="400" style="text-align: center; stroke-width: 2.57215; fill: rgb(0, 0, 0);" text-anchor="middle">IL</tspan>
        </text>
        <text id="CT_label" x="1299.17" y="228.46" stroke-width="1.06" font-size="12.74" style="display: none;">
          <tspan id="CT_tspan" x="1299.17" y="228.46" fill="#000000" stroke-width="1.06" dy="0" font-family="Arial" font-size="15.93" font-style="normal" font-weight="400" style="text-align: center; fill: rgb(0, 0, 0);" text-anchor="middle">CT</tspan>
        </text>
        <text id="WI_label" x="898.6" y="224.7" style="font-size: 19.2455px; stroke-width: 1.60379; display: none;">
          <tspan id="WI_tspan" x="898.6" y="224.7" fill="#000000" dy="0" font-family="Arial" font-size="24.06" font-style="normal" font-weight="400" style="text-align: center; stroke-width: 2.57215; fill: rgb(0, 0, 0);" text-anchor="middle">WI</tspan>
        </text>
        <text id="NC_label" x="1205.6" y="458.72" style="font-size: 19.2455px; stroke-width: 1.60379; display: none;">
          <tspan id="NC_tspan" x="1205.6" y="458.72" fill="#000000" dy="0" font-family="Arial" font-size="24.06" font-style="normal" font-weight="400" style="text-align: center; stroke-width: 2.57215; fill: rgb(0, 0, 0);" text-anchor="middle">NC</tspan>
        </text>
        <text id="MA_label" x="1305.87" y="200.67" stroke-width="1.04" font-size="12.46" style="display: none;">
          <tspan id="MA_tspan" x="1305.87" y="200.67" fill="#000000" stroke-width="1.04" dy="0" font-family="Arial" font-size="15.58" font-style="normal" font-weight="400" style="text-align: center; fill: rgb(0, 0, 0);" text-anchor="middle">MA</tspan>
        </text>
        <text id="MO_label" x="854.22" y="422.93" style="font-size: 19.2455px; stroke-width: 1.60379; display: none;">
          <tspan id="MO_tspan" x="854.22" y="422.93" fill="#000000" dy="0" font-family="Arial" font-size="24.06" font-style="normal" font-weight="400" style="text-align: center; stroke-width: 2.57215; fill: rgb(0, 0, 0);" text-anchor="middle">MO</tspan>
        </text>
        <text id="GA_label" x="1106.89" y="574.56" style="font-size: 19.2455px; stroke-width: 1.60379; display: none;">
          <tspan id="GA_tspan" x="1106.89" y="574.56" fill="#000000" dy="0" font-family="Arial" font-size="24.06" font-style="normal" font-weight="400" style="text-align: center; stroke-width: 2.57215; fill: rgb(0, 0, 0);" text-anchor="middle">GA</tspan>
        </text>
        <text id="SC_label" x="1166.32" y="522.49" style="font-size: 19.2455px; stroke-width: 1.60379; display: none;">
          <tspan id="SC_tspan" x="1166.32" y="522.49" fill="#000000" dy="0" font-family="Arial" font-size="24.06" font-style="normal" font-weight="400" style="text-align: center; stroke-width: 2.57215; fill: rgb(0, 0, 0);" text-anchor="middle">SC</tspan>
        </text>
        <text id="KY_label" x="1039.99" y="426.39" style="font-size: 19.2455px; stroke-width: 1.60379; display: none;">
          <tspan id="KY_tspan" x="1039.99" y="426.39" fill="#000000" dy="0" font-family="Arial" font-size="24.06" font-style="normal" font-weight="400" style="text-align: center; stroke-width: 2.57215; fill: rgb(0, 0, 0);" text-anchor="middle">KY</tspan>
        </text>
        <text id="AL_label" x="1019.59" y="578.15" style="font-size: 19.2455px; stroke-width: 1.60379; display: none;">
          <tspan id="AL_tspan" fill="#000000" dy="0" font-family="Arial" font-size="24.06" font-style="normal" font-weight="400" style="text-align: center; stroke-width: 2.57215; fill: rgb(0, 0, 0);" text-anchor="middle">AL</tspan>
        </text>
        <text id="LA_label" x="872.7" y="649.59" style="font-size: 19.2455px; stroke-width: 1.60379; display: none;">
          <tspan id="LA_tspan" x="872.7" y="649.59" fill="#000000" dy="0" font-family="Arial" font-size="24.06" font-style="normal" font-weight="400" style="text-align: center; stroke-width: 2.57215; fill: rgb(0, 0, 0);" text-anchor="middle">LA</tspan>
        </text>
        <text id="MS_label" x="940.37" y="592.21" style="font-size: 19.2455px; stroke-width: 1.60379; display: none;">
          <tspan id="MS_tspan" x="940.37" y="592.21" fill="#000000" dy="0" font-family="Arial" font-size="24.06" font-style="normal" font-weight="400" style="text-align: center; stroke-width: 2.57215; fill: rgb(0, 0, 0);" text-anchor="middle">MS</tspan>
        </text>
        <text id="IA_label" x="823.33" y="308.44" style="font-size: 19.2455px; stroke-width: 1.60379; display: none;">
          <tspan id="IA_tspan" x="823.33" y="308.44" fill="#000000" dy="0" font-family="Arial" font-size="24.06" font-style="normal" font-weight="400" style="text-align: center; stroke-width: 2.57215; fill: rgb(0, 0, 0);" text-anchor="middle">IA</tspan>
        </text>
        <text id="MN_label" x="790.84" y="183.37" style="font-size: 19.2455px; stroke-width: 1.60379; display: none;">
          <tspan id="MN_tspan" x="790.84" y="183.37" fill="#000000" dy="0" font-family="Arial" font-size="24.06" font-style="normal" font-weight="400" style="text-align: center; stroke-width: 2.57215; fill: rgb(0, 0, 0);" text-anchor="middle">MN</tspan>
        </text>
        <text id="OK_label" x="732.05" y="519.54" style="font-size: 19.2455px; stroke-width: 1.60379; display: none;">
          <tspan id="OK_tspan" x="732.05" y="519.54" fill="#000000" dy="0" font-family="Arial" font-size="24.06" font-style="normal" font-weight="400" style="text-align: center; stroke-width: 2.57215; fill: rgb(0, 0, 0);" text-anchor="middle">OK</tspan>
        </text>
        <text id="TX_label" x="710.59" y="652.87" style="font-size: 19.2455px; stroke-width: 1.60379; display: none;">
          <tspan id="TX_tspan" x="710.59" y="652.87" fill="#000000" dy="0" font-family="Arial" font-size="24.06" font-style="normal" font-weight="400" style="text-align: center; stroke-width: 2.57215; fill: rgb(0, 0, 0);" text-anchor="middle">TX</tspan>
        </text>
        <text id="NM_label" x="506.94" y="542.36" style="font-size: 19.2455px; stroke-width: 1.60379; display: none;">
          <tspan id="NM_tspan" x="506.94" y="542.36" fill="#000000" dy="0" font-family="Arial" font-size="24.06" font-style="normal" font-weight="400" style="text-align: center; stroke-width: 2.57215; fill: rgb(0, 0, 0);" text-anchor="middle">NM</tspan>
        </text>
        <text id="KS_label" x="701.21" y="427.26" style="font-size: 19.2455px; stroke-width: 1.60379; display: none;">
          <tspan id="KS_tspan" x="701.21" y="427.26" fill="#000000" dy="0" font-family="Arial" font-size="24.06" font-style="normal" font-weight="400" style="text-align: center; stroke-width: 2.57215; fill: rgb(0, 0, 0);" text-anchor="middle">KS</tspan>
        </text>
        <text id="NE_label" x="686.63" y="337.29" style="font-size: 19.2455px; stroke-width: 1.60379; display: none;">
          <tspan id="NE_tspan" x="686.63" y="337.29" fill="#000000" dy="0" font-family="Arial" font-size="24.06" font-style="normal" font-weight="400" style="text-align: center; stroke-width: 2.57215; fill: rgb(0, 0, 0);" text-anchor="middle">NE</tspan>
        </text>
        <text id="SD_label" x="663.02" y="238.75" style="font-size: 19.2455px; stroke-width: 1.60379; display: none;">
          <tspan id="SD_tspan" x="663.02" y="238.75" fill="#000000" dy="0" font-family="Arial" font-size="24.06" font-style="normal" font-weight="400" style="text-align: center; stroke-width: 2.57215; fill: rgb(0, 0, 0);" text-anchor="middle">SD</tspan>
        </text>
        <text id="ND_label" x="663.02" y="150.75" style="font-size: 19.2455px; stroke-width: 1.60379; display: none;">
          <tspan id="ND_tspan" x="663.02" y="150.75" fill="#000000" dy="0" font-family="Arial" font-size="24.06" font-style="normal" font-weight="400" style="text-align: center; stroke-width: 2.57215; fill: rgb(0, 0, 0);" text-anchor="middle">ND</tspan>
        </text>
        <text id="WY_label" x="499.57" y="276.47" style="font-size: 19.2455px; stroke-width: 1.60379; display: none;">
          <tspan id="WY_tspan" x="499.57" y="276.47" fill="#000000" dy="0" font-family="Arial" font-size="24.06" font-style="normal" font-weight="400" style="text-align: center; stroke-width: 2.57215; fill: rgb(0, 0, 0);" text-anchor="middle">WY</tspan>
        </text>
        <text id="MT_label" x="487.84" y="155.58" style="font-size: 19.2455px; stroke-width: 1.60379; display: none;">
          <tspan id="MT_tspan" x="487.84" y="155.58" fill="#000000" dy="0" font-family="Arial" font-size="24.06" font-style="normal" font-weight="400" style="text-align: center; stroke-width: 2.57215; fill: rgb(0, 0, 0);" text-anchor="middle">MT</tspan>
        </text>
        <text id="CO_label" x="525.13" y="406.28" style="font-size: 19.2455px; stroke-width: 1.60379; display: none;">
          <tspan id="CO_tspan" x="525.13" y="406.28" fill="#000000" dy="0" font-family="Arial" font-size="24.06" font-style="normal" font-weight="400" style="text-align: center; stroke-width: 2.57215; fill: rgb(0, 0, 0);" text-anchor="middle">CO</tspan>
        </text>
        <text id="ID_label" x="339.94" y="235.07" style="font-size: 19.2455px; stroke-width: 1.60379; display: none;">
          <tspan id="ID_tspan" x="339.94" y="235.07" fill="#000000" dy="0" font-family="Arial" font-size="24.06" font-style="normal" font-weight="400" style="text-align: center; stroke-width: 2.57215; fill: rgb(0, 0, 0);" text-anchor="middle">ID</tspan>
        </text>
        <text id="UT_label" x="396.81" y="386.73" style="font-size: 19.2455px; stroke-width: 1.60379; display: none;">
          <tspan id="UT_tspan" x="396.81" y="386.73" fill="#000000" dy="0" font-family="Arial" font-size="24.06" font-style="normal" font-weight="400" style="text-align: center; stroke-width: 2.57215; fill: rgb(0, 0, 0);" text-anchor="middle">UT</tspan>
        </text>
        <text id="AZ_label" x="366.76" y="536.9" style="font-size: 19.2455px; stroke-width: 1.60379; display: none;">
          <tspan id="AZ_tspan" x="366.76" y="536.9" fill="#000000" dy="0" font-family="Arial" font-size="24.06" font-style="normal" font-weight="400" style="text-align: center; stroke-width: 2.57215; fill: rgb(0, 0, 0);" text-anchor="middle">AZ</tspan>
        </text>
        <text id="NV_label" x="262.47" y="370.64" style="font-size: 19.2455px; stroke-width: 1.60379; display: none;">
          <tspan id="NV_tspan" x="262.47" y="370.64" fill="#000000" dy="0" font-family="Arial" font-size="24.06" font-style="normal" font-weight="400" style="text-align: center; stroke-width: 2.57215; fill: rgb(0, 0, 0);" text-anchor="middle">NV</tspan>
        </text>
        <text id="OR_label" x="214.43" y="206.88" style="font-size: 19.2455px; stroke-width: 1.60379; display: none;">
          <tspan id="OR_tspan" x="214.43" y="206.88" fill="#000000" dy="0" font-family="Arial" font-size="24.06" font-style="normal" font-weight="400" style="text-align: center; stroke-width: 2.57215; fill: rgb(0, 0, 0);" text-anchor="middle">OR</tspan>
        </text>
        <text id="WA_label" x="238.05" y="102.99" style="font-size: 19.2455px; stroke-width: 1.60379; display: none;">
          <tspan id="WA_tspan" x="238.05" y="102.99" fill="#000000" dy="0" font-family="Arial" font-size="24.06" font-style="normal" font-weight="400" style="text-align: center; stroke-width: 2.57215; fill: rgb(0, 0, 0);" text-anchor="middle">WA</tspan>
        </text>
        <text id="CA_label" x="191.69" y="434.8" style="font-size: 19.2455px; stroke-width: 1.60379; display: none;">
          <tspan id="CA_tspan" x="191.69" y="434.8" fill="#000000" dy="0" font-family="Arial" font-size="24.06" font-style="normal" font-weight="400" style="text-align: center; stroke-width: 2.57215; fill: rgb(0, 0, 0);" text-anchor="middle">CA</tspan>
        </text>
        <text id="DC_label" x="1309.32" y="398.19" stroke-width="1.29" font-size="15.45" style="display: none;">
          <tspan id="DC_tspan" x="1309.32" y="398.19" fill="#000000" stroke-width="1.29" dy="0" font-family="Arial" font-size="19.31" font-style="normal" font-weight="400" style="text-align: center; fill: rgb(0, 0, 0);" text-anchor="middle">DC</tspan>
        </text>
        <text id="TN_label" x="1018.93" y="485.72" style="font-size: 19.2455px; stroke-width: 1.60379; display: none;">
          <tspan id="TN_tspan" x="1018.93" y="485.72" fill="#000000" dy="0" font-family="Arial" font-size="24.06" font-style="normal" font-weight="400" style="text-align: center; stroke-width: 2.57215; fill: rgb(0, 0, 0);" text-anchor="middle">TN</tspan>
        </text>
        <text id="AR_label" x="863.15" y="535.77" style="font-size: 19.2455px; stroke-width: 1.60379; display: none;">
          <tspan id="AR_tspan" x="863.15" y="535.77" fill="#000000" dy="0" font-family="Arial" font-size="24.06" font-style="normal" font-weight="400" style="text-align: center; stroke-width: 2.57215; fill: rgb(0, 0, 0);" text-anchor="middle">AR</tspan>
        </text>
      </g>
      <g id="state_borders" transform="translate(-0.04777967,-0.15336683)" stroke="rgb(209, 219, 221)" style="stroke: rgb(0, 0, 0);" stroke-width="0.3">
        <path id="AL_FL_border" d="m1009.63 653.8-.02-.11 1.7-.74v-.34l-.87.33-.53-.02-.12-.52 1.03-.44.33-.45-.1-.67.27-.47.14-.83.68-.22.77-.73-.06-.52-1.23-.17-.66-.64.1-.35-.55-.54.17-1.24.38-.47.37-2.24-.54-1.33-1.3-.6-1.45-.5-.91-.56-.48-1.06-1.14-.91-.54-.2-.83-.74-.28-.53.25-.66.56-2.6-.42-1 9.16-1.3h.48l2.56-.47 5.7-.76 5.37-.77.53-.01 3.79-.58 1.18-.13 3.86-.62 6.86-1 5.92-.95 10.5-1.78 6.74-1.22 6.4-1.06" stroke="rgb(209, 219, 221)" stroke-width="0.3" fill="none" style="stroke: rgb(0, 0, 0); display: none;"/>
        <path id="AL_GA_border" d="m1037.52 499.32.56 1.85 1.73 5.3 2.42 7.05 2 5.78 5.82 17.6 2.73 8.13 3.77 11.4 2.23 6.62.27.88.6.05.29.48-.3.4.1.53 1.38 1-.46.49.9.73-.16.58.43.97.76.7-.36.48.65.23-.15.3.8 1.33 1.1.92.27.03.7.78.32.87.22 1.1.6.16.3.59-.34.38.32.65h-.32l.08 1.04-.43.8.24.42 1.9.45 1.36.98-.31.15-.56 1.32-1.1.2-.14.38.48.32-1.1.6-.76 1.35-.38.42.67 1.35-.17.22.03 1.1.28 1.1-.27.97.2.3-.48.5.28.52-.43.52-.24 1.1-.5.1.2.49-.2.6.34.9.19 1.15-.18.35.48.34.38 1.1v1.2l1.06.94.35.1-.02.5.8.53.23 1.5.6.86.02.62-.44 1.76.34 1.14-.22.23.03 1.3-.17.66.4 1.09.02 1.04-.56.68.74 1.5-.15.78.37 1.13.63.14.8 1.05.57.3.37 1.03.57.56.5 1.2v.4" stroke="rgb(209, 219, 221)" stroke-width="0.3" fill="none" style="stroke: rgb(0, 0, 0); display: none;"/>
        <path id="AL_TN_border" d="m971.79 508.6-.11-.38 5.15-.62 3.76-.5 4.76-.6 5.96-.8 14.39-1.73 4.7-.7 3.75-.51 3.32-.53 8.5-1.25 6-.9 5.55-.76" stroke="rgb(209, 219, 221)" stroke-width="0.3" fill="none" style="stroke: rgb(0, 0, 0); display: none;"/>
      </g>
      <rect id="selection-rectangle" fill="#ffffccaa" stroke="rgb(209, 219, 221)" stroke-width="0.1"/>
      <ellipse id="selection-ellipse" fill="#ffffccaa" stroke="rgb(209, 219, 221)" stroke-width="0.1"/>
      <polygon id="selection-polygon" fill="#ffffccaa" stroke="rgb(209, 219, 221)" stroke-width="0.1"/>
      <polyline id="selection-polyline" fill="#ffffccaa" stroke="rgb(209, 219, 221)" stroke-width="0.1"/>
    </svg>
  </g>
  <svg id="legend-svg" width="100%" height="100%" style="overflow: visible; position: relative;" class="ui-draggable ui-draggable-handle" x="1328.321548461914" y="504">
    <g id="legend-g-svg" fill="#000" transform="translate(0,0) scale(1)" style="font-family: Helvetica; font-weight: 400; font-style: normal;">
      <rect id="legend-bg-rect-svg" x="0" y="0" rx="3.8" ry="3.8" width="190" height="20" fill="#000000" stroke="rgb(209, 219, 221)" fill-opacity="0" stroke-width="0.1"/>
    </g>
  </svg>
</svg>
