<?xml version='1.0' encoding='UTF-8'?>
<svg xmlns="http://www.w3.org/2000/svg" xmlns:dc="http://purl.org/dc/elements/1.1/" xmlns:ns2="http://creativecommons.org/ns#" xmlns:rdf="http://www.w3.org/1999/02/22-rdf-syntax-ns#" id="wrapper" viewBox="0 0 1520 840" preserveAspectRatio="xMinYMin" height="840" width="1520" style="background-color: rgb(255, 255, 255);">
  <metadata>
    <rdf:rdf>
      <ns2:work rdf:about="">
        <dc:format>image/svg+xml</dc:format>
        <dc:type rdf:resource="http://purl.org/dc/dcmitype/StillImage"/>
        <dc:title>MapChart Map</dc:title>
        <dc:creator>
          <ns2:agent>
            <dc:title>MapChart.net</dc:title>
          </ns2:agent>
        </dc:creator>
        <ns2:license rdf:resource="http://creativecommons.org/licenses/by-sa/4.0/"/>
        <dc:description>This map was created with MapChart.net, a website for creating custom maps.</dc:description>
      </ns2:work>
      <ns2:license rdf:about="http://creativecommons.org/licenses/by-sa/4.0/">
        <ns2:permits rdf:resource="http://creativecommons.org/ns#Reproduction"/>
        <ns2:permits rdf:resource="http://creativecommons.org/ns#Distribution"/>
        <ns2:requires rdf:resource="http://creativecommons.org/ns#Notice"/>
        <ns2:requires rdf:resource="http://creativecommons.org/ns#Attribution"/>
        <ns2:requires rdf:resource="http://creativecommons.org/ns#ShareAlike"/>
      </ns2:license>
    </rdf:rdf>
  </metadata>
  <g id="map-group" transform="translate(131.35725909551718,-1935.2394437589842) scale(3.390101125772785)">
    <svg id="map" width="1520" height="840" version="1.1" viewBox="0 0 1520 840" preserveAspectRatio="xMinYMin" data-originalStrokeWidth="0.3">
      <defs>
        <pattern id="circles3" width="10" height="10" patternUnits="userSpaceOnUse">    <rect width="10" height="10" fill="#fff"/>    <circle cx="4" cy="4" r="2" fill="#000"/>    </pattern>
        <pattern id="diagonal1" width="10" height="10" patternUnits="userSpaceOnUse">    <rect width="10" height="10" fill="#fff"/>    </pattern>
        <pattern id="diagonal3" width="10" height="10" patternUnits="userSpaceOnUse">    <rect width="10" height="10" fill="#fff"/>    </pattern>
        <pattern id="vertical1" width="10" height="10" patternUnits="userSpaceOnUse">    <rect width="10" height="10" fill="#fff"/>    <rect x="2" y="0" width="1" height="10" fill="#000"/>    </pattern>
        <pattern id="vertical3" width="10" height="10" patternUnits="userSpaceOnUse">    <rect width="10" height="10" fill="#fff"/>    <rect x="2" y="0" width="3" height="10" fill="#000"/>    </pattern>
        <pattern id="horizontal1" width="10" height="10" patternUnits="userSpaceOnUse">    <rect width="10" height="10" fill="#fff"/>    <rect x="0" y="2" width="10" height="1" fill="#000"/>    </pattern>
        <pattern id="horizontal3" width="10" height="10" patternUnits="userSpaceOnUse">    <rect width="10" height="10" fill="#fff"/>    <rect x="0" y="2" width="10" height="3" fill="#000"/>    </pattern>
        <pattern id="crosshatch" width="8" height="8" patternUnits="userSpaceOnUse">    <rect width="8" height="8" fill="#fff"/>    </pattern>
        <pattern id="subtlepatch" width="5" height="5" patternUnits="userSpaceOnUse">    <rect width="5" height="5" fill="#fff"/>    <rect x="2" y="2" width="1" height="1" fill="#000"/>    </pattern>
        <pattern id="checkers" width="8" height="8" patternUnits="userSpaceOnUse">    <rect width="8" height="8" fill="#fff"/>    </pattern>
        <pattern id="raindrops" width="10" height="10" patternUnits="userSpaceOnUse">    <rect width="10" height="10" fill="#fff"/>    </pattern>
        <pattern id="texture" width="4" height="4" patternUnits="userSpaceOnUse">    <rect width="4" height="4" fill="#fff"/>    </pattern>
        <pattern id="circles3_a03500_000000" width="10" height="10" patternUnits="userSpaceOnUse">    <rect width="10" height="10" fill="#a03500"/>    <circle cx="4" cy="4" r="2" fill="#000000"/>    </pattern>
        <pattern id="diagonal1_d9b400_535353" width="10" height="10" patternUnits="userSpaceOnUse">    <rect width="10" height="10" fill="#d9b400"/>    </pattern>
        <pattern id="diagonal3_3264c8_ffffff" width="10" height="10" patternUnits="userSpaceOnUse">    <rect width="10" height="10" fill="#3264c8"/>    </pattern>
        <pattern id="horizontal1_72b38e_000000" width="10" height="10" patternUnits="userSpaceOnUse">    <rect width="10" height="10" fill="#72b38e"/>    <rect x="0" y="2" width="10" height="1" fill="#000000"/>    </pattern>
        <pattern id="horizontal3_986ba1_ffffff" width="10" height="10" patternUnits="userSpaceOnUse">    <rect width="10" height="10" fill="#986ba1"/>    <rect x="0" y="2" width="10" height="3" fill="#ffffff"/>    </pattern>
        <pattern id="vertical1_b9a087_ffffff" width="10" height="10" patternUnits="userSpaceOnUse">    <rect width="10" height="10" fill="#b9a087"/>    <rect x="2" y="0" width="1" height="10" fill="#ffffff"/>    </pattern>
        <pattern id="vertical3_4c91bf_ffff33" width="10" height="10" patternUnits="userSpaceOnUse">    <rect width="10" height="10" fill="#4c91bf"/>    <rect x="2" y="0" width="3" height="10" fill="#ffff33"/>    </pattern>
        <pattern id="checkers_cc3333_f7f7f7" width="8" height="8" patternUnits="userSpaceOnUse">    <rect width="8" height="8" fill="#cc3333"/>    </pattern>
        <pattern id="texture_d1dbdd_525252" width="4" height="4" patternUnits="userSpaceOnUse">    <rect width="4" height="4" fill="#d1dbdd"/>    </pattern>
        <style id="map-style">svg { background-color: #ffffff; }</style>
      </defs>
      <path id="AK00" d="m153.66 786.7.18-.31.33-.14.23.13-.01.17-.3.51.04.55-.05.3-.23.3-.22.05-.2-.23-.62-.17.11-.37-.15-.3.43-.12.46-.37m8.83-7.18.42-.18.7-.45.38-.12.3.04.5.3-.02.44-.6.28-.06.13-.68.12-.68.28-.83.68-.22.02-.2-.27v-.24l.66-.74.33-.29m-41.86 13.96.15.12.17.42.15.12-.1.31-.17.08-.5-.15.18-.17-.05-.57.17-.16m-1.38-.3.3-.15.3.18-.4.1-.32.26-.23-.05-.08-.33.27-.09.16.09m-98.33-2.53h.22l.23.61-.25.25-.34.08-.27-.2-.23.01.24-.6.4-.15m1.5-.11-.06.21-.39-.21.35-.2.1.2m2.29.69.3-.38.59.07.39-.31.23.13.35-.14.43.33.19.32-.08.27-.67.44-.46-.11-.13-.14-.48.04-.14.12-.54.17-.23-.29.26-.52m5.9.26.17-.28.45.17.04.17.31.25-.18.32-.28.2-.36-.12-.46-.27.31-.44m7.57 2.8.4.06-.48.12h-.53l.6-.18m-5.3-3.27.4.35.18.02.08-.27.72.16-.01-.1.6.37.16.28-.12.28-.22.11.08.18-.42.14-.03.3-.3-.08.03-.3-.11-.23-.22-.06-.32-.44-.7.25-.3-.1-.17-.4.03-.32.3-.21.35.07m-.55-1.1.45.34-.25.42-.46.05-.23-.26-.1-.44.4-.19.2.08m12.57 4.39-.29-.08.18-.1.1.18m-9.77-4.3.12-.25.6.02-.07.52h-.2l-.3.39-.25.04-.13-.14.04-.43.2-.15m.25-1.07.15.34-.15.16-.32-.28.32-.22m3.98 5.24.28-.2-.06-.17.62.16.43-.23-.08-.22.24-.23.28.24.59-.12-.08-.13.21-.25-.06-.16.18-.24.2.09.37-.05.39-.35.18-.31-.19-.29.35-.64.71-.3.16.03.29-.23.21.07.48-.22.11-.16.48.5h.76l-.01.27.43.07.12.16.21-.06.18-.38-.18-.05.08-.31-.4-.27.62-.56-.06-.25.1-.31.76-.41.53-.07.58-.3 1.13.1.53.19.26-.06.26.3-.06.26.32.27.87.37-.06.28-.25.22-.63.28.01.4-.13.32-.54.08-.12.1-.65.01-.26.15-.98.03-.08.17-.71-.07h-.65l-.63.24.05.14-.28.09-.13.37-.23-.22-.05.4-.3.05-.67.41-.19.23-.4.12-.06-.2-.2.07-.46-.06-.76.45-.34.03-.22-.1-.2.2-.23-.28-.26.16.16.34-.06.14-.24-.05-.04-.31-.46-.04-.63.24-.68.04-.26-.17-.34.3-.16-.12m12.03-2.02.73-.21.6-.28.17.2.26-.14-.08.28.18-.1.23.22-.05-.3.47.1v.14l.4.14-.13-.31.28-.01.35-.26.27.29v.28l.16.03.06-.43.29.7.15-.15-.06-.29.15-.22.17.4.07-.2.3.03-.26-.23.18-.11.58.46.11-.08.34.06-.18-.22.23-.04.04-.17-.13-.27.8.55.23-.17-.3-.12.04-.18-.26-.27.13-.15-.08-.54.1-.2.6.03.3.38.01-.3.31.29.07-.26-.27-.32v-.37l.2-.16.48-.04.8.28-.05.2.1.47-.04.4.23-.2.13.55.1-.38-.11-.48.08-.25.17.04.28.37.22-.06-.28-.13-.08-.22h.22l.21.16.36.14-.1-.2-1.02-.63-.13-.24-.3-.15-.2-.32-.46.14-.13-.08-.1-.37-.2-.24.11-.36-.4-.27.13-.37.25.02.23-.13.45-.47h.35l.33-.25.22.13.85-.14.32.25.2-.12.29.05.35-.08.26.29.33-.11.27.23.06.63-.34.07-.28.28.05.45-.2.14.1.18.25-.13.12.1-.5.52.6-.2-.03-.26.2-.09.1-.29.37-.05v.14l-.35.12-.03.33.91-.3v-.22l.15-.25.1.2.26-.5.35-.2.1.26-.35.33v.25l.34.04.28-.09.23-.2.08.18-.04.44-.18.3.36-.24.1.14-.26.34-.25-.03.04.24-.43.04-.33-.17-.09-.23-.17.34-.47.24-.22-.1.03.3-.46.11-.34-.18-.1.21.22.1-.22.12-.9-.04.4.2-.35.19.02.13.3-.03-.23.35.26-.09.13-.27.19-.06.18.14.27-.27.41-.05-.05.4.18.05.22-.46.25-.1.11.3-.05.24-.2.2.34.11.05.42-.16.17-.54-.13-.26.13-.35-.24.06.22-.23-.04-.26.22-.38-.39-.05.28-.25-.31-.01.28-.16-.01.17.42-.07.26-.08-.35-.18-.14-.14.38-.2.2-.2-.08.05.37-.23-.43.07-.27-.14-.28-.12.15.07.26-.16.52-.38-.36-.13-.01.38.53-.24.24-.46-.53-.05-.65-.13-.12-.07.23.11.23-.2.36.2.21-.09.28-.18.04.05.21-.31-.28-.04-.24-.17.46-.3-.54-.27.4.11-.46-.21.34-.21-.2.16-.22-.33-.08-.16.35-.26-.09.24-.18-.23-.19h-.3l-.18.23-.47-.04-.15-.17-.37.24-.28-.06-.15.12-.66-.07-.28.4-.49-.21-.04-.13-.23.1-.42-.02-.15.2-.38.2-.18.21-.14-.34-.18-.02-.34-.24-.27.32-.27-.04-.04-.19-.85-.57-.05-.35-.22-.24.24.02m13.99-1.46.46-.05-.12.4.23-.09.17-.5.34-.05.36.1.18-.08.16.23-.48.14-.1.2.12.2-.08.21-.66-.13.19.37-.28.12-.31.02.03.2-.27-.2v-.3l-.22-.3.23-.58.05.09m1.85-2.09v-.1l.49.27.15.34-.14.08-.49-.08-.32-.21.08-.36.23.06m.66.14.23.02-.07.22-.15-.23m4.58.66v.2l.22.17-.23.11-.45-.05.06-.26.4-.17m.96.1.4-.05.22.2.5.14.1.4-.4-.09-.14.27-.18-.19-.03-.32-1.01-.36-.07-.1.6.1m1.96.18.42-.02.32.13.2.27.17-.07.36.2-.13-.31.26.15.27.04v.33l-.46.4-.22-.13-.46.01-.3-.15-.3-.35-.2.02-.4-.3.18-.25.29.03m-6.66-2.9.05-.28.5-.03.45-.24.38.24.43.17-.2.4.25.34.31-.2.33.42.03.2-.26.09-.36-.14.01.13.43.36h.47l-.13.4-.29-.05-.53.14-.08-.15-.4-.24-.17.3-.27.16-.18-.1.12-.22-.2-.2-.23.03-.14-.23-.15.16-.5-.01.13-.36-.2-.4-.05-.38.25-.3h.2m3.82-.38.1-.15.26.07.16.25.13-.12.44.06.26.17-.09.14-.21-.1-.16.19h-.34l-.07.25.17.06-.18.23.8.44.22-.01.1.24-.25.23-.57-.27-.08.26-.48-.02-.23.11.13.12-.17.17-.43-.16-.13-.4.44-.19.04-.17-.2-.34.56-.24-.15-.3-.28.13-.2-.1-.07-.22.19-.25.3-.08m5.67 3 .25-.09.44.09-.03.17-.39-.1-.45.09-.15-.12.34-.04M97 793.25l-.38-.14h.29l.09.14m.6-.4-.06.3.34.04-.3.22-.3-.13-.14-.2v-.51l.47.29m-3-1.62.17-.04-.13-.23.32-.1.87.73.22.29.14-.12.29.62.07.47-.12.05-.39-.4-.15.17-.18-.2-.2.07-.42-.36-.5.2-.3-.74.31-.4m4.26-1.1-.18.08.1-.32.08.24m-19.38-5.84.3.02.78-.23.23.13.5-.1.87-.77.39-.5.3-.22.46-.53.21-.45.54-.2.55-.05.24.2.3.48.24.05.61-.06.58-.2.15-.16.29-.03.33.24h.34l.73-.2.63-.31.33.13.6-.04.23.16.58.26.77.17h.18l.4.24-.45-.08-.02.28.24.34.27.74v.78l-.13.09-.16.53.12.4-.11.4.22.56.73.18.3-.08.23.07.3.62-.1.58.25.1-.15.27-.38-.2-.3-.09.46-.29-.62-.2-.25.21.01-.2-.26-.11.1-.21-.28.13-.2-.39.1-.31-.3-.17-.23.02-.33.22v.4l-.24.4-.63-.14-.23.2-.42-.07-.17.16-.68-.44-.9-.4-.32-.05-.76-.26-1.13-.17-.93.01-.4.11-.67.26-.27.22.1.18-.2.32-.45.3-.69.2-1.22-.16-.42.04-.44-.29h-.22l-.36-.24-.31-.33-.1-.37.02-.45-.15-.17.15-.11-.1-.43.12-.68.3-.26m20.47 1.83.22-.25.39-.14.43.23.09.53-.28.74-.36.22-.07.19-.38.08-.2-.2.01-.19-.2-.2-.04-.22-.18-.13.2-.48-.08-.1.46-.07m4.04.36-.05.23-.2-.46.04-.15.2.38m-.33-.56-.06-.58.13.55-.07.03m2.9-.1.2.38-.14.23h-.23l-.12-.2.18-.22v-.4l.12.22m-2.13-.58-.18.17-.17-.3.15-.13.2.26m.07-.79.56-.12.46.45.15.01-.04.27.6.4-.04.26-.34.02-.14.3-.21-.15-.3.25-.33-.5.13-.2.27-.12.13-.32-.08-.33h-.26l.12.17-.38.56-.11-.39-.34-.11-.04-.23.19-.2m4.4.5-.18.06.08.27-.22.35-.43-.42-.2-.28.25-.2.2-.05.17.17.33.1m-2.34-1.07.36.13.6-.07-.4.64-.16-.16-.38.14-.44-.34.18-.26.24-.08m16.47 8.97.27-.09-.33-.08.4-.19.04.32.46.1v.23l-.39.35-.34.1-.25-.12-.03-.33-.14-.12.31-.17m-.64-1.89.17-.1.5-.02.2.16-.1.28-.22-.22-.18.23.24.2.1.54h-.28l-.08.14-.49.14-.22-.06.18-.14-.06-.24.12-.1.3.13.07-.25-.14-.14.09-.46-.29.24-.2.03.29-.36m-2.83-.69.01.36h-.15l-.1-.44.18-.17.06.25m3.97.88-.16-.23.26.1-.1.13m-3.46-1.4-.01.26-.2.06-.19-.23.24-.21.16.12m-4.17 1.3.25-.3.24.18.2-.17-.05-.28.24-.05.35-.42.44-.19-.02-.25-.3.03-.27-.2.06-.2h.3l.17.14-.03-.28-.45-.32.17-.23.16.07.48.5-.18-.6.18-.32.31.46-.05.26.26.06-.01.13.41-.12-.33-.1.16-.14-.1-.16.18-.08-.24-.23.02-.37.18-.12.5.6.02-.59.23.16.2-.2-.16-.4.16.1.38-.46.24.34-.03.31-.2.2-.29-.13-.06.43-.28.68.16.23.18-.24.08-.32.41.03-.3.63-.24-.07.03.28-.26.14-.26-.26-.08-.31-.14.27-.26.03.21.2v.32l-.34-.1-.18-.16.01.4-.55.33-.55.17-.27.48-.54.1-.05.36-.2.09.03.22-.3.13-.03-.69m4.65-1.6.2-.1-.15.43-.33-.05.28-.28m.91.1.32.46.08-.12-.2-.28.13-.22.27.12-.13-.31.09-.13-.05-.54.18.14.22-.1.2-.43.1.22-.14.34-.26.09-.05.38.26-.03.01.27h-.24l.16.26-.28.2-.2.4.08.34h.17l-.23.24-.14-.2-.03-.36-.18-.06-.09.46-.27-.16-.33-.02.06-.25.2-.2.31-.05-.21-.17-.14-.31.11-.15.21.17m-8.42-5.1.45-.52.39-.04.23-.13.47.25.06.16-.09.4-.27.34-.26-.02.17.34.45-.29.16.11-.05-.33.53-.42.28.24-.05.29-.46.22-.2.31.07.6.12.25-.37.15.53.2-.08.4.23.15-.26.08-.4-.23.3.36-.35.37v-.36l-.35-.08-.26.05-.09-.25-.3-.18.03-.3-.16-.12-.39-.05-.33.39-.18.33-.21.05.21-.38.01-.43-.16-.3.3-.6-.12-.28.28-.25-.03-.26.15-.2m2.53.6.32-.05.3.24.5-.14.21.04v.76l-.45.73v-.15l-.27-.13.03-.4-.27-.2-.33.02-.3-.51.26-.2m3.38 1.02.13.12-.16.2-.46-.2V786l.4-.03.1.2m-.8-1.95.03.25.5.02-.25.36.04.21-.18.28-.31-.26-.14-.34-.26-.07-.18.21-.3-.08-.1-.36.27-.29.55-.12.33.2m7.18-2.15.2-.28.31.18-.7.52.19-.42m.64-.7.23.23-.06.24.13.11-.37.26.07-.23-.14-.37-.21-.06.35-.18m3.58.04.64-.13.3.33-.05.33.3.21-.46-.04-.27-.28.1-.16-.4.01-.17.14-.13.35-.2-.15.35-.62m-2.03-.49.31.23-.12.12.17.26h-.47l-.19-.32.3-.3m-12.3-4 .26-.25-.08.69-.28-.2h-.67l.15-.1.34.06.27-.2m-.35-1.41.47.12-1.1-.14.26-.08.37.1m31.26 7.33.16.05-.22-.42.1-.13.2.24.29-.33.13.4-.02.3-.34.06-.08.58-.42-.5-.04-.23h.23m-9.86-3.7-.21.25-.25-.22.37.07.1-.1m9.67 1.6.13-.34.25.5-.31.55-.2-.19.13-.53m-7.04-3.81.1.12-.11.23.12.2-.3.14-.44-.6.3-.13.34.03m26.55 2.3.7-.27.18.17.77-.05.23.86.14.1 1.16.08-.19.38-.41.14-.12.13-.39-.08-.79-.06-.37-.19-.55.14-.32-.21-.47-.14-.11-.26.02-.24.52-.5m1.75-1.36.1.07.33-.16.26.12-.08.4-.75-.24-.26.11.2-.25.2-.05m-27.1-2.6.07.14-.27.04.2-.2m3.46-.12.28-.14.06.16.49.01.66.19.29.38.35.35-.14.02-.15-.24-.74-.2-.31.25-.22-.11-.9-.18-.16-.12.5-.37m28.18.9-.42.15-.05-.18.45-.11.02.13m-7.7-7.52.16.1.34-.42.09-.35-.15-.06.48-.38.38-.62.37-.1.42-.22.15-.4.42.1.3-.08.25-.26.58-.34h.5l.24-.24.94.34h.32l.52.15-.16.84.04.25-.14.29.39.21-.03.36.36-.05.03-.41.31-.35.3-.08-.41-.72.15-.2.65.1.8.25.1-.13-.15-.26-.8-.5-.46-.2h-.43l.08-.28-.12-.16.1-.24.12-.75.53-.31.21-.42.15.13.54-.12.25-.25.07.22.66.17-.14.24.02.24.35.22.02.38.13.33-.18.27-.1.5.18.16.4-.8.36.14-.2-.64.05-.38.48.25.36.32.37.19.24-.2-.42-.2.08-.28-.46-.16-.06-.22-.3-.14-.48-.72.21-.42.3-.08.52.4.51.6.19.06.15.3.23-.15.41.36.4.55.1-.34-.6-.87-.03-.17-.43-.31-.2-.45.11-.15.3.07.3.41.32.1.2.26.48-.1.25.25.62.07.17.2.36.13.35.4-.57.33-.36.55.01.41-.21.3.03.25.2.3.2.02.03-.62.12-.55.16-.2.38-.18.15.23.05.33.1.03.3-.65.48-.21.06-.31.4-.08-.02.22.33.09.45-.44.01-.28.2.15.2-.2.18.19-.11.3.64.37-.37.37-.27-.07-.3-.27-.16.13.04.29.36.24-.3.22.1.3.58-.18.14.12-.18.22-.28.17-.1.27-.31-.18-.3.18-.25.55.2-.1.16.13-.23.14-.09.51-.3.15.12.18.75-.45.15.14-.4.33-.47.6.3.14.72-.72.17.28-.04.22.29-.08.2.2.68-.06-.07.46-.87.74-.28.1-.32.6-.19.6-.48-.25-.2-.06-.36.2.3-.48-.24-.15-.29.4-.15-.22-.33-.03-.21-.42-.22.14-.44-.26-.08-.37-.63.03-.27-.24-.43.05.19.26-.12.22.6.02.39.25.23.37-.04.14.66.32.16.31-.09.36-.23.1-.06.36-.54.45-.06-.31-.23-.17-.57.54-.21-.14.07-.3-.13-.12-.14.17-.25-.3.23-.44-.38.15-.28-.06-.03-.14-.5.07-.4.2-.28-.2-.23.1.13.2.36.22.63-.1.25.26.2.37-.33.26-.34.03-.4.18-.6-.11-.32-.16-.1.28.18-.02.15.23-.16.29.07.1.43-.23.39-.06-.1.25.36.07.11-.16.45-.02.17.34.21-.03.13.27-.39.27-.6.01-.18-.09-.3.15-.26-.02-.24.19-.25-.17-.4.23-.13.23.1.29-.36.45-.43.05-.35-.24.2-.22-.03-.3-.22-.02.4-.41-.63.15.02-.22.39-.22-.22-.1.11-.2.84-.76v-.32l-.26.2-.41-.07.05.33-.14.01-.64.65-.2-.39-.13-.08-.12.17.15.56-.16.31-.52-.48-.22.06-.45-.08-.09.2-.23.16.8.14.07.24-.26.2.45.35-.16.38-.35.15-.1.28-.46-.04-.25-.18.03.33-.38.32-.26.06v.3l.35-.19.27.07-.23.26-.65.17-.06-.23-.28.1-.1.23-.47.32-.1.28-.59.23-.3-.06-.1-.3-.75.17-.1-.05.23-.5.62-.75.43-.08.28-.45.33-.18.53-.07.33-.33-.24-.33-.32.2-.39-.04.1-.54.53-.69-.05-.11.43-.3h.17l.41-.23.12-.18.3-.04-.35-.37-.19.37-.47.07-.83.7-.6.58-.33.41-.31-.02-.46.58-.37.07-.2.43-.63.33.12-.57-.09-.58-.22-.2-.23-.4-.42-.3-.41-.19.3-1.08.12-1.43-.25-1.05-.18-.22-.47-.01-.01-.27-.27.06-.4-.14.26-.09.13-.42-.22-.16-.02-.3.2-.05m18.12 2.53.08.16-.24.18-.25-.02.25-.37.16.05m143 16.79.05-.47.2.24.16-.15.3.5.04.27-.5.04-.1.1-.23-.43.09-.1m.97-.75.34-.09.34.38-.23.05-.1.2-.4-.29.05-.25m-8.58 3.53-.04.57-.14-.3.2-.5-.02.23m8.07-3.91.17.3-.23.03-.14-.42.2.09m.23-.23.5.38-.42-.02-.26-.28.18-.08m-.49-.56.37-.07.19.09v.36l-.5-.06-.06-.33m.02-.5.22.02.05.28h-.34l.07-.3m-.6-1.17v-.1l.41-1.02.3-.16.42-.04.36.13.41-.22.39-.08.45.17.28.24.1.38-.17.14-.15.42.3.68v.25l-.47.35-.35.1-.7.39-.12-.2-.48-.26-.16-.28-.88-.34-.08-.32.13-.23m-5.5.4-.22.09-.26-.35.24-.01.23.27m4.97-1.63.12-.08.14.2-.26-.12m4.5-.26.66.19.16.43-.27-.06-.05.21-.49.35-.34-.21-.05-.25.13-.41.24-.25m-.9-.48.3.25-.1.18-.45-.2-.07-.23h.33m.2-.27.06.19-.33-.05-.07-.2.25-.08.1.14m-9.06 1.56.16.1-.03.25-.28-.15-.19-.4.34.2m-4.93-4.69.27-.41.19-.02 1.09.66.18-.06-.2-.2.01-.2-.52-.2.02-.2-.47-.13.06-.1.41.03.39.17.07-.56.23.17.54.22.38.78.12.44.23-.13.05.33.17-.02.2.58.16-.01-.2.36.45.22.07-.51-.08-.4-.18-.09.1-.27.46.04v.3l.39-.18-.47-.55-.06-.23-.41-.03-.32-.57.2.04v-.23l-.44-.26.28-.08-.84-.66-.54-.25.21-.06-.1-.37.13-.23.4-.1.51-.4.55.13.6-.01.24.16.46.04.25-.05.59.23.27-.03.67.27 1.07-.14.52-.13.9.15.39.46.3.11.45.8.17.64.26.27.69.03.51.44.3.53.42.1-.02.2.55.14v.3l.27.37.44.1.06.26-.53.53-.22-.01-.53.73-.57.24-.45-.12-.19.12-.4-.04-.12-.35-.19.08v.3l-.36-.07-.16-.16-.2.08.09.2-.17.02-.12.5-.18.27-.34.21-.43-.34-.21.14-.2-.1-.11.17-.25-.06-.15-.25-.48.14.24.35-.5.18-.15.24-1.1.15-.19-.3-.06-.6-.13-.1.08-.52-.21-.12-.14.27-.05-.41.33-.22-.2-.37-.07.4-.16.1-.06.34-.4.07-.06-.3-.33-.17-.02-.11-.52-.04.18.23.26.1.1.2-.24.2.13.13-.13.5-.28-.05.03.29.52.15.29.6-.24.04-.16-.17-.17.1.33.53-.12.08-.25-.13v.36l.63.25.19.34-.22.31.14.2-.17.16-.71-.85-.21.1.1.33.33.13.56 1.02-.13.3-.1-.12-.3.1.32.75-.14.28v.47l-.24.2-.18-.08-.26-.38.04-.75-.34-.55-.06-.28.12-.2-.14-.53-.16-.29-.04.51.14.48-.17.16.1.7-.1.21-.2.03-.45-.19.2.24-.07.15.17.15.4-.12.09.1-.02.44.22.08-.22.26-.29-.1.39.47-.08.65-.38-.23.04-.45-.55-.12.13-.48-.4-.14-.04-.16.38-.3-.12-.17-.34.03-.05-.76-.2-.55.4-.3.02-.34.24-.29-.45.3-.07.3-.37.03v-.26l.15-.1-.22-.5.21-.24.13-.53-.2-.43.03-.28.2-.2.27.33.4.8.17.05-.33-.72.2-.31-.3-.52-.1.02-.33-.52-.52-.2-.36.16.12-.35-.14-.23.02-.34.16-.03-.2-.35-.23.06-.15-.34-.12.07-.38-.73.01-.44-.37-.93.05-.32.32-.35m14.83 2.42.11.25-.17.2-.15-.36.2-.09m-.55-.04.02.18-.14.43-.17-.19.11-.43h.17m.57-.27-.32.08.17-.42.33-.22.01.29-.19.27m-25.18-7.52 1.03.05.27.06.01-.16-1.06-.17-.07-.13.31-.24.13-.48.2-.05-.06-.47-.15-.3.33-.15.34-.57.5-.04.44.2.27.34-.1.28-.4.19-.34.3.2.27.06-.28.23-.22.38-.18.5-.13.28.1.2.32-.28.14-.05.17.35-.2.76.22.1.16.37-.1.12-.15.46-.1.33.06.34.2-.01.18.33.6.01.6-.14.06-.09-.26-.17-.01-.32-.32-.13.2-.25-.17-.42.15.46.06-.17.22.3.17v.34l.22.13.1-.16-.2-.4.33.13.02.34.14-.1.2.28.04.34-.12.12.38.36.14.27-.17.11.21.13.2.85.18.15.28.78.08.71.23.37h-.2l.4.3v.74l.3.28.23.74.25.48.05.44.2.72-.07.28.12.77-.12.19-.17-.52-.06.28.23.77.16.35.05.65.19.68-.07.43-.4.4.46-.23.11.35-.27.35.06.34.22-.2.15.12-.18.35.06.42-.04.46-.38-.16.16-.25-.17-.2.07-.24-.3.3-.4-.11.17-.12-.36-.06.15-.48-.25.3-.05-.31-.37-.4-.3-.1-.04-.33-.2-.34h-.17l-.01-.42-.32-.23-.16-.42-.29-.3-.13-.43-.2-.1.05-.25-.11-.31.05-.2.29-.35.26.05-.18-.4h-.29l-.05.2-.4.36-.35.07.05-.28-.05-.39h-.16l.06-.53-.28.07v.22l-.26.08-.2-.23.23-.23-.02-.33-.33.37-.32.04v-.27l-.23-.1-.04-.27.32-.25-.36-.24-.21.47-.18-.42-.2.1-.36-.04-.13.2-.3-.22v-.58l.16-.16.25.01.07-.17.18.3.15-.52-.2-.3.29-.08-.2-.29.47.21-.26-.42-.5-.26.2-.03-.01-.46.51.04-.02-.16h-.4l-.03-.2.28.1.27-.2h.25l.18-.32.43.26.13-.02-.41-.36-.46.18-.45-.16-.28.12-.2-.03.25-.15-.4-.58.13-.63.25-.24.4-.04.01-.13h-.31l-.4.25-.09.23-.26-.33.3-.44-.02-.42.2-.22-.55-.03-.22.09-.21-.1-.38.3-.25-.03-.35-.61.22-.03-.51-.24-.31-.29-.18-.3.2-.19m12.94 4.67-.11-.26.28.3-.17-.04m-11.23 2.01.13.12-.14.3-.14-.17-.09-.34.24.1m.9-1.07.05.39-.39-.4.18-.11.17.12m-.58-2.26.06.26-.4.02.06-.38.28.1m-3.16-1.5.06-.13-.21-.15.13-.18.03-.4-.27-.28.2-.15.34.03.13-.2.24.26.03-.15.92.53.4.55.04.28h-.2l-.48-.26.27.26.2.4.01.32.16.01.23-.24.05-.54.66.59.2.4-.25-.05-.08-.22-.36.22.13.23-.43-.18.08.27-.08.35.06.26-.2.3.03.34-.14.14-.05.33-.35-.03-.22.17-.38.07-.38.19-.22-.02-.1-.2.06-.77-.06-.31.26-.3.32-.09-.02-.33.17-.15-.19-.25-.24-.04-.16.12-.2-.1.18-.85-.1-.13-.16.31-.27.03.21-.27m2.65-.36.26.07.23-.1.2.37-.17.37-.2.16-.54-.56.22-.3m-3.25-1.87.2.12-.33.02.12-.14m27.55 29.87.07-.1.32.08.21-.27.47.36.22-.02.3.35-.22.09-.02.18.23.1v.18l-.45-.09.23.31.25.06.26.35-.09.54-.38-.19-.33-.6-.49-.4-.36-.19-.22-.74m9.5-2.06.37.1-.26.16-.1.23-.3-.18.28-.3m-9.64 1.7-.02.26-.24-.07-.28-.3.24-.37.28.13v.35m10.24-2.06.03.24-.38-.34.23-.04.11.14m-11.04.27.13.37-.18.37-.2-.48.24-.26m-4.35 4.15.2.52.04.56-.3-.35v-.63l-.22-.2.15-.25.13.33m-1.97-6.36.2-.47-.44-.11.29-.28.13.08v-.43l.26-.2.1.22 1.1-.32.09.52-.53.33-.33.46-.21-.07.01.38-.1.32-.07.78-.3-.44-.18-.06-.07-.37-.18-.15.24-.2m16.31.84-.1-.18.06-.4.15-.1.25.14.04-.41-.3-.04-.02-.15-.3-.07.18-.15-.35-.68.06-.47.3.02-.19-.23.73.43.42.31.4.04.17.23.45.2-.27.16.21.56-.1.42.2.18.04.42-.18.42-.8.12-.17-.16-.1-.4-.22.03.14.23-.34.38-.16.31-.08-.26-.25.08-.1-.46.12-.05.11-.48m-10.88.73-.15-.07.3-.21-.15.28m11.73-3.27.4.22-.23.05-.17-.27m-1.62-.64.35.25-.41-.1.06-.15m-5.98-1.44.3.25-.44-.14.14-.1m-6.92 1.9.3-.14.11.26-.1.35-.4.11-.18-.12.15-.45.12-.02m-2.6.42.07.08-.3.26.05-.3.17-.04m.3-.5.25-.3-.06-.3.09-.17.57.26.22.2.1.41-.16.27-.76.21-.1-.16-.44-.03.3-.39m-2.73-6.24.12.02.1-.37.27-.56.14-.15.02-.36.27-.28.47-.04.16.1.56-.12-.14-.22-.83-.04-.18-.17.03-.37.44.18.3-.4h-.12l-.1-.36-.21.13-.31-.3-.2.12-.24-.12.21-.24.1.06v-.38l-.31-.46.07-.16-.17-.19.04-.23.28.2.16-.04-.34-.42.07-.17.72.05.9.13.08-.13.62-.05.27.12.1-.2.32.13.2-.2.39.24.43.63.01.17h.32l.08.28.2.3-.07.1.2.2-.02.34-.2.28.08.32-.24.2-.14-.26-.07.16.42.73.4-.04.17-.18.38.2v-.33l.24-.02.12.47.35-.04-.07-.11.35-.08.6.48.3.07.2.3.85.55 1.37 1.48-.12.31.47.48-.08.34.05.37.14-.06.04.76.21-.53-.05-.22.22-.07.3.3.37.88.21.16.09.31.15-.1.65.26.47.45.09.27-.21.1-.52-.37-.97-.37-.63-.14-.32-.17-.28-.36-.67.3.38.09-.06.38-.15.2-.03.3-.3.14-.3.5.15.23.2-.42.44-.19-.02-.4.33-.15v.13l.76-.26.22.5.25-.15h.34l.37.41-.67.32h-.36l.38.47h.16l.02-.3.6-.24.22.36.42.29.3-.06-.07.15.27.25-.02.22.57.62-.26.41-.18.08-.58-.05.06.16-.19.14-.03.32.25-.25.3-.11.38.14.08-.13.26.2.1-.61.16-.43.19-.09.25.2.14.67.18.45-.27.3-.1.52.34-.08-.01.22-.3.3-.3.11.06.52-.39.38-.6.29.04.13.3-.1.34.04.45-.35.22-.37.41-.15.22.46-.15-.04.3.59-.02.54.2.71-.69-.3.13.31.27.02.3.18.27.59-.08.28-.27.04v.38l.17.18-.11.4.05.25-.34-.08-.26.06.07.19-.64.02-.01-.18h-.27l-.08-.22-.2.15-.26-.12-.1.25-.34-.05-.08-.33-.45-.08-.01-.36-.18.15-.28-.11-.57.21v-.17l.28-.13-.04-.19.14-.3.65.06.27-.25-.19-.08-.1-.27-.45-.07-.17-.28-.16.05-.17-.19-.15.2-.3.07-.2-.26.06-.22-.24.02-.52-.42.06-.43.21.03-.17-.23-.02-.3.25-.3-.17-.13.23-.43-.03-.22-.2.16-.15-.23-.18.54-.06.49-.16-.33v-.44l.24-.78-.27-.36-.6-.46.5.79-.04.33-.23.14-.4-.08-.41-.27-.26-.02-.02-.17-.26-.04.22.31.18.02.47.4.17-.07.21.15-.13.27.08.33.27.41-.02.47-.36.08-.06.32-.16-.23-.14.08-.4-.16-.28-.02-.18-.15.13-.42-.01-.29-.23-.34.06-.16-.3.07-.2-.12.27-.33-.05-.22-.37.06.07-.25-.08-.23-.32-.11-.25.3-.3-.2.07-.24.25-.1-.32-.03-.02-.19-.21.14-.39.04.32.18-.13.2.45.68-.2.14.32.33.19-.1.17.2.07.5.35.27-.46-.26-.26.1.46.3-.05.11.53.3.07.55.44.34-.1.18.34.39h.27l.4.48-.18.23.31-.12.45.3.08.33.32.4-.03.36.33.02-.2.5.39.18-.39.21-.19-.27-.34.08-.19-.18-.23.17-.43-.58.07-.17-.3-.3-.3-.04-.57-.45-.28-.64-.44-.38-.03-.15h-.34l-.1-.16-.34-.15.08-.15-.15-.23.1-.24-.2-.1.03-.27-.25-.05-.28-.3.39.02-.55-.42-.02-.19.23-.09.35.04.26-.07-.8-.14.17-.23-.37-.38.5.13-.21-.23-.28-.05.03-.87.36-.08.3-.37-.38.14-.26-.08-.19.12-.09.63-.62.28-.16-.2-.25-.05-.18.31-.36-.18-.18-.52.37-.13.07-.25-.34.07-.13-.41.16-.13h.4l-.12-.13.33-.2h.21l.21.18.1.5.28-.06.14.17.04-.46-.32-.2-.19-.3.19-.07.25-.39.29-.03.27.24v-.2l.19-.06-.26-.15.26-.13.01-.17.27.17.03-.34-.2-.03-.35-.37-.03-.18-.33-.1.02-.29.27.15.03-.3-.25-.02v-.26l-.27.08.04-.41.2-.2-.38-.12-.1.18-.24-.02-.46.14v-.16l-1.13-.6.06-.25.22-.1-.12-.42-.21-.11.29-.41.17.14.11-.34-.24-.11-.36.3-.57-.2-.18.02.28.36v.35l-.26.2-.41-.1-.5-.25-.57-.66.35-.22-.08-.33.27-.12.3.4-.13-.37.11-.2.76.23.05.3.16-.23.04.22.49-.14.18.12-.15-.5.25.25.24-.2-.38-.37.2-.2-.2-.33-.5.1.07-.21-.27-.22.06-.32-.17.14-.4-.07-.05-.26.21-.48-.24-.43-.3.67-.4.26-.12.49-.13.16-.34.1-.16.35-.16-.34-.2.12-.11-.18-.25.12-.13-.25-.03-.36m16.08 3.32.41-.1.05.37-.56.4-.01-.25-.17-.16.28-.26m-14.91 3.2.03-.42.37-.35-.37-.1.16-.4.07.1.44-.12.26.32.09-.33.31.21.06.44-.33.22v.4l-.18.32-.4-.18-.13-.16-.42.18-.14.28-.1-.16.27-.26m2.48-1.55.3-.1.15-.16.36.13.11-.1.2.23.11.3v.32l-.17.38-.22.11-.05.26-.27-.26-.16.04-.14-.44-.31-.33.07-.39m-2.1.01-.21-.12.16-.19.05.31m.61-1.3h-.1l-.02-.38.2.21.38.16-.03.37-.4.84-.38-.46.28.1.24-.25-.28-.2.11-.4m14.32-5.4.21.1.31.32.07.29-.81.01-.05-.38.26-.34m-14.88 5.72-.27-.03.02-.2.4-.1-.14.33m-.33-2.81-.01.23-.29-.35.08-.18.21.3m-4.77-.05.15-.16.1.47.23.01v-.2l.22.04.14-.27.45-.04-.05.26-.27.15-.4.38-.05.17-.26.19.04.17-.32.07-.29-.3.18-.37-.43-.3.19-.34.37.07m6.15-.33-.25.09.1-.21.15.12m-3.23-.23.34-.03.2.84-.16.32-.21-.01-.27-.24-.2-.63.3-.26m13.76-4.2.2.2.35.79-.13.45-.3.03v-.35l-.22-.1-.06-.32.16-.7m-.43.7.11.3-.16-.06.05-.24m-25.8-9.73-.24.2.03-.18.2-.03m12.72-4.45.19.46-.26-.35.07-.11m-2.29-.58.32.16-.56.5.06-.58.18-.08m-10.02-13.48.31.31.36.83.09-.03-.12-.49.6.43.05.3.33.25.22.45.22.15.03.4.18.49.42-.08.48-.29.02-.21.45.25.59-.03.36.2.28.08.43-.14.47-.3.2.07.14.41-.36.11.31.35-.04.15.73.76.18.56.81.75-.06.26.92 1.05.06.52.25.42-.1.26.07.42.15.2.54.45.18.58-.06.18-.22-.05-.2-.56-.68-.67-.27-.1-.13-.37-.13-.03-.08-.44-.18-.17v-.32l-.24-.35-.5-.36-.2-.41-.17.03-.26-.6.11-.15-.08-.22-.58-.7-.68-.16.62.55.06.26-.74-.36.52 1.05.05.34-.14.48.07.34h.11v-.34l.21-.29.81 1.12.07.17.45.62.35.27.17.26-.28.09-.07.17.62-.03.57.41.06.15v.52l.18.43.37.35.47.84-.08.03-.48-.58-.15.3.27.2.2.3-.06.23.25.5-.05.2-.5.37-.06.33-.11.03-.27-.23-.34-.06-.23-.4-.01.44-.13.14-.3-.59-.28-.24-.17.13.31.21.01.42.6.57.01.29-.1.28-.24-.02.01.54-.35.46-.4-.02-.03.5-.41.08.08.23h-.48l-.03.3.24.1-.32.43-.4.3.1.28-.79.11-.14-.09-.41-.93.07-.32-.13-.07.22-.32-.34-.36-.15-.58.2-.06.41.13.24-.13-.33-.12-.33-.39.2-.1.14-.42.37-.17-.23-.24-.32-.05.01-.45-.1-.3.35-.1.02.21.32.18.57-.09-.43-.2-.68-.73-.03-.19-.26-.02-.2-.82-.2-.35-.55-.59.02-.1-.34-.8.04-.12-.29-.4-.06-.25.11-.6-.08-.11.04-.49-.28-.71-.12-.17-.06-.57-.28-.4v-.31l-.3-.37-.05-.55.22-.44-.29-.02-.18-.47-.32-.44-.34-.2-.18-.39.23-.37-.22-.06-.06.17-.2-.34-.18-.5.02-.32-.2-.45.02-.55m-8.33 10.13.1-.1.18.35-.2.19-.08-.44m-2.57-4.07-.06-.27.18-.46.27-.14.23.1.1-.33.55-.43.74.53-.28-.34.1-.21-.2-.07-.35-.5-.03-.38.24.13.19-.19.4.45.13.38.3-.1-.1-.22.34-.48.02-.15.54.08.2-.08.24.37.23-.07.02-.24.37-.47.3-.13.26-.46.35-.06.4.57.39.13.23-.11.18.23.28.1-.02-.15.34.35.37.16-.16.31.07.4-.1.25-.3.3-.26.46-.32-.02.38.38v.47l.27-.06.19-.4-.03-.36.1-.25.45-.32-.02-.22.16-.05-.16-.38.33-.2.52.2.45.41.12-.12.72.08.43-.12.32.23-.28.01.09.16.61-.02.53.17.36.79-.14.07.16.34.02.3-.5.54.5.41-.25-.08-.48-.44-.83-.23-.43-.25-.06.16.3.18.3.39.66.16.1.33h.28l-.07.15.41.16-.39.51-.35.1-.22-.12-.15.14.1.21.26.11.2-.07.18.1.28-.26.38.02.15.6.15.23-.12.2.2.2.48 1.05.01.66.3.64-.1.04-.32-.33-.1.2.27.32-.46.13-.28-.02-.4.15-.46-.07-.34-.38-.81-.46-.93-.6-.16.03-.35-.25-.5-.21-.7-.47-.35.47-.23.12.38.24.2-.12.4.1.12.17-.4.18-.3.3.37.17-.07.42.3.48v.35l-.3.17.06.2-.28.3-.25.01-.01.28-.27.3-.37-.06-.1-.16-.22.05-.33-.1-.12-.42-.19-.01-.33-.3-.32-.08-.06-.25-.63-.38.02-.17-.37-.4.25-.3-.19-.23-.3.17-.16-.23v.46h-.17l-.45-.18.02-.17.28-.11-.36-.21-.31-.67.24-.24.15.03-.01-.33.2-.07-.33-.24.03-.35-.22.15-.17-.15v.52l-.19.06-.22-.3.09-.32-.34-.1.05-.24-.19-.01-.05-.31-.18-.03-.2.2-.15-.3-.3-.1-.16-.23.11-.19-.08-.19h-.25l.01-.36-.18.33-.2-.01-.06-.36.03-.75.17-.12-.23-.1-.04-.51m1.4-3.2.34.03-.15.51-.36-.05-.4-.36.3.03.28-.16m1.57-.53.38-.3.1.64-.28.18h-.38l-.21-.22.24-.3h.15m2.77-1.34.24-.1.33.07.6.38-.1.23-.93.04-.4-.43.26-.2m11.65 5.51.63.85v.37l-.67-.76.12-.17-.44-.58h.2l.16.3m-.4-.92.1-.01.23.37-.43.12-.36-.4-.07-.22.27-.03.25.17m.5-2.16v.17l-.28-.1.1-.18.17.11m-6.92-.92-.25-.23-.08-.26.33.5m.62-3.44.48.65.38.63-.24.09-.71-1.2-.1-.29.18.12m-.7-.26h.2l.14.4-.3-.1-.39-.62.35.32m-3.05-6.3.22.43.06.55-.26-.18-.18-.5-.1-.5.27.2m-152.95 18.79-.26-.04.17-.13.08.17m-19.57-26.05-.1-.25.2.05-.1.2m-1.78-2.31.15.2-.14.43.17.24-.32.33.12-.3-.24-.34.26-.56m53.65 23.78.15-.08.13.2-.6.27-.11-.03.43-.36m-.46-.18.1.1-.15.25-.2.1-.05-.31.3-.14m-2.9-2.92.44-.03-.2.58-.36.22-.46-.39.09-.34.48-.04m-11.83-2.95-.23.03.07-.3.28.22-.12.05m-70.47 20.58-.23.24-.4.21.77-.63-.13.18m2.05-.8-1.04.2.32-.12.72-.17v.08m-3.15-1.38.2.22-.1.25-.18.04-.2-.33.28-.18M55.1 746.24l.5.32.63.3.26.02.35.31-.38.23-.28-.04-.46.29-.38-.26-.14-.27.08-.3-.42-.36-.14-.44.37.2m-1.48-8.99.33-.19.15.12.5-.01.08.16.35.15.61.05.33-.19.18.06-.36.19-.64.65-.66.03-.3.2.05-.5-.25-.08-.5-.38.13-.26m55.6-14.67-.19.16-.34-.32-.06-.28.3.4.3.05m-19.93-14.32.41-.12.53-.01.24.3.2-.14.33.16.07.18.37-.05.1.22.27.22.6.08-.1.21.21.14.26-.06.09.18.53-.3-.06-.53.78-.27.1.19.15-.18.47.04.19.35.21-.13.07-.41.37-.03.35-.18.28.24.26.43.55-.13.52.02.34.1.11.22.2-.1-.02-.48.18.07-.1.35-.03.54.17.23-.15.26.38.25.6.12.09-.2.24.02.37.39.2.01.01.25.34.18.09.27-.25.47-.25-.01-.02.25.15.1-.07.35-.44.37.27.2-.18.2.13.21-.1.33-.46.27.1.21-.1.32.25.26-.27.35.19.4.12-.13.3.12-.45.32.14.16-.31.3-.15-.08h-.73l-.03-.2-.68-.11-.36.14-.46-.2-.68.04-.57.2-.26-.03.15.75-.3.22-.5-.17-.01-.45-.32-.64-.31-.24-.02-.17-.38-.36-.36-.01-.83-.35-.23-.55-.48-.33-.06-.29-.5-.9-.76-.76-.4-.09-.27-.43-.2-.5-.03-.37-.39-.08-.14-.2.15-.2.09-.52-.11-.92-.2-.42.2.27m18.89-2.36.01.13-.77.04-.09-.31.33-.47.37.36.15.25m78.5 54.52-.02-.26.32-.26.33.24-.11.54-.14.3-.4.22-.22-.33.05-.33.18-.12m-10.84.15.22-.09v-.21l.36-.3.26.06.35.65.17.16.55.09.4-.24-.56-.08-.21.06-.09-.3-.32-.52.17-.51.29-.17.16.15.62.29.37-.03.05-.28-.4-.28-.18-.34.27-.2.22-.34.28.1.14.23.43.23.28.02v-.14l.47.05-.2-.2-.43-.15-.13-.39.3-.1.34.15.48.35-.16-.45.2-.24-.38-.11-.3-.5.54.1.54-.41.08-.23.47.01.1-.2.8.4.27-.16-.36-.13-.58-.48.14-.28-.15-.12.03-.42.24-.04v-.16l.55-.37.3.46.3-.13.26-.38.22.35.3-.3h.29l.14.14-.32.39.1.14-.41.53-.1.4-.2-.05.02.28-.55.26-.03.13-.47.56.19.02.24.23-.22.31-.01.28.31-.03.1-.2.07.35.16.12.2-.2.07-.26.18-.18-.04-.42.2.24.04-.35.28.2.4.62-.2.14.14.25.23-.03.14-.21.36-.26.02.33.12.15-.17.46-.26.43-.17.68.02.32.29-.52.05-.28.25-.36.17.01-.16.48.29-.16.45-.83.1.3-.05.22-.08.76-.2.22.1.12-.25.32-.22-.06-.2.14.06.16-.35.36-.21.05-.14-.4-.42-.06-.1-.4.12-.07-.27-.5h-.4l-.07.38.13.14-.04.36-.27-.23-.02.38.4.45-.12.12-.3-.08-.2.3-.07-.37-.29.08-.24-.28-.66.19-.14.37-.18-.02-.05-.27.14-.4.07-.54-.21-.15-.22.83-.5.75-.55.07-.31-.36.1.66-.26.4-.6-.07-.22.27-.16-.12-.48-.1-.44-.2-.52-.5-.54-.26-.2-.2-.4-.14-.5.07-.07-.19-.25-.16.47-.38m-.2-7.02.02.2-.22-.05.22-.15m11.42-2.43.34.05-.38.08.04-.13m-.35-.31.2-.14.21.17-.58.28.17-.31m-1.86 0 .26-.4.4.26.4-.12.1.22-.33-.02-.28.24-.38.04-.43-.2.26-.02m4.7-2.2.4.23-.17.27-.35-.14-.06-.17.18-.19m1.53.01.36.22-.08.32-.56-.38v-.23l.28.07m-2.41-.65.3-.08-.04.54-.54-.2-.01-.13.29-.13m7.73-1.35.1.08.1-.32.22-.07.18-.27-.13-.04.14-.34.37.2.2.35-.14-.08.06.29-.07.21-.33.2-.17.37-.3.16.09-.2-.28-.02-.16-.17.18-.07-.06-.28m2.5-.17.34-.06-.22.54-.28-.23.3.05-.14-.3m-21.24-3.12.7-.2.2.08.2.53v.22l-.2.23-.38.08h-.66l-.25-.25.13-.28-.22-.23.16-.24.33.06m14.13.4-.21-.1.21-.16v.27m-6.32-9.81.25.22v.6l-.13.27-.36-.98.23-.11m114.26 24.55-.26.2.04-.2h.22m-1.1-1.15.1.04.25.48-.12.15-.39-.42.16-.25m-.69-.59.12.32-.35-.25.08-.26.15.2m-4.56-3.28.23.4-.26-.04-.28-.23.1-.27.21.14m-21.13-7.43.28-.56.1.22-.23.1.25.34-.1.16-.26-.2.04.47-.14.03-.17-.37.24-.2m-68.79-2.8.2.65-.39-.68-.03-.3.22.32m1.08-.24-.04.4.4.13-.13.2-.1-.26-.28.05.15-.5m69.08 1.14.31.23-.3.18-.23-.07.04-.3.18-.04m-66.93-3.4v.32l-.21-.36.2.04m.35-.63-.14-.17.2-.27.02.38-.08.07m32.44 2.75.78-.8.1-.3h.23l.37-.37.01-.15.85-.31.19.07-.72.56-.82.7-.28.44-.52.4-.26.42-.28.26.07-.3.27-.6m1.35-1.93-.18.13.07-.78.1.65m-25.88-.68-.29-.05.28-.2-.07-.15.33.08.17.17.8-.9.1.14-.34.5-.4.42-.4.21-.53.04.35-.26m1.27-.42.48-.62.6-.46.16.14.02.24-.3.47-.07.25-.25.26-.93.42-.17-.17.24-.36.23-.17m.48 2 .3-.32h.54l.2-.17-.3-.02-.09-.2.07-.24.32-.16.16-.27.39.05.12-.18-.25-.23.15-.17.5-.18.3-.25.14-.23.86-.52.46-.58.02-.26.22-.11.42-.74.26.05.2-.38.25-.23-.25-.22.1-.26.34-.02-.32-.25.06-.28.34-.14.33-.26.16.23-.38.32.21.03.74-.03-.18.34-.44.32-.22.36.35-.07.45-.36.33-.12.24.06-.02.2-.37.55-1.64 1.21-.5.61-.67.72-.23.55v.4l.27.16-.24.13-.32-.2-.52.32.02.41.28.1.05.42-.54.34-.43-.16-.3.01-.28.25.04.17-.3.22-.37-.05-.42.19-.24.17-.28.08-.35-.33.2-.12-.04-.57.1-.09m-1.43-2.34.18-.51.07.02.27-.54.4-.3.1.24.06-.4.22-.38.06.47.32-.06.11.37-.69.52-.04.18-.29.02-.24.17-.44.57-.08-.36m.91-2.22.19.1-.25.36-.06-.2.12-.26m4.07-1.06.36-.25.04.16.28-.14v.37l-.68.36-.3.23-.1-.5.39-.1.01-.13m20.79 2.82.1.27-.17.44-.17-.31-.33-.39-.04-.17.6.16m-7.85-2.78.06.23-.38.18-.25-.1-.38-.51v-.3l.44.02.23.11.28.37m3.25-.34-.34.6.1-.4.24-.2m-11.21-.9.51-.84.25-.28.5-.02.13.23.49.07.41-.16.2.19-.12.8 1.6-.24v.25l.21.04.04.63-.44-.07-.3.09-.04.15-.39.15-.14-.1-.43.04-.67.31-.36.21-.88.74-.28-.03-.2-.25-.1-.33.33-.27.86-.4.09-.35-.3.1-.32-.04-.3.31-.23-.23-.22.03-.03-.53.13-.2m-9.25.02-.06-.1.33-.28.19.08.1-.15.15.2-.05.28-.2.45-.11.5h-.34l-.34-.1-.14-.21.06-.44.4-.23m1.23.79.38.04.7-.36-.1-.21-.59.31-.33-.05-.05-.27.22-.1-.04-.24.17-.17.26-.83.44-.45-.12.4.33.03.14-.26v-.57l.17-.08.05.24.3-.14-.14-.47.19.04.54-.5.08.4-.18.14-.05.63-.16-.12-.09.26-.18-.12.09.35-.19.21.22.32-.26.19-.27.01.06.31.35-.08.02.35-.36.64-.39.6-.21.15.03.26.25-.05-.17.5-.16.11-.15.52-.2-.09-.07-.3-.12.06-.17-.23.25-.35-.34.07-.43-.24h-.15l-.1-.28.22-.14.08-.33.24-.11m13.59-.57.43.2h.47l-.06.39-.53.11-.22-.13-.16-.2-.76-.28.38-.21.45.11m-2.88-1.42.24-.25h.45l.42-.12.1.1.25-.26.63-.13.15-.2.4-.17.58-.02.37-.11.06.31-.27.29-.67.3-.72.28-.46.32-.82.3-.78-.08.07-.56m-6.7-.86-.08.1-.4.05.11-.15h.36m-.6-1.71-.05-.27-.18-.04.28-.26.2.14.17.5.36-.3.18.22-.33.42h-.29v-.34l-.2.28-.46.11.36-.38-.36.05-.07-.16.4.03m-1.92-.67-.27.44.18-.47.1.03m2.5-.06-.12.38-.24-.18.04-.18.31-.02m-4.05-.31.12.18-.14-.55.23-.04-.02.32.18.14-.08-.38.2.1.35.58-.17.26-.3-.07-.17.24-.41-.44.07-.31-.16-.2.23-.05.07.23m3.6-.08.34.04-.2.25-.43-.1.28-.19m4.21-1.03.15-.38.3.1.02-.26.27.41-.16.04-.04.46-.46.03-.14-.14.06-.26m-3.04-.91.36-.23.48.16.05-.17.21.17-.3.36.54-.34-.1.35-.31.24-.36-.14.1-.24-.34.19-.63-.24.3-.11m3.3.07.14.2h-.2l.06-.2m-110.73-89.96.72-.1.97-.05 1.04-.1 1.16-.28 1.83-.61 2.18-.65 1.22-.36 1.28-.3 1.01-.17.42.04.24-.2 1.39-.37 1.93-.37 1.4-.22 1.43-.16 2.27-.12h2.07l.24.1 1.37.3 1.2.37.54.27.37.27.26.37-.24-.07-.63-.48-.25-.1-.26.05-.24-.13.04.22h.35l.43.32-.01.42-.13.39-.32.4-.63.35-.22.3-.03.35-.3.52.14.28-.07.33-.8.59-.6-.08v.43l.35-.13-.18.28.5-.07-.05.93.18.62.27.3.45.28.2-.08.27.08.29-.17.4.23.5.07.18.34.88.34.64-.03.28-.1.4.25h.63l.04.22.22.21-.01.2.2.35.44.04.57-.05.1.39.18.12.58.02.38-.07.5-.2.06.19.4.05.62.92.01.18-.29.4.36.13.29-.01-.16-.37.33-.38-.14-.15.99-.7.33-.3.31-.46.38-.4.25-.31.34-.15.74.28.04.5.44.27.25.07.54-.16.2.12-.23.1-.18.39.44.1.1-.34.22-.25-.2-.69v-.38l-.2-.48-.43-.25-.59-.56-.24-.07-.58-.48-.88-.22-.5.17-.75.09.04.16-.18.2.2.2-.13.3.23.3-.26.05-.2-.13.18-.55-.15-.23.5-.74.26-.47.27-.78-.01-.6-.2-.58-.49-.74.04-.56-.2-.69-.24-.32-.39-.25-.66-.3-.1-.12.09-.62-.21-1.1.26-.5.53.01.22-.41.16-.07.02.39.1.11.55-.2.16.28.04.88.23.55.07.48.2.27.25.12-.05.24-.3.48-.26.17-.22.75.35.93.02.46.49.84.5.53.19.43.2.2.3.04 1.14-.17.36-.27-.03-.22-.49-.18-.12-.14-.33-.03-.24-.58.17-.15-.27-.22-.1-.3-.33-.36-.05-.33-.48-.92-.05-.21.35-.43.13-.62.3-.17.3-.33.08-.45.4-.18.18-.34.46-.15.3.33.44.09.09-.4-.14-.28-.3-.02-.08-.39-.2-.01-.09-.27-.25.26-.17-.66-.36-.2-.56-.04h-.87l-.5.1-.16.12-.65-.2-.27.04-.5-.04-.58-.38-.23-.67-.2.02.03-.22-.39-.1-.63-.05-.05.19.27.23.21.04-.12.22-.44-.53-.3-.3-1.33-.8-.69-.54-.92-.52-.3-.51.29-.67.18-.86.14-1.58.04-.58-.15-1.97-.16-.81-.28-.61-1.31-1.74-.28-.64-.76-1.58-.14-.26-.57-1.13-.24-.36-.18-.52-.33-.6-.5-.65-.73-.7-.63-.4-.29-.25-.36-.61-.02-.8-.24-.68-.32-.57-.63-.75-.73-.63-.42-.27-.69-.23.18-.11 1.61-.06.8-.1.47-.37.28-.62.51-.45.2-.45.31-.57-.04-.11.37-.43.06-.3.43-.95.25-1.12.08-.04.71.38 1.68.87.46.2 1.33.33 2.1.28.77.12h.52l.59.2.57.1.77.07.8-.2.87-.15.57-.35.83-.26.83-.5.65-.64.75-.48.62-.5.3-.31.47-.62.31-.53.49-1.4.27-.94.19-.42 1.2-1.89.37-.36.85-.63 1-.79.88-.92.34-.23.35-.41.91-.69.36-.19 1.87-.76.35-.18 1.02.63.75.36.7.16.67-.1h.47l1.46-.37 1.28-.52 1.2-.66.68-.45.66-.57.32-.14.9-.66.51-.3.87-.63.53-.16 1.83-.35.67.03.9-.1-.8.18-.52-.07-.96.13v.08l.51.07.12-.1.13.59-.32-.08-.72-.01-.08.3.1.35.25-.17.2.26.36.1.38-.13.02.13.3.05.12-.22-.43-.34.04-.18.44.4 1.2.44.47-.04.25.1.28-.12.22.16.18-.26.68.2.85.02.73-.13.56-.18 1.39-.69.44-.29.75-.57.44-.4.68-.78.82-.83.89-.84.85-.5.37-.13-.08.56.09.21.36.16.09.33.26.17.22-.04.46.24.4.27-.1.22.2.32-.25.4.53-.14.21-.27.08.32.64.05.13.23.24.01.33.3-.09.33.13.58-.21.43-.29.22-.15-.05-.3.2-.3.5-.25-.07-.19.27-.16-.16h-.7l.06.68-.2.16.22.03.03.54-.09.27.24.15.46.06.5-.09.2.32.1-.48.1.25.42-.1.1-.32.04-.81.18.02.5-.42.1-.18.53-.18.1.53h.18l.12-.28-.04-.38-.3-.5.29-.3.35-.13.02.44.2.09.12-.45-.14-.33.18-.06.06-.23.59.59.58.72.53.83.1.25-.32.7-.15 1.12.07.5.99.05.38.26.1.18-.2.27.32.23.51-.19.4-.33.38-.53.01-.19.87-.03 1.25.27.3-.03.73-.27.26.02.67.25.11.23.36.1.17.56.22.08.23-.41.2.14.68-.02.36.27.4.17.14.17.57.35.08.37-.3.03-.22.17-.39.64-.24-.07.16.23-.24.25h-.25l-.06.72.13.37.33.21.16-.11.19.2.36.18.27-.04.27.2-.06.18-.61-.33-.3.07-.53-.1-.12.1-.41-.24-.24.2.14.34.48-.07.31.03.54.22.24-.11.54.15.36-.21.68.34.48-.06-.01.1-.44.53.06.26-.64.06-.2.2.3.4.51-.01.26.12.62-.03.3.2.88.46.2.4h.44l.54-.6.5-.37.43.14.32-.1.38.25.22-.37.67-.01.08.18.35.2.12.28.03.4.83-.25.34.13.33-.21.93-.76.34.37.32-.22.26-.03.32.21.59-.22.15.37.14.07.3-.2.2.22.54.06.1.22.33.15.4.56.37-.06.4.42.34-.1.29.12.1.17.16-.09.15.29.32.28.06.31-.14.38.12-.04.46.17.54-.43.04.48.1.11.37-.37-.01-.17.4.25.1.19.54.2-.02.19.39.1.16-.11-.15.53-.24.08.49.27.26.3.6.04.11-.07.67.3.3-.06.06.2.21-.32.37.68.2-.06.74.16.27-.23.26.02.06-.16.86.15.39-.04.3-.14 1.2.28.12.12.44.1.15.2.2-.04.28.2.1-.12.18.17.3.04.08-.43.4.5.63.57.34.1.33.26.17.34.74.33.3-.14-.08.27.2.17.92.28.07.17.25-.01.36-.26.54.2.4.03.28-.15.6-.75.75-.03.2-.24.38-.05.15-.2.9-.29.2-.26.33.15.27-.03.02-.17.75-.13.3-.13.46.26.34-.02.48-.34.24.23.86.53.18.16 1.05.5.67.46.6.6-.05.19.5.32.06.26.43-.04.75.62.5.28.37.26.36.1.65.3.8.55.61.63-.1.05.22.55.3.31.57.03.21-.72.4.13.57.34.41 15.3 1 36 .32 10.97 1.13 41.2.06 2.1.53 19.33 1.6.56 1.68.5.39-1.2 3.27 1.56 1.84-2.12 4.13-.44.06.44-.68 3.13 1.06 1.2 1.79.83.62.2.35 1.29.33.51 2.89 2.5 4.63 4 .6 1.82.43 1.57-.1 1.06.54-.08 1.17-1.35 2.63-2.04.24-.29 1.69-.24.53-1.31-.08-.22.16-.13-.16-1.21-.13-1.2.75.16.44-.25.37-.84-.07-.47-.82-.46 1.06-.63 1.6-.46 3.02-2.16.9.72.8.43.14.01.13.45.49.43.27.02.72.7.15 1.2-.32.33-.13.34.84.44-.2.58.58.82 1.84.2.24.74.9.7.56-.06.33.53.55.6-.1.83.7.12-.09.54.66.77 2.15.97 1 .39 1.15 1.42 1.22 1.03 1.45 1.04-.51.66 1.04 1.35.62.58.85.85-.03.06 1.03 1.89 1.8 1.84 1.1 1.7.88 1.01.06.16.96 1.35 1.72 1.8 1.13 1.6-.64 1.71 2.48.24-.2 2.34 2.01.6-.1.7.41.64.43 1.33 1.83-.5.95.65 2.46.97.76.45 2.37.12 1.42 1.09.66.14.56-.06.57 1.28.6.06.87.28 1-.54 1.03 1.33.16 1.27.13.06-.37 1.22-.28.28-.1.53.16.67.35.38.16 1.34.5 1.03.49.53.46 1.45.43.42.08.23-.76 1.37-.19.7-.14.72.03.39-.44 1.28-.39.84-.71 1.06-.69.9-.46.2-.19.3.32.27-.4.36-.5-.32-.14-.28.09-.17-.09-.33-.42-.12.06.47-.43.43-.71-.4-.18-.36-.24-.94-.2-.23.2-.18-.09-.3-.6-.5.07-.58-.03-.33.56-.3.28-.27.1-.3.19.02.07.27.27.25.53-.37.02-.42-.23-.05.03.4-.23.14-.2-.09-.25-.52-.4.33-.14.31-.69.38-.28-.05-.08-.2-.34-.13-.33-.87.67-.9.23-.37-.04-.18.17-.2.56-.02-.18-.23-.22-.6.01-.33-.2-.3-.01.2-.21-.41-.05-.42.21-.6-.12-.5.49-.19-.52-.04-.54-1.62.02-.27-.76-.93.09-.37-.29.22-.12-.1-.88-1.04-.8-.56-.33-.5.37-.37.4-.5-.3-.1-.63.77-.59.29-.26.52.51-.28.23-.05.18.26.62.44.9.9.25.36.15.42.45.56.35.3-.06.2.26.34.12.4-.04.47.24.1-.1.3-.29-.24.04.56.14.12-.1.35.06.34.38 1.06-.13.15-.2-.31-.2.11.24.7-.19.24.09.31v.6l-.44.56-.09.34-.24.17h-.38l-.3-.1-.06-.19-.49-.24.36-.23.22-.42.16-1-.1-.42-.48.18h-.2l.1.37.32.31-.22.78-.4.3-.17-.13-.22.16-.57-.2-.1-.2.16-.3.45-.32-.1-.2-.6.48-.16-.06-.13.54-.11.03-.78-.47-.51-.14.77.7-.23.14-.38-.18.26.56-.06.48-.29-.04-.2-.23.03.37.37.33-.03.3-.17.15.23.26-.29.2-.68-.8-.27-.94-.3-.6.03-.47-.24-.36.34-.04-.25-.5.17-.06.95.62-.15-.33-.36-.36-.49-.25-.03-.25.37-.24.38-.56.17-.95.2.04v-.32l-.47-.06-.22-.24.06-.76-.35-.45.01-.22.3-.4.45.02.26-.27.29.02.4-.22-.4-.18-.09.19h-.22l-.24.17-.48-.1-.19.13-.18-.59 1.33-.2.35-.19h-.6l.01-.2-.4-.36.13-.43-.2.13-.14-.22-.43.37-.5.61h-.3l-.78.3-.05.18.21.12.37-.04.6.15.07.4-.25 1.08-.4-.11.56.74-.14.03-.06.5-.25.27.1.15-.28-.02-.4-.3-.17-.23-.42-.28.55.61.13.3.22.13.14.74-.17.07v.47l-.4-.14-.26-.24-.6-.13-.6-.42-.58-1.4-.57-.75.16-.06.48.31.13-.31-.1-.6.4-.2.43-.03.36.1-.52-.4-.1-.2.33-.6-.3-.4.13-.5.21-.03.4-.24-.11-.09.06-.25-.33-.81-.04-.82-.15-.65.6-.22.1-.28.38.08.36-.23.5.15.2-.12.28.08-.03-.21-.4-.14-.48-.04-.35.16-.52-.1-.16.1-.29-.1.17.27-.16.3-.4.04-.14.2.04.65-.25-.15-.06.43-.49-.6-.17.18-.24-.19-.02.18.3.3.27.13.18.2-.13.21-.22-.09.06.33-.34.03-.04-.15-.23.13.05.14.34.1.02.26.29.36-.06.2.29.28.13.32-.27.41-.38-.52-.03.32-.21.24-.24-.17-.2.27.13.1-.14.32h-.18l.31.33-.08.17-.35.05-.3-.38-.03-.3.2-.34-.37-.26-.2.09-.16-.16.09-.15-.22-.07.18-.16-.18-.12.4-.1v-.18l-.56.09-.1-.12.1-.48-.12-.19-.12.2-.37-.06.03.24-.38-.27-.17.1v.38l.19.12-.06.3-.15-.31-.16.06-.62-.92-.21-.45-.03-.35.24.1-.21-.43.1-.18-.2-.08.13-.34.34.03.35-.13.07-.8.15-.18.1-.4.22-.02.45-.3.13.06.38.47-.03.43.13.26-.09.26.38.2.32.3.59-.1-.78-.46-.2-.45-.16-.12.06-.32-.01-.49-.24-.39.17-.34-.08-.2-.38-.38-.17-.48.24-.06.25.17.42.04.22.12.22.43v.24l.25.27.3.02-.12-.39-.15-.15-.21-.56-.45-.33-.19.06-.2-.23-.4-.26-.21-.86.1-.1.15-.53h-.16l-.54.5-.42.14-.68-.23-.05-.45-.17.06-.05-.3.33.04.03-.3-.22-.2-.12-.3.27-.18-.93-.3-.45-.3-.75-.36-.15-.43-.14-.15-.58-.33-.2-.43-.4-.3-.04-.14.43-.08.28-.17v-.26l.24.23.15.42.14-.09-.08-.42-.45-.65.13-.21-.15-.41-.05.27-.2.17.08.6-.25.13-.24-.25-.4-.03v.52l-.13-.45-.4-.16-.2-.22-.8.04-.22-.34.02-.27-.46.1-.19.39-.51-.1-.05-.1-.76-.19-.04-.1-.57-.25h-.24l.32-.19.14-.42-.32-.43.16-.04-.14-.2.28-.08-.14-.26.16-.09.4.25.46-.07.23-.22.44.07.27-.26.28-.1-.1-.26-.27.16-.36-.12-.54.1-.73-.2-.2-.32.11-.23.23-.13-.35-.16-.53-.7-.09-.89.2-.12v-.45l-.57.37-.44-.15-.04-.15-.45-.45-.05-.38.1-.14-.02-.68h.45l.06-.15.4.42 1.1.26.4.22.88.33.37.22.5.59.51.25-.06-.22-.4-.25-.4-.49-.3-.29-.36-.2-.42-.33-.34.03-.46-.32-.34-.35-.6-.22-.2-.2-.42.05-.13-.14.26-.08v-.35l-.25-.37.03-.38-.16-.74-.1-.12-.1.26.13.58-.1.07-.27-.33.02.31.22.32.01.68-.26.05-.28-.07-.32-.44-.35-.62-.58-.64.05-.46.46-.45.34.57.21.04-.11-.52-.26-.36-.2-.1-.16-.42-.27.18.05.29.21.16-.67.58-.3-.1-.75-.71-.3-.2-.3-.77-.01-.3-.18-.56-.02-.36.19-.19-.07-.47-.21-.2.47-.25.26-.37-.3-.3.01-.27-.18-.52-.19.04v.93l-.34.36-.2.09.04.46.36.31-.19.2-.06.42-.28-.06-.55.28-.43.02-.61-.26-.56-.06-.15.2-.63-.1-.64-.6-.17-.26.24-.27.3-.14-.08-.22-.35.11.08-.18-.03-.45-.55.17-.2-.19-.5-1.27.08-.05-.43-.28.07-.13-.21-.15-.61-.82-.15-.11-.42-.75.49-.11-.2-.26.03-.41-.11-.65-.42-.36.18-.24-.23.02.02.68-.19-.13.12.46-.02.3-.34-.39-.14-.33-.46-.47-.15-.36.06-.15-.1-.42-.21-.37-.15-.93-.22-.4-.1-.6-.25-.57-.36-.57-.12-.42-.3.03-.06-.4-.36-.48-.05-.6.03-.41-.04-.4.04-.7.08-.31-.35-.4.07.41v.9l-.05.62.09.52-.34.07-.33-.08-.34-.26-.07.2.75.37.19.42-.08.22.21.03.36.28.3.6-.1.12.44.69-.16.07-.11-.23-.29-.08-.2-.79-.83-.74-.54-.29-.48.02.5.21.18.28.59.56.05.41.25.38.41.12.06.4-.07.47.17.2-.15.16.13.33-.07.16.3.52.32.18-.05.36.48.9.38.45.15.83.31.31.13.34.35.57.12.52-.13-.02-.13-.4-.3-.11.17.31.05.39.16.1.43.92h-.1l.14.4.3.45.17.67.2.32.1.58-.37.17.12.23-.12.16.44.84-.24.1-.34-.23-.17.07-.48-.3-.34.09-.31-.16-.29-.34-.19-.4-.23-.24-.49-1.16-.29-.84-.2-.28-.1.12.23.24.08.33-.21-.34.05.35.38.53-.07.45h-.16l-.5-.38-.11.04-.33-.21-.35.41-.32.09-.45.03-.33.16-.6.13.07-.51-.05-.42.16-.2-.17-.02-.29.23-.4-.2.22-.49.16.06.02-.25-.18-.04-.15-.25-.08-.4.23-.33.27.23.38-.31-.29-.07-.27-.3-.38-.86-.2.04-.2-.28.05-.36-.28-.22-.07-.27-.36-.38.02-.24.44-.23-.22-.1-.22-.44.08-.36-.06-.2-.44-.37-.04-.24h-.27l.08.45.34.37-.19.18.16.12.13.37-.1.66-.16.53.07.35-.71.02-.21-.2-.3-.08-.6-.48-.19.04-.46-.25-.41-1.08-.02-.33-.3-.11.02.59-.11.07-.35-.49-.2-.36-.4-.3.67 1.03.07.4-.41-.07-.06-.14-.48-.27-.25-.05-.28-.2-.36-.1-.2-.3-.35-.16-.2-.32-.42-.4-.22.03-.05.18.2.3.2.02.27.45.28.11.25.51-.08.21-.37-.06-.43.2-.18.57-.3.39.12.16.48-.66.1-.35.48.1.18-.1.21.16.68.05.4-.03.44.21.17.2.3-.07.43.17.55.44-.13.15.4.05.11.23-.29.02-.33-.14-.03.1.45.27.6.27.35.37-.3.5-.28.15-.33.5-.27.13.46.13.13-.4.34-.07.08-.18.42-.56.47.42.38.25.15.3-.27-.12.16.3.46.26.08.33.32.2.1.5.16.1-.09.27.2.15.08.53.17.29-.23.09-.23.33h-.34l-.33.15-.07.13-.47.22-.15-.1v-.27l.13-.3-.26-.13-.5.2.2.43-.05.45-.5-.17-.06.18-.35.03-.44-.17-.22-.4-.33.3.38.33.15.28.08.48-.08.25-.24.24-.47.02-.32-.42-.08-.34.32-.18-.04-.19-.33.18-.12-.23-.07.25-.23-.07-.03-.29.12-.2-.33-.05.14.15-.13.22h-.34l.12-.17v-.52l-.16-.1-.03.29-.24.08.07-.58-.25-.15-.68-.11-.4.18-.12.25-.53-.54-.6-.32-.28-.06-.26-.24-.56-.31-.55-.46-1.1-.67-.27-.04-.25-.2-.09-.56-.85-.76-1.02-.73-.12-.36.11-.4-.18-.52-.45-.51-.52-.48-.75-.53-.1-.16-.4-.25-.71-.37-1.44-.46-.5-.15-.53-.34-.88-.69-.62-.37-1.12-.52-1.97-.79-1.05-.58-.94-.56-.51-.4-1.2-.71-.2-.17.2-.25.27.19h.34l-.03-.18.32-.37-.12-.18.02-.28.29.08-.02.5.1.1.26-.4.3-.17-.17-.09.1-.45.66-.84-.45-.41-.4-.8.02-.2-.24-.39-.08-.36.05-.39.51-.37.37-.9-.24-.33-.08-.29-.17.14-.35.55.03.57-.71.43-.37.67.02.6-.22.15-.94.4-.72.4-.82.37-.27.37-.62.23-.52-.06-1.98-.13-1.08-.22-.38-.1-.64-.36-3.2-1.47-.3-.5.1-.08.21.18-.12.14.14.23.3-.34.1-.24.62-.04-.02-.5.2-.4-.2-.47-.26-.26.23-.06.1-.28.24-.15.12-.21.44-.22.1-.42-.1-.27-.2.63-.56.4-.56.17-.17-.34.04-.49-.13-.18-.29.38-.38-.2-.24-.26-.23.09.18.47.26.07.3.46-.02.22.25.06.31.42-.2.34-.68.24-.27.3-.36.09-.94.02-1-.5-.74-.23-.74-.1-.72-.22-.63-.16-.92-.07-.09-.13-.62-.16-1.09-.13-.76-.02-.66.05-1.5.32-2.64.25-.7.1-.5.14-1.38.54-.43-.17-.18-.23-.55-.08-.37.05-.4-.1-.47-.04.24-.2.47-.03.24.09.14-.1.35.03-.16-.4-.3-.36-.58-.22-.1-.18-.26-.03-.32-.22.11-.15-.18-.1.53-.21-.48.01-.46.14-.72.01-.34-.24-.23.13-.4-.26-.8-.31-1.11-.14-.12-.14.42-.19.4-.03.48-.13-.31-.3-.21.03-.45-.16-.2.13-.3-.12-.06-.28.45-.7.15-.4.54-.92-.53.07-.26.4-.64.16-.24.14-.22.3-.2.54-.01.44-.11.09-.28-.13-.35.04-.96-.62-.51-.49-.39-.2.08-.29-.66-.43-1.02-.29-.18.12-.68.1-.57-.3.34-.36.1.08.36-.3.37-.13.14-.32.52-.58.23-.53.33-.22-.03-.21-.94.46-.58.2-.3-.09.58-.31-.16-.07-.43.2.41-.79-.53.5-.14.35-.45.1.22-.69.47-.36-.13-.07-.58.34v.07l-.74.31-.18.14-.74.04-.05-.33 1.02-.79.44-.29-.19.02.16-.2.28.08-.22-.26.1-.31-.6.7-.06-.15-.14.25-.3-.15.2-.22-.34.08-.06.33-.43.06-.1-.11.1-.5-.11-.1-.08.37-.37.44-.35.25-.44.02-.26-.13-.42-.08-.15.16-.27-.2.07-.16-.26-.37.18-.08.3.28-.06-.19.21-.34.18.11-.05.2.35-.12.03.19.18-.1-.31-.38.61.01.83-.16.4-.3.56-.08-.39-.01.07-.28.49-.09.43.2-.43-.46-.45-.2-.33.55-.31.2-.48.11-.1-.1.24-.23-.2.03-.4.3-.6-.14.09-.27-.13-.22-.45.45.2-.62-.12-.3-.3.34-.17-.5-.18-.16v-.27l-.13-.27.07-.18.32.44.33-.1v.15l.39.04-.27-.38-.3.08-.26-.27.18-.18V727l.23-.43.65.26-.2-.35-.34-.08-.05-.22.29-.24.32.1.27-.07.22.1.4-.04.18-.12.49.14h.44l.05-.3-.21-.27h-.67l-.1-.14-.55.1-.54.03-.12-.15-.33.29-.36.67-.51.11-.14-.26-.02.43-.42.48-.07.26-.46.42-.35.13-.45-.19.18-.22.34-.13.02-.32-.15-.15-.17.14.01.2-.3.3-.06-.1.18-.36.36-.3.06-.28-.27-.92-.13-.23.27-.11.18-.26-.54-.13-.32.27.2.34-.28.26.17.17.08.81-.16.12-.32.54.08.27-.24.16-.21-.12-.13-.32.13-.45-.29.28-.2.01.15.32.02.3-.27.13-.27-.19.16.34-.4.26-.16-.23-.43.06.08-.25.28-.1-.35-.03.43-.5-.02-.15-.32.4-.08-.27.05-.4.36-.25-.3.07-.4.68-.15.77-.22-.1.16-.32-.06-.62.1-.59.12-.3-.1-.19.42-.2-.2-.17.04-.18-.18-.56-.19.05.1.42-.15.47-.26.45.1.11-.32.74-.3.17.5-.04-.12.43.07.54-.1.44-.43.11-.07-.44.14-.27-.26.2-.25-.26.2-.5h-.26l-.01.18-.38.02.28.16-.16.4-.17.05.42.38-.05.4-.58-.18.25-.3-.07-.04-.32.34-.33-.42-.01-.52-.22.48.2.38-.06.21-.3.07-.1-.26-.1.4-.3.1-.42-.08-.3-.18v-.29l.2-.37-.02-.2.25-.37-.02-.28.65-.65.26-.41.24-.25v-.18l.31-.5-.27-.06.4-.35.3-.37.6-.6.04-.1.42-.14.45-.25.07-.2-.42.08-.47.25.15-.37.3-.42-.2-.12-.46.5-.27.5-.3.24-.94 1.11-.03.45-.5.55-.14.06-.13-.47v-.41l-.16-.42.13-.32-.3.1-.1.4-.24-.1-.75.38-.4-.03-.05.13.28.12-.15.38-.45.32.14.2.26-.15.5-.67.37-.22.62-.16v.34l-.47 1.23-.15.17-.42-.3.06.5.17.09-.36.6.12.08-.13.36-.47-.38-.15.18.44.43-.4.13-.22-.35-.37-.03-.18-.11-.25.2-.38-.12-.8.47.02.15.32-.01.65-.32.02.24.52-.22.24.05-.11.3-.42-.06-.64.39-.38.43-.11.4.4-.28-.44.51v.3l.59-.64.26-.53.48-.36.34.25.07-.2.32-.12.2.19-.1.1.02.32-.2.17.05.52-.47.35.14.17-.07.32.52-.62.1-.31.37-.4.24-.47.81.09.27.28-.09.38.11.42-.02.22-.31.3-.03.17-.9.44-.46.77-.31-.26-.25-.06-.42-.4-.32.09-.4.3-.51.44-.13.24-.37.3.16.28.24-.28.13.05.57-.6.17-.03.58-.4.15.19-.07.2.23-.05.23.15-.24.16.23.12.06-.18.2.1-.24.3.65-.09-.03.43-.14.28.26-.17.1-.52-.04-.45.11-.01.35-.5.02.83h.1l-.03-.58.2-.55.44-.13.05.45.22.04-.4.38.16.04.24-.24.17.12-.08.3.23-.03.1.26-.17.33-.15.06v.28l.22.02.05-.23.16.4-.21.24-.16.01-.34.31h-.3l-.13.23-.31-.3-.08.06.19.4-.35.31-.32-.18.04.55-.32.31-.27.09-.14.26-.22.06v-.57l-.2.01-.28.22.25.11.21.36-.41.42-.37.19.29.01.27-.25.16.01.5-.53.48-.1.14.15-.16.19-.32-.07-.26.44.44-.27.24.19-.14.51-.13.18.08.2.34-.75.11-.01.03-.41.38.31-.4.69.17.12-.07.3.2-.08.12-.72.27-.05-.31.83-.17.21.05.22-.4.56-.08.27-.39.22-.43.05-.31-.26.83-.03.06-.07-.66-.05-.14-.15.33-.15.26.07.26-.09-.09-.2-.17.06-.46-.25.16-.97-.43-.02v.36l-.22.16-.14.31.14.2-.12.31-.12.06-.05.37-.34.04.34.24-.08.35-.33.52-.18-.16-.09-.54-.29-.53-.1.83-.11.25-.42.34-.4-.06.06-.25h-.25l-.24-.23h-.38l-.28.35-.25-.03-.22-.42-.02-.21-.21-.07-.3.26-.27-.02-.1-.22-.16.16-.36-.16.02-.21.66-.8-.15-.15-.41.1-.33.19-.11.32-.2-.05.02.22-.26.47.1.16-.42.3.1.26-.24.27-.07-.22.1-.19-.1-.24.13-.76-.18.1.07-.34.22-.2-.34.06.05-.93-.14-.23.03-.4-.46.08-.05.6-.12.45.33.55-.31.2-.29.79-.13-.18-.35.06-.25.29-.16.56-.29.28-.08.25.15.2.07.49.2-.1.1.2-.15.17.17.56-.2-.34-.13.15-.01-.4-.41.07.42-.28-.18-.05.1-.27-.3.28-.08-.22.33-.17-.03-.16-.22.14-.14-.29.06-.46.4-.38-.37.1.16-.56-.16-.53-.23-.09-.15.14.1.81-.28.24.01.48-.1.1-.27-.43-.48-.1.35.32.13.38.17.14-.17.18.17.23-.12.26.25.37-.16.34.17-.03-.3.33.1.09v.35l-.14-.28-.2-.01.12-.27-.31-.1.44-.23-.28-.21h-.22l.01-.32-.26-.03-.17-.43-.33-.02-.28-.46-.28.09.1-.32-.2-.39.08.5-.16.26.03.37.2-.2.1.19.4.35-.14.2.1.12.22-.16v.52l-.1.28-.44.12-.13-.07.07.33-.36.16.06-.35-.43-.57-.13-.06.15.48.13.1-.15.51-.11.1-.15-.28-.15-.01.18.45.29.18-.54.18-.31-.28.03.38.12.18-.24.22-.4-.16.18.42-.17.18-.1-.17-.46.58h.22l-.04.46-.23-.35-.1.31-.32-.22.09.33-.2.25-.18-.07.21-.37.43-.51-.37-.03.12-.21.28.1.1-.16-.27-.1.05-.18.26-.02-.21-.15.38-.59.24-.2-.1-.25.37-.38-.11-.17.23-.23.11-.4.16-.18.07-.51-.46.67-.28.63-.63.93-.2.1-.22.57-.4.7-.28-.13.02-.23.22-.04-.05-.15-.36-.13.23-.12-.3-.24.6-.55-.15-.4-.27.1-.48.73-.32-.07.5.69-.05.32-.53-.08.5.4-.2.26-.39.05-.3-.24-.22.09-.31.6-.25.16h-.3l-.28.53-.2-.03-.24.19.19.03.12.46-.45.4-.33-.02-.1.2.19.3-.22-.16-.07-.59.18-.1-.21-.26-.06-.24.19-.39-.37.37-.16.28-.24-.3-.22.03-.34-.31-.15.06-.22-.14-.27-.01 1.32.86-.01.41-.53.22-.32-.3-.2.24-.1-.35-.23-.23.05.33-.12.1-.69-.74-.74.36-.3-.1.4.27-.17.25-.38-.22-.12.14-.34.07.38.22-.23.08-.65-.07-.17.08-.24-.32.12-.5.23.14.06-.15-.35-.1-.42.2-.6-.42.3-.08-.03-.16-.65-.16.03-.78.24-.2.03-.21.28-.14.34.02.27.13.34.5.1-.05-.2-.46-.45-.29-.15-.32.25-.34.92-.27-.04.33.3.49.07-.06-.19-.46.16-.5.38-.13.32.17.24-.12-.02.23h.37l-.02-.18.6.37-.22-.55.25-.27.04-.23.37.04.29-.3.36-.12.2.15.01-.35.4.01v.11l.35-.08-.15-.07-.05-.49.35-.15.27-.21.1-.32.37-.36.13.08.03-.32.22.04.01-.19.26-.02.41-.34-.34.05-.08-.13-.7.05-.5.3-.34.3-1.03.54-.6.09-.14.22-.39.23-.98-.36-.25-.16-.74-.76-.29-.56-.05-.35.33-.52.37-.87.32-.35.19-.4.28-.87.14-.28.23-.15.47-.61.75-.57.77-.81.24-.47.18-.6.13-.88.11-.12.5-.2.15-.56.17-1.02.17-.43-.22-.24-.2-.38-.03-.89-.22-.63.02-.3.33-.17.65-.12.1-.27.27-.07.74.04.56-.09.13-.16 1.35-.86.53-.42.3-.15.24-.3.35-.07.83-.4.46-.15.47-.21.2.23.25.8.53.92.36.03.28.25.47.08-.02.26.21-.06.05-.3.25-.03.38-.52.35-.33.58.05.6.37.13.3.53-.1.6.29.25.24.12-.08.38.23.6.05.59.16.56.35.14.24.31.26v-.33l-.48-.82-.23-.1-.41-.38-1.11.14-.1-.27-.18-.11-.51-.46-.77-.11-.15-.2-.64-.33-.21-.27-.41-.72-.5-.37-.2-.32-.6-.32.02-.18.27-.2.1-.28.22.1.38-.07.19-.18.2-.48.15-.14.39-.56.63-.23.02-.49.37-.18.16.06.47-.23.21.02.26-.2.6-.35-.06-.18-.31-.05-.25-.2-.09-.21-.7.05-.8.47-.45.64-.43.14-.24.54-.16.96-.5.34-.54-.26-.85-.18-.51-.03-.68.09-.52-.04-.36-.38-.1-.36-.49.17-.23-.23-.25.4-.41.2-.58.18-.34.15-.38-.04-.16.2-.5.23-.27.3-.59 1-.22.25-.95.08-.25.24-.95-.13-.98.6-.15.2-.98.74-.23.27-.02.21.4 1.5-.1.29-.59-.37-.2-.35-.32-.39-.06.24.36.4-.5.18-.97.63-.47.83-.26.2-.26-.03-.64.4-.4.4-.22.42-.04.4.1.37.4.38-.5.27v.1l-.47.05-.24.63-.2.18-.35.05-.36.22-.33.44-.48-.01-.17-.34-.18.1-.24-.16-.39.17-.7-.34.17.34.28.32.27.1.14.29.3.22-.05.28.15.28.37.32.12.33-.09.37-.22.41-.67.63-.15.5-.13.14-.6.16-.13.2h-.42l-.12-.15-.37.05-.13-.12-.5-.08-.76.21-.37.03-.34.3.28.06.28.27.23-.02.21-.25.47.06.14.35-.11.37-.52 1.08-.7.22-.1.2-.48.2H180l-.12-.54-.28.06.04.43-.27.1-.27-.27-.22-.02v-.18l.24-.16.17-.34v-.3l.25-.25h-.2l-.2-.31-.06-.3-.23.11.03.65-.3.84-.21.16-.49.1-.23-.71-.14.04-.03.33-.5-.04.1.28.44-.02.06.24.26.13-.02.22-.26.42-.93-.1-.34.1-.09.18.24.3.1.57-.29.16.06.2-.68.11-.3-.13-.26.06-.39.38-.03-.2-.44.25-.23-.22-.39.22-.25-.1.24.41.36-.06.67.05-.28.07-.24.2-.7.27-.26.41-.17.69.15.12-.47.18.05.16-.74.38v.36l.23-.13.34.13-.04.4-.27.3.15.53.15.12.55-.5.3-.07.58.2.62.27.52-.23.2.22.37-.08.28.67.22.35.34.32.2.07.29-.17.24.4.26.03-.02.3.19.37.24.04-.06.43.1.25-.24.09.2.2.33-.1-.06.32-.6-.13-.12.2-.4.99-.32.4h-.37l-.23.24-.34.03-.22.27-.14.36h-.3l-.23.18-.77.02-.5-.2h-.36l-.11.51-.28.55.07.11-.22.27-.23.05-.62-.13-.2.2-.04.45.07.37.42.36-.16.18-.22.03-.15.2-.36-.11-.09.12-.48-.22-.2.07.27.24h-.46l-.7.29-.31.22.1.27.32.07.23-.13-.17-.3.48-.04.19-.23.35.13.04.33.23.24-.8.19.36.3-.05.35-.22-.06.07.19-.45.1-.2-.1-.12.14-.2-.24.13.44.34.32-.03.12h-.38l-.41-.47-.07.45.09.5-.49-.21.14-.07-.35-.47-.08-.65-.11.03-.06 1.1-.15.2-.23-.17-.27.11-.11.29-.27.36-.5-.2.04-.35-.24-.1-.34.1-.2.5-.54.08-.17-.32-.32-.13-.5.22-.5.07-.3.45h-.51l.06.33.21.27-.24.4-.89.17-.13-.27h-.22l.2.24-.17.25-.31.01-.36-.18-.09.13.1.42-.16.03.06.3.22.15-.19.4-.33-.06-.37.18.01-.45-.44-.19-.34-.38-.09-.27-.41-.02-.17.16v.28l-.27.54.32.42-.17.23-.76.05-.35.11.06.18-.16.3.06.22-.17.47-.44-.11-.06-.44-.25.08-.13.17-.37.16-.44-.2-.25-.41-.22.04.02.57-.2.3v.38l.1.26-.12.2-.47-.1-.2-.49-.34-.24-.22.1-.16.32-.8.12-.71.56-.25.03-.49.37h-.37l-.17.47.42.01 1.08-.18.16.17-.15.15.19.12-.3.55-.3-.03-.25.3.09.3.42.27-.49.5-.28-.02-.07.25-.4-.13-.07.15.14.44-.27.01-.38.31-.72-.07.24.26.09.3-.12.37-.17-.17-.6-.38-.23-.48-.49.06.18.42-.37.3-.26.76-.24.14-.08-.42-.17-.29-.02-.3-.34.07-.27.52-.21-.05-.4.22-.65.85-.03-.22-.28-.05-.19.19.03.36-.52.24-.3-.46-.14-.03-.08-.3-.52-.78-.4-.03-.31.28.04.44.22.02.06.44-.52.14-.06-.16h-.34l-.45.62.02.43.24.17.23-.03.12.45-.36.23-.93-.2-.42-.01-.19-.23-.1-.72-.35-.08-.4.15-.11.15-.5-.1-.28.11-.15.25-.24.14-.28-.16-.39.3-.3.04-.34.38 1.28-.01.09-.11.45.05.21.15h.23l.09.26-.13.1-.01.49-.2.03-.17.27-.23-.02-.2-.23-.28-.1-.43-.41-.4-.08-.36-.23-.17.16.24.3-.18.3-.24-.1-.14.1-.49-.22-.24-.28-.29-.1-.43.23-.27.03-.59.6-.38.23v.56l.43-.04-.05.21.24.16-.12.1.11.24.17-.2.35-.09.28.37.56.3-.17.26-.8.26h-.33l-.35-.24.16.36.53.22-.38.4.3-.02.73-.27.34-.2.39.06-.29.06-.33.42-.5-.02-.02.17-.23-.04-.6.14-.08.33-.14-.2.08-.68-.26.44-.06.25-.21-.17.16.74-.14.35-.17-.14-.02-.68-.15.15-.19-.15.1.62-.3.19.23.36v-.32l.38.19-.17.5-.22.1-.12-.49-.22-.21-.01.41-.25.3-.16-.72.38-.13.24-.24-.28.11-.48.06-.1-.1.1-.26h.34l-.3-.18.08-.33.37-.17.23-.35.29.1.06-.17-.16-.3.5.1-.43-.22-.33.03-.42-.25.2.38.24.07-.3.2-.06.18-.52.28.04-.49-.5-.22.33.28-.18.42.2.3-.2.12.01.21-.23.13-.3-.09v.22l.4.06.14.25-.13.37-.38.03.21.32-.23.09-.09-.23-.31.12.02-.3h.23l-.1-.25.07-.26-.28-.1-.13.32-.25.03-.02-.39-.17-.03-.78.97-.25-.13-.4-.03-.17.48-.17-.08-.19-.46-.63.02-.2.23-.26-.19-.58-.01-.1.2-.25.15.03-.2-.2-.14-.47.18-.17.4-.06.35-.16.11-.19-.44-.03-.38.13-.38.21-.26-.28-.13-.34.09-.17.26.2.25-.15 1.08-.14.26-.52.37.12.22-.2.58-.31.03-.2.16-.36.53-.34-.1-.17.1-.36-.05.35-.44-.34.05.17-.16.55.08.19.17v-.22l.21-.1-.16-.29-.46-.17.38-.33.35-.05-.22-.32-.02-.3.62-.71.14.01-.17-.37-.53-.43-.7-.26-.32.08.06.2-.27.52-.29-.06-.32-.55-.24.57-.1-.32-.35.07-.21.27.17.22-.06.37-.55-.18.18.4-.38-.23-.1-.29-.14.26-.02.52-.7-.05-.1-.18-.44.27-.5-.25-.4-.36-.24.29.49.5-.26.03-.33.28-.22-.01-.07.3-.26.26-.14.42-.32.16-.26-.04.04-.67-.11-.38.05-.76-.14.34-.4.29-.15.02-.32-.27-.45.05-.05.2.76.35.05.23-.26.47-.21.04-.81-.2-.25-.3.06-.27.2-.2-.19-.22-.32-.1-.37.1-.5.48-.18.3-1.11.31-.5.02-.55.22-.21-.02-.35-.21-.03-.33-.54-.02-.43.12-.36-.16.01-.37.36-.28.24-.54.06-.41.56-.34.73-.7.07-.31-.14-.19-.47-.23-.66-.1-.61.1-.04.18-.28.2.01.1-.66.44.02.22-.41.97v.33l-1.44 1.1-.35.21-.33.56-.26.2-.49-.61-.32-.08-.01.78-.16.09.31.17-.05.37.12.2-.2.2-.54.04-.3.2-.48-.73.32-.13.02-.26-.47-.2-.58.5.08.68-.34.3-.25.07-.18-.11-.11-.53-.24.16-.24-.07-.34.03-.54-.66.03-.68.42.01.16.32.22.17.4.04-.11-.22-.19-.04-.22-.56-.22-.2-.03-.35.16-.86-.72-.63.4.14.17-.2-.55-.27-.23.03-.52.47-.23.5.14.26.33.08.2.85-.22.09-.21.34.11.23-.09.4.07.53-.2.55.1.17-.26-.04-.14-.46-.43-.22-.34.1.05.22-.2.17-.5.09-.14-.14-.3.08-.33-.17-.17-.31.04-.24-.2-.27-.03-.21.27-.28-.18-.38-.05-.46-.36-.47-.28-.08-.38.06-.23-.13-.5.63-.04.18.3.3.15.02.55.79v.32l-.28.22-.73.18-.35.23-.17-.02-.27.3-.23.03-.38-.08-.26.24-.3-.13-.03-.66.56-.08.19-.4-.13-.29.18-.34.2.3.18-.01.4.26-.08-.21-.3-.39.27-.55.14-.5-.12-.47.24-.3-.41.2-.47.1-.15.17-.04-.22.55-.1 1.48-.58.46-.04.23.06.4-.18.7-.45-.19.2.02.17-.27.03-.4.25.05.17.27.1.34-.03.21.3.23-.14.44.1.44-.72-.28-.04-.14-.2.17-.25.39-.02.04.22.5-.49.26.02.2.17.7-.49.33-.36-.08.3.25.18.14.23.34-.04.38-.3.01-.54.2-.38-.24-.06-.35.08-.04-.12.75-.38.43-.32.92-.57 1.22-.97.52-.22.57-.1.96-.54.42.03.53-.14.54-.24.65-.4.95.01.94-.11 1.56.05.72-.04.93-.1.61.1.1.09-.69-.1-.84.03-.12.33.37.18.28-.03.34.21.09-.13.25.07.1.3.21.08.24-.2.45.03.25-.26.13.16h.47l-.16.5.1.15-.19.14-.1-.34-.43-.03-.62.28-.13.2.05.34.32.18.2-.01-.23.2-.1.35.05.22.25.16.3.82.34.4.08-.3.21.1.3.28-.05.5.23-.13.2-.32-.29-.32.11-.13-.47-.37.15-.24.08-.64-.07-.47.24.13.37.36.32.15.68.16.23-.07.26.16.18.4-.2.2-.05.31.12.18.18-.2.27.01.04.35.43.15.13.18.34.13-.3-.79.44-.07.33.07-.16-.37h-.3l-.57-.7-.15-.29-.38-.23-.2-.45-.32.08.38-.47-.16-.23-.3.06.95-.88.6-.7.05-.2.89-1.25.37-.4 1.1-.49.34-.33.42-.23.73-.1 1.06-.47 1.18-.71 1.18-.24 1.03-.21.59-.22.81-.39.22.04.64-.17 2.1-.73.82-.5.7-.27-.32.2-.42.15-.05.12.18.45.31.29.58.3.2-.08.78.08-.06-.15.17-.38-.16-.66.19-.42-.06-.22.17-.44.33-.47.4-.43.85-.8.79-.7.77-.6.65-.44.31-.07.72-.32.8-.11.04-.16.7-.34.7-.76.5-.15.74-.5.69-.16.16.78-.02.18.23.18.21-.01.2-.34.07-1.2-.68-.21-.02-.33.27-.93.6-1.08.46-1.22.56-1.6.44-1.09.68-.98-.1.33.68.15.24-.1.2-.35-.37-.1-.46-.99.13-.82.24-.7.63-1.04.3-.36.35-.15.22.04.36-.25.74-.79.46-.24.3-.3.75-.37h.2l-.02-.27.12-.52.63-.57.13-.38-.13-.26.33-.36.2-.6.13-.21.22-.02-.25-.24-.33.14-.3.28-.05.37-.23.18-.17.28-.57.06-.4.14-.85-.02-.8.37-.78.1-.18.17-1.13.13-1.27.43-1.63.34-.47.01-.49-.11-.35-.32-.31-.48.1-.8-.13-.44-.36-.41-.53-.3-.2-.28.2-.5.34-.05.01-.1.5-1.39.14-.35-.33-.07-.68.72-.16.24-.9.37-.26-.18-.44.96.02.41-.3.43-.2.08-.35-.1-.09.32.09.23-.02.9.08.6.15.05-.07.27-.03.69.32.26-.41.48-.57.48-.23.05-.5-.04-.29-.11-.73-.56-.18-.96-.24-.96-.2-1.14-.3-1.2-.26-.83-.45-.81-.5-.37-.13.1-.34-.22.14-.04.52-.55-.1-.53-.2-.12-.68-.02-.03.4-.33.24.09.26-.22.22.02-.2-.27.03.05.36-.09.15-.5.18-.36.01-.24-.8-.13-.12.17-.36-.09-.24-.25-.12h-.31l-.15.23-.4-.17.26-.73-.54.07-.22.18.12-.73-.43-.25.38-.24.15.05.1-.2-.08-.5-.24-.4.2-.18-.25-.13-.29.18-1 .3-.26.2-1.01.36-.75.37-.4.36-.35.49.05-.3-.1-.34-.33-.2-.07.1-.35-.1-.24.2-1.2.45-.3-.02-.08.17-.53-.12-.36.11v.11l-.53.3-.18.23-.14.46.56-.07-.5.15-.86.02-.4.08-.32.28-.48-.1-.38.16-.17.21-.6-.04.2-.31-.1-.6-.21-.21-.65-.24-.21.09-.14-.17-.67-.05-.58-.53.37-.05.11-.12.41.2.03-.2.2.18.3-.08.23.28-.08.21.4.05.33-.16.16-.24-.1-.3.51-.2.61-.77.09-.35.01-.7.32-1.13-.13-.84.24-.24-.33-.33-.35-1.23-.06-.63.01-1.01.73-.81.3-.11.1-.35.57-.07.22-.3.31-.03.38-.53-.01.14.3.09.23-.1.16-.23-.21-.92-.2-.45-.15-.74.05-.69.13-.14-.18-.56.05-.15-.06-.72-.36-.95-.06-.33v-.61l.14-.32-.3-.6-.08-.59.03-.43-.22-.08.03-.36-.2-.4-.1-.83-.5-.22-.5.48-.2.76-.06.56-.36.35-.26.13-.6-.07-.5-.42-.46.46-.36.12-.52-.02-.92.25-.66.13-.8.04-.8-.02-.95-.1-1.75-.37-.76-.24-.86-.45-.51-.37-.46-.46-.08-.3-.02-1.15.4-.18.39.07.05-.24-.34-.68-.61-.62-.15-.04-.04-.27-.17-.06-.27-1.36.12-.18-.12-.31-.23-.2-.35-.65.02-.56.08-.26-.35.08-.72-.38-.53-.59-.34-.6-.3-.78-.12-.5.62.01.46-.17.17-.28.16.02.09-.42-.54-.25-.5.18h-.24l-.33.14-.47-.11-.18-.23-.43-.26-.03-.64.32-.2.55.24.34-.09.25-.32.23.11.42-.32.35.04.37-.35.22.1.45-.19.1-.18-.17-.34.05-.58.22.08.85-.16.24-.26-.28-.53-.02-.42.36-.25.03-.26-.17-.06-.6.32-.33-.1-.41-.4-.07-.32.05-.38.51-.3.16-.01.57.26.5-.05.19-.55-.24-.1-.21.19-.29-.22-.26-.35v-.31l-.2-.33.17-.27-.38-.25-.21-.5-.6.54-.28.55h-.2l-.83-.46-.27-.38.2-1.02.1-.1v-.47l.11-.18.33-.14.12-.35-.3.03.02-.18-.3-.1-.46-.45-.34-.07-.15-.33.01-.88.17-.37 1.13-.15.2-.32-.02-.25-.2-.48-.16-.02-.3-.43-.26-.12-.31.1-.54-.07-.23.19.14.17-.2.07-.19-.35.14-1.08.57-1.05-.2.57.66.2 1.02.02.53.08h.45l-.52-.26-.02-.2-.33-.1-.2-.26.06-.14-.28-.04-.06-.68-.15-.5.11-.24 1.1.2.32.21.38.06.05.24.44-.25.77.11-.2-.67-.05-.53.04-.76.23-.68.39-.59.47-.36.33-.39h.2l1.13-.85.7-.44.69-.54.22.03.23-.37.57-.5.43-.3.82-.37.93-.3.75.16.59-.1-.07-.34.04-.9.1-.28-.08-.27.22-.36.1-.54.36-.04-.17-.3 1.01-1.45.75-.68.4-.14.26.15.45.05.18-.22-.26-.36.27-.24-.06-.46.15-.15.32-.13.95-.54.63-.15.89.07.77.19.4.35.39.5.24.06.05.17h.22l.3.17.08.39.28.73-.08.27.3-.32.03.26.24.03-.17.37.27.12.32.35.19.45.01.4.16-.04 1.33.21.44-.04.6-.47.4-.07.5-.29.17-.39.22-.2.34-.06.23.15.39-.07.7-.46.42-.42.84-.65.2-.3.55-.47.66-.35.06-.25-.07-.53.45.2.1.26.17-.09.09.24.44.34.23.34-.2.02-.08.3-.2-.23-.1.27-.4.06.72.15.1-.16.22.28.6-.06.36.24.72-.12.37.13.29.3.34.02.17-.2.38.3.32-.08.44.1 1.1-.12.13-.32.23-.07.01-.22.34-.07.2-.16.32-.51.1.16.6-.4.35-.4.58-.47.42-.61.14-.62.02-1.03-.03-.55-.13-.62v-.87l.06-.5.43-1.43-.01-.41-.09-.31-.94-2.17-.68-.68-.4-.07-.35.19v-.24l.35-.16.13-.17.1-.48.15-.25.64-.2.1.23.61.49.83.27.37-.03.03-.27-.24-.05-.09-.29.72.17.53-.4.24-.04.47-.25.16-.6.13-.2.15-.48-.24-.98.04-.26-.09-.3-.42-.27-.38-.6-.23-.68.15-.14-.3-.06-.2.4-.65.36-.62.57-.08.26-.57.1-.37-.01-.6-.49-.1-.2-.37.11-.67.03-.67.35.14.12.48-.17-.39.23-.2.04-1.04-.15-.56.02-.3.2-.23.46-.64.1-.24.13-.6.17-.34.17-.26.03-.47.53-.4.77-.18.11-.06.32-.33.02-.37.15-.42.32.01-.43.23-.58-.12-.7.07-.26.21-.08-.03-.29-.28-.38v-.33l-.52-.14.12-.1v-.45l-.43-.51.2-.48-.4-.06-.52.24-.33.24-.22-.02.32.74.4.17.02.39.12.14.3-.05.27.19-.18.29.07.1-.5.13-.24.6h-.43l-.13-.4v-.62l-.52-.84-.57-.62-.42-.36-.34-.17-.44-.14-.25-.18-.44-.12-.23.12-.2-.12-.34.07-.3-.25-.61-.26-.77-.19-.54-.02-.93.11-1.96.4-.85-.25-.16.06-.82-.72-1.05-.82-1.32-.92-.92-.5-.93-.68-.88-.57-.2-.23-.47-.84-.03-.7.04-.69.18-.3.12-.45.32-.03.2-.2.16-.41-.04-.66-.28-.66-.58-.83-.01-.17.22-.27-.13-.55-.45-.69-.16-.78.04-.33.64-.9.37-.31.13.04-.2.39-.4.1-.41.53-.08.46.37.4v.11l.57.4.36.1.46-.02.19-.14-.5-.02.8-.08.34-.2.16-.62.21-.13.43-.08.31-.2-.18-.61-.45-.47-.4-.16-.19.06-.33-.16-.64-.46-.4-.47-.57-.5-.48-.2-.32-.24-1-.48-.27-.3-.4-.62-.4-.92-.52-.55v-.21l-.34-.36-.3-.15-.33-.42.01-.7.08-.27.39-.44.72-.24m116.7-34.7.04.14-.35.08.32-.21m-8.65-4.56.52.46-.2-.07-.32-.39m-1.23-.56-.64-.12-.06-.11.7.23m-116.38 93.4-.1-.18.19-.17-.1.36m10.36-8.23-.2-.05.28-.15.1.2h-.18m.44-.66.06-.04.18.67-.14.08-.33-.1.01-.33.22-.28m.84-.08.26.19-.08.7-.4-.03-.23-.33.12-.58.2-.15.13.2m3.53-4.37.21.15-.23.13-.16-.2.18-.08m.13-.68.06.3-.38.06.32-.36m13.16-2.49.53-.37.42-.04.42.31.31-.13.32.25-.13.22.15.28-.24.26-.02.35-.24-.31-.3.16-.57-.26-.17.1-.28-.14-.04-.23-.27-.16.1-.29m-15.55-18.1-.2.2v-.3l.2.1m5.95 84.65.02-.22.4-.65-.03-.14 1.14-.32.33.1.63-.23.18.04.24-.26.48-.12-.57.66-.34.35-.39.54-.52.53-.42.59-.66.22-.5-.26-.28.1.08-.54.21-.4m4.83-.2.21-.2.05.41-.08.2-.36.25-.1-.15.28-.51m14.96-71.12-.06.32-.13-.07.19-.26m46.3 61.24v-.4l.28-.12.24-.63-.05-.4.39-.27.54.5-.52.26.08.28-.4.08-.32.41.12.35-.24.12-.6.17.02-.3.45-.05m13.12-9.07.4-.1-.03.3-.5.35-.29-.08.3-.1.12-.37m-121.4-66.1.17-.14.15-.46.22-.31.54-.54.28-.04.17-.2.05-.31.41-.43.24-.72.34.1.13.34-.43.7-.02.23.32.56.76.86.73.63.79.77.45.37.26.08 1.16-.28.76-.24.32.19.25.06.13-.18.44-.04.25.26.7.32.1.39.16.21-.05.2.14.35.22.13.04.46-.2.5.03.39-.23.24.07.26.45.38.25.5.58.4.53.26.3.56-.04.38.28.29.43.28.48.25.25.2.96.49.21.04.88.53.27.41.6.38-.26.3-.27.53-.18.05-.38.36-.39.2-.37.06-.36-.46-.76-.5-.65-.2-.57-.07-.46.02-.2.23-.45.17-.65.14-.49.45.05.4-.04.33-.42-.1-.45.33-.2-.32-.33-.28.23-.2-.08-.34.12-.2-.01-.8-.08-.42-.3-.7-.23-.13-.05-.37-.43-.42-.47-.17-.43-.28.2-.22.05-.26-.05-.8-.23-.66-.52-.86-.3-.27-1.04-1.1-.31-.24-.67-.36-.28-.08-.41.12-.5-.1-.34.04-.08.26-.37.23-.2-.12-.62.13-.3-.44-.22.02.04-.26-.2-.07-.4-.62-.18-.09.02-.54-.09-.55.13-.23.04-.43.11-.17m28.68-9.24-.1.18-.23-.17.2-.12.13.11m-.3-11.54-.06.26-.24-.13.01-.17.3.04m229.89 164.76.46-.04.07-.18.52-.17-.04-.17.68-.23.09.26-.1.12.24.32-.07.22.46.16-.22.34.06.12-.26.15.01.19-.3.04-.18-.21-.14.35-.4-.12-.1-.24-.39-.14-.5-.29.11-.48m1.8-1.25-.2.35-.28.08.25-.41.22-.02m-.16-.77.08-.27.31.31-.1.23.05.36-.38-.18-.07-.4.11-.04m1.44-4.06.21.45-.16.36-.3-.62.05-.19h.2" fill="#d1dbdd" stroke="rgb(209, 219, 221)" stroke-width="0.1" data-originalStrokeWidth="0.1" style="stroke: rgb(0, 0, 0); filter: none; stroke-width: 0.1; fill: rgb(209, 219, 221); pointer-events: auto;" pointer-events="auto"/>
      <g id="state_lines" stroke="rgb(209, 219, 221)" style="display: none; stroke: rgb(0, 0, 0);" stroke-width="0.1"/>
      <g id="state_abbr" fill="#000000" style="display: none; fill: rgb(0, 0, 0);">
        <text id="HI_label" x="491.79" y="769.82" style="font-size: 19.2455px; stroke-width: 1.60379; display: none;">
          <tspan id="HI_tspan" x="491.79" y="769.82" fill="#000000" dy="0" font-family="Arial" font-size="24.06" font-style="normal" font-weight="400" style="text-align: center; stroke-width: 2.57215; fill: rgb(0, 0, 0);" text-anchor="middle">HI</tspan>
        </text>
        <text id="AK_label" x="205.24" y="672.25" style="font-size: 19.2455px; stroke-width: 1.60379; display: none;">
          <tspan id="AK_tspan" x="205.24" y="672.25" fill="#000000" dy="0" font-family="Arial" font-size="24.06" font-style="normal" font-weight="400" style="text-align: center; stroke-width: 2.57215; fill: rgb(0, 0, 0);" text-anchor="middle">AK</tspan>
        </text>
        <text id="FL_label" x="1188.11" y="708.7" style="font-size: 19.2455px; stroke-width: 1.60379; display: none;">
          <tspan id="FL_tspan" x="1188.11" y="708.7" fill="#000000" dy="0" font-family="Arial" font-size="24.06" font-style="normal" font-weight="400" style="text-align: center; stroke-width: 2.57215; fill: rgb(0, 0, 0);" text-anchor="middle">FL</tspan>
        </text>
        <text id="NH_label" x="1306.05" y="167.79" stroke-width="1.1" font-size="13.25" style="display: none;">
          <tspan id="NH_tspan" x="1306.05" y="167.79" fill="#000000" stroke-width="1.1" dy="0" font-family="Arial" font-size="16.56" font-style="normal" font-weight="400" style="text-align: center; fill: rgb(0, 0, 0);" text-anchor="middle">NH</tspan>
        </text>
        <text id="MI_label" x="1019.65" y="246.58" style="font-size: 19.2455px; stroke-width: 1.60379; display: none;">
          <tspan id="MI_tspan" x="1019.65" y="246.58" fill="#000000" dy="0" font-family="Arial" font-size="24.06" font-style="normal" font-weight="400" style="text-align: center; stroke-width: 2.57215; fill: rgb(0, 0, 0);" text-anchor="middle">MI</tspan>
        </text>
        <text id="VT_label" x="1274.28" y="145.01" stroke-width="1.05" font-size="12.65" style="display: none;">
          <tspan id="VT_tspan" x="1274.28" y="145.01" fill="#000000" stroke-width="1.05" dy="0" font-family="Arial" font-size="15.81" font-style="normal" font-weight="400" style="text-align: center; fill: rgb(0, 0, 0);" text-anchor="middle">VT</tspan>
        </text>
        <text id="ME_label" x="1338.99" y="105.14" stroke-width="1.45" font-size="17.36" style="display: none;">
          <tspan id="ME_tspan" x="1338.99" y="105.14" fill="#000000" stroke-width="1.45" dy="0" font-family="Arial" font-size="21.7" font-style="normal" font-weight="400" style="text-align: center; fill: rgb(0, 0, 0);" text-anchor="middle">ME</tspan>
        </text>
        <text id="RI_label" x="1361.38" y="262.84" stroke-width="1.25" font-size="14.98" style="display: none;">
          <tspan id="RI_tspan" x="1361.38" y="262.84" fill="#000000" stroke-width="1.25" dy="0" font-family="Arial" font-size="18.72" font-style="normal" font-weight="400" style="text-align: center; fill: rgb(0, 0, 0);" text-anchor="middle">RI</tspan>
        </text>
        <text id="NY_label" x="1227.27" y="204.12" style="font-size: 19.2455px; stroke-width: 1.60379; display: none;">
          <tspan id="NY_tspan" x="1227.27" y="204.12" fill="#000000" dy="0" font-family="Arial" font-size="24.06" font-style="normal" font-weight="400" style="text-align: center; stroke-width: 2.57215; fill: rgb(0, 0, 0);" text-anchor="middle">NY</tspan>
        </text>
        <text id="PA_label" x="1187.28" y="284.69" style="font-size: 19.2455px; stroke-width: 1.60379; display: none;">
          <tspan id="PA_tspan" x="1187.28" y="284.69" fill="#000000" dy="0" font-family="Arial" font-size="24.06" font-style="normal" font-weight="400" style="text-align: center; stroke-width: 2.57215; fill: rgb(0, 0, 0);" text-anchor="middle">PA</tspan>
        </text>
        <text id="NJ_label" x="1330.57" y="290.09" stroke-width="1.28" font-size="15.4" style="display: none;">
          <tspan id="NJ_tspan" x="1330.57" y="290.09" fill="#000000" stroke-width="1.28" dy="0" font-family="Arial" font-size="19.25" font-style="normal" font-weight="400" style="text-align: center; fill: rgb(0, 0, 0);" text-anchor="middle">NJ</tspan>
        </text>
        <text id="DE_label" x="1320.8" y="328.42" stroke-width="1.36" font-size="16.38" style="display: none;">
          <tspan id="DE_tspan" x="1320.8" y="328.42" fill="#000000" stroke-width="1.36" dy="0" font-family="Arial" font-size="20.47" font-style="normal" font-weight="400" style="text-align: center; fill: rgb(0, 0, 0);" text-anchor="middle">DE</tspan>
        </text>
        <text id="MD_label" x="1310.72" y="368.46" stroke-width="1.34" font-size="16.11" style="display: none;">
          <tspan id="MD_tspan" x="1310.72" y="368.46" fill="#000000" stroke-width="1.34" dy="0" font-family="Arial" font-size="20.13" font-style="normal" font-weight="400" style="text-align: center; fill: rgb(0, 0, 0);" text-anchor="middle">MD</tspan>
        </text>
        <text id="VA_label" x="1198.59" y="392.33" style="font-size: 19.2455px; stroke-width: 1.60379; display: none;">
          <tspan id="VA_tspan" x="1198.59" y="392.33" fill="#000000" dy="0" font-family="Arial" font-size="24.06" font-style="normal" font-weight="400" style="text-align: center; stroke-width: 2.57215; fill: rgb(0, 0, 0);" text-anchor="middle">VA</tspan>
        </text>
        <text id="WV_label" x="1129.66" y="382.3" style="font-size: 19.2455px; stroke-width: 1.60379; display: none;">
          <tspan id="WV_tspan" x="1129.66" y="382.3" fill="#000000" dy="0" font-family="Arial" font-size="24.06" font-style="normal" font-weight="400" style="text-align: center; stroke-width: 2.57215; fill: rgb(0, 0, 0);" text-anchor="middle">WV</tspan>
        </text>
        <text id="OH_label" x="1079.05" y="334.46" style="font-size: 19.2455px; stroke-width: 1.60379; display: none;">
          <tspan id="OH_tspan" x="1079.05" y="334.46" fill="#000000" dy="0" font-family="Arial" font-size="24.06" font-style="normal" font-weight="400" style="text-align: center; stroke-width: 2.57215; fill: rgb(0, 0, 0);" text-anchor="middle">OH</tspan>
        </text>
        <text id="IN_label" x="998.79" y="352.94" style="font-size: 19.2455px; stroke-width: 1.60379; display: none;">
          <tspan id="IN_tspan" x="998.79" y="352.94" fill="#000000" dy="0" font-family="Arial" font-size="24.06" font-style="normal" font-weight="400" style="text-align: center; stroke-width: 2.57215; fill: rgb(0, 0, 0);" text-anchor="middle">IN</tspan>
        </text>
        <text id="IL_label" x="927.43" y="364.36" style="font-size: 19.2455px; stroke-width: 1.60379; display: none;">
          <tspan id="IL_tspan" x="927.43" y="364.36" fill="#000000" dy="0" font-family="Arial" font-size="24.06" font-style="normal" font-weight="400" style="text-align: center; stroke-width: 2.57215; fill: rgb(0, 0, 0);" text-anchor="middle">IL</tspan>
        </text>
        <text id="CT_label" x="1299.17" y="228.46" stroke-width="1.06" font-size="12.74" style="display: none;">
          <tspan id="CT_tspan" x="1299.17" y="228.46" fill="#000000" stroke-width="1.06" dy="0" font-family="Arial" font-size="15.93" font-style="normal" font-weight="400" style="text-align: center; fill: rgb(0, 0, 0);" text-anchor="middle">CT</tspan>
        </text>
        <text id="WI_label" x="898.6" y="224.7" style="font-size: 19.2455px; stroke-width: 1.60379; display: none;">
          <tspan id="WI_tspan" x="898.6" y="224.7" fill="#000000" dy="0" font-family="Arial" font-size="24.06" font-style="normal" font-weight="400" style="text-align: center; stroke-width: 2.57215; fill: rgb(0, 0, 0);" text-anchor="middle">WI</tspan>
        </text>
        <text id="NC_label" x="1205.6" y="458.72" style="font-size: 19.2455px; stroke-width: 1.60379; display: none;">
          <tspan id="NC_tspan" x="1205.6" y="458.72" fill="#000000" dy="0" font-family="Arial" font-size="24.06" font-style="normal" font-weight="400" style="text-align: center; stroke-width: 2.57215; fill: rgb(0, 0, 0);" text-anchor="middle">NC</tspan>
        </text>
        <text id="MA_label" x="1305.87" y="200.67" stroke-width="1.04" font-size="12.46" style="display: none;">
          <tspan id="MA_tspan" x="1305.87" y="200.67" fill="#000000" stroke-width="1.04" dy="0" font-family="Arial" font-size="15.58" font-style="normal" font-weight="400" style="text-align: center; fill: rgb(0, 0, 0);" text-anchor="middle">MA</tspan>
        </text>
        <text id="MO_label" x="854.22" y="422.93" style="font-size: 19.2455px; stroke-width: 1.60379; display: none;">
          <tspan id="MO_tspan" x="854.22" y="422.93" fill="#000000" dy="0" font-family="Arial" font-size="24.06" font-style="normal" font-weight="400" style="text-align: center; stroke-width: 2.57215; fill: rgb(0, 0, 0);" text-anchor="middle">MO</tspan>
        </text>
        <text id="GA_label" x="1106.89" y="574.56" style="font-size: 19.2455px; stroke-width: 1.60379; display: none;">
          <tspan id="GA_tspan" x="1106.89" y="574.56" fill="#000000" dy="0" font-family="Arial" font-size="24.06" font-style="normal" font-weight="400" style="text-align: center; stroke-width: 2.57215; fill: rgb(0, 0, 0);" text-anchor="middle">GA</tspan>
        </text>
        <text id="SC_label" x="1166.32" y="522.49" style="font-size: 19.2455px; stroke-width: 1.60379; display: none;">
          <tspan id="SC_tspan" x="1166.32" y="522.49" fill="#000000" dy="0" font-family="Arial" font-size="24.06" font-style="normal" font-weight="400" style="text-align: center; stroke-width: 2.57215; fill: rgb(0, 0, 0);" text-anchor="middle">SC</tspan>
        </text>
        <text id="KY_label" x="1039.99" y="426.39" style="font-size: 19.2455px; stroke-width: 1.60379; display: none;">
          <tspan id="KY_tspan" x="1039.99" y="426.39" fill="#000000" dy="0" font-family="Arial" font-size="24.06" font-style="normal" font-weight="400" style="text-align: center; stroke-width: 2.57215; fill: rgb(0, 0, 0);" text-anchor="middle">KY</tspan>
        </text>
        <text id="AL_label" x="1019.59" y="578.15" style="font-size: 19.2455px; stroke-width: 1.60379; display: none;">
          <tspan id="AL_tspan" fill="#000000" dy="0" font-family="Arial" font-size="24.06" font-style="normal" font-weight="400" style="text-align: center; stroke-width: 2.57215; fill: rgb(0, 0, 0);" text-anchor="middle">AL</tspan>
        </text>
        <text id="LA_label" x="872.7" y="649.59" style="font-size: 19.2455px; stroke-width: 1.60379; display: none;">
          <tspan id="LA_tspan" x="872.7" y="649.59" fill="#000000" dy="0" font-family="Arial" font-size="24.06" font-style="normal" font-weight="400" style="text-align: center; stroke-width: 2.57215; fill: rgb(0, 0, 0);" text-anchor="middle">LA</tspan>
        </text>
        <text id="MS_label" x="940.37" y="592.21" style="font-size: 19.2455px; stroke-width: 1.60379; display: none;">
          <tspan id="MS_tspan" x="940.37" y="592.21" fill="#000000" dy="0" font-family="Arial" font-size="24.06" font-style="normal" font-weight="400" style="text-align: center; stroke-width: 2.57215; fill: rgb(0, 0, 0);" text-anchor="middle">MS</tspan>
        </text>
        <text id="IA_label" x="823.33" y="308.44" style="font-size: 19.2455px; stroke-width: 1.60379; display: none;">
          <tspan id="IA_tspan" x="823.33" y="308.44" fill="#000000" dy="0" font-family="Arial" font-size="24.06" font-style="normal" font-weight="400" style="text-align: center; stroke-width: 2.57215; fill: rgb(0, 0, 0);" text-anchor="middle">IA</tspan>
        </text>
        <text id="MN_label" x="790.84" y="183.37" style="font-size: 19.2455px; stroke-width: 1.60379; display: none;">
          <tspan id="MN_tspan" x="790.84" y="183.37" fill="#000000" dy="0" font-family="Arial" font-size="24.06" font-style="normal" font-weight="400" style="text-align: center; stroke-width: 2.57215; fill: rgb(0, 0, 0);" text-anchor="middle">MN</tspan>
        </text>
        <text id="OK_label" x="732.05" y="519.54" style="font-size: 19.2455px; stroke-width: 1.60379; display: none;">
          <tspan id="OK_tspan" x="732.05" y="519.54" fill="#000000" dy="0" font-family="Arial" font-size="24.06" font-style="normal" font-weight="400" style="text-align: center; stroke-width: 2.57215; fill: rgb(0, 0, 0);" text-anchor="middle">OK</tspan>
        </text>
        <text id="TX_label" x="710.59" y="652.87" style="font-size: 19.2455px; stroke-width: 1.60379; display: none;">
          <tspan id="TX_tspan" x="710.59" y="652.87" fill="#000000" dy="0" font-family="Arial" font-size="24.06" font-style="normal" font-weight="400" style="text-align: center; stroke-width: 2.57215; fill: rgb(0, 0, 0);" text-anchor="middle">TX</tspan>
        </text>
        <text id="NM_label" x="506.94" y="542.36" style="font-size: 19.2455px; stroke-width: 1.60379; display: none;">
          <tspan id="NM_tspan" x="506.94" y="542.36" fill="#000000" dy="0" font-family="Arial" font-size="24.06" font-style="normal" font-weight="400" style="text-align: center; stroke-width: 2.57215; fill: rgb(0, 0, 0);" text-anchor="middle">NM</tspan>
        </text>
        <text id="KS_label" x="701.21" y="427.26" style="font-size: 19.2455px; stroke-width: 1.60379; display: none;">
          <tspan id="KS_tspan" x="701.21" y="427.26" fill="#000000" dy="0" font-family="Arial" font-size="24.06" font-style="normal" font-weight="400" style="text-align: center; stroke-width: 2.57215; fill: rgb(0, 0, 0);" text-anchor="middle">KS</tspan>
        </text>
        <text id="NE_label" x="686.63" y="337.29" style="font-size: 19.2455px; stroke-width: 1.60379; display: none;">
          <tspan id="NE_tspan" x="686.63" y="337.29" fill="#000000" dy="0" font-family="Arial" font-size="24.06" font-style="normal" font-weight="400" style="text-align: center; stroke-width: 2.57215; fill: rgb(0, 0, 0);" text-anchor="middle">NE</tspan>
        </text>
        <text id="SD_label" x="663.02" y="238.75" style="font-size: 19.2455px; stroke-width: 1.60379; display: none;">
          <tspan id="SD_tspan" x="663.02" y="238.75" fill="#000000" dy="0" font-family="Arial" font-size="24.06" font-style="normal" font-weight="400" style="text-align: center; stroke-width: 2.57215; fill: rgb(0, 0, 0);" text-anchor="middle">SD</tspan>
        </text>
        <text id="ND_label" x="663.02" y="150.75" style="font-size: 19.2455px; stroke-width: 1.60379; display: none;">
          <tspan id="ND_tspan" x="663.02" y="150.75" fill="#000000" dy="0" font-family="Arial" font-size="24.06" font-style="normal" font-weight="400" style="text-align: center; stroke-width: 2.57215; fill: rgb(0, 0, 0);" text-anchor="middle">ND</tspan>
        </text>
        <text id="WY_label" x="499.57" y="276.47" style="font-size: 19.2455px; stroke-width: 1.60379; display: none;">
          <tspan id="WY_tspan" x="499.57" y="276.47" fill="#000000" dy="0" font-family="Arial" font-size="24.06" font-style="normal" font-weight="400" style="text-align: center; stroke-width: 2.57215; fill: rgb(0, 0, 0);" text-anchor="middle">WY</tspan>
        </text>
        <text id="MT_label" x="487.84" y="155.58" style="font-size: 19.2455px; stroke-width: 1.60379; display: none;">
          <tspan id="MT_tspan" x="487.84" y="155.58" fill="#000000" dy="0" font-family="Arial" font-size="24.06" font-style="normal" font-weight="400" style="text-align: center; stroke-width: 2.57215; fill: rgb(0, 0, 0);" text-anchor="middle">MT</tspan>
        </text>
        <text id="CO_label" x="525.13" y="406.28" style="font-size: 19.2455px; stroke-width: 1.60379; display: none;">
          <tspan id="CO_tspan" x="525.13" y="406.28" fill="#000000" dy="0" font-family="Arial" font-size="24.06" font-style="normal" font-weight="400" style="text-align: center; stroke-width: 2.57215; fill: rgb(0, 0, 0);" text-anchor="middle">CO</tspan>
        </text>
        <text id="ID_label" x="339.94" y="235.07" style="font-size: 19.2455px; stroke-width: 1.60379; display: none;">
          <tspan id="ID_tspan" x="339.94" y="235.07" fill="#000000" dy="0" font-family="Arial" font-size="24.06" font-style="normal" font-weight="400" style="text-align: center; stroke-width: 2.57215; fill: rgb(0, 0, 0);" text-anchor="middle">ID</tspan>
        </text>
        <text id="UT_label" x="396.81" y="386.73" style="font-size: 19.2455px; stroke-width: 1.60379; display: none;">
          <tspan id="UT_tspan" x="396.81" y="386.73" fill="#000000" dy="0" font-family="Arial" font-size="24.06" font-style="normal" font-weight="400" style="text-align: center; stroke-width: 2.57215; fill: rgb(0, 0, 0);" text-anchor="middle">UT</tspan>
        </text>
        <text id="AZ_label" x="366.76" y="536.9" style="font-size: 19.2455px; stroke-width: 1.60379; display: none;">
          <tspan id="AZ_tspan" x="366.76" y="536.9" fill="#000000" dy="0" font-family="Arial" font-size="24.06" font-style="normal" font-weight="400" style="text-align: center; stroke-width: 2.57215; fill: rgb(0, 0, 0);" text-anchor="middle">AZ</tspan>
        </text>
        <text id="NV_label" x="262.47" y="370.64" style="font-size: 19.2455px; stroke-width: 1.60379; display: none;">
          <tspan id="NV_tspan" x="262.47" y="370.64" fill="#000000" dy="0" font-family="Arial" font-size="24.06" font-style="normal" font-weight="400" style="text-align: center; stroke-width: 2.57215; fill: rgb(0, 0, 0);" text-anchor="middle">NV</tspan>
        </text>
        <text id="OR_label" x="214.43" y="206.88" style="font-size: 19.2455px; stroke-width: 1.60379; display: none;">
          <tspan id="OR_tspan" x="214.43" y="206.88" fill="#000000" dy="0" font-family="Arial" font-size="24.06" font-style="normal" font-weight="400" style="text-align: center; stroke-width: 2.57215; fill: rgb(0, 0, 0);" text-anchor="middle">OR</tspan>
        </text>
        <text id="WA_label" x="238.05" y="102.99" style="font-size: 19.2455px; stroke-width: 1.60379; display: none;">
          <tspan id="WA_tspan" x="238.05" y="102.99" fill="#000000" dy="0" font-family="Arial" font-size="24.06" font-style="normal" font-weight="400" style="text-align: center; stroke-width: 2.57215; fill: rgb(0, 0, 0);" text-anchor="middle">WA</tspan>
        </text>
        <text id="CA_label" x="191.69" y="434.8" style="font-size: 19.2455px; stroke-width: 1.60379; display: none;">
          <tspan id="CA_tspan" x="191.69" y="434.8" fill="#000000" dy="0" font-family="Arial" font-size="24.06" font-style="normal" font-weight="400" style="text-align: center; stroke-width: 2.57215; fill: rgb(0, 0, 0);" text-anchor="middle">CA</tspan>
        </text>
        <text id="DC_label" x="1309.32" y="398.19" stroke-width="1.29" font-size="15.45" style="display: none;">
          <tspan id="DC_tspan" x="1309.32" y="398.19" fill="#000000" stroke-width="1.29" dy="0" font-family="Arial" font-size="19.31" font-style="normal" font-weight="400" style="text-align: center; fill: rgb(0, 0, 0);" text-anchor="middle">DC</tspan>
        </text>
        <text id="TN_label" x="1018.93" y="485.72" style="font-size: 19.2455px; stroke-width: 1.60379; display: none;">
          <tspan id="TN_tspan" x="1018.93" y="485.72" fill="#000000" dy="0" font-family="Arial" font-size="24.06" font-style="normal" font-weight="400" style="text-align: center; stroke-width: 2.57215; fill: rgb(0, 0, 0);" text-anchor="middle">TN</tspan>
        </text>
        <text id="AR_label" x="863.15" y="535.77" style="font-size: 19.2455px; stroke-width: 1.60379; display: none;">
          <tspan id="AR_tspan" x="863.15" y="535.77" fill="#000000" dy="0" font-family="Arial" font-size="24.06" font-style="normal" font-weight="400" style="text-align: center; stroke-width: 2.57215; fill: rgb(0, 0, 0);" text-anchor="middle">AR</tspan>
        </text>
      </g>
      <g id="state_borders" transform="translate(-0.04777967,-0.15336683)" stroke="rgb(209, 219, 221)" style="stroke: rgb(0, 0, 0);" stroke-width="0.3"/>
      <rect id="selection-rectangle" fill="#ffffccaa" stroke="rgb(209, 219, 221)" stroke-width="0.1"/>
      <ellipse id="selection-ellipse" fill="#ffffccaa" stroke="rgb(209, 219, 221)" stroke-width="0.1"/>
      <polygon id="selection-polygon" fill="#ffffccaa" stroke="rgb(209, 219, 221)" stroke-width="0.1"/>
      <polyline id="selection-polyline" fill="#ffffccaa" stroke="rgb(209, 219, 221)" stroke-width="0.1"/>
    </svg>
  </g>
  <svg id="legend-svg" width="100%" height="100%" style="overflow:visible;" class="ui-draggable ui-draggable-handle" x="1328.321548461914" y="504">
    <g id="legend-g-svg" fill="#000" transform="translate(0,0) scale(1)" style="font-family: Helvetica; font-weight: 400; font-style: normal;">
      <rect id="legend-bg-rect-svg" x="0" y="0" rx="3.8" ry="3.8" width="190" height="20" fill="#000000" stroke="rgb(209, 219, 221)" fill-opacity="0" stroke-width="0.1"/>
    </g>
  </svg>
</svg>
