<?xml version='1.0' encoding='UTF-8'?>
<svg xmlns="http://www.w3.org/2000/svg" xmlns:dc="http://purl.org/dc/elements/1.1/" xmlns:ns2="http://creativecommons.org/ns#" xmlns:rdf="http://www.w3.org/1999/02/22-rdf-syntax-ns#" id="wrapper" viewBox="0 0 1520 840" preserveAspectRatio="xMinYMin" height="840" width="1520" style="background-color: rgb(255, 255, 255);">
  <metadata>
    <rdf:rdf>
      <ns2:work rdf:about="">
        <dc:format>image/svg+xml</dc:format>
        <dc:type rdf:resource="http://purl.org/dc/dcmitype/StillImage"/>
        <dc:title>MapChart Map</dc:title>
        <dc:creator>
          <ns2:agent>
            <dc:title>MapChart.net</dc:title>
          </ns2:agent>
        </dc:creator>
        <ns2:license rdf:resource="http://creativecommons.org/licenses/by-sa/4.0/"/>
        <dc:description>This map was created with MapChart.net, a website for creating custom maps.</dc:description>
      </ns2:work>
      <ns2:license rdf:about="http://creativecommons.org/licenses/by-sa/4.0/">
        <ns2:permits rdf:resource="http://creativecommons.org/ns#Reproduction"/>
        <ns2:permits rdf:resource="http://creativecommons.org/ns#Distribution"/>
        <ns2:requires rdf:resource="http://creativecommons.org/ns#Notice"/>
        <ns2:requires rdf:resource="http://creativecommons.org/ns#Attribution"/>
        <ns2:requires rdf:resource="http://creativecommons.org/ns#ShareAlike"/>
      </ns2:license>
    </rdf:rdf>
  </metadata>
  <g id="map-group" transform="translate(-663.3825192585805,-1691.7579789614297) scale(3.9171170270867717)">
    <svg id="map" width="1520" height="840" version="1.1" viewBox="0 0 1520 840" preserveAspectRatio="xMinYMin" data-originalStrokeWidth="0.3">
      <defs>
        <pattern id="circles3" width="10" height="10" patternUnits="userSpaceOnUse">    <rect width="10" height="10" fill="#fff"/>    <circle cx="4" cy="4" r="2" fill="#000"/>    </pattern>
        <pattern id="diagonal1" width="10" height="10" patternUnits="userSpaceOnUse">    <rect width="10" height="10" fill="#fff"/>    </pattern>
        <pattern id="diagonal3" width="10" height="10" patternUnits="userSpaceOnUse">    <rect width="10" height="10" fill="#fff"/>    </pattern>
        <pattern id="vertical1" width="10" height="10" patternUnits="userSpaceOnUse">    <rect width="10" height="10" fill="#fff"/>    <rect x="2" y="0" width="1" height="10" fill="#000"/>    </pattern>
        <pattern id="vertical3" width="10" height="10" patternUnits="userSpaceOnUse">    <rect width="10" height="10" fill="#fff"/>    <rect x="2" y="0" width="3" height="10" fill="#000"/>    </pattern>
        <pattern id="horizontal1" width="10" height="10" patternUnits="userSpaceOnUse">    <rect width="10" height="10" fill="#fff"/>    <rect x="0" y="2" width="10" height="1" fill="#000"/>    </pattern>
        <pattern id="horizontal3" width="10" height="10" patternUnits="userSpaceOnUse">    <rect width="10" height="10" fill="#fff"/>    <rect x="0" y="2" width="10" height="3" fill="#000"/>    </pattern>
        <pattern id="crosshatch" width="8" height="8" patternUnits="userSpaceOnUse">    <rect width="8" height="8" fill="#fff"/>    </pattern>
        <pattern id="subtlepatch" width="5" height="5" patternUnits="userSpaceOnUse">    <rect width="5" height="5" fill="#fff"/>    <rect x="2" y="2" width="1" height="1" fill="#000"/>    </pattern>
        <pattern id="checkers" width="8" height="8" patternUnits="userSpaceOnUse">    <rect width="8" height="8" fill="#fff"/>    </pattern>
        <pattern id="raindrops" width="10" height="10" patternUnits="userSpaceOnUse">    <rect width="10" height="10" fill="#fff"/>    </pattern>
        <pattern id="texture" width="4" height="4" patternUnits="userSpaceOnUse">    <rect width="4" height="4" fill="#fff"/>    </pattern>
        <pattern id="circles3_a03500_000000" width="10" height="10" patternUnits="userSpaceOnUse">    <rect width="10" height="10" fill="#a03500"/>    <circle cx="4" cy="4" r="2" fill="#000000"/>    </pattern>
        <pattern id="diagonal1_d9b400_535353" width="10" height="10" patternUnits="userSpaceOnUse">    <rect width="10" height="10" fill="#d9b400"/>    </pattern>
        <pattern id="diagonal3_3264c8_ffffff" width="10" height="10" patternUnits="userSpaceOnUse">    <rect width="10" height="10" fill="#3264c8"/>    </pattern>
        <pattern id="horizontal1_72b38e_000000" width="10" height="10" patternUnits="userSpaceOnUse">    <rect width="10" height="10" fill="#72b38e"/>    <rect x="0" y="2" width="10" height="1" fill="#000000"/>    </pattern>
        <pattern id="horizontal3_986ba1_ffffff" width="10" height="10" patternUnits="userSpaceOnUse">    <rect width="10" height="10" fill="#986ba1"/>    <rect x="0" y="2" width="10" height="3" fill="#ffffff"/>    </pattern>
        <pattern id="vertical1_b9a087_ffffff" width="10" height="10" patternUnits="userSpaceOnUse">    <rect width="10" height="10" fill="#b9a087"/>    <rect x="2" y="0" width="1" height="10" fill="#ffffff"/>    </pattern>
        <pattern id="vertical3_4c91bf_ffff33" width="10" height="10" patternUnits="userSpaceOnUse">    <rect width="10" height="10" fill="#4c91bf"/>    <rect x="2" y="0" width="3" height="10" fill="#ffff33"/>    </pattern>
        <pattern id="checkers_cc3333_f7f7f7" width="8" height="8" patternUnits="userSpaceOnUse">    <rect width="8" height="8" fill="#cc3333"/>    </pattern>
        <pattern id="texture_d1dbdd_525252" width="4" height="4" patternUnits="userSpaceOnUse">    <rect width="4" height="4" fill="#d1dbdd"/>    </pattern>
        <style id="map-style">svg { background-color: #ffffff; }</style>
      </defs>
      <path id="AZ01" d="m372.34 562.1-2.68-.31-.58-.1.13-.6-.05-.32h-.36l-.84-.12-.04.2h-.33l.1.2-.4.37-.2-.41h-.06l.07-.6h-.95l-.25.28-.06-.06-.37.16v-.08l-.42-.04-.4.02.13.12-.25.2.04-.29-.22-.02-.06.45-1.01-.14-.02.14-.22-.02-.06.23-.3-.05-.26.36-.02.2-.48-.06.01-.12-.43-.03-.03.1-.46-.05.07-.47-.44-.05.02-.23-.33-.03-.12.1.02.24-.5-.1.01-.08-.46-.06.07-.44-.9-.11.11-.93-.9-.1.07-.68-1.34-.16.07-.47.5-4.33-.34-.03.07-.48.01-.5.37.1.86.1.04-.12.2.3.23.01.03-.34.15-.08.4.32.98-1.43.09-.77-.5-.9-.07-.02.1-.85-.21-.08.26-2.3-.9-.11.53-4.3 8.58 2.22 5.8.67h.58l.31-.07.2.13.12-.06.33.29-.09.15.23.29-.42.27-.17.34.1.16-.13.25.1.24-.17.68.34.16.33-.29.5.27-.11.46-.15.09-.04.53.36.27v.27l.2.22-.28.56.08.28.2.1.25.34-.06.2-.26-.02-.14.41.17.26-.31.58.02.43.1.18-.15.23.31.05.05.14.32.18.47.76-.07.5.12.47.44.31.42.68.2.06-.03.23.55 1 .33-.03.44.44-.03.09.22.25.23-.34.21-.2v-.4l.27-.18.56-.56.25-.02.07-.2.45-.26 1.75 5.54.45 1.42h-.2l-3.15-.34-2.6-.3-5.37-.6" fill="#d1dbdd" stroke="rgb(209, 219, 221)" stroke-width="0.1" data-originalStrokeWidth="0.1" style="stroke: rgb(0, 0, 0); fill: rgb(209, 219, 221); pointer-events: auto; stroke-width: 0.1;" pointer-events="auto"/>
      <path id="AZ02" d="m359.26 542.33-2.53-.63.05.2-.13.47.06.3-.16.15-.1-.2-.33.16.05.2-.4.44-.05.4-.26.2-.33.06v.11l-.42.26-.27-.12.08.31-.17.2.24.18-.16.6h-.22l-.04.32h-.46l-.49.36.01.25-1.63-.73-3.77-1.7-6.17-2.76-5.27-.68-4.45-.58-5.44-.72.52-3.86.01-.08.52-3.88v-.04l.96-7.16.35-2.6-.03-.02.5-3.65h.03l.69-5.21 1.56-11.74.55-4.06.64-4.83v-.27l-.56.38-2.86-.4-1.43-.2-.48-.06-1.93-.27-3.42-5.6-1.08-.61-.11.84-.2 1.1-.41.27-.55.2-.19-.05v-.5l.23-.24.52-.15-.05-.11-.4-.34-.52.09-.25-.08-.3-.22-.11.04-.14.35-.18-.5-.48-.9-.36-.76-.2-.75-.07-.07-.85-.3-.5-.42.8-.38.53-.4.03-.28.55-.33.32.01.03.25.17.1.4-.08.27-.32.07-.43-.24-.37.18.1.78-.37.8-5.64.14-.94.28-2 .2.16-.05.37.05.32.24.29.24.18.57.24.92.2.26.63.3.17-.11.43.03.64.18.62.3.2h.19l.24.47-.12.23v.2l.42.12.15.33-.15.8.07.25-.08.32.13.23.6.2.31.37.09.34.16.24-.08.38.18.42.25.18.24-.08.28-.4.12-.3.27-.05.62.76.17.24.1.56.45.34.3.6.38.43.57.07.47.1.8.52.4.1.64.04.27-.02.45-.5.25-.07.48-.34.41-.75-.04-.29.18-.17.05-.4.36-.4.15-.29v-.34l.12-.32-.01-.25-.23-.15-.27-.58.31-.63v-.5l.33-.3.01-.23-.09-.29-.29-.11-.11-.38.07-.4-.16-.33-.03-.88.23-.44.43-.33.14-.2.17-.5.3-.26.3.18.54.02.56.35.3-.11.3.16.17-.03.33-.52.37-.29-.04-.45.3-.58.44-.14.7-.42.22.09.2.23.24-.07.39-.38.51-.28.46-.1.19-.12.48-.12.5-.54.46-.21.26-.04.66.32 1.1-.18.18-.06.2-.35.29-.04.26.2.52-.26.23-.42.32-.1.46.22.2-.03.19-.2.48-.03.3.18h.18l.23-.52.38.02.27-.2.15-.36.28-.03.18.17.27.08.19-.12-.06-.62.08-.13.65-.21.25.08.13.41.36-.1.34-.32.17-.25.1-.43.27-.27.27-.04v-.36l.2-.2-.12-.58-.17.01-.13-.26.18-.7-.1-.03.45-.21.17-.27-.1-.38-.26-.09.12-.07-.12-.38-.15-.07-.15-.38.06-.35-.08-.17.1-.16-.06-.23.19.01.08-.22-.06-.23.32-.2v-.18l.24.06-.01-.23.22-.1-.04-.25.24-.18.08-.98-.1-.82.09-.09-.2-.65.14-.1v-.29l.16-.12.08-.29-.08-.15.2-.18-.06-.1.33-.57.07-.53.15-.03-.19-.38.16-.34-.06-.26.17-.14.01-.31.25-.03.2-.5.04-.53-5.63-.7.3-2.25h-.05l.38-3.06 1.47.18 3.38.43.6.06.23.05 1.28.15.23.02.23.04.86.11 1.15.13 1.35.18 2.27.27 1.37.17.43.04 1.27.16 1.47.18 2.11.26.79.1 7.85.91 1.07.13 1.2.12.48.06.62.06 1.22.15h.04l1.05.13.8.08.43.08h.11l.18.01h.05l.7.09.18.03.98.1.44.06.47.06.64.06.45.07 1.11.12.98.1.23.02 1.05.1.4.02.56.07 1.69.17.9.1 1.44.17 1.22.12.94.1.68.06 3.9.39 1.13.12 2.21.24.5.24h.06l2.17.22.8.08 1.02.09.76.08.1.01 1 .1 1.38.13.73.07 1.44.15.74.08 2.14.21 2.6.25 1.82.17.72.08 1.63.16 2.23.2.44.04.61.06 2.37.19 1.44.14.48.04 3.04.28.61.06.77.05.87.1 1.37.12 1.1.1.88.08-.01.27-.09 1-.08.91-.15 1.73-.01.1-.08.99-.2 2.1-.27 3.27-.18 1.82v.2l-.06.58-.1 1.2-.07.67-.02.08-.2 2.3-.07.99-.26 2.83-.01.15-.05.56-.15 1.65-.08.87-.03.51-.02.1-.05.63-.09.94-.06.67v.03l-.15 1.66-.04.5-.17 1.96-.1 1.15-.1 1.2-.09.83-.25 2.68-.06.67-.04.63-.03.43-.04.46-.07.64-.02.3-.04.52-.12 1.47-.04.3-.05.43-.12 1.48-.1 1.07-.27 2.93-.03.47-.16 1.67-.05.58-.04.53v.02l-.22 2.69-.1 1.13-.07.86-.06.76-.19 2.17-.14 1.5-.15 1.72-.35 3.9-.05.64-.14 1.49-.02.46-.08.91-.11 1.06-.04.68-.15 1.5-.24 2.8-.05.59-.13 1.25-.15 1.82-.18 2.15-.12 1.18-.12 1.47-.13 1.34-.33 3.67-.05.48-.1 1.28-.12 1.34-.25 2.98-.11 1.2-.05.55-.1 1.04-.06.73-.1 1.25-.13 1.44-3.36-.3-.9-.1-3.55-.33-.45.82-.08.4.17.14.1.32-.22-.12-.2.16-.25-.1-.71.37-.13-.17-.09.24-.75-.23-.55.48-.01.1-.34-.1-.14.12-.16.58.07.3-.14.02.07.24-.36.04-.04.4-.9 9.94-.36 3.6-.37 4.14-.63 1.3-.09-.02.1-.35-.13-.13-1.05-.1-.95 1.02-.24-.21-.32-.08-.1-.13-.29.04-.37.29-.04-.12-.53.08-.3-.24-.39-.47-.15-.3-.31.11-.01-.2-.3-.03-.12-.31-.21-.03.2-.51-.17-.19-.2.18h-.33l-.1-.75-.2-.24.28-.68-.07-.09-.56.22-.22-.26-.25.06.05.14-.3-.06-.14-.4-.2-.16v-.4l.06-.31h-.16l-.26-.16-.44.07-.2-.04.01.15h-.2l-.23.29-.14-.09.07-.44-.26-.14-.16.03-.18-.22-.22-.06-.03-.22-.29-.17-.3-.32.26-.28-.12-.49-.06-.56h-.12l-.45-.55-.3-.1-.29.24-.05.2-.54-.38.2-.2-.06-.4-.48-.35h-.1l-.08-.29.08-.22-.12-.38-.15-.1-.5 4.98-.28 2.97-.06.5-.44 5.06-.93-.72-.96-2.11-1.37-.55-.98-.67-1.33-.12-.8-.37-1.5-.42-.61-.06-.37.31-.28.41-.5-.04-.33-.23-.12 1.26h.02l-.57 5.54-4.61-.49-.93-.14-.94-.05-6.52-.7-2.65-.35-.55-.04-.24.09-.48-.16-.73-.04-.3-.12-.37.07-.31-.13-.22-.44-1-.14-.39.12-.25-.05-.25-.17-.43-.05-.08.77-2.67-.3.31-2.73-2.49-.3-1.08-.12-.1.92h.14l-.07.45-.13-.01-.1.91-.35-.08.05-.38h-.11l.18-1.4-1.37-.17.01-.21-.19-.03.02-.3-.57-.12-.13.1.06-.46-.24.14.05-.39.44.05.03-.22-.9-.12-.07.46.2.26-.45.07.03-.35-.23-.03-.04.46-.24-.02.18-1.38-2.27-.26.03-.16-.45-.13.03-.23-1.24-.13-.1-.14-.08.72-.66-.08V579l-.33-.05.1.14-.34-.05-.1-.14-.05.48-.45-.06-.01.23-.91-.1.08-.22-.96-.12-.06.47-.87-.11.05-.46-1.35-.17-.1.92-.9-.13.1-.9.45.05.16-1.36.17-1.01.1-.95-1.3-.13-.9-.15-.1.46-.61-.09-.15-.24-.84-.1v-.47l-.1-.01.15-1.12.84-6.84-1.27-.14-1.43-.2.51-4.2.11-.06.34.16h.43l.84-.02.16-.12 1.93 2.92.3.46.13.06 3.86.44 2.27.27-.32 2.76 2.25.21 3.13.38-.3 2.74 1.45.15 3.74.43-.1-.18.03-.29.45.04.03-.46-.44-.05.13-.15.03-.3.33.1-.03.38.22-.15-.13-.75-.29-.5-.34-1.33.12-.53-.65-.07.07-.47.46.07-.04-.72-.06-.22 1.53.17.06-.45 1.22.13.1-.03-.36-.43-.52-.74-.69-.82.06-.53-.33-.05-.1-.24.13-.08.35.03.25-2.28 5.36.61 2.6.3 3.16.34h.2l-.45-1.4-1.75-5.56-.45.26-.07.2-.25.02-.56.56-.28.18.01.4-.2.2-.24.34-.22-.25.03-.1-.44-.43-.33.04-.55-1.02.02-.22-.19-.06-.42-.68-.44-.31-.12-.47.07-.5-.47-.77-.32-.17-.05-.14-.3-.05.14-.23-.1-.2-.02-.41.31-.58-.17-.26.14-.41.26.02.06-.2-.25-.33-.2-.12-.08-.27.28-.56-.2-.22v-.28l-.36-.26.04-.53.15-.1.12-.45-.5-.26-.34.28-.34-.15.17-.69-.1-.24.14-.25-.1-.16.16-.34.42-.27-.22-.29.08-.15-.33-.3-.11.07-.2-.13-.32.08-.59-.01-5.8-.67-8.57-2.22" fill="#d1dbdd" stroke="rgb(209, 219, 221)" stroke-width="0.1" data-originalStrokeWidth="0.1" style="stroke: rgb(0, 0, 0); fill: rgb(209, 219, 221); pointer-events: auto; stroke-width: 0.1;" pointer-events="auto"/>
      <path id="AZ03" d="m350.78 558.66.29-.65h.18l.13-.2.57.05-.07.47 1.81.17.1-.91 1.67.2.1.25.9.1-.07.47 1.34.16-.08.67.91.1-.12.94.9.1-.07.45-.25 2.36h.4l.11.36-.03.32-.34-.14.04-.12-.25-.03-.53.3-.03.34-.44-.05-.12.22-.82-.1-.06.47-.89-.12-.04.45-1.68-.19-1.93-2.92-.16.12-.84.02.2-1.71 1.34.11.06-.47-.45-.04.06-.43-.9-.1.13-.9-1.07-.12" fill="#d1dbdd" stroke="rgb(209, 219, 221)" stroke-width="0.1" data-originalStrokeWidth="0.1" style="stroke: rgb(0, 0, 0); fill: rgb(209, 219, 221); pointer-events: auto; stroke-width: 0.1;" pointer-events="auto"/>
      <path id="AZ04" d="m367.03 561-.03.26.2.62.41.5.41.35-.02.47-.33-.03-.02.23-.46-.05-.05.46-.45-.07-.14.45-.78-.1.02-.2-.25-.03v.21l-2.97-.33-.07.55.22.03-.08.7.23.02-.2 1.77-.43-.2-.88-.1-.46-.18-2.27-.27-3.86-.44-.12-.06-.31-.46 1.68.19.04-.45.9.12.05-.47.82.1.12-.22.44.05.03-.34.53-.31.25.04-.04.12.34.14.03-.32-.11-.37-.4.01.26-2.36.46.06v.07l.49.11-.02-.24.12-.1.33.03-.02.23.44.05-.07.47.46.05.03-.1.43.03-.01.12.48.06.03-.2.26-.36.3.05.05-.23.22.02.02-.14 1 .14.08-.45.21.02-.04.29.25-.2-.14-.12.41-.02.42.04v.08l.38-.16.05.06.25-.28h.95l-.07.6" fill="#d1dbdd" stroke="rgb(209, 219, 221)" stroke-width="0.1" data-originalStrokeWidth="0.1" style="stroke: rgb(0, 0, 0); fill: rgb(209, 219, 221); pointer-events: auto; stroke-width: 0.1;" pointer-events="auto"/>
      <path id="AZ05" d="M367.03 561h.07l.2.42.39-.38-.1-.18.33-.01.04-.2.84.13.36-.01.05.31-.14.61.58.1 2.68.31-.24 2.28-.35-.03-.12.08.09.24.33.05-.06.54.7.82.51.73.36.43-.1.02-1.22-.12-.06.45-1.53-.17.06.22.04.72-.46-.07-.07.46.65.07-.12.54.35 1.34.28.49.13.75-.22.15.03-.38-.33-.1-.03.3-.13.15.44.05-.03.46-.45-.05-.03.3.1.19-3.73-.44-1.47-.15.31-2.74-3.13-.38-2.25-.21.32-2.76.46.17.88.11.42.2.2-1.77-.22-.01.08-.71-.22-.03.07-.55 2.97.33v-.21l.25.04-.02.19.77.1.15-.45.45.07.05-.46.46.05.02-.23.33.03.02-.47-.4-.35-.41-.5-.21-.62.03-.25" fill="#d1dbdd" stroke="rgb(209, 219, 221)" stroke-width="0.1" data-originalStrokeWidth="0.1" style="stroke: rgb(0, 0, 0); fill: rgb(209, 219, 221); pointer-events: auto; stroke-width: 0.1;" pointer-events="auto"/>
      <path id="AZ06" d="M417.58 634.5h.2l.3-.57v-.54l.31-.17.14-.33-.05-.54-.17-.15-.07-.28-.36-.06.22-.3-.13-.07.11-.48.23-.17-.38-.26-.21-.02.01-.21-1.12-.14-1.14-.09.05-.48-.34-.05-.55.18.08.28-.8-.1-.06.46.45.04-.04.46-1.8-.2-3.18-.3-.24-.17.16-.46.04-.64.1-1.29-.63-1.27-.01.12-2.81-.27-1.23-.14-1.32-.1-.25 2.64 1.33.12-.14 1.04v.4l-.92-.1-.12 1.37-.83-.11-1.15-.1.18-.43-.43-.04.07-.47-3.17-.3-.02.29.39.55.43.15-.08.89-.38.06-.38-.07-.11.05-.13-.22-.5-.27-.22-.01-.34-.25-.12.35-.3-.24-.49-.16-.23-.23-.34.11-.12-.2-.21-.02-.2-.21-.11.07-.33-.06-.47.03-.2-.24-.34-.9-.09.02-.1-.32-.1.04-.16-.19-.21.4-.34.14-.06.13.22-2.2h-.03l.47-4.53.23.02.38-3.68-5.5-.58-5.2-.56-.02.16-2.7-.3-2.67-.27.6-.95-.23-.38 1.36-2.5-.23-.03.1-.89.2-.27.4-.23.77.07.12.14.1-.21.1-.58.28.03.06-.57.1.02.05-.35.31.03-.03.22.58.08.05-.46.91.1.47-.12.23-2.12.19-1.41.21-2.08-.45-.04-.27.2-.66-.06.12-.9.09-1.02.6.05.2.1 1.8.23-.38-.55-.03-.42-2.11-.24.05-.46-.45-.04.1-.92-.9-.08.06-.54-.46-.1.05-.34h-.38l-.5-.37-.76-.5-.3.08-.02.11-1.34-.15-.12-.2-.3-.07.04-.45-.23-.04-.06-.46-.1-.24-.23-.03.03-.32.24.01.1-.48-.8-.17.12-.22-.22-.02-.02.23-.24-.02-.03.35-.9-.11v.11l-.46-.04.12-1.14-.22-.02-.25.2h-.51l-.9-.1.2-1.81-.23-.04-.27-.41-.33-.3.08-.7-.09-.2-.22-.07-3-.33.4-3.58-.42-.03v-.11l-.46-.05.1-.91-.9-.1-3.61-.4.12-.93-.45-.05.06-.44-.68-.08.12-.92.51.04-.66-.76.08-.7-.46-.04.15-1.15-.46-.03.1-.9-1.78-.23.08-.7-.45-.06.06-.67-.87-.1.01-.24.45.06.05-.48.1.14.34.05-.1-.14.34.05-.01.13.67.08.07-.72.1.13 1.24.14-.03.23.45.13-.03.16 2.27.26-.18 1.38.24.02.04-.46.23.03-.03.35.46-.07-.2-.26.07-.46.89.12-.03.22-.44-.05-.05.39.24-.14-.06.47.13-.1.57.11-.03.3.2.03-.01.2 1.37.17-.18 1.4h.11l-.05.4.34.07.1-.91.13.01.08-.45h-.15l.11-.92 1.1.11 2.48.3-.32 2.74 2.67.3.08-.77.43.05.25.18.25.04.39-.11 1 .13.2.44.34.12.38-.06.28.12.73.04.48.17.24-.11.55.05 2.65.34 6.51.7.95.05.93.15 4.61.5.57-5.55h-.03l.12-1.26.34.23.5.04.28-.41.37-.31.6.06 1.52.42.79.37 1.33.13.98.66 1.37.55.96 2.1.93.73.44-5.06.06-.5.28-2.97.5-4.99.16.12.1.38-.08.21.1.28h.09l.48.36.05.41-.18.2.52.36.06-.19.3-.24.29.1.45.55h.12l.06.56.12.49-.25.28.3.31.28.18.03.22.22.06.18.22.16-.03.26.14-.07.45.14.07.23-.3.2.02-.02-.15.2.04.45-.07.26.17.16-.01-.06.32v.39l.2.16.15.4.29.06-.05-.14.25-.06.2.25.57-.2.08.08-.28.68.2.24.1.74.34.01.18-.17.18.18-.2.51.2.03.14.3.29.04v.2l.32-.1.15.29.4.47.3.24.52-.08.04.12.38-.29.28-.04.1.13.32.08.24.21.96-1.02 1.04.1.14.13-.1.35.09.01.62-1.29.37-4.14.35-3.6.91-9.95.04-.4.36-.03-.07-.24.14-.02-.08-.3.16-.58.15-.12.34.1.01-.1.55-.48.75.23.09-.24.13.18.71-.38.25.1.2-.16.22.12-.1-.32-.17-.15.08-.4.45-.8 3.54.32.91.1 3.35.3-.16 1.95-.12 1.34-.2 2.17-.54 6.13-.32 3.58-.16 1.75v.01l-.2 2.35-.05.45-.07.88-.46 5.13-.12 1.54-.2 2.24-.1 1.13-.12 1.18-.2 2.27-.02.28v.15l-.03.19-.07.89-.13 1.4-.16 1.73-.29 3.4-.08.81-.12 1.37-.17 2-.33 3.5-.5 5.73-.05.57-.16 1.63-.06.71-.22 2.5-.09.96-.05.66-.2 2.23-.26 2.75-.07.82-.13 1.5-.1.91-.03.44-.09.94-.02.44-.38 4.34-5.83-.55-6.02-.56" fill="#d1dbdd" stroke="rgb(209, 219, 221)" stroke-width="0.1" data-originalStrokeWidth="0.1" style="stroke: rgb(0, 0, 0); fill: rgb(209, 219, 221); pointer-events: auto; stroke-width: 0.1;" pointer-events="auto"/>
      <path id="AZ07" d="m417.58 634.5-6.6-.63-5.75-.57-5.32-.52-8.05-.78-4.36-.47-6-.65-2.52-.25-3.54-.36-1.3-.67-6.13-3.14-4.93-2.53-5.34-2.72-12.06-6.2-9.14-4.7-6.52-3.37-1.55-.78-5.7-2.94-7.38-3.93-9.63-5.18-9.37-5.04-14.07-7.56-.81-.44v-.39l.34-.08-.19-.46.35-.34-.05-.3.35-.16.1-.5-.42.23-.15-.04.03-.28.24-.1.06-.26.17-.33-.17-.37v-.41l.33-.23.19.12.27-.07.12-.25.4-.2.02-.25.45-.28.22-.52.48-.64v-.11l.41-.5.09-.2.42-.5.45.32.3.14.45.1.76.26.18.06.05-.02v-.02h.01l.1-.15.8.1.02-.22.45.07.04-.23.67.1.03-.23.32.05v-.11l-.05.43-.23.37-.2.2-.33.15-.58-.1-.4-.17-.26.08-.01.12-.35-.14-.01.54.06.22.2.17-.08.37-.77-.14v-.11l-.25-.04.05.2-.18.26-.67-.1.06-.45-.44-.08-.27 1.83 1.35.2-.31 2.28 1.8.25.12-.9.23.04.07-.48.21.02.1-.67.13-.22 4.81.69-.02.22 2.42.34.98.14 2.9.43.04-.22.67.08.03-.23 1.36.18.02-.23.45.05.02-.2 1.36.17.06-.46 2.25.3.06-.45 1.8.25.07-.46 1.77.25.14-.98.3.04.4-.02 2.87-.85 3.59.45 3.8.52 1.07-8.02 2-.79 1.85-.74.31-.08.33.05.69-.08 1.39-1.18.2-.04.1-.2.92-.75.24-.15.51-.52.19-.13.7.11 2.02.22v.05l2.43.32-.35 2.73 5.04.66.06-.47.9.1 2.7.35.33-2.73.91.11-.11.91 2.68.35.32-2.74-.66-.08.05-.45.68.08.28-2.28.44.05.05-.4-.55-.12.05-.32-.1-.16.23.04.11-1.05.13-.08-.04-.23.21-.32-.09-.13.33.03.12-.9-.38-.04-.04-.25.37-.17.82.1 1.06.1-.12.92.9.09-.06.43.45.04-.05.47-1.34-.12-.2 1.72h-.44l-.34-.17-.1.08-.52 4.2 1.43.19 1.27.13-.84 6.85-.16 1.12.1.01.02.47.83.1.15.24.61.09.1-.46.9.15 1.3.13-.1.95-.17 1-.16 1.37-.45-.04-.1.89.9.13.1-.92 1.35.17-.05.46.87.1.06-.46.96.12-.08.21.9.11.89.1-.06.68.44.07-.08.69 1.79.22-.1.9.45.05-.15 1.14.46.05-.08.69.66.76-.51-.04-.12.92.67.08-.05.44.45.05-.12.93 3.62.4.9.1-.1.91.44.05v.11l.44.03-.4 3.57 2.99.33.22.08.09.2-.08.7.33.3.27.41.23.04-.2 1.8.9.11h.51l.25-.2.22.02-.13 1.15.48.03-.01-.11.9.1.03-.34.24.02.02-.23.22.02-.13.22.8.17-.09.48-.24-.01-.03.32.23.03.11.24.05.46.23.04-.04.45.3.07.12.2 1.34.15.01-.11.31-.07.76.5.5.36h.38l-.05.35.45.09-.06.54.92.08-.1.92.44.04-.04.46 2.1.24.03.4.38.57-1.79-.22-.2-.1-.61-.06-.09 1.01-.12.9.66.06.28-.19.44.04-.21 2.08-.19 1.41-.23 2.11-.47.13-.9-.1-.05.46-.58-.08.02-.22-.31-.03-.05.35-.1-.01-.06.56-.28-.04-.1.59-.1.21-.12-.14-.77-.07-.4.23-.2.27-.1.89.23.03-1.36 2.5.23.38-.6.95 2.67.28 2.7.3.02-.17 5.2.56 5.5.58-.38 3.68-.23-.02-.47 4.53h.03l-.22 2.2.06-.13.34-.14.21-.4.16.19.1-.04.1.32.1-.01.32.89.2.24.48-.03.33.06.12-.07.19.2.21.03.12.2.34-.11.23.23.5.16.3.24.1-.35.35.25.21.01.51.27.13.22.11-.05.38.07.38-.06.08-.89-.42-.14-.4-.55.02-.3 3.16.3-.06.47.43.04-.17.44 1.14.09.82.1.13-1.35.91.08.02-.39.13-1.04-1.33-.12.25-2.64 1.32.1 1.22.13 2.82.28.01-.12.63 1.27-.1 1.29-.04.64-.16.46.24.18 3.18.3 1.8.2.04-.48-.45-.03.07-.46.79.1-.08-.28.55-.18.34.05-.04.48 1.13.1 1.12.13-.01.2.2.04.4.26-.24.16-.1.48.12.07-.22.3.36.06.07.28.17.15.05.54-.14.33-.3.17v.54l-.31.57h-.2" fill="#d1dbdd" stroke="rgb(209, 219, 221)" stroke-width="0.1" data-originalStrokeWidth="0.1" style="stroke: rgb(0, 0, 0); filter: none; fill: rgb(209, 219, 221); pointer-events: auto; stroke-width: 0.1;" pointer-events="auto"/>
      <path id="AZ08" d="m351.6 545.82 1.63.73v-.25l.48-.37h.46l.04-.3.2-.01.18-.61-.24-.17.17-.2-.08-.31.27.12.42-.26v-.11l.33-.07.26-.2.05-.39.4-.44-.05-.2.33-.15.1.18.16-.15-.06-.28.13-.49-.05-.2 2.53.64-.53 4.3.9.11-.27 2.29.22.08-.1.86.07.01.5.91-.1.77-.97 1.43-.4-.32-.15.08-.03.34h-.23l-.2-.31-.04.11-.86-.1-.37-.1v.51l-.08.48.34.03-.5 4.33-.9-.1-.1-.25-1.67-.2-.44-.04.05-.45-2.23-.22.05-.46.18.02-.02-.45h.11l.1-.8-.16-.07.1-.52h-.1l.05-.48-3.08-.4-.86-.1.29-.42.37-.11.15-.26.46-.42.2-.09.22.12.26-.25.45-.08.6-.02.74.1.24-.1.34-.68-.58-.07-.4.1.05-.34-.23-.04.04-.21-.23-.05.06-.46-.9-.1.11-.92-1.34-.16.18-1.57.44.16.22-1.73 1.35.18-.24 1.84.72-.22h.22l.24-1.95.03-.05" fill="#d1dbdd" stroke="rgb(209, 219, 221)" stroke-width="0.1" data-originalStrokeWidth="0.1" style="stroke: rgb(0, 0, 0); fill: rgb(209, 219, 221); pointer-events: auto; stroke-width: 0.1;" pointer-events="auto"/>
      <path id="AZ09" d="m351.6 545.82-.03.05-.24 1.94h-.22l-.72.23.24-1.84-1.35-.18-.22 1.73-.44-.17-.18 1.58 1.34.16-.1.91.9.11-.07.46.23.05-.04.21.23.04-.05.33.4-.1.57.07-.34.7-.23.1-.73-.1-.61.01-.45.08-.27.25-.22-.12-.18.09-.46.42-.16.26-.37.1-.3.43.87.1 3.08.39-.06.48.12.01-.11.52.15.07-.09.8h-.11l.02.45-.18-.02-.05.46 2.23.22-.05.45.44.04-.1.91-1.8-.17.06-.47-.57-.05-.13.2h-.2l-.27.65-.83-.09-.37.17.05.25.38.05-.12.9-.33-.04.1.13-.22.32.04.23-.13.08-.11 1.06-.23-.05.1.16-.05.32.55.12-.05.4-.44-.05-.28 2.28-.68-.08-.05.45.67.08-.33 2.74-2.68-.35.11-.91-.9-.1-.35 2.72-2.68-.34-.91-.11-.06.47-5.04-.66.35-2.73-2.44-.32v-.05l-2-.22-.7-.1-.19.12-.52.52-.24.15-.94.77-.07.18-.21.04-1.4 1.18-.68.08-.33-.05-.3.08-1.87.74-1.99.79-1.07 8.02-3.8-.52-3.59-.45-2.87.85-.4.02-.3-.04-.14.98-1.77-.25-.06.46-1.8-.25-.07.45-2.25-.3-.06.46-1.36-.18-.02.21-.45-.05-.02.23-1.36-.18-.02.23-.67-.08-.05.22-2.9-.43-.98-.14-2.42-.34.02-.22-4.8-.69-.15.2-.09.7-.22-.03-.06.48-.23-.03-.12.9-1.8-.26.3-2.28-1.34-.2.27-1.83.44.08-.06.45.67.1.18-.26-.04-.19.24.03v.11l.78.14.06-.37-.2-.18-.05-.2.01-.55.35.14.01-.12.26-.08.4.17.58.1.33-.15.2-.2.23-.37.06-.43-.06-.45.07-.53.68-.71.46-.16.02-.02.07-.05.67-.5.2-.9.05-.25.01-.1.13-.43.03-.45-.31-.44-.02-.36.32-.35.14-.32.03-.17v-.19l-.1-.12-.47.1-.1-.35v-.77l-.05-.23-.06-.2-.03-.09-.15-.25-.12-.12-.27-.12-1.2-.27-.03.02-.2.2-.09.01h-.28l-.33-.07-.35-.16-.27-.54-.16-.15-.37.43-.13.02-.2-.2-.06-.35.06-.27-.1-.15-.19-.49.04-.25-.44-.19v-.3l.19-.5.26-.5.29-.32.3-.6v-.23l.25-.57-.02-.49.18-.47.02-.2-.29-.68.43-.25.07-.15-.08-.33-.4-.37-.58-.25-.12-.12-.14-.47.23-.27.32-.19.15-.1.23-.4.15-.48.02-.29-.13-.56-.03-.2-.17-.3-.02-.06-.08-.09v-.3l.17-.02.16.06.35-.05.05-.06.34-.13h.28l.17.11.12.08.23.09.26-.08.24-.16.24-.28.2-.46.02-.27.74-.78.08-.19.27-.33.53-.15.26-.2.16-.49.94-.48-.06-.23-.07-.1-.03-.13-.05-.1-.02-.08v-.07l-.04-.18.03-.3.02-.1.25-.3.3-.24-.17-.44.02-.14.13-.03.08-.34-.1-.11-.08-.16.1-.18h.32l.15-.11-.3-.18-.14-.18.05-.17.04-.13.2-.18.33-.13h.11l.31-.11.12-.43-.01-.29-.3-.44-.03-.07.04-.1.26-.57-.01-.2-.16-.84-.02-.3-.16-.59.27-.3-.14-.85.02-.2.16-.05.07.03.2.05.29-.17.03-.35-.32-.41-.12-.44.22.14.25-.08-.12-.42-.4-.4-.07-.05v-.14l.25-.51.21-.22h.31l.4-.24.17-.1.06-.08.63-.56.2.01.05-.19-.17-.14.12-.26.21.07.3-.11.17-.2.16-.47-.02-.64.2-.67.09-.27.18-.15.1-.12.04-.04.09-.1.25-.18.24-.01.24.08.05.03.32-.15.35-.04.3-.33.24-.1.29.05.28-.04.4-.2.19-.23.13-.12.44-.36h.31l.16.07.38-.07.4-.23.27-.08.17-.2v-.26l.3-.17.74-.6.4-.29.08-.17.28-.1.03-.26.73.16.15-.11-.1-.48.02-.58.06-.2-.05-.14-.36-.43-.2-.74-.16-.32-.32-.27-.14-.12-.72-.33-.15-.35-.43-.49-.2-.37-.43-.14-.26-.26v-.24l-.17-.33-.37-.3-.23-.1-.09-.3-.19-.21-.81.02-.12-.04-.24-.35.18-.47.04-.13.07-.57.15-.35.05-.3-.02-.42-.15-.45-.27-.86-.39-.44-.3-.55.35-.13.04-.25-.33-.42-.02-.28.03-.42-.32-.53.22-.2-.07-.37-.2-.47-.06-.7-.39-.18v-.02l-.01-.05v-.05l-.03-.15-.6-.48-.29-.5-.49-.56-.13-.25-.08-.29-.09-.3-.08-.41v-.37l-.08-.42-.2-.46-.27-.3-.45-.4-.18-.34-.02-.5.11-.38.09-.2.04-.09.03-.14-.01-.31.04-.18.16-.54-.08-.47.05-.32.13-.25.08-.25v-.41l-.06-.25v-.25l.06-.41.08-.2.25-.31.47-.27.25-.33v-.23l-.02-.09-.16-.23-.52-.42-.1-.06-.07-.06-.03-.07-.04-.11.23-.26.19-.15.37-.12.38.08h.16l.34-.05.13-.05.25-.37-.03-.14.2-.55.07-.48.03-.16v-.54l-.13-.33v-.66l.05-.28.01-.6-.05-.41-.04-.95.14-.7-.02-.6-.07-.6-.12-.47-.08-.23-.01-.63-.13-.38-.47-.65-.21-.54-.02-.22-.01-.2.05-.32-.17-.28.08-.18-.1-.5.06-.26.1-.32.33-.15.23-.37-.08-.3.07-.64-.24-.56.4-.14.16-.24.12-.52-.25-.35-.16-.57-.3-.43.05-.46.12-.16.14-.22.03-.33-.4-.46-.05-.36.34-.8.03-.4.1-.16-.1-.34.14-.73-.25-.53.27-.26.2-.35.07-.16-.21-.47.1-.2.21-.01.38-.24.33-.03.18-.25-.18-.17-.14-.25-.39-.41.03-.02-.05-.08-.1-.24-.1-.13.09-.57-.13-.19-.48-1.4-.03-.27.14-.24-.02-.5.07-.16.08-.09.02-.02.25-.13.2-.22-.25-.32-.18-.04.04-.3.18-.2-.08-.25-.04-.18-.2-.62.17-.26.4-.24h.82l.28-.09.24.14.28-.18.2.03.1-.1.16-.18.69-.42.31.45.49-.27.73-.23.8.09.18.15.43-.04.14.06.17.29-.27.23.1.2h.52l.41-.23.3.08.1.28.17.16.56-.3.32-.24h.17l.62.27.25-.01.2.51.3.33.22.42.13.04.45.83.04.23-.34.42.14.13.25.04.17.24.47.22.09.57.45.47.26.12.54.02.54-.09.44-.15.2.02.14.05.17.12.22-.1.01-.2.22-.08.11-.2v-.3l.23-.47.34-.5.22-.23-.19-.4.18-.3.51-.08.2-.5.32-.37.08-.22.4-.65.26-.24.39-.11.07-.54.15-1.1.15-1.37.17-.9.1-.92.1-.44.1-.62.4-2.81.17-1.63.16-1.36.3-2.28.27-2.28.12-.91.03-.3.23-1.62.15-.91.28-2.11.47-3.3 1.12.16 1.71.25 2.24.3 5.44.78h.05l3.78.5 4.8.65 1.8.24 1.99.27.6.08 2.42.31h.07l.33.05h.05l.28.05h.07l1.43.18.8.1.37.05.78.11-.38 3.05.05.01-.3 2.25 5.63.7-.04.54-.2.49-.25.03-.01.31-.18.14.07.26-.16.34.2.38-.16.03-.07.53-.33.58.07.1-.21.17.1.14-.09.3-.16.12v.3l-.15.1.2.65-.1.08.11.82-.08.98-.24.18.04.25-.22.1v.23l-.22-.06-.01.19-.32.2.06.22-.08.22h-.2l.08.22-.11.16.08.17-.06.35.15.38.15.07.12.38-.12.06.26.09.1.4-.18.25-.44.22.1.03-.18.7.13.26h.17l.12.56-.2.2v.37l-.28.05-.27.26-.09.43-.18.25-.33.3-.36.12-.13-.4-.24-.08-.66.2-.08.13.07.62-.2.12-.27-.08-.17-.17-.3.03-.14.37-.27.2-.38-.03-.23.51-.19.01-.29-.18-.5.04-.16.2h-.21l-.46-.2-.32.1-.23.42-.52.25-.26-.18-.29.03-.2.35-.19.06-1.1.18-.65-.32-.26.05-.47.2-.49.53-.48.12-.19.13-.46.1-.51.28-.4.38-.24.07-.2-.23-.21-.09-.7.42-.44.14-.3.58.04.45-.37.29-.33.52-.16.03-.3-.17-.31.11-.56-.35-.54-.02-.3-.17-.3.25-.17.5-.14.2-.43.34-.23.44.03.88.16.33-.07.4.11.39.3.1.08.29-.01.23-.33.3v.5l-.3.63.26.58.23.15v.25l-.1.32-.01.34-.15.3-.36.4-.05.38-.18.18.04.29-.4.75-.5.34-.24.08-.45.49-.27.02-.64-.03-.4-.1-.8-.52-.46-.1-.58-.07-.39-.46-.3-.58-.45-.34-.1-.56-.16-.24-.62-.76-.27.06-.12.29-.28.4-.24.08-.25-.18-.17-.43.07-.38-.16-.23-.09-.35-.31-.37-.6-.19-.13-.23.08-.32-.08-.25.15-.8-.14-.33-.43-.11v-.21l.13-.23-.24-.47h-.2l-.29-.2-.18-.62-.03-.64.11-.43-.3-.17-.26-.62-.92-.2-.57-.25-.24-.17-.24-.3-.05-.32.04-.36-.19-.17-.28 2-.14.94-.8 5.64-.78.35-.18-.07.24.37-.07.42-.27.32-.4.08-.17-.1-.03-.25-.32-.01-.55.34-.03.28-.52.39-.81.38.5.42.85.3.07.07.2.75.36.76.48.9.18.5.14-.35.11-.04.3.22.25.08.52-.1.4.35.05.11-.52.15-.22.24v.5l.18.06.55-.22.41-.25.2-1.11.1-.85 1.08.62 3.43 5.6 1.93.27.48.04 1.44.23 2.85.4.57-.39v.27l-.65 4.83-.55 4.06-1.56 11.74-.7 5.21h-.01l-.5 3.65.02.01-.35 2.6-.96 7.17v.04l-.52 3.88-.01.08-.52 3.85 5.44.73 4.45.58 5.27.68 6.17 2.76 3.77 1.7" fill="#d1dbdd" stroke="rgb(209, 219, 221)" stroke-width="0.1" data-originalStrokeWidth="0.1" style="stroke: rgb(0, 0, 0); filter: none; fill: rgb(209, 219, 221); pointer-events: auto; stroke-width: 0.1;" pointer-events="auto"/>
      <g id="state_lines" stroke="rgb(209, 219, 221)" style="display: none; stroke: rgb(0, 0, 0);" stroke-width="0.1"/>
      <g id="state_abbr" fill="#000000" style="display: none; fill: rgb(0, 0, 0);">
        <text id="HI_label" x="491.79" y="769.82" style="font-size: 19.2455px; stroke-width: 1.60379; display: none;">
          <tspan id="HI_tspan" x="491.79" y="769.82" fill="#000000" dy="0" font-family="Arial" font-size="24.06" font-style="normal" font-weight="400" style="text-align: center; stroke-width: 2.57215; fill: rgb(0, 0, 0);" text-anchor="middle">HI</tspan>
        </text>
        <text id="AK_label" x="205.24" y="672.25" style="font-size: 19.2455px; stroke-width: 1.60379; display: none;">
          <tspan id="AK_tspan" x="205.24" y="672.25" fill="#000000" dy="0" font-family="Arial" font-size="24.06" font-style="normal" font-weight="400" style="text-align: center; stroke-width: 2.57215; fill: rgb(0, 0, 0);" text-anchor="middle">AK</tspan>
        </text>
        <text id="FL_label" x="1188.11" y="708.7" style="font-size: 19.2455px; stroke-width: 1.60379; display: none;">
          <tspan id="FL_tspan" x="1188.11" y="708.7" fill="#000000" dy="0" font-family="Arial" font-size="24.06" font-style="normal" font-weight="400" style="text-align: center; stroke-width: 2.57215; fill: rgb(0, 0, 0);" text-anchor="middle">FL</tspan>
        </text>
        <text id="NH_label" x="1306.05" y="167.79" stroke-width="1.1" font-size="13.25" style="display: none;">
          <tspan id="NH_tspan" x="1306.05" y="167.79" fill="#000000" stroke-width="1.1" dy="0" font-family="Arial" font-size="16.56" font-style="normal" font-weight="400" style="text-align: center; fill: rgb(0, 0, 0);" text-anchor="middle">NH</tspan>
        </text>
        <text id="MI_label" x="1019.65" y="246.58" style="font-size: 19.2455px; stroke-width: 1.60379; display: none;">
          <tspan id="MI_tspan" x="1019.65" y="246.58" fill="#000000" dy="0" font-family="Arial" font-size="24.06" font-style="normal" font-weight="400" style="text-align: center; stroke-width: 2.57215; fill: rgb(0, 0, 0);" text-anchor="middle">MI</tspan>
        </text>
        <text id="VT_label" x="1274.28" y="145.01" stroke-width="1.05" font-size="12.65" style="display: none;">
          <tspan id="VT_tspan" x="1274.28" y="145.01" fill="#000000" stroke-width="1.05" dy="0" font-family="Arial" font-size="15.81" font-style="normal" font-weight="400" style="text-align: center; fill: rgb(0, 0, 0);" text-anchor="middle">VT</tspan>
        </text>
        <text id="ME_label" x="1338.99" y="105.14" stroke-width="1.45" font-size="17.36" style="display: none;">
          <tspan id="ME_tspan" x="1338.99" y="105.14" fill="#000000" stroke-width="1.45" dy="0" font-family="Arial" font-size="21.7" font-style="normal" font-weight="400" style="text-align: center; fill: rgb(0, 0, 0);" text-anchor="middle">ME</tspan>
        </text>
        <text id="RI_label" x="1361.38" y="262.84" stroke-width="1.25" font-size="14.98" style="display: none;">
          <tspan id="RI_tspan" x="1361.38" y="262.84" fill="#000000" stroke-width="1.25" dy="0" font-family="Arial" font-size="18.72" font-style="normal" font-weight="400" style="text-align: center; fill: rgb(0, 0, 0);" text-anchor="middle">RI</tspan>
        </text>
        <text id="NY_label" x="1227.27" y="204.12" style="font-size: 19.2455px; stroke-width: 1.60379; display: none;">
          <tspan id="NY_tspan" x="1227.27" y="204.12" fill="#000000" dy="0" font-family="Arial" font-size="24.06" font-style="normal" font-weight="400" style="text-align: center; stroke-width: 2.57215; fill: rgb(0, 0, 0);" text-anchor="middle">NY</tspan>
        </text>
        <text id="PA_label" x="1187.28" y="284.69" style="font-size: 19.2455px; stroke-width: 1.60379; display: none;">
          <tspan id="PA_tspan" x="1187.28" y="284.69" fill="#000000" dy="0" font-family="Arial" font-size="24.06" font-style="normal" font-weight="400" style="text-align: center; stroke-width: 2.57215; fill: rgb(0, 0, 0);" text-anchor="middle">PA</tspan>
        </text>
        <text id="NJ_label" x="1330.57" y="290.09" stroke-width="1.28" font-size="15.4" style="display: none;">
          <tspan id="NJ_tspan" x="1330.57" y="290.09" fill="#000000" stroke-width="1.28" dy="0" font-family="Arial" font-size="19.25" font-style="normal" font-weight="400" style="text-align: center; fill: rgb(0, 0, 0);" text-anchor="middle">NJ</tspan>
        </text>
        <text id="DE_label" x="1320.8" y="328.42" stroke-width="1.36" font-size="16.38" style="display: none;">
          <tspan id="DE_tspan" x="1320.8" y="328.42" fill="#000000" stroke-width="1.36" dy="0" font-family="Arial" font-size="20.47" font-style="normal" font-weight="400" style="text-align: center; fill: rgb(0, 0, 0);" text-anchor="middle">DE</tspan>
        </text>
        <text id="MD_label" x="1310.72" y="368.46" stroke-width="1.34" font-size="16.11" style="display: none;">
          <tspan id="MD_tspan" x="1310.72" y="368.46" fill="#000000" stroke-width="1.34" dy="0" font-family="Arial" font-size="20.13" font-style="normal" font-weight="400" style="text-align: center; fill: rgb(0, 0, 0);" text-anchor="middle">MD</tspan>
        </text>
        <text id="VA_label" x="1198.59" y="392.33" style="font-size: 19.2455px; stroke-width: 1.60379; display: none;">
          <tspan id="VA_tspan" x="1198.59" y="392.33" fill="#000000" dy="0" font-family="Arial" font-size="24.06" font-style="normal" font-weight="400" style="text-align: center; stroke-width: 2.57215; fill: rgb(0, 0, 0);" text-anchor="middle">VA</tspan>
        </text>
        <text id="WV_label" x="1129.66" y="382.3" style="font-size: 19.2455px; stroke-width: 1.60379; display: none;">
          <tspan id="WV_tspan" x="1129.66" y="382.3" fill="#000000" dy="0" font-family="Arial" font-size="24.06" font-style="normal" font-weight="400" style="text-align: center; stroke-width: 2.57215; fill: rgb(0, 0, 0);" text-anchor="middle">WV</tspan>
        </text>
        <text id="OH_label" x="1079.05" y="334.46" style="font-size: 19.2455px; stroke-width: 1.60379; display: none;">
          <tspan id="OH_tspan" x="1079.05" y="334.46" fill="#000000" dy="0" font-family="Arial" font-size="24.06" font-style="normal" font-weight="400" style="text-align: center; stroke-width: 2.57215; fill: rgb(0, 0, 0);" text-anchor="middle">OH</tspan>
        </text>
        <text id="IN_label" x="998.79" y="352.94" style="font-size: 19.2455px; stroke-width: 1.60379; display: none;">
          <tspan id="IN_tspan" x="998.79" y="352.94" fill="#000000" dy="0" font-family="Arial" font-size="24.06" font-style="normal" font-weight="400" style="text-align: center; stroke-width: 2.57215; fill: rgb(0, 0, 0);" text-anchor="middle">IN</tspan>
        </text>
        <text id="IL_label" x="927.43" y="364.36" style="font-size: 19.2455px; stroke-width: 1.60379; display: none;">
          <tspan id="IL_tspan" x="927.43" y="364.36" fill="#000000" dy="0" font-family="Arial" font-size="24.06" font-style="normal" font-weight="400" style="text-align: center; stroke-width: 2.57215; fill: rgb(0, 0, 0);" text-anchor="middle">IL</tspan>
        </text>
        <text id="CT_label" x="1299.17" y="228.46" stroke-width="1.06" font-size="12.74" style="display: none;">
          <tspan id="CT_tspan" x="1299.17" y="228.46" fill="#000000" stroke-width="1.06" dy="0" font-family="Arial" font-size="15.93" font-style="normal" font-weight="400" style="text-align: center; fill: rgb(0, 0, 0);" text-anchor="middle">CT</tspan>
        </text>
        <text id="WI_label" x="898.6" y="224.7" style="font-size: 19.2455px; stroke-width: 1.60379; display: none;">
          <tspan id="WI_tspan" x="898.6" y="224.7" fill="#000000" dy="0" font-family="Arial" font-size="24.06" font-style="normal" font-weight="400" style="text-align: center; stroke-width: 2.57215; fill: rgb(0, 0, 0);" text-anchor="middle">WI</tspan>
        </text>
        <text id="NC_label" x="1205.6" y="458.72" style="font-size: 19.2455px; stroke-width: 1.60379; display: none;">
          <tspan id="NC_tspan" x="1205.6" y="458.72" fill="#000000" dy="0" font-family="Arial" font-size="24.06" font-style="normal" font-weight="400" style="text-align: center; stroke-width: 2.57215; fill: rgb(0, 0, 0);" text-anchor="middle">NC</tspan>
        </text>
        <text id="MA_label" x="1305.87" y="200.67" stroke-width="1.04" font-size="12.46" style="display: none;">
          <tspan id="MA_tspan" x="1305.87" y="200.67" fill="#000000" stroke-width="1.04" dy="0" font-family="Arial" font-size="15.58" font-style="normal" font-weight="400" style="text-align: center; fill: rgb(0, 0, 0);" text-anchor="middle">MA</tspan>
        </text>
        <text id="MO_label" x="854.22" y="422.93" style="font-size: 19.2455px; stroke-width: 1.60379; display: none;">
          <tspan id="MO_tspan" x="854.22" y="422.93" fill="#000000" dy="0" font-family="Arial" font-size="24.06" font-style="normal" font-weight="400" style="text-align: center; stroke-width: 2.57215; fill: rgb(0, 0, 0);" text-anchor="middle">MO</tspan>
        </text>
        <text id="GA_label" x="1106.89" y="574.56" style="font-size: 19.2455px; stroke-width: 1.60379; display: none;">
          <tspan id="GA_tspan" x="1106.89" y="574.56" fill="#000000" dy="0" font-family="Arial" font-size="24.06" font-style="normal" font-weight="400" style="text-align: center; stroke-width: 2.57215; fill: rgb(0, 0, 0);" text-anchor="middle">GA</tspan>
        </text>
        <text id="SC_label" x="1166.32" y="522.49" style="font-size: 19.2455px; stroke-width: 1.60379; display: none;">
          <tspan id="SC_tspan" x="1166.32" y="522.49" fill="#000000" dy="0" font-family="Arial" font-size="24.06" font-style="normal" font-weight="400" style="text-align: center; stroke-width: 2.57215; fill: rgb(0, 0, 0);" text-anchor="middle">SC</tspan>
        </text>
        <text id="KY_label" x="1039.99" y="426.39" style="font-size: 19.2455px; stroke-width: 1.60379; display: none;">
          <tspan id="KY_tspan" x="1039.99" y="426.39" fill="#000000" dy="0" font-family="Arial" font-size="24.06" font-style="normal" font-weight="400" style="text-align: center; stroke-width: 2.57215; fill: rgb(0, 0, 0);" text-anchor="middle">KY</tspan>
        </text>
        <text id="AL_label" x="1019.59" y="578.15" style="font-size: 19.2455px; stroke-width: 1.60379; display: none;">
          <tspan id="AL_tspan" fill="#000000" dy="0" font-family="Arial" font-size="24.06" font-style="normal" font-weight="400" style="text-align: center; stroke-width: 2.57215; fill: rgb(0, 0, 0);" text-anchor="middle">AL</tspan>
        </text>
        <text id="LA_label" x="872.7" y="649.59" style="font-size: 19.2455px; stroke-width: 1.60379; display: none;">
          <tspan id="LA_tspan" x="872.7" y="649.59" fill="#000000" dy="0" font-family="Arial" font-size="24.06" font-style="normal" font-weight="400" style="text-align: center; stroke-width: 2.57215; fill: rgb(0, 0, 0);" text-anchor="middle">LA</tspan>
        </text>
        <text id="MS_label" x="940.37" y="592.21" style="font-size: 19.2455px; stroke-width: 1.60379; display: none;">
          <tspan id="MS_tspan" x="940.37" y="592.21" fill="#000000" dy="0" font-family="Arial" font-size="24.06" font-style="normal" font-weight="400" style="text-align: center; stroke-width: 2.57215; fill: rgb(0, 0, 0);" text-anchor="middle">MS</tspan>
        </text>
        <text id="IA_label" x="823.33" y="308.44" style="font-size: 19.2455px; stroke-width: 1.60379; display: none;">
          <tspan id="IA_tspan" x="823.33" y="308.44" fill="#000000" dy="0" font-family="Arial" font-size="24.06" font-style="normal" font-weight="400" style="text-align: center; stroke-width: 2.57215; fill: rgb(0, 0, 0);" text-anchor="middle">IA</tspan>
        </text>
        <text id="MN_label" x="790.84" y="183.37" style="font-size: 19.2455px; stroke-width: 1.60379; display: none;">
          <tspan id="MN_tspan" x="790.84" y="183.37" fill="#000000" dy="0" font-family="Arial" font-size="24.06" font-style="normal" font-weight="400" style="text-align: center; stroke-width: 2.57215; fill: rgb(0, 0, 0);" text-anchor="middle">MN</tspan>
        </text>
        <text id="OK_label" x="732.05" y="519.54" style="font-size: 19.2455px; stroke-width: 1.60379; display: none;">
          <tspan id="OK_tspan" x="732.05" y="519.54" fill="#000000" dy="0" font-family="Arial" font-size="24.06" font-style="normal" font-weight="400" style="text-align: center; stroke-width: 2.57215; fill: rgb(0, 0, 0);" text-anchor="middle">OK</tspan>
        </text>
        <text id="TX_label" x="710.59" y="652.87" style="font-size: 19.2455px; stroke-width: 1.60379; display: none;">
          <tspan id="TX_tspan" x="710.59" y="652.87" fill="#000000" dy="0" font-family="Arial" font-size="24.06" font-style="normal" font-weight="400" style="text-align: center; stroke-width: 2.57215; fill: rgb(0, 0, 0);" text-anchor="middle">TX</tspan>
        </text>
        <text id="NM_label" x="506.94" y="542.36" style="font-size: 19.2455px; stroke-width: 1.60379; display: none;">
          <tspan id="NM_tspan" x="506.94" y="542.36" fill="#000000" dy="0" font-family="Arial" font-size="24.06" font-style="normal" font-weight="400" style="text-align: center; stroke-width: 2.57215; fill: rgb(0, 0, 0);" text-anchor="middle">NM</tspan>
        </text>
        <text id="KS_label" x="701.21" y="427.26" style="font-size: 19.2455px; stroke-width: 1.60379; display: none;">
          <tspan id="KS_tspan" x="701.21" y="427.26" fill="#000000" dy="0" font-family="Arial" font-size="24.06" font-style="normal" font-weight="400" style="text-align: center; stroke-width: 2.57215; fill: rgb(0, 0, 0);" text-anchor="middle">KS</tspan>
        </text>
        <text id="NE_label" x="686.63" y="337.29" style="font-size: 19.2455px; stroke-width: 1.60379; display: none;">
          <tspan id="NE_tspan" x="686.63" y="337.29" fill="#000000" dy="0" font-family="Arial" font-size="24.06" font-style="normal" font-weight="400" style="text-align: center; stroke-width: 2.57215; fill: rgb(0, 0, 0);" text-anchor="middle">NE</tspan>
        </text>
        <text id="SD_label" x="663.02" y="238.75" style="font-size: 19.2455px; stroke-width: 1.60379; display: none;">
          <tspan id="SD_tspan" x="663.02" y="238.75" fill="#000000" dy="0" font-family="Arial" font-size="24.06" font-style="normal" font-weight="400" style="text-align: center; stroke-width: 2.57215; fill: rgb(0, 0, 0);" text-anchor="middle">SD</tspan>
        </text>
        <text id="ND_label" x="663.02" y="150.75" style="font-size: 19.2455px; stroke-width: 1.60379; display: none;">
          <tspan id="ND_tspan" x="663.02" y="150.75" fill="#000000" dy="0" font-family="Arial" font-size="24.06" font-style="normal" font-weight="400" style="text-align: center; stroke-width: 2.57215; fill: rgb(0, 0, 0);" text-anchor="middle">ND</tspan>
        </text>
        <text id="WY_label" x="499.57" y="276.47" style="font-size: 19.2455px; stroke-width: 1.60379; display: none;">
          <tspan id="WY_tspan" x="499.57" y="276.47" fill="#000000" dy="0" font-family="Arial" font-size="24.06" font-style="normal" font-weight="400" style="text-align: center; stroke-width: 2.57215; fill: rgb(0, 0, 0);" text-anchor="middle">WY</tspan>
        </text>
        <text id="MT_label" x="487.84" y="155.58" style="font-size: 19.2455px; stroke-width: 1.60379; display: none;">
          <tspan id="MT_tspan" x="487.84" y="155.58" fill="#000000" dy="0" font-family="Arial" font-size="24.06" font-style="normal" font-weight="400" style="text-align: center; stroke-width: 2.57215; fill: rgb(0, 0, 0);" text-anchor="middle">MT</tspan>
        </text>
        <text id="CO_label" x="525.13" y="406.28" style="font-size: 19.2455px; stroke-width: 1.60379; display: none;">
          <tspan id="CO_tspan" x="525.13" y="406.28" fill="#000000" dy="0" font-family="Arial" font-size="24.06" font-style="normal" font-weight="400" style="text-align: center; stroke-width: 2.57215; fill: rgb(0, 0, 0);" text-anchor="middle">CO</tspan>
        </text>
        <text id="ID_label" x="339.94" y="235.07" style="font-size: 19.2455px; stroke-width: 1.60379; display: none;">
          <tspan id="ID_tspan" x="339.94" y="235.07" fill="#000000" dy="0" font-family="Arial" font-size="24.06" font-style="normal" font-weight="400" style="text-align: center; stroke-width: 2.57215; fill: rgb(0, 0, 0);" text-anchor="middle">ID</tspan>
        </text>
        <text id="UT_label" x="396.81" y="386.73" style="font-size: 19.2455px; stroke-width: 1.60379; display: none;">
          <tspan id="UT_tspan" x="396.81" y="386.73" fill="#000000" dy="0" font-family="Arial" font-size="24.06" font-style="normal" font-weight="400" style="text-align: center; stroke-width: 2.57215; fill: rgb(0, 0, 0);" text-anchor="middle">UT</tspan>
        </text>
        <text id="AZ_label" x="366.76" y="536.9" style="font-size: 19.2455px; stroke-width: 1.60379; display: none;">
          <tspan id="AZ_tspan" x="366.76" y="536.9" fill="#000000" dy="0" font-family="Arial" font-size="24.06" font-style="normal" font-weight="400" style="text-align: center; stroke-width: 2.57215; fill: rgb(0, 0, 0);" text-anchor="middle">AZ</tspan>
        </text>
        <text id="NV_label" x="262.47" y="370.64" style="font-size: 19.2455px; stroke-width: 1.60379; display: none;">
          <tspan id="NV_tspan" x="262.47" y="370.64" fill="#000000" dy="0" font-family="Arial" font-size="24.06" font-style="normal" font-weight="400" style="text-align: center; stroke-width: 2.57215; fill: rgb(0, 0, 0);" text-anchor="middle">NV</tspan>
        </text>
        <text id="OR_label" x="214.43" y="206.88" style="font-size: 19.2455px; stroke-width: 1.60379; display: none;">
          <tspan id="OR_tspan" x="214.43" y="206.88" fill="#000000" dy="0" font-family="Arial" font-size="24.06" font-style="normal" font-weight="400" style="text-align: center; stroke-width: 2.57215; fill: rgb(0, 0, 0);" text-anchor="middle">OR</tspan>
        </text>
        <text id="WA_label" x="238.05" y="102.99" style="font-size: 19.2455px; stroke-width: 1.60379; display: none;">
          <tspan id="WA_tspan" x="238.05" y="102.99" fill="#000000" dy="0" font-family="Arial" font-size="24.06" font-style="normal" font-weight="400" style="text-align: center; stroke-width: 2.57215; fill: rgb(0, 0, 0);" text-anchor="middle">WA</tspan>
        </text>
        <text id="CA_label" x="191.69" y="434.8" style="font-size: 19.2455px; stroke-width: 1.60379; display: none;">
          <tspan id="CA_tspan" x="191.69" y="434.8" fill="#000000" dy="0" font-family="Arial" font-size="24.06" font-style="normal" font-weight="400" style="text-align: center; stroke-width: 2.57215; fill: rgb(0, 0, 0);" text-anchor="middle">CA</tspan>
        </text>
        <text id="DC_label" x="1309.32" y="398.19" stroke-width="1.29" font-size="15.45" style="display: none;">
          <tspan id="DC_tspan" x="1309.32" y="398.19" fill="#000000" stroke-width="1.29" dy="0" font-family="Arial" font-size="19.31" font-style="normal" font-weight="400" style="text-align: center; fill: rgb(0, 0, 0);" text-anchor="middle">DC</tspan>
        </text>
        <text id="TN_label" x="1018.93" y="485.72" style="font-size: 19.2455px; stroke-width: 1.60379; display: none;">
          <tspan id="TN_tspan" x="1018.93" y="485.72" fill="#000000" dy="0" font-family="Arial" font-size="24.06" font-style="normal" font-weight="400" style="text-align: center; stroke-width: 2.57215; fill: rgb(0, 0, 0);" text-anchor="middle">TN</tspan>
        </text>
        <text id="AR_label" x="863.15" y="535.77" style="font-size: 19.2455px; stroke-width: 1.60379; display: none;">
          <tspan id="AR_tspan" x="863.15" y="535.77" fill="#000000" dy="0" font-family="Arial" font-size="24.06" font-style="normal" font-weight="400" style="text-align: center; stroke-width: 2.57215; fill: rgb(0, 0, 0);" text-anchor="middle">AR</tspan>
        </text>
      </g>
      <g id="state_borders" transform="translate(-0.04777967,-0.15336683)" stroke="rgb(209, 219, 221)" style="stroke: rgb(0, 0, 0);" stroke-width="0.3">
        <path id="AZ_NM_border" d="m429.5 635.62.88-9.55 3.2-35.9 1.3-14.87 1.76-19.7.32-3.95 2.7-30.28 1.08-12.75 2.13-23.83 2.45-27.9" stroke="rgb(209, 219, 221)" stroke-width="0.3" fill="none" style="stroke: rgb(0, 0, 0); display: none;"/>
      </g>
      <rect id="selection-rectangle" fill="#ffffccaa" stroke="rgb(209, 219, 221)" stroke-width="0.1"/>
      <ellipse id="selection-ellipse" fill="#ffffccaa" stroke="rgb(209, 219, 221)" stroke-width="0.1"/>
      <polygon id="selection-polygon" fill="#ffffccaa" stroke="rgb(209, 219, 221)" stroke-width="0.1"/>
      <polyline id="selection-polyline" fill="#ffffccaa" stroke="rgb(209, 219, 221)" stroke-width="0.1"/>
    </svg>
  </g>
  <svg id="legend-svg" width="100%" height="100%" style="overflow:visible;" class="ui-draggable ui-draggable-handle" x="1328.321548461914" y="504">
    <g id="legend-g-svg" fill="#000" transform="translate(0,0) scale(1)" style="font-family: Helvetica; font-weight: 400; font-style: normal;">
      <rect id="legend-bg-rect-svg" x="0" y="0" rx="3.8" ry="3.8" width="190" height="20" fill="#000000" stroke="rgb(209, 219, 221)" fill-opacity="0" stroke-width="0.1"/>
    </g>
  </svg>
</svg>
