<?xml version='1.0' encoding='UTF-8'?>
<svg xmlns="http://www.w3.org/2000/svg" xmlns:dc="http://purl.org/dc/elements/1.1/" xmlns:ns2="http://creativecommons.org/ns#" xmlns:rdf="http://www.w3.org/1999/02/22-rdf-syntax-ns#" id="wrapper" viewBox="0 0 1520 840" preserveAspectRatio="xMinYMin" height="840" width="1520" style="background-color: rgb(255, 255, 255);">
  <metadata>
    <rdf:rdf>
      <ns2:work rdf:about="">
        <dc:format>image/svg+xml</dc:format>
        <dc:type rdf:resource="http://purl.org/dc/dcmitype/StillImage"/>
        <dc:title>MapChart Map</dc:title>
        <dc:creator>
          <ns2:agent>
            <dc:title>MapChart.net</dc:title>
          </ns2:agent>
        </dc:creator>
        <ns2:license rdf:resource="http://creativecommons.org/licenses/by-sa/4.0/"/>
        <dc:description>This map was created with MapChart.net, a website for creating custom maps.</dc:description>
      </ns2:work>
      <ns2:license rdf:about="http://creativecommons.org/licenses/by-sa/4.0/">
        <ns2:permits rdf:resource="http://creativecommons.org/ns#Reproduction"/>
        <ns2:permits rdf:resource="http://creativecommons.org/ns#Distribution"/>
        <ns2:requires rdf:resource="http://creativecommons.org/ns#Notice"/>
        <ns2:requires rdf:resource="http://creativecommons.org/ns#Attribution"/>
        <ns2:requires rdf:resource="http://creativecommons.org/ns#ShareAlike"/>
      </ns2:license>
    </rdf:rdf>
  </metadata>
  <g id="map-group" transform="translate(-4766.764220099358,-2931.347480163332) scale(6.3630959765681885)">
    <svg id="map" width="1520" height="840" version="1.1" viewBox="0 0 1520 840" preserveAspectRatio="xMinYMin" data-originalStrokeWidth="0.3">
      <defs>
        <pattern id="circles3" width="10" height="10" patternUnits="userSpaceOnUse">    <rect width="10" height="10" fill="#fff"/>    <circle cx="4" cy="4" r="2" fill="#000"/>    </pattern>
        <pattern id="diagonal1" width="10" height="10" patternUnits="userSpaceOnUse">    <rect width="10" height="10" fill="#fff"/>    </pattern>
        <pattern id="diagonal3" width="10" height="10" patternUnits="userSpaceOnUse">    <rect width="10" height="10" fill="#fff"/>    </pattern>
        <pattern id="vertical1" width="10" height="10" patternUnits="userSpaceOnUse">    <rect width="10" height="10" fill="#fff"/>    <rect x="2" y="0" width="1" height="10" fill="#000"/>    </pattern>
        <pattern id="vertical3" width="10" height="10" patternUnits="userSpaceOnUse">    <rect width="10" height="10" fill="#fff"/>    <rect x="2" y="0" width="3" height="10" fill="#000"/>    </pattern>
        <pattern id="horizontal1" width="10" height="10" patternUnits="userSpaceOnUse">    <rect width="10" height="10" fill="#fff"/>    <rect x="0" y="2" width="10" height="1" fill="#000"/>    </pattern>
        <pattern id="horizontal3" width="10" height="10" patternUnits="userSpaceOnUse">    <rect width="10" height="10" fill="#fff"/>    <rect x="0" y="2" width="10" height="3" fill="#000"/>    </pattern>
        <pattern id="crosshatch" width="8" height="8" patternUnits="userSpaceOnUse">    <rect width="8" height="8" fill="#fff"/>    </pattern>
        <pattern id="subtlepatch" width="5" height="5" patternUnits="userSpaceOnUse">    <rect width="5" height="5" fill="#fff"/>    <rect x="2" y="2" width="1" height="1" fill="#000"/>    </pattern>
        <pattern id="checkers" width="8" height="8" patternUnits="userSpaceOnUse">    <rect width="8" height="8" fill="#fff"/>    </pattern>
        <pattern id="raindrops" width="10" height="10" patternUnits="userSpaceOnUse">    <rect width="10" height="10" fill="#fff"/>    </pattern>
        <pattern id="texture" width="4" height="4" patternUnits="userSpaceOnUse">    <rect width="4" height="4" fill="#fff"/>    </pattern>
        <pattern id="circles3_a03500_000000" width="10" height="10" patternUnits="userSpaceOnUse">    <rect width="10" height="10" fill="#a03500"/>    <circle cx="4" cy="4" r="2" fill="#000000"/>    </pattern>
        <pattern id="diagonal1_d9b400_535353" width="10" height="10" patternUnits="userSpaceOnUse">    <rect width="10" height="10" fill="#d9b400"/>    </pattern>
        <pattern id="diagonal3_3264c8_ffffff" width="10" height="10" patternUnits="userSpaceOnUse">    <rect width="10" height="10" fill="#3264c8"/>    </pattern>
        <pattern id="horizontal1_72b38e_000000" width="10" height="10" patternUnits="userSpaceOnUse">    <rect width="10" height="10" fill="#72b38e"/>    <rect x="0" y="2" width="10" height="1" fill="#000000"/>    </pattern>
        <pattern id="horizontal3_986ba1_ffffff" width="10" height="10" patternUnits="userSpaceOnUse">    <rect width="10" height="10" fill="#986ba1"/>    <rect x="0" y="2" width="10" height="3" fill="#ffffff"/>    </pattern>
        <pattern id="vertical1_b9a087_ffffff" width="10" height="10" patternUnits="userSpaceOnUse">    <rect width="10" height="10" fill="#b9a087"/>    <rect x="2" y="0" width="1" height="10" fill="#ffffff"/>    </pattern>
        <pattern id="vertical3_4c91bf_ffff33" width="10" height="10" patternUnits="userSpaceOnUse">    <rect width="10" height="10" fill="#4c91bf"/>    <rect x="2" y="0" width="3" height="10" fill="#ffff33"/>    </pattern>
        <pattern id="checkers_cc3333_f7f7f7" width="8" height="8" patternUnits="userSpaceOnUse">    <rect width="8" height="8" fill="#cc3333"/>    </pattern>
        <pattern id="texture_d1dbdd_525252" width="4" height="4" patternUnits="userSpaceOnUse">    <rect width="4" height="4" fill="#d1dbdd"/>    </pattern>
        <style id="map-style">svg { background-color: #ffffff; }</style>
      </defs>
      <path id="AR01" d="m852.58 498.26-3.58.23-.19-2.8h.09l-.11-1.84-.11-2.25-.25-4.1h-.18l-.1-1.38-3.12.2-.45-.04-.91.08-.43.1-3.51.17-.53.02-.1-1.8-.09-.96-.2-3.7-.37-4.95-.17-.03.16-.16-.1-.29.13-.06h.03l.76-.05 1.3-.1.44-.03.3-.02 1.05-.09 1.22-.1.6-.05 1.19-.1h.18l.32-.04.34-.01.34-.04h.17l1.26-.12 1.1-.08h.14l.63-.06.58-.07h.04l1.4-.1.1-.02.53-.04.34-.03h.04l.34-.04 1.7-.15.58-.05.28-.01 1.26-.13.89-.07h.1l.18-.04.52-.03.31-.04.9-.06h.07l1.18-.1.59-.02.26-.05 1.19-.1.47-.05.55-.06h.12l1.44-.14.84-.09.7-.05.45-.05 1.01-.1.59-.04.66-.06.44-.04h.02l.63-.06.78-.08.54-.06h.03l.4-.04 1.75-.17.66-.06.33-.04.61-.05.56-.05 1.26-.13 2.27-.2.38-.07 1.64-.13 1.28-.1.89-.07.34-.02.08-.02 1.33-.11.92-.1.45-.05.4-.04.46-.04.56-.05.81-.1.42-.03.93-.1.22-.03.71-.07.44-.03.78-.09.54-.06.6-.06 1.93-.22.8-.09.38-.03.92-.1.39-.03.84-.1.79-.08.14-.01.56-.06 1.32-.15.7-.05 1.46-.17.68-.06.56-.07 1.24-.14.66-.07.24-.03.89-.09.52-.05.34-.04h.06l1.37-.14 1.47-.17h.26l.7-.1.34-.03 1.11-.12.67-.08.26-.03.7-.08h.1l-.07.06.05.07h-.1v.1l.03.01.02.07v.12l-.04.07-.03.04.01.05.16.04.07.03.04.01.16.01v.07l.03.05v.03l-.06.05-.2-.02-.05.13.05.09.07-.06h.02l.05.05.04.02h.05l.01-.06.03-.12.05.15v.11l.07.09.05.02.03.04h.04l-.05.14.04.12.02.04-.01.07-.03.23.02.06-.13.28.22.07.05.15-.07.1.03.05.22-.14v.16l.08.01h.1l.01-.02.04-.05v.07l.08.08.05-.07.01.03v.03l-.04.05.11-.05.02.08.03.03h.06l.07-.05.06.07.04.02.04-.07.43.05.1.12.14.11.1.06.1.08-.04.06v.02l.12.04h.02l-.04.04-.04.15.05.02.05-.03v.2l-.02.1.02.02-.05.1.02.05-.01.03.02.07v.05l-.04.05v.02h-.03l-.04.04-.01.05-.05.05v.02l-.02.07-.05.02.01.07.1.09v.06h-.02l-.05.03-.02.13v.03l.06.04h.02l-.02.14-.05.04v.07l-.05.01-.01.04.07.06-.02.02-.04.01.07.1.31.24.08.18.05.04-.05.15-.1.09.01.11-.18.13.07.18.05.1-.22.33-.17.03h-.09l-.04.05-.04.02-.07.03-.04.03h-.02l-.02.05v.02h-.1l-.01-.02-.07.02-.05.04v.11l-.03.13-.12.49h-.13l.15.25-.16.29-.25.01-.21.4-.39.1-.05.04-.05.06-.02.01h-.05l-.04.05v.04l-.01.03-.07-.04-.03.02-.01.08-.01.01h-.02l-.05.03-.04-.03-.03.01v.05l-.03.07-.07.06h-.06v.09l-.02.05-.07-.01-.02.04-.02.07h.02l.01.04-.07.07v.09l-.04.03-.1.02-.25.08-.1.19v.06l-.18.59.03.08h.04l-.02.05.07.02-.02.09.03.13-.04.05-.02.02h-.02v.07l-.02.03v.04l-.11.15-.1.02v.08l-.02.05h-.03v.03l-.08.07-.22.1-.12.24-.65.24-.08.24-.02.01v.17l-.02.03-.01.05.02.05-.02.02-.04.02-.07.07-.19.04-.03.05-.06.07-.05.02-.02.11.03.05v.06l-.01.03v.04l.04.05.02.08v.05l-.05.07v.09l-.05-.02h-.02v.02l-.04.02-.06.06h-.05l-.04.05h-.02l-.04.13.02.05-.04.05v.04h.04v.02l.03.02h.02l-.01.05v.02h-.01l-.06.03-.02.05v.07l.03.03v.1h-.1l-.05.07v.02h.02v.03l-.02.04h-.05l-.01.03-.05.02-.02.05.03.11.02.04-.02.05h-.03l-.01.08-.07.02v.02l.02.04h.03l.02.05v.07l-.04.04-.03.06-.1.17-.2.3-.1.4.8-.08.58-.08.55-.06 1.26-.15 1.42-.18 1.04-.12.2-.03.94-.12.9-.11 1.6-.2.78-.09.68-.08.94-.11.84-.11.74-.09 2.56-.32.25-.03.3.33.1.67.23.24 1.04.46.68.36.24.42.07.31-.05.58-.4.4-.35-.03-.45-.39-.65-.44-.3-.11-.41.06-.2.28-.27.35-.13.32-.01.41.2.32.37.13.82.19.74.26.05.3-.04.15-.27.3-.48.36-.2-.05-.06-.04-.26-.02-.44-.06v.05l-.37.19-.4.6.08.2-.03.35.07.34-.33.33-.61.33-.3-.1-.08-.26-.29-.04-.72.29-.41-.23-.2.2-.15.11-.36.26-.01.03-.01.13-.1.12-.25.2-.07.23.04.19.14.85.18.2.46.53.25.19.45.17.36-.05.26-.17.1-.3.27-.21.21.03.23.35.03.3-.01.24-.06.18-.43.3-.38.38-.23.06-.29-.04-.14.12-.35.22-.37.32-.2.48.1.3.4.55.36.15.36.02.13.16v.23l.1-.04.15.39-.12.36-.29.12h-.2l-.3-.14-.5-.14.01-.1.04-.22-.15-.28-.42-.3-.53-.18-.24.06-.32.17-.19.01-.3.24-.18 1.1.17.53.06.13.24.31.28.2.32.28.02.04.2.34.21.75-.42.36-.66.35-.18.25.34.2v.12l-.23.15-.46-.55.17-.25-.25-.24-.15-.49.08-.82-.03-.07-.3-.28-.24-.02-.3.05-.2.06-.24.3-.17.85-.16.13-.77.63v.38l-.15.8.04.09.37.22.47-.06.28-.11-.31-.46-.05-.25.1-.3.3-.18.36.04.5.45.44.26.11.34-.37.88-.2 1.42-.31.05-.44.22-.23-.1-.23.09-.14.26-.04.44.1.21.17.22.16.18.17.14.23.04.42-.14.39-.06.36.18.24.3.06.21.3.4-.1.31h-.01l-.14-.08-.05-.01-.04.06-.15.5-.3-.11-.18.05-.02.23.04.16.23.12.05.16.26.22.67.28.1.03.04.02.05.07.08.25-.04.26-.17.3-.01.04-.18.2-.15.13-.2.03-.33-.05-.83-.3-.34.09-.3.26-.16.28-.03.15-.04.37-.01.18.03.28.1.15.1.11-.07.54-.06.29-.17.36-.36.5-.15.02-.34-.08-.3-.07-.18.03-.2.04-.11-.1-.22-.14-.57.02-.25.14-.02.2-.05.16-.1.25-.01.26-.03.33.08.27.27.38.44.34.37.24.62.22.1.12.13.6.01.54-.15.35-.17.2-.44.29-.36.11-.64.45.1.23.23.03.1.24v.1l-.1.19-.37.02-.22-.13-.23-.22-.54.57-.65.46-.57.2-.68.11-.08-.11-.25-.33.09-.13.14-.28.2-.44-.01-.12-.21-.38-.23-.18-.5-.07-.39.36-.08.23.06.44.67.9.14.22.04.07-.35.34-.1.56.2.4.23.34.32.4.17.42-.02.1-.15.22-.46.32-.42.14-.43-.04-.44-.2.12-.2.2-.34.08-.1.27-.27-.02-.46-.51-.52-.03-.25-.1-.04-.17-.04-.3.1-.19.13-.12.43.31.85-.1.54-.47.08-.09.16.02.27-.05.38.16.02.15.01.28.2.45.17.19.02.24-.01.46-.23.06-.02.06-.03.47-.16.15.07.1.17.12.4-.03.2-.04.14-.12.24-.34.45-.69.8-.37.15-.39-.08-.25-.42v-.48l.27-.52-.2-.4-.2-.11h-.16l-.26.02.1.46v.4l-.25.39-.12.36-.02.2-.04.45.17.39.4.55.7.66.27.33v.61l-.23.26-.32.27-.2.1-.12.13-.07.17-.16.73.02.41.4 1.14.14.23v.18l-.13.6-.26.37-.44.31-.62.09-.42.47.09.11-.24.54.03.22.2.36.11.46-.07.23-.41.1-.2-.05-.22-.2-.04-.22.02-.25.22-.5.06-.62-.76.4-.21.06-.33-.03-.35-.08h-.41l-.28.42.08.27.7.7.24.34.02.67-.2.33-.31.34-.21.05-.42-.02-.13-.05-.73-.16-.33.1-.08.15.02.5-.1.66.13.6-.19.42-.25-.13-.2.01-.1-.01-.23-.04-.53-.32-.32-.54-.44-.04-.15.08-.17.4.12.46.2.25.4.4.75.34.23-.13.1.07.15-.01.4-.15.26.03.63-.03.23.15.06.2.05.24-.07.25-.39.52-.2.12-.5.06-.36-.12-.16-.13-.1-.04-.53-.35-.14-.07-.2-.02-.24.27-.4.3-.51.5.03.42.2.24.18.18.68.38.15.03.68-.25.14.02.18.1.07.13.11.25-.03.17-.04.12-.23.44-.06.23.1.4-.06.35-.15.1-.49.17-.39.02-.72-.06-.38.08-.37.23.1.2.05.1.07.18.06.09v.07l.26.17.24.3.05.1-.1.44-.27.18-.25.01-.34-.14-.62-1.12-.4.34-.4.04-.61-.4-.29.03-.09.29v.34l.08.62.08.3.2.14.2.03 1.28.17.34.17.07.19-.03.22-.31.57-.36.51-.22.24-.35.34-.13.29.12.66.1.22.55.67.51.23.16.03h.04l.1.02.5.1.31.33.05.12-.14.39-.23.21-.32.11h-.25l-.72-.34-.53.17-.87.17-.43-.29-.29.05-.22.46.13.22-.06.35.03.05-.05.2-.04.35.17.18.1.1.2.18.21.18.22.08.4-.01.37-.15.49-.3h.16l.41.25.2.22.05.08.05.12.02.09.12.02.05.04.03.13-.04.2-.09.17-.41.16-.11.05-.05.02-.1.06-.18.13-.07.05-.17.08-.07.01-.12.03-.1-.02h-.05l-.14-.05-.14-.05-.22-.1-.33-.13-.14-.06-.09-.04-.1-.09-.09-.12-.17-.2-.42-.45-.05-.06-.4.2-.76.1-.23.08-.21.2-.15.38.05.27.26.35.25.13.52.01.4.05.69.37.37.27.16.18.14.31.04.29-.23.51-.38.46-.3.2-.26.08-.95.04-.33.1-.13.15-.01.07.15.42.27.41.2.25.79.44.12.28-.34.43-.18.53-.45.32-.18.2.02.37-.06.12.53.16.25-.01.5-.22.23-.19.17-.3-.06-.07v-.1l-.25-.74.02-.25.03-.06.04-.13.03-.03.13-.05.37.12.59.34.22.23.16.35.08.32-.24.48-.04.1v.06l-.06.07-.11.09-.05.02-.1-.02h-.06l-.22.11-.09.06-.1.04-.23.14-.1.06-.09.02-.08-.03-.07-.03-.4.08-.19.28.01.23.36.27.14.1.58.24.57-.01.51-.28.13-.07.5-.62.1-.23-.09-.83.23-.44.27-.15.26.03.2.15.02.16.05.45-.17.42-.18.3-.12.16-.46.47-.1.12-.1.24-.4.65-.37.3.04.49-.05.27.1.37.06.54.47.53.01.14-.04.2v.05l.26.18.05.03.11.28.1.18.32.21.2-.71.02-.36.02-.1.06-.16.12-.16.28-.15h.3l.22.11.1.23-.08.76-.33.56-.14.24h-.17l-.1.2-.46.13.6 1.04.07.31.02.83-.05.4-.42.24-.26.06-.93.06-.14-.14-.05-.05-.17-.14-.6.05-.22.17-.13.24-.08.27.1.44.51.22.32.33.49.1.26.17.26.15.27.18.15.3-.08.37-.03.07.02.04-.05.18-.27.24-.27.08-.27.2-.09.23-.02.18.02.12-.07.02h-.13l-1.01.08-.26.04-.35.03-.76.07-.37.04-.87.07-.38.03-.3.04-.65.05-.58.06-.66.05-.66.06h-.15l-.48.07-.19-1.94-.24-2.31-.39-4.1-.2-2.8-.18-2.06-.2-2.52.1-.1-.13-.4-.22-2.7h-.02l-.34-4.1-.1-1.38-1.34.12-.91.06-3.33-.01-5.4.51-2.66.25-.55-5.84.6-.05-.31-3.2-.03-.47 2.67-.25 1.32-.18 1.39-.1.07.93.47-.06-.25-2.75-.1-.72.68-.03 1.18.7.29.3.63.23h.28l.4-.18.27-.01.17.22-.18.17-.22.03-.18.2-.08.4.08.3.15.14.3.02.19-.1.48-.56.32-.06.32.06.3.18.43.53.35.13.26-.08.03.36.25.13.37-.15.14-.35-.14-.17.02-.23.25-.03.22.14.3-.3-.24.07.05-.18-.05-.39-.25-.48.12-.14-.26-.25-.64.02-.35.3-.15-.1-.01-.6-.19.01-.1.2-.2.06-.07-.47-.15-.18.13-.26-.36-.34.07-.25-.22-.35.06-.23-.1-.28-.27-.16-.26.1-.16-.1-.51.13-.14.2-.3.18-.07-.13.07-.39-.38-.01-2.05.1-.64.04-.24-3.23-.12-1.88-.23-2.76-2.78.24-2.78.13-2.57.19-3.12.21-.16-.26.07-.55.3-.28.27-.4.01-.41-.12-.17-.25-.1-.2.05-.55-.07-.24-.43.07-.25.23-.29.08-.3-.6-.83-.09-.28.03-.28.33-.76.08-.61-.04-.43-.17-.25-.3-.23-.4-.17-.22-.25-.5-.26.05-.17-.4-.14.25-.24.48-.36.28.03.02-.32.42-.09-.03-.5.15-.87.55-.5.14-.21.37-.09.24.09.33-.11.27.05-.17-2.59h-.03l-.18-2.74-1.28.1-.12-1.73.63.02.37-.17.12-.22.34.03.3.15.38-.2.25.03.3-.2.14.25.32.23.13-.07.3.08.26.26.23-.11.2.18.74-.07.23.24.24.08.17.2.17-.17.4.19.29.02 1.11-.35.57-.01-.04-.31.34-.01.28-.26.28-.13.57.04.3-.16.23-.25.67-.18.22.06.04.2.27.06.3-.15.3.12.35.68.87.12.1-.19h.46l-.17-2.1 3.02-.22.03-.4.21.39h.16l-.11-.24.04-.2.61-.06-.04-.29-.32.28-.1-.19.1-.28-.36-.46.11-.23.2.18.24-.07-.14-.16-.02-.33-.65-.04-.12-.17.2-.3.33.11.21-.14.24-.35h-.32l.2-.12-.15-.23.09-.08h.3l.08-.13.07-.52.14-.1.17.19.04.35.33.29.13-.13-.06-.21-.26-.03-.01-.18.22-.31-.27-.08-.08-.17.26.08.1-.1-.25-.2-.06-.17.11-.43.25-.24v-.29l-.2-.05v.35l-.28.13-.27-.37-.28.03-.07-.9-.15-.36-.3.4h-.15l-.14-.24.28-.95-.05-.14-.35-.07-.14-.18.04-.13.34-.1.07-.32-.21-.02-.16-.18.18-.12.37.27h.16l-.1-.24h-.2l-.11-.17.45-.4.4.33h.18l-.03-.2-.4-.28.7-.55.05-.24-.1-.17.02-.32.15-.02.02.41.17.2.22-.14.05-.35-.32-.17.22-.32-2.18.2-3.82.3-.22-2.8-1.83.12-2.3.16-1.23.13-.42-5.62-.41.26-3.6.28-3.88.28-2.05.1-3.25.23-2.7.14-.15-2.3-2.66.21-.43.03-2.27.16.14 2.3-.9.02-3.61.22" fill="#d1dbdd" stroke="rgb(209, 219, 221)" stroke-width="0.1" data-originalStrokeWidth="0.1" style="stroke: rgb(0, 0, 0); fill: rgb(209, 219, 221); pointer-events: auto; stroke-width: 0.1;" pointer-events="auto"/>
      <path id="AR02" d="m852.58 498.26 3.6-.21.92-.03-.15-2.3 2.27-.16.44-.03 2.66-.21.16 2.3 2.69-.14 3.25-.22 2.05-.11 3.87-.28 3.6-.28.42-.26.43 5.61 1.24-.12 2.28-.16 1.83-.11.22 2.77 3.82-.26 2.18-.2-.22.29.32.18-.05.35-.22.15-.17-.2-.02-.42-.15.02-.03.32.1.18-.05.23-.7.55.41.3.03.17-.19.01-.39-.32-.45.4.1.17.22-.01.09.24h-.16l-.36-.27-.2.12.17.19.2.01-.06.32-.34.1-.04.13.14.19.35.07.05.13-.28.95.14.25h.15l.3-.4.15.35.07.9.28-.03.27.37.28-.13-.02-.35.22.06v.28l-.25.24-.1.43.05.16.26.2-.11.11-.26-.08.08.17.27.08-.22.31v.18l.27.03.06.2-.13.14-.33-.3-.04-.35-.17-.18-.15.1-.05.52-.09.12-.3.01-.1.08.16.23-.2.13.32-.01-.24.35-.21.14-.33-.12-.2.3.12.2.65.02.02.33.14.16-.25.06-.2-.17-.1.23.36.46-.1.3.1.17.32-.27.04.29-.61.06-.05.19.1.23-.14.01-.2-.4-.04.41-3.02.22.17 2.09-.46.02-.1.18-.87-.12-.34-.68-.3-.12-.31.15-.27-.05-.04-.21-.22-.06-.66.18-.23.25-.31.16-.57-.04-.28.13-.28.26h-.34l.04.32h-.57l-1.12.35-.28-.01-.4-.2-.18.18-.16-.2-.24-.08-.23-.24-.75.08-.2-.2-.22.12-.28-.25-.28-.08-.13.06-.32-.23-.14-.25-.3.2-.25-.05-.37.22-.3-.15-.35-.03-.12.22-.37.17-.63-.02.12 1.73 1.28-.1.18 2.74h.03l.17 2.59-.27-.05-.33.1-.24-.08-.37.09-.13.2-.55.5-.16.87.03.51-.42.09-.03.32-.28-.03-.47.36-.26.24.41.14-.06.18.51.26.22.23.4.17.3.24.17.25.04.43-.08.61-.33.76-.03.3-.44.04-.06-.8-.36.03-.04-.48-.44.05-.03-.47-.44.02-.05-.74-.38.06-.39.31-.54.11-.23.2-.16.44-.15.18-.26.11-.85.07-.1.31.46-.02.03.44-.68.05-.24.13.04.8.92-.06.05 1.38 2.7-.2.2 2.76-4.06.3.08 1.39-3.53.23-1.2.06-.19.1v.25l-.37.54-.05-.1-.2.4.2.09-.19.14-1.59.08-.12-1.85-1.38.1-.06-.93-1.42.1-.09-1.84-.48.02-.04-.88-1.76.11-.07-1.4-2.7.18-.08-1.53.22-.02-.2-2.75-2.7.23-5 .4h-.45l-.23-2.79-.45.04-.04-.45.45-.02-.02-.43.43-.06-.02-.46.46-.04-.04-.45.45-.03-.04-.46.45-.04-.03-.47.43-.02-.03-.48.48-.02-.04-.45.54-.03-.04-.47.46-.02-.02-.47h.46l-.05-.47.47-.02-.03-.5.46-.05-.02-.45.44-.03-.02-.47.45-.02-.03-.45.26-.02.36-.5-.08-.24-.3-.12-.03-.18.37-.12.16-.2.15.1.8-.14.12-.28-.1-.18.5-.3.22-.36.25-.22.31-.4.77-.1.62-.2.36-.01-.37-5.1-.47-6.8.92-.06-.06-.92-.2-2.74-.11-1.83" fill="#d1dbdd" stroke="rgb(209, 219, 221)" stroke-width="0.1" data-originalStrokeWidth="0.1" style="stroke: rgb(0, 0, 0); fill: rgb(209, 219, 221); pointer-events: auto; stroke-width: 0.1;" pointer-events="auto"/>
      <path id="AR03" d="m812.22 511.34-.22-.97-.02-.13-.04-.19-.02-.1v-.07l-.29-1.32-.02-.07-.02-.16-.07-.33-.08-.43-.35-1.8-.07-.33-.12-.59-.1-.5-.1-.45-.35-1.71-.12-.57-.28-1.46-.06-.3-.2-.95-.09-.47-.1-.51-.05-.24-.13-.66-.28-1.36-.04-.16-.07-.38-.13-.67-.28-1.35-.09-.4-.1-.52-.39-1.89-.16-.77-.02-.1-.06-.26-.03-.12-.08-.42-.07-.4-.04-.14-.17-.85v-.07l-.07-.24-.02-.16-.03-.09-.04-.22-.17-.84-.33-1.63-.18-.89-.15-.83-.07-.34-.36-1.95-.1-.5-.47-2.42v-.04l.54-.03.92-.05 1.55-.08.44-.04h.1l1.51-.12.42-.03.93-.06.2-.01.6-.05.9-.05.44-.04.4-.02 1.98-.1.64-.05.76-.06.36-.02.4-.03.53-.03 1.21-.1 1.5-.1h.08l.3-.03.46-.05h.24l1.4-.1.76-.06.97-.07.6-.04.47-.04.19-.01.93-.09 1.53-.1 1.62-.12 1.73-.13.63-.04 1.01-.07.23-.03 1.04-.07h.06l.84-.06.8-.06.48-.04h.04l.34-.04h.06l-.13.06.1.29-.16.16.17.03.36 4.94.21 3.71.09.95.1 1.81-2.66.14-1.84.1.08 1.36.87-.04v.87l.12 1.8.02.93-.41.02.02.47-.47.02.07.93h-.47l.09 1.4-.45.02.09 1.85.22-.01.08 1.88-2.64.13-3.18.08-1.38.05-2.7.14.02.45.47-.02.02.45-.46.04.01.44-1.33.07.05.9-.45.01.05 1.38-2.26.1.13 2.75 1.34-.05.03.56-.28.16-.09.25v.45l.24.31.11.4-.1.2-.37.28.24.22-.04.15-.32.15.41.37-.27.3-.56.37.03 1.04h-.04l.15 2.9h.02l.14 3.38.45-.02.02.45.46-.02-.02-.46.44-.04.12 2.33-2.76.11.02.46-.92.05-.02-.48-1.6.06.22-.1-.22-.4-.94.09-2.12.1-.08-1.96-.44-.22-.03.35-1.64.04-.02-.24-.02-.93-.02-.5-.05-.97-.01-.7-.02-.34-.01-.7-.01-.18.01-.12-.07-.18.01-.22-.02-.05-.05-.1.09-.15-.08-.42" fill="#d1dbdd" stroke="rgb(209, 219, 221)" stroke-width="0.1" data-originalStrokeWidth="0.1" style="stroke: rgb(0, 0, 0); fill: rgb(209, 219, 221); pointer-events: auto; stroke-width: 0.1;" pointer-events="auto"/>
      <path id="AR04" d="m871.72 531.11.09.27.61.83-.09.3-.23.3-.07.24.24.42.54.07.2-.04.26.1.12.17v.42l-.28.4-.3.27-.07.55.16.26 3.12-.21 2.57-.19 2.78-.13 2.78-.24.23 2.76.12 1.88.24 3.24.64-.05 2.05-.1.38.02-.07.39.07.12.3-.18.14-.2.51-.13.16.1.26-.1.27.17.1.28-.06.22.21.35-.06.25.36.34-.13.25.15.2.08.46.19-.05.1-.2h.19l.01.58.15.1.34-.31.65-.01.26.25-.12.14.25.48.05.4-.05.17.24-.07-.3.3-.22-.14-.25.03-.02.23.14.18-.15.34-.37.15-.24-.13-.03-.36-.26.08-.35-.13-.43-.54-.3-.17-.32-.06-.32.06-.48.55-.19.1h-.3l-.15-.15-.07-.29.07-.42.18-.19.2-.03.2-.17-.17-.22-.27.01-.4.18h-.28l-.63-.23-.29-.3-1.17-.7-.69.03.1.72.25 2.76-.47.05-.07-.92-1.39.1-1.32.17-2.67.25.03.47.32 3.2-.61.05.55 5.84 2.67-.25 5.4-.51 3.32.02.9-.07 1.34-.12.1 1.37.35 4.11h.02l.22 2.7.12.4-.08.1.19 2.52.19 2.06.2 2.8.38 4.1.25 2.31.17 1.94-1.35.12-2.92.27h-.1l-1.4.14-.93.08-.85.07h-.07l-.43.06-2.65.23h-.12l-.63.08-.88.07-.47.04-.16.03-.67.04-1.01.1-1.26.12-1.23.09-1.17.1-1.59.12-1.33.1-.87.06-.57.04-.46.05-.82.05-1.32.1-.6.06-.53.02-.74.06-.16.03-.72.04-.47.05-1.64.11-.38.03-.75.04-.22.03-.74.06-.61.04-.31.01-.15.03h-.24l-.97.08-.57.04-1.03.05-.32.03h-.1l-.52.05-.43.04-.34.02-.8.06-.27.01-1.14.07h-.26l-.44.07-.5.02-.4.03-2.79.24-1.52.07-.18.04-.63.06-1.3.1-.56.02-.62.05-.52.04-.82.07-.76.06-.44.02-.23.03-.51.03-.62.05-.78.07-.63.03-.38.03-3.07.2-1.21.1-1.12.09-.88.06-.56.04-.86.06-.97.07h-.27l-1.33.1-.52.05-.74.05h-.07l-.49.04-.54.05h-.03l-.07-1.14-.1-1.28-.02-.39-.03-.28-.03-.66-.03-.31-.12-1.65-.16-2.23-.03-.53-.04-.54-.1-1.5v-.01l-.05-.6-.03-.46-.04-.74-.02-.28-.02-.06-.02-.45-.05-.65-.01-.17-.03-.21-.02-.33-.03-.51-.06-.8-.05-.66-.02-.35-.23-.03-.2.12-.38-.17.03-.13.44-.1-.03-.17-.16-.04-.17-.08-.06-.22-.04-.16-.1.03.04.09.04.26-.2-.08-.3.01-.24.14-.15.1-.33.07-.03.44-.23.02-.09-.43-.1-.13-.14.18-.2-.04.14-.27.07-.14-.11-.06-.18.2-.24-.13v-.23l-.18-.04-.32-.07-.1-.06-.18.26-.08.17-.25.08-.23-.11-.05.25.24.03.29-.06.17.38-.11.27-.18-.1-.06-.22-.24.08-.2.3-.06.04-.35.07-.39-.14-.01-.16.01-.06.04-.12.27-.31.03-.3-.22-.07-.21.1-.17.2-.15.25-.1.27-.02.09-.33.16-.03.02-.12-.04-.02-.3.1-.07.11-.1-.04-.27-.31.1-.18.27-.02.07-.07.46-.05.1-.1.04-.16.06-.03-.01-.12-.03-.19-.09-.08-.28-.1-.14-.2.01-.17.22.13.37-.04.07-.03.07-.15.06-.23-.06-.16.03-.23.04-.2-.07-.35-.38v-.07l.03-.05.49-.18.06-.24-.09-.21-.18.06-.12.17-.32.25-.18-.01-.05-.1-.1-.14-.22-.28-.07-.12-.3-.12-.06.1-.22.02-.08-.01-.07-.1-.04-.06-.02-.09-.1.04h-.1l-.18-.15.06-.12.17-.1.2-.18.03-.22h-.11l-.12-.1v-.08l-.05-.07.05-.03.13-.04.19-.06.03-.18-.32-.15-.1.1-.02.13-.06.07-.2-.03-.12-.04-.11.03-.08.02-.04-.8-.05-1.26-.1-1.96-.01-.76-.05-.95-.01-.5-.09-1.72-.03-.97-.06-1.2-.04-1.21-.05-1.04-.13-3.28-.06-1.24-.04-1.04-.12-2.58-.02-.75-.04-.72-.03-.76-.04-.93-.04-1.08-.04-.86v-.5l-.08-1.49-.04-1.27-.08-1.58-.04-1.1-.02-.29-.02-.88-.06-1.12-.02-.88-.05-1-.07-1.94-.07-1.52v-.29l-.05-1.08v-.48l-.07-1.41-.08-2.06-.05-1.4-.02-.75-.05-1.07-.02-.58-.03-.7-.04-1.2 1.64-.04.03-.35.44.22.08 1.96 2.12-.1.94-.1.22.4-.22.11 1.6-.06.02.48.92-.05-.02-.46 2.76-.11-.12-2.33-.44.04.02.46-.46.02-.02-.45-.45.02-.14-3.38h-.02l-.15-2.9h.04l-.03-1.04.57-.37.27-.3-.42-.37.32-.15.04-.15-.24-.22.37-.28.1-.2-.11-.4-.25-.3.01-.46.08-.25.3-.16-.04-.57-1.34.06-.13-2.75 2.26-.1-.05-1.38h.45l-.05-.91 1.33-.07-.01-.44.46-.04-.02-.45-.47.02-.03-.45 2.71-.14 1.38-.05 3.18-.08 2.64-.13-.08-1.88h-.22l-.09-1.84.45-.02-.09-1.4h.47l-.07-.93.47-.02-.02-.47.41-.02-.02-.91-.11-1.81v-.88l-.88.04-.08-1.37 1.84-.09 2.66-.14.53-.02 3.51-.18.43-.09.9-.08.46.04 3.13-.2.09 1.38h.18l.25 4.1.1 2.25.12 1.84h-.09l.19 2.8 3.58-.23.1 1.83.2 2.74.07.92-.92.07.47 6.79.37 5.1-.36.01-.62.2-.77.1-.31.4-.25.22-.22.36-.5.29.1.2-.11.27-.8.15-.16-.1-.16.2-.37.1.03.2.3.11.08.25-.36.5h-.26l.03.46-.45.02.02.47-.44.03.02.45-.46.04.03.5-.47.03.05.47H846l.02.46-.46.02.04.47-.54.03.04.45-.48.02.03.48-.43.02.03.47-.45.05.04.46-.45.03.04.45-.46.04.02.46-.43.06.02.43-.45.02.04.45.44-.04.23 2.79h.48l4.98-.4 2.7-.23.2 2.75-.22.02.08 1.53 2.7-.17.07 1.4 1.77-.12.04.88.46-.02.11 1.85 1.41-.11.06.92 1.38-.09.12 1.85 1.6-.08.17-.14-.19-.09.2-.4.05.1.37-.54.01-.25.18-.1 1.2-.06 3.53-.23-.08-1.4 4.06-.28-.2-2.76-2.7.2-.05-1.39-.92.07-.04-.81.24-.13.67-.05-.03-.44-.45.02.1-.3.85-.08.26-.1.15-.19.16-.44.23-.2.54-.1.4-.32.37-.06.05.74.44-.02.03.47.44-.05.04.48.36-.04.06.81.44-.05" fill="#d1dbdd" stroke="rgb(209, 219, 221)" stroke-width="0.1" data-originalStrokeWidth="0.1" style="stroke: rgb(0, 0, 0); fill: rgb(209, 219, 221); pointer-events: auto; stroke-width: 0.1;" pointer-events="auto"/>
      <g id="state_lines" stroke="rgb(209, 219, 221)" style="display: none; stroke: rgb(0, 0, 0);" stroke-width="0.1"/>
      <g id="state_abbr" fill="#000000" style="display: none; fill: rgb(0, 0, 0);">
        <text id="HI_label" x="491.79" y="769.82" style="font-size: 19.2455px; stroke-width: 1.60379; display: none;">
          <tspan id="HI_tspan" x="491.79" y="769.82" fill="#000000" dy="0" font-family="Arial" font-size="24.06" font-style="normal" font-weight="400" style="text-align: center; stroke-width: 2.57215; fill: rgb(0, 0, 0);" text-anchor="middle">HI</tspan>
        </text>
        <text id="AK_label" x="205.24" y="672.25" style="font-size: 19.2455px; stroke-width: 1.60379; display: none;">
          <tspan id="AK_tspan" x="205.24" y="672.25" fill="#000000" dy="0" font-family="Arial" font-size="24.06" font-style="normal" font-weight="400" style="text-align: center; stroke-width: 2.57215; fill: rgb(0, 0, 0);" text-anchor="middle">AK</tspan>
        </text>
        <text id="FL_label" x="1188.11" y="708.7" style="font-size: 19.2455px; stroke-width: 1.60379; display: none;">
          <tspan id="FL_tspan" x="1188.11" y="708.7" fill="#000000" dy="0" font-family="Arial" font-size="24.06" font-style="normal" font-weight="400" style="text-align: center; stroke-width: 2.57215; fill: rgb(0, 0, 0);" text-anchor="middle">FL</tspan>
        </text>
        <text id="NH_label" x="1306.05" y="167.79" stroke-width="1.1" font-size="13.25" style="display: none;">
          <tspan id="NH_tspan" x="1306.05" y="167.79" fill="#000000" stroke-width="1.1" dy="0" font-family="Arial" font-size="16.56" font-style="normal" font-weight="400" style="text-align: center; fill: rgb(0, 0, 0);" text-anchor="middle">NH</tspan>
        </text>
        <text id="MI_label" x="1019.65" y="246.58" style="font-size: 19.2455px; stroke-width: 1.60379; display: none;">
          <tspan id="MI_tspan" x="1019.65" y="246.58" fill="#000000" dy="0" font-family="Arial" font-size="24.06" font-style="normal" font-weight="400" style="text-align: center; stroke-width: 2.57215; fill: rgb(0, 0, 0);" text-anchor="middle">MI</tspan>
        </text>
        <text id="VT_label" x="1274.28" y="145.01" stroke-width="1.05" font-size="12.65" style="display: none;">
          <tspan id="VT_tspan" x="1274.28" y="145.01" fill="#000000" stroke-width="1.05" dy="0" font-family="Arial" font-size="15.81" font-style="normal" font-weight="400" style="text-align: center; fill: rgb(0, 0, 0);" text-anchor="middle">VT</tspan>
        </text>
        <text id="ME_label" x="1338.99" y="105.14" stroke-width="1.45" font-size="17.36" style="display: none;">
          <tspan id="ME_tspan" x="1338.99" y="105.14" fill="#000000" stroke-width="1.45" dy="0" font-family="Arial" font-size="21.7" font-style="normal" font-weight="400" style="text-align: center; fill: rgb(0, 0, 0);" text-anchor="middle">ME</tspan>
        </text>
        <text id="RI_label" x="1361.38" y="262.84" stroke-width="1.25" font-size="14.98" style="display: none;">
          <tspan id="RI_tspan" x="1361.38" y="262.84" fill="#000000" stroke-width="1.25" dy="0" font-family="Arial" font-size="18.72" font-style="normal" font-weight="400" style="text-align: center; fill: rgb(0, 0, 0);" text-anchor="middle">RI</tspan>
        </text>
        <text id="NY_label" x="1227.27" y="204.12" style="font-size: 19.2455px; stroke-width: 1.60379; display: none;">
          <tspan id="NY_tspan" x="1227.27" y="204.12" fill="#000000" dy="0" font-family="Arial" font-size="24.06" font-style="normal" font-weight="400" style="text-align: center; stroke-width: 2.57215; fill: rgb(0, 0, 0);" text-anchor="middle">NY</tspan>
        </text>
        <text id="PA_label" x="1187.28" y="284.69" style="font-size: 19.2455px; stroke-width: 1.60379; display: none;">
          <tspan id="PA_tspan" x="1187.28" y="284.69" fill="#000000" dy="0" font-family="Arial" font-size="24.06" font-style="normal" font-weight="400" style="text-align: center; stroke-width: 2.57215; fill: rgb(0, 0, 0);" text-anchor="middle">PA</tspan>
        </text>
        <text id="NJ_label" x="1330.57" y="290.09" stroke-width="1.28" font-size="15.4" style="display: none;">
          <tspan id="NJ_tspan" x="1330.57" y="290.09" fill="#000000" stroke-width="1.28" dy="0" font-family="Arial" font-size="19.25" font-style="normal" font-weight="400" style="text-align: center; fill: rgb(0, 0, 0);" text-anchor="middle">NJ</tspan>
        </text>
        <text id="DE_label" x="1320.8" y="328.42" stroke-width="1.36" font-size="16.38" style="display: none;">
          <tspan id="DE_tspan" x="1320.8" y="328.42" fill="#000000" stroke-width="1.36" dy="0" font-family="Arial" font-size="20.47" font-style="normal" font-weight="400" style="text-align: center; fill: rgb(0, 0, 0);" text-anchor="middle">DE</tspan>
        </text>
        <text id="MD_label" x="1310.72" y="368.46" stroke-width="1.34" font-size="16.11" style="display: none;">
          <tspan id="MD_tspan" x="1310.72" y="368.46" fill="#000000" stroke-width="1.34" dy="0" font-family="Arial" font-size="20.13" font-style="normal" font-weight="400" style="text-align: center; fill: rgb(0, 0, 0);" text-anchor="middle">MD</tspan>
        </text>
        <text id="VA_label" x="1198.59" y="392.33" style="font-size: 19.2455px; stroke-width: 1.60379; display: none;">
          <tspan id="VA_tspan" x="1198.59" y="392.33" fill="#000000" dy="0" font-family="Arial" font-size="24.06" font-style="normal" font-weight="400" style="text-align: center; stroke-width: 2.57215; fill: rgb(0, 0, 0);" text-anchor="middle">VA</tspan>
        </text>
        <text id="WV_label" x="1129.66" y="382.3" style="font-size: 19.2455px; stroke-width: 1.60379; display: none;">
          <tspan id="WV_tspan" x="1129.66" y="382.3" fill="#000000" dy="0" font-family="Arial" font-size="24.06" font-style="normal" font-weight="400" style="text-align: center; stroke-width: 2.57215; fill: rgb(0, 0, 0);" text-anchor="middle">WV</tspan>
        </text>
        <text id="OH_label" x="1079.05" y="334.46" style="font-size: 19.2455px; stroke-width: 1.60379; display: none;">
          <tspan id="OH_tspan" x="1079.05" y="334.46" fill="#000000" dy="0" font-family="Arial" font-size="24.06" font-style="normal" font-weight="400" style="text-align: center; stroke-width: 2.57215; fill: rgb(0, 0, 0);" text-anchor="middle">OH</tspan>
        </text>
        <text id="IN_label" x="998.79" y="352.94" style="font-size: 19.2455px; stroke-width: 1.60379; display: none;">
          <tspan id="IN_tspan" x="998.79" y="352.94" fill="#000000" dy="0" font-family="Arial" font-size="24.06" font-style="normal" font-weight="400" style="text-align: center; stroke-width: 2.57215; fill: rgb(0, 0, 0);" text-anchor="middle">IN</tspan>
        </text>
        <text id="IL_label" x="927.43" y="364.36" style="font-size: 19.2455px; stroke-width: 1.60379; display: none;">
          <tspan id="IL_tspan" x="927.43" y="364.36" fill="#000000" dy="0" font-family="Arial" font-size="24.06" font-style="normal" font-weight="400" style="text-align: center; stroke-width: 2.57215; fill: rgb(0, 0, 0);" text-anchor="middle">IL</tspan>
        </text>
        <text id="CT_label" x="1299.17" y="228.46" stroke-width="1.06" font-size="12.74" style="display: none;">
          <tspan id="CT_tspan" x="1299.17" y="228.46" fill="#000000" stroke-width="1.06" dy="0" font-family="Arial" font-size="15.93" font-style="normal" font-weight="400" style="text-align: center; fill: rgb(0, 0, 0);" text-anchor="middle">CT</tspan>
        </text>
        <text id="WI_label" x="898.6" y="224.7" style="font-size: 19.2455px; stroke-width: 1.60379; display: none;">
          <tspan id="WI_tspan" x="898.6" y="224.7" fill="#000000" dy="0" font-family="Arial" font-size="24.06" font-style="normal" font-weight="400" style="text-align: center; stroke-width: 2.57215; fill: rgb(0, 0, 0);" text-anchor="middle">WI</tspan>
        </text>
        <text id="NC_label" x="1205.6" y="458.72" style="font-size: 19.2455px; stroke-width: 1.60379; display: none;">
          <tspan id="NC_tspan" x="1205.6" y="458.72" fill="#000000" dy="0" font-family="Arial" font-size="24.06" font-style="normal" font-weight="400" style="text-align: center; stroke-width: 2.57215; fill: rgb(0, 0, 0);" text-anchor="middle">NC</tspan>
        </text>
        <text id="MA_label" x="1305.87" y="200.67" stroke-width="1.04" font-size="12.46" style="display: none;">
          <tspan id="MA_tspan" x="1305.87" y="200.67" fill="#000000" stroke-width="1.04" dy="0" font-family="Arial" font-size="15.58" font-style="normal" font-weight="400" style="text-align: center; fill: rgb(0, 0, 0);" text-anchor="middle">MA</tspan>
        </text>
        <text id="MO_label" x="854.22" y="422.93" style="font-size: 19.2455px; stroke-width: 1.60379; display: none;">
          <tspan id="MO_tspan" x="854.22" y="422.93" fill="#000000" dy="0" font-family="Arial" font-size="24.06" font-style="normal" font-weight="400" style="text-align: center; stroke-width: 2.57215; fill: rgb(0, 0, 0);" text-anchor="middle">MO</tspan>
        </text>
        <text id="GA_label" x="1106.89" y="574.56" style="font-size: 19.2455px; stroke-width: 1.60379; display: none;">
          <tspan id="GA_tspan" x="1106.89" y="574.56" fill="#000000" dy="0" font-family="Arial" font-size="24.06" font-style="normal" font-weight="400" style="text-align: center; stroke-width: 2.57215; fill: rgb(0, 0, 0);" text-anchor="middle">GA</tspan>
        </text>
        <text id="SC_label" x="1166.32" y="522.49" style="font-size: 19.2455px; stroke-width: 1.60379; display: none;">
          <tspan id="SC_tspan" x="1166.32" y="522.49" fill="#000000" dy="0" font-family="Arial" font-size="24.06" font-style="normal" font-weight="400" style="text-align: center; stroke-width: 2.57215; fill: rgb(0, 0, 0);" text-anchor="middle">SC</tspan>
        </text>
        <text id="KY_label" x="1039.99" y="426.39" style="font-size: 19.2455px; stroke-width: 1.60379; display: none;">
          <tspan id="KY_tspan" x="1039.99" y="426.39" fill="#000000" dy="0" font-family="Arial" font-size="24.06" font-style="normal" font-weight="400" style="text-align: center; stroke-width: 2.57215; fill: rgb(0, 0, 0);" text-anchor="middle">KY</tspan>
        </text>
        <text id="AL_label" x="1019.59" y="578.15" style="font-size: 19.2455px; stroke-width: 1.60379; display: none;">
          <tspan id="AL_tspan" fill="#000000" dy="0" font-family="Arial" font-size="24.06" font-style="normal" font-weight="400" style="text-align: center; stroke-width: 2.57215; fill: rgb(0, 0, 0);" text-anchor="middle">AL</tspan>
        </text>
        <text id="LA_label" x="872.7" y="649.59" style="font-size: 19.2455px; stroke-width: 1.60379; display: none;">
          <tspan id="LA_tspan" x="872.7" y="649.59" fill="#000000" dy="0" font-family="Arial" font-size="24.06" font-style="normal" font-weight="400" style="text-align: center; stroke-width: 2.57215; fill: rgb(0, 0, 0);" text-anchor="middle">LA</tspan>
        </text>
        <text id="MS_label" x="940.37" y="592.21" style="font-size: 19.2455px; stroke-width: 1.60379; display: none;">
          <tspan id="MS_tspan" x="940.37" y="592.21" fill="#000000" dy="0" font-family="Arial" font-size="24.06" font-style="normal" font-weight="400" style="text-align: center; stroke-width: 2.57215; fill: rgb(0, 0, 0);" text-anchor="middle">MS</tspan>
        </text>
        <text id="IA_label" x="823.33" y="308.44" style="font-size: 19.2455px; stroke-width: 1.60379; display: none;">
          <tspan id="IA_tspan" x="823.33" y="308.44" fill="#000000" dy="0" font-family="Arial" font-size="24.06" font-style="normal" font-weight="400" style="text-align: center; stroke-width: 2.57215; fill: rgb(0, 0, 0);" text-anchor="middle">IA</tspan>
        </text>
        <text id="MN_label" x="790.84" y="183.37" style="font-size: 19.2455px; stroke-width: 1.60379; display: none;">
          <tspan id="MN_tspan" x="790.84" y="183.37" fill="#000000" dy="0" font-family="Arial" font-size="24.06" font-style="normal" font-weight="400" style="text-align: center; stroke-width: 2.57215; fill: rgb(0, 0, 0);" text-anchor="middle">MN</tspan>
        </text>
        <text id="OK_label" x="732.05" y="519.54" style="font-size: 19.2455px; stroke-width: 1.60379; display: none;">
          <tspan id="OK_tspan" x="732.05" y="519.54" fill="#000000" dy="0" font-family="Arial" font-size="24.06" font-style="normal" font-weight="400" style="text-align: center; stroke-width: 2.57215; fill: rgb(0, 0, 0);" text-anchor="middle">OK</tspan>
        </text>
        <text id="TX_label" x="710.59" y="652.87" style="font-size: 19.2455px; stroke-width: 1.60379; display: none;">
          <tspan id="TX_tspan" x="710.59" y="652.87" fill="#000000" dy="0" font-family="Arial" font-size="24.06" font-style="normal" font-weight="400" style="text-align: center; stroke-width: 2.57215; fill: rgb(0, 0, 0);" text-anchor="middle">TX</tspan>
        </text>
        <text id="NM_label" x="506.94" y="542.36" style="font-size: 19.2455px; stroke-width: 1.60379; display: none;">
          <tspan id="NM_tspan" x="506.94" y="542.36" fill="#000000" dy="0" font-family="Arial" font-size="24.06" font-style="normal" font-weight="400" style="text-align: center; stroke-width: 2.57215; fill: rgb(0, 0, 0);" text-anchor="middle">NM</tspan>
        </text>
        <text id="KS_label" x="701.21" y="427.26" style="font-size: 19.2455px; stroke-width: 1.60379; display: none;">
          <tspan id="KS_tspan" x="701.21" y="427.26" fill="#000000" dy="0" font-family="Arial" font-size="24.06" font-style="normal" font-weight="400" style="text-align: center; stroke-width: 2.57215; fill: rgb(0, 0, 0);" text-anchor="middle">KS</tspan>
        </text>
        <text id="NE_label" x="686.63" y="337.29" style="font-size: 19.2455px; stroke-width: 1.60379; display: none;">
          <tspan id="NE_tspan" x="686.63" y="337.29" fill="#000000" dy="0" font-family="Arial" font-size="24.06" font-style="normal" font-weight="400" style="text-align: center; stroke-width: 2.57215; fill: rgb(0, 0, 0);" text-anchor="middle">NE</tspan>
        </text>
        <text id="SD_label" x="663.02" y="238.75" style="font-size: 19.2455px; stroke-width: 1.60379; display: none;">
          <tspan id="SD_tspan" x="663.02" y="238.75" fill="#000000" dy="0" font-family="Arial" font-size="24.06" font-style="normal" font-weight="400" style="text-align: center; stroke-width: 2.57215; fill: rgb(0, 0, 0);" text-anchor="middle">SD</tspan>
        </text>
        <text id="ND_label" x="663.02" y="150.75" style="font-size: 19.2455px; stroke-width: 1.60379; display: none;">
          <tspan id="ND_tspan" x="663.02" y="150.75" fill="#000000" dy="0" font-family="Arial" font-size="24.06" font-style="normal" font-weight="400" style="text-align: center; stroke-width: 2.57215; fill: rgb(0, 0, 0);" text-anchor="middle">ND</tspan>
        </text>
        <text id="WY_label" x="499.57" y="276.47" style="font-size: 19.2455px; stroke-width: 1.60379; display: none;">
          <tspan id="WY_tspan" x="499.57" y="276.47" fill="#000000" dy="0" font-family="Arial" font-size="24.06" font-style="normal" font-weight="400" style="text-align: center; stroke-width: 2.57215; fill: rgb(0, 0, 0);" text-anchor="middle">WY</tspan>
        </text>
        <text id="MT_label" x="487.84" y="155.58" style="font-size: 19.2455px; stroke-width: 1.60379; display: none;">
          <tspan id="MT_tspan" x="487.84" y="155.58" fill="#000000" dy="0" font-family="Arial" font-size="24.06" font-style="normal" font-weight="400" style="text-align: center; stroke-width: 2.57215; fill: rgb(0, 0, 0);" text-anchor="middle">MT</tspan>
        </text>
        <text id="CO_label" x="525.13" y="406.28" style="font-size: 19.2455px; stroke-width: 1.60379; display: none;">
          <tspan id="CO_tspan" x="525.13" y="406.28" fill="#000000" dy="0" font-family="Arial" font-size="24.06" font-style="normal" font-weight="400" style="text-align: center; stroke-width: 2.57215; fill: rgb(0, 0, 0);" text-anchor="middle">CO</tspan>
        </text>
        <text id="ID_label" x="339.94" y="235.07" style="font-size: 19.2455px; stroke-width: 1.60379; display: none;">
          <tspan id="ID_tspan" x="339.94" y="235.07" fill="#000000" dy="0" font-family="Arial" font-size="24.06" font-style="normal" font-weight="400" style="text-align: center; stroke-width: 2.57215; fill: rgb(0, 0, 0);" text-anchor="middle">ID</tspan>
        </text>
        <text id="UT_label" x="396.81" y="386.73" style="font-size: 19.2455px; stroke-width: 1.60379; display: none;">
          <tspan id="UT_tspan" x="396.81" y="386.73" fill="#000000" dy="0" font-family="Arial" font-size="24.06" font-style="normal" font-weight="400" style="text-align: center; stroke-width: 2.57215; fill: rgb(0, 0, 0);" text-anchor="middle">UT</tspan>
        </text>
        <text id="AZ_label" x="366.76" y="536.9" style="font-size: 19.2455px; stroke-width: 1.60379; display: none;">
          <tspan id="AZ_tspan" x="366.76" y="536.9" fill="#000000" dy="0" font-family="Arial" font-size="24.06" font-style="normal" font-weight="400" style="text-align: center; stroke-width: 2.57215; fill: rgb(0, 0, 0);" text-anchor="middle">AZ</tspan>
        </text>
        <text id="NV_label" x="262.47" y="370.64" style="font-size: 19.2455px; stroke-width: 1.60379; display: none;">
          <tspan id="NV_tspan" x="262.47" y="370.64" fill="#000000" dy="0" font-family="Arial" font-size="24.06" font-style="normal" font-weight="400" style="text-align: center; stroke-width: 2.57215; fill: rgb(0, 0, 0);" text-anchor="middle">NV</tspan>
        </text>
        <text id="OR_label" x="214.43" y="206.88" style="font-size: 19.2455px; stroke-width: 1.60379; display: none;">
          <tspan id="OR_tspan" x="214.43" y="206.88" fill="#000000" dy="0" font-family="Arial" font-size="24.06" font-style="normal" font-weight="400" style="text-align: center; stroke-width: 2.57215; fill: rgb(0, 0, 0);" text-anchor="middle">OR</tspan>
        </text>
        <text id="WA_label" x="238.05" y="102.99" style="font-size: 19.2455px; stroke-width: 1.60379; display: none;">
          <tspan id="WA_tspan" x="238.05" y="102.99" fill="#000000" dy="0" font-family="Arial" font-size="24.06" font-style="normal" font-weight="400" style="text-align: center; stroke-width: 2.57215; fill: rgb(0, 0, 0);" text-anchor="middle">WA</tspan>
        </text>
        <text id="CA_label" x="191.69" y="434.8" style="font-size: 19.2455px; stroke-width: 1.60379; display: none;">
          <tspan id="CA_tspan" x="191.69" y="434.8" fill="#000000" dy="0" font-family="Arial" font-size="24.06" font-style="normal" font-weight="400" style="text-align: center; stroke-width: 2.57215; fill: rgb(0, 0, 0);" text-anchor="middle">CA</tspan>
        </text>
        <text id="DC_label" x="1309.32" y="398.19" stroke-width="1.29" font-size="15.45" style="display: none;">
          <tspan id="DC_tspan" x="1309.32" y="398.19" fill="#000000" stroke-width="1.29" dy="0" font-family="Arial" font-size="19.31" font-style="normal" font-weight="400" style="text-align: center; fill: rgb(0, 0, 0);" text-anchor="middle">DC</tspan>
        </text>
        <text id="TN_label" x="1018.93" y="485.72" style="font-size: 19.2455px; stroke-width: 1.60379; display: none;">
          <tspan id="TN_tspan" x="1018.93" y="485.72" fill="#000000" dy="0" font-family="Arial" font-size="24.06" font-style="normal" font-weight="400" style="text-align: center; stroke-width: 2.57215; fill: rgb(0, 0, 0);" text-anchor="middle">TN</tspan>
        </text>
        <text id="AR_label" x="863.15" y="535.77" style="font-size: 19.2455px; stroke-width: 1.60379; display: none;">
          <tspan id="AR_tspan" x="863.15" y="535.77" fill="#000000" dy="0" font-family="Arial" font-size="24.06" font-style="normal" font-weight="400" style="text-align: center; stroke-width: 2.57215; fill: rgb(0, 0, 0);" text-anchor="middle">AR</tspan>
        </text>
      </g>
      <g id="state_borders" transform="translate(-0.04777967,-0.15336683)" stroke="rgb(209, 219, 221)" style="stroke: rgb(0, 0, 0);" stroke-width="0.3">
        <path id="AR_LA_border" d="m827.48 586.1 8.36-.6 6.1-.42 10.98-.83 7.18-.51 15-1.1 7.1-.6 17.94-1.66 2.6-.23" stroke="rgb(209, 219, 221)" stroke-width="0.3" fill="none" style="stroke: rgb(0, 0, 0); display: none;"/>
        <path id="AR_TX_border" d="m814.62 567.34 1-.13-.4.3.26.5-.43.38.5.34h.62l.47.65.7-.45.1.48-.47.27.33.38.89.05.04-.56.37-.23.2.42.58.02.24-.8.37-.2-.15.75.43-.02.4-.8.54-.14-.37.78.4.27.74-.5.33.35-.06-.84.3-.43.57.14.42.7.36-.12.1.5.27-.46.96-.35.7.2-.45.34.82.14 1.18 16.82" stroke="rgb(209, 219, 221)" stroke-width="0.3" fill="none" style="stroke: rgb(0, 0, 0); display: none;"/>
        <path id="AR_MO_border" d="m929.24 481.77-9.9 1.23-6.27.76.84-1.76.27-1.28.5-.42.1-.52.52-.17.85-.8-.06-.61.26-.84.4-.11.34-.64 1.08-.83.54-1.27.77-.3.37-1.02-.51-.66.26-1.1-.04-.74-.45-.55h-.75l-.93-.55.2-.41-.37-1.23-.4-.07.1-.6-13.93 1.5-10.36 1.1-6.94.72-3.3.25-11.2 1.08-9.1.84-4.18.34-6.38.56-8.83.74-19.53 1.44-5.12.37-12.68.83" stroke="rgb(209, 219, 221)" stroke-width="0.3" fill="none" style="stroke: rgb(0, 0, 0); display: none;"/>
      </g>
      <rect id="selection-rectangle" fill="#ffffccaa" stroke="rgb(209, 219, 221)" stroke-width="0.1"/>
      <ellipse id="selection-ellipse" fill="#ffffccaa" stroke="rgb(209, 219, 221)" stroke-width="0.1"/>
      <polygon id="selection-polygon" fill="#ffffccaa" stroke="rgb(209, 219, 221)" stroke-width="0.1"/>
      <polyline id="selection-polyline" fill="#ffffccaa" stroke="rgb(209, 219, 221)" stroke-width="0.1"/>
    </svg>
  </g>
  <svg id="legend-svg" width="100%" height="100%" style="overflow:visible;" class="ui-draggable ui-draggable-handle" x="1328.321548461914" y="504">
    <g id="legend-g-svg" fill="#000" transform="translate(0,0) scale(1)" style="font-family: Helvetica; font-weight: 400; font-style: normal;">
      <rect id="legend-bg-rect-svg" x="0" y="0" rx="3.8" ry="3.8" width="190" height="20" fill="#000000" stroke="rgb(209, 219, 221)" fill-opacity="0" stroke-width="0.1"/>
    </g>
  </svg>
</svg>
