<?xml version='1.0' encoding='UTF-8'?>
<svg xmlns="http://www.w3.org/2000/svg" xmlns:dc="http://purl.org/dc/elements/1.1/" xmlns:ns2="http://creativecommons.org/ns#" xmlns:rdf="http://www.w3.org/1999/02/22-rdf-syntax-ns#" id="wrapper" viewBox="0 0 1520 840" preserveAspectRatio="xMinYMin" height="840" width="1520" style="background-color: rgb(255, 255, 255);">
  <metadata>
    <rdf:rdf>
      <ns2:work rdf:about="">
        <dc:format>image/svg+xml</dc:format>
        <dc:type rdf:resource="http://purl.org/dc/dcmitype/StillImage"/>
        <dc:title>MapChart Map</dc:title>
        <dc:creator>
          <ns2:agent>
            <dc:title>MapChart.net</dc:title>
          </ns2:agent>
        </dc:creator>
        <ns2:license rdf:resource="http://creativecommons.org/licenses/by-sa/4.0/"/>
        <dc:description>This map was created with MapChart.net, a website for creating custom maps.</dc:description>
      </ns2:work>
      <ns2:license rdf:about="http://creativecommons.org/licenses/by-sa/4.0/">
        <ns2:permits rdf:resource="http://creativecommons.org/ns#Reproduction"/>
        <ns2:permits rdf:resource="http://creativecommons.org/ns#Distribution"/>
        <ns2:requires rdf:resource="http://creativecommons.org/ns#Notice"/>
        <ns2:requires rdf:resource="http://creativecommons.org/ns#Attribution"/>
        <ns2:requires rdf:resource="http://creativecommons.org/ns#ShareAlike"/>
      </ns2:license>
    </rdf:rdf>
  </metadata>
  <g id="map-group" transform="translate(-2210.3488395943587,-1798.3298228410654) scale(5.571523224980827)">
    <svg id="map" width="1520" height="840" version="1.1" viewBox="0 0 1520 840" preserveAspectRatio="xMinYMin" data-originalStrokeWidth="0.3">
      <defs>
        <pattern id="circles3" width="10" height="10" patternUnits="userSpaceOnUse">    <rect width="10" height="10" fill="#fff"/>    <circle cx="4" cy="4" r="2" fill="#000"/>    </pattern>
        <pattern id="diagonal1" width="10" height="10" patternUnits="userSpaceOnUse">    <rect width="10" height="10" fill="#fff"/>    </pattern>
        <pattern id="diagonal3" width="10" height="10" patternUnits="userSpaceOnUse">    <rect width="10" height="10" fill="#fff"/>    </pattern>
        <pattern id="vertical1" width="10" height="10" patternUnits="userSpaceOnUse">    <rect width="10" height="10" fill="#fff"/>    <rect x="2" y="0" width="1" height="10" fill="#000"/>    </pattern>
        <pattern id="vertical3" width="10" height="10" patternUnits="userSpaceOnUse">    <rect width="10" height="10" fill="#fff"/>    <rect x="2" y="0" width="3" height="10" fill="#000"/>    </pattern>
        <pattern id="horizontal1" width="10" height="10" patternUnits="userSpaceOnUse">    <rect width="10" height="10" fill="#fff"/>    <rect x="0" y="2" width="10" height="1" fill="#000"/>    </pattern>
        <pattern id="horizontal3" width="10" height="10" patternUnits="userSpaceOnUse">    <rect width="10" height="10" fill="#fff"/>    <rect x="0" y="2" width="10" height="3" fill="#000"/>    </pattern>
        <pattern id="crosshatch" width="8" height="8" patternUnits="userSpaceOnUse">    <rect width="8" height="8" fill="#fff"/>    </pattern>
        <pattern id="subtlepatch" width="5" height="5" patternUnits="userSpaceOnUse">    <rect width="5" height="5" fill="#fff"/>    <rect x="2" y="2" width="1" height="1" fill="#000"/>    </pattern>
        <pattern id="checkers" width="8" height="8" patternUnits="userSpaceOnUse">    <rect width="8" height="8" fill="#fff"/>    </pattern>
        <pattern id="raindrops" width="10" height="10" patternUnits="userSpaceOnUse">    <rect width="10" height="10" fill="#fff"/>    </pattern>
        <pattern id="texture" width="4" height="4" patternUnits="userSpaceOnUse">    <rect width="4" height="4" fill="#fff"/>    </pattern>
        <pattern id="circles3_a03500_000000" width="10" height="10" patternUnits="userSpaceOnUse">    <rect width="10" height="10" fill="#a03500"/>    <circle cx="4" cy="4" r="2" fill="#000000"/>    </pattern>
        <pattern id="diagonal1_d9b400_535353" width="10" height="10" patternUnits="userSpaceOnUse">    <rect width="10" height="10" fill="#d9b400"/>    </pattern>
        <pattern id="diagonal3_3264c8_ffffff" width="10" height="10" patternUnits="userSpaceOnUse">    <rect width="10" height="10" fill="#3264c8"/>    </pattern>
        <pattern id="horizontal1_72b38e_000000" width="10" height="10" patternUnits="userSpaceOnUse">    <rect width="10" height="10" fill="#72b38e"/>    <rect x="0" y="2" width="10" height="1" fill="#000000"/>    </pattern>
        <pattern id="horizontal3_986ba1_ffffff" width="10" height="10" patternUnits="userSpaceOnUse">    <rect width="10" height="10" fill="#986ba1"/>    <rect x="0" y="2" width="10" height="3" fill="#ffffff"/>    </pattern>
        <pattern id="vertical1_b9a087_ffffff" width="10" height="10" patternUnits="userSpaceOnUse">    <rect width="10" height="10" fill="#b9a087"/>    <rect x="2" y="0" width="1" height="10" fill="#ffffff"/>    </pattern>
        <pattern id="vertical3_4c91bf_ffff33" width="10" height="10" patternUnits="userSpaceOnUse">    <rect width="10" height="10" fill="#4c91bf"/>    <rect x="2" y="0" width="3" height="10" fill="#ffff33"/>    </pattern>
        <pattern id="checkers_cc3333_f7f7f7" width="8" height="8" patternUnits="userSpaceOnUse">    <rect width="8" height="8" fill="#cc3333"/>    </pattern>
        <pattern id="texture_d1dbdd_525252" width="4" height="4" patternUnits="userSpaceOnUse">    <rect width="4" height="4" fill="#d1dbdd"/>    </pattern>
        <style id="map-style">svg { background-color: #ffffff; }</style>
      </defs>
      <path id="CO01" d="m548.53 374.99 1.84.1.19-.25-.02.25.32-.1.37.02v.11h.32l-.01.23.57.02v-.45l.46.02.03-.47.43.03v.47l1.79.07.06-1.39.67.04.02-.12.74.04.09-1.62.64.04.03-.35.27.02v-.23l.3.01v.22l.94.05.2.01v.23l.75.05-.02.56-.14-.01v.26l-.35-.01-.06 1.47v.13l-.86-.04-.02.32-.25-.03.02-.29-2.31-.14-.05.8.68.03-.04.92-.72-.03-.19-.06.01-.18-.22.11-1.13-.04-.12.2-.55-.1-.01.34.22.12-.8-.03-.1.22-.04.51.07.2.14-.02.1.25-.01.25.1.44-.74-.03-.02.3-.38.13.2.19v.29l.45.02.21.1-.03-.24.17-.08.1.13-.01.33.41.06-.46.36-.2.06-.1-.26-.02.38-.11.07-.03.46-.67-.03.02-.46-.22-.24h-.22v-.24l-.56-.02-.1-.28-.2.03-.11-.22-.65-.04-.1.22h-.16l.12-.24.01-.27-.21-.07-.04.56-.18.1h-.23l-.08.75.22.08-.1.1-.36-.02-.22-.12.02-.23-.15.14.14.16-.14.37v.1l-.93-.04.03-.13.74.03-.4-.3-.22.1-.4-.03-.03-.35.45.02v-.11l.36.02.25-.58-.35-.17.03-.26.23.09.43.01.02-.23h-.23l.01-.14.23-.09.15-3.21-.23-.02-.03-.23.27.02" fill="#d1dbdd" stroke="rgb(209, 219, 221)" stroke-width="0.1" data-originalStrokeWidth="0.1" style="stroke: rgb(0, 0, 0); fill: rgb(209, 219, 221); pointer-events: auto; stroke-width: 0.1;" pointer-events="auto"/>
      <path id="CO02" d="m514.82 386.84-2-.13-.14-.19-.15-.46v-.38l-.44-.29-.01-.36-.27-.3-.11-.24-.69-.44-.59-.52h-.13l-.57-.26-.23.13-.3-.03.23.14-.54-.1-.31.2-.7-.48-.1-.15v-.33l-.17-.07-.23-.23-.14-.3v-.41l.15-.43-.06-.48-.25-.4v-.5l.14-.44.05-.39.35.3.1.17.28-.08.88-.02.55.43.04-.7-.89-.06.01-.2-.9-.08.03-.28.31.07.22-.18.27.05.34-.13-.09-.44-.14.25-.59-.03.2-.27-.19-.01-.06-.56-.61-.2-.52.07-.39-.16.01-.11-.4.05-.24.27.24.2.48.02.23.14-.02.4-.26-.13.24.3v.12l-.5-.04v.23l-.37-.02.03-.46-.34-.25.02-.23-.22-.15-.03-.36-.16.06-.58-.04.01.16.32-.08-.22.3-.39-.03-.15.3.19.13-.03.34-.11-.24h-.2l-.18-.23-.05.1-.43-.01.02-.35-.34.08-.03.48h-.11l-.03.3h.16l-.03.48.44.02-.03.46-.23-.15-.26.04v.11l-.46-.03.02-.11-.32-.12.1-.23.06-.6.23-.2-.1-.24.04-.35-.3-.03.02-.5-.07-.02-.42.23-.45-.03-.33.05.06-.12-.29-.02-.17-.12-.52-.04-.48.34-.32.15-.15.26-.23.01.04-.48.58-8.83 1.91.13.1-.64.13-2.01h-.14l.35-5.16h-.02l.13-1.9-2.65-.16-5.23-.31-1.66-.13.12-2.7.05-.82h.25l.38-4.26.17-2.28 1.35.08.13-1.84 1.35.1.21-2.72.36-6.14.23-3.9.35.03.26.01.98.07.23.03 3.5.22.51.04 1.64.1 2.94.21.42.03.97.08 1.52.08 1.57.12 1.4.1 1.15.08 3.43.2.76.08.29.02.93.1.76.06 2.33.18.28.03 1.25.06 1.44.1.65.04.38.02.74.03h.12l3.28.2 3.36.2.1-.01.96.05.84.04.98.05.38.02.81.03 2.45.11 3.4.17 1.2.05h.13l.92.04 1.28.07 1.85.08 2.7.13.45.01-.13 3-.13.28-.5 1.68-.18-.01.02.45-.43 1.54-.32.53.01-.27-.45-.03-.02.25-.28-.3-.15.17.02-1.04-.88-.03-.09 2.18.16.56-.04.91-.09.67.23.04.15.22 1.26.07-.05 1.27.28.12-.24.9 1.24.08v-.23h.22v.23l-.2-.05-.03.28h.2v.37l-.21-.15-.08 1.86-.13-.01-.01.51-.32-.23-.03.61-.45-.01.04-.58-.23-.02-.07 1.05-.68-.06-1.8-.08v.45l-.88-.04-.02.12.42.03v.1h-.52l-.1.21-.01.5.14.1v.34l-.23.01-.1.13-.14-.17v.24l-.15.08.13.26.22-.1.23.14v-.13h.27l.01.29-.2-.02-.03.3.6.03.22-.1-.14.3-.18.13.29.03v.45l-.92-.03.23.18.24-.11-.19.53-.2.17.3.12.13-.08-.03.56.12.06-.01.35h.1l-.03 1.04 1.11.04-.03.93.66.01-.22.17.2.35-.22-.03v.27l-.24-.09v.24l.85.03.08.46h.18l-.03.47-.76-.03-.14.12-.03.34.7.02.2.11-.03.83h.23l-.02.46-.43-.02.03-.35-.47-.01-.27.21-.13.35h.24l-.03.26-.23.42.39.05.09.09.2-.17-.1-.13.22-.2-.01.4.32.02.11.24.2.01-.04 1.07.05.09-.06.46-.16.1-.3-.01v.35h.22v.23h-.45v.21l-1.08-.04-.03.72-.14.07.11.31v.25l-.47-.02-.12.46-.33-.01.03-.47h-.34l-.4.17-.18-.09-.03.46-.21-.02-.02.35-.23-.02-.02.48-2.2-.13-.06.25-.05 1.22-.23.03-.59-.36-.24-.04-.42-.21-.02.27.23-.02-.08.32.1.2.2.04.17.33v.18l-.24-.23-.18.03-.17-.17-.47.1-.25-.18-.34.15-.82.11-.45.12-.15 3.03-.1 1.89-.07 1.57-.14 2.24-2.77-.15-1.78-.14-1.31-.02-2.6-.09-1.89-.1.08.29.24.14-.07.43-.18.24-.14-.06-.35.17-.24-.08-.07-.12-.26.48.3.4-.24.05-.08.24-.14-.02-.17.35-.31-.04-.27.46v.17l-.25.22-.44-.11h-.22l-.16.56-.54.07.27.4.04.35-.62.17-.17.19-.2-.01-.1.22-.57.41v.5l-.12.11-.53.12-.31-.06-.54-.41-.12.03-.28-.3-.55.01-.39-.1-2.15-.14-.03.18-.2.02-.13.22-.33.2-.16-.1-.28.1-.34.25-.27-.11-.14-.28-.27-.05-.18.1-.44-.04-.29.15-.47-.24-.21-.5-.47-.2-.2.23-.46.35" fill="#d1dbdd" stroke="rgb(209, 219, 221)" stroke-width="0.1" data-originalStrokeWidth="0.1" style="stroke: rgb(0, 0, 0); fill: rgb(209, 219, 221); pointer-events: auto; stroke-width: 0.1;" pointer-events="auto"/>
      <path id="CO03" d="m450.84 391.38.14-1.48.09-.82.12-1.4.01-.24.1-1.05.28-3.27.1-.95.03-.45.33-3.88.06-.6.08-1.04.05-.36.14-1.76.11-1.1.06-.8.2-2.2.22-2.37.12-1.34.2-2.16.2-2.41.04-.57.03-.27.03-.37.05-.54.15-1.9.02-.03.16-1.8.02-.42.05-.46.18-2.02.24-2.64.19-2.28.03-.4.28-2.78.03-.36.06-.63.17-1.56.07-.94.2-2.38.32-3.5.12-1.5.1-1.12.22-2.72.01-.2.6.07.57.04 2.93.26 1.25.12 2.6.22 1.35.12.67.06 1.5.12 1.54.12 3.13.26 1.48.13 1.16.1 1.91.13 1.01.04 1.89.13.53.04.55.05.7.05 1.64.13.9.08 1.28.08.57.05.79.06 4.16.29 1.11.08 1.12.08 1.88.11 1.06.08.84.06-.23 3.9-.36 6.13-.2 2.72-1.36-.1-.13 1.84-1.35-.08-.17 2.28-.38 4.27-.25-.01-.05.82-.12 2.7 1.66.14 5.23.3 2.65.16-.13 1.9h.02l-.35 5.15.14.01-.13 2-.09.65-1.9-.13-.6 8.83-.04.48h.23l.15-.27.32-.15.48-.34.52.04.16.13h.3l-.06.13.33-.05.45.03.42-.23.07.02-.02.5.3.03-.03.35.1.24-.24.2-.06.6-.1.23.32.12-.02.11.45.03v-.11l.27-.04.23.15.03-.46-.44-.02.03-.48h-.16l.03-.3h.11l.03-.47.34-.09-.02.35h.43l.05-.1.2.24h.19l.1.24.03-.34-.2-.12.17-.31.39.02.21-.3-.31.09v-.16l.56.04.16-.06.03.36.22.15-.02.23.34.25-.03.46.37.02v-.23l.5.04v-.13l-.24-.3.26.15.02-.41-.23-.14-.48-.03-.24-.18.25-.28.4-.05-.02.11.39.17.52-.08.6.2.08.57.18-.01-.2.28.6.03.13-.25.09.44-.34.13-.27-.05-.22.18-.31-.07-.04.29.91.08v.2l.88.04-.04.71-.55-.43-.87.02-.3.08-.09-.16-.35-.3-.05.38-.14.43v.5l.25.4.06.48-.15.44v.42l.14.28.23.24.19.07-.02.33.12.15.68.47.31-.2.54.11-.23-.14.3.03.23-.13.57.26h.13l.6.51.69.45.1.24.27.3v.36l.46.3-.01.38.15.45.14.18 2 .14-.19.22-.06.43.14.18.02.4-.14.2-.4-.03-.14.12-.45.12-.08-.22-.2.06-.21.26-.26.17-.05.42.33.4h.14l.04.41-.2.35-.23.2-.04.22.2.26-.12.27-.04.64-.17.46-.28.27.04.25-.31.28-.35-.2-.08.15-.3-.13-.26.18.04.38-.16.35.11.39-.16.2.01.23-.4.11-.18.46.2.26-.05.83-.09.16-.4.08-.08.35.17.29-.1.14-.01.52-.13.2.08.2.45.07.56-.23.05.16.54.44.14.39-.17.27.28.38.24.15.01.24.33.24.2.37.37.28.18.03.39-.16.11.03.19-.3.21-.1.21.41.23.18.2-.04.07-.2.28-.2.1.09-.02.42.22.1.26-.17.26.2.26-.13.21.03.12.47-.2.43-.17.02-.12.3-.28.22-.01.3-.36.03-.03.23-.15.23-.2.08-.14.35-.34.01-.23-.2-.24.16.01.29-.18.21.16.28.05.28-.1.08.05.28-.17.4.1.3-.13.17.04.55-.04.27-.15.14-.07.33-.44.01-.23.33.13.3.13.09.04.32.13.28.03.53.28.24.38-.02.01.19.26-.02.25.1-.13.2-.03.22.48.33v.31l.1.2-.04.16.22.37-.02.2.14.28-.06.3-.19.28-.04.52.25.4-.15.26.11.33.3.3.06-.1.39.1.2.58.28.13.02.38.18.24.2-.03-.05.27.19.17.5.1-.1.2.02.34 2.96.18.93.05.28-.03.49-.63-.09-.2.09-.2.15.1.23-.1.3.15.28-.01.02.18.17.08-.05.18.24.31.1.36.31.02.25.35.3.22.02.19.27.24.06.38.27.26.3.13.33.45.2.13.2.3v.2l.25.61.42.57.28.28.09-.1.28.29.27.37.45.15.24.58-.04.23.14.16.38.22.27.27v.21l.45.32.08.25.16.07.23.48.2.1.16.43.33.08.14.2.2.07.05.18-.18.23.07.28.22.59.13.06-.09.18-.02.35.11.28.46.55.03.19.18.08-.03.31.23.16v.18l.18.49.13.04.13.57-.19.14.36.73.16.37-.1.13.58.64.2.04.24-.19.23.06.53.54.18.53.26.25.06.18.4.5.76-.04.3.21.36.03.24-.14.69-.6.4-.22.34-.04.3-.27.47-.13.24.21.14.3.05.44.3.33.28-.25.32-.56.03-.36.1-.02.24-.45.27-.15-.02-.15.6-.23.05-.33.18-.06.01-.22.23-.08-.06-.25.15-.2.4-.28.25-.06.18.1.3.36-.13.14v.25l.31.27-.03.15.23.24-.12.15.22.22-.02.32.43.26.5-.15.1-.2.44.38.04.3-.06.26.06.29.32.08.11-2.68.06-1.28.09-2.33.07-.45.16-3.51.02-.62 2.66.11.15-3.55.13-2.8.06-1.95h.22l2.6.12.73.02 2.72.14 1.93.06 2.56.11h.35l5.15.18 2.68.06.36.04 2.36.07-.15 2.74-.17 5.52-.1.02-.1 3.63h.18l.08.18.6.03.3-.14.22.09.16-.1.5.28-.01.19.55.08.43.2.27-.17.1.15.2-.02-.03-.25.25.02.03.26.55.04.24-.1.53.18.26.32.27.01.31-.13.22.18 1.28.02 1.88.07 1.36.02.04-1.84.87-.01 1.83.06.07-2.95 2.69.07-.1 4.46-.06 2.52-.06 1.8v.9l-.1 1.93-.08 2.45h-.08l-.07 2.3-.11 3.37 1.05.05 1.32.03 2.54.04.74.05 2.46.06-.02.61-.13 5.97-.03 1.73-.19.01-.1 2.76-.17 3.6-.01 1.05-.06 1.44-.06 3.25-1.04-.04-2.78-.04-2.58-.06-2.22-.07-1.7-.04-1.49-.05-1.62-.03-1.44-.02-.5-.03-2.33-.04-1.8-.05-1.24-.03-4.4-.12-.74-.03h-.02l-2.24-.05-.86-.05-1.14-.02-.63-.02-1.14-.03h-.2l-1.87-.08-.74-.04-3.34-.13h-.29l-.47-.01-2.17-.09-3.56-.16-3.12-.14h-.72l-.62-.06-1.63-.13-.41-.02-.61-.04-1.49-.06-4.94-.24-1.71-.1-.86-.04-.28-.01-2.23-.13-2.1-.1-1.06-.07-.86-.04-.95-.05-1.34-.07-.66-.03-1.54-.09-.78-.05-1.07-.04-.71-.05-.78-.03-1.05-.06-.57-.02-1.38-.08-.4-.01-1.27-.07-.87-.06-2.1-.11-2.31-.13-1-.07-3.23-.18-1.32-.07-.7-.05-.76-.04-1.24-.1-.95-.04-.17-.26-.73-.05h-.2l-2.8-.2-2.02-.12-2.2-.16-2.81-.19-.91-.07-1.2-.09-.14-.01-.61-.04-.14-.02-.55-.02-.4-.03-.7-.06-.91-.06-1.02-.06-.76-.06-.76-.06-.88-.06-2.37-.19-2.46-.16h-.04l-.06-.02-1.21-.09-.46-.04-1.38-.1-2.45-.19-2.36-.2h-.06l-.66-.05-2.05-.15-6.4-.52-.46-.04-2.87-.24-1.5-.1-1.15-.11-1.53-.14-.44-.02-3.2-.3h-.02l-.7-.05-.3-.03.08-.76.27-3.07.18-2.13.02-.41.04-.36.16-1.78.06-.8.08-.88.04-.26.08-.96.18-1.98.16-1.48.15-1.42.17-1.51.11-1.5.13-1.33.1-1.15.5-5.55.11-1.41.13-1.75.2-2.32.06-.46.09-.9.12-1.67.06-.79.02-.29-.03-1.02v-.55l-.01-.19-.05-1.03-.01-.7.05-.67.06-.7.02-.28.1-1.04.19-2.17.07-.8.03-.32.2-2.26.13-1.38.07-.94.3-3.33.11-1.12.18-1.57.13-.98.16-1.34.07-.78.29-2.94.24-2.49" fill="#d1dbdd" stroke="rgb(209, 219, 221)" stroke-width="0.1" data-originalStrokeWidth="0.1" style="stroke: rgb(0, 0, 0); fill: rgb(209, 219, 221); pointer-events: auto; stroke-width: 0.1; filter: none;" pointer-events="auto"/>
      <path id="CO04" d="m548.03 396-3.61-.18-3.54-.15.19-.2v-.29l.18-.03.01-.28.2-.32.52-.42.13-.65.18-.23.4-.09-.06-.58.16-.15.13-.3.16.09.3-.18v-.26l.26-.02.14-.12-.06-.25.43-.98.23-.07-.05-.28.24-.2.17-.4-.13-.13.24-.2.05-.28.27-.4v-.3l-.13-.19.1-.36.12-.05-.14-.51.82-.47.37-.33-.05-.2.07-.47-.2-.23-.04-.3.18-.2.3-.13.4-.07.34-.3.04-.33.15-.16v-.4l.05-.42.14-.26.4-.53.21-.11 6.6.3.13.22.53.03.02-.23.23.01-.02.47 1.36.08.03-.48.9.04v-.27l-.43-.02.01-.67.18-.22.08-.44-.07-.24h-.13l.04-.93-.45-.02-.05 1.04-.44-.22v-.14l-.43.04-.05.86-.15.02-.47-.36.13-.39-.38-.01.07-.91.43.02-.02.46h.2l.06-.9 3.38.14.06-1.15-.2-.01-.04.23-.22-.01-.02.23h-.38l-.07-.08.03-.64-.68-.05.01-.2-.22-.02.01-.23-.23-.02.01-.33-.21-.12.67.06-.01.41.68.04.02-.5.22-.17.03-.22.38.03.01.21-.18.21 1.58.09.01-.22-.22.02v-.25l.46-.04-.03.5 1.34.08.05-.9-.44-.05.07-1.81-3.12-.2.06-1.46h.35v-.25l.14.01.01-.57-.74-.04v-.23h-.2l.1-2.98-1.34-.07v-.5l.54-.68-.05-.18.24-.1.4-.5.1-.41-.15-.13.44.03.4-.26.01-.4-.45-.03.02-.46.45.01v-.1l.34.02.1.1.22-5.03 1.79.05.02-.44.3-.07.2-.37-.05-.48.48.02.02-.27.12.04.46-.71 1.18.83.04-.82-.16-.26-.24-.09-.31-.41-.69-.22-.31.02v-.4h-.23l.01-.24-.23-.02.1-2.06.89.03v-.46h-.2v-.47h-.2l-.03.31-.45.14.02-.46-2.22-.1-1.37-.06.03-.47-1.34-.1-1.83-.08-.94-.02-.04.93-.24.17-.02.3.6.2-.5.01-.1-.1-.01.56-.4.08-.08.62-1.1-.06-.05.46-.87-.05.02-.23-.26-.01.01-.24h-.2l-.04.44-.6-.02-.06.07-.07.62-.2-.01v.24h.16l.22.6.05.33-2.74-.13.02-.45-.3-.03.18-.15.14-.28-.22.1-.6-.02.04-.3.2.02-.02-.3h-.26l-.01.13-.23-.15-.22.1-.13-.25.15-.08v-.24l.14.18.09-.14.23-.01v-.34l-.13-.1v-.5l.1-.21h.54v-.1l-.43-.03.02-.12.87.04.01-.45 1.8.09.67.04.08-1.04.23.02-.04.58.45.01.03-.6.32.22.01-.51.13.01.08-1.86.2.15.01-.37-.19.01.02-.3.19.06v-.24h-.2l-.01.24-1.24-.08.24-.9-.3-.12.07-1.27-1.26-.07-.15-.22-.23-.05.09-.66.04-.9-.16-.57.08-2.18.9.03-.03 1.05.15-.18.28.3.02-.25.45.03v.27l.31-.52.44-1.56-.04-.44h.19l.5-1.67.14-.27.13-3 .83.03 1.23.07 1.94.02.53.03 1.77.04 1.18.03 1.14.03 5.44.23h.21l2.98.13 3.7.12h.06l1.86.08h.45l.5.02.47.02.4.01 1.23.03 2.21.09 1.45.04 1.59.05 2 .07 1.14.03 2.86.06.48.03.5.01.88.02.86.03.21-.01 1.17.04.62.01.52.02.67.01.87.02.43.01.5.01.86.02.46.01.44.01.2.01.3.02h.86l.45.01.27.01.23.02h.53l.38.01 1.26.01.17.01h.29l1.08.03 1.96.06 3.24.05.65.02.7.01 1.2.01h.45l.37.03 1.26.01h.09l.38.02h.1l.8.02h.1l.9.02h.06l1.57.01 1.22.03.43-.02.01.12-.1 7.64-.08 5.59-.04 2.6-.01.44-.02.66v1.5l-.02.8-.02.57v1.15l-.01.52-.04 2.54-.03 1.6v.42l-.01.51-.01.44-.02 1.91-.01.77-.02.79-.03 1.94-.02 2.26-.02 1.02-.03 3.95-.02 1v.36l-.01 1v.95l-.02.17v.96l-.02 1.35-.02 2.16v.9l-.01.03v.18l-.02 1.5-.02 1.37v1.44l-.02 1.76v1.88l-.04 2.12v.86l-.02 3.84-.05 3.98-.01.55v1.01l-.03.84v.5l-.02 1.32-.03 2.65v.9l-.05 1.7v1.52l-.02.59v1.2l-.02 1-.02.4.01.27-.02.84v1.19l-.03 1.4-.01 1.58v.55l-.03 1.82-.02.91v.55l-.05 3.06-.02.45v3.28l-.03 1.68v.95l-.02 1.52v2.33l-.02 1.15-.01 1.05-.02 1.48-.03 2.29-.02 1.6-.03.91v1.47l-.02.88-.03.96-.02 1.83v.7l-.01.46-.03 1.04v1.27l-.03.94.01.46v.14l-.02 1.02-.03 1.83-.02.6V466h-.3l-.77-.01-3.75-.1-.41-.01-.22-.01h-1.17l-.9-.03-.29-.02-.84-.02-1.14-.01h-.28l-1.96-.05-1.14-.03-3.18-.07-1.35-.13-1.57-.07-1.5-.02-1.51-.03-1.25-.03-.38-.04-.88-.03-1.22-.03.06-3.25.06-1.44.01-1.05.17-3.6.1-2.76h.18l.04-1.74.13-5.97.02-.6-2.46-.08-.74-.04-2.54-.05-1.31-.01-1.05-.05.1-3.37.07-2.32.08.01.08-2.45.1-1.93v-.9l.07-1.8.06-2.52.09-4.46-2.69-.06-.07 2.94-1.83-.06h-.87l-.04 1.86-1.36-.03-1.88-.07-1.28-.03-.22-.17-.3.13-.28-.01-.26-.32-.53-.19-.24.11-.55-.04-.03-.26-.25-.02.03.25-.19.02-.11-.15-.28.17-.42-.2-.55-.08.02-.2-.51-.27-.16.1-.22-.09-.28.14-.62-.03-.08-.17h-.19l.1-3.63.11-.03.16-5.52.16-2.75-2.36-.06-.36-.03-2.69-.06.2-5.43-.04-.36.1-.16v-2.32l-.88-.02.08-2.3.88.03.03-.67-.15.02-.09.22-.42.02-.2-.14-.17.06-.77-.03.02-.46.45.03.08-1.39-.44-.02.02-.44.44.01.04-.46-.9-.02.05-1.39h-.44l.02-.92h-.45l.03-.49-2.07-.13-1.4-.07.04-1.1-.09-.42.07-1.23-2.86-.12-8.8-.39" fill="#d1dbdd" stroke="rgb(209, 219, 221)" stroke-width="0.1" data-originalStrokeWidth="0.1" style="stroke: rgb(0, 0, 0); fill: rgb(209, 219, 221); pointer-events: auto; stroke-width: 0.1;" pointer-events="auto"/>
      <path id="CO05" d="m565.66 416.07-5.15-.18h-.35l-2.56-.1-1.93-.07-2.72-.15-.72-.01-2.6-.13-.23.01.13-3.34.11-2.26h.07l.02-.48.1-2.7-.2-.08-1.62-.05-1.39-.11v-.29l.24-1.92.92.05.12-1.94.24-.01-.02.12h.21l-.09-.44-.32-.03.06-1.38-.04-.46.1-.93v-3.2l8.78.39 2.87.12-.07 1.23.09.41-.04 1.11 1.4.07 2.06.12-.02.48.45.02-.02.92h.44l-.06 1.39.9.02-.03.46h-.44l-.02.43.44.02-.08 1.39-.45-.03-.02.46.77.03.16-.06.2.14.43-.02.09-.22.15-.02-.03.67-.88-.03-.08 2.3.89.02v2.32l-.1.16.04.36-.2 5.42" fill="#d1dbdd" stroke="rgb(209, 219, 221)" stroke-width="0.1" data-originalStrokeWidth="0.1" style="stroke: rgb(0, 0, 0); fill: rgb(209, 219, 221); pointer-events: auto; stroke-width: 0.1;" pointer-events="auto"/>
      <path id="CO06" d="m547.7 382.77-.39-.07-.13.32h-.42l.02-.36-.16-.2h-.38l-.21-.47-.06-.38-.2-.4-.03-.22.15-.08.11.36.25.04.41-.14.21.04.03-.53 1.35.07-.1-.26.14-.37-.14-.16.15-.14-.02.23.22.12.35.01.11-.1-.22-.07.08-.74h.23l.18-.1.04-.57.21.07-.01.27-.12.24h.16l.1-.22.65.04.1.22.21-.03.11.28.56.02-.01.23.22.01.22.24-.02.46.66.03.04-.46.1-.07.03-.38.1.26.2-.06.45-.36-.4-.06.01-.33-.1-.13-.17.08.03.25-.21-.1-.45-.04v-.28l-.2-.18.38-.14.02-.3.75.03-.11-.44.02-.25-.11-.25-.14.01-.07-.19.03-.51.11-.22.8.03-.22-.12.01-.34.55.09.12-.19 1.13.04.22-.1v.17l.19.06.71.03.04-.92-.67-.04.04-.8 2.31.14-.02.3.25.03.02-.32.86.04v-.13l3.12.19-.07 1.81.44.05-.05.9-1.34-.09.03-.5-.46.05v.25l.22-.02-.01.22-1.57-.09.17-.2-.01-.22-.38-.03-.03.22-.22.17-.02.5-.67-.04v-.4l-.67-.07.21.12v.33l.22.02v.23l.21.01v.21l.66.06-.02.62.07.09h.38l.02-.23h.22l.03-.22.21.01-.06 1.15-3.37-.14-.05.9h-.22l.02-.46-.43-.02-.07.91.38.02-.13.39.47.36.14-.03.05-.86.45-.04v.14l.43.22.05-1.04.45.02-.04.93h.13l.08.24-.08.44-.19.23-.01.66.44.02-.02.27-.9-.04-.02.48-1.36-.08.02-.47-.23-.01-.02.23-.53-.03-.12-.22-6.6-.3-.21.1-.4.54" fill="#d1dbdd" stroke="rgb(209, 219, 221)" stroke-width="0.1" data-originalStrokeWidth="0.1" style="stroke: rgb(0, 0, 0); fill: rgb(209, 219, 221); pointer-events: auto; stroke-width: 0.1;" pointer-events="auto"/>
      <path id="CO07" d="m547.7 382.77-.15.26-.05.43v.39l-.15.16-.04.33-.33.3-.4.07-.32.15-.17.19.04.29.2.22-.07.48.05.2-.37.33-.82.47.14.5-.13.06-.1.37.15.17v.3l-.28.4-.05.3-.24.19.14.13-.17.4-.25.2.05.28-.23.06-.43.98.06.26-.14.12-.26.02v.26l-.3.18-.16-.09-.13.3-.16.15.06.58-.41.1-.17.22-.13.65-.52.42-.2.32-.02.28-.18.02v.3l-.18.2 3.54.15 3.61.17v3.2l-.09.93.04.46-.06 1.38.32.03.1.45-.22-.01.02-.12h-.24l-.12 1.96-.92-.05-.24 1.92v.29l1.39.1 1.62.05.2.08-.1 2.7-.02.48h-.07l-.1 2.27-.13 3.33-.07 1.95-.13 2.8-.15 3.55-2.66-.11-.02.62-.15 3.51-.07.45-.1 2.33-.06 1.27-.11 2.68-.32-.06-.06-.3.06-.27-.04-.3-.43-.36-.1.2-.51.13-.43-.25.02-.32-.22-.22.12-.15-.23-.24.03-.15-.31-.27v-.25l.15-.14-.32-.35-.2-.1-.23.05-.4.27-.15.2.06.26-.23.08v.22l-.2.06-.04.33-.6.23.01.15-.26.15-.25.45-.1.02-.02.36-.32.56-.27.25-.31-.33-.05-.45-.14-.28-.24-.22-.47.13-.3.27-.34.05-.4.2-.69.6-.24.15-.36-.03-.3-.21-.75.04-.41-.5-.06-.19-.26-.24-.19-.53-.52-.54-.23-.06-.24.19-.2-.04-.57-.64.09-.13-.16-.37-.36-.73.19-.14-.13-.57-.13-.04-.19-.49.01-.19-.23-.15.03-.3-.18-.1-.03-.18-.46-.55-.1-.28v-.35l.09-.2-.12-.04-.22-.59-.07-.28.18-.22-.07-.18-.18-.07-.14-.2-.33-.08-.17-.43-.19-.11-.23-.48-.16-.07-.08-.25-.45-.32v-.2l-.27-.28-.38-.22-.14-.16.04-.23-.24-.58-.45-.15-.27-.37-.28-.29-.1.1-.27-.27-.42-.58-.26-.62v-.19l-.2-.3-.2-.13-.32-.45-.3-.13-.27-.27-.06-.38-.27-.22-.02-.2-.3-.22-.25-.35-.31-.02-.1-.36-.24-.31.05-.2-.17-.06-.03-.18-.27.01-.3-.15-.23.1-.15-.1-.09.2.09.2-.5.63-.28.03-.92-.05-2.96-.18-.03-.35.11-.2-.5-.1-.2-.16.06-.27-.19.03-.18-.24-.02-.38-.3-.13-.2-.58-.39-.1-.05.09-.3-.3-.1-.32.14-.27-.25-.4.04-.51.18-.28.08-.29-.15-.3.02-.19-.2-.37.02-.15-.1-.2v-.32l-.48-.33.02-.23.14-.2-.25-.1-.26.04v-.2l-.39.02-.28-.24-.03-.52-.13-.29-.04-.33-.13-.08-.13-.3.23-.33h.44l.07-.34.15-.14.04-.27-.04-.55.12-.18-.08-.28.16-.4-.06-.29.11-.08-.05-.29-.16-.27.18-.22-.01-.28.24-.16.23.2.34-.01.13-.35.21-.08.15-.23.03-.23.36-.03.01-.3.28-.22.12-.29.17-.03.2-.42-.12-.48-.2-.03-.27.12-.26-.2-.26.18-.22-.1.01-.41-.09-.1-.28.2-.06.2-.2.03-.24-.17-.2-.4-.22.08-.18.3-.12-.02-.39.16-.19-.03-.35-.27-.21-.37-.33-.25-.01-.24-.24-.15-.28-.38.18-.28-.15-.38-.54-.44-.05-.16-.56.22-.45-.06-.08-.21.13-.19.02-.52.09-.14-.18-.28.08-.36.41-.08.1-.16.05-.83-.2-.27.16-.45.41-.1v-.25l.16-.2-.11-.38.15-.36-.04-.38.25-.17.3.13.1-.15.34.2.3-.28-.02-.25.27-.27.16-.46.05-.64.1-.27-.18-.26.04-.21.23-.21.2-.35-.04-.4-.14-.02-.33-.4.05-.4.26-.18.2-.26.21-.06.08.21.45-.1.15-.13.39.04.14-.21-.02-.4-.14-.18.06-.43.18-.22.46-.35.21-.22.48.18.2.5.47.25.29-.15.45.03.17-.1.27.06.14.28.27.1.33-.24.3-.1.15.1.32-.2.16-.22.18-.02.03-.18 2.15.14.39.1h.55l.28.3.12-.04.54.41.3.05.54-.1.11-.13v-.49l.58-.4.08-.23h.22l.18-.18.61-.17-.04-.36-.27-.4.54-.06.16-.55.22-.01.44.11.24-.22.01-.17.27-.46.3.04.18-.35.14.02.08-.24.24-.06-.29-.4.26-.47.06.13.24.07.35-.17.14.06.18-.24.07-.43-.24-.14-.08-.28 1.9.1 2.59.08 1.31.02 1.77.14 2.77.15.15-2.24.06-1.57.1-1.89.16-3.03.45-.12.82-.1.34-.16.25.18.47-.1.17.18.2-.04.21.23.01-.19-.18-.32-.19-.03-.1-.2.08-.33-.23.02.02-.27.42.2.25.05.58.36.23-.03.05-1.22.06-.25 2.2.13.02-.48.23.02.02-.35.21.02.03-.46.17.09.41-.17h.34l-.03.47h.33l.12-.45.46.02.01-.25-.11-.31.14-.07.03-.71 1.08.03v-.22h.44l.01-.22h-.23l.01-.35.3.02.16-.1.06-.48.41.01-.06 1.4-.46-.03-.2.44-.02.57-.21-.02v-.39l-.43-.03-.04.85.2.27.22.12-.43-.03-.04.7-.45-.02v.22l-.44-.01-.16 2.97.22.09-.01.44-.23.08-.01.32-.27-.02.03.23.23.02-.15 3.21-.23.09-.01.13.23.01-.02.23h-.43l-.23-.09-.03.24.35.18-.26.58-.35-.02v.11l-.45-.02.04.35.39.03.22-.1.4.3-.74-.03-.03.13.93.03v-.1l.1.27-1.35-.07-.03.53-.2-.04-.42.14-.25-.04-.11-.36-.15.08.03.22.21.4.05.38.21.47h.38l.16.2-.02.36h.42l.13-.32.38.07" fill="#d1dbdd" stroke="rgb(209, 219, 221)" stroke-width="0.1" data-originalStrokeWidth="0.1" style="stroke: rgb(0, 0, 0); fill: rgb(209, 219, 221); pointer-events: auto; stroke-width: 0.1;" pointer-events="auto"/>
      <path id="CO08" d="m548.53 374.99.01-.32.23-.08.01-.43-.22-.09.16-2.98.44.01v-.22l.45.02.04-.7.43.03-.21-.13-.21-.27.04-.84.43.03v.4l.21.02.03-.57.19-.45.46.03.06-1.4h-.41l-.05-.09.04-1.07h-.19l-.1-.25-.34-.01v-.4l-.21.2.1.12-.2.17-.1-.1-.38-.04.23-.42.03-.25h-.24l.13-.36.28-.2h.46l-.03.35.43.02.02-.45-.23-.01.04-.83-.22-.1-.7-.03.04-.34.14-.12.77.03.02-.47h-.19l-.07-.46-.86-.03.01-.25.23.09v-.26l.24.03-.2-.35.21-.17-.67-.01.05-.93-1.12-.04.02-1.05h-.1l.02-.34-.12-.06.03-.56-.13.08-.3-.12.2-.17.2-.53-.25.1-.23-.17.91.03 2.74.13-.04-.33-.23-.6h-.16v-.24h.2l.06-.6.09-.08.58.02.04-.44h.2l-.01.24.26.01-.02.23.87.05.04-.46 1.1.06.1-.62.39-.08.02-.57.1.11h.5l-.6-.2v-.31l.25-.17.04-.93.94.02 1.82.08 1.34.1-.02.47 1.37.07 2.22.08-.02.47.45-.14.02-.31h.21v.46l.2.01v.46l-.89-.03-.1 2.06.23.02-.01.23h.23v.41l.31-.02.68.22.32.41.24.09.16.26-.04.82-1.19-.83-.45.7-.12-.03-.02.27-.48-.02.05.48-.2.37-.29.07-.03.44-1.79-.05-.22 5.04-.1-.11-.34-.02v.1l-.45-.01-.02.46.45.03v.4l-.41.26-.44-.03.15.13-.1.4-.4.51-.24.11.06.17-.54.7v.48l1.34.07-.11 2.97-.95-.05.01-.22-.3-.01v.23l-.27-.02-.03.35-.64-.04-.1 1.63-.73-.06-.01.13-.68-.04-.06 1.39-1.8-.07v-.47l-.42-.03-.03.47-.45-.02-.02.45-.56-.02v-.22h-.3l-.01-.12-.37-.02-.32.1.02-.25-.18.24-1.85-.1" fill="#d1dbdd" stroke="rgb(209, 219, 221)" stroke-width="0.1" data-originalStrokeWidth="0.1" style="stroke: rgb(0, 0, 0); fill: rgb(209, 219, 221); pointer-events: auto; stroke-width: 0.1;" pointer-events="auto"/>
      <g id="state_lines" stroke="rgb(209, 219, 221)" style="display: none; stroke: rgb(0, 0, 0);" stroke-width="0.1"/>
      <g id="state_abbr" fill="#000000" style="display: none; fill: rgb(0, 0, 0);">
        <text id="HI_label" x="491.79" y="769.82" style="font-size: 19.2455px; stroke-width: 1.60379; display: none;">
          <tspan id="HI_tspan" x="491.79" y="769.82" fill="#000000" dy="0" font-family="Arial" font-size="24.06" font-style="normal" font-weight="400" style="text-align: center; stroke-width: 2.57215; fill: rgb(0, 0, 0);" text-anchor="middle">HI</tspan>
        </text>
        <text id="AK_label" x="205.24" y="672.25" style="font-size: 19.2455px; stroke-width: 1.60379; display: none;">
          <tspan id="AK_tspan" x="205.24" y="672.25" fill="#000000" dy="0" font-family="Arial" font-size="24.06" font-style="normal" font-weight="400" style="text-align: center; stroke-width: 2.57215; fill: rgb(0, 0, 0);" text-anchor="middle">AK</tspan>
        </text>
        <text id="FL_label" x="1188.11" y="708.7" style="font-size: 19.2455px; stroke-width: 1.60379; display: none;">
          <tspan id="FL_tspan" x="1188.11" y="708.7" fill="#000000" dy="0" font-family="Arial" font-size="24.06" font-style="normal" font-weight="400" style="text-align: center; stroke-width: 2.57215; fill: rgb(0, 0, 0);" text-anchor="middle">FL</tspan>
        </text>
        <text id="NH_label" x="1306.05" y="167.79" stroke-width="1.1" font-size="13.25" style="display: none;">
          <tspan id="NH_tspan" x="1306.05" y="167.79" fill="#000000" stroke-width="1.1" dy="0" font-family="Arial" font-size="16.56" font-style="normal" font-weight="400" style="text-align: center; fill: rgb(0, 0, 0);" text-anchor="middle">NH</tspan>
        </text>
        <text id="MI_label" x="1019.65" y="246.58" style="font-size: 19.2455px; stroke-width: 1.60379; display: none;">
          <tspan id="MI_tspan" x="1019.65" y="246.58" fill="#000000" dy="0" font-family="Arial" font-size="24.06" font-style="normal" font-weight="400" style="text-align: center; stroke-width: 2.57215; fill: rgb(0, 0, 0);" text-anchor="middle">MI</tspan>
        </text>
        <text id="VT_label" x="1274.28" y="145.01" stroke-width="1.05" font-size="12.65" style="display: none;">
          <tspan id="VT_tspan" x="1274.28" y="145.01" fill="#000000" stroke-width="1.05" dy="0" font-family="Arial" font-size="15.81" font-style="normal" font-weight="400" style="text-align: center; fill: rgb(0, 0, 0);" text-anchor="middle">VT</tspan>
        </text>
        <text id="ME_label" x="1338.99" y="105.14" stroke-width="1.45" font-size="17.36" style="display: none;">
          <tspan id="ME_tspan" x="1338.99" y="105.14" fill="#000000" stroke-width="1.45" dy="0" font-family="Arial" font-size="21.7" font-style="normal" font-weight="400" style="text-align: center; fill: rgb(0, 0, 0);" text-anchor="middle">ME</tspan>
        </text>
        <text id="RI_label" x="1361.38" y="262.84" stroke-width="1.25" font-size="14.98" style="display: none;">
          <tspan id="RI_tspan" x="1361.38" y="262.84" fill="#000000" stroke-width="1.25" dy="0" font-family="Arial" font-size="18.72" font-style="normal" font-weight="400" style="text-align: center; fill: rgb(0, 0, 0);" text-anchor="middle">RI</tspan>
        </text>
        <text id="NY_label" x="1227.27" y="204.12" style="font-size: 19.2455px; stroke-width: 1.60379; display: none;">
          <tspan id="NY_tspan" x="1227.27" y="204.12" fill="#000000" dy="0" font-family="Arial" font-size="24.06" font-style="normal" font-weight="400" style="text-align: center; stroke-width: 2.57215; fill: rgb(0, 0, 0);" text-anchor="middle">NY</tspan>
        </text>
        <text id="PA_label" x="1187.28" y="284.69" style="font-size: 19.2455px; stroke-width: 1.60379; display: none;">
          <tspan id="PA_tspan" x="1187.28" y="284.69" fill="#000000" dy="0" font-family="Arial" font-size="24.06" font-style="normal" font-weight="400" style="text-align: center; stroke-width: 2.57215; fill: rgb(0, 0, 0);" text-anchor="middle">PA</tspan>
        </text>
        <text id="NJ_label" x="1330.57" y="290.09" stroke-width="1.28" font-size="15.4" style="display: none;">
          <tspan id="NJ_tspan" x="1330.57" y="290.09" fill="#000000" stroke-width="1.28" dy="0" font-family="Arial" font-size="19.25" font-style="normal" font-weight="400" style="text-align: center; fill: rgb(0, 0, 0);" text-anchor="middle">NJ</tspan>
        </text>
        <text id="DE_label" x="1320.8" y="328.42" stroke-width="1.36" font-size="16.38" style="display: none;">
          <tspan id="DE_tspan" x="1320.8" y="328.42" fill="#000000" stroke-width="1.36" dy="0" font-family="Arial" font-size="20.47" font-style="normal" font-weight="400" style="text-align: center; fill: rgb(0, 0, 0);" text-anchor="middle">DE</tspan>
        </text>
        <text id="MD_label" x="1310.72" y="368.46" stroke-width="1.34" font-size="16.11" style="display: none;">
          <tspan id="MD_tspan" x="1310.72" y="368.46" fill="#000000" stroke-width="1.34" dy="0" font-family="Arial" font-size="20.13" font-style="normal" font-weight="400" style="text-align: center; fill: rgb(0, 0, 0);" text-anchor="middle">MD</tspan>
        </text>
        <text id="VA_label" x="1198.59" y="392.33" style="font-size: 19.2455px; stroke-width: 1.60379; display: none;">
          <tspan id="VA_tspan" x="1198.59" y="392.33" fill="#000000" dy="0" font-family="Arial" font-size="24.06" font-style="normal" font-weight="400" style="text-align: center; stroke-width: 2.57215; fill: rgb(0, 0, 0);" text-anchor="middle">VA</tspan>
        </text>
        <text id="WV_label" x="1129.66" y="382.3" style="font-size: 19.2455px; stroke-width: 1.60379; display: none;">
          <tspan id="WV_tspan" x="1129.66" y="382.3" fill="#000000" dy="0" font-family="Arial" font-size="24.06" font-style="normal" font-weight="400" style="text-align: center; stroke-width: 2.57215; fill: rgb(0, 0, 0);" text-anchor="middle">WV</tspan>
        </text>
        <text id="OH_label" x="1079.05" y="334.46" style="font-size: 19.2455px; stroke-width: 1.60379; display: none;">
          <tspan id="OH_tspan" x="1079.05" y="334.46" fill="#000000" dy="0" font-family="Arial" font-size="24.06" font-style="normal" font-weight="400" style="text-align: center; stroke-width: 2.57215; fill: rgb(0, 0, 0);" text-anchor="middle">OH</tspan>
        </text>
        <text id="IN_label" x="998.79" y="352.94" style="font-size: 19.2455px; stroke-width: 1.60379; display: none;">
          <tspan id="IN_tspan" x="998.79" y="352.94" fill="#000000" dy="0" font-family="Arial" font-size="24.06" font-style="normal" font-weight="400" style="text-align: center; stroke-width: 2.57215; fill: rgb(0, 0, 0);" text-anchor="middle">IN</tspan>
        </text>
        <text id="IL_label" x="927.43" y="364.36" style="font-size: 19.2455px; stroke-width: 1.60379; display: none;">
          <tspan id="IL_tspan" x="927.43" y="364.36" fill="#000000" dy="0" font-family="Arial" font-size="24.06" font-style="normal" font-weight="400" style="text-align: center; stroke-width: 2.57215; fill: rgb(0, 0, 0);" text-anchor="middle">IL</tspan>
        </text>
        <text id="CT_label" x="1299.17" y="228.46" stroke-width="1.06" font-size="12.74" style="display: none;">
          <tspan id="CT_tspan" x="1299.17" y="228.46" fill="#000000" stroke-width="1.06" dy="0" font-family="Arial" font-size="15.93" font-style="normal" font-weight="400" style="text-align: center; fill: rgb(0, 0, 0);" text-anchor="middle">CT</tspan>
        </text>
        <text id="WI_label" x="898.6" y="224.7" style="font-size: 19.2455px; stroke-width: 1.60379; display: none;">
          <tspan id="WI_tspan" x="898.6" y="224.7" fill="#000000" dy="0" font-family="Arial" font-size="24.06" font-style="normal" font-weight="400" style="text-align: center; stroke-width: 2.57215; fill: rgb(0, 0, 0);" text-anchor="middle">WI</tspan>
        </text>
        <text id="NC_label" x="1205.6" y="458.72" style="font-size: 19.2455px; stroke-width: 1.60379; display: none;">
          <tspan id="NC_tspan" x="1205.6" y="458.72" fill="#000000" dy="0" font-family="Arial" font-size="24.06" font-style="normal" font-weight="400" style="text-align: center; stroke-width: 2.57215; fill: rgb(0, 0, 0);" text-anchor="middle">NC</tspan>
        </text>
        <text id="MA_label" x="1305.87" y="200.67" stroke-width="1.04" font-size="12.46" style="display: none;">
          <tspan id="MA_tspan" x="1305.87" y="200.67" fill="#000000" stroke-width="1.04" dy="0" font-family="Arial" font-size="15.58" font-style="normal" font-weight="400" style="text-align: center; fill: rgb(0, 0, 0);" text-anchor="middle">MA</tspan>
        </text>
        <text id="MO_label" x="854.22" y="422.93" style="font-size: 19.2455px; stroke-width: 1.60379; display: none;">
          <tspan id="MO_tspan" x="854.22" y="422.93" fill="#000000" dy="0" font-family="Arial" font-size="24.06" font-style="normal" font-weight="400" style="text-align: center; stroke-width: 2.57215; fill: rgb(0, 0, 0);" text-anchor="middle">MO</tspan>
        </text>
        <text id="GA_label" x="1106.89" y="574.56" style="font-size: 19.2455px; stroke-width: 1.60379; display: none;">
          <tspan id="GA_tspan" x="1106.89" y="574.56" fill="#000000" dy="0" font-family="Arial" font-size="24.06" font-style="normal" font-weight="400" style="text-align: center; stroke-width: 2.57215; fill: rgb(0, 0, 0);" text-anchor="middle">GA</tspan>
        </text>
        <text id="SC_label" x="1166.32" y="522.49" style="font-size: 19.2455px; stroke-width: 1.60379; display: none;">
          <tspan id="SC_tspan" x="1166.32" y="522.49" fill="#000000" dy="0" font-family="Arial" font-size="24.06" font-style="normal" font-weight="400" style="text-align: center; stroke-width: 2.57215; fill: rgb(0, 0, 0);" text-anchor="middle">SC</tspan>
        </text>
        <text id="KY_label" x="1039.99" y="426.39" style="font-size: 19.2455px; stroke-width: 1.60379; display: none;">
          <tspan id="KY_tspan" x="1039.99" y="426.39" fill="#000000" dy="0" font-family="Arial" font-size="24.06" font-style="normal" font-weight="400" style="text-align: center; stroke-width: 2.57215; fill: rgb(0, 0, 0);" text-anchor="middle">KY</tspan>
        </text>
        <text id="AL_label" x="1019.59" y="578.15" style="font-size: 19.2455px; stroke-width: 1.60379; display: none;">
          <tspan id="AL_tspan" fill="#000000" dy="0" font-family="Arial" font-size="24.06" font-style="normal" font-weight="400" style="text-align: center; stroke-width: 2.57215; fill: rgb(0, 0, 0);" text-anchor="middle">AL</tspan>
        </text>
        <text id="LA_label" x="872.7" y="649.59" style="font-size: 19.2455px; stroke-width: 1.60379; display: none;">
          <tspan id="LA_tspan" x="872.7" y="649.59" fill="#000000" dy="0" font-family="Arial" font-size="24.06" font-style="normal" font-weight="400" style="text-align: center; stroke-width: 2.57215; fill: rgb(0, 0, 0);" text-anchor="middle">LA</tspan>
        </text>
        <text id="MS_label" x="940.37" y="592.21" style="font-size: 19.2455px; stroke-width: 1.60379; display: none;">
          <tspan id="MS_tspan" x="940.37" y="592.21" fill="#000000" dy="0" font-family="Arial" font-size="24.06" font-style="normal" font-weight="400" style="text-align: center; stroke-width: 2.57215; fill: rgb(0, 0, 0);" text-anchor="middle">MS</tspan>
        </text>
        <text id="IA_label" x="823.33" y="308.44" style="font-size: 19.2455px; stroke-width: 1.60379; display: none;">
          <tspan id="IA_tspan" x="823.33" y="308.44" fill="#000000" dy="0" font-family="Arial" font-size="24.06" font-style="normal" font-weight="400" style="text-align: center; stroke-width: 2.57215; fill: rgb(0, 0, 0);" text-anchor="middle">IA</tspan>
        </text>
        <text id="MN_label" x="790.84" y="183.37" style="font-size: 19.2455px; stroke-width: 1.60379; display: none;">
          <tspan id="MN_tspan" x="790.84" y="183.37" fill="#000000" dy="0" font-family="Arial" font-size="24.06" font-style="normal" font-weight="400" style="text-align: center; stroke-width: 2.57215; fill: rgb(0, 0, 0);" text-anchor="middle">MN</tspan>
        </text>
        <text id="OK_label" x="732.05" y="519.54" style="font-size: 19.2455px; stroke-width: 1.60379; display: none;">
          <tspan id="OK_tspan" x="732.05" y="519.54" fill="#000000" dy="0" font-family="Arial" font-size="24.06" font-style="normal" font-weight="400" style="text-align: center; stroke-width: 2.57215; fill: rgb(0, 0, 0);" text-anchor="middle">OK</tspan>
        </text>
        <text id="TX_label" x="710.59" y="652.87" style="font-size: 19.2455px; stroke-width: 1.60379; display: none;">
          <tspan id="TX_tspan" x="710.59" y="652.87" fill="#000000" dy="0" font-family="Arial" font-size="24.06" font-style="normal" font-weight="400" style="text-align: center; stroke-width: 2.57215; fill: rgb(0, 0, 0);" text-anchor="middle">TX</tspan>
        </text>
        <text id="NM_label" x="506.94" y="542.36" style="font-size: 19.2455px; stroke-width: 1.60379; display: none;">
          <tspan id="NM_tspan" x="506.94" y="542.36" fill="#000000" dy="0" font-family="Arial" font-size="24.06" font-style="normal" font-weight="400" style="text-align: center; stroke-width: 2.57215; fill: rgb(0, 0, 0);" text-anchor="middle">NM</tspan>
        </text>
        <text id="KS_label" x="701.21" y="427.26" style="font-size: 19.2455px; stroke-width: 1.60379; display: none;">
          <tspan id="KS_tspan" x="701.21" y="427.26" fill="#000000" dy="0" font-family="Arial" font-size="24.06" font-style="normal" font-weight="400" style="text-align: center; stroke-width: 2.57215; fill: rgb(0, 0, 0);" text-anchor="middle">KS</tspan>
        </text>
        <text id="NE_label" x="686.63" y="337.29" style="font-size: 19.2455px; stroke-width: 1.60379; display: none;">
          <tspan id="NE_tspan" x="686.63" y="337.29" fill="#000000" dy="0" font-family="Arial" font-size="24.06" font-style="normal" font-weight="400" style="text-align: center; stroke-width: 2.57215; fill: rgb(0, 0, 0);" text-anchor="middle">NE</tspan>
        </text>
        <text id="SD_label" x="663.02" y="238.75" style="font-size: 19.2455px; stroke-width: 1.60379; display: none;">
          <tspan id="SD_tspan" x="663.02" y="238.75" fill="#000000" dy="0" font-family="Arial" font-size="24.06" font-style="normal" font-weight="400" style="text-align: center; stroke-width: 2.57215; fill: rgb(0, 0, 0);" text-anchor="middle">SD</tspan>
        </text>
        <text id="ND_label" x="663.02" y="150.75" style="font-size: 19.2455px; stroke-width: 1.60379; display: none;">
          <tspan id="ND_tspan" x="663.02" y="150.75" fill="#000000" dy="0" font-family="Arial" font-size="24.06" font-style="normal" font-weight="400" style="text-align: center; stroke-width: 2.57215; fill: rgb(0, 0, 0);" text-anchor="middle">ND</tspan>
        </text>
        <text id="WY_label" x="499.57" y="276.47" style="font-size: 19.2455px; stroke-width: 1.60379; display: none;">
          <tspan id="WY_tspan" x="499.57" y="276.47" fill="#000000" dy="0" font-family="Arial" font-size="24.06" font-style="normal" font-weight="400" style="text-align: center; stroke-width: 2.57215; fill: rgb(0, 0, 0);" text-anchor="middle">WY</tspan>
        </text>
        <text id="MT_label" x="487.84" y="155.58" style="font-size: 19.2455px; stroke-width: 1.60379; display: none;">
          <tspan id="MT_tspan" x="487.84" y="155.58" fill="#000000" dy="0" font-family="Arial" font-size="24.06" font-style="normal" font-weight="400" style="text-align: center; stroke-width: 2.57215; fill: rgb(0, 0, 0);" text-anchor="middle">MT</tspan>
        </text>
        <text id="CO_label" x="525.13" y="406.28" style="font-size: 19.2455px; stroke-width: 1.60379; display: none;">
          <tspan id="CO_tspan" x="525.13" y="406.28" fill="#000000" dy="0" font-family="Arial" font-size="24.06" font-style="normal" font-weight="400" style="text-align: center; stroke-width: 2.57215; fill: rgb(0, 0, 0);" text-anchor="middle">CO</tspan>
        </text>
        <text id="ID_label" x="339.94" y="235.07" style="font-size: 19.2455px; stroke-width: 1.60379; display: none;">
          <tspan id="ID_tspan" x="339.94" y="235.07" fill="#000000" dy="0" font-family="Arial" font-size="24.06" font-style="normal" font-weight="400" style="text-align: center; stroke-width: 2.57215; fill: rgb(0, 0, 0);" text-anchor="middle">ID</tspan>
        </text>
        <text id="UT_label" x="396.81" y="386.73" style="font-size: 19.2455px; stroke-width: 1.60379; display: none;">
          <tspan id="UT_tspan" x="396.81" y="386.73" fill="#000000" dy="0" font-family="Arial" font-size="24.06" font-style="normal" font-weight="400" style="text-align: center; stroke-width: 2.57215; fill: rgb(0, 0, 0);" text-anchor="middle">UT</tspan>
        </text>
        <text id="AZ_label" x="366.76" y="536.9" style="font-size: 19.2455px; stroke-width: 1.60379; display: none;">
          <tspan id="AZ_tspan" x="366.76" y="536.9" fill="#000000" dy="0" font-family="Arial" font-size="24.06" font-style="normal" font-weight="400" style="text-align: center; stroke-width: 2.57215; fill: rgb(0, 0, 0);" text-anchor="middle">AZ</tspan>
        </text>
        <text id="NV_label" x="262.47" y="370.64" style="font-size: 19.2455px; stroke-width: 1.60379; display: none;">
          <tspan id="NV_tspan" x="262.47" y="370.64" fill="#000000" dy="0" font-family="Arial" font-size="24.06" font-style="normal" font-weight="400" style="text-align: center; stroke-width: 2.57215; fill: rgb(0, 0, 0);" text-anchor="middle">NV</tspan>
        </text>
        <text id="OR_label" x="214.43" y="206.88" style="font-size: 19.2455px; stroke-width: 1.60379; display: none;">
          <tspan id="OR_tspan" x="214.43" y="206.88" fill="#000000" dy="0" font-family="Arial" font-size="24.06" font-style="normal" font-weight="400" style="text-align: center; stroke-width: 2.57215; fill: rgb(0, 0, 0);" text-anchor="middle">OR</tspan>
        </text>
        <text id="WA_label" x="238.05" y="102.99" style="font-size: 19.2455px; stroke-width: 1.60379; display: none;">
          <tspan id="WA_tspan" x="238.05" y="102.99" fill="#000000" dy="0" font-family="Arial" font-size="24.06" font-style="normal" font-weight="400" style="text-align: center; stroke-width: 2.57215; fill: rgb(0, 0, 0);" text-anchor="middle">WA</tspan>
        </text>
        <text id="CA_label" x="191.69" y="434.8" style="font-size: 19.2455px; stroke-width: 1.60379; display: none;">
          <tspan id="CA_tspan" x="191.69" y="434.8" fill="#000000" dy="0" font-family="Arial" font-size="24.06" font-style="normal" font-weight="400" style="text-align: center; stroke-width: 2.57215; fill: rgb(0, 0, 0);" text-anchor="middle">CA</tspan>
        </text>
        <text id="DC_label" x="1309.32" y="398.19" stroke-width="1.29" font-size="15.45" style="display: none;">
          <tspan id="DC_tspan" x="1309.32" y="398.19" fill="#000000" stroke-width="1.29" dy="0" font-family="Arial" font-size="19.31" font-style="normal" font-weight="400" style="text-align: center; fill: rgb(0, 0, 0);" text-anchor="middle">DC</tspan>
        </text>
        <text id="TN_label" x="1018.93" y="485.72" style="font-size: 19.2455px; stroke-width: 1.60379; display: none;">
          <tspan id="TN_tspan" x="1018.93" y="485.72" fill="#000000" dy="0" font-family="Arial" font-size="24.06" font-style="normal" font-weight="400" style="text-align: center; stroke-width: 2.57215; fill: rgb(0, 0, 0);" text-anchor="middle">TN</tspan>
        </text>
        <text id="AR_label" x="863.15" y="535.77" style="font-size: 19.2455px; stroke-width: 1.60379; display: none;">
          <tspan id="AR_tspan" x="863.15" y="535.77" fill="#000000" dy="0" font-family="Arial" font-size="24.06" font-style="normal" font-weight="400" style="text-align: center; stroke-width: 2.57215; fill: rgb(0, 0, 0);" text-anchor="middle">AR</tspan>
        </text>
      </g>
      <g id="state_borders" transform="translate(-0.04777967,-0.15336683)" stroke="rgb(209, 219, 221)" style="stroke: rgb(0, 0, 0);" stroke-width="0.3">
        <path id="CO_NM_border" d="m445.32 456.89 10.57.9 9.19.79 18.4 1.36 7.76.54 7.95.53.17.26 6.28.38 10.35.59 26.88 1.38 3 .2 8.84.38.5-.01 7.12.3 21.59.57 11.7.28" stroke="rgb(209, 219, 221)" stroke-width="0.3" fill="none" style="stroke: rgb(0, 0, 0); display: none;"/>
        <path id="CO_KS_border" d="m620.65 370.43-.2 18.42-.1 11.95-.13 11.99-.1 6.84-.06 6.48-.11 6.5-.1 11.58-.05 4.6-.26 17.23" stroke="rgb(209, 219, 221)" stroke-width="0.3" fill="none" style="stroke: rgb(0, 0, 0); display: none;"/>
      </g>
      <rect id="selection-rectangle" fill="#ffffccaa" stroke="rgb(209, 219, 221)" stroke-width="0.1"/>
      <ellipse id="selection-ellipse" fill="#ffffccaa" stroke="rgb(209, 219, 221)" stroke-width="0.1"/>
      <polygon id="selection-polygon" fill="#ffffccaa" stroke="rgb(209, 219, 221)" stroke-width="0.1"/>
      <polyline id="selection-polyline" fill="#ffffccaa" stroke="rgb(209, 219, 221)" stroke-width="0.1"/>
    </svg>
  </g>
  <svg id="legend-svg" width="100%" height="100%" style="overflow:visible;" class="ui-draggable ui-draggable-handle" x="1328.321548461914" y="504">
    <g id="legend-g-svg" fill="#000" transform="translate(0,0) scale(1)" style="font-family: Helvetica; font-weight: 400; font-style: normal;">
      <rect id="legend-bg-rect-svg" x="0" y="0" rx="3.8" ry="3.8" width="190" height="20" fill="#000000" stroke="rgb(209, 219, 221)" fill-opacity="0" stroke-width="0.1"/>
    </g>
  </svg>
</svg>
