<?xml version='1.0' encoding='UTF-8'?>
<svg xmlns="http://www.w3.org/2000/svg" xmlns:dc="http://purl.org/dc/elements/1.1/" xmlns:ns2="http://creativecommons.org/ns#" xmlns:rdf="http://www.w3.org/1999/02/22-rdf-syntax-ns#" id="wrapper" viewBox="0 0 1520 840" preserveAspectRatio="xMinYMin" height="840" width="1520" style="background-color: rgb(255, 255, 255);">
  <metadata>
    <rdf:rdf>
      <ns2:work rdf:about="">
        <dc:format>image/svg+xml</dc:format>
        <dc:type rdf:resource="http://purl.org/dc/dcmitype/StillImage"/>
        <dc:title>MapChart Map</dc:title>
        <dc:creator>
          <ns2:agent>
            <dc:title>MapChart.net</dc:title>
          </ns2:agent>
        </dc:creator>
        <ns2:license rdf:resource="http://creativecommons.org/licenses/by-sa/4.0/"/>
        <dc:description>This map was created with MapChart.net, a website for creating custom maps.</dc:description>
      </ns2:work>
      <ns2:license rdf:about="http://creativecommons.org/licenses/by-sa/4.0/">
        <ns2:permits rdf:resource="http://creativecommons.org/ns#Reproduction"/>
        <ns2:permits rdf:resource="http://creativecommons.org/ns#Distribution"/>
        <ns2:requires rdf:resource="http://creativecommons.org/ns#Notice"/>
        <ns2:requires rdf:resource="http://creativecommons.org/ns#Attribution"/>
        <ns2:requires rdf:resource="http://creativecommons.org/ns#ShareAlike"/>
      </ns2:license>
    </rdf:rdf>
  </metadata>
  <g id="map-group" transform="translate(-3576.0858434892125,-2323.069533488631) scale(3.868792857557829)">
    <svg id="map" width="1520" height="840" version="1.1" viewBox="0 0 1520 840" preserveAspectRatio="xMinYMin" data-originalStrokeWidth="0.3">
      <defs>
        <pattern id="circles3" width="10" height="10" patternUnits="userSpaceOnUse">    <rect width="10" height="10" fill="#fff"/>    <circle cx="4" cy="4" r="2" fill="#000"/>    </pattern>
        <pattern id="diagonal1" width="10" height="10" patternUnits="userSpaceOnUse">    <rect width="10" height="10" fill="#fff"/>    </pattern>
        <pattern id="diagonal3" width="10" height="10" patternUnits="userSpaceOnUse">    <rect width="10" height="10" fill="#fff"/>    </pattern>
        <pattern id="vertical1" width="10" height="10" patternUnits="userSpaceOnUse">    <rect width="10" height="10" fill="#fff"/>    <rect x="2" y="0" width="1" height="10" fill="#000"/>    </pattern>
        <pattern id="vertical3" width="10" height="10" patternUnits="userSpaceOnUse">    <rect width="10" height="10" fill="#fff"/>    <rect x="2" y="0" width="3" height="10" fill="#000"/>    </pattern>
        <pattern id="horizontal1" width="10" height="10" patternUnits="userSpaceOnUse">    <rect width="10" height="10" fill="#fff"/>    <rect x="0" y="2" width="10" height="1" fill="#000"/>    </pattern>
        <pattern id="horizontal3" width="10" height="10" patternUnits="userSpaceOnUse">    <rect width="10" height="10" fill="#fff"/>    <rect x="0" y="2" width="10" height="3" fill="#000"/>    </pattern>
        <pattern id="crosshatch" width="8" height="8" patternUnits="userSpaceOnUse">    <rect width="8" height="8" fill="#fff"/>    </pattern>
        <pattern id="subtlepatch" width="5" height="5" patternUnits="userSpaceOnUse">    <rect width="5" height="5" fill="#fff"/>    <rect x="2" y="2" width="1" height="1" fill="#000"/>    </pattern>
        <pattern id="checkers" width="8" height="8" patternUnits="userSpaceOnUse">    <rect width="8" height="8" fill="#fff"/>    </pattern>
        <pattern id="raindrops" width="10" height="10" patternUnits="userSpaceOnUse">    <rect width="10" height="10" fill="#fff"/>    </pattern>
        <pattern id="texture" width="4" height="4" patternUnits="userSpaceOnUse">    <rect width="4" height="4" fill="#fff"/>    </pattern>
        <pattern id="circles3_a03500_000000" width="10" height="10" patternUnits="userSpaceOnUse">    <rect width="10" height="10" fill="#a03500"/>    <circle cx="4" cy="4" r="2" fill="#000000"/>    </pattern>
        <pattern id="diagonal1_d9b400_535353" width="10" height="10" patternUnits="userSpaceOnUse">    <rect width="10" height="10" fill="#d9b400"/>    </pattern>
        <pattern id="diagonal3_3264c8_ffffff" width="10" height="10" patternUnits="userSpaceOnUse">    <rect width="10" height="10" fill="#3264c8"/>    </pattern>
        <pattern id="horizontal1_72b38e_000000" width="10" height="10" patternUnits="userSpaceOnUse">    <rect width="10" height="10" fill="#72b38e"/>    <rect x="0" y="2" width="10" height="1" fill="#000000"/>    </pattern>
        <pattern id="horizontal3_986ba1_ffffff" width="10" height="10" patternUnits="userSpaceOnUse">    <rect width="10" height="10" fill="#986ba1"/>    <rect x="0" y="2" width="10" height="3" fill="#ffffff"/>    </pattern>
        <pattern id="vertical1_b9a087_ffffff" width="10" height="10" patternUnits="userSpaceOnUse">    <rect width="10" height="10" fill="#b9a087"/>    <rect x="2" y="0" width="1" height="10" fill="#ffffff"/>    </pattern>
        <pattern id="vertical3_4c91bf_ffff33" width="10" height="10" patternUnits="userSpaceOnUse">    <rect width="10" height="10" fill="#4c91bf"/>    <rect x="2" y="0" width="3" height="10" fill="#ffff33"/>    </pattern>
        <pattern id="checkers_cc3333_f7f7f7" width="8" height="8" patternUnits="userSpaceOnUse">    <rect width="8" height="8" fill="#cc3333"/>    </pattern>
        <pattern id="texture_d1dbdd_525252" width="4" height="4" patternUnits="userSpaceOnUse">    <rect width="4" height="4" fill="#d1dbdd"/>    </pattern>
        <style id="map-style">svg { background-color: #ffffff; }</style>
      </defs>
      <path id="FL01" d="M1009.53 653.79v-.12l.42-.18 1.28-.56v-.34l-.39.16-.25.01-.23.15h-.4l-.15-.02-.06-.1-.05-.26.12-.32.26-.11.48-.1.19-.05.31-.5-.1-.45.03-.27.16-.17.09-.2-.1-.33.08-.15.24-.44.48-.08.32-.33.21-.1.2-.18.2-.24.04-.28-.14-.18-.29-.07-.18.01h-.46l-.3-.1-.44-.36-.2-.29.05-.12.08-.2-.09-.25-.14-.08-.03-.02-.04-.07-.07-.06h-.1l-.03-.01-.1-.07-.02-.09-.03-.03h-.04l.05-.25.05-.06.02-.02.08-.24.07-.57.19-.33.2-.14-.04-.25.14-.12.02-.02.07-.32-.05-.62.18-.09.05-.2.03-.07v-.05l-.02-.04h-.02l-.02-.02.02-.03v-.07l-.03-.11h.04v-.18l-.1-.5-.1-.28-.2-.07-.14-.5-.87-.32-.45-.3-.17.13-.3-.08-.04-.15-.38-.33-.47-.06v.02h-.02l-.02-.02h-.09v-.06l-.01-.01-.07-.04h.02v-.02l-.04-.02-.03-.03h-.04v-.04l-.03-.06h-.04v-.05h-.03v-.01l-.02.02h-.07l-.02-.03-.03.01-.04-.02v-.04h-.04l-.03-.03h-.07l-.04-.02h-.03l-.02-.06h-.11v-.06h-.1v-.02l.02-.07-.01-.02h-.04v-.04l-.03-.02-.07-.28-.32-.39v-.19l-.2-.2-.62-.4-.2-.25-.67-.3-.1-.24-.35-.12-.26-.3h-.03l-.02-.02v.01l-.03-.03v-.01l-.02-.02-.01-.27-.04-.04-.03-.07h-.02l-.01-.01-.04-.01-.02-.04h-.01v.02-.04h-.04v-.02l-.03-.02v-.01h-.04l-.01-.04.1-.46.2-.25-.09-.22.2-.52.05-.2.13-.64.12-.21.08-.39.01-.16v-.22l-.13-.24-.05-.12-.1-.29-.08-.16-.05-.1v-.05l.36-.04 1.38-.2.5-.07.4-.06.43-.07.91-.12.64-.1.29-.04.19-.03 1.4-.18.45-.09.12.01.56-.1.24-.02.4-.07.34-.05.42-.03.08-.03.13-.02h.35l.26-.04.62-.13 1.11-.2h.05l.57-.1.42-.04.16-.04.6-.09.68-.1.43-.05.36-.04.4-.06.71-.1.34-.04.56-.08.95-.12 1.11-.15h.08l.96-.16.48-.06.62-.1.54-.07.33-.03.81-.1.35-.06.08-.02.25-.02.36-.02.49-.06.3-.05.63-.1.68-.1.79-.12.19-.02.45-.08.23-.04 1.21-.13.54-.07.65-.12.56-.07 1.08-.2.22-.03 1.08-.15.44-.08.38-.05.08-.02.36-.05.23-.03.54-.07.38-.06.48-.07.76-.13.57-.09.15-.02.54-.08.14-.02.13-.02 1-.14.06 1.09.12.97.62 1.5.26.37.06.4v1.23l.22.8h-.65l.08.47-.28.3.08.15.25.01-.01.14.28-.04.04.32-.14-.1-.3.17.12.35-.42.07.25.14.15.22.04.34.12.1-.17.2.24.12.46.04.07.48.23-.02.07.36.28.42.1 1 .27.66.25 1.13.53-.08.12.92-.52.07-.02.57h.11l.11.8-.31.06v.23l.12-.03v.23h-.15l-.02.21-.15.03.06.5-.47.54-.45 1.92.2 1.44-2.35-.39-1.4-.15-1.4-.04-1.31.01-.87.05-.72.08-.95.2-.38-.08-2.85.1-.87.13-2.17.42-2.57.7-1.03.34-2.03.69-2.47.9-2.79 1.06-1.33.38-1.17.29-.55.12-.48-.08-.4-.23-.27.17-.03.16-2.94 1.2-.69.22-1.69.62" fill="#d1dbdd" stroke="rgb(209, 219, 221)" stroke-width="0.1" data-originalStrokeWidth="0.1" style="stroke: rgb(0, 0, 0); fill: rgb(209, 219, 221); pointer-events: auto; stroke-width: 0.1;" pointer-events="auto"/>
      <path id="FL02" d="m1045.24 646.92-.2-1.44.45-1.92.47-.53-.06-.51.15-.03.02-.21h.15v-.23l-.13.03v-.23l.32-.06-.1-.8-.12.01.02-.57.52-.08-.12-.92-.53.07-.25-1.12-.28-.66-.09-1-.28-.42-.07-.36-.23.02-.07-.48-.46-.04-.24-.13.18-.2-.13-.09-.04-.34-.15-.22-.25-.14.42-.07-.13-.35.3-.16.14.09-.03-.32-.28.04.01-.14-.25-.01-.08-.15.27-.3-.07-.48.65.01-.23-.8.01-1.22-.06-.41-.26-.37-.62-1.5-.12-.97-.06-1.09h.05l.76-.11.63-.1.6-.1.1-.02 1.39-.21h.06l.51-.09.33-.05h.01l.79-.13 3.58-.6.56-.1.3-.05.22-.03.29-.05.2-.06 1.36-.22.72-.1.46-.08.78-.13 1.16-.2.47-.1.47-.06.58-.1.07-.01.4-.08.5-.1.87-.15 1.01-.17.29-.06.6-.11.66-.11.55-.11.96-.17.4-.08.35-.05.22-.05.42-.09.97-.16 1.04-.16.25-.05.25-.03.4-.06.07-.03.51-.07 1.8-.28 1.03-.2.07.43-.06.23.08.2.48.07.2.18.06.24v.58l.36.17.08.2.44.4.48.55.19.06.02.15-.08.2.22.25-.06.15.11.26.25.21-.01.17-.21.2.06.49.3.41.01.17.04.16.13.18.24.25.02.06-.03.29v.03l.16.12.16.3.36-.08.09.08.19.14.17.3.16.09.24.14.23.35.21-.02.56-.08.38-.03.86-.11 1.08-.12.66-.08.57-.07 1.04-.13.57-.07.8-.08.58-.06 1.5-.17.6-.07.82-.08.26-.02 1.44-.2 1.06-.14.07-.03.5-.05.4-.04.29-.03 1.38-.17h.05l.81-.1 1.6-.2.96-.11.81-.11.54-.05 2.31-.27.8-.09 2.02-.25.91-.1h.02l.66-.1h.15l.47-.06.63-.06.34-.05.58-.07 1.7-.2.37-.04.56-.07 2.06-.24.66-.08 2.04-.26.52-.04.83-.1.54-.07.67-.08.79-.08.5-.07.42-.03.78-.1h.07l.46.08.54-.06.24.37v.13l.3.4.13.3-.13.2.1.35.2.29-.08.22.45.32.15.45.18.3-.16.1.19.18.1 1.03.5.07.3.33-.12.14.16.09-.05.38.15.26-.1.1.2.21.13-.14.15.2.28-.13.45.12.39.74-.19.06-.32.35.06.55.12.13-.18.2-.3-.03-.08.2.22.42-.12.27.17.3-.06.17-.35.32-.08.25.07.24-.14.52.05.25-.7.13.05.25-.3-.02-.15.09.12.67-.04.86.21 1.3.02.23.15.8-1.39.27-.22.1-.43.02.68 3.99.6 3.24.02.23.5-.09.38 2.04.9-.18.24 1.37-.23.57-.13.06-.16.58.1.18-.08.11.1.22.01.39-.07.27.07.38-.26.6.1.26-.27.11-.71-.1-.28.22-.42.04-.33-.19-.31.11-.32-.1-.71-.1-.07-.33-.33-.4-.44.1-.1-.12-.87-.2-.38-.35-.2-.03-.24-.55-.2-.02-.27.2.07-.32-.36-.41.16-.3-.27-.38-.02-.43-.19.04-.09-.28-.2-.05-.1-.16-.4-.13-.07-.15-.33-.44-.14-.31-.14-.06-.08-.28-.46-.2-.6-.4-.14-.01-.16-.29-.21.03-.26-.14-.9-.27-.34-.2-.24-.23-.16.1-.29-.12-.17-.2-.64-.16-.5.1-.36-.18-.23.08-.53-.38-.53-.23-.3-.03-1.17-.37-.03-.11h-.32l-.25-.19.02-.1-.86-.5-.21.02-.2-.18-.26.02-.18-.1.03-.24-.1-.06-.15.2-.17-.09.05-.2-.25-.15-.19.05-.3-.14-.4.2-.26-.08-.38.11-.48.39h-.3l-.3.13-.18.22-.22-.13-.88.73-.28.1h-.31l-.17-.1.2-.48-.55-.12-.31-.42-.15.2.18.34.2.22-.12.12-.4.08-.5.04-.27-.18-.1-.24-.41-.02-.21.39.01.3.18.45-.14.27-.53.2-.48.36-.39.43.05.25-.3.11.07.13-.18.34-.15-.15-.2.35.2.3.03.33.3.21.19-.21.15.28v.17l-.5.06-.38-.1-.33.02-.29-.1-.38-.02-.26.1-.46-.17-.08.1.08.28.12.06-.2.32.13.2.32-.04.2-.21.4.11.6-.12.3.2.28-.1.73.24.18.57v.34l-.16.47-.95.34-.68-.12-.5.02-.53-.22-.26-.23-.1-.22-.5.23-.49.55-.1-.11h-.44l-.65.32-.76.7-.88.65-.21.3-.5.46-.44.49-.06.29-.32-.03-.12.25-.47.11-.24.2-.62.65-.17.09-.48.6-.16.03-.73.6-.79.63-.34.13-.77.57-.32.3-.12.4h-.13l-.3-.33.12-.34.15-.67.14-.15.18-.4-.08-.5-.29.07-.03.38-.5.04-.3.13-.2.76-.25.4-.19.17-.45.25-.07.4-.18.24-.92.52-.34-.04-.27.17-.13-.11-.9-.05-.79.13-.53.19-1.3.6-.11.13-.3.07-.42.3-.36.17-.24.4-.29.06-.51-.05h-.48l-.59.08-.52.18-.45.26-.38.34-.42-.27-.35-.4-.43-.68-.45-.81-.24-.56-.45-1.14-.26-.88.01-.98.27-.48.3-.21-.24.6.04.33-.19.65.15.34.01.54.4.82-.03.23.22.13.27.6.07.37.4.6.23.17.13.3.17.13v.19l.28.02.6-.36.22.04.21-.25-.03-.6.04-.64-.17-.86-.07-1.26-.09-.3-.25-.13-.13-.24-.05-.32-.34-.34h-.2l-.35-.32-.3-.56-.48-.62-.67-.6-.63-.45-.46-.2-.98-.14-.72.07-.8-.32-.5-.4-.41-.45-.24-.01-.26-.18-1.32-1.01-.63-.28-1.93-.6-.49-.17-.88-.48-.64-.48-.79-.5-1.05-.54-1.99-.88-1.3-.5-.73-.25-1.5-.45-2.57-.64-2.55-.49m31.62 15.4h.79l.4.24h.17l-.34.81-.06.57-.6.19-.58-.04-.5-.36-.9-.41-1.03-.27.53-.18.9-.14.35.03.87-.45m3.19 2.36.16-.17.44-.12.41-.21.83-.59.49-.79.32-.2.27-.02.23-.3.2-.01.15-.26.28-.15-.01-.13.37-.1 1.3-.6.31-.22-.22-.14.04-.24.4.24.1-.12-.05-.36.25-.17.49-.57.16-.03.33-.35.02-.25.18-.06.2-.33.02-.2.23-.38.1.22-.15.2-.44.67-1.03 1.43-.27.3-.56.4-.52.36-.86.43-.76.54-1.3 1.11-.45.4-2.02 1.13-.23.1-.74-.46-.8-.38v-.2l.49.25.3.2.47.12.73.08.14-.07m10.07-8.3.08-.22.45-.25.08-.33.16-.14.1.19-.01.32-.2.3-1 .7-.92.47-.34.06-.1-.2.36.08.36-.13.08-.2.25.02.28-.1.36-.56" fill="#d1dbdd" stroke="rgb(209, 219, 221)" stroke-width="0.1" data-originalStrokeWidth="0.1" style="stroke: rgb(0, 0, 0); fill: rgb(209, 219, 221); pointer-events: auto; stroke-width: 0.1;" pointer-events="auto"/>
      <path id="FL03" d="m1123.1 654.88.27-.23.7.11.27-.1-.1-.27.27-.6-.07-.38.07-.27v-.4l-.11-.2.09-.13-.1-.17.15-.58.13-.06.23-.58-.25-1.36-.9.18-.38-2.04-.49.1-.03-.24-.59-3.24-.68-3.99.43-.02.22-.1 1.39-.26-.15-.8-.02-.24-.21-1.3.04-.86-.12-.66.15-.1.29.02-.04-.25.7-.13-.05-.25.14-.52-.07-.24.08-.25.35-.3.06-.18-.17-.31.12-.27-.21-.42.07-.2.3.02.17-.2-.1-.12-.07-.55.33-.35.18-.06-.39-.74-.44-.12-.3.13-.14-.2-.12.14-.2-.22.09-.09-.15-.26.05-.38-.16-.09.11-.14-.3-.33-.5-.07-.09-1.04-.2-.17.17-.1-.18-.3-.15-.45-.45-.32.09-.22-.2-.29-.12-.35.14-.2-.14-.3-.28-.4-.01-.13-.24-.37-.54.06-.46-.09.47-.06 1.17-.12.57-.06 1.45-.19.27-.03.87-.08.32-.04h.05l.85-.12.8-.08.82-.11h.06l.85-.11.88-.11.5-.06h.13l1.3-.16 3.7-.44 1.15-.14.47-.06.5-.05.61-.08.36-.06 1.05-.12.31-.04.34-.04.22-.03.55-.07.43-.05 1.56-.2.42-.05.59-.06 1.5-.19 1.47-.17.9-.12.65-.08.37-.03.33-.03.62-.09-.22.15-.23.32.03.15v.1l-.07.27.12.25.2.14.05.29.28.29.17.06.54.49.06.32-.1.22.03.36.1.03.07.35-.02.11-.04.5.06.12.08.22.05.04.03.02v.14l.1.06-.02.07.55.74.13-.1.2.27.21.2.1.06.22-.01.54-.33.17.06.08-.07.04-.12.3.04.22-.15.11-.03.3.16.32-.05.09.03.17-.12.2.13.09-.14.23-.1.08-.03.43 2.15.33 1.51.33 1.74.55 2.7.52 2.6.12.5.36 1.87 1.23 5.87.1.9-.17.05.17.12.14 1.38.11.76.26 1.18.61 3.12.4 1.95-.21.12-.21-.06.06.25-.32-.13-.15.2.08.12-.26.08-.2-.23-.22.15.16.71-.08.44-.19.37-.42 1.7.58 2.98.18.42.14.09 2-.38.05.33.34-.06.16.2.07.34-.23.05.15.7-.08.04.1.62-.2.14-.05.38-1.55.31.06.36-.88.2-.42.15.25 1.21.9 1.17.48 1 1 1.22-2.43.5-.97.18-1.67.33-.2-.38-.41-.1-.38-.2-.09.03-.47-.11-.2-.26-.28.14-.04-.13-.43-.02-.1-.19-.19-.08-.42.24-.09-.16-.27-.03-.41-.39-.5-.16-.35-.02-.08-.13-.42.08.04.09-.5.43-.27-.14-.08.14-.29-.06-.1.1-.31.04-.27.3-.17-.01-.32.29-.46.04-.17.3.05.25-.28.18-.53-.13-.62-.08-.65.02-.05-.11-.37-.05-.58.2-.18.2-.19.39-.13.02-.52.52-.05.3-.17-.19.08-.24-.03-.39.09-.25-.45-.82-.37-.02-.75.23-.03-.08.53-.34v-.14l-.47-.1-.41.16-.07-.44-.15.02-.16-.34.2-.14.29-.53-.22-.23-.04-.68-.33-.44-.51.33-.22-.06-.48-.03-.47.19h-.86l-.45-.08-.6.17-1.47.07-.04.55-.26.13-.05.33.1.11-.49.31-.21-.08-.27.4-.1-.08-.1-.5-.2.16-.14-.33v-.36l-.14-.43-.2-.18-.46-.67-.12-.46.1-.33-.07-.15.15-.3-.1-.21-.38-.3-.52.03-.13-.19-.13.09-.37-.23-.29.01-.35-.11-.28.17-.26-.1-.3-.65.23-.11.04-.29-.12-.13-.33.07.15-.14v-.35l-.33-.1-.44-.64-.25.01-.1-.36-.03-.36-.25-.06-.01-.22-.3-.43-.3.03-.07-.19-.3-.12-.48.1-.18-.06-.19.13-.66-.01-.06-.21-.39-.45-.08-.27-.44-.16-.22.07-.3-.28-.29-.05-.23-.3-.38.06-.25-.05-.2-.28-.45-.05-.06-.18.14-.12-.31-.48.05-.23-.16-.44-.14-.16-.1-.56.07-.41v-.38l-.18-.61-.22-.5-.3-.38.1-.16m13.4 15.67.25.05-.1.1-.15-.15m-.76.2-.22.08-.2-.08.4-.16.02.16m.85-.81-.23-.09v-.19l.28.08-.05.19m-1.66-.13.04.36-.1.07-.17-.38.23-.05" fill="#d1dbdd" stroke="rgb(209, 219, 221)" stroke-width="0.1" data-originalStrokeWidth="0.1" style="stroke: rgb(0, 0, 0); fill: rgb(209, 219, 221); pointer-events: auto; stroke-width: 0.1;" pointer-events="auto"/>
      <path id="FL04" d="m1172.31 621.8-.55.04-.3.58-.27.24-.27-.04-.35-.2-.9.24-.21-.01-.6.24-.04.1-.49.12.2.33.05.38-.23-.12-.96.22-.24.11.16.33.1.5-.18.12.1.2-.28.06-.03.29-.17.17-.83-.1-.2.31.13.6-.36.43.16.3.75.58.2.22.17.41-.03.15-.54 1.17v.3l-.19.35.16.92.44.59.04.47.19.72-.12.64.1.63.13.44.24.33.37.23 1.4.54.47.27.32.38.16.55-.1.74.19.56.31.62.6.86.09.13-3.88.88-2.28.5-.2.35-.85.94-.82.3-.46.24-.29.47-.06.8-.17.32-.99.2-.77.4-.37.52-.08.25-.57.1-.08-.9-1.23-5.87-.36-1.87-.12-.5-.52-2.6-.55-2.7-.33-1.73-.33-1.52-.43-2.15.07-.06.06-.1.17-.2-.06-.17v-.25l-.2-.28-.14-.31.06-.05-.05-.16-.02-.04.1-.15.1-.13-.12-.3-.08-.13.17-.4-.01-.23.05-.19v-.05l-.03-.1.13-.36-.07-.21-.03-.57-.08-.17-.08-.44-.04.05-.06-.66.04-.1-.05-.13.1-.26-.08-.22.09-.14-.06-.05-.06-.37-.09-.11-.06-.11-.04-.03-.2-.42-.18-.04-.04-.06-.06.05-.04-.09-.13-.3-.07-.03.02-.09-.14-.09-.16-.2-.04-.05v-.23l-.18-.2-.07-.06-.19-.53-.03-.25.03-.12h-.05l.1-.07-.03-.48.08-.32-.04-.13-.06-.11-.05-.2-.19-.08.06-.14-.03-.04.07-.17-.09-.32.04-.24.2.06.12-.07.25-.33.04-.1-.12-.15-.1-.05-.23-.32.15-.17.09-.12.44.06.05-.01.1.09.13.08h.05l.18.05h.04l.05-.02.02-.04.02-.03h.04l.03-.05.01-.12.02-.02-.02-.1v-.09l.02-.07.06-.1.05-.02.01-.05v-.14l-.06-.09-.05-.04-.02-.04.07-.05.01-.02-.02-.05-.05-.04v-.05l.05-.02-.1-.07v-.01l.02-.07.3-.33.21.03.06-.16.15.23.22.1.52-.06.09-.17-.08-.22h.02l.33.01.1.28.2.13.15.33h.31l.09.14.39-.15.21.09.13-.09.02.07-.03.1.1.01.03-.02.07-.05.1-.05.12-.01.06.04h.01l.06-.09.05-.03h.13l.07-.04.06-.02h.07l.1.06h.04l.15.15.03-.04-.04-.02v-.05l.02-.04.04-.05.04.02.01.05.07.06.1.1.06.05.08.09.02.06-.07.05v.03l.08.04.04.04.02.04-.01.06.02.03.05.02.22-.13.02-.03-.06-.05-.01-.04v-.05l.03-.13v-.03l-.04-.06.07-.04.06.01h.14l.04.03.03.07.12.07.22.02h.1l.09.02.04.02-.02.05-.03.05v.04l.02.02.06.04.1.02.14.03.02.03-.03.07v.03l.39.11.28-.15.1.04.1.01.02-.02.1-.1.07-.02.04.02.06.1.05.05.02.02.42-.01.02-.29-.19.14-.13-.1.47-.28.07.26.35.1-.03.25.2.13.22-.24.26.12v-.25l.1-.02.13.18-.03.21.22-.03.13.18.13-.1-.06-.25.2-.1.09.29.2-.18.23-.03.27.02.05.03.11.01.17.18.2-.24.09-.03.3.25.1-.13-.03-.38.19-.01.52-.1.54-.19.33.28.19.04.1.02.54-.08.55.18.1.94.05 1.25.05.95.16.98.16.54.32.78-.01.88.3.28.45-.18.23.53.17.58.18.49.1.47.25.53v.12" fill="#d1dbdd" stroke="rgb(209, 219, 221)" stroke-width="0.1" data-originalStrokeWidth="0.1" style="stroke: rgb(0, 0, 0); fill: rgb(209, 219, 221); pointer-events: auto; stroke-width: 0.1;" pointer-events="auto"/>
      <path id="FL05" d="m1179.75 638.89-.36.06.1-.1-.25-.52-.36.3-.05.13-.2.03-.11-.42-.52.16.13.62-.43.28-.54-.36-.04-.14-.3-.05-.22.49-.5-.7-.15-.31-1.74.56-.74.28-.8.16-.54.32-1.12.23-.6-.86-.32-.6-.18-.57.1-.75-.16-.55-.32-.4-.46-.26-1.41-.53-.37-.23-.24-.33-.13-.44-.1-.63.12-.64-.19-.72-.04-.47-.44-.6-.16-.91.17-.34.02-.32.54-1.16.03-.15-.17-.4-.2-.23-.75-.59-.15-.28.36-.44-.13-.6.2-.3.82.09.18-.17.02-.3.29-.05-.1-.19.18-.13-.11-.5-.16-.33.24-.1.96-.23.23.1-.05-.37-.2-.32.49-.12.03-.1.6-.24.23.01.9-.23.34.2.27.03.28-.23.3-.58.55-.03.02.17.3-.13-.03.56.17.74.47 1.52.57 1.43 1.27 2.76 1.32 3.05.32.79.83 1.87.43.83.46.72.37.27.55 1.28.38 1.2" fill="#d1dbdd" stroke="rgb(209, 219, 221)" stroke-width="0.1" data-originalStrokeWidth="0.1" style="stroke: rgb(0, 0, 0); fill: rgb(209, 219, 221); pointer-events: auto; stroke-width: 0.1;" pointer-events="auto"/>
      <path id="FL06" d="m1190.85 656.29.02.23.33.4-.1.1.27.11-.2.13.44.51-.35.25-.52-.03.05.18-.46-.16-.1.1-.4.02.1.41-.31.11.35.3v.27l-.32.15-.2-.19-.15.04.22.6-.52.06.23.73.32 1.34.15.8-.96-.17-.84.09-.29-.03-.57.07-.42.24-.37.27-.56.19-.14.25-.07.37-.14.04.1.47-.07.9-.68-.28-.31.04-.23-.08-.16-.3-.3.07.01.3-.46.09.33 1.7-.31.06-.25-.05-.11.29.02.26.2.25.03.29h-.25l.11.3-.26.48.05.12-.15.35-.18.15-.08.23-.28.3-.2.36-.01.3-.34.05-.35.23-.47.1-.37-.15-.38.05-.34.26-.54.12-.25.19-.72.17-.42.2.04.15-.45.14.07.35-1.45.3-.16-.18-.36.05-.35.25-.25.06-.13-.67-.1-.34-.54.07.33-.59-.22.1-.04.15-.2-.06-1.1.21-.05-.19-.27-.29-.36-.07.04-.16-.97-.43-.21.05-.4-.15-.56-.09-.2.46-.47-.07-2.36.46-.47-2.24-4.59.9-1-1.22-.49-1-.9-1.17-.24-1.2.42-.16.88-.2-.06-.36 1.55-.3.04-.39.2-.14-.1-.62.1-.04-.16-.7.23-.05-.07-.34-.16-.2-.34.06-.04-.33-2.01.39-.14-.1-.18-.42-.58-2.99.42-1.69.2-.37.07-.44-.16-.71.23-.15.2.23.25-.08-.08-.13.14-.2.33.14-.06-.25.2.06.22-.12-.4-1.94-.61-3.12-.25-1.2-.13-.76-.13-1.37-.17-.12.16-.05.56-.1.08-.25.37-.52.77-.4 1-.2.16-.32.06-.8.3-.47.45-.24.82-.3.86-.94.19-.35 2.28-.5 3.88-.88-.1-.13 1.14-.24.53-.3.79-.17.75-.28 1.74-.56.15.3.5.7.22-.48.29.05.05.15.54.36.43-.3-.13-.61.52-.16.1.42.21-.03.05-.13.36-.3.26.51-.11.1.36-.05.13.43.38.86.6 1.08.46.7.77 1.36 2 3.17 1.58 2.27 3.15 4.7 2.03 2.83" fill="#d1dbdd" stroke="rgb(209, 219, 221)" stroke-width="0.1" data-originalStrokeWidth="0.1" style="stroke: rgb(0, 0, 0); fill: rgb(209, 219, 221); pointer-events: auto; stroke-width: 0.1;" pointer-events="auto"/>
      <path id="FL07" d="m1190.85 656.29 1.17 1.6.82 1.01.5.53.7.51.66.96.55.68 3.35 3.66 2.01 2.26-3.62.78-2.72.61.46 1.94.78 3.48-2.8.6-.82.17-4.44.96-1.78.4-.21-.89-.9.2v-.03l-2.6.55h-.05l-.46-2.24.49-.16.37-.83.02-.8-.14-.69v-.19l-.3-.68.02-.3.2-.38.27-.29.1-.23.18-.15.14-.35-.06-.1.27-.5-.11-.3.25-.01-.04-.29-.19-.24-.02-.26.1-.3.26.06.31-.06-.33-1.7.46-.1-.01-.29.3-.06.16.29.23.08.3-.04.7.29.06-.91-.1-.47.14-.04.07-.37.13-.25.57-.2.37-.26.42-.24.57-.07.29.03.84-.09.96.16-.15-.8-.31-1.33-.24-.73.52-.06-.22-.6.16-.05.2.2.3-.15.01-.26-.35-.3.3-.11-.08-.42.39-.01.09-.1.48.15-.07-.18.53.03.35-.25-.43-.51.18-.13-.26-.12.09-.1-.3-.4-.04-.22" fill="#d1dbdd" stroke="rgb(209, 219, 221)" stroke-width="0.1" data-originalStrokeWidth="0.1" style="stroke: rgb(0, 0, 0); fill: rgb(209, 219, 221); pointer-events: auto; stroke-width: 0.1;" pointer-events="auto"/>
      <path id="FL08" d="m1200.62 667.5.86.93 2.2 2.06.12.1.98 1.04 1.47 1.27.35.66.38.93.28.49.72.97.45.52-.06.31-.25.15-.6.5-.31.45-.2.54-.07.73-.02.57.07.91.27 1.31.4 1.32.6 1.69.25.51.91 1.93.4.73.68 1.05.69.98.88 1.2 1.2 1.46 1.2 1.47.02.08 1.37 1.8 1.16 1.48.89 1.58.65 1.28.06.24.3.44.47.5.54 1.17-2.87.62-1.03.21-4.42.94-1.51.32-2.68.56-.57-2.59-2.6.6-.6-2.8-.17.05-.63-2.7.36-.1-1.07-4.87-.64-3.14.18-.05-1.03-4.96-.67-3.06-.38-.35-.03-.3-.74.1-1.15-.33-.27-.18-.55-.82-.73-.7-2.21.5-.42-1.83-.14-.18-.62-.56-.36-.23.01-.48.08-.43.18-.2-.06-.33.01-.36.1-.3 2.81-.6-.78-3.47-.46-1.94 2.72-.61 3.63-.78" fill="#d1dbdd" stroke="rgb(209, 219, 221)" stroke-width="0.1" data-originalStrokeWidth="0.1" style="stroke: rgb(0, 0, 0); fill: rgb(209, 219, 221); pointer-events: auto; stroke-width: 0.1;" pointer-events="auto"/>
      <path id="FL09" d="m1204.26 703.51-5.28 1.12-2.1.4.23-.18-.03-.38-.44-.24-.09-.38-.17-.27-.09-.33.06-.25-.5-.33-.22-.02.05-.34-.07-.18-.18.01-.24-.23-.04-.21.14-.05-.2-.17-.1-.22-.54-.43-.2-.37-.33-.37.02-.13-.75-.52-.48-.11-.33.16-.59-.07-.08-.16-.24.06-.36-.07.1-.08-.2-.18-.17-.46-.33-.4.03-.68-.22-.15-.03.12-.7-.11-.2-.18.23-.06-.02-.3-.38-.08-.08-.29-.64-.3-.17.01-.1-.3-.34-.42h-.15l-.56.23-.19.01-.32-.54-.15-.03-.27-.3-.39.29-1.54.33-.5-.13-.11-.59.27-.06.08-.18-.29-.4-.18-.49-.26-.32-.21-.1-.03-.27.24-.16-.26-.12-.2-.28.4-.38-.37-1.8-.58-.74-.41-.07-.34-.17-.5-.04-.5.1-.62-.17h-.54l-.5.22-1-2.77 3.87-.8 1.14-2.23v-.2l.15-.2 1.12-.23.27-.34.23-.18.01-1.1-.27-1.26.15-.2.2.04 1.5-.35.06-.1.38-.01.18-.24.75.2.83-.18.14.2.36.9.25.36.1.23 1.67-.37 1.63-.33 1.29-.27 2.21-.5.73.7.55.8.27.2 1.16.32.73-.08.03.28.38.36.67 3.06 1.03 4.96-.19.05.65 3.14 1.07 4.88-.36.08.63 2.71.16-.04.62 2.79" fill="#d1dbdd" stroke="rgb(209, 219, 221)" stroke-width="0.1" data-originalStrokeWidth="0.1" style="stroke: rgb(0, 0, 0); fill: rgb(209, 219, 221); pointer-events: auto; stroke-width: 0.1;" pointer-events="auto"/>
      <path id="FL10" d="m1181.95 676.27 2.61-.55v.04l.9-.2.2.89 1.79-.4 4.44-.97.81-.17-.1.29v.36l.06.34-.18.2-.09.42-.01.48.36.23.62.56.14.19.42 1.82-1.29.27-1.63.33-1.67.37-.1-.23-.25-.35-.36-.9-.14-.21-.83.17-.75-.2-.18.25-.38.02-.06.1-1.5.34-.2-.03-.15.2.27 1.25-.01 1.1-.24.18-.27.34-1.11.25-.15.18-.2-1.04-.1.01-.08-.38-.6.19-.3-.42-.17-.8-.14-.53.15-.74h-.19l-.06-.28.43-.1-.13-.27-.1-.55-.2-.25-.28-1.14.15-.03.07-.23.78-.2v-.2" fill="#d1dbdd" stroke="rgb(209, 219, 221)" stroke-width="0.1" data-originalStrokeWidth="0.1" style="stroke: rgb(0, 0, 0); fill: rgb(209, 219, 221); pointer-events: auto; stroke-width: 0.1;" pointer-events="auto"/>
      <path id="FL11" d="m1181.9 670.67.29.68v.2l.14.68-.02.81-.37.83-.49.16.46 2.24h.04v.2l-.78.2-.07.23-.15.03.27 1.13.2.26.1.54.14.29-.43.08.06.3.2-.01-.16.74.14.54.16.8.31.4.6-.17.07.38.1-.02.21 1.04v.2l-1.14 2.23-3.87.8 1 2.76.5-.2.54-.01-1.29 1.6-.6.51-1.31 1-.52.49-.34.02-.12-.6-.45.09.17.19.17-.2.11.55-.14-.14-.69.13.16.47h-.15l-.12-.38-.2.2.02.27-.27.03.05.1-.22.1-.04-.16-.4.22-.02-.26-.34.07-.06-.33-.67.13.09.44-.25.06-.36.27-.2.26-.24-.02.11.55-.75.15-.2-1.01-.15-.19-.53-.32-.54-.66-1.23-.87-.3-.17-.07-.33-.28-1.33-1.28-6.76-.43-.22-.45.2-.15.18-.16-.04-.45-.5-.24.15-.35-.12-.32-.54h-.16l-.37-.14-.2.35-.1-.1-.52.06-.02-.11-.29-.06-.3.18-.35-.28-.13-.3-.24-.19-.1.04-.1-.26-.4-.28-.11-.31-.09.05-.3-.2.04-.38-.37.04-.17-.29.3-.35-.03-.42.1-.24.08-.4-.1-.12-.02-.38.38-.49.01-.16.4-.45.04-.21.38-.27h.17l.13-.37-.17-.04.03-.38.33-.28v-.2l-.3-.16-.22-.55-.68-.29-.58-.44-.41-.17-.27-.46-.27-.1-.7-.38-.2-.4-.4-.47-.07-.22-.17-.04-.14-.33-.2-.06-.21-.21 1.66-.33.97-.17 2.43-.5 4.59-.91.47 2.24 2.36-.47.47.07.2-.45.55.09.4.15.22-.05.97.43-.04.16.36.07.27.29.04.2 1.1-.22.2.06.05-.14.22-.1-.33.58.53-.07.11.35.13.66.25-.06.35-.25.36-.06.16.19 1.45-.3-.07-.35.45-.14-.04-.15.42-.21.72-.16.25-.2.54-.11.34-.26.38-.05.37.14.47-.09.35-.23.34-.04" fill="#d1dbdd" stroke="rgb(209, 219, 221)" stroke-width="0.1" data-originalStrokeWidth="0.1" style="stroke: rgb(0, 0, 0); fill: rgb(209, 219, 221); pointer-events: auto; stroke-width: 0.1;" pointer-events="auto"/>
      <path id="FL12" d="m1144.54 672.43.05-.3.52-.52.13-.03.2-.4.17-.17.58-.22.37.06.05.1.65-.01.62.08.54.13.27-.18-.04-.25.16-.3.46-.04.31-.3.19.02.26-.3.31-.04.1-.1.29.06.08-.14.27.14.5-.43-.04-.1.42-.07.08.13.35.02.5.16.41.39.27.03.09.16.41-.25.2.08.1.2.43.02.04.13.29-.14.2.26.46.1.1-.03.37.21.4.1.21.38.21.2.21.07.14.33.17.04.07.22.4.47.2.4.7.38.27.1.27.46.41.17.57.45.69.28.22.55.3.17v.19l-.33.28-.03.38.17.04-.13.36-.17.01-.38.27-.03.2-.41.46-.01.16-.38.49.02.38.1.12-.07.4-.11.24.03.42-.3.35.17.28.37-.03-.02.39.28.2.09-.06.12.3.4.28.09.27.1-.05.24.18.13.32.35.27.3-.17.29.06.02.1.51-.05.1.09.2-.34.38.15.16-.01.32.54.35.12.24-.15.45.5.16.04.15-.17.45-.21.43.22 1.28 6.75.28 1.33-.55.09-2.18-.83-.1-.28-.3-.22-.15.01-.09-.32-1.44.29-.02-.19-.56.19-.08.25-.89.17.07.36-.11.09.16.89-.01.25-.37.69-.59.04.1.51-.38.09-.4.2-.4.02-.45.61-.28.74.1.29-.2.2-1.24.24-.61-.14-.26.06-.2-.08-.33.2-.36.01-.5.12-.3.2.32.47-2.28.44-.87.16-3.85.75-.36.1.11-.52.25-.25.07-.48.32-.02.23-.71-.22-.06v-.38h.22l.07-.13-.26-.22.24-.1.12-.4-.09-.32.23-.49-.13-.24-.04-.77.31-.71.04-.22h-.15l.1-.22.13-.7-.1-.11-.09-.53.29-.21v-.13l-.21-.04.11-.34.26-.2.13-.25.1-.48-.07-.18-.32-.03-.06-.22.35-.2-.03-.3.08-.32-.23-.34-.21.08.2-.3-.1-.64.34-.21.03-.16-.37-.34.03-.13.26.03v-.16l-.22-.3-.06-.22.18-.27-.38-.5-.14-.06-.03-.5-.33-.22-.13-.38.13-.24-.32-.19.04-.2.18-.1-.08-.2.21.04.15-.28-.03-.16-.37-.03-.03-.27-.25-.14-.44-.03-.17-.18-.3-.14-.42.12.07-.46.19-.07.04-.25.32.02.08-.12-.28-.3-.14-.82-.17-.07.22-.41-.2-.18-.05.12-.38-.16-.09-.19-.21-.05-.54-.4-.01-.36.22-.13-.23-.37.04-.64.7-.36.25-.26-.1-.62-.22-.12.08-.19-.27-.05.08-.39-.39-.1-.5-.45-.1-.27-.54-.13-.05-.25-.42-.18.15-.1-.24-.1m2.54 25.7-.21.05-.27-1.17.07-.16.29.05-.12.24.12.47-.01.27.13.26m-1.12-19.75-.23-.06.4-.15.35.12.22.18-.17.24-.08.34-.36-.23-.13-.44" fill="#d1dbdd" stroke="rgb(209, 219, 221)" stroke-width="0.1" data-originalStrokeWidth="0.1" style="stroke: rgb(0, 0, 0); fill: rgb(209, 219, 221); pointer-events: auto; stroke-width: 0.1;" pointer-events="auto"/>
      <path id="FL13" d="M1152 703.97v.01l-.34.2-.04.28.2.27.5.28.47.04.25.08h.02l.1.67.24-.04.24-.14.14.4.18-.1-.25.5.17.77-.19.03-.19.32.86 4.38-.1-.32-.2.24-.26-.03-.06-.2-.34.16-.13.45.1.57.1.17-.1.14.43.61.36.03-.11.46-.81.58-.03-.26-.21-.38-.25-.6-.06-.5.1-.46-.12-.7-.13-.35-.24-.33-.5-.4-.37-.58-.32-.22-.37-.44-.97-.54-.27-.23-.49-.58-.18-.3-.24-.59-.1-.36-.03-1.51.12-.53.02-.46-.07-.57-.17-1.18.1-.92.24.51.03.61.23.13-.17.35.31.55.04.24.17.07.1-1.3-.11-.86.06-.45-.38.06-.46-.13-.2.07-.37-.24-.21-.45-.02-.4.3.23.16.57.13.1.25-.1.37.22.47-.1-.17-.37.18-.25-.18-.2-.01-.55-.15-.26-.05-.66-.42-.74-.45.11.18-.32-.23-.3.36-.1 3.85-.76.76 3.6.24 1.19-.18.06.03.55-.22-.01-.17-.46v-.38l-.34-.1-.33.25.28.37.25.23-.21.59-.14.16.01.2.2.11-.27.45-.23.1m2.23 8.99-.1-.16.24.07-.14.1m-6.86-13.44.26-.15-.15.33.26.35-.29-.08-.08-.45m-.5-1.37.22-.04.11.25h-.19l-.13-.21" fill="#d1dbdd" stroke="rgb(209, 219, 221)" stroke-width="0.1" data-originalStrokeWidth="0.1" style="stroke: rgb(0, 0, 0); fill: rgb(209, 219, 221); pointer-events: auto; stroke-width: 0.1;" pointer-events="auto"/>
      <path id="FL14" d="m1158.07 712.78.32-.94.4-.88.04-.23.45-.52.33-.1.15-.17-.1-.32-.17-.22.08-.11.54-.32.55-.48.12-.3-.21-.04.35-.66.17-.03-.02-.21-.16-.1.12-.2.2-.11.08-.23.03-.86-.12.04-.2-.43-.19-.67-.45-.47-.54.07-.38-.43-.03.34-.38.02-.14-.92-.69.73.01.16.2.56.29.23-.03.28-.14.2.05.27.28.27.37.25.04.66-.5.09-.6-.05-.53-.18-.13.15-.11-.23-.22-.1-.32-.02-.06-.46.4-.15.15-.44-.08-.22-.28.08-.05-.29.18-.04-.07-.29.11-.04-.2-.4-.03-.48-.31-.45-.21-.05.03-.19-.27-.24-.33.06-.19.16.06-.25-.42-.2-.47.07-.42-.23-.27-.08-.17-.18-.37-.13-.1-.3-.2.03-.24-1.2-.75-3.58.86-.16 2.28-.43.05.64-.17.36.01.28.18.62.3.6v.28l.12.68.4.1.77.46.57-.03 1.3-.2 1.1-.23.33.38.07.25.29-.06.02-.23.67.04.09.52-.17.03v.45l.12.55.25.4.4 1.13.16.23-.08.36.23.85-1.04.2.2.44.13.85-.02.23.18 1-.16.57-.89 1.25.16.5-.1.34-.4.13-.44.69-.18.36-.48.5-.3.42-.24.2-.82.15m-3.7-.86-.87-4.38.18-.32.2-.03-.17-.76.26-.51-.2.1-.13-.4-.24.14-.24.04-.1-.67.67.05.15.1.11-.14.25.1.23-.12-.18.35.02.15.2.02.48.25.45.4.19.01-.02.2.18.42.25.36-.08.28.2.05-.1.22-.13.02-.2.51.03.18-.4.25.02.28.1.12v.43l-.13.24.26.23-.1.14.12.43-.12.55-.12.23-.34.18-.7-.06.01.36m5.99-5.55.02.34h-.25l-.01-.5.2-.02.04.2m-.12-1.62.09.47-.12.2h-.21l-.07-.63.3-.04" fill="#d1dbdd" stroke="rgb(209, 219, 221)" stroke-width="0.1" data-originalStrokeWidth="0.1" style="stroke: rgb(0, 0, 0); fill: rgb(209, 219, 221); pointer-events: auto; stroke-width: 0.1;" pointer-events="auto"/>
      <path id="FL15" d="m1155.46 696.49-.32-.46.3-.22.5-.12.36-.01.33-.21.2.1.26-.07.61.13 1.25-.24.2-.19-.11-.29.28-.74.44-.61.41-.02.4-.21.38-.08-.1-.51.6-.05.36-.68.01-.25-.16-.9.1-.08-.06-.36.9-.17.06-.25.56-.18.03.18 1.44-.29.09.32.16-.01.3.22.09.28 2.18.83.55-.08.07.34.3.16 1.23.87.54.66.53.32.16.19.19 1 .23 1.14.08.14.4.3.1.18.55 2.66-.06.23-.35.06.06.24-.46.09.1.43-.34.09.09.44-.54.1-.13.5-.27-.06-.92.17-.62-.2-2.77.56-1.53.29-1.89.38-.86-.22-.2.05-.24-.4-.11-.56v-.44l.15-.03-.09-.52-.66-.04-.01.23-.3.06-.07-.25-.34-.38-1.1.23-1.28.2-.58.03-.76-.46-.4-.1-.13-.67v-.3l-.3-.6-.19-.6v-.3l.17-.35-.05-.64" fill="#d1dbdd" stroke="rgb(209, 219, 221)" stroke-width="0.1" data-originalStrokeWidth="0.1" style="stroke: rgb(0, 0, 0); fill: rgb(209, 219, 221); pointer-events: auto; stroke-width: 0.1;" pointer-events="auto"/>
      <path id="FL16" d="m1158.07 712.78.82-.16.24-.2.3-.4.5-.5.16-.38.44-.68.4-.13.1-.34-.15-.5.9-1.25.14-.58-.18-1 .02-.22-.14-.85-.18-.43 1.03-.2-.24-.86.1-.36-.17-.24-.4-1.13.19-.04.86.2 1.89-.36 1.53-.29 2.77-.56.62.2.45-.08.4 1.9.1.32.21 1.2.24 1.23 1.13 5.63.74 3.85.76 3.93.36 1.93.42 2.08-5.45 1.03-1.03-5.44-3.86.74-1.51.32-.02-.08-.38.08-5.03.93-.64-.59-.45-.3-.48-.22-.08-.3-.72-1.24-.26-.35-.35-.37-.62-.42-.02-.27.74.26.29.05.07.67.12.1.56-.08-.07-.33.27-.42.33-.16.18.02.37-.21-.18-.23.28-.23v-.42l.1-.23.34-.46-.08-.42.38-.36.24-.06.24-.2.23-.56-.04-.7.17-.28m-5.28 3.02-.09.03-.1-.65.12.06.07.56" fill="#d1dbdd" stroke="rgb(209, 219, 221)" stroke-width="0.1" data-originalStrokeWidth="0.1" style="stroke: rgb(0, 0, 0); fill: rgb(209, 219, 221); pointer-events: auto; stroke-width: 0.1;" pointer-events="auto"/>
      <path id="FL17" d="m1173.88 737.5-.44.1-.38.08-.23.01-.4-.25-1.25.02-.21.03-.38-.4-.07-.36-.68-.67-.89-.96-.29-.18-.27-.26-1.05-1.2-.4-.53-.69-.72-.38-.56-.35-.45-.97-1.07-.84-1.43-.13-.08-.38-.8-.87-1.08-.13-.26-.77-1.08-.48-.43-.34-.45-.58-.17-.2-.25.16-.55-.26-.05-.27-.3-.35-.26-.15-.24-1.13-.87-.49-.46-.19-.28 5.03-.92.38-.1.01.1 1.52-.33 3.85-.74 1.04 5.45 5.45-1.04.47 2.53.57 2.84 1.79-.34.24-.16 5.27-1.02 2.89-.58.72-.14 2.76-.57 1.88 9.81 1.13 5.2-.87.21-.45.08-.03-.17-.5.11-.14.2-.4-.27-.94-.24-.31-1.43-.1-.1-1.25.28-.25-.08-.43.08-.05-.21-.42.1-.1-.49.1.02-.12-.45-.2.05.09.46-.45.08-.17-.42-.6.13-.08-.34-.32.2-.1-.5-.5-.22-.29.5-.67.72-.61-.54-.1-.15-.12-.74-.26-.5-.96-1.25-3.63.7-.1-.56.1-.44-.2-.59-.11-.5-.07-.62-.12-.4-.2-.11-.76-.16-.18-.13-.23-.63.24-.53.23.01.29-.1.3-.32v-.13l-.43-.38-.36-.05-.25.06-.09.14-.3.1-.03-.15-.42-.1v.18l.14.2-.25.2-.26.78-.23.16-.19-.04-.21-.2-.22-.07-.22-.23-.22.23.14.44.42.62.75 1.28.63 1.96-.63.69" fill="#d1dbdd" stroke="rgb(209, 219, 221)" stroke-width="0.1" data-originalStrokeWidth="0.1" style="stroke: rgb(0, 0, 0); fill: rgb(209, 219, 221); pointer-events: auto; stroke-width: 0.1;" pointer-events="auto"/>
      <path id="FL18" d="m1204.26 703.51 2.59-.6.57 2.6 2.67-.57.22.97.53 2.39 1.03 4.7-.01.01.33 1.51.81 3.75-.35.52-1.26 1.69-1.88 2.4-1.19 1.59.05.28.92 4.33 1 4.72.37 1.8.82 3.5.2.93.74 3.09h-.05l.61 2.64-2.68.63-4.05.9-.93.23-1.34.27-1.78.42-.56-2.45-.12-.48-.49-2.21-.87.2-.48.18-3.13.68-.44-2.04-3.22-.23-.54.12-.2-.9-1.13-5.2-1.88-9.81-2.76.57-.72.13-2.89.59-5.27 1.02-.24.16-1.8.34-.56-2.84-.47-2.53-.42-2.08-.36-1.93-.76-3.93-.74-3.85-1.13-5.63-.24-1.24-.22-1.19-.09-.33-.4-1.89.47-.09.27.07.13-.5.54-.1-.09-.45.34-.09-.1-.43.46-.09-.06-.24.35-.06.06-.23-.54-2.67-.1-.17-.4-.3-.1-.14-.22-1.13.75-.15-.1-.55.23.02.2-.26.36-.27.25-.06-.09-.44.66-.13.07.33.34-.07.02.26.4-.2.04.15.22-.1-.05-.1.27-.04-.02-.27.2-.2.12.39h.15l-.16-.48.7-.13.13.14-.12-.54-.16.2-.17-.2.45-.08.12.6.34-.03.52-.5 1.32-.98.6-.5 1.28-1.62.62.16.5-.09.5.05.34.16.41.07.58.75.38 1.78-.4.39.2.27.25.13-.24.16.03.27.21.1.26.32.18.5.29.4-.09.17-.26.06.1.59.5.13 1.55-.33.39-.29.27.3.15.03.32.55h.2l.55-.25h.15l.33.41.11.31.17-.02.64.31.08.29.38.07.02.3-.25.08.2.17.72.1.03-.1.22.14-.03.67.33.4.18.47.2.18-.11.08.36.07.24-.06.08.16.6.07.32-.16.48.11.75.52-.02.13.33.37.2.37.53.43.1.22.21.17-.14.05.04.2.24.24.19-.01.06.18-.05.34.22.02.5.33-.06.25.09.34.17.27.09.38.44.24.03.38-.23.17 2.1-.4 5.28-1.12" fill="#d1dbdd" stroke="rgb(209, 219, 221)" stroke-width="0.1" data-originalStrokeWidth="0.1" style="stroke: rgb(0, 0, 0); fill: rgb(209, 219, 221); pointer-events: auto; stroke-width: 0.1;" pointer-events="auto"/>
      <path id="FL19" d="m1176.92 736.9 3.63-.7.96 1.24.26.51.13.74.08.14.62.54.67-.72.3-.49.5.22.09.5.32-.21.08.35.6-.13.17.42.45-.08-.1-.46.21-.05.11.45-.1-.02.1.5.43-.11.05.21.43-.08.25.08 1.25-.27.1.09.31 1.43.94.24.4.27.15-.2.49-.1.03.16.45-.08.87-.2.2.9.6 2.75-2.7.6.69 3.15-2.45.52.13.24.28 1.34.3.6.2.97.53-.05.03.4.2.85-.36.09-.12-.15-.46.1.04.18.21-.05.4 1.8-.06.15.9.72.64.27.4 2.5-.08.62.23.11.55.07.53-.05.14.15.23.02.08.26.37.25.2.43.06.53-.2-.12-.64.62-.05.18.23.28-.12.7-.37-.18-1.12-1.52-.33.02-.22-.66-.24-.25-.48-.22-.1-.18.25-.45.15-.1-.23-.16-.2-.37-.28-.17-.17-.18-.47-.78-.45-.57-.72-1.05-.57-1.8-.28-.63-.27-1.02-.29-.88-.7-1.69-.52-.95-.44-.64-.3-.37-.25-.4-.53-.4-.09-.11-.33-.1-.54-.64-.4-.22-.46-.17-.55-.12-.42-.32-.07-.35-.83-.1-.32.09-.16-.1.02-.56-.12-.45-.2-.22h-.29l-.4.27-.1-.23-.52-.4-.23.45v.31l.15.36.45.54-.78.29-.26.22-.26.05-.08-.22.06-.62-.27-.08.18-.18-.33-.2-.14-.39-.3-.38-.17-.39-.07-.44-.38-.8-.19-.04-.23-.29-.15-.34.08-.31-.26-.28-.55-.36-.14-.21-.37-.1-.13-.38.21-.38.42-.14.2.05h.75l.5.48.31.44.07.34.2.24.28-.11.12-.23-.33-.34.03-.6-.06-.52.06-.48.2-.85-.04-.9m-3.85.77-.08.22-.16-.08-.29.09-.3-.06-.5.34-.06 1.11.09.3-.16-.02-.23-1.12-.31-.82-.1-.14.21-.03 1.25-.02.4.25.24-.01m1.77 7.29.08.19.3.3.1.29.4.33.54.26.45-.13.39.1.99.39.26-.4.28-.06.08-.15.97.37.5-.08-1.2 1.09-.31.16-.67.05-.86-.19-.73-.46-.76-.25-.25-.2-.25-.38-.67-1.66-.32-.65-.3-.31-.23-.09-.16-.26-.04-.29.08-.16.2.09.33.56.42.86.2.28.18.4m-2.13-4.24-.05.46.24.37.17.13.22.51.15.03-.05.4-.35-.62-.16-.08-.48-.65-.5-.43.05-.33-.02-.51.26-.11.16.28-.01.32.37.23" fill="#d1dbdd" stroke="rgb(209, 219, 221)" stroke-width="0.1" data-originalStrokeWidth="0.1" style="stroke: rgb(0, 0, 0); fill: rgb(209, 219, 221); pointer-events: auto; stroke-width: 0.1;" pointer-events="auto"/>
      <path id="FL20" d="m1233.79 746.12-.68.22-.44.05-.68.15-.12-.45-.5.12-.6-.35-.48.1-.08-.36.08-.1-.4.08-.06-.3-.45.09.24 1.12-.25-.18-.25.05.08.36-.47-.02.13.64-.46.1-.15-.77-2.29-.07h-.2l-.04.2.37.8.48 2.1.67 2.62-6.74 1.46-.15-.67-1.93.4-3.44.72-.13-.64-.92-3.77-.37-1.42-.58-2.64-.6-2.64h.04l-.74-3.09-.2-.92-.81-3.51-.38-1.8-1-4.72-.92-4.33-.05-.28 3.75-.8 3.33-.68 1.36-.3.2.88.43-.09 1.12.72 2.17 1.35 1.81 1.1.57.41 1.15.94.17.93 1.45-.27-.1-.64-.01-.24.22-.05-.05-.23.13.01.9-.15.05.2.87-.2.46-.1.05.35.45.13.08.24 2.8-.54.08-.16-.2-.18-.15-.52-.4.2-.12-.55-.45.05-.21-1.35 1.2.53h.06l-.13-.7.07-.48.76-.16.03.1.38-.09-.04.35.17.37-.07.39.08.28-.08.08.2 1.04h-.1l.07.3-.24.08.07.2-.14.27.2.25.03.44-1.17.21-2.55.5.1.43-.47.04-.11-.39-2.2.4-1.81.36.07.18.6.77.5.38 1.72.64 1.05.92.6.64.51.83.2.91.14.43-.02 1.9.14.79-.3.65.17.71-1.35-.15.81 3.84 2.92-.68.12.5.41-.89.06-.19.46-.06-.12-.51.4-.08v-.95l.18-.03.03-.81-.1-.4.54-.07-.04.27-.1 2.96-.26.04.09.39-.03.2-.24.44.03.38-.11.63.22.24.3.11.16.56-.06.32-.56.12.12.46" fill="#d1dbdd" stroke="rgb(209, 219, 221)" stroke-width="0.1" data-originalStrokeWidth="0.1" style="stroke: rgb(0, 0, 0); fill: rgb(209, 219, 221); pointer-events: auto; stroke-width: 0.1;" pointer-events="auto"/>
      <path id="FL21" d="m1233.02 725.04-.36.2.07-.39-.17-.37.03-.35-.38.1-.02-.11-.76.15-.07.48.13.7-.07.01-1.2-.53.22 1.35.46-.05.11.54.4-.2.14.52.2.18-.07.17-2.8.54-.08-.24-.45-.13-.05-.34-.46.09-.87.2-.05-.2-.9.15h-.13l.05.22-.22.05v.24l.1.64-1.44.26-.17-.92-1.15-.94-.57-.41-1.81-1.1-2.17-1.35-1.12-.72-.44.1-.19-.9-1.36.31-3.33.67-3.75.8 1.19-1.58 1.88-2.4 1.26-1.7.35-.5-.81-3.77-.33-1.5-1.02-4.71-.53-2.39-.22-.97 1.52-.32 4.42-.94 1.03-.21 2.87-.62.47.91.46.7.49.77.03.2 1.27 2.04 1.12 1.44.31.53.76 1.1.65.93 1.25 1.53.38.68-.08.21.56.87.16.36.36.48.67.82.97 1.48.43.92.7 1.26.26.53 1 1.86.82 1.83.15.7-.1.04" fill="#d1dbdd" stroke="rgb(209, 219, 221)" stroke-width="0.1" data-originalStrokeWidth="0.1" style="stroke: rgb(0, 0, 0); fill: rgb(209, 219, 221); pointer-events: auto; stroke-width: 0.1;" pointer-events="auto"/>
      <path id="FL22" d="m1233.02 725.04.01.2.45 1.55.15.78.04.42.16.91.32 1.32.15 1.05.07.73-.03.25.04.9.13 1.7.08.72-.09.02.06.36-.42-.05-.55.13.03.47-.78.17-.04-.22-.47.1.06.23-.7.15.1.47-.9.2.1.34-.94.18-.14-.79.02-1.9-.13-.43-.2-.9-.52-.84-.6-.64-1.05-.92-1.71-.64-.51-.37-.6-.79-.07-.17 1.82-.35 2.19-.4.11.38.47-.04-.09-.44 2.55-.49 1.15-.2-.02-.45-.2-.25.14-.28-.07-.18.24-.1-.06-.3.1.01-.21-1.04.08-.07-.08-.3.35-.2" fill="#d1dbdd" stroke="rgb(209, 219, 221)" stroke-width="0.1" data-originalStrokeWidth="0.1" style="stroke: rgb(0, 0, 0); fill: rgb(209, 219, 221); pointer-events: auto; stroke-width: 0.1;" pointer-events="auto"/>
      <path id="FL23" d="m1234.59 735.57.02.17.37 2.8v.56l.26 1.86-.1.1v.47l.1 1.14.19 2.19.2 1.22-.02.07-.5.12-.02-.12-.3.02-.2.1-.52.13-.02-.36-.26.08-.1-.46.55-.12.06-.32-.16-.56-.29-.11-.23-.24.11-.63-.03-.38.24-.44.03-.2-.09-.39.26-.05.1-2.96.04-.26-.54.07.1.4-.03.81-.19.02.01.95-.4.09.12.51-.46.05-.06.2-.4.88-.13-.49-2.92.68-.81-3.84 1.35.15-.16-.7.29-.66.93-.18-.08-.34.9-.2-.1-.47.7-.15-.07-.22.47-.11.04.22.78-.16-.03-.48.55-.12.42.04-.06-.36.09-.02" fill="#d1dbdd" stroke="rgb(209, 219, 221)" stroke-width="0.1" data-originalStrokeWidth="0.1" style="stroke: rgb(0, 0, 0); fill: rgb(209, 219, 221); pointer-events: auto; stroke-width: 0.1;" pointer-events="auto"/>
      <path id="FL24" d="m1236.92 756.61-.3-.2.33-.1-1-.23-.35-.2-.25.11h-.43l-.1-.2.47-.11-.08-.28.06-.22-.66.12-.64.17h-.48l-.17-.24-.1-.37.1-.02-.07-.3.22-.06-.2-.75-.45.11-.08-.34-.42.11-.06-.23-.2-.15-.32.04-.22-.87.45-.1-.36-1.38-.15-.7 1.5-.36h.46l.04-.1 1.16-.3.14.66 1.32-.32.16.9.12.87.12.6.29.96.14.63.15 1 .02 1.33.04.19-.2.33" fill="#d1dbdd" stroke="rgb(209, 219, 221)" stroke-width="0.1" data-originalStrokeWidth="0.1" style="stroke: rgb(0, 0, 0); fill: rgb(209, 219, 221); pointer-events: auto; stroke-width: 0.1;" pointer-events="auto"/>
      <path id="FL25" d="m1235.6 746.15.03.39.11 1.03.34 2.23-1.32.33-.14-.67-1.16.29-.04.1h-.47l-1.5.37.15.7-.43.11.09.41-.45.09-3.57.79-.67-2.62-.48-2.1-.37-.8.04-.2h.2l2.3.07.14.77.47-.1-.13-.64.46.02-.08-.36.25-.06.25.18-.24-1.11.45-.1.06.31.4-.08-.08.1.08.36.47-.1.6.35.5-.12.12.45.69-.15.44-.05.68-.23.26-.07.02.37.51-.13.22-.11.3-.02.02.12.49-.12" fill="#d1dbdd" stroke="rgb(209, 219, 221)" stroke-width="0.1" data-originalStrokeWidth="0.1" style="stroke: rgb(0, 0, 0); fill: rgb(209, 219, 221); pointer-events: auto; stroke-width: 0.1;" pointer-events="auto"/>
      <path id="FL26" d="m1194.06 761.36-.06-.53-.2-.43-.37-.25-.08-.26-.23-.02-.14-.15-.53.05-.55-.07-.23-.11.08-.63-.41-2.49-.63-.28-.9-.72.06-.15-.4-1.79-.2.04-.05-.18.46-.09.12.15.36-.09-.2-.85-.03-.4-.53.05-.2-.97-.3-.6-.28-1.34-.14-.24 2.46-.52-.68-3.15 2.68-.6-.6-2.76.55-.12 3.22.23.44 2.04 3.13-.68.48-.18.87-.2.49 2.2.12.5.56 2.44 1.78-.42 1.34-.27.92-.24 4.05-.89 2.69-.63.58 2.64.37 1.4.91 3.8.13.63 3.45-.71 1.93-.41.15.66 6.74-1.45 3.57-.8.45-.08-.09-.4.43-.12.37 1.37-.45.12.22.85.31-.03.2.15.07.24.42-.11.08.33.46-.12.2.76-.23.07.06.28-.1.03.11.37.17.24h.48l.63-.17.67-.12-.06.23.08.28-.46.12.09.17-.46.3-.25.06h-.51l-.04-.17-.25-.02-.24.1-.17.33h-.24l-.62.18-.28.18-.3.01-.76.17-.45.12-.11-.48-.45.09.12.47-.83.12-.13.2.18.51-6.48 1.4-.77.12-4.19.9h-.11l-1.5-1.04-3.01.69-3.34.73-.69.12-5.03 1.05-1.3.27-3.33.7.12-.27-.39-.12-.12-.1-.28.03-.15-.24-.37-.1-.16.15-.14-.17-.23-.02-.18.1-.02-.35-.22-.15-.33.28-.2-.23-.26-.06-.06.19-.3-.24-.14.06-.19-.34-.72-.34-.47.14-.3-.15-.08.29-.13-.09" fill="#d1dbdd" stroke="rgb(209, 219, 221)" stroke-width="0.1" data-originalStrokeWidth="0.1" style="stroke: rgb(0, 0, 0); fill: rgb(209, 219, 221); pointer-events: auto; stroke-width: 0.1;" pointer-events="auto"/>
      <path id="FL27" d="m1233.2 764.43-.26-.22-.21.04-.64-.24-.15-.36-.29.02-.06-.2.13-.22-.18-.3-.24-.18-.22-.75-.22-.21-.3-.92-.18-.74.06-.57-.2-.76.3-.06.08-.43-.12-.5.44-.1-.14-.6.76-.18.3-.01.28-.18.62-.18h.23l.17-.33.25-.1.25.02.04.17h.51l.25-.06.46-.3.43.01.25-.1.34.19 1 .23-.32.1.3.2-.13.58-.28.23.36.13.06.21-.08.68.03.23.24.56-.15.21-.15-.22-.52-.27.22-.53-.3-.2.37-.28.14-.25-.71-.53-.12-.02-.83.2-.03.16-.18.08-.5.5-.22.48.21.43-.24.82-.13.89-.27.92-.34.03-.15.22-.02.36.14.56.24.4-.1 1.16-.28.08" fill="#d1dbdd" stroke="rgb(209, 219, 221)" stroke-width="0.1" data-originalStrokeWidth="0.1" style="stroke: rgb(0, 0, 0); fill: rgb(209, 219, 221); pointer-events: auto; stroke-width: 0.1;" pointer-events="auto"/>
      <path id="FL28" d="m1233.18 764.45-.12.23.08.32-.08.29.14.13-.19.17.12.19-.06.15.12.58.2.12v.3l.22.1.04.23.32.12-.09.23.13.63.02.4.27.18.42-.02-.03.46-.17.37-.18.22-.07.35-.22.53.06.24-.19.1-.09-.12h-.29l-.22.2-.06.66.25.3-.02.14-.39-.03-.26.51.04.48.2.39-.03.29-.37.19.07.26-.1.48.2.38.45.12.28-.09.03-.16.24-.13h.22l-.07-.2.56-.2.13-.48.12-.2.07-.42-.09-.7h-.24l-.19-.33h-.48l-.14-.17.22.03.44-.34.24.12.18-.12.8-1.03-.04-.27.23-.22.07-.58.16-.2h.26l-.04.15.25.13-.1.52-.24.19-.16.49.05.18-.15.53-.39.97-.1.58-.16.19-.12.5-.11.11-.12.68-.18.21.01.23-.33.51.5-.1-.12.53-.31.16-.08.66-.18.32-.24.27-.07.27-.37.2-.07.14-.23-.14-.1.22.01.26-.26.49-.46.3-.26.33-.25.56-.2.26.16.24-.17.39-.3.2-.11.36-.4.26-.06.24-.27.46-.07.24-.22.27-.16.34-.77.4-.22.28-.42.66-.16.3-.56.64-.12-.18.22-.16.03-.2.25-.1.42-.67-.16-.4.32.03-.04-.3.34.09.13-.2-.18-.15.12-.29.27.14.09-.18.13.1.23-.04.28-.33.15-.88.1-.14-.11-.38.45-.2.32.02-.02-.4.11-.05.19-.37.07-.26.18-.17.62-1.03-.04-.43.12.18.3-.35.2-.46-.05-.18-.3-.2-.6-.18.05-.29-.17-.23-.08-.31.16-.63.15-.07.03-.37-.13.02-.65-.5-.4.04-.19.22-.34-.05.17.33-.24-.06-.6-.48-.11.06-.1.24-.33.15.26.35-.25-.16-.2-.02v-.17l-.41.12.19.37-.24.24-.3-.17.23.02.14-.29-.16-.11-.33.05-.1.19.07.17-.23.11-.05.3-.22.1-.07-.41-.17-.01-.41.34-.12-.07-.23.3-.4.02-.02.26-.14.02-.05.27.15-.08h.4l-.18.68.16.23-.25.23-.27-.04.18-.38.16-.12.02-.2-.16-.14-.6.28v-.31l-.49.45.06.29-.18.2.09.24-.24-.3-.24-.07-.23.14.08-.24-.1-.13-.24-.05.1.23-.48-.07.01.22.33.19.18-.09.3.1-.55.26-.45-.43-.27-.06-.24.08.15.31v.34l-.18.1.1-.35-.2-.34-.21-.11-.3.12-.07.3.02.37-.1-.29.09-.76-.18-.15-.3-.02-.17.1.24.37-.41.36-.29-.32-.46-.06-.53.17-.32.21-.1.22-.27.06-.13.12v.26l.13.18.01.25-.47.03-.7.39-.04.18-.15-.16h-.24l-.17.17-.21-.03-.72.47-.7-.02-.77.21-.42.2-.44.35h-.2l-.28-.37-.5-.33-.5-.23-.4.03-.2-.78-.53-.68-.56-.33-.12-.72.05-.23-.08-.54.12-.18-.1-.28.02-.44.15-.26.01-.4-.12-.18.05-.27.18-.31.17-.09.38.06v-.52l-.25-.13.02-.2-.09-.36-.52.03-.3-.13-.12-.67-.13-.35-.19-.13-.04-.24-.38-.44-.14-.56-.68-.21-.74-.67-.08-.31.08-.57-.24-.4-.52-.2-.3-.28v-.14l-.22-.16-.2-.37-.04-.42-.89-.07-.17-.29-.04-.42-.32-.16-.06-.26-.18.02-.04-.28.08-.2-.2-.06.07-.24-.14-.23-.4-.11-.3-.23-.55-.12-.18-.12-.63-.29-.22-.37h-.3l-.36-.09.01-.27-.17-.55-.25-.12-.17.09-.57-.04-.3-.23-.54-.07-.45.14-.37-.1 3.34-.7 1.29-.27 5.03-1.05.69-.12 3.33-.74 3.02-.68 1.5 1.04h.11l4.2-.9.75-.13 6.5-1.39-.19-.52.13-.2.83-.11-.12-.47.45-.09.11.48.45-.12.14.6-.44.11.12.5-.08.43-.3.06.2.76-.07.57.18.74.3.92.24.21.21.76.24.17.18.3-.13.24.05.18.3-.02.15.36.64.25.2-.05.26.22-.01.02m-40.34 40.45.22-.15.15.09-.37.06m1.42-.44.06-.12.23.02-.29.1m-2.25.48-.06-.3.3.22-.24.08m2.28-.82.05-.3.14.13-.18.17m.97-.93-.04.2-.17-.14.2-.06m-6.17.8.03.35-.08.23-.32.39-.33.07-.11-.1.3-.03.24-.32.02-.28-.21.01-.2-.33-.54-.2-.06-.13.42-.13.52.09.22.14.1.24m17.48-4.73.3.04-.03.1-.27-.14m6.18-3.2.07.18-.95.7.16-.34.16-.09.17-.35.38-.1m-15.17 5.95-.03-.25.11.01.16.5.3-.13.2-.26.22-.07.41.1.33-.39.38-.59-.25-.3-.7-.19-.42-.05.17-.73.2-.22 1.17-.78.33-.35.35-.5.42-.18.3-.36 1.17-.79.37-.3.26-.68.26-.16.68-.32.32-.3.6-.73.6-.33.8-.62 1.35.41.9.2.24.28.13.82.2.12.09.25.64.54.19.05.47-.04.12.13.43.97.4.2-.41.34-.42.16-.09.18-.77.38-.88.56-.22-.04-.25-.54-.2-.09-.28.05-.4-.04-.18.29-.15-.3-.97.38-.7-.07-.09.24.1.27.01.4-.18.24-.43.11-.65.4-.11.2-.74.48-.3.3-.2.06-.43.29-.3.06-.14.15-.58.18-.49.55-.35.06-.38.18-.68.12-.53.27-.24.02-.6.3-.48.18-.27.02.02-.36-.22-.15.11-.28.26.12.01-.34-.07-.3m19.21-8 .38-.2.13.01.83-1.03h.14l.36.21.26-.08.57-.42.1-.2.04-.34.22.18.63-.7.07.13.31-.33.23.01-.8.83-.07.13-.6.6-.37.28-.11.19-.3.22-.36-.27-.87.58-.17.37-.02.48-.1-.06-.7.25-.6-.47.47-.27.33-.1m-6.47.54h.22l.28.19.16.39-.14.05-.3-.3-.38-.02-.21-.57.37.26m-.37.34-.17-.15v-.25l.15.08.02.32m.48-.7-.05-.17.16-.07.29.37-.4-.12m-.45-.44.25.27-.33-.12.08-.15m11.7-2.79.1.19-.12.18-.31.08.14-.2v-.23l.19-.02m-10.94 2.22.2.06.1.24-.24-.08-.06-.22m13.5-4.58.3-.36.15.06-.22.18-.2.27.23.2.21-.19.12.15-.14.32-.85.17-.55.4-.04-.13.36-.18.53-.84.1-.05m1.96-1.4.25.06.39-.42-.03-.23.32-.23-.22.58-.57.47-.21.32-.2-.2.27-.34m.48-1.15.05-.32.26.22-.3.1m.83-1.07.22.1-.26.1.04-.2m.1-1.74-.01-.26.14.06-.14.2m-.2-.24-.2.1.04-.25.19-.06-.03.21m-1.97-.06-.11.4-.04-.3.15-.1m-.95-.52h-.18l-.04-.23.22.23m1.32-1.23.15-.1-.07.35-.08-.25m-.9-.15v.2l-.23-.06.04-.22.2.08m7.67-1.03.3-.23.04.12-.34.1m-4.33.41.1.17-.16.1-.06-.35-.16-.07.21-.13.07.28m1.54-.26-.11.02.07-.29.14.26h-.1m1.92-1.62.34.24-.37.3.05-.26.18-.08-.2-.2m-.32.1h-.23l.24-.14v.14m-2.07.27-.15-.03-.1-.31.25.34m2.38-.55-.19.01.12-.43.07.42m-2.74-.18.15.1-.05.19-.11-.29m.07-.43-.06-.15.3.23-.24-.08m-4.27 2.55.04-.2.15.06-.2.14m1.4-.48.04-.16.26.2-.3-.04m.82-1.01-.2-.13-.05-.24.3-.02-.12.2.3.31-.02.43-.18.17.16.1-.02.3.16.19.03.25-.27-.08v-.22l-.4-.7.2.03.23-.39-.1-.2m-6.58 1.9-.12.06-.02-.32.17.07-.02.2m5.62-1.43-.15.15-.1-.3.13-.03.12.18m-.7-.04.16-.03-.09.23-.06-.19m-2.67.28.37.16-.17.02-.2-.18m2.6-.52-.13.08-.35-.32.43.15.06.1m-22.1-13.55.37-.36.17.1.03.48-.33.17-.15-.06-.08-.33m-36.5 41.22.36-.06.01.1-.36-.04m63.75-29.47.06-.18.15.22-.11.16-.1-.19m-1.89.25.13-.06.01.23-.14-.17m-.3-.31.01.16-.27.06-.19-.07-.2-.22.64.06m-.84-.05-.34-.15.42-.09-.08.24m2.2-.88.08.08-.39.15.31-.24m5.2-7.22.26-.2v.26l-.26-.05m1.43-.72.17-.22.68-.39.16-.35-.19-.33.15-.16.14-.97-.02-.33.17-.71-.25-.08-.04-.25.22-.08.07-.37.02.5.16.47-.2.83.03.23-.17 1.1.04.18-.6.99.1.1-.16.92.1.15-.28.24-.3-.23-.05-.31.07-.17-.1-.36.12-.2-.04-.2" fill="#d1dbdd" stroke="rgb(209, 219, 221)" stroke-width="0.1" data-originalStrokeWidth="0.1" style="stroke: rgb(0, 0, 0); fill: rgb(209, 219, 221); pointer-events: auto; stroke-width: 0.1;" pointer-events="auto"/>
      <g id="state_lines" stroke="rgb(209, 219, 221)" style="display: none; stroke: rgb(0, 0, 0);" stroke-width="0.1"/>
      <g id="state_abbr" fill="#000000" style="display: none; fill: rgb(0, 0, 0);">
        <text id="HI_label" x="491.79" y="769.82" style="font-size: 19.2455px; stroke-width: 1.60379; display: none;">
          <tspan id="HI_tspan" x="491.79" y="769.82" fill="#000000" dy="0" font-family="Arial" font-size="24.06" font-style="normal" font-weight="400" style="text-align: center; stroke-width: 2.57215; fill: rgb(0, 0, 0);" text-anchor="middle">HI</tspan>
        </text>
        <text id="AK_label" x="205.24" y="672.25" style="font-size: 19.2455px; stroke-width: 1.60379; display: none;">
          <tspan id="AK_tspan" x="205.24" y="672.25" fill="#000000" dy="0" font-family="Arial" font-size="24.06" font-style="normal" font-weight="400" style="text-align: center; stroke-width: 2.57215; fill: rgb(0, 0, 0);" text-anchor="middle">AK</tspan>
        </text>
        <text id="FL_label" x="1188.11" y="708.7" style="font-size: 19.2455px; stroke-width: 1.60379; display: none;">
          <tspan id="FL_tspan" x="1188.11" y="708.7" fill="#000000" dy="0" font-family="Arial" font-size="24.06" font-style="normal" font-weight="400" style="text-align: center; stroke-width: 2.57215; fill: rgb(0, 0, 0);" text-anchor="middle">FL</tspan>
        </text>
        <text id="NH_label" x="1306.05" y="167.79" stroke-width="1.1" font-size="13.25" style="display: none;">
          <tspan id="NH_tspan" x="1306.05" y="167.79" fill="#000000" stroke-width="1.1" dy="0" font-family="Arial" font-size="16.56" font-style="normal" font-weight="400" style="text-align: center; fill: rgb(0, 0, 0);" text-anchor="middle">NH</tspan>
        </text>
        <text id="MI_label" x="1019.65" y="246.58" style="font-size: 19.2455px; stroke-width: 1.60379; display: none;">
          <tspan id="MI_tspan" x="1019.65" y="246.58" fill="#000000" dy="0" font-family="Arial" font-size="24.06" font-style="normal" font-weight="400" style="text-align: center; stroke-width: 2.57215; fill: rgb(0, 0, 0);" text-anchor="middle">MI</tspan>
        </text>
        <text id="VT_label" x="1274.28" y="145.01" stroke-width="1.05" font-size="12.65" style="display: none;">
          <tspan id="VT_tspan" x="1274.28" y="145.01" fill="#000000" stroke-width="1.05" dy="0" font-family="Arial" font-size="15.81" font-style="normal" font-weight="400" style="text-align: center; fill: rgb(0, 0, 0);" text-anchor="middle">VT</tspan>
        </text>
        <text id="ME_label" x="1338.99" y="105.14" stroke-width="1.45" font-size="17.36" style="display: none;">
          <tspan id="ME_tspan" x="1338.99" y="105.14" fill="#000000" stroke-width="1.45" dy="0" font-family="Arial" font-size="21.7" font-style="normal" font-weight="400" style="text-align: center; fill: rgb(0, 0, 0);" text-anchor="middle">ME</tspan>
        </text>
        <text id="RI_label" x="1361.38" y="262.84" stroke-width="1.25" font-size="14.98" style="display: none;">
          <tspan id="RI_tspan" x="1361.38" y="262.84" fill="#000000" stroke-width="1.25" dy="0" font-family="Arial" font-size="18.72" font-style="normal" font-weight="400" style="text-align: center; fill: rgb(0, 0, 0);" text-anchor="middle">RI</tspan>
        </text>
        <text id="NY_label" x="1227.27" y="204.12" style="font-size: 19.2455px; stroke-width: 1.60379; display: none;">
          <tspan id="NY_tspan" x="1227.27" y="204.12" fill="#000000" dy="0" font-family="Arial" font-size="24.06" font-style="normal" font-weight="400" style="text-align: center; stroke-width: 2.57215; fill: rgb(0, 0, 0);" text-anchor="middle">NY</tspan>
        </text>
        <text id="PA_label" x="1187.28" y="284.69" style="font-size: 19.2455px; stroke-width: 1.60379; display: none;">
          <tspan id="PA_tspan" x="1187.28" y="284.69" fill="#000000" dy="0" font-family="Arial" font-size="24.06" font-style="normal" font-weight="400" style="text-align: center; stroke-width: 2.57215; fill: rgb(0, 0, 0);" text-anchor="middle">PA</tspan>
        </text>
        <text id="NJ_label" x="1330.57" y="290.09" stroke-width="1.28" font-size="15.4" style="display: none;">
          <tspan id="NJ_tspan" x="1330.57" y="290.09" fill="#000000" stroke-width="1.28" dy="0" font-family="Arial" font-size="19.25" font-style="normal" font-weight="400" style="text-align: center; fill: rgb(0, 0, 0);" text-anchor="middle">NJ</tspan>
        </text>
        <text id="DE_label" x="1320.8" y="328.42" stroke-width="1.36" font-size="16.38" style="display: none;">
          <tspan id="DE_tspan" x="1320.8" y="328.42" fill="#000000" stroke-width="1.36" dy="0" font-family="Arial" font-size="20.47" font-style="normal" font-weight="400" style="text-align: center; fill: rgb(0, 0, 0);" text-anchor="middle">DE</tspan>
        </text>
        <text id="MD_label" x="1310.72" y="368.46" stroke-width="1.34" font-size="16.11" style="display: none;">
          <tspan id="MD_tspan" x="1310.72" y="368.46" fill="#000000" stroke-width="1.34" dy="0" font-family="Arial" font-size="20.13" font-style="normal" font-weight="400" style="text-align: center; fill: rgb(0, 0, 0);" text-anchor="middle">MD</tspan>
        </text>
        <text id="VA_label" x="1198.59" y="392.33" style="font-size: 19.2455px; stroke-width: 1.60379; display: none;">
          <tspan id="VA_tspan" x="1198.59" y="392.33" fill="#000000" dy="0" font-family="Arial" font-size="24.06" font-style="normal" font-weight="400" style="text-align: center; stroke-width: 2.57215; fill: rgb(0, 0, 0);" text-anchor="middle">VA</tspan>
        </text>
        <text id="WV_label" x="1129.66" y="382.3" style="font-size: 19.2455px; stroke-width: 1.60379; display: none;">
          <tspan id="WV_tspan" x="1129.66" y="382.3" fill="#000000" dy="0" font-family="Arial" font-size="24.06" font-style="normal" font-weight="400" style="text-align: center; stroke-width: 2.57215; fill: rgb(0, 0, 0);" text-anchor="middle">WV</tspan>
        </text>
        <text id="OH_label" x="1079.05" y="334.46" style="font-size: 19.2455px; stroke-width: 1.60379; display: none;">
          <tspan id="OH_tspan" x="1079.05" y="334.46" fill="#000000" dy="0" font-family="Arial" font-size="24.06" font-style="normal" font-weight="400" style="text-align: center; stroke-width: 2.57215; fill: rgb(0, 0, 0);" text-anchor="middle">OH</tspan>
        </text>
        <text id="IN_label" x="998.79" y="352.94" style="font-size: 19.2455px; stroke-width: 1.60379; display: none;">
          <tspan id="IN_tspan" x="998.79" y="352.94" fill="#000000" dy="0" font-family="Arial" font-size="24.06" font-style="normal" font-weight="400" style="text-align: center; stroke-width: 2.57215; fill: rgb(0, 0, 0);" text-anchor="middle">IN</tspan>
        </text>
        <text id="IL_label" x="927.43" y="364.36" style="font-size: 19.2455px; stroke-width: 1.60379; display: none;">
          <tspan id="IL_tspan" x="927.43" y="364.36" fill="#000000" dy="0" font-family="Arial" font-size="24.06" font-style="normal" font-weight="400" style="text-align: center; stroke-width: 2.57215; fill: rgb(0, 0, 0);" text-anchor="middle">IL</tspan>
        </text>
        <text id="CT_label" x="1299.17" y="228.46" stroke-width="1.06" font-size="12.74" style="display: none;">
          <tspan id="CT_tspan" x="1299.17" y="228.46" fill="#000000" stroke-width="1.06" dy="0" font-family="Arial" font-size="15.93" font-style="normal" font-weight="400" style="text-align: center; fill: rgb(0, 0, 0);" text-anchor="middle">CT</tspan>
        </text>
        <text id="WI_label" x="898.6" y="224.7" style="font-size: 19.2455px; stroke-width: 1.60379; display: none;">
          <tspan id="WI_tspan" x="898.6" y="224.7" fill="#000000" dy="0" font-family="Arial" font-size="24.06" font-style="normal" font-weight="400" style="text-align: center; stroke-width: 2.57215; fill: rgb(0, 0, 0);" text-anchor="middle">WI</tspan>
        </text>
        <text id="NC_label" x="1205.6" y="458.72" style="font-size: 19.2455px; stroke-width: 1.60379; display: none;">
          <tspan id="NC_tspan" x="1205.6" y="458.72" fill="#000000" dy="0" font-family="Arial" font-size="24.06" font-style="normal" font-weight="400" style="text-align: center; stroke-width: 2.57215; fill: rgb(0, 0, 0);" text-anchor="middle">NC</tspan>
        </text>
        <text id="MA_label" x="1305.87" y="200.67" stroke-width="1.04" font-size="12.46" style="display: none;">
          <tspan id="MA_tspan" x="1305.87" y="200.67" fill="#000000" stroke-width="1.04" dy="0" font-family="Arial" font-size="15.58" font-style="normal" font-weight="400" style="text-align: center; fill: rgb(0, 0, 0);" text-anchor="middle">MA</tspan>
        </text>
        <text id="MO_label" x="854.22" y="422.93" style="font-size: 19.2455px; stroke-width: 1.60379; display: none;">
          <tspan id="MO_tspan" x="854.22" y="422.93" fill="#000000" dy="0" font-family="Arial" font-size="24.06" font-style="normal" font-weight="400" style="text-align: center; stroke-width: 2.57215; fill: rgb(0, 0, 0);" text-anchor="middle">MO</tspan>
        </text>
        <text id="GA_label" x="1106.89" y="574.56" style="font-size: 19.2455px; stroke-width: 1.60379; display: none;">
          <tspan id="GA_tspan" x="1106.89" y="574.56" fill="#000000" dy="0" font-family="Arial" font-size="24.06" font-style="normal" font-weight="400" style="text-align: center; stroke-width: 2.57215; fill: rgb(0, 0, 0);" text-anchor="middle">GA</tspan>
        </text>
        <text id="SC_label" x="1166.32" y="522.49" style="font-size: 19.2455px; stroke-width: 1.60379; display: none;">
          <tspan id="SC_tspan" x="1166.32" y="522.49" fill="#000000" dy="0" font-family="Arial" font-size="24.06" font-style="normal" font-weight="400" style="text-align: center; stroke-width: 2.57215; fill: rgb(0, 0, 0);" text-anchor="middle">SC</tspan>
        </text>
        <text id="KY_label" x="1039.99" y="426.39" style="font-size: 19.2455px; stroke-width: 1.60379; display: none;">
          <tspan id="KY_tspan" x="1039.99" y="426.39" fill="#000000" dy="0" font-family="Arial" font-size="24.06" font-style="normal" font-weight="400" style="text-align: center; stroke-width: 2.57215; fill: rgb(0, 0, 0);" text-anchor="middle">KY</tspan>
        </text>
        <text id="AL_label" x="1019.59" y="578.15" style="font-size: 19.2455px; stroke-width: 1.60379; display: none;">
          <tspan id="AL_tspan" fill="#000000" dy="0" font-family="Arial" font-size="24.06" font-style="normal" font-weight="400" style="text-align: center; stroke-width: 2.57215; fill: rgb(0, 0, 0);" text-anchor="middle">AL</tspan>
        </text>
        <text id="LA_label" x="872.7" y="649.59" style="font-size: 19.2455px; stroke-width: 1.60379; display: none;">
          <tspan id="LA_tspan" x="872.7" y="649.59" fill="#000000" dy="0" font-family="Arial" font-size="24.06" font-style="normal" font-weight="400" style="text-align: center; stroke-width: 2.57215; fill: rgb(0, 0, 0);" text-anchor="middle">LA</tspan>
        </text>
        <text id="MS_label" x="940.37" y="592.21" style="font-size: 19.2455px; stroke-width: 1.60379; display: none;">
          <tspan id="MS_tspan" x="940.37" y="592.21" fill="#000000" dy="0" font-family="Arial" font-size="24.06" font-style="normal" font-weight="400" style="text-align: center; stroke-width: 2.57215; fill: rgb(0, 0, 0);" text-anchor="middle">MS</tspan>
        </text>
        <text id="IA_label" x="823.33" y="308.44" style="font-size: 19.2455px; stroke-width: 1.60379; display: none;">
          <tspan id="IA_tspan" x="823.33" y="308.44" fill="#000000" dy="0" font-family="Arial" font-size="24.06" font-style="normal" font-weight="400" style="text-align: center; stroke-width: 2.57215; fill: rgb(0, 0, 0);" text-anchor="middle">IA</tspan>
        </text>
        <text id="MN_label" x="790.84" y="183.37" style="font-size: 19.2455px; stroke-width: 1.60379; display: none;">
          <tspan id="MN_tspan" x="790.84" y="183.37" fill="#000000" dy="0" font-family="Arial" font-size="24.06" font-style="normal" font-weight="400" style="text-align: center; stroke-width: 2.57215; fill: rgb(0, 0, 0);" text-anchor="middle">MN</tspan>
        </text>
        <text id="OK_label" x="732.05" y="519.54" style="font-size: 19.2455px; stroke-width: 1.60379; display: none;">
          <tspan id="OK_tspan" x="732.05" y="519.54" fill="#000000" dy="0" font-family="Arial" font-size="24.06" font-style="normal" font-weight="400" style="text-align: center; stroke-width: 2.57215; fill: rgb(0, 0, 0);" text-anchor="middle">OK</tspan>
        </text>
        <text id="TX_label" x="710.59" y="652.87" style="font-size: 19.2455px; stroke-width: 1.60379; display: none;">
          <tspan id="TX_tspan" x="710.59" y="652.87" fill="#000000" dy="0" font-family="Arial" font-size="24.06" font-style="normal" font-weight="400" style="text-align: center; stroke-width: 2.57215; fill: rgb(0, 0, 0);" text-anchor="middle">TX</tspan>
        </text>
        <text id="NM_label" x="506.94" y="542.36" style="font-size: 19.2455px; stroke-width: 1.60379; display: none;">
          <tspan id="NM_tspan" x="506.94" y="542.36" fill="#000000" dy="0" font-family="Arial" font-size="24.06" font-style="normal" font-weight="400" style="text-align: center; stroke-width: 2.57215; fill: rgb(0, 0, 0);" text-anchor="middle">NM</tspan>
        </text>
        <text id="KS_label" x="701.21" y="427.26" style="font-size: 19.2455px; stroke-width: 1.60379; display: none;">
          <tspan id="KS_tspan" x="701.21" y="427.26" fill="#000000" dy="0" font-family="Arial" font-size="24.06" font-style="normal" font-weight="400" style="text-align: center; stroke-width: 2.57215; fill: rgb(0, 0, 0);" text-anchor="middle">KS</tspan>
        </text>
        <text id="NE_label" x="686.63" y="337.29" style="font-size: 19.2455px; stroke-width: 1.60379; display: none;">
          <tspan id="NE_tspan" x="686.63" y="337.29" fill="#000000" dy="0" font-family="Arial" font-size="24.06" font-style="normal" font-weight="400" style="text-align: center; stroke-width: 2.57215; fill: rgb(0, 0, 0);" text-anchor="middle">NE</tspan>
        </text>
        <text id="SD_label" x="663.02" y="238.75" style="font-size: 19.2455px; stroke-width: 1.60379; display: none;">
          <tspan id="SD_tspan" x="663.02" y="238.75" fill="#000000" dy="0" font-family="Arial" font-size="24.06" font-style="normal" font-weight="400" style="text-align: center; stroke-width: 2.57215; fill: rgb(0, 0, 0);" text-anchor="middle">SD</tspan>
        </text>
        <text id="ND_label" x="663.02" y="150.75" style="font-size: 19.2455px; stroke-width: 1.60379; display: none;">
          <tspan id="ND_tspan" x="663.02" y="150.75" fill="#000000" dy="0" font-family="Arial" font-size="24.06" font-style="normal" font-weight="400" style="text-align: center; stroke-width: 2.57215; fill: rgb(0, 0, 0);" text-anchor="middle">ND</tspan>
        </text>
        <text id="WY_label" x="499.57" y="276.47" style="font-size: 19.2455px; stroke-width: 1.60379; display: none;">
          <tspan id="WY_tspan" x="499.57" y="276.47" fill="#000000" dy="0" font-family="Arial" font-size="24.06" font-style="normal" font-weight="400" style="text-align: center; stroke-width: 2.57215; fill: rgb(0, 0, 0);" text-anchor="middle">WY</tspan>
        </text>
        <text id="MT_label" x="487.84" y="155.58" style="font-size: 19.2455px; stroke-width: 1.60379; display: none;">
          <tspan id="MT_tspan" x="487.84" y="155.58" fill="#000000" dy="0" font-family="Arial" font-size="24.06" font-style="normal" font-weight="400" style="text-align: center; stroke-width: 2.57215; fill: rgb(0, 0, 0);" text-anchor="middle">MT</tspan>
        </text>
        <text id="CO_label" x="525.13" y="406.28" style="font-size: 19.2455px; stroke-width: 1.60379; display: none;">
          <tspan id="CO_tspan" x="525.13" y="406.28" fill="#000000" dy="0" font-family="Arial" font-size="24.06" font-style="normal" font-weight="400" style="text-align: center; stroke-width: 2.57215; fill: rgb(0, 0, 0);" text-anchor="middle">CO</tspan>
        </text>
        <text id="ID_label" x="339.94" y="235.07" style="font-size: 19.2455px; stroke-width: 1.60379; display: none;">
          <tspan id="ID_tspan" x="339.94" y="235.07" fill="#000000" dy="0" font-family="Arial" font-size="24.06" font-style="normal" font-weight="400" style="text-align: center; stroke-width: 2.57215; fill: rgb(0, 0, 0);" text-anchor="middle">ID</tspan>
        </text>
        <text id="UT_label" x="396.81" y="386.73" style="font-size: 19.2455px; stroke-width: 1.60379; display: none;">
          <tspan id="UT_tspan" x="396.81" y="386.73" fill="#000000" dy="0" font-family="Arial" font-size="24.06" font-style="normal" font-weight="400" style="text-align: center; stroke-width: 2.57215; fill: rgb(0, 0, 0);" text-anchor="middle">UT</tspan>
        </text>
        <text id="AZ_label" x="366.76" y="536.9" style="font-size: 19.2455px; stroke-width: 1.60379; display: none;">
          <tspan id="AZ_tspan" x="366.76" y="536.9" fill="#000000" dy="0" font-family="Arial" font-size="24.06" font-style="normal" font-weight="400" style="text-align: center; stroke-width: 2.57215; fill: rgb(0, 0, 0);" text-anchor="middle">AZ</tspan>
        </text>
        <text id="NV_label" x="262.47" y="370.64" style="font-size: 19.2455px; stroke-width: 1.60379; display: none;">
          <tspan id="NV_tspan" x="262.47" y="370.64" fill="#000000" dy="0" font-family="Arial" font-size="24.06" font-style="normal" font-weight="400" style="text-align: center; stroke-width: 2.57215; fill: rgb(0, 0, 0);" text-anchor="middle">NV</tspan>
        </text>
        <text id="OR_label" x="214.43" y="206.88" style="font-size: 19.2455px; stroke-width: 1.60379; display: none;">
          <tspan id="OR_tspan" x="214.43" y="206.88" fill="#000000" dy="0" font-family="Arial" font-size="24.06" font-style="normal" font-weight="400" style="text-align: center; stroke-width: 2.57215; fill: rgb(0, 0, 0);" text-anchor="middle">OR</tspan>
        </text>
        <text id="WA_label" x="238.05" y="102.99" style="font-size: 19.2455px; stroke-width: 1.60379; display: none;">
          <tspan id="WA_tspan" x="238.05" y="102.99" fill="#000000" dy="0" font-family="Arial" font-size="24.06" font-style="normal" font-weight="400" style="text-align: center; stroke-width: 2.57215; fill: rgb(0, 0, 0);" text-anchor="middle">WA</tspan>
        </text>
        <text id="CA_label" x="191.69" y="434.8" style="font-size: 19.2455px; stroke-width: 1.60379; display: none;">
          <tspan id="CA_tspan" x="191.69" y="434.8" fill="#000000" dy="0" font-family="Arial" font-size="24.06" font-style="normal" font-weight="400" style="text-align: center; stroke-width: 2.57215; fill: rgb(0, 0, 0);" text-anchor="middle">CA</tspan>
        </text>
        <text id="DC_label" x="1309.32" y="398.19" stroke-width="1.29" font-size="15.45" style="display: none;">
          <tspan id="DC_tspan" x="1309.32" y="398.19" fill="#000000" stroke-width="1.29" dy="0" font-family="Arial" font-size="19.31" font-style="normal" font-weight="400" style="text-align: center; fill: rgb(0, 0, 0);" text-anchor="middle">DC</tspan>
        </text>
        <text id="TN_label" x="1018.93" y="485.72" style="font-size: 19.2455px; stroke-width: 1.60379; display: none;">
          <tspan id="TN_tspan" x="1018.93" y="485.72" fill="#000000" dy="0" font-family="Arial" font-size="24.06" font-style="normal" font-weight="400" style="text-align: center; stroke-width: 2.57215; fill: rgb(0, 0, 0);" text-anchor="middle">TN</tspan>
        </text>
        <text id="AR_label" x="863.15" y="535.77" style="font-size: 19.2455px; stroke-width: 1.60379; display: none;">
          <tspan id="AR_tspan" x="863.15" y="535.77" fill="#000000" dy="0" font-family="Arial" font-size="24.06" font-style="normal" font-weight="400" style="text-align: center; stroke-width: 2.57215; fill: rgb(0, 0, 0);" text-anchor="middle">AR</tspan>
        </text>
      </g>
      <g id="state_borders" transform="translate(-0.04777967,-0.15336683)" stroke="rgb(209, 219, 221)" style="stroke: rgb(0, 0, 0);" stroke-width="0.3">
        <path id="FL_GA_border" d="m1073.4 621.07.1.86.6.16.13.88 1.5 1.43.45 1.26-.08.7.7 1.27.22.73.5.02 1.04 1.07 8.74-1.03 1.75-.16 2.67-.37 23.52-2.8 9.92-1.12 11.62-1.4 3.5-.44 9.54-1.14-.45.46-.06.62.4.57.96.85.14 1.92.3.68 1.16 1.13 1.68-.63.32.17 1.24-.32.17-.75-.2-.31-.13-1.2.26-1.35-.32-1.5.12-1.3-.38-.9-.46-.3-.14-.46-.77-.94-.14-.64.18-1.01-.33-.66v-.6l.64-.6-.45-.56.38-.4.98.27.18-.6-.06-.8.53-.3.77.2.17-.46.7.78 1.2.2 1.24-.21.42.68.43-.53 1.34.74.65-.26.64.18-.22-.35.37-.18.62.74.18-.22.83.37.94-.38.4.24h.62l.04-.5 1.14-.33.44.28h.86" stroke="rgb(209, 219, 221)" stroke-width="0.3" fill="none" style="stroke: rgb(0, 0, 0); display: none;"/>
      </g>
      <rect id="selection-rectangle" fill="#ffffccaa" stroke="rgb(209, 219, 221)" stroke-width="0.1"/>
      <ellipse id="selection-ellipse" fill="#ffffccaa" stroke="rgb(209, 219, 221)" stroke-width="0.1"/>
      <polygon id="selection-polygon" fill="#ffffccaa" stroke="rgb(209, 219, 221)" stroke-width="0.1"/>
      <polyline id="selection-polyline" fill="#ffffccaa" stroke="rgb(209, 219, 221)" stroke-width="0.1"/>
    </svg>
  </g>
</svg>
