<?xml version='1.0' encoding='UTF-8'?>
<svg xmlns="http://www.w3.org/2000/svg" xmlns:dc="http://purl.org/dc/elements/1.1/" xmlns:ns2="http://creativecommons.org/ns#" xmlns:rdf="http://www.w3.org/1999/02/22-rdf-syntax-ns#" id="wrapper" viewBox="0 0 1520 840" preserveAspectRatio="xMinYMin" height="840" width="1520" style="background-color: rgb(255, 255, 255);">
  <metadata>
    <rdf:rdf>
      <ns2:work rdf:about="">
        <dc:format>image/svg+xml</dc:format>
        <dc:type rdf:resource="http://purl.org/dc/dcmitype/StillImage"/>
        <dc:title>MapChart Map</dc:title>
        <dc:creator>
          <ns2:agent>
            <dc:title>MapChart.net</dc:title>
          </ns2:agent>
        </dc:creator>
        <ns2:license rdf:resource="http://creativecommons.org/licenses/by-sa/4.0/"/>
        <dc:description>This map was created with MapChart.net, a website for creating custom maps.</dc:description>
      </ns2:work>
      <ns2:license rdf:about="http://creativecommons.org/licenses/by-sa/4.0/">
        <ns2:permits rdf:resource="http://creativecommons.org/ns#Reproduction"/>
        <ns2:permits rdf:resource="http://creativecommons.org/ns#Distribution"/>
        <ns2:requires rdf:resource="http://creativecommons.org/ns#Notice"/>
        <ns2:requires rdf:resource="http://creativecommons.org/ns#Attribution"/>
        <ns2:requires rdf:resource="http://creativecommons.org/ns#ShareAlike"/>
      </ns2:license>
    </rdf:rdf>
  </metadata>
  <g id="map-group" transform="translate(-5151.239356934146,-2563.45670015483) scale(5.340473335583987)">
    <svg id="map" width="1520" height="840" version="1.1" viewBox="0 0 1520 840" preserveAspectRatio="xMinYMin" data-originalStrokeWidth="0.3">
      <defs>
        <pattern id="circles3" width="10" height="10" patternUnits="userSpaceOnUse">    <rect width="10" height="10" fill="#fff"/>    <circle cx="4" cy="4" r="2" fill="#000"/>    </pattern>
        <pattern id="diagonal1" width="10" height="10" patternUnits="userSpaceOnUse">    <rect width="10" height="10" fill="#fff"/>    </pattern>
        <pattern id="diagonal3" width="10" height="10" patternUnits="userSpaceOnUse">    <rect width="10" height="10" fill="#fff"/>    </pattern>
        <pattern id="vertical1" width="10" height="10" patternUnits="userSpaceOnUse">    <rect width="10" height="10" fill="#fff"/>    <rect x="2" y="0" width="1" height="10" fill="#000"/>    </pattern>
        <pattern id="vertical3" width="10" height="10" patternUnits="userSpaceOnUse">    <rect width="10" height="10" fill="#fff"/>    <rect x="2" y="0" width="3" height="10" fill="#000"/>    </pattern>
        <pattern id="horizontal1" width="10" height="10" patternUnits="userSpaceOnUse">    <rect width="10" height="10" fill="#fff"/>    <rect x="0" y="2" width="10" height="1" fill="#000"/>    </pattern>
        <pattern id="horizontal3" width="10" height="10" patternUnits="userSpaceOnUse">    <rect width="10" height="10" fill="#fff"/>    <rect x="0" y="2" width="10" height="3" fill="#000"/>    </pattern>
        <pattern id="crosshatch" width="8" height="8" patternUnits="userSpaceOnUse">    <rect width="8" height="8" fill="#fff"/>    </pattern>
        <pattern id="subtlepatch" width="5" height="5" patternUnits="userSpaceOnUse">    <rect width="5" height="5" fill="#fff"/>    <rect x="2" y="2" width="1" height="1" fill="#000"/>    </pattern>
        <pattern id="checkers" width="8" height="8" patternUnits="userSpaceOnUse">    <rect width="8" height="8" fill="#fff"/>    </pattern>
        <pattern id="raindrops" width="10" height="10" patternUnits="userSpaceOnUse">    <rect width="10" height="10" fill="#fff"/>    </pattern>
        <pattern id="texture" width="4" height="4" patternUnits="userSpaceOnUse">    <rect width="4" height="4" fill="#fff"/>    </pattern>
        <pattern id="circles3_a03500_000000" width="10" height="10" patternUnits="userSpaceOnUse">    <rect width="10" height="10" fill="#a03500"/>    <circle cx="4" cy="4" r="2" fill="#000000"/>    </pattern>
        <pattern id="diagonal1_d9b400_535353" width="10" height="10" patternUnits="userSpaceOnUse">    <rect width="10" height="10" fill="#d9b400"/>    </pattern>
        <pattern id="diagonal3_3264c8_ffffff" width="10" height="10" patternUnits="userSpaceOnUse">    <rect width="10" height="10" fill="#3264c8"/>    </pattern>
        <pattern id="horizontal1_72b38e_000000" width="10" height="10" patternUnits="userSpaceOnUse">    <rect width="10" height="10" fill="#72b38e"/>    <rect x="0" y="2" width="10" height="1" fill="#000000"/>    </pattern>
        <pattern id="horizontal3_986ba1_ffffff" width="10" height="10" patternUnits="userSpaceOnUse">    <rect width="10" height="10" fill="#986ba1"/>    <rect x="0" y="2" width="10" height="3" fill="#ffffff"/>    </pattern>
        <pattern id="vertical1_b9a087_ffffff" width="10" height="10" patternUnits="userSpaceOnUse">    <rect width="10" height="10" fill="#b9a087"/>    <rect x="2" y="0" width="1" height="10" fill="#ffffff"/>    </pattern>
        <pattern id="vertical3_4c91bf_ffff33" width="10" height="10" patternUnits="userSpaceOnUse">    <rect width="10" height="10" fill="#4c91bf"/>    <rect x="2" y="0" width="3" height="10" fill="#ffff33"/>    </pattern>
        <pattern id="checkers_cc3333_f7f7f7" width="8" height="8" patternUnits="userSpaceOnUse">    <rect width="8" height="8" fill="#cc3333"/>    </pattern>
        <pattern id="texture_d1dbdd_525252" width="4" height="4" patternUnits="userSpaceOnUse">    <rect width="4" height="4" fill="#d1dbdd"/>    </pattern>
        <style id="map-style">svg { background-color: #ffffff; }</style>
      </defs>
      <g id="state_lines" stroke="rgb(209, 219, 221)" style="display: none; stroke: rgb(0, 0, 0);" stroke-width="0.1"/>
      <path id="GA02" d="m1099.88 556.03-1.55.28.06.22.06.1.16-.1.07.01.06.12-.1.05-.1.16-.07.05-.17-.13.08.26.03.34-.15-.03-.12.02-.19-.03-.07-.05-.05.1-.2-.07-.01.03-.37.07-.13.05-.04.22h.06l.07.08.06.27-.07.02-.14-.06-.06-.13-.15-.09-.1-.02-.13.07-.12-.11-.1.04-.19-.16.06.33.06.1.06.34-.05-.03-.19.17-.3.06-.06.14.1.15-.12.08-.04-.06-.16-.02h-.11l-.01.09-.09.1-.14-.02-.07-.05-.1.05h-.13l-.13-.05-.07.03-.18-.11-.12.04-.03-.12-.21.04-.2-.03-.25-.19-.43-.19-.18-.11-.17-.15-.44.43-1.98.35-.04-.26-.25.04.03.26-.55.1-2.57.44-.65.12.26 1.48-.02.03-.63.1-.34 1.7-.02.05-.23 1.17-.17.76-.05-.18-.12-.08-.1.01-.1-.16-.07-.17-.16-.25-.04-.02h-.3l-.1.07-.01-.14.02-.1.1-.14-.12-.12-.12-.05-.1.05-.03.11-.08.15-.14.11-.06.16-.05-.2-.15-.17-.05-.11-.45-.07h-.14l-.12-.16-.11-.1h-.16l-.1-.06-.03-.1-.06-.02-.15.11-.1.12-.06.02-.24-.16h-.11l-.11.12-.17-.05-.22-.41-.15-.17-.12-.03-.1.07.12.2-.06.05-.19-.11-.14.09-.15-.01-.21-.06-.1-.07-.02-.09-.14-.01-.07-.23-.12-.17v-.04l-.12-.2-.13-.1.01-.12-.2-.15-.02-.14-.06-.02-.16-.2-.14-.04-.07-.06-.3.08-.05.2-.1.23-.15.03-.26-.1-.07-.3-.06-.1-.15-.14-.1-.14-.25-.05-.1.14-.24-.08-.04-.06.01-.14.1-.14.15-.14.05-.1-.02-.12-.07-.03-.13.01-.41-.1-.23.1.02.13-.16.15-1.31 1.14-1.3.23-.1.03-1.96.34.29.43.4 2.41.06.41.13-.02.04.27.14-.03.04.24-.27.05.07.45-.16.02.04.23-.1.02.09.46.24-.04.08.58.23 1.31.13.78.01.1.07.4-1.41.27-2.61.44-.62.12-.9.14-.11-.76-1.93.33.02.1.11.23.09.3.22.27.08.15.01.2-.05.2v.1l.08.14.13.16.04.13.15-.12.23-.15.1-.24.14-.18.04-.1.21.09.08.07.05.13.04.25.09.13-.25.05.1.19.01.08-.03.33.13-.14.17-.03v.1l-.12.03-.13.13.02.14-.05.14-.15.1-.2.03-.01.09-.2.17.05.08.06.16.03.2-.2.03-.05.1-.06-.3-.2.21-.22-.1.11-.25.1-.37-.02-.05.04-.2-.13-.02-.1.03-.01-.09h-.1l-.23.08-.02.12.03.1-.03.12-.14.08v.06h.07l-.02.06.06.04-.04.16.07.14.05.07v.03l.04.08.04.34-.07.04-.01.08.04.14.06.2.13.2.26.12.34.03.32.53v.07l-.37.38v.31l.05.05.05.05.04.05.08.02v.02l.08.04h.05l.03.02v.05l-.02.03-.17.01-.04.04-.14-.04-.04.06-.03.1-.02.09v.06l.04.05.02.01h.08l.1-.04h.13l.06.03.03.03-.02.08-.25.07.03.38-.36.49-.1.14-.02.3.2.41.37.03 1.05.29.27.02.2.1.32.31.6.34.5.33v.05l-.33.09-.03.22-.08.1h-.41l-.02.14.32.04-.06.24-.1.1-.05.18-.12.3-.26.1-.24.01-.13.06-.17.02-.32.07-.13.34.16.08.13-.03h.12l.08.22-.25.2-.87.47-.36.56-.39.76-.38.43.38.82.3.5-.18.25v.27l.04.15-.02.26v.42l.2.25-.05.3.2.1.06.03v.07l-.13.03.03.32-.2.23-.05.3.01.32-.05.12.2.3-.18.26-.23.1-.07.14.28.52-.46.6-.02.22-.26.23.17.2-.02.25-.14.15-.43.07.18.4-.03.2-.17.53.15.35-.08.22.3.32.02.18.1.27.03.36v.1l-.08.39-.08.15.12.13.37.23.02.1.05.01-.05.16v.07l.04.06.05.12.08.1.1.14.04.16.03.08.06.07v.05l-.05.07v.09l.01.1-.02.05-.06.07v.1l.02.24.03.11.06.28.37.25.17.27.53.46.33.07-.02.2-.03.14v.25h.15l.4.32.24.08.04.05.02.17.1.25.03.4v.15l.1.24v.3l.11.12.06.1.28.43.1.05.06.22-.12.37.13.26-.22.67-.07.38-.1.3-.04.36.3.86.03.33-.24.2.03.26-.05.16.12.31-.1.65-.03.25-.09.3.03.13.02.12.04.07.07-.03.07.01.03.13v.51l.11.1.1.37-.06.21.02.58-.17.3-.37.21-.03.13.14.43.04.12.23.33.33.63.02.44-.16.3.02.36.05.18.25.13.03.44.26.16.2-.03h.1l.13.05.1.15.3.25.37.64.2.08.1.1.21.08.26.4.16.38-.02.2.13.21.45.43.05.16.1.48.22.43.12.08.02.06v.4h-.03v.04l.04.11v.08l.03.21v.03l-.05.23.07.18.48.07.2.18.06.24v.58l.36.17.08.2.44.4.48.55.2.06.01.15-.08.2.22.25-.06.15.11.26.25.21-.01.17-.21.2.06.49.3.41.01.17.04.16.13.18.24.25.02.06-.03.3v.02l.16.12.16.3.36-.08.09.08.19.14.17.3.16.09.24.14.23.35.2-.02.57-.08.38-.03.86-.11 1.08-.12.66-.08.57-.07 1.04-.13.57-.07.8-.08.58-.06 1.5-.17.6-.07.82-.08.26-.02 1.44-.2 1.06-.14.07-.03.5-.05.4-.04.29-.03 1.38-.17h.05l.81-.1 1.6-.2.96-.11.81-.1.54-.06 2.3-.27.81-.09 2.02-.25.91-.1h.02l.66-.1h.15l.47-.06.63-.06.34-.05.58-.07.77-.1.01-.04-.15-.88-.28-1.72.1-.01-.26-1.39-.22-.96-.15-.95-.2-1.16-.16-.93-.25-1.63-.2-1.26-.14-.89-1.19.2.07.39-.4.07-.06-.4-2.68.43-1.94.33-.9.14-.1-.6-.22-1.28-.28.05-.05-.3.29-.05-.2-1.14-.16-1.02-.09-.46-.54-3.44-.23-1.38-.18-1.09-.31-1.94-.08-.42.4-.07-.07-.41-.4.06-.39-2.34.4-.08-.07-.36-.39.07-.14-.84-.06-.23-.13-.85-.43.1-.04-.28.25-.05-.04-.25.24-.03-.04-.27-.66.11.04-.05.01-.18-.02-.1.06-.1-.16-.2-.05-.18-.13-.15-.04-.12.03-.22-.16-.23-.03-.14-.07-.15-.17-.08-.04-.1.09-.1.17-.1.06-.1.04-.24.08-.12.1-.01-.03-.25.05-.14-.02-.25.1-.1.14-.02.15-.3-.03-.12-.23-.2.03-.22-.06-.05h-.18l-.24-.13-.03-.06-.04-.2.05-.1.1-.04.24-.02.06-.1.17-.02.13.06.08-.01-.03-.12-.08-.06.02-.3.04-.12.02-.18.1-.23.22-.04.03-.19.07-.04.12-.15.01-.1.08-.06.13.03.03-.06v-.27l.1-.05.11-.1v-.14l-.08-.17-.2-.27.04-.12.08-.08-.14-.2-.01-.15.18-.39v-.21l.01-.22-.05-.14-.21-.26-.04-.16.02-.17-.19-.24-.11-.09.04-.09-.03-.08-.23-.3-.09-.08-.03-.09-.06-.03-.1-.2.04-.08-.02-.14-.1.02-.12-.17-.02-.22-.05-.08.03-.11-.16-.12-.1-.02-.05-.2-.06-.09 1.05-.18.72-.13.54-.1 1.07-.18 2.3-.39.58-.09 1.69-.29 1.24-.22-.04-.27-.5-2.88-.1-.58-.06-.36-.26-1.57-.15-.88-.08.03-.02-.12-.15.03-.06-.3.25-.04-.1-.5-.05-.35-.06-.3-.87.14-.33.04-.8.15h-.17l-.28.06.04.23-.48.08-.03-.22-1.9.33-1.49.26-.33-2.08-.25.04-.1-.54-.04-.22.51-.09-.17-1-.14-.77-.25.04-.17-.9.15.2.12-.02.15.06h.13l.1.58.28-.07-.04-.22.5-.1-.27-1.53.25-.05-.08-.5.25-.06.04.23.75-.12-.15-.9.24.1.18.06.08.12h.23l.02-.07.01-.28-.17-.97-.12-.65-.01-.15-.05-.3.09-.17v-.24l-.15.03-.11-.64.25-.05.05.32.12-.03.12-.1.25-.05.03.2.13-.05 1.03-.18-.06.18.05.1.11.04.23.03.16.15h.2l.06.38.06.03.2-.04.18.05.06-.05.12.06.04.1.13.04.12-.02.28.02.12-.09.08-.1.14.05.17-.06.06-.06.22.11.14-.04.06-.1.12.06-.03-.2v-.18l-.15-.1-.09-.27.02-.1-.03-.1-.09-.03-.08-.1-.04-.12.04-.11v-.25l-.05-.09-.1-.06-.1-.1.02-.14-.2-.13-.06-.02v-.24l-.06.04-.1-.05v-.13l-.06-.04-.17.02-.17.11-.1.04h-.13l-.02-.13-.1-.06-.3-.07-.05-.11-.17-.02.03-.08-.07-.1.01-.1-.07-.04v-.08l-.06-.19-.08-.03.01-.12.07-.13.08.05.08-.15-.04-.14.04-.06-.02-.1-.06-.02-.04-.18.04-.11.02-.32-.15-.1-.06-.12.07-.09.19.12.15-.23.22.18.37-.54 1.24-1.78h.12l.1-.17-.18-.14.04-.07-.05-.09.02-.1.16-.2-.83-.6-.15.23-.46-.35-.48-.34-.34-.23-.28.44-.28-.26zm-33.74 18.42h.02l.02.04-.03.14-.06-.03zm-1.49 25.37-.07.18.03.25.05-.12.07-.13v-.08z" fill="#d1dbdd" stroke="rgb(209, 219, 221)" stroke-width="0.1" data-originalStrokeWidth="0.1" style="stroke: rgb(0, 0, 0); fill: rgb(209, 219, 221); pointer-events: auto; stroke-width: 0.1;" pointer-events="auto"/>
      <path id="GA03" d="m1057.45 530.9-1.25.19-1.01.16-2.25.34.03.22-2.64.4-1.8.26.06.2.22.65.12.35.06.19.02.07.74 2.27v.02l.07.17.03.1.03.08.18.56.16.49.27.82.18.5.28.87.3.9.01.03.22.61.22.7.43 1.3.14.41.48 1.43.12.33.11.38.14.4.12.38.08.22.45 1.4.26.76.56 1.67.18.56.11.35.17.5.76 2.27.22.7.22.66.19.63.2.55.15.42.12.4.17.48.07.23.33.92.16.5.4 1.19.07.16.37 1.09.11.31.23.68.02.1.02.03.02.06.05.1-.02.05.03.12.03.15.19.15.16.01h.12l.2-.1.18.19.03.1v.13l-.23.24-.06.2.1.21.02.1-.04.15.04.1.05.06.13.12.2.16.34.13.05.05.07.1.13.06.12.11.27.18-.36.12v.13l-.02.03-.08.08-.02.1.02.07.05.07.05.08.02.07.05.04.05.07.1.09.09.01.07.02h.18l.12.04.12.2-.06.2-.01.02-.03.04-.05.05-.02.09v.16l.04.1.05.06h.05l.02.05-.03.06.02.06.02.07.02.02v.04l.03.1.03.02.03.17.07.06.1.17.13.04.1.03.12.1.24.33.16.2-.06.08-.32.38.05.13.17.16.4-.1.03.06-.02.05-.05.12-.07.03-.03.04v.08l.05.05.07.1.17.2.05.06.03.18.03.06.04.02v.05l.05.08.18.26.1.12.08.13h.1l.1.04.1.1.02.03v.04l.2.17.07.02.07.06.03.07v.05l.07.06.1-.02h.01l.03.05.03-.02.05.03.03.04.05.07v.11l.07.06.12-.05.07.05.07-.02.06.26.23.24h.14l.23.3.02.1h.01l.03.1.04.02.13-.08v-.25h.01l.04.05.01-.04.23-.08h.1l.01.09.1-.03.13.02-.04.2.03.05-.1.37-.11.25.22.1.2-.21.05.3.05-.1.2-.03-.02-.2-.06-.16-.07-.08.2-.17.02-.09.2-.03.15-.1.05-.14-.02-.14.13-.13.12-.04v-.1l-.17.04-.13.14.03-.33-.01-.08-.1-.2.25-.04-.09-.13-.04-.25-.05-.13-.07-.07-.21-.08-.05.09-.14.18-.1.24-.23.15-.14.12-.05-.13-.12-.16-.08-.14v-.1l.04-.2v-.2l-.08-.15-.23-.26-.08-.31-.12-.24-.01-.1 1.92-.32.12.76.9-.14.6-.12 2.62-.44 1.42-.26-.07-.42v-.1l-.14-.77-.22-1.31-.09-.58-.24.03-.08-.45.1-.02-.05-.23.16-.02-.07-.45.27-.05-.04-.24-.13.02-.04-.26-.14.02-.06-.4-.4-2.42-.29-.44 1.96-.33.1-.04 1.3-.22 1.31-1.14.16-.15-.01-.12.22-.12.4.1h.14l.07.03.03.12-.06.1-.15.14-.1.14v.13l.03.07.24.08.1-.15.25.06.1.14.15.14.06.1.07.3.26.1.14-.03.11-.23.05-.2.3-.08.07.06.15.04.16.2.05.02.01.14.22.15-.01.11.12.1.13.2-.01.05.12.17.08.23h.13l.02.09.1.08.21.06h.15l.14-.09.19.12.07-.06-.12-.2.1-.07.1.04.16.17.22.4.18.05.1-.1.12-.02.23.16.06-.01.1-.12.15-.11.07.02.02.1.1.06h.16l.11.1.12.16h.14l.44.06.05.12.16.17.05.2.06-.16.14-.1.08-.16.03-.11.1-.05.12.05.12.12-.1.14-.03.1.02.13.09-.06h.3l.05.02.16.25.06.16.12.17h.09l.11.07.05.18.17-.77.24-1.16.02-.05.34-1.7.63-.1.01-.04-.26-1.48-.14-.8-.29-1.77 1.8-.3-.09-.51.25-.04-.1-.64-.31-1.88-.42-2.52-.06-.49-.06-.27-.1-.54-.06-.43-.1-.54-.12-.62-2.12.37-.17-1.04-.04-.26.13-.02-.03-.13-.11.01-.02-.12.68-1.17-.07-.02-.06-.1-.12-.05-.18-.18-.16-.05-.03.07-.09.06-.15-.12-.12.1-.1-.05-.19-.03-.02-.1-.1-.03-.07-.12-.17-.08-.11.13-.12-.7-.67.1-1.41.26-.4.07-.08-.5-.06-.01.02-.2-.07-.39.17-.2.29-.05.22-.08.1-.51-.08-.28-.07-.1.12-.15.31-.19.25-.36.07-.13-.18-.14-.51-.52-.06.07-.37.19h-.15l-.12.03-.16.1-.13.13-.25.02-.34.13-.12.14-.8.15.04.26-.5.06-.03-.25-.78.14.37 2.25.06.35-.87.16-.03-.1-.18-.1v-.24l-.12-.17.22-.11v-.12l-.11-.07-.01-.13-.08-.02-.1-.22.1-.1.07-.13-.04-.28-.06-.07-.11.03-.05-.26-.24.04-.08-.5.24-.05-.03-.25.22-.03-.16-.16.04-.12.05-.03-.04-.13.06-.09v-.08l-.12-.07-.04-.19-.06-.14-.12-.05-.18-.17-.18.15-.12.16-.06.27-.12.31-.07.11-.17-.03-.1-.12-.2-.13-.16.04.11-.2-.15-.04-.16-.08h-.09l-.21-.07-.18-.12v.15l-.07.18.04.13-.32.04.06.18.05.4.06.22-.25.01-.12-.15v-.1l.03-.2-.22-.31-.15-.15-.14-.29v-.09h-.13l-.12-.04v-.12l-.2.08-.07-.11-.1.03-.13-.01-.16-.12-.3-.1-.02-.05-.16-.04-.03-.1.06-.15-.06-.16-.92.47-.06.16-.06.07-.1.01-.05.12.02.14-.04.07-.3.03-.04-.23-.18.02-1.09.17-.05.03-.2.02-.79.14v.01l-.95.17h-.05l-2.6.43.04-.06.2-.09.17.02.18-.03.22-.2.06-.1-.02-.1-.22-.21-.1-.19-.08-.09-.15-.08-.01-.11.08-.14.01-.26.05-.12.13-.14.14-.11.05-.09-.01-.32.03-.11.1-.13.08-.2.19-.15.17-.25.1-.13.3-.2.19-.47-.11.02-.2-.13-.08-.12-.07-.25.21-.3.1-.18-.1-.08-.14-.04-.12-.24.07-.12.05-.21.15.09.07-.04-.08-.1.02-.2-.15-.14-.15-.03.03-.12-.2-.09.22-.21.18-.03-.4-.18-.08.01.03-.2-.02-.18-.35.21-.04-.24-.09-.24.01-.2-.13-.17-.04-.26.1-.08.04-.16.01-.24-.04-.29.09-.15-.81.3.02.06-.83.19.01.08-.37.08-.81.16-.6-.09-.47-.1-1.42-.19-.38-.01-.26-.04-.23.01-.9-.05z" fill="#d1dbdd" stroke="rgb(209, 219, 221)" stroke-width="0.1" data-originalStrokeWidth="0.1" style="stroke: rgb(0, 0, 0); fill: rgb(209, 219, 221); pointer-events: auto; stroke-width: 0.1;" pointer-events="auto"/>
      <path id="GA08" d="M1106.94 545.07h-.16l-.14.1-.24.03-.07-.04h-.24l-.1.05-.12.15-.07.17h-.24l-.14.1.1.07.02.12-.05.13-.13-.1-.15-.03-.03.06.08.07-.09.12-.24-.11-.06.08-.1-.01-.2-.2-.13.03-.16-.03v.09l.08.2-.04.06-.16-.1-.12.06-.05-.13-.14.03-.08-.08-.13-.04-.03-.13-.25.14-.14.02-.09-.07-.09.2-.23.07-.1-.1h-.08l-.08-.07-.08.08-.09.02-.09-.06-1.5.53-.65.23-.52.18-1.96.7-1.82.7-1.33.5-1.61.61-.09-.3v-.1l.05-.12-.29-.25-.06-.14-.03-.27-.05-.14.04-.15-.28-.08-.25-.22-.01-.08-.09-.04-.24.1-.03-.04-.17-.1-.17.04-.07-.04-.23.02-.72.16-.74.12-.74.13-1.4.24-.63.1.13.63.1.54.06.43.1.54.05.28.06.48.42 2.52.31 1.88.1.64-.24.04.08.52-1.8.3.3 1.77.13.8.65-.12 2.57-.44.56-.1-.04-.25.25-.05.05.26 1.97-.34.44-.44.17.15.19.11.43.2.23.18.21.04.21-.04.03.11.12-.04.18.1.07-.02.13.05h.13l.1-.05.08.06.13.02.1-.1v-.09l.11-.01.16.02.04.06.12-.08-.1-.14.05-.15.32-.06.18-.17.05.03-.06-.34-.06-.1-.06-.33.19.16.1-.04.13.1.12-.06.1.02.15.1.06.12.14.07.08-.02-.06-.28-.07-.08h-.07l.05-.22.13-.05.36-.06.02-.04.19.07.05-.1.08.05.18.03.13-.02.15.03-.04-.34-.08-.26.17.13.08-.04.09-.17.1-.05-.06-.12h-.07l-.16.08-.06-.09-.06-.22 1.55-.28.35.35.28.26.28-.44.34.23.48.34.46.35.15-.22.83.59-.16.2-.02.1.05.09-.04.07.18.14-.1.16-.12.02-1.24 1.77-.37.54-.22-.17-.15.22-.19-.12-.07.09.06.12.15.1-.01.32-.05.11.04.18.06.02.02.1-.04.06.04.14-.08.15-.08-.05-.07.14-.01.1.08.05.07.18-.01.08.07.04-.01.11.07.1-.03.07.18.02.04.11.3.07.1.06.02.12.12.01.1-.03.18-.12.17-.02.07.04v.13l.09.05.05-.03v.23l.08.02.2.13-.04.15.1.1.11.05.05.09v.25l-.04.11.04.13.09.1.08.02.03.1-.02.1.1.27.14.1v.18l.03.2-.12-.07-.06.11-.14.04-.22-.1-.06.05-.17.06-.14-.05-.08.1-.11.1-.29-.02-.12.02-.13-.04-.04-.1-.11-.07-.07.05-.19-.05-.19.05-.05-.03-.07-.38-.2-.01-.16-.15-.23-.02-.1-.04-.06-.1.06-.2-1.02.2-.14.04-.03-.2-.24.05-.13.1-.11.03-.06-.32-.25.05.12.64.15-.02v.23l-.1.18.05.3v.14l.13.65.18.98-.02.27-.01.07h-.24l-.08-.12-.17-.05-.25-.1.15.89-.75.13-.04-.23-.24.04.08.51-.26.05.27 1.54-.5.1.04.2-.27.08-.1-.57-.14-.01-.15-.05-.12.02-.15-.21.17.9.25-.04.14.76.17 1.01-.5.09.03.22.1.54.25-.04.33 2.08 1.5-.25 1.89-.34.03.22.48-.07-.04-.23.28-.06.16-.01.8-.14.34-.05.87-.14.06.3.05.35.1.5-.24.04.05.3.15-.03.02.12.08-.02.15.88.26 1.57.07.35.1.58.49 2.89.04.26-1.25.22-1.68.3-.58.09-2.3.39-1.07.17-.54.1-.72.14-1.05.18.06.08.05.2.1.02.16.12-.03.1.05.1.02.21.11.18.1-.02.03.14-.03.08.08.19.07.04.03.09.09.08.23.3.03.08-.04.08.12.1.18.23-.01.17.03.17.21.26.06.13-.03.22.02.22-.2.38.03.15.13.2-.08.09-.03.1.2.28.08.18v.12l-.11.1-.1.06v.28l-.02.05-.13-.03-.08.05v.11l-.12.15-.08.04-.03.2-.2.03-.11.23-.03.19-.04.1-.02.31.09.06.02.12h-.08l-.12-.05-.18.02-.06.1-.24.02-.1.04-.05.1.04.2.03.06.25.14.17-.01.06.06-.03.2.24.21.03.13-.15.29-.14.02-.1.1.01.25-.04.14.02.25-.1.01-.08.12-.04.24-.05.1-.17.1-.1.1.05.1.17.08.06.15.03.14.16.23-.03.22.05.12.12.15.06.17.15.22-.06.1.03.09-.01.19-.04.04.65-.1.05.26-.25.03.04.26-.25.04.05.28.43-.1.13.85.05.23.15.84.4-.06.05.36-.4.07.4 2.34.4-.06.07.4-.4.08.08.42.31 1.94.18 1.1.22 1.37.55 3.44.09.46.16 1.02.2 1.14-.29.06.05.29.28-.05.21 1.28.11.6.9-.14 1.94-.32 2.68-.44.06.4.4-.07-.07-.4 1.18-.18.14.89.2 1.25.26 1.63.15.93.2 1.17.15.94.22.96.26 1.4h-.09l.28 1.72.15.88.01.04.88-.1.37-.04.56-.07 2.06-.24.66-.08 2.04-.26.52-.04.83-.1.54-.07.67-.08.79-.08.5-.07.42-.03.78-.1h.07l.46.08-.46-.09.47-.06.9-.1.22-.09.07.07.55-.06 1.45-.19.27-.03.87-.08.32-.04h.05l.85-.12.8-.08.82-.11h.06l.85-.11.88-.1.5-.07h.13l1.3-.16 3.7-.44 1.15-.14.47-.06.5-.05.61-.08.36-.06 1.05-.12.3-.04.35-.04.22-.03.55-.07.43-.05 1.56-.2.42-.05.59-.06.23-.03.02-.11-.04-.25-.14-.72-.32.07-.08-.38-.16-.8-.02-.4-.15-.82-.24-.37-.08-.4.4-.09-.08-.38-.4.08-.14-.68-.42-2.12-1.57.32v-.42l-.25-1.4-.42-2.35-.06-.29-.78.16-.04-.11-.2-.06-.17-.21-.14-.2-.09-.07-.2-.04-.13-.17-.05-.14h-.17l-.44-.18-.14.03-.15-.04-.18-.15h-.13l-.19-.28-1.07-1.64-.46-.7-1.24-1.9-.81-1.25-.04-.05-.27.05-.16-.9-.12-.8.43-.32h.2l.25-.17.07.06.14-.03.17.03.19.15.17-.02.01.1.22-.06-1.11-6.02.8-.15-.04-.2-.25-1.4-.05-.32-.16-.83-.84.15-.3-1.67-.35-1.87.43-.08 1.02-.2.35-.07.97-.18-.16-.8-.18-1.05-.02-.13-.79.15-.07-.4.15-.02.64-.13-.39-1.95-.14-.81 2.32-.44-.12-.56-.27-1.44-.2-1.12-.19-.85h-.2l-.14.03-.18.13-.15.05-.23-.06h-.12l-.26-.07-.08.1-.23.07-.07.06-.07.21.03.1.11-.08.17.02.14-.05.09.07-.11.17-.15.1-.33.02-.16-.05-.2-.11-.07-.01-.26.02-.17-.04-.08.15-.16-.03-.01.12-.29-.07-.01.13-.14-.04-.09.02-.15.16-.13.22-.05.2-.08.04-.03.15-.06.04-.1-.02v.1l-.08.05-.08-.13h-.13l-.08.17-.12.14-.03.08-.1.02-.13.12-.12.03-.1-.05-.07.03-.06.1-.27.12-.19-.09-.01-.09.04-.07-.28-.06-.12-.05-.08.03-.08-.1-.06-.02-.19-.2-.17-.08-.1-.1h-.1l-.09-.07-.12-.26-.07-.06-.08-.13-.11.02-.13-.08-.05-.14-.18-.12.01-.08-.11-.1-.06-.13-.01-.13h-.08l-.06-.08-.12-.08-.23.02-.08-.01-.11.04-.06-.02-.12.04-.35-.06-.07.03-.24-.18-.13.03-.22-.09-.11-.14-.05-.12-.15-.06-.1-.13-.08-.15-.17-.06-.02-.05-.19-.06-.1.03-.27-.07-.06-.08-.24-.04-.12.06-.26.02-.15-.05-.05-.1-.34-.18-.12.02-.38-.11-.11-.15-.16-.04-.2-.29-.08-.39-.13-.12-.17-.1-.07-.1-.12-.04-.24.03-.08-.01-.26.07.55-.82.88-1.3-.1-.07-.38-.33-.4.35-.98.87-.27.21-.76.66-.33-.48-.42-.6-.34-.5-.56-.79-.45-.65-2.33-3.35-.07-.1-1.34-1.9-1.14-1.64-.55-.8-1.11-1.58 1-.87.94-.8.4-.35.91-.78 1.04-.87 1.95-1.5v-.2l.01-.21.07-.15.01-.51-.05-.23.02-.09-.07-.09-.02-.15-.07-.06-.09.2-.07-.11-.09.04v-.13l-.08-.13-.04-.21.01-.5-.04-.16.03-.22-.11-.07-.03-.1h-.08l-.11-.2h-.09l.01-.1-.15-.1.1-.15-.2-.1.09-.07-.15-.17-.1.03-.05-.04v-.13l-.32-.07.01-.13-.13.02-.05.06-.1-.14-.14.07-.04-.03-.14.1-.14-.1-.16.09h-.1l-.1-.1-.04-.2-.11.03-.05-.22-.07-.05-.03-.14-.1.04-.17-.16-.06-.13-.1-.12.05-.13-.1-.08-.02-.12.04-.18-.12.05-.01-.15-.14-.07v-.1h-.11l-.01-.13-.15-.14.1-.07-.06-.1-.16.09-.01-.21-.17-.1.04-.29-.12-.25-.02-.18.03-.25.04-.03.22-.02.17-.4-.03-.16-.08-.1-.05-.26-.07-.1-.17-.18-.13-.06-.18-.25-.01-.09.13-.23.13-.15-.06-.26.01-.07.12-.19.02-.15.04-.09v-.1l-.07-.19-.1-.15-.14-.15-.16.19-.04.09-.2.3-.3.1-.2.32-.17.2-.06-.11-.1-.07.02-.14-.15-.22-.03-.1-.3-.22-.06-.2.07-.21.02-.17-.07-.15-.02-.3.06-.04.03-.2-.11-.22.06-.13.11-.01.1-.1.01-.2.03-.07-.02-.19-.1-.12-.48-.08-.88-.08-1.29-.14-.57-.01h-.54z" fill="#d1dbdd" stroke="rgb(209, 219, 221)" stroke-width="0.1" data-originalStrokeWidth="0.1" style="stroke: rgb(0, 0, 0); fill: rgb(209, 219, 221); pointer-events: auto; stroke-width: 0.1;" pointer-events="auto"/>
      <path id="GA12" d="m1117.68 517.22-.14.04-.2.19-.27.07-.54.22-.46-.02-.27.1-.1.1-.2.08-.16.13-.08.15-.12.03-.18-.01-.14.05.16.33v.3l.02.14.1.25.07.08.32.27.19.32.29.5.06.25.08.27.1-.02.2.07.1.1.05.1.02.16-.06.26-.12.13-.17.06v.2l-.06.19.01.16-.03.12-.14-.01-.1.07-.17.3-.07.17-.1.2-.05.05-.2.03-.1.1-.07-.14-.02-.13-.12-.2-.22-.24-.08.17-.08.06.05.16.06.37-.02.1.05.35-.06.1-.13.4.34.16-.05.17-.1.17-.15.1v.2l-.14.08-.06-.01-.2.1-.1.16-.13.04-.05.08-.2.12v.12l-.06.1v.07l.1.23.08.08-.24.16-.24.05-.04-.07-.27-.26-.05.2-.11.13-.23.03-.21.14-.2.02-.07.1-.05.17-.08.04.2.28 1.5 2.03.1.05.1.17.2.11.05-.1-.16-.09.12-.16-.09-.15.16-.23.5-.01.25-.32.14-.12.14.02.06-.06.02-.11.06-.03.1.03.09-.1.25.22 1.09.51.16.05.15.1.12-.03.11.03.1.17.17-.13.07.04.17-.07.12.01.1-.1.08.05.04.2.14-.17.05-.01-.01-.2.2-.07.1.03.1-.04.09.05.02.15.08.2.15.09.03.08-.09.14-.03.13-.15-.03-.16.03-.1.16.08.1-.03.18-.12.24.04.16-.24.28v.2h.09v.27l.04.17-.08.04-.04.13-.14.17-.14.06-.03.26.03.08-.07.08-.01.14-.1.07-.15-.04-.1.03-.15-.05-.13.1-.27.03-.13.1-.77-.2-.1.09-.07.13.04.06.03.3-.02.06-.28.2-.02.2.01.1-.16.21-.05.14-.08.1-.08.17-.2.19.08.05.1.15.02.1.11.02.16.3.12.06.11.17.15.11h.06l.07-.12.08.1.25.05.07.2-.06.1.03.18.1.07.04.1-.05.1.07.13-.12.07.1.06v.16h.11l.1.04.05.11-.01.17.05.06-.08.09.14.05.15.24.08-.05.15-.03.1.09v.09l.1.07-.06.17.08.1.1.43-.03.08.13.2.18.04-.02.08-.13.05.04.12.11.15.1-.05h.12l.09.15-.02.15.05.03.08.27-.03.08.07.2-.07.14.1.2.1.08.11.06.08.13.22-.01.08.15.1-.05.18.05.04.08.13.03-.02.09.04.2-.4.1-.08.05h-.28l-.17.2-.06.12-.12.12-.09.18-.2.08-.13.13-.14.07-.16.2-.04.2-.06.1-.27.09-.13.06-.16.13-.04.24-.09.08-.1.21v.1l-.15.8-.07.07-.1.42.02.04-.25.38-.34.12-.22.32-.03.06-.34.17-.22.22-.23.06-.29-.02-.23.23-.08.15-.11.3-.26.27-.14.12-.34.09-.31.01-.17.06-.3.06.13.15.1.15.07.18.01.1-.04.1-.02.15-.12.18-.01.07.06.27-.14.15-.12.23.01.09.18.25.13.06.17.17.07.1.05.26.08.11.03.15-.17.4-.22.03-.04.03-.04.24.02.2.13.24-.05.28.17.1.01.22.16-.09.07.1-.1.07.14.14.01.13h.12l-.01.1.13.07.01.15.12-.06-.03.19v.12l.12.08-.05.13.1.12.06.13.17.16.1-.04.03.14.07.05.05.22.1-.03.05.2.1.1h.1l.16-.1.14.1.14-.09.04.03.14-.07.1.14.05-.06.13-.02-.01.13.33.07-.02.13.07.04.09-.03.14.17-.08.07.2.1-.1.15.15.1v.1h.09l.1.2h.09l.02.1.12.07-.03.22.04.16-.02.5.05.2.07.14v.13l.1-.04.07.1.08-.19.08.06.02.15.07.09-.01.09.04.23v.5l-.08.16-.02.21.02.2-1.96 1.5-1.04.87-.9.78-.41.34-.94.81-1 .87 1.12 1.58.55.8 1.13 1.63 1.35 1.92.06.1 2.33 3.34.45.65.55.79.34.5.43.6.33.47.76-.65.27-.21.97-.87.4-.35.4.33.1.06-.89 1.31-.55.82.26-.07h.08l.24-.02.12.05.07.09.17.1.13.12.09.4.19.28.15.04.12.15.38.11.12-.03.33.18.06.1.15.06.26-.02.12-.06.23.04.07.08.26.07.11-.03.19.06.02.05.17.06.08.15.1.13.15.06.05.12.11.14.21.09.14-.03.24.18.07-.03.35.06.12-.04.06.02.1-.04.08.01.24-.02.12.08.06.08h.08v.13l.07.12.11.1v.09l.18.12.04.14.13.08.12-.02.06.13.08.06.12.26.09.07h.1l.1.1.18.07.18.2.06.02.08.11.08-.03.12.05.28.06-.05.07.02.09.2.09.26-.12.05-.1.09-.03.09.05.12-.03.12-.12.1-.02.04-.08.12-.14.07-.18.14.01.08.13.07-.06v-.09l.11.02.06-.05.03-.14.08-.05.04-.19.14-.22.15-.16.1-.03.13.05v-.13l.3.07v-.12l.16.03.09-.15.16.04.26-.02h.08l.2.11.16.06.33-.02.14-.1.12-.17-.1-.07-.14.05-.16-.02-.12.08-.03-.1.08-.2.06-.07.24-.07.08-.1.26.06h.12l.22.07.16-.05.18-.13.13-.04.21.01.24.04.16.1.26.06.08.2.1-.03v-.13l-.07-.08.03-.12.12.01.14.08.1.18.1.02.02-.14-.12-.12.02-.1h.12l.13.11h.2v.1l-.06.04-.07.16.04.1.14-.02.18-.1.07-.02.14.1.55-.02.22.03.17-.02.25.07.13-.1v-.15l-.12-.03-.1-.1-.02-.11.1-.05.07.05.22.33.12-.03.05-.16.07-.13.14-.03.26.12h.2l.07.09.05.12h.11l.06-.16.12.01.05.12.17.14.1.2.13-.05.07-.15h.13l.08.18.06.03.15-.08.07.01.06.09.23-.04.1-.04.16.1.24-.06.08.17.21-.06.4-.16.16-.04h.12l.2.1.15-.05.03-.2.1-.1h.08l.07.17-.08.25.06.1h.25l.14.07.11-.05-.08-.38.07-.07.1.09v.21l.16.21-.02.19.05.24-.15.15.05.1.2-.07.27.13.14.13.28.12.12.14.42.06.3.17.22.07.15.15.08.03.22-.04.15.12h.07l.09-.11-.02-.17.12-.03.06.05.05.17.08.16.16.06.04.22.08.02.12-.07.09.02.02.08-.07.09.07.05.45.18.13.03.1-.05.02-.21-.1.09-.17-.08-.07-.26.02-.15.21-.05.11-.15.09.01.18-.06.06-.16v-.12l-.04-.1.04-.06-.03-.11.12-.27-.03-.06.07-.07.03-.1.16-.1.02-.13.11-.15.1-.04-.01-.14.03-.34-.07-.06v-.19l.09-.45.07-.07.08.02.1-.05.06-.12.11-.03.05-.11-.11-.22.06-.19.13-.17.05-.2-.07-.26-.01-.15-.07-.1-.01-.18-.12-.12-.08-.03v-.15l.06-.16.16-.22-.02-.19.05-.07.27-.15.09-.2-.02-.03.06-.18v-.1l.19-.2.06-.3.36-.49.28-.1.07-.12 1.07-1.13.25-.41.19-.35.42-.75-.1-.02-.13-.2-.2.02-.1-.1-.14-.05-.18.07-.12-.03-.12.03-.07-.31-.1.04-.08-.07.04-.1-.13-.04-.07-.16-.12-.1h-.13l-.1-.22.02-.06-.16-.17-.01-.16 3.81-1.97 1.49-.85 1.53-.88 1.55-.87-.04-.09.09-.06-.13-.06.04-.08-.12-.12.06-.16-.1-.17-.1-.05.04-.14-.18-.15-.09-.01-.06-.12.02-.1-.04-.12-.13-.01.01-.22.7-.44v.07l.44.2h.25l.2-.04-.17-.82-.14-.3.26-.19.1.02.21-.07h.1l.08.08.33.1.06-.1.16-.1-.1-.3.04-.06.01-.12.24-.18-.1-.13-.11-.06.13-.17.1-.01.09.1.1-.06.12-.03.1.12.09.03.8-.07.33.05.18.1.15.17.44-.34.47-.38.21-.24.58-.62v-.17l.15-.07v-.01l-.04-.36-.55-.5-.2-.17-.15-.15-.16-.35.18-.33-.2-.03.03-.17.2.09-.05-.19.2-.26-.04-.12-.31-.03-1.04-.74-.17-.22.09-.2-.04-.2-.29-.02-.17.12-.52-.23-.1-.03-.04-.03-.02-.06-.03-.02-.07-.03-.08-.01-.02-.02.08-.07.03-.05v-.05l-.02-.1-.02-.03-.12-.01-.04-.02v-.06l.02-.07v-.05l-.03-.06-.06-.04h-.03l-.03.03v.1l-.03.06-.05.02h-.04v-.16l-.04-.13-.03-.04h-.1v.05l.07.06.02.11-.04.05-.06.03h-.05l-.01-.06v-.03l.04-.07v-.04l-.02-.05-.07-.04h-.05l-.15.1-.2.06-.13.07h-.25l-.16-.06h-.05l-.12-.02-.24-.08h-.16l-.05-.02-.07-.04v-.06l.06-.06.03-.06v-.04l-.13-.07-.05.05-.01.06-.05.1-.05.02-.05-.01v-.03l.06-.1v-.06l-.02-.04h-.16l-.02-.03v-.05l.03-.07-.04-.05-.1-.01-.02.02-.04.09-.06.03-.07-.02-.12-.06-.12-.07-.17-.18-.51-.4-.1-.08-.14-.18-.08-.2.1-.14.2.16.08-.2-.25-.02.4-.47-.4-.24.01-.06.22-.02-.2-.14.02-.32-.14-.17-.2-.37-.02.13-.46-.17-.04-.28.23-.13-.2-.62.2-.06-.08-.17.16-.1v-.22l-.37.08.1-.46-.12.07-.1-.21-.27.05-.1-.06.38-.18.02-.2-.22.07-.2-.06-.03-.06v-.04l.01-.01.12.06.07-.02v-.02l.02-.05-.02-.03h-.06l-.06-.01v-.04l.06-.12.07-.03.02-.04v-.06l-.1.06h-.06v-.04l-.05-.1-.03-.03-.02-.04.02-.03h.1v-.09l-.06-.07-.07-.09v-.04l.06.02.08-.3-.04.03-.1.09h-.06l-.05-.04.02-.05.1-.02.03-.05-.04-.05-.11-.06-.1-.05.02-.03.17-.06.03-.07-.05-.13-.26-.15-.09-.04-.04.01-.05.1-.18-.14v-.08l-.03-.05h-.05l-.13.13v.1l-.07.01-.19-.02.02-.03.07.01.04-.03-.05-.1.02-.46.02-.09-.02-.05-.07-.13-.13.01-.1-.04-.02-.05-.1-.09-.05.01v.14h-.2l-.06-.04-.07-.02v-.06l.03-.1v-.05l.01-.03.11-.1h.03l.1.02.01-.03-.06-.05-.02-.04.08-.1.01-.04-.02-.05-.1-.06h-.06l-.03.05.01.07.05.07-.04.06-.08-.06-.06-.04h-.07l-.03-.13v-.1l-.1-.1v-.05l.02-.07-.02-.04-.12.01h-.06l-.02-.04v-.05l.07-.05.02-.07-.02-.03-.12-.08-.07-.04-.1-.03-.06-.08h-.14l-.08-.09-.02-.08.04-.24-.3-.17-.15-.47.32.08.04-.5-.1-.38.08-.14-.06-.13-.22-.1.18-.13-.36-.23-.11.21-.08-.34-.21.04.18-.17-.53-.22-.1-.15-.23.07-.23-.23-.09.2-.33-.1-.17.06.16-.06-.06-.02-.04-.1-.04-.01-.07.03-.19-.01.04-.08-.03-.03-.06-.02-.01-.05-.15-.14-.1.06-.07-.15-.07.02-.11-.07-.03.1-.1-.07-.13.02-.07-.06.1-.07.04-.12-.12-.14-.14.18V540l-.02.04-.09.08-.08-.12.09-.18-.07-.11-.14-.05-.18.05-.1.04-.17.07-.07.02h-.14l-.1-.05-.11-.06-.1-.06-.1-.07-.18-.04h-.18l-.15-.07-.07-.04h-.18l-.21-.03-.1-.02-.07.01-.08.04-.04-.01-.18-.1-.1-.03-.1-.04-.12-.04-.24-.18-.42-.2-.6-.41-.4-.65h.04l.24-.3.03-.3-.05-.06-.1-.04-.06-.04-.03-.1-.07-.1-.04-.06-.02-.07-.04-.04-.02-.03-.1-.04-.04-.06h-.14l-.02.05-.02.03.02.03.05.05.05.06.02.05v.07l-.03.05-.13.07-.13.02h-.08l-.13-.05h-.1l-.06.03h-.05l-.06-.02-.03-.06-.05-.14-.03-.07-.1-.05h-.05l-.15-.04-.1-.02h-.12l-.15-.14-.17-.11-.12-.02-.12-.05-.07-.08-.03-.01-.08-.05-.04-.1.3-.18-.27-.27.34-.02-.02-.42-.12.1-.28-.3-.28.08-.2-.15.05-.3.26.02.05-.28-.26-.12-.12.3-.2-.35h-.04l-.02.02-.02.03-.03.04-.01.07-.02.03-.03.04-.02.03-.01.02-.02.06v.03l-.02.05h-.02l-.01.02-.02-.02h-.02l-.02-.04-.02-.07h-.03l-.03-.04v-.02l-.03-.03.02-.03.03-.04.02-.03v-.06l-.03-.04-.02-.03-.05-.02-.06.04-.03.04-.04.03h-.1l.03-.03.02-.05.02-.04.02-.06-.02-.03h-.03l-.1.02v.01h-.02l-.12-.07v-.05l.05-.05-.07-.12-.02-.02-.07-.09h-.03l-.04.05.02.02v.02l.02.03.02.1-.03.07-.05.23-.1.06-.01-.02-.03-.03.02-.05.07-.04v-.13l-.07-.05-.08-.02-.13-.06-.03-.05.04-.15v-.09l.13-.05.04-.08-.05-.06h-.06l-.03.03-.04.15-.06.07-.14-.12-.38.12-.07-.12.08-.23-.4-.4.07-.12.35.08.1-.25v-.04l-.1-.02-.07-.06-.03-.07-.04-.16-.05-.08-.1-.2-.15-.1-.12-.07-.06-.05.02-.07.02-.04.04-.02.14.03.1.02.06-.04.06-.07.04-.08.04-.04v.04l.33.03-.04-.23-.23-.03-.31-.14-.04-.14.4-.3v-.2l-.06-.06-.15-.14-.19-.27-.07-.1-.23-.15-.6-.1-.12-.06-.57-.1-.16-.04-.1-.1-.1-.32-.14-.2-.04-.06-.2-.28-.18-.06-.1.07-.12-.21-.06-.04-.23-.06.06-.14-.08-.09-.34-.2-.1-.16-.3-.25h-.06l-.1.01-.14-.03-.34-.21-.11-.04-.4-.03-.23-.06-.33-.31h-.2l-.16.09-.1.16-.47-.03-.2-.08-.3-.32-.21-.02h-.22l-.66-.43-.24-.54-.03-.4-.31-.19-.13-.24-.3-.3-.16-.13-.23-.18-.12-.43-.24-.6-.06-.06-.23-.47-.26-.18-.65-.28-.23-.19-.38-.1-.12-.47-.37-.17-.05-.1-.12-.06-.6-.3-.07-.07-.18-.12-.1-.03-.32-.07-.32-.1-.35-.23-.68-.26-.35.15h-.1l-.14-.05-.22-.18-.11-.05-.12-.02-.11-.06-.12-.02-.04-.04-.3-.17-.92-.6-.25-.34-.3-.3-.33-.13-.24.03-.13.1h-.1l-.07.14-.3-.03-.07-.03-.26-.29-.24-.06-.15-.19-.1-.03h-.17l-.08-.07-.28-.12-.08-.09h-.24l-.06.04h-.28l-.13.08-.04.2-.18.03-.01-.17-.08-.1h-.08z" fill="#d1dbdd" stroke="rgb(209, 219, 221)" stroke-width="0.1" data-originalStrokeWidth="0.1" style="stroke: rgb(0, 0, 0); fill: rgb(209, 219, 221); pointer-events: auto; stroke-width: 0.1;" pointer-events="auto"/>
      <path id="GA14" d="M1062.27 495.07h-.01l-.34.08-1.08.17-1.2.2-.3.06-.33.06-.65.11-.66.1-.44.08h-.02l-.3.06-.65.1-.56.1-.62.12-.44.07-.21.02-.34.07-.22.03-.24.04-.46.1h-.1l-.37.06-1.2.23-.16.02-.28.07-.8.12-.15.02-.38.07-.18.03-.07.02-.42.07-.36.06-.16.03-.28.06-.18.03-.13.02-.35.05-.24.06-.18.03h-.07l-.14.02-.1.02-.13.01-.4.1h-.07l-.24.05-.17.03-.18.03h-.08l-.15.04-.02.02h-.04l-.14.02-.28.05-.28.06-.25.05-.16.02-.2.04-.08.03h-.02l-.32.04-.07.02h-.04l-.07.03-.5.1-.25.03h-.08l-.28.05-.32.07-.23.02-.7.12-.4.05-.26.05-.33.05-.13.02-.37.06-.88.12-1.16.17-.18.03h-.16l-.2.03-.02.03.26.36.24-.03.1.33.15.5.1.32.22.69.07.22.22.7.2.64.18.55v.01l.29.9.7 2.16.55 1.58.77 2.2.36 1.12.5 1.4.16.52.09.22.43 1.26.63 1.75.95 2.74.23.73.36 1.06.72 2.15.4 1.23.35 1 .09.33.41 1.28.7 2.13.04.06.99 3 1.81-.27 2.64-.4-.03-.22 2.25-.34 1-.16 1.26-.19.44 2.89.9.05h.22l.26.03.39.01 1.41.19.47.1.6.1.82-.17.37-.08-.02-.08.84-.18-.03-.08.81-.28.32-.07.33-.1.44-.08-.14-.88-.05-.09-.37-2.3-.03-.28.04-.03.3-.05h.1l.18-.04.86-.12.32.08.14.01.13-.02.41-.18.14-.1.42-.16.16-.21.19-.21-.03-.23.03-.1-.1-.06-.08.16-.12.07-.06.09-.05-.29-.07-.03-.06-.11-.03-.22-.4-.06-.23.02-.31-.07-.24-.04.11-.1.17-.2.1-.02-.03-.2-.18.02-.03-.13-.14-.16.01-.07.18-.11.12-.24v-.28l.27-.04-.03-.18.05-.32-.16-.13.09-.07-.11-.38-.08-.51v-.1l-.11-.12-.04-.3-.16.04-.33-.21-.04-.14-1.02.16-.36.06-1.2.18-.02-.1-3.5.6-.56.1.02.11-.33.06.02.1-.12.02-.03-.22-.4.06.02.14-.23.03-.02-.12-1.55.25-1.2.2-.03-.12-.25-1.72-.11-.77-.11-.66-.12-.82.53-.08-.18-1.03-.02-.15.21-.03-.03-.22-.22.03-.03-.24-.2-1.22-.1-.65-.1-.66.45-.08-.14-.78-.11-.63-.33.06-.09.05-.13-.07-.02-.18-.13-.03-1.4.24-.5-.05-.09-.16-.01-.14.13-.2.08-.07.2-.12-.18-.34-.03-.1-.21-.1.02-.12-.08-.13-.2-.2-.09-.1.55-.1-.23-1.35-.18-1.1.67-.13-.12-.62-.06-.38-.13.01-.06-.38.22-.03-.18-1.1.25-.05.03.2 3.15-.52v-.14l-.1-.15.06-.06.23-.12.04-.15.13-.03.09.57 1.13-.19.04.23 2.13-.36-.02-.13.3-.15.13.02.17.1h.2l.05-.06-.05-.35.02-.06.13-.04.36.02.23-.07.08.1.07.44-.22.04-.05-.24-.2.04.07.44.65-.11.05.24.6-.07.03.2.7-.12-.18-1.04-.03-.26-.16-.87-.2-1.06-.27-1.3.06-.1-.01-.08.05-.13v-.26l.1-.25.12-.05v-.29l-.04-.05.05-.1v-.1l-.09-.05-.1-.12.08-.1.12-.07.1-.1.13-.08v-.1l.1-.06.2-.05.04-.2.1-.1v-.22h.13l.05-.09-.03-.14.14-.1.03-.18.06-.04v-.1l-.22-.15-.07-.09.03-.07-.14-.08-.14.05-.12-.05-.24-.31-.29-.14-.1-.56-.56-3.7zm-20.01 1.64-.15.04-.13.68-.16.46.17-.46.13-.67zm-.8 1.54-.3.1.3-.09z" fill="#d1dbdd" stroke="rgb(209, 219, 221)" stroke-width="0.1" data-originalStrokeWidth="0.1" style="stroke: rgb(0, 0, 0); fill: rgb(209, 219, 221); pointer-events: auto; stroke-width: 0.1;" pointer-events="auto"/>
      <path id="GA06" fill="#d1dbdd" stroke="rgb(209, 219, 221)" stroke-width="0.1" d="m1064.94 533.4.32-.07.34-.1.44-.08-.15-.88-.04-.09-.37-2.3-.04-.28.04-.03.3-.05h.1l.18-.03.87-.13.32.08.14.01.12-.02.41-.18.15-.1.4-.16.17-.21.13.27.29-.1.26.11.12-.17.04.02.2-.03-.04-.25.02-.07.13-.22.13-.12.02.16.13-.02.27.18.15.14.2-.07.01.15.2.04.18-.07.06-.08-.04-.22.2-.05.12-.18-.02-.1.1-.02.09.04.06.1.13-.03.14-.2.07.12.07.25.18.07.16-.02.12.05.1-.08.24-.17.18-.27.13-.1.3-.06-.03-.18-.05-.07.09-.13.3-.04.13.03.05-.08.2.07.14-.02.33-.22.14-.12.12.06.2 1.2.06.3.1.62.2 1.15-.27.16-.03.1-.19.1-.16.05-.2.15-.2.06-.01-.1.05-.1-.11-.02-.06.08-.1.04-.1-.09-.12-.02.1.54-.16-.05-.04.14-.06.03-.08-.06-.07.07.21.22v.15l-.06.07-.3.03v.03l-.46-.18-.06.04-.01.1-.13.06.06.1-.03.11-.12-.1-.07.06v.24l-.17.07.03.16-.03.1-.18.08.05.06-.03.09.07.21-.18.14-.2.05-.1.06-.12.34h.07l.04.24.1-.01.03.2.15-.02.03.18-.12.02.05.1-.16.04.01.22.05.13v.16l-.07.08.02.38.02.1-.05.12v.21l-.12.18-.01.09.07.25.15-.03h.27l.19-.1.07.35.07.12.21.26.06-.05.24-.04-.03.08.03.2.15-.15-.04-.24.16.04.11.12.13-.01.04.25.19 1.14.04.22.05.36.09.47.49-.08.16.26.1.32.04.22.28.28.13.11.08.49.28-.05.36.2-.18.15-.12.16-.07.27-.1.31-.08.11-.17-.03-.1-.12-.21-.13-.15.05.1-.22-.15-.03-.15-.08h-.09l-.22-.07-.17-.12v.15l-.07.18.04.13-.32.04.05.18.06.4.06.22-.25.02-.12-.16-.01-.1.04-.2-.22-.3-.15-.16-.15-.29-.01-.09h-.13l-.11-.04v-.12l-.21.08-.07-.11-.1.03-.12-.01-.17-.12-.29-.1-.03-.05-.16-.03-.03-.11.06-.14-.06-.16-.92.47-.05.15-.06.08h-.1l-.06.12.02.14-.04.08-.3.02-.04-.23-.17.02-1.1.17-.05.03-.2.02-.79.14v.01l-.95.18h-.05l-2.59.42.03-.06.2-.09.17.03.19-.04.21-.2.07-.1-.02-.1-.22-.2-.1-.2-.1-.09-.13-.08-.02-.11.08-.14.01-.26.05-.12.13-.14.14-.1.05-.1v-.32l.02-.11.1-.13.09-.2.18-.15.17-.25.1-.13.3-.2.2-.46-.12.01-.2-.12-.08-.12-.07-.26.22-.3.1-.17-.11-.08-.14-.05-.11-.23.06-.13.05-.2.15.08.08-.03-.09-.1.03-.2-.16-.15-.15-.03.03-.12-.2-.08.23-.22.17-.03-.39-.18-.08.01.03-.2-.02-.18-.35.21-.05-.24-.08-.23v-.2l-.13-.18-.03-.26.1-.08.04-.16.01-.24-.05-.28z" data-originalStrokeWidth="0.1" style="stroke: rgb(0, 0, 0); fill: rgb(209, 219, 221); pointer-events: auto; stroke-width: 0.1;" pointer-events="auto"/>
      <path id="GA11" fill="#d1dbdd" stroke="rgb(209, 219, 221)" stroke-width="0.1" d="m1063.6 508.08.19 1.07.74-.14.37-.07.92-.16v-.04l1.33-.22-.01-.2.22-.04-.03-.21.23-.04.06.4.66-.1-.03-.2-.23.04-.04-.2.45-.1.08.43.74-.1.16-.04.06-.15-.02-.12.12-.01.03.25 1.12-.18.23-.03-.08-.45.66-.1.07.44.1.22 1 2.17 1.6-.26.44 2.69-2.99.53-.42.08.04.23-.22.04-.03-.23-.29.05-.02.14.2.1.07-.05.14.07-.1.12.14.16-.14.22-.06-.04-.03-.12-.15.15.07.23.14.24.14.13.09.16-.2-.13-.04.1.07.06-.2.17v.07l.06.08.08-.04.1.15v.1l.17.02.13.13.2.1-.04.06v.12l-.3-.04v.15h.2l.12.07v.1l-.1.05-.09.14.05.15-.04.08-.22.02-.2-.02-.17.03.05.16.12.07h.12l.09.05.05.12-.14.03.04.15.13.19h.14l.17.14-.06.2.07.21.09.16.06.17.1.13.2.17-.19.15-.14.18-.26.27-.2-.06-.1.04-.12.14-.12.02.08.11.12.1.11.15-.07.08.01.18-.04.1v.12l.25.02.12-.12.1-.05h.2l.05.26-.09.15-.03.19.01.27.03.07-.13.07-.05.08.13.16.04.17h.08l.07.07.23-.17.17.05h.23l.12.05.03.07-.03.1-.11.1-.01.08-.12.01-.19.1-.1-.06-.07.06.27 1.68.04.08.2.07.01.18.16.2.12.02-.02.1.07.04.08.19.07.25-.06.06.02.08.1.1.18.24.15.06-.05.06.1.07.08-.02.14.05.11.13.02.3-.05.13-.13.06.07.24-.18.3-.16.2-.09.16-.3.5-.25.24-.15.1-.04.16-.18.26.01.1.15.18-.1.07-.12-.05-.16.02-.19-.07-.07-.25-.06-.13-.14.21-.13.03-.07-.1-.07-.04-.1.02.01.1-.11.19-.2.04.03.22-.06.08-.18.07-.2-.04-.02-.15-.2.07-.15-.14-.26-.18-.13.02-.02-.16-.13.12-.14.22v.07l.04.25-.21.03-.04-.01-.12.17-.26-.12-.3.1-.12-.27.19-.2-.03-.24.03-.1-.1-.06-.08.17-.12.06-.06.09-.05-.29-.07-.03-.06-.11-.03-.22-.4-.06-.23.02-.31-.07-.24-.04.11-.1.17-.2.1-.02-.03-.2-.18.02-.03-.13-.14-.15.01-.08.18-.11.12-.23v-.29l.27-.04-.03-.18.05-.32-.16-.13.09-.06-.11-.4-.08-.5-.01-.1-.11-.12-.04-.3-.16.04-.34-.21-.03-.14-1.02.16-.36.06-1.21.18-.02-.09-3.5.59-.55.1.02.12-.33.06.01.1-.1.02-.04-.23-.4.07.02.14-.23.03-.02-.13-1.56.25-1.2.2-.02-.12-.25-1.72-.11-.76-.11-.67-.12-.81.53-.09-.18-1.02-.02-.16.21-.03-.03-.22-.22.03-.03-.24-.2-1.22-.1-.65-.1-.66.45-.08-.14-.78-.11-.63-.34.06-.08.05-.13-.07-.03-.17-.13-.04-1.4.24-.49-.05-.09-.16v-.13l.12-.21.08-.07.22-.11-.2-.34-.03-.1-.2-.11.02-.12-.08-.13-.2-.2-.09-.1.54-.1-.22-1.35-.18-1.1.67-.13-.12-.62-.07-.38-.13.01-.06-.38.22-.03-.18-1.1.26-.05.03.2 3.14-.51v-.15l-.09-.15.06-.06.23-.12.03-.15.13-.02.1.56 1.12-.19.04.23 2.14-.36-.02-.13.3-.15.13.02.16.1h.2l.06-.06-.05-.35.02-.06.12-.03.37.01.22-.07.08.1.07.44-.21.04-.05-.24-.2.04.07.44.65-.11.05.24.59-.07.04.2z" data-originalStrokeWidth="0.1" style="stroke: rgb(0, 0, 0); fill: rgb(209, 219, 221); pointer-events: auto; stroke-width: 0.1;" pointer-events="auto"/>
      <path id="GA05" fill="#d1dbdd" stroke="rgb(209, 219, 221)" stroke-width="0.1" d="m1075.14 528.57.28.02.2-.05.02.21.18-.18.07-.03.12.06.15-.04.07.44-.04.24-.04.16.04.2.07.1.07-.02.08-.1.04-.17.16-.24.06.04.14-.07.37-.05.27-.07.08.13.22.1.17-.02v.34l-.04.2.02.2.1.25v.09l.06.28-.1.06-.02.1.06.07.2-.01.04.2-.03.2.22.12-.1.1-.12.24.06.36.09.15-.01.08-.1.01v.1l-.13.09.18.07.06.1-.45.07.1.2-.42.06.06.06-.16.05-.1.1-.06.17.06.1-.08.1-.2.04.08.14.13.1v.2l-.1.35-.15.06-.23.04.05.22.28.02.07-.01.01.2.12.3.12.06-.22.19-.15.03-.1.3.68-.12-.05.08-.13-.03-.06.07-.22.07.18.15.06.2-.1.1.22.36.44.65-.06.08-.12-.04.04.25-.02.12.04.15-.03.1-.07.07-.2.05-.11-.02-.18.02.01.11.21.12-.04.12-.1.15-.07.05-.07.11-.06.03-.25.02-.38.05-.15-.03-.22.03-.31-.02.05.12.09.04.07.12.11.03.06.24-.12.14.05.15-.02.15.03.19-.22.11.03.2.14-.02.1.06-.14.17.08.14-.05.1-.1.08-.07.28-.36-.2-.27.05-.08-.49-.13-.1-.29-.29-.03-.21-.1-.33-.16-.26-.5.08-.08-.47-.05-.35-.05-.23-.19-1.13-.03-.26h-.13l-.11-.1-.16-.04.04.23-.15.16-.03-.2.02-.09-.23.04-.06.05-.22-.26-.06-.12-.07-.35-.19.11-.27-.01-.15.03-.08-.25.02-.09.11-.17.01-.22.05-.12-.02-.1-.02-.38.06-.08.01-.15-.05-.14v-.22l.14-.04-.05-.1.13-.02-.03-.18-.15.02-.03-.2-.1.01-.04-.24h-.07l.12-.34.1-.06.2-.05.18-.14-.07-.2.03-.1-.05-.05.18-.1.03-.1-.03-.15.17-.07v-.23l.07-.06.12.1.03-.13-.06-.09.13-.05.01-.1.06-.05.46.18v-.03l.3-.02.05-.08.01-.15-.21-.21.07-.07.08.05.06-.03.04-.14.15.05-.09-.54.12.02.1.1.1-.05.06-.08.11.01-.05.1v.1l.2-.05.2-.15.16-.05.18-.1.04-.1.26-.16-.2-1.15z" data-originalStrokeWidth="0.1" style="stroke: rgb(0, 0, 0); fill: rgb(209, 219, 221); pointer-events: auto; stroke-width: 0.1;" pointer-events="auto"/>
      <path id="GA04" fill="#d1dbdd" stroke="rgb(209, 219, 221)" stroke-width="0.1" d="m1075.14 528.57-.05-.29-.2-1.2-.18-1.04.03-.1.2-.18.33.06.13-.03.18.03.28.11.1.02.16-.03.25.05h.1l.18-.13.1-.17.17-.15-.1-.18.01-.12-.08-.18v-.13l.16.02.06-.03.08-.2-.02-.12.04-.09.25-.1.26-.16.18-.01.17-.05.26.12.08.13-.07.09.06.06.27-.1.11-.1.1-.14.03-.1-.03-.19.05-.46.06-.17.08-.12.15-.06.1-.1.12.03h.27l.52-.25.05.14.2-.03.1-.12.15.01.1-.07h.18l.02.07-.18.12.04.17.07.13.15.13.18.2.09.06h.24l-.16.4-.02.08.1.02.1.09.15.25.14.2.18.08.07.1-.49.02-.03.3h-.1l-.15.08.12.15.08.17-.07.1-.12-.03-.13.03-.2-.01v.15l.17.12.07.19.05.27-.1-.03-.14-.11-.12-.01-.05.07-.1.03h-.18l-.08.1-.2.03.07.11.14.1-.34.27-.16.05-.15.15-.04.17-.07-.05-.18-.04.15.17-.09.09-.03.13-.11.17-.12.1-.16.05-.23-.02v.07l-.13.11.06.12.2.02.09.09.3.02.07.03.14.12.38.12h.08l.14.14.12.05.04.09.13.1h.08l.13.04.1.09.06.12.13.1.23.24.24.25.24.1.03.04.17.04.2.19.12.06.36.34.15.06h.32l.2.16.16.05.09.05.1.13.2.01.18.07h.07l-.37.5-.33.46-.23.95-.09.43-.18.73-.31 1.3-.11.2-.1-.08-.12-.02-.02-.06-.12-.02-.05-.13-.25.06-.07-.11-.14-.07-.15-.02-.1-.16-.12.02-.02.21h-.23l-.09-.03.04-.17-.44.07-.02-.17-.12-.22-.11-.12-.1-.05-.16.07-.07-.02-.13.04.08.12-.11.01-.02-.08-.1.05-.35-.04-.15.08-.04-.1-.1-.07v-.13l-.08-.01.02-.11-.22-.04-.2.07v.17h.06l.01.2-.1.06-.16-.03-.05.2-.14.05-.04-.02-.1.07-.02-.12-.06-.03-.16.02-.05.08-.14.02-.1.07.01.05-.12-.06-.12-.3v-.2l-.08.01-.27-.02-.06-.22.24-.04.15-.06.09-.36v-.18l-.13-.1-.08-.15.2-.03.08-.12-.06-.1.06-.16.1-.1.16-.05-.06-.06.42-.07-.1-.2.45-.06-.06-.1-.18-.07.12-.09v-.1l.1-.01.02-.08-.08-.15-.07-.36.11-.25.1-.09-.2-.13.02-.19-.04-.2h-.2l-.05-.06v-.1l.12-.06-.08-.28.01-.09-.1-.25-.02-.2.04-.2v-.34l-.17.03-.22-.1-.08-.14-.27.07-.37.04-.14.08-.06-.04-.16.23-.04.18-.08.1-.07.03-.07-.12-.04-.19.05-.16.04-.24-.08-.44-.15.04-.12-.07-.07.04-.17.18-.04-.2-.2.04z" data-originalStrokeWidth="0.1" style="stroke: rgb(0, 0, 0); fill: rgb(209, 219, 221); pointer-events: auto; stroke-width: 0.1;" pointer-events="auto"/>
      <path id="GA13" fill="#d1dbdd" stroke="rgb(209, 219, 221)" stroke-width="0.1" d="m1081.18 541.3-.06.08-.37.19h-.15l-.12.03-.16.1-.13.13-.25.02-.33.13-.12.14-.82.15.05.26-.5.06-.03-.25-.78.14.38 2.25.05.35-.87.16-.02-.1-.19-.1.01-.24-.12-.17.22-.11v-.12l-.11-.07-.01-.13-.08-.02-.1-.22.1-.1.07-.13-.04-.28-.06-.06-.11.02-.05-.25-.23.04-.09-.51.25-.05-.04-.25.22-.03-.16-.16.04-.12.06-.03-.04-.13.06-.09v-.07l-.13-.08-.03-.19-.07-.13-.12-.05-.18-.18.07-.28.1-.09.05-.09-.08-.14.15-.17-.1-.06-.15.03-.03-.21.22-.12-.03-.18.02-.16-.05-.14.12-.15-.06-.24-.11-.02-.07-.12-.1-.04-.04-.12.31.02.22-.04.15.04.38-.05.25-.02.06-.03.07-.1.08-.06.09-.15.04-.12-.2-.12-.02-.11.18-.03.12.03.19-.05.07-.07.03-.1-.04-.15.02-.12-.04-.25.13.04.05-.08-.44-.65-.21-.36.09-.1-.06-.2-.18-.15.22-.07.06-.07.13.03.05-.08-.68.11.1-.3.15-.03.22-.18-.01-.05.1-.07.14-.02.05-.08.16-.02.06.02.01.13.11-.07.04.02.14-.05.05-.2.15.02.11-.05v-.21h-.07v-.16l.2-.07.22.04-.02.1.07.02.01.12.1.08.04.1.15-.08.34.03.11-.04.02.08.11-.01-.08-.12.13-.04.07.02.15-.07.1.05.12.11.12.23.02.17.44-.07-.04.17.1.04h.22l.02-.22.12-.02.1.16.15.02.14.06.07.12.25-.07.05.14.12.02.02.06.11.02.1.08.12-.2.31-1.3.18-.73.1-.43.22-.95.32-.47.38-.5h-.07l-.17-.06-.21-.01-.1-.13-.1-.06-.15-.04-.2-.16h-.32l-.15-.07-.36-.33-.12-.06-.2-.19-.17-.04-.03-.04-.24-.1-.24-.25-.23-.24-.13-.1-.06-.12-.1-.09-.13-.05h-.08l-.13-.1-.04-.08-.12-.05-.14-.15h-.08l-.38-.11-.14-.13-.07-.02-.3-.02-.1-.09-.2-.03-.05-.11.13-.12v-.06l.23.02.16-.05.12-.1.1-.17.04-.13.1-.1-.16-.16.18.04.07.05.04-.18.15-.15.16-.04.34-.28-.14-.1-.07-.1.2-.03.08-.1h.18l.1-.03.05-.08.12.01.14.12.1.03-.05-.27-.07-.2-.16-.11-.02-.15.2.01.13-.04.12.03.07-.1-.08-.16-.11-.16.14-.08h.1l.03-.3.5-.02.43-.02.24-.07.26-.16.36-.38.02.23.28.02.34.16.02.06.22.12.17.13.14.06.35.26.15.02.08-.03.04-.08.1.02.18-.13.18.22.19.06.12.01-.04-.16.06-.13-.02-.08-.12-.18-.03-.09.17.06.12-.02.04.03.2.26.2.1-.01.1.16.1.04.12.19.1.06.14.1-.03.18.08.17.11.13.04.18-.02.04-.05.21.07-1.24 1.73-1.35 1.8-.35.49 1.95 1 .02.15-.05.07.07.18-.04.13.1.32.12.12-.09.15-.15-.06-.05.03.01.13.05.07.07.18.09.18.07.06-.04.14-.05.02-.02.13.04.05.03.17-.02.3-.06.15v.32l.03.11.18.15v.15l.06.1.08-.23.12-.11.18.35.22.07v-.17l-.2-.23.09-.1v-.18l.07-.1.15-.09.02-.16.11-.05.01.33.04.29.05.11.1.02.02.1.1.02.11-.02-.02-.1.22-.04-.02-.1.07-.07.15-.03-.01-.32.06-.02.06-.18.26.03.16.12.03.08.08.48.09.1.17.05.04.04.07.2-.02.08.5-.02.09.17-.06.08-.1.04v.17l.14.08v.1l-.2.34.02.1-.08.22.04.06.04.21-.02.18-.1.03-.06.08.02.13-.19-.17-.11.14-.14.05.1.17v.15l-.08.18-.02.27-.21.05-.28-.2-.08-.09-.1.14.03.13-.03.1-.13.04-.14.32-.55-.2h-.51l-.59.05-.02-.14.03-.15-.06-.05-.03-.14-.21.05-.36.03-.1.04-.3.04-.17.1-.12.16-.14.1-.27.05-.08.06-.06-.04-.2.02-.22.45-.09-.1-.15.15h-.09l-.01-.1.13-.05-.04-.16.05-.1-.11-.1-.18.1-.12-.11-.07-.12-.11.08-.07-.02-.07-.1-.06.03-.15-.12-.24.03-.18-.1v.2l.1.66-.05.08-.1.2-.03-.13-.07-.05-.03-.1-.25.06-.2.01-.19.1h-.1v.21l.08.21.04.26-.1.39.07.25-.83.15.06.06-.2.2-.1.04-.18.03-.57.13.08.2.3.54z" data-originalStrokeWidth="0.1" style="stroke: rgb(0, 0, 0); fill: rgb(209, 219, 221); pointer-events: auto; stroke-width: 0.1;" pointer-events="auto"/>
      <path id="GA07" fill="#d1dbdd" stroke="rgb(209, 219, 221)" stroke-width="0.1" d="m1071.53 507.36-.04-.1.1-.06.02-.08.18-.08-.03-.11-.1-.11.1-.05.08-.14.23.01.07.08.17.02.1-.13.27.14.09.14.19.03.22-.07-.02-.1.09-.02.14.05.13-.02.27.02-.15-.9.78-.13-.01-.07.12-.06.06-.3.14-.16h.09l.1-.08.08-.1.24.27v.1l.05.06.25-.74.27-.81.1-.1.08-.01.05.11h.07l.18-.24.02-.1-.06-.11.2-.16.1-.04.18.08.03.06.52.09.3-.05.17-.05.03-.12h.19l.04.08.2.1.23.16.08-.05.07.07.1.01.07-.07.16-.02-.08-.32.16-.02.04-.15-.05-.13.06-.08-.04-.13.05-.12h.15l.05-.1.18-.04.18-.18.15-.04-.05-.12v-.13l.04-.1.02-.17-.05-.04.12-.16-.08-.26.04-.18.05-.07.13-.04.1-.1v-.14l.12-.03.06-.15.23-.16v-.06l.13-.17.19-.13.1.08.28.05.08-.1.1.07.2-.03.12.08.15-.05.1.05.11.11.18-.06.23.07.17-.16.18.01.19.1-.03.17.01.29.07.09-.09.14.07.1-.07.22.04.06-.2.21v.32l.12.12.02.12-.08.04-.02.13.13.1-.01.3.12.2-.1.13.08.17-.08.06.1.15-.02.12.1.04.01.1.21-.03.19 1 .17 1.02.27-.05.06.28.25-.04.05.28.28-.05.04.28-.08.01-.05.17.06.1-.14.02.1.57-.67.75-.09.08-.2.25.04.28-.56.1-.05-.29-.56.1.05.27.28-.04.05.28-.27.05-.08.08.36.38.48.34.13.17.15.1.11.14.06.15.17.09h.2l.16.15.06.13v.23l.06.11.1.1-.16.18.03.24-.26.17-.15.04-.03.18.02.3-.1.04-.01.17.05.04h.2l.23.14.15.04.1.08-.04.16.14.4-.1.09.12.01.2.1.2-.01v.11l.06.2-.04.11-.14.03-.12.1.37.1.1.01-.18.18-.01.2-.06.1.02.09-.1.02-.18.11-.17.03-.01.25.06.27-.01.05-.23.4-.03.07-.15.82.25.06.08.05.2.04.12-.06.12-.15.14.07.2.03.12-.1.31-.04.14.19v.08l-.08.23.03.2-.08.26.06.23-.02.13-.07.13-.1.06-.14.02-.1.09.2.57.06.08-.18.13-.17-.04-.1.17-.02.14-.08.1-.86-.2-.36-.09-1.64-.39-1.54-.36-.27.18-.01.17-.08.1-.11.24-.01.09.05.09-.1.27-.08.13.05.1v.12l-.08.06.01.11-.08.1.01.14.06.19-.02.08-.15.2.03.19-.06.2.06.32-.06.18v.16l.19.07.1.16.07.07.17.02.07.06-.07.13-.15.1-.1.11-.08.19-.11.09-.52.24-.27.01-.12-.02-.1.1-.16.05-.08.12-.05.17-.06.46.04.2-.03.09-.1.14-.11.1-.27.1-.06-.06.07-.09-.09-.13-.25-.12-.18.05h-.18l-.25.18-.25.1-.05.08.02.13-.08.2-.06.02-.15-.02v.13l.08.18-.02.12.1.18-.16.15-.1.17-.19.13h-.1l-.25-.05-.16.03-.1-.02-.28-.1-.18-.04-.13.03-.33-.06-.2.19-.02.1.18 1.03-.13-.06-.14.12-.33.22-.14.02-.2-.07-.04.08-.14-.03-.3.04-.09.13.05.06.03.2-.3.06-.12.1-.19.26-.24.17-.14-.17v-.1l.17-.26.05-.17.14-.1.25-.23.31-.5.09-.17.16-.19.18-.3-.07-.24.13-.06.04-.13-.01-.3-.11-.13-.15-.05-.07.02-.1-.07.04-.06-.15-.06-.17-.25-.1-.09-.02-.08.06-.06-.08-.26-.08-.18-.07-.05.03-.1h-.13l-.16-.22v-.17l-.2-.07-.05-.08-.27-1.68.08-.06.1.06.18-.1.12-.01.02-.08.1-.1.04-.1-.04-.07-.12-.05h-.23l-.17-.05-.23.17-.07-.06-.08-.01-.03-.18-.13-.15.05-.08.12-.07-.02-.07-.02-.27.04-.2.08-.14-.05-.27-.2.01-.1.05-.12.12-.25-.02v-.12l.04-.1v-.19l.06-.07-.1-.14-.13-.1-.07-.12.12-.02.12-.15.1-.03.2.06.25-.27.15-.18.19-.15-.2-.17-.1-.13-.07-.17-.09-.16-.07-.2.06-.21-.17-.14h-.14l-.13-.19-.04-.15.15-.03-.06-.12-.09-.05h-.11l-.13-.07-.04-.16.16-.03.2.02.22-.02.05-.08-.06-.15.1-.14.1-.05-.01-.1-.13-.06-.19-.01v-.15l.28.04.01-.12.05-.05-.21-.12-.13-.12-.17-.02v-.1l-.09-.15-.08.04-.07-.08.01-.07.2-.18-.06-.05.03-.1.2.13-.08-.16-.15-.13-.14-.24-.07-.23.15-.15.03.12.07.04.13-.22-.14-.16.1-.12-.14-.07-.06.04-.2-.1.01-.13.29-.05.04.23.21-.04-.03-.23.41-.08 3-.53-.46-2.7-1.59.27-1-2.17-.1-.22z" data-originalStrokeWidth="0.1" style="stroke: rgb(0, 0, 0); fill: rgb(209, 219, 221); pointer-events: auto; stroke-width: 0.1;" pointer-events="auto"/>
      <path id="GA09" d="m1100.06 487.87-1.11.26-.3.06-.43.09-.53.12-.76.15-.92.22-.43.1-.46.1-.5.1h-.06l-.27.06-.1.03h-.04l-.04.01-.2.03-.4.1h-.07l-1.39.29-.22.05-1.34.27-1.44.3-.75.13-.6.1-.24.05.04.16-1.55.28-.66.12-.37.05-.81.13-.14.03-.98.2-.21.03h-.01l-.25.06-.36.06-1.07.2-1.2.21-.41.06-.63.13-.23.03-.35.06-.75.14-.47.09-.7.12-.1.02-.2.02-.15.05h-.1l-.31.06-.22.03h-.03l-.06.02-.92.16-.4.08-.5.07-.4.07-.47.09-.45.07-.31.03-.4.07-.2.05-.43.06-.68.11-.1.03-.12.02v-.03l-.05.09-.04-.05-.17.04-.14.02-.71.13h-.1l-.01.03h-.08l-.23.05-.18.04h-.1l-.5.1-.62.1-.63.1-.6.12-.4.06-1.3.22-.34.06-.74.13-.54.1-.02.07.6 3.7.09.56.29.14.24.31.11.05.15-.06.13.09-.02.07.06.1.23.14v.1l-.07.04-.02.18-.14.1.02.14-.04.08h-.14v.23l-.1.1-.03.2-.2.05-.1.07v.09l-.13.07-.1.1-.12.07-.08.1.1.13.09.05v.1l-.05.1.03.05v.29l-.1.05-.1.24-.02.27-.05.13.01.08-.06.1.26 1.3.21 1.06.16.87.03.26.18 1.04.18 1.07.75-.14.36-.07.93-.16v-.04l1.32-.22-.01-.2.22-.04-.03-.22.23-.03.06.4.66-.1-.03-.2-.23.04-.04-.2.45-.1.08.43.74-.11.16-.03.06-.15-.01-.12.1-.01.05.25 1.12-.18.23-.03-.09-.45.66-.11-.04-.1.1-.06.03-.08.17-.08-.03-.11-.09-.12.1-.04.08-.14.22.01.07.08.17.02.1-.13.28.14.08.14.19.02.22-.06-.02-.1.09-.03.14.06.13-.02.27.02-.15-.9.78-.13-.01-.08.12-.05.06-.3.14-.16h.09l.11-.08.06-.1.25.27v.1l.04.06.26-.74.27-.81.1-.11h.08l.06.1h.07l.17-.23.02-.1-.06-.11.2-.16.11-.04.17.08.04.06.51.09.3-.05.17-.05.04-.12h.18l.04.08.2.1.24.16.08-.05.06.07.1.01.07-.07.16-.02-.07-.32.15-.02.04-.15-.05-.13.06-.08-.03-.13.05-.12h.14l.05-.1.18-.04.18-.18.15-.04-.05-.12v-.12l.05-.1v-.18l-.04-.05.12-.16-.07-.25.03-.18.05-.07.13-.04.1-.1v-.14l.13-.03.06-.15.22-.16.01-.06.12-.17.2-.13.1.08.27.05.08-.1.1.07.21-.03.11.08.15-.05.1.05.12.11.18-.06.23.07.16-.16.18.01.2.1-.04.17.02.29.06.08-.08.14.07.11-.08.22.04.06-.2.21v.32l.13.12.01.12-.07.04-.02.13.13.1-.02.3.13.2-.1.13.08.18-.08.05.1.15-.03.12.1.04.02.1.21-.04.19 1 .17 1.03.27-.05.06.28.25-.04.05.28.27-.05.05.28-.08.01-.05.17.06.1-.14.02.1.57-.67.75-.09.08-.2.25.04.28-.56.1-.05-.29-.56.1.05.27.28-.04.05.28-.27.05-.08.08.36.38.48.34.13.17.15.1.12.14.05.15.17.09h.2l.16.15.06.13v.23l.06.1.1.11-.16.18.03.24-.25.17-.16.04-.03.18.02.3-.1.04-.01.17.05.04h.2l.23.14.15.04.1.08-.04.16.14.4-.1.09.12.01.21.1.2-.01-.02.11.07.2-.04.11-.14.03-.11.1.36.1.1.01-.18.18-.02.2-.05.1.02.09-.1.02-.18.11-.17.03-.01.25.06.27-.01.05-.23.4-.03.07-.15.82.25.06.08.05.2.04.12-.06.12-.15.14.07.2.03.12-.1.31-.04.14.19v.08l-.08.23.02.2-.07.26.06.23-.02.13-.07.13-.1.06-.14.02-.1.09.2.57.05.08-.17.13-.17-.04-.1.17-.02.14-.07.1-.87-.2-.36-.09-1.64-.39-1.54-.36-.27.18-.01.17-.08.1-.1.24-.02.09.05.09-.1.27-.08.13.05.1v.12l-.07.06v.11l-.07.1v.14l.06.19-.02.08-.15.2.03.19-.06.2.06.32-.06.18v.16l.2.07.08.16.08.07.17.02.07.06-.07.13-.15.09-.1.12-.08.19-.11.09.05.14.2-.03.1-.12.14.01.1-.07h.19l.02.07-.18.12.04.17.07.13.14.13.19.2.08.07h.25l-.17.4-.02.07.11.02.1.09.14.25.15.2.18.08.07.1.43-.03.24-.07.26-.16.36-.37.03.22.27.02.34.17.02.06.22.1.18.14.14.06.34.26.16.02.08-.03.03-.08.11.02.17-.13.19.22.18.06.13.01-.04-.16.06-.13-.02-.08-.12-.17-.03-.1.17.06.12-.02.05-.11-.13-.01-.03-.1.05-.1v-.1l-.1-.2.04-.13-.29.15-.13.01.06-.15-.09-.09-.04-.12-.18-.06-.17.05-.02-.06.28-.17.16-.25.08-.05-.02-.08.2-.14-.05-.1-.06-.04-.17-.25.1-.08.04-.1.08-.02.2.1.12-.01.06-.2.17.08.11-.02.1-.08.2-.06.1.05.56-3.77.06.15.13.06-.01.09.05.13.35.25.22.05.1.21v.18l.14.09.25.1.12.14.12.04.09.18.11.03.1-.07.21.04.15-.07.1-.15.06.08.14-.03-.02.09.09.11.1-.04.09-.1.06.02.05.1.01.11.07.06.06-.1.1.04-.03.14.1.12.17-.05.04-.08-.02-.13.2-.04.1.02.12-.08v.16l.05.04.14-.04-.03-.12.08-.08h.1l.1.12.15-.05-.03-.07.14-.08.11.17.2.01v-.13l.22.01.07.07.14-.04.14.01.08-.07.19-.04.08.07.03.1.08.08.1-.04.14.09.05-.05.19-.06.15-.1.2-.04.18.24.19-.05.47.83.06.16.5.93.87-.85-.09-.07-.07-.16.16-.1.1.01.23.09.26-.18.24-.2.94-.66.88-.58-.25-.1.2-.15.07.1.08-.04.06.1.07-.06.34-.3-.74-.18.01-.14.05-.04-.03-.17.04-.05-.05-.14.13-.07.03-.1-.02-.08-.18-.11.16-.15-.04-.25.05-.08.06-.23-.03-.07.08-.2-.01-.08.13-.23-.13-.6-.17-.42-.06-.27-.09-.16-.43-.16-.22-.3-.23-.06-.05-.1-.15-.18-.09-.06.04-.1.24-.17.18-.08.24-.06.05-.1.12-.1.01-.15.12-.08-.03-.13.08-.07v-.14l.06-.23.16-.2-.06-.16.06-.12-.03-.1.04-.24-.06-.15-.79-.72-.16-.16-.77-.74-.1-1.46-.04-.27v-.3l.04-.5-.03-.2-.1-.3-.07-.25-.16-.2-.14-.28-.27-.42-.02-.04.29-.18.28-.2.65-.16.72-.16.3-.08.55-.13.47-.1.7-.18 1.52-.35.53-.79.11-.15.89-1.26-.07-.14.06-.02-.02-.06-.46-.38-.17-.08-.1-.17-.15.1-.2-.05-.01-.19-.12-.13-.44-.1.08-.28-.38-.06-.1-.23.25-.2-.25-.07h-.1l-.32.1-.15.09-.46-.12-.2.03-.4.07-.33-.17.04-.2-.24-.2-.17-.12-.48-.07-.37-.2-.15-.04-.1-.05-.14-.16-.1-.06-.01-.03-.02-.09-.02-.02-.09-.07-.06-.01-.08.02-.08.05h-.07l-.03-.04-.07-.15-.27-.1h-.07l-.18.07-.05-.02-.05-.03-.02-.01.08-.2-.1-.13-.34-.1.15-.23-.14-.15-.03-.1-.08-.18-.06-.29.06-.27.22-.1.24-.55v-.05l.04-.03.14-.06v-.05h-.05l-.09-.04.04-.05.04-.07v-.02h-.07l-.03-.02.05-.1.02-.07-.03-.1-.1-.08.04-.05-.12-.26v-.08l.07-.03-.02-.1.07-.04.03-.02.06-.07-.04-.08.09-.06.12-.07.07-.01.04-.07v-.07l.01-.06v-.04l-.05-.05-.07.02-.1-.09v-.03l.01-.03.02-.02v-.04l.04-.03v-.02h.07l.03.03v.08l.02.02h.03l.02.01.04.02h.01l.02-.02v-.02l-.02-.05v-.01l.01-.02.04-.02.05-.04v-.04l-.05-.1v-.04l.04-.05.06.02.01.02h.04l.03.02.04.02v.03l.17.09h.06l.02-.04.03-.02.04-.03v-.16l.03-.11v-.14l-.05-.04-.08-.04v.02l-.04-.04.02-.06.02-.07v-.24l.01-.07.04-.03h.1l.02.02h.02v.07l.12.03.08-.02.07-.02.05-.05-.02-.02h-.1l-.04-.04v-.07l.01-.05-.02-.06-.01-.05v-.02h.14l.04-.01V493l-.05-.03-.02-.03.02-.07-.03-.03-.02-.12.03-.07.12.06.1-.14-.21-.22.33-.13h.05l.07-.03h.13l.03-.01-.04-.08.06-.03v-.1l.01-.1.05-.02.02.03-.02.03v.09l.04.03h.05l.05.08.1-.03.06-.12.03-.04v-.02l-.07-.07-.02-.04-.03-.03v-.04l.01-.07.03-.02h.07l.02.04.03.04h.02l.02-.03-.04-.06v-.04l.03-.1.02-.07.1.07.04-.02.08-.08.05-.1.05-.1-.04-.1v-.02l.02-.04.08-.02h.05l.02-.07v-.01l.02-.04.03-.01.01-.1.02-.1h.03l.06-.01.04.02.1.09h.07l.02-.03v-.03l-.05-.1v-.09l-.06-.09v-.05l-.02-.02v-.04l.04-.05.06-.02.05.03.05.02.07.03.08.01.05.05h.07l.03-.06.08-.07.02-.04.04-.05h.05l.02-.07-.07-.09v-.03l.05-.06.07-.05.15.15h.06l.02-.07v-.04l.05.01h.06l.02.02.03-.02v-.03l-.1-.09-.04-.06-.03-.04h-.05l-.05.05-.03-.03-.05-.06-.05-.06-.05-.04-.03-.05h.05l.02-.05-.07-.03v-.05l.04-.01.12.02h.03l.06.02v.02l.08.04v-.04l-.04-.06h-.02l-.12-.11-.02-.05h.07l.04-.02v-.03l-.1-.04-.06-.02-.03-.05.02-.13.09-.16v-.03l-.03-.04.01-.02h.07l.05-.03v-.03l-.05-.08.16-.22.03-.1.08-.12-.16-.12-.19.06z" fill="#d1dbdd" stroke="rgb(209, 219, 221)" stroke-width="0.1" data-originalStrokeWidth="0.1" style="stroke: rgb(0, 0, 0); fill: rgb(209, 219, 221); pointer-events: auto; stroke-width: 0.1;" pointer-events="auto"/>
      <path id="GA10" d="m1103.55 502.41-.18.1-.1.06-.17-.01-.04-.11-.89 1.26-.11.15-.53.79-1.52.35-.7.18-.47.1-.55.13-.3.08-.73.15-.64.16-.28.2-.29.2.01.03.28.42.14.28.16.2.06.25.1.29.03.21-.04.5v.3l.04.27.1 1.46.78.73.16.17.79.72.06.15-.03.24.02.1-.06.12.06.16-.17.2-.04.23-.01.14-.08.07.03.13-.12.08v.14l-.13.1-.05.11-.24.06-.19.08-.23.16-.04.1.09.07.15.18.05.1.23.05.22.31.43.15.1.17.05.27.17.42.13.6-.13.23.01.08-.07.2.02.07-.06.23-.05.08.04.25-.16.14.18.12.02.08-.03.1-.13.07.05.14-.04.04.03.18-.05.04-.01.14.74.17-.34.31-.07.05-.05-.1-.1.04-.06-.1-.2.16.25.1-.88.57-.94.67-.24.2-.26.18-.23-.1h-.1l-.16.1.07.16.1.07-.88.85-.5-.93-.06-.16-.47-.83-.2.05-.17-.25-.2.05-.15.1-.19.06-.05.05-.14-.09-.1.04-.08-.07-.03-.11-.08-.07-.19.04-.08.07h-.14l-.13.02-.08-.06-.22-.01v.13l-.2-.01-.1-.17-.15.07.03.08-.15.05-.1-.12h-.1l-.08.08.03.12-.13.04-.06-.04v-.16l-.12.08-.1-.02-.2.04.02.13-.04.08-.17.04-.1-.1.03-.16-.1-.02-.06.08-.06-.05-.01-.11-.06-.1-.06-.02-.09.1-.1.04-.08-.11.01-.09-.13.03-.07-.08-.1.15-.14.06-.22-.03-.09.07-.12-.03-.08-.18-.12-.04-.13-.14-.24-.1-.15-.09v-.18l-.1-.21-.21-.05-.35-.25-.06-.13.01-.1-.12-.05-.06-.15-.57 3.77-.09-.05-.2.06-.1.08-.11.02-.17-.09-.06.2-.13.03-.2-.11-.07.03-.04.09-.1.08.17.25.06.03.04.11-.2.14.02.08-.08.05-.15.25-.28.17.02.06.17-.05.18.06.04.12.09.09-.07.15h.14l.28-.16-.03.13.1.2v.1l-.06.1.03.1h.13v.12l.03.03.2.26.2.1v.1l.15.1.05.12.18.1.06.13.1-.02.18.08.17.11.13.04.18-.02.05-.05.2.07-1.23 1.73-1.36 1.8-.35.49 1.95 1 .02.15-.05.07.07.18-.03.13.1.32.1.12-.08.15-.15-.06-.05.03.01.13.06.07.06.18.09.17.07.07-.03.13-.06.03-.02.13.04.05.04.17-.02.3-.06.15v.32l.02.11.18.15v.15l.07.1.07-.23.13-.11.18.35.21.07v-.17l-.19-.23.08-.1.01-.18.07-.1.14-.09.02-.16.11-.05.01.33.05.29.04.1.1.03.02.09.1.03.12-.02-.02-.1.2-.04V534l.06-.06.15-.03v-.32l.06-.03.06-.17.25.03.16.12.03.08.09.48.08.1.17.05.05.04.06.2-.01.08.5-.02.08.16-.06.1-.1.03v.17l.14.08v.1l-.2.34.03.1-.09.22.05.06.03.21-.02.18-.1.03-.06.08.02.13-.19-.17-.1.14-.15.05.1.17v.15l-.08.18-.02.27-.21.05-.28-.2-.08-.09-.1.14.03.13-.03.1-.13.04-.14.32-.55-.2h-.51l-.58.05-.03-.14.03-.15-.06-.05-.02-.14-.22.05-.35.03-.1.04-.3.04-.18.1-.11.16-.14.1-.27.05-.09.06-.06-.04-.19.02-.22.45-.1-.1-.14.15h-.1v-.1l.12-.05-.04-.16.06-.1-.12-.1-.17.1-.12-.11-.08-.13-.11.09-.07-.02-.07-.1-.06.03-.15-.12-.24.03-.18-.1v.2l.1.66-.05.08-.1.2-.03-.14-.07-.04-.03-.1-.25.06h-.2l-.19.1h-.1v.22l.08.21.04.26-.1.39.07.25-.83.15.07.06-.21.2-.1.04-.18.03-.57.13.08.2.3.54.14.14.51.53.19.13-.07.13-.26.37-.31.2-.12.13.07.1.07.29-.09.5-.22.1-.29.04-.16.2.06.4-.02.19.07.01.07.5.4-.07 1.4-.26.69-.1.11.7.11-.13.18.08.05.12.11.02.02.11.19.03.1.05.12-.1.16.12.09-.06.02-.07.16.05.19.18.12.05.06.1.06.02-.68 1.17.02.12.12-.01.02.13-.13.02.04.26.17 1.04 2.12-.37.62-.11 1.41-.24.74-.13.74-.12.72-.16.23-.02.07.04.17-.04.17.1.03.04.24-.1.09.04.01.07.25.22.28.09-.04.15.05.14.03.27.06.13.29.26-.06.12.01.1.09.3 1.61-.61 1.34-.5 1.82-.7 1.95-.7.52-.18.65-.24 1.5-.52.1.06.08-.02.08-.08.08.07h.09l.09.1.24-.08.09-.2.08.08.14-.02.25-.14.04.13.12.04.08.08.14-.03.05.12.12-.05.16.1.04-.06-.08-.2v-.1l.16.04.12-.03.2.2h.1l.07-.07.24.1.09-.11-.08-.07.03-.07.16.04.12.1.05-.14-.02-.11-.1-.08.14-.09h.24l.08-.17.11-.15.1-.05h.24l.07.04.24-.03.15-.1h.15l.56.05h.55l.57.02 1.28.14.88.08.49.07.09.13.03.19-.04.07v.2l-.1.1h-.12l-.06.13.12.23-.04.2-.05.04.01.3.07.15-.02.16-.06.21.05.2.3.23.03.1.15.22-.02.13.1.08.06.1.18-.19.19-.32.3-.1.2-.3.04-.1.16-.18.3-.06.17-.06.32-.01.33-.09.14-.12.26-.27.1-.3.1-.15.23-.23.28.02.23-.06.23-.22.34-.17.02-.06.23-.32.33-.12.26-.38-.02-.04.1-.42.07-.06.15-.81v-.1l.1-.21.08-.07.05-.24.15-.13.14-.07.26-.09.07-.1.04-.2.16-.2.14-.07.13-.13.2-.08.09-.18.11-.11.06-.12.18-.2.27-.01.09-.06.4-.08-.04-.21.01-.09-.12-.03-.05-.08-.17-.05-.11.05-.07-.15-.23.01-.07-.13-.12-.06-.1-.08-.1-.2.08-.14-.07-.2.02-.08-.08-.27-.05-.03.02-.15-.08-.14-.12-.01-.1.05-.11-.15-.04-.12.13-.05.02-.08-.18-.04-.13-.2.02-.08-.1-.42-.07-.1.05-.18-.1-.07.02-.1-.1-.08-.15.03-.09.05-.14-.24-.15-.05.08-.09-.05-.06.01-.17-.05-.1-.09-.06-.11.01v-.16l-.1-.06.12-.07-.07-.13.04-.1-.03-.1-.1-.07-.03-.18.06-.1-.08-.2-.24-.04-.08-.11-.08.12h-.05l-.15-.1-.12-.18-.12-.05-.15-.31-.12-.02v-.1l-.11-.15-.09-.05.2-.19.1-.18.07-.09.05-.14.16-.22-.02-.09.03-.2.27-.2.03-.07-.04-.3-.03-.05.07-.13.1-.08.77.18.13-.09.26-.04.14-.1.15.06.1-.03.15.04.1-.07.01-.14.06-.08-.03-.08.04-.26.14-.06.13-.17.04-.13.08-.04-.04-.17v-.28h-.08v-.19l.23-.28-.03-.16.11-.24.04-.18-.08-.1.1-.16.15-.03.15.03.04-.13.1-.14-.05-.08-.15-.09-.08-.2-.02-.15-.1-.05-.08.04-.1-.03-.2.07v.2l-.05.01-.13.17-.04-.2-.08-.04-.1.1-.13-.02-.16.08-.08-.05-.16.13-.1-.17-.1-.03-.13.03-.15-.1-.16-.05-1.1-.5-.25-.23-.07.1-.12-.03-.06.03-.01.1-.07.07-.14-.02-.14.12-.24.32h-.5l-.16.24.08.15-.12.16.17.09-.06.1-.2-.11-.1-.17-.1-.05-1.5-2.03-.2-.28.08-.04.06-.17.06-.1.2-.02.22-.14.22-.03.11-.14.05-.19.28.26.04.07.24-.05.23-.16-.08-.08-.1-.23v-.07l.07-.1v-.12l.2-.12.05-.08.13-.04.1-.16.2-.1h.06l.14-.07v-.2l.14-.1.1-.17.06-.17-.34-.16.13-.4.06-.1-.05-.34.02-.11-.06-.36-.05-.17.07-.06.09-.17.21.25.13.19.01.13.08.13.09-.09.2-.03.06-.05.1-.2.06-.17.18-.3.1-.07h.13l.04-.1-.01-.17.05-.2v-.2l.17-.05.12-.13.06-.26-.02-.16-.04-.1-.1-.1-.2-.07-.11.02-.08-.27-.06-.25-.29-.5-.2-.32-.31-.27-.07-.08-.1-.24-.03-.16.01-.29-.16-.33.14-.05h.18l.12-.02.08-.15.15-.13.2-.07.1-.11.28-.1.46.02.54-.22.28-.07.2-.19.13-.04.26.16h.09l.07.1.01.18.19-.04.04-.2.13-.08h.28l.05-.04h.25l.08.1.27.11.08.07h.18l.1.03.14.19.26.06-.03-.06-.07-.22-.11-.15-.15-.08.2-.05-.3-.22-.04-.23.1-.13-.3-.14-.26-.37-.1-.16-.05-.18-.06-.3-.34-.17-.68-.7-.36-.07-.16-.22v-.14l.05-.03.03-.2-.23-.3-.35-.14-.24-.22-.08-.2-.24-.29-.44-.2-.38-.02-.4-.23-.2-.38-.25-.3-.08-.16-.1-.42-.33-.46-.03-.11-.1-.33.01-.17-.05-.16-.09-.4-.03-.12-.42-.7-.53-.3-.14-.11-.39-.53-.3-.82-.15-.08-.44-.27-.01-.04-.06.02-.26-.17-.1-.02-.18-.08-.03-.07-.16-.53-.12-.15-.02-.03-.03-.2-.15-.27-.1-.18-.04-.16v-.06l-.1-.17-.11-.07-.12-.4-.33-.5-.2-.03-.28-.2v-.08l-.23-.25-.4-.1-.23.08-.35.19-.14-.1-.34.06-.25.25h-.08l-.14-.12-.27.2-.14-.08-.16.1-.17.1-.03.11-.08.1-.5-.08-.29-.12-.17.04-.42-.24-.1-.05-.11-.23h-.1l-.15.1-.32-.13-.1-.18-.2-.02v-.08l.16-.22z" fill="#d1dbdd" stroke="rgb(209, 219, 221)" stroke-width="0.1" data-originalStrokeWidth="0.1" style="stroke: rgb(0, 0, 0); fill: rgb(209, 219, 221); pointer-events: auto; stroke-width: 0.1;" pointer-events="auto"/>
      <path id="GA01" d="m1165.48 559.45-.03.01.01.16-.07-.02v.06l-.58.62-.2.24-.48.38-.44.34-.15-.17-.18-.1-.33-.05-.8.07-.1-.03-.1-.12-.12.03-.1.07-.08-.11-.1.01-.14.17.12.06.1.13-.25.18v.12l-.05.07.1.3-.16.1-.05.08-.33-.1-.09-.06h-.1l-.2.06-.1-.02-.27.2.14.29.18.82-.2.04h-.25l-.45-.2.01-.07-.7.44-.02.22.13.01.04.12-.01.1.05.12h.1l.18.16-.04.14.1.05.1.17-.07.16.13.12-.04.08.13.06-.09.06.04.09-1.55.87-1.53.88-1.49.85-3.81 1.97v.16l.17.17-.03.06.1.21.14.01.12.1.07.16.13.04-.04.1.09.07.09-.04.07.3.12-.02.12.03.18-.07.14.04.1.1h.2l.13.19.1.02-.42.75-.2.35-.24.41-1.07 1.13-.07.12-.28.1-.36.49-.06.3-.2.2.01.1-.06.18.02.04-.1.2-.26.14-.05.07.02.19-.16.22-.05.16-.01.15.08.03.12.12v.18l.08.1v.15l.08.27-.05.2-.13.16-.06.19.1.22-.04.1-.11.04-.06.12-.1.05-.08-.02-.07.07-.1.45.01.2.07.05-.03.34v.14l-.1.04-.1.15-.02.12-.17.11-.02.1-.07.07.02.06-.11.27.02.11-.03.06.04.1v.12l-.06.16-.18.06h-.09l-.11.14-.21.05-.02.15.06.26.17.08.1-.1-.01.22-.1.05-.14-.03-.44-.18-.08-.05.08-.09-.02-.08-.1-.02-.11.07-.08-.02-.04-.22-.16-.06-.08-.16-.05-.17-.06-.05-.12.03.02.17-.1.11h-.06l-.15-.12-.22.04-.09-.03-.14-.15-.22-.07-.3-.17-.43-.06-.11-.14-.28-.12-.15-.13-.26-.13-.2.08-.06-.1.16-.16-.06-.24.02-.19-.15-.21v-.21l-.1-.09-.07.07.08.38-.11.05-.14-.08h-.25l-.07-.1.09-.24-.07-.17h-.08l-.1.1-.03.2-.15.05-.2-.1h-.12l-.15.04-.41.16-.21.06-.08-.17-.24.05-.17-.1-.1.05-.22.04-.06-.09h-.07l-.15.07-.06-.03-.08-.18h-.13l-.07.15-.12.05-.1-.2-.18-.14-.05-.12h-.12l-.06.15h-.1l-.06-.12-.07-.09h-.2l-.26-.12-.14.03-.07.13-.04.16-.13.03-.22-.33-.06-.05-.11.05.02.12.1.09.13.03v.16l-.14.09-.25-.07-.16.02-.22-.03-.55.02-.14-.1-.07.02-.18.1-.15.01-.03-.09v-.02l-.02-.01.1-.27h-.16l-.12-.12-.11.02h-.01l-.02.06.1.1-.02.02.03.03-.01.14-.11-.02-.1-.18-.14-.08-.12-.01-.01.04.01.1.05.06-.02.13-.1.02-.06-.2-.27-.05-.16-.1-.23-.04.17.79.08.54.12.64.27 1.44.11.56-2.32.44.15.8.39 1.96-.65.13-.15.03.08.4.78-.16.02.13.18 1.05.17.8-.98.18-.35.06-1.01.21-.44.08.36 1.87.3 1.67.84-.15.15.83.05.32.26 1.4.03.2-.8.15 1.12 6.02-.22.06-.02-.1-.17.02-.2-.15-.16-.03-.13.03-.07-.06-.25.18-.2-.01-.43.31.12.81.15.9.27-.06.05.06.8 1.24 1.24 1.9.46.7 1.08 1.65.19.28h.13l.18.15.15.04.14-.04.43.18.18.01.04.14.14.17.2.04.09.07.13.2.18.2.2.07.04.1.77-.15.06.3.43 2.35.25 1.4v.41l1.56-.32.42 2.12.15.68.4-.08.07.38-.4.09.08.4.24.37.16.81.02.4.15.8.09.4.31-.08.15.72.04.25-.01.04h.02l1.16-.16 1.46-.17.9-.11.67-.08.35-.03.33-.03.63-.1-.22.16-.24.32.05.15v.1l-.08.27.11.25.2.14.05.28.29.3.17.05.54.5.06.32-.1.22.03.36.1.03.07.35-.02.1-.05.5.07.13.08.22.05.04.03.02v.14l.1.06-.02.07.55.73.12-.11.2.3.22.18.1.06h.2l.56-.33.17.06.08-.07.04-.12.3.04.22-.15.12-.04.3.17.3-.05.08.03.2-.12.2.13.06-.14.25-.1.15-.1.06-.1.17-.2-.07-.16.08.04v-.23l-.2-.28-.14-.31.06-.05-.05-.16-.02-.04.1-.15.1-.13-.12-.3-.08-.13.17-.4v-.23l.04-.19v-.05l-.03-.1.13-.36-.07-.21-.02-.57-.08-.17-.08-.44-.04.05-.07-.66.04-.1-.05-.13.1-.26-.07-.22.09-.14-.07-.05-.06-.37-.09-.11-.06-.11-.04-.03-.2-.42-.18-.04-.04-.06-.06.05-.04-.09-.13-.3-.07-.03.02-.09-.14-.09-.16-.2-.04-.05v-.23l-.18-.2-.07-.06-.19-.53-.03-.25.03-.12h-.05l.1-.07-.02-.48.07-.32-.03-.13-.07-.1-.05-.21-.19-.08.06-.14-.02-.04.06-.17-.09-.32.04-.24.2.06.12-.07.25-.33.04-.1-.12-.15-.1-.05-.23-.32.15-.17.1-.12.43.06.05-.01.1.09.14.08h.05l.18.05h.04l.05-.02.01-.04.03-.03h.04l.03-.05v-.12l.02-.02-.01-.1v-.1l.01-.06.07-.1.05-.02v-.19l-.05-.1-.05-.03-.03-.04.07-.05.01-.02-.02-.05-.05-.04v-.05l.05-.02-.1-.07v-.01l.02-.07.3-.33.21.03.06-.16.15.23.22.1.52-.06.1-.17-.09-.22h.02l.33.01.1.28.2.13.15.33h.31l.1.14.38-.15.21.09.13-.09.02.07-.02.1.1.01.03-.02.07-.05.1-.05.12-.01.06.04.07-.09.05-.03h.13l.07-.04.06-.02h.07l.1.06h.04l.15.15.03-.04-.04-.02v-.05l.02-.04.04-.05.04.02v.05l.08.06.1.1.06.05.08.09.02.06-.07.05v.03l.08.04.04.04.02.04-.01.06.02.03.05.02.22-.13.02-.03-.06-.05-.01-.04v-.05l.03-.13v-.03l-.04-.06.07-.04.06.01h.14l.04.03.02.07.13.07.22.02h.1l.09.02.04.02-.02.05-.03.05v.04l.02.02.06.04.1.02.14.03.02.03-.03.07v.03l.39.11.28-.15.1.04h.1l.02-.01.1-.1.07-.02.04.02.06.1.05.05.02.02.42-.01.02-.3-.2.15-.12-.1.47-.28.07.26.35.1-.03.25.2.13.22-.24.26.12v-.25l.1-.02.13.18-.03.2.22-.02.13.18.13-.1-.06-.25.2-.1.09.29.2-.18.23-.03.27.02.05.03.1.01.18.18.2-.24.09-.03.3.25.1-.13-.03-.38.2-.01.51-.1.54-.19.33.28.2.04.05.01-.02-.05.54-.07-.6-.91-.13-.37-.06-.5-.02-.67.1-.64.33-.9.1-1.61.1-.61-.3-1.67-.27-.58-.3.17-.05.58-.55.1-.08-.25-.53-.07-.2.2-.3-.05-.24-.22.04-.25.7-.6v-.35l.14-.2.42-.15.1.12.3-.17.07-.35.07-1.5-.09-.4-.18-.64-.25-.38.17-.47.3-.07.5-.55.17-.65.43-1.05.32-.47.3-.3.31-.08.03-.87.1-.35.16-.16-.08-.22-.25-.13-.48-1.15.02-.52-.22-.7-.34-.55.58-.57.12-.37v-.35l.2-.63.77-1.8.22-1.01.25-.44-.32-.38-.37-.17-.15.05-.19.3-.4.12-.17-.05-.64.15-.14-.07-.02-.51.1-.27.4.05.6-.33.25-.42.47-.05.25.28.19-.07.22-.41.12-.77.31-1.29-.2-.28-.3-1.3.02-.4-.23-.07-.33.1-.18.28-.74-.17-.3-.34-.26-.13.2-.5.52.1.34-.1.64.1.18-.1.76-1.01.5-.83.44-1.05.2-.34v-.2l-.18-.17-.2-.01-.08.2h-.29l-.4-.17-.06-.23.3-.33.03-.43-.32-.56.63-.1.3.04.1.14.37-.07.43.26.2-.07.42-.73.87-1.17-.3-.1-.34.12-.4-.05-.5-.4-.06-.26.3-.1.52-.62.1-.24h.28l.27.7.18-.04.9-.77.42-.5v-.48l.28-.15.03-.8-.11-.36-.32-.15-.05.17-.48.39-.18-.18-.02-.28-.2-.09-.01.02-.03.07-.83.03-.11-.03-.94-.73-.5-.02-.34-.1-.3-.44-.38-.17-.2.09-.13.2-.04.15-.39.34-.14-.04h-.45l-.46-.2h-.36l.02-.13-.28-.2-.27.14-.07-.06-.25-.13-.02-.25-.15-.22-.02-.4.1-.14-.22-.08-.08-.11-.2-.18-.06-.04.22-.36.23.05-.06-.17-.22.06v-.37l-.43-.57-.17-.04-.06-.04-.03-.1-.07-.09h-.05l-.07-.02h-.04l-.09.02-.02.03-.07-.04.1-.05.03-.03.04-.14-.02-.04-.05-.05-.2-.11-.16-.27.21-.16.02-.04-.02-.06-.05-.05-.02-.04.08-.1-.02-.02-.05-.04v-.11h.14l.06-.06.02-.05-.05-.08-.04-.02h-.07l-.01-.04v-.02l.07-.01.07-.05.04.02v.05l.06.02.02-.02-.03-.08-.01-.01.03-.03.03-.06.01-.03h.01l-.05-.04v-.14h.05l.02-.03.03-.04.08-.03v-.05l-.01-.02-.04-.02h-.07l-.01-.05.01-.02h.06l.07-.05-.09-.06-.03-.06-.02-.05.02-.11-.01-.13-.05-.08-.05-.05h-.03l-.03.06-.03.03h-.1l-.03-.03v-.06l.04-.02.02-.07v-.05l-.07-.06v-.07l-.03-.05v-.16l-.04-.01-.05.06h-.05l-.02-.03-.05-.06v-.05l.04-.01.02-.07.02-.07.02-.07.07-.04.01-.07-.05-.1h-.04l-.07.05-.04-.05-.12-.04-.08-.14-.04-.02-.05-.02-.08.08.02.06-.23.3.03-.34-.14.08-.07-.22-.28-.12-.09-.06v-.02l-.07-.05.08-.18-.22-.14-.03-.05-.04-.02zm9.35 8.69-.03.09.16.01zm-4.88 24.8-.16.03.04.16z" fill="#d1dbdd" stroke="rgb(209, 219, 221)" stroke-width="0.1" data-originalStrokeWidth="0.1" style="stroke: rgb(0, 0, 0); fill: rgb(209, 219, 221); pointer-events: auto; stroke-width: 0.1;" pointer-events="auto"/>
      <g id="state_abbr" fill="#000000" style="display: none; fill: rgb(0, 0, 0);">
        <text id="HI_label" x="491.79" y="769.82" style="font-size: 19.2455px; stroke-width: 1.60379; display: none;">
          <tspan id="HI_tspan" x="491.79" y="769.82" fill="#000000" dy="0" font-family="Arial" font-size="24.06" font-style="normal" font-weight="400" style="text-align: center; stroke-width: 2.57215; fill: rgb(0, 0, 0);" text-anchor="middle">HI</tspan>
        </text>
        <text id="AK_label" x="205.24" y="672.25" style="font-size: 19.2455px; stroke-width: 1.60379; display: none;">
          <tspan id="AK_tspan" x="205.24" y="672.25" fill="#000000" dy="0" font-family="Arial" font-size="24.06" font-style="normal" font-weight="400" style="text-align: center; stroke-width: 2.57215; fill: rgb(0, 0, 0);" text-anchor="middle">AK</tspan>
        </text>
        <text id="FL_label" x="1188.11" y="708.7" style="font-size: 19.2455px; stroke-width: 1.60379; display: none;">
          <tspan id="FL_tspan" x="1188.11" y="708.7" fill="#000000" dy="0" font-family="Arial" font-size="24.06" font-style="normal" font-weight="400" style="text-align: center; stroke-width: 2.57215; fill: rgb(0, 0, 0);" text-anchor="middle">FL</tspan>
        </text>
        <text id="NH_label" x="1306.05" y="167.79" stroke-width="1.1" font-size="13.25" style="display: none;">
          <tspan id="NH_tspan" x="1306.05" y="167.79" fill="#000000" stroke-width="1.1" dy="0" font-family="Arial" font-size="16.56" font-style="normal" font-weight="400" style="text-align: center; fill: rgb(0, 0, 0);" text-anchor="middle">NH</tspan>
        </text>
        <text id="MI_label" x="1019.65" y="246.58" style="font-size: 19.2455px; stroke-width: 1.60379; display: none;">
          <tspan id="MI_tspan" x="1019.65" y="246.58" fill="#000000" dy="0" font-family="Arial" font-size="24.06" font-style="normal" font-weight="400" style="text-align: center; stroke-width: 2.57215; fill: rgb(0, 0, 0);" text-anchor="middle">MI</tspan>
        </text>
        <text id="VT_label" x="1274.28" y="145.01" stroke-width="1.05" font-size="12.65" style="display: none;">
          <tspan id="VT_tspan" x="1274.28" y="145.01" fill="#000000" stroke-width="1.05" dy="0" font-family="Arial" font-size="15.81" font-style="normal" font-weight="400" style="text-align: center; fill: rgb(0, 0, 0);" text-anchor="middle">VT</tspan>
        </text>
        <text id="ME_label" x="1338.99" y="105.14" stroke-width="1.45" font-size="17.36" style="display: none;">
          <tspan id="ME_tspan" x="1338.99" y="105.14" fill="#000000" stroke-width="1.45" dy="0" font-family="Arial" font-size="21.7" font-style="normal" font-weight="400" style="text-align: center; fill: rgb(0, 0, 0);" text-anchor="middle">ME</tspan>
        </text>
        <text id="RI_label" x="1361.38" y="262.84" stroke-width="1.25" font-size="14.98" style="display: none;">
          <tspan id="RI_tspan" x="1361.38" y="262.84" fill="#000000" stroke-width="1.25" dy="0" font-family="Arial" font-size="18.72" font-style="normal" font-weight="400" style="text-align: center; fill: rgb(0, 0, 0);" text-anchor="middle">RI</tspan>
        </text>
        <text id="NY_label" x="1227.27" y="204.12" style="font-size: 19.2455px; stroke-width: 1.60379; display: none;">
          <tspan id="NY_tspan" x="1227.27" y="204.12" fill="#000000" dy="0" font-family="Arial" font-size="24.06" font-style="normal" font-weight="400" style="text-align: center; stroke-width: 2.57215; fill: rgb(0, 0, 0);" text-anchor="middle">NY</tspan>
        </text>
        <text id="PA_label" x="1187.28" y="284.69" style="font-size: 19.2455px; stroke-width: 1.60379; display: none;">
          <tspan id="PA_tspan" x="1187.28" y="284.69" fill="#000000" dy="0" font-family="Arial" font-size="24.06" font-style="normal" font-weight="400" style="text-align: center; stroke-width: 2.57215; fill: rgb(0, 0, 0);" text-anchor="middle">PA</tspan>
        </text>
        <text id="NJ_label" x="1330.57" y="290.09" stroke-width="1.28" font-size="15.4" style="display: none;">
          <tspan id="NJ_tspan" x="1330.57" y="290.09" fill="#000000" stroke-width="1.28" dy="0" font-family="Arial" font-size="19.25" font-style="normal" font-weight="400" style="text-align: center; fill: rgb(0, 0, 0);" text-anchor="middle">NJ</tspan>
        </text>
        <text id="DE_label" x="1320.8" y="328.42" stroke-width="1.36" font-size="16.38" style="display: none;">
          <tspan id="DE_tspan" x="1320.8" y="328.42" fill="#000000" stroke-width="1.36" dy="0" font-family="Arial" font-size="20.47" font-style="normal" font-weight="400" style="text-align: center; fill: rgb(0, 0, 0);" text-anchor="middle">DE</tspan>
        </text>
        <text id="MD_label" x="1310.72" y="368.46" stroke-width="1.34" font-size="16.11" style="display: none;">
          <tspan id="MD_tspan" x="1310.72" y="368.46" fill="#000000" stroke-width="1.34" dy="0" font-family="Arial" font-size="20.13" font-style="normal" font-weight="400" style="text-align: center; fill: rgb(0, 0, 0);" text-anchor="middle">MD</tspan>
        </text>
        <text id="VA_label" x="1198.59" y="392.33" style="font-size: 19.2455px; stroke-width: 1.60379; display: none;">
          <tspan id="VA_tspan" x="1198.59" y="392.33" fill="#000000" dy="0" font-family="Arial" font-size="24.06" font-style="normal" font-weight="400" style="text-align: center; stroke-width: 2.57215; fill: rgb(0, 0, 0);" text-anchor="middle">VA</tspan>
        </text>
        <text id="WV_label" x="1129.66" y="382.3" style="font-size: 19.2455px; stroke-width: 1.60379; display: none;">
          <tspan id="WV_tspan" x="1129.66" y="382.3" fill="#000000" dy="0" font-family="Arial" font-size="24.06" font-style="normal" font-weight="400" style="text-align: center; stroke-width: 2.57215; fill: rgb(0, 0, 0);" text-anchor="middle">WV</tspan>
        </text>
        <text id="OH_label" x="1079.05" y="334.46" style="font-size: 19.2455px; stroke-width: 1.60379; display: none;">
          <tspan id="OH_tspan" x="1079.05" y="334.46" fill="#000000" dy="0" font-family="Arial" font-size="24.06" font-style="normal" font-weight="400" style="text-align: center; stroke-width: 2.57215; fill: rgb(0, 0, 0);" text-anchor="middle">OH</tspan>
        </text>
        <text id="IN_label" x="998.79" y="352.94" style="font-size: 19.2455px; stroke-width: 1.60379; display: none;">
          <tspan id="IN_tspan" x="998.79" y="352.94" fill="#000000" dy="0" font-family="Arial" font-size="24.06" font-style="normal" font-weight="400" style="text-align: center; stroke-width: 2.57215; fill: rgb(0, 0, 0);" text-anchor="middle">IN</tspan>
        </text>
        <text id="IL_label" x="927.43" y="364.36" style="font-size: 19.2455px; stroke-width: 1.60379; display: none;">
          <tspan id="IL_tspan" x="927.43" y="364.36" fill="#000000" dy="0" font-family="Arial" font-size="24.06" font-style="normal" font-weight="400" style="text-align: center; stroke-width: 2.57215; fill: rgb(0, 0, 0);" text-anchor="middle">IL</tspan>
        </text>
        <text id="CT_label" x="1299.17" y="228.46" stroke-width="1.06" font-size="12.74" style="display: none;">
          <tspan id="CT_tspan" x="1299.17" y="228.46" fill="#000000" stroke-width="1.06" dy="0" font-family="Arial" font-size="15.93" font-style="normal" font-weight="400" style="text-align: center; fill: rgb(0, 0, 0);" text-anchor="middle">CT</tspan>
        </text>
        <text id="WI_label" x="898.6" y="224.7" style="font-size: 19.2455px; stroke-width: 1.60379; display: none;">
          <tspan id="WI_tspan" x="898.6" y="224.7" fill="#000000" dy="0" font-family="Arial" font-size="24.06" font-style="normal" font-weight="400" style="text-align: center; stroke-width: 2.57215; fill: rgb(0, 0, 0);" text-anchor="middle">WI</tspan>
        </text>
        <text id="NC_label" x="1205.6" y="458.72" style="font-size: 19.2455px; stroke-width: 1.60379; display: none;">
          <tspan id="NC_tspan" x="1205.6" y="458.72" fill="#000000" dy="0" font-family="Arial" font-size="24.06" font-style="normal" font-weight="400" style="text-align: center; stroke-width: 2.57215; fill: rgb(0, 0, 0);" text-anchor="middle">NC</tspan>
        </text>
        <text id="MA_label" x="1305.87" y="200.67" stroke-width="1.04" font-size="12.46" style="display: none;">
          <tspan id="MA_tspan" x="1305.87" y="200.67" fill="#000000" stroke-width="1.04" dy="0" font-family="Arial" font-size="15.58" font-style="normal" font-weight="400" style="text-align: center; fill: rgb(0, 0, 0);" text-anchor="middle">MA</tspan>
        </text>
        <text id="MO_label" x="854.22" y="422.93" style="font-size: 19.2455px; stroke-width: 1.60379; display: none;">
          <tspan id="MO_tspan" x="854.22" y="422.93" fill="#000000" dy="0" font-family="Arial" font-size="24.06" font-style="normal" font-weight="400" style="text-align: center; stroke-width: 2.57215; fill: rgb(0, 0, 0);" text-anchor="middle">MO</tspan>
        </text>
        <text id="GA_label" x="1106.89" y="574.56" style="font-size: 19.2455px; stroke-width: 1.60379; display: none;">
          <tspan id="GA_tspan" x="1106.89" y="574.56" fill="#000000" dy="0" font-family="Arial" font-size="24.06" font-style="normal" font-weight="400" style="text-align: center; stroke-width: 2.57215; fill: rgb(0, 0, 0);" text-anchor="middle">GA</tspan>
        </text>
        <text id="SC_label" x="1166.32" y="522.49" style="font-size: 19.2455px; stroke-width: 1.60379; display: none;">
          <tspan id="SC_tspan" x="1166.32" y="522.49" fill="#000000" dy="0" font-family="Arial" font-size="24.06" font-style="normal" font-weight="400" style="text-align: center; stroke-width: 2.57215; fill: rgb(0, 0, 0);" text-anchor="middle">SC</tspan>
        </text>
        <text id="KY_label" x="1039.99" y="426.39" style="font-size: 19.2455px; stroke-width: 1.60379; display: none;">
          <tspan id="KY_tspan" x="1039.99" y="426.39" fill="#000000" dy="0" font-family="Arial" font-size="24.06" font-style="normal" font-weight="400" style="text-align: center; stroke-width: 2.57215; fill: rgb(0, 0, 0);" text-anchor="middle">KY</tspan>
        </text>
        <text id="AL_label" x="1019.59" y="578.15" style="font-size: 19.2455px; stroke-width: 1.60379; display: none;">
          <tspan id="AL_tspan" fill="#000000" dy="0" font-family="Arial" font-size="24.06" font-style="normal" font-weight="400" style="text-align: center; stroke-width: 2.57215; fill: rgb(0, 0, 0);" text-anchor="middle">AL</tspan>
        </text>
        <text id="LA_label" x="872.7" y="649.59" style="font-size: 19.2455px; stroke-width: 1.60379; display: none;">
          <tspan id="LA_tspan" x="872.7" y="649.59" fill="#000000" dy="0" font-family="Arial" font-size="24.06" font-style="normal" font-weight="400" style="text-align: center; stroke-width: 2.57215; fill: rgb(0, 0, 0);" text-anchor="middle">LA</tspan>
        </text>
        <text id="MS_label" x="940.37" y="592.21" style="font-size: 19.2455px; stroke-width: 1.60379; display: none;">
          <tspan id="MS_tspan" x="940.37" y="592.21" fill="#000000" dy="0" font-family="Arial" font-size="24.06" font-style="normal" font-weight="400" style="text-align: center; stroke-width: 2.57215; fill: rgb(0, 0, 0);" text-anchor="middle">MS</tspan>
        </text>
        <text id="IA_label" x="823.33" y="308.44" style="font-size: 19.2455px; stroke-width: 1.60379; display: none;">
          <tspan id="IA_tspan" x="823.33" y="308.44" fill="#000000" dy="0" font-family="Arial" font-size="24.06" font-style="normal" font-weight="400" style="text-align: center; stroke-width: 2.57215; fill: rgb(0, 0, 0);" text-anchor="middle">IA</tspan>
        </text>
        <text id="MN_label" x="790.84" y="183.37" style="font-size: 19.2455px; stroke-width: 1.60379; display: none;">
          <tspan id="MN_tspan" x="790.84" y="183.37" fill="#000000" dy="0" font-family="Arial" font-size="24.06" font-style="normal" font-weight="400" style="text-align: center; stroke-width: 2.57215; fill: rgb(0, 0, 0);" text-anchor="middle">MN</tspan>
        </text>
        <text id="OK_label" x="732.05" y="519.54" style="font-size: 19.2455px; stroke-width: 1.60379; display: none;">
          <tspan id="OK_tspan" x="732.05" y="519.54" fill="#000000" dy="0" font-family="Arial" font-size="24.06" font-style="normal" font-weight="400" style="text-align: center; stroke-width: 2.57215; fill: rgb(0, 0, 0);" text-anchor="middle">OK</tspan>
        </text>
        <text id="TX_label" x="710.59" y="652.87" style="font-size: 19.2455px; stroke-width: 1.60379; display: none;">
          <tspan id="TX_tspan" x="710.59" y="652.87" fill="#000000" dy="0" font-family="Arial" font-size="24.06" font-style="normal" font-weight="400" style="text-align: center; stroke-width: 2.57215; fill: rgb(0, 0, 0);" text-anchor="middle">TX</tspan>
        </text>
        <text id="NM_label" x="506.94" y="542.36" style="font-size: 19.2455px; stroke-width: 1.60379; display: none;">
          <tspan id="NM_tspan" x="506.94" y="542.36" fill="#000000" dy="0" font-family="Arial" font-size="24.06" font-style="normal" font-weight="400" style="text-align: center; stroke-width: 2.57215; fill: rgb(0, 0, 0);" text-anchor="middle">NM</tspan>
        </text>
        <text id="KS_label" x="701.21" y="427.26" style="font-size: 19.2455px; stroke-width: 1.60379; display: none;">
          <tspan id="KS_tspan" x="701.21" y="427.26" fill="#000000" dy="0" font-family="Arial" font-size="24.06" font-style="normal" font-weight="400" style="text-align: center; stroke-width: 2.57215; fill: rgb(0, 0, 0);" text-anchor="middle">KS</tspan>
        </text>
        <text id="NE_label" x="686.63" y="337.29" style="font-size: 19.2455px; stroke-width: 1.60379; display: none;">
          <tspan id="NE_tspan" x="686.63" y="337.29" fill="#000000" dy="0" font-family="Arial" font-size="24.06" font-style="normal" font-weight="400" style="text-align: center; stroke-width: 2.57215; fill: rgb(0, 0, 0);" text-anchor="middle">NE</tspan>
        </text>
        <text id="SD_label" x="663.02" y="238.75" style="font-size: 19.2455px; stroke-width: 1.60379; display: none;">
          <tspan id="SD_tspan" x="663.02" y="238.75" fill="#000000" dy="0" font-family="Arial" font-size="24.06" font-style="normal" font-weight="400" style="text-align: center; stroke-width: 2.57215; fill: rgb(0, 0, 0);" text-anchor="middle">SD</tspan>
        </text>
        <text id="ND_label" x="663.02" y="150.75" style="font-size: 19.2455px; stroke-width: 1.60379; display: none;">
          <tspan id="ND_tspan" x="663.02" y="150.75" fill="#000000" dy="0" font-family="Arial" font-size="24.06" font-style="normal" font-weight="400" style="text-align: center; stroke-width: 2.57215; fill: rgb(0, 0, 0);" text-anchor="middle">ND</tspan>
        </text>
        <text id="WY_label" x="499.57" y="276.47" style="font-size: 19.2455px; stroke-width: 1.60379; display: none;">
          <tspan id="WY_tspan" x="499.57" y="276.47" fill="#000000" dy="0" font-family="Arial" font-size="24.06" font-style="normal" font-weight="400" style="text-align: center; stroke-width: 2.57215; fill: rgb(0, 0, 0);" text-anchor="middle">WY</tspan>
        </text>
        <text id="MT_label" x="487.84" y="155.58" style="font-size: 19.2455px; stroke-width: 1.60379; display: none;">
          <tspan id="MT_tspan" x="487.84" y="155.58" fill="#000000" dy="0" font-family="Arial" font-size="24.06" font-style="normal" font-weight="400" style="text-align: center; stroke-width: 2.57215; fill: rgb(0, 0, 0);" text-anchor="middle">MT</tspan>
        </text>
        <text id="CO_label" x="525.13" y="406.28" style="font-size: 19.2455px; stroke-width: 1.60379; display: none;">
          <tspan id="CO_tspan" x="525.13" y="406.28" fill="#000000" dy="0" font-family="Arial" font-size="24.06" font-style="normal" font-weight="400" style="text-align: center; stroke-width: 2.57215; fill: rgb(0, 0, 0);" text-anchor="middle">CO</tspan>
        </text>
        <text id="ID_label" x="339.94" y="235.07" style="font-size: 19.2455px; stroke-width: 1.60379; display: none;">
          <tspan id="ID_tspan" x="339.94" y="235.07" fill="#000000" dy="0" font-family="Arial" font-size="24.06" font-style="normal" font-weight="400" style="text-align: center; stroke-width: 2.57215; fill: rgb(0, 0, 0);" text-anchor="middle">ID</tspan>
        </text>
        <text id="UT_label" x="396.81" y="386.73" style="font-size: 19.2455px; stroke-width: 1.60379; display: none;">
          <tspan id="UT_tspan" x="396.81" y="386.73" fill="#000000" dy="0" font-family="Arial" font-size="24.06" font-style="normal" font-weight="400" style="text-align: center; stroke-width: 2.57215; fill: rgb(0, 0, 0);" text-anchor="middle">UT</tspan>
        </text>
        <text id="AZ_label" x="366.76" y="536.9" style="font-size: 19.2455px; stroke-width: 1.60379; display: none;">
          <tspan id="AZ_tspan" x="366.76" y="536.9" fill="#000000" dy="0" font-family="Arial" font-size="24.06" font-style="normal" font-weight="400" style="text-align: center; stroke-width: 2.57215; fill: rgb(0, 0, 0);" text-anchor="middle">AZ</tspan>
        </text>
        <text id="NV_label" x="262.47" y="370.64" style="font-size: 19.2455px; stroke-width: 1.60379; display: none;">
          <tspan id="NV_tspan" x="262.47" y="370.64" fill="#000000" dy="0" font-family="Arial" font-size="24.06" font-style="normal" font-weight="400" style="text-align: center; stroke-width: 2.57215; fill: rgb(0, 0, 0);" text-anchor="middle">NV</tspan>
        </text>
        <text id="OR_label" x="214.43" y="206.88" style="font-size: 19.2455px; stroke-width: 1.60379; display: none;">
          <tspan id="OR_tspan" x="214.43" y="206.88" fill="#000000" dy="0" font-family="Arial" font-size="24.06" font-style="normal" font-weight="400" style="text-align: center; stroke-width: 2.57215; fill: rgb(0, 0, 0);" text-anchor="middle">OR</tspan>
        </text>
        <text id="WA_label" x="238.05" y="102.99" style="font-size: 19.2455px; stroke-width: 1.60379; display: none;">
          <tspan id="WA_tspan" x="238.05" y="102.99" fill="#000000" dy="0" font-family="Arial" font-size="24.06" font-style="normal" font-weight="400" style="text-align: center; stroke-width: 2.57215; fill: rgb(0, 0, 0);" text-anchor="middle">WA</tspan>
        </text>
        <text id="CA_label" x="191.69" y="434.8" style="font-size: 19.2455px; stroke-width: 1.60379; display: none;">
          <tspan id="CA_tspan" x="191.69" y="434.8" fill="#000000" dy="0" font-family="Arial" font-size="24.06" font-style="normal" font-weight="400" style="text-align: center; stroke-width: 2.57215; fill: rgb(0, 0, 0);" text-anchor="middle">CA</tspan>
        </text>
        <text id="DC_label" x="1309.32" y="398.19" stroke-width="1.29" font-size="15.45" style="display: none;">
          <tspan id="DC_tspan" x="1309.32" y="398.19" fill="#000000" stroke-width="1.29" dy="0" font-family="Arial" font-size="19.31" font-style="normal" font-weight="400" style="text-align: center; fill: rgb(0, 0, 0);" text-anchor="middle">DC</tspan>
        </text>
        <text id="TN_label" x="1018.93" y="485.72" style="font-size: 19.2455px; stroke-width: 1.60379; display: none;">
          <tspan id="TN_tspan" x="1018.93" y="485.72" fill="#000000" dy="0" font-family="Arial" font-size="24.06" font-style="normal" font-weight="400" style="text-align: center; stroke-width: 2.57215; fill: rgb(0, 0, 0);" text-anchor="middle">TN</tspan>
        </text>
        <text id="AR_label" x="863.15" y="535.77" style="font-size: 19.2455px; stroke-width: 1.60379; display: none;">
          <tspan id="AR_tspan" x="863.15" y="535.77" fill="#000000" dy="0" font-family="Arial" font-size="24.06" font-style="normal" font-weight="400" style="text-align: center; stroke-width: 2.57215; fill: rgb(0, 0, 0);" text-anchor="middle">AR</tspan>
        </text>
      </g>
      <g id="state_borders" transform="translate(-0.04777967,-0.15336683)" stroke="rgb(209, 219, 221)" style="stroke: rgb(0, 0, 0);" stroke-width="0.3"/>
      <rect id="selection-rectangle" fill="#ffffccaa" stroke="rgb(209, 219, 221)" stroke-width="0.1"/>
      <ellipse id="selection-ellipse" fill="#ffffccaa" stroke="rgb(209, 219, 221)" stroke-width="0.1"/>
      <polygon id="selection-polygon" fill="#ffffccaa" stroke="rgb(209, 219, 221)" stroke-width="0.1"/>
      <polyline id="selection-polyline" fill="#ffffccaa" stroke="rgb(209, 219, 221)" stroke-width="0.1"/>
    </svg>
  </g>
  <svg id="legend-svg" width="100%" height="100%" style="overflow:visible;" class="ui-draggable ui-draggable-handle" x="1328.321548461914" y="504">
    <g id="legend-g-svg" fill="#000" transform="translate(0,0) scale(1)" style="font-family: Helvetica; font-weight: 400; font-style: normal;">
      <rect id="legend-bg-rect-svg" x="0" y="0" rx="3.8" ry="3.8" width="190" height="20" fill="#000000" stroke="rgb(209, 219, 221)" fill-opacity="0" stroke-width="0.1"/>
    </g>
  </svg>
</svg>
