<?xml version='1.0' encoding='UTF-8'?>
<svg xmlns="http://www.w3.org/2000/svg" xmlns:dc="http://purl.org/dc/elements/1.1/" xmlns:ns2="http://creativecommons.org/ns#" xmlns:rdf="http://www.w3.org/1999/02/22-rdf-syntax-ns#" id="wrapper" viewBox="0 0 1520 840" preserveAspectRatio="xMinYMin" height="840" width="1520" style="background-color: rgb(255, 255, 255);">
  <metadata>
    <rdf:rdf>
      <ns2:work rdf:about="">
        <dc:format>image/svg+xml</dc:format>
        <dc:type rdf:resource="http://purl.org/dc/dcmitype/StillImage"/>
        <dc:title>MapChart Map</dc:title>
        <dc:creator>
          <ns2:agent>
            <dc:title>MapChart.net</dc:title>
          </ns2:agent>
        </dc:creator>
        <ns2:license rdf:resource="http://creativecommons.org/licenses/by-sa/4.0/"/>
        <dc:description>This map was created with MapChart.net, a website for creating custom maps.</dc:description>
      </ns2:work>
      <ns2:license rdf:about="http://creativecommons.org/licenses/by-sa/4.0/">
        <ns2:permits rdf:resource="http://creativecommons.org/ns#Reproduction"/>
        <ns2:permits rdf:resource="http://creativecommons.org/ns#Distribution"/>
        <ns2:requires rdf:resource="http://creativecommons.org/ns#Notice"/>
        <ns2:requires rdf:resource="http://creativecommons.org/ns#Attribution"/>
        <ns2:requires rdf:resource="http://creativecommons.org/ns#ShareAlike"/>
      </ns2:license>
    </rdf:rdf>
  </metadata>
  <g id="map-group" transform="translate(-1799.6053587760612,-3621.085617226726) scale(5.504588525885508)">
    <svg id="map" width="1520" height="840" version="1.1" viewBox="0 0 1520 840" preserveAspectRatio="xMinYMin" data-originalStrokeWidth="0.3">
      <defs>
        <pattern id="circles3" width="10" height="10" patternUnits="userSpaceOnUse">    <rect width="10" height="10" fill="#fff"/>    <circle cx="4" cy="4" r="2" fill="#000"/>    </pattern>
        <pattern id="diagonal1" width="10" height="10" patternUnits="userSpaceOnUse">    <rect width="10" height="10" fill="#fff"/>    </pattern>
        <pattern id="diagonal3" width="10" height="10" patternUnits="userSpaceOnUse">    <rect width="10" height="10" fill="#fff"/>    </pattern>
        <pattern id="vertical1" width="10" height="10" patternUnits="userSpaceOnUse">    <rect width="10" height="10" fill="#fff"/>    <rect x="2" y="0" width="1" height="10" fill="#000"/>    </pattern>
        <pattern id="vertical3" width="10" height="10" patternUnits="userSpaceOnUse">    <rect width="10" height="10" fill="#fff"/>    <rect x="2" y="0" width="3" height="10" fill="#000"/>    </pattern>
        <pattern id="horizontal1" width="10" height="10" patternUnits="userSpaceOnUse">    <rect width="10" height="10" fill="#fff"/>    <rect x="0" y="2" width="10" height="1" fill="#000"/>    </pattern>
        <pattern id="horizontal3" width="10" height="10" patternUnits="userSpaceOnUse">    <rect width="10" height="10" fill="#fff"/>    <rect x="0" y="2" width="10" height="3" fill="#000"/>    </pattern>
        <pattern id="crosshatch" width="8" height="8" patternUnits="userSpaceOnUse">    <rect width="8" height="8" fill="#fff"/>    </pattern>
        <pattern id="subtlepatch" width="5" height="5" patternUnits="userSpaceOnUse">    <rect width="5" height="5" fill="#fff"/>    <rect x="2" y="2" width="1" height="1" fill="#000"/>    </pattern>
        <pattern id="checkers" width="8" height="8" patternUnits="userSpaceOnUse">    <rect width="8" height="8" fill="#fff"/>    </pattern>
        <pattern id="raindrops" width="10" height="10" patternUnits="userSpaceOnUse">    <rect width="10" height="10" fill="#fff"/>    </pattern>
        <pattern id="texture" width="4" height="4" patternUnits="userSpaceOnUse">    <rect width="4" height="4" fill="#fff"/>    </pattern>
        <pattern id="circles3_a03500_000000" width="10" height="10" patternUnits="userSpaceOnUse">    <rect width="10" height="10" fill="#a03500"/>    <circle cx="4" cy="4" r="2" fill="#000000"/>    </pattern>
        <pattern id="diagonal1_d9b400_535353" width="10" height="10" patternUnits="userSpaceOnUse">    <rect width="10" height="10" fill="#d9b400"/>    </pattern>
        <pattern id="diagonal3_3264c8_ffffff" width="10" height="10" patternUnits="userSpaceOnUse">    <rect width="10" height="10" fill="#3264c8"/>    </pattern>
        <pattern id="horizontal1_72b38e_000000" width="10" height="10" patternUnits="userSpaceOnUse">    <rect width="10" height="10" fill="#72b38e"/>    <rect x="0" y="2" width="10" height="1" fill="#000000"/>    </pattern>
        <pattern id="horizontal3_986ba1_ffffff" width="10" height="10" patternUnits="userSpaceOnUse">    <rect width="10" height="10" fill="#986ba1"/>    <rect x="0" y="2" width="10" height="3" fill="#ffffff"/>    </pattern>
        <pattern id="vertical1_b9a087_ffffff" width="10" height="10" patternUnits="userSpaceOnUse">    <rect width="10" height="10" fill="#b9a087"/>    <rect x="2" y="0" width="1" height="10" fill="#ffffff"/>    </pattern>
        <pattern id="vertical3_4c91bf_ffff33" width="10" height="10" patternUnits="userSpaceOnUse">    <rect width="10" height="10" fill="#4c91bf"/>    <rect x="2" y="0" width="3" height="10" fill="#ffff33"/>    </pattern>
        <pattern id="checkers_cc3333_f7f7f7" width="8" height="8" patternUnits="userSpaceOnUse">    <rect width="8" height="8" fill="#cc3333"/>    </pattern>
        <pattern id="texture_d1dbdd_525252" width="4" height="4" patternUnits="userSpaceOnUse">    <rect width="4" height="4" fill="#d1dbdd"/>    </pattern>
        <style id="map-style">svg { background-color: #ffffff; }</style>
      </defs>
      <path id="HI01" d="m458.01 702.9-.04.54-.28.24-.62.37-.46.43-.14.3-.16-.17-.1.26.19.12-.3.17-.42.05-.04-.75-.4-.3-.13.14h-.4l-.89.28-.4.06-.43.23-.16.23-.63.38-.79.07-.25-.18-.1-.48-.6-.37-.34-.03-.98-.52-.33-.26-.26.05-.12-.28-.72.1-.09.07-1.64.07v-.53l-.57-.25-.38-.24-.02.22-.43.3-1.6.46-.9.18-.24.13-1.17.16-.26.13-.22-1.58.15-.05.7-.8.22-.6.38-.4 1.3-.76-.03-.58-.35-.43-.12-.62.05-.78-.06-.26.2-.34-.23-1.3.22.05.6-.12.68.1.9-.02.62-.32.5-.12h.45l1-.16.33-.14.2.36.25 1.27.42.1.15.34.05.57.34.15.24.33.32.07.52.34v.68l.6.3.12.49.45.32.15.33h.42l.33.2.14.93.26.2.53.14h.35l.27.17.64.18.45-.08.2.26.6.05.75-.24.4.05.72.49.44-.14" fill="#d1dbdd" stroke="rgb(209, 219, 221)" stroke-width="0.1" data-originalStrokeWidth="0.1" style="stroke: rgb(0, 0, 0); fill: rgb(209, 219, 221); pointer-events: auto; stroke-width: 0.1;" pointer-events="auto"/>
      <path id="HI02" d="m499.94 733.37.21-.05.83-.72.41-.22.2-.29.82-.47.78-.16.6.34.64.76.06.32-.4.18.05.57-.21.27-.01.4.4-.05.43.11.08.26-.38.37-.14.35-.32-.2-.56.08-.8.37-.25-.28h-.72l-.47.1-.72.43-.24-.45-.41.48-.39.2-.53-.09-.28-.2.02-.29-.26-.02-.41-.35.1-.38.68-.73.12-.27 1.07-.37m-12.96-15.02.59-.05.92.13.9.3.45.3 2.26 2 .33.37.68 1.06.02.65-.3.67-.3.38-.27.72-.5.43h-.4l-.57.3-.54.43-.19-.1-.2.41-.31-.18-.36.2-.48-.04-.12.12-.66-.06-1.02.25-.43-.54-.36-.35-.5-1.43.08-.19.03-1.14-.17-.4-.63-.95-.2-.2-1.21-.53-.4-.09-.5-.87.02-.47.15-.4.82-.53.56-.19 1.4-.19.75.19h.66m-13.48-9.66.66-.53.2-.29.1-.84-.1-.47-.43-.47.23-.23.62.23.96-.05.12-.15.38.24.27.07.41.43.65.06.56-.03.04.12.54.04.54-.12.7.15.8-.02.77.23.57.1.68-.14.7.06 1.12.26.52-.31.08-.97.44-.34.32.12.64 1 .22.67.4.14.26-.14.58.24.7.07.16-.23.28-.02.1.29.25-.18.44.17.92-.27.5.08.13-.18.94-.35.3.25.27.03.2-.27.6-.11 1.25.07.16.17v.41l.3.08.44-.15.32.06-.1.65-.37.68-.3.22-.22.43-1.48 1.32-.01.16-.5.14-.14.32-.45.22-.57.1-.76.53-.52.16-.1-.26-.25.08-.68.47-.73-.12-.13-.29-.2.08-.84-.2-1.12-.1-.97-.3-.36.05-.48-.32-.33.09-.12-.13-1.06-.29-.2-.28-.58-.05-.77-.16-1.16-.07-1.26.3-.9.32-.31-.05-1.2.1-2.65.3-1.28-.18-.6.02-.5-.34.39-.59-.02-.4.35-.85.52-.69.15-.05m-15.47-5.88-.44.14-.73-.5-.4-.04-.75.24-.6-.07-.2-.24-.44.08-.65-.18-.26-.17h-.35l-.53-.13-.28-.22-.12-.9-.33-.21-.4-.01-.15-.34-.47-.31-.11-.5-.6-.29-.01-.68-.52-.34-.32-.07-.24-.33-.34-.15-.04-.57-.14-.33-.44-.11-.25-1.27-.2-.36-.34.15-.99.16h-.46l-.5.1-.6.33-.93.03-.67-.1-.59.11-.22-.05.23 1.3-.2.34.06.26-.05.8.12.6.35.43.03.57-1.3.77-.38.41-.23.6-.69.8-.15.04.2 1.58-.67.04-.41-.27-.47-1-.05-.38-.18-.28-.08-.61-.5-.91-.88-.8-.44-.11-.27-.25.07-.23-.1-.81-.14-.06-.31-.7-.34-.08-.24-.4-.45-.07-.27-.67-.45-.28.04-1.85-.13-.52-.82-.84-.22-.08-.75-.5-.13-.24 1.72-.25.75.03.29-.09.7-.06.6.07.9-.05.72-.17.55.02.18-.32.21.02.24-.3-.01-.28.45-.45.35-.25.68-.9.13-.03.08-.7 1.17-1.25.16-.3.73-.5.36-.06.13-.17.32-.03.22-.22h.65l.76.7.47.68.25.58.27.06-.1.34.48.26-.12.78.34.38.25.51.26.12.25.44.36.32.05.26.48.35-.04.58.14.15.28-.17.4.05.36.37.54.94.01.8-.62.12-.08.27.24.35-.08.2.32.3-.11.46.17.46.29-.15.47.4.23-.1.49.84-.02.2.38.22.18-.17.35.7.26.02.55-1.17-.58-.22-.02-.37.45-.42.86.31.6-.32.3.03-.12.41-.38.23.01.57-.3.42.22.77.22.17.73.28.42.55-.08.87.12.28.54.87.65.35.77.58.4-.04M353.9 680.79l.3-.3.62-.8.87-.36.1-.26.34-.01.69-.34.44-.34.4-.93.1-.82.26-.2.2.11.34-.45.21.33.59-.1.06-.13.7.44.11.33-.14.35-.34.01-.3.8-.22.16-.24 1.18.42 1.16-.05.27-1.28.73-.16-.1-.7.3-.61.09-.59.34-1.28 2.25-.02.41-.3.42-.07.35.16.11-.2.23-.45-.13-.38-.38-.27.04-.26-.55-.3-.12-.16-.36v-.66l.08-.12-.01-.6.46-.71v-.57l.28-.6.6-.47m172.72 85.04-.05-.2.39-.2 1.05-1.05.22-.6.36-.15.24-.53.71-.42.66-.07.35.14.58-.34-.07-.6.3-.35.1-.3.22-.12-.01-.37.33-.64.31-.1-.06-.7.47-.6.6-.48.16-.47.23-.26.43-.22.37-.05.04-.54.18-.22-.11-.4.16-1.2-.35-.16.12-.17-1.2-1.35-.46-.43-.8-1.16-.06-.44-.27-.38-.48-1.66-.2-1.4.12-1.44.41-.97.4-.46.39-.2.67-.15.54-.03.42.28.4.01 1.84.7.11-.16.37.32h.21l.36.32.75.4-.1.43.41.36 1.66.88 1.38.53.5.4.09.36.19.1.54.05.31.23.22-.06.44.57.38.22.47-.1.44-.32.4-.1 1.63.5.84.1 1.3.42 1.14.28 1.5.65.14.2 1.34.5.67.33.23-.01.62.43 1.33.55.73.14.45.21.74.5.23.3h.31l.01.18 1.49.82.42.57.7.23.73.56.53.53.2.08.91.88.25.43-.04.16.3.14.2.39.66.27.25.49.26.25-.15.18.1.3-.16.77-.18.43.26.24-.11.4.17.45-.12 1.32.09.8.36.46.45-.04.26-.22.14.11.29-.3.29-.03.2-.26.4-.03.42.22.26-.25.47.07.44.54.7 1.44-.13.71v.61l.2.27-.11.16.12.47.81.55.63.05-.1.43.06.32.9.52.2.36.41.11.42.48.58.23.2.21.37.03.36.28.68.05.75.47.29-.02.6.32.21.45-.16.43-.3 1.2-.43.5-.15.28-1.15 1.2-.8.6-.12.33-.8.45-.56.55-.21-.01-.17.5-1.25 1.19-.23.38-1.3.79-.51.28-.9.35-.33.3-.54.15-.4.01-.66.64-.4.15-1.23.98-.52.06-.56.38-.53.03-.6.12-.28.34h-.65l-1.06-.2-.43-.22-.22.02-.58-.1-.5.25-.73.17-.43.38-.46.56-.7.38-.3.44-.13.45-.44.36-.68.35-.5.1-.32.2-.18.26-.64.2-.37.38-.22.4-.5.47-.27.37-.57.26-.22-.01-.58.29-.69.2-.35.27.04.32-.3.38-.33.1-.6.95-.51.56.19 1.14-.23.62-.26.4-.45.22-.14.27-.19.6-.33.42.04.75-.2.43-.83.05-.27.89-.41.52-.33.15-.32.5-.58.28-.15.19-.4.1-.09-1.01-.58-.5-.37-.17-.4-.41-.36-.23-.75-.12-.74-.28-.17-.26-1.12-.62-.5-.44h-.26l-1.17-.28-.62-.02-.71-.41-.51-.13-.2-.78-.63-.8-.41-.38-.2-.69-.35-.77-.04-.85.28-.77-.26-.21.29-.54-.1-.54.14-.93.25-.34-.16-.54.17-.76-.14-.31.38-1.83-.06-.5.05-.54-.12-.21.18-.5-.1-.7-.57-1.36-.51-.77.19-.63-.41-.4-.33-.65-.05-.75-.24-.24.2-.3.08-.42-.19-.26-.4-.03-.14.16-.54-.31.06-.39-.54-1.04.14-.22-.05-.39-.25-.75-.16.03-.02-.48-.12-.29-.13-.71-.35-.95-.36-.39-.03-.3-.4-.61-.2.1-.68-.43-.29.04-.36-.38.02-.47.16-.39-.23-.15-.1-.3-.42-.25-.17-.23-.09-.68-.53-.57.33-.38-.1-.47.16-.14-.02-.94.13-.49.4-.02m-28.88-49.76.53-1.3.12-.6.62.03.35-.41v-.39l.23-.11.35.14.74-.16.18-.27.6-.02.23.52h.4l.33.25.22-.09.47.65.21-.14.38.7.41-.12.05 1 .41.5.3.19.07.45.46.23.22.68.45.42.08.3 1.21-.02.97-.61.25.05 1.04-.34.38-.05.56-.62.76-.44.53-.03.6-.4.6.29.99-.3.39.47.43-.26.28.25.13-.2.5.06.34.31h.18l.05.58.53.02.18.46.68.36.13.26.4.32.63.34.01.27.6.2.3-.26.02.31.56-.06.16.76.27.1.29.5.25.09.82-.23 1.4.83.85.06 1.04.32.33.2.17.3.5.45.15 1.02.03 1.23-.14.23.01.37-.25.13-.18.45-.53.61-.16-.07-.48.2-.47.56.04.26-.23.38-.74.31-.57-.17-.6.43-.67.14-.06.2-.43.24-.17.31h-.27l-.18.22-.24-.23-.4-.06-.34.18-.55.02-.1-.18-.5-.04-.9.27-.81.56-.58.26-.5.36-.11-.02-.76.34-.28.28-.36.14-.96-.05-.66.25-.37-.12-.06.14-.95.27-.21-.1-.91-.03-.1-.15-.36.01-.09-.5-.27-.19-.21.25-.4-.17-.22-.25.13-.43-.1-.3-.63-.66.24-.13.18-.35v-.54l-.13-.31-.03-1.06-.16-.58-.06-.72-.37-.58-.17-.71-.03-.8-.07-.32-.55-.5-.64-.19-.68.06-.34.33-.17.35-.25.17-.47.1-.26-.26-.95-.46-.68-.08-1.03-.59-.4.11-.41-.24-.14-.36-.41-.42-.27-.05-.28-.42-.6-.59-.26-.12-.28-.58-.4-.3.15-.24v-.63l-.3-.45-.24-.14.12-.73.01-.62.3-.74m-139.58-40.83.51.16-.2.23-.4.01.1-.4m14.34-3.85.1-.62.2-.31.1-.6.32-.44.93-.57.37-.05 1.25-.45.36-.32.23-.04.5-.53.94-.5.99-.87.47-.02.13.12.3-.28.6.2.2.33.33-.08.53.04.29.46.5-.21-.12-.5.5-.46h.5l.44.25.42-.16.79.14.23.23.2-.3.69-.08.17-.31.52.4.27-.07.04.34.26-.07.75.18.3-.09.42.27.47.57.52.35.17.38-.03.21.41.56-.13.4.4.04.13.23.05.92-.14.35.02.43-.29.28-.05.36-.44.65-.04.62-.12.26-.45.23-.2 1.2.3 1.03-.1.29.22.04-.16.3.18 1.07-.2.2-.46.82-.28.02-.05.2-.26.02-.25.28-.46.2-.4.6.14.18-.4.02-.26.21-.03.21-.5.25-.07.27-.32.06-.28.3-.13-.03-.29.27-1.25-.54-.53-.13-.52.06-.44-.13-.59.18-.2-.1h-.79l-.75-.26-.18.05-.64-.42-.31.03.02.33-.22.12-.23-.33-.34-.08-.47-.3-.42-.54-.47-.5-.15-.34-.3-.02-.34-.47-.23-.08-1.35-.2-.34-.26-1.4-.34-.37-.14-.26-.3-.36-.83-.53-.55-.05-.5.12-.75v-.75l1.51-1.44.14-.35" fill="#d1dbdd" stroke="rgb(209, 219, 221)" stroke-width="0.1" data-originalStrokeWidth="0.1" style="stroke: rgb(0, 0, 0); fill: rgb(209, 219, 221); pointer-events: auto; stroke-width: 0.1;" pointer-events="auto"/>
      <g id="state_lines" stroke="rgb(209, 219, 221)" style="display: none; stroke: rgb(0, 0, 0);" stroke-width="0.1"/>
      <g id="state_abbr" fill="#000000" style="display: none; fill: rgb(0, 0, 0);">
        <text id="HI_label" x="491.79" y="769.82" style="font-size: 19.2455px; stroke-width: 1.60379; display: none;">
          <tspan id="HI_tspan" x="491.79" y="769.82" fill="#000000" dy="0" font-family="Arial" font-size="24.06" font-style="normal" font-weight="400" style="text-align: center; stroke-width: 2.57215; fill: rgb(0, 0, 0);" text-anchor="middle">HI</tspan>
        </text>
        <text id="AK_label" x="205.24" y="672.25" style="font-size: 19.2455px; stroke-width: 1.60379; display: none;">
          <tspan id="AK_tspan" x="205.24" y="672.25" fill="#000000" dy="0" font-family="Arial" font-size="24.06" font-style="normal" font-weight="400" style="text-align: center; stroke-width: 2.57215; fill: rgb(0, 0, 0);" text-anchor="middle">AK</tspan>
        </text>
        <text id="FL_label" x="1188.11" y="708.7" style="font-size: 19.2455px; stroke-width: 1.60379; display: none;">
          <tspan id="FL_tspan" x="1188.11" y="708.7" fill="#000000" dy="0" font-family="Arial" font-size="24.06" font-style="normal" font-weight="400" style="text-align: center; stroke-width: 2.57215; fill: rgb(0, 0, 0);" text-anchor="middle">FL</tspan>
        </text>
        <text id="NH_label" x="1306.05" y="167.79" stroke-width="1.1" font-size="13.25" style="display: none;">
          <tspan id="NH_tspan" x="1306.05" y="167.79" fill="#000000" stroke-width="1.1" dy="0" font-family="Arial" font-size="16.56" font-style="normal" font-weight="400" style="text-align: center; fill: rgb(0, 0, 0);" text-anchor="middle">NH</tspan>
        </text>
        <text id="MI_label" x="1019.65" y="246.58" style="font-size: 19.2455px; stroke-width: 1.60379; display: none;">
          <tspan id="MI_tspan" x="1019.65" y="246.58" fill="#000000" dy="0" font-family="Arial" font-size="24.06" font-style="normal" font-weight="400" style="text-align: center; stroke-width: 2.57215; fill: rgb(0, 0, 0);" text-anchor="middle">MI</tspan>
        </text>
        <text id="VT_label" x="1274.28" y="145.01" stroke-width="1.05" font-size="12.65" style="display: none;">
          <tspan id="VT_tspan" x="1274.28" y="145.01" fill="#000000" stroke-width="1.05" dy="0" font-family="Arial" font-size="15.81" font-style="normal" font-weight="400" style="text-align: center; fill: rgb(0, 0, 0);" text-anchor="middle">VT</tspan>
        </text>
        <text id="ME_label" x="1338.99" y="105.14" stroke-width="1.45" font-size="17.36" style="display: none;">
          <tspan id="ME_tspan" x="1338.99" y="105.14" fill="#000000" stroke-width="1.45" dy="0" font-family="Arial" font-size="21.7" font-style="normal" font-weight="400" style="text-align: center; fill: rgb(0, 0, 0);" text-anchor="middle">ME</tspan>
        </text>
        <text id="RI_label" x="1361.38" y="262.84" stroke-width="1.25" font-size="14.98" style="display: none;">
          <tspan id="RI_tspan" x="1361.38" y="262.84" fill="#000000" stroke-width="1.25" dy="0" font-family="Arial" font-size="18.72" font-style="normal" font-weight="400" style="text-align: center; fill: rgb(0, 0, 0);" text-anchor="middle">RI</tspan>
        </text>
        <text id="NY_label" x="1227.27" y="204.12" style="font-size: 19.2455px; stroke-width: 1.60379; display: none;">
          <tspan id="NY_tspan" x="1227.27" y="204.12" fill="#000000" dy="0" font-family="Arial" font-size="24.06" font-style="normal" font-weight="400" style="text-align: center; stroke-width: 2.57215; fill: rgb(0, 0, 0);" text-anchor="middle">NY</tspan>
        </text>
        <text id="PA_label" x="1187.28" y="284.69" style="font-size: 19.2455px; stroke-width: 1.60379; display: none;">
          <tspan id="PA_tspan" x="1187.28" y="284.69" fill="#000000" dy="0" font-family="Arial" font-size="24.06" font-style="normal" font-weight="400" style="text-align: center; stroke-width: 2.57215; fill: rgb(0, 0, 0);" text-anchor="middle">PA</tspan>
        </text>
        <text id="NJ_label" x="1330.57" y="290.09" stroke-width="1.28" font-size="15.4" style="display: none;">
          <tspan id="NJ_tspan" x="1330.57" y="290.09" fill="#000000" stroke-width="1.28" dy="0" font-family="Arial" font-size="19.25" font-style="normal" font-weight="400" style="text-align: center; fill: rgb(0, 0, 0);" text-anchor="middle">NJ</tspan>
        </text>
        <text id="DE_label" x="1320.8" y="328.42" stroke-width="1.36" font-size="16.38" style="display: none;">
          <tspan id="DE_tspan" x="1320.8" y="328.42" fill="#000000" stroke-width="1.36" dy="0" font-family="Arial" font-size="20.47" font-style="normal" font-weight="400" style="text-align: center; fill: rgb(0, 0, 0);" text-anchor="middle">DE</tspan>
        </text>
        <text id="MD_label" x="1310.72" y="368.46" stroke-width="1.34" font-size="16.11" style="display: none;">
          <tspan id="MD_tspan" x="1310.72" y="368.46" fill="#000000" stroke-width="1.34" dy="0" font-family="Arial" font-size="20.13" font-style="normal" font-weight="400" style="text-align: center; fill: rgb(0, 0, 0);" text-anchor="middle">MD</tspan>
        </text>
        <text id="VA_label" x="1198.59" y="392.33" style="font-size: 19.2455px; stroke-width: 1.60379; display: none;">
          <tspan id="VA_tspan" x="1198.59" y="392.33" fill="#000000" dy="0" font-family="Arial" font-size="24.06" font-style="normal" font-weight="400" style="text-align: center; stroke-width: 2.57215; fill: rgb(0, 0, 0);" text-anchor="middle">VA</tspan>
        </text>
        <text id="WV_label" x="1129.66" y="382.3" style="font-size: 19.2455px; stroke-width: 1.60379; display: none;">
          <tspan id="WV_tspan" x="1129.66" y="382.3" fill="#000000" dy="0" font-family="Arial" font-size="24.06" font-style="normal" font-weight="400" style="text-align: center; stroke-width: 2.57215; fill: rgb(0, 0, 0);" text-anchor="middle">WV</tspan>
        </text>
        <text id="OH_label" x="1079.05" y="334.46" style="font-size: 19.2455px; stroke-width: 1.60379; display: none;">
          <tspan id="OH_tspan" x="1079.05" y="334.46" fill="#000000" dy="0" font-family="Arial" font-size="24.06" font-style="normal" font-weight="400" style="text-align: center; stroke-width: 2.57215; fill: rgb(0, 0, 0);" text-anchor="middle">OH</tspan>
        </text>
        <text id="IN_label" x="998.79" y="352.94" style="font-size: 19.2455px; stroke-width: 1.60379; display: none;">
          <tspan id="IN_tspan" x="998.79" y="352.94" fill="#000000" dy="0" font-family="Arial" font-size="24.06" font-style="normal" font-weight="400" style="text-align: center; stroke-width: 2.57215; fill: rgb(0, 0, 0);" text-anchor="middle">IN</tspan>
        </text>
        <text id="IL_label" x="927.43" y="364.36" style="font-size: 19.2455px; stroke-width: 1.60379; display: none;">
          <tspan id="IL_tspan" x="927.43" y="364.36" fill="#000000" dy="0" font-family="Arial" font-size="24.06" font-style="normal" font-weight="400" style="text-align: center; stroke-width: 2.57215; fill: rgb(0, 0, 0);" text-anchor="middle">IL</tspan>
        </text>
        <text id="CT_label" x="1299.17" y="228.46" stroke-width="1.06" font-size="12.74" style="display: none;">
          <tspan id="CT_tspan" x="1299.17" y="228.46" fill="#000000" stroke-width="1.06" dy="0" font-family="Arial" font-size="15.93" font-style="normal" font-weight="400" style="text-align: center; fill: rgb(0, 0, 0);" text-anchor="middle">CT</tspan>
        </text>
        <text id="WI_label" x="898.6" y="224.7" style="font-size: 19.2455px; stroke-width: 1.60379; display: none;">
          <tspan id="WI_tspan" x="898.6" y="224.7" fill="#000000" dy="0" font-family="Arial" font-size="24.06" font-style="normal" font-weight="400" style="text-align: center; stroke-width: 2.57215; fill: rgb(0, 0, 0);" text-anchor="middle">WI</tspan>
        </text>
        <text id="NC_label" x="1205.6" y="458.72" style="font-size: 19.2455px; stroke-width: 1.60379; display: none;">
          <tspan id="NC_tspan" x="1205.6" y="458.72" fill="#000000" dy="0" font-family="Arial" font-size="24.06" font-style="normal" font-weight="400" style="text-align: center; stroke-width: 2.57215; fill: rgb(0, 0, 0);" text-anchor="middle">NC</tspan>
        </text>
        <text id="MA_label" x="1305.87" y="200.67" stroke-width="1.04" font-size="12.46" style="display: none;">
          <tspan id="MA_tspan" x="1305.87" y="200.67" fill="#000000" stroke-width="1.04" dy="0" font-family="Arial" font-size="15.58" font-style="normal" font-weight="400" style="text-align: center; fill: rgb(0, 0, 0);" text-anchor="middle">MA</tspan>
        </text>
        <text id="MO_label" x="854.22" y="422.93" style="font-size: 19.2455px; stroke-width: 1.60379; display: none;">
          <tspan id="MO_tspan" x="854.22" y="422.93" fill="#000000" dy="0" font-family="Arial" font-size="24.06" font-style="normal" font-weight="400" style="text-align: center; stroke-width: 2.57215; fill: rgb(0, 0, 0);" text-anchor="middle">MO</tspan>
        </text>
        <text id="GA_label" x="1106.89" y="574.56" style="font-size: 19.2455px; stroke-width: 1.60379; display: none;">
          <tspan id="GA_tspan" x="1106.89" y="574.56" fill="#000000" dy="0" font-family="Arial" font-size="24.06" font-style="normal" font-weight="400" style="text-align: center; stroke-width: 2.57215; fill: rgb(0, 0, 0);" text-anchor="middle">GA</tspan>
        </text>
        <text id="SC_label" x="1166.32" y="522.49" style="font-size: 19.2455px; stroke-width: 1.60379; display: none;">
          <tspan id="SC_tspan" x="1166.32" y="522.49" fill="#000000" dy="0" font-family="Arial" font-size="24.06" font-style="normal" font-weight="400" style="text-align: center; stroke-width: 2.57215; fill: rgb(0, 0, 0);" text-anchor="middle">SC</tspan>
        </text>
        <text id="KY_label" x="1039.99" y="426.39" style="font-size: 19.2455px; stroke-width: 1.60379; display: none;">
          <tspan id="KY_tspan" x="1039.99" y="426.39" fill="#000000" dy="0" font-family="Arial" font-size="24.06" font-style="normal" font-weight="400" style="text-align: center; stroke-width: 2.57215; fill: rgb(0, 0, 0);" text-anchor="middle">KY</tspan>
        </text>
        <text id="AL_label" x="1019.59" y="578.15" style="font-size: 19.2455px; stroke-width: 1.60379; display: none;">
          <tspan id="AL_tspan" fill="#000000" dy="0" font-family="Arial" font-size="24.06" font-style="normal" font-weight="400" style="text-align: center; stroke-width: 2.57215; fill: rgb(0, 0, 0);" text-anchor="middle">AL</tspan>
        </text>
        <text id="LA_label" x="872.7" y="649.59" style="font-size: 19.2455px; stroke-width: 1.60379; display: none;">
          <tspan id="LA_tspan" x="872.7" y="649.59" fill="#000000" dy="0" font-family="Arial" font-size="24.06" font-style="normal" font-weight="400" style="text-align: center; stroke-width: 2.57215; fill: rgb(0, 0, 0);" text-anchor="middle">LA</tspan>
        </text>
        <text id="MS_label" x="940.37" y="592.21" style="font-size: 19.2455px; stroke-width: 1.60379; display: none;">
          <tspan id="MS_tspan" x="940.37" y="592.21" fill="#000000" dy="0" font-family="Arial" font-size="24.06" font-style="normal" font-weight="400" style="text-align: center; stroke-width: 2.57215; fill: rgb(0, 0, 0);" text-anchor="middle">MS</tspan>
        </text>
        <text id="IA_label" x="823.33" y="308.44" style="font-size: 19.2455px; stroke-width: 1.60379; display: none;">
          <tspan id="IA_tspan" x="823.33" y="308.44" fill="#000000" dy="0" font-family="Arial" font-size="24.06" font-style="normal" font-weight="400" style="text-align: center; stroke-width: 2.57215; fill: rgb(0, 0, 0);" text-anchor="middle">IA</tspan>
        </text>
        <text id="MN_label" x="790.84" y="183.37" style="font-size: 19.2455px; stroke-width: 1.60379; display: none;">
          <tspan id="MN_tspan" x="790.84" y="183.37" fill="#000000" dy="0" font-family="Arial" font-size="24.06" font-style="normal" font-weight="400" style="text-align: center; stroke-width: 2.57215; fill: rgb(0, 0, 0);" text-anchor="middle">MN</tspan>
        </text>
        <text id="OK_label" x="732.05" y="519.54" style="font-size: 19.2455px; stroke-width: 1.60379; display: none;">
          <tspan id="OK_tspan" x="732.05" y="519.54" fill="#000000" dy="0" font-family="Arial" font-size="24.06" font-style="normal" font-weight="400" style="text-align: center; stroke-width: 2.57215; fill: rgb(0, 0, 0);" text-anchor="middle">OK</tspan>
        </text>
        <text id="TX_label" x="710.59" y="652.87" style="font-size: 19.2455px; stroke-width: 1.60379; display: none;">
          <tspan id="TX_tspan" x="710.59" y="652.87" fill="#000000" dy="0" font-family="Arial" font-size="24.06" font-style="normal" font-weight="400" style="text-align: center; stroke-width: 2.57215; fill: rgb(0, 0, 0);" text-anchor="middle">TX</tspan>
        </text>
        <text id="NM_label" x="506.94" y="542.36" style="font-size: 19.2455px; stroke-width: 1.60379; display: none;">
          <tspan id="NM_tspan" x="506.94" y="542.36" fill="#000000" dy="0" font-family="Arial" font-size="24.06" font-style="normal" font-weight="400" style="text-align: center; stroke-width: 2.57215; fill: rgb(0, 0, 0);" text-anchor="middle">NM</tspan>
        </text>
        <text id="KS_label" x="701.21" y="427.26" style="font-size: 19.2455px; stroke-width: 1.60379; display: none;">
          <tspan id="KS_tspan" x="701.21" y="427.26" fill="#000000" dy="0" font-family="Arial" font-size="24.06" font-style="normal" font-weight="400" style="text-align: center; stroke-width: 2.57215; fill: rgb(0, 0, 0);" text-anchor="middle">KS</tspan>
        </text>
        <text id="NE_label" x="686.63" y="337.29" style="font-size: 19.2455px; stroke-width: 1.60379; display: none;">
          <tspan id="NE_tspan" x="686.63" y="337.29" fill="#000000" dy="0" font-family="Arial" font-size="24.06" font-style="normal" font-weight="400" style="text-align: center; stroke-width: 2.57215; fill: rgb(0, 0, 0);" text-anchor="middle">NE</tspan>
        </text>
        <text id="SD_label" x="663.02" y="238.75" style="font-size: 19.2455px; stroke-width: 1.60379; display: none;">
          <tspan id="SD_tspan" x="663.02" y="238.75" fill="#000000" dy="0" font-family="Arial" font-size="24.06" font-style="normal" font-weight="400" style="text-align: center; stroke-width: 2.57215; fill: rgb(0, 0, 0);" text-anchor="middle">SD</tspan>
        </text>
        <text id="ND_label" x="663.02" y="150.75" style="font-size: 19.2455px; stroke-width: 1.60379; display: none;">
          <tspan id="ND_tspan" x="663.02" y="150.75" fill="#000000" dy="0" font-family="Arial" font-size="24.06" font-style="normal" font-weight="400" style="text-align: center; stroke-width: 2.57215; fill: rgb(0, 0, 0);" text-anchor="middle">ND</tspan>
        </text>
        <text id="WY_label" x="499.57" y="276.47" style="font-size: 19.2455px; stroke-width: 1.60379; display: none;">
          <tspan id="WY_tspan" x="499.57" y="276.47" fill="#000000" dy="0" font-family="Arial" font-size="24.06" font-style="normal" font-weight="400" style="text-align: center; stroke-width: 2.57215; fill: rgb(0, 0, 0);" text-anchor="middle">WY</tspan>
        </text>
        <text id="MT_label" x="487.84" y="155.58" style="font-size: 19.2455px; stroke-width: 1.60379; display: none;">
          <tspan id="MT_tspan" x="487.84" y="155.58" fill="#000000" dy="0" font-family="Arial" font-size="24.06" font-style="normal" font-weight="400" style="text-align: center; stroke-width: 2.57215; fill: rgb(0, 0, 0);" text-anchor="middle">MT</tspan>
        </text>
        <text id="CO_label" x="525.13" y="406.28" style="font-size: 19.2455px; stroke-width: 1.60379; display: none;">
          <tspan id="CO_tspan" x="525.13" y="406.28" fill="#000000" dy="0" font-family="Arial" font-size="24.06" font-style="normal" font-weight="400" style="text-align: center; stroke-width: 2.57215; fill: rgb(0, 0, 0);" text-anchor="middle">CO</tspan>
        </text>
        <text id="ID_label" x="339.94" y="235.07" style="font-size: 19.2455px; stroke-width: 1.60379; display: none;">
          <tspan id="ID_tspan" x="339.94" y="235.07" fill="#000000" dy="0" font-family="Arial" font-size="24.06" font-style="normal" font-weight="400" style="text-align: center; stroke-width: 2.57215; fill: rgb(0, 0, 0);" text-anchor="middle">ID</tspan>
        </text>
        <text id="UT_label" x="396.81" y="386.73" style="font-size: 19.2455px; stroke-width: 1.60379; display: none;">
          <tspan id="UT_tspan" x="396.81" y="386.73" fill="#000000" dy="0" font-family="Arial" font-size="24.06" font-style="normal" font-weight="400" style="text-align: center; stroke-width: 2.57215; fill: rgb(0, 0, 0);" text-anchor="middle">UT</tspan>
        </text>
        <text id="AZ_label" x="366.76" y="536.9" style="font-size: 19.2455px; stroke-width: 1.60379; display: none;">
          <tspan id="AZ_tspan" x="366.76" y="536.9" fill="#000000" dy="0" font-family="Arial" font-size="24.06" font-style="normal" font-weight="400" style="text-align: center; stroke-width: 2.57215; fill: rgb(0, 0, 0);" text-anchor="middle">AZ</tspan>
        </text>
        <text id="NV_label" x="262.47" y="370.64" style="font-size: 19.2455px; stroke-width: 1.60379; display: none;">
          <tspan id="NV_tspan" x="262.47" y="370.64" fill="#000000" dy="0" font-family="Arial" font-size="24.06" font-style="normal" font-weight="400" style="text-align: center; stroke-width: 2.57215; fill: rgb(0, 0, 0);" text-anchor="middle">NV</tspan>
        </text>
        <text id="OR_label" x="214.43" y="206.88" style="font-size: 19.2455px; stroke-width: 1.60379; display: none;">
          <tspan id="OR_tspan" x="214.43" y="206.88" fill="#000000" dy="0" font-family="Arial" font-size="24.06" font-style="normal" font-weight="400" style="text-align: center; stroke-width: 2.57215; fill: rgb(0, 0, 0);" text-anchor="middle">OR</tspan>
        </text>
        <text id="WA_label" x="238.05" y="102.99" style="font-size: 19.2455px; stroke-width: 1.60379; display: none;">
          <tspan id="WA_tspan" x="238.05" y="102.99" fill="#000000" dy="0" font-family="Arial" font-size="24.06" font-style="normal" font-weight="400" style="text-align: center; stroke-width: 2.57215; fill: rgb(0, 0, 0);" text-anchor="middle">WA</tspan>
        </text>
        <text id="CA_label" x="191.69" y="434.8" style="font-size: 19.2455px; stroke-width: 1.60379; display: none;">
          <tspan id="CA_tspan" x="191.69" y="434.8" fill="#000000" dy="0" font-family="Arial" font-size="24.06" font-style="normal" font-weight="400" style="text-align: center; stroke-width: 2.57215; fill: rgb(0, 0, 0);" text-anchor="middle">CA</tspan>
        </text>
        <text id="DC_label" x="1309.32" y="398.19" stroke-width="1.29" font-size="15.45" style="display: none;">
          <tspan id="DC_tspan" x="1309.32" y="398.19" fill="#000000" stroke-width="1.29" dy="0" font-family="Arial" font-size="19.31" font-style="normal" font-weight="400" style="text-align: center; fill: rgb(0, 0, 0);" text-anchor="middle">DC</tspan>
        </text>
        <text id="TN_label" x="1018.93" y="485.72" style="font-size: 19.2455px; stroke-width: 1.60379; display: none;">
          <tspan id="TN_tspan" x="1018.93" y="485.72" fill="#000000" dy="0" font-family="Arial" font-size="24.06" font-style="normal" font-weight="400" style="text-align: center; stroke-width: 2.57215; fill: rgb(0, 0, 0);" text-anchor="middle">TN</tspan>
        </text>
        <text id="AR_label" x="863.15" y="535.77" style="font-size: 19.2455px; stroke-width: 1.60379; display: none;">
          <tspan id="AR_tspan" x="863.15" y="535.77" fill="#000000" dy="0" font-family="Arial" font-size="24.06" font-style="normal" font-weight="400" style="text-align: center; stroke-width: 2.57215; fill: rgb(0, 0, 0);" text-anchor="middle">AR</tspan>
        </text>
      </g>
      <g id="state_borders" transform="translate(-0.04777967,-0.15336683)" stroke="rgb(209, 219, 221)" style="stroke: rgb(0, 0, 0);" stroke-width="0.3"/>
      <rect id="selection-rectangle" fill="#ffffccaa" stroke="rgb(209, 219, 221)" stroke-width="0.1"/>
      <ellipse id="selection-ellipse" fill="#ffffccaa" stroke="rgb(209, 219, 221)" stroke-width="0.1"/>
      <polygon id="selection-polygon" fill="#ffffccaa" stroke="rgb(209, 219, 221)" stroke-width="0.1"/>
      <polyline id="selection-polyline" fill="#ffffccaa" stroke="rgb(209, 219, 221)" stroke-width="0.1"/>
    </svg>
  </g>
  <svg id="legend-svg" width="100%" height="100%" style="overflow:visible;" class="ui-draggable ui-draggable-handle" x="1328.321548461914" y="504">
    <g id="legend-g-svg" fill="#000" transform="translate(0,0) scale(1)" style="font-family: Helvetica; font-weight: 400; font-style: normal;">
      <rect id="legend-bg-rect-svg" x="0" y="0" rx="3.8" ry="3.8" width="190" height="20" fill="#000000" stroke="rgb(209, 219, 221)" fill-opacity="0" stroke-width="0.1"/>
    </g>
  </svg>
</svg>
