<?xml version='1.0' encoding='UTF-8'?>
<svg xmlns="http://www.w3.org/2000/svg" xmlns:dc="http://purl.org/dc/elements/1.1/" xmlns:ns2="http://creativecommons.org/ns#" xmlns:rdf="http://www.w3.org/1999/02/22-rdf-syntax-ns#" id="wrapper" viewBox="0 0 1520 840" preserveAspectRatio="xMinYMin" height="840" width="1520" style="background-color: rgb(255, 255, 255);">
  <metadata>
    <rdf:rdf>
      <ns2:work rdf:about="">
        <dc:format>image/svg+xml</dc:format>
        <dc:type rdf:resource="http://purl.org/dc/dcmitype/StillImage"/>
        <dc:title>MapChart Map</dc:title>
        <dc:creator>
          <ns2:agent>
            <dc:title>MapChart.net</dc:title>
          </ns2:agent>
        </dc:creator>
        <ns2:license rdf:resource="http://creativecommons.org/licenses/by-sa/4.0/"/>
        <dc:description>This map was created with MapChart.net, a website for creating custom maps.</dc:description>
      </ns2:work>
      <ns2:license rdf:about="http://creativecommons.org/licenses/by-sa/4.0/">
        <ns2:permits rdf:resource="http://creativecommons.org/ns#Reproduction"/>
        <ns2:permits rdf:resource="http://creativecommons.org/ns#Distribution"/>
        <ns2:requires rdf:resource="http://creativecommons.org/ns#Notice"/>
        <ns2:requires rdf:resource="http://creativecommons.org/ns#Attribution"/>
        <ns2:requires rdf:resource="http://creativecommons.org/ns#ShareAlike"/>
      </ns2:license>
    </rdf:rdf>
  </metadata>
  <g id="map-group" transform="translate(-353.3780131915371,-142.3803902713812) scale(3.1971586614446528)">
    <svg id="map" width="1520" height="840" version="1.1" viewBox="0 0 1520 840" preserveAspectRatio="xMinYMin" data-originalStrokeWidth="0.3">
      <defs>
        <pattern id="circles3" width="10" height="10" patternUnits="userSpaceOnUse">    <rect width="10" height="10" fill="#fff"/>    <circle cx="4" cy="4" r="2" fill="#000"/>    </pattern>
        <pattern id="diagonal1" width="10" height="10" patternUnits="userSpaceOnUse">    <rect width="10" height="10" fill="#fff"/>    </pattern>
        <pattern id="diagonal3" width="10" height="10" patternUnits="userSpaceOnUse">    <rect width="10" height="10" fill="#fff"/>    </pattern>
        <pattern id="vertical1" width="10" height="10" patternUnits="userSpaceOnUse">    <rect width="10" height="10" fill="#fff"/>    <rect x="2" y="0" width="1" height="10" fill="#000"/>    </pattern>
        <pattern id="vertical3" width="10" height="10" patternUnits="userSpaceOnUse">    <rect width="10" height="10" fill="#fff"/>    <rect x="2" y="0" width="3" height="10" fill="#000"/>    </pattern>
        <pattern id="horizontal1" width="10" height="10" patternUnits="userSpaceOnUse">    <rect width="10" height="10" fill="#fff"/>    <rect x="0" y="2" width="10" height="1" fill="#000"/>    </pattern>
        <pattern id="horizontal3" width="10" height="10" patternUnits="userSpaceOnUse">    <rect width="10" height="10" fill="#fff"/>    <rect x="0" y="2" width="10" height="3" fill="#000"/>    </pattern>
        <pattern id="crosshatch" width="8" height="8" patternUnits="userSpaceOnUse">    <rect width="8" height="8" fill="#fff"/>    </pattern>
        <pattern id="subtlepatch" width="5" height="5" patternUnits="userSpaceOnUse">    <rect width="5" height="5" fill="#fff"/>    <rect x="2" y="2" width="1" height="1" fill="#000"/>    </pattern>
        <pattern id="checkers" width="8" height="8" patternUnits="userSpaceOnUse">    <rect width="8" height="8" fill="#fff"/>    </pattern>
        <pattern id="raindrops" width="10" height="10" patternUnits="userSpaceOnUse">    <rect width="10" height="10" fill="#fff"/>    </pattern>
        <pattern id="texture" width="4" height="4" patternUnits="userSpaceOnUse">    <rect width="4" height="4" fill="#fff"/>    </pattern>
        <pattern id="circles3_a03500_000000" width="10" height="10" patternUnits="userSpaceOnUse">    <rect width="10" height="10" fill="#a03500"/>    <circle cx="4" cy="4" r="2" fill="#000000"/>    </pattern>
        <pattern id="diagonal1_d9b400_535353" width="10" height="10" patternUnits="userSpaceOnUse">    <rect width="10" height="10" fill="#d9b400"/>    </pattern>
        <pattern id="diagonal3_3264c8_ffffff" width="10" height="10" patternUnits="userSpaceOnUse">    <rect width="10" height="10" fill="#3264c8"/>    </pattern>
        <pattern id="horizontal1_72b38e_000000" width="10" height="10" patternUnits="userSpaceOnUse">    <rect width="10" height="10" fill="#72b38e"/>    <rect x="0" y="2" width="10" height="1" fill="#000000"/>    </pattern>
        <pattern id="horizontal3_986ba1_ffffff" width="10" height="10" patternUnits="userSpaceOnUse">    <rect width="10" height="10" fill="#986ba1"/>    <rect x="0" y="2" width="10" height="3" fill="#ffffff"/>    </pattern>
        <pattern id="vertical1_b9a087_ffffff" width="10" height="10" patternUnits="userSpaceOnUse">    <rect width="10" height="10" fill="#b9a087"/>    <rect x="2" y="0" width="1" height="10" fill="#ffffff"/>    </pattern>
        <pattern id="vertical3_4c91bf_ffff33" width="10" height="10" patternUnits="userSpaceOnUse">    <rect width="10" height="10" fill="#4c91bf"/>    <rect x="2" y="0" width="3" height="10" fill="#ffff33"/>    </pattern>
        <pattern id="checkers_cc3333_f7f7f7" width="8" height="8" patternUnits="userSpaceOnUse">    <rect width="8" height="8" fill="#cc3333"/>    </pattern>
        <pattern id="texture_d1dbdd_525252" width="4" height="4" patternUnits="userSpaceOnUse">    <rect width="4" height="4" fill="#d1dbdd"/>    </pattern>
        <style id="map-style">svg { background-color: #ffffff; }</style>
      </defs>
      <path id="ID01" d="m332.95 61.04-.15.86-.03.19-.25 1.58-.51 3.15-.02.1-.06.37-.18 1.13-.25 1.55-.06.36-.12.73-.04.2-.11.7-.06.38-.07.37-.01.13-.02.16-.02.05-.12.7-.05.44-.67 4.1-.14.83-.14.88-.14.85-.16 1.03-.44 2.67-.11.64-.38 2.33-.1.64-.15.9-.01.06v.02l-.06.39-.04.25-.46 2.76.04.07.06.04.07.1h.06l.17.12.07.09.1.14.17.42v.12l-.02.1.16.16.04.4.15.14.04.1-.01.1.26.12.03.24-.08.24.16.05.4.6.26.8.18.16.13.34.45-.13.16.48.35.3.07.42-.08.14-.03.52-.07.2.2.56-.06.25.2.32.11-.04.46-.02.27.53-.12.37.16.42.22.03.21.04.4.45.14.34-.17.39-.02.27-.3.52.05.42.45.32.23.38.03.21-.19.18.01.2.15.31-.41.27-.06.22-.33-.02-.1.2-.38.14-.14.16-.22.17.03.3.42.26.38.16.2-.02.11.22-.36.08-.02.14.08.24.09.19.16.16.04.55.2-.01h.09l.12-.05.1.36.28.03.3-.06.1.08-.34.58-.38.11-.42-.04-.3-.17-.08.07-.12.03-.36-.03-.34.2-.34.01-.34.5.04.07.39-.05.38.08.13.34.19.04.13.02.44.26-.08.22.29.03.29.53.03.32.13-.05.43-.03.3.22.11.2.04.02.31.18v.3l.15.13.03.06.05.02h.05l.09-.05.16.26-.1.4.22.19-.08.1.13.36.05.16.03.03-.03.06v.1l-.03.04v.1l.13.05.06.03.23.21.37.19.02.06.09.16.23-.04.06-.05.06-.04.17.32.4.05.03-.02h.23l.06.3.19.25.57-.03.39.29.2.02h.33l.32.27.1.15-.17.16.22.55.08.02.07.07.02.04.07.04.01.11.04.07-.01.11v.07l.05.11-.02.05-.1.1-.1.2-.03.1-.04.06v.08l-.03.07.04.03.08.05.08.01.05.08.02.03.1.02.09.05.03.02h.08l.07.03.17.04.07.2v.39l.1.14v.13l.08.15.34.11h.09l.05.06.05.05.02.06.02.05.03.04h.04l.08.07h.05l.02.03h.09v.1l.08.08.02.06.05.06.07.06-.02.07v.08l.02.07.02.05.08.04v.1l.03.07.05.1.02.01-.01.08v.08l.2.16.04.03.04-.02.05.02.06.04.07.02.06-.04.04.03.03.01v.06l.04.05.02.07-.05.04v.03l-.03.05-.01.12v.08l.03.07-.02.15.05.07.03.05.02.13.06.15.05.05.1.03-.01.08.07.1.2.4.39.14.05.51.17.24-.06.3.1.44-.1.15.13.13.21.37-.06.24v.06l.39.05.08-.13.59.22-.03.14.27.46-.04.12.3.41.2.2-.05.09.37.25.18.18.15.02.05.23-.17.05-.21.38.06.47-.06.2-.3.2-.13.22.1.14.3.1.01.14-.02.18-.04.03.02.15.07.39.45.22.07.17-.13.24.03.23.22-.2.47-.1.09.3.3.42.13.04.1.31.23.12h.21l.17.2h.16l.13-.08.03.38.2.14.15.26-.14.58-.37.35-.03.21-.15.14.09.22.29.15.01.24.29.04.35-.42.5.01.15-.1.08-.3.15-.07.12-.29.17.14.22-.03.25.03.44.3v.26l.37.41.08.16-.15.5-.42.31v.22l.13.1-.16.1.02.07.12.16.22.07.16.36-.08.29.29.09.17.12.18.03.07-.05.24-.21.14.09.38-.09.12-.14.34.35.56.19.32.23.3.03.37-.24v-.22l.69-.3.24.17.41-.2.25.1.38-.13h.14l.05-.05-.02.07.06.15.08.06.07.03.1.03h.12l.12.11.04.14.02.03.05.03v.1l.04.05v.07l-.06.1v.08l.04.08-.03.04-.05.1v.13l-.02.05v.06l-.06.1-.01.02-.08.05v.1l.02.02v.06l.04.06.02.04-.02.03-.08.1-.06.07h-.03l-.01.06-.02.1-.06.07-.1.09-.04.01h-.08l-.07.08.06.06.03.04.03.12.03.04.04.1.07.07v.05l-.05.1-.04.04-.07.09-.06.05-.04.07-.02.06-.07.12-.03.08-.12.07v.02l.03.11v.05l-.01.1-.02.13-.02.06-.04.07-.04.03v.07l-.02.05v.1l.02.03.07.1v.1l-.03.06-.09.07-.04.15h-.06l-.04.07-.07.02-.07.04h-.04l-.05-.03-.13-.01-.03.05-.15.04-.08-.06-.07-.06-.09.02-.15-.01-.06.03h-.06l-.06.03-.04.07-.02.13v.05l.02.13-.02.1-.02.22.03.07.05.1.01.12.12.06.11.07.01.11.06.1-.08.21-.04.05-.04.1v.07l.1.06.02.04.07.02.05.02v.1l.05.06-.01.04-.23.02-.1.07-.05.13-.01.19-.02.11v.03l-.02.1-.03.1h-.05l-.14.01-.11.1-.06.02v.07l-.04.04-.07-.01h-.07l-.06.05v.09l-.07.03-.08.05-.02.02-.06.05-.1.1.01.09.04.04-.01.07.03.13v.1l.06.2.05.08-.04.05v.08l-.04.08v.1l-.02.12-.03.02-.03.07v.06l-.05.2-.02.14-.07.09-.1.03-.02.11-.04.1-.06.08-.04.1-.03.05-.06.07-.06.09-.02.1-.04.04.02.04-.02.08v.04l.03.04v.27l.06.11-.06.07-.02.07-.06.05-.06.08-.06.06-.1.01-.05.04-.08.04-.2.02-.19-.1-.05-.02-.04.04-.03.05-.06.07-.03.08v.06l.02.07v.14l.05.16-.05.05-.03.06.02.02.17.15.12.1v.05l.03.09v.07l.02.14-.02.16v.17l-.08.1-.06.02v.15l.05.1.07.16-.01.07-.02.04-.02.12v.09l-.04.06v.1l-.04.12v.06l-.01.09-.02.07-.02.07.02.14-.03.07-.1-.05h-.06l-.06-.06-.03-.02-.15.06-.03.07h-.08l-.05.04-.11.07h-.07l-.1-.08-.04-.1-.08-.07-.1-.02h-.1l-.1.06h-.09l-.1-.08-.06-.05-.01.03-.02.1-.01.06.02.04-.03.05-.01.09.02.05-.02.04-.11.01-.05.04-.05.05-.06.03-.05.07.1.25v.05l.02.01.05.02-.04.13-.08.14v.05l.05.06.1.05.04.06.09.04.05.05.04-.02.09.03.01.02.06.03.08.13.04.02h.1l.08.03.14.02-.02.04.03.12.03.09.04.02.06.09v.04l.07.09.01.15-.04.12v.1l-.06.11-.02.1v.06l-.13.02-.07-.01h-.03l.02.08-.01.05-.05.1.07.08.04.05-.05.08-.03.03-.08.03h-.03l-.03.08-.12.06h-.08l-.18.04h-.03l-.01.04v.05l-.08.14-.04.05v.03l-.05.02-.07-.02h-.04l-.02.05-.05.04-.01.08.02.06-.05.07-.01.02.05.05.15.08.19.02.05-.05h.14l.02.14.02.05.02.1v.03l.02.1v.16l-.08.04-.05.02-.1.05-.05-.01-.08.12v.08l.03.18.07.07.02.04.1.04.09-.02.07-.05.06-.03.05-.02h.14l.04.14v.03l.02.06.01.03.05.02.03.07.13.02h.07l.04.01h.05l.05.04.1.02v.04l.06.04.07.11.09.03.05.06.05.05-.01.11.04.1.05.05.03.1v.03l.03.09h.02l-.04.05v.13l-.06.03-.07.05-.05.04-.04-.02-.06.07-.02.05-.02.02-.1.02-.05.04v.03l-.1.02-.01.07-.03.04-.13.06v.06l.05.1.05.04.01.08.04.07.07.06.02.05.06.1-.05.1.02.14v.08l.07.1.03.06.05.09.02.02.07.05.03.02.05.03.02.12.04.07-.03.09.02.01.08.01.02.11-.02.16-.06.1-.07.04-.01.06-.03.03-.05.05-.01.07-.04.02h-.05l-.05-.04h-.04l-.05.03-.02.06.03.06-.06.07v.11l-.04.06-.04.13-.04.1-.14-.07-.05-.03-.04-.07-.07-.03-.03-.07-.05-.02-.07-.07-.08-.04-.03-.05-.17.01-.06.02-.02.05-.1.08-.07.03h-.05l-.1-.02-.06.06-.03.02h-.1l-.07.1-.07.04-.12-.1v-.04l-.07-.06h-.04l-.06.04h-.12l-.08-.04-.03.02-.08.06-.01.04h-.14l-.06.08v.01l-.08.06-.01.03-.06.1-.02.05.02.07.07.07.03.02-.04.04-.07.05-.04.03-.1.02-.03.03-.07.03-.01.04-.12.03-.04.1.04.08-.03.1-.05.04-.1.08-.02.04-.03.05-.1.09-.03.02-.04.01v.1l-.01.15-.05-.02-.08.05-.14.03-.04.1-.13.08-.04.07-.02.06-.02.04-.04.05.04.08.05.05.03.11.03.05.07.03h.06l.12.17v.05l-.04.05v.05l-.04.07.01.06v.13l-.05.04-.01.05.03.01.14.11.06.05.02.02.02.07.04.05v.03l.05.09v.1l.03.02.07.03.04.03h.05l.09-.01.05.07.1.08.06.06v.03l.01.07v.05l.11.42-.18.3-.34.24.3.12-.04.44-.23.3-.37.23-.12-.13-.23.03-.1.25h-.41l-.1.26.16.44.17.09.11.35-.25.17-.3.44.09.27-.36.49v.05l-.34.38-.11-.04-.31.3-.54.1-.34.25-.16.37-.37.4-.03.2-.36.43-.35-.16.05-.3-.2-.24-.28-.1-.33.04-.32-.07-.45-.42-.2-.35-.43-.1-.15.11-.15.33.1.12-.2.54.13.33v.3l-.08.07-.14.4.02.15.52.15.08.22-.12.19.13.3.34.31.13.3.38.03.14.3.04.27.13.06.04.3.45.26-.1.26.1.37.26.33.28.5.16.07.11.29.42.48.25-.02-.39.48-.39.13-.39.37-.26.11-.25.22-.17.37-.23.05-.29.45v.18l-.2.4-.24.26-.38.02-.2.28.04.09-.14.46-.24.26.06.18-.03.48.07.3-.25.38-.12.42.24.21-.2.28-.08.55.08.19-.14.33.08.13-.17.46v.67l-.17.05-.03.19-.25.73.1.21-.18.52.16.06.02.44-.3.27.12.15-.11.16.07.48-.15.18.17.13-.2.09-.1.24-.37-.07-.02.16-.24-.09-.18.13-.02.19.15.22-.24.2.02.3h-.35l-.08.16h-.2l-.07.26-.12.03-.37.5-.45.06-.52.57-.1-.13-.32.15-.62.4-.04.15h-.34l-.11.33-.34.37-.36.03-.04.19-.28.07-.3-.15-.06-.14-.28-.08-.32.02.03.15-.33.23-.09-.56.13-.14-.1-.27-.33.25-.05-.5-.61-.37-.11-.34-.3-.1-.07.13-.69.33-.43.27-.1.2-.3.19.06.22.16.1-.03.18-.27.35-.17.73-.48.88-.31.04-.1.24-.32.15-.08.19-.2-.2-.1.1-.2-.18-.1.39-.2-.16-.53.13-.1.29-.44-.24-.08.25-.3.28-.05.16-.25.2.02.67.12.53-.13.32.28.23-.05.24.55.14.2-.05.01.25.16.04-.05.45.16.22-.03.48-.22.15.22.25-.22.1.02.58-.1.54-.16.32-.14.08-.08.25-.17.12-.01.29-.35.3-.05.2-.35.3-.23-.02-.08.4-.22.06-.02.25.08.32.2.11.11.26.46.2-.02.46.14.1.01-.2.15-.21.34.05.17.15v.52l.11.18.37-.1.23-.25.17.45-.06.43.06.22-.09.14.16.31-.1.3-.34.07.03.47.14.24-.16.33.48.47.29-.02.41.6v.19l.23-.1.19.08.16-.1.2.16.19.41.26-.1.14.18.29.03.13.17.09.47-.32.4-.44.16.12.24.23.13.13.4.5.07-.1.39-.28.23-.2-.12-.21.24-.23.1.02.22-.2.03-.13.24-.08.4.27.63.27.13.03.13h.24l.22-.2.1.3.22.06-.03.32-.18.26.04.1.38.28-.15.34h-.17l-.22.3-.14.29-.48-.08-.14-.14-.27-.05-.15-.14-.24.22-.34.06-.14.14-.17-.19.08-.23-.25-.01-.13-.27.28-.3-.05-.16-.33.01-.16.1-.18-.3-.42-.23-.01-.3-.17-.33.14-.32-.08-.67.09-.21-.04-.67-.13-.18v-.29l-.31-.52-.6-.28-.45-.12.44.55.15.5-.32.34-.26.72-.45.48-.08.25-.44.29-.36.45-.35.56-.14.58-.24.16-.48.12-.53.03-.2.13-.4-.02-.21-.2h-.34l-.26.2-.79.08-.1.07-.55.1-.13-.06-.33.2-.25-.02-.41.05-.21.14-.34.47-.01.18-.18.13-.25.07-.09.2.09.54-.09.15.05.34-.2.23-.22.11-.08.32-.54-.13-.44-.22-.43.4-.11.03-.23.37.05.2-.47.5.14.13-.06.27.06.15-.09.19-.17-.05-.08.39-.16.1-.12.19-.17-.05-.28.09-.86.83-.16-.05-.22.16-.3-.25-.14.43-.24-.05-.14.24-.2.06-.05-.23-.29-.05-.65.26.02.15-.47.4-.2-.06-.04.3-.24.13-.07-.11-.29-.04-.15.14-.25-.01-.31.29-.18-.22-.26-.08-.38.14-.37-.16-.06-.41-.2-.06-.3.18-.06.37-.44-.13-.12.15-4.1-5.86-1.18-1.66-.2.93-.58.28-.42.42-.05.21-.34.18-.23 1.19-.73-.33-.45 2.58-.17 1.01 1.9.33.02.06.5.1-.06.1.08.44 1.74.73.07.27.13.75.3.7.45.54.18.46.62 1.09.38.4.26.34.88 1.68-.4 2.46h-.03l-.44 2.67h-.03l-.44 2.71-.88-.15-3.14-.5v.02l-2.5-.4-.04.18.6.48.32-.02.4.17.25.4-.38.3-.08.54.07.16.51.3.22.18.36.01.2.2-.03.22-.2.15.02.26h.35l.32.2.45.8.34.13.26-.03.3.14.3.8.38.44.77.2.27.17.14-.29-.18-.58.36-.53.4-.1.2-.2.24.04.16.21-.02.25.2.2.3.04.38-.14.22.22.01.27.4.25.33-.07.55.05.37.12.07.4-.3.31.52.4.5.1.23-.11.14.16.25-.03.64.15.66-.07.47-.2.3-.04.27.06.2.23.12.4.51.1.48.15.17-.15.55.02.32.2.28.38.38-.02.35.1.62.01-.38 2.5-.3-.04-.4 2.6 2.68.42 2.6.4 4.18.62-.66 4.35-1.2 7.97-1.23 8.07-.57 3.8-.73-.11-1.7-.26-.15-.03-1.59-.25-.83-.12-.78-.11-.67-.12-1.09-.16-.72-.13-.34-.05-.58-.08-.54-.09-.72-.12-.3-.05-.5-.09-1.49-.22-1.4-.23-.46-.07-.67-.11-.21-.04-.51-.07-.5-.09-.32-.05-.36-.07-1.03-.16-.3-.03-.67-.12-.92-.14-.79-.12-.92-.15-.6-.1-.44-.06-.8-.18-1.63-.26-.53-.09-.32-.05-.37-.07-2.9-.47-.5-.09-.9-.11-.82-.15-1.3-.23-2.66-.47-1.1-.19-2.09-.35-.77-.15-.9-.16-2.11-.37-2.7-.47-.38-.12.03-.19.07-.37.4-2.34.52-3.06.26-1.35.48-2.8.17-1.03.19-1.12.1-.68.17-.86.25-1.5.06-.3.16-.96.26-1.44.23-1.5.33-1.8.2-1.06.61-3.56.2-1.2.24-1.42.23-1.23v-.1l.21-1.2.44-2.52.1-.62.15-.89.07-.4.05-.33.03-.18.2-1.05.47-2.74.32-1.85.79-4.64.09-.5.14-.7.19-1.16.09-.51v-.08l.12-.63.22-1.3.23-1.3v-.03l.3-1.65.13-.75v-.02l.07-.4.07-.5.06-.26.03-.27.06-.13.06-.07.04-.06.02-.11-.17-.32.03-.17.24-.2.22.08.1-.3-.2-.16v-.11l.35-.13.36.04.22-.1.01-.28.16-.35.12-.27.02-.25-.03-.12.01-.18.45-.03.1-.3-.17-.28v-.08l.03-.1.1-.03.06-.1.04-.15.04-.07v-.05l-.23-.08.34-.24-.06-.07-.2-.03v-.1l-.06-.02-.03-.09.02-.03.02-.05.05-.01h.1l.02.04.05-.04.07-.1.07-.02.05-.02.44.03.1-.17-.1-.3-.02-.13.21-.22.12-.37-.02-.03v-.01l-.04-.23-.08-.13-.22-.23-.26-.22-.1-.1v-.14l.05-.18.05-.66v-.07l.1-.15.3-.05h.16l.28-.04.37-.32.12-.36.29-.2.14-.4.29-.28.12-.1.08-.25.02-.29-.12-.3-.24-.12-.18-.3-.22-.13-.14-.01-.1.04-.34-.12-.2-.18v-.32l.13-.28-.02-.37.07-.18v-.16l-.16-.19-.57-.14h-.2l-.32-.18-.26.15-.14.37-.06.03-.17-.08-.03-.2-.18-.3-.18-.18-.22-.37v-.29l-.19-.37-.36-.02-.58.54-.63-.14-.37-.37-.2-.26-.1-.13-.14-.25-.12-.44.09-.12.1-.16.23-.04.48-.66-.08-.38-.7-1.01-.08-.55.04-.18.38-.2.38-.63.14-1.01-.1-.54.07-.25.2-.05.16.04.23-.16.23-.32.06-.2.26-.36h.48l.23-.17.27-.4.07-.36-.07-.16.07-.2.3-.16.26-.24.01-.26.24-.67.14-.26.2-.09.3-.37.13-.34.04-.4.26-.2.13-.04.06-.11.02-.07-.03-.13.02-.08.06-.1.2-.3.2-.05.17-.56-.01-.19.29-.1.1-.27.1-.1.37-.14.17.04.17-.15.32.08.24-.1.6-.38.4-.02.36-.13.12-.2.03-.37.26-.22.49-.67.11-.02.03-.02.03-.12.03-.05.08-.2v-.03l-.03-.06.01-.07.05-.05.2.04.11-.08.11-.09.04-.08.05-.06.1-.01.13-.04.03-.03.1-.14.05-.05.09-.1v-.04l.08-.1.06-.04.02-.09.05-.1.03-.08.07-.15.06-.1.06-.1.16-.28.04-.1.13-.22.05-.07.01-.05-.04-.24-.07-.19-.05-.07-.07-.13-.06-.28.3-.21.1-.02.02-.05.09-.1.05-.06.06-.07.07-.1v-.05l-.13-.03h-.14l-.05.03-.04.09-.04.06-.02.05-.09.1h-.04l-.07-.02-.04-.04-.03-.07-.04-.11.17-.33.26-.34.03-.66.15-.2.44-.2.1-.14.32-.2.3-.24.38-.47.04-.2.07-.32.24-.33.49-.19.08-.23.15-.07.07-.26.28-.12.15-.16.2-.58.04-.26.48-.92.07-.44.19-.33.06-.36.1-.07.04-.07.03-.1.06-.1.03-.1.03-.05.05-.1.06-.09.09-.07.04-.04v-.01l.14-.06.06-.06.15-.23.05-.14.02-.11.02-.07.01-.1v-.12l.02-.1.01-.17v-.09l.02-.06v-.03l.01-.12.02-.07.06-.11.05-.07.04-.05.36-.54.02-.03.04-.05v-.03l.17-.17.23-.33v-.04l.05-.05h.02l.02-.03.09-.1.36-.51v-.02l.12-.14.54-.37.37-.92.59-.42.24-.08v-.54l.2-.48v-.34l.22-.1.3-.36.25-.44.08-.17.05-.04v-.07l-.03-.04h-.04v-.06l.07-.06.09-.05.1-.02.09.03h.05l.06-.02.05-.02.08-.07.03-.05-.01-.05v-.05l.07-.05.13-.07.04-.04.1-.06.06-.02.1-.01.03-.04.04-.07v-.03l-.05-.06.04-.07.02-.05.04-.04.11-.04.03-.05.08-.05.13-.13.1-.12.04-.25.02-.12v-.07l-.1-.13-.04-.15.03-.07.02-.05-.06-.07-.04-.04-.07-.02-.04-.02-.02-.03.05-.2v-.06l-.1-.09v-.01l.02-.1v-.1l-.05-.09-.1-.15-.05-.04-.1-.13v-.05l-.09-.12-.03-.11-.1-.18-.08-.06-.04-.03-.02-.08-.05-.07-.02-.06v-.08l-.07-.19v-.16l.01-.11.02-.15v-.08l.03-.12v-.14l.08-.27.01-.1.02-.07.04-.12-.02-.03v-.07l-.03-.1-.04-.14-.05-.14v-.07l-.05-.07-.03-.03h-.06l-.1-.06-.02-.03-.02-.04-.05-.07-.04-.1-.04-.06-.09-.06-.06-.06-.06-.1-.07-.1-.05-.04-.05-.09-.05-.09-.06-.06-.13-.04-.09-.07-.1-.03h-.06l-.1-.06h-.16l-.04-.08-.1-.05h-.03l-.1.06-.05.03-.11.02-.12-.01-.16-.02-.09-.02-.08-.1-.06-.09-.01-.05-.1-.12-.06-.09-.04-.07-.02-.16-.04-.12.01-.03-.01-.08-.08-.13-.04-.05v-.19l-.04-.1v-.04h-.06l-.06-.04-.1-.13-.06-.04-.09-.04h-.12l-.07-.02-.22-.03-.13.03-.13.1-.1.05-.1.04h-.16l-.05-.03-.07-.09-.05-.06-.07-.05v-.04l-.13-.06-.03-.02-.1-.23-.01-.05.02-.12.04-.1.02-.11v-.05l-.03-.13-.04-.16-.04-.12.01-.06v-.04l-.07-.06-.07-.08-.03-.1-.06-.18-.04-.06-.02-.1-.03-.04-.05-.06-.02-.03-.1-.09-.1-.1-.18-.17h-.03l-.06-.1-.04-.12-.05-.1-.1-.12-.04-.05-.08-.26-.03-.1-.02-.08-.02-.16-.02-.06.02-.1.02-.11v-.05l-.03-.13v-.09l-.02-.11v-.08l.02-.11.03-.06v-.14l-.04-.09-.04-.04-.08-.02-.1-.04-.05-.05v-.04l-.03-.12v-.12l.06-.12.02-.1v-.03l-.07-.09-.05-.1-.1-.06-.11-.19-.02-.05-.02-.09-.04-.1v-.62l-.14-.28.06-.49-.15-.26v-.44l-.23-.5-.44-.25v-.36l.2-.15h.32l.25-.32.1-.39.37-.34.13-.55.33-.26-.09-.31-.11-.02-.26-.62-.2-.26-.06-.36.28-.45.05-.44-.05-.47-.18-.41-.27-.4.22-.49-.07-.18-.33-.26-.27-.36v-.32l.03-.11.02-.25-.12-.15-.39-.16-.13-.11-.08-.1-.02-.15.06-.37.08-.13.11-.08.12-.07.26-.44.05-.16.12-.28.14-.37v-.16l-.04-.25v-.02l.2-.98.04-.35.04-.2.22-1.35.06-.25.1-.6.1-.63.05-.27.14-.71.09-.52.43-2.53.07-.5.08-.41v-.02l.2-1.09.14-.83.22-1.31.23-1.35.16-.83.03-.16.19-1.14.1-.57.19-1.12.07-.47.17-.87.07-.48.1-.45.08-.54.32-1.83.08-.58.18-.9v-.03l.19-1.13.25-1.5.04-.23.13-.68.23-1.35.07-.43.16-.9.04-.24.38-2.26.04-.19.15-.94.1-.6.04-.27.35-1.96.05-.28.22-1.3.05-.3.06-.45.04-.21.01-.04v-.1l.04-.16v-.02l.15-.87v-.02l.24-1.4.02-.07.17-1v-.05l.39-2.25.17-.95.21-1.27.14-.77.06-.28.12-.77.12-.65.17-.9.06-.4.23-1.21.2-1.07.05-.3.04-.17.02-.05v-.05l.02-.03v-.09l.04-.2.05-.21v-.04l.25-1.33.24-1.23.33-1.82.04-.2.15-.77v-.11l.08-.31.28-1.64.22-1.25.1-.64.12-.68.57-3.22.02-.05.42-2.34.25-1.39.22-1.26.12-.6.35-1.97.65-3.81 11 1.86 4.33.7 2.25.38 2.73.43" fill="#d1dbdd" stroke="rgb(209, 219, 221)" stroke-width="0.1" data-originalStrokeWidth="0.1" style="stroke: rgb(0, 0, 0); filter: none; fill: rgb(209, 219, 221); pointer-events: auto; stroke-width: 0.1;" pointer-events="auto"/>
      <path id="ID02" d="m344.9 285.88-1.63-.26-1.48-.22-.82-.12-.82-.1-.47-.07-.4-.08-.31-.04-.77-.12-.06-.01-.36-.04-1.15-.18-.66-.08-1.12-.18-1.43-.21-.27-.04-.83-.1-.72-.12-.67-.1-.96-.19-.67-.12-.3-.07-.89-.17-1.63-.32-.54-.11-.16-.03-.75-.09-.83-.1-.9-.08-.13-.03-.43-.03-1.91-.23.57-3.79 1.22-8.07 1.2-7.98.67-4.35-4.18-.62-2.6-.4-2.68-.42.4-2.6.3.03.38-2.5h-.62l-.36-.1-.38.02-.27-.37-.33-.21-.54-.02-.18.15-.47-.14-.5-.11-.12-.4-.21-.23-.27-.06-.31.04-.45.21-.67.06-.64-.16-.25.03-.14-.15-.23.1-.5-.08-.51-.4.3-.33-.08-.4-.37-.11-.55-.05-.34.07-.39-.25-.01-.27-.22-.22-.38.14-.3-.04-.2-.2.02-.25-.16-.2-.25-.04-.2.2-.4.1-.35.52.18.59-.15.28-.27-.16-.77-.21-.38-.44-.28-.8-.31-.14-.26.03-.34-.12-.45-.81-.32-.2h-.35l-.03-.26.21-.15.02-.23-.19-.18-.36-.02-.22-.18-.51-.3-.07-.16.08-.53.38-.31-.27-.4-.39-.17-.3.02-.6-.48.03-.2 2.5.42v-.02l3.14.51.87.14.44-2.71h.03l.44-2.67h.04l.4-2.47-.88-1.67-.26-.35-.38-.4-.62-1.08-.18-.46-.45-.55-.31-.7-.12-.75-.07-.26-1.74-.73-.08-.45.07-.1-.51-.09-.02-.06-1.9-.33.16-1 .45-2.59.73.33.23-1.19.35-.18.05-.2.42-.43.58-.28.2-.93 1.17 1.66 4.1 5.86.13-.15.44.13.06-.37.29-.18.21.06.06.4.37.18.37-.16.27.08.18.23.3-.3.26.02.15-.14.29.04.07.1.24-.13.03-.29.2.06.48-.4-.02-.15.65-.26.29.05.05.23.2-.06.14-.24.24.05.15-.44.3.26.2-.17.17.06.86-.83.28-.1.17.07.12-.21.16-.1.08-.38.16.05.09-.2-.05-.14.06-.27-.14-.11.47-.5-.05-.22.23-.37.1-.03.44-.4.44.22.54.13.07-.32.23-.1.2-.24-.05-.34.09-.15-.1-.54.09-.2.26-.07.19-.13v-.2l.34-.45.2-.14.42-.05.25.03.33-.21.13.06.54-.1.11-.07.79-.09.26-.2.34.01.2.2.42.02.18-.13.53-.03.5-.12.23-.15.14-.6.35-.55.36-.45.44-.3.07-.24.46-.48.25-.72.33-.33-.16-.51-.43-.55.45.12.59.28.32.51v.3l.13.18.05.67-.09.22.07.67-.14.31.17.33.01.3.42.23.18.3.16-.1.33-.02.04.18-.27.3.13.25.25.02-.08.24.17.18.14-.14.34-.06.24-.22.15.14.27.05.14.14.48.08.14-.3.22-.3h.17l.15-.33-.38-.27-.03-.12.16-.25.04-.32-.22-.05-.1-.3-.22.2-.24-.01-.03-.13-.27-.13-.26-.64.07-.4.13-.23.19-.03-.02-.22.24-.1.21-.24.2.12.27-.23.11-.39-.5-.07-.13-.4-.23-.13-.12-.24.44-.17.32-.4-.1-.47-.13-.16-.3-.03-.12-.19-.26.11-.19-.4-.2-.18-.16.1-.19-.06-.24.08.01-.19-.41-.59-.3.02-.47-.48.16-.32-.14-.24-.03-.48.34-.08.1-.28-.16-.3.1-.15-.07-.22.06-.43-.17-.45-.23.26-.36.09-.1-.19-.02-.51-.17-.15-.34-.05-.15.2v.21l-.15-.1.02-.46-.46-.2-.12-.26-.19-.1-.08-.33.02-.25.21-.05.08-.4.24.02.35-.32.05-.19.34-.3.02-.29.18-.12.07-.25.14-.08.17-.32.09-.53-.02-.57.22-.12-.22-.25.22-.15.03-.48-.16-.22.05-.45-.16-.04v-.25l-.2.05-.56-.14.05-.24-.28-.23.13-.32-.12-.54-.02-.66.25-.2.05-.16.29-.28.08-.25.45.23.1-.3.54-.12.19.17.11-.4.2.19.1-.1.2.2.07-.19.31-.15.1-.24.32-.04.48-.88.18-.73.27-.34.02-.19-.16-.1-.06-.22.29-.2.1-.2.44-.26.69-.34.08-.12.29.1.1.34.62.37.05.5.32-.25.11.27-.13.13.09.56.33-.22-.03-.14.32-.04.29.08.05.15.3.15.28-.08.03-.18.37-.03.34-.37.1-.33h.35l.04-.15.62-.4.3-.15.1.13.55-.57.43-.06.38-.5.12-.03.08-.27.2.01.07-.17.35.02-.02-.32.24-.2-.15-.21.02-.19.19-.12.23.07.02-.15.37.07.12-.25.17-.08-.16-.13.15-.2-.07-.47.1-.15-.12-.15.31-.27-.02-.44-.16-.06.16-.52-.07-.21.25-.74.02-.18.16-.06v-.67l.17-.45-.07-.13.14-.33-.08-.18.09-.56.18-.28-.23-.21.12-.42.25-.38-.07-.29.03-.48-.06-.2.24-.25.14-.46-.05-.1.2-.27.39-.02.23-.27.21-.4v-.18l.28-.44.25-.05.16-.37.25-.22.26-.1.4-.38.38-.13.39-.48-.25.02-.42-.48-.1-.29-.17-.06-.28-.5-.26-.34-.1-.37.1-.26-.45-.26-.04-.3-.13-.06-.04-.27-.14-.3-.38-.04-.13-.28-.35-.31-.12-.31.12-.2-.08-.21-.52-.15-.02-.14.13-.4.09-.08v-.29l-.13-.34.2-.54-.1-.12.15-.33.15-.1.44.09.19.35.45.42.32.07.32-.04.3.1.2.23-.06.31.36.16.36-.44.02-.18.37-.41.17-.38.33-.24.54-.1.3-.3.12.04.34-.38.1-.03.17.09.11-.12.36-.08.15-.14.1.08.1.03.28.37.2.04h.05l.14-.1.05.03.12-.02.14-.07.1.15.22.03-.17.2-.07.27.19.04.33.34.02.16.11.04-.03.38.1.28.47.2.12.06.13.04.27.32.15.08.08.55.19.18.11.38h.09l.11.03.12-.02v-.05l.25-.1.16-.1.05.03.1-.04.33-.23.27.03.25-.1.03-.2.25-.23.08-.37.31-.4-.03-.4.1-.23.44.03.47.4.33-.04.03-.07.25-.3.59.03.08-.14.32.07.2-.24v-.33l.24-.25.34.04.45-.12.12-.16.08-.47.2-.08.2-.38.35-.1.44-.41.28.03.22-.3-.07-.36-.18-.21.34-.23-.06-.28.52-.08.07-.18.09-.06.05-.02.04.07.12.08h.19l.02.38.32.05.35-.1.06.05v.67l.2.32-.01.2.24.2.23.3-.18.18.01.3-.11.1-.03.05.05.05.3.18.59-.12.3.16.06.25.2.1.18-.07.39.42.11.66-.22.08-.38.32.05.3-.35.58.03.09v.04l-.13.22-.06.15h.21l.3.09.19-.08.77.2-.16.22.1.45.02.59-.4.26-.02.3-.2.17.17.3-.1.36.33.29-.41.28v.15l-.03.11.58.24.29.48-.01.17-.05.32-.16.13.16.42-.27.3-.05.5.17.33.22.13.1.51.18.31.26.24.15.33-.1.1-.14-.04-.12.28.21.48.3.13.31.45.02.29.18.3-.01.13.26.23.5.64.01.1.1.08v.26l-.05.05v.05l-.05.05v.45l.08.06.07.14.37.05v.1l-.04.05-.07.14-.2.27.12.23.32.24.08.19.29.04.14-.1.45.1.01.09.05.15-.25.3-.19.13.14.24.12.08h.06l.14.1.12.07.14.18-.06.09.04.11.01.15.18.07.38-.05.16.2v.4l-.18.2.18.22-.1.41.17.37-.2.42-.02.11-.04.12-.03.1.02.08-.03.32-.06.12.04.27-.13.17-.1.04-.3.1-.16-.05h-.23l-.29-.04-.08.18.09.55.25.43.12.1-.2.42.34.33-.05.15.08.2.01.34.23.12.06.21.19.06.06.1.07.47.3-.07.32.18.19-.01.4.5.18.16.13.68-.2.07.02.16.13.1.04.05.1.08.27-.1.33-.18.22-.06.35-.18.02-.03.26-.13.16-.05h.05l.29-.13.13-.03.11-.03.19.3.6.24.31.27.25.5.1.09.06.02.08.12.02.01.07.09.05-.03.04-.03h.04l.07.05.1.02v.02l.07.08h.09l.08.04.04.05.06.03.05.05-.04.1v.13l-.08.07-.08.07v.07l.05.04-.02.12.04.06.07.06h.08l.05.05.06.09.02.08.04.07v.05l-.01.13-.03.03v.06l.05.02.07-.03.05.05.08.04.05.05.03.01-.02.12-.01.11.02.05.01.1h-.04l-.03.1v.17l-.03.04.08.2.05.22.25.13-.04.25.3.2-.08.3.05.47-.04.13v.04l.26.42v.27l-.1.2-.43.14-.44.45.18.1.34.4-.13.2.56.45.04.2-.2.14-.09.24.16.28.27.08.15.25.23.18.01.22-.26.08-.06.39-.25.22.1.4.25.44-.08.22.1.46.26.23.15.33.32.37.24.04.02.19.28.2.36.1.13.28.26.14.3-.19.1.2-.05.14.01.52.36.34.15.33.23.1.53-.29.18-.19.08-.07.02-.5.13-.13-.23-.08v-.2l-.32-.6.31-.21-.02-.14.04-.16.22-.14.11-.17h.16l.25-.22.01-.16.32-.34.06-.05.08-.06.01-.08.2.06h.02l.06-.04.1-.03.03-.02.19-.01.05-.03h.05l.13.06h.05l.02-.03.08-.1.1-.16v-.02l.03-.02.16-.05h.08l.06-.04h.06l.07.04.18.04.05.04.11.07.05.02h.07l.09.05.01.1.02.06.07.05.09.01.12.03.04.03.07.07.04.06.04.05.07.01.1-.02v.02l.2-.03.08-.03h.19l.06-.02.05.05.04.06-.02.05v.05l-.01.07h.1l.11-.08.08-.03.19-.03.07-.02h.1l.07.05.02.03h.02l.05.04.02.04.07.07.08.1.06-.02.1.06h.09l.1-.05.1.01.13.03.11-.04.05.02.07-.02.03.06.1-.02.03.02.06.04.07.15h.1l.07.07.05-.02.03.03.1.05.05-.03.07.06.02.04v.12l.02.03-.03.08.03.03.1.05.04.01.07.05.03-.05.03-.03.03-.07.06.01.07-.07h.15l.03-.07.01-.04.09.01.06-.05.03-.05.06-.04.1.05.1.12h.08l.01.05.07.09.02.03-.03.03v.1l.15-.02h.07l.05.04.05.01-.03.03.05.03.1.1.02.07-.02.11v.07h.07v.02l.07.02.04-.02h.07l.03.03h.07l.05.02.08-.05.11-.05.05.03.09.03.05.1.05.03h.05l.08.07.04.08.04.03.04-.08.05-.06.04-.03.02-.03.06-.04.04-.05.1-.12.02-.04.05-.07.04-.05.05.02v-.05l.06-.14.02-.1.02-.13.03-.02v-.07l.05-.05.06.02.04-.12.02-.06.02-.12.08-1.08.14-.2.69-.02.19-.06.09-.35.18-.14.07-.04.12.03.06-.07.1-.1.18-.1.26.12h.13l.25-.13.56.3-.05.45.15.24.43.17.37.25.45-.22.1.05.2.08.05.07.07-.07.31.08.07.28.36.2.05.1.25-.02.06-.2.6-.18.28.05.5.3v-.4l.05-.14.6.35.64.12.37-.37h.23l.1-.21.98.13.34-.2.15.15.36-.06.02.38.28.4.11.42.24.28.15.34.25-.06.08-.25.18-.17.46.13.23-.2.17.18.12-.23.22-.17.29-.08.5.04.3-.48.3.16.18-.17.48.34.3-.01.58.19.08.02.04.05.7-.34.06.07.53.24.22-.06.17.2.34.15.15.38.15.03.2-.17.45.05.25.1.04-.56-.26.05-.2-.17-.38-.1-.05-.11.22-.21-.35-.39-.07-.45.13-.12-.12-.11.23-.46.36-.18-.24-.56.23.01.1-.09.22.17.04-.2.47-.5-.08-.2.18-.17-.32-.32.06-.14-.07-.13-.02-.3.21-.03.2-.07.68-.25.25.02.14.23.2.12.44-.48-.03-.21.2-.57.32.06.1.08.3.68.2.15.25-.2.28.13.01.34.53.58-.07.34.38.36.03.18.2.28-.3.37.12.28.43-.1.05.23.14.09.27.4.19.28-.53.19.15.56-.02.3-.03.09.07.26.57.1.16.1.3.16-.06.45.12.19.34.13.14.38.23-.01.2.13-.22.48.11.54.34.23.14.24h.15l.67.24.1.13.27.03.07.14-.14 1.13v.05l-.03.27-.27 2.34-.29 2.8-.14 1.4-.3 2.75-.04.23v.31l-.04.27v.02l-.13 1.17-.03.3-.16 1.22-.01.64-.06.52-.03.12-.1 1.1-.09.95-.04.23-.08.77-.03.34-.17 1.54-.01.05-.13 1.18-.03.35-.05.41-.03.27-.03.35-.36 3.45-.3 2.72-.04.45-.2 1.8-.35 3.38-.05.41-.07.55-.2 2.14-.12 1.02-.15 1.54-.04.26-.05.38-.06.66-.05.42-.17 1.52-.01.12-.04.31-.07.73-.11 1.08-.04.25-.04.43-.07.61-.01.16-.06.66-.2 1.8-.1.9-.24 2.22-.12 1.16-.12.96-.2 1.67-.04.3v.05l-.1.96-.17 1.32-.43 3.6-.23 2.13-.04.25-.1 1.16-.3 2.56-.2 1.92-.03.19v.05l-.01.06v.16l-.04.2-.03.34-.17 1.57-.12 1.12-.3 2.75-.01.25-.38-.04-1.87-.2-1.26-.13-1.43-.17h-.05l-1.12-.13-2.25-.23-1.76-.16-2.6-.3-.88-.1-1.52-.17-1.15-.14-.86-.1-.58-.05-1.48-.17-1.32-.15-.48-.06-.45-.05-.88-.1-.34-.05-.32-.03-1-.1-.8-.1-.81-.08-.42-.2-.6-.06h-.07l-.58-.07-.29-.04-1.1-.13-.63-.08-1.64-.2-1.63-.18-1.95-.25-2.25-.27-1.44-.2h-.13l-2.91-.35-.62-.07-.76-.1-1.06-.13-.96-.12-4.9-.57-1.06-.14-.78-.09-1.02-.1-3.2-.4-.3-.04-1.11-.12-.91-.1-.58-.07-.45-.07-.94-.1-.22-.03-3.83-.44-.36-.05-.98-.14-.5-.07-.16-.02-1.4-.3-.61-.13" fill="#d1dbdd" stroke="rgb(209, 219, 221)" stroke-width="0.1" data-originalStrokeWidth="0.1" style="stroke: rgb(0, 0, 0); fill: rgb(209, 219, 221); pointer-events: auto; stroke-width: 0.1;" pointer-events="auto"/>
      <g id="state_lines" stroke="rgb(209, 219, 221)" style="display: none; stroke: rgb(0, 0, 0);" stroke-width="0.1"/>
      <g id="state_abbr" fill="#000000" style="display: none; fill: rgb(0, 0, 0);">
        <text id="HI_label" x="491.79" y="769.82" style="font-size: 19.2455px; stroke-width: 1.60379; display: none;">
          <tspan id="HI_tspan" x="491.79" y="769.82" fill="#000000" dy="0" font-family="Arial" font-size="24.06" font-style="normal" font-weight="400" style="text-align: center; stroke-width: 2.57215; fill: rgb(0, 0, 0);" text-anchor="middle">HI</tspan>
        </text>
        <text id="AK_label" x="205.24" y="672.25" style="font-size: 19.2455px; stroke-width: 1.60379; display: none;">
          <tspan id="AK_tspan" x="205.24" y="672.25" fill="#000000" dy="0" font-family="Arial" font-size="24.06" font-style="normal" font-weight="400" style="text-align: center; stroke-width: 2.57215; fill: rgb(0, 0, 0);" text-anchor="middle">AK</tspan>
        </text>
        <text id="FL_label" x="1188.11" y="708.7" style="font-size: 19.2455px; stroke-width: 1.60379; display: none;">
          <tspan id="FL_tspan" x="1188.11" y="708.7" fill="#000000" dy="0" font-family="Arial" font-size="24.06" font-style="normal" font-weight="400" style="text-align: center; stroke-width: 2.57215; fill: rgb(0, 0, 0);" text-anchor="middle">FL</tspan>
        </text>
        <text id="NH_label" x="1306.05" y="167.79" stroke-width="1.1" font-size="13.25" style="display: none;">
          <tspan id="NH_tspan" x="1306.05" y="167.79" fill="#000000" stroke-width="1.1" dy="0" font-family="Arial" font-size="16.56" font-style="normal" font-weight="400" style="text-align: center; fill: rgb(0, 0, 0);" text-anchor="middle">NH</tspan>
        </text>
        <text id="MI_label" x="1019.65" y="246.58" style="font-size: 19.2455px; stroke-width: 1.60379; display: none;">
          <tspan id="MI_tspan" x="1019.65" y="246.58" fill="#000000" dy="0" font-family="Arial" font-size="24.06" font-style="normal" font-weight="400" style="text-align: center; stroke-width: 2.57215; fill: rgb(0, 0, 0);" text-anchor="middle">MI</tspan>
        </text>
        <text id="VT_label" x="1274.28" y="145.01" stroke-width="1.05" font-size="12.65" style="display: none;">
          <tspan id="VT_tspan" x="1274.28" y="145.01" fill="#000000" stroke-width="1.05" dy="0" font-family="Arial" font-size="15.81" font-style="normal" font-weight="400" style="text-align: center; fill: rgb(0, 0, 0);" text-anchor="middle">VT</tspan>
        </text>
        <text id="ME_label" x="1338.99" y="105.14" stroke-width="1.45" font-size="17.36" style="display: none;">
          <tspan id="ME_tspan" x="1338.99" y="105.14" fill="#000000" stroke-width="1.45" dy="0" font-family="Arial" font-size="21.7" font-style="normal" font-weight="400" style="text-align: center; fill: rgb(0, 0, 0);" text-anchor="middle">ME</tspan>
        </text>
        <text id="RI_label" x="1361.38" y="262.84" stroke-width="1.25" font-size="14.98" style="display: none;">
          <tspan id="RI_tspan" x="1361.38" y="262.84" fill="#000000" stroke-width="1.25" dy="0" font-family="Arial" font-size="18.72" font-style="normal" font-weight="400" style="text-align: center; fill: rgb(0, 0, 0);" text-anchor="middle">RI</tspan>
        </text>
        <text id="NY_label" x="1227.27" y="204.12" style="font-size: 19.2455px; stroke-width: 1.60379; display: none;">
          <tspan id="NY_tspan" x="1227.27" y="204.12" fill="#000000" dy="0" font-family="Arial" font-size="24.06" font-style="normal" font-weight="400" style="text-align: center; stroke-width: 2.57215; fill: rgb(0, 0, 0);" text-anchor="middle">NY</tspan>
        </text>
        <text id="PA_label" x="1187.28" y="284.69" style="font-size: 19.2455px; stroke-width: 1.60379; display: none;">
          <tspan id="PA_tspan" x="1187.28" y="284.69" fill="#000000" dy="0" font-family="Arial" font-size="24.06" font-style="normal" font-weight="400" style="text-align: center; stroke-width: 2.57215; fill: rgb(0, 0, 0);" text-anchor="middle">PA</tspan>
        </text>
        <text id="NJ_label" x="1330.57" y="290.09" stroke-width="1.28" font-size="15.4" style="display: none;">
          <tspan id="NJ_tspan" x="1330.57" y="290.09" fill="#000000" stroke-width="1.28" dy="0" font-family="Arial" font-size="19.25" font-style="normal" font-weight="400" style="text-align: center; fill: rgb(0, 0, 0);" text-anchor="middle">NJ</tspan>
        </text>
        <text id="DE_label" x="1320.8" y="328.42" stroke-width="1.36" font-size="16.38" style="display: none;">
          <tspan id="DE_tspan" x="1320.8" y="328.42" fill="#000000" stroke-width="1.36" dy="0" font-family="Arial" font-size="20.47" font-style="normal" font-weight="400" style="text-align: center; fill: rgb(0, 0, 0);" text-anchor="middle">DE</tspan>
        </text>
        <text id="MD_label" x="1310.72" y="368.46" stroke-width="1.34" font-size="16.11" style="display: none;">
          <tspan id="MD_tspan" x="1310.72" y="368.46" fill="#000000" stroke-width="1.34" dy="0" font-family="Arial" font-size="20.13" font-style="normal" font-weight="400" style="text-align: center; fill: rgb(0, 0, 0);" text-anchor="middle">MD</tspan>
        </text>
        <text id="VA_label" x="1198.59" y="392.33" style="font-size: 19.2455px; stroke-width: 1.60379; display: none;">
          <tspan id="VA_tspan" x="1198.59" y="392.33" fill="#000000" dy="0" font-family="Arial" font-size="24.06" font-style="normal" font-weight="400" style="text-align: center; stroke-width: 2.57215; fill: rgb(0, 0, 0);" text-anchor="middle">VA</tspan>
        </text>
        <text id="WV_label" x="1129.66" y="382.3" style="font-size: 19.2455px; stroke-width: 1.60379; display: none;">
          <tspan id="WV_tspan" x="1129.66" y="382.3" fill="#000000" dy="0" font-family="Arial" font-size="24.06" font-style="normal" font-weight="400" style="text-align: center; stroke-width: 2.57215; fill: rgb(0, 0, 0);" text-anchor="middle">WV</tspan>
        </text>
        <text id="OH_label" x="1079.05" y="334.46" style="font-size: 19.2455px; stroke-width: 1.60379; display: none;">
          <tspan id="OH_tspan" x="1079.05" y="334.46" fill="#000000" dy="0" font-family="Arial" font-size="24.06" font-style="normal" font-weight="400" style="text-align: center; stroke-width: 2.57215; fill: rgb(0, 0, 0);" text-anchor="middle">OH</tspan>
        </text>
        <text id="IN_label" x="998.79" y="352.94" style="font-size: 19.2455px; stroke-width: 1.60379; display: none;">
          <tspan id="IN_tspan" x="998.79" y="352.94" fill="#000000" dy="0" font-family="Arial" font-size="24.06" font-style="normal" font-weight="400" style="text-align: center; stroke-width: 2.57215; fill: rgb(0, 0, 0);" text-anchor="middle">IN</tspan>
        </text>
        <text id="IL_label" x="927.43" y="364.36" style="font-size: 19.2455px; stroke-width: 1.60379; display: none;">
          <tspan id="IL_tspan" x="927.43" y="364.36" fill="#000000" dy="0" font-family="Arial" font-size="24.06" font-style="normal" font-weight="400" style="text-align: center; stroke-width: 2.57215; fill: rgb(0, 0, 0);" text-anchor="middle">IL</tspan>
        </text>
        <text id="CT_label" x="1299.17" y="228.46" stroke-width="1.06" font-size="12.74" style="display: none;">
          <tspan id="CT_tspan" x="1299.17" y="228.46" fill="#000000" stroke-width="1.06" dy="0" font-family="Arial" font-size="15.93" font-style="normal" font-weight="400" style="text-align: center; fill: rgb(0, 0, 0);" text-anchor="middle">CT</tspan>
        </text>
        <text id="WI_label" x="898.6" y="224.7" style="font-size: 19.2455px; stroke-width: 1.60379; display: none;">
          <tspan id="WI_tspan" x="898.6" y="224.7" fill="#000000" dy="0" font-family="Arial" font-size="24.06" font-style="normal" font-weight="400" style="text-align: center; stroke-width: 2.57215; fill: rgb(0, 0, 0);" text-anchor="middle">WI</tspan>
        </text>
        <text id="NC_label" x="1205.6" y="458.72" style="font-size: 19.2455px; stroke-width: 1.60379; display: none;">
          <tspan id="NC_tspan" x="1205.6" y="458.72" fill="#000000" dy="0" font-family="Arial" font-size="24.06" font-style="normal" font-weight="400" style="text-align: center; stroke-width: 2.57215; fill: rgb(0, 0, 0);" text-anchor="middle">NC</tspan>
        </text>
        <text id="MA_label" x="1305.87" y="200.67" stroke-width="1.04" font-size="12.46" style="display: none;">
          <tspan id="MA_tspan" x="1305.87" y="200.67" fill="#000000" stroke-width="1.04" dy="0" font-family="Arial" font-size="15.58" font-style="normal" font-weight="400" style="text-align: center; fill: rgb(0, 0, 0);" text-anchor="middle">MA</tspan>
        </text>
        <text id="MO_label" x="854.22" y="422.93" style="font-size: 19.2455px; stroke-width: 1.60379; display: none;">
          <tspan id="MO_tspan" x="854.22" y="422.93" fill="#000000" dy="0" font-family="Arial" font-size="24.06" font-style="normal" font-weight="400" style="text-align: center; stroke-width: 2.57215; fill: rgb(0, 0, 0);" text-anchor="middle">MO</tspan>
        </text>
        <text id="GA_label" x="1106.89" y="574.56" style="font-size: 19.2455px; stroke-width: 1.60379; display: none;">
          <tspan id="GA_tspan" x="1106.89" y="574.56" fill="#000000" dy="0" font-family="Arial" font-size="24.06" font-style="normal" font-weight="400" style="text-align: center; stroke-width: 2.57215; fill: rgb(0, 0, 0);" text-anchor="middle">GA</tspan>
        </text>
        <text id="SC_label" x="1166.32" y="522.49" style="font-size: 19.2455px; stroke-width: 1.60379; display: none;">
          <tspan id="SC_tspan" x="1166.32" y="522.49" fill="#000000" dy="0" font-family="Arial" font-size="24.06" font-style="normal" font-weight="400" style="text-align: center; stroke-width: 2.57215; fill: rgb(0, 0, 0);" text-anchor="middle">SC</tspan>
        </text>
        <text id="KY_label" x="1039.99" y="426.39" style="font-size: 19.2455px; stroke-width: 1.60379; display: none;">
          <tspan id="KY_tspan" x="1039.99" y="426.39" fill="#000000" dy="0" font-family="Arial" font-size="24.06" font-style="normal" font-weight="400" style="text-align: center; stroke-width: 2.57215; fill: rgb(0, 0, 0);" text-anchor="middle">KY</tspan>
        </text>
        <text id="AL_label" x="1019.59" y="578.15" style="font-size: 19.2455px; stroke-width: 1.60379; display: none;">
          <tspan id="AL_tspan" fill="#000000" dy="0" font-family="Arial" font-size="24.06" font-style="normal" font-weight="400" style="text-align: center; stroke-width: 2.57215; fill: rgb(0, 0, 0);" text-anchor="middle">AL</tspan>
        </text>
        <text id="LA_label" x="872.7" y="649.59" style="font-size: 19.2455px; stroke-width: 1.60379; display: none;">
          <tspan id="LA_tspan" x="872.7" y="649.59" fill="#000000" dy="0" font-family="Arial" font-size="24.06" font-style="normal" font-weight="400" style="text-align: center; stroke-width: 2.57215; fill: rgb(0, 0, 0);" text-anchor="middle">LA</tspan>
        </text>
        <text id="MS_label" x="940.37" y="592.21" style="font-size: 19.2455px; stroke-width: 1.60379; display: none;">
          <tspan id="MS_tspan" x="940.37" y="592.21" fill="#000000" dy="0" font-family="Arial" font-size="24.06" font-style="normal" font-weight="400" style="text-align: center; stroke-width: 2.57215; fill: rgb(0, 0, 0);" text-anchor="middle">MS</tspan>
        </text>
        <text id="IA_label" x="823.33" y="308.44" style="font-size: 19.2455px; stroke-width: 1.60379; display: none;">
          <tspan id="IA_tspan" x="823.33" y="308.44" fill="#000000" dy="0" font-family="Arial" font-size="24.06" font-style="normal" font-weight="400" style="text-align: center; stroke-width: 2.57215; fill: rgb(0, 0, 0);" text-anchor="middle">IA</tspan>
        </text>
        <text id="MN_label" x="790.84" y="183.37" style="font-size: 19.2455px; stroke-width: 1.60379; display: none;">
          <tspan id="MN_tspan" x="790.84" y="183.37" fill="#000000" dy="0" font-family="Arial" font-size="24.06" font-style="normal" font-weight="400" style="text-align: center; stroke-width: 2.57215; fill: rgb(0, 0, 0);" text-anchor="middle">MN</tspan>
        </text>
        <text id="OK_label" x="732.05" y="519.54" style="font-size: 19.2455px; stroke-width: 1.60379; display: none;">
          <tspan id="OK_tspan" x="732.05" y="519.54" fill="#000000" dy="0" font-family="Arial" font-size="24.06" font-style="normal" font-weight="400" style="text-align: center; stroke-width: 2.57215; fill: rgb(0, 0, 0);" text-anchor="middle">OK</tspan>
        </text>
        <text id="TX_label" x="710.59" y="652.87" style="font-size: 19.2455px; stroke-width: 1.60379; display: none;">
          <tspan id="TX_tspan" x="710.59" y="652.87" fill="#000000" dy="0" font-family="Arial" font-size="24.06" font-style="normal" font-weight="400" style="text-align: center; stroke-width: 2.57215; fill: rgb(0, 0, 0);" text-anchor="middle">TX</tspan>
        </text>
        <text id="NM_label" x="506.94" y="542.36" style="font-size: 19.2455px; stroke-width: 1.60379; display: none;">
          <tspan id="NM_tspan" x="506.94" y="542.36" fill="#000000" dy="0" font-family="Arial" font-size="24.06" font-style="normal" font-weight="400" style="text-align: center; stroke-width: 2.57215; fill: rgb(0, 0, 0);" text-anchor="middle">NM</tspan>
        </text>
        <text id="KS_label" x="701.21" y="427.26" style="font-size: 19.2455px; stroke-width: 1.60379; display: none;">
          <tspan id="KS_tspan" x="701.21" y="427.26" fill="#000000" dy="0" font-family="Arial" font-size="24.06" font-style="normal" font-weight="400" style="text-align: center; stroke-width: 2.57215; fill: rgb(0, 0, 0);" text-anchor="middle">KS</tspan>
        </text>
        <text id="NE_label" x="686.63" y="337.29" style="font-size: 19.2455px; stroke-width: 1.60379; display: none;">
          <tspan id="NE_tspan" x="686.63" y="337.29" fill="#000000" dy="0" font-family="Arial" font-size="24.06" font-style="normal" font-weight="400" style="text-align: center; stroke-width: 2.57215; fill: rgb(0, 0, 0);" text-anchor="middle">NE</tspan>
        </text>
        <text id="SD_label" x="663.02" y="238.75" style="font-size: 19.2455px; stroke-width: 1.60379; display: none;">
          <tspan id="SD_tspan" x="663.02" y="238.75" fill="#000000" dy="0" font-family="Arial" font-size="24.06" font-style="normal" font-weight="400" style="text-align: center; stroke-width: 2.57215; fill: rgb(0, 0, 0);" text-anchor="middle">SD</tspan>
        </text>
        <text id="ND_label" x="663.02" y="150.75" style="font-size: 19.2455px; stroke-width: 1.60379; display: none;">
          <tspan id="ND_tspan" x="663.02" y="150.75" fill="#000000" dy="0" font-family="Arial" font-size="24.06" font-style="normal" font-weight="400" style="text-align: center; stroke-width: 2.57215; fill: rgb(0, 0, 0);" text-anchor="middle">ND</tspan>
        </text>
        <text id="WY_label" x="499.57" y="276.47" style="font-size: 19.2455px; stroke-width: 1.60379; display: none;">
          <tspan id="WY_tspan" x="499.57" y="276.47" fill="#000000" dy="0" font-family="Arial" font-size="24.06" font-style="normal" font-weight="400" style="text-align: center; stroke-width: 2.57215; fill: rgb(0, 0, 0);" text-anchor="middle">WY</tspan>
        </text>
        <text id="MT_label" x="487.84" y="155.58" style="font-size: 19.2455px; stroke-width: 1.60379; display: none;">
          <tspan id="MT_tspan" x="487.84" y="155.58" fill="#000000" dy="0" font-family="Arial" font-size="24.06" font-style="normal" font-weight="400" style="text-align: center; stroke-width: 2.57215; fill: rgb(0, 0, 0);" text-anchor="middle">MT</tspan>
        </text>
        <text id="CO_label" x="525.13" y="406.28" style="font-size: 19.2455px; stroke-width: 1.60379; display: none;">
          <tspan id="CO_tspan" x="525.13" y="406.28" fill="#000000" dy="0" font-family="Arial" font-size="24.06" font-style="normal" font-weight="400" style="text-align: center; stroke-width: 2.57215; fill: rgb(0, 0, 0);" text-anchor="middle">CO</tspan>
        </text>
        <text id="ID_label" x="339.94" y="235.07" style="font-size: 19.2455px; stroke-width: 1.60379; display: none;">
          <tspan id="ID_tspan" x="339.94" y="235.07" fill="#000000" dy="0" font-family="Arial" font-size="24.06" font-style="normal" font-weight="400" style="text-align: center; stroke-width: 2.57215; fill: rgb(0, 0, 0);" text-anchor="middle">ID</tspan>
        </text>
        <text id="UT_label" x="396.81" y="386.73" style="font-size: 19.2455px; stroke-width: 1.60379; display: none;">
          <tspan id="UT_tspan" x="396.81" y="386.73" fill="#000000" dy="0" font-family="Arial" font-size="24.06" font-style="normal" font-weight="400" style="text-align: center; stroke-width: 2.57215; fill: rgb(0, 0, 0);" text-anchor="middle">UT</tspan>
        </text>
        <text id="AZ_label" x="366.76" y="536.9" style="font-size: 19.2455px; stroke-width: 1.60379; display: none;">
          <tspan id="AZ_tspan" x="366.76" y="536.9" fill="#000000" dy="0" font-family="Arial" font-size="24.06" font-style="normal" font-weight="400" style="text-align: center; stroke-width: 2.57215; fill: rgb(0, 0, 0);" text-anchor="middle">AZ</tspan>
        </text>
        <text id="NV_label" x="262.47" y="370.64" style="font-size: 19.2455px; stroke-width: 1.60379; display: none;">
          <tspan id="NV_tspan" x="262.47" y="370.64" fill="#000000" dy="0" font-family="Arial" font-size="24.06" font-style="normal" font-weight="400" style="text-align: center; stroke-width: 2.57215; fill: rgb(0, 0, 0);" text-anchor="middle">NV</tspan>
        </text>
        <text id="OR_label" x="214.43" y="206.88" style="font-size: 19.2455px; stroke-width: 1.60379; display: none;">
          <tspan id="OR_tspan" x="214.43" y="206.88" fill="#000000" dy="0" font-family="Arial" font-size="24.06" font-style="normal" font-weight="400" style="text-align: center; stroke-width: 2.57215; fill: rgb(0, 0, 0);" text-anchor="middle">OR</tspan>
        </text>
        <text id="WA_label" x="238.05" y="102.99" style="font-size: 19.2455px; stroke-width: 1.60379; display: none;">
          <tspan id="WA_tspan" x="238.05" y="102.99" fill="#000000" dy="0" font-family="Arial" font-size="24.06" font-style="normal" font-weight="400" style="text-align: center; stroke-width: 2.57215; fill: rgb(0, 0, 0);" text-anchor="middle">WA</tspan>
        </text>
        <text id="CA_label" x="191.69" y="434.8" style="font-size: 19.2455px; stroke-width: 1.60379; display: none;">
          <tspan id="CA_tspan" x="191.69" y="434.8" fill="#000000" dy="0" font-family="Arial" font-size="24.06" font-style="normal" font-weight="400" style="text-align: center; stroke-width: 2.57215; fill: rgb(0, 0, 0);" text-anchor="middle">CA</tspan>
        </text>
        <text id="DC_label" x="1309.32" y="398.19" stroke-width="1.29" font-size="15.45" style="display: none;">
          <tspan id="DC_tspan" x="1309.32" y="398.19" fill="#000000" stroke-width="1.29" dy="0" font-family="Arial" font-size="19.31" font-style="normal" font-weight="400" style="text-align: center; fill: rgb(0, 0, 0);" text-anchor="middle">DC</tspan>
        </text>
        <text id="TN_label" x="1018.93" y="485.72" style="font-size: 19.2455px; stroke-width: 1.60379; display: none;">
          <tspan id="TN_tspan" x="1018.93" y="485.72" fill="#000000" dy="0" font-family="Arial" font-size="24.06" font-style="normal" font-weight="400" style="text-align: center; stroke-width: 2.57215; fill: rgb(0, 0, 0);" text-anchor="middle">TN</tspan>
        </text>
        <text id="AR_label" x="863.15" y="535.77" style="font-size: 19.2455px; stroke-width: 1.60379; display: none;">
          <tspan id="AR_tspan" x="863.15" y="535.77" fill="#000000" dy="0" font-family="Arial" font-size="24.06" font-style="normal" font-weight="400" style="text-align: center; stroke-width: 2.57215; fill: rgb(0, 0, 0);" text-anchor="middle">AR</tspan>
        </text>
      </g>
      <g id="state_borders" transform="translate(-0.04777967,-0.15336683)" stroke="rgb(209, 219, 221)" style="stroke: rgb(0, 0, 0);" stroke-width="0.3">
        <path id="ID_MT_border" d="m333.03 61.04-5.13 31.53.37.2.37.76.35 1.12.5.8.85 1.75.43-.11.52.75-.1 1.33.3 1.09.6-.04.3.49.02.79h.3l.67.9-.5 1.17.06.4.68.7v.9l-1.61 1.1v.35l1.1.6-.35.1.35 1.28.52.3.65.05-.32.58-.8.08-.3-.17-1.26.28-.34.5.8.09 1.13.9.32.86.52-.07.8.6v.36l.53.35.19 1.56 1.26.59.16.3.67.04.22.53h.59l.92.29.42.44-.04.56.42.8-.3.65.77.32.27 1.03.45.13.65.73.2.72.57.26v.69l.62 1.1.33.12.24.69-.05.95.27.85 1.03.1.66 1.42.72.47-.35.63v.65l-.43.43.4.26.04.88.44.22v.66l.67-.32.63 1.1.9.18.37.8-.22.7-.5.66.7.58.36-.42h.48l.57-.76.68.16.74.97-.06.63-.46.32.03.63.3.1.07.6.64.3.95-.4 1.54.79 1.06-.76 1.45-.04.7.78-.2 1.1-.56.6.22.6-.45.57-.05 1.07-.25.3-1.05.04-.15.7.4.63-.34 1.54-.9.62.15.72-.23.92-.53.85.08.59-.27.33-.8.2v.6l.28.26v1.2l-.18 1.09-.7.12-.84-.3-.33.58.05.7.93.5.23.53-.35 1.08-.56.22-.4.6.59.13.06.56-.35.25.26.4 1.28.64.12.66-.74.58.3.82.33.4.05.59-.37.28-.2.59-.6-.41-.73.24-.9.06-.18.56-1.37 1.5.4.55-.1.46.82.8.1.6-.5.5.26.54-.6.56-.96.4.43.85-.54.65-.25.65.25.22.62-.34.57.57.6-.22.33.2-.24.44.65.6.05.64 1.2.77.04.54.5.55 1.3-.48.48-.45.42-.84.06-.65.94.45.57-.4 1-.06.44-.8.92-.27.47-.92 1.29-.96-.21-.42.25-.5.74-.3.5.57.53-.11.25 1.24.47.52-.3.6.4.24.55-.11 1.09.8.12.7-.52.59-.55 1.2 1.5.2-.18.19.14 1.08-.63.7.07.68.33.27-.4.62.8.57-.04 1.16-.3.82 1.05 1.83-.34.33.67.8.34.95.73.77.04 1.15.52.3-.32.5.5.65h.84l.13.28-.45.46.7.66.02.36.72.23-.25 3.1-.53.33-.7-.08.03.73.37.55-.2.4.34.33.04.7.54.4.1.54.8.14.56.63.2 1.13 1.45-.67.78-.23.77.53.56.78 1 .58-.17.39.33.89.34.17-.1.72.65.96-.08.93.26.43-.2.55-.74.52.5.47-.14.23.6.53-.23.65.76.84-.57.69.35.82-.04.57.78 1.06 1.29.94.4-.04-.02.72.72.79.8-.5.13-.7-.54-.86.3-.5.78-.57.5-.66.92-.1.5-.34 1.17.72.7-.07.06.28.62-.17.34.35h.8l.77.4.25.4.64-.45.8.69 1.02.55.53-.56.32-.78.08-1.12.27-.28.66.06.2-.43.64-.4h.67l.58.29.1.67.8.42.45-.2.62.14.2.37.64.24.65-.34.8.34.04-.55 1.2.49.7-.58 1.87.02.02.36.78 1.44.52-.48.87.09.4-.4h.69l.33-.5 1.98.58.65-.36.85.27.62.7 1.05.08-.16-.5-.67-.43-.2-1.3.6-.62-.24-.56.58-.13.6-.85-.4-.74.57-.33.8-.14.34.34.44-.48.2-.78.39.14.34.75.4-.13.83 1.08.5 1.25-.33.26.6.18.63 1-.47.19.16 1.2 1 .37-.04.45.6.7.4.12-.2.48.12.54.63.46 1.04.4" stroke="rgb(209, 219, 221)" stroke-width="0.3" fill="none" style="stroke: rgb(0, 0, 0); display: none;"/>
      </g>
      <rect id="selection-rectangle" fill="#ffffccaa" stroke="rgb(209, 219, 221)" stroke-width="0.1"/>
      <ellipse id="selection-ellipse" fill="#ffffccaa" stroke="rgb(209, 219, 221)" stroke-width="0.1"/>
      <polygon id="selection-polygon" fill="#ffffccaa" stroke="rgb(209, 219, 221)" stroke-width="0.1"/>
      <polyline id="selection-polyline" fill="#ffffccaa" stroke="rgb(209, 219, 221)" stroke-width="0.1"/>
    </svg>
  </g>
  <svg id="legend-svg" width="100%" height="100%" style="overflow:visible;" class="ui-draggable ui-draggable-handle" x="1328.321548461914" y="504">
    <g id="legend-g-svg" fill="#000" transform="translate(0,0) scale(1)" style="font-family: Helvetica; font-weight: 400; font-style: normal;">
      <rect id="legend-bg-rect-svg" x="0" y="0" rx="3.8" ry="3.8" width="190" height="20" fill="#000000" stroke="rgb(209, 219, 221)" fill-opacity="0" stroke-width="0.1"/>
    </g>
  </svg>
</svg>
