<?xml version='1.0' encoding='UTF-8'?>
<svg xmlns="http://www.w3.org/2000/svg" xmlns:dc="http://purl.org/dc/elements/1.1/" xmlns:ns2="http://creativecommons.org/ns#" xmlns:rdf="http://www.w3.org/1999/02/22-rdf-syntax-ns#" id="wrapper" viewBox="0 0 1520 840" preserveAspectRatio="xMinYMin" height="840" width="1520" style="background-color: rgb(255, 255, 255);">
  <metadata>
    <rdf:rdf>
      <ns2:work rdf:about="">
        <dc:format>image/svg+xml</dc:format>
        <dc:type rdf:resource="http://purl.org/dc/dcmitype/StillImage"/>
        <dc:title>MapChart Map</dc:title>
        <dc:creator>
          <ns2:agent>
            <dc:title>MapChart.net</dc:title>
          </ns2:agent>
        </dc:creator>
        <ns2:license rdf:resource="http://creativecommons.org/licenses/by-sa/4.0/"/>
        <dc:description>This map was created with MapChart.net, a website for creating custom maps.</dc:description>
      </ns2:work>
      <ns2:license rdf:about="http://creativecommons.org/licenses/by-sa/4.0/">
        <ns2:permits rdf:resource="http://creativecommons.org/ns#Reproduction"/>
        <ns2:permits rdf:resource="http://creativecommons.org/ns#Distribution"/>
        <ns2:requires rdf:resource="http://creativecommons.org/ns#Notice"/>
        <ns2:requires rdf:resource="http://creativecommons.org/ns#Attribution"/>
        <ns2:requires rdf:resource="http://creativecommons.org/ns#ShareAlike"/>
      </ns2:license>
    </rdf:rdf>
  </metadata>
  <g id="map-group" transform="translate(-3156.7324035208726,-1110.812892954552) scale(4.246241691818043)">
    <svg id="map" width="1520" height="840" version="1.1" viewBox="0 0 1520 840" preserveAspectRatio="xMinYMin" data-originalStrokeWidth="0.3">
      <defs>
        <pattern id="circles3" width="10" height="10" patternUnits="userSpaceOnUse">    <rect width="10" height="10" fill="#fff"/>    <circle cx="4" cy="4" r="2" fill="#000"/>    </pattern>
        <pattern id="diagonal1" width="10" height="10" patternUnits="userSpaceOnUse">    <rect width="10" height="10" fill="#fff"/>    </pattern>
        <pattern id="diagonal3" width="10" height="10" patternUnits="userSpaceOnUse">    <rect width="10" height="10" fill="#fff"/>    </pattern>
        <pattern id="vertical1" width="10" height="10" patternUnits="userSpaceOnUse">    <rect width="10" height="10" fill="#fff"/>    <rect x="2" y="0" width="1" height="10" fill="#000"/>    </pattern>
        <pattern id="vertical3" width="10" height="10" patternUnits="userSpaceOnUse">    <rect width="10" height="10" fill="#fff"/>    <rect x="2" y="0" width="3" height="10" fill="#000"/>    </pattern>
        <pattern id="horizontal1" width="10" height="10" patternUnits="userSpaceOnUse">    <rect width="10" height="10" fill="#fff"/>    <rect x="0" y="2" width="10" height="1" fill="#000"/>    </pattern>
        <pattern id="horizontal3" width="10" height="10" patternUnits="userSpaceOnUse">    <rect width="10" height="10" fill="#fff"/>    <rect x="0" y="2" width="10" height="3" fill="#000"/>    </pattern>
        <pattern id="crosshatch" width="8" height="8" patternUnits="userSpaceOnUse">    <rect width="8" height="8" fill="#fff"/>    </pattern>
        <pattern id="subtlepatch" width="5" height="5" patternUnits="userSpaceOnUse">    <rect width="5" height="5" fill="#fff"/>    <rect x="2" y="2" width="1" height="1" fill="#000"/>    </pattern>
        <pattern id="checkers" width="8" height="8" patternUnits="userSpaceOnUse">    <rect width="8" height="8" fill="#fff"/>    </pattern>
        <pattern id="raindrops" width="10" height="10" patternUnits="userSpaceOnUse">    <rect width="10" height="10" fill="#fff"/>    </pattern>
        <pattern id="texture" width="4" height="4" patternUnits="userSpaceOnUse">    <rect width="4" height="4" fill="#fff"/>    </pattern>
        <pattern id="circles3_a03500_000000" width="10" height="10" patternUnits="userSpaceOnUse">    <rect width="10" height="10" fill="#a03500"/>    <circle cx="4" cy="4" r="2" fill="#000000"/>    </pattern>
        <pattern id="diagonal1_d9b400_535353" width="10" height="10" patternUnits="userSpaceOnUse">    <rect width="10" height="10" fill="#d9b400"/>    </pattern>
        <pattern id="diagonal3_3264c8_ffffff" width="10" height="10" patternUnits="userSpaceOnUse">    <rect width="10" height="10" fill="#3264c8"/>    </pattern>
        <pattern id="horizontal1_72b38e_000000" width="10" height="10" patternUnits="userSpaceOnUse">    <rect width="10" height="10" fill="#72b38e"/>    <rect x="0" y="2" width="10" height="1" fill="#000000"/>    </pattern>
        <pattern id="horizontal3_986ba1_ffffff" width="10" height="10" patternUnits="userSpaceOnUse">    <rect width="10" height="10" fill="#986ba1"/>    <rect x="0" y="2" width="10" height="3" fill="#ffffff"/>    </pattern>
        <pattern id="vertical1_b9a087_ffffff" width="10" height="10" patternUnits="userSpaceOnUse">    <rect width="10" height="10" fill="#b9a087"/>    <rect x="2" y="0" width="1" height="10" fill="#ffffff"/>    </pattern>
        <pattern id="vertical3_4c91bf_ffff33" width="10" height="10" patternUnits="userSpaceOnUse">    <rect width="10" height="10" fill="#4c91bf"/>    <rect x="2" y="0" width="3" height="10" fill="#ffff33"/>    </pattern>
        <pattern id="checkers_cc3333_f7f7f7" width="8" height="8" patternUnits="userSpaceOnUse">    <rect width="8" height="8" fill="#cc3333"/>    </pattern>
        <pattern id="texture_d1dbdd_525252" width="4" height="4" patternUnits="userSpaceOnUse">    <rect width="4" height="4" fill="#d1dbdd"/>    </pattern>
        <style id="map-style">svg { background-color: #ffffff; }</style>
      </defs>
      <path id="IL01" d="m957.43 292.03-.26.05.03.23.16-.03.02.16.26.12.14 1.04.47-.06.07.46.26-.04.06.57-.11.09.14.25-.2.03.08.46-.21.02-.31-.35-.18-.04-.04.48-.23.05.01-.2-.42.14.26 1.54-.19.15-.72.2-.13-.25-.33.06.06.45.45-.06.04.23-.1.25.24-.04.03.23-.21.05-.2.24-.24.03-.27.37.01.49-.08.24-.53.07-.23.36.02.5.15 1.03-1.11.13.25 1.84.07-.02.54 3.63-.9.14.2 1.33-.33.11-.08.18.04.28 1.4-.22.43 2.78-.44.07-.08-.45-.46.05.07.47-.43.06.27 1.78-.1.12-.44.03-.01-.48-.56.38.09.16-.27.08-.39-.03-.2-.16-.5-.02-.3-.18-.64-.85-.26-.21-.28-.08-.45.06-2.74.42-2.67.42-.42-2.6-.39-2.63-.46-2.96.87-.14.27-.34.4-.3.25.06-.05.45.9-.13.45 2.7 2.67-.43-.36-2.28-.65-4.07-.52.08-.11-.06.27-.3-.05-.12-.55.08-.07-1.27.33-.04-.02-.12.44-.09-.12-.69.57.04.02.11.32-.04-.12-.23.33-.05-.05-.22.67-.12.05.22.88-.14.33 2.05.44-.07.07.45.23-.02.03.23.22-.05.05.24.44-.08-.04.48 1.86-.28-.06-.67.39-.4-.15-.95.1.02-.16-.38.23-.04-.03-.13.22-.09-.04-.26.45-.1-.14-.9-.24.04-.05-.24-.2.05-.05-.23.66-.11-.06.25.15.2.54-.07.08-.26-.04-.34.23-.16-.07-.97-.14-.16-.23.03.11.7-.22.01-.13-.2-.13.03-.07-.47-.51.1-.04-.71.43-.07-.02-.24.23-.02.17.2.98-.16-.15-.66.7-.13-.1-.68v-.4l-.1-.28-.32.05-.05-.34.17-.03-.1-.8.23.2.14-.02v.24l.29.56.23.28" fill="#d1dbdd" stroke="rgb(209, 219, 221)" stroke-width="0.1" data-originalStrokeWidth="0.1" style="stroke: rgb(0, 0, 0); fill: rgb(209, 219, 221); pointer-events: auto; stroke-width: 0.1;" pointer-events="auto"/>
      <path id="IL02" d="m957.43 292.03.3.36.32.76.52.52.3.07-.01.16.28.09.12.47.14.28-.06.29.14.2v.02l.02.14v.11l.04.24.02.16.08.6.15 1.09v.09l.03.16v.06l.03.14.03.16v.04l.02.17v.11l.05.25v.13l.03.06v.09l.02.11v.05l.03.13v.1l.03.11.02.22.08.47.02.18.06.46.12.92v.04l.02.1.1.76.15 1.08.1.7.15 1.13.26 2.06.38 2.58.18 1.29.05.36.05.46v.07l.06.25v.12l.73 5.1.05.34.03.28.07.5.03.18.13.83.08.79.2 1.24.07.57.1.6.19 1.46v.02l.1.65.12.94.5 3.6.17 1.27.26 1.84.02.16.05.36.05.4.06.47.14 1.15.13.92.08.66.02.13.05.47.1.8.2 1.52v.15l.2 1.31.13 1.2.18 1.33.04.37.2 1.5.08.48.05.45.03.25-1.95.29-.12.1.07.4-.11.02.1.7-.31.04-.05-.23-.44.06-.08-.46-.45.06.07.45-2.27.3-.34.1-.08-.47-.45.08-.19-1.4-1.81.3-1.34.21-.28-1.84-.37-2.61.31-.06-.4-2.76-3.51.5.12.92-.9.12.03.23-.22.05-.03-.23-2.5.34-.13-.92-2.69.38-2.68.35-.35-2.78 2.67-.32-.27-2.1-.57.08-.27-2.04-2.08.26-.36-2.74-2.7.36-.23-1.69h-.17l-.39-2.71-.39-2.91-.07-.06-.85.11.04.23-.46.06-.08-.7.02-.22-.72.1-.1-.72.05-.32.3.22.5.13.33-.35.3-.54-.06-.46.32-.05.06-.12-.4.05.4-.35-.24-1.88-.37-3.25 1.75-.24.9-.12 4.3-.73 1.05-.15-.44-2.74 2.68-.42 2.73-.42.46-.06.27.08.26.21.63.84.32.19.49.02.2.16.39.03.28-.08-.1-.16.56-.38.01.48.44-.02.09-.13-.26-1.78.43-.06-.07-.47.46-.05.08.45.43-.07-.42-2.78-1.4.22-.04-.28.08-.19.33-.1-.2-1.32.9-.14-.54-3.64-.07.02-.25-1.84 1.1-.13-.14-1.05-.02-.47.23-.37.54-.07.07-.24-.01-.49.27-.37.24-.03.2-.24.21-.05-.03-.23-.24.04.1-.25-.04-.23-.45.06-.06-.45.33-.06.13.24.71-.19.19-.15-.25-1.54.42-.14v.2l.22-.05.04-.48.18.04.3.35.22-.02-.07-.46.18-.03-.13-.25.1-.1-.05-.56-.26.04-.07-.46-.47.07-.14-1.04-.26-.13-.02-.16-.16.03-.03-.23.26-.05" fill="#d1dbdd" stroke="rgb(209, 219, 221)" stroke-width="0.1" data-originalStrokeWidth="0.1" style="stroke: rgb(0, 0, 0); fill: rgb(209, 219, 221); pointer-events: auto; stroke-width: 0.1;" pointer-events="auto"/>
      <path id="IL03" d="m945.4 293.74-.87.15.04-.18-.31.05-.13-.35-.4.27-.22-.02-.22.18-.63.1-.71.22-.22-1.74-.11-.88-.7-5.01.27-.04.06.38.43-.05.2.7.17.14-.05.13.66.19.26-.01-.07-.29.27.05.39-.09.03.13.34.08.07.54-.9.13.16 1.26.16.32.02.68.62-.18.11.03.04.29.7.03.04.36.2-.03.03.15.68-.11-.05-.44-.33.04.05-.46-.12-.14.32-.13.03.1.66-.07-.05-.43.48.03.52-.35.06-.3.37.18-.03-.22.44-.07-.04-.36-.23-.06-.03-.17.22-.04-.12-.73-.21-.09-.08-.59.14.04-.06-.28.3-.15-.27-.3.67-.13.07.47.91-.14.07.43.2-.03-.07.3-.46-.09-.31.05-.17.4.41-.08.1.69.15.17-.11.1.47.33.18-.24.91.02.79-.09.03.16.21-.2.45-.06.12-.4.16.13.66-.16.26.48.47-.09-.12-.25-.47-.34.18-.25.61-.1.27.37.05.5.2-.03.16 1.15.07.46-.2-.08-.7.09v.12l-.46.07-.04-.35-.2-.26-.2-.04-.56.05.03.12-.5.01-.04.14-.4.1h-.17l-.02-.2-.21-.15-.25-.42-.2.13-.7-.18-.1.08-.56-.16-.1.17.05.38-1.07.18-.03.35-.3.01-.05.48-.2.26-.03-.19-.92.12.06.45.1.18-.7.36-.19-.01-.37.2v.13l-.24.1.08.45.07.57-.19.63" fill="#d1dbdd" stroke="rgb(209, 219, 221)" stroke-width="0.1" data-originalStrokeWidth="0.1" style="stroke: rgb(0, 0, 0); fill: rgb(209, 219, 221); pointer-events: auto; stroke-width: 0.1;" pointer-events="auto"/>
      <path id="IL04" d="m949.36 289.48-.05-.38.11-.17.55.17.1-.09.72.18.18-.13.26.42.2.14.03.21h.19l-.15.45-.14.05.04.23h-.57v-.05l-.9.12-.14.37h-.22l.25 1.56 1.03-.17.14.02-.01-.3.56-.09-.04-.22.8-.13.03-.48 1.49-.23.1.65 1.18-.55v-.07l.96-.14v.5l.2 1.25-.43.04-.34.16-.18.74-.37.11.03.17.32-.05.05.23-.23.02.02.24-.43.07.04.7-.39.05.03.24-.44.07-.1-.22-.83.14-.07-.45.09-.13.33-.06-.02-.11.9-.16-.08-.57-.68.11-.1-.57.23-.05-.03-.22-.79.13-.13.07.12.65-.09.1-.35-.03-.3-.24-.61.15-.1-.57-.45.14-.23-.14-.1-.48-.55.1.04.3.18.38.07.5-.88.1-.05-.2-.21.01.05-.64.08-.1-.2-.23-.1-.4-.25-.17-.08-.23.23-.05-.05-.28.19-.2.22-.04-.09-.47-.12-.94.44-.07-.1-.77" fill="#d1dbdd" stroke="rgb(209, 219, 221)" stroke-width="0.1" data-originalStrokeWidth="0.1" style="stroke: rgb(0, 0, 0); fill: rgb(209, 219, 221); pointer-events: auto; stroke-width: 0.1;" pointer-events="auto"/>
      <path id="IL05" d="m956.55 289.63-.28.16-.04-.26-.25-.2v-.17h-.25l.04.33-.66.1-.05-.23-.23.04-.18-1.14-.18.02-.05-.5-.27-.37-.62.1-.17.25.47.34.12.25-.47.1-.25-.49-.67.16-.16-.13-.12.4-.45.07-.21.2-.03-.17-.79.09-.92-.02-.17.24-.47-.34.1-.1-.14-.16-.1-.7-.42.08.18-.4.31-.04.46.1.54.06.17.15.03.57.36-.02v.17l.32-.04.09-.14-.08-.56-.13-.24-.42.07-.44-.62-.06-.34-.14-.1-.2-.49-.27.05-.08-.16-.2.07-.3-.1-.06.14-1.6.23-.25-.25-.06-.2-.35-2.74-1.34.19.06.5.2-.08.47-.07.23.09.13.92-.22.1-.45.05.03.28-.21.03.05.27-.36.1.02.2.34.08.08.25-.63.08.15.28-.3.14v.15l-.48-.06-.15-.26.04-.15-.12-.87-.12-.06-.07-.31.13-.13-1.23.17h-.12l-.17.4-.32.14-.33.05v.12l-.43.05-.26-1.96.88-.1-.19-1.54.09-.14.25-.02.28-.24 1.69-.2.28-.17.25.02.14-.17.2-.01.1.68 1.23-.16.06.45.34-.04-.03.46.2-.02.05.46.16.03-.13.2.15.2.1.84.76.54.4.33.66-.1.34.2.07.23.62-.09.16-.3.22.25.19-.02.09.69.25.08-.66.12.05.4.42.25.05.18.48-.08v.17h.35l.02.1.38-.02.18-.16-.2-.2.64-.1.01.33.25.1.8-.1v.23l1.01-.17-.03.48-.22.04.03.17.52-.02.16.43.32.07.17-.14.2.35.26.78.2.1-.12.1.11.27.2.18" fill="#d1dbdd" stroke="rgb(209, 219, 221)" stroke-width="0.1" data-originalStrokeWidth="0.1" style="stroke: rgb(0, 0, 0); fill: rgb(209, 219, 221); pointer-events: auto; stroke-width: 0.1;" pointer-events="auto"/>
      <path id="IL06" d="m949.36 289.48.1.77-.43.07.12.94.1.47-.23.04-.18.2.04.28-.23.05.08.23.25.17.11.4.19.24-.08.09-.06.64.22-.02.05.2.88-.08-.07-.51-.18-.39-.04-.28.56-.1.09.47.23.14.45-.15.1.57.62-.14.3.24.34.03.1-.1-.13-.65.13-.07.79-.13.03.22-.23.05.1.57.68-.12.07.57-.9.17.03.11-.33.06-.09.13.07.46.83-.14.1.2.44-.06-.03-.24.39-.05.51-.09.07.47.13-.03.13.2.22-.02-.1-.69.22-.03.14.16.07.97-.23.16.05.34-.08.25-.55.08-.15-.2.06-.25-.66.11.04.23.2-.05.06.24.23-.03.14.9-.44.09.04.26-.22.09.03.13-.23.05.16.38-.1-.02.15.95-.4.4.07.66-1.86.28.04-.48-.44.08-.05-.24-.22.05-.03-.23-.23.02-.07-.45-.44.07-.33-2.05-.28-1.81-1.3.21-.1-.26-.41.27-.03-.16-.43.07-.13-.7-.32.07-.17-.45-.16.03-.18-.2.13-.02-.03-.23-.38.07.02.19-.35-.02-.09-.26-.15-.04.06.24-.19.06-.15-.3-.2.04-.13-.33-.15.05-.06-.3-.18.04.08-.3.2-.62-.08-.57-.07-.44.23-.11v-.14l.36-.2h.2l.7-.35-.1-.19-.06-.44.92-.13.03.2.2-.26.06-.48.3-.01.02-.35 1.07-.18" fill="#d1dbdd" stroke="rgb(209, 219, 221)" stroke-width="0.1" data-originalStrokeWidth="0.1" style="stroke: rgb(0, 0, 0); fill: rgb(209, 219, 221); pointer-events: auto; stroke-width: 0.1;" pointer-events="auto"/>
      <path id="IL07" d="m956.9 290.95-.13.02-.23-.2.1.8-.17.03.05.34.32-.05.1.29v.38l.1.69-.7.13.15.66-.98.16-.17-.2-.05-.23-.32.05-.03-.16.37-.11.18-.75.34-.16.43-.04-.2-1.26v-.5l-.97.15v.07l-1.18.55-.1-.66-1.48.24-.02.48-.8.13.04.22-.56.1.01.3-.15-.03-1.04.17-.24-1.56h.22l.14-.37.9-.12v.05h.57l-.04-.23.14-.05.14-.46.4-.1.03-.13.5-.01-.03-.12.56-.05.2.04.2.27.04.34.47-.07v-.12l.69-.1.2.1-.07-.47.23-.04.04.23.67-.1-.04-.33h.25v.17l.25.2.05.26.28-.16.3-.06-.24.23-.03.26.07.41.25.04v.44" fill="#d1dbdd" stroke="rgb(209, 219, 221)" stroke-width="0.1" data-originalStrokeWidth="0.1" style="stroke: rgb(0, 0, 0); fill: rgb(209, 219, 221); pointer-events: auto; stroke-width: 0.1;" pointer-events="auto"/>
      <path id="IL08" d="m941.73 292.42-.22.08-.58.13-.26.23v-.38l.07-.55-.06-.25.36-.06-.21-.58-.6.26-1.3.1-.04-.37-.58-4.42-2.2.29-.27-2.03.11-.02.05.32.22-.01-.06-.29.62.18-.07-.49-.3.04.08-.38h.2l-.03-.17 1.8-.23 2.45-.32.21-.06.26 1.96.44-.05-.01-.12.33-.05.33-.13.16-.4h.12l1.23-.18-.13.13.07.3.12.07.12.87-.04.15.15.26.48.06v-.15l.3-.15-.15-.28.63-.07-.08-.24-.34-.08-.02-.2.36-.12-.05-.26.21-.03-.03-.28.45-.04.22-.1-.13-.92-.23-.09-.47.06-.2.08-.06-.5 1.34-.18.35 2.73.06.2.26.25 1.59-.23.07-.15.29.11.2-.07.08.16.28-.05.19.49.14.09.06.35.44.62.42-.07.13.24.08.56-.1.14-.3.04-.01-.16h-.36l-.03-.56-.17-.14-.54-.07.07-.3-.19.02-.08-.44-.91.14-.07-.46-.66.12.27.31-.3.15.05.28-.14-.04.08.6.21.08.12.73-.22.04.03.17.23.06.04.36-.44.07.03.2-.37-.15-.06.29-.52.35-.48-.03.05.43-.66.08-.03-.11-.32.13.12.14-.05.46.33-.04.05.44-.68.11-.02-.15-.21.03-.04-.36-.7-.03-.04-.28-.11-.04-.62.18-.02-.67-.16-.33-.16-1.26.9-.13-.07-.54-.34-.08-.03-.13-.39.09-.27-.05.07.29h-.26l-.66-.18.05-.13-.17-.14-.2-.7-.43.05-.06-.38-.27.04.7 5.02.1.87" fill="#d1dbdd" stroke="rgb(209, 219, 221)" stroke-width="0.1" data-originalStrokeWidth="0.1" style="stroke: rgb(0, 0, 0); fill: rgb(209, 219, 221); pointer-events: auto; stroke-width: 0.1;" pointer-events="auto"/>
      <path id="IL09" d="m955.7 287.86-.17.14-.31-.07-.16-.43-.52.02-.03-.17.22-.04.03-.48-1 .17-.02-.23-.8.1-.24-.1-.01-.33-.64.1.2.2-.19.16-.37.02-.02-.1h-.34l-.01-.17-.48.08-.05-.19-.42-.23-.06-.41.67-.12-.25-.08-.08-.7-.2.03-.22-.23-.16.3-.62.07-.07-.24-.35-.19-.65.1-.4-.33-.77-.54-.1-.83-.14-.21.13-.2-.16-.03-.05-.46-.2.02.03-.46-.34.04-.06-.45-1.24.16-.09-.68h-.2l-.14.18-.25-.02-.27.18-1.7.2-.27.23-.26.02-.09.14.2 1.54-.89.1-.21.07-2.46.3-.38-2.71 2.73-.4.87-.12-.18-1.34.23.02-.02.29.16-.04.17.31.8.13.13-.1.43-.06v-.1l.42-.05.23-.03.18-.15.3-.04.17.2.25-.02.4-.38.13.15.08.48-.34.3.92-.14.11.81.2-.07.17.31.23.04.03.22.35-.02.19 1.23.16.2.05.34.28-.02.05.4.23.13.04.23.16.09 1.25-.14.23.04.76-.06.09-.14-.25.03-.03-.22.76-.1.2-.1-.02-.15.64-.09.17 1.39 1.78-.23.04-.13.24.18.32.52v.33l.18.58.36.65.16.57.27.53.36.2-.23.07.05.23" fill="#d1dbdd" stroke="rgb(209, 219, 221)" stroke-width="0.1" data-originalStrokeWidth="0.1" style="stroke: rgb(0, 0, 0); fill: rgb(209, 219, 221); pointer-events: auto; stroke-width: 0.1;" pointer-events="auto"/>
      <path id="IL10" d="m954 284-.04.13-1.78.23-.17-1.39-.64.1.02.13-.2.1-.76.11.03.22.25-.03-.09.14-.76.06-.23-.04-1.25.14-.16-.1-.04-.22-.23-.12-.05-.4-.28.01-.05-.34-.16-.2-.2-1.23-.34.02-.03-.22-.23-.04-.16-.31-.21.07-.1-.8-.93.12.34-.3-.08-.47-.13-.15-.4.38-.25.02-.17-.2-.3.04-.18.15-.23.03-.25-.37.03-.37-.07-.57h.39l.16-.1.09-.24-.11-.25-.26.16-.17-.33-1.55.17-.13-.2-.08-.7-.44.12-.23-.03.05.48-.45.03.03.25-.47-.12-.53-.02.12-.33-.34-.05-.04-.34-.36.11-.45-.1.16.15.02.28-.43.05.04.35.53-.08-.28.62-.85.11-.06-.43-.23.02-.1-.76-.13.39-.17-.09-.03-.32-.3.1-.05-.14-2.01.27-.49-3.9.23-.03.43-.06.25-.03.43-.05.53-.06.27-.05.98-.13h.1l.44-.08.2-.02 1.03-.13.46-.06.9-.12.37-.08h.12l1.23-.18.27-.02.39-.06.25-.04h.13l.36-.06.85-.11.45-.05.78-.1.45-.05h.04l.86-.11.32-.03.26-.03.56-.07.23-.02.7-.09.13-.02.31-.03h.01l.19.63.06.85-.03.44.19 1.28-.18.7v.25l-.17-.06.04.86-.07.23.1.56-.06.35.28.97.28.54.3.72.47.8 1.71 2.34.7.71.5.34" fill="#d1dbdd" stroke="rgb(209, 219, 221)" stroke-width="0.1" data-originalStrokeWidth="0.1" style="stroke: rgb(0, 0, 0); fill: rgb(209, 219, 221); pointer-events: auto; stroke-width: 0.1;" pointer-events="auto"/>
      <path id="IL11" d="m930.5 287.64-2.47.32-.34-2.74-.9.1-.41-3.27-.06-.3h-.55l.09-.22.26-.02v-.18l.17-.01-.17-.31.47-.06-.06-.46.57-.1-.1-.66 7.14-.9-.13-1.02-.14-.15.34-.08.3.06.14-.1h.23l-.02-.19 2-.26.06.15.3-.11.03.32.17.09.12-.39.1.76.24-.02.06.43.85-.11.28-.62-.53.08-.04-.35.43-.05-.02-.28-.16-.16.45.11.36-.1.04.33.34.05-.12.33.53.02.47.12-.03-.25.45-.03-.05-.48.23.02.44-.1.08.68.13.2 1.55-.16.17.33.26-.16.1.25-.08.23-.16.1-.4.01.08.57-.03.37.25.37-.43.05v.1l-.42.05-.13.1-.8-.12-.17-.3-.16.04.02-.3-.23-.02.18 1.34-.87.11-2.73.4.38 2.73-1.8.23.03.19-.19-.01-.07.38.3-.05.06.5-.62-.2.06.3H936l-.05-.31-.1.02.25 2.03 2.2-.3.59 4.44.04.38 1.3-.12.6-.26.22.58-.37.06.07.25-.07.55v.38l.25-.22.58-.13.22-.09.22 1.75.7-.24.64-.1.22-.17.22.02.4-.27.13.35.31-.05-.04.19.86-.15-.08.3.19-.05.05.3.15-.04.13.33.2-.03.14.29.2-.06-.06-.24.15.04.1.26.34.01-.02-.18.38-.07.03.23-.13.03.18.18.16-.02.17.45.33-.06.12.69.43-.07.03.16.41-.27.1.26 1.29-.21.28 1.81-.87.14-.05-.22-.66.12.04.22-.33.05.12.23-.32.04-.02-.1-.57-.05-.03-.19-.37.26-.18.28-1.44.25-.16.05.1.67-.49.07-.45-2.98-2.63.41-.16-1.14-.7.33-.46-.1-.13.05-.17.37-.23.07-.86.14-.22-1.67-.07-.4-.73.1-2.76.43-1.72.24-.39-3.13-.46-3.5-.2.03v.46l-.62.09-.05-.35h.11l.04-.49-.47-.07-.13-.18-.58.12-.1-.23-.08-.67-.72.1" fill="#d1dbdd" stroke="rgb(209, 219, 221)" stroke-width="0.1" data-originalStrokeWidth="0.1" style="stroke: rgb(0, 0, 0); fill: rgb(209, 219, 221); pointer-events: auto; stroke-width: 0.1;" pointer-events="auto"/>
      <path id="IL12" d="m939.09 447.91.2.33.1.12.73.53.3.15-.4.21-.48.28-.4-.07-.2-.17-.1-.42-.17-.57-.36-.33-.2-.1-.5-.37-.56-.92-.08.22-.6.03-.4-.01-.22-.01-.03.38.28.39.62.2.5.35.09.25-.15.62-.28.27-.34-.06-.7-.58-.38-.18-.8-.23-.38-.23-.25-.27-.04-.22.07-.36.04-.14.03-.36-.12-.4-.16-.27-.26-.21-.58-.38-.33-.4-.28-.39-.11-.29-.27-.39-.27-.4-.18-.35-.23-.68.06-.3.1-.33v-.06l-.02-.12-.14-.13-.2-.03-.33.08-.14.03-.17-.2-.18-.16-.38-.44-.1-.21.04-.3v-.14l.01-.28.03-.08.06-.17.25-.26.12-.29.15-.15.23-.1.57-.12.35-.2.09-.14.05-.25.09-1.02-.04-.2-.2-.45-.25-.53-.28-.46-.54-.5-.45-.46-.34-.43-.31-.68-.51-.67-.1-.32-.14-.54-.04-.5.16-.2.21.04.3.05.3-.13.11-.24-.1-.26-.4-.4-.1-.06-.1-.13-.07-.06-.38-.43-.14-.99.07-.43-.1-.27-.14-.15-.5-.14-.88-.14-.21-.09-.1-.09-.16-.22-.03-.07-.07-.06-.02-.05-.02-.06-.1-.1-.21-.1-.14-.03-.1-.07-.07-.21-.37.17-.4.05-.4-.17-.05-.1.02-.42.05-.29-.03-.27-.29-.42-.2-.13-.6-.28-.17-.09-.55-.38-.37-.4-.19.03-.15.04-.29-.14-.42-.05-.1.1-.31-.3-.1-.6-.38-.15-.78-.48h-.05l-.08.05-.05.02-.03.01-.09.12-.03.04-.05.02-.05.03-.08.1-.1.18-.12.22-.09.1-.09.1-.12.1-.22.15-.05.04-.1.03-.3.02-.19-.02-.17-.05-.14-.04-.02.04v-.04l-.26-.12-.09-.06-.14-.22-.15-.24-.06-.1-.06-.04-.29-.62v-.18l.24-.2.05-.17.05-.05.25-.02.37-.3.11-.39-.28.03-.14-.33-.58.27-.41.12-.14.03-.22-.02-.3-.19-.67-.73-.22-.13-.3-.14-.04-.04-.01-.07-.1-.16-.21-.05-.6.1-.2-.1-.26-.13-.33-.23-.12-.15-.03-.03-.06-.08-.03-.41-.15-.22-.4-.2-.17-.06h-.02l-.2-.05-.23.2-.81-.41-.37-.23-.7-.53-.23-.38-.7-.96-.43-.36-.25-.13-.43-.07-.45-.3-.56-.68-.07-.12-.2-.43-.18-.65-.08-.3-.1-.38-.07-.3-.06-.53-.07-1.04.23-.8.04-.1.02-.21.08-.33.15-.37.34-.45.31-.5.31-.32.14-.3.05-.39.03-.2.01-.18.04-.46.02-.36.17-1.12v-.12l1.22 1.01.2-.58.1-.12.05-.34.1.02.22-.48.97-.1.84-.67.15-.24.55.06.92.52.16-.14.17 1.61 2.31-.25.14-.2.11-.5-.25-2.07.66-.07-.06-.42-.24-.03-.08-.2h-.45l-.6-.08-.84-.06-.15-.36h-.16l-.1-.24-.1-.73.29-.16.2-.28.86-.1 3.12-.28 2.26-.23 3.16-.4-.38-2.75 2.8-.24 2.8-.35 2.8-.37 2.72-.16-.33-2.77 2.51-.25 2.72-.39 2.74-.34 2.69-.4-.3-2.8-2.73.44-.15-1.38-1.01-8.22 3.12-.38 2.54-.32 2.36-.29-.54-4.1-.33-2.75 2.65-.33-.16-1.32.35.08-.03-.2.24-.05-.05-.23 2.1-.27.22 1.6 1.75-.24-.01-.4.18-.4-.2-1.28.55-.29-.03-.24.4-.06-.05-.25-.38.07-.53-4.15 1.8-.25-.12-.9.9-.13-.03-.11 1.42-.23.34 2.32.44 2.74.25 1.36 1.33-.2 2.97-.52 2.18-.36v.35l2.1-.3 1.66-.24.03.25.09.63.05.37v.07l.14.95.15 1.06.1.71-.02.03-.34-.08-.06.15-.02.13-.15.16-.5.03-.23.24-.04.12-.26.66-.33.16.06.18.32-.1.19.08-.02.21-.19.24.04.25.2.12-.05.43.38.4.25-.3.15-.01.09.21-.16.15.2.6v.42l-.17.37-.37.35-.02.16-.33.04-.04.08.08.32v.1l-.42.13-.08.19.32.1.06.1-.09.07-.26-.1-.2.24-.11.4v.1l.4.16.04.2.2-.02-.12.27-.26-.02-.08.13.03.1.15.13.24-.08.5-.02.11.1-.07.47.12.1.03.02.2.01h.25l.14.2.16.08.36.35.04.21-.15.3.35.66-.03.23-.02.12-.09.2-.01.05.02.07.03.05.07.03.14.06.06.02.07-.05h.06l.03.05v.04l-.01.06-.08.04-.1-.03-.14-.05-.06.02-.01.04v.05l.05.06.07.03.23.04.12.05h.05l.24.04.28.08.19.07.25.33.22.12-.03.33-.1.13.16.27-.03.16v.2l-.18.1.03.32.27.19-.15.02-.2.06-.06.2-.2.04.05.19.16.1.06.24-.24.08.11.38-.17.12.39.16.27.08.04.37.2.35-.1.27.55.67.18.1.18.28-.06.18-.3.15-.05.13.38-.04.07.07v.06l-.02.22-.06.35.2.2-.18.2-.04.24-.17.37-.01.3.03.25v.06l-.04.14-.18.32-.18.2-.44.16-.27.08-.41.19-.21.2-.16.66-.23.12.01.35.1.15-.12.25.07.18-.15.2.05.16.1.19.32.05-.23.25-.28-.14-.18.03-.02.05.05.24.08.14-.26.26-.06.18.07.3-.24.17-.15.22.48.71.22.15.04.13-.14.26-.16.08-.27-.13-.34.52-.61.48-.4.04-.24.06-.1.09-.1.2-.12.3.04.2h.38l.26.13.02.2-.18.16-.04.36.04.46-.2.5-.22.42-.19.38-.1.17-.59.31-.1.17-.23.39-.03.09-.12.64.16.79-.08.47-.31.38-.21-.03-.21-.4.07-.43-.12-.23-.16-.03-.18.16-.1.68-.1.15-.08.05-.24.42-.26.03-.08-.19.2-.51-.08-.19-.35.02-.27.22v.35l-.22.17-.03.22.28.3-.26.26-.1.22.01.3-.24-.02-.08-.25-.4-.31-.04.09.16.15.13.35-.08.33.02.34.07.24.04.12.2.25.47.38.49.22.2.32.01.23.23-.18-.03-.34.16-.07.2.17-.04.29-.09.1-.23.22.08.18-.21.19-.24.42-.12-.11-.11-.04-.31.1-.08.2.02.44-.02.05-.36.11h-.15l-.15.06-.22.14-.06.27.2.32h.15l.34-.2.25-.16.09-.05.14-.07.06-.07.03-.05.03-.03h.05l.08.22.1.19-.06.15-.13.49-.25.26-.59.36-.63.05-.27.23.03.22.07.1.32.08.22-.12.28.15-.24.26-.1.3v.19l.44.9.02.34-.15.24-.39.14.09.43.19.42-.16.16-.31-.07-.14-.15-.2.05-.14.2.23.27.21.01.78-.05.28.6-.02.13-.1.1-.3-.11-.07.01-.51.11-.4-.07-.41-.29-.23.03.07.4.16.14.3.27.33.62.26.27.6.1.2.1.04.36-.34.24-.5-.01-.44-.17-.21.2.05.28.19.16.34.25h.22l.36-.28.24-.08.2.2.03.1-.05.03-.12.24-.03.35v.37l-.06.2-.28.68-.2.33-.12.05-.45.33-.18.24-.39.24-.23.47-.03.18-.06.08-.13.2-.16.26-.16.57.2.81.49.9.1.57.2.3.3.14.48.34.42.53.37.16.25.18.2.31.01.23.06.18-.04.43-.18.12-.07.2-.07.2-1.29.24-.29.09-.68.27-1 .3-.26.09-.67.12-.65.2-.61.4-.18.2-.17.14-.21.24-.2.35-.18.28-.27.26-.23-.04-.1-.17-.47-.26-.2-.08-.2-.04-.28.16-.3.13-.47.34-.27.34-.17.44-.02.36-.03.32.04.4-.01.11-.02.1v.05l-.02.1-.01.12-.08.18v.12l-.04.05-.08.23-.02.06-.05.23-.04.16-.12.3-.02.07-.04.17v.1l.03.02-.02.01-.01.12.06.05v.05l.01.03.09.06.03.06.05.13.05.1.02.08.02.02.05-.02-.02.03-.06.05h-.02l-.03.02-.07-.04v.02l.03.06.1.02.1.1.1.09.12.09.11.05.1.09.1.12.07.1.05.16.1.15.1.1.04.04.07.06.14.08.1.07.07.01.06.03.08.08.12.09.07.08.07.14.05.11.03.1.04.07.01.05.05.11.05.08.03.05.04.11.07.14.06.15.12.24.17.19-.03.14-.04.23-.24.97.07.09-.13.68-.12.24-.06.16-.23.2-.24.1-.24.05-.13.05-.54.12-.31-.01-.92-.15-.13-.07-.1-.06-.05-.14-.06-.02-.5-.47-.05-.04-.36-.21-.32-.15-.15-.05h-.18l-.8-.2-.42-.18-.3-.08h-.36l-.38.1-.45-.15-.15-.11-.2-.09-.76-.5-.11-.05-.05-.06-.18-.1-.31-.18-.39-.06-.38-.1-.24-.08-.27-.09-.6-.2-1.02-.24-.19-.01-.2-.06-.03.07-.13.05-.67.04-.12-.07.05-.03.01-.02-.46.12-.25.1-.36.35-.4.21-.22.28-.25.35-.08.13-.34.37-.18.26-.2.36-.11.35-.03.32-.2.6-.2.28-.09.14-.45.45h-.12l-.06.28-.09.1-.13.23-.1.2-.2.59-.04.6.06.34.07.18" fill="#d1dbdd" stroke="rgb(209, 219, 221)" stroke-width="0.1" data-originalStrokeWidth="0.1" style="stroke: rgb(0, 0, 0); fill: rgb(209, 219, 221); pointer-events: auto; stroke-width: 0.1;" pointer-events="auto"/>
      <path id="IL13" d="m913.4 398.63-.2.28-.28.16.1.73.1.25.15-.01.15.35.84.06.6.1.45-.01.08.2.24.03.05.42-.65.07.25 2.07-.1.5-.15.2-2.3.26-.18-1.62-.16.14-.92-.53-.55-.05-.15.24-.84.67-.97.1-.22.48-.1-.02-.05.34-.1.12-.2.58-1.22-1 .13-.38h-.02l.17-.41.48-1 .19-.16.14-.2.4-.53.15-.5v-.12l.05-.4-.04-.48-.18-.6-.13-.3-.24-.38-.2-.16-.2-.28-.12-.57.03-.15.09-.23.47-.5.15-.44.04-.16.04-.07.22-.32.3-.27.52-.53.11-.25.1-1.03-.04-.19-.1-.16-.49-.23-.34-.17-.16-.07-.3-.21-.1-.04-.33-.14-.2-.08-.07-.02-.07-.02-.08-.24.13-.13-.2-.3.06-.62-.07-.29.84-.1.23.35.15-.17.4-.05.07-.45-.08-.36.11-.06-.14-1.32-.67.06-.27-2.3-.37-3.22-.68-5.42h-.02l-.55-4.36-.15-1.11 2.52-.33 5.64-.68-.69-5.52 2.62-.32-.07-.73-.1-.67-.37-.1-.03-.3h.12l-.17-1.42.06-.18v-.63l-.13-.54-.06-.54.04-.4 1.04-.13.18 1.48.22-.16 1.45-.19.07.79-.05.61 2.78-.35-.35-2.75 2.75-.28-.14-1.37 3.1-.35 2.22-.3-.19-1.37 2.73-.39 5.33-.82 1.39-.17-.36-2.77 4.07-.49 2.62-.35-.36-2.75 3.52-.46-.08-.55.35.16.09-.25-.03-.34 2.24-.29.08.57.23.1.22.2 1.4-.19.38 2.75-2.7.37.18 1.38-2.65.33.15 1.15-.08.23-1.24.17.37 2.78-4.01.53-.9.1.1.9-2.24.28-.91.11-.02-.22-2.26.3-.04-.2-.24-.04-.65.18.04.36-.16.06-.24.3-.3.27-.34.08-.08.23-.35.1h-.23l-.3-.18-.24.05-.08-.47-.3-.08-.12-.45h.1l-.14-.33.72-.13-.02-.45.12-.03-.06-.54-.79.14-.13.1-.47.64-.53.85v.57l-.13.26-.53.2.04.28-.16.02.01.22-.5.07.01.45-1.08.15-.74-.34-1.08.13-.18.08-.19-.3-.18-.08-.11.15-.13.57-.1-.03-.38.43-.32.18-.11.47-.16.12-.44.17.03.16-.57-.12-.18.08v.38l-.3-.05-.5.58h-.29l-.26-.24.03-.18-.2-.12.28 2.46-1.28.14.17 1.37-1.34.15.12.98.34 2.7-1.35.14-2.66.37.69 5.52h-.1l.32 2.61.42 3.05.65 5.35-2.74.33-2.75.3.2 1.8-.19.02-.04.22h-.2l.12 1.18.46.08.53 4.84-.45.02-.25-.07.11.93-.04.38-.25.45.03.53-.25.15.08.38" fill="#d1dbdd" stroke="rgb(209, 219, 221)" stroke-width="0.1" data-originalStrokeWidth="0.1" style="stroke: rgb(0, 0, 0); fill: rgb(209, 219, 221); pointer-events: auto; stroke-width: 0.1;" pointer-events="auto"/>
      <path id="IL14" d="m930.5 287.64.71-.1.08.67.1.22.58-.12.13.18.47.08-.04.48h-.11l.05.36.62-.09v-.46l.21-.04.45 3.51.39 3.13 1.72-.24 2.76-.43.73-.1.07.4.22 1.67.86-.14.23-.07.17-.37.13-.06.46.1.7-.32.16 1.14 2.63-.41.45 2.98.5-.08-.11-.66.16-.05 1.43-.25.18-.28.38-.27.03.2.12.7-.44.08.02.12-.33.04.07 1.27.55-.08.04.11-.26.31.11.06.52-.09.65 4.07.36 2.29-2.67.42-.45-2.7-.9.14.05-.45-.25-.06-.4.3-.27.34-.87.14-1.63.28-1.89.28-1.79.28-2.65.37.42 2.75.34 2.08-.33.18h-.59l-.32-.27-.28-.05-.4.1-.6-.22h-.28l-.7-.16-.6.1-.57-.16-.64-.01.04.34-.12.03.19 1.48-2.26.33.1.69-.45.06-.09-.7-1.8.23-.02-.15-.24.14-.2-.02-.1.13-.34.01.2 1.69-.19.17-2.44.3.11.92-2.74.37-.67.08-.06-.46-.29-.38-.07-.28-.22.03-.03-.24-.4-.33.1-.15-.2-.28-.62-.08-.46.1-.32-2.78-.21-1.72-.33-2.75 1.14-.16 1.86-.21 2.26-.3-.33-2.79-.19-1.39 2.7-.27 2.6-.37-.38-2.77-.03-.04-.67-5.47-.37-2.74 5.25-.7-.07-.45-.08-.03.05-.33-.26-1.9" fill="#d1dbdd" stroke="rgb(209, 219, 221)" stroke-width="0.1" data-originalStrokeWidth="0.1" style="stroke: rgb(0, 0, 0); fill: rgb(209, 219, 221); pointer-events: auto; stroke-width: 0.1;" pointer-events="auto"/>
      <path id="IL15" d="m930.03 344.73 1.36-.19 1.83-.22 9.92-1.2.48-.1-.12-.9 2.68-.36 2.69-.38.13.92 2.5-.34.03.23.22-.05-.04-.23.91-.12-.12-.92 3.5-.5.41 2.76-.31.06.37 2.61.29 1.84 1.33-.2 1.81-.3.19 1.4.45-.09.08.47.34-.09 2.27-.3-.07-.47.45-.05.08.46.44-.06.05.23.32-.05-.11-.69.11-.01-.07-.4.12-.1 1.95-.3.06.4.07.52.07.54.11.81.07.5.06.46.03.29.1.69.13.95.14 1.04.14.9.08.68.13.94.07.46.15 1.13.08.57.05.34.04.24.1.64.06.4.18 1.23.25 1.82.1.6.17 1.32.08.6.05.21-1.66.26-2.1.28v-.35l-2.18.36-2.97.52-1.33.2-.26-1.35-.42-2.74-.35-2.33-1.42.23.02.11-.89.13.12.9-1.8.25.53 4.15.38-.07.05.25-.4.06.03.24-.55.29.2 1.28-.17.4v.4l-1.75.24-.21-1.6-2.11.27.05.23-.24.05.03.2-.36-.07.16 1.3-2.65.34.34 2.75.55 4.1-2.37.3-2.54.31-3.12.38 1.01 8.22.15 1.38 2.74-.43.29 2.79-2.7.4-2.73.34-2.72.39-2.52.25.34 2.77-2.72.16-2.8.37-2.8.35-2.8.24.38 2.75-3.16.4-2.26.23-3.12.29-.86.09-.08-.38.25-.14-.03-.53.25-.45.04-.38-.1-.93.24.08.45-.04-.53-4.84-.46-.07-.12-1.17.19-.01.06-.22.18-.03-.2-1.79 2.75-.3 2.74-.32-.65-5.36-.42-3.05-.32-2.6.1-.01-.69-5.52 2.66-.37 1.35-.15-.34-2.69-.12-.98 1.34-.16-.16-1.36 1.27-.14-.28-2.46.2.12-.02.2.25.22h.3l.5-.58.28.05.01-.38.19-.08.56.12-.03-.16.44-.17.16-.12.1-.47.33-.18.37-.43.1.03.14-.58.1-.13.2.08.17.3.2-.1 1.07-.13.74.36 1.08-.15v-.47l.49-.06-.01-.22.16-.03-.04-.28.53-.19.13-.25v-.57l.52-.86.48-.63.13-.1.79-.14.06.53-.12.03.02.45-.72.13.13.32h-.1l.13.46.3.08.08.47.24-.06.3.19h.23l.34-.1.08-.23.35-.08.3-.27.24-.3.16-.06-.04-.36.66-.18.23.03.04.22 2.26-.3.02.21.91-.1 2.25-.28-.11-.9.9-.11 4-.53-.36-2.78 1.24-.17.08-.23-.15-1.15 2.65-.32-.18-1.39 2.7-.38-.39-2.74-1.39.2-.22-.22-.23-.08-.08-.57-2.24.28.03.34-.09.25-.35-.17.08.56-3.52.46.36 2.75-2.63.36-4.06.48.36 2.77-1.4.17-5.32.83-2.73.38.19 1.37-2.22.3-3.1.35.14 1.37-2.75.3.35 2.73-2.78.35.05-.61-.07-.79-1.45.19-.22.16-.18-1.48-1.04.14-.04.4.06.53.13.54v.63l-.06.2.17 1.4h-.12l.03.3.37.11.1.66.07.74-2.62.3.69 5.53-5.64.68-2.51.32.14 1.12.55 4.36h.02l.68 5.42.37 3.23.27 2.29.66-.06.16 1.32-.12.06.08.36-.07.45-.4.05-.15.17-.23-.35-.84.1.07.29-.06.62.2.3-.13.13.08.24h-.11l-.43-.36-.26-.21-.2-.09-.5-.22-.82-.05-.36.06-.25.01-.28-.14-.34-.1-.35-.19-.72-.3-.2-.07-.21-.07-.37-.1-.57.04-.18-.08h-.36l-.48.34-.2.45.02.33-.06.3-.42.8-.2.13-.66.85-.32.19-.29.06h-.3l-.03-.05-.95-.4-.35-.51-.74-.63-.01-.21-.01-.08-.27-.52-.14-.28v-.1l-.03-.22-.13-.68-.1-.15-.04-.05-.1-.14-.05-.06-.13-.3-.55-.89-.07-.33.24-.3.01-.2.38-.57-.01-.38-.12-.4-.05-.14-.4-.52-.21-.4-.08-.19-.07-.57-.15-.37-.12-.38-.04-.5-.16-.52-.21-.65-.24-.27-.4-.12-.45-.46-.19-.32-.45-.34-.05-.16-.15-.09-.46-.2-.8-.72-1.02-.5-.34-.2-.29-.28h-.09l-.16-.04-.34-.23-.06-.16-.14-.2-.1-.06-.32-.05-.37-.13-.26-.18-.27-.06-.78-.42-.26-.17-.12-.1-.24-.23-.26-.27-.16-.25-.05-.32-.06-.32-.3-.23-.11-.15-.52-.83-.08-.1-.35-.04h-.3l-.24-.04-.41-.08-.27-.32-.14-.17-.23-.9-.32-.34-.92-.3-.43-.31-.33-.44-.24-.17-.1-.15-.17-.18-.34-.27-.45-.23-.1-.13-.16-.13-.4-.25-.23-.15-.3-.24-.3-.28-.1-.1-.2-.22-.06-.45.02-.27.02-.34-.03-.47.06-.19-.2-.46-.07-.1-.16-.18-.8-.5-.52-.25-.23-.28-.02-.1-.02-.05-.1-.3-.22-.51.07-.5.17-.3.23-.33.07-.1.01-.23-.08-.28-.17-.25-.26-.2-.17-.21-.47-.79-.1-.04-.39-.8-.3-.44-.22-.44.07-.66-.19-.42-.08-.22-.14-.54-.1-.26-.05-.13-.15-.6-.03-.22-.05-.28.03-.46-.17-.66.05-.38.09-.25-.08-.18v-.63l-.08-.38.15-.35.16-.43-.12-.59.04-.25.37-1.18.06-.47.14-.32.08-.19.15-.33.1-.12.06-.04.22-.14.07-.07.19-.29.47-.12.29-.13.19-.2.04-.24-.03-.38-.09-.33-.23-.65.05-.43.15-.5.06-.25v-.61l-.17-.43-.35-.46-.15-.15-.32-.1-.19-.32.03-.23.07-.15.46-.52.1-.27.29-.64.23-.27.21-.15.82-.52.87-.3.27-.17.13-.02.37-.02.18-.04.64.01.1-.01.2-.06.66-.59.35-.25.38-.42.07-.62.05-.16v-.36l-.1-.36-.05-.07-.02-.09.06-.67.07-.21.08-.17.12-.32.07-.32v-.2l-.02-.13-.1-.32-.1-.15v-.43l.05-.16.06-.14.18-.2.22-.28.32-.35.21-.65.5-.56.02-.07.2-.48.23-.26.65-.42.14-.2.02-.4.13-.68-.22-.66.04-.22.16-.65-.02-.42.01-.48-.2-.97-.08-.26-.02-.22v-.49l-.29-.43-.24-.25-.15-.32-.28-.37-.14-.24-.1-.16-.13-.14-.32-.13-.23.04-.3.08-.28-.05-.37-.58-.3-.41-.4-.45-.7-.6-.1-.1-.05-.06-.02-.28.17-.4.3-1.06.26-.37v-.57l-.03-.32 2.14-.2 2.02-.2 3.07-.2 2-.2.23.02.18 1.82.09.9h.1l.28 3.15.32 3.46.2 2.3.2 2.09 1.17-.08 1.58-.12 2.65-.28.38 3.77.6 6.34.08.92-1.78.14.02.42-.46.03-.03-.43-1.27.12-1.83.19.17 1.9-.23-.04-.93.08-.05.35.2.1.07.38.32.07.04.25 2.04-.2.06-.26 1.26-.14 2.7-.19 2.79-.28 3.74-.41 2.29-.27 3.98-.45-.17.38-.22.18.91-.11 1.35-.1 2.63-.35.49 3.65 2.12-.27 2.3-.3 3.53-.51 2.69-.37.18 1.4 3.48-.47 1.9-.24" fill="#d1dbdd" stroke="rgb(209, 219, 221)" stroke-width="0.1" data-originalStrokeWidth="0.1" style="stroke: rgb(0, 0, 0); fill: rgb(209, 219, 221); pointer-events: auto; stroke-width: 0.1;" pointer-events="auto"/>
      <path id="IL16" d="m943.66 305.23.45 2.96.4 2.63.42 2.6.42 2.74-1.03.15-4.31.73-.9.12-1.75.24.37 3.25.25 1.88-.42.35.41-.05-.06.12-.32.05.05.46-.29.54-.32.35-.5-.13-.3-.22-.06.32.1.72.72-.1-.02.23.08.7.46-.07-.04-.23.85-.11.07.06.4 2.9.38 2.73h.17l.23 1.68 2.7-.36.37 2.74 2.08-.26.25 2.04.58-.09.27 2.1-2.67.33.35 2.78.12.91-.48.1-9.92 1.2-1.83.22-1.36.19-.17-1.26-.32-2-.03-.45-.26-1.72.04-.12.7-.1.07.26 1-.14-.02-.3.18-.2.02-.24h.23l-.03-.25.44-.07.05.23.48-.07-.05-.44-.74.09-.04-.36-.24.06-.24-.18-.01-.15.25-.04-.13-.76-.39.4-.07-.28-.9.15.06.45-.22.03.07.45-.67.1-.01.22-.16.02.03.25-.45.05-.05.24-.63.08.04.28-.67.04.01.22-.63.08-.2.11.03.16-1.37.18.07.47.17.31-.11.07.03.3-.14-.2-2.04.26-.06.25-.9.13-.03-.23-1.14.16.02.22-.53.13-.32-.16-.38.16-.49-.72-.16-.58-.05-.63-.5.08-3.57.46-.3-2.3-.17.03-.02-.3-.28.03.17-.27.02-.25-.17-.34-.04-.4.8-1.23.17-.43-.16-.2-.02-.23.47-.7.8-.67.15-.58-.16-.57-.18-.32-.03-.35-.19.14-.21-.1.13.4-.38-.1-.09-.16-.27-.13-.14-.31-.3.08v-.26l-.38.14.02.2.16.02-.18.3-.12.03-.26-.26-.51-.14.04.66.42-.05.1.18-.08.64.1-.02.05.35.22-.03.06.59-.14.12v-.23l-.29.28-.94-.01.06-.39-1.42.17-.13-1.07-.3.03-.34-.07-.21-.17-.8-.27-.1-.87h-.4l-.24.13-.03-.25-3.14.34-.58-5.07-.65-5.94 2.72-.33-.3-2.65.24-.04-.28-2.73-2.72.29.3 2.75-2.84.3.27 2.68-2.64.23-2.68.34-2.67.28-.27-2.76-.27-3.02-.12-1.14-.18-2.03.36-.11-.02-.4.2-.02.1-.2.54-.13h.7l.06.45.3-.05v-.31l.22.08-.05-.44.12-.02-.17-1.52.18-.03.15-.24.82-.23h.2l.42-.18.34-.18.17-.29.48-.12.22-.52.07-.56-.2-.34 1.8-.2 1.32-.12 3.73-.44 6.02-.71-.32-2.73-.36-3.15-.51-5.01-1.3.15-.07-.19-.28-2.75.01-.06-.26-1.8-.09-.85-.38-2.8 1.34-.21 3.75-.46 6.75-.9v-.14l.75-.1.5-.98.25.03.03.2.2.29.09.42-.44.2-.21.4.46.02.3.15.13-.12-.03-.31.1-.15-.04-.33.55-.18.18-.14.18.43.23-.02-.03-.23.34-.05.03.25.44-.25-.1-.67h-.1l-.05-.28.07-.2-.21-.08-.03-.17.35-.05.03-.47.21-.15-.03-.34-.29.04-.06.29-.52.02.06-.4-.22-.05-.06-.22.57-.08-.02-.23.3-.1.25.03.23-.21-.12-1.05-.35.12.06.47-.62.08-.04.5-.19.14-.42.03-.1-.06.26-.54-.68.1.05.46-.18.02-.17-.44-.37.06.02.2-.12.11-.53.06.1.86-.66.08.03.28-.1.06-.89.02-.97.12-1.17.04-.03-.18-2.67.35-.18-1.37-2.67.35-.18-1.36-2.8.34-2.57.37-3.1.37-.9.1.38 2.76.33 2.73-2.94.33-2.93.33-3.27.47h-.02l-.26-.2-.67-.07-.2-.14-.26-.12-.47-.34-.07-.18-.38-.42-.22-.19-.06-.08-.07-.23-.15-.28-.1-.27.07-.26.12-.58-.08-.21.08-.32-.13-.16-.1-.06-.13-.1-.4-.6-.18-.08-.31-.28-.17-.27-.2-.16-.28-.06-.26-.23-.33-.16-.1-.04-.43-.16-.47-.16-.14-.42-.17-.28-.6-.2-.39-.09-.44-.2-.41-.26-.25-.18-.14-.26-.04-.24.2-.47.05-.1h.09l.2-.02.93-.1.47-.03.57-.07.07-.02h.15l.44-.04.27-.03.56-.07h.1l1.12-.12v.02l.7-.09h.12l.64-.08.58-.07 1.17-.13.31-.04.46-.04.21-.04.95-.11 1.03-.12.74-.09.56-.06.18-.02.55-.07.85-.07.31-.01.23-.03.51-.05.74-.04 1.18-.16.8-.07 1.5-.17.2-.01.3-.06.34-.03.54-.06 1.1-.12.57-.07.43-.03.17-.02 1-.1 1.32-.1.28-.02.41-.05.45-.04 2.77-.29 1.86-.19.65-.05h.02l.26-.02.3-.04.3-.05.95-.1.71-.06 1.23-.15v.02l1.04-.11.04-.03h.18l.16-.02.23-.03.15-.03h.02l.44-.05h.16l2.27-.24.69-.07.32-.01 1.7-.18.25-.05 1.2-.2.8-.11.38-.07.51-.08.9-.11 1.13-.16.55-.05.23-.03.36-.06.66-.08.48 3.91.03.18h-.23l-.14.1-.3-.06-.34.08.14.15.13 1.02-7.13.9.08.67-.56.1.06.45-.47.06.17.3-.18.03v.17l-.25.02-.09.22h.55l.06.3.4 3.28.9-.11.36 2.74 2.45-.31.26 1.9-.05.32.08.03.07.45-5.25.7.37 2.74.67 5.47.03.04.38 2.77-2.6.37-2.7.27.18 1.4.34 2.78-2.26.3-1.86.22-1.14.16.33 2.74.22 1.71.31 2.8.46-.11.6.08.22.28-.1.15.4.33.03.24.22-.03.07.29.29.37.06.47.66-.1 2.74-.36-.1-.92 2.44-.3.19-.17-.2-1.69h.33l.1-.14.2.02.25-.14.02.15 1.8-.22.09.69.45-.06-.1-.7 2.26-.32-.19-1.48.12-.03-.04-.34.64.01.58.16.58-.1.72.16h.28l.6.22.39-.1.29.06.31.26h.6l.32-.18-.35-2.08-.42-2.75 2.66-.36 1.8-.28 1.88-.3 1.63-.27" fill="#d1dbdd" stroke="rgb(209, 219, 221)" stroke-width="0.1" data-originalStrokeWidth="0.1" style="stroke: rgb(0, 0, 0); fill: rgb(209, 219, 221); pointer-events: auto; stroke-width: 0.1;" pointer-events="auto"/>
      <path id="IL17" d="M878.44 316.99v-.2l.07-.95.09-.2.08-.17.1-.22-.02-.42.02-.3v-.1l.06-.12.1-.08.14-.1.11-.1.38-.07.13-.06.44-.29.25-.02.12.06.52.19.45.02.62-.34.5-.4.22-.21.48-.31 1.22-.07.43.02.33-.01.6-.05.08-.03.6-.15.38-.13.32-.17.25-.03.35-.16.22-.3.45-.41.3-.43.01-.29.24-.24.21-.1.24-.05.31-.3.25-.05.11-.05.2.03.47.12h.23l.33-.03.34-.08.28-.15.35-.44.13-.27.1-.2.14-.06.09-.1.13-.28.21-.2.54-.33.37-.13.48-.32.03-.09.02-.26-.09-.49-.16-1.02.03-.28.04-.18.02-.3v-.3l.03-.08.28-.26.12-.34-.05-.3-.13-.29v-.48l.1-.31.53-.74.12-.1.3-.17.47-.41.56-.46.29-.15.35-.17.14-.29-.08-.5-.07-.16v-.2l.17-.6-.03-.23.02-.33.02-.05.08-.24.14-.47.03-.28-.03-.77-.02-.07-.12-.14-.23-.32v-.22l.13-.44.04-.17.11-.13.05-.1.06-.6-.04-.3-.19-.28-.05-.12-.08-.24-.2-.21-.14-.13-.05-.28-.06-.15-.09-.53.03-.29.03-.54v-.19l-.06-.28-.24-.34-.45.02-.16-.05-.12-.06-.25-.68-.64-.33-.37-.15-.45-.04-.32-.12-.4-.23-.39-.11-.06-.03 3.27-.46 2.93-.34 2.94-.34-.33-2.73-.38-2.74.9-.11 3.1-.37 2.58-.37 2.79-.33.18 1.35 2.67-.35.18 1.37 2.67-.35.03.19 1.17-.05.97-.12.9-.02.09-.06-.04-.28.68-.08-.11-.86.53-.07.12-.1-.02-.2.37-.06.17.44.19-.03-.06-.45.68-.1-.26.54.1.06.41-.03.2-.14.04-.5.62-.08-.06-.47.35-.13.12 1.05-.23.22-.25-.03-.3.1.02.23-.57.08.06.22.22.05-.06.41.52-.04.05-.3.3-.02.03.34-.2.15-.04.47-.35.05.02.16.22.08-.07.2.04.29h.12l.09.67-.44.25-.03-.25-.34.05.03.23-.23.02-.17-.43-.2.14-.54.18.03.33-.09.15.03.31-.14.12-.3-.15-.45-.01.2-.4.45-.21-.07-.42-.22-.3-.03-.19-.25-.03-.5.98-.75.1v.14l-6.75.9-3.75.46-1.34.22.38 2.8.1.85.25 1.79-.01.06.28 2.75.06.19 1.3-.15.52 5.01.35 3.15.33 2.73-6.02.71-3.73.44-1.33.12-1.79.2.21.34-.08.56-.22.52-.47.12-.17.3-.35.17-.44.18-.18-.01-.82.24-.15.24-.2.04.19 1.51-.12.02.05.44-.23-.08.02.31-.31.05-.06-.45h-.7l-.55.12-.08.21-.21.02.02.4-.36.1.18 2.04.12 1.14.27 3.02.27 2.76 2.67-.28 2.68-.33 2.64-.23-.28-2.7 2.85-.29-.3-2.75 2.72-.29.28 2.73-.25.03.32 2.67-2.74.32.66 5.94.58 5.07 3.14-.34.03.25.24-.13h.4l.1.87.8.27.21.17.34.07.3-.03.12 1.06 1.42-.15-.05.39h.94l.3-.28v.23l.13-.12-.06-.6-.22.04-.04-.35-.11.02.1-.64-.1-.19-.44.06-.04-.67.5.15.27.26.11-.03.19-.3-.16-.02-.02-.19.39-.15-.01.26.3-.08.14.3.27.14.1.16.38.1-.14-.4.22.1.18-.14.03.35.18.31.16.57-.16.59-.79.67-.47.69.02.24.15.2-.16.43-.8 1.24.04.39.17.34-.02.25-.17.27.28-.03.02.3.18-.03.29 2.3 3.58-.47.49-.07.05.63.16.58.5.72.37-.16.32.17.54-.13-.02-.23 1.13-.16.03.23.9-.13.06-.25 2.04-.26.14.2-.03-.3.1-.07-.16-.31-.07-.47 1.37-.18-.04-.16.2-.1.65-.1-.03-.22.67-.04-.03-.28.63-.07.05-.24.45-.05-.03-.25.16-.02.02-.22.66-.1-.07-.45.22-.03-.07-.46.91-.13.07.29.39-.42.13.75-.25.05.02.16.23.17.24-.06.04.36.74-.09.05.44-.48.07-.05-.23-.44.07.03.24-.23.01-.03.25-.17.2.02.28-1 .15-.08-.26-.69.1-.04.12.26 1.72.03.46.32 1.99.17 1.26-1.89.23-3.49.47-.18-1.4-2.69.38-3.53.5-2.3.3-2.13.28-.47-3.65-2.64.34-1.35.1-.91.12.23-.18.16-.38-3.98.45-2.3.27-3.73.41-2.8.28-2.7.2-1.25.13-.06.25-2.04.2-.04-.24-.32-.07-.07-.38-.2-.1.05-.35.93-.08.23.05-.17-1.91 1.83-.19 1.27-.12.03.43.46-.03-.02-.42 1.78-.14-.07-.92-.6-6.34-.39-3.77-2.65.28-1.58.12-1.17.08-.2-2.1-.2-2.3-.32-3.45-.28-3.15h-.1l-.08-.9-.18-1.83-.24-.02-2 .2-3.07.21-2.02.2-2.14.2" fill="#d1dbdd" stroke="rgb(209, 219, 221)" stroke-width="0.1" data-originalStrokeWidth="0.1" style="stroke: rgb(0, 0, 0); fill: rgb(209, 219, 221); pointer-events: auto; stroke-width: 0.1;" pointer-events="auto"/>
      <g id="state_lines" stroke="rgb(209, 219, 221)" style="display: none; stroke: rgb(0, 0, 0);" stroke-width="0.1"/>
      <g id="state_abbr" fill="#000000" style="display: none; fill: rgb(0, 0, 0);">
        <text id="HI_label" x="491.79" y="769.82" style="font-size: 19.2455px; stroke-width: 1.60379; display: none;">
          <tspan id="HI_tspan" x="491.79" y="769.82" fill="#000000" dy="0" font-family="Arial" font-size="24.06" font-style="normal" font-weight="400" style="text-align: center; stroke-width: 2.57215; fill: rgb(0, 0, 0);" text-anchor="middle">HI</tspan>
        </text>
        <text id="AK_label" x="205.24" y="672.25" style="font-size: 19.2455px; stroke-width: 1.60379; display: none;">
          <tspan id="AK_tspan" x="205.24" y="672.25" fill="#000000" dy="0" font-family="Arial" font-size="24.06" font-style="normal" font-weight="400" style="text-align: center; stroke-width: 2.57215; fill: rgb(0, 0, 0);" text-anchor="middle">AK</tspan>
        </text>
        <text id="FL_label" x="1188.11" y="708.7" style="font-size: 19.2455px; stroke-width: 1.60379; display: none;">
          <tspan id="FL_tspan" x="1188.11" y="708.7" fill="#000000" dy="0" font-family="Arial" font-size="24.06" font-style="normal" font-weight="400" style="text-align: center; stroke-width: 2.57215; fill: rgb(0, 0, 0);" text-anchor="middle">FL</tspan>
        </text>
        <text id="NH_label" x="1306.05" y="167.79" stroke-width="1.1" font-size="13.25" style="display: none;">
          <tspan id="NH_tspan" x="1306.05" y="167.79" fill="#000000" stroke-width="1.1" dy="0" font-family="Arial" font-size="16.56" font-style="normal" font-weight="400" style="text-align: center; fill: rgb(0, 0, 0);" text-anchor="middle">NH</tspan>
        </text>
        <text id="MI_label" x="1019.65" y="246.58" style="font-size: 19.2455px; stroke-width: 1.60379; display: none;">
          <tspan id="MI_tspan" x="1019.65" y="246.58" fill="#000000" dy="0" font-family="Arial" font-size="24.06" font-style="normal" font-weight="400" style="text-align: center; stroke-width: 2.57215; fill: rgb(0, 0, 0);" text-anchor="middle">MI</tspan>
        </text>
        <text id="VT_label" x="1274.28" y="145.01" stroke-width="1.05" font-size="12.65" style="display: none;">
          <tspan id="VT_tspan" x="1274.28" y="145.01" fill="#000000" stroke-width="1.05" dy="0" font-family="Arial" font-size="15.81" font-style="normal" font-weight="400" style="text-align: center; fill: rgb(0, 0, 0);" text-anchor="middle">VT</tspan>
        </text>
        <text id="ME_label" x="1338.99" y="105.14" stroke-width="1.45" font-size="17.36" style="display: none;">
          <tspan id="ME_tspan" x="1338.99" y="105.14" fill="#000000" stroke-width="1.45" dy="0" font-family="Arial" font-size="21.7" font-style="normal" font-weight="400" style="text-align: center; fill: rgb(0, 0, 0);" text-anchor="middle">ME</tspan>
        </text>
        <text id="RI_label" x="1361.38" y="262.84" stroke-width="1.25" font-size="14.98" style="display: none;">
          <tspan id="RI_tspan" x="1361.38" y="262.84" fill="#000000" stroke-width="1.25" dy="0" font-family="Arial" font-size="18.72" font-style="normal" font-weight="400" style="text-align: center; fill: rgb(0, 0, 0);" text-anchor="middle">RI</tspan>
        </text>
        <text id="NY_label" x="1227.27" y="204.12" style="font-size: 19.2455px; stroke-width: 1.60379; display: none;">
          <tspan id="NY_tspan" x="1227.27" y="204.12" fill="#000000" dy="0" font-family="Arial" font-size="24.06" font-style="normal" font-weight="400" style="text-align: center; stroke-width: 2.57215; fill: rgb(0, 0, 0);" text-anchor="middle">NY</tspan>
        </text>
        <text id="PA_label" x="1187.28" y="284.69" style="font-size: 19.2455px; stroke-width: 1.60379; display: none;">
          <tspan id="PA_tspan" x="1187.28" y="284.69" fill="#000000" dy="0" font-family="Arial" font-size="24.06" font-style="normal" font-weight="400" style="text-align: center; stroke-width: 2.57215; fill: rgb(0, 0, 0);" text-anchor="middle">PA</tspan>
        </text>
        <text id="NJ_label" x="1330.57" y="290.09" stroke-width="1.28" font-size="15.4" style="display: none;">
          <tspan id="NJ_tspan" x="1330.57" y="290.09" fill="#000000" stroke-width="1.28" dy="0" font-family="Arial" font-size="19.25" font-style="normal" font-weight="400" style="text-align: center; fill: rgb(0, 0, 0);" text-anchor="middle">NJ</tspan>
        </text>
        <text id="DE_label" x="1320.8" y="328.42" stroke-width="1.36" font-size="16.38" style="display: none;">
          <tspan id="DE_tspan" x="1320.8" y="328.42" fill="#000000" stroke-width="1.36" dy="0" font-family="Arial" font-size="20.47" font-style="normal" font-weight="400" style="text-align: center; fill: rgb(0, 0, 0);" text-anchor="middle">DE</tspan>
        </text>
        <text id="MD_label" x="1310.72" y="368.46" stroke-width="1.34" font-size="16.11" style="display: none;">
          <tspan id="MD_tspan" x="1310.72" y="368.46" fill="#000000" stroke-width="1.34" dy="0" font-family="Arial" font-size="20.13" font-style="normal" font-weight="400" style="text-align: center; fill: rgb(0, 0, 0);" text-anchor="middle">MD</tspan>
        </text>
        <text id="VA_label" x="1198.59" y="392.33" style="font-size: 19.2455px; stroke-width: 1.60379; display: none;">
          <tspan id="VA_tspan" x="1198.59" y="392.33" fill="#000000" dy="0" font-family="Arial" font-size="24.06" font-style="normal" font-weight="400" style="text-align: center; stroke-width: 2.57215; fill: rgb(0, 0, 0);" text-anchor="middle">VA</tspan>
        </text>
        <text id="WV_label" x="1129.66" y="382.3" style="font-size: 19.2455px; stroke-width: 1.60379; display: none;">
          <tspan id="WV_tspan" x="1129.66" y="382.3" fill="#000000" dy="0" font-family="Arial" font-size="24.06" font-style="normal" font-weight="400" style="text-align: center; stroke-width: 2.57215; fill: rgb(0, 0, 0);" text-anchor="middle">WV</tspan>
        </text>
        <text id="OH_label" x="1079.05" y="334.46" style="font-size: 19.2455px; stroke-width: 1.60379; display: none;">
          <tspan id="OH_tspan" x="1079.05" y="334.46" fill="#000000" dy="0" font-family="Arial" font-size="24.06" font-style="normal" font-weight="400" style="text-align: center; stroke-width: 2.57215; fill: rgb(0, 0, 0);" text-anchor="middle">OH</tspan>
        </text>
        <text id="IN_label" x="998.79" y="352.94" style="font-size: 19.2455px; stroke-width: 1.60379; display: none;">
          <tspan id="IN_tspan" x="998.79" y="352.94" fill="#000000" dy="0" font-family="Arial" font-size="24.06" font-style="normal" font-weight="400" style="text-align: center; stroke-width: 2.57215; fill: rgb(0, 0, 0);" text-anchor="middle">IN</tspan>
        </text>
        <text id="IL_label" x="927.43" y="364.36" style="font-size: 19.2455px; stroke-width: 1.60379; display: none;">
          <tspan id="IL_tspan" x="927.43" y="364.36" fill="#000000" dy="0" font-family="Arial" font-size="24.06" font-style="normal" font-weight="400" style="text-align: center; stroke-width: 2.57215; fill: rgb(0, 0, 0);" text-anchor="middle">IL</tspan>
        </text>
        <text id="CT_label" x="1299.17" y="228.46" stroke-width="1.06" font-size="12.74" style="display: none;">
          <tspan id="CT_tspan" x="1299.17" y="228.46" fill="#000000" stroke-width="1.06" dy="0" font-family="Arial" font-size="15.93" font-style="normal" font-weight="400" style="text-align: center; fill: rgb(0, 0, 0);" text-anchor="middle">CT</tspan>
        </text>
        <text id="WI_label" x="898.6" y="224.7" style="font-size: 19.2455px; stroke-width: 1.60379; display: none;">
          <tspan id="WI_tspan" x="898.6" y="224.7" fill="#000000" dy="0" font-family="Arial" font-size="24.06" font-style="normal" font-weight="400" style="text-align: center; stroke-width: 2.57215; fill: rgb(0, 0, 0);" text-anchor="middle">WI</tspan>
        </text>
        <text id="NC_label" x="1205.6" y="458.72" style="font-size: 19.2455px; stroke-width: 1.60379; display: none;">
          <tspan id="NC_tspan" x="1205.6" y="458.72" fill="#000000" dy="0" font-family="Arial" font-size="24.06" font-style="normal" font-weight="400" style="text-align: center; stroke-width: 2.57215; fill: rgb(0, 0, 0);" text-anchor="middle">NC</tspan>
        </text>
        <text id="MA_label" x="1305.87" y="200.67" stroke-width="1.04" font-size="12.46" style="display: none;">
          <tspan id="MA_tspan" x="1305.87" y="200.67" fill="#000000" stroke-width="1.04" dy="0" font-family="Arial" font-size="15.58" font-style="normal" font-weight="400" style="text-align: center; fill: rgb(0, 0, 0);" text-anchor="middle">MA</tspan>
        </text>
        <text id="MO_label" x="854.22" y="422.93" style="font-size: 19.2455px; stroke-width: 1.60379; display: none;">
          <tspan id="MO_tspan" x="854.22" y="422.93" fill="#000000" dy="0" font-family="Arial" font-size="24.06" font-style="normal" font-weight="400" style="text-align: center; stroke-width: 2.57215; fill: rgb(0, 0, 0);" text-anchor="middle">MO</tspan>
        </text>
        <text id="GA_label" x="1106.89" y="574.56" style="font-size: 19.2455px; stroke-width: 1.60379; display: none;">
          <tspan id="GA_tspan" x="1106.89" y="574.56" fill="#000000" dy="0" font-family="Arial" font-size="24.06" font-style="normal" font-weight="400" style="text-align: center; stroke-width: 2.57215; fill: rgb(0, 0, 0);" text-anchor="middle">GA</tspan>
        </text>
        <text id="SC_label" x="1166.32" y="522.49" style="font-size: 19.2455px; stroke-width: 1.60379; display: none;">
          <tspan id="SC_tspan" x="1166.32" y="522.49" fill="#000000" dy="0" font-family="Arial" font-size="24.06" font-style="normal" font-weight="400" style="text-align: center; stroke-width: 2.57215; fill: rgb(0, 0, 0);" text-anchor="middle">SC</tspan>
        </text>
        <text id="KY_label" x="1039.99" y="426.39" style="font-size: 19.2455px; stroke-width: 1.60379; display: none;">
          <tspan id="KY_tspan" x="1039.99" y="426.39" fill="#000000" dy="0" font-family="Arial" font-size="24.06" font-style="normal" font-weight="400" style="text-align: center; stroke-width: 2.57215; fill: rgb(0, 0, 0);" text-anchor="middle">KY</tspan>
        </text>
        <text id="AL_label" x="1019.59" y="578.15" style="font-size: 19.2455px; stroke-width: 1.60379; display: none;">
          <tspan id="AL_tspan" fill="#000000" dy="0" font-family="Arial" font-size="24.06" font-style="normal" font-weight="400" style="text-align: center; stroke-width: 2.57215; fill: rgb(0, 0, 0);" text-anchor="middle">AL</tspan>
        </text>
        <text id="LA_label" x="872.7" y="649.59" style="font-size: 19.2455px; stroke-width: 1.60379; display: none;">
          <tspan id="LA_tspan" x="872.7" y="649.59" fill="#000000" dy="0" font-family="Arial" font-size="24.06" font-style="normal" font-weight="400" style="text-align: center; stroke-width: 2.57215; fill: rgb(0, 0, 0);" text-anchor="middle">LA</tspan>
        </text>
        <text id="MS_label" x="940.37" y="592.21" style="font-size: 19.2455px; stroke-width: 1.60379; display: none;">
          <tspan id="MS_tspan" x="940.37" y="592.21" fill="#000000" dy="0" font-family="Arial" font-size="24.06" font-style="normal" font-weight="400" style="text-align: center; stroke-width: 2.57215; fill: rgb(0, 0, 0);" text-anchor="middle">MS</tspan>
        </text>
        <text id="IA_label" x="823.33" y="308.44" style="font-size: 19.2455px; stroke-width: 1.60379; display: none;">
          <tspan id="IA_tspan" x="823.33" y="308.44" fill="#000000" dy="0" font-family="Arial" font-size="24.06" font-style="normal" font-weight="400" style="text-align: center; stroke-width: 2.57215; fill: rgb(0, 0, 0);" text-anchor="middle">IA</tspan>
        </text>
        <text id="MN_label" x="790.84" y="183.37" style="font-size: 19.2455px; stroke-width: 1.60379; display: none;">
          <tspan id="MN_tspan" x="790.84" y="183.37" fill="#000000" dy="0" font-family="Arial" font-size="24.06" font-style="normal" font-weight="400" style="text-align: center; stroke-width: 2.57215; fill: rgb(0, 0, 0);" text-anchor="middle">MN</tspan>
        </text>
        <text id="OK_label" x="732.05" y="519.54" style="font-size: 19.2455px; stroke-width: 1.60379; display: none;">
          <tspan id="OK_tspan" x="732.05" y="519.54" fill="#000000" dy="0" font-family="Arial" font-size="24.06" font-style="normal" font-weight="400" style="text-align: center; stroke-width: 2.57215; fill: rgb(0, 0, 0);" text-anchor="middle">OK</tspan>
        </text>
        <text id="TX_label" x="710.59" y="652.87" style="font-size: 19.2455px; stroke-width: 1.60379; display: none;">
          <tspan id="TX_tspan" x="710.59" y="652.87" fill="#000000" dy="0" font-family="Arial" font-size="24.06" font-style="normal" font-weight="400" style="text-align: center; stroke-width: 2.57215; fill: rgb(0, 0, 0);" text-anchor="middle">TX</tspan>
        </text>
        <text id="NM_label" x="506.94" y="542.36" style="font-size: 19.2455px; stroke-width: 1.60379; display: none;">
          <tspan id="NM_tspan" x="506.94" y="542.36" fill="#000000" dy="0" font-family="Arial" font-size="24.06" font-style="normal" font-weight="400" style="text-align: center; stroke-width: 2.57215; fill: rgb(0, 0, 0);" text-anchor="middle">NM</tspan>
        </text>
        <text id="KS_label" x="701.21" y="427.26" style="font-size: 19.2455px; stroke-width: 1.60379; display: none;">
          <tspan id="KS_tspan" x="701.21" y="427.26" fill="#000000" dy="0" font-family="Arial" font-size="24.06" font-style="normal" font-weight="400" style="text-align: center; stroke-width: 2.57215; fill: rgb(0, 0, 0);" text-anchor="middle">KS</tspan>
        </text>
        <text id="NE_label" x="686.63" y="337.29" style="font-size: 19.2455px; stroke-width: 1.60379; display: none;">
          <tspan id="NE_tspan" x="686.63" y="337.29" fill="#000000" dy="0" font-family="Arial" font-size="24.06" font-style="normal" font-weight="400" style="text-align: center; stroke-width: 2.57215; fill: rgb(0, 0, 0);" text-anchor="middle">NE</tspan>
        </text>
        <text id="SD_label" x="663.02" y="238.75" style="font-size: 19.2455px; stroke-width: 1.60379; display: none;">
          <tspan id="SD_tspan" x="663.02" y="238.75" fill="#000000" dy="0" font-family="Arial" font-size="24.06" font-style="normal" font-weight="400" style="text-align: center; stroke-width: 2.57215; fill: rgb(0, 0, 0);" text-anchor="middle">SD</tspan>
        </text>
        <text id="ND_label" x="663.02" y="150.75" style="font-size: 19.2455px; stroke-width: 1.60379; display: none;">
          <tspan id="ND_tspan" x="663.02" y="150.75" fill="#000000" dy="0" font-family="Arial" font-size="24.06" font-style="normal" font-weight="400" style="text-align: center; stroke-width: 2.57215; fill: rgb(0, 0, 0);" text-anchor="middle">ND</tspan>
        </text>
        <text id="WY_label" x="499.57" y="276.47" style="font-size: 19.2455px; stroke-width: 1.60379; display: none;">
          <tspan id="WY_tspan" x="499.57" y="276.47" fill="#000000" dy="0" font-family="Arial" font-size="24.06" font-style="normal" font-weight="400" style="text-align: center; stroke-width: 2.57215; fill: rgb(0, 0, 0);" text-anchor="middle">WY</tspan>
        </text>
        <text id="MT_label" x="487.84" y="155.58" style="font-size: 19.2455px; stroke-width: 1.60379; display: none;">
          <tspan id="MT_tspan" x="487.84" y="155.58" fill="#000000" dy="0" font-family="Arial" font-size="24.06" font-style="normal" font-weight="400" style="text-align: center; stroke-width: 2.57215; fill: rgb(0, 0, 0);" text-anchor="middle">MT</tspan>
        </text>
        <text id="CO_label" x="525.13" y="406.28" style="font-size: 19.2455px; stroke-width: 1.60379; display: none;">
          <tspan id="CO_tspan" x="525.13" y="406.28" fill="#000000" dy="0" font-family="Arial" font-size="24.06" font-style="normal" font-weight="400" style="text-align: center; stroke-width: 2.57215; fill: rgb(0, 0, 0);" text-anchor="middle">CO</tspan>
        </text>
        <text id="ID_label" x="339.94" y="235.07" style="font-size: 19.2455px; stroke-width: 1.60379; display: none;">
          <tspan id="ID_tspan" x="339.94" y="235.07" fill="#000000" dy="0" font-family="Arial" font-size="24.06" font-style="normal" font-weight="400" style="text-align: center; stroke-width: 2.57215; fill: rgb(0, 0, 0);" text-anchor="middle">ID</tspan>
        </text>
        <text id="UT_label" x="396.81" y="386.73" style="font-size: 19.2455px; stroke-width: 1.60379; display: none;">
          <tspan id="UT_tspan" x="396.81" y="386.73" fill="#000000" dy="0" font-family="Arial" font-size="24.06" font-style="normal" font-weight="400" style="text-align: center; stroke-width: 2.57215; fill: rgb(0, 0, 0);" text-anchor="middle">UT</tspan>
        </text>
        <text id="AZ_label" x="366.76" y="536.9" style="font-size: 19.2455px; stroke-width: 1.60379; display: none;">
          <tspan id="AZ_tspan" x="366.76" y="536.9" fill="#000000" dy="0" font-family="Arial" font-size="24.06" font-style="normal" font-weight="400" style="text-align: center; stroke-width: 2.57215; fill: rgb(0, 0, 0);" text-anchor="middle">AZ</tspan>
        </text>
        <text id="NV_label" x="262.47" y="370.64" style="font-size: 19.2455px; stroke-width: 1.60379; display: none;">
          <tspan id="NV_tspan" x="262.47" y="370.64" fill="#000000" dy="0" font-family="Arial" font-size="24.06" font-style="normal" font-weight="400" style="text-align: center; stroke-width: 2.57215; fill: rgb(0, 0, 0);" text-anchor="middle">NV</tspan>
        </text>
        <text id="OR_label" x="214.43" y="206.88" style="font-size: 19.2455px; stroke-width: 1.60379; display: none;">
          <tspan id="OR_tspan" x="214.43" y="206.88" fill="#000000" dy="0" font-family="Arial" font-size="24.06" font-style="normal" font-weight="400" style="text-align: center; stroke-width: 2.57215; fill: rgb(0, 0, 0);" text-anchor="middle">OR</tspan>
        </text>
        <text id="WA_label" x="238.05" y="102.99" style="font-size: 19.2455px; stroke-width: 1.60379; display: none;">
          <tspan id="WA_tspan" x="238.05" y="102.99" fill="#000000" dy="0" font-family="Arial" font-size="24.06" font-style="normal" font-weight="400" style="text-align: center; stroke-width: 2.57215; fill: rgb(0, 0, 0);" text-anchor="middle">WA</tspan>
        </text>
        <text id="CA_label" x="191.69" y="434.8" style="font-size: 19.2455px; stroke-width: 1.60379; display: none;">
          <tspan id="CA_tspan" x="191.69" y="434.8" fill="#000000" dy="0" font-family="Arial" font-size="24.06" font-style="normal" font-weight="400" style="text-align: center; stroke-width: 2.57215; fill: rgb(0, 0, 0);" text-anchor="middle">CA</tspan>
        </text>
        <text id="DC_label" x="1309.32" y="398.19" stroke-width="1.29" font-size="15.45" style="display: none;">
          <tspan id="DC_tspan" x="1309.32" y="398.19" fill="#000000" stroke-width="1.29" dy="0" font-family="Arial" font-size="19.31" font-style="normal" font-weight="400" style="text-align: center; fill: rgb(0, 0, 0);" text-anchor="middle">DC</tspan>
        </text>
        <text id="TN_label" x="1018.93" y="485.72" style="font-size: 19.2455px; stroke-width: 1.60379; display: none;">
          <tspan id="TN_tspan" x="1018.93" y="485.72" fill="#000000" dy="0" font-family="Arial" font-size="24.06" font-style="normal" font-weight="400" style="text-align: center; stroke-width: 2.57215; fill: rgb(0, 0, 0);" text-anchor="middle">TN</tspan>
        </text>
        <text id="AR_label" x="863.15" y="535.77" style="font-size: 19.2455px; stroke-width: 1.60379; display: none;">
          <tspan id="AR_tspan" x="863.15" y="535.77" fill="#000000" dy="0" font-family="Arial" font-size="24.06" font-style="normal" font-weight="400" style="text-align: center; stroke-width: 2.57215; fill: rgb(0, 0, 0);" text-anchor="middle">AR</tspan>
        </text>
      </g>
      <g id="state_borders" transform="translate(-0.04777967,-0.15336683)" stroke="rgb(209, 219, 221)" style="stroke: rgb(0, 0, 0);" stroke-width="0.3">
        <path id="IL_WI_border" d="m884.63 278.9 5.44-.52 7.6-.9 2.74-.2 6.6-.75 3.34-.3 6.24-.61 5.93-.66 4.74-.47 3.36-.53 8.4-1.08 3.58-.52 7.17-.85" stroke="rgb(209, 219, 221)" stroke-width="0.3" fill="none" style="stroke: rgb(0, 0, 0); display: none;"/>
        <path id="IL_IN_border" d="m959.56 295.23 1.74 12.9 1.96 13.96 1.56 11.3 1.4 10.9 1.16 8.68 1.94 13.63.4 2.85-.37-.08-.3.47-.65.24-.31.78.2 1.53.73.5.22.77-.87 1.62-.48.24-.3 1.02.62.35-.36.55.83-.04.17.67.36-.01.78.67-.11.5.32.56-.1.67.46.27-.35.23 1.19.3.46.46.12 1.7-.6.32.3.48-.34.63.69.28.1.97.9.93-.4.56.47.07.12.72-.43 1.08-.17.86-1.51.83-.46 1.97.43.32-.7.22.1.5-.57 1.1.7.93-.63.18-.26.52-.62.48-.73.19-.2.7.6.08-.14 1.36-.74 1.4-.53.25-.46 1.23.14.85-.22.7-.38.13-.14-.85-.28-.25-.3.9-.66.59.12-.73-.62-.04-.33.66.28.5-.56.8-.4-.55.15 1.5.42.5.79.42.3.56.13-.57.33.18-.68 1.38-.6-.06-.05.67-.57.12-.4.4.36.4 1-.62-.02 1.03-.76.6-.98.3.26.4.38-.12-.07.89.45.9-.13.58-.4.15.29.82-.61-.03-.28.39 1.23.13.22.56-1.01.24-.81-.36-.28.19 1.17 1.53.67.12.07.56-.6.15-.7-.13-.04.4.78.4.52-.36.28.32" stroke="rgb(209, 219, 221)" stroke-width="0.3" fill="none" style="stroke: rgb(0, 0, 0); display: none;"/>
      </g>
      <rect id="selection-rectangle" fill="#ffffccaa" stroke="rgb(209, 219, 221)" stroke-width="0.1"/>
      <ellipse id="selection-ellipse" fill="#ffffccaa" stroke="rgb(209, 219, 221)" stroke-width="0.1"/>
      <polygon id="selection-polygon" fill="#ffffccaa" stroke="rgb(209, 219, 221)" stroke-width="0.1"/>
      <polyline id="selection-polyline" fill="#ffffccaa" stroke="rgb(209, 219, 221)" stroke-width="0.1"/>
    </svg>
  </g>
  <svg id="legend-svg" width="100%" height="100%" style="overflow:visible;" class="ui-draggable ui-draggable-handle" x="1328.321548461914" y="504">
    <g id="legend-g-svg" fill="#000" transform="translate(0,0) scale(1)" style="font-family: Helvetica; font-weight: 400; font-style: normal;">
      <rect id="legend-bg-rect-svg" x="0" y="0" rx="3.8" ry="3.8" width="190" height="20" fill="#000000" stroke="rgb(209, 219, 221)" fill-opacity="0" stroke-width="0.1"/>
    </g>
  </svg>
</svg>
