<?xml version='1.0' encoding='UTF-8'?>
<svg xmlns="http://www.w3.org/2000/svg" xmlns:dc="http://purl.org/dc/elements/1.1/" xmlns:ns2="http://creativecommons.org/ns#" xmlns:rdf="http://www.w3.org/1999/02/22-rdf-syntax-ns#" id="wrapper" viewBox="0 0 1520 840" preserveAspectRatio="xMinYMin" height="840" width="1520" style="background-color: rgb(255, 255, 255);">
  <metadata>
    <rdf:rdf>
      <ns2:work rdf:about="">
        <dc:format>image/svg+xml</dc:format>
        <dc:type rdf:resource="http://purl.org/dc/dcmitype/StillImage"/>
        <dc:title>MapChart Map</dc:title>
        <dc:creator>
          <ns2:agent>
            <dc:title>MapChart.net</dc:title>
          </ns2:agent>
        </dc:creator>
        <ns2:license rdf:resource="http://creativecommons.org/licenses/by-sa/4.0/"/>
        <dc:description>This map was created with MapChart.net, a website for creating custom maps.</dc:description>
      </ns2:work>
      <ns2:license rdf:about="http://creativecommons.org/licenses/by-sa/4.0/">
        <ns2:permits rdf:resource="http://creativecommons.org/ns#Reproduction"/>
        <ns2:permits rdf:resource="http://creativecommons.org/ns#Distribution"/>
        <ns2:requires rdf:resource="http://creativecommons.org/ns#Notice"/>
        <ns2:requires rdf:resource="http://creativecommons.org/ns#Attribution"/>
        <ns2:requires rdf:resource="http://creativecommons.org/ns#ShareAlike"/>
      </ns2:license>
    </rdf:rdf>
  </metadata>
  <g id="map-group" transform="translate(-4771.292591505211,-1530.8211061413715) scale(5.539272707676821)">
    <svg id="map" width="1520" height="840" version="1.1" viewBox="0 0 1520 840" preserveAspectRatio="xMinYMin" data-originalStrokeWidth="0.3">
      <defs>
        <pattern id="circles3" width="10" height="10" patternUnits="userSpaceOnUse">    <rect width="10" height="10" fill="#fff"/>    <circle cx="4" cy="4" r="2" fill="#000"/>    </pattern>
        <pattern id="diagonal1" width="10" height="10" patternUnits="userSpaceOnUse">    <rect width="10" height="10" fill="#fff"/>    </pattern>
        <pattern id="diagonal3" width="10" height="10" patternUnits="userSpaceOnUse">    <rect width="10" height="10" fill="#fff"/>    </pattern>
        <pattern id="vertical1" width="10" height="10" patternUnits="userSpaceOnUse">    <rect width="10" height="10" fill="#fff"/>    <rect x="2" y="0" width="1" height="10" fill="#000"/>    </pattern>
        <pattern id="vertical3" width="10" height="10" patternUnits="userSpaceOnUse">    <rect width="10" height="10" fill="#fff"/>    <rect x="2" y="0" width="3" height="10" fill="#000"/>    </pattern>
        <pattern id="horizontal1" width="10" height="10" patternUnits="userSpaceOnUse">    <rect width="10" height="10" fill="#fff"/>    <rect x="0" y="2" width="10" height="1" fill="#000"/>    </pattern>
        <pattern id="horizontal3" width="10" height="10" patternUnits="userSpaceOnUse">    <rect width="10" height="10" fill="#fff"/>    <rect x="0" y="2" width="10" height="3" fill="#000"/>    </pattern>
        <pattern id="crosshatch" width="8" height="8" patternUnits="userSpaceOnUse">    <rect width="8" height="8" fill="#fff"/>    </pattern>
        <pattern id="subtlepatch" width="5" height="5" patternUnits="userSpaceOnUse">    <rect width="5" height="5" fill="#fff"/>    <rect x="2" y="2" width="1" height="1" fill="#000"/>    </pattern>
        <pattern id="checkers" width="8" height="8" patternUnits="userSpaceOnUse">    <rect width="8" height="8" fill="#fff"/>    </pattern>
        <pattern id="raindrops" width="10" height="10" patternUnits="userSpaceOnUse">    <rect width="10" height="10" fill="#fff"/>    </pattern>
        <pattern id="texture" width="4" height="4" patternUnits="userSpaceOnUse">    <rect width="4" height="4" fill="#fff"/>    </pattern>
        <pattern id="circles3_a03500_000000" width="10" height="10" patternUnits="userSpaceOnUse">    <rect width="10" height="10" fill="#a03500"/>    <circle cx="4" cy="4" r="2" fill="#000000"/>    </pattern>
        <pattern id="diagonal1_d9b400_535353" width="10" height="10" patternUnits="userSpaceOnUse">    <rect width="10" height="10" fill="#d9b400"/>    </pattern>
        <pattern id="diagonal3_3264c8_ffffff" width="10" height="10" patternUnits="userSpaceOnUse">    <rect width="10" height="10" fill="#3264c8"/>    </pattern>
        <pattern id="horizontal1_72b38e_000000" width="10" height="10" patternUnits="userSpaceOnUse">    <rect width="10" height="10" fill="#72b38e"/>    <rect x="0" y="2" width="10" height="1" fill="#000000"/>    </pattern>
        <pattern id="horizontal3_986ba1_ffffff" width="10" height="10" patternUnits="userSpaceOnUse">    <rect width="10" height="10" fill="#986ba1"/>    <rect x="0" y="2" width="10" height="3" fill="#ffffff"/>    </pattern>
        <pattern id="vertical1_b9a087_ffffff" width="10" height="10" patternUnits="userSpaceOnUse">    <rect width="10" height="10" fill="#b9a087"/>    <rect x="2" y="0" width="1" height="10" fill="#ffffff"/>    </pattern>
        <pattern id="vertical3_4c91bf_ffff33" width="10" height="10" patternUnits="userSpaceOnUse">    <rect width="10" height="10" fill="#4c91bf"/>    <rect x="2" y="0" width="3" height="10" fill="#ffff33"/>    </pattern>
        <pattern id="checkers_cc3333_f7f7f7" width="8" height="8" patternUnits="userSpaceOnUse">    <rect width="8" height="8" fill="#cc3333"/>    </pattern>
        <pattern id="texture_d1dbdd_525252" width="4" height="4" patternUnits="userSpaceOnUse">    <rect width="4" height="4" fill="#d1dbdd"/>    </pattern>
        <style id="map-style">svg { background-color: #ffffff; }</style>
      </defs>
      <path id="IN01" d="M975.4 291.27h.04l.06-.02h.07l.07-.02h.04l.16-.03h.12l.38-.07h.16l.6-.1.66-.09.53-.08.21 1.5.45 2.84-.33.26.05.29.36.1.22 1.7-.57.08.13.92-2.27.34-2.46.3.27 1.75.04.46.54 3.75.43 2.9-.18.26-.63.41-.21-.02-.2-.19-.69-.32-1.25-.73-1.53-.31-.2.04-1.34.86-.65 1.04-1.3.84-.77 1.03-.14.12-.35.08-.76.42-.26.34-.48.1-.7-.27-.36.15-.61.12-.96.24-.04-.36-.05-.36-.18-1.3-.44-3.03-.2-1.6-.15-1.14-.1-.69-.14-1.08-.1-.76-.03-.1v-.04l-.12-.92-.06-.46-.02-.18-.08-.47-.02-.22-.03-.11v-.1l-.03-.13v-.05l-.01-.11v-.09l-.03-.06v-.13l-.06-.25v-.11l-.02-.17v-.04l-.03-.16-.03-.14v-.06l-.03-.16v-.1l-.15-1.07-.08-.6-.02-.17-.03-.24-.01-.11-.02-.14v-.02l.53.45.93.48.08-.19.28-.24.56-.26.22.02.23.2-.12.26.13.08-.25.4-.27.15.04.21.33.2.18-.1.27.1.79.2.51.03 1.38-.02.65-.08.92-.26.92-.33.02-.13.37-.09-.05-.29.35-.17.34-.08.1.09.64-.25.72-.44.83-.54 1.38-1 .86-.54.14-.14.12-.35.74-.46 1.05-.87" fill="#d1dbdd" stroke="rgb(209, 219, 221)" stroke-width="0.1" data-originalStrokeWidth="0.1" style="stroke: rgb(0, 0, 0); fill: rgb(209, 219, 221); pointer-events: auto; stroke-width: 0.1;" pointer-events="auto"/>
      <path id="IN02" d="M994.39 288.38h.13l1.04-.17.33-.06.46-.05.44-.07.46-.06.21-.04.95-.14.28-.05h.1l.44-.08h.03l.35-.06.57-.08.51-.08.47-.1.71-.08.33-.08h.06l1.3 7.36.23 1.33.22 1.38-2.66.46.47 2.7.45 2.66.32 1.99h-.1l-.02.3.2.08.05.35 1.81-.32.45 2.56.52 2.96.9-.16.84 4.78-.01.05 1.06 6.09-5.29.87.44 2.7-7.49 1.29-3.8.62-.1-.7.22-.04-.2-1.36-.32.05-.03-.23.32-.05-.05-.47.44-.07-.03-.24.44-.07-.05-.23.45-.07-.44-2.85-.28.23-.19.03-.07-.48-.26-.14-.24.23-.2-.07-.55.27-.27-1.7-.23.03-.04-.23-2.41.39-.43-2.75-1.8.26-3.54.47-5.45.8-.2-1.36-1.28-8.83-.43-2.9-.54-3.75-.05-.46-.26-1.75 2.46-.3 2.27-.34-.14-.92.57-.08-.2-1.7-.37-.1-.05-.29.34-.25-.46-2.85-.2-1.5.68-.1.23-.04h.1l.77-.13.5-.07.71-.1h.07l.72-.12.57-.09.2-.03 1.24-.18.77-.12.46-.1 1.24-.19.22-.02.19-.03.23-.04.21-.05.66-.1h.08l.39-.07h.1l.12-.03.65-.1.9-.14.49-.07.45-.07.62-.1.05-.02.95-.13.26-.04.34-.06.47-.07.45-.07" fill="#d1dbdd" stroke="rgb(209, 219, 221)" stroke-width="0.1" data-originalStrokeWidth="0.1" style="stroke: rgb(0, 0, 0); fill: rgb(209, 219, 221); pointer-events: auto; stroke-width: 0.1;" pointer-events="auto"/>
      <path id="IN03" d="m1002.26 287.18.22-.04.28-.03 1.2-.2.1-.03.25-.03.32-.06.31-.06.87-.14.44-.05 1.38-.26.18-.01.92-.15.56-.09.39-.08.46-.07.23-.04.35-.05.14-.02.75-.13h.1l1.56-.27 1.78-.28.15-.03.46-.07.33-.07.34-.05.66-.12.9-.14.23-.05.54-.08.35-.06.75-.13.71-.12.33-.07 1.03-.16.13.22.07.46.16.93.18 1.03.25 1.44.08.5.08.44.14.86.13.7.14.76.13.76.13.68.2 1.25.1.48.09.57.1.64.09.51.23 1.34.14.79.14.9.07.28.27 1.68.05.31.14.82.03.13.02.2.05.24.02.16.37 2.23h.02l.22 1.31.19 1.16v.02l.25 1.45.13.72.1.59.37 2.08.33 2.03.06.41.11.55.3 1.75.05.34.56 3.4.05.26.18 1.12.22 1.35.03.2.3 1.95.05.31.03.13.4 2.29.18 1.16.13.77.14.92.14.93v.14l.04.16v.05l.01.06.02.1.05.38-.78.12-.11.08-.86.14-.42.2-.15.13-1.06.17-.2.14.04.16.21.1.05.27-.9.16.01-.46-.26.03-.03-.36h-.47l.05.22-2.12.37-.14-.21-2.49.4-.47-2.59-.64-3.68-2.63.47-2.65.42-.67-3.88-.1-.66-.72-4.07-4.43.74-1.06-6.09.02-.05-.83-4.78-.9.16-.53-2.96-.45-2.56-1.8.32-.05-.34-.2-.09v-.3h.1l-.3-1.99-.46-2.67-.47-2.7 2.66-.45-.22-1.38-.22-1.33-1.3-7.36" fill="#d1dbdd" stroke="rgb(209, 219, 221)" stroke-width="0.1" data-originalStrokeWidth="0.1" style="stroke: rgb(0, 0, 0); fill: rgb(209, 219, 221); pointer-events: auto; stroke-width: 0.1;" pointer-events="auto"/>
      <path id="IN04" d="m997.67 346.77-.44.1-1.57.27.28 1.82h-.06l.46 2.71.28 1.88.42 2.74 1.82-.3.19 1.33.35 2.33-.03.02.48 2.97.38 2.52-1.74.27-3.35.6-3.4.45-.57.08-.03-.2-.24-1.62-.36-2.24-1.27.2-.92.1-.92.15-.44.02-3.35.47-.02-.02-2.23.3-1.06-8-.6-4.37-1.94.29-.36-2.72-.03-.22-.4-2.48-1.56.22-.07-.45-1.1.15-.1-.5-.1-.01-.1-.6-.3.03-.1-.68.2-.03-.03-.32.23-.05-.3-1.99-2.25.32.03.23-.23.03-.03-.24-.66.1-.05-.22-.43.06.03.23-.33.06v.1l-.36-.06-.15.2-.29.57-.34.05.17.12.07.38.34.23-.02.36-1.98.3-.1-.69-.96.14-.03-.21-.18-1.33-.13-1.2-.2-1.32v-.15l-.2-1.52-.1-.8-.05-.47-.02-.12-.08-.67-.13-.92-.14-1.15-.06-.47-.05-.4-.05-.36-.02-.16-.26-1.84-.18-1.26-.5-3.6-.11-.95-.1-.65v-.02l-.19-1.47-.1-.59-.07-.56-.2-1.25-.08-.8-.13-.82-.03-.19-.07-.49-.03-.28-.05-.34-.73-5.1v-.12l-.05-.25v-.07l-.02-.1.96-.24.61-.13.36-.14.7.26.48-.09.27-.34.74-.42.36-.08.14-.12.78-1.03 1.29-.84.65-1.04 1.33-.86.2-.04 1.55.31 1.24.73.69.32.2.18.2.03.65-.41.17-.26 1.28 8.83.2 1.37 5.45-.8 3.55-.47 1.8-.26.42 2.74 2.41-.39.04.23.23-.03.28 1.7.55-.27.19.07.24-.23.26.14.08.47.18-.02.27-.23.45 2.84-.45.08.05.23-.44.07.03.24-.44.07.05.47-.32.05.03.23.32-.05.2 1.36-.23.04.1.7-.66.1.27 1.91.31 2.14 2.46-.37.05.45.83-.13.08.46-.15.03.9 5.86.52 3.2.92 5.89" fill="#d1dbdd" stroke="rgb(209, 219, 221)" stroke-width="0.1" data-originalStrokeWidth="0.1" style="stroke: rgb(0, 0, 0); fill: rgb(209, 219, 221); pointer-events: auto; stroke-width: 0.1;" pointer-events="auto"/>
      <path id="IN05" d="m992.14 327.22 3.81-.61 7.49-1.28-.45-2.7 5.3-.88 4.42-.73.73 4.06.1.66.66 3.87 2.65-.41 2.63-.47.64 3.7.47 2.58.58 3.17-3.8.64-4.75.73.67 4.13-1.15.2-3.98.65-1.63.3.07.45-.97.17-.79.17-4.63.74-.31.03-2.23.38-.92-5.9-.52-3.19-.9-5.87.15-.02-.08-.46-.83.14-.05-.46-2.46.37-.31-2.14-.26-1.92.65-.1" fill="#d1dbdd" stroke="rgb(209, 219, 221)" stroke-width="0.1" data-originalStrokeWidth="0.1" style="stroke: rgb(0, 0, 0); fill: rgb(209, 219, 221); pointer-events: auto; stroke-width: 0.1;" pointer-events="auto"/>
      <path id="IN06" d="m1004.84 345.62.8-.17.96-.17-.07-.45 1.63-.3 3.98-.66 1.14-.19-.66-4.13 4.74-.73 3.8-.64-.57-3.17 2.49-.41.14.2 2.12-.36-.05-.21.47-.01.03.36.26-.03v.46l.9-.16-.06-.26-.21-.1-.05-.17.21-.14 1.06-.17.15-.14.42-.18.86-.14.1-.1.8-.11.02.21.03.15.07.55.12.74.1.64.05.46.22 1.38.2 1.37.08.54.01.05.1.7.17 1.02.1.57.02.13.17 1.14.05.23.05.48.05.24.04.28v.1l.03.12.11.69.03.16.28 1.75.12.64.11.7.1.64.14.79.4 2.46.03.13v.03l.01.1v.03l.05.2.05.39.14.8v.03l-.83.1-1.88.3-2.22.36v-.05l-2.44.37-3 .54-1.11.2.4 2.24-2.33.4-1.55.24-2.68.45v-.02l-1.33.24.1.84.36 2.36-1.26.22.33 2.54.42 2.63.27 1.7-1.35.24-1.34.26-.2-.06-.59.07-.04-.35-1.23.22-.07-.46-1.56.29-.9.16-.43.12-1.8.32-.55-3.21h-.02l-.37-2.28-.12-.5-2.4.44-1.53.26-.38-2.52-.48-2.97.03-.02-.35-2.33-.2-1.34-1.8.32-.44-2.74 1.82-.33.38-.02 1.13-.24 1.77-.32.04.23.29-.04.17-.26 1.93-.38 1.34-.23-.75-4.49.38-.06-.28-1.8" fill="#d1dbdd" stroke="rgb(209, 219, 221)" stroke-width="0.1" data-originalStrokeWidth="0.1" style="stroke: rgb(0, 0, 0); fill: rgb(209, 219, 221); pointer-events: auto; stroke-width: 0.1;" pointer-events="auto"/>
      <path id="IN07" d="m996.61 353.55-.27-1.88-.46-2.7.07-.01-.29-1.82 1.57-.27.44-.1 2.23-.38.31-.03 4.63-.74.27 1.8-.38.06.75 4.5-1.34.22-1.93.38-.17.26-.29.04-.04-.23-1.78.32-1.12.25-.38.02-1.82.3" fill="#d1dbdd" stroke="rgb(209, 219, 221)" stroke-width="0.1" data-originalStrokeWidth="0.1" style="stroke: rgb(0, 0, 0); fill: rgb(209, 219, 221); pointer-events: auto; stroke-width: 0.1;" pointer-events="auto"/>
      <path id="IN08" d="m1003.9 401.84-.2-.11-.1-.1-.19-.12-.05-.03-.2-.06-.12.03-.1.04-.12.08-.04.05-.08.2v.17l.06.3v.01l.06.11.07.09.05.06.09.04.1.04h.24l.27-.02.16.01.16.04.07.04h.09l.09.1.03.07.02.04v.15l-.02.13-.07.18-.06.08-.04.04-.07.07-.2.05h-.1l-.23-.02-.44.02-.13.08-.15.16-.06.25v.19l-.07.16-.18.07-.35-.3-.06-.02-.34-.22-.49.04-.17.17-.1.18.03.4.22.26.5.14.2.13.05.48-.06.2-.24.35-.43.27-.46.1-.46.08-.38.24-.03.35.02.16.07.6.2 1.2.21.41.29.28.11.36-.27.33-.31.2-.2.03-.62-.08-.54.12-.14.23-.06.34.14.6.06.63-.1.24-.54.5-.2.1-.33.1-.16-.06-.17-.4.04-.42.23-.83-.09-.38-.14-.1-.36-.02h-.4l-.42.43-.23.26v-.02l-.26.19-.29-.06-.25-.23-.19-.21-.3-.35-.31-.46-.1-.11-.19-.26-.02-.13-.07-.12-.2-.24-.3-.62-.18-.05-.2-.1-.37-.02-.68.43-.13.14-.51.75-.26.44-.18.3-.1.04-.05.06-.06.08-.08.05-.19.08h-.09l-.22.08-.11.02-.17.05-.21.04-.13.02-.02-.01-.11.05-.08.04-.28.18-.26.14-.19.1-.09.1-.4.36-.29.53.06.28.06.21.05.21-.01.2-.08.37-.03.46v.22l-.15.8-.08.25-.11.13-.17.2-.32.27-.2.1-.25.06-.32-.05-.15-.2-.08-.32-.08-.2-.17-.25-.27-.37-.28-.25-.12-.06-.64.05h-.33l-.4-.1-.89-.43-.32-.22-.07-.05-.1-.05-.75-.45-.13-.06-.2-.05-.24-.11-.43-.02-.5-.3-.12-.01-.3-.28-.4-.18-.23-.03-.63-.07-.12.03-.4.1-.15.07-.14.1-.23.2-.1.15-.54.64-.17.16-.07.05-.07.02-.06-.01-.53-.22-.43-.17v-.02l-.2-.1-.24-.21-.27-.38-.02-.1h-.1l.05-.12-.03-.25-.11-.2-.14-.08-.3-.01-.06.05-.09.14.02.32-.06.38-.11.2-.18.2.1-.05-.06.21-.09.05-.02.32.29.44.68.42.16.12.08.11.06.29-.07.06-.03.22v.16l-.14.37-.06.09-.18.32-.05.08-.35.22-.3.11-.75.06-.25-.26-.12-.6.12-.38.16-.66-.11-.25-.35-.2h-.12l-.09.06-.16.14-.23.12-.44.18-.23-.04-.4.1-.22.08-.59.56-.18.07-.32.05-.46.02-.32-.07-.23-.23-.03-.17-.31-.23-.38-.48-.13-.12-.2-.09-.23-.02h-.04l-.09.02-.15.1-.11.13-.31.63-.05.08-.14.22-.08.15-.02.37.1.28.8.77.27.79-.05.3-.55.38-.16.57-.14.3-.27.02-.4-.36-.74-.32-.34-.05-.23.08-.09.05v-.1l-.22-.2-.25.08-.36.28h-.21l-.34-.25-.2-.16-.04-.28.2-.2.46.17.5.01.33-.24-.04-.36-.2-.1-.6-.1-.26-.27-.32-.62-.31-.27-.16-.14-.07-.4.23-.03.41.29.4.07.5-.1.08-.02.3.1.1-.1.02-.13-.28-.6-.78.06-.21-.01-.23-.26.14-.2.19-.06.15.15.3.07.17-.16-.2-.42-.08-.43.4-.14.14-.24-.02-.35-.45-.9.01-.18.1-.3.24-.26-.28-.15-.22.12-.32-.08-.07-.09-.03-.23.27-.23.63-.05.6-.36.24-.26.13-.49.05-.14-.1-.2-.07-.22h-.05l-.03.03-.03.05-.06.07-.14.07-.1.05-.24.17-.34.2-.16-.01-.19-.32.06-.27.22-.14.15-.06.15.01.36-.11.02-.06-.02-.45.08-.18.3-.11.12.04.12.1.24-.41.2-.18-.07-.18.22-.22.09-.12.04-.3-.2-.15-.15.07.03.34-.22.18v-.23l-.21-.32-.5-.22-.47-.38-.2-.25-.04-.12-.08-.24-.02-.34.08-.33-.12-.35-.16-.15.04-.1.4.32.08.25.24.01-.01-.28.1-.23.26-.26-.28-.3.03-.22.21-.17.01-.35.28-.23.34-.02.09.2-.2.52.07.18.26-.03.24-.42.08-.05.1-.14.11-.69.17-.16.16.03.12.23-.07.43.2.4.22.03.31-.38.08-.47-.16-.79.12-.64.03-.09.23-.4.1-.16.59-.32.1-.16.2-.38.2-.42.21-.5-.04-.46.05-.36.17-.17-.02-.18-.26-.14h-.38l-.04-.2.12-.3.1-.2.1-.1.24-.05.4-.04.61-.48.34-.52.27.13.16-.08.14-.26-.04-.13-.22-.15-.48-.7.15-.23.24-.17-.07-.3.06-.2.26-.24-.08-.14-.05-.24.02-.05.18-.03.29.14.22-.25-.31-.05-.1-.19-.06-.16.15-.2-.07-.19.14-.24-.1-.15-.02-.35.22-.12.16-.68.2-.18.42-.2.27-.07.43-.17.18-.2.2-.31.03-.14v-.06l-.03-.25.02-.29.16-.38.04-.25.18-.19-.2-.2.06-.35.03-.22v-.06l-.08-.07-.38.04.05-.13.3-.15.06-.19-.18-.27-.2-.1-.54-.67.1-.27-.19-.36-.04-.37-.27-.07-.4-.17.2-.11-.12-.38.23-.08-.06-.24-.16-.1-.03-.19.18-.04.05-.2.21-.06.15-.02-.27-.18-.04-.32.2-.13-.01-.18.03-.16-.15-.28.09-.12.03-.33-.22-.12-.24-.33-.2-.06-.27-.08-.25-.05h-.05l-.12-.05-.23-.04-.07-.03-.05-.06v-.09l.07-.02.16.05.08.03.08-.04.01-.06v-.04l-.03-.05h-.06l-.07.05-.06-.02-.14-.06-.07-.03-.03-.05-.02-.07.01-.05.09-.19.02-.13.03-.23-.35-.68.15-.28-.04-.2-.36-.35-.16-.09-.14-.2h-.45l-.03-.03-.12-.1.07-.47-.11-.09h-.5l-.24.09-.15-.13-.03-.1.08-.13.26.02.1-.28-.18.01-.04-.18-.4-.17v-.1l.1-.38.21-.25.26.1.1-.08-.07-.08-.32-.1.08-.2.42-.14v-.09l-.08-.32.04-.08.33-.04.02-.16.37-.35.18-.37-.02-.42-.19-.6.16-.15-.09-.21h-.15l-.25.3-.38-.39.04-.43-.2-.12-.03-.25.18-.24.03-.2-.19-.09-.32.1-.06-.18.33-.16.25-.66.05-.12.24-.24.49-.03.15-.16.02-.13.06-.15.34.08.02-.03-.1-.7-.15-1.07-.14-.95v-.07l-.05-.37-.1-.63-.07-.45-.08-.61-.18-1.33-.1-.59-.24-1.82-.18-1.23-.07-.4-.09-.64-.04-.24-.05-.34-.08-.57-.15-1.13-.07-.46-.13-.94-.08-.66-.14-.92-.15-1.04-.12-.95-.1-.7-.03-.29-.06-.45-.07-.5-.1-.81-.08-.54-.07-.51-.1-.66-.04-.45-.07-.48-.21-1.51v-.13l.96-.14.1.66 1.98-.28.01-.36-.34-.23-.07-.38-.17-.12.34-.05.29-.58.15-.19.37.05v-.1l.32-.05-.03-.23.43-.06.04.22.67-.1.03.24.23-.03-.03-.23 2.26-.31.28 1.99-.22.04.03.32-.2.03.1.68.3-.02.1.59h.1l.1.51 1.1-.15.07.45 1.57-.22.39 2.47.03.23.36 2.7 1.95-.27.6 4.38 1.06 8 2.22-.3h.02l3.35-.46.44-.02.92-.15.92-.1 1.27-.2.36 2.24.24 1.62h-.23l-.25-.2-.18.2.12.31-.02.32-.14-.12-.05.18-.5-.15.85 5.34.53 3.42.3 2.02.62 4.38.41 2.86.37 2.37 2.22-.35 3.13-.52.02.03 1.85-.29.9-.15.9-.14.23 1.38 1.03 6.96 1.3-.2-.18.41.33.1.02.38-.17.06.39.12-.1.16-.24-.16v.29l.2.44.18.03-.05.3.07.2-.3-.19-.1-.2-.14.04-.2.4.15-.01.11.26-.1.02.17.62-.27-.1-.08.33.33.17.08.24.08-.25.27.01-.12.14.05.25.22-.1.02.4-.23-.03-.06.26-.13-.02.2 1.66-.15.23-.27-.07-.04.2.23.09-.12.2.16.16-.4.06-.07.46-.14.04.22.17-.16.13-.32-.06" fill="#d1dbdd" stroke="rgb(209, 219, 221)" stroke-width="0.1" data-originalStrokeWidth="0.1" style="stroke: rgb(0, 0, 0); fill: rgb(209, 219, 221); pointer-events: auto; stroke-width: 0.1;" pointer-events="auto"/>
      <path id="IN09" d="m1021.5 390.32-.62.16-.3.13-.28.2-.14.17-.27.53-.02.18-.05.29-.05.14-.12.8.06.52-.03.4-.02.31h-.02l-.12.7-.14.24-.17.34-.04.17-.12.17-.24.2-.3.27-.53.46-.02.03-.25.21-.21.03-.14-.03-.15-.07-.12-.1h-.03l-.02-.03.02-.06v-.03l-.16-.09-.03-.07-.23-.04h-.12l-.21.11-.44.18-.31.26-.13.44.05.34v.17l-.01.32-.13.35-.08.16-.54.62-.24.49-.24.61-.01.57.06.45.15.7.08.26.1.65-.1.62-.02.14-.01.14v.19l.05.5v.29l-.04.23-.2.4-.18.26-.28.1-.55.13-.74.28-.38.2-.15.14-.01.28.09.35v.23l-.14.18-.25-.05-.38-.4-.2-.27-.13-.32-.23-.18-.14-.09-.2-.06-.3-.11-.44-.03-.4.07-.53.27-.29.06-.26-.09-.11-.05-.2-.06-.46-.15-.56-.39-.39-.11-.24-.12-.18-.1-.09-.07-.1-.14-.1-.19-.08-.18-.05-.13-.03-.14-.05-.1-.01-.19-.03-.19-.02-.06v-.3l.02-.13.03-.12-.02-.08.03-.16v-.25l-.06-.16-.05-.09-.23-.26-.08-.1-.1-.12-.13-.1-.07-.02-.03-.03-.17-.07-.13-.04-.34-.12-.3-.22.33.06.16-.13-.22-.18.14-.03.06-.46.4-.06-.15-.18.12-.18-.23-.09.04-.2.27.07.15-.23-.2-1.66.13.02.06-.26.23.03-.02-.4-.22.11-.05-.26.12-.14-.26-.01-.08.25-.09-.24-.33-.18.08-.33.27.1-.16-.6.1-.03-.12-.26h-.16l.21-.39.13-.03.13.18.3.2-.1-.22.06-.29-.18-.02-.2-.44v-.29l.23.16.11-.16-.39-.12.17-.07-.02-.38-.34-.09.17-.4-1.28.2-1.03-6.97-.24-1.37-.9.13-.9.15-1.84.29-.02-.03-3.13.52-2.22.36-.37-2.37-.4-2.87-.63-4.38-.3-2.02-.53-3.41-.86-5.35.5.15.06-.18.14.12.02-.32-.13-.32.18-.2.26.21h.23l.03.2.57-.08 3.4-.45 3.35-.59 1.74-.28 1.52-.27 2.42-.43.11.51.37 2.26h.02l.55 3.21 1.8-.31.43-.12.9-.16 1.56-.29.07.46 1.23-.22.04.35.6-.07.2.06 1.33-.25 1.35-.24-.27-1.7-.42-2.64-.33-2.54 1.26-.22-.36-2.36-.1-.84 1.33-.24v.02l2.68-.45 1.55-.24 2.32-.4-.4-2.25 1.12-.19 3-.54 2.43-.37v.05l2.23-.38 1.88-.27.84-.1.04.27.03.15.07.46.07.47.34 2.28.1.6.05.38.02.12.22 1.39.1.68.04.2.1.71.07.44v.03l.05.32.03.05v.02l.2 1.21.14.86.14.75v.06l.05.35.09.5.02.15.03.14.04.24.03.16v.07l-.1.1-.16.11-.2.26-.05.06-.05.07-.03.1-.17.22-.1.14-.2.2-.4.26-.1.27.03.18.08.08.04.08.23.28h.03l.1.05.05.08.16.09.2.2.25.22.34.46.16.13.13.15.2.31.05.19v.1l-.12.37-.05.05-.1.16-.1.05-.1.3-.22.26-.22.59.25.4.1.07h.45l.24-.06.34-.01.45.02.32.1.07.03.19.13.05.07.04.15v.2l-.04.19-.09.2-.07.03-.07.1-.04.1-.09.08-.04.06-.11.1-.1.08-.11.15-.03.09-.05.07v.27l.35.52.17.22.11.34-.07.17-.28.08-.86-.1h-.46l-.3.03-.23.16-.3.26-.37.27-.28.1-.4-.02-.5.04-.28.13-.23.28-.1.12-.37.3-.05.02-.22.14-.13.12-.12.16-.18.13-.18.1-.46.43-.15.12-.04.06-.11.1-.12.22-.15.18-.13.14-.15.25-.1.1-.13.1-.44.32-.34.1-.38.06h-.1l-.21-.06-.22-.06-.38-.28-.5-.6-.2-.17-.23-.1-.76-.02-.3.06-.5.21-.3.11-.04.07-.5.18-.15.03-.08.03h-.07l-.8-.06-.24.03-.44.31-.08.16-.14.34-.1.17-.03.45.11.48.33.35.16.27.08.4.02.24.18 1.01.3.5.14.19.07.14.17.24.08.17.06.25v.67l-.23.34-.09.1-.6.43-.29.4-.09.56-.16.4-.21.26-.16.13-.18.14-.37.18-.27.08" fill="#d1dbdd" stroke="rgb(209, 219, 221)" stroke-width="0.1" data-originalStrokeWidth="0.1" style="stroke: rgb(0, 0, 0); fill: rgb(209, 219, 221); pointer-events: auto; stroke-width: 0.1;" pointer-events="auto"/>
      <g id="state_lines" stroke="rgb(209, 219, 221)" style="display: none; stroke: rgb(0, 0, 0);" stroke-width="0.1"/>
      <g id="state_abbr" fill="#000000" style="display: none; fill: rgb(0, 0, 0);">
        <text id="HI_label" x="491.79" y="769.82" style="font-size: 19.2455px; stroke-width: 1.60379; display: none;">
          <tspan id="HI_tspan" x="491.79" y="769.82" fill="#000000" dy="0" font-family="Arial" font-size="24.06" font-style="normal" font-weight="400" style="text-align: center; stroke-width: 2.57215; fill: rgb(0, 0, 0);" text-anchor="middle">HI</tspan>
        </text>
        <text id="AK_label" x="205.24" y="672.25" style="font-size: 19.2455px; stroke-width: 1.60379; display: none;">
          <tspan id="AK_tspan" x="205.24" y="672.25" fill="#000000" dy="0" font-family="Arial" font-size="24.06" font-style="normal" font-weight="400" style="text-align: center; stroke-width: 2.57215; fill: rgb(0, 0, 0);" text-anchor="middle">AK</tspan>
        </text>
        <text id="FL_label" x="1188.11" y="708.7" style="font-size: 19.2455px; stroke-width: 1.60379; display: none;">
          <tspan id="FL_tspan" x="1188.11" y="708.7" fill="#000000" dy="0" font-family="Arial" font-size="24.06" font-style="normal" font-weight="400" style="text-align: center; stroke-width: 2.57215; fill: rgb(0, 0, 0);" text-anchor="middle">FL</tspan>
        </text>
        <text id="NH_label" x="1306.05" y="167.79" stroke-width="1.1" font-size="13.25" style="display: none;">
          <tspan id="NH_tspan" x="1306.05" y="167.79" fill="#000000" stroke-width="1.1" dy="0" font-family="Arial" font-size="16.56" font-style="normal" font-weight="400" style="text-align: center; fill: rgb(0, 0, 0);" text-anchor="middle">NH</tspan>
        </text>
        <text id="MI_label" x="1019.65" y="246.58" style="font-size: 19.2455px; stroke-width: 1.60379; display: none;">
          <tspan id="MI_tspan" x="1019.65" y="246.58" fill="#000000" dy="0" font-family="Arial" font-size="24.06" font-style="normal" font-weight="400" style="text-align: center; stroke-width: 2.57215; fill: rgb(0, 0, 0);" text-anchor="middle">MI</tspan>
        </text>
        <text id="VT_label" x="1274.28" y="145.01" stroke-width="1.05" font-size="12.65" style="display: none;">
          <tspan id="VT_tspan" x="1274.28" y="145.01" fill="#000000" stroke-width="1.05" dy="0" font-family="Arial" font-size="15.81" font-style="normal" font-weight="400" style="text-align: center; fill: rgb(0, 0, 0);" text-anchor="middle">VT</tspan>
        </text>
        <text id="ME_label" x="1338.99" y="105.14" stroke-width="1.45" font-size="17.36" style="display: none;">
          <tspan id="ME_tspan" x="1338.99" y="105.14" fill="#000000" stroke-width="1.45" dy="0" font-family="Arial" font-size="21.7" font-style="normal" font-weight="400" style="text-align: center; fill: rgb(0, 0, 0);" text-anchor="middle">ME</tspan>
        </text>
        <text id="RI_label" x="1361.38" y="262.84" stroke-width="1.25" font-size="14.98" style="display: none;">
          <tspan id="RI_tspan" x="1361.38" y="262.84" fill="#000000" stroke-width="1.25" dy="0" font-family="Arial" font-size="18.72" font-style="normal" font-weight="400" style="text-align: center; fill: rgb(0, 0, 0);" text-anchor="middle">RI</tspan>
        </text>
        <text id="NY_label" x="1227.27" y="204.12" style="font-size: 19.2455px; stroke-width: 1.60379; display: none;">
          <tspan id="NY_tspan" x="1227.27" y="204.12" fill="#000000" dy="0" font-family="Arial" font-size="24.06" font-style="normal" font-weight="400" style="text-align: center; stroke-width: 2.57215; fill: rgb(0, 0, 0);" text-anchor="middle">NY</tspan>
        </text>
        <text id="PA_label" x="1187.28" y="284.69" style="font-size: 19.2455px; stroke-width: 1.60379; display: none;">
          <tspan id="PA_tspan" x="1187.28" y="284.69" fill="#000000" dy="0" font-family="Arial" font-size="24.06" font-style="normal" font-weight="400" style="text-align: center; stroke-width: 2.57215; fill: rgb(0, 0, 0);" text-anchor="middle">PA</tspan>
        </text>
        <text id="NJ_label" x="1330.57" y="290.09" stroke-width="1.28" font-size="15.4" style="display: none;">
          <tspan id="NJ_tspan" x="1330.57" y="290.09" fill="#000000" stroke-width="1.28" dy="0" font-family="Arial" font-size="19.25" font-style="normal" font-weight="400" style="text-align: center; fill: rgb(0, 0, 0);" text-anchor="middle">NJ</tspan>
        </text>
        <text id="DE_label" x="1320.8" y="328.42" stroke-width="1.36" font-size="16.38" style="display: none;">
          <tspan id="DE_tspan" x="1320.8" y="328.42" fill="#000000" stroke-width="1.36" dy="0" font-family="Arial" font-size="20.47" font-style="normal" font-weight="400" style="text-align: center; fill: rgb(0, 0, 0);" text-anchor="middle">DE</tspan>
        </text>
        <text id="MD_label" x="1310.72" y="368.46" stroke-width="1.34" font-size="16.11" style="display: none;">
          <tspan id="MD_tspan" x="1310.72" y="368.46" fill="#000000" stroke-width="1.34" dy="0" font-family="Arial" font-size="20.13" font-style="normal" font-weight="400" style="text-align: center; fill: rgb(0, 0, 0);" text-anchor="middle">MD</tspan>
        </text>
        <text id="VA_label" x="1198.59" y="392.33" style="font-size: 19.2455px; stroke-width: 1.60379; display: none;">
          <tspan id="VA_tspan" x="1198.59" y="392.33" fill="#000000" dy="0" font-family="Arial" font-size="24.06" font-style="normal" font-weight="400" style="text-align: center; stroke-width: 2.57215; fill: rgb(0, 0, 0);" text-anchor="middle">VA</tspan>
        </text>
        <text id="WV_label" x="1129.66" y="382.3" style="font-size: 19.2455px; stroke-width: 1.60379; display: none;">
          <tspan id="WV_tspan" x="1129.66" y="382.3" fill="#000000" dy="0" font-family="Arial" font-size="24.06" font-style="normal" font-weight="400" style="text-align: center; stroke-width: 2.57215; fill: rgb(0, 0, 0);" text-anchor="middle">WV</tspan>
        </text>
        <text id="OH_label" x="1079.05" y="334.46" style="font-size: 19.2455px; stroke-width: 1.60379; display: none;">
          <tspan id="OH_tspan" x="1079.05" y="334.46" fill="#000000" dy="0" font-family="Arial" font-size="24.06" font-style="normal" font-weight="400" style="text-align: center; stroke-width: 2.57215; fill: rgb(0, 0, 0);" text-anchor="middle">OH</tspan>
        </text>
        <text id="IN_label" x="998.79" y="352.94" style="font-size: 19.2455px; stroke-width: 1.60379; display: none;">
          <tspan id="IN_tspan" x="998.79" y="352.94" fill="#000000" dy="0" font-family="Arial" font-size="24.06" font-style="normal" font-weight="400" style="text-align: center; stroke-width: 2.57215; fill: rgb(0, 0, 0);" text-anchor="middle">IN</tspan>
        </text>
        <text id="IL_label" x="927.43" y="364.36" style="font-size: 19.2455px; stroke-width: 1.60379; display: none;">
          <tspan id="IL_tspan" x="927.43" y="364.36" fill="#000000" dy="0" font-family="Arial" font-size="24.06" font-style="normal" font-weight="400" style="text-align: center; stroke-width: 2.57215; fill: rgb(0, 0, 0);" text-anchor="middle">IL</tspan>
        </text>
        <text id="CT_label" x="1299.17" y="228.46" stroke-width="1.06" font-size="12.74" style="display: none;">
          <tspan id="CT_tspan" x="1299.17" y="228.46" fill="#000000" stroke-width="1.06" dy="0" font-family="Arial" font-size="15.93" font-style="normal" font-weight="400" style="text-align: center; fill: rgb(0, 0, 0);" text-anchor="middle">CT</tspan>
        </text>
        <text id="WI_label" x="898.6" y="224.7" style="font-size: 19.2455px; stroke-width: 1.60379; display: none;">
          <tspan id="WI_tspan" x="898.6" y="224.7" fill="#000000" dy="0" font-family="Arial" font-size="24.06" font-style="normal" font-weight="400" style="text-align: center; stroke-width: 2.57215; fill: rgb(0, 0, 0);" text-anchor="middle">WI</tspan>
        </text>
        <text id="NC_label" x="1205.6" y="458.72" style="font-size: 19.2455px; stroke-width: 1.60379; display: none;">
          <tspan id="NC_tspan" x="1205.6" y="458.72" fill="#000000" dy="0" font-family="Arial" font-size="24.06" font-style="normal" font-weight="400" style="text-align: center; stroke-width: 2.57215; fill: rgb(0, 0, 0);" text-anchor="middle">NC</tspan>
        </text>
        <text id="MA_label" x="1305.87" y="200.67" stroke-width="1.04" font-size="12.46" style="display: none;">
          <tspan id="MA_tspan" x="1305.87" y="200.67" fill="#000000" stroke-width="1.04" dy="0" font-family="Arial" font-size="15.58" font-style="normal" font-weight="400" style="text-align: center; fill: rgb(0, 0, 0);" text-anchor="middle">MA</tspan>
        </text>
        <text id="MO_label" x="854.22" y="422.93" style="font-size: 19.2455px; stroke-width: 1.60379; display: none;">
          <tspan id="MO_tspan" x="854.22" y="422.93" fill="#000000" dy="0" font-family="Arial" font-size="24.06" font-style="normal" font-weight="400" style="text-align: center; stroke-width: 2.57215; fill: rgb(0, 0, 0);" text-anchor="middle">MO</tspan>
        </text>
        <text id="GA_label" x="1106.89" y="574.56" style="font-size: 19.2455px; stroke-width: 1.60379; display: none;">
          <tspan id="GA_tspan" x="1106.89" y="574.56" fill="#000000" dy="0" font-family="Arial" font-size="24.06" font-style="normal" font-weight="400" style="text-align: center; stroke-width: 2.57215; fill: rgb(0, 0, 0);" text-anchor="middle">GA</tspan>
        </text>
        <text id="SC_label" x="1166.32" y="522.49" style="font-size: 19.2455px; stroke-width: 1.60379; display: none;">
          <tspan id="SC_tspan" x="1166.32" y="522.49" fill="#000000" dy="0" font-family="Arial" font-size="24.06" font-style="normal" font-weight="400" style="text-align: center; stroke-width: 2.57215; fill: rgb(0, 0, 0);" text-anchor="middle">SC</tspan>
        </text>
        <text id="KY_label" x="1039.99" y="426.39" style="font-size: 19.2455px; stroke-width: 1.60379; display: none;">
          <tspan id="KY_tspan" x="1039.99" y="426.39" fill="#000000" dy="0" font-family="Arial" font-size="24.06" font-style="normal" font-weight="400" style="text-align: center; stroke-width: 2.57215; fill: rgb(0, 0, 0);" text-anchor="middle">KY</tspan>
        </text>
        <text id="AL_label" x="1019.59" y="578.15" style="font-size: 19.2455px; stroke-width: 1.60379; display: none;">
          <tspan id="AL_tspan" fill="#000000" dy="0" font-family="Arial" font-size="24.06" font-style="normal" font-weight="400" style="text-align: center; stroke-width: 2.57215; fill: rgb(0, 0, 0);" text-anchor="middle">AL</tspan>
        </text>
        <text id="LA_label" x="872.7" y="649.59" style="font-size: 19.2455px; stroke-width: 1.60379; display: none;">
          <tspan id="LA_tspan" x="872.7" y="649.59" fill="#000000" dy="0" font-family="Arial" font-size="24.06" font-style="normal" font-weight="400" style="text-align: center; stroke-width: 2.57215; fill: rgb(0, 0, 0);" text-anchor="middle">LA</tspan>
        </text>
        <text id="MS_label" x="940.37" y="592.21" style="font-size: 19.2455px; stroke-width: 1.60379; display: none;">
          <tspan id="MS_tspan" x="940.37" y="592.21" fill="#000000" dy="0" font-family="Arial" font-size="24.06" font-style="normal" font-weight="400" style="text-align: center; stroke-width: 2.57215; fill: rgb(0, 0, 0);" text-anchor="middle">MS</tspan>
        </text>
        <text id="IA_label" x="823.33" y="308.44" style="font-size: 19.2455px; stroke-width: 1.60379; display: none;">
          <tspan id="IA_tspan" x="823.33" y="308.44" fill="#000000" dy="0" font-family="Arial" font-size="24.06" font-style="normal" font-weight="400" style="text-align: center; stroke-width: 2.57215; fill: rgb(0, 0, 0);" text-anchor="middle">IA</tspan>
        </text>
        <text id="MN_label" x="790.84" y="183.37" style="font-size: 19.2455px; stroke-width: 1.60379; display: none;">
          <tspan id="MN_tspan" x="790.84" y="183.37" fill="#000000" dy="0" font-family="Arial" font-size="24.06" font-style="normal" font-weight="400" style="text-align: center; stroke-width: 2.57215; fill: rgb(0, 0, 0);" text-anchor="middle">MN</tspan>
        </text>
        <text id="OK_label" x="732.05" y="519.54" style="font-size: 19.2455px; stroke-width: 1.60379; display: none;">
          <tspan id="OK_tspan" x="732.05" y="519.54" fill="#000000" dy="0" font-family="Arial" font-size="24.06" font-style="normal" font-weight="400" style="text-align: center; stroke-width: 2.57215; fill: rgb(0, 0, 0);" text-anchor="middle">OK</tspan>
        </text>
        <text id="TX_label" x="710.59" y="652.87" style="font-size: 19.2455px; stroke-width: 1.60379; display: none;">
          <tspan id="TX_tspan" x="710.59" y="652.87" fill="#000000" dy="0" font-family="Arial" font-size="24.06" font-style="normal" font-weight="400" style="text-align: center; stroke-width: 2.57215; fill: rgb(0, 0, 0);" text-anchor="middle">TX</tspan>
        </text>
        <text id="NM_label" x="506.94" y="542.36" style="font-size: 19.2455px; stroke-width: 1.60379; display: none;">
          <tspan id="NM_tspan" x="506.94" y="542.36" fill="#000000" dy="0" font-family="Arial" font-size="24.06" font-style="normal" font-weight="400" style="text-align: center; stroke-width: 2.57215; fill: rgb(0, 0, 0);" text-anchor="middle">NM</tspan>
        </text>
        <text id="KS_label" x="701.21" y="427.26" style="font-size: 19.2455px; stroke-width: 1.60379; display: none;">
          <tspan id="KS_tspan" x="701.21" y="427.26" fill="#000000" dy="0" font-family="Arial" font-size="24.06" font-style="normal" font-weight="400" style="text-align: center; stroke-width: 2.57215; fill: rgb(0, 0, 0);" text-anchor="middle">KS</tspan>
        </text>
        <text id="NE_label" x="686.63" y="337.29" style="font-size: 19.2455px; stroke-width: 1.60379; display: none;">
          <tspan id="NE_tspan" x="686.63" y="337.29" fill="#000000" dy="0" font-family="Arial" font-size="24.06" font-style="normal" font-weight="400" style="text-align: center; stroke-width: 2.57215; fill: rgb(0, 0, 0);" text-anchor="middle">NE</tspan>
        </text>
        <text id="SD_label" x="663.02" y="238.75" style="font-size: 19.2455px; stroke-width: 1.60379; display: none;">
          <tspan id="SD_tspan" x="663.02" y="238.75" fill="#000000" dy="0" font-family="Arial" font-size="24.06" font-style="normal" font-weight="400" style="text-align: center; stroke-width: 2.57215; fill: rgb(0, 0, 0);" text-anchor="middle">SD</tspan>
        </text>
        <text id="ND_label" x="663.02" y="150.75" style="font-size: 19.2455px; stroke-width: 1.60379; display: none;">
          <tspan id="ND_tspan" x="663.02" y="150.75" fill="#000000" dy="0" font-family="Arial" font-size="24.06" font-style="normal" font-weight="400" style="text-align: center; stroke-width: 2.57215; fill: rgb(0, 0, 0);" text-anchor="middle">ND</tspan>
        </text>
        <text id="WY_label" x="499.57" y="276.47" style="font-size: 19.2455px; stroke-width: 1.60379; display: none;">
          <tspan id="WY_tspan" x="499.57" y="276.47" fill="#000000" dy="0" font-family="Arial" font-size="24.06" font-style="normal" font-weight="400" style="text-align: center; stroke-width: 2.57215; fill: rgb(0, 0, 0);" text-anchor="middle">WY</tspan>
        </text>
        <text id="MT_label" x="487.84" y="155.58" style="font-size: 19.2455px; stroke-width: 1.60379; display: none;">
          <tspan id="MT_tspan" x="487.84" y="155.58" fill="#000000" dy="0" font-family="Arial" font-size="24.06" font-style="normal" font-weight="400" style="text-align: center; stroke-width: 2.57215; fill: rgb(0, 0, 0);" text-anchor="middle">MT</tspan>
        </text>
        <text id="CO_label" x="525.13" y="406.28" style="font-size: 19.2455px; stroke-width: 1.60379; display: none;">
          <tspan id="CO_tspan" x="525.13" y="406.28" fill="#000000" dy="0" font-family="Arial" font-size="24.06" font-style="normal" font-weight="400" style="text-align: center; stroke-width: 2.57215; fill: rgb(0, 0, 0);" text-anchor="middle">CO</tspan>
        </text>
        <text id="ID_label" x="339.94" y="235.07" style="font-size: 19.2455px; stroke-width: 1.60379; display: none;">
          <tspan id="ID_tspan" x="339.94" y="235.07" fill="#000000" dy="0" font-family="Arial" font-size="24.06" font-style="normal" font-weight="400" style="text-align: center; stroke-width: 2.57215; fill: rgb(0, 0, 0);" text-anchor="middle">ID</tspan>
        </text>
        <text id="UT_label" x="396.81" y="386.73" style="font-size: 19.2455px; stroke-width: 1.60379; display: none;">
          <tspan id="UT_tspan" x="396.81" y="386.73" fill="#000000" dy="0" font-family="Arial" font-size="24.06" font-style="normal" font-weight="400" style="text-align: center; stroke-width: 2.57215; fill: rgb(0, 0, 0);" text-anchor="middle">UT</tspan>
        </text>
        <text id="AZ_label" x="366.76" y="536.9" style="font-size: 19.2455px; stroke-width: 1.60379; display: none;">
          <tspan id="AZ_tspan" x="366.76" y="536.9" fill="#000000" dy="0" font-family="Arial" font-size="24.06" font-style="normal" font-weight="400" style="text-align: center; stroke-width: 2.57215; fill: rgb(0, 0, 0);" text-anchor="middle">AZ</tspan>
        </text>
        <text id="NV_label" x="262.47" y="370.64" style="font-size: 19.2455px; stroke-width: 1.60379; display: none;">
          <tspan id="NV_tspan" x="262.47" y="370.64" fill="#000000" dy="0" font-family="Arial" font-size="24.06" font-style="normal" font-weight="400" style="text-align: center; stroke-width: 2.57215; fill: rgb(0, 0, 0);" text-anchor="middle">NV</tspan>
        </text>
        <text id="OR_label" x="214.43" y="206.88" style="font-size: 19.2455px; stroke-width: 1.60379; display: none;">
          <tspan id="OR_tspan" x="214.43" y="206.88" fill="#000000" dy="0" font-family="Arial" font-size="24.06" font-style="normal" font-weight="400" style="text-align: center; stroke-width: 2.57215; fill: rgb(0, 0, 0);" text-anchor="middle">OR</tspan>
        </text>
        <text id="WA_label" x="238.05" y="102.99" style="font-size: 19.2455px; stroke-width: 1.60379; display: none;">
          <tspan id="WA_tspan" x="238.05" y="102.99" fill="#000000" dy="0" font-family="Arial" font-size="24.06" font-style="normal" font-weight="400" style="text-align: center; stroke-width: 2.57215; fill: rgb(0, 0, 0);" text-anchor="middle">WA</tspan>
        </text>
        <text id="CA_label" x="191.69" y="434.8" style="font-size: 19.2455px; stroke-width: 1.60379; display: none;">
          <tspan id="CA_tspan" x="191.69" y="434.8" fill="#000000" dy="0" font-family="Arial" font-size="24.06" font-style="normal" font-weight="400" style="text-align: center; stroke-width: 2.57215; fill: rgb(0, 0, 0);" text-anchor="middle">CA</tspan>
        </text>
        <text id="DC_label" x="1309.32" y="398.19" stroke-width="1.29" font-size="15.45" style="display: none;">
          <tspan id="DC_tspan" x="1309.32" y="398.19" fill="#000000" stroke-width="1.29" dy="0" font-family="Arial" font-size="19.31" font-style="normal" font-weight="400" style="text-align: center; fill: rgb(0, 0, 0);" text-anchor="middle">DC</tspan>
        </text>
        <text id="TN_label" x="1018.93" y="485.72" style="font-size: 19.2455px; stroke-width: 1.60379; display: none;">
          <tspan id="TN_tspan" x="1018.93" y="485.72" fill="#000000" dy="0" font-family="Arial" font-size="24.06" font-style="normal" font-weight="400" style="text-align: center; stroke-width: 2.57215; fill: rgb(0, 0, 0);" text-anchor="middle">TN</tspan>
        </text>
        <text id="AR_label" x="863.15" y="535.77" style="font-size: 19.2455px; stroke-width: 1.60379; display: none;">
          <tspan id="AR_tspan" x="863.15" y="535.77" fill="#000000" dy="0" font-family="Arial" font-size="24.06" font-style="normal" font-weight="400" style="text-align: center; stroke-width: 2.57215; fill: rgb(0, 0, 0);" text-anchor="middle">AR</tspan>
        </text>
      </g>
      <g id="state_borders" transform="translate(-0.04777967,-0.15336683)" stroke="rgb(209, 219, 221)" style="stroke: rgb(0, 0, 0);" stroke-width="0.3">
        <path id="IN_MI_border" d="m1022.33 285.94-.32-2-3.84.66-7.72 1.26-6.9 1.15-4.22.67-7.77 1.16-9.04 1.42-7.04 1.03" stroke="rgb(209, 219, 221)" stroke-width="0.3" fill="none" style="stroke: rgb(0, 0, 0); display: none;"/>
        <path id="IN_OH_border" d="m1035.65 367.05-1.04-6.24-.81-5.4-1.74-10.56-.9-5.7-1.48-9.88-.54-3.18-.43-2.81-1.57-9.36-1.01-5.9-2.38-13.95-1.42-8.15" stroke="rgb(209, 219, 221)" stroke-width="0.3" fill="none" style="stroke: rgb(0, 0, 0); display: none;"/>
      </g>
      <rect id="selection-rectangle" fill="#ffffccaa" stroke="rgb(209, 219, 221)" stroke-width="0.1"/>
      <ellipse id="selection-ellipse" fill="#ffffccaa" stroke="rgb(209, 219, 221)" stroke-width="0.1"/>
      <polygon id="selection-polygon" fill="#ffffccaa" stroke="rgb(209, 219, 221)" stroke-width="0.1"/>
      <polyline id="selection-polyline" fill="#ffffccaa" stroke="rgb(209, 219, 221)" stroke-width="0.1"/>
    </svg>
  </g>
  <svg id="legend-svg" width="100%" height="100%" style="overflow:visible;" class="ui-draggable ui-draggable-handle" x="1328.321548461914" y="504">
    <g id="legend-g-svg" fill="#000" transform="translate(0,0) scale(1)" style="font-family: Helvetica; font-weight: 400; font-style: normal;">
      <rect id="legend-bg-rect-svg" x="0" y="0" rx="3.8" ry="3.8" width="190" height="20" fill="#000000" stroke="rgb(209, 219, 221)" fill-opacity="0" stroke-width="0.1"/>
    </g>
  </svg>
</svg>
