<?xml version='1.0' encoding='UTF-8'?>
<svg xmlns="http://www.w3.org/2000/svg" xmlns:dc="http://purl.org/dc/elements/1.1/" xmlns:ns2="http://creativecommons.org/ns#" xmlns:rdf="http://www.w3.org/1999/02/22-rdf-syntax-ns#" id="wrapper" viewBox="0 0 1520 840" preserveAspectRatio="xMinYMin" height="840" width="1520" style="background-color: rgb(255, 255, 255);">
  <metadata>
    <rdf:rdf>
      <ns2:work rdf:about="">
        <dc:format>image/svg+xml</dc:format>
        <dc:type rdf:resource="http://purl.org/dc/dcmitype/StillImage"/>
        <dc:title>MapChart Map</dc:title>
        <dc:creator>
          <ns2:agent>
            <dc:title>MapChart.net</dc:title>
          </ns2:agent>
        </dc:creator>
        <ns2:license rdf:resource="http://creativecommons.org/licenses/by-sa/4.0/"/>
        <dc:description>This map was created with MapChart.net, a website for creating custom maps.</dc:description>
      </ns2:work>
      <ns2:license rdf:about="http://creativecommons.org/licenses/by-sa/4.0/">
        <ns2:permits rdf:resource="http://creativecommons.org/ns#Reproduction"/>
        <ns2:permits rdf:resource="http://creativecommons.org/ns#Distribution"/>
        <ns2:requires rdf:resource="http://creativecommons.org/ns#Notice"/>
        <ns2:requires rdf:resource="http://creativecommons.org/ns#Attribution"/>
        <ns2:requires rdf:resource="http://creativecommons.org/ns#ShareAlike"/>
      </ns2:license>
    </rdf:rdf>
  </metadata>
  <g id="map-group" transform="translate(-5446.327836735689,-1838.0712586785976) scale(7.550184391629534)">
    <svg id="map" width="1520" height="840" version="1.1" viewBox="0 0 1520 840" preserveAspectRatio="xMinYMin" data-originalStrokeWidth="0.3">
      <defs>
        <pattern id="circles3" width="10" height="10" patternUnits="userSpaceOnUse">    <rect width="10" height="10" fill="#fff"/>    <circle cx="4" cy="4" r="2" fill="#000"/>    </pattern>
        <pattern id="diagonal1" width="10" height="10" patternUnits="userSpaceOnUse">    <rect width="10" height="10" fill="#fff"/>    </pattern>
        <pattern id="diagonal3" width="10" height="10" patternUnits="userSpaceOnUse">    <rect width="10" height="10" fill="#fff"/>    </pattern>
        <pattern id="vertical1" width="10" height="10" patternUnits="userSpaceOnUse">    <rect width="10" height="10" fill="#fff"/>    <rect x="2" y="0" width="1" height="10" fill="#000"/>    </pattern>
        <pattern id="vertical3" width="10" height="10" patternUnits="userSpaceOnUse">    <rect width="10" height="10" fill="#fff"/>    <rect x="2" y="0" width="3" height="10" fill="#000"/>    </pattern>
        <pattern id="horizontal1" width="10" height="10" patternUnits="userSpaceOnUse">    <rect width="10" height="10" fill="#fff"/>    <rect x="0" y="2" width="10" height="1" fill="#000"/>    </pattern>
        <pattern id="horizontal3" width="10" height="10" patternUnits="userSpaceOnUse">    <rect width="10" height="10" fill="#fff"/>    <rect x="0" y="2" width="10" height="3" fill="#000"/>    </pattern>
        <pattern id="crosshatch" width="8" height="8" patternUnits="userSpaceOnUse">    <rect width="8" height="8" fill="#fff"/>    </pattern>
        <pattern id="subtlepatch" width="5" height="5" patternUnits="userSpaceOnUse">    <rect width="5" height="5" fill="#fff"/>    <rect x="2" y="2" width="1" height="1" fill="#000"/>    </pattern>
        <pattern id="checkers" width="8" height="8" patternUnits="userSpaceOnUse">    <rect width="8" height="8" fill="#fff"/>    </pattern>
        <pattern id="raindrops" width="10" height="10" patternUnits="userSpaceOnUse">    <rect width="10" height="10" fill="#fff"/>    </pattern>
        <pattern id="texture" width="4" height="4" patternUnits="userSpaceOnUse">    <rect width="4" height="4" fill="#fff"/>    </pattern>
        <pattern id="circles3_a03500_000000" width="10" height="10" patternUnits="userSpaceOnUse">    <rect width="10" height="10" fill="#a03500"/>    <circle cx="4" cy="4" r="2" fill="#000000"/>    </pattern>
        <pattern id="diagonal1_d9b400_535353" width="10" height="10" patternUnits="userSpaceOnUse">    <rect width="10" height="10" fill="#d9b400"/>    </pattern>
        <pattern id="diagonal3_3264c8_ffffff" width="10" height="10" patternUnits="userSpaceOnUse">    <rect width="10" height="10" fill="#3264c8"/>    </pattern>
        <pattern id="horizontal1_72b38e_000000" width="10" height="10" patternUnits="userSpaceOnUse">    <rect width="10" height="10" fill="#72b38e"/>    <rect x="0" y="2" width="10" height="1" fill="#000000"/>    </pattern>
        <pattern id="horizontal3_986ba1_ffffff" width="10" height="10" patternUnits="userSpaceOnUse">    <rect width="10" height="10" fill="#986ba1"/>    <rect x="0" y="2" width="10" height="3" fill="#ffffff"/>    </pattern>
        <pattern id="vertical1_b9a087_ffffff" width="10" height="10" patternUnits="userSpaceOnUse">    <rect width="10" height="10" fill="#b9a087"/>    <rect x="2" y="0" width="1" height="10" fill="#ffffff"/>    </pattern>
        <pattern id="vertical3_4c91bf_ffff33" width="10" height="10" patternUnits="userSpaceOnUse">    <rect width="10" height="10" fill="#4c91bf"/>    <rect x="2" y="0" width="3" height="10" fill="#ffff33"/>    </pattern>
        <pattern id="checkers_cc3333_f7f7f7" width="8" height="8" patternUnits="userSpaceOnUse">    <rect width="8" height="8" fill="#cc3333"/>    </pattern>
        <pattern id="texture_d1dbdd_525252" width="4" height="4" patternUnits="userSpaceOnUse">    <rect width="4" height="4" fill="#d1dbdd"/>    </pattern>
        <style id="map-style">svg { background-color: #ffffff; }</style>
      </defs>
      <path id="IA01" d="m823.95 305.01 4.5-.34 7.73-.6 1.3-.12.67 8.25.22-.03.26 2.93 4.46-.39 6.25-.57-.26-2.9-.05.01-.18-1.84-.22-2.53-.28-3.88 1.35-.13 1.22-.1 2.56-.24 4.05-.33 4.34-.43 3.13-.24 2.7-.23 2.26-.25-.27-2.75-.25-2.75-.3-3.23-.47-5.04 5.15-.5 3.04-.3 1.6-.14 4.45-.45 1.83-.2-.28-2.75 3.75-.4.66-.05.08.08.17.27.3.28.2.08.4.6.12.1.1.06.14.16-.08.32.07.2-.12.58-.07.27.1.28.15.28.07.22.06.08.22.18.38.43.07.19.47.33.25.12.2.14.68.07.26.2.08.03.39.11.4.23.32.12.45.04.37.15.64.33.25.68.12.06.16.05.45-.02.24.34.05.28.01.2-.03.54-.03.29.1.52.05.16.05.28.14.12.2.2.08.25.05.12.19.28.04.28-.07.6-.04.1-.1.15-.05.17-.13.44v.22l.23.32.12.14.02.07.03.77-.03.29-.14.46-.08.24-.02.05-.02.33.03.23-.16.6-.01.2.07.16.08.5-.14.3-.35.16-.3.15-.54.46-.48.41-.3.17-.11.1-.54.74-.1.3v.5l.13.27.05.31-.13.34-.28.26-.02.08v.3l-.02.3-.04.19-.03.27.16 1.02.1.5-.03.25-.03.09-.48.31-.37.14-.54.32-.2.2-.13.3-.1.09-.13.07-.1.19-.14.27-.34.44-.29.15-.34.08-.33.04-.23-.01-.49-.12-.18-.03-.11.05-.25.05-.3.3-.25.06-.21.1-.24.23-.01.3-.3.42-.45.41-.22.3-.35.16-.25.03-.32.17-.38.13-.6.15-.07.03-.61.05-.33.01-.43-.02-1.22.08-.48.3-.23.22-.49.39-.62.34-.45-.02-.52-.19-.12-.06-.25.02-.44.3-.13.05-.38.06-.1.1-.15.1-.09.09-.07.11v.1l-.02.3.02.43-.09.22-.09.17-.09.2-.07.95.05.52-.01.57-.25.37-.31 1.07-.17.39.02.28.04.07.1.09.7.6.41.45.3.41.38.58.28.05.29-.08.23-.04.32.13.14.14.1.16.13.24.28.37.15.32.24.25.29.43v.5l.02.21.07.26.21.97-.02.48.04.42-.16.65-.04.22.2.66-.12.67-.02.41-.13.2-.66.42-.23.26-.2.48-.02.07-.5.56-.21.65-.32.35-.21.27-.18.2-.07.15-.04.16-.02.11v.22l.02.1.07.15.11.32.03.13v.19l-.08.33-.1.32-.1.17-.05.2-.06.68.01.1.04.06.12.36v.36l-.06.16-.07.62-.38.42-.35.25-.67.6-.18.05-.11.01-.64-.01-.2.04-.35.02-.13.02-.27.16-.87.31-.82.52-.2.15-.24.27-.28.64-.1.27-.47.52-.08.15-.02.23.19.32.32.1.15.15.35.46.17.43v.61l-.06.25-.16.5-.04.43.23.66.09.32.03.38-.04.23-.18.2-.3.14-.47.12-.04.09-.17-.13-.24-.05-.03-.02-.12-.01-.13.32-.36.06-.01-.2-.02-.1-.09.05-.28.1-.17-.12-.13-.22.05-.2-.05-.16-.11.1-.27-.03-.3-.13-.1-.03-.14-.31.1-.22v-.23l-.18.01-.16-.2.23-.3-.03-.21-.1-.08-.26.05h-.43l-.17-.04-.43-.27-.2-.5-.2-.23-.35-.13-.34-.28-.03-.92-.15-.13-.72-.11-.66-.07-.17-.12-.05-.07-.05-.16.12-.45-.3-.26-.4-.2-.2-.18-.24-.35-2.24.3-.66.13-1.5.2-1.06.14-.89.1-.33.03-.94.13-.68.1-.35.04-1.24.14-.7.08-.2-2.6-.2-2.08-.23-2.56-.14-1.46-.85-9.07-3.62.34-4.9.47-6.77.57-5.54.47-1.78.13-1.6.13-4.45.35-1.37.12-3.28.21-4.41.31-.46-5.86-.07-1.02-.3-4.18 3.85-.3 1.78-.1 2.53-.09.1.17.22-.1.1-.22.23.11-.03.26-.13.2.18.02.2-.33.15.02.04.25-.17.21.19.01.31-.31.23.06.07.2.28-.1-.03-.23.14-.03.18.43.14.01.27-.3-.15-1.68-.12-1.8-.48.04-.62-8.28" fill="#d1dbdd" stroke="rgb(209, 219, 221)" stroke-width="0.1" data-originalStrokeWidth="0.1" style="stroke: rgb(0, 0, 0); fill: rgb(209, 219, 221); pointer-events: auto; stroke-width: 0.1;" pointer-events="auto"/>
      <path id="IA02" d="m816.58 253.6.22-.01 3.04-.23 2.35-.18.36-.04 2.41-.19h.08l1.2-.1 1.58-.13 1.24-.1.07-.02 1.93-.16.84-.06 1.2-.1.44-.05.38-.04h.22l1.18-.11 1.8-.16 2.87-.26 1.04-.1h.3l.32-.04.32-.03h.19l1.36-.13 1.96-.18 1.9-.18h.2l1.14-.11.11-.03.63-.05.5-.03.66-.07.88-.07.21-.02.4-.05h.03l1.3-.12 1.46-.14.38-.03.3-.03.9-.08.56-.06.94-.1.88-.07.15-.03.32-.02.45-.05.74-.06.18-.01.38-.04.11-.02.65-.06.57-.05.22-.03.76-.07 1.25-.13.76-.07 1.1-.12.22-.02h.02l.36-.04.4-.04.73-.07v.12l.04.19.07.2-.07.43-.18.3-.06.07.12.46.4.41.16.19.1.14.21.77-.15.7-.15.24.35.52.48.05.42.2.83.3.27.2.26.15.55.63.4.6.03.34.23.02.08.34-.05.19-.5.71-.41.54-.13.14-.11.08-.08.4-.3.69-.03.35-.33.54-.32.22-.05.32.1.52.05.21.06 1.24.11.57.04.16.04.08.12.43.15.32.22.61.05.35.26.43.03.1.04.21-.03.52.19.53-.03.25.09.32.15.03.17.07.11.03.24.12.37.33.1.59.22.4-.02.51.1.18h.02l.27.01v.16l.05.42.05.18.11.33.2.73.21.22-.07.35.25.13.02.17.2.09.05-.05.3.1.04.15.34.29.15-.04.25.1.3.22.08.1.28.28.35.12.18.1.37.06.36-.1.42.21.27.1.11.03.3.05 1 .15.14.04.2.01.48.06.22.04.43.03.22.05.7.1.44.14.3.33.03.11.23.37.13.35.05.23.26.37.12.07.27.25.1.31.26.33.1.1.05.08.08.32.18.43-.12.21-.08.14-.19.47.04.24.14.26.25.18.41.27.44.19.38.07.6.23.18.28.14.41.47.17.44.15.1.04.32.16.26.23.28.06.11.08-.65.06-3.75.4.28 2.74-1.83.2-4.46.45-1.59.15-3.04.3-5.15.5.46 5.03.31 3.23.25 2.75.27 2.75-2.26.25-2.7.23-3.12.25-4.35.42-4.05.33-2.56.24-1.22.1-1.36.13.28 3.88.23 2.53.18 1.84h.05l.25 2.89-6.24.57-4.46.39-.26-2.93-.22.03-.68-8.25-.18-2.3-.77-8.7-2.47.22-5.96.54-7.63.57-.49-6.28-.13-1.99-.85.06-.2-2.73 2.5-.19 5.65-.43 2.71-.21-.48-6.3-.37-4.77-6.29.5-4.55.33-.18-2.76-.48-6.4-.51-6.63-.21-2.88" fill="#d1dbdd" stroke="rgb(209, 219, 221)" stroke-width="0.1" data-originalStrokeWidth="0.1" style="stroke: rgb(0, 0, 0); fill: rgb(209, 219, 221); pointer-events: auto; stroke-width: 0.1;" pointer-events="auto"/>
      <path id="IA03" d="m823.95 305.01.63 8.3.48-.05.12 1.8.15 1.69-.27.3-.14-.02-.18-.43-.14.03.02.23-.28.1-.06-.19-.23-.08-.3.32-.2-.01.17-.2-.04-.26-.16-.02-.2.33-.18-.03.14-.19.03-.26-.23-.11-.1.22-.2.1-.11-.17-2.54.08-1.78.11-3.87.29.3 4.2.1 1 .45 5.87 4.4-.31 3.3-.21 1.36-.12 4.46-.35 1.59-.13 1.78-.14 5.54-.46 6.76-.57 4.91-.47 3.62-.34.85 9.07.14 1.46.22 2.57.2 2.07.2 2.6-.53.07-.37.03-.44.05-.33.04-.46.05-.69.07-.63.08-.36.05-.23.03-.58.07-.1.01-1.13.12-.2.03-.6.05-1.41.17-1.38.18h-.17l-.9.12-.17.03h-.06l-.29.02-2.23.25-.77.07-1.26.11-.67.07-.25.03-.46.02-.09.02-1.25.11-.43.05-.56.07-.92.1-.38.05-.71.08-.46.04-.31.05-.39.05-.51.04-1 .12-.41.04-.48.05-.92.08-1.02.08-.22.03h-.11l-.4.05h-.25l-.97.1-.02-.01-1.3.1-1.03.08-.35.04-.58.02-.55.04-1.16.13-.66.07-.52.05-.3.02-.37.03-1.25.11-.38.04h-.14l-.57.05-1.87.16-1.7.16-.27.04h-.02l-1.17.1-.38.04-.54.05-.48.05-.6.05h-.2l-.7.06-1.07.08-.47.05-1.39.11-.5.05-.36.03-.57.02-.24.03-.77.04-.42.04-.48.03-.33.03-.79.05-.24.03-.9.05v.02l-.43.02-.95.05-1.15.08-5.31.26-.9.03-1.47.07-.77.03-2.43.12-.77.02-1.48.07-.77.02-1.4.07h-.23l-2 .1-1.04.03-.31.02-.14-2.38-.04-2.32-.35.02-.1-2.28-.46-8.27-.18-3.13 2.7-.13 2.67-.14-.2-3.66-.16-2.6-.03-1-.22-3.54v-.17l2.67-.13 7.94-.47-.2-3.1-1.02.06-.23-3.66-.07-1.37-.22-3.2 2.69-.18-.12-1.83-.57-9.15 6.24-.39 4.5-.34.12 1.85.63 9.13 4.97-.35 4.05-.3 3.62-.27 6.32-.47" fill="#d1dbdd" stroke="rgb(209, 219, 221)" stroke-width="0.1" data-originalStrokeWidth="0.1" style="stroke: rgb(0, 0, 0); fill: rgb(209, 219, 221); pointer-events: auto; stroke-width: 0.1;" pointer-events="auto"/>
      <path id="IA04" d="m837.47 303.96-1.29.1-7.73.61-4.49.35-6.31.48-3.63.25-4.05.3-4.97.35-.64-9.13-.11-1.84-4.5.34-6.24.4.57 9.14.12 1.83-2.69.18.22 3.2.07 1.37.23 3.66 1.02-.05.2 3.09-7.94.47-2.68.13v.17l.23 3.53.03 1.01.17 2.6.19 3.66-2.67.14-2.7.13.18 3.13.45 8.27.11 2.28.35-.02.04 2.33.14 2.37-.45.02h-.48l-1.78.1-.9.02-1.12.05-.66.01-.87.02-.84.05-1.02.03-1.17.05.17-.13.18-.24-.03-.4-.18-.15-.22-.14-.07-.19-.04-.37-.03-.11-.13-.22-.33-.37-.4-.16-.4-.05-.24-.12-.25-.18-.1-.24-.03-.25-.18-.33-.1-.1-.3-.15-.32-.15-.14-.46.13-.6.27-.3.46-.25.33-.4.02-.2-.26-.57-.04-.44.12-.27-.02-.44-.2-.4-.06-.18v-.08l.08-.26.16-.12.48-.26.15-.37-.05-.2-.14-.22-.36-.3-.18-.3-.06-.26-.03-.21.05-.36.03-.07.13-.35.02-.28-.18-.38-.22-.14-.46-.22-.17-.38.21-.52-.06-.4-.33-.34-.17-.15-.01-.38.04-.07.05-.05.16-.2.11-.18.02-.42-.05-.12-.07-.31v-.22l-.02-.19-.1-.23-.19-.25-.05-.11-.07-.2-.01-.13.03-.23.17-.28.18-.06.43.05.12-.17-.05-.26-.3-.22-.28-.03-.3.04-.64.13-.28-.06-.14-.19-.08-.22v-.15l.03-.22.06-.12.21-.28.04-.5-.28-.63-.02-.05.01-.2.12-.17-.05-.05-.2-.15-.06-.04v-.55l.18-.1h.26l.1.03.01.2-.03.19-.14.25.17.15h.07l.28-.12.14-.1.06-.05.09-.08.06-.09.09-.2v-.1l-.04-.16-.06-.2-.07-.1-.07-.09-.08-.06-.07-.05-.16-.07h-.05l-.13-.02-.13.02-.1.04h-.13l-.23-.01-.25-.16-.28-.2-.17-.18-.1-.33.14-.2.4-.21.08-.17-.04-.35-.18-.4.15-.78-.07-.24-.03-.29.27-.37v-.3l-.11-.19-.3-.18-.21-.04-.3.13-.24-.03-.39-.19-.46-.02-.22-.2-.1-.15-.07-.24.16-.1.27-.28.15-.39-.2-.77-.12-.12-.33-.04-.18.15-.04.4-.1.22v.27l-.02.08-.1.12-.41-.1-.3-.3-.11-.12-.23-.07-.2-.22-.13-.53.02-.03.04-.2.04-.14.14-.19.09-.2-.16-.38-.44-.2-.1-.08-.17-.3-.06-.28.04-.22.34-.45.11-.4-.05-.2-.08-.21-.32-.21-.2-.28-.04-.38.04-.1.26-.24.18.01.31.03.25-.1.06-.3-.1-.22-.24-.15-.29-.12-.15-.15-.04-.25.08-.22.11-.12.37-.29.06-.25-.03-.16.03-.23.08-.17.15-.18.03-.2-.2-.34-.18-.13-.52-.17-.2-.24-.02-.25.06-.18-.12-.39-.2-.2-.39-.21-.13-.15-.18-.56-.34-.5.06-.22.39-.18.07-.1.03-.28-.2-.46.1-.2.1-.14.12-.41v-.16l-.04-.09-.27-.16h-.03l-.36-.05-.44.15-.23-.05-.11-.22.16-.4v-.17l-.1-.1-.33-.07-.2.02-.11.07-.17.33-.05.07-.07.02-.12-.03-.2-.14.01-.3.28-.3.06-.1.08-.16-.1-.28-.21-.17-.41.04-.1.07h-.05l-.17-.06-.06-.04-.17-.26-.03-.1-.1-.39.06-.58.15-.37.02-.11-.02-.35-.15-.28-.3-.2-.24-.05-.2-.04-.25-.27-.3-.45-.21-.08-.14-.11-.12-.18-.1-.4.05-.25-.04-.27-.29-.5.03-.12.5-.12.19-.28.04-.1.05-.2-.14-.13.01-.35-.09-.28-.25-.3-.19-.1-.27-.22-.21-.51-.05-.47-.35-.46-.3-.13-.26-.2-.14-.18-.12-.48.13-.37.04-.37-.15-.33-.02-.11-.01-.26.1-.29.06-.1.44-.54.14-.46-.02-.4-.14-.47-.38-.36-.2-.04h-.09l-.6-.03H751l-.16-.06-.16.05-.33.04.07-.43-.15-.22-.14.01h-.04l-.14-.1-.03-.05.01-.09v-.03l.3-.17.03-.5v-.22l-.02-.29-.1-.02-.18.01-.1.02-.1-.06-.03-.07.27-.42-.22-.21.04-.26-.2-.05.04-.12-.24-.58-.1-.08-.04-.03-.04-.01-.06.03-.04.06-.02.03-.07.13H749l-.06-.04-.03-.1v-.05l.02-.07.06-.03.1.03.04-.03.08-.06.03-.07.03-.1v-.14l-.21-.15-.06-.2-.3-.19.03-.16-.1-.24-.4.09.06-.2-.29-.38-.13.2-.12-.06.13-.22-.1-.12-.22.01-.02-.22-.17.05-.01-.2-.37-.21-.22.09-.16-.36.02-.11-.09-.1.07-.25-.2.06.07-.17-.2-.16-.02-.1.2.08-.1-.14.19-.47-.05-.08-.2-.24.06-.22.16-.02.06-.14.08-.25.35-.09-.04-.13.23-.1.08-.39-.03-.13-.08-.1v-.09l.25-.14-.04-.12.18-.14-.13-.18.03-.13.29.1.1.15.03.03.01-.07.08-.3.18.1.06-.14-.2-.24.26-.05.08-.26-.14.03v-.54l.18-.14-.11-.18.05-.17.3-.04-.05-.23-.27-.07-.06-.09.14-.08-.1-.2.08-.35.24-.42.36-.31-.01-.27.22-.14-.16-.4-.25-.06-.1-.24.02-.1.15-.06-.03-.19.18-.18.19-.12.1-.3-.2-.3-.25-.13-.1-.18.1-.27-.14-.18.09-.2.5-.07.27-.35.36-.07.1-.54.01-.16-.2-.1.19-.24.17-.41.2-.34-.16-.42-.2-.28-.23-.03-.17-.24.03-.31-.03-.2-.05-.08h.06l-.06-.46-.05-.04-.1-.38-.03-.13.08-.16-.21-.47-.2-.02-.13.01-.3.06-.06.16-.26-.05-.13-.15-.66-.07-.09.13-.2-.26-.05-.1-.06-.13.17-.2.33-.12-.07-.2-.03-.15h-.08l-.19-.01-.25-.24-.2.01-.05-.18.18-.15-.1-.33.04-.22-.18.1-.04-.09.33-.13.24.14.21-.07.1.1.07-.03.39-.2-.05-.15.15-.23-.26-.78.15-.2.06-.18-.07-.44.11-.42-.12-.63-.27.04-.19-.08-.54-.59-.13-.06.09-.25-.1-.13-.44-.05-.15-.35-.04-.05.01-.19-.03-.07.15-.2v-.08l.26-.14-.11-.35-.01-.17.03-.2-.34-.18v-.13l2.07-.1 3.45-.15h.13l.42-.04.05.01 3.3-.16 1.47-.06 9.91-.49.78-.05 3.05-.16.51-.03.33-.02.08-.02.92-.05v.02l2.94-.18.57-.04.64-.03.15-.03 2.03-.1.41-.04.33-.01.41-.04 2.5-.14.66-.05 1.4-.07.44-.04.6-.03.76-.05.88-.06.57-.03 3.5-.2.9-.06h.02l2.16-.15.54-.02 1.58-.11 1.6-.1 1.26-.08.13-.03 1.18-.07.97-.06 1-.07.41-.03 2.41-.16 1.55-.1.39-.04 5.35-.38 2.34-.19 1.38-.1.2 2.88.52 6.63.48 6.4.19 2.76 4.54-.33 6.3-.5.36 4.77.48 6.3-2.71.21-5.66.43-2.49.2.2 2.72.85-.06.13 2 .5 6.27 7.62-.57 5.97-.53 2.46-.22.77 8.69.18 2.3" fill="#d1dbdd" stroke="rgb(209, 219, 221)" stroke-width="0.1" data-originalStrokeWidth="0.1" style="stroke: rgb(0, 0, 0); fill: rgb(209, 219, 221); pointer-events: auto; stroke-width: 0.1;" pointer-events="auto"/>
      <g id="state_lines" stroke="rgb(209, 219, 221)" style="display: none; stroke: rgb(0, 0, 0);" stroke-width="0.1"/>
      <g id="state_abbr" fill="#000000" style="display: none; fill: rgb(0, 0, 0);">
        <text id="HI_label" x="491.79" y="769.82" style="font-size: 19.2455px; stroke-width: 1.60379; display: none;">
          <tspan id="HI_tspan" x="491.79" y="769.82" fill="#000000" dy="0" font-family="Arial" font-size="24.06" font-style="normal" font-weight="400" style="text-align: center; stroke-width: 2.57215; fill: rgb(0, 0, 0);" text-anchor="middle">HI</tspan>
        </text>
        <text id="AK_label" x="205.24" y="672.25" style="font-size: 19.2455px; stroke-width: 1.60379; display: none;">
          <tspan id="AK_tspan" x="205.24" y="672.25" fill="#000000" dy="0" font-family="Arial" font-size="24.06" font-style="normal" font-weight="400" style="text-align: center; stroke-width: 2.57215; fill: rgb(0, 0, 0);" text-anchor="middle">AK</tspan>
        </text>
        <text id="FL_label" x="1188.11" y="708.7" style="font-size: 19.2455px; stroke-width: 1.60379; display: none;">
          <tspan id="FL_tspan" x="1188.11" y="708.7" fill="#000000" dy="0" font-family="Arial" font-size="24.06" font-style="normal" font-weight="400" style="text-align: center; stroke-width: 2.57215; fill: rgb(0, 0, 0);" text-anchor="middle">FL</tspan>
        </text>
        <text id="NH_label" x="1306.05" y="167.79" stroke-width="1.1" font-size="13.25" style="display: none;">
          <tspan id="NH_tspan" x="1306.05" y="167.79" fill="#000000" stroke-width="1.1" dy="0" font-family="Arial" font-size="16.56" font-style="normal" font-weight="400" style="text-align: center; fill: rgb(0, 0, 0);" text-anchor="middle">NH</tspan>
        </text>
        <text id="MI_label" x="1019.65" y="246.58" style="font-size: 19.2455px; stroke-width: 1.60379; display: none;">
          <tspan id="MI_tspan" x="1019.65" y="246.58" fill="#000000" dy="0" font-family="Arial" font-size="24.06" font-style="normal" font-weight="400" style="text-align: center; stroke-width: 2.57215; fill: rgb(0, 0, 0);" text-anchor="middle">MI</tspan>
        </text>
        <text id="VT_label" x="1274.28" y="145.01" stroke-width="1.05" font-size="12.65" style="display: none;">
          <tspan id="VT_tspan" x="1274.28" y="145.01" fill="#000000" stroke-width="1.05" dy="0" font-family="Arial" font-size="15.81" font-style="normal" font-weight="400" style="text-align: center; fill: rgb(0, 0, 0);" text-anchor="middle">VT</tspan>
        </text>
        <text id="ME_label" x="1338.99" y="105.14" stroke-width="1.45" font-size="17.36" style="display: none;">
          <tspan id="ME_tspan" x="1338.99" y="105.14" fill="#000000" stroke-width="1.45" dy="0" font-family="Arial" font-size="21.7" font-style="normal" font-weight="400" style="text-align: center; fill: rgb(0, 0, 0);" text-anchor="middle">ME</tspan>
        </text>
        <text id="RI_label" x="1361.38" y="262.84" stroke-width="1.25" font-size="14.98" style="display: none;">
          <tspan id="RI_tspan" x="1361.38" y="262.84" fill="#000000" stroke-width="1.25" dy="0" font-family="Arial" font-size="18.72" font-style="normal" font-weight="400" style="text-align: center; fill: rgb(0, 0, 0);" text-anchor="middle">RI</tspan>
        </text>
        <text id="NY_label" x="1227.27" y="204.12" style="font-size: 19.2455px; stroke-width: 1.60379; display: none;">
          <tspan id="NY_tspan" x="1227.27" y="204.12" fill="#000000" dy="0" font-family="Arial" font-size="24.06" font-style="normal" font-weight="400" style="text-align: center; stroke-width: 2.57215; fill: rgb(0, 0, 0);" text-anchor="middle">NY</tspan>
        </text>
        <text id="PA_label" x="1187.28" y="284.69" style="font-size: 19.2455px; stroke-width: 1.60379; display: none;">
          <tspan id="PA_tspan" x="1187.28" y="284.69" fill="#000000" dy="0" font-family="Arial" font-size="24.06" font-style="normal" font-weight="400" style="text-align: center; stroke-width: 2.57215; fill: rgb(0, 0, 0);" text-anchor="middle">PA</tspan>
        </text>
        <text id="NJ_label" x="1330.57" y="290.09" stroke-width="1.28" font-size="15.4" style="display: none;">
          <tspan id="NJ_tspan" x="1330.57" y="290.09" fill="#000000" stroke-width="1.28" dy="0" font-family="Arial" font-size="19.25" font-style="normal" font-weight="400" style="text-align: center; fill: rgb(0, 0, 0);" text-anchor="middle">NJ</tspan>
        </text>
        <text id="DE_label" x="1320.8" y="328.42" stroke-width="1.36" font-size="16.38" style="display: none;">
          <tspan id="DE_tspan" x="1320.8" y="328.42" fill="#000000" stroke-width="1.36" dy="0" font-family="Arial" font-size="20.47" font-style="normal" font-weight="400" style="text-align: center; fill: rgb(0, 0, 0);" text-anchor="middle">DE</tspan>
        </text>
        <text id="MD_label" x="1310.72" y="368.46" stroke-width="1.34" font-size="16.11" style="display: none;">
          <tspan id="MD_tspan" x="1310.72" y="368.46" fill="#000000" stroke-width="1.34" dy="0" font-family="Arial" font-size="20.13" font-style="normal" font-weight="400" style="text-align: center; fill: rgb(0, 0, 0);" text-anchor="middle">MD</tspan>
        </text>
        <text id="VA_label" x="1198.59" y="392.33" style="font-size: 19.2455px; stroke-width: 1.60379; display: none;">
          <tspan id="VA_tspan" x="1198.59" y="392.33" fill="#000000" dy="0" font-family="Arial" font-size="24.06" font-style="normal" font-weight="400" style="text-align: center; stroke-width: 2.57215; fill: rgb(0, 0, 0);" text-anchor="middle">VA</tspan>
        </text>
        <text id="WV_label" x="1129.66" y="382.3" style="font-size: 19.2455px; stroke-width: 1.60379; display: none;">
          <tspan id="WV_tspan" x="1129.66" y="382.3" fill="#000000" dy="0" font-family="Arial" font-size="24.06" font-style="normal" font-weight="400" style="text-align: center; stroke-width: 2.57215; fill: rgb(0, 0, 0);" text-anchor="middle">WV</tspan>
        </text>
        <text id="OH_label" x="1079.05" y="334.46" style="font-size: 19.2455px; stroke-width: 1.60379; display: none;">
          <tspan id="OH_tspan" x="1079.05" y="334.46" fill="#000000" dy="0" font-family="Arial" font-size="24.06" font-style="normal" font-weight="400" style="text-align: center; stroke-width: 2.57215; fill: rgb(0, 0, 0);" text-anchor="middle">OH</tspan>
        </text>
        <text id="IN_label" x="998.79" y="352.94" style="font-size: 19.2455px; stroke-width: 1.60379; display: none;">
          <tspan id="IN_tspan" x="998.79" y="352.94" fill="#000000" dy="0" font-family="Arial" font-size="24.06" font-style="normal" font-weight="400" style="text-align: center; stroke-width: 2.57215; fill: rgb(0, 0, 0);" text-anchor="middle">IN</tspan>
        </text>
        <text id="IL_label" x="927.43" y="364.36" style="font-size: 19.2455px; stroke-width: 1.60379; display: none;">
          <tspan id="IL_tspan" x="927.43" y="364.36" fill="#000000" dy="0" font-family="Arial" font-size="24.06" font-style="normal" font-weight="400" style="text-align: center; stroke-width: 2.57215; fill: rgb(0, 0, 0);" text-anchor="middle">IL</tspan>
        </text>
        <text id="CT_label" x="1299.17" y="228.46" stroke-width="1.06" font-size="12.74" style="display: none;">
          <tspan id="CT_tspan" x="1299.17" y="228.46" fill="#000000" stroke-width="1.06" dy="0" font-family="Arial" font-size="15.93" font-style="normal" font-weight="400" style="text-align: center; fill: rgb(0, 0, 0);" text-anchor="middle">CT</tspan>
        </text>
        <text id="WI_label" x="898.6" y="224.7" style="font-size: 19.2455px; stroke-width: 1.60379; display: none;">
          <tspan id="WI_tspan" x="898.6" y="224.7" fill="#000000" dy="0" font-family="Arial" font-size="24.06" font-style="normal" font-weight="400" style="text-align: center; stroke-width: 2.57215; fill: rgb(0, 0, 0);" text-anchor="middle">WI</tspan>
        </text>
        <text id="NC_label" x="1205.6" y="458.72" style="font-size: 19.2455px; stroke-width: 1.60379; display: none;">
          <tspan id="NC_tspan" x="1205.6" y="458.72" fill="#000000" dy="0" font-family="Arial" font-size="24.06" font-style="normal" font-weight="400" style="text-align: center; stroke-width: 2.57215; fill: rgb(0, 0, 0);" text-anchor="middle">NC</tspan>
        </text>
        <text id="MA_label" x="1305.87" y="200.67" stroke-width="1.04" font-size="12.46" style="display: none;">
          <tspan id="MA_tspan" x="1305.87" y="200.67" fill="#000000" stroke-width="1.04" dy="0" font-family="Arial" font-size="15.58" font-style="normal" font-weight="400" style="text-align: center; fill: rgb(0, 0, 0);" text-anchor="middle">MA</tspan>
        </text>
        <text id="MO_label" x="854.22" y="422.93" style="font-size: 19.2455px; stroke-width: 1.60379; display: none;">
          <tspan id="MO_tspan" x="854.22" y="422.93" fill="#000000" dy="0" font-family="Arial" font-size="24.06" font-style="normal" font-weight="400" style="text-align: center; stroke-width: 2.57215; fill: rgb(0, 0, 0);" text-anchor="middle">MO</tspan>
        </text>
        <text id="GA_label" x="1106.89" y="574.56" style="font-size: 19.2455px; stroke-width: 1.60379; display: none;">
          <tspan id="GA_tspan" x="1106.89" y="574.56" fill="#000000" dy="0" font-family="Arial" font-size="24.06" font-style="normal" font-weight="400" style="text-align: center; stroke-width: 2.57215; fill: rgb(0, 0, 0);" text-anchor="middle">GA</tspan>
        </text>
        <text id="SC_label" x="1166.32" y="522.49" style="font-size: 19.2455px; stroke-width: 1.60379; display: none;">
          <tspan id="SC_tspan" x="1166.32" y="522.49" fill="#000000" dy="0" font-family="Arial" font-size="24.06" font-style="normal" font-weight="400" style="text-align: center; stroke-width: 2.57215; fill: rgb(0, 0, 0);" text-anchor="middle">SC</tspan>
        </text>
        <text id="KY_label" x="1039.99" y="426.39" style="font-size: 19.2455px; stroke-width: 1.60379; display: none;">
          <tspan id="KY_tspan" x="1039.99" y="426.39" fill="#000000" dy="0" font-family="Arial" font-size="24.06" font-style="normal" font-weight="400" style="text-align: center; stroke-width: 2.57215; fill: rgb(0, 0, 0);" text-anchor="middle">KY</tspan>
        </text>
        <text id="AL_label" x="1019.59" y="578.15" style="font-size: 19.2455px; stroke-width: 1.60379; display: none;">
          <tspan id="AL_tspan" fill="#000000" dy="0" font-family="Arial" font-size="24.06" font-style="normal" font-weight="400" style="text-align: center; stroke-width: 2.57215; fill: rgb(0, 0, 0);" text-anchor="middle">AL</tspan>
        </text>
        <text id="LA_label" x="872.7" y="649.59" style="font-size: 19.2455px; stroke-width: 1.60379; display: none;">
          <tspan id="LA_tspan" x="872.7" y="649.59" fill="#000000" dy="0" font-family="Arial" font-size="24.06" font-style="normal" font-weight="400" style="text-align: center; stroke-width: 2.57215; fill: rgb(0, 0, 0);" text-anchor="middle">LA</tspan>
        </text>
        <text id="MS_label" x="940.37" y="592.21" style="font-size: 19.2455px; stroke-width: 1.60379; display: none;">
          <tspan id="MS_tspan" x="940.37" y="592.21" fill="#000000" dy="0" font-family="Arial" font-size="24.06" font-style="normal" font-weight="400" style="text-align: center; stroke-width: 2.57215; fill: rgb(0, 0, 0);" text-anchor="middle">MS</tspan>
        </text>
        <text id="IA_label" x="823.33" y="308.44" style="font-size: 19.2455px; stroke-width: 1.60379; display: none;">
          <tspan id="IA_tspan" x="823.33" y="308.44" fill="#000000" dy="0" font-family="Arial" font-size="24.06" font-style="normal" font-weight="400" style="text-align: center; stroke-width: 2.57215; fill: rgb(0, 0, 0);" text-anchor="middle">IA</tspan>
        </text>
        <text id="MN_label" x="790.84" y="183.37" style="font-size: 19.2455px; stroke-width: 1.60379; display: none;">
          <tspan id="MN_tspan" x="790.84" y="183.37" fill="#000000" dy="0" font-family="Arial" font-size="24.06" font-style="normal" font-weight="400" style="text-align: center; stroke-width: 2.57215; fill: rgb(0, 0, 0);" text-anchor="middle">MN</tspan>
        </text>
        <text id="OK_label" x="732.05" y="519.54" style="font-size: 19.2455px; stroke-width: 1.60379; display: none;">
          <tspan id="OK_tspan" x="732.05" y="519.54" fill="#000000" dy="0" font-family="Arial" font-size="24.06" font-style="normal" font-weight="400" style="text-align: center; stroke-width: 2.57215; fill: rgb(0, 0, 0);" text-anchor="middle">OK</tspan>
        </text>
        <text id="TX_label" x="710.59" y="652.87" style="font-size: 19.2455px; stroke-width: 1.60379; display: none;">
          <tspan id="TX_tspan" x="710.59" y="652.87" fill="#000000" dy="0" font-family="Arial" font-size="24.06" font-style="normal" font-weight="400" style="text-align: center; stroke-width: 2.57215; fill: rgb(0, 0, 0);" text-anchor="middle">TX</tspan>
        </text>
        <text id="NM_label" x="506.94" y="542.36" style="font-size: 19.2455px; stroke-width: 1.60379; display: none;">
          <tspan id="NM_tspan" x="506.94" y="542.36" fill="#000000" dy="0" font-family="Arial" font-size="24.06" font-style="normal" font-weight="400" style="text-align: center; stroke-width: 2.57215; fill: rgb(0, 0, 0);" text-anchor="middle">NM</tspan>
        </text>
        <text id="KS_label" x="701.21" y="427.26" style="font-size: 19.2455px; stroke-width: 1.60379; display: none;">
          <tspan id="KS_tspan" x="701.21" y="427.26" fill="#000000" dy="0" font-family="Arial" font-size="24.06" font-style="normal" font-weight="400" style="text-align: center; stroke-width: 2.57215; fill: rgb(0, 0, 0);" text-anchor="middle">KS</tspan>
        </text>
        <text id="NE_label" x="686.63" y="337.29" style="font-size: 19.2455px; stroke-width: 1.60379; display: none;">
          <tspan id="NE_tspan" x="686.63" y="337.29" fill="#000000" dy="0" font-family="Arial" font-size="24.06" font-style="normal" font-weight="400" style="text-align: center; stroke-width: 2.57215; fill: rgb(0, 0, 0);" text-anchor="middle">NE</tspan>
        </text>
        <text id="SD_label" x="663.02" y="238.75" style="font-size: 19.2455px; stroke-width: 1.60379; display: none;">
          <tspan id="SD_tspan" x="663.02" y="238.75" fill="#000000" dy="0" font-family="Arial" font-size="24.06" font-style="normal" font-weight="400" style="text-align: center; stroke-width: 2.57215; fill: rgb(0, 0, 0);" text-anchor="middle">SD</tspan>
        </text>
        <text id="ND_label" x="663.02" y="150.75" style="font-size: 19.2455px; stroke-width: 1.60379; display: none;">
          <tspan id="ND_tspan" x="663.02" y="150.75" fill="#000000" dy="0" font-family="Arial" font-size="24.06" font-style="normal" font-weight="400" style="text-align: center; stroke-width: 2.57215; fill: rgb(0, 0, 0);" text-anchor="middle">ND</tspan>
        </text>
        <text id="WY_label" x="499.57" y="276.47" style="font-size: 19.2455px; stroke-width: 1.60379; display: none;">
          <tspan id="WY_tspan" x="499.57" y="276.47" fill="#000000" dy="0" font-family="Arial" font-size="24.06" font-style="normal" font-weight="400" style="text-align: center; stroke-width: 2.57215; fill: rgb(0, 0, 0);" text-anchor="middle">WY</tspan>
        </text>
        <text id="MT_label" x="487.84" y="155.58" style="font-size: 19.2455px; stroke-width: 1.60379; display: none;">
          <tspan id="MT_tspan" x="487.84" y="155.58" fill="#000000" dy="0" font-family="Arial" font-size="24.06" font-style="normal" font-weight="400" style="text-align: center; stroke-width: 2.57215; fill: rgb(0, 0, 0);" text-anchor="middle">MT</tspan>
        </text>
        <text id="CO_label" x="525.13" y="406.28" style="font-size: 19.2455px; stroke-width: 1.60379; display: none;">
          <tspan id="CO_tspan" x="525.13" y="406.28" fill="#000000" dy="0" font-family="Arial" font-size="24.06" font-style="normal" font-weight="400" style="text-align: center; stroke-width: 2.57215; fill: rgb(0, 0, 0);" text-anchor="middle">CO</tspan>
        </text>
        <text id="ID_label" x="339.94" y="235.07" style="font-size: 19.2455px; stroke-width: 1.60379; display: none;">
          <tspan id="ID_tspan" x="339.94" y="235.07" fill="#000000" dy="0" font-family="Arial" font-size="24.06" font-style="normal" font-weight="400" style="text-align: center; stroke-width: 2.57215; fill: rgb(0, 0, 0);" text-anchor="middle">ID</tspan>
        </text>
        <text id="UT_label" x="396.81" y="386.73" style="font-size: 19.2455px; stroke-width: 1.60379; display: none;">
          <tspan id="UT_tspan" x="396.81" y="386.73" fill="#000000" dy="0" font-family="Arial" font-size="24.06" font-style="normal" font-weight="400" style="text-align: center; stroke-width: 2.57215; fill: rgb(0, 0, 0);" text-anchor="middle">UT</tspan>
        </text>
        <text id="AZ_label" x="366.76" y="536.9" style="font-size: 19.2455px; stroke-width: 1.60379; display: none;">
          <tspan id="AZ_tspan" x="366.76" y="536.9" fill="#000000" dy="0" font-family="Arial" font-size="24.06" font-style="normal" font-weight="400" style="text-align: center; stroke-width: 2.57215; fill: rgb(0, 0, 0);" text-anchor="middle">AZ</tspan>
        </text>
        <text id="NV_label" x="262.47" y="370.64" style="font-size: 19.2455px; stroke-width: 1.60379; display: none;">
          <tspan id="NV_tspan" x="262.47" y="370.64" fill="#000000" dy="0" font-family="Arial" font-size="24.06" font-style="normal" font-weight="400" style="text-align: center; stroke-width: 2.57215; fill: rgb(0, 0, 0);" text-anchor="middle">NV</tspan>
        </text>
        <text id="OR_label" x="214.43" y="206.88" style="font-size: 19.2455px; stroke-width: 1.60379; display: none;">
          <tspan id="OR_tspan" x="214.43" y="206.88" fill="#000000" dy="0" font-family="Arial" font-size="24.06" font-style="normal" font-weight="400" style="text-align: center; stroke-width: 2.57215; fill: rgb(0, 0, 0);" text-anchor="middle">OR</tspan>
        </text>
        <text id="WA_label" x="238.05" y="102.99" style="font-size: 19.2455px; stroke-width: 1.60379; display: none;">
          <tspan id="WA_tspan" x="238.05" y="102.99" fill="#000000" dy="0" font-family="Arial" font-size="24.06" font-style="normal" font-weight="400" style="text-align: center; stroke-width: 2.57215; fill: rgb(0, 0, 0);" text-anchor="middle">WA</tspan>
        </text>
        <text id="CA_label" x="191.69" y="434.8" style="font-size: 19.2455px; stroke-width: 1.60379; display: none;">
          <tspan id="CA_tspan" x="191.69" y="434.8" fill="#000000" dy="0" font-family="Arial" font-size="24.06" font-style="normal" font-weight="400" style="text-align: center; stroke-width: 2.57215; fill: rgb(0, 0, 0);" text-anchor="middle">CA</tspan>
        </text>
        <text id="DC_label" x="1309.32" y="398.19" stroke-width="1.29" font-size="15.45" style="display: none;">
          <tspan id="DC_tspan" x="1309.32" y="398.19" fill="#000000" stroke-width="1.29" dy="0" font-family="Arial" font-size="19.31" font-style="normal" font-weight="400" style="text-align: center; fill: rgb(0, 0, 0);" text-anchor="middle">DC</tspan>
        </text>
        <text id="TN_label" x="1018.93" y="485.72" style="font-size: 19.2455px; stroke-width: 1.60379; display: none;">
          <tspan id="TN_tspan" x="1018.93" y="485.72" fill="#000000" dy="0" font-family="Arial" font-size="24.06" font-style="normal" font-weight="400" style="text-align: center; stroke-width: 2.57215; fill: rgb(0, 0, 0);" text-anchor="middle">TN</tspan>
        </text>
        <text id="AR_label" x="863.15" y="535.77" style="font-size: 19.2455px; stroke-width: 1.60379; display: none;">
          <tspan id="AR_tspan" x="863.15" y="535.77" fill="#000000" dy="0" font-family="Arial" font-size="24.06" font-style="normal" font-weight="400" style="text-align: center; stroke-width: 2.57215; fill: rgb(0, 0, 0);" text-anchor="middle">AR</tspan>
        </text>
      </g>
      <g id="state_borders" transform="translate(-0.04777967,-0.15336683)" stroke="rgb(209, 219, 221)" style="stroke: rgb(0, 0, 0);" stroke-width="0.3">
        <path id="IA_NE_border" d="m751.15 289.57 1.15.16.24.3.16.89-.67 1.15.14 1.1-.2.55.26.67.9.8.08.6.9.98.23.93-.76.5.23.65.07.87.9 1.04.74.26.3.4-.22 1.16.22.92 1.06.26-.26.74.23.56.33-.4.62-.02.14.94.65-.16.64.24-.28 1.1.07.7-.44.46.44.92.68.5.27 1.08.9.5.1.46-.37 1.14-.45.32.07.5.55.3.1.52-.95.27-.05.54.65.92-.4.77.13.85.63.4-.2.8.09.79.94.74.39-.04.18-1h.62l.2.87-.57.84.36.43.94.23.77-.06.3.39-.27.72-.02 1.04.17 1-.56.52.76.82 1.02.14.29.84-.7.54-.23-.2.12-.66-.5.1v.55l.37.3-.17.4.28.64-.28 1.35.4.34 1.04-.17.59.38-.72.26-.24.44.47 1.15.13.93-.33.6-.02.54.43.4-.13.97.17.38.73.42.13.33-.24 1.05.14.56.56.57.07.6-.8.66.3.9-.11 1.02.2.85-.76.59-.4.88.15.46.59.26.43.96 1.3.5.48.6.03.49.49.47-.32.77" stroke="rgb(209, 219, 221)" stroke-width="0.3" fill="none" style="stroke: rgb(0, 0, 0); display: none;"/>
        <path id="IA_MO_border" d="m769.93 349.15 5.7-.21 12.67-.51 8.52-.4 3.36-.2 9.68-.71 4.3-.42 4.93-.41 3.34-.35 6.8-.53 2.94-.3 4.6-.52 4.34-.4 15.59-1.77 3.5-.44 5.13-.73 1.14 1 .15.8 1.38.17.3 1.2.56.27.42.7.42.29h.84l-.07.57.37.28-.06.65.65.23.5.58.65.14.23-.36.56.2-.57.54" stroke="rgb(209, 219, 221)" stroke-width="0.3" fill="none" style="stroke: rgb(0, 0, 0); display: none;"/>
        <path id="IA_IL_border" d="m873.38 347.98.99-.55-.04-.83-.22-.53.23-1.58-.2-.87-.95-.88.05-.53.46-.52.62-1.18.94-.62 1.36-.55 1.42-.1 1.4-1.15.18-.9-.17-.9.39-1.77-.22-1 .12-.43.72-.83.2-.65.96-1.37.8-.62.13-1.08-.2-.66.2-.87-.02-.9-.28-1.18-.02-.76-1.2-1.77-.45-.27-.8.07-.68-1-1.25-1.2-.02-.28.69-1.72.07-2.15.26-.54v-.83l.42-.45 1.2-.44 1.1.28 1.59-1.15.46-.15 2.35-.07 1.86-.57 1.04-1.14.2-.56 1.2-.62.97.17.9-.28 1-1.44 1.53-.9-.2-1.85.09-1.06.4-.53-.14-1.23.74-1.14 1.22-.96.75-.4-.01-.95.18-1.41.25-1-.03-.76-.33-.41-.02-.52.3-.67.06-.71-.7-1.16-.2-1.04-.02-1.32-.94-.34-.25-.67-1-.48-.78-.16-1.13-.57-.67-.07-.86-.55-.74-.84-.35-.72.18-1.43-.75-.97-.86-.82-1.9-.81-.45-.77-1.3-.41-.74-.54.16-1" stroke="rgb(209, 219, 221)" stroke-width="0.3" fill="none" style="stroke: rgb(0, 0, 0); display: none;"/>
        <path id="IA_WI_border" d="m868.3 249.03.12.5-.31.8.12.47.66.74.2.77-.3.96.36.5.48.05 1.25.5.53.35 1.32 1.76-.4.87-.83.96-.67 1.9-.4.3.1 2.12.2.9.89 2.32v.73l.26 1.1 1.04.58.32 1.02v.6l.37.07.08.67.45 1.52.4.6 1.34.6.38.44.69.32.73-.03 1.64.49 3.1.43.44.27.49 1.2.65.69.74 1.48-.1.33" stroke="rgb(209, 219, 221)" stroke-width="0.3" fill="none" style="stroke: rgb(0, 0, 0); display: none;"/>
      </g>
      <rect id="selection-rectangle" fill="#ffffccaa" stroke="rgb(209, 219, 221)" stroke-width="0.1"/>
      <ellipse id="selection-ellipse" fill="#ffffccaa" stroke="rgb(209, 219, 221)" stroke-width="0.1"/>
      <polygon id="selection-polygon" fill="#ffffccaa" stroke="rgb(209, 219, 221)" stroke-width="0.1"/>
      <polyline id="selection-polyline" fill="#ffffccaa" stroke="rgb(209, 219, 221)" stroke-width="0.1"/>
    </svg>
  </g>
  <svg id="legend-svg" width="100%" height="100%" style="overflow:visible;" class="ui-draggable ui-draggable-handle" x="1328.321548461914" y="504">
    <g id="legend-g-svg" fill="#000" transform="translate(0,0) scale(1)" style="font-family: Helvetica; font-weight: 400; font-style: normal;">
      <rect id="legend-bg-rect-svg" x="0" y="0" rx="3.8" ry="3.8" width="190" height="20" fill="#000000" stroke="rgb(209, 219, 221)" fill-opacity="0" stroke-width="0.1"/>
    </g>
  </svg>
</svg>
