<?xml version='1.0' encoding='UTF-8'?>
<svg xmlns="http://www.w3.org/2000/svg" xmlns:dc="http://purl.org/dc/elements/1.1/" xmlns:ns2="http://creativecommons.org/ns#" xmlns:rdf="http://www.w3.org/1999/02/22-rdf-syntax-ns#" id="wrapper" viewBox="0 0 1520 840" preserveAspectRatio="xMinYMin" height="840" width="1520" style="background-color: rgb(255, 255, 255);">
  <metadata>
    <rdf:rdf>
      <ns2:work rdf:about="">
        <dc:format>image/svg+xml</dc:format>
        <dc:type rdf:resource="http://purl.org/dc/dcmitype/StillImage"/>
        <dc:title>MapChart Map</dc:title>
        <dc:creator>
          <ns2:agent>
            <dc:title>MapChart.net</dc:title>
          </ns2:agent>
        </dc:creator>
        <ns2:license rdf:resource="http://creativecommons.org/licenses/by-sa/4.0/"/>
        <dc:description>This map was created with MapChart.net, a website for creating custom maps.</dc:description>
      </ns2:work>
      <ns2:license rdf:about="http://creativecommons.org/licenses/by-sa/4.0/">
        <ns2:permits rdf:resource="http://creativecommons.org/ns#Reproduction"/>
        <ns2:permits rdf:resource="http://creativecommons.org/ns#Distribution"/>
        <ns2:requires rdf:resource="http://creativecommons.org/ns#Notice"/>
        <ns2:requires rdf:resource="http://creativecommons.org/ns#Attribution"/>
        <ns2:requires rdf:resource="http://creativecommons.org/ns#ShareAlike"/>
      </ns2:license>
    </rdf:rdf>
  </metadata>
  <g id="map-group" transform="translate(-4508.385638663187,-2663.056865668882) scale(7.400610716059297)">
    <svg id="map" width="1520" height="840" version="1.1" viewBox="0 0 1520 840" preserveAspectRatio="xMinYMin" data-originalStrokeWidth="0.3">
      <defs>
        <pattern id="circles3" width="10" height="10" patternUnits="userSpaceOnUse">    <rect width="10" height="10" fill="#fff"/>    <circle cx="4" cy="4" r="2" fill="#000"/>    </pattern>
        <pattern id="diagonal1" width="10" height="10" patternUnits="userSpaceOnUse">    <rect width="10" height="10" fill="#fff"/>    </pattern>
        <pattern id="diagonal3" width="10" height="10" patternUnits="userSpaceOnUse">    <rect width="10" height="10" fill="#fff"/>    </pattern>
        <pattern id="vertical1" width="10" height="10" patternUnits="userSpaceOnUse">    <rect width="10" height="10" fill="#fff"/>    <rect x="2" y="0" width="1" height="10" fill="#000"/>    </pattern>
        <pattern id="vertical3" width="10" height="10" patternUnits="userSpaceOnUse">    <rect width="10" height="10" fill="#fff"/>    <rect x="2" y="0" width="3" height="10" fill="#000"/>    </pattern>
        <pattern id="horizontal1" width="10" height="10" patternUnits="userSpaceOnUse">    <rect width="10" height="10" fill="#fff"/>    <rect x="0" y="2" width="10" height="1" fill="#000"/>    </pattern>
        <pattern id="horizontal3" width="10" height="10" patternUnits="userSpaceOnUse">    <rect width="10" height="10" fill="#fff"/>    <rect x="0" y="2" width="10" height="3" fill="#000"/>    </pattern>
        <pattern id="crosshatch" width="8" height="8" patternUnits="userSpaceOnUse">    <rect width="8" height="8" fill="#fff"/>    </pattern>
        <pattern id="subtlepatch" width="5" height="5" patternUnits="userSpaceOnUse">    <rect width="5" height="5" fill="#fff"/>    <rect x="2" y="2" width="1" height="1" fill="#000"/>    </pattern>
        <pattern id="checkers" width="8" height="8" patternUnits="userSpaceOnUse">    <rect width="8" height="8" fill="#fff"/>    </pattern>
        <pattern id="raindrops" width="10" height="10" patternUnits="userSpaceOnUse">    <rect width="10" height="10" fill="#fff"/>    </pattern>
        <pattern id="texture" width="4" height="4" patternUnits="userSpaceOnUse">    <rect width="4" height="4" fill="#fff"/>    </pattern>
        <pattern id="circles3_a03500_000000" width="10" height="10" patternUnits="userSpaceOnUse">    <rect width="10" height="10" fill="#a03500"/>    <circle cx="4" cy="4" r="2" fill="#000000"/>    </pattern>
        <pattern id="diagonal1_d9b400_535353" width="10" height="10" patternUnits="userSpaceOnUse">    <rect width="10" height="10" fill="#d9b400"/>    </pattern>
        <pattern id="diagonal3_3264c8_ffffff" width="10" height="10" patternUnits="userSpaceOnUse">    <rect width="10" height="10" fill="#3264c8"/>    </pattern>
        <pattern id="horizontal1_72b38e_000000" width="10" height="10" patternUnits="userSpaceOnUse">    <rect width="10" height="10" fill="#72b38e"/>    <rect x="0" y="2" width="10" height="1" fill="#000000"/>    </pattern>
        <pattern id="horizontal3_986ba1_ffffff" width="10" height="10" patternUnits="userSpaceOnUse">    <rect width="10" height="10" fill="#986ba1"/>    <rect x="0" y="2" width="10" height="3" fill="#ffffff"/>    </pattern>
        <pattern id="vertical1_b9a087_ffffff" width="10" height="10" patternUnits="userSpaceOnUse">    <rect width="10" height="10" fill="#b9a087"/>    <rect x="2" y="0" width="1" height="10" fill="#ffffff"/>    </pattern>
        <pattern id="vertical3_4c91bf_ffff33" width="10" height="10" patternUnits="userSpaceOnUse">    <rect width="10" height="10" fill="#4c91bf"/>    <rect x="2" y="0" width="3" height="10" fill="#ffff33"/>    </pattern>
        <pattern id="checkers_cc3333_f7f7f7" width="8" height="8" patternUnits="userSpaceOnUse">    <rect width="8" height="8" fill="#cc3333"/>    </pattern>
        <pattern id="texture_d1dbdd_525252" width="4" height="4" patternUnits="userSpaceOnUse">    <rect width="4" height="4" fill="#d1dbdd"/>    </pattern>
        <style id="map-style">svg { background-color: #ffffff; }</style>
      </defs>
      <path id="KS01" d="m619.93 428.09.03-1.82v-.57l.02-1.58.02-1.4v-1.19l.02-.83v-.26l.01-.41.02-1v-1.2l.02-.6v-1.52l.04-1.68v-.91l.04-2.65.02-1.31v-.5l.03-.85v-1.56l.06-3.98.02-3.84v-.86l.03-2.12v-1.88l.01-1.76.03-.07v-1.38l.02-1.36.02-1.5-.01-.18v-.92l.03-2.17.02-1.35v-.96l.01-.17v-.95l.02-1v-.36l.02-1 .03-3.95.02-1.02.02-2.25v-.01l.01-.79.76.02h.5l.62.02h1.72l.68.02.43.02h.77l.43.01.51.02 2.2.01 1.54.02h.06l1.97.02 1.8.01h1.16l.22.02 3.35.02 2.2.02h.79l2 .02h2.94l1.3.01h2.97l2.37.01h.56l1 .01h2.26l.47-.01h.29l.66.01 3.2-.02h1.8l4.06-.02 1.84-.01.87-.03h3.23l.9-.02h.45l.27-.02 5.03-.06h1.3l.46-.03.9-.01h.23l.27.01.66-.01 1.58-.02.54-.03h.79l.88-.02h.47l.66-.01.52-.01.59-.02h.9l.09-.01 2.15-.04.47-.01.9-.01.19-.01 1.52-.03.82-.02.43-.01h1.3l.72-.03.81-.03h.95l.66-.03.45-.02h.31l.87-.02.9-.02h.63l3.9-.1 3.16-.08.6-.03h.44l1.3-.04.29-.01h.47l.35-.02h.36l.9-.04 5.29-.14.38-.02.59-.01 3.03-.1 2.66-.08h.29l1.04-.06.9-.02 1.34-.05.45-.01.45-.02 1.27-.05.24.01 1.14-.06h.72l1.61-.08 1.33-.03.32-.02 1.03-.03 2.84-.13.28-.01 4.96-.2 1.19-.04.01.02 3.37-.17 2.7-.12 1.07-.04 1.58-.08.18 3.9.34 7.14.13 2.74 7.67-.36 4.84-.24 3.63 1.09.19 3.38 2.65-.22 5.51-.23 1.2-.08.07.45.18 3.24.2 3.9.12 1.6-.2.02.35 5.2-.3-.03-.06.1-.26-.02.24.22.46.18h.18v.24h-.23l.02.24-.35.01-.1.26-.97.04-.23.26h-.36l-.01-.13-.2.03-.02-.13-.23.03-.13-.2-.17.13-.4-.35-.45.02.15-.17.05-.3-.25.04.07-.48-.3.02v-.23l.25-.03-.06-.2-.2-.15-.01-.31.19-.02-.06-.92-.48-.08-.83-.42-.31-.38-.48-.2-.56-.04-.34.06-.58.37-.28.13-.16-.04-.2-.28-.35.01-.65-.06-.5.4-.3.08-.36-.3-.04-.3.06-.26-.07-1.52.13.02-.15-2.76-10.78.54.12 2.76h-.14l.03-.25-.1-.11h-.33l-.49-.26-.27-.05-.07-.19.18-.16.3.02.26.14.08-.1-.32-.59-.38-.43-.3.07-.21-.25-.14-.02-.2.41-.17.04-.68-.13-.53.14-.08-.44-.12-.12-.32.02-.17.22h-.38l-.36-.37-.3.26-.16.44-.26.35-.18.06-.25-.17-.28-.31h-.41l-.31.3-.12.68v.21l-.14-.11-.22.27-.3-.06.04-.48-.1-.05-.28.3h-.19l-.22-.25.05 1.36h-.03l.07 1.83.05.91-2.68.12-.03-.92-2.3.08-2.66.12-.03-.57-.31.01-.2.09-.2.3-.19-.07v-.18l-2.6.09v-.4l.23-.45.2-.17v-.62l-.44.03-.1-2.55-2.73.09.08 1.1.05 1.68h-.05l.1 2.49.1 2.82.56-.4.33-.07.12 3.43.9-.02.07 1.85-.9.02.14 3.69h-.08l.03.57-.06.72.1.17.05 1.3-2.73.11-2.64.09-3.83.16-1.56.04.27 7.38.01.92.2 5.52-5.86.2-2.23.07.36 11.07h.04l.13 2.86-.25.03-3.8.14-.92.02-6.72.23-2.27.06-4.04.1-.9.01-.07-2.92-.18.01-.06-2.86-.06-1.75-.11-4.83-.03-.8-.07-3.6-2.01.01-4.04.1-7.42.15.03.72-1.58 1.7-.43.06v.07l-.65.02v.23l-2.9.05h-2.46l-2.24.03-3.13.06.02 2.3.07 6v2.78h.27l.05 2.97.08 3.23.16 7.12-.02.8h.31v2.42l.07 3.45.07 2.42.06 3.81-.4.02-.03-.02-1.8.03-3.58-.02-.8.01-.74.01h-.04l-3.5.01h-.36l-2.86.01-.9.02h-2.65l-1.56.02h-.74l-.82.02h-1.33l-1.62.03h-1.41l-.31.02h-1.9l-.88.02h-.47l-1.02.02-.76-.01h-1.24l-.57.02h-1.34l-.32-.01-2.28.01h-.12l-2.9.02h-8.06l-1.11-.01h-.69l-2.85-.01-6.78-.03-.03-.01h-.04l-3.49-.02v-.2l.01-.93.02-.59.03-1.83.01-1.03.01-.13v-.46l.01-.94.02-.45v-.7l-.01-.12.03-1.04v-1.16l.03-1.83.03-.96.02-.88v-1.47l.02-.9.02-1.6.04-2.3.02-1.48.01-1.05.01-1.15v-.78l.02-.06-.02-1.49.02-1.53.01-.95.01-1.68.01-1.8.03-1.43v-.49l.04-3.06.01-.55.02-.9" fill="#d1dbdd" stroke="rgb(209, 219, 221)" stroke-width="0.1" data-originalStrokeWidth="0.1" style="stroke: rgb(0, 0, 0); fill: rgb(209, 219, 221); pointer-events: auto; stroke-width: 0.1;" pointer-events="auto"/>
      <path id="KS02" d="m734.48 427.32-.2-5.52-.02-.92-.27-7.38 1.57-.04 3.83-.16 2.64-.09 2.73-.11-.05-1.3-.1-.17.06-.72-.03-.57h.08l-.15-3.69.9-.02-.07-1.85-.89.03-.12-3.43-.32.07-.55.39-.11-2.82-.1-2.48h.04l-.05-1.69-.08-1.1 2.72-.09.1 2.55.45-.03v.62l-.19.17-.24.46v.39l2.61-.08.01.19.19.05.17-.3.22-.09.31-.01.03.57 2.66-.11 2.3-.08.03.92 2.68-.12-.05-.91-.07-1.83h.03l-.05-1.36.23.24.18.01.27-.3.11.04-.02.48.29.08.21-.28.13.11v-.22l.13-.66.3-.31h.42l.28.3.25.19.18-.07.27-.35.15-.44.3-.25.37.36h.38l.16-.22.32-.02.12.12.08.44.53-.14.68.13.18-.04.2-.4h.13l.2.26.31-.07.38.43.32.6-.08.09-.26-.14-.31-.02-.17.15.07.2.27.05.49.27.33-.01.1.1-.03.28.14-.03-.12-2.75 10.78-.54.15 2.76-.13-.02.07 1.53-.06.26.04.28.36.3.3-.07.5-.4.64.05.35-.01.21.3.16.03.28-.13.58-.37.34-.06.57.04.47.2.3.38.83.42.48.08.07.92-.2.02.02.31.2.14.06.21-.26.03.01.23.29-.02-.07.48.26-.03-.05.3-.15.16.44-.02.4.35.2-.14.1.2.24-.02.01.13.2-.03.02.13h.36l.23-.26.97-.04.1-.26.35-.01-.02-.23.22-.01.01-.23-.2-.01-.44-.17-.24-.23.26.02.05-.1.31.03-.35-5.21.19-.01-.11-1.62-.2-3.9-.18-3.22-.06-.45-1.22.08-5.5.23-2.65.22-.2-3.38-3.62-1.09-4.84.24-7.67.36-.13-2.74-.34-7.13-.18-3.9 2.02-.1v.01l8.52-.42 4.84-.26 3.16-.16.2-.02 3.07-.15.43-.04v.2l.2.3.72.38.55.68.23.1.5-.02.37.13.14.44-.1.45.06.19.25.14.1.01.24-.01.45-.23.24.01.16.11.05.51.15.24.2.1.44.1.64.26.25-.02.94-.2.18-.2.03-.62.12-.2.32-.12.19.04.15.06.32-.03.53-.15.49.2.2.24-.05.4-.23.27.05.41.58.49.26.05.35-.05.19.08.14.17.05.1.04.3-.02.32-.15.3-.22.1-.5.07h-.11l-.2.05-.08.05-.06.09-.03.1-.01.09.02.12.02.07.22.2.35.2.32-.08.14-.13.24-.2.24-.07h.05l.12.07.1.23.03.13.05.17-.03.14-.02.06v.08l-.12.29-.18.19-.55.22h-.1l-.24-.05-.74-.5-.3-.04-.19.14-.05.09-.12.41.1.59.02.33-.05.3-.22.29-.4.1-.48.14-.14.14-.16.27-.13.25-.03.1-.12.18-.17.46-.04.28.1.3.15.47-.2.53-.37.16-.49-.12-.16.06-.19.19-.1.43-.02.12.02.14.14.38.17.25.23.22.4.33.44.2.22.27.1.53.1.29.28.32.3.15.35.11.43.14.2.17.27.58.2.15.24.07.22.26.01.3.13.2.12.08.43.02.08-.05.42-.25h.13l.18.1.1.18.06.13-.11.42-.37.2-.16.18-.05.23v.12l.05.19.04.28.02.2.07.28.05.2.15.3.1.13.17.17.12.13.07.06.2.07.1.04.28.12.3.16.07.05.12.13.29.39.04.43-.17.4.04.2.3.22.33.08.6-.05.14.1.18.38.04.04.2.3.27.2.4.1.52-.06.59-.45.34-.02.22.07.1.1.06.09-.03.36.28.27.38-.03.46-.22.32-.01.35.25-.02.46-.33.45-.04.35v.08l.04.16.02.48-.3.43-.27.11-.36-.02-.2-.28-.64-.44-.48-.1-.23.34-.57-.19-.18-.17-.69.08-.02.1-1.14.07v-.14l-.46.04-.05-.1-.29.03-.12-.22-1.33.09.23 3.94-.23.26-.07-.07.11-.29-.2-.23-.19.05-.2.37-.17.2-.38.09-.4-.3-.77-.22-.24.03-.1.25.07.13-.08.3-.26.16-.44-.22.14 2.18.31 5.55-6.75.39-4.03.22.06 1.38h-.19l.05 1.15.07 1.03.42 7.5.25 4.14-.23.02.06 1.52.27 5.48 3.6-.2.55-.01 3.51-.2 1.8-.1 1.36-.07-.12-2.47-.13-2.41-.1-2.13h.25l-.1-1.63-.07-.76-.1-1.79 3.03-.16 3.26-.2 1.4-.08 3.36-.2.05.57v.27l.06.83.09 1.4.09 1.1.07 1.16.14 2.98.26 3.93.1 2.12.07.94v.45l.06.62.01.65v.11l.03.2.1 1.88.15 2.76.02.19.04.68.1 1.25.04.6.06.98.03.66.03.08.01.36.05.5.03.68.05.72.02.45.05.67-.01.1.05.63.03.63.08 1.33.08 1.18.06.95.1 1.7v.18l.07.82.05.97.03.38.05.81.03.44.04.51.04.87.03.24.1 1.44v.07l.06 1.02-.33.01-1.25.08-.25.02-.49.03h-.05l-.68.06-.3.01-1.95.12-.33.01-1.5.1-.67.03-2.56.14h-.01l-1.27.08-.26.01-2.16.13-6.83.4-1.43.07-1.83.1-3.58.18-.67.05-5.1.26-.16-3.08-.13-2.93-.08-1.62-.24-4.65.07-.02-.12-1.87-.09-1.78-.05-1.62-.17-4.37-.13-1.87-.12-2.28h.09l-.1-1.43-.12-2.58-.23-4.3-.07-1.84-.07-.94-1.74.08-3.54.15-2 .07-2.48.12.11 2.76-3.3.13-3.17.15-.54.01-4.08.2-3 .11-2.4.08-3 .07-.1-2.3-.02-.46-2.69.09-2.66.13" fill="#d1dbdd" stroke="rgb(209, 219, 221)" stroke-width="0.1" data-originalStrokeWidth="0.1" style="stroke: rgb(0, 0, 0); fill: rgb(209, 219, 221); pointer-events: auto; stroke-width: 0.1;" pointer-events="auto"/>
      <path id="KS03" d="m800.33 394.93.03.54.02.09.09 1.78.02.19.03.7v.22l.02.15.02.34.02.2.05.88.02.14.03.52.06.78.02.44.03.48.07.91.3 6.06-.02.02.04.43.03.6.07 1.15.14 2.61.03.6.16 2.4-3.35.2-1.4.08-3.27.2-3.03.16.1 1.78.08.77.09 1.62-.26.01.1 2.13.14 2.41.12 2.48-1.36.07-1.8.1-3.51.19h-.54l-3.61.21-.27-5.47-.06-1.53.23-.02-.25-4.14-.42-7.5-.07-1.02-.04-1.16h.18l-.06-1.38 4.03-.22 6.74-.39-.3-5.55-.14-2.18.44.22.25-.16.08-.3-.06-.13.1-.25.25-.03.77.21.39.3.38-.08.18-.2.2-.37.18-.05.2.22-.11.3.07.07.23-.26-.23-3.94 1.33-.09.12.22.29-.04.05.11.45-.04.01.14 1.14-.06.02-.1.7-.09.17.18.57.18.23-.34.48.09.65.44.2.3.36.01.28-.1.28-.44" fill="#d1dbdd" stroke="rgb(209, 219, 221)" stroke-width="0.1" data-originalStrokeWidth="0.1" style="stroke: rgb(0, 0, 0); fill: rgb(209, 219, 221); pointer-events: auto; stroke-width: 0.1;" pointer-events="auto"/>
      <path id="KS04" d="m734.48 427.32 2.66-.13 2.7-.09v.45l.12 2.3 2.98-.06 2.42-.07 3-.12 4.07-.2h.54l3.17-.16 3.3-.12-.1-2.76 2.46-.13 2-.07 3.55-.15 1.74-.08.07.94.07 1.83.23 4.31.13 2.58.09 1.42h-.09l.12 2.3.13 1.86.17 4.37.05 1.62.1 1.78.11 1.87-.07.02.24 4.66.08 1.62.13 2.92.16 3.08h-.2l-.7.06-1.18.06-1.92.08-3.7.18h-.28l-6.7.33-1.73.07-1.28.05-.93.02-.95.05-1.1.04-1.14.05-.33.01-1.73.09h-.57l-.97.05h-.47l-1.04.06-1.35.06-.73.01-5.3.22-.85.02-.85.02-1.36.05-1.12.05-.43.02h-.39l-.7.03-.6.02-.33.01h-.7l-.04.03h-.3l-.49.02-1 .03-.13-.01-1.7.05.01.02-9.04.26-.92.04-.67.03-1 .03-1.04.02-2.9.06-1.84.02-.2.01-4.02.09-1.64.01-.62.01-1.37.04-1.14.01-.65.02h-.29l-1.49.02-.9.02-1.32.02-.5.02-.64.02-2.62.03-3.46.04-1.65.01-.53.03-1.22.01-.7.01-.6.01h-.83l-.06-3.8-.07-2.42-.06-3.45v-2.42h-.32v-.8l-.14-7.12-.08-3.23-.05-2.97h-.26v-2.77l-.08-6-.02-2.32 3.13-.06 2.24-.01 2.46-.02 2.9-.05v-.22l.66-.02v-.07l.42-.07 1.58-1.7-.03-.71 7.42-.14 4.04-.1 2.01-.02.07 3.6.03.8.11 4.83.06 1.74.06 2.87h.19l.06 2.91h.9l4.04-.11 2.27-.06 6.72-.24.93-.01 3.79-.14.25-.02-.13-2.87h-.05l-.35-11.07 2.23-.08 5.86-.2" fill="#d1dbdd" stroke="rgb(209, 219, 221)" stroke-width="0.1" data-originalStrokeWidth="0.1" style="stroke: rgb(0, 0, 0); fill: rgb(209, 219, 221); pointer-events: auto; stroke-width: 0.1;" pointer-events="auto"/>
      <g id="state_lines" stroke="rgb(209, 219, 221)" style="display: none; stroke: rgb(0, 0, 0);" stroke-width="0.1"/>
      <g id="state_abbr" fill="#000000" style="display: none; fill: rgb(0, 0, 0);">
        <text id="HI_label" x="491.79" y="769.82" style="font-size: 19.2455px; stroke-width: 1.60379; display: none;">
          <tspan id="HI_tspan" x="491.79" y="769.82" fill="#000000" dy="0" font-family="Arial" font-size="24.06" font-style="normal" font-weight="400" style="text-align: center; stroke-width: 2.57215; fill: rgb(0, 0, 0);" text-anchor="middle">HI</tspan>
        </text>
        <text id="AK_label" x="205.24" y="672.25" style="font-size: 19.2455px; stroke-width: 1.60379; display: none;">
          <tspan id="AK_tspan" x="205.24" y="672.25" fill="#000000" dy="0" font-family="Arial" font-size="24.06" font-style="normal" font-weight="400" style="text-align: center; stroke-width: 2.57215; fill: rgb(0, 0, 0);" text-anchor="middle">AK</tspan>
        </text>
        <text id="FL_label" x="1188.11" y="708.7" style="font-size: 19.2455px; stroke-width: 1.60379; display: none;">
          <tspan id="FL_tspan" x="1188.11" y="708.7" fill="#000000" dy="0" font-family="Arial" font-size="24.06" font-style="normal" font-weight="400" style="text-align: center; stroke-width: 2.57215; fill: rgb(0, 0, 0);" text-anchor="middle">FL</tspan>
        </text>
        <text id="NH_label" x="1306.05" y="167.79" stroke-width="1.1" font-size="13.25" style="display: none;">
          <tspan id="NH_tspan" x="1306.05" y="167.79" fill="#000000" stroke-width="1.1" dy="0" font-family="Arial" font-size="16.56" font-style="normal" font-weight="400" style="text-align: center; fill: rgb(0, 0, 0);" text-anchor="middle">NH</tspan>
        </text>
        <text id="MI_label" x="1019.65" y="246.58" style="font-size: 19.2455px; stroke-width: 1.60379; display: none;">
          <tspan id="MI_tspan" x="1019.65" y="246.58" fill="#000000" dy="0" font-family="Arial" font-size="24.06" font-style="normal" font-weight="400" style="text-align: center; stroke-width: 2.57215; fill: rgb(0, 0, 0);" text-anchor="middle">MI</tspan>
        </text>
        <text id="VT_label" x="1274.28" y="145.01" stroke-width="1.05" font-size="12.65" style="display: none;">
          <tspan id="VT_tspan" x="1274.28" y="145.01" fill="#000000" stroke-width="1.05" dy="0" font-family="Arial" font-size="15.81" font-style="normal" font-weight="400" style="text-align: center; fill: rgb(0, 0, 0);" text-anchor="middle">VT</tspan>
        </text>
        <text id="ME_label" x="1338.99" y="105.14" stroke-width="1.45" font-size="17.36" style="display: none;">
          <tspan id="ME_tspan" x="1338.99" y="105.14" fill="#000000" stroke-width="1.45" dy="0" font-family="Arial" font-size="21.7" font-style="normal" font-weight="400" style="text-align: center; fill: rgb(0, 0, 0);" text-anchor="middle">ME</tspan>
        </text>
        <text id="RI_label" x="1361.38" y="262.84" stroke-width="1.25" font-size="14.98" style="display: none;">
          <tspan id="RI_tspan" x="1361.38" y="262.84" fill="#000000" stroke-width="1.25" dy="0" font-family="Arial" font-size="18.72" font-style="normal" font-weight="400" style="text-align: center; fill: rgb(0, 0, 0);" text-anchor="middle">RI</tspan>
        </text>
        <text id="NY_label" x="1227.27" y="204.12" style="font-size: 19.2455px; stroke-width: 1.60379; display: none;">
          <tspan id="NY_tspan" x="1227.27" y="204.12" fill="#000000" dy="0" font-family="Arial" font-size="24.06" font-style="normal" font-weight="400" style="text-align: center; stroke-width: 2.57215; fill: rgb(0, 0, 0);" text-anchor="middle">NY</tspan>
        </text>
        <text id="PA_label" x="1187.28" y="284.69" style="font-size: 19.2455px; stroke-width: 1.60379; display: none;">
          <tspan id="PA_tspan" x="1187.28" y="284.69" fill="#000000" dy="0" font-family="Arial" font-size="24.06" font-style="normal" font-weight="400" style="text-align: center; stroke-width: 2.57215; fill: rgb(0, 0, 0);" text-anchor="middle">PA</tspan>
        </text>
        <text id="NJ_label" x="1330.57" y="290.09" stroke-width="1.28" font-size="15.4" style="display: none;">
          <tspan id="NJ_tspan" x="1330.57" y="290.09" fill="#000000" stroke-width="1.28" dy="0" font-family="Arial" font-size="19.25" font-style="normal" font-weight="400" style="text-align: center; fill: rgb(0, 0, 0);" text-anchor="middle">NJ</tspan>
        </text>
        <text id="DE_label" x="1320.8" y="328.42" stroke-width="1.36" font-size="16.38" style="display: none;">
          <tspan id="DE_tspan" x="1320.8" y="328.42" fill="#000000" stroke-width="1.36" dy="0" font-family="Arial" font-size="20.47" font-style="normal" font-weight="400" style="text-align: center; fill: rgb(0, 0, 0);" text-anchor="middle">DE</tspan>
        </text>
        <text id="MD_label" x="1310.72" y="368.46" stroke-width="1.34" font-size="16.11" style="display: none;">
          <tspan id="MD_tspan" x="1310.72" y="368.46" fill="#000000" stroke-width="1.34" dy="0" font-family="Arial" font-size="20.13" font-style="normal" font-weight="400" style="text-align: center; fill: rgb(0, 0, 0);" text-anchor="middle">MD</tspan>
        </text>
        <text id="VA_label" x="1198.59" y="392.33" style="font-size: 19.2455px; stroke-width: 1.60379; display: none;">
          <tspan id="VA_tspan" x="1198.59" y="392.33" fill="#000000" dy="0" font-family="Arial" font-size="24.06" font-style="normal" font-weight="400" style="text-align: center; stroke-width: 2.57215; fill: rgb(0, 0, 0);" text-anchor="middle">VA</tspan>
        </text>
        <text id="WV_label" x="1129.66" y="382.3" style="font-size: 19.2455px; stroke-width: 1.60379; display: none;">
          <tspan id="WV_tspan" x="1129.66" y="382.3" fill="#000000" dy="0" font-family="Arial" font-size="24.06" font-style="normal" font-weight="400" style="text-align: center; stroke-width: 2.57215; fill: rgb(0, 0, 0);" text-anchor="middle">WV</tspan>
        </text>
        <text id="OH_label" x="1079.05" y="334.46" style="font-size: 19.2455px; stroke-width: 1.60379; display: none;">
          <tspan id="OH_tspan" x="1079.05" y="334.46" fill="#000000" dy="0" font-family="Arial" font-size="24.06" font-style="normal" font-weight="400" style="text-align: center; stroke-width: 2.57215; fill: rgb(0, 0, 0);" text-anchor="middle">OH</tspan>
        </text>
        <text id="IN_label" x="998.79" y="352.94" style="font-size: 19.2455px; stroke-width: 1.60379; display: none;">
          <tspan id="IN_tspan" x="998.79" y="352.94" fill="#000000" dy="0" font-family="Arial" font-size="24.06" font-style="normal" font-weight="400" style="text-align: center; stroke-width: 2.57215; fill: rgb(0, 0, 0);" text-anchor="middle">IN</tspan>
        </text>
        <text id="IL_label" x="927.43" y="364.36" style="font-size: 19.2455px; stroke-width: 1.60379; display: none;">
          <tspan id="IL_tspan" x="927.43" y="364.36" fill="#000000" dy="0" font-family="Arial" font-size="24.06" font-style="normal" font-weight="400" style="text-align: center; stroke-width: 2.57215; fill: rgb(0, 0, 0);" text-anchor="middle">IL</tspan>
        </text>
        <text id="CT_label" x="1299.17" y="228.46" stroke-width="1.06" font-size="12.74" style="display: none;">
          <tspan id="CT_tspan" x="1299.17" y="228.46" fill="#000000" stroke-width="1.06" dy="0" font-family="Arial" font-size="15.93" font-style="normal" font-weight="400" style="text-align: center; fill: rgb(0, 0, 0);" text-anchor="middle">CT</tspan>
        </text>
        <text id="WI_label" x="898.6" y="224.7" style="font-size: 19.2455px; stroke-width: 1.60379; display: none;">
          <tspan id="WI_tspan" x="898.6" y="224.7" fill="#000000" dy="0" font-family="Arial" font-size="24.06" font-style="normal" font-weight="400" style="text-align: center; stroke-width: 2.57215; fill: rgb(0, 0, 0);" text-anchor="middle">WI</tspan>
        </text>
        <text id="NC_label" x="1205.6" y="458.72" style="font-size: 19.2455px; stroke-width: 1.60379; display: none;">
          <tspan id="NC_tspan" x="1205.6" y="458.72" fill="#000000" dy="0" font-family="Arial" font-size="24.06" font-style="normal" font-weight="400" style="text-align: center; stroke-width: 2.57215; fill: rgb(0, 0, 0);" text-anchor="middle">NC</tspan>
        </text>
        <text id="MA_label" x="1305.87" y="200.67" stroke-width="1.04" font-size="12.46" style="display: none;">
          <tspan id="MA_tspan" x="1305.87" y="200.67" fill="#000000" stroke-width="1.04" dy="0" font-family="Arial" font-size="15.58" font-style="normal" font-weight="400" style="text-align: center; fill: rgb(0, 0, 0);" text-anchor="middle">MA</tspan>
        </text>
        <text id="MO_label" x="854.22" y="422.93" style="font-size: 19.2455px; stroke-width: 1.60379; display: none;">
          <tspan id="MO_tspan" x="854.22" y="422.93" fill="#000000" dy="0" font-family="Arial" font-size="24.06" font-style="normal" font-weight="400" style="text-align: center; stroke-width: 2.57215; fill: rgb(0, 0, 0);" text-anchor="middle">MO</tspan>
        </text>
        <text id="GA_label" x="1106.89" y="574.56" style="font-size: 19.2455px; stroke-width: 1.60379; display: none;">
          <tspan id="GA_tspan" x="1106.89" y="574.56" fill="#000000" dy="0" font-family="Arial" font-size="24.06" font-style="normal" font-weight="400" style="text-align: center; stroke-width: 2.57215; fill: rgb(0, 0, 0);" text-anchor="middle">GA</tspan>
        </text>
        <text id="SC_label" x="1166.32" y="522.49" style="font-size: 19.2455px; stroke-width: 1.60379; display: none;">
          <tspan id="SC_tspan" x="1166.32" y="522.49" fill="#000000" dy="0" font-family="Arial" font-size="24.06" font-style="normal" font-weight="400" style="text-align: center; stroke-width: 2.57215; fill: rgb(0, 0, 0);" text-anchor="middle">SC</tspan>
        </text>
        <text id="KY_label" x="1039.99" y="426.39" style="font-size: 19.2455px; stroke-width: 1.60379; display: none;">
          <tspan id="KY_tspan" x="1039.99" y="426.39" fill="#000000" dy="0" font-family="Arial" font-size="24.06" font-style="normal" font-weight="400" style="text-align: center; stroke-width: 2.57215; fill: rgb(0, 0, 0);" text-anchor="middle">KY</tspan>
        </text>
        <text id="AL_label" x="1019.59" y="578.15" style="font-size: 19.2455px; stroke-width: 1.60379; display: none;">
          <tspan id="AL_tspan" fill="#000000" dy="0" font-family="Arial" font-size="24.06" font-style="normal" font-weight="400" style="text-align: center; stroke-width: 2.57215; fill: rgb(0, 0, 0);" text-anchor="middle">AL</tspan>
        </text>
        <text id="LA_label" x="872.7" y="649.59" style="font-size: 19.2455px; stroke-width: 1.60379; display: none;">
          <tspan id="LA_tspan" x="872.7" y="649.59" fill="#000000" dy="0" font-family="Arial" font-size="24.06" font-style="normal" font-weight="400" style="text-align: center; stroke-width: 2.57215; fill: rgb(0, 0, 0);" text-anchor="middle">LA</tspan>
        </text>
        <text id="MS_label" x="940.37" y="592.21" style="font-size: 19.2455px; stroke-width: 1.60379; display: none;">
          <tspan id="MS_tspan" x="940.37" y="592.21" fill="#000000" dy="0" font-family="Arial" font-size="24.06" font-style="normal" font-weight="400" style="text-align: center; stroke-width: 2.57215; fill: rgb(0, 0, 0);" text-anchor="middle">MS</tspan>
        </text>
        <text id="IA_label" x="823.33" y="308.44" style="font-size: 19.2455px; stroke-width: 1.60379; display: none;">
          <tspan id="IA_tspan" x="823.33" y="308.44" fill="#000000" dy="0" font-family="Arial" font-size="24.06" font-style="normal" font-weight="400" style="text-align: center; stroke-width: 2.57215; fill: rgb(0, 0, 0);" text-anchor="middle">IA</tspan>
        </text>
        <text id="MN_label" x="790.84" y="183.37" style="font-size: 19.2455px; stroke-width: 1.60379; display: none;">
          <tspan id="MN_tspan" x="790.84" y="183.37" fill="#000000" dy="0" font-family="Arial" font-size="24.06" font-style="normal" font-weight="400" style="text-align: center; stroke-width: 2.57215; fill: rgb(0, 0, 0);" text-anchor="middle">MN</tspan>
        </text>
        <text id="OK_label" x="732.05" y="519.54" style="font-size: 19.2455px; stroke-width: 1.60379; display: none;">
          <tspan id="OK_tspan" x="732.05" y="519.54" fill="#000000" dy="0" font-family="Arial" font-size="24.06" font-style="normal" font-weight="400" style="text-align: center; stroke-width: 2.57215; fill: rgb(0, 0, 0);" text-anchor="middle">OK</tspan>
        </text>
        <text id="TX_label" x="710.59" y="652.87" style="font-size: 19.2455px; stroke-width: 1.60379; display: none;">
          <tspan id="TX_tspan" x="710.59" y="652.87" fill="#000000" dy="0" font-family="Arial" font-size="24.06" font-style="normal" font-weight="400" style="text-align: center; stroke-width: 2.57215; fill: rgb(0, 0, 0);" text-anchor="middle">TX</tspan>
        </text>
        <text id="NM_label" x="506.94" y="542.36" style="font-size: 19.2455px; stroke-width: 1.60379; display: none;">
          <tspan id="NM_tspan" x="506.94" y="542.36" fill="#000000" dy="0" font-family="Arial" font-size="24.06" font-style="normal" font-weight="400" style="text-align: center; stroke-width: 2.57215; fill: rgb(0, 0, 0);" text-anchor="middle">NM</tspan>
        </text>
        <text id="KS_label" x="701.21" y="427.26" style="font-size: 19.2455px; stroke-width: 1.60379; display: none;">
          <tspan id="KS_tspan" x="701.21" y="427.26" fill="#000000" dy="0" font-family="Arial" font-size="24.06" font-style="normal" font-weight="400" style="text-align: center; stroke-width: 2.57215; fill: rgb(0, 0, 0);" text-anchor="middle">KS</tspan>
        </text>
        <text id="NE_label" x="686.63" y="337.29" style="font-size: 19.2455px; stroke-width: 1.60379; display: none;">
          <tspan id="NE_tspan" x="686.63" y="337.29" fill="#000000" dy="0" font-family="Arial" font-size="24.06" font-style="normal" font-weight="400" style="text-align: center; stroke-width: 2.57215; fill: rgb(0, 0, 0);" text-anchor="middle">NE</tspan>
        </text>
        <text id="SD_label" x="663.02" y="238.75" style="font-size: 19.2455px; stroke-width: 1.60379; display: none;">
          <tspan id="SD_tspan" x="663.02" y="238.75" fill="#000000" dy="0" font-family="Arial" font-size="24.06" font-style="normal" font-weight="400" style="text-align: center; stroke-width: 2.57215; fill: rgb(0, 0, 0);" text-anchor="middle">SD</tspan>
        </text>
        <text id="ND_label" x="663.02" y="150.75" style="font-size: 19.2455px; stroke-width: 1.60379; display: none;">
          <tspan id="ND_tspan" x="663.02" y="150.75" fill="#000000" dy="0" font-family="Arial" font-size="24.06" font-style="normal" font-weight="400" style="text-align: center; stroke-width: 2.57215; fill: rgb(0, 0, 0);" text-anchor="middle">ND</tspan>
        </text>
        <text id="WY_label" x="499.57" y="276.47" style="font-size: 19.2455px; stroke-width: 1.60379; display: none;">
          <tspan id="WY_tspan" x="499.57" y="276.47" fill="#000000" dy="0" font-family="Arial" font-size="24.06" font-style="normal" font-weight="400" style="text-align: center; stroke-width: 2.57215; fill: rgb(0, 0, 0);" text-anchor="middle">WY</tspan>
        </text>
        <text id="MT_label" x="487.84" y="155.58" style="font-size: 19.2455px; stroke-width: 1.60379; display: none;">
          <tspan id="MT_tspan" x="487.84" y="155.58" fill="#000000" dy="0" font-family="Arial" font-size="24.06" font-style="normal" font-weight="400" style="text-align: center; stroke-width: 2.57215; fill: rgb(0, 0, 0);" text-anchor="middle">MT</tspan>
        </text>
        <text id="CO_label" x="525.13" y="406.28" style="font-size: 19.2455px; stroke-width: 1.60379; display: none;">
          <tspan id="CO_tspan" x="525.13" y="406.28" fill="#000000" dy="0" font-family="Arial" font-size="24.06" font-style="normal" font-weight="400" style="text-align: center; stroke-width: 2.57215; fill: rgb(0, 0, 0);" text-anchor="middle">CO</tspan>
        </text>
        <text id="ID_label" x="339.94" y="235.07" style="font-size: 19.2455px; stroke-width: 1.60379; display: none;">
          <tspan id="ID_tspan" x="339.94" y="235.07" fill="#000000" dy="0" font-family="Arial" font-size="24.06" font-style="normal" font-weight="400" style="text-align: center; stroke-width: 2.57215; fill: rgb(0, 0, 0);" text-anchor="middle">ID</tspan>
        </text>
        <text id="UT_label" x="396.81" y="386.73" style="font-size: 19.2455px; stroke-width: 1.60379; display: none;">
          <tspan id="UT_tspan" x="396.81" y="386.73" fill="#000000" dy="0" font-family="Arial" font-size="24.06" font-style="normal" font-weight="400" style="text-align: center; stroke-width: 2.57215; fill: rgb(0, 0, 0);" text-anchor="middle">UT</tspan>
        </text>
        <text id="AZ_label" x="366.76" y="536.9" style="font-size: 19.2455px; stroke-width: 1.60379; display: none;">
          <tspan id="AZ_tspan" x="366.76" y="536.9" fill="#000000" dy="0" font-family="Arial" font-size="24.06" font-style="normal" font-weight="400" style="text-align: center; stroke-width: 2.57215; fill: rgb(0, 0, 0);" text-anchor="middle">AZ</tspan>
        </text>
        <text id="NV_label" x="262.47" y="370.64" style="font-size: 19.2455px; stroke-width: 1.60379; display: none;">
          <tspan id="NV_tspan" x="262.47" y="370.64" fill="#000000" dy="0" font-family="Arial" font-size="24.06" font-style="normal" font-weight="400" style="text-align: center; stroke-width: 2.57215; fill: rgb(0, 0, 0);" text-anchor="middle">NV</tspan>
        </text>
        <text id="OR_label" x="214.43" y="206.88" style="font-size: 19.2455px; stroke-width: 1.60379; display: none;">
          <tspan id="OR_tspan" x="214.43" y="206.88" fill="#000000" dy="0" font-family="Arial" font-size="24.06" font-style="normal" font-weight="400" style="text-align: center; stroke-width: 2.57215; fill: rgb(0, 0, 0);" text-anchor="middle">OR</tspan>
        </text>
        <text id="WA_label" x="238.05" y="102.99" style="font-size: 19.2455px; stroke-width: 1.60379; display: none;">
          <tspan id="WA_tspan" x="238.05" y="102.99" fill="#000000" dy="0" font-family="Arial" font-size="24.06" font-style="normal" font-weight="400" style="text-align: center; stroke-width: 2.57215; fill: rgb(0, 0, 0);" text-anchor="middle">WA</tspan>
        </text>
        <text id="CA_label" x="191.69" y="434.8" style="font-size: 19.2455px; stroke-width: 1.60379; display: none;">
          <tspan id="CA_tspan" x="191.69" y="434.8" fill="#000000" dy="0" font-family="Arial" font-size="24.06" font-style="normal" font-weight="400" style="text-align: center; stroke-width: 2.57215; fill: rgb(0, 0, 0);" text-anchor="middle">CA</tspan>
        </text>
        <text id="DC_label" x="1309.32" y="398.19" stroke-width="1.29" font-size="15.45" style="display: none;">
          <tspan id="DC_tspan" x="1309.32" y="398.19" fill="#000000" stroke-width="1.29" dy="0" font-family="Arial" font-size="19.31" font-style="normal" font-weight="400" style="text-align: center; fill: rgb(0, 0, 0);" text-anchor="middle">DC</tspan>
        </text>
        <text id="TN_label" x="1018.93" y="485.72" style="font-size: 19.2455px; stroke-width: 1.60379; display: none;">
          <tspan id="TN_tspan" x="1018.93" y="485.72" fill="#000000" dy="0" font-family="Arial" font-size="24.06" font-style="normal" font-weight="400" style="text-align: center; stroke-width: 2.57215; fill: rgb(0, 0, 0);" text-anchor="middle">TN</tspan>
        </text>
        <text id="AR_label" x="863.15" y="535.77" style="font-size: 19.2455px; stroke-width: 1.60379; display: none;">
          <tspan id="AR_tspan" x="863.15" y="535.77" fill="#000000" dy="0" font-family="Arial" font-size="24.06" font-style="normal" font-weight="400" style="text-align: center; stroke-width: 2.57215; fill: rgb(0, 0, 0);" text-anchor="middle">AR</tspan>
        </text>
      </g>
      <g id="state_borders" transform="translate(-0.04777967,-0.15336683)" stroke="rgb(209, 219, 221)" style="stroke: rgb(0, 0, 0);" stroke-width="0.3">
        <path id="KS_OK_border" d="m619.53 466 8.07.05 10.83.04 13.68-.03 4.53-.06 10.9-.1h11.6l9.25-.12 14.03-.23 8.98-.2 6.02-.14 16.2-.51 10.73-.41 13.2-.54 12.43-.58 14.75-.8 16.68-.96 2.97-.2" stroke="rgb(209, 219, 221)" stroke-width="0.3" fill="none" style="stroke: rgb(0, 0, 0); display: none;"/>
        <path id="KS_NE_border" d="m781.83 367.1-5.96.33-14.24.73-9.95.43-11.44.47-4.68.16-14.17.48-6.25.15-14.6.36-10.98.2-15.4.22-10 .07H647.3l-11.3-.05-10.3-.12-5.06-.1" stroke="rgb(209, 219, 221)" stroke-width="0.3" fill="none" style="stroke: rgb(0, 0, 0); display: none;"/>
        <path id="KS_MO_border" d="m804.38 461.24-.4-6.02-.63-10.55-.53-7.98-.28-5.43-.5-8.67-.4-5.9-.41-6.86-.28-6.04-.63-9.73.4-.68-.04-.53-.46-.16-.75.28-.53-.26.03-.36-.68-.26-.63.47-.54.06-.68-.3-.62-.84h-.9l-.27-.44.18-.58-.56-.81-.78-.36-.58-.57-.34-1.52.7-.9-.17-.44-.9.23-.56-.27-.04-.36-.77-.63-.36-.6-1.07-.4-.35-.43-.1-.62-1.36-1.15-.3-.65.12-.63.42-.25.79-.04.2-.68-.25-.62.59-1.44.42-.34.6-.1.33-.51-.12-1.24.35-.44 1.3.6.63-.23.27-.43.02-.64-.5-.23-.72.43-.56-.43.18-.53.78-.08.36-.53-.3-.81-.71-.04-.66-.62.3-.95-.78-.46-1.42.22-.4 1.05-1.03.17-1.46-.55-.1-.64-.86.1-.64-.21.06-.82-.98-.3-.73-.72-.8-.44-.17-.5" stroke="rgb(209, 219, 221)" stroke-width="0.3" fill="none" style="stroke: rgb(0, 0, 0); display: none;"/>
      </g>
      <rect id="selection-rectangle" fill="#ffffccaa" stroke="rgb(209, 219, 221)" stroke-width="0.1"/>
      <ellipse id="selection-ellipse" fill="#ffffccaa" stroke="rgb(209, 219, 221)" stroke-width="0.1"/>
      <polygon id="selection-polygon" fill="#ffffccaa" stroke="rgb(209, 219, 221)" stroke-width="0.1"/>
      <polyline id="selection-polyline" fill="#ffffccaa" stroke="rgb(209, 219, 221)" stroke-width="0.1"/>
    </svg>
  </g>
  <svg id="legend-svg" width="100%" height="100%" style="overflow:visible;" class="ui-draggable ui-draggable-handle" x="1328.321548461914" y="504">
    <g id="legend-g-svg" fill="#000" transform="translate(0,0) scale(1)" style="font-family: Helvetica; font-weight: 400; font-style: normal;">
      <rect id="legend-bg-rect-svg" x="0" y="0" rx="3.8" ry="3.8" width="190" height="20" fill="#000000" stroke="rgb(209, 219, 221)" fill-opacity="0" stroke-width="0.1"/>
    </g>
  </svg>
</svg>
