<?xml version='1.0' encoding='UTF-8'?>
<svg xmlns="http://www.w3.org/2000/svg" xmlns:dc="http://purl.org/dc/elements/1.1/" xmlns:ns2="http://creativecommons.org/ns#" xmlns:rdf="http://www.w3.org/1999/02/22-rdf-syntax-ns#" id="wrapper" viewBox="0 0 1520 840" preserveAspectRatio="xMinYMin" height="840" width="1520" style="background-color: rgb(255, 255, 255);">
  <metadata>
    <rdf:rdf>
      <ns2:work rdf:about="">
        <dc:format>image/svg+xml</dc:format>
        <dc:type rdf:resource="http://purl.org/dc/dcmitype/StillImage"/>
        <dc:title>MapChart Map</dc:title>
        <dc:creator>
          <ns2:agent>
            <dc:title>MapChart.net</dc:title>
          </ns2:agent>
        </dc:creator>
        <ns2:license rdf:resource="http://creativecommons.org/licenses/by-sa/4.0/"/>
        <dc:description>This map was created with MapChart.net, a website for creating custom maps.</dc:description>
      </ns2:work>
      <ns2:license rdf:about="http://creativecommons.org/licenses/by-sa/4.0/">
        <ns2:permits rdf:resource="http://creativecommons.org/ns#Reproduction"/>
        <ns2:permits rdf:resource="http://creativecommons.org/ns#Distribution"/>
        <ns2:requires rdf:resource="http://creativecommons.org/ns#Notice"/>
        <ns2:requires rdf:resource="http://creativecommons.org/ns#Attribution"/>
        <ns2:requires rdf:resource="http://creativecommons.org/ns#ShareAlike"/>
      </ns2:license>
    </rdf:rdf>
  </metadata>
  <g id="map-group" transform="translate(-6920.253445772082,-2700.3141703396095) scale(7.5134901021630025)">
    <svg id="map" width="1520" height="840" version="1.1" viewBox="0 0 1520 840" preserveAspectRatio="xMinYMin" data-originalStrokeWidth="0.3">
      <defs>
        <pattern id="circles3" width="10" height="10" patternUnits="userSpaceOnUse">    <rect width="10" height="10" fill="#fff"/>    <circle cx="4" cy="4" r="2" fill="#000"/>    </pattern>
        <pattern id="diagonal1" width="10" height="10" patternUnits="userSpaceOnUse">    <rect width="10" height="10" fill="#fff"/>    </pattern>
        <pattern id="diagonal3" width="10" height="10" patternUnits="userSpaceOnUse">    <rect width="10" height="10" fill="#fff"/>    </pattern>
        <pattern id="vertical1" width="10" height="10" patternUnits="userSpaceOnUse">    <rect width="10" height="10" fill="#fff"/>    <rect x="2" y="0" width="1" height="10" fill="#000"/>    </pattern>
        <pattern id="vertical3" width="10" height="10" patternUnits="userSpaceOnUse">    <rect width="10" height="10" fill="#fff"/>    <rect x="2" y="0" width="3" height="10" fill="#000"/>    </pattern>
        <pattern id="horizontal1" width="10" height="10" patternUnits="userSpaceOnUse">    <rect width="10" height="10" fill="#fff"/>    <rect x="0" y="2" width="10" height="1" fill="#000"/>    </pattern>
        <pattern id="horizontal3" width="10" height="10" patternUnits="userSpaceOnUse">    <rect width="10" height="10" fill="#fff"/>    <rect x="0" y="2" width="10" height="3" fill="#000"/>    </pattern>
        <pattern id="crosshatch" width="8" height="8" patternUnits="userSpaceOnUse">    <rect width="8" height="8" fill="#fff"/>    </pattern>
        <pattern id="subtlepatch" width="5" height="5" patternUnits="userSpaceOnUse">    <rect width="5" height="5" fill="#fff"/>    <rect x="2" y="2" width="1" height="1" fill="#000"/>    </pattern>
        <pattern id="checkers" width="8" height="8" patternUnits="userSpaceOnUse">    <rect width="8" height="8" fill="#fff"/>    </pattern>
        <pattern id="raindrops" width="10" height="10" patternUnits="userSpaceOnUse">    <rect width="10" height="10" fill="#fff"/>    </pattern>
        <pattern id="texture" width="4" height="4" patternUnits="userSpaceOnUse">    <rect width="4" height="4" fill="#fff"/>    </pattern>
        <pattern id="circles3_a03500_000000" width="10" height="10" patternUnits="userSpaceOnUse">    <rect width="10" height="10" fill="#a03500"/>    <circle cx="4" cy="4" r="2" fill="#000000"/>    </pattern>
        <pattern id="diagonal1_d9b400_535353" width="10" height="10" patternUnits="userSpaceOnUse">    <rect width="10" height="10" fill="#d9b400"/>    </pattern>
        <pattern id="diagonal3_3264c8_ffffff" width="10" height="10" patternUnits="userSpaceOnUse">    <rect width="10" height="10" fill="#3264c8"/>    </pattern>
        <pattern id="horizontal1_72b38e_000000" width="10" height="10" patternUnits="userSpaceOnUse">    <rect width="10" height="10" fill="#72b38e"/>    <rect x="0" y="2" width="10" height="1" fill="#000000"/>    </pattern>
        <pattern id="horizontal3_986ba1_ffffff" width="10" height="10" patternUnits="userSpaceOnUse">    <rect width="10" height="10" fill="#986ba1"/>    <rect x="0" y="2" width="10" height="3" fill="#ffffff"/>    </pattern>
        <pattern id="vertical1_b9a087_ffffff" width="10" height="10" patternUnits="userSpaceOnUse">    <rect width="10" height="10" fill="#b9a087"/>    <rect x="2" y="0" width="1" height="10" fill="#ffffff"/>    </pattern>
        <pattern id="vertical3_4c91bf_ffff33" width="10" height="10" patternUnits="userSpaceOnUse">    <rect width="10" height="10" fill="#4c91bf"/>    <rect x="2" y="0" width="3" height="10" fill="#ffff33"/>    </pattern>
        <pattern id="checkers_cc3333_f7f7f7" width="8" height="8" patternUnits="userSpaceOnUse">    <rect width="8" height="8" fill="#cc3333"/>    </pattern>
        <pattern id="texture_d1dbdd_525252" width="4" height="4" patternUnits="userSpaceOnUse">    <rect width="4" height="4" fill="#d1dbdd"/>    </pattern>
        <style id="map-style">svg { background-color: #ffffff; }</style>
      </defs>
      <path id="KY01" d="m1028.65 412.45.22-.1.1-.28.34-.01-.03-.29-.14-.47.57.13.12-.3-.23-.13-.1-.4.46.04v-.21l.42-.09.23-.24-.01-.24-.2-.08.11-.52.17-.08-.03-.28.2-.03.3-.3-.15-.31.43.07.1-.16.38-.03-.37-.32.06-.25.35.07.12-.1.07.3.13.01.17-.55.14.4-.1.1.38.24.12-.4-.23-.13.08-.18.21.12-.17-.28.01-.23-.17-.54.03-.14.23.25-.04.22.18.06-.04-.23.36.05.15-.13.32.12-.04-.38-.78-2.3-.03-.46-.11-.21.08-.22.08.29.34.04-.04-.34.46.04.13-.48-.13-.3.18-.06-.06-.14.26-.08.12-.34.43-.2.13-.19.07-.39.22-.2.04-.17.24-.18-.14-.07-.08-.29.1-.42.08-.73.38-.35-.02-.43.3-.66-.18-.04.15-.2-.15-.2-.1-1.62-.2-1.54.7-1.97-.99.07 2-1.6.43.55.22.08.03-.16.58-.1.22.03.26-.1.3.2.44-.1.43.28 1.07-.54.13-.12.35 1.69.66 2.79.2.38-3.1 2.26.12.78-.14.15-.3.56-.61.14-.16-.08-.1.3.1.26-.06.12-.4.06.08.63-.1.53-.13.04.07.4-.11.06-.08.34.04.26-.44.06-.18.33-.36.1-.16-.18-.18.12-.23-.17-.45.35h-.23l.48.49.04.28-.14.1-.28.52-.18.28.63.23.24.32.11.5-.24.21-.04.42.15-.1.28.2.25-.1.04.31.18.07.44.55.27.09.03.63h-.15l.03.6.15-.01.13 2.07.11 2.33.63-.15 1.93-.64 2.6-.91.29-.45 1.2-.08.28.03-.18.42.19.09.22-.11.14.12.42-.22.16.06-.1.25.2.15.25-.23.16.42-.37.22-.13.3.28-.2.26.13.14.18-.23.25-.06.2.39.07.13-.16-.2-.14.26-.08.03-.18.25-.08.12.14v.23l-.29.1.01.18.19-.04.21.25-.12.28-.19-.21v.24l-.26.04-.03-.18-.16.12-.14-.13-.13.32.2.09-.73.82-.55.27.02-.38-.28.08.01.25.25.05-.83.43-1.41 1.15-.13.65.2 1.41.05.53.44 1.21 1.52.93 1.6.5.35.15.72 1.8-.36.5.09.38.26.68v.43l-1.9 2.4-1.89 2.18.01.92.24 1.26 1.24 1.05.73.21-1.5 1.94-.4-.3-.18-.08-.36.04-.16.2-.02.57.06.36-.08.33-.4.34-.87.81-.98 1.08.26.79.94.68.82 1.5-.18.93-.02.33.13.05-.01.68.2.09.37.4-.17.3.3.1.1.5-.14.17.23.56.28.13.25-.1.1.15-.45.02-.82.07h-.04l-.55.05-.53.07-.38.04-1.25.14-.8.1-.09.03-.36.03-.09.02-.35.05h-.1l-.01.03h-.01l-.32.02-.18.03-.28.04-.18.03h-.05l-.38.06-.29.04-.42.1-.14.08-.43.05-.18.05-.14.04-.1.04-.49.1-.36.08-.33.07-.75.17-.38.09-1.45.35h-.06l-.26.07h-.04l-.86.12-.4.06-.5.07-.71.08-.2.03-.73.1-.62.08-.29.05-1.07.11-.11.01-.71.08-.45.06-.45.05h-.03l-.19.03-.12.03h-.07l-.66.11-1.09.11-1.06.1-.1.03-2.75.28-1.02.05-.53.06-1.66.16-.53.05-.4.02-.69.06-.47.04-.5.03-.72.07-.97.03-.48.05-3.03.39-.67.08-.2.02-.33.2-.39.26-.29-.06.01.21-.29.2-.2-.13-.53-.38-.8.16-.76.13-.61.12-.36.07-.47.07-.44.09-.52.07-.32.05-.29.05-.7.13-.99.16-1.42.24-.47.09-.8.13-.52.1-.19.02-.47.08-1.25.23-.47.07-.38.07-.53.07-.56.1-.76.1-.19.05-.74.1-.37.05-1.7.24-.84.13-.6.08-.4.07-.77.1-.68.12-.29.04-.26.04-.1.02-.11.02h-.1l-.07.02h-.08l-.15.03-.06.02h-.09l-.2.05-2.03.33-1.02.14-.95.16-.53.07-.92.14-1.39.24-.42.07-.82.14-.47.08-.8.15-.03-.97-1.94.1-.66-.01-.29.01h-.97l-1 .1-.19.01-.13.03-.38.03.12.51.09.19.1.2.15.15.05.1.04.12.02.13.4.89.21.8.22.6.15.63-.07.89-.2.3-.07.14-.89.1-.4.03-.51.06-1.26.15-.18.01-.29.05-1.6.19-1.05.12-.2.02-.41.06-1.55.2-1.32.15-.4.06-.3.04-.5.06-.86.1-.46.04h-.07l-.22.04-1.37.16-.92.13-.31.04-.52.05-.9.11-.7.09-.3.05-.55.06-.56.07-.91.11-.79.1-.08.01-.03.02-.18.01-.16.03-.07.01h-.08l-.17.03-.65.08-.24.04-.61.07-.23.03-.94.1-.7.08-.62.07-.79.09-.19.02-.94.1-.71.06h-.14l-.39.05-.64.07-1.1.11-.62.05-.37.04-.9.18-.6.16h-.02l-.83.2-.43.05-.22.03.18-.98.13-.45.02-.62.2-.71.04-.84.1-.35.12-.18.41-.21.42-.12h.15l.28.22.65.9.7.66.36.12.49-.12.22-.1.17-.2.1-.17.2-.72.02-.88.23-.46.38-.46.22-.37-.34-.17.03-.05.03-.1v-.07l-.03-.2-.03-.09-.18-.17-.2-.14-.14-.12-.05-.07-.12-.1-.1-.07-.06-.09-.05-.1-.05-.2v-.23l.04-.16v-.07l.06-.14.08-.13.13-.2.07-.07.13-.07.08-.07.14-.05.22.08.33-.02.15.06h.34l.18-.46-.14-.47-.14-.14-.18-.04-.5.04-.28-.07-.22-.15-.22-.34-.03-.03-.03-.1v-.24l-.04-.29.03-.26.05-.04v-.02l.05-.06.12-.07h.18l.06-.07.23-.12.21-.02.16-.73.17-.51.12-1.18.1-.57.02-.23-.05-.54-.05-.13-.36-.37-.3-.08-.19.06-.3-.15-.71-.53-.1-.12-.21-.32-.06-.19-.06-.34.04-.6.2-.57.1-.2.14-.24.08-.1.06-.28.12-.01.45-.44.1-.14.19-.28.2-.6.03-.32.11-.35.2-.36.18-.26.33-.37.09-.13.25-.35.23-.28.39-.2.36-.34.25-.1.46-.14-.01.02-.05.03.12.07.66-.04.14-.05.05-.07.18.06h.2l1.01.24.6.21.27.08.24.09.38.1.39.07.31.16.18.11.05.06.11.06.75.5.2.08.16.1.45.15.38-.08h.36l.3.07.42.17.8.21h.19l.14.05.32.15.36.2.05.05.5.47.06.02.05.14.1.06.13.06.92.16.31.01.54-.12.13-.05.24-.05.24-.11.23-.2.06-.15.12-.24.13-.67-.06-.1.23-.97.04-.23.03-.13-.17-.2-.12-.24-.06-.15-.07-.14-.04-.11-.03-.05-.05-.08-.05-.11-.01-.05-.04-.08-.03-.09-.05-.11-.07-.14-.07-.08-.12-.1-.08-.07-.06-.03-.07-.01-.1-.07-.14-.08-.07-.06-.04-.04-.09-.1-.1-.15-.06-.15-.06-.11-.1-.11-.1-.1-.12-.05-.12-.1-.1-.09-.1-.09-.09-.02-.04-.06v-.02l.07.04.03-.02h.02l.06-.05.02-.03-.05.02-.02-.02-.02-.08-.05-.1-.05-.13-.03-.06-.09-.06v-.03l-.01-.05-.06-.05.01-.12.02-.01-.02-.04v-.08l.03-.17.02-.08.12-.29.04-.16.05-.23.02-.06.08-.23.04-.05v-.12l.08-.2.01-.12.02-.08v-.05l.02-.1.01-.11-.04-.4.03-.32.01-.36.18-.44.27-.34.46-.34.3-.13.29-.16.2.05.2.06.46.27.1.17.24.04.27-.26.18-.28.2-.35.21-.24.17-.13.18-.2.6-.42.66-.2.67-.11.26-.08 1-.3.68-.28.28-.1 1.3-.25.07-.17.08-.2.17-.13.04-.43-.06-.19-.02-.22-.2-.3-.24-.2-.37-.15-.42-.53-.49-.34-.3-.13-.19-.3-.1-.58-.5-.9-.19-.8.17-.58.15-.28.13-.18.06-.08.03-.18.23-.47.4-.24.17-.24.45-.33.11-.05.21-.33.29-.68.05-.2v-.37l.03-.35.12-.24.13-.08.23-.08.34.05.74.33.4.36.27-.01.13-.32.16-.58.56-.38.05-.28-.27-.8-.8-.77-.1-.28.02-.37.08-.15.14-.22.05-.08.31-.63.1-.14.16-.09.1-.01h.03l.23.01.2.09.13.12.38.48.31.23.03.17.23.23.32.07.46-.02.33-.06.17-.06.6-.56.22-.08.4-.1.22.04.44-.18.23-.12.15-.14.1-.06h.12l.35.2.1.25-.15.66-.13.39.12.6.26.25.74-.06.31-.11.35-.2.04-.1.19-.32.06-.09.14-.37v-.16l.03-.22.07-.07-.06-.28-.08-.1-.15-.13-.7-.42-.28-.44.02-.32.1-.05.05-.21-.1.05.18-.2.11-.2.05-.38-.02-.32.1-.14.07-.05.28.01.15.08.1.2.04.25-.05.14.09-.03.03.1.27.39.24.2.2.1v.02l.43.18.53.22.06.01.07-.02.07-.05.17-.16.54-.64.1-.15.23-.2.14-.1.15-.08.4-.1.12-.02.63.07.25.04.39.16.29.28.11.02.51.3.43.02.25.1.19.06.03.02-.14 2.55.4.06.14.19-.14.34.26.05.1.34.59-.06.09.13-.28.36-.08.3-.73.71-.4.16-.76.15-.36.3-.13.2.05.45-.05.4-.13.28-.12.49-.16.17-.44.04-.63.2-.2.1-.44.6-.1.3.06.38.57.8.4.13h.53l.55-.09h.62l.47.3.63.96-.1.34.31.17.17.44-.15.26.07.35-.08.25.22.2-.05.49.17.6.14.26.05.39.45.36.29.14-.08.24h.22l.2-.15.47.4-.2.16-.11.23.21.03.02.29-.23.09-.18.66-.2.03-.14.27.13.28-.22.08.15.35-.15.15-.39-.06-.15-.14-.27.24.06.36-.1.32.12.31-.1.25v.39l.16.27.08-.1.44.14-.08.33.38.08-.09.1.32.22-.03.29.3.18.07-.1.32.4.08-.14.34.16-.2.3.19.27-.36.22.08.23-.18.1.02.4.18.42-.1.07.3.13.3.48.2.09.28-.2.25.11v.17l.2.42-.14.07.36.5.23-.05.04-.19.24-.03.24.35.01.32-.37.08.29.1.05.27 3.24-.61 1.52-.73 1.82-.67 3.32.05 4.47 1.16.2.32-.06.24-.06-.27-.26.07.23.28-.1.08-.22-.16-.37.25.14.19-.2.16-.08.32.13.16-.13.21.11.28-.47.05.02.14-.19.16.11.66.16.06-.01.29.62.4.04.16-.29.03-.12.42.05.13.44-.18.29.42.32.21.03-.12.32-.42.37-.72.56-.3.52-.07.94 1.53 2.6.01 2.03.04.02 1 3.05-3.57-.07-.41-.1-.23h.35l.1-.19.3-.06-.06-.29.35-.2.2.21.22-.35-.25-.4.18-.27.37.38.2-.14.2-.36.26.11.04.2-.35.36.22.16.29.02.18-.2-.1-.15v-.31l.32-.21.03.05-.08.53.22.33-.27.2.16.14.39-.16.49.67.1.21h.2l-.02-.2-.3-.34v-.16l.19-.46.23.01.42-.14.17.12-.28.2.06.35.2.1-.15.19.05.56.2.3.36.22.1.22-.2.2-.03.56.34-.17.23.02-.08.4.35.1.15.33-.3.07-.12.13.34.2.13.21.13-.15.73.08.26.25.3.2.25.56 1.63-1.65 2.07-2.1.8-.6h.12l.4-.27.25-.02-1.07-5.11-.23-.64-.32-1.28-.13-1v-.32l-.38.06-.27-.87.38-.45.28-.67 1.35-.61.83 1.13.78.46 1.06.1 1.61-.05 1.01-.73 1.1-.73 1.2-.96.55-.87-.62-.83h-.37l-.48.11-.14-.07.13-.39.3-.08.03-.19-.15-.2-1.2-1.56-.13.04-.15-.36-1.2-1.32.03-.01-1.83-1.08-1.14-.67-.08-.33.08-.3-.12-.11-.02-.43.12.13h.3l.09.12.3-.08.62.1-.01-.23.27-.24-.04-.19.36-.35.19.1.13.36.57-.05-.23-.44-.09-.35-.28-.22-.26-.41-.03-.38-.11-.25-.34-.42-.35-.13-.12.04.3-1.11.29-1.36.47-1.93.97-1.6m-96.24 53.04-.25.03-.35-.41-.25-.32-.03-.05-.17-.32-.2-.5.02-.33.24-.43.14-.14.5-.17.25.08.2.03.65.04.3.21.13.19.16.36.1.62-.14.58-.2.4-.12.01-.98.12" fill="#d1dbdd" stroke="rgb(209, 219, 221)" stroke-width="0.1" data-originalStrokeWidth="0.1" style="stroke: rgb(0, 0, 0); fill: rgb(209, 219, 221); pointer-events: auto; stroke-width: 0.1;" pointer-events="auto"/>
      <path id="KY02" d="m981.54 414.26.1.04.75.45.1.05.07.05.32.22.89.44.4.1h.33l.64-.06.12.06.28.25.27.37.17.26.08.18.08.32.13.19.34.07.24-.06.2-.1.33-.26.18-.2.1-.14.08-.24.15-.81v-.22l.02-.46.08-.37.02-.2-.05-.2-.06-.22-.06-.29.3-.52.4-.36.1-.1.17-.1.26-.14.27-.18.1-.04.1-.05.02.01.13-.02.2-.04.18-.05.11-.02.22-.08h.09l.19-.08.09-.05.05-.08.07-.06.08-.05.18-.3.26-.43.5-.75.14-.14.68-.43.38.01.2.1.19.06.28.62.2.24.07.12.02.13.2.26.08.1.33.47.3.35.18.2.26.24.29.06.25-.19v.02l.23-.26.43-.43h.39l.36.03.14.09.09.38-.23.83-.04.43.17.4.16.05.33-.08.19-.1.55-.51.1-.25-.06-.62-.14-.6.06-.35.14-.22.54-.12.61.07.2-.04.33-.2.27-.32-.12-.36-.3-.28-.2-.42-.2-1.18-.07-.61-.02-.16.03-.35.38-.24.46-.07.45-.12.44-.26.24-.36.06-.2-.04-.47-.2-.13-.5-.14-.23-.25-.04-.41.1-.18.18-.17.5-.04.33.22.06.02.34.3.18-.07.07-.16.01-.2.06-.24.15-.16.13-.08.44-.02.23.03h.09l.2-.06.08-.07.04-.04.06-.08.07-.18.03-.13v-.15l-.03-.04-.03-.09-.1-.08h-.08l-.07-.04-.16-.04-.16-.01-.27.01h-.25l-.1-.03-.08-.04-.05-.06-.07-.09-.06-.1v-.02l-.06-.3v-.16l.09-.2.03-.06.11-.08.1-.04.14-.03.2.06.04.03.2.13.1.09.47.34.34.12.13.04.17.07.03.03.07.02.12.1.1.11.1.11.22.26.05.1.06.15v.25l-.03.16.02.08-.03.12-.02.13v.29l.02.07.03.2.01.18.05.1.03.14.05.13.08.18.1.2.11.13.08.06.2.1.22.13.39.11.56.39.47.16.19.05.11.04.26.09.29-.05.54-.27.4-.07.44.03.28.1.2.07.15.1.23.17.13.32.2.28.38.39.25.05.13-.18v-.23l-.08-.34.01-.3.15-.13.38-.21.74-.26.55-.12.19-.05.35.2.3-.48.11-.04-.01-.3.17-.3.16-.06.33-.4.2-.1 3.67-2 3.58-.18-.1-.29-.15.15-.11-.38.08-.24.2-.13-.19-.4-.32-.53.7-.1.04-.14-.35-.1.45-.24.37-.5.12-.45.14-.24-.04-.2-.09-1.08.3-.04-.15-.3.05-.26-.25-.03-.07-.88.24-.16.16-.47.1-.08.22.1 1.63.44.18 5.01-.16.2-.34.02-.23.26h-.15l-.63 2.8-.1.07.78.52-.97.97.3.2-.2.47-.18.14-.09.42-.14.16h-.25l.02.15-.24.15-.17.37.21.03.75.44.8.62.57.46h-.14l-.16.29.17.37.25.04.37-.24.1-.14.47-.04-.01-.15.3.05-.07.3.62.13.1.13-.11.5h.13l-.28.4-.38.4.1.52.14-.16.35.07.13.32.07.48-.06.18.22.04.3-.3.41.04-.97 1.6-.47 1.93-.3 1.36-.29 1.11.12-.04.35.13.33.42.1.25.05.38.26.41.28.22.09.35.23.44-.57.05-.13-.35-.2-.1-.36.35.04.18-.26.24.01.23-.61-.1-.31.08-.09-.13h-.3l-.12-.12.02.43.12.1-.08.3.08.34 1.14.67 1.83 1.08-.03.01 1.2 1.32.15.36.13-.04 1.2 1.57.15.2-.04.18-.29.08-.13.4.14.06.48-.12.37.01.6.83-.54.87-1.2.96-1.09.72-1 .74-1.62.06-1.06-.11-.78-.46-.83-1.13-1.35.6-.28.69-.38.44.27.87.38-.06v.33l.14.98.3 1.29.23.64 1.08 5.1-.26.03-.39.27h-.13l-.79.61-2.07 2.1-1.63 1.65-.24-.56-.3-.2-.27-.26-.73-.08-.13.15-.13-.2-.34-.2.13-.14.28-.07-.14-.33-.35-.1.08-.4-.23-.02-.34.17.02-.55.2-.21-.09-.22-.36-.23-.2-.3-.05-.56.13-.18-.18-.09-.07-.36.29-.2-.17-.12-.42.14h-.23l-.2.45v.16l.3.33.01.2h-.17l-.1-.2-.5-.67-.39.16-.15-.13.27-.2-.23-.34.08-.53-.03-.06-.32.22v.31l.1.16-.18.2-.29-.03-.22-.16.35-.38-.04-.18-.25-.1-.2.35-.2.14-.38-.38-.18.27.25.4-.2.35-.22-.21-.35.2.04.29-.28.06-.1.2h-.36l.1.22.08.4-3.05 3.57-.02-.99-2.04-.04h-2.59l-.94-1.54-.51.07-.56.3-.38.72-.32.42-.03.12-.32-.21-.29-.42-.44.18-.05-.13.13-.42.28-.03-.04-.16-.62-.4v-.29l-.15-.05-.1-.67.17-.16-.01-.14.47-.05-.1-.28.12-.21-.14-.16.08-.32.21-.16-.14-.19.37-.25.23.16.09-.07-.23-.29.26-.07.06.27.05-.24-.2-.32-4.46-1.16-3.32-.05-1.82.67-1.52.74-3.24.6-.06-.27-.3-.1.38-.08-.01-.32-.23-.35-.24.03-.04.2-.23.04-.36-.5.15-.07-.2-.42-.02-.17-.24-.12-.28.2-.2-.08-.3-.48-.3-.13.1-.07-.2-.42-.01-.4.2-.1-.09-.23.36-.2-.18-.3.2-.3-.34-.15-.09.14-.32-.41-.06.1-.3-.16.02-.3-.3-.22.06-.1-.38-.08.08-.33-.43-.15-.08.1-.16-.27v-.38l.1-.25-.1-.3.08-.33-.06-.36.27-.24.15.14.39.06.15-.15-.15-.35.22-.08-.13-.28.15-.27.19-.03.18-.67.23-.09-.02-.29-.21-.02.1-.23.2-.15-.45-.4-.21.15-.21-.01.06-.24-.28-.14-.45-.36-.05-.4-.14-.25-.17-.6.05-.48-.23-.21.08-.24-.06-.36.15-.26-.17-.44-.31-.18.1-.33-.63-.97-.47-.29H980l-.55.09h-.53l-.4-.14-.57-.79-.06-.38.1-.32.44-.57.19-.1.64-.21.44-.04.16-.17.12-.49.13-.29.05-.4-.05-.44.13-.2.37-.3.75-.15.4-.16.73-.7.08-.31.27-.36-.08-.13-.57.06-.11-.34-.27-.05.14-.33-.14-.2-.4-.06.14-2.55" fill="#d1dbdd" stroke="rgb(209, 219, 221)" stroke-width="0.1" data-originalStrokeWidth="0.1" style="stroke: rgb(0, 0, 0); fill: rgb(209, 219, 221); pointer-events: auto; stroke-width: 0.1;" pointer-events="auto"/>
      <path id="KY03" d="m1019.5 394.86.14-.7h.02l.02-.31.03-.4-.05-.43 1.84.93-.37.13.29.14.3-.15 2.3 1.15-.1.08-.17.47-.23.16.07.88.25.03-.05.27.15.3-.3.03.09 1.07.04.21-.14.24-.12.45-.37.5-.45.24.35.1-.04.14-.7.1.31.53.2.4-.2.13-.08.24.11.38.15-.15.1.28-3.58.18-3.67 2-.2.11-.33.4-.16.06-.17.3.01.3-.12.04-.29.47-.36-.19.1-.07.19-.28.19-.39.03-.23v-.29l-.04-.5v-.32l.03-.14.1-.62-.1-.66-.08-.25-.15-.7-.06-.45.01-.57.24-.61.24-.5.54-.61.08-.16.13-.35v-.32l.01-.17-.04-.41.12-.37.3-.26.45-.17.21-.1.12-.01.23.03.03.06.15.09v.04l-.01.06.02.03h.03l.12.1.15.07.14.03.2-.03.26-.2.02-.04.54-.46.3-.26.23-.2.12-.18.04-.17.18-.34.13-.23" fill="#d1dbdd" stroke="rgb(209, 219, 221)" stroke-width="0.1" data-originalStrokeWidth="0.1" style="stroke: rgb(0, 0, 0); fill: rgb(209, 219, 221); pointer-events: auto; stroke-width: 0.1;" pointer-events="auto"/>
      <path id="KY04" d="m1040.56 367.23.2-.03.2-.07.55-.32.3-.34.06-.13.26-.23h.12l.23.07.27.06.07-.02.2-.07.19-.13.11-.17.26-.52.27-.2.09-.05.17-.01.28.12.12.09.2.24.07.12.05.24.07.26v.1l.08.34.18.38.14.11-.11-.05.06.06.2.08.44.02h.2l.62-.02.48.07.2.05.38.19.15.1.14.13.3.3.2.3.11.26v.06l.09.35.06.19.3.48.25.26.63.56.44.55.2.19.2.5.06.54.07.46.12.46.08.19.17.28.07.08.23.17.05.04.18.07.39.04.32-.02h.53l.42.08.1.01.5.13.03.01.13.03.48.12.52.04.4-.1.07-.02h.04l.13.01.1-.05.15-.07.17-.08.17-.1.27-.17.14-.05.13-.07.1-.05.13-.1.07-.04.05-.03.06-.03.32-.04h.13l.42.08.35.26.27.03.16-.03.24.01.72.04.54.24.12.13.1.16.23.6.1.1.06.05.19.08.11.06.24.05h.08l.33.01.29.1.14.19.39.91.14.2.4.12h.24l.57-.04.14.09.14.03.08.04.3.07.72.18.2-.06.21-.14.06-.05.06-.35v-.75l.08-.3.36-.38.36-.13.33-.18.08-.06.28-.13.78-.43.31-.08.39.05.51.2.54.39.3.02.42.05.19-.03 1.14-.03.32.02.83.32.35.2.18.2.17.54.15.18.34.19.34-.05.08-.1.3-.5.07-.23.4-.32.54.04.27.12.25.04.23-.06.37-.13.4-.08.25-.07.32-.44.13-.5.07-.62.2-.36.53-.27.24-.21.41-.4.17-.42.15-.54.14-.15.19-.06.24-.1.74-.04.15-.09v.04l.1-.1.08-.1.02-.04.41-.4.04-.04.13-.09.36-.23.24-.11.24-.15h.24l.12.1.2.09.1.14.07.2.09.5.02.92.17.31.39.48.18.56.03.08.05.18.01.11v.05l.05.1.02.13.04.08v.08l.08.2.07.15.15.26.14.2.08.1.36.2.02.03.06.05.05.03.1.05.04.02.25.1.1.04.14.04.33.06.39-.08.9-.14.4.09.16.08.48.2.12.08.14.16.37.48.2.17.02.02.1.07-2.06 2.72-.12.4.03.24-.26.1-.02.34-.39.4.06.16-.11.46-2.44-.35-.1.09-.88.1-.2.21-.2.03-.05-.14-.3-.05-.1-.23-.35.03.11.47-.21-.13-.21.14.2.24-.5.24h-.32l-.18.14-.1-.13-.28.18-.03.26-.33.02.13.16-.02.23-.2-.24-.2.03.08.14-.21.01-.12.28-.18.12.04.39.15.05-.23.3-.29.07-.5-.1-.3.22-.14-.06.08.44-.6-.15-.48.22-.4.45-.45.3-.36.09-.18.18-.33-.16-.3-.05-.3.1h-.33l-.1-.11-.45.02-.31-.62-.38-.27-.08-.28-.36-.06-.24-.25-.1-.44-.4-.13-.24.31-.38.1-.01.22-.17-.01-.18-.19-.74-.4-.25.17-.26-.28-.24-.06-.18.22-.13-.24-.23.06-.4-.04-.3-.16-.41-.05-.1-.22.14-.25-.29-.51-.05-.29-.18-.05.05-.25-.18-.08-.02-.17-.26-.15v-.18l-.61.05-.18-.15-.02-.4-.17.16-.16-.21-1.8 1.01-.52.43-.24.09-2.27 1.57-1.92-.82-.79 1.07-.25.63.13.28-.25.1.01.33-.1.09-.1-.54-.11-.05.05.28-.19.02-.2-.35-.33.2-.39-.18-.71-.16-.34.13-.27-.13-.11.05-1.72 3.14-1.15 1.42-.6.7-.33.17-.36.04-.16.57-.1-.04-.5.48-.24-.06-.2-.2-.08.4-.23.23-.24-.1-.74-.05-.15.23-.19.06-.3-.08.02-.38.19-.13-.3-.6-.2-.27-.27-.2-.17-.33-.14-.52.05-.29-.16-.33-.37-.44-.6-.44-.19-.02-.53-.22-.15-.13-.04-.52-.2-.28-.37-.17-.2-.37-.1-.33-.2-.04-1.17 2.17-.54.57-1.13 1.68-.74.7-.13.11-1.07.54-.43-.27-.44.1-.3-.22-.26.11-.22-.03-.58.1-.03.17-.22-.08-.43-.56-2 1.6 1-.07-.7 1.97.18 1.54.11 1.61.15.23-.15.18.18.04-.3.66.02.43-.38.35-.07.73-.1.43.07.29.14.06-.24.18-.04.17-.22.2-.07.39-.13.2-.43.19-.12.34-.26.08.06.14-.19.06.14.29-.13.48-.46-.03.04.34-.33-.03-.09-.3-.08.22.12.21.03.46.77 2.3.04.39-.32-.13-.15.13-.36-.05.04.23-.19-.06.05-.22-.23-.25-.03.14.17.54-.01.24.17.27-.21-.12-.08.2.23.1-.12.41-.37-.25.09-.09-.14-.4-.16.55h-.14l-.07-.32-.12.1-.35-.06-.06.25.37.32-.38.03-.1.17-.43-.07.15.3-.3.3-.2.02.03.3-.17.07-.1.52.19.08.01.24-.23.24-.42.09v.21l-.47-.04.1.4.24.12-.12.3-.58-.13.14.47.04.3-.33.01-.1.28-.23.1-.41-.04-.3.3-.22-.04.06-.18-.07-.48-.13-.3-.35-.09-.14.16-.1-.53.38-.4.27-.4-.12.02.1-.5-.09-.14-.63-.13.08-.3-.3-.05.02.15-.48.04-.09.13-.38.25-.25-.05-.17-.37.17-.27h.13l-.59-.46-.8-.63-.73-.44-.22-.03.17-.37.25-.15-.02-.14.25-.01.14-.16.1-.42.18-.14.17-.47-.3-.2.99-.97-.79-.53.12-.06.62-2.8h.15l.23-.26.34-.03.16-.2-.18-5-1.64-.43-.22-.1-2.3-1.16-.3.15-.3-.14.38-.13-1.83-.93.11-.9.05-.13.05-.3.02-.2.27-.51.15-.15.26-.22.31-.13.62-.16.27-.08.38-.18.17-.14.16-.13.21-.26.17-.4.08-.55.3-.4.6-.45.08-.09.22-.34.02-.08-.01-.6-.06-.24-.08-.17-.17-.24-.07-.13-.15-.19-.29-.5-.18-1.02-.02-.25-.08-.39-.16-.27-.33-.35-.1-.48.02-.45.09-.17.15-.34.08-.16.44-.3.25-.04.79.06h.07l.08-.04v.01l.14-.03.5-.18.05-.07.3-.1.5-.22.3-.06.77.01.22.1.2.18.5.6.38.27.22.08.2.04h.1l.38-.04.35-.11.44-.31.13-.12.09-.1.16-.24.13-.14.15-.18.12-.22.1-.1.05-.06.15-.12.46-.43.18-.1.18-.13.12-.16.13-.12.22-.14.06-.02.36-.3.4-.45.21-.08.5-.04.39.04.29-.11.37-.28.3-.26.24-.16.28-.03h.48l.86.1.27-.08.07-.17-.11-.34-.17-.22-.35-.52v-.27l.05-.07.03-.09.13-.15.08-.09.1-.09.05-.06.1-.1.03-.1.07-.08.06-.04.09-.2.04-.19.01-.19-.04-.15-.05-.07-.2-.12-.06-.04-.32-.1-.45-.02-.34.01-.24.06-.29.04-.26-.1-.25-.4.22-.59.22-.28.12-.29.08-.05.1-.16.05-.05.12-.37v-.1l-.06-.18-.2-.32-.12-.15-.16-.13-.34-.46-.24-.21-.21-.21-.16-.09-.06-.08-.1-.05-.02-.01-.23-.27-.04-.08-.08-.08-.03-.18.1-.27.39-.26.22-.2.09-.14.18-.21.02-.1.05-.08.06-.06.18-.26.16-.12.24-.14.07-.11.17-.08.42-.3.12-.23.06-.2.21-.39.13-.16.33-.1.25.04.4.2.14.13.05.05.18.2.3.36.18.18.23.1.34-.02.44.14.32.25.23.12.3.05" fill="#d1dbdd" stroke="rgb(209, 219, 221)" stroke-width="0.1" data-originalStrokeWidth="0.1" style="stroke: rgb(0, 0, 0); fill: rgb(209, 219, 221); pointer-events: auto; stroke-width: 0.1;" pointer-events="auto"/>
      <path id="KY05" d="m1097.49 420.85.14.23.07.09.05.03.02.05-.23.18.22.45.02.29.04.12-.32.1-.12.05-.06.1-.01.52h-.32l-.11.13v.05l-.04.06-.02.08-.02.02-.01.05h-.1l-.13.3-.13-.02-.05.1-.06.04-.1-.09-.34.12-.07.06-.05-.05-.04.02v.04l-.04-.02-.24.15v.07l.04.06.01.05v.09l-.05.09-.06.1-.23.2-.2.01-.03.22h-.01l-.04.02-.08-.04h-.01l-.07.07-.03.02v.23l-.04.08.17.29.3.13-.1.39.19.37-.26.54-.1.12.27.28-.22.24.04.07-.25.28-.41.26.02.14-.36.1-.12.11-.42.24-.13.03-.38.32h-.26l-.45.17-.11.23-.03.1-.11.02-.29-.03-.08-.04-.05-.11-.36.08-.14.14-.64.03.02.45-.3.13-.24.27.06.22.06.32-.08.34-.2.32-.07.19-.25.17-.07.05.15.26v.31l-.02.02v.05h.04l.06.02.1.03-.13.64-.52.12-.16.1-.76.14-.12.1-.6.33-.07.06-.08.04-.09.07-1.2.65-.33.11-.13.05-.62.39-.31.13-.1.14-.12.12-.66.35-.17.33-.37.27-.12.07-.45.18-.53.13-.11.04-.47.06-.29-.08-.4.11-.08-.01-.46.24-.23.34-.16.1-.28.12-.34.36-.2-.02-.64.4-.07.2-.39.26-.3.07v.2l-.3.37-.26.16-.01.17-.26.54-.58.09-.08.02-.81.14-.85.14-.7.1-2.08.3h-.09l-1.42.21-.33.05-.74.1-1.8.29-.64.1-.14.02-.53.1-.14.02-.27.04h-.05l-2.02.35h-.02l-1.07.2-3.05.43-1.13.17h-.1l-.38.07-.5.07-1.03.19-.5.09-.53.06-1.07.13-.5.06-.65.08-.85.1-1.1.18-.5.08-1.72.23-.25.03-1.13.08-.58.07-1.38.09-.57.03-.1-.15-.25.1-.28-.12-.23-.57.13-.17-.09-.5-.3-.11.17-.3-.37-.38-.2-.09.01-.7-.13-.04.02-.33.18-.94-.82-1.48-.94-.69-.26-.79.98-1.08.87-.8.4-.35.07-.33-.05-.36.02-.57.16-.2.36-.04.19.08.4.3 1.49-1.94-.73-.21-1.24-1.05-.25-1.26v-.92l1.9-2.18 1.88-2.4.01-.43-.26-.68-.1-.38.37-.5-.72-1.8-.35-.15-1.6-.49-1.53-.94-.44-1.21-.04-.53-.2-1.42.13-.64 1.4-1.16.84-.43-.25-.04v-.25l.27-.08-.02.38.55-.27.73-.82-.2-.09.13-.32.14.13.16-.12.03.18.26-.04v-.24l.2.2.11-.27-.2-.25.13-.2.08.2.14.04.15.38-.14-.14-.13.2.13.23.1-.07.3.3.29-.12.14.31 4.07 2.49.5-.04.18.18 1.85.12.11-.44.1-.1.12-.45-.14-.12-.1-.28.14-.23.06-.57.28.04.14-.14h.26l.2.29.2-.32.15.08-.03.34.56-.1.3.2.29-.12.04-.2.33-.05.14.1.2-.29.64.04.48-1.2.69-.36 1.23-.25 1.14-.13 1.2-.52.63-.37.67.14 1 .8.5-1.5.28-.79-.22-.18.47-.56.24-.2.39.02.18-.12v-.23l-.18-.03-.34-.53.08-.15.22-.04.15-.36.45-.42.03-.21.4-.33.18-.44.23-.11.46-.06.17-.15.14.1 1.26-3.74-.31.03-.22-.25-.13.1-.2-.05.04-.15-.17-.18-.19.1.15-.29-.27-.09-1.97-.9-.28-.24.02-.3-.34-.13.06-.32-.26-.1-.12-.63.04-.25-.22-.29.08-.1-.12-.5.26.09.06-.42.1.19.24-.33-.09-.06.37-.29.35.18.4-.56-.23-.5-.2-.75h.17l-.09-.37-.18-.04-.24-.26v-.22l-.34-.07.1-.54-.91.07-.15.16.03-.3-.22.02-.14-.45-.14.24-.15-.28-.29.01.03-.17.26-.1-.23-.28-.54.02-.12-.13-.51.1-.23-.4-.3-.18-.27-.02-.05.33-.31.08-.18-.28-.21-.06h-.47l-.3-.3h-.32l.33-.37.22-.83.2.15.2.42.35.16.55-.02.13.05.75.06 2.24-1.76.03-.36.2.18.33-.3.07-.38.14.3-.21.32.14.27-.07.25.08.45-.09.18.14.27.22-.04-.2-.3.25-.23.36.51.1-.17.18-.04.34.56.13.34.15-.25.06-.48.43-.12v-.3l.3-.07.24-.53.24.1.32-.15.06-.12v-.54l.37-.32.07-.32.23-.06.04-.42.3-.1-.3-.69.2-.1-.07-.34.04-.36.27-.33-.29-.24.03-.2-.16-.06.03-.23.22-.11.12-.27.2-.08.1.16.27-.27-.2-.15.13-.17.07-.31h.17l.01-.21.38-.1.23-.31.42.13.09.44.24.25.36.05.08.29.38.27.31.62.44-.02.1.1.34.03.3-.11.3.04.32.16.2-.18.35-.1.45-.29.4-.45.49-.21.6.14-.09-.44.13.06.3-.21.5.09.3-.06.23-.31-.15-.05-.03-.39.17-.12.12-.28h.2l-.07-.15.2-.03.2.24.02-.23-.13-.16.33-.02.02-.26.3-.18.08.13.18-.15h.33l.5-.23-.2-.24.2-.14.22.13-.11-.47.36-.03.1.23.28.05.06.14.2-.03.2-.22.87-.09.11-.1 2.44.36.11-.46-.06-.16.4-.4v-.33l.27-.11-.03-.25.11-.39 2.06-2.72.23.22.61.34.46.12.2.12.1.13.17.33.21.63.16.31.1.08-.05.2.03.2.06.16.05.13-.01.12-.01.29.14.16.05.08.02.12-.01.11-.03.16v.07l.09.59.08.1.16.04.37.32.08.16.14.27-.17.59.26.55.1.28-.03.63-.3.18h-.17l-.13.02-.08.35.22.42.2.07.04.14.07.43.03.11-.06.17-.05.36-.03.32-.04.04-.18.08-.51.07-.05.12.2.3.08.32.08.22.16.06.22.01.06.15.04.2.23.02.33.05.02.02.22.17.16.07.14.5.23.18.27.05.12.15.05.05.17.01.11.09.03.15.12.1.02.05v.07l.04.09.1.1.03.03.1.07v.08l-.03.12.04.04.02.05.1.12.26.13.04.25.23.3.1.07-.07.13.05.02.07.02h.04l.07-.1.02-.01.07.01.1.04h.12l.12-.03.1-.03.03.02.05.08.03.18.06.14.04.04h.03l.08-.07.1-.06.08-.02h.1l.06.06h.02l.03.18-.02.05-.08.12-.04.02-.16.02-.09.02-.03.02-.03.05v.1l.03.13.04.01.12.02h.09l.1.02v.03l-.05.15-.08.14-.05.1-.08.1-.06.02h-.21l-.02.05.02.06.05.05.07.03h.1l.02.04-.02.07-.04.01h-.18l-.03.01-.03.06-.02.05.02.03.12.13.07.02.08-.01.19-.05h.1l.02.03-.06.08-.1.12.01.1.02.02h.13l.1.02.07.04.03.05.05.12v.03l-.02.09v.03l.06.08h.06l.06-.14-.05-.33.17-.01.21.08.12.1.06.05.24.07.04.02.15.25.37.15.06.28.3.23-.3.11-.04.12.25.08-.02.2-.06.11.03.05.08.01h.12l.08.2.05.05.23.12.04.06.03.1v.3l.14.23.14-.33.27.17.07.19.07.07.09-.02.1.01.06.05.05.09.06.04.2-.01.04.02.14.15h.04l.18-.01.01.02.04.09.03.07v.06l.01.07.06.02.05.02h.07l.06-.07.07-.03.07.02.04.06-.03.03-.11.1-.08.1-.01.04.03.04.09.04h.03l.08-.02.11-.08.08-.05.1-.01.02.03.03.04.02.04-.02.01-.11.05-.05.03-.03.04v.2l.01.03-.12.08-.04.05-.02.07-.06.1v.06l.07.04.32.12.18.4.14.08.03.13.04.03.06.11.06.04.17.02.09.15-.08.29.18.13-.15.35.12-.03.13.13.15.06.11-.25.1.08.3.27.33.13.18-.05.06-.08.14-.1.43.2.1.26.2.08-.07.19.26.25.2-.02.03-.03.15-.06.24-.14-.21-.46.1-.13.18-.05.08.02v.25l.16.25-.2.18.2.24.17-.15.1.03v.03l-.08.22.1.17.18-.1.1.37.14.16h.14l.13-.17.29.06.12.18.04.1.04.1.03.1-.27.18-.16.1.02.1.3.15-.04.07.1.13.12.03.12-.04.1-.26.28-.08.08.07-.04.13.34-.1.1-.05h.04l.28-.06.14.15.17.18.11.23.11-.07.14.02.04.01.02.03.03.13.02.04h.05l.05-.27-.11-.34.1-.05.3.27.27-.12.08.18.26-.08.08-.27.07-.03.05.15.15-.16.18-.03.28-.18.12.05v.07l-.04.12-.23.32-.78 1.01-.64.87-.22.33-.01.02h-.02l-.93 1.25-.27.38-.73.94-.28.37-.77 1-.09.13-.03.05-1.01 1.32-.8 1.06-.12.18h-.02l-.07.3-.25.22-.12.02-.16.06.08.21-.13.2-.64.4-.16.02-.13.06-.08.05-.13.1h-.05l-.18.12h-.1l-.46.32h-.16l-.37.38-.68.36-.06.15-.02.07-.2-.03-.2.18.02.05-.05.1-.1.07-.15.16-.24.04.07.13-.17.08-.12.07-.1.07-.07-.01-.17.19h-.02l-.22.28-.32.27-.07.05-.31.37-.08.07-.4.46-.12.2-.02.05v.02l-.16.06-.1.05-.18.06-.05.06v.14l-.38.35-.07.08-.16-.04-.6.51-.1.13-.24.27.1.15.07.14.06.33-.04.09" fill="#d1dbdd" stroke="rgb(209, 219, 221)" stroke-width="0.1" data-originalStrokeWidth="0.1" style="stroke: rgb(0, 0, 0); fill: rgb(209, 219, 221); pointer-events: auto; stroke-width: 0.1;" pointer-events="auto"/>
      <path id="KY06" d="m1072.3 383.9-.07.32-.12.17.2.15-.28.27-.1-.16-.2.08-.12.27-.22.1-.03.24.16.08-.03.18.3.24-.28.33-.04.36.07.33-.2.11.31.68-.3.11-.05.42-.23.06-.08.32-.36.3v.56l-.06.12-.32.16-.24-.1-.26.52-.28.06v.32l-.43.1-.06.49-.15.25-.13-.34-.34-.56-.19.04-.09.17-.36-.51-.26.23.2.3-.21.04-.15-.28.09-.17-.07-.45.08-.25-.15-.28.21-.3-.14-.3-.08.38-.32.28-.2-.17-.03.36-2.24 1.76-.75-.06-.13-.05-.55.02-.34-.17-.22-.41-.2-.15-.2.83-.34.38h.31l.31.29h.47l.21.07.18.28.3-.1.06-.32.26.03.3.17.24.4.5-.1.13.13.54-.02.23.27-.26.11-.03.16h.29l.15.28.14-.24.14.45.22-.02-.03.3.15-.16.9-.07-.09.55.35.06-.01.22.24.27.2.04.07.38-.16-.02.19.76.23.5-.4.54-.35-.17-.37.29.1.06-.26.32-.1-.18-.05.43-.25-.09.1.5-.08.1.23.27-.05.26.12.63.27.1-.06.32.34.14-.02.28.28.25 1.97.9.27.08-.16.32.2-.1.17.16-.02.15.18.06.13-.1.22.24.31-.03-1.26 3.74-.14-.1-.17.15-.46.06-.23.1-.19.45-.39.33-.03.21-.45.42-.15.36-.22.04-.08.15.34.53.18.03.01.23-.18.12-.4-.03-.24.2-.47.58.22.17-.28.78-.5 1.5-1-.79-.68-.15-.63.38-1.19.52-1.14.12-1.23.25-.69.37-.48 1.2-.63-.04-.2.28-.15-.09-.33.07-.04.18-.3.13-.29-.22-.56.1.03-.32-.15-.08-.2.31-.2-.28-.26-.01-.14.14-.29-.05-.05.57-.14.23.1.29.14.12-.13.44-.09.1-.11.45-1.85-.11-.18-.2-.5.05-4.07-2.49-.13-.3-.3.1-.3-.29-.1.07-.13-.23.13-.2.14.14-.15-.38-.14-.04-.08-.2-.14.2-.19.04v-.19l.27-.09.01-.23-.12-.14-.25.08-.03.19-.26.07.2.14-.13.15-.39-.08.06-.18.23-.24-.14-.18-.27-.13-.27.18.14-.3.37-.2-.17-.43-.24.23-.2-.15.1-.25-.17-.06-.42.2-.14-.1-.22.1-.2-.08.2-.42-.3-.03-1.19.08-.3.45-2.6.91-1.92.64-.63.15-.11-2.33-.13-2.07h-.15l-.03-.58.15-.01-.03-.63-.27-.1-.44-.54-.18-.07-.04-.31-.25.1-.28-.2-.15.1.04-.42.24-.2-.12-.51-.23-.32-.63-.23.18-.28.28-.53.14-.1-.04-.28-.48-.49.23.01.45-.35.24.18.17-.14.16.19.35-.1.19-.33.44-.06-.05-.26.08-.34.12-.07-.07-.39.13-.04.1-.53-.08-.63.4-.06.07-.12-.1-.26.09-.3.16.08.6-.14.31-.56.14-.15-.11-.78 3.1-2.25-.22-.4-.65-2.78-.35-1.69.74-.7 1.12-1.67.54-.57 1.19-2.17.19.04.11.33.2.37.34.17.22.28.04.52.15.13.54.22.19.02.59.44.37.44.16.33-.05.3.14.51.17.34.28.2.2.28.28.58-.18.13-.03.38.3.08.19-.06.16-.23.74.05.24.1.23-.23.08-.4.2.2.24.06.5-.48.09.04.17-.57.36-.04.33-.16.6-.7 1.15-1.43 1.72-3.14.11-.05.27.13.34-.13.72.15.4.18.3-.2.21.36.2-.02-.06-.28.12.05.08.54.11-.1v-.33l.24-.09-.13-.28.25-.63.79-1.07 1.92.82 2.27-1.57.24-.09.52-.43 1.8-1.01.15.21.19-.16.02.4.17.15.61-.05v.18l.26.15.01.16.2.08-.06.26.19.06.04.28.3.5-.15.26.1.22.41.05.3.16.4.04.23-.06.13.24.18-.22.24.06.26.28.25-.17.74.4.18.18" fill="#d1dbdd" stroke="rgb(209, 219, 221)" stroke-width="0.1" data-originalStrokeWidth="0.1" style="stroke: rgb(0, 0, 0); fill: rgb(209, 219, 221); pointer-events: auto; stroke-width: 0.1;" pointer-events="auto"/>
      <g id="state_lines" stroke="rgb(209, 219, 221)" style="display: none; stroke: rgb(0, 0, 0);" stroke-width="0.1"/>
      <g id="state_abbr" fill="#000000" style="display: none; fill: rgb(0, 0, 0);">
        <text id="HI_label" x="491.79" y="769.82" style="font-size: 19.2455px; stroke-width: 1.60379; display: none;">
          <tspan id="HI_tspan" x="491.79" y="769.82" fill="#000000" dy="0" font-family="Arial" font-size="24.06" font-style="normal" font-weight="400" style="text-align: center; stroke-width: 2.57215; fill: rgb(0, 0, 0);" text-anchor="middle">HI</tspan>
        </text>
        <text id="AK_label" x="205.24" y="672.25" style="font-size: 19.2455px; stroke-width: 1.60379; display: none;">
          <tspan id="AK_tspan" x="205.24" y="672.25" fill="#000000" dy="0" font-family="Arial" font-size="24.06" font-style="normal" font-weight="400" style="text-align: center; stroke-width: 2.57215; fill: rgb(0, 0, 0);" text-anchor="middle">AK</tspan>
        </text>
        <text id="FL_label" x="1188.11" y="708.7" style="font-size: 19.2455px; stroke-width: 1.60379; display: none;">
          <tspan id="FL_tspan" x="1188.11" y="708.7" fill="#000000" dy="0" font-family="Arial" font-size="24.06" font-style="normal" font-weight="400" style="text-align: center; stroke-width: 2.57215; fill: rgb(0, 0, 0);" text-anchor="middle">FL</tspan>
        </text>
        <text id="NH_label" x="1306.05" y="167.79" stroke-width="1.1" font-size="13.25" style="display: none;">
          <tspan id="NH_tspan" x="1306.05" y="167.79" fill="#000000" stroke-width="1.1" dy="0" font-family="Arial" font-size="16.56" font-style="normal" font-weight="400" style="text-align: center; fill: rgb(0, 0, 0);" text-anchor="middle">NH</tspan>
        </text>
        <text id="MI_label" x="1019.65" y="246.58" style="font-size: 19.2455px; stroke-width: 1.60379; display: none;">
          <tspan id="MI_tspan" x="1019.65" y="246.58" fill="#000000" dy="0" font-family="Arial" font-size="24.06" font-style="normal" font-weight="400" style="text-align: center; stroke-width: 2.57215; fill: rgb(0, 0, 0);" text-anchor="middle">MI</tspan>
        </text>
        <text id="VT_label" x="1274.28" y="145.01" stroke-width="1.05" font-size="12.65" style="display: none;">
          <tspan id="VT_tspan" x="1274.28" y="145.01" fill="#000000" stroke-width="1.05" dy="0" font-family="Arial" font-size="15.81" font-style="normal" font-weight="400" style="text-align: center; fill: rgb(0, 0, 0);" text-anchor="middle">VT</tspan>
        </text>
        <text id="ME_label" x="1338.99" y="105.14" stroke-width="1.45" font-size="17.36" style="display: none;">
          <tspan id="ME_tspan" x="1338.99" y="105.14" fill="#000000" stroke-width="1.45" dy="0" font-family="Arial" font-size="21.7" font-style="normal" font-weight="400" style="text-align: center; fill: rgb(0, 0, 0);" text-anchor="middle">ME</tspan>
        </text>
        <text id="RI_label" x="1361.38" y="262.84" stroke-width="1.25" font-size="14.98" style="display: none;">
          <tspan id="RI_tspan" x="1361.38" y="262.84" fill="#000000" stroke-width="1.25" dy="0" font-family="Arial" font-size="18.72" font-style="normal" font-weight="400" style="text-align: center; fill: rgb(0, 0, 0);" text-anchor="middle">RI</tspan>
        </text>
        <text id="NY_label" x="1227.27" y="204.12" style="font-size: 19.2455px; stroke-width: 1.60379; display: none;">
          <tspan id="NY_tspan" x="1227.27" y="204.12" fill="#000000" dy="0" font-family="Arial" font-size="24.06" font-style="normal" font-weight="400" style="text-align: center; stroke-width: 2.57215; fill: rgb(0, 0, 0);" text-anchor="middle">NY</tspan>
        </text>
        <text id="PA_label" x="1187.28" y="284.69" style="font-size: 19.2455px; stroke-width: 1.60379; display: none;">
          <tspan id="PA_tspan" x="1187.28" y="284.69" fill="#000000" dy="0" font-family="Arial" font-size="24.06" font-style="normal" font-weight="400" style="text-align: center; stroke-width: 2.57215; fill: rgb(0, 0, 0);" text-anchor="middle">PA</tspan>
        </text>
        <text id="NJ_label" x="1330.57" y="290.09" stroke-width="1.28" font-size="15.4" style="display: none;">
          <tspan id="NJ_tspan" x="1330.57" y="290.09" fill="#000000" stroke-width="1.28" dy="0" font-family="Arial" font-size="19.25" font-style="normal" font-weight="400" style="text-align: center; fill: rgb(0, 0, 0);" text-anchor="middle">NJ</tspan>
        </text>
        <text id="DE_label" x="1320.8" y="328.42" stroke-width="1.36" font-size="16.38" style="display: none;">
          <tspan id="DE_tspan" x="1320.8" y="328.42" fill="#000000" stroke-width="1.36" dy="0" font-family="Arial" font-size="20.47" font-style="normal" font-weight="400" style="text-align: center; fill: rgb(0, 0, 0);" text-anchor="middle">DE</tspan>
        </text>
        <text id="MD_label" x="1310.72" y="368.46" stroke-width="1.34" font-size="16.11" style="display: none;">
          <tspan id="MD_tspan" x="1310.72" y="368.46" fill="#000000" stroke-width="1.34" dy="0" font-family="Arial" font-size="20.13" font-style="normal" font-weight="400" style="text-align: center; fill: rgb(0, 0, 0);" text-anchor="middle">MD</tspan>
        </text>
        <text id="VA_label" x="1198.59" y="392.33" style="font-size: 19.2455px; stroke-width: 1.60379; display: none;">
          <tspan id="VA_tspan" x="1198.59" y="392.33" fill="#000000" dy="0" font-family="Arial" font-size="24.06" font-style="normal" font-weight="400" style="text-align: center; stroke-width: 2.57215; fill: rgb(0, 0, 0);" text-anchor="middle">VA</tspan>
        </text>
        <text id="WV_label" x="1129.66" y="382.3" style="font-size: 19.2455px; stroke-width: 1.60379; display: none;">
          <tspan id="WV_tspan" x="1129.66" y="382.3" fill="#000000" dy="0" font-family="Arial" font-size="24.06" font-style="normal" font-weight="400" style="text-align: center; stroke-width: 2.57215; fill: rgb(0, 0, 0);" text-anchor="middle">WV</tspan>
        </text>
        <text id="OH_label" x="1079.05" y="334.46" style="font-size: 19.2455px; stroke-width: 1.60379; display: none;">
          <tspan id="OH_tspan" x="1079.05" y="334.46" fill="#000000" dy="0" font-family="Arial" font-size="24.06" font-style="normal" font-weight="400" style="text-align: center; stroke-width: 2.57215; fill: rgb(0, 0, 0);" text-anchor="middle">OH</tspan>
        </text>
        <text id="IN_label" x="998.79" y="352.94" style="font-size: 19.2455px; stroke-width: 1.60379; display: none;">
          <tspan id="IN_tspan" x="998.79" y="352.94" fill="#000000" dy="0" font-family="Arial" font-size="24.06" font-style="normal" font-weight="400" style="text-align: center; stroke-width: 2.57215; fill: rgb(0, 0, 0);" text-anchor="middle">IN</tspan>
        </text>
        <text id="IL_label" x="927.43" y="364.36" style="font-size: 19.2455px; stroke-width: 1.60379; display: none;">
          <tspan id="IL_tspan" x="927.43" y="364.36" fill="#000000" dy="0" font-family="Arial" font-size="24.06" font-style="normal" font-weight="400" style="text-align: center; stroke-width: 2.57215; fill: rgb(0, 0, 0);" text-anchor="middle">IL</tspan>
        </text>
        <text id="CT_label" x="1299.17" y="228.46" stroke-width="1.06" font-size="12.74" style="display: none;">
          <tspan id="CT_tspan" x="1299.17" y="228.46" fill="#000000" stroke-width="1.06" dy="0" font-family="Arial" font-size="15.93" font-style="normal" font-weight="400" style="text-align: center; fill: rgb(0, 0, 0);" text-anchor="middle">CT</tspan>
        </text>
        <text id="WI_label" x="898.6" y="224.7" style="font-size: 19.2455px; stroke-width: 1.60379; display: none;">
          <tspan id="WI_tspan" x="898.6" y="224.7" fill="#000000" dy="0" font-family="Arial" font-size="24.06" font-style="normal" font-weight="400" style="text-align: center; stroke-width: 2.57215; fill: rgb(0, 0, 0);" text-anchor="middle">WI</tspan>
        </text>
        <text id="NC_label" x="1205.6" y="458.72" style="font-size: 19.2455px; stroke-width: 1.60379; display: none;">
          <tspan id="NC_tspan" x="1205.6" y="458.72" fill="#000000" dy="0" font-family="Arial" font-size="24.06" font-style="normal" font-weight="400" style="text-align: center; stroke-width: 2.57215; fill: rgb(0, 0, 0);" text-anchor="middle">NC</tspan>
        </text>
        <text id="MA_label" x="1305.87" y="200.67" stroke-width="1.04" font-size="12.46" style="display: none;">
          <tspan id="MA_tspan" x="1305.87" y="200.67" fill="#000000" stroke-width="1.04" dy="0" font-family="Arial" font-size="15.58" font-style="normal" font-weight="400" style="text-align: center; fill: rgb(0, 0, 0);" text-anchor="middle">MA</tspan>
        </text>
        <text id="MO_label" x="854.22" y="422.93" style="font-size: 19.2455px; stroke-width: 1.60379; display: none;">
          <tspan id="MO_tspan" x="854.22" y="422.93" fill="#000000" dy="0" font-family="Arial" font-size="24.06" font-style="normal" font-weight="400" style="text-align: center; stroke-width: 2.57215; fill: rgb(0, 0, 0);" text-anchor="middle">MO</tspan>
        </text>
        <text id="GA_label" x="1106.89" y="574.56" style="font-size: 19.2455px; stroke-width: 1.60379; display: none;">
          <tspan id="GA_tspan" x="1106.89" y="574.56" fill="#000000" dy="0" font-family="Arial" font-size="24.06" font-style="normal" font-weight="400" style="text-align: center; stroke-width: 2.57215; fill: rgb(0, 0, 0);" text-anchor="middle">GA</tspan>
        </text>
        <text id="SC_label" x="1166.32" y="522.49" style="font-size: 19.2455px; stroke-width: 1.60379; display: none;">
          <tspan id="SC_tspan" x="1166.32" y="522.49" fill="#000000" dy="0" font-family="Arial" font-size="24.06" font-style="normal" font-weight="400" style="text-align: center; stroke-width: 2.57215; fill: rgb(0, 0, 0);" text-anchor="middle">SC</tspan>
        </text>
        <text id="KY_label" x="1039.99" y="426.39" style="font-size: 19.2455px; stroke-width: 1.60379; display: none;">
          <tspan id="KY_tspan" x="1039.99" y="426.39" fill="#000000" dy="0" font-family="Arial" font-size="24.06" font-style="normal" font-weight="400" style="text-align: center; stroke-width: 2.57215; fill: rgb(0, 0, 0);" text-anchor="middle">KY</tspan>
        </text>
        <text id="AL_label" x="1019.59" y="578.15" style="font-size: 19.2455px; stroke-width: 1.60379; display: none;">
          <tspan id="AL_tspan" fill="#000000" dy="0" font-family="Arial" font-size="24.06" font-style="normal" font-weight="400" style="text-align: center; stroke-width: 2.57215; fill: rgb(0, 0, 0);" text-anchor="middle">AL</tspan>
        </text>
        <text id="LA_label" x="872.7" y="649.59" style="font-size: 19.2455px; stroke-width: 1.60379; display: none;">
          <tspan id="LA_tspan" x="872.7" y="649.59" fill="#000000" dy="0" font-family="Arial" font-size="24.06" font-style="normal" font-weight="400" style="text-align: center; stroke-width: 2.57215; fill: rgb(0, 0, 0);" text-anchor="middle">LA</tspan>
        </text>
        <text id="MS_label" x="940.37" y="592.21" style="font-size: 19.2455px; stroke-width: 1.60379; display: none;">
          <tspan id="MS_tspan" x="940.37" y="592.21" fill="#000000" dy="0" font-family="Arial" font-size="24.06" font-style="normal" font-weight="400" style="text-align: center; stroke-width: 2.57215; fill: rgb(0, 0, 0);" text-anchor="middle">MS</tspan>
        </text>
        <text id="IA_label" x="823.33" y="308.44" style="font-size: 19.2455px; stroke-width: 1.60379; display: none;">
          <tspan id="IA_tspan" x="823.33" y="308.44" fill="#000000" dy="0" font-family="Arial" font-size="24.06" font-style="normal" font-weight="400" style="text-align: center; stroke-width: 2.57215; fill: rgb(0, 0, 0);" text-anchor="middle">IA</tspan>
        </text>
        <text id="MN_label" x="790.84" y="183.37" style="font-size: 19.2455px; stroke-width: 1.60379; display: none;">
          <tspan id="MN_tspan" x="790.84" y="183.37" fill="#000000" dy="0" font-family="Arial" font-size="24.06" font-style="normal" font-weight="400" style="text-align: center; stroke-width: 2.57215; fill: rgb(0, 0, 0);" text-anchor="middle">MN</tspan>
        </text>
        <text id="OK_label" x="732.05" y="519.54" style="font-size: 19.2455px; stroke-width: 1.60379; display: none;">
          <tspan id="OK_tspan" x="732.05" y="519.54" fill="#000000" dy="0" font-family="Arial" font-size="24.06" font-style="normal" font-weight="400" style="text-align: center; stroke-width: 2.57215; fill: rgb(0, 0, 0);" text-anchor="middle">OK</tspan>
        </text>
        <text id="TX_label" x="710.59" y="652.87" style="font-size: 19.2455px; stroke-width: 1.60379; display: none;">
          <tspan id="TX_tspan" x="710.59" y="652.87" fill="#000000" dy="0" font-family="Arial" font-size="24.06" font-style="normal" font-weight="400" style="text-align: center; stroke-width: 2.57215; fill: rgb(0, 0, 0);" text-anchor="middle">TX</tspan>
        </text>
        <text id="NM_label" x="506.94" y="542.36" style="font-size: 19.2455px; stroke-width: 1.60379; display: none;">
          <tspan id="NM_tspan" x="506.94" y="542.36" fill="#000000" dy="0" font-family="Arial" font-size="24.06" font-style="normal" font-weight="400" style="text-align: center; stroke-width: 2.57215; fill: rgb(0, 0, 0);" text-anchor="middle">NM</tspan>
        </text>
        <text id="KS_label" x="701.21" y="427.26" style="font-size: 19.2455px; stroke-width: 1.60379; display: none;">
          <tspan id="KS_tspan" x="701.21" y="427.26" fill="#000000" dy="0" font-family="Arial" font-size="24.06" font-style="normal" font-weight="400" style="text-align: center; stroke-width: 2.57215; fill: rgb(0, 0, 0);" text-anchor="middle">KS</tspan>
        </text>
        <text id="NE_label" x="686.63" y="337.29" style="font-size: 19.2455px; stroke-width: 1.60379; display: none;">
          <tspan id="NE_tspan" x="686.63" y="337.29" fill="#000000" dy="0" font-family="Arial" font-size="24.06" font-style="normal" font-weight="400" style="text-align: center; stroke-width: 2.57215; fill: rgb(0, 0, 0);" text-anchor="middle">NE</tspan>
        </text>
        <text id="SD_label" x="663.02" y="238.75" style="font-size: 19.2455px; stroke-width: 1.60379; display: none;">
          <tspan id="SD_tspan" x="663.02" y="238.75" fill="#000000" dy="0" font-family="Arial" font-size="24.06" font-style="normal" font-weight="400" style="text-align: center; stroke-width: 2.57215; fill: rgb(0, 0, 0);" text-anchor="middle">SD</tspan>
        </text>
        <text id="ND_label" x="663.02" y="150.75" style="font-size: 19.2455px; stroke-width: 1.60379; display: none;">
          <tspan id="ND_tspan" x="663.02" y="150.75" fill="#000000" dy="0" font-family="Arial" font-size="24.06" font-style="normal" font-weight="400" style="text-align: center; stroke-width: 2.57215; fill: rgb(0, 0, 0);" text-anchor="middle">ND</tspan>
        </text>
        <text id="WY_label" x="499.57" y="276.47" style="font-size: 19.2455px; stroke-width: 1.60379; display: none;">
          <tspan id="WY_tspan" x="499.57" y="276.47" fill="#000000" dy="0" font-family="Arial" font-size="24.06" font-style="normal" font-weight="400" style="text-align: center; stroke-width: 2.57215; fill: rgb(0, 0, 0);" text-anchor="middle">WY</tspan>
        </text>
        <text id="MT_label" x="487.84" y="155.58" style="font-size: 19.2455px; stroke-width: 1.60379; display: none;">
          <tspan id="MT_tspan" x="487.84" y="155.58" fill="#000000" dy="0" font-family="Arial" font-size="24.06" font-style="normal" font-weight="400" style="text-align: center; stroke-width: 2.57215; fill: rgb(0, 0, 0);" text-anchor="middle">MT</tspan>
        </text>
        <text id="CO_label" x="525.13" y="406.28" style="font-size: 19.2455px; stroke-width: 1.60379; display: none;">
          <tspan id="CO_tspan" x="525.13" y="406.28" fill="#000000" dy="0" font-family="Arial" font-size="24.06" font-style="normal" font-weight="400" style="text-align: center; stroke-width: 2.57215; fill: rgb(0, 0, 0);" text-anchor="middle">CO</tspan>
        </text>
        <text id="ID_label" x="339.94" y="235.07" style="font-size: 19.2455px; stroke-width: 1.60379; display: none;">
          <tspan id="ID_tspan" x="339.94" y="235.07" fill="#000000" dy="0" font-family="Arial" font-size="24.06" font-style="normal" font-weight="400" style="text-align: center; stroke-width: 2.57215; fill: rgb(0, 0, 0);" text-anchor="middle">ID</tspan>
        </text>
        <text id="UT_label" x="396.81" y="386.73" style="font-size: 19.2455px; stroke-width: 1.60379; display: none;">
          <tspan id="UT_tspan" x="396.81" y="386.73" fill="#000000" dy="0" font-family="Arial" font-size="24.06" font-style="normal" font-weight="400" style="text-align: center; stroke-width: 2.57215; fill: rgb(0, 0, 0);" text-anchor="middle">UT</tspan>
        </text>
        <text id="AZ_label" x="366.76" y="536.9" style="font-size: 19.2455px; stroke-width: 1.60379; display: none;">
          <tspan id="AZ_tspan" x="366.76" y="536.9" fill="#000000" dy="0" font-family="Arial" font-size="24.06" font-style="normal" font-weight="400" style="text-align: center; stroke-width: 2.57215; fill: rgb(0, 0, 0);" text-anchor="middle">AZ</tspan>
        </text>
        <text id="NV_label" x="262.47" y="370.64" style="font-size: 19.2455px; stroke-width: 1.60379; display: none;">
          <tspan id="NV_tspan" x="262.47" y="370.64" fill="#000000" dy="0" font-family="Arial" font-size="24.06" font-style="normal" font-weight="400" style="text-align: center; stroke-width: 2.57215; fill: rgb(0, 0, 0);" text-anchor="middle">NV</tspan>
        </text>
        <text id="OR_label" x="214.43" y="206.88" style="font-size: 19.2455px; stroke-width: 1.60379; display: none;">
          <tspan id="OR_tspan" x="214.43" y="206.88" fill="#000000" dy="0" font-family="Arial" font-size="24.06" font-style="normal" font-weight="400" style="text-align: center; stroke-width: 2.57215; fill: rgb(0, 0, 0);" text-anchor="middle">OR</tspan>
        </text>
        <text id="WA_label" x="238.05" y="102.99" style="font-size: 19.2455px; stroke-width: 1.60379; display: none;">
          <tspan id="WA_tspan" x="238.05" y="102.99" fill="#000000" dy="0" font-family="Arial" font-size="24.06" font-style="normal" font-weight="400" style="text-align: center; stroke-width: 2.57215; fill: rgb(0, 0, 0);" text-anchor="middle">WA</tspan>
        </text>
        <text id="CA_label" x="191.69" y="434.8" style="font-size: 19.2455px; stroke-width: 1.60379; display: none;">
          <tspan id="CA_tspan" x="191.69" y="434.8" fill="#000000" dy="0" font-family="Arial" font-size="24.06" font-style="normal" font-weight="400" style="text-align: center; stroke-width: 2.57215; fill: rgb(0, 0, 0);" text-anchor="middle">CA</tspan>
        </text>
        <text id="DC_label" x="1309.32" y="398.19" stroke-width="1.29" font-size="15.45" style="display: none;">
          <tspan id="DC_tspan" x="1309.32" y="398.19" fill="#000000" stroke-width="1.29" dy="0" font-family="Arial" font-size="19.31" font-style="normal" font-weight="400" style="text-align: center; fill: rgb(0, 0, 0);" text-anchor="middle">DC</tspan>
        </text>
        <text id="TN_label" x="1018.93" y="485.72" style="font-size: 19.2455px; stroke-width: 1.60379; display: none;">
          <tspan id="TN_tspan" x="1018.93" y="485.72" fill="#000000" dy="0" font-family="Arial" font-size="24.06" font-style="normal" font-weight="400" style="text-align: center; stroke-width: 2.57215; fill: rgb(0, 0, 0);" text-anchor="middle">TN</tspan>
        </text>
        <text id="AR_label" x="863.15" y="535.77" style="font-size: 19.2455px; stroke-width: 1.60379; display: none;">
          <tspan id="AR_tspan" x="863.15" y="535.77" fill="#000000" dy="0" font-family="Arial" font-size="24.06" font-style="normal" font-weight="400" style="text-align: center; stroke-width: 2.57215; fill: rgb(0, 0, 0);" text-anchor="middle">AR</tspan>
        </text>
      </g>
      <g id="state_borders" transform="translate(-0.04777967,-0.15336683)" stroke="rgb(209, 219, 221)" style="stroke: rgb(0, 0, 0);" stroke-width="0.3">
        <path id="KY_VA_border" d="m1077.08 440.53.53-.8 2.43-1.53.2-.3.9-.36h1l.76-.23.82-.76 1.8-1.14.45-.17 2.15-1.22 1.4-.4.17-.61-.32-.65.3-.25.37-.86-.16-.46.58-.5-.01-.42 1.1-.24.56.14.15-.32.68-.17 2.04-1.38-.06-.6.3-.62-.05-.87-.42-.74.8-.66-.02-.4 1.13-.28.77-1.28.46-.16-.27-.85-.17-1.5 1.54-1.31.43-.16.84-1.08.9-.86.69-.42.43-.56 1.1-.74 2.26-1.2.12-.47.55-.55 3.85-5.04 3.12-4.22" stroke="rgb(209, 219, 221)" stroke-width="0.3" fill="none" style="stroke: rgb(0, 0, 0); display: none;"/>
        <path id="KY_WV_border" d="m1113.28 403.34-.1-.26-.84.59-.98-.24.12.57-.53-.17-.33-.5-.8-.01-.65.35-.3-.5.37-.27-.3-.5-.58.14-.35-.8-.28.1-.14-.88-.38.16.2.46-.62.23-.18-.5-.7-.51-.36.24-1.05-.5-.2-.74-.71-.85-.43-.24.44-.72-.6-.01-.27-.58-.96-.32-.38-.46-.31.25-.05-.56-.61-.45-.21-1.16-1.34-.7v.48l-.41-.8-.53-.1.57-.96-.3-.07.35-.72-.5.07-.2-.44-.74.08-.3-.77-.9-1.25-.91-.47-.13-.5-1.44-.76-.23-1 .67-.12.14-.87-.1-.64-.45-.46.06-.38.5-.1.17-.61-.38-1.13-.04-.87-.62-.42-.35-2.43" stroke="rgb(209, 219, 221)" stroke-width="0.3" fill="none" style="stroke: rgb(0, 0, 0); display: none;"/>
        <path id="KY_MO_border" d="m940.5 449.05.37-.04.52.5.04.66-.2 1.83-.33 1.32-.86.33.03 1.05.6.5.68-.04.35.35-.15.78-1.04-.13-.7.75.07.73.85.77-.02.52.36.16-.83 1.3v.87l-.51 1.08-.75.23-1-.8-.95-1.11-.72.22-.43.44-.06 1.06-.54 2.75" stroke="rgb(209, 219, 221)" stroke-width="0.3" fill="none" style="stroke: rgb(0, 0, 0); display: none;"/>
        <path id="KY_IL_border" d="m964.37 419.84-.24 1.06-.4.97-1.35 1.2-.64 1.44.1.76.88 2 .76.47.53.6.5.26.28.9-.38.78-1.3.22-.96.37-2.56.7-.7.48-1.06 1.35-1.25-.55-1.1.68-.4.75-.07 1.53-.48 1.83.24.66.7.6.4.6.66.45.79 1.55-.54 2.58-1.5.46-1.34-.3-.13-.3-.95-.61-2-.6h-1.11l-1.98-1.17-3.27-.85-1.06.07-1.3.75-1 1.27-.32.65-.32 1.24-.95 1.07-.42.9-.08.82.53 1.02.92.56" stroke="rgb(209, 219, 221)" stroke-width="0.3" fill="none" style="stroke: rgb(0, 0, 0); display: none;"/>
        <path id="KY_IN_border" d="m964.36 419.83.3-.13 1 .32.47.4.38-.11.19-.75.59-.4-.38-1.3-.6-.5-.14-.7.66-1.2.28-.13.73.32 1 1.09.88-.08.74-.6 1.24-.27.6-.4.5.26.07.44-.3.8.34.82h.67l.72-.3.5-.92-.05-.84-.91-.6-.28-.6.44-.74.03-.73.4-.15.28.68.74.75 1.06.47 1-1.03.62-.41 1.3.02 1.1.68.65.1 1.04.5 1.63.93 1.4.06.67.7.43.9.47.05.92-.73.35-2.21-.17-.8.7-.88.74-.5 1.28-.34.53-.43.93-1.45.74-.48.72.2.54 1 .9 1.23.57.52h.3l.7-.74.9-.06.2.48-.26 1.26.17.37.49-.02.86-.93-.22-1.23.2-.5 1.34-.06.57-.71-.58-.93-.28-1.86.1-.5 1.55-.5.4-.58-.13-.62-.64-.2-.27-.55.34-.46h.5l.78.55.52-.94.85-.02.38-.7-.21-.2-.95-.06-.32-.3-.02-.68.62-.16.85.58.8.38.54.8-.06.96.49 1.32 1.27.73 1.17.4 1.14-.36h.6l.77.44.79 1 .37-.2.06-.96 1.85-.62.45-.61.15-2.2-.3-1.38-.08-1.28.43-1.01.58-.7.23-.6-.06-.8.4-.61.7-.32.69.43.5.03 1.27-1.08.54-1 .2-1.31-.02-1.02.2-1.02.66-.88 1.44-.47.57-.44.55-1.46.97-.86v-1l-.83-1.4-.21-1.5-.52-.64-.06-.83.3-.7.57-.37.94.05 1.55-.6.9-.11.57.18 1 1 1 .07.79-.51 1.35-1.56 1.32-1.04.4-.45 1.43-.2 1-.72 1.25.12.57-.36-.63-1.12.82-1.22-.05-.57-.38-.21-1.73-.01-.3-.46.14-.45.7-1.04-.2-.93-1.77-1.81.13-.44.6-.5.82-1" stroke="rgb(209, 219, 221)" stroke-width="0.3" fill="none" style="stroke: rgb(0, 0, 0); display: none;"/>
        <path id="KY_OH_border" d="m1035.64 367.06.8-.54.55-1.02.92.16.85.9 1.02.25.5.38.76-.04.64-.37.42-.62h1.02l.79-1.03.63.1.4.59.28 1.13.6.3 1.14-.06.88.29.64.56.67 1.52 1.63 1.73.47 2.08.52.56 1.42.1 2.16.4.66-.1 1.47-.8.86-.04.43.3 1.74.17.64 1.02 1.52.57.48 1.12 1.3.13 1.37.36.48-.37.03-1.01.18-.4 1.75-.95.65-.26.9.25.52.39 2.54.07 1.22.69.23.64.64.29.65-.96.48-.3.96.2 1.38-.5.28-1.17.37-.65 1.07-.8.32-.96.48-.3.79-.02.77-.7 1.08-.65.39.1.37.7.04 1.22.48.58.46 1.48.35.75 1.32.79 1.83-.2.97.55 1.03 1.05 1.16.5.33.42.48 1.13" stroke="rgb(209, 219, 221)" stroke-width="0.3" fill="none" style="stroke: rgb(0, 0, 0); display: none;"/>
      </g>
      <rect id="selection-rectangle" fill="#ffffccaa" stroke="rgb(209, 219, 221)" stroke-width="0.1"/>
      <ellipse id="selection-ellipse" fill="#ffffccaa" stroke="rgb(209, 219, 221)" stroke-width="0.1"/>
      <polygon id="selection-polygon" fill="#ffffccaa" stroke="rgb(209, 219, 221)" stroke-width="0.1"/>
      <polyline id="selection-polyline" fill="#ffffccaa" stroke="rgb(209, 219, 221)" stroke-width="0.1"/>
    </svg>
  </g>
  <svg id="legend-svg" width="100%" height="100%" style="overflow:visible;" class="ui-draggable ui-draggable-handle" x="1328.321548461914" y="504">
    <g id="legend-g-svg" fill="#000" transform="translate(0,0) scale(1)" style="font-family: Helvetica; font-weight: 400; font-style: normal;">
      <rect id="legend-bg-rect-svg" x="0" y="0" rx="3.8" ry="3.8" width="190" height="20" fill="#000000" stroke="rgb(209, 219, 221)" fill-opacity="0" stroke-width="0.1"/>
    </g>
  </svg>
</svg>
