<?xml version='1.0' encoding='UTF-8'?>
<svg xmlns="http://www.w3.org/2000/svg" xmlns:dc="http://purl.org/dc/elements/1.1/" xmlns:ns2="http://creativecommons.org/ns#" xmlns:rdf="http://www.w3.org/1999/02/22-rdf-syntax-ns#" id="wrapper" viewBox="0 0 1520 840" preserveAspectRatio="xMinYMin" height="840" width="1520" style="background-color: rgb(255, 255, 255);">
  <metadata>
    <rdf:rdf>
      <ns2:work rdf:about="">
        <dc:format>image/svg+xml</dc:format>
        <dc:type rdf:resource="http://purl.org/dc/dcmitype/StillImage"/>
        <dc:title>MapChart Map</dc:title>
        <dc:creator>
          <ns2:agent>
            <dc:title>MapChart.net</dc:title>
          </ns2:agent>
        </dc:creator>
        <ns2:license rdf:resource="http://creativecommons.org/licenses/by-sa/4.0/"/>
        <dc:description>This map was created with MapChart.net, a website for creating custom maps.</dc:description>
      </ns2:work>
      <ns2:license rdf:about="http://creativecommons.org/licenses/by-sa/4.0/">
        <ns2:permits rdf:resource="http://creativecommons.org/ns#Reproduction"/>
        <ns2:permits rdf:resource="http://creativecommons.org/ns#Distribution"/>
        <ns2:requires rdf:resource="http://creativecommons.org/ns#Notice"/>
        <ns2:requires rdf:resource="http://creativecommons.org/ns#Attribution"/>
        <ns2:requires rdf:resource="http://creativecommons.org/ns#ShareAlike"/>
      </ns2:license>
    </rdf:rdf>
  </metadata>
  <g id="map-group" transform="translate(-4788.632349720154,-3527.4898280394573) scale(6.151851544654959)">
    <svg id="map" width="1520" height="840" version="1.1" viewBox="0 0 1520 840" preserveAspectRatio="xMinYMin" data-originalStrokeWidth="0.3">
      <defs>
        <pattern id="circles3" width="10" height="10" patternUnits="userSpaceOnUse">    <rect width="10" height="10" fill="#fff"/>    <circle cx="4" cy="4" r="2" fill="#000"/>    </pattern>
        <pattern id="diagonal1" width="10" height="10" patternUnits="userSpaceOnUse">    <rect width="10" height="10" fill="#fff"/>    </pattern>
        <pattern id="diagonal3" width="10" height="10" patternUnits="userSpaceOnUse">    <rect width="10" height="10" fill="#fff"/>    </pattern>
        <pattern id="vertical1" width="10" height="10" patternUnits="userSpaceOnUse">    <rect width="10" height="10" fill="#fff"/>    <rect x="2" y="0" width="1" height="10" fill="#000"/>    </pattern>
        <pattern id="vertical3" width="10" height="10" patternUnits="userSpaceOnUse">    <rect width="10" height="10" fill="#fff"/>    <rect x="2" y="0" width="3" height="10" fill="#000"/>    </pattern>
        <pattern id="horizontal1" width="10" height="10" patternUnits="userSpaceOnUse">    <rect width="10" height="10" fill="#fff"/>    <rect x="0" y="2" width="10" height="1" fill="#000"/>    </pattern>
        <pattern id="horizontal3" width="10" height="10" patternUnits="userSpaceOnUse">    <rect width="10" height="10" fill="#fff"/>    <rect x="0" y="2" width="10" height="3" fill="#000"/>    </pattern>
        <pattern id="crosshatch" width="8" height="8" patternUnits="userSpaceOnUse">    <rect width="8" height="8" fill="#fff"/>    </pattern>
        <pattern id="subtlepatch" width="5" height="5" patternUnits="userSpaceOnUse">    <rect width="5" height="5" fill="#fff"/>    <rect x="2" y="2" width="1" height="1" fill="#000"/>    </pattern>
        <pattern id="checkers" width="8" height="8" patternUnits="userSpaceOnUse">    <rect width="8" height="8" fill="#fff"/>    </pattern>
        <pattern id="raindrops" width="10" height="10" patternUnits="userSpaceOnUse">    <rect width="10" height="10" fill="#fff"/>    </pattern>
        <pattern id="texture" width="4" height="4" patternUnits="userSpaceOnUse">    <rect width="4" height="4" fill="#fff"/>    </pattern>
        <pattern id="circles3_a03500_000000" width="10" height="10" patternUnits="userSpaceOnUse">    <rect width="10" height="10" fill="#a03500"/>    <circle cx="4" cy="4" r="2" fill="#000000"/>    </pattern>
        <pattern id="diagonal1_d9b400_535353" width="10" height="10" patternUnits="userSpaceOnUse">    <rect width="10" height="10" fill="#d9b400"/>    </pattern>
        <pattern id="diagonal3_3264c8_ffffff" width="10" height="10" patternUnits="userSpaceOnUse">    <rect width="10" height="10" fill="#3264c8"/>    </pattern>
        <pattern id="horizontal1_72b38e_000000" width="10" height="10" patternUnits="userSpaceOnUse">    <rect width="10" height="10" fill="#72b38e"/>    <rect x="0" y="2" width="10" height="1" fill="#000000"/>    </pattern>
        <pattern id="horizontal3_986ba1_ffffff" width="10" height="10" patternUnits="userSpaceOnUse">    <rect width="10" height="10" fill="#986ba1"/>    <rect x="0" y="2" width="10" height="3" fill="#ffffff"/>    </pattern>
        <pattern id="vertical1_b9a087_ffffff" width="10" height="10" patternUnits="userSpaceOnUse">    <rect width="10" height="10" fill="#b9a087"/>    <rect x="2" y="0" width="1" height="10" fill="#ffffff"/>    </pattern>
        <pattern id="vertical3_4c91bf_ffff33" width="10" height="10" patternUnits="userSpaceOnUse">    <rect width="10" height="10" fill="#4c91bf"/>    <rect x="2" y="0" width="3" height="10" fill="#ffff33"/>    </pattern>
        <pattern id="checkers_cc3333_f7f7f7" width="8" height="8" patternUnits="userSpaceOnUse">    <rect width="8" height="8" fill="#cc3333"/>    </pattern>
        <pattern id="texture_d1dbdd_525252" width="4" height="4" patternUnits="userSpaceOnUse">    <rect width="4" height="4" fill="#d1dbdd"/>    </pattern>
        <style id="map-style">svg { background-color: #ffffff; }</style>
      </defs>
      <path id="LA02" d="m902.05 658.6-1.1.12v.03l-.81.35.07.16-.72.09-.05-.44-3.14.33.02.16.28.32.2.13.3.03.8.7.07.14.16.03.1.23-.04.19.16.27.2.15-.03.22.11.15.08.22-.06.52-.37.23-.09.23.64.26-.03.16.11.32-.05.26.25.6.52.58.42.34.07.1-.06.21.11.3.37.24.36.14h.46l.42-.08.58-.04.51.08.4.15-.11.36-.12.16-.07.25.05.2.2.15.16.04.15.16-.01.17.18.42.06.54-.1.2.34.32-.02.2-.2.36.05.12.2.2 2.01-.22v.1l.32.1.08.27.13.11.12.28-.06.23.17.3.4-.21.28-.08.11.07 1.8-.23.14.12.03.13.26.3.33.24h.16l.2-.38.11-.03.11.13.03.19-.18.77-.09.2-.23.07-.23-.01-.16.05.04.45.1.16.1.35.12.18.01.14.14.01-.02.18.3.35.19.07.07.22-.02.32.2.15.32.12.24.3.02.32.2.43.08.3.4.37.13.06.52.05.38.13.46-.07.14.06.23.19h.26l.14.19.21.14.23.38-.12.4-.01.13.13.19-.1.18.36.5-.09.59-.23.05-.05.1.29.99.16.17-.08.24.05.3.03.63-.1.35.03.1.42.1.2.17.03.13 1.85-3.2.41-.74.74-1.57.47-1.24.11.02.51.16.7.12.21.06.6.24-.1.28-.44-.19-.4.96.51.22.76.15.1-.13.28-.2-.04-.33.2-.1.27.03.02-.2-.24-.14-.2-.31.1-1.28-.16.03-.29-.08-.43-.17-.47-.1-.09-.17.08-.1-.03-.23-.67.08-.13-1.04 2.67-.4-.06-.43.19-.03.1.12.48.08.25.13.27.07.43-.13.17.13.02.17.22-.04-.03-.1.24-.12.09.07.19-.15.07.16.12.02.1.16.17-.03.18.09.35-.05.11-.09.4-.14.28-.03.23.1.13-.03.1.23.16-.09.23-.26 1.08-.15h.44l.23.2.17.28.26.27.16.02.3-.09.27.15.12.17.18.16.02.25.15.3v.25l.09.26.23.24.3.2.32.13.5.37.3-.02.27.08.1-.08.38.16.32.03.25.15.08.4.3.21-.03.22.1.2.04.52.25.27.22.11.79-.07.32-.06 2.05-.24.46-1.88.58-1.74.07-.11-.06-.2.08-.12-.2-.25.13-.06.07-.15-.11-.24.29-.14.63-.39.28-.06-.04.18h.17l.2-.15.05.24-.1.02.1.23-.12.03.41.49.02.16-.41.35-.1.13.05.16.33.31.27.1h.32l.24.12.22-.06.29-.4-.17-.2-.24-.46.06-.5-.05-.16.24-.27.17-.06.18-.13.09-.15.16-.08.17-.2.07-.27-.02-.2.28-.89.15-.08.38.2-.01-.48.23.06.16-.1.38.01.67.22.58.74.18-.07.15-.2.02-.22-.06-.2-.2-.34-.25-.31.1-.13-.14-.13.15-.25-.3-.22-.2-.07h-.29l-.34.07-.16-.04.18-.51h.04l.3-1.03-.2.11-.02.13-.18-.04.1-.59-.08-.37-.05-.42.3-.17.06.3.2-.15.31-.43.2-.14.4-.4-.12-.14-.15.02-.2-.25-.67-.37-.32.56-.14.16-.08-.36-.12-.1-.27.3-.46.45-.4.3-.52.34-.1.01-.22-.15-.03-.1-.2-.15.05.58-.15.1-.25-.1-.3.1-.4.1-.01.14.12.18-.33.06v.45l.1.17-.11.54.04.16-.05.17-.17.05-.4-.24-.01.14-.1.11-.23-.02-.01.11-.97.04.03.37.27-.03-.02-.22.66-.03-.05.14-.2.06.1.36.16.12-.1.13.23.13.28-.54.25.1-.07.1-.05.57.3.02.41-.36.25.3-.22.18h-.22l-.36.09-.18-.09-.02.26-.1.02-.03.18-.29-.06-.19-.16-.09-.6-.06-.28-.14-.17-.18-.05-.16.1-.17.17-.41.54-.38.31-.23.09-.24-.08-.23-.36-.34-.59-.1-.05.17-.44.46-.02-.16-.33-.2-.01-.1.24-.28.02-.15-.13-.23-.02.08-.61-.12-.26-.45.1-.08-.2-.1.06.09.17-.2.04-.1.16.1 1.05.04.14-.38.28-.14.2-.17-.4-.13.08-.62.68.1.39h-.54l-.5-.1-.54-.27-.16-.2-.1-.57-.14-.2-.18-.11-.38-.1-.55.06h-.35l-.4-.06-.2-.27-.06-.69.63-.13.96-1.68 1.38-1.33.17-.26.2-.51.12-.23.14-.06.96-.32.63-.25.46-.25.54-.26 1.07-.45.58-.2v-.44l-.2-.74-.1-.18-3.97-1.36-.3.02-.2-.09-.37.16-.45.01-.3.24-.23.24-.28-.05-.45.07-.28.18-.26.08-.99.21-.73.1-.33.84-.1.67-.16.3-.52.62-.4.3-.35.05-.28-.02-.4-.22-.2-.28-.22-.02-.11.1-.22-.12-.38-.02-.06 1.71-3.04 1.1-.64-.12-1.05-.07-1.4-.25-.21.35.04.17-.12.15-.14-.13.1-.26-.11-.09.16-.27-.97-.4v-.08l.21-.21.08.01-.05-.4.59-.1-.66-.45-.14-1.01-.45.06-.09-.68-.13-.9-.67.09.06.45-.22.03.06.42-.29.06-.05.28-.14-.21-.2-.07-.36.01-.13-.27-.16-.2.04-.18.25.06.29-.13-.22-.12-.16.02.04-.18-.22-.23-.17.05-.23-.27-.02.18-.09.2-.24.28-.22.06-.36.02-.57-.06-.74.1-.36.19-.06.07-.35-.01-.1.05-.29-.17v-.1l-2.05.23-2.46.33-.3-.66-.5-.21-.81-.86-.86-.23-.05-.43-.57-.67-.04.02-1.19-1.2-.17.16z" fill="#d1dbdd" stroke="rgb(209, 219, 221)" stroke-width="0.1" data-originalStrokeWidth="0.1" style="stroke: rgb(0, 0, 0); stroke-width: 0.1;"/>
      <path id="LA03" d="m932.23 700.8.63.39 1.59.41.86.02.5-.2-.15-.1-1.14.05-1.43-.32zm3.37-7.26.13-.08-.08-.36.16-.28v-.1l.14-.35.14-.16-.04-.42.14-.24-.08-.25-.27-.39.08-.3-.04-.28.05-.19-.23-.55-.33-.3-.22-.14-.43-.12-.26-.28-.35-.29-.29-.19-.13-.2-.17-.13-.06-.17-.28-.47-.28-.11-.1-.11-.2-.02-.38-.39-.2-.02-.2-.24-.22-.12-.2-.22-.32-.16-.04-.3-.42-.45-.24-.11-.25.05-.26-.71-.37-.19-.42-.14-.5-.52-.11-.22q-.29.01-.52-.05a1.2 1.2 0 0 1-.82-.44c-.4-.35-.76-.81-1.17-1.2l-.35-.13-.29-.16-.27.05-.28-.09-.58-.45-.18-.39-.2-.32.13-.08.12-.35.6.16.52-.03.11-.08.14.08.46.1.34.04.25-.03.51-.11.43.07.47-.08.45.1.33.23.4-.53-.25-.2-.28-.13-.43-.13h-.2l-.24.06.1-.42-.03-.08.86.02.3-.06.29-.13.3-.22.84-.95.59.42.85-1.26-.23-.24-.08-.26-.01-.25-.15-.3-.02-.25-.19-.16-.1-.17-.29-.15-.3.1-.15-.03-.26-.27-.17-.29-.23-.2h-.44l-1.08.16-.23.26-.16.09-.1-.23-.13.04-.23-.1-.28.02-.4.14-.11.1-.35.04-.18-.09-.16.03-.1-.16-.13-.02-.07-.16-.2.15-.08-.07-.24.11.03.11-.22.04-.02-.17-.17-.13-.43.13-.27-.07-.25-.13-.48-.08-.1-.12-.2.03.07.43-2.67.4.13 1.04.67-.08.03.22-.08.11.1.17.45.1.44.17.3.08.14-.03-.09 1.28.2.31.24.15-.02.19-.27-.02-.2.09.04.34-.28.19-.1.13-.76-.15-.5-.22.39-.96.45.19.1-.28-.6-.24-.21-.06-.7-.12-.52-.16-.1-.02-.48 1.24-.74 1.57-.4.73-1.86 3.21-.03-.13-.2-.18-.42-.1-.03-.09.1-.35-.03-.63-.05-.3.08-.24-.16-.17-.3-1 .06-.1.23-.04.09-.6-.36-.49.1-.18-.13-.19v-.14l.13-.39-.23-.38-.21-.14-.14-.18-.27-.01-.22-.2-.14-.05-.46.07-.38-.13-.53-.05-.13-.06-.4-.37-.08-.3-.19-.43-.02-.32-.24-.3-.32-.12-.2-.15.02-.32-.07-.22-.2-.07-.29-.35.02-.18h-.14v-.15l-.12-.18-.12-.35-.1-.16-.03-.45.16-.05h.23l.23-.05.09-.21.18-.77-.03-.19-.1-.13-.13.03-.19.38h-.16l-.33-.23-.26-.31-.03-.13-.14-.12-1.8.23-.11-.07-.28.08-.4.21-.17-.3.06-.23-.12-.28-.13-.11-.08-.27-.32-.1v-.1l-2 .22-.22-.2-.04-.12.2-.37.02-.19-.34-.32.1-.2-.06-.54-.18-.42v-.17l-.14-.16-.17-.04-.2-.15-.04-.2.07-.25.12-.16.12-.36-.41-.15-.51-.08-.58.04-.42.09-.46-.01-.36-.14-.37-.25-.1-.29.05-.2-.07-.11-.42-.34-.52-.58-.25-.6.05-.26-.1-.32.02-.16-.64-.26.09-.23.37-.23.06-.52-.08-.22-.1-.15.02-.22-.2-.15-.16-.27.04-.2-.1-.22-.16-.03-.07-.15-.8-.7-.3-.02-.2-.13-.28-.32-.02-.16-1.46.16.1.39.12.2.21.22.1.4.16.16.37-.07.2.26.12.34.3.27.15.22.16.38.4.1.04.07-1.24.16-.72.07-1.6.19-.23-.15-.31-.07-.2-.1-.3.03-.1-.15-.3.02-.15-.12-1.56.82-.28.06-.18-.12-.26-.07-.26-.19-.31.12-.08.6.07.2-.15.4.29.1v.08l.67.01.13.35-.17.12.1.18-.02.17-.2.18-.04.13.14.33.2.14.28.94-.66.57.21.03.01.33.17.23.14.09.2-.08.23.05.02.32-.24.08-.1.4-.4.09-.2-.13-.34-.02-.2.12-.07.2-.35-.58-.1.16-.18.05-.2-.28-.02-.1-.8.1-.13-.22-.04-.36-.66.06-.16-1.33.56-.06-.03-.18-.25.02-.05-.35.26-.1-.01-.11.56-.06.03-.35-.1-.27-.1-.45.16-.65-.22-.06-.14.04-.26.39-.4.24-.05.3.06.35-.09.19-1.28 1.23-.06-.68-.45.05-.1-.9-.46.06-.31-2.67-1.8.2-.17-1.34-.73.08-4.23.46-1.64.16-2.47.26-1.23.11.03-.21-1.1.1-2.73.29.07.76v.22l.05.58-1.8.17-1.1.12-1.22.1-2.21.25h-.47l-.92.1.05.45-1.75.2.14 1.34 2.66-.25.23 2.22-.46.08v.13l-1 .1.05.34.11-.01.05.44-1.3.14-.03-.3.21-.1-.01-.22-.26-.1-.25.15-.19.15-.14-.16.03-.29-.18.11-.21-.16-.1.16.16.2-.03.27-.3-.11h-.36l.18.14-.1.11-.19-.26-.04-.18-.65.07-.02-.29-.24.03-.11.1.02.19-.32.03-.11.1-.1.32-.13.02-.06-.16-.18-.02-.15.12-.1-.18-.39.23-.27-.07-.15.22-.28.06.05.16.6 1.16.08.1-.86.1-.14.04.03.28.22-.02.04.36-1.22.13-.12.15.08.84 1.75-.16-.18.31.32.32.38.06.3-.04-.03-.27.44-.04.1.9.45-.04.1.88.69-.06.1.08.16-.02-.1-.98.28-.04.14-.26-.09-.88.46-.04.4 3.8-1.9.2-.95.1-.94.07-1.45.15-4.57.45-1.08.1-4.23.43v.02l-.1.04H843v-.03l-.25.03-.04.12-.25.3-.16.32-.03.35-.2.14-.25.18-.32.55-.4.2-.08.13-.14.47-.24.47-.08.33-.13.91-.3.78-.3.56-.18.28-.24.3-.33.28-.23.13-.58.45-.49.55-.11.3v.4l.08.23.12.13.68.37.23.32-.05.25.17.34.52.17.2.33.74.96.03.05.14-.2.47-.42.9-.52 1.08-.48 1.56-.44 1.25-.32 1.2-.2.56-.14 1.62-.37 1.06-.14.88-.05 1.34-.04 1.2.04 1.7-.54.9-.13 1-.02 1.02.08 2.76.48.36.06 1.5.36.12.16h.4l.76.15.87.32 2.4.93.4.12 1.68.7.43.03.14.12.47.23.44.13.9.18.49.19.7.16.27.02.15-.14.29.07.1.2.66.1.9.07-.25-.12.03-.13.34-.16.16.3-.02.13.73.1 1.75.1 1.07.18.37.13 1 .1 1.6.21.53-.13.55-.05.76-.25 1.36-.98.9-.48.58-.23 1.14-.2.77.08.21-.07.7-.04-.03-.23-.6.05-.15-.24.3-.32.41-.28.22-.06.73.05-.52-.25-.14-.22-.24.05-.18.24-.6.18-.4-.06-.3.18-.23-.06.11.27h-.14l-.2-.19-.46-.73-.03-.33-.3-.25v-.28l.82-.77-.04-.18-.9.07-.37.16-.4-.12-.1.02-.93-.72-.3-.6.13-.26.91.35.1-.2-.17-.06-.1-.34.3-.15.22.3.27-.18-.1-.16.2-.15.28.04.27.37-.04.28-.22.4-.37.23.02.28.14.01.72-.8.82-.7 1.25-.82.4-.15.5-.3.49-.12.14-.24-.27-.4.13-.4.3-.23.2.27.38.06.3.17.16-.19.44.06.2-.39.47-.2h.18l.57.21.45-.12.4-.03.02.23.21.27.07.37-.02.58-.08.13-.26.17-.2-.17-.2-.36-.05.4-.33.42v.18l-.25.18.06.26.48.02.14.14.02.34-.57.5-.05.17.29-.12.34.2 1.27-.9.94-.55.54-.2.42-.04.57.33.11.03.42-.22.68-.19.65-.03.58.08.2.16.17.47.03.42-.1.2.02.4-.06.16.08.37-.12.52-.16.24v.2l-.27.2.6.16.8-.26.48-.2.65.04.46 1.17.22.38.01.59.24.2.13.4-.2.46-.15.2.65-.18.54-.35.17.14-.28.2.43.18.1.7.31.13.45.72.55-.46.42-.24.17.1.27-.1.32-.33.07-.42.19.14.12-.23.58-.08v.52l.17-.23.06.18.33.25-.29.16-.26.37.04.06.5-.35.49-.14.08.16-.35.22.05.3-.4.12-.1.18.17.3-.06.16-.37.17.05.26h.13l.08-.25.24.05-.09.3.23-.04.2-.28.13.15-.15.4.14.7.53-.55.11.2.01-.42h.16l.43.28.15-.06.27-.32.3-.8-.04-.22.33.26-.03.17.2-.02v-.3l.2.1.34-.03.3.46-.14.43v.33l.38.03.18.14.1.44.17.13.36.08.08.1.46.03.32.22.02.26.48.07.2.22.02.35.2.17.08.3-.14.5-.17.34.16.22.18.05.15.39-.08.24-.19.12-.45-.07-.05.3-.25-.02-.42.22.16-.52.25-.12-.25-.04-.38-.34.2-.56-.1-.18v-.46l.16-.3-.29-.2-.7.7-.14-.28-.15.03-.25-.32-.22-.09-.06-.25-.46-.56.04-.5-.74.4-.24.63.06.31-.36.41.03.18-.15.18-.52.2-.7-.1.14.2.64.57.37.45.42.32.58.24 1.53.46.99.03.66-.08.53.11.18-.1.51.28.54.5.44-.03.42.22.18-.1.14-.22.12-.45.2-.15.2.27h.14l.04.4.2.23.26-.06.03.18.28.05.26-.12.22.04.56-.4.26.02.1.2.34.16-.03.13.69.5.48.12v.22l.54.23-.18.16.23.12.32-.07-.12.38h.2l-.04.25.25-.08.34.8.46.2.4-.1.43.05.05-.1-.03-.81.2-.06.13-.42.43.09-.04-.13.25-.36.51-.04.18-.55.16-.13.18.06.4.57.11-.17.33-.15.1-.5.16-.5-.13-.28.2-.3.84.01-.03-.82.17-.55.66-.1.11-.32-.3-.35.54-.15.61.26.33-.21-.15-.1-.5-.03-.24-.12.07-.24v-.57l-.4-.5.02-.45.19-.1.17-.24.17-.04.32.24.39.56.19-.28.26-.1.1-.24.53-.03.2-.12.36.31.4.01.32-.3-.02-.24.26-.22.07-.4-.28-.3.13-.2.38-.23.33.09.16.5.57.4zm-42.16-5.97-.33.22-.35-.08.07.17v.33l-.13.2-.18.1-.57.1-.12.03-.5-.16-.6.41-.02.31-.26.1-.05.43-.32.02.18.27.35.2.62.26.6.18.24.22.29-.1 1.1.52.26-.02.28.24.23.03.16.22.13-.1.42-.02.3.23.22.47.43-.06.27.17.17-.28.28-.2.49.1.46-.27-.14-.18-.07-.27.2-.64.47-.43.3-.14.56-.53.1-.17-.08-.26-.38.28h-.3l-.06-.28.1-.3-.18.23-.8.07.04.2-.2.01-.05-.5-.26-.3-.27.21-.2.01-.15-.35-.49-.03-.2-.27-.28-.1-.11-.36-.16.1-.34.03-.15-.14-.44.14-.23-.02zm35.58 14.45-.1.09-.39.03-.45.2-.19-.12-.23.23-.38.1-.27.2h-.25l-.02.14.97-.27 1.56-.56zm-4.1.67-.42.24-.2.06-.68-.15.08.08.88.2.55-.14.2-.23zm-16.43-9.18-.1.24.2.04zm0 .4-.16.05.04.2z" fill="#d1dbdd" stroke="rgb(209, 219, 221)" stroke-width="0.1" data-originalStrokeWidth="0.1" style="stroke: rgb(0, 0, 0); stroke-width: 0.1;"/>
      <path id="LA01" d="m917.82 663.34.1.68.44-.06.13 1.01.67.46-.6.09.06.4-.08-.01-.22.22v.08l.98.4-.16.26.1.1-.1.25.15.13.12-.15-.04-.17.2-.35 1.4.26 1.06.06.64.11 3.04-1.09.06-1.7h.38l.22.13.11-.1.22.02.2.28.4.22.28.02.36-.06.38-.29.53-.62.15-.3.11-.67.32-.84.74-.1.99-.2.25-.1.3-.17.43-.07.29.05.22-.24.3-.24h.46l.36-.17.2.09.31-.02 3.97 1.36.1.18.2.74v.43l-.58.21-1.07.45-.55.26-.45.25-.63.25-.96.32-.14.06-.13.23-.2.51-.16.26-1.38 1.33-.96 1.68-.63.13.06.7.2.26.4.07.35-.01.55-.05.38.09.17.1.15.2.1.57.15.22.55.25.5.1h.54l-.1-.38.62-.68.12-.09.18.41.14-.2.38-.28-.04-.14-.11-1.05.11-.15.2-.05-.1-.17.11-.06.08.2.45-.1.11.26-.07.6.23.03.15.13.29-.02.09-.24h.2l.16.34-.46.02-.17.44.1.05.34.6.23.35.23.08.24-.09.38-.31.4-.54.17-.18.17-.09.18.05.14.17.06.28.1.6.18.16.3.06.01-.18.11-.02.02-.26.18.09.36-.08h.22l.22-.19-.25-.3-.41.36-.3-.02.05-.56.07-.1-.25-.11-.28.54-.23-.13.1-.13-.15-.11-.1-.37.18-.06.05-.14-.65.03.02.22-.27.03-.03-.37.97-.04.01-.11.23.02.1-.11v-.14l.4.24.17-.05.06-.17-.05-.16.11-.54-.1-.17.01-.45.33-.06-.13-.18.02-.15.4-.08.3-.1.25.1.15-.11-.06-.58.21.14.03.11.21.15.1-.01.53-.33.4-.31.46-.44.26-.32.13.12.08.35.13-.16.33-.56.67.37.2.25.15-.02.13.15-.41.4-.2.13-.32.43-.19.14-.06-.29-.3.17.05.42.09.38-.11.59.18.03.02-.13.2-.1-.3 1.03-.05-.01-.17.51.16.04.34-.07h.29l.2.07.3.23-.15.24.13.13-.1.13.26.31.2.34.05.2-.02.21-.15.22-.17.06-.58-.74-.67-.21-.38-.01-.17.09-.22-.06.01.49-.38-.21-.15.09-.29.88.02.2-.06.27-.17.2-.16.08-.1.15-.17.14-.18.05-.23.27.04.16-.05.5.23.45.18.21-.3.4-.21.06-.24-.11-.32-.01-.27-.1-.34-.3-.04-.16.1-.14.4-.35-.01-.16-.42-.49.13-.03-.1-.23.1-.02-.06-.24-.19.15h-.17l.03-.18-.27.06-.63.39-.3.14.12.24-.07.15-.13.06.2.26-.09.11.07.2-.07.1-.58 1.75-.46 1.88-2.05.25-.33.05-.79.07-.21-.11-.25-.27-.04-.52-.1-.2.03-.22-.3-.2-.08-.4-.26-.16-.3-.03-.39-.16-.1.08-.27-.08-.3.02-.5-.37-.32-.12-.3-.2-.85 1.25-.6-.42-.83.95-.3.22-.3.13-.29.06-.86-.02.04.08-.1.42.22-.06h.2l.44.13.28.12.24.21-.39.53-.33-.23-.45-.1-.47.08-.43-.07-.51.11-.25.03-.34-.05-.46-.1-.14-.07-.12.08-.52.03-.6-.16-.11.35-.13.08.2.32.18.39.58.45.28.09.27-.05.29.16.35.12.44.43.46.4q.14.23.27.38.36.31.8.44l.53.05.12.23.5.51.42.14.37.19.26.71.25-.05.24.11.42.45.04.3.33.16.19.22.22.12.2.24.2.02.38.4h.19l.11.12.28.11.28.47.06.18.17.12.13.2.3.19.34.29.26.28.43.12.22.14.33.3.23.55-.05.2.04.26-.08.31.27.39.08.25-.14.24.04.42-.14.16-.15.35.01.1-.16.28.08.36-.13.08.07.03.17.4-.1.37.02.33.17.55-.2.19.1.54.26-.3v-.38l.23-.1.2-.26-.04-.3h-.14l-.03-.58.36-.21.21-.23.3.2.02.28.39.26.1-.27.13.1.04.33.26.13.15-.1.22.3.2.46.16.14.14.45.2.07.13.36.2.14-.04.21.36-.05-.1.27.12.18-.17.25-.16.09-.22-.22.18.39.33-.11.16.2-.32.23.04.12.31-.04.38.15-.2.2-.65.1.25.09.56-.03.24.22.2.04.05.58-.42.12.16.17-.06.17.72.22.94-.6.4-.44 1.36-1.18.53-.53.72-.65.43-.3.22-.36.45-.57 1.6-1.3.21-.4-.14-.2-.17.2-.25.05-.07.22-.32-.12-.21.43-.17.06v.23l-.12.2-.2.1-.18.38-.46.53-.24-.12-.04-.18-.28.28-.35-.03-.08-.3-.24-.26-.5-.26-.04-.23-.2-.2-.08-.34.1-.29.2-.08.14-.3.36-.41.5-.01.28.25.44.08.35-.2.13-.25-.11-.18-.53-.04-.16-.58-.03-.32.13-.38.38-.25.3.21.68-.02.12-.4-.27-.1-.35-.35-.3.14-.15.42-.35-.12-.28.1-.17-.34.33-.24.4-.09.15-.13.2-.41-.1-.34.42-.12.02-.22.22-.5.12-.16-.32-.16-.09-.15-.22-.07-.02-.13.28-.28.43-.2.2.17.35-.1.35.55.38-.3h.38l.04.22.37-.22.23.32.21-.1.02-.26.24-.33-.03-.5.29-.2.43-.02.6.38-.48.33-.12.53v.45l.48.14.37.43.63-.4.3.2.3.13.09.26 1.13-.14.28.01.58-.2h.7l.67-.1-.2-.14-.03-.46.25.12.16.25.45.06.37.15.48.93-.72.4-.55-.78-.2-.08-.56.42-.53.25-1.01.15-.9.36-.2.45-.57.33-.32-.43-.07-.32-.4-.08-.26.1-.02.32-.2.1.04.53-.2.12.06.1h.6l.17.06h.91l1.55.05.82.14.72.14.89-.15.2.32.2.1.1.2h.29l.26.2v.22l1.95.31 1.57.49.3.2.52.45.28.28.68 1.08.29.15.55.4.25-.01 1.07-.34.44-.65.05-.9-.12-.4.24-.39.29-.08.35.09.62.73-.1.44.15.4.02.28-.45.18v.23l-.13.2-.28.13.06.18.22.07.07.62-.23.07.12.5-.2.46-.26.08-.38-.02.1.37-.3.1.08.44-.24.57-.14.16-.04.22-.24.4-.33.1.03.33-.15.17-.04.52-.2.2-.14.54.04.15.34-.14.65-.86.34-.3v-.24l.7-1.1.45-.47.52-.82.23-.41.63-.23.12-.22-.07-.34.06-.24.3-.08.6.56.24.57-.12.57.13.15 1.04.35.71.27.15.26.3-.16-.22-.36.24-.51-.36.23-.22-.25.21-.62v-.35l-.1-.26.23-.06-.2-.27.44-.06.37-.15.14-.24-.1-.34.16-.04-.06-.57.06-.17.32-.08.4.2.14.3.08.35.16-.1.22-.5.15-.5.2-.47-.7.13-.88-.04-.29-.2-.2-.42.25-.2.36.2-.02-.27.24-.16.8-.1.06-.44.8.15.05.16h.2l.16-.32-.1-.2-.65-.82-.17.01-.08.22-.3.11-.24-.15.07.32-.44.32-.3.07-.16-.06-.22.24-.2-.34H971l.13-.35-.06-.21h-.28l-.12-.34.27-.1-.07-.29.12-.33-.18-.2-.27-.13-.23-.3.04-.12-.2-.34-.5-.12-.22-.17-.3-.64-.15-.06-.15-.33-.17-.1-.36-.03-.45.68-.12.09.04.26-.27.33-.57-.52-.16-.42-.3-.37-.17-.04-.63-.44-.26-.03-.33-.54-.22.03.06.31.22.19.1.3-.27.24-.48.04-.3-.27.37-.5-.1-.04-.67.13-.17-.1-.5-.09-.64.15-.01.2-.33.15-.22-.06.15-.32-.43.07-.55-.11-.37-.2-1.1.72-.72-.04-.24-.17-.42-.03.18-.47.26.13.67-.03-.1-.34-.37-.25-.16-.26-.05-.3.08-.3.32-.2-.28.06-.32.17-.2-.11v-.25l-.22.07-.4-.38.1-.26-.1-.32-.64.06-.42.2-.6-.34h-.3l-.54-.54-.03-.3-.56-.1-.22-.34.06-.2-.15-.24.17-.14.4.05.48-.32.08-.1-.28-.34-.56.03-.36-.23.24-.08v-.32l-.29-.21-.16.04.07-.3.26-.06h.46l.23-.04.35.37.07.48.23-.07.78.4-.24-.44-.32-.23.2-.17.26-.03-.3-.1-.2.16-.24-.1-.18-.21.1-.25-.42.07-.6-.4.1-.1.79-.03.37.21.7-.32.26-.4.46-.19.4.12h.62l.26.32.3-.02.27.15-.25-.36-.13-.3-.31-.04-.28-.2-.05-.2.5.07-.3-.17-.03-.23.12-.3.31-.03-.07-.18-.26-.1-.27-.75.37-.08.43.26.12-.2.2.1.28.4.28.2.2.58-.22.22.25.65.55-.06.3-.18-.32-.43.06-.35.38.06-.18-.3.16-.3.38.3.24.13h.44v-.1l-.28-.35-.28.07-.72-.49-.02-.46.07-.12-.16-.3.3-.41.37-.58-.02-.51.14-.16h.51l.28.31.33-.2h.6l.55.47.3.1.5-.2-.17-.1-.08-.25.03-.31-.1-.43-.3.11-.1.25-.25.2-.28.08-.22-.06-.26-.36-.35-.03-.08-.3.35-.23-.14-.16-.3-.02-.07-.1-.46.18-.21-.38.04-.15.52-.25.6-.2.33.17-.02.1-.33.1.19.04.3.36.07-.1.34.05-.26-.4.28-.15.23.1-.07-.2-.38-.24.24-.21-.03-.23.35.04.25.36.26.02.14-.11v-.24l.11-.24.18-.03.1-.25.34-.17-.06-.2-.52.1-.79.24-.6.02-.39.27-.2.07-.22-.3.45-.24.19-.45.25-.27h.18l.05-.3.4-.32 1-.25.28-.02-.17-.17.03-.32.18-.67-.07-.1-.53-.03-.16-.23.1-.35-.06-.14-.22.24-.46-.06.05.34-.25.34-.14.44-.18.25-.2.57-.2.48-.25.12-.15.38-.3-.12-.26.03.1.27-.18.39h-.28l-.22-.41-.25-1.1-.26-.07-.26-.28.06-.14.38.04v-.1l-.39-.08-.42.02-.16.14-.2-.06-.1-.24-.23-.07-.1-.26.05-.26-.27-.17-.27.13-.14-.11.07-.3.12-.16.37.04v-.1h-.34l.05-.3.37-.22.11.05.1.3.26-.23.12.08.05.33.3.25-.17-.57-.16-.13.07-.16.42-.09.19-.19.2.05.04-.13-.23-.12.18-.3h-.5l-.65.35-.36.35-.34-.17-.04-.18.3-.21-.4-.24-.33.1-.2-.2-.5-.2-.14-.12-.18.27-.07.33.22.7-.25.14-.13.2-.68.5-.42.35-.22.25-.42.13-.1.19.3.43.07.44-.25.53.06.5-.24.43.14.86-.11.32-.43.35-.55.28-.85.1-.2-.1-.44.04-.47-.16-.49-.43-.52-.32-.19-.18-.15-.7.83-.62-.44-.27-.45.44-1.1.51-.49.1h-.3l-.59-.35-.18-.28-.3-.66-.23-.82.05-.1.2-.47.28-.37.3-.31.07-.15.67-.12.71-.05.52.23.03.02v.01l.07.08.02.02.14.11.05.03.02.01.13.09h.27l.17-.12v-.1l-.06-.09-.03-.05-.2-.24-.23-.33.04-.25.23-.28.26-.06h.02l.08-.01h.03l.02-.01.16-.04h-.04l-.1.03.1-.03h.04l.4-.2v-.92l.06-.14h.02l.04-.05.02-.02h.05l.13-.04.23-.23.4-.7.25-.24.04-.18.1-.23 1.03.1.36-.37.05-.38.28-.26.5-.13.22.12v-.24l.16.1-.3-.4-.4.15-.12.2-.45.22-.41-.32-.17-.3-.21-.28-.4-.17-.2-.2.03-.51-.06-.16-.1-.03-.38-.23.09-.17.03-.13-.18-.06-.02-.34-.2-.16-.26-.1.15-.2-.02-.38.34-.25-.22-.42.02-.38-.2-.2h-.23l-.26-.18-.24-.28v-.28l-.36-.33v-.08l-.07-.08-.02-.08h-.06l-.02-.03-.02-.05-.02-.06-.06-.07v-.08h-.06l-.04-.06h-.03l-.02-.1.03-.06-.02-.03-.04-.02V657l.05-.02.02.01.05.03.03-.06-.02-.07v-.05l.03-.02h-.06v-.09l-.05-.06v-.05l.04-.04v-.03l-.04-.02v-.13l-.02-.05-.02-.03-.08.03.02-.07-.04-.05-.02-.08.05-.09V656l-.07-.03v-.17l-.05-.04-.02-.04-.01-.01-.01.03-.07.04-.01-.03.02-.04-.01-.04-.03-.02v-.07l-.04-.01-.04-.02-.06-.06-.1-.03-.03-.03h-.06l-.04.04h-.01l-.03-.01h-.04v-.03l.03-.03v-.04l-.02-.05v-.03l-.02-.06h-.08l-.02-.02v-.04l.02-.03v-.01l-.08-.07h-.02l-.02.03-.1.01-.03-.05-.02-.01v-.04l-.01-.01h-.04v-.02l-.02-.03h-.05v.05h-.04l-.02-.02-.02-.03.02-.02h.03l.01-.03.03-.07-.03-.02v-.04l-.05-.02-.07-.07-.04-.02v.07l-.03.02h-.03v.01h-.03l.01-.03v-.03l-.05.02-.2-.1-.17.11.03-.2-.18-.1-.19.13h-.02l-.02-.02v-.05h.02l.01-.02.05.02h.04l.01-.05-.04-.02.02-.05.01-.07h-.02v.02l-.04.04h-.03l-.04.02-.03-.02.01-.05h.04l.03-.01h.01v-.02l.02-.04-.03.01h-.05l-.06-.05h-.05v-.03h.04l.01-.04v-.03l-.02-.02v-.03l.03-.02h.02v-.08h-.04l-.03.04v.06l-.03.02h-.05l-.01.01h-.02l-.03.05-.03.02h-.04v-.04l-.02-.03v-.06l-.03-.02h-.05l-.04-.04-.02-.04h.07l.01-.05v-.07l-.02-.03h-.05l.02-.04.04-.02v-.07h-.11l-.02-.03h-.02v-.03h-.08v-.03l.04-.1.03-.02v-.03h-.07l-.03-.04v-.05l-.02-.03-.02-.02-.02-.03-.03-.02h-.03l-.05.02-.1.02h-.13l-.07-.02-.05-.02h-.1l-.03-.02.03-.02.03-.03.03-.02.04.02.06.01.04-.02.01-.07-.04-.08-.05-.04-.02-.05-.15-.02h-.1l-.02-.02v-.06l.01-.05.03-.06h.06l.1.06.06-.03h.05l.03-.04.03-.07.05-.05.01-.08-.05-.03-.08.03.02.04v.1l-.03.03h-.08l.01-.06.03-.04v-.05h-.03l-.05-.02-.03.01-.1.04-.13.07-.03-.01v-.13l-.03-.1-.06-.08v-.07l-.02-.01h-.05l-.05-.03-.07-.1.01-.03.1.03h.04l.05-.02.03-.07h-.07l-.06.02-.03-.13-.02-.03-.06.02h-.04l-.06-.03-.06-.08.02-.04h.13l.01-.05-.03-.03-.07-.04-.07-.03-.08-.08.01-.05.03.01v-.05l-.03.02h-.05v-.06l.03-.07-.03-.08v-.05l.03-.08V651l-.04-.03-.06.06-.1.03v.04h-.06v-.16l.02-.02.1.03.05-.04.04-.12.04-.23.14-.12-.25-.06-.08-.3-.15-.05-.13-.2-.17.2-.03-.28-.26.05.2-.2h-.02l.1-.1-.25-.03.24-.3h-.14l.12-.36-.02-.3-.07-.1-.03-.02-.07.06-.05.01-.06-.04-.02-.08.04-.04.08-.05.02-.06-.83-.04-.26.01.19-.2-.75.11-.11.04-1.56.21-1.6.2-1.28-.08-1.9-.14-.21-.03-3.71-.28-.02.24.17.11.01.26.1.2-.04.32.08.12-.06.1.17.3-.04.17.2.15-.03.8.07.5.18.24-.1.29.13.22.04.4.09.57.19 1.37h-.46l-2 .26-.84.05-.37-.1-.03-.23.08-.25-.02-.1-.2-.21-.04-.29-.13-.11-.29-.15-.32-.12h-.14l-.13.1-.16.3-.07.34v.3l-.04.43-.14.19-.28.12-.17.2.3.74-1.17.15-.33.03-1.43.2-1.4.3-1.51.2-.1.16.2.4-.2.25.08.08.02.27.09.09.07.27.17.14.02.13-.35.05-.14-.1-.14.09-.06.15-.2.07-.3-.04-.06.37-.11.42.22.4-.42.06-.43-.05-.2.06-.01.11-.2.19-.1-.08-.17.08-.33.42.03.32.3-.08.11.1.13-.04.15-.2.3-.03.18.1.13.24.23-.06.22.28.04.12.1.55.12.21.22.18.14.01.03.17-.18-.03-.21-.13-.15.19-.23.09.14.2-.1.13-.22-.04-.11.19-.2-.18-.1.15h-.3l-.19.05-.2-.17-.29.08-.31.16-.2-.35.08-.13h-.3l-.21-.7-.06-.08-.26-.01.07-.19-.24-.03-.22-.09.03.36-.18.04-.08.25-.22.22-.1.04-.15.24-.23-.16-.18-.05-.2-.17.12.85zm43.06 5.09.07.33.3-.07.05-.13-.3-.02zm-9.4.88h.01zm11.77-.72.04.18.14-.18zm-1.82.87-.06.12.19.43.04.33.18-.27-.14-.14-.12-.28.27-.01zm1.14.65.02.26.1-.04.07-.15zm-.74.77-.13.35.16.08.1-.16zm13.55.67.2.39-.07-.33zm-10.26 2.25-.35.06v.1h.4zm-8.1 8.89.15.1.2-.05zm-1.29.44-.34.08-.02.1zm-.87.5-.04.2h.24zm-5.45 8-.15.26.5.2.39-.12.21-.15-.35-.21zm-2.16.31-.29.03.1.36.27.22.05-.14.02-.19zm1.8.59-.59.37-.21.33-.2.04.17.11.74-.55.2-.23zm-1.62.53-.19.24.23.02.13.14-.04-.36zm-1.46.76.04.18.17-.17zm.35.45-.2.31.31-.02.17.02-.13-.27zm-11.77.92.12.32.11-.12zm1.01 1.61.12.16.08-.15zm2.16.35-.17.07-.14.22.1.1zm-.16 1.86v.36l-.6.41.33-.15.44-.2.16-.32zm.32.75-.41.04.07.13zm21.21-35.34-.06.13-.33.03.07.3-.14.17.21.06.26-.07.26-.5zm-1.79 19.12-.22.16-.27-.02-.23.28-.66.27.43.45.44.26.2-.39v-.15l.62-.7zm-18.63 17.23-.5.2.29.03.4-.22zm26.77-37.55-.26.47-.75.72-.78.64-.99.74-.32.86-.6.27.1.44.23.28.2-.42.34.05.1.14.57-.1.2.1v.27l.18.14-.04-.44.37-.42.13-.37.26.03.16.16.1.6.35.35.13.42-.1.23.4.17.34-.3-.32-.23-.1-.54.26-.26h.53l.24-.37-.16-.52-.43-.16-.8-.04-.24-.43-.1-.4-.2.17-.18-.18.34-.65.23-.1.13-.32.3-.43.21-.18.12-.27zm8.79 2.35.37.26.4.44.3.43.27.53.07.36.16.28-.04.38.1.54.34.7.08 1.34-.25.5.21.24-.07.94-.05.29-.15.2-.22.59v.39l-.18.7.18-.1.46-1.23.26-.82.07-.74.05-1.34-.13-1.41-.34-1.1-.37-.84-.26-.41-.47-.62-.47-.42z" fill="#d1dbdd" stroke="rgb(209, 219, 221)" stroke-width="0.1" data-originalStrokeWidth="0.1" style="stroke: rgb(0, 0, 0); stroke-width: 0.1;"/>
      <path id="LA06" d="m879.85 630.58-2.14.74-.57.14-1.88.66-3.26 1.17-.99.36-.64.22-1.69.62-.11-.07-.35.17-.23.05-.12-.05-.26-.28-.19.14h-.16l-.3-.15.02-.15.42-.28-.04-.1-.38-.13-.06-.14.07-.16.25-.37-.12-.1-.23.12h-.16l-.2-.15-.08-.32.04-.33.32-.02.01-.15-.21-.17-.01-.3.38-.07v-.2l-.13-.04-.16.2-.18.04-.22-.19-.3-.47.05-.18-.11-.07-.2.01-.3-.2-.17-.06-.25-.2-.23-.1.1-.27-.03-.1-.44-.21-.3-.28-.11-.04-.2-.34-.23-.19-.13-.03-.4.03-.2-.04-.32.02-.33-.14-.27-.18-.26-.1-.3.06-.5-.1-.19-.1-.06-.17v-.24l.11-.48-.07-.21h-.29l-.24-.11-.07-.26-.1-.1-.3.1-.25.02-.35-.09-.06-.22.1-.45-.06-.1-.28-.07-.13-.13.14-.6-.06-.58-.1-.15.04-.11.01-.7.15.07.22-.19-.02-.4.13-.2-.1-.22.16-.14-.23-.18.04-.2.23.13.01-.23-.11-.21-.18-.03.05-.14-.15-.18.13-.04.08-.16.42-.05.27.07h.21l.24-.3-.24-.28.07-.19-.01-.58.2-.26-.1-.47.05-.3.07-.03.1-.4.15-.07.1-.2-.29-.1-.06-.14v-.42l-.06-.16.02-.19-.1-.16-.24-.05-.13.05-.04-.2.12-.09.25-.48-.1-.35v-.18l-.23-.25-.1-.27-.02-.29-.18-.19.02-.15-.28-.24.03-.14.13-.06-.05-.25-.1-.05-.13-.34-.34-.25-.05-.18-.17-.14-.05-.4-.17-.18-.05-.15-3.3.32-1.78.17-1.38.14.05.17.34.22.08.2.25.36.16.06.15.32-.27.3.15.36.4.24.06.18.24.3-.02.22-.13.14v.13l-.3.43v.26l.06.06-.04.26.15.2.14.01.26.35.14.04-.03.15.18.09.14.22-1.09.1-1.88.18.19 2.14-.18-.22-.22-.05-.12.14-.17.44-.18.06-.19.24-.18-.09-.09.05-.23-.1-.1-.13-.28.27-.15.05-.11-.11-.44-.04-.25-.08.1-.22-.14-.09-.09-.31-.2-.14.17-.15-.03-.22-.18-.03-.15.06-.13-.26-.04-.24-.1-.06.02-.23-.1-.1-.12.02-.31-.25-.25-.1-.18-.29h-.22l-.08.11-.2-.14-.26.09-.16-.01-.19-.3-.15-.05-.14-.2-.04-.16-.22-.36-.3-.02-.12-.13v-.48l-.04-.28-.07-.07-.52-.08-.15-.1v-.2l-.22-.22-.03-.15-.29-.13-.19-.2-.2-.1-.08-.12.1-.24.16-.1.17-.32.2-.02.12-.21-.33-.35-.1-.7-.08-.1.01-.2-.16-.25-.16-.1-.05-.12-.33.01-.21.07-.28-.06-.32-.16-.38-.1-.16-.21-.02-.25-.15-.12-.1-.2-.22-.1-.16-.65.07-.38-.13-.13-.16-.29-.38-.17-.12-.23-.15-.2-.4-.19-.16-.16h-.23l-.36.08-.2-.2-.09.1-.26.17h-.15l-.29-.34-.1.09h-.2l-.28-.44-.16-.04-.28-.3-.38-.14-.1-.14.03-.3.13-.33.2-.02-.04-.45.55-.06.16-.1-.09-.17v-.46l-.2-.21.18-.19-.11-.23-.16.03-.03-.28-.3.03-.02-.36.02-.15-.05-.56v-.36h.22l.33-.06.03.48.48.02.4-.45-.09-.08-.33.28-.08-.12.32-.18-.1-.12-.25-.04-.48-.26-.26-.1v-.39l-.14-.1-.07.14-.14-.04-.27-.2.04-.13.25.1.14-.28h.17l.07.1.08.28.22-.03-.33-.52-.5.13-.17-.11-.03-.13-.23.06-.1.15-.44-.8-.14-.09-.16-.25-.16-.1-.38-.07-.28-.13-.29.03.08.84-.03.16.06.19.04.55-.02.05.67.52.37.18-.08.26-.37.06-.2.22.01.17-.29.39-.48.04-.12-.24-.02-.15-.21-.09-.14.09-.1-.1-.03-.2-.17-.03-.2.22.08.24-.01.25-.12.13-.6.24-.37.04v.22l-.08.22.02.31.16.08.1.24.22-.03 1.52-.32.02.24.32-.03.06.3-.2.19-.24.34-.25.16.29.1v.16l.23-.08.24.07.43-.04.02.26.1.39.79-.54-.2.54-.15.7v.46l-.12.29-1.16.1.03.44.28.27.08.7.23.17h.14l.2-.39h.13l.3-.33h.15l.05.36 1.1-.1.18-.11.17-.22.25-.13.03.4-.03.13.31-.04.02.45.15.37.5.69.25.23-.45-.04-.14.07-.12.18h-.47l-.34-.1-.17.03-.4-.07-.27.03-.17.08.09.96.03.2.22.17.07.81-.1.25.04.33.12.11.04.4.05.04.75-.07.13.27.03.57.19-.15.16-.03.1.1.03.36.35-.16.2-.25h.25l.1-.12.12.1v.35l.1.2-.09.28.04.11-.26.16-.29.29-.4-.27-.12-.03-.58.05-.26-.12-.16.32.03.15-.1.25-.27.14-.12.01-.27.46.04.58-.08.34.02.33-.09.18-.02.63-.23.35.04.4.2-.2.03-.27.14-.14.44-.04.06-.3.2-.02.09-.16.23-.07.36.05.12.56-.05.15.23-.02.24.17-.13.18-.04.23.03.5-.1.17.1.3-.23.16.01.12 1.36-.13.08.9.45-.04.04.45 2.17-.22 1.45-.13 1.5-.14.51-.04 1.5-.14.11 1.17.07.56.04.6.09.8.06.9 2.71-.25.16 1.55.1 1.05.17 1.48.12 1.34.47-.03 2.18-.22.33 3.11.2 2.25 1.73-.18 1.2-.12 1.29-.11 1.16-.11.02.09 1.06-.1.07.13.25.26.02.23.45-.05.02.22.9-.08.02.23.39-.04.08-.09.39-.6.1-.23.43.02.1.04.56-.04.07.28.57-.09.16-.21.14-.07.27-.03.2.07.1-.1.2-.01.15-.1.36-.01.1-.19.12-.34.24-.08.16.02.22-.16.25-.04.01.2.13.26.03.33.06.1.25.16h.3l.4.11.14-.1h.35l.37.42.49.1.23-.05.41.06 1.16-.18.28-.12.68-.06-.02.57.85-.08.1-.02.07.22-.03.12-.18.22.31.03.04.09-.18.22h-.34l-.27.25.8 1.06.01-.17.15-.12.14.07.1-.15.34-.1.1.05.62-.42.19.08.01.2.35 1.16.3 1.04.58 1.95-.13.05-.01.36-.16.27-.47.24.57.92.21.24.27.17.66.26-.07.45.19.12v.1l.2.06.33.15.36.04.05.12-.1.13.11.11.26-.13.14.07-.11.23.37-.04.05-.06.9-.1.1.9 1.26 1.23.16 1.34.67-.08.09.52.13 1.18.14.25.3.13.23.06.18.19.27.03.05.55.26 2.35-.1.03-.04.2-.18.03-.29.33-.07.03.03.26-.09.23.05.1-.03.24.05.13-.17.28.16 1.5-1.35.14.09.9-.48.06-3.72.4-.24.15-.12-.05-.16.12h-.21l-.02.1-.22.22v.2l-.1.12v.23l.08.23-.04.15-.22.02-.26.15-.22.35 1.64-.16 4.23-.46.73-.07.17 1.33 1.8-.2.3 2.67.47-.05.1.9.45-.06.06.68 1.28-1.23.1-.19-.07-.35.04-.3.41-.24.26-.38.15-.05.21.06-.16.65.1.45.1.27-.03.35-.56.06.01.12-.25.09.04.36.26-.03.02.18-.56.06.16 1.34.66-.07.04.36.13.22.8-.1.02.1.2.28.18-.04.1-.17.35.57.07-.18.2-.13.34.02.2.13.4-.09.1-.4.24-.07-.02-.33-.23-.05-.2.08-.14-.1-.17-.22v-.32l-.22-.04.66-.57-.28-.94-.2-.13-.14-.34.04-.13.2-.18.02-.16-.1-.19.17-.12-.13-.35-.66-.01-.01-.09-.29-.09.15-.4-.07-.2.08-.6.31-.12.26.19.26.07.18.12.28-.06 1.56-.82.16.12.3-.02.1.15.3-.03.19.1.31.07.23.15 1.6-.19.72-.07 1.24-.16-.05-.07-.39-.1-.15-.38-.17-.21-.29-.28-.11-.33-.21-.27-.37.07-.16-.16-.1-.4-.2-.22-.12-.2-.1-.39 1.46-.15 3.13-.34.05.44.72-.09-.07-.16.82-.34-.01-.03 1.1-.13.76.74.17-.16 1.2 1.2.03-.02.57.68.05.42.86.23.81.86.5.21.3.66 2.46-.33 2.04-.24.01.1.28.18.1-.05.36.01.06-.07.36-.19.74-.1.57.06.36-.01.22-.07.24-.28.08-.2-.47-.44-.13.09-.3-.06-.22-.1-.55.18-.25-.07-.11.15-.69-.2-.45-.17-.34-.33-.13.1-.29.08-.1.34-.27.1.02-.77-.52-.64-.58-.03.12-.46.17.1.45-.02.05-.25.19-.2.97.5.11.17v.15l.11.11.15.04.12.17-.21.56.11.06.13-.31.31.12.05-.14.14-.06.14-.4.12-.12-.47-.35-.03.1-.39-.04-.31-.57-.2-.25.14-.11-.11-.17.52-.08.06.09.55-.08.64.8.43.43.03-.38.18-.04.47.06.3-.06v.18l.2-.01v-.22l-.08-.26.06-.08-.08-.7-.1-.52.3-.21.18.01-.05-.2-.1-.13-.03-.2-.37-.21-.24.18-.17-.06-.08-.1-.24-.12-.23-.29-.29.11-.1.11-.35.06-.13-.08.01-.16-.14-.22-.15.02-.35-.33.03-.17-.27-.32.11-.2-.1-.1-.1-.48.1-.36-.05-.05.03-.44.05-.32-.05-.2-.16-.13-.18-.24v-.1l.18-.32-.1-.46.1-.45.09-.13.02-.34.4-.2.18-.07.05-.17.17-.13v-.16l-.1-.22-5.24.85-.32.25-.06.12.03.24-.05.2-.48.14v.32l-.03.4-.09.18-.34-.1-.33-.02-.36-.09-.19-.3-.17-.52-.09-.19-.05-.27-.2-.56-.3-.5-.41-.47-.16-.08-.43.1-.29.16-.35.29-.7.37-.3.05-.5-.1h-.18l-.6.1-.3.11-.43.2-.38.12h-.19l-.3-.09-.68-.38-.07-.22.06-.27.2-.24.2-.1.5-.14.25-.2.17-.26.16-.88.11-.66.09-.37.02-.32-.05-.42-.2-.44-.4-.46-.44-.26-.28-.04-.23.02-.93.16-.29.02.03.33.05.15.25.1h.52l.26.04.2.11.16.16.17.34.15.7-.04.29-.21.12-.12-.16-.2-.1h-.26l-.4.08-.51.23h-.34l-.3-.06-.28-.16-.17-.26-.1-1.08.04-.31.1-.43.16-.35-.24-.35-.16-.3-.23-.6-.05-.4.1-.24-.21-.38-.19-.16-.36-.16-.34-.05-.24.14-.06.22-.12.1-.27-.02-.28-.16-.33-.1-.11.02-.14.16-.29.19-.15.22-.02.29-.13.25-.37.13-.14-.2v-.27l-.19-.23-.09-.78-.44.14-.34.22-.5.16-.57-.12-.13-.06-.2-.25-.14-.38-.43.04-.2.12-.15.14-.15-.17.07-.09-.07-.64-.25-.14-.16.25-.18-.1-.08.07-.13.3-.16.13-.1-.1.12-.13.08-.3v-.25l-.29.3v.2l-.17.19-.3.13-.2-.07v-.24l-.35.02-.3-.2-.21-.24-.14-.24-.29.17.04.11-.2.15-.01.1-.18.06.13.25-.26-.01-.03.25-.37.1-.02.12.31-.02.11.1-.37.1.05.46.25.19-.1.24-.25-.2.1-.22-.33.03-.03.1.07.38-.09.07-1.2.16-.18-.1-.08.08-.13-.17-.17.22-.27-.08-.33.04-.18-.37-.13-.12-.18.03-.08-.08.07-.3.26-.14.2-.25-.03-.2-.26-.2-.07-.12-.25.1-.08.24-.2.07-.32-.02-.12-.1-.38-1.71.21-.34-.07-.17-.2-.11-.3-3.04-.25-2.2.2-.14.1-.23.39.1.08-.13.3-.07.1.14h.21l.14.48.4.2.02.1.27-.1.13.01.2-.19.17-.06.16.06.13-.28.14.08.12-.26.35-.19.01-.27.16-.2.12-.01.23-.13-.14-.14v-.28l-.16-.08-.03-.17-.28-.02-.12-.22-.15-.09-.16.16-.32-.17.12-.22-.09-.05-.2.03-.18-.13-.1-.15-.38-.18-.16-.43-.15-.1-.13-.35v-.19l.15-.23-.08-.16-.3-.05v-.16l.15-.22-.15-.14-.13.1-.13-.03-.13-.13-.14.25-.14-.04z" fill="#d1dbdd" stroke="rgb(209, 219, 221)" stroke-width="0.1" data-originalStrokeWidth="0.1" style="stroke: rgb(0, 0, 0); stroke-width: 0.1;"/>
      <path id="LA04" d="m878.22 582.45-.31.03-1.18.08-1.6.14-1.34.1-.87.06-.58.04-.46.04-.82.06-1.32.12-.6.05-.53.03-.75.05-.16.03-.72.05-.48.03-1.62.12-.4.04-.74.04-.23.03-.75.04-.6.05-.31.02-.15.02-.26.01-.97.07-.57.05-1.02.05-.33.04h-.1l-.52.04-.43.04-.35.01-.8.06-.26.01-1.16.09h-.24l-.46.06-.5.03-.4.03-2.8.22h-.1l-1.4.1-.2.03-.63.06-1.3.1-.58.02-.6.05-.53.05-.82.07-.78.06-.42.02-.24.03-.5.03-.62.05-.8.06-.62.03-.39.05-3.07.2-1.22.08-1.12.1-.89.06-.56.05-.86.06-.98.06-.27.02-1.33.1-.52.04-.74.06h-.06l-.5.04-.54.05h-.04l.03.36.03.5.04.61.08 1.08.08.89.07 1.04.06.77.05.67.01.37.08 1 .05.82.04.6.07.88.05.78.05.63.04.3.02.63.05.66.1 1.1.01.34.08 1.2.02.4.03.18v.18l.1 1.2v.07l.06.9.05.7.05.6.06.8.06.85.04.48.16 2.2.08 1.32.1 1.12.07 1 .06.89.04.49.04.73.1 1.34.1 1.4.04.01v.03l.07.16.27-.15.14.16.13-.06.06.2.03.16.24.2.14.24.1.18.05.05.07.11.05.08.14.11.06.13.07.08.08.06.02.03.04.1.04.06.04.16.05.1.16.14.06-.02.1-.09.04-.03.09.03.07.11.04.04.02.05v.1l.02.03.05.05.1-.02.13.02h.05l.15.01.06-.02.05-.03.05-.03.03-.05h.05l.02.07.07.05.03.04.06.06v.06l-.07.02-.03.06-.02.1-.06.07-.07.08.02.04.02.03.08-.07.03-.03.03-.02.02.06-.05.04-.01.02.04.08.05.04.07.03.04-.02.02-.02-.04-.08.02-.04.08.04v-.09l.04-.03.07.03-.01.05.06-.04.12-.02-.02.05.02.03.02-.02.06-.12-.02-.05.15.03.06.28-.1.28.02.09.14-.1.1.05-.04.1.32.2-.18.24.19.07-.03.23.14.06-.05.04.12.07.05.03.06.15-.1.09.22.6.07-.06.4.28.08.16.3-.02.13.18-.02.42.12-.01.3.2-.16.27-.05.35-.12.16.35.46.26.13.04.25.07.22-.1.2.28.15.24-.1.08.08-.28.7-.2.26v.18l-.17-.17-.08.39.1.1.08.13.05.09h.13l.06.05v.05l-.05.03-.07-.06-.05.03v.05l.03.14.03.08-.04.08.07.13-.01.02-.07.02-.03.03-.01.05v.03l.03.05.05.02.02.06-.01.07h-.08l-.08.04-.05-.02-.03.04.23.1-.14.08-.08.05-.02-.02.05-.05-.3.28-.02.25.1.22.04.16.14.22.1.02.1.09.12.2h-.08l-.02.1.05.07.1-.04v.3l.3.25.13.09.04.08-.03.07h.12l.02.1.04.02.2.1.15.14.47.03.35-.05-.1-.08-.02-.08.17.07.05-.07.06-.03.02-.02v.08l.04.02h.06l.05.04v.04l.05.2-.03.04-.05-.03h-.02l.07.08.13.04.66-.03.04.07-.19.1-.09.2.03.29-.38.28-.22-.02-.06.55.2.06.31.25.25.1.17-.12.32.09-.13.35.45.06.02.08-.28.6.02.12-.01.12.4.1.27.25.13-.01.06.02.14.32.03.31.03.15v.05l-.02.01-.07-.02-.03.01v.04l.07.11.07.01h.03l.1-.02.15-.03.15-.08.1-.07.14-.01.04-.05.05-.02.02.03-.04.12-.03.04-.05.05-.02.08v.13l-.05.04-.15.03-.13.06-.16.04-.11.05-.03.08.05.2v.15l-.1.17-.1.16.1.17-.25.2-.09.25.14.27.4.08.1.16.18.32.3-.08.12.22.15.22.5-.1.2.37.02.24-.2.1.15.12v.36l.3.15.28-.11v.08l.05.26-.2.1-.08.38.16.16.05.62.37.42.32-.1.18-.3.22-.18.05-.03.05-.02.11-.06.05-.03.04-.02.1.08.1.02.08-.02.08-.07h.05l.05.06.03.12v.11l-.02.05-.08.07-.17.05v.06l.02.05.08.08.08.13.02.08-.1.07h-.16l-.07.03.03.24.08.15.04.23.04.06.17.22-.01.37-.15.12-.1.39-.36.12.02.08.12.05.03.02.04.1.07.03.05-.06.04-.08h.03l.02.08-.01.03-.05.05-.02.11.02.1v.02h.33l.06.02.14.07h.13l.02.03-.02.08v.05l.1.08h.13l.02.06-.02.23-.3.08.12.2.23.1-.02.27.32.07.05.03-.02.1-.33.31-.3.05-.13.35h-.33l-.1.17-.3-.26-.3.42.16.26.21.02-.01.34-.19.2.17.14.25-.08.34.16.04.23.37-.05.1.51.1.07-.01.12-.01.08.04.08-.12.22-.16.05-.1.08-.05.02-.02-.03.04-.15-.01-.02-.08-.02-.1.1-.06.2-.15.16v.05l.02.03.04.03h.04l.04.04v.17l.03.05.12.02v.09l-.1.04h-.14l-.1.04h-.03l-.1.04-.04.05-.05.1-.05.05-.04.07v.06l.12.3h.08l.05-.02h.07v.08l-.03.08v.04l.05.01.1-.07.02.07-.05.2.1.22.02.06-.17.2-.08.02-.03.03v.05l.07.05.28.1.07.08.02.06v.06l-.1.1.03.06.06.05v.05l-.1.08-.09.06-.07.05.07.36-.3.18-.22-.04-.02.2.03.08v.2l-.15.03.17.3h-.16l-.1.18.07.28-.34.1-.03-.1h-.03v.2l-.05.04-.07-.08-.08-.02.05.18.03.07.11.12v.05l-.03.07-.24.14.04.07h.05l.08.04.07.06.06.15-.03.05h-.03l.04.03-.06.19.2.12-.3-.02-.02.02.05.1v.07l-.1.1-.1.34.13.14-.17.22-.09.3-.22.2-.15-.03-.07.2-.18-.07-.15.3-.15.02-.08.1-.01.03.02.13-.33.4.08.17-.1.32.1.2-.17.25.18.08.1.24.02.03.03.16-.16.23-.26-.21-.23.2-.28.05v.25h-.2l-.14.2.01.22-.02.05.1.28-.15.14.08.24-.3.2.24.09-.03.13.2.18.36.2.14-.12-.07.35.12-.01.02.15-.2.18h.18l-.22.22.16.2.07.06-.04.1-.17-.03.2.3v.17l.19.1.16.15-.19.06.14.26-.15.12h.24l.03.2-.02.05-.1.26-.26-.1-.09.32-.17-.26-.1.04-.02.55-.16-.04v.21l-.17.17v.01l-.1.22h-.13l-.2.26.03.1-.02.06.1.1.06.44.1.18-.24.14.09.18-.2.2.06.14.13.03-.17.2.28.02v.16l.25.43.15.09.04.1.12.2.42.1.1-.05.4.18-.1.2.12.08-.06.28v.14l.16.2-.14.3v.08l.05.15.07.06.06.06v.05l-.03.02-.07-.04h-.03l-.03.03v.04l.03.04.07-.02.03.04v.06l-.08-.01-.05.01v-.07h-.02l-.03.03.02.02-.03.1-.03.04v.03l.04-.02.05.03v.02l-.05.02-.03.03v.07l.07.03-.03.05v.05l-.03.03-.07-.06h-.02l-.04.04-.03.05v.05l-.03.03.05.02v.03l.03.01.02.04-.01.05h-.07l-.02.02v.06l.1.06h.01l.05-.08h.03l-.01.13.02.07h-.05l-.04.07.1.07-.06.07-.02.04v.01l.04.03.06-.02h.03l.02-.03.03-.04.01-.03.02-.02h.02l.03.03v.04l.02.03h.03l.02.04v.02l-.03.02-.05.02h-.03l-.05-.05h-.02v.12l.03.06.03.02.03-.02.02.02-.02.03v.16l.03.02h.05l.03-.05.02.01-.03.1.02.02.03.05.02.03.05-.02.03-.04h.04v.03l-.05.06-.03.1.02.06.02.03.03.02-.03.05-.01.1-.08.07-.02.06.02.1.02.05v.17l.22-.2.15.34.13.02-.1.2-.24-.06v.15l.03.17.02.06v.07l-.05.03-.1.02-.03.02v.03l.12.08.04.08v.07l-.04.07-.07.02-.1.02-.06.07-.01.1-.27.37v.34l-.07-.01-.1-.2-.07.04.03.17.51.4.34.07.05.28 4.24-.41 1.09-.1 4.56-.44 1.45-.15.94-.07.95-.1 1.9-.2-.4-3.8-.46.04.1.88-.15.26-.28.04.1.98-.17.02-.1-.09-.68.07-.1-.88-.45.04-.1-.9-.44.04.03.27-.3.04-.38-.06-.32-.32.18-.31-1.74.16-.09-.84.12-.15 1.22-.13-.04-.36-.22.02-.03-.28.14-.04.86-.1-.08-.1-.6-1.16-.05-.16.28-.06.15-.22.27.07.4-.23.09.18.15-.12.18.02.06.16.14-.02.09-.31.11-.11.32-.03-.02-.18.11-.11.24-.03.03.29.64-.07.05.18.18.26.1-.1-.18-.16.36.01.3.11.03-.28-.15-.19.1-.16.2.16.18-.11-.02.3.13.15.2-.15.24-.15.26.1.01.22-.2.1.03.3 1.3-.14-.06-.44-.11.01-.05-.35 1-.1v-.12l.46-.08-.22-2.22-2.67.25-.14-1.35 1.75-.2-.05-.43.92-.1.47-.01 2.2-.24 1.23-.11 1.1-.12 1.8-.18-.06-.57.01-.22-.06-.76 2.73-.3 1.09-.1-.03.22 1.23-.1 2.47-.27.22-.35.26-.16.22-.01.04-.15-.08-.24v-.22l.1-.12v-.2l.22-.22.02-.1h.2l.17-.12.12.05.24-.15 3.72-.4.48-.05-.09-.91 1.35-.14-.16-1.5.17-.28-.05-.13.03-.24-.05-.1.1-.23-.04-.26.07-.03.3-.33.17-.03.03-.2.11-.03-.26-2.35-.05-.55-.27-.03-.18-.19-.24-.06-.29-.13-.14-.25-.13-1.18-.1-.52-.66.08-.16-1.35-1.27-1.22-.1-.9-.89.1-.05.06-.37.04.11-.24-.14-.06-.26.13-.12-.11.1-.13-.04-.12-.36-.04-.32-.15-.22-.06v-.1l-.18-.12.07-.45-.66-.26-.27-.18-.2-.23-.58-.92.47-.24.16-.27v-.36l.14-.05-.59-1.95-.3-1.05-.34-1.16-.01-.19-.2-.08-.6.42-.1-.04-.35.1-.1.14-.14-.07-.15.11v.18l-.81-1.06.27-.25h.33l.19-.23-.04-.08-.31-.04.18-.22.03-.11-.07-.22-.1.02-.85.07.02-.56-.68.06-.28.12-1.16.18-.41-.06-.24.05-.48-.1-.37-.42h-.35l-.14.1-.4-.11h-.3l-.25-.16-.06-.1-.03-.33-.13-.26-.01-.2-.25.04-.22.16-.16-.03-.24.08-.12.35-.1.19h-.36l-.15.1-.2.03-.1.08-.2-.06-.27.03-.14.07-.16.2-.57.1-.07-.28-.55.04-.11-.04-.42-.02-.11.23-.4.6-.07.09-.4.04-.02-.24-.89.09-.02-.23-.45.06-.02-.23-.25-.26-.08-.13-1.05.1-.02-.1-1.16.12-1.28.11-1.2.12-1.74.18-.2-2.25-.33-3.11-2.18.21-.47.04-.12-1.34-.18-1.48-.09-1.05-.16-1.55-2.7.25-.07-.9-.09-.8-.04-.6-.07-.56-.11-1.18-1.5.15-.51.04-1.5.14-1.46.13-2.17.22-.04-.45-.44.04-.08-.9-1.36.13v-.12l.22-.17-.1-.3.1-.17-.03-.5.04-.22.13-.18-.24-.17-.23.02.05-.15-.12-.56-.36-.05-.23.07-.09.16-.2.01-.06.3-.44.05-.14.14-.03.28-.2.18-.04-.39.23-.35.02-.63.1-.18-.03-.33.08-.34-.04-.59.26-.45.13-.01.26-.14.11-.26-.03-.14.16-.33.25.13.59-.05.12.03.4.27.3-.29.25-.16-.04-.11.1-.29-.1-.19-.01-.35-.12-.1-.1.12h-.25l-.2.25-.35.16-.03-.36-.1-.1-.16.03-.19.15-.03-.58-.13-.26-.75.07-.05-.04-.04-.4-.12-.11-.03-.33.1-.25-.08-.81-.22-.18-.03-.2-.1-.95.18-.09.26-.02.4.06.18-.02.34.1h.47l.12-.18.14-.08.45.05-.26-.23-.5-.69-.14-.37-.02-.45-.32.03.04-.13-.03-.4-.25.14-.17.21-.18.12-1.1.1-.05-.37h-.15l-.3.33-.13.01-.2.4-.14-.02-.23-.15-.08-.7-.28-.29-.03-.43 1.16-.1.11-.3v-.44l.15-.71.2-.55-.78.55-.1-.4-.02-.25-.43.04-.24-.07-.23.08v-.16l-.3-.1.26-.16.25-.34.19-.2-.06-.3-.32.04-.02-.24-1.52.32-.21.03-.1-.25-.17-.07-.02-.31.08-.22v-.23l.37-.03.6-.24.12-.13.01-.25-.09-.24.2-.22.18.03.02.2.11.1.13-.09.22.1.02.14.12.24.48-.05.3-.38-.02-.18.2-.21.37-.06.08-.26-.38-.18-.66-.52.02-.05-.04-.55-.06-.2.03-.15-.08-.85.3-.02.27.13.38.07.16.1.16.25.13.1.46.79.1-.15.22-.06.03.13.16.1.5-.12.34.51-.22.03-.08-.26-.07-.11h-.17l-.14.28-.25-.1-.04.13.27.2.14.04.07-.15.14.1v.4l.26.1.48.26.26.03.09.13-.32.17.08.13.33-.28.1.08-.4.45-.5-.02-.02-.48-.33.06h-.23v.36l.06.56-.02.14.03.37.29-.03.03.28.16-.03.1.23-.17.18.2.22v.46l.1.18-.17.09-.55.06.04.45-.2.02-.13.33-.03.3.1.14.38.13.28.3.16.05.27.44h.2l.11-.1.29.35h.15l.26-.16.09-.12.2.2.36-.08.23.01.16.16.4.2.15.19.12.23.38.17.16.28.13.14-.07.38.16.65.22.1.1.2.15.12.02.25.16.2.38.11.32.15.28.07.2-.07.34-.01.05.12.16.1.16.24v.2l.08.1.1.7.32.35-.13.22-.2.02-.16.32-.16.1-.1.23.08.13.2.1.2.2.28.13.02.15.24.21v.2l.14.1.52.09.07.07.03.28v.47l.12.14.3.02.23.36.04.16.14.2.15.05.19.3h.16l.26-.09.2.15.08-.12.22.01.18.28.25.1.3.26.13-.03.1.11-.02.23.1.06.04.24.13.25.15-.05.18.03.02.22-.16.15.2.14.09.31.14.09-.1.22.25.08.44.03.11.12.15-.05.27-.27.11.12.23.1.09-.04.18.09.19-.24.18-.06.17-.44.12-.14.22.05.18.21-.19-2.13 1.88-.18 1.08-.1-.13-.23-.18-.08.03-.16-.14-.03-.26-.35-.14-.02-.15-.19.04-.27-.06-.05v-.26l.3-.43v-.13l.13-.14.02-.22-.24-.3-.06-.18-.4-.24-.15-.35.27-.32-.15-.31-.16-.06-.25-.36-.08-.2-.34-.23-.05-.17 1.38-.13 1.77-.17 3.31-.32.05.15.17.18.05.4.17.14.05.18.34.25.13.34.1.05.05.24-.13.06-.04.15.3.24-.03.15.18.19.02.29.1.27.23.25v.18l.1.35-.25.48-.12.08.04.2.13-.04.24.05.1.16-.02.19.06.16v.41l.06.14.28.1-.1.21-.14.06-.1.4-.07.03-.06.3.1.48-.2.26.02.58-.07.19.24.28-.24.3h-.2l-.28-.08-.42.06-.08.16-.13.04.14.18-.04.14.18.02.11.22-.01.23-.23-.14-.04.2.23.19-.15.14.09.22-.13.2.01.4-.21.19-.15-.08-.01.7-.05.12.1.15.07.58-.14.6.13.13.28.06.05.11-.09.45.06.22.35.09.26-.01.3-.1.1.09.06.26.24.1h.3l.06.22-.1.48-.01.24.06.17.2.1.5.1.3-.07.25.11.27.18.33.14.31-.02.22.04.39-.03.13.03.23.2.2.33.1.04.31.28.44.2.04.11-.11.26.23.1.25.21.18.07.3.2.19-.02.11.07-.06.17.31.48.22.2.18-.04.16-.2.13.04v.2l-.38.06v.3l.22.16v.16l-.33.02-.04.33.09.32.19.16.16-.01.23-.12.12.1-.25.36-.07.17.06.14.38.13.04.1-.42.27-.02.16.3.15h.16l.19-.14.26.28.12.05.23-.05.35-.18.11.08 1.69-.63.64-.21.99-.36 3.26-1.17 1.88-.66.57-.14 2.14-.74-.14-.08-.2.05-.11-.04-.04-.26-.15-.02-.1.15-.21-.11-.21.03-.03.13.28.18-.1.15-.3-.11-.08-.13.17-.54-.27-.12-.04.21-.15.14-.21.1-.29-.04-.17-.24.18-.15-.14-.1.14-.16-.05-.32.12-.1-.1-.13-.66.03.04-.11.24.04.14-.1-.07-.11-.2.02-.32-.13-.07-.14.13-.21-.06-.23-.29-.16-.25.07-.08-.19.21-.02.2-.28-.04-.1h-.55l-.42-.09-.47-.2-.31-.16-.23-.17.29-.1-.03-.22.18.06.23-.15-.14-.3-.15.17-.17.06.04-.28.14-.1-.07-.15-.03-.35-.13-.39.2.04.12-.15-.2-.25.25-.13.05-.13-.03-.19-.22-.1-.1.15-.35-.13v-.16l.1-.2-.08-.08.07-.19.2-.07.08-.18-.1-.08.07-.25-.1-.15.3-.36.16-.03-.25-.22-.02-.18-.18-.33-.1.07-.12-.08-.09-.27.02-.3.1-.09-.01-.21.21-.03.04-.15.23-.34-.14-.12.13-.27-.03-.17.15-.2-.21-.08-.01-.12.26-.08.1-.35-.1-.1.09-.13.01-.24-.14-.09.09-.22.14.02.06-.14-.26-2.3-.11-.9-.35-3.44-.56-5.1 1.35-.13 2.49-.27.04.15.33.22v.15l1.21-.13-.07-.56 1.88-.22.17-.27.14-.4.04-.65-.07-.16.12-.12.04-.35-.1-.3.12-.2-.1-.24.01-.26.06-.1v-.22l.1-.22.11-.35-.55-.16-.38-.25-.23-.23.06.44-.23.03.13.37-.06.16.09.1-.42.04-.69-.35-.78.1.18-.39-.17-.13h-.17l-.56.36-.27-.1h-.16l-.3-.49-.3-.13-.2.45-.32.33-.88.1-.3-.1-.14.03-.49.28-.59.1h-.19l-.8.08-.12-.1v-.2l-.22-.25-.04-.19-.18-.25-.09-.42-.22-.75-.14-.26-.1-.08-.02-.42-.29.35-.18.02-.41.31-.29.4-.17.13-.04-.3-.13-1.26h.06l1.19-.12.76-.04.21.02.16-.1.32-.08.28-.15.5-.04.26.06h.5l.18.07.01.23-.14.32 1.58-.04.1-.01.31-.18h.2l-.2-.27-.05-.42-.1.01-.05-.34.2-.06.02-.17.26-.1.1-.27.18.22v.2l.22.05.18-.08.19.2-.19.2.2.46.06-.06-.14-.23.9-.85.33.15.09-.1-.01-.16.03-1.05.24-.01.05-.26.15.03.16-.18.22-.02.09-.07-.02-.54.07-.26.26-.17-.04-.26.08-.09.15.06.19-.14-.07-.63 1.72-.18v-.12l-.32-.16-.16-.22-.24-.13-.18-.25-.15-.4-.02-.2-.12-.16-.2.18-.33.1-.33-.08-.16.26-.3-.05-.19-.27-.18.02-.08.2.17.16.21.08-.1.15-.36.25.05-.23-.34-.36-.08-.18.1-.2-.12-.1-.08-.3.23-.19-.04-.22-.23-.16-.1-.37.17-.5v-.53l-.27-.4-.17-.39.1-.2-.16-.05v-.13l.26-.14-.06-.22-.24-.13-.37-.43-.18-.3-.03-.22.14-.36-.13-.2.05-.31-.07-.08.14-.17-.12-.14.14-.1-.13-.25-.07-.4-.1-.13v-.2l-.17-.22.05-.13.18-.03v-.13l-.19-.24.26-.23-.06-.26.12-.15-.08-.2z" fill="#d1dbdd" stroke="rgb(209, 219, 221)" stroke-width="0.1" data-originalStrokeWidth="0.1" style="stroke: rgb(0, 0, 0); stroke-width: 0.1;"/>
      <path id="LA05" d="m878.22 582.45-.28.6.08.2-.12.16.06.25-.26.23.2.24v.13l-.19.03-.05.14.17.22v.19l.1.14.07.39.13.25-.14.1.12.14-.14.17.07.08-.05.3.13.21-.14.36.03.22.18.3.37.43.24.13.06.22-.27.14.01.13.16.05-.1.2.17.39.26.4v.53l-.15.5.09.37.23.16.03.22-.22.18.08.3.12.1-.1.21.08.18.34.36-.05.23.36-.25.1-.15-.21-.08-.17-.16.08-.2.18-.01.19.26.3.05.16-.26.33.08.33-.1.2-.17.12.15.02.2.15.4.18.25.23.13.17.22.31.16.01.12-1.72.18.07.63-.19.14-.15-.05-.08.08.04.27-.26.16-.07.26.02.54-.09.08h-.22l-.16.2-.15-.04-.05.26-.24.01-.03 1.06v.15l-.09.1-.33-.15-.89.85.14.23-.05.06-.2-.46.18-.2-.19-.2-.18.08-.21-.04v-.21l-.2-.21-.09.26-.26.1-.02.17-.2.06.04.34h.11l.05.41.2.27h-.2l-.3.18h-.1l-1.59.05.14-.32-.01-.23-.19-.08-.49.02-.26-.07-.5.04-.28.15-.32.08-.16.1-.21-.02-.76.04-1.2.13-.05-.01.13 1.25.04.31.17-.14.29-.38.4-.32.19-.02.3-.35v.42l.1.09.15.25.22.75.09.42.18.26.04.18.22.26v.19l.12.1.8-.09.2.01.58-.1.49-.28.15-.02.29.1.88-.1.33-.34.2-.45.3.13.29.48h.16l.27.1.56-.35h.17l.17.13-.18.38.78-.1.69.36.42-.04-.09-.1.06-.16-.13-.37.23-.03-.06-.44.23.24.38.24.55.17-.1.34-.12.22.01.22-.06.1v.26l.1.24-.12.2.09.3-.04.35-.12.12.07.16-.04.65-.14.4-.17.27-1.88.22.07.56-1.2.13-.01-.15-.33-.22-.04-.15-2.5.27-1.34.13.56 5.1.35 3.44.11.9.26 2.3-.06.14-.14-.02-.1.23.15.08-.01.24-.1.13.1.1-.09.35-.26.08v.12l.22.08-.15.2.03.17-.13.27.14.12-.23.34-.04.15-.21.03.01.21-.1.1-.02.29.09.27.13.09.09-.08.18.33.02.19.25.2-.15.04-.3.36.1.15-.09.25.11.08-.08.18-.2.07-.07.2.07.07-.1.2.01.16.36.14.1-.15.2.1.04.18-.05.13-.25.13.2.25-.13.15-.2-.04.14.39.03.35.07.14-.14.1-.04.29.17-.06.15-.17.14.3-.24.15-.17-.06.03.22-.3.1.24.17.3.17.48.2.42.08h.55l.05.1-.21.28-.21.02.08.19.25-.07.3.16.05.23-.13.2.07.15.32.13.2-.02.07.1-.14.1-.24-.03-.04.11.66-.03.1.14-.12.09.05.32-.14.16.14.1-.18.15.17.24.29.05.21-.1.15-.15.04-.2.27.11-.17.54.08.13.3.1.1-.14-.28-.18.03-.13.2-.03.21.11.11-.15.15.02.04.26.1.04.2-.05.15.08.15.23.13.04.15-.25.12.13.14.03.13-.1.14.14-.15.22.01.16.3.05.07.16-.13.23-.02.2.14.33.15.11.16.43.38.18.1.15.17.12.21-.02.1.05-.13.22.31.17.16-.16.15.1.12.21.28.02.04.17.15.07v.29l.15.14-.23.13h-.12l-.16.21-.02.27-.34.19-.12.26-.14-.09-.13.3-.17-.07-.16.06-.2.2-.14-.02-.26.1-.02-.1-.4-.2-.14-.47-.22-.01-.1-.14-.29.07-.08.12-.4-.09-.09.23-.2.14.25 2.2.3 3.04.2.1.07.18-.2.34.37 1.72.12.09.32.02.2-.07.07-.24.25-.1.08.11.25.21.04.2-.2.25-.27.14-.07.3.09.08.18-.03.12.12.18.37.34-.04.27.08.17-.22.12.17.09-.08.17.1 1.2-.16.1-.07-.08-.38.04-.1.33-.03-.1.22.25.2.1-.24-.25-.19-.05-.46.37-.1-.11-.1-.31.02.02-.12.36-.1.04-.25h.26l-.14-.24.19-.06v-.1l.21-.15-.04-.11.29-.17.14.24.21.24.3.2.35-.02v.24l.2.07.3-.13.17-.2v-.19l.28-.3v.25l-.07.3-.12.12.1.11.16-.13.13-.3.08-.07.17.1.16-.25.26.14.06.64-.06.09.14.17.15-.14.2-.12.44-.04.14.38.2.25.13.06.57.12.5-.16.34-.22.44-.14.09.78.18.23v.27l.14.2.37-.13.14-.25.01-.3.16-.21.29-.2.13-.15.11-.02.34.1.28.16.27.02.12-.1.06-.22.24-.14.33.05.37.16.18.16.22.38-.1.24.05.4.23.6.16.3.24.35-.16.35-.1.42-.04.32.1 1.08.17.26.27.16.3.07h.34l.52-.24.4-.08h.25l.2.1.13.16.2-.12.05-.28-.16-.7-.16-.35-.16-.16-.2-.1-.27-.05h-.51l-.25-.1-.06-.15-.02-.33.29-.02.93-.16.22-.02.3.04.42.26.4.46.21.44.05.42-.03.31-.08.37-.1.67-.17.88-.17.26-.25.2-.5.14-.2.1-.2.24-.06.27.07.22.67.38.3.08h.2l.38-.1.42-.21.3-.1.61-.11h.18l.5.1.3-.05.7-.37.35-.29.29-.17.43-.09.16.08.4.46.3.5.2.57.06.27.09.2.17.52.19.29.35.09.33.02.35.1.09-.18.04-.4-.02-.32.49-.15.05-.19-.03-.24.06-.12.31-.25 5.25-.85.1.22v.16l-.17.13-.05.17-.19.06-.4.2-.01.35-.1.13-.1.45.1.45-.17.34v.1l.18.23.15.12.05.21-.05.32-.03.44.06.05-.1.36.1.49.1.1-.12.2.28.3-.03.18.35.33.15-.02.14.22-.01.16.12.08.36-.06.1-.1.28-.12.24.3.24.1.08.11.17.06.23-.18.38.2.03.21.1.12.05.21-.19-.01-.29.21.1.52.08.7-.06.08.07.26v.22l-.2.01v-.18l-.3.06-.46-.06-.19.04-.02.38-.43-.43-.65-.8-.54.08-.06-.09-.52.08.11.17-.15.11.2.25.32.57.39.03.02-.09.48.35-.12.11-.14.4-.14.07-.05.14-.32-.12-.12.31-.12-.06.22-.56-.12-.17-.15-.04-.1-.11-.01-.15-.11-.17-.97-.5-.2.2-.04.25-.45.01-.17-.09-.12.46.58.03.52.64-.02.77.28-.1.09-.34.28-.08.14-.1.34.33.45.17.69.2.11-.16.25.08.54-.18.22.1.3.06.13-.1.48.46.03-.18.23.26.16-.05.22.23-.03.19.16-.03.21.12-.28.13-.26-.06-.03.2.15.18.14.28.36-.02.2.07.13.22.06-.29.28-.05-.05-.43.21-.03-.06-.45.68-.1.13.9.44-.05-.11-.85.19.17.18.05.24.16.14-.24.1-.03.22-.23.08-.25.18-.04-.03-.36.22.09.24.03-.07.19.26.02.06.07.22.7h.29l-.07.13.19.35.31-.16.29-.08.2.17.19-.06.3.02.1-.16.2.18.11-.19.23.04.09-.13-.13-.2.22-.1.15-.17.21.12.18.03-.03-.16-.14-.02-.21-.18-.14-.2-.08-.56-.05-.12-.22-.28-.23.06-.13-.24-.17-.1-.31.03-.15.2-.13.03-.11-.09-.3.08-.03-.31.33-.43.17-.08.1.08.2-.18v-.12l.21-.06.43.06.42-.06-.22-.4.11-.43.07-.37.3.04.2-.07.05-.15.14-.1.14.11.35-.05-.02-.13-.17-.13-.07-.28-.09-.08-.02-.28-.08-.08.2-.25-.2-.4.1-.17 1.5-.19 1.4-.3 1.44-.2.33-.03 1.17-.15-.3-.74.17-.2.28-.12.14-.2.04-.42v-.3l.07-.33.16-.3.13-.11h.14l.32.12.29.15.13.12.05.28.19.2.02.12-.08.24.03.22.37.11.84-.05 2-.25h.46l-.2-1.38-.08-.56-.04-.41-.13-.22.1-.29-.18-.24-.07-.5.04-.8-.2-.15.03-.17-.17-.29.06-.1-.08-.13.05-.31-.1-.2-.02-.26-.17-.12.02-.24 3.7.28.23.03 1.9.14 1.28.09 1.6-.2 1.55-.22.11-.03.75-.1-.2.19.27-.02.83.04.01-.02-.04-.14-.06-.1v-.03l.05-.02h.04l.05.1.04.04h.15l.02-.03v-.03l-.05-.13v-.05l.06-.05.08-.09-.02-.03-.16.06-.07.02-.05-.02-.02-.03.03-.05.05-.02h.12l.04-.06v-.03l-.06-.01-.08.04h-.09l-.03-.05.03-.05.04-.05.2-.01.26-.06-.24-.09v-.45l-.1-.01.03-.05-.02-.05-.1-.04-.1-.16.01-.07.01.04.07-.06.02-.08v-.07l-.03-.08-.04-.05-.04-.06.03-.08.03-.04.04.02.02.06.05.03.05-.03.06-.07.01-.07v-.03l-.05-.1-.03-.1.14-.14.1.08v.12l.02.05h.06l.16-.1v-.03l.02-.05v-.05l-.05-.02-.01.02v.07l-.03.02h-.04l-.02-.12-.1-.07-.12-.15h.03l.13.07.14-.1v-.15l.14-.14-.1-.2.23-.08.18.1.1-.1-.18-.14.07-.1-.01-.17-.17.07.07-.53.03.05h.12v-.03l-.02-.06-.13-.16.35-.07.06-.35-.35-.31.05-.15.16.04-.07-.41-.03-.21.32.07.1-.17-.26-.27v-.05l.13-.12.25.05.1-.32-.22-.1.07-.27-.21-.27.29-.54.17-.22.22-.13-.27-.11.13-.15v-.5l-.16-.04-.02-.08-.03-.02.2-.08-.05-.08-.28.05-.25.16-.1-.07-.83.1-.4.03-.7.1-.74.08-.27.03-2.64.31-.55.06-.48.06-.25.03-1.11.14-.6.06-1.13.14-.39.03-.5.06-1.05.12-.62.1-.97.09-.87.1-.43.06-.6.06-.6.06-.43.06-.36.03-.8.1-.6.08-.73.08-.2.03-.41.04-.12.02-.3.02-.5.05-.7.08-.41.04-2.04.24-2.96.33-.67.05-1.75.19-.57.06-.36.04-.32.05h-.37l-.72.1-.32.03-1.54.18-1.08.1-1.07.12-1.06.1-.26.03-.43.04-.95.1-.41.04-.67.07-1.32.12-.41.04-1.89.2-.33.03-.72.07v.02l-.58.04-.92.1-.97.1-.9.1-1.32.09-.9.1-1.45.13.3-.2.9-.48.3-.23.33-.51.08-.48-.15-.4-.9-.69-.54-.33-.35-.35-.12-.3.09-.25.56-.89.23-.62-.03-.33-.04-.15-.16-.23-.18-.2-.18-.14-.19-.11-.13-.08-.2-.16-.54-.2-.23-.25-.1-.28v-.1l.07-.15.08-.08.17-.17.54-.08.2.02.7.06h.39l.4-.07.65-.26.22-.15.24-.2.07-.19.07-.25-.06-.73-.06-.07-.14-.1-.22-.16-.3-.18-.03-.11-.4-.24-.14-.45v-.52l.06-.18-.25-.1-.13.07-.17.17-.03.06-.32-.64.02-.36.26-.44.42-.32.2.03.13.2-.03.33.13.3.06.25.29.52.42.3.18.07.68-.06.1-.14.1-.25-.11-.65h-.15l-.09-.19-.57-.45-.44-.73-.15-.5-.1-.72V628l-.16-.08-.06-.15.04-.21.1-.2.67-.18.27.08.43-.18.5-.27.4-.4.2-.2.12-.1.18-.34.02-.25v-.32l-.08-.04-.17-.1-.27-.03-.2.03-.64.33-.17.08-.26.04-.4.02-.3-.15-.16-.1-.32-.32-.1-.13-.05-.5.1-.24.36-.38.12.02.1.1.23.3.34.2.32.11.36.07.17.04.5.03.12-.07.4-.27.05-.76-.1-.47-.18-1.17.04-.46.36-.7.14-.23.12-.26.45-.13.85-.1.2.04h.24l.3.05.43-.04.24-.2.12-.2.06-.12-.13-.22-.2-.09h-.45l-.51.26-.35.12-.7.23-.5-.04v-.7l.27-1.73.02-.17.17-.3.25-.15.46-.08.41-.18.2.52v.23l.02.08.02.13.02.08.04.08.04.05.05.11.06.08.1.08.08.04.15.05h.12l.13-.02.11-.07.08-.09.11-.14.07-.18v-.15l.02-.11-.16-.12-.2-.18-.18-.15-.18-.21v-.2l.06-.13.46-.2.35-.28.76-1.08.53-.35-.13-.2v-.03l-.05-.28-.2-.04.03-.3v-.47l.15-.24.08-.13.33-.35 1.24-.28.29-.1.4-.38.32-.56-.12-.05-.16-.4-.08-.05-.17-.08-1.41-.16-.31-.17-.18-.27.09-.4.2-.2.34-.05.2.1.44.54.24.18.09.05.12.02.42-.02.08-.04-.14-.8.24-.28.82-.57.18-.34-.02-.26v-.02l.08-.14.17-.08.22-.3.13-.36-.02-.6h-.06l-.29.06-.22-.02-.5-.33-.45-.16v.28l.31.45v.41l.02.57-.8-.17-.5.14-.24.23-.04-.01-.05-.02-.46.05-.36-.1-.5-.02-.3-.4-.09-.35.04-.61.1-.61.16-.23.62-.43.18.03.26.15h.1l.31-.4.43-.32.32-.01.26.18h.04l.13-.18.05-.32.12-.22.2-.06.34.08.34.23.33.2v.33l.08.45.11.22.13-.1.2-.5-.01-.73.03-.37.26-.3-.07-.18-.35-.36-.07-.3.04-.18.03-.2.22-.2.16-.02.42.4.2-.1.35-.3.3-.33.24-.38.17-.67.08-.18.16-.34.17-.52.03-.22-.28.02-.1.05-.03.04-.02.2-.17.5-.26.36-.5-.08h-.64l-.87-.1-.37-.15-.16-.29.07-.46.1-.2v-.51l.47-.27.22-.33-.03-.22-.03-.2-.02-.05-.06-.11-.1-.06-.22-.17-.38-.07-.84.62-.58-.03-.52-.18-.52-.24-.3-.2-.43-.42-.12-.2-.1-.55.35-.85.02-.61.1-.13.43.34.9 1.12.33.2.37.15h.64l.26-.2.03-.34-.23-.28-.66-.33-.74-.17-.5-.22-.28-.22-.23-.34.45-.36.4-.32.13-.08.24-.2.16-.3.24-.24.22-.44-.05-.4-.31-.46-.32-.17-.29.32-.06.38-.17.4v.21l-.3.07-.46.2-.7.41-.21-.01-.07.2-.16.02-.52-.4-.27-.5-.1-.31-.03-.13v-.33l.37-.35.03-.05.22-.5.18-.25.48-.4.46-.23.4-.42.18-.53v-.1l-.17-.14-.82-.2-.53-.03-.25-.05-.15-.04-.13.04-.51.07-.37-.13-.07-.12-.02-.38.19-.56-.26-.15.04-.36v-.2l-.03-.13v-.1l-.02-.05.03-.11.01-.17.04-.1.13-.1.16-.59.38-.37h.08l.48-.16.4-.45.44-.6.1-.4.02-.16-.05-.24-.01-.28-.26-.45-.24-.16-.06-.17.06-.1-.06-.33-.22-.4-.3-.3-.26-.06-.47.2-.07.03-.17.13-.07.27.25.28-.14.17.03.27.03.08.16.5-.01.32-.28.48-.47.23h-.47l-.5-.18-.28-.23-.1-.16-.06-.44.25-.46.08-.02v-.05l-.11-.17.06-.2.26-.4.34-.38.14-.47-.07-.1h-.13l-1.02.09-.26.02-.35.04-.77.07-.36.04-.87.08-.38.03-.31.04-.64.05-.6.06-.65.04-.68.07-.15.01-1.84.17-2.92.28h-.1l-1.4.15-.95.08-.85.08h-.07l-.44.05-2.65.24h-.13l-.63.07-.88.08-.47.04-.16.02-.68.05-1 .1-1.26.11z" fill="#d1dbdd" stroke="rgb(209, 219, 221)" stroke-width="0.1" data-originalStrokeWidth="0.1" style="stroke: rgb(0, 0, 0); stroke-width: 0.1;"/>
      <g id="state_lines" stroke="rgb(209, 219, 221)" style="display: none; stroke: rgb(0, 0, 0);" stroke-width="0.1"/>
      <g id="state_abbr" fill="#000000" style="display: none; fill: rgb(0, 0, 0);">
        <text id="HI_label" x="491.79" y="769.82" style="font-size: 19.2455px; stroke-width: 1.60379; display: none;">
          <tspan id="HI_tspan" x="491.79" y="769.82" fill="#000000" dy="0" font-family="Arial" font-size="24.06" font-style="normal" font-weight="400" style="text-align: center; stroke-width: 2.57215; fill: rgb(0, 0, 0);" text-anchor="middle">HI</tspan>
        </text>
        <text id="AK_label" x="205.24" y="672.25" style="font-size: 19.2455px; stroke-width: 1.60379; display: none;">
          <tspan id="AK_tspan" x="205.24" y="672.25" fill="#000000" dy="0" font-family="Arial" font-size="24.06" font-style="normal" font-weight="400" style="text-align: center; stroke-width: 2.57215; fill: rgb(0, 0, 0);" text-anchor="middle">AK</tspan>
        </text>
        <text id="FL_label" x="1188.11" y="708.7" style="font-size: 19.2455px; stroke-width: 1.60379; display: none;">
          <tspan id="FL_tspan" x="1188.11" y="708.7" fill="#000000" dy="0" font-family="Arial" font-size="24.06" font-style="normal" font-weight="400" style="text-align: center; stroke-width: 2.57215; fill: rgb(0, 0, 0);" text-anchor="middle">FL</tspan>
        </text>
        <text id="NH_label" x="1306.05" y="167.79" stroke-width="1.1" font-size="13.25" style="display: none;">
          <tspan id="NH_tspan" x="1306.05" y="167.79" fill="#000000" stroke-width="1.1" dy="0" font-family="Arial" font-size="16.56" font-style="normal" font-weight="400" style="text-align: center; fill: rgb(0, 0, 0);" text-anchor="middle">NH</tspan>
        </text>
        <text id="MI_label" x="1019.65" y="246.58" style="font-size: 19.2455px; stroke-width: 1.60379; display: none;">
          <tspan id="MI_tspan" x="1019.65" y="246.58" fill="#000000" dy="0" font-family="Arial" font-size="24.06" font-style="normal" font-weight="400" style="text-align: center; stroke-width: 2.57215; fill: rgb(0, 0, 0);" text-anchor="middle">MI</tspan>
        </text>
        <text id="VT_label" x="1274.28" y="145.01" stroke-width="1.05" font-size="12.65" style="display: none;">
          <tspan id="VT_tspan" x="1274.28" y="145.01" fill="#000000" stroke-width="1.05" dy="0" font-family="Arial" font-size="15.81" font-style="normal" font-weight="400" style="text-align: center; fill: rgb(0, 0, 0);" text-anchor="middle">VT</tspan>
        </text>
        <text id="ME_label" x="1338.99" y="105.14" stroke-width="1.45" font-size="17.36" style="display: none;">
          <tspan id="ME_tspan" x="1338.99" y="105.14" fill="#000000" stroke-width="1.45" dy="0" font-family="Arial" font-size="21.7" font-style="normal" font-weight="400" style="text-align: center; fill: rgb(0, 0, 0);" text-anchor="middle">ME</tspan>
        </text>
        <text id="RI_label" x="1361.38" y="262.84" stroke-width="1.25" font-size="14.98" style="display: none;">
          <tspan id="RI_tspan" x="1361.38" y="262.84" fill="#000000" stroke-width="1.25" dy="0" font-family="Arial" font-size="18.72" font-style="normal" font-weight="400" style="text-align: center; fill: rgb(0, 0, 0);" text-anchor="middle">RI</tspan>
        </text>
        <text id="NY_label" x="1227.27" y="204.12" style="font-size: 19.2455px; stroke-width: 1.60379; display: none;">
          <tspan id="NY_tspan" x="1227.27" y="204.12" fill="#000000" dy="0" font-family="Arial" font-size="24.06" font-style="normal" font-weight="400" style="text-align: center; stroke-width: 2.57215; fill: rgb(0, 0, 0);" text-anchor="middle">NY</tspan>
        </text>
        <text id="PA_label" x="1187.28" y="284.69" style="font-size: 19.2455px; stroke-width: 1.60379; display: none;">
          <tspan id="PA_tspan" x="1187.28" y="284.69" fill="#000000" dy="0" font-family="Arial" font-size="24.06" font-style="normal" font-weight="400" style="text-align: center; stroke-width: 2.57215; fill: rgb(0, 0, 0);" text-anchor="middle">PA</tspan>
        </text>
        <text id="NJ_label" x="1330.57" y="290.09" stroke-width="1.28" font-size="15.4" style="display: none;">
          <tspan id="NJ_tspan" x="1330.57" y="290.09" fill="#000000" stroke-width="1.28" dy="0" font-family="Arial" font-size="19.25" font-style="normal" font-weight="400" style="text-align: center; fill: rgb(0, 0, 0);" text-anchor="middle">NJ</tspan>
        </text>
        <text id="DE_label" x="1320.8" y="328.42" stroke-width="1.36" font-size="16.38" style="display: none;">
          <tspan id="DE_tspan" x="1320.8" y="328.42" fill="#000000" stroke-width="1.36" dy="0" font-family="Arial" font-size="20.47" font-style="normal" font-weight="400" style="text-align: center; fill: rgb(0, 0, 0);" text-anchor="middle">DE</tspan>
        </text>
        <text id="MD_label" x="1310.72" y="368.46" stroke-width="1.34" font-size="16.11" style="display: none;">
          <tspan id="MD_tspan" x="1310.72" y="368.46" fill="#000000" stroke-width="1.34" dy="0" font-family="Arial" font-size="20.13" font-style="normal" font-weight="400" style="text-align: center; fill: rgb(0, 0, 0);" text-anchor="middle">MD</tspan>
        </text>
        <text id="VA_label" x="1198.59" y="392.33" style="font-size: 19.2455px; stroke-width: 1.60379; display: none;">
          <tspan id="VA_tspan" x="1198.59" y="392.33" fill="#000000" dy="0" font-family="Arial" font-size="24.06" font-style="normal" font-weight="400" style="text-align: center; stroke-width: 2.57215; fill: rgb(0, 0, 0);" text-anchor="middle">VA</tspan>
        </text>
        <text id="WV_label" x="1129.66" y="382.3" style="font-size: 19.2455px; stroke-width: 1.60379; display: none;">
          <tspan id="WV_tspan" x="1129.66" y="382.3" fill="#000000" dy="0" font-family="Arial" font-size="24.06" font-style="normal" font-weight="400" style="text-align: center; stroke-width: 2.57215; fill: rgb(0, 0, 0);" text-anchor="middle">WV</tspan>
        </text>
        <text id="OH_label" x="1079.05" y="334.46" style="font-size: 19.2455px; stroke-width: 1.60379; display: none;">
          <tspan id="OH_tspan" x="1079.05" y="334.46" fill="#000000" dy="0" font-family="Arial" font-size="24.06" font-style="normal" font-weight="400" style="text-align: center; stroke-width: 2.57215; fill: rgb(0, 0, 0);" text-anchor="middle">OH</tspan>
        </text>
        <text id="IN_label" x="998.79" y="352.94" style="font-size: 19.2455px; stroke-width: 1.60379; display: none;">
          <tspan id="IN_tspan" x="998.79" y="352.94" fill="#000000" dy="0" font-family="Arial" font-size="24.06" font-style="normal" font-weight="400" style="text-align: center; stroke-width: 2.57215; fill: rgb(0, 0, 0);" text-anchor="middle">IN</tspan>
        </text>
        <text id="IL_label" x="927.43" y="364.36" style="font-size: 19.2455px; stroke-width: 1.60379; display: none;">
          <tspan id="IL_tspan" x="927.43" y="364.36" fill="#000000" dy="0" font-family="Arial" font-size="24.06" font-style="normal" font-weight="400" style="text-align: center; stroke-width: 2.57215; fill: rgb(0, 0, 0);" text-anchor="middle">IL</tspan>
        </text>
        <text id="CT_label" x="1299.17" y="228.46" stroke-width="1.06" font-size="12.74" style="display: none;">
          <tspan id="CT_tspan" x="1299.17" y="228.46" fill="#000000" stroke-width="1.06" dy="0" font-family="Arial" font-size="15.93" font-style="normal" font-weight="400" style="text-align: center; fill: rgb(0, 0, 0);" text-anchor="middle">CT</tspan>
        </text>
        <text id="WI_label" x="898.6" y="224.7" style="font-size: 19.2455px; stroke-width: 1.60379; display: none;">
          <tspan id="WI_tspan" x="898.6" y="224.7" fill="#000000" dy="0" font-family="Arial" font-size="24.06" font-style="normal" font-weight="400" style="text-align: center; stroke-width: 2.57215; fill: rgb(0, 0, 0);" text-anchor="middle">WI</tspan>
        </text>
        <text id="NC_label" x="1205.6" y="458.72" style="font-size: 19.2455px; stroke-width: 1.60379; display: none;">
          <tspan id="NC_tspan" x="1205.6" y="458.72" fill="#000000" dy="0" font-family="Arial" font-size="24.06" font-style="normal" font-weight="400" style="text-align: center; stroke-width: 2.57215; fill: rgb(0, 0, 0);" text-anchor="middle">NC</tspan>
        </text>
        <text id="MA_label" x="1305.87" y="200.67" stroke-width="1.04" font-size="12.46" style="display: none;">
          <tspan id="MA_tspan" x="1305.87" y="200.67" fill="#000000" stroke-width="1.04" dy="0" font-family="Arial" font-size="15.58" font-style="normal" font-weight="400" style="text-align: center; fill: rgb(0, 0, 0);" text-anchor="middle">MA</tspan>
        </text>
        <text id="MO_label" x="854.22" y="422.93" style="font-size: 19.2455px; stroke-width: 1.60379; display: none;">
          <tspan id="MO_tspan" x="854.22" y="422.93" fill="#000000" dy="0" font-family="Arial" font-size="24.06" font-style="normal" font-weight="400" style="text-align: center; stroke-width: 2.57215; fill: rgb(0, 0, 0);" text-anchor="middle">MO</tspan>
        </text>
        <text id="GA_label" x="1106.89" y="574.56" style="font-size: 19.2455px; stroke-width: 1.60379; display: none;">
          <tspan id="GA_tspan" x="1106.89" y="574.56" fill="#000000" dy="0" font-family="Arial" font-size="24.06" font-style="normal" font-weight="400" style="text-align: center; stroke-width: 2.57215; fill: rgb(0, 0, 0);" text-anchor="middle">GA</tspan>
        </text>
        <text id="SC_label" x="1166.32" y="522.49" style="font-size: 19.2455px; stroke-width: 1.60379; display: none;">
          <tspan id="SC_tspan" x="1166.32" y="522.49" fill="#000000" dy="0" font-family="Arial" font-size="24.06" font-style="normal" font-weight="400" style="text-align: center; stroke-width: 2.57215; fill: rgb(0, 0, 0);" text-anchor="middle">SC</tspan>
        </text>
        <text id="KY_label" x="1039.99" y="426.39" style="font-size: 19.2455px; stroke-width: 1.60379; display: none;">
          <tspan id="KY_tspan" x="1039.99" y="426.39" fill="#000000" dy="0" font-family="Arial" font-size="24.06" font-style="normal" font-weight="400" style="text-align: center; stroke-width: 2.57215; fill: rgb(0, 0, 0);" text-anchor="middle">KY</tspan>
        </text>
        <text id="AL_label" x="1019.59" y="578.15" style="font-size: 19.2455px; stroke-width: 1.60379; display: none;">
          <tspan id="AL_tspan" fill="#000000" dy="0" font-family="Arial" font-size="24.06" font-style="normal" font-weight="400" style="text-align: center; stroke-width: 2.57215; fill: rgb(0, 0, 0);" text-anchor="middle">AL</tspan>
        </text>
        <text id="LA_label" x="872.7" y="649.59" style="font-size: 19.2455px; stroke-width: 1.60379; display: none;">
          <tspan id="LA_tspan" x="872.7" y="649.59" fill="#000000" dy="0" font-family="Arial" font-size="24.06" font-style="normal" font-weight="400" style="text-align: center; stroke-width: 2.57215; fill: rgb(0, 0, 0);" text-anchor="middle">LA</tspan>
        </text>
        <text id="MS_label" x="940.37" y="592.21" style="font-size: 19.2455px; stroke-width: 1.60379; display: none;">
          <tspan id="MS_tspan" x="940.37" y="592.21" fill="#000000" dy="0" font-family="Arial" font-size="24.06" font-style="normal" font-weight="400" style="text-align: center; stroke-width: 2.57215; fill: rgb(0, 0, 0);" text-anchor="middle">MS</tspan>
        </text>
        <text id="IA_label" x="823.33" y="308.44" style="font-size: 19.2455px; stroke-width: 1.60379; display: none;">
          <tspan id="IA_tspan" x="823.33" y="308.44" fill="#000000" dy="0" font-family="Arial" font-size="24.06" font-style="normal" font-weight="400" style="text-align: center; stroke-width: 2.57215; fill: rgb(0, 0, 0);" text-anchor="middle">IA</tspan>
        </text>
        <text id="MN_label" x="790.84" y="183.37" style="font-size: 19.2455px; stroke-width: 1.60379; display: none;">
          <tspan id="MN_tspan" x="790.84" y="183.37" fill="#000000" dy="0" font-family="Arial" font-size="24.06" font-style="normal" font-weight="400" style="text-align: center; stroke-width: 2.57215; fill: rgb(0, 0, 0);" text-anchor="middle">MN</tspan>
        </text>
        <text id="OK_label" x="732.05" y="519.54" style="font-size: 19.2455px; stroke-width: 1.60379; display: none;">
          <tspan id="OK_tspan" x="732.05" y="519.54" fill="#000000" dy="0" font-family="Arial" font-size="24.06" font-style="normal" font-weight="400" style="text-align: center; stroke-width: 2.57215; fill: rgb(0, 0, 0);" text-anchor="middle">OK</tspan>
        </text>
        <text id="TX_label" x="710.59" y="652.87" style="font-size: 19.2455px; stroke-width: 1.60379; display: none;">
          <tspan id="TX_tspan" x="710.59" y="652.87" fill="#000000" dy="0" font-family="Arial" font-size="24.06" font-style="normal" font-weight="400" style="text-align: center; stroke-width: 2.57215; fill: rgb(0, 0, 0);" text-anchor="middle">TX</tspan>
        </text>
        <text id="NM_label" x="506.94" y="542.36" style="font-size: 19.2455px; stroke-width: 1.60379; display: none;">
          <tspan id="NM_tspan" x="506.94" y="542.36" fill="#000000" dy="0" font-family="Arial" font-size="24.06" font-style="normal" font-weight="400" style="text-align: center; stroke-width: 2.57215; fill: rgb(0, 0, 0);" text-anchor="middle">NM</tspan>
        </text>
        <text id="KS_label" x="701.21" y="427.26" style="font-size: 19.2455px; stroke-width: 1.60379; display: none;">
          <tspan id="KS_tspan" x="701.21" y="427.26" fill="#000000" dy="0" font-family="Arial" font-size="24.06" font-style="normal" font-weight="400" style="text-align: center; stroke-width: 2.57215; fill: rgb(0, 0, 0);" text-anchor="middle">KS</tspan>
        </text>
        <text id="NE_label" x="686.63" y="337.29" style="font-size: 19.2455px; stroke-width: 1.60379; display: none;">
          <tspan id="NE_tspan" x="686.63" y="337.29" fill="#000000" dy="0" font-family="Arial" font-size="24.06" font-style="normal" font-weight="400" style="text-align: center; stroke-width: 2.57215; fill: rgb(0, 0, 0);" text-anchor="middle">NE</tspan>
        </text>
        <text id="SD_label" x="663.02" y="238.75" style="font-size: 19.2455px; stroke-width: 1.60379; display: none;">
          <tspan id="SD_tspan" x="663.02" y="238.75" fill="#000000" dy="0" font-family="Arial" font-size="24.06" font-style="normal" font-weight="400" style="text-align: center; stroke-width: 2.57215; fill: rgb(0, 0, 0);" text-anchor="middle">SD</tspan>
        </text>
        <text id="ND_label" x="663.02" y="150.75" style="font-size: 19.2455px; stroke-width: 1.60379; display: none;">
          <tspan id="ND_tspan" x="663.02" y="150.75" fill="#000000" dy="0" font-family="Arial" font-size="24.06" font-style="normal" font-weight="400" style="text-align: center; stroke-width: 2.57215; fill: rgb(0, 0, 0);" text-anchor="middle">ND</tspan>
        </text>
        <text id="WY_label" x="499.57" y="276.47" style="font-size: 19.2455px; stroke-width: 1.60379; display: none;">
          <tspan id="WY_tspan" x="499.57" y="276.47" fill="#000000" dy="0" font-family="Arial" font-size="24.06" font-style="normal" font-weight="400" style="text-align: center; stroke-width: 2.57215; fill: rgb(0, 0, 0);" text-anchor="middle">WY</tspan>
        </text>
        <text id="MT_label" x="487.84" y="155.58" style="font-size: 19.2455px; stroke-width: 1.60379; display: none;">
          <tspan id="MT_tspan" x="487.84" y="155.58" fill="#000000" dy="0" font-family="Arial" font-size="24.06" font-style="normal" font-weight="400" style="text-align: center; stroke-width: 2.57215; fill: rgb(0, 0, 0);" text-anchor="middle">MT</tspan>
        </text>
        <text id="CO_label" x="525.13" y="406.28" style="font-size: 19.2455px; stroke-width: 1.60379; display: none;">
          <tspan id="CO_tspan" x="525.13" y="406.28" fill="#000000" dy="0" font-family="Arial" font-size="24.06" font-style="normal" font-weight="400" style="text-align: center; stroke-width: 2.57215; fill: rgb(0, 0, 0);" text-anchor="middle">CO</tspan>
        </text>
        <text id="ID_label" x="339.94" y="235.07" style="font-size: 19.2455px; stroke-width: 1.60379; display: none;">
          <tspan id="ID_tspan" x="339.94" y="235.07" fill="#000000" dy="0" font-family="Arial" font-size="24.06" font-style="normal" font-weight="400" style="text-align: center; stroke-width: 2.57215; fill: rgb(0, 0, 0);" text-anchor="middle">ID</tspan>
        </text>
        <text id="UT_label" x="396.81" y="386.73" style="font-size: 19.2455px; stroke-width: 1.60379; display: none;">
          <tspan id="UT_tspan" x="396.81" y="386.73" fill="#000000" dy="0" font-family="Arial" font-size="24.06" font-style="normal" font-weight="400" style="text-align: center; stroke-width: 2.57215; fill: rgb(0, 0, 0);" text-anchor="middle">UT</tspan>
        </text>
        <text id="AZ_label" x="366.76" y="536.9" style="font-size: 19.2455px; stroke-width: 1.60379; display: none;">
          <tspan id="AZ_tspan" x="366.76" y="536.9" fill="#000000" dy="0" font-family="Arial" font-size="24.06" font-style="normal" font-weight="400" style="text-align: center; stroke-width: 2.57215; fill: rgb(0, 0, 0);" text-anchor="middle">AZ</tspan>
        </text>
        <text id="NV_label" x="262.47" y="370.64" style="font-size: 19.2455px; stroke-width: 1.60379; display: none;">
          <tspan id="NV_tspan" x="262.47" y="370.64" fill="#000000" dy="0" font-family="Arial" font-size="24.06" font-style="normal" font-weight="400" style="text-align: center; stroke-width: 2.57215; fill: rgb(0, 0, 0);" text-anchor="middle">NV</tspan>
        </text>
        <text id="OR_label" x="214.43" y="206.88" style="font-size: 19.2455px; stroke-width: 1.60379; display: none;">
          <tspan id="OR_tspan" x="214.43" y="206.88" fill="#000000" dy="0" font-family="Arial" font-size="24.06" font-style="normal" font-weight="400" style="text-align: center; stroke-width: 2.57215; fill: rgb(0, 0, 0);" text-anchor="middle">OR</tspan>
        </text>
        <text id="WA_label" x="238.05" y="102.99" style="font-size: 19.2455px; stroke-width: 1.60379; display: none;">
          <tspan id="WA_tspan" x="238.05" y="102.99" fill="#000000" dy="0" font-family="Arial" font-size="24.06" font-style="normal" font-weight="400" style="text-align: center; stroke-width: 2.57215; fill: rgb(0, 0, 0);" text-anchor="middle">WA</tspan>
        </text>
        <text id="CA_label" x="191.69" y="434.8" style="font-size: 19.2455px; stroke-width: 1.60379; display: none;">
          <tspan id="CA_tspan" x="191.69" y="434.8" fill="#000000" dy="0" font-family="Arial" font-size="24.06" font-style="normal" font-weight="400" style="text-align: center; stroke-width: 2.57215; fill: rgb(0, 0, 0);" text-anchor="middle">CA</tspan>
        </text>
        <text id="DC_label" x="1309.32" y="398.19" stroke-width="1.29" font-size="15.45" style="display: none;">
          <tspan id="DC_tspan" x="1309.32" y="398.19" fill="#000000" stroke-width="1.29" dy="0" font-family="Arial" font-size="19.31" font-style="normal" font-weight="400" style="text-align: center; fill: rgb(0, 0, 0);" text-anchor="middle">DC</tspan>
        </text>
        <text id="TN_label" x="1018.93" y="485.72" style="font-size: 19.2455px; stroke-width: 1.60379; display: none;">
          <tspan id="TN_tspan" x="1018.93" y="485.72" fill="#000000" dy="0" font-family="Arial" font-size="24.06" font-style="normal" font-weight="400" style="text-align: center; stroke-width: 2.57215; fill: rgb(0, 0, 0);" text-anchor="middle">TN</tspan>
        </text>
        <text id="AR_label" x="863.15" y="535.77" style="font-size: 19.2455px; stroke-width: 1.60379; display: none;">
          <tspan id="AR_tspan" x="863.15" y="535.77" fill="#000000" dy="0" font-family="Arial" font-size="24.06" font-style="normal" font-weight="400" style="text-align: center; stroke-width: 2.57215; fill: rgb(0, 0, 0);" text-anchor="middle">AR</tspan>
        </text>
      </g>
      <g id="state_borders" transform="translate(-0.04777967,-0.15336683)" stroke="rgb(209, 219, 221)" style="stroke: rgb(0, 0, 0);" stroke-width="0.3">
        <path id="LA_MS_border" d="m955.97 663.88-.27-.4-.95.56-.3-.16-.67-.85-.47-.31-.05-.62-.46-.26-.07-.7-.48-.33.5-.8-.2-.75-.8-.46-.9-1.45.13-.27-.27-1.16-.97-.72-.3-.4-1.23-.61-.42-.87-.4-.07-.42-.58-.3-.93-.26-.18-.1-1.31-.88-.35.3-.97-.32-.5.42-.61.05-.95-.3-.27.44-1.12.67-1.12-.28-.62.47-.16-.2-1.3.44-.2-.26-.31.5-.27-.37-.61.45-.91.12-.87-.18-.35-.52.16-4.55.54-11.93 1.36-9.76 1.1-8.95.94-9.51.93-5.7.55 1.18-.7.63-.73-.17-.96-1.36-.96-.35-.36.06-.65.56-.9.1-.96-.35-.43-1.21-.7-.33-.65.4-.4 1.73.02 1.42-.6.22-.52-.1-.8-1.15-.84-.3-1.2-.31.3-.32-.66.27-.8.64-.28.35 1.24.49.59 1 .07.1-1-.83-.7-.41-.71-.26-1.21-.07-1.5.95-.06.76-.38 1.03-1.05.04-.64-.51-.17-.9.36-.74.14-.9-.72-.05-.5.45-.62.97.7 1.15.17.52-.33.06-.77-.25-1.35v-.75l.74-1.24.7-.13 1.7-.02.26-.7-.63-.1-1.03.43-1.05.1.06-1.2.22-1.41.18-.27 1.12-.4.24.97.38.5.4.04.37-.8-.62-.51-.06-.36.83-.52.78-1.1.53-.35-.4-.5.05-.81.56-.75 1.24-.27.68-.48.32-.56-.6-.6-1.34-.14-.5-.65.3-.4.55.05.88.8.5-.1-.1-.91 1.04-.71.12-.73.48-.37.13-1-.6.05-.93-.5.3.73.03 1.04-.8-.23-.74.37-1.4-.12-.37-.65.15-1.36.76-.6.43.17.84-.71.6.18.33-.74.32-.05.88.5.14.95.4-.61-.01-1.04.27-.31-.43-.52.1-.85.78.34.78-.73.84-2.28-.43.12-.42 1.02-2.01-.18-.5-.47.14-1.15.5-.3.13-.72-.8-.46-.85.65-.63-.1-1.18-.51-.62-.71-.08-.55.45-1.6.54.45 1.1 1.25.93.17.34-.21-.18-.64-1.55-.55-.85-.74 1.1-.84.7-1.02.02-.42-.67-.7-.31.37-.2.95-.76.27-.98.59-.78-.52-.28-1.13.8-1.14 1.33-1.05v-.8l-1.7-.3-.91.08-.21-.56-.08-1.6.33-1 .4-.44.58-.16.82-1.05.02-1.2-.54-.62-.2-.88-.55-.35-.73.37.04.85.24.7-.28.8-.38.2-.97-.1-.47-.43.16-1.26.66-.87.13-.58" stroke="rgb(209, 219, 221)" stroke-width="0.3" fill="none" style="stroke: rgb(0, 0, 0); display: none;"/>
        <path id="LA_TX_border" d="m840.4 690.39-.98-1.33-.51-.18-.34-.9-.7-.38-.18-.38.1-.67.57-.63 1.17-.94.62-1 .3-.84.18-1.07.48-1.18.4-.21.75-.82.09-.54.56-.94-.6-.6.8-.9.09-1.24-.76-1.74.37-.97-.2-.82.04-.77-1.08-.38-.5-1.05-.06-1.64 1.36-1.36.1-.45-.6-1.12.22-.82-.8-.7.22-.9-.14-.47.36-.44.92-.28-.18-.47-.05-1 .58-.7.76-.62.1-.68.35-.7-.3-.6.09-.55.6-.17.16-1.26.55-.2.15-.55-.22-1.34-.45-.48.65-.47-.3-.48.32-.46.39.07-.1-1.08-1-.25.06-.6-.4-.37.3-.43.3.28.42-.18.77-.8-.65-.57.25-.2-.21-.53-.67-.1-.34-.45.37-.2.17-.94-.3-.83.3-.96h-.37l-1.01.73-.33-.3-.27-.9.23-.82-.57-.04v-.9l-.23-.31-.56.05-.7-.75-.45-.1.28-1.57.55-.26.17-.5-.67.3-.28-1.01-.87-.6.28-.72-.36.04.02-.5-.5.1-.75-.41.07-.55.47-.14.3-.84h-.8l-.14-.43-.3.24-.75-.05-.88-.81-.66-1.35.55-.8-.36-1.35.76-1.18-.6-.16.06-.56-.66-.65.27-.88-.48-.75-1-.62.02-.47-.46-.62.19-.24-.58-.45.07-.45-.91.1.04-.58-.65.08-.57-.33-1.3-2.03-.7-.27-.25-3.8-.83-11.56-1.17-16.8" stroke="rgb(209, 219, 221)" stroke-width="0.3" fill="none" style="stroke: rgb(0, 0, 0); display: none;"/>
      </g>
      <rect id="selection-rectangle" fill="#ffffccaa" stroke="rgb(209, 219, 221)" stroke-width="0.1"/>
      <ellipse id="selection-ellipse" fill="#ffffccaa" stroke="rgb(209, 219, 221)" stroke-width="0.1"/>
      <polygon id="selection-polygon" fill="#ffffccaa" stroke="rgb(209, 219, 221)" stroke-width="0.1"/>
      <polyline id="selection-polyline" fill="#ffffccaa" stroke="rgb(209, 219, 221)" stroke-width="0.1"/>
    </svg>
  </g>
</svg>
