<?xml version='1.0' encoding='UTF-8'?>
<svg xmlns="http://www.w3.org/2000/svg" xmlns:dc="http://purl.org/dc/elements/1.1/" xmlns:ns2="http://creativecommons.org/ns#" xmlns:rdf="http://www.w3.org/1999/02/22-rdf-syntax-ns#" id="wrapper" viewBox="0 0 1520 840" preserveAspectRatio="xMinYMin" height="840" width="1520" style="background-color: rgb(255, 255, 255);">
  <metadata>
    <rdf:rdf>
      <ns2:work rdf:about="">
        <dc:format>image/svg+xml</dc:format>
        <dc:type rdf:resource="http://purl.org/dc/dcmitype/StillImage"/>
        <dc:title>MapChart Map</dc:title>
        <dc:creator>
          <ns2:agent>
            <dc:title>MapChart.net</dc:title>
          </ns2:agent>
        </dc:creator>
        <ns2:license rdf:resource="http://creativecommons.org/licenses/by-sa/4.0/"/>
        <dc:description>This map was created with MapChart.net, a website for creating custom maps.</dc:description>
      </ns2:work>
      <ns2:license rdf:about="http://creativecommons.org/licenses/by-sa/4.0/">
        <ns2:permits rdf:resource="http://creativecommons.org/ns#Reproduction"/>
        <ns2:permits rdf:resource="http://creativecommons.org/ns#Distribution"/>
        <ns2:requires rdf:resource="http://creativecommons.org/ns#Notice"/>
        <ns2:requires rdf:resource="http://creativecommons.org/ns#Attribution"/>
        <ns2:requires rdf:resource="http://creativecommons.org/ns#ShareAlike"/>
      </ns2:license>
    </rdf:rdf>
  </metadata>
  <g id="map-group" transform="translate(-6125.253181131175,-61.36088165334121) scale(5.121946970247054)">
    <svg id="map" width="1520" height="840" version="1.1" viewBox="0 0 1520 840" preserveAspectRatio="xMinYMin" data-originalStrokeWidth="0.3">
      <defs>
        <pattern id="circles3" width="10" height="10" patternUnits="userSpaceOnUse">    <rect width="10" height="10" fill="#fff"/>    <circle cx="4" cy="4" r="2" fill="#000"/>    </pattern>
        <pattern id="diagonal1" width="10" height="10" patternUnits="userSpaceOnUse">    <rect width="10" height="10" fill="#fff"/>    </pattern>
        <pattern id="diagonal3" width="10" height="10" patternUnits="userSpaceOnUse">    <rect width="10" height="10" fill="#fff"/>    </pattern>
        <pattern id="vertical1" width="10" height="10" patternUnits="userSpaceOnUse">    <rect width="10" height="10" fill="#fff"/>    <rect x="2" y="0" width="1" height="10" fill="#000"/>    </pattern>
        <pattern id="vertical3" width="10" height="10" patternUnits="userSpaceOnUse">    <rect width="10" height="10" fill="#fff"/>    <rect x="2" y="0" width="3" height="10" fill="#000"/>    </pattern>
        <pattern id="horizontal1" width="10" height="10" patternUnits="userSpaceOnUse">    <rect width="10" height="10" fill="#fff"/>    <rect x="0" y="2" width="10" height="1" fill="#000"/>    </pattern>
        <pattern id="horizontal3" width="10" height="10" patternUnits="userSpaceOnUse">    <rect width="10" height="10" fill="#fff"/>    <rect x="0" y="2" width="10" height="3" fill="#000"/>    </pattern>
        <pattern id="crosshatch" width="8" height="8" patternUnits="userSpaceOnUse">    <rect width="8" height="8" fill="#fff"/>    </pattern>
        <pattern id="subtlepatch" width="5" height="5" patternUnits="userSpaceOnUse">    <rect width="5" height="5" fill="#fff"/>    <rect x="2" y="2" width="1" height="1" fill="#000"/>    </pattern>
        <pattern id="checkers" width="8" height="8" patternUnits="userSpaceOnUse">    <rect width="8" height="8" fill="#fff"/>    </pattern>
        <pattern id="raindrops" width="10" height="10" patternUnits="userSpaceOnUse">    <rect width="10" height="10" fill="#fff"/>    </pattern>
        <pattern id="texture" width="4" height="4" patternUnits="userSpaceOnUse">    <rect width="4" height="4" fill="#fff"/>    </pattern>
        <pattern id="circles3_a03500_000000" width="10" height="10" patternUnits="userSpaceOnUse">    <rect width="10" height="10" fill="#a03500"/>    <circle cx="4" cy="4" r="2" fill="#000000"/>    </pattern>
        <pattern id="diagonal1_d9b400_535353" width="10" height="10" patternUnits="userSpaceOnUse">    <rect width="10" height="10" fill="#d9b400"/>    </pattern>
        <pattern id="diagonal3_3264c8_ffffff" width="10" height="10" patternUnits="userSpaceOnUse">    <rect width="10" height="10" fill="#3264c8"/>    </pattern>
        <pattern id="horizontal1_72b38e_000000" width="10" height="10" patternUnits="userSpaceOnUse">    <rect width="10" height="10" fill="#72b38e"/>    <rect x="0" y="2" width="10" height="1" fill="#000000"/>    </pattern>
        <pattern id="horizontal3_986ba1_ffffff" width="10" height="10" patternUnits="userSpaceOnUse">    <rect width="10" height="10" fill="#986ba1"/>    <rect x="0" y="2" width="10" height="3" fill="#ffffff"/>    </pattern>
        <pattern id="vertical1_b9a087_ffffff" width="10" height="10" patternUnits="userSpaceOnUse">    <rect width="10" height="10" fill="#b9a087"/>    <rect x="2" y="0" width="1" height="10" fill="#ffffff"/>    </pattern>
        <pattern id="vertical3_4c91bf_ffff33" width="10" height="10" patternUnits="userSpaceOnUse">    <rect width="10" height="10" fill="#4c91bf"/>    <rect x="2" y="0" width="3" height="10" fill="#ffff33"/>    </pattern>
        <pattern id="checkers_cc3333_f7f7f7" width="8" height="8" patternUnits="userSpaceOnUse">    <rect width="8" height="8" fill="#cc3333"/>    </pattern>
        <pattern id="texture_d1dbdd_525252" width="4" height="4" patternUnits="userSpaceOnUse">    <rect width="4" height="4" fill="#d1dbdd"/>    </pattern>
        <style id="map-style">svg { background-color: #ffffff; }</style>
      </defs>
      <path id="ME01" d="m1328.3 165.99-.02-.02-.19-.43-.67.28-.16-.09-.3.03-.35-.32-.14-.02-.24-.02-.4-.2-.27-.13-.29-.1-.24-.09-.4-.55-.03-.42-.08-.38.05-.12-.22-.35.13-.26-.08-.15-.08-.54.02-.16.03-.2-.22-.08-.01-.16-.09-.07-.1-.02-.07-.04-.06-.04-.12.05-.09.05h-.05v-.11l-.04-.04-.03.02h-.02v-.11l-.24-.08-.26.02-.12-.18-.05-.02-.27-.1-.2.01-.06-.18-.3-.09-.15-.08-.19-.05.16-.28-.2-.14-.06-.04-.04.04h-.04l-.42-.48-.13.04-.02-.03-.22-.22v-.05l-.56.22-.09-.15-.36-.15-.06-.2-.17-.07.04-.15-.36-.4-.09-.1-.09-.38.02-.13-.1-.08-.14-.31v-.1l.17-.3.03-.43h.02l.1-.17-.28-.39.02-.43-.14-.14-.05-.01-.23-.06.05-.07.04-.05.02-.04-.07-.32.03-.1.02-.15.04-.4-.1-.07v-.07l.02-.05v-.1l-.05-.1v-.01l-.05-.02-.03-.03-.02-.08-.05-.05v-.05l-.14-.06-.06-.2.13-.08.06.03-.06-.3-.22-.3-.37-.14-.15-.26-.16-.44-.2-.6-.04-.11-.02-.05-.17-.42-.42-1.09-.47-1.24-.38-1.03-.55-1.32v-.01l.13-.1.33.19.22-.1.36-.34.32-.04.2-.42.28-.13.36-.4.45.07.37-.3.44-.08.5-.18.27-.28-.06-.3-.2-.23-.2-.02-.04-.35-.3-.22.13-.1-.14-.17.27-.42.07.16.21-.37.08.16.33-.58-.29.01-.21-.54.03-.25.35-.6-.55-.4.53-.7-2.11-1.63-.18.16-.12-.34-1.3.11-.3-.23-.25-.51-.13-.03.1-.32-.08-.2.96.27 1.33-1.83.68-.9.13.13 1.16-1.6.53.4.37.17.06.24.33.4-.2.55.05.38.14.17-.02.62.47.8.67.55.22.03.12-.34.61.43.4-1.32.14-.08.58.16.07.17.84.28.04-.12 1.14.37.01-.43.83.28.54-1.9 1.79.92 1.53.83.13.16 2.13.6.26-.93.3.08.5-1.81-.52-.34.1-.25.2-.24-.23-.33.04-.2-.14-.14.14-.37-.1-.2-.36-2.58-.52-.02-.09-.9.1-.02-.03-.36.26-.02-.03-.45.57-.05-.24-2.97.28-.2.8-.04.01.11.32.05.66-.08-.1.2.23.03.02.17.97-.47.05.7.2.18-.01.23-.26.53-.14.1-.12.68-.15.22 2.1-.22-.08-.24.08-.43-.07-.34-.14-.28-.23-.16-.24-.68.14-.17.25-.05.32-.27-.02-.18.78-.09v-.11l.56.06-.5-4.3-2.37.26-.12-.28-.06-.44.14-.37.12-.6-.04-.49.04-.52-.19-.92-.02-.43-.98.1-.03-.18.58-1.65-.11-.28-.08-.63 1.35-.16.23-.3v-.18l-.2-.34.06-.7-.02-.16-.8-.52-.3-.08-.42-.4-.38-.8 1.02-.6 1.96-1.09.29-.02.03.3.14-.01.05.47-.11.07.21.45.73-.11-.03.36h-.12l-.05.27.08.26 1.5-.3.4 2.85 1.02-.14.22 1.54.15 1.25-1.1.15-.09 4.06 2.22-.25.06-.2-.12-.06.07-.26.18-.03 1.37.67 1.07-2.24.7.34 3.54 1.83 1.63-.7.42.2-.09.56.02.28.1.28-.26.35.28.3.02.43.17.32-.08.22-.1-.19-.31-.29.06.27.03.62.12.16.02.38-.18.18.37-.1.1.3-.04.32-.41.1.06.49.17.2.11.5.06-.2.4-.39.37-.28.31-.02-.12.28.07.25-.08.29-.16.2.07.2-.18.16.22.23-.03.14-.33.23-.3.44-.2.46.3.37h.26v.2l-.3.04-.2-.17-.05.58h.37l.12.09-.14.14-.32-.02-.22-.32-.23.16-.15-.27-.16.5.14.25-.14.12.1.47-.12.1-.09.58-.13.39-.19-.02-.44.25.08.15-.3.37-.24.18-.2-.18.02-.73-.23-.08-.18-.25-.18.05-.26.56-.18.18-.09-.13.2-.45-.05-.17-.53-.1-.14.22.4.35-.05.19-.4.09-.02.57h-.15l-.04.25-.2-.04.15-.4-.12-.13.2-.39v-.33l.26-.38-.15-.04-.16.24-.05-.34-.2-.06-.07.23.1.13-.19.33-.21-.35.02-.57-.38.09.1.66-.28.22-.12-.34-.2-.06-.12.32v.52l-.05.18-.13-.2-.04-.45-.22.15.13 1.29.01.38.12.85-.22.72-.03 1.38-.2.28-.09-.43-.33-.4-.07-.34-.2-.13-.52.1.04.22.23.3.12.85-.45-.17-.13.12.11.64-.11.02-.06.38h-.31l-.09-.34.22-.24-.1-.13-.05-.51-.19-.19-.21.11.05.33-.18.13.16.22v.28l-.12.09-.28-.33-.02-.28-.24.1.03.28-.13.16.25.47-.15.12.13.17.2.93-.16-.02-.34-.5-.44-.12-.22-.55-.08-.43-.33-.75-.01-.27-.17-.26-.06-.36-.01-.53.03-.36-.16-.06-.2.4.13.51v.2l.12.57-.05.25.24.53.06.5.17.43-.1.37.14.56v.34l-.28.53-.02.84-.29.04-.01.28-.16.09-.06-.2-.2.2-.06.29-.15.2-.19.04-.33.42.2.3-.1.27-.1-.14-.34.13-.02-.43-.22-.14v-.6l-.3.07-.02.55-.22-.81.09-.23-.32-.14-.01-.34-.33.08-.3.33-.26-.12-.04.1-.49-.12-.06.69-.33-.18-.17.73h-.17l.02.28-.07.58.06.09-.13.53-.1-.2v-.88l-.18-.04-.17.17-.18.54-.07-.57-.06-.05-.34.53-.08-.37.12-.55.13-.29-.03-.24.25-.75-.01-.35.22-.19.04-.23-.09-.24.2-.74.08-.05-.08-.47-.22.45-.28.05-.26.24v.23l-.16.17-.1.36-.2.25v-.26l.22-.41.14-.44.03-.48-.14.03-.25.37-.19.06-.34.68.03.21-.19.44.07.19-.2.36-.04-.6-.15.16-.17-.06.04.23-.24.23-.05.22-.14.1-.23.66-.27-.05-.2.72-.33.57h-.1l-.04-.5-.32.4.07.1v.38l.17.12.03.2-.3.83.17.18v.25l.11.22-.43-.1-.02.2.3.23-.15.16-.23-.17-.12.3.06.33.32.03.04.27.35.26.14-.03.34.6.3.08.06.87.13.19.33.01-.07.29.36.32-.11.29-.23.1-.22-.17-.15.14-.17.38-.44.1-.28-.22-.47.56-.16.57.2.13-.34.1.06-.2-.3-.1-.27.1-.3.47-.18.78v.39l.29.77.38.37.22.03.07-.22.65-.24-.19.68-.13-.03-.24.19-.2.45.05.21-.15.26.17.07-.11.22-.08.44-.16-.22-.37.29-.08.25.36.43.16.34-.2.28-.37.14-.03.25-.27.3-.25-.12-.5.25-.01.13-.4-.01-.3.35-.26.58-.08.4.02.67-.11.71.01.7.27.32.4.36.02.14-.14.35.08.26-.03.36-.18.53.33.03.16.13-.1.1-.39-.03-.11.2v.53l.2.37-.18.1.06.41-.3 1.16.05.4-.08.21-.58.54m2.95 1.59-.06.2-.3-.17v-.25l.36.22m2.65-19.37-.4.08.09-.29.3-.09.01.29m-.44-3.42.16-.06-.2.48-.15-.19.06-.24.13.01m.29-.69-.03.41-.33.16-.15-.38.18-.44.11-.02.08.24.14.03m-.42-.4-.3.7-.1-.12.1-.23-.03-.45.32-.4v.5m2.15-.77-.07.33-.14-.06.05-.44.09-.13.07.3m-1.45.3.08.14-.27.3-.18-.1-.03-.25.4-.59.08-.22.2.1-.15.46-.13.17m.97-.6-.12.43-.07-.19.17-.6.14-.18-.02.3.22-.05-.06.3-.26-.01m-.3-.4-.13.36-.06-.12.18-.25m7.55-2.55.13-.03.01.2-.14-.17m-6.78 1.99.08.16-.12.25-.1-.14.14-.27m-2.46.77-.09.26-.03-.28.12.02m3.25-.9.05-.39.2-.01-.12.37-.13.03m-1.31-.11.11-.02-.12.35v-.33m3.35-.86-.03-.22.18.15-.15.07m-4.28.7.37-.23.03-.27.17-.16.07.33-.11.53.13.24-.2.23.1.07-.12.34-.18-.33-.18.1-.1.41h-.26l.24-.3-.04-.35.14-.32-.06-.3m-1.13.44.1.1-.19.2.1-.3m2.63-1.46.12.1-.17.57-.04-.13.09-.54m-1.84.3.02.22.39-.14-.1.26-.51.54-.21-.03.19-.44-.14-.44.31-.09.05.12m1.57-.4.17.01-.16.24-.01-.25m15.9-5.12.06-.48.2-.13.12.16-.17.45h-.22m-6.14 2.25-.19-.04-.03-.69.15-.03-.05.25.12.51m-10.73 2.5.16.05-.18.34-.12-.14-.2.1.33-.36m.59.07-.06-.2.17-.11-.11.32m.61-.28-.07.03-.17-.3.18-.34-.02-.26.18.14-.14.48.04.25m9.32-3.83.11-.07v.44l-.06.04-.05-.41m-10.04 3.36-.01.24-.18.06.18-.3m9.25-3.13.01-.34.2.18-.21.15m-8.16 2.57-.16-.09.02-.3.23-.3.14.21-.23.48m23.79-8.49-.04-.4.3-.27-.07.21.05.33-.24.13m-23.51 7.35v.32l-.16.02.05-.33h.11m23.47-8.65-.2.44-.27.06.06-.3-.13-.32.18-.29.26.15.1.26m-8.88 2.98-.16-.4.14.1.16-.11.1.26-.24.15m-.58.26.02-.21-.08-.51.25.08.08.58-.18.16-.1-.09m4.1-2.1.12.36h-.25l-.13-.73.15-.18.11.57m-4.5.84.18-.08.24.29-.42-.21m6.76-2.42-.13.16-.12-.23.25.08m-8.12 2.57.18-.19.01.24-.07.42-.16-.4.04-.07m1.57-.69.01.3-.2-.18.03-.2.16.1m-2.5.79-.06.17-.1-.36.16.19m4.18-1.41.01-.32.23.06-.08.25h-.16m-2.77.6.17-.28-.02.38-.15-.1m-1.61.32-.06.84-.09.04-.13-.68-.1-.25.05-.41.26.22.07.24m2.7-1.21.28.27-.31.06.03-.33m-2.26-.05v.31l-.14-.18.14-.13m6.57-2.73-.03.28-.19-.22.22-.06m-.33.1-.19-.01.36-.37.13-.24.05.34-.18.06-.17.23m7 1.9.06-.35.2.08-.26.26m1.55-1.75-.13.21-.16.03.29-.24m.5-7.09.02.18h.23l.43 1.23.02.83.3.15-.35.16-.11-.24h-.19l.05.16-.3.11-.12.52-.28-.4-.07-.69.15-.37-.13-.15-.12.33-.16-.04.04-.6-.55-.16.57-.31.23-.23.05-.42.3-.06m-8.46 6.36-.24-.17v-.23l.17-.2.18.08-.1.52m-.33-.63.1.06-.27.33-.1-.21.28-.18m3.3-1.97.25.2h-.23l-.02-.19m-.58-.17.05-.12.17.23-.09.12-.16-.06.04-.17m.23-.3-.23-.08.13-.24.2.1-.1.22m-3.13.24.04.23-.19.1-.05-.27.19-.05m9.7-2.93v.32l-.1-.13v-.3l.1.11m-6.38 1.11.24-.2.1-.34-.06-.19-.19-.07.22-.32.1.37.12.06.23-.3.43.07.08.31.32.05.28.17.03.13.4.21-.04.37.15.09-.12.38-.13.04-.03.38-.2.06.12.15-.18.23-.28.13-.36-.17-.13.22.08.2-.29.07.05.13-.4-.35-.04-.36-.31-.17-.15-.47-.45-.25.2.56-.35-.23-.08-.34-.2-.15-.11-.49.09-.42.22-.14h.58l.13.23-.07.35m4.76-1.67-.33-.08.06-.14.29-.02.17.24h-.19m-3.94.2-.14.15-.1-.14.3-.26-.06.25m-2.3.4.5-.56.21-.41.41-.6.25-.05.18-.17.18.16-.11.15.2.1.16.32.19-.1-.08.23.29.14-.28.23-.35.01-.22.1.08.11-.33.31.2.24-.4.15h-.2l-.4.2.27-.45.17-.14-.05-.14-.24.09-.05.2-.22.37h-.14l-.2.3-.04.55-.14.04-.05-.25.12-.26-.11-.28.13-.17.08-.41m-1.48-1.3.09-.03.02.35-.13.06-.09-.28.11-.1" fill="#d1dbdd" stroke="rgb(209, 219, 221)" stroke-width="0.1" data-originalStrokeWidth="0.1" style="stroke: rgb(0, 0, 0); fill: rgb(209, 219, 221); pointer-events: auto; stroke-width: 0.1;" pointer-events="auto"/>
      <path id="ME02" d="m1370.22 112.25-.22.07-.05-.19.2-.02.07.14m2.45-4.12.05.35-.16-.2.1-.15m-1.58-.12.03.15-.26-.14v-.22l.23.21m-1.45-.4-.08-.27.15-.4.1-.1.28.5-.21.42-.24-.15m-71.3-6.43.44-.42.36-.1.25.02.4-.43.05-.32-.24-.1-.15-.31.17-.1.54.27.37-.11.24-.3.29.34.2.13.2-.02.31.12.01.2.26.23-.04.57.14.03.35.26v.14l.34.2v.27l.38.17.65-.01.36-.32-.32-.21-.2-.55.16-.24.05-.37-.07-.35-.15-.05.36-.26-.06-.33.09-.12-.05-.33-.1-.18-.26-.06-.1-.22.12-.32-.17-.2.16-.34-.2-.34-.35-.32-.15.03-.13-.28.33-.68v-.29l.23-.06.07-.18.42.03.17-.13.3.14.1.28.33.13.08.14.47.15.67-.35.43.14.08.23.23-.04.28-.31-.13-.13.01-.32.18-.12-.06-.18-.3-.1.08-.34-.12-.13-.27-.08-.33-.32-.7-.02-.12-.28-.2.01-.13-.32-.4-.07-.3-.22.01-.4-.23-.05-.1-.26.17-.2.03-.31.11-.12-.03-.31.1-.33.19-.15-.34-.2.18-.63.19-.34.12-.68.48-.34.13-.5.25-.21.14-.5.2-.46-.05-.23.17-.24.26-.03.12-.19.2.09.13-.33.34-.58.22-.26.17-.44.6-.11.12-.25.52-.5-.01-.29.15-.03.07-.25-.31-.16.05-.26-.5-.22-.12-.45-.28-.17-.13-.3.4-.25-.1-.28.11-.25-.05-.13.26-.49-.06-.08.24-.13.2-.62.64-.43.41-.64.08-.3.22-.37-.17-.02.15-.35-.18-.18-.04-.27-.17-.13.11-.33.22-.3-.04-.12-.4-.27-.13.16-.01-.22-.41-.1-.75.37-.1-.35v-.28l.22-.2.14-.35-.41.02-.2-.3-.32-.2.27-.37-.08-.32.27-.56-.08-.26-.56.18-.12-.06.1-.24-.08-.41.15-.17.02-.43.22-.15.43-.05-.13-.29.04-.65v-.54l-.47-.27-.32-.12-.08-.13-.3-.08-.36-.23-.1-.16.18-.48.1-.9-.12-.76v-.42l.1-.24.02-.6.45-.43-.07-.45-.14-.13-.13-.36.14-.35.02-.25.29-.48.15.03.15-.2.2.03.13-.42.2-.1-.1-.22.38-.78-.06-.2.15-.23.3-.07.32-.34-1.55-8.7.16-.6 2.27-7.87 1.87-6.48 1.56-5.4 2.25-7.72.52.07.44-.31.34.08.39-.06.9.12.11.22.14-.15.05.11.38-.02.22-.19.04-.2.18-.04.25.17.02-.12.46.48.03.19h-.21l.07.45.14.1-.17.38.5 1.43.12.37.19.24.01.3.16.2.08.33.16.18.07.48.3.26 1.51.31.35.12.2.17.26.02.1-.17.57.16.06.15.25.05.27.18.07-.19.24-.09.18-.25.25-.13.1-.26.28-.34.3-.48.54-.39.27-.08.28-.28.26-.4.33-.28.23.01.3-.3.28-.05.3.1.5-.39.36-.15.16-.17.16-.46-.2-.3.07-.37.14-.3.64-.02.2-.18.11-.28.18-.19.6-.12.41-.21.33.25.6-.1.35-.36.42-.09.23-.12-.05-.23-.22-.14-.03-.28-.2-.35-.1-.52.2-.58.63-.39.53-.02.25-.25.23-.05.36.1.36-.12.24-.2.25.07.07.16.32.08.18-.07.63.11.34-.06.22.1.13.36.44.3.2-.02.23.15.69.12.27.08.3.28.34.03 1.07.29.8.53.36-.03.39.1.22.18.08.25.4.29.38.38.46.11.2.24.43.3.16.4.2.12.8.07.27.08.48.03.2.12.52.11.7 1.94 1.02 2.76 1.18 3.34.6 1.62 1.47 4.07 1.75 4.6 1.87 5.06 2.9 7.94.66 1.8.15.25.08-.05.62.32.04.11-.2.2.03.42-.3.2-.27.52.21.43.4.37.49.18.32.32.21.09-.17.23-.24.06-.33.65v.3l.2.37.03.45.2.33.32.05.44.5-.56.25.5.93-.28.17.46.38.73-.25.4.18.16-.22.33.17.28-.04-.03-.19-.37-.2-.2-.28.17-.05.29.18.16-.04.3.23.37.5.4.27.17.16.3.08.5.23.1-.14-.18-.18.1-.08.82.32.39-.15.19.08.52.07.29-.21.67.1.43-.14.11-.4-.15-.06.3-.2.14.06.28-.24.75.4.28.3-.06.14.36.5.01.3-.15.05.09.4.12.23h.16l.35.35h-.19l-.02.17-.32-.03-.2-.08.06.36-.33-.21-.13.2.18.23-.39.12v.24l-.3.08.16.3.37.21.23.22.09.31.2.13-.05.1.3.43.3-.02.12.18.93.52.3.3-.17.3.05.3.2.03-.03.29.12.14-.21.53-.18.24.17.14.03.63-.06.22-.17.27-.18-.06.02.36.32.08.25.46.36.36h.24l.44.31.52.67.07.26.26.01.36.23h.15l.1.24-.01.32.6.05.32.23.78.25.18-.26.17-.06-.1-.34.42-.3v-.24l-.19-.03-.08-.38.14-.12-.12-.18-.04-.36.1-.14.3-.06.6.1.16.22.42.15.4-.41.34.05.5-.13.22.04.43.32.49.3.56.45.94 1.13-.29.22.01.19-.15.16.5.21.13.14-.15.25.38-.18.44.36.34.49.44.31.23.33-.13.24.15.09.22-.07.14.12.17.39.17.12.52-.04-.03.25.34.14.28-.02.22.1.16.43-.17.26.28.28.43.66-.23.48.26.15.13.38.28.34.25-.36.28-.14.1.16-.13.3-.34.08-.17.4-.06.34-.24.15.04.28-.2.23.14.09-.45.3-.04.16-.21-.39-.32.31.18.06.11.42-.13.06.04.31-.18.13h-.24l-.2.17.19.14.05.54-.05.2-.16.06.03.21-.1.35-.2.12-.07.37.03.51-.27.31-.34.12-.04.25.16.28-.43.36-.41.21-.41-.31-.05-.47-.16-.06-.5.36.27.37.07.3.18-.02.45.27-.44.02-.12.28-.28.07-.04-.18-.25-.15-.07-.35-.48-.2-.28.09-.04.13-.13-.28.12-.23.06.26.28-.03-.15-.35.02-.2-.2-.34.1-.22-.05-.29-.23.03-.39.3-.02.1-.44.16-.14-.06-.04.35h.3l-.26.2-.2-.08-.17.16-.2-.15-.14.12.1.19-.14.22.55-.1v.46l.3-.04.2.18.3.4.03.52-.13.2-.15-.17-.22.13.19.28-.13.1.06.27-.07.37-.39-.17-.2-.43-.29-.25.16-.17-.24-.2-.06.14-.32-.06-.02.24.15.23.19-.02.07.18.23.14.01.2-.26.13v.2l-.24.06-.18-.12-.38-.01-.17.19-.2-.2.06-.11-.13-.33-.36-.12-.32.22.04.22-.09.43-.08-.24-.23-.04-.12.27.08.24-.15.12.22.28-.03.76.04.53.3.2.25.3-.01.26-.28.18-.36.04-.4.31-.77.33-.18-.3-.37.05-.44.35-.08.22.14.06.17.45-.16.59-.24-.07-.42.18-.07-.36-.32-.63-.5-.41-.3.16-.02.36.16.41.16.24-.64-.1-.25-.53-.28.13-.13-.23-.3-.22-.41.04-.01.2.33.3-.12.33.09.21-.28.18.22.15.26.32.18.32.06.33-.14.71-.49-.47-.15.18.2.24.3.54-.03.35.2.54v.39l.12.08-.04.51-.52-.6-.2-.46-.11-.6-.26-.22h-.17l.17.45-.14.22.18.2.05.39.16.05-.14.4-.26-.12-.3-.33-.31-.5-.04-.22-.43-.41-.3.01-.06.46-.5-.08-.07-.21-.4-.1.27.58.3.18.22-.12.22.15.4.1.53.83.19-.03.06.22.16.08-.22.17-.06.4-.1.04-.34-.27-.36-.38h-.17l.08.29-.3-.06.11.27.3.32-.12.4.16.39-.01.22-.2-.18-.18.25.21.4v.43l-.16-.17-.08.22-.2-.06-.3-.3-.32-.72.05-.12-.2-.34-.11.1-.23-.03.24.35-.03.21-.27-.2-.17-.24.06-.13-.37-.2-.1-.47-.25-.25-.27-.53-.13-.4v-.3l-.24-.28-.2.18-.34-.08.07-.07-.1-.26-.53-.12.08.16-.05.33.1.12.27-.01-.27.4-.5.12.26-.19-.29-.34-.26-.1-.27-.45-.1-.3-.22.07.13.85-.15.06.1.18-.03.27.26.36-.09.1-.39-.17-.33-.26-.28-.01.13.2-.03.29-.56.19.36.31.25-.1-.1.3-.36.18-.32-.14-.34-.05v.41l-.34.04-.3-.08.16.42-.1.17-.02.3.22.08.18-.13.11.17.2-.07.08-.18-.08-.24.17-.39.15-.05.49.2.22-.1.25-.3.52.04.22.37-.08.2.28.08.71.38.22-.14.2.14.58.58.18.38.16.08.2.5-.2.06-.02.39.11.3-.16-.07-.05.35-.21.23-.1-.04-.03.3-.24.13-.15-.19-.11.3-.15-.1-.09.2-.33.02-.06.17-.35.1-.2-.18-.2-.02-.14.15v.22l.33.2-.01.26.24-.05.24.18.25.42-.1.37-.15.06.04.26-.13.14-.43.23-.41-.34-.16.16v.26l-.17-.12.02-.22-.35-.17-.23.15-.5-.22.02-.15-.47-.29.15-.04.01-.25-.19-.07-.15.12-.18-.32-.13-.06-.14-.42.29-.43-.05-.5-.3.16.04-.7.2-.32-.16-.36.16-.33h.23l-.1-.26.15-.14.16.09.1-.13-.03-.29-.2-.08-.31-.4-.44-.26-.23.01.2.5-.23.47-.03.24-.35.21-.1-.1v-.27l-.13-.11-.12-.54-.02-.32-.24-.44-.09-.43.13-.05-.16-.21-.21-.58-.17.32.08.23h-.7l-.09.15.13.1.15.4.36.37.08.2-.2.3.49.5.13.37-.03.33.23.34.01.2-.34.14-.2-.24-.04-.38.1-.18-.44-.71.09-.07-.17-.6-.16-.05-.05.33.09.4-.1.03.06.57-.3.15-.12.54-.15.07-.5-.03-.1.07-.04.29.37.55.22.01.27.47-.04.47-.1.3.09.5.15.26.38.2.09.17.28-.08-.13-.24.15-.07.13.17v.26l.18.28.32.24.06.2-.45.06-.42-.28-.02.23.18.24.47-.01.24.35.17.09.08.26-.27.05-.45-.07v-.24l-.7-.1-.78-.42-.26.06-.29-.06-.14-.15-.81.08-.4-.17-.16.23-.27-.3-.76-.18-.4-.24-.2.19-.25.08-.13.41-.28.11-.06.38-.74.11-.09-.28.1-.22-.2-.18-.02-.6-.1-.42.05-.28-.08-.19-.2.04-.17-.34.16-.13-.09-.18-.22-.09-.08-.57.23-.42-.1-.42.12-.19.24.12-.26-.46-.02-.7-.1-.3-.34-.47-.4-.32-.16.12.1.47.11.1v.3l-.33.3-.05.33.34.3.23-.15.08.11-.33.27-.01.13-.45.6-.18.57-.19.1-.5-.56-.23.05-.34-.05-.04.6-.14.4-.17-.01-.4.3-.31.12-.16-.06.03.22.5.6-.07.2.2.18.38.04.37.28.28.33.12.49.07.51-.02.53-.22.52-.08-.08-.41.27.1.09-.06.29.13.24-.07.6-.17.32-.41-.2-1.63.7-3.53-1.84-.71-.34-1.07 2.24-1.37-.67-.19.04-.06.25.12.08-.06.18-2.2.25.07-4.06 1.11-.15-.15-1.25-.23-1.53-1.02.13-.4-2.84-1.51.3-.07-.27.05-.26h.12l.03-.37-.74.11-.2-.45.1-.07-.04-.47-.14.01-.03-.3-.29.02-1.96 1.1-1.02.59.38.8.41.4.31.08.79.52.04.16-.06.7.18.34.01.19-.23.29-1.35.16.08.63.1.29-.57 1.65.03.17.98-.1.02.43.2.92-.05.52.04.5-.12.6-.14.36.06.43.13.29 2.35-.26.5 4.3-.55-.06v.12l-.78.08.02.2-.32.25-.25.05-.14.17.24.68.23.17.14.27.07.34-.08.43.07.24-2.08.22.14-.21.12-.68.15-.1.25-.53.01-.23-.2-.19-.05-.7-.97.47-.03-.17-.22-.02.1-.2-.66.07-.32-.05v-.1l-.81.03-.28.2.24 2.97-.57.05.03.45-.26.02.03.36-.1.02.09.9.52.02.36 2.59.1.18-.14.38.14.14-.04.2.23.33-.2.24-.1.25.52.34-.5 1.81-.3-.08-.25.94-2.14-.61-.13-.16-1.53-.83-1.8-.92-.53 1.9-.83-.28-.02.43-1.13-.37-.04.12-.84-.28-.08-.17-.57-.16-.14.08-.4 1.32-.6-.43-.13.34-.23-.03-.66-.54-.47-.8.02-.63-.14-.18-.04-.38.2-.55-.34-.4-.06-.23-.37-.17-.52-.4-1.17 1.6-.13-.13-.68.9-1.33 1.83-.96-.28.08.2-.1.33.13.03.25.51.3.24 1.3-.12.1.34.2-.16 2.1 1.63-.52.7.55.4-.35.6-.03.25.21.53h.29l-.33.58-.08-.16-.21.37-.07-.16-.27.43.14.16-.13.1.3.22.05.35.19.02.2.23.06.3-.28.28-.49.18-.44.07-.38.3-.45-.05-.36.4-.27.12-.2.42-.32.04-.36.34-.23.1-.32-.18-.13.09v-.05l-.3-.86-.25-.74-.2-.5-.32-.95-.1-.31-.1-.31-.03-.05-.21-.55-.2-.62-.24-.65-.22-.62-.12-.31-.11-.33-.16-.47-.1-.2-.18-.54-.27-.71-.07-.25-.2-.5-.21-.6-.33-.96-.4-1.1-.17-.44-.1-.28-.1-.34-.04-.1-.04-.1-.11-.3-.14-.37-.38-1.03-.31-.86-.15-.44-.14-.38-.31-.82-.21-.57-.3-.83-.32-.85-.25-.7-.52-1.37-.25-.65-.32-.95-.08-.19-.44-1.21-.13-.38-.59-1.6-.07-.18-.08-.24-.44-1.14-1.03-2.68-.08-.17-.08-.21-.1-.19-.03-.17-.1-.21-.03-.08-.72-1.84-.44-1.13-.13-.36-.16-.4-.49-1.29-.88-2.3-.22-.61-.43-1.1-.4-1.03-.43-1.18-.33-.74-.25-.61m66.9 17.1-.16.26.04.3-.39-.14-.1-.25.04-.4.17-.12.28.02.13.34m3.12-1.4.11.33.15-.12-.02.32h-.26l-.28.14-.07.25-.12-.3-.23-.23.14-.46.14.08.14-.18.3.16m-5.85 2.09-.35.01.17-.3.24-.01-.06.3m-.57.1-.04-.16.2-.09-.15.24m.88-1.15.17-.04-.09.22-.08-.18m7.1-2.55-.1-.15.2-.15-.02.2.11.31-.2-.2m-7.77 2.48.15.33-.2.03.05-.36m2.67-1.77h.13l.08-.36.2-.1.32.43-.06.1.32.05.23-.31-.21-.46h.26l.22.31.36.1.4.32-.21.21.14.28-.15.29-.28.24v.34l-.27.26-.3-.23-.07-.24-.22-.04-.12-.18.03-.23-.24-.27-.03.24-.25.08-.04.41-.2-.14-.31.05-.04-.3.2-.43.16.24h.13l-.05-.3-.2-.3.08-.06m2.66-.7-.02-.38.24-.01.15.18-.03.23-.16.16-.18-.18m-13.04 2.6.01.44-.16.1.1-.67-.1-.19.13-.15.02.47m12.62-2.64-.22-.05.17-.5.2-.15.13.09-.28.61m1.02-.95-.16.01-.23.39-.17.03.08-.34-.1-.18.23-.1.35.2m-3.15.85.06.24-.26-.03.05-.2h.15m-.62.4-.05-.43.18-.12.2.18-.06.34-.27.03m-4.79.45-.1-.31.04-.26.17-.41-.1-.5h.12l.51.38.32-.15.3.14.06-.1.25.26.23.07.36.58.47-.06.03.16.48.15.17.4-.27.3-.52-.03.18-.2-.01-.18-.38-.16v.17l-.3.26.33.43-.16.53-.36.01v.25l.18-.05.03.25-.52.37.22.5-.37.02-.25-.39-.3-.08-.22.1.02-.24-.42-.07-.09-.5.08-.14-.13-.26-.21.12-.2-.08.21-.22v-.19l-.43-.13.25-.41.33-.33m-1.38 1.69-.26-.28.2-.31.17.12-.11.47m4.52-2.04-.06.1-.21-.09.28-.01m.28-.3-.2-.2.5-.07-.3.27m1.25-.59.08-.25.26.14-.07.2-.27-.09m-2.24.57h.23l-.2.15-.03-.15m-4.45 1.65-.14-.2.15-.07.23.08.03.22-.27-.02m-.6.2-.16-.02-.01-.3.15-.16.18.5-.16-.02m1.15-.83-.03-.22.32.07-.29.15m11.07-3.77-.34.11-.08.16-.3-.14-.14-.54.24-.16h.29l.3.4.03.17m.16-.68-.2.22-.14-.28.06-.2.48-.05.16.15-.35.15m-10.95 3.65-.28.09-.17-.2.29.01.12-.1.2.24-.16-.04m5.08-2.49.58.22.1.22-.45-.03-.28-.37.05-.04m5.2-1.62.07.19-.31.12-.2-.12.44-.19m-.89.34-.25.06-.1-.18.35.12m-10.67 3.47-.08.19-.1-.13.18-.06m1.66-.96.6.07.07.55-.28.09-.27-.01-.37-.12-.13-.19-.3-.18-.12.05-.07-.26.18-.2.7.2m-1.94.93-.33-.08.19-.04.14.12m7.07-3.27.11-.1.19.49-.17-.03-.14-.36m.13-1.91.28.27-.2.53.22.4-.2.32-.14-.07-.04-.38-.16.1-.24-.21v-.44l.15-.2.03-.28.25-.28.05.24m-.91 1.67.23.2-.19.31-.3-.27-.54.17-.24-.12-.05-.48.02-.46-.13-.28-.07-.42.18-.2.18.04.2.37.3.34.26.41.15.38m6.13-4.98-.13.42-.1-.06.11-.33.11-.02m.68-.35.12.13-.18.15-.34-.23.25-.13.15.08m5.57-2.14-.14-.09-.17.13-.37-.54-.03-.52h.17l.31.55.27.27-.04.2m-6.1 1.95-.09-.09-.1-.47.05-.21.27.07-.01.61-.11.1m11.03-4.71-.06.14-.1-.27.16.13m-4.94 1.33.12.1-.13.2-.19-.27.2-.03m-7.36 2.42.32.04-.59.06.28-.1m9.21-3.41.15-.02v.21l-.15-.18m-1.14.18-.05-.11.28.02-.13.2-.1-.11m2.43-1.04.13-.18-.05.34-.07-.16m1.32-1.6.1-.27.18-.06v.93l.27.01.1.17.46.25-.15.08.16.42-.02.2-.27.24-.3-.4-.03-.16-.38-.44-.26.03.2-.18-.2-.38-.3.09-.15-.54.4-.18-.04.27.1.17.13-.25m-4.76 2.72.26-.07-.14.21-.12-.13m4.1-1.95.17.31-.1.03-.07-.34m2.6-.81-.18.44v.32l-.25.1-.27-.46v-.16l-.52-.22-.01-.2.43-.22.06-.15.17.15.37.08.2.32m-5.93 2.59-.46-.33-.25-.38.17-.13.17.09.15.3.28.03-.07.42m.7-.8.06-.24.13.28-.2-.03m2.41-1.15-.22-.09.03-.2.12.06.26-.13-.19.36m-.64-.6-.03.32-.11-.05.01-.25.13-.01m-3.63 1.51-.16-.34.17-.04.28.47-.11.14-.17-.23m-.33-.55.24-.23.03.13-.28.1m7.62-3.63.1-.2.1.07-.2.13m-.84-.3.39.14-.14.21-.56-.1-.08.38.3.15h.5l.02.16-.37.23-.16.03-.42-.2-.33-.32-.12-.35.14-.06.1.19.31-.27-.14-.23.06-.08.36.18.14-.06m-16.89 12.07-.01.24-.17-.18.2-.06m.58-1.1.25.04-.1.17-.15-.2m-11.15 9.23.2-.04.2.17-.17.32.21.01-.07.4-.16.2-.32-.13-.02-.35.13-.05-.06-.35.06-.19m.41-1.33-.08-.11.17-.3-.2-.1-.13.22-.16-.39.13-.3-.26-.56.02-.47.46-.19-.15-.37.26.2.16.02.21.42h.12l.04.33-.07.4-.31.37.1.27-.13.05.16.24-.1.1.21.26.2-.01-.12.85.08.5.07.15-.08.27.1.21-.24.54-.09-.16.04-.29-.14-.68-.35-.66-.08.3-.17.1-.03-.29.16-.19-.03-.31.24-.42m30.78-21.34.27.05.07-.12.6.13.02.18-.3-.11-.13.05.07.19-.17.03-.04.2-.42.21-.08-.2-.24-.07.24-.2-.08-.12.2-.22m-4.26 1.69-.13-.14.23-.03-.09.17m2.36-2.46.03-.12.28-.14-.07.2-.23.06" fill="#d1dbdd" stroke="rgb(209, 219, 221)" stroke-width="0.1" data-originalStrokeWidth="0.1" style="stroke: rgb(0, 0, 0); fill: rgb(209, 219, 221); pointer-events: auto; stroke-width: 0.1;" pointer-events="auto"/>
      <g id="state_lines" stroke="rgb(209, 219, 221)" style="display: none; stroke: rgb(0, 0, 0);" stroke-width="0.1"/>
      <g id="state_abbr" fill="#000000" style="display: none; fill: rgb(0, 0, 0);">
        <text id="HI_label" x="491.79" y="769.82" style="font-size: 19.2455px; stroke-width: 1.60379; display: none;">
          <tspan id="HI_tspan" x="491.79" y="769.82" fill="#000000" dy="0" font-family="Arial" font-size="24.06" font-style="normal" font-weight="400" style="text-align: center; stroke-width: 2.57215; fill: rgb(0, 0, 0);" text-anchor="middle">HI</tspan>
        </text>
        <text id="AK_label" x="205.24" y="672.25" style="font-size: 19.2455px; stroke-width: 1.60379; display: none;">
          <tspan id="AK_tspan" x="205.24" y="672.25" fill="#000000" dy="0" font-family="Arial" font-size="24.06" font-style="normal" font-weight="400" style="text-align: center; stroke-width: 2.57215; fill: rgb(0, 0, 0);" text-anchor="middle">AK</tspan>
        </text>
        <text id="FL_label" x="1188.11" y="708.7" style="font-size: 19.2455px; stroke-width: 1.60379; display: none;">
          <tspan id="FL_tspan" x="1188.11" y="708.7" fill="#000000" dy="0" font-family="Arial" font-size="24.06" font-style="normal" font-weight="400" style="text-align: center; stroke-width: 2.57215; fill: rgb(0, 0, 0);" text-anchor="middle">FL</tspan>
        </text>
        <text id="NH_label" x="1306.05" y="167.79" stroke-width="1.1" font-size="13.25" style="display: none;">
          <tspan id="NH_tspan" x="1306.05" y="167.79" fill="#000000" stroke-width="1.1" dy="0" font-family="Arial" font-size="16.56" font-style="normal" font-weight="400" style="text-align: center; fill: rgb(0, 0, 0);" text-anchor="middle">NH</tspan>
        </text>
        <text id="MI_label" x="1019.65" y="246.58" style="font-size: 19.2455px; stroke-width: 1.60379; display: none;">
          <tspan id="MI_tspan" x="1019.65" y="246.58" fill="#000000" dy="0" font-family="Arial" font-size="24.06" font-style="normal" font-weight="400" style="text-align: center; stroke-width: 2.57215; fill: rgb(0, 0, 0);" text-anchor="middle">MI</tspan>
        </text>
        <text id="VT_label" x="1274.28" y="145.01" stroke-width="1.05" font-size="12.65" style="display: none;">
          <tspan id="VT_tspan" x="1274.28" y="145.01" fill="#000000" stroke-width="1.05" dy="0" font-family="Arial" font-size="15.81" font-style="normal" font-weight="400" style="text-align: center; fill: rgb(0, 0, 0);" text-anchor="middle">VT</tspan>
        </text>
        <text id="ME_label" x="1338.99" y="105.14" stroke-width="1.45" font-size="17.36" style="display: none;">
          <tspan id="ME_tspan" x="1338.99" y="105.14" fill="#000000" stroke-width="1.45" dy="0" font-family="Arial" font-size="21.7" font-style="normal" font-weight="400" style="text-align: center; fill: rgb(0, 0, 0);" text-anchor="middle">ME</tspan>
        </text>
        <text id="RI_label" x="1361.38" y="262.84" stroke-width="1.25" font-size="14.98" style="display: none;">
          <tspan id="RI_tspan" x="1361.38" y="262.84" fill="#000000" stroke-width="1.25" dy="0" font-family="Arial" font-size="18.72" font-style="normal" font-weight="400" style="text-align: center; fill: rgb(0, 0, 0);" text-anchor="middle">RI</tspan>
        </text>
        <text id="NY_label" x="1227.27" y="204.12" style="font-size: 19.2455px; stroke-width: 1.60379; display: none;">
          <tspan id="NY_tspan" x="1227.27" y="204.12" fill="#000000" dy="0" font-family="Arial" font-size="24.06" font-style="normal" font-weight="400" style="text-align: center; stroke-width: 2.57215; fill: rgb(0, 0, 0);" text-anchor="middle">NY</tspan>
        </text>
        <text id="PA_label" x="1187.28" y="284.69" style="font-size: 19.2455px; stroke-width: 1.60379; display: none;">
          <tspan id="PA_tspan" x="1187.28" y="284.69" fill="#000000" dy="0" font-family="Arial" font-size="24.06" font-style="normal" font-weight="400" style="text-align: center; stroke-width: 2.57215; fill: rgb(0, 0, 0);" text-anchor="middle">PA</tspan>
        </text>
        <text id="NJ_label" x="1330.57" y="290.09" stroke-width="1.28" font-size="15.4" style="display: none;">
          <tspan id="NJ_tspan" x="1330.57" y="290.09" fill="#000000" stroke-width="1.28" dy="0" font-family="Arial" font-size="19.25" font-style="normal" font-weight="400" style="text-align: center; fill: rgb(0, 0, 0);" text-anchor="middle">NJ</tspan>
        </text>
        <text id="DE_label" x="1320.8" y="328.42" stroke-width="1.36" font-size="16.38" style="display: none;">
          <tspan id="DE_tspan" x="1320.8" y="328.42" fill="#000000" stroke-width="1.36" dy="0" font-family="Arial" font-size="20.47" font-style="normal" font-weight="400" style="text-align: center; fill: rgb(0, 0, 0);" text-anchor="middle">DE</tspan>
        </text>
        <text id="MD_label" x="1310.72" y="368.46" stroke-width="1.34" font-size="16.11" style="display: none;">
          <tspan id="MD_tspan" x="1310.72" y="368.46" fill="#000000" stroke-width="1.34" dy="0" font-family="Arial" font-size="20.13" font-style="normal" font-weight="400" style="text-align: center; fill: rgb(0, 0, 0);" text-anchor="middle">MD</tspan>
        </text>
        <text id="VA_label" x="1198.59" y="392.33" style="font-size: 19.2455px; stroke-width: 1.60379; display: none;">
          <tspan id="VA_tspan" x="1198.59" y="392.33" fill="#000000" dy="0" font-family="Arial" font-size="24.06" font-style="normal" font-weight="400" style="text-align: center; stroke-width: 2.57215; fill: rgb(0, 0, 0);" text-anchor="middle">VA</tspan>
        </text>
        <text id="WV_label" x="1129.66" y="382.3" style="font-size: 19.2455px; stroke-width: 1.60379; display: none;">
          <tspan id="WV_tspan" x="1129.66" y="382.3" fill="#000000" dy="0" font-family="Arial" font-size="24.06" font-style="normal" font-weight="400" style="text-align: center; stroke-width: 2.57215; fill: rgb(0, 0, 0);" text-anchor="middle">WV</tspan>
        </text>
        <text id="OH_label" x="1079.05" y="334.46" style="font-size: 19.2455px; stroke-width: 1.60379; display: none;">
          <tspan id="OH_tspan" x="1079.05" y="334.46" fill="#000000" dy="0" font-family="Arial" font-size="24.06" font-style="normal" font-weight="400" style="text-align: center; stroke-width: 2.57215; fill: rgb(0, 0, 0);" text-anchor="middle">OH</tspan>
        </text>
        <text id="IN_label" x="998.79" y="352.94" style="font-size: 19.2455px; stroke-width: 1.60379; display: none;">
          <tspan id="IN_tspan" x="998.79" y="352.94" fill="#000000" dy="0" font-family="Arial" font-size="24.06" font-style="normal" font-weight="400" style="text-align: center; stroke-width: 2.57215; fill: rgb(0, 0, 0);" text-anchor="middle">IN</tspan>
        </text>
        <text id="IL_label" x="927.43" y="364.36" style="font-size: 19.2455px; stroke-width: 1.60379; display: none;">
          <tspan id="IL_tspan" x="927.43" y="364.36" fill="#000000" dy="0" font-family="Arial" font-size="24.06" font-style="normal" font-weight="400" style="text-align: center; stroke-width: 2.57215; fill: rgb(0, 0, 0);" text-anchor="middle">IL</tspan>
        </text>
        <text id="CT_label" x="1299.17" y="228.46" stroke-width="1.06" font-size="12.74" style="display: none;">
          <tspan id="CT_tspan" x="1299.17" y="228.46" fill="#000000" stroke-width="1.06" dy="0" font-family="Arial" font-size="15.93" font-style="normal" font-weight="400" style="text-align: center; fill: rgb(0, 0, 0);" text-anchor="middle">CT</tspan>
        </text>
        <text id="WI_label" x="898.6" y="224.7" style="font-size: 19.2455px; stroke-width: 1.60379; display: none;">
          <tspan id="WI_tspan" x="898.6" y="224.7" fill="#000000" dy="0" font-family="Arial" font-size="24.06" font-style="normal" font-weight="400" style="text-align: center; stroke-width: 2.57215; fill: rgb(0, 0, 0);" text-anchor="middle">WI</tspan>
        </text>
        <text id="NC_label" x="1205.6" y="458.72" style="font-size: 19.2455px; stroke-width: 1.60379; display: none;">
          <tspan id="NC_tspan" x="1205.6" y="458.72" fill="#000000" dy="0" font-family="Arial" font-size="24.06" font-style="normal" font-weight="400" style="text-align: center; stroke-width: 2.57215; fill: rgb(0, 0, 0);" text-anchor="middle">NC</tspan>
        </text>
        <text id="MA_label" x="1305.87" y="200.67" stroke-width="1.04" font-size="12.46" style="display: none;">
          <tspan id="MA_tspan" x="1305.87" y="200.67" fill="#000000" stroke-width="1.04" dy="0" font-family="Arial" font-size="15.58" font-style="normal" font-weight="400" style="text-align: center; fill: rgb(0, 0, 0);" text-anchor="middle">MA</tspan>
        </text>
        <text id="MO_label" x="854.22" y="422.93" style="font-size: 19.2455px; stroke-width: 1.60379; display: none;">
          <tspan id="MO_tspan" x="854.22" y="422.93" fill="#000000" dy="0" font-family="Arial" font-size="24.06" font-style="normal" font-weight="400" style="text-align: center; stroke-width: 2.57215; fill: rgb(0, 0, 0);" text-anchor="middle">MO</tspan>
        </text>
        <text id="GA_label" x="1106.89" y="574.56" style="font-size: 19.2455px; stroke-width: 1.60379; display: none;">
          <tspan id="GA_tspan" x="1106.89" y="574.56" fill="#000000" dy="0" font-family="Arial" font-size="24.06" font-style="normal" font-weight="400" style="text-align: center; stroke-width: 2.57215; fill: rgb(0, 0, 0);" text-anchor="middle">GA</tspan>
        </text>
        <text id="SC_label" x="1166.32" y="522.49" style="font-size: 19.2455px; stroke-width: 1.60379; display: none;">
          <tspan id="SC_tspan" x="1166.32" y="522.49" fill="#000000" dy="0" font-family="Arial" font-size="24.06" font-style="normal" font-weight="400" style="text-align: center; stroke-width: 2.57215; fill: rgb(0, 0, 0);" text-anchor="middle">SC</tspan>
        </text>
        <text id="KY_label" x="1039.99" y="426.39" style="font-size: 19.2455px; stroke-width: 1.60379; display: none;">
          <tspan id="KY_tspan" x="1039.99" y="426.39" fill="#000000" dy="0" font-family="Arial" font-size="24.06" font-style="normal" font-weight="400" style="text-align: center; stroke-width: 2.57215; fill: rgb(0, 0, 0);" text-anchor="middle">KY</tspan>
        </text>
        <text id="AL_label" x="1019.59" y="578.15" style="font-size: 19.2455px; stroke-width: 1.60379; display: none;">
          <tspan id="AL_tspan" fill="#000000" dy="0" font-family="Arial" font-size="24.06" font-style="normal" font-weight="400" style="text-align: center; stroke-width: 2.57215; fill: rgb(0, 0, 0);" text-anchor="middle">AL</tspan>
        </text>
        <text id="LA_label" x="872.7" y="649.59" style="font-size: 19.2455px; stroke-width: 1.60379; display: none;">
          <tspan id="LA_tspan" x="872.7" y="649.59" fill="#000000" dy="0" font-family="Arial" font-size="24.06" font-style="normal" font-weight="400" style="text-align: center; stroke-width: 2.57215; fill: rgb(0, 0, 0);" text-anchor="middle">LA</tspan>
        </text>
        <text id="MS_label" x="940.37" y="592.21" style="font-size: 19.2455px; stroke-width: 1.60379; display: none;">
          <tspan id="MS_tspan" x="940.37" y="592.21" fill="#000000" dy="0" font-family="Arial" font-size="24.06" font-style="normal" font-weight="400" style="text-align: center; stroke-width: 2.57215; fill: rgb(0, 0, 0);" text-anchor="middle">MS</tspan>
        </text>
        <text id="IA_label" x="823.33" y="308.44" style="font-size: 19.2455px; stroke-width: 1.60379; display: none;">
          <tspan id="IA_tspan" x="823.33" y="308.44" fill="#000000" dy="0" font-family="Arial" font-size="24.06" font-style="normal" font-weight="400" style="text-align: center; stroke-width: 2.57215; fill: rgb(0, 0, 0);" text-anchor="middle">IA</tspan>
        </text>
        <text id="MN_label" x="790.84" y="183.37" style="font-size: 19.2455px; stroke-width: 1.60379; display: none;">
          <tspan id="MN_tspan" x="790.84" y="183.37" fill="#000000" dy="0" font-family="Arial" font-size="24.06" font-style="normal" font-weight="400" style="text-align: center; stroke-width: 2.57215; fill: rgb(0, 0, 0);" text-anchor="middle">MN</tspan>
        </text>
        <text id="OK_label" x="732.05" y="519.54" style="font-size: 19.2455px; stroke-width: 1.60379; display: none;">
          <tspan id="OK_tspan" x="732.05" y="519.54" fill="#000000" dy="0" font-family="Arial" font-size="24.06" font-style="normal" font-weight="400" style="text-align: center; stroke-width: 2.57215; fill: rgb(0, 0, 0);" text-anchor="middle">OK</tspan>
        </text>
        <text id="TX_label" x="710.59" y="652.87" style="font-size: 19.2455px; stroke-width: 1.60379; display: none;">
          <tspan id="TX_tspan" x="710.59" y="652.87" fill="#000000" dy="0" font-family="Arial" font-size="24.06" font-style="normal" font-weight="400" style="text-align: center; stroke-width: 2.57215; fill: rgb(0, 0, 0);" text-anchor="middle">TX</tspan>
        </text>
        <text id="NM_label" x="506.94" y="542.36" style="font-size: 19.2455px; stroke-width: 1.60379; display: none;">
          <tspan id="NM_tspan" x="506.94" y="542.36" fill="#000000" dy="0" font-family="Arial" font-size="24.06" font-style="normal" font-weight="400" style="text-align: center; stroke-width: 2.57215; fill: rgb(0, 0, 0);" text-anchor="middle">NM</tspan>
        </text>
        <text id="KS_label" x="701.21" y="427.26" style="font-size: 19.2455px; stroke-width: 1.60379; display: none;">
          <tspan id="KS_tspan" x="701.21" y="427.26" fill="#000000" dy="0" font-family="Arial" font-size="24.06" font-style="normal" font-weight="400" style="text-align: center; stroke-width: 2.57215; fill: rgb(0, 0, 0);" text-anchor="middle">KS</tspan>
        </text>
        <text id="NE_label" x="686.63" y="337.29" style="font-size: 19.2455px; stroke-width: 1.60379; display: none;">
          <tspan id="NE_tspan" x="686.63" y="337.29" fill="#000000" dy="0" font-family="Arial" font-size="24.06" font-style="normal" font-weight="400" style="text-align: center; stroke-width: 2.57215; fill: rgb(0, 0, 0);" text-anchor="middle">NE</tspan>
        </text>
        <text id="SD_label" x="663.02" y="238.75" style="font-size: 19.2455px; stroke-width: 1.60379; display: none;">
          <tspan id="SD_tspan" x="663.02" y="238.75" fill="#000000" dy="0" font-family="Arial" font-size="24.06" font-style="normal" font-weight="400" style="text-align: center; stroke-width: 2.57215; fill: rgb(0, 0, 0);" text-anchor="middle">SD</tspan>
        </text>
        <text id="ND_label" x="663.02" y="150.75" style="font-size: 19.2455px; stroke-width: 1.60379; display: none;">
          <tspan id="ND_tspan" x="663.02" y="150.75" fill="#000000" dy="0" font-family="Arial" font-size="24.06" font-style="normal" font-weight="400" style="text-align: center; stroke-width: 2.57215; fill: rgb(0, 0, 0);" text-anchor="middle">ND</tspan>
        </text>
        <text id="WY_label" x="499.57" y="276.47" style="font-size: 19.2455px; stroke-width: 1.60379; display: none;">
          <tspan id="WY_tspan" x="499.57" y="276.47" fill="#000000" dy="0" font-family="Arial" font-size="24.06" font-style="normal" font-weight="400" style="text-align: center; stroke-width: 2.57215; fill: rgb(0, 0, 0);" text-anchor="middle">WY</tspan>
        </text>
        <text id="MT_label" x="487.84" y="155.58" style="font-size: 19.2455px; stroke-width: 1.60379; display: none;">
          <tspan id="MT_tspan" x="487.84" y="155.58" fill="#000000" dy="0" font-family="Arial" font-size="24.06" font-style="normal" font-weight="400" style="text-align: center; stroke-width: 2.57215; fill: rgb(0, 0, 0);" text-anchor="middle">MT</tspan>
        </text>
        <text id="CO_label" x="525.13" y="406.28" style="font-size: 19.2455px; stroke-width: 1.60379; display: none;">
          <tspan id="CO_tspan" x="525.13" y="406.28" fill="#000000" dy="0" font-family="Arial" font-size="24.06" font-style="normal" font-weight="400" style="text-align: center; stroke-width: 2.57215; fill: rgb(0, 0, 0);" text-anchor="middle">CO</tspan>
        </text>
        <text id="ID_label" x="339.94" y="235.07" style="font-size: 19.2455px; stroke-width: 1.60379; display: none;">
          <tspan id="ID_tspan" x="339.94" y="235.07" fill="#000000" dy="0" font-family="Arial" font-size="24.06" font-style="normal" font-weight="400" style="text-align: center; stroke-width: 2.57215; fill: rgb(0, 0, 0);" text-anchor="middle">ID</tspan>
        </text>
        <text id="UT_label" x="396.81" y="386.73" style="font-size: 19.2455px; stroke-width: 1.60379; display: none;">
          <tspan id="UT_tspan" x="396.81" y="386.73" fill="#000000" dy="0" font-family="Arial" font-size="24.06" font-style="normal" font-weight="400" style="text-align: center; stroke-width: 2.57215; fill: rgb(0, 0, 0);" text-anchor="middle">UT</tspan>
        </text>
        <text id="AZ_label" x="366.76" y="536.9" style="font-size: 19.2455px; stroke-width: 1.60379; display: none;">
          <tspan id="AZ_tspan" x="366.76" y="536.9" fill="#000000" dy="0" font-family="Arial" font-size="24.06" font-style="normal" font-weight="400" style="text-align: center; stroke-width: 2.57215; fill: rgb(0, 0, 0);" text-anchor="middle">AZ</tspan>
        </text>
        <text id="NV_label" x="262.47" y="370.64" style="font-size: 19.2455px; stroke-width: 1.60379; display: none;">
          <tspan id="NV_tspan" x="262.47" y="370.64" fill="#000000" dy="0" font-family="Arial" font-size="24.06" font-style="normal" font-weight="400" style="text-align: center; stroke-width: 2.57215; fill: rgb(0, 0, 0);" text-anchor="middle">NV</tspan>
        </text>
        <text id="OR_label" x="214.43" y="206.88" style="font-size: 19.2455px; stroke-width: 1.60379; display: none;">
          <tspan id="OR_tspan" x="214.43" y="206.88" fill="#000000" dy="0" font-family="Arial" font-size="24.06" font-style="normal" font-weight="400" style="text-align: center; stroke-width: 2.57215; fill: rgb(0, 0, 0);" text-anchor="middle">OR</tspan>
        </text>
        <text id="WA_label" x="238.05" y="102.99" style="font-size: 19.2455px; stroke-width: 1.60379; display: none;">
          <tspan id="WA_tspan" x="238.05" y="102.99" fill="#000000" dy="0" font-family="Arial" font-size="24.06" font-style="normal" font-weight="400" style="text-align: center; stroke-width: 2.57215; fill: rgb(0, 0, 0);" text-anchor="middle">WA</tspan>
        </text>
        <text id="CA_label" x="191.69" y="434.8" style="font-size: 19.2455px; stroke-width: 1.60379; display: none;">
          <tspan id="CA_tspan" x="191.69" y="434.8" fill="#000000" dy="0" font-family="Arial" font-size="24.06" font-style="normal" font-weight="400" style="text-align: center; stroke-width: 2.57215; fill: rgb(0, 0, 0);" text-anchor="middle">CA</tspan>
        </text>
        <text id="DC_label" x="1309.32" y="398.19" stroke-width="1.29" font-size="15.45" style="display: none;">
          <tspan id="DC_tspan" x="1309.32" y="398.19" fill="#000000" stroke-width="1.29" dy="0" font-family="Arial" font-size="19.31" font-style="normal" font-weight="400" style="text-align: center; fill: rgb(0, 0, 0);" text-anchor="middle">DC</tspan>
        </text>
        <text id="TN_label" x="1018.93" y="485.72" style="font-size: 19.2455px; stroke-width: 1.60379; display: none;">
          <tspan id="TN_tspan" x="1018.93" y="485.72" fill="#000000" dy="0" font-family="Arial" font-size="24.06" font-style="normal" font-weight="400" style="text-align: center; stroke-width: 2.57215; fill: rgb(0, 0, 0);" text-anchor="middle">TN</tspan>
        </text>
        <text id="AR_label" x="863.15" y="535.77" style="font-size: 19.2455px; stroke-width: 1.60379; display: none;">
          <tspan id="AR_tspan" x="863.15" y="535.77" fill="#000000" dy="0" font-family="Arial" font-size="24.06" font-style="normal" font-weight="400" style="text-align: center; stroke-width: 2.57215; fill: rgb(0, 0, 0);" text-anchor="middle">AR</tspan>
        </text>
      </g>
      <g id="state_borders" transform="translate(-0.04777967,-0.15336683)" stroke="rgb(209, 219, 221)" style="stroke: rgb(0, 0, 0);" stroke-width="0.3"/>
      <rect id="selection-rectangle" fill="#ffffccaa" stroke="rgb(209, 219, 221)" stroke-width="0.1"/>
      <ellipse id="selection-ellipse" fill="#ffffccaa" stroke="rgb(209, 219, 221)" stroke-width="0.1"/>
      <polygon id="selection-polygon" fill="#ffffccaa" stroke="rgb(209, 219, 221)" stroke-width="0.1"/>
      <polyline id="selection-polyline" fill="#ffffccaa" stroke="rgb(209, 219, 221)" stroke-width="0.1"/>
    </svg>
  </g>
</svg>
