<?xml version='1.0' encoding='UTF-8'?>
<svg xmlns="http://www.w3.org/2000/svg" xmlns:dc="http://purl.org/dc/elements/1.1/" xmlns:ns2="http://creativecommons.org/ns#" xmlns:rdf="http://www.w3.org/1999/02/22-rdf-syntax-ns#" id="wrapper" viewBox="0 0 1520 840" preserveAspectRatio="xMinYMin" height="840" width="1520" style="background-color: rgb(255, 255, 255);">
  <metadata>
    <rdf:rdf>
      <ns2:work rdf:about="">
        <dc:format>image/svg+xml</dc:format>
        <dc:type rdf:resource="http://purl.org/dc/dcmitype/StillImage"/>
        <dc:title>MapChart Map</dc:title>
        <dc:creator>
          <ns2:agent>
            <dc:title>MapChart.net</dc:title>
          </ns2:agent>
        </dc:creator>
        <ns2:license rdf:resource="http://creativecommons.org/licenses/by-sa/4.0/"/>
        <dc:description>This map was created with MapChart.net, a website for creating custom maps.</dc:description>
      </ns2:work>
      <ns2:license rdf:about="http://creativecommons.org/licenses/by-sa/4.0/">
        <ns2:permits rdf:resource="http://creativecommons.org/ns#Reproduction"/>
        <ns2:permits rdf:resource="http://creativecommons.org/ns#Distribution"/>
        <ns2:requires rdf:resource="http://creativecommons.org/ns#Notice"/>
        <ns2:requires rdf:resource="http://creativecommons.org/ns#Attribution"/>
        <ns2:requires rdf:resource="http://creativecommons.org/ns#ShareAlike"/>
      </ns2:license>
    </rdf:rdf>
  </metadata>
  <g id="map-group" transform="translate(-8961.28076171875,-2216.4010009765625) scale(8)">
    <svg id="map" width="1520" height="840" version="1.1" viewBox="0 0 1520 840" preserveAspectRatio="xMinYMin" data-originalStrokeWidth="0.3">
      <defs>
        <pattern id="circles3" width="10" height="10" patternUnits="userSpaceOnUse">    <rect width="10" height="10" fill="#fff"/>    <circle cx="4" cy="4" r="2" fill="#000"/>    </pattern>
        <pattern id="diagonal1" width="10" height="10" patternUnits="userSpaceOnUse">    <rect width="10" height="10" fill="#fff"/>    </pattern>
        <pattern id="diagonal3" width="10" height="10" patternUnits="userSpaceOnUse">    <rect width="10" height="10" fill="#fff"/>    </pattern>
        <pattern id="vertical1" width="10" height="10" patternUnits="userSpaceOnUse">    <rect width="10" height="10" fill="#fff"/>    <rect x="2" y="0" width="1" height="10" fill="#000"/>    </pattern>
        <pattern id="vertical3" width="10" height="10" patternUnits="userSpaceOnUse">    <rect width="10" height="10" fill="#fff"/>    <rect x="2" y="0" width="3" height="10" fill="#000"/>    </pattern>
        <pattern id="horizontal1" width="10" height="10" patternUnits="userSpaceOnUse">    <rect width="10" height="10" fill="#fff"/>    <rect x="0" y="2" width="10" height="1" fill="#000"/>    </pattern>
        <pattern id="horizontal3" width="10" height="10" patternUnits="userSpaceOnUse">    <rect width="10" height="10" fill="#fff"/>    <rect x="0" y="2" width="10" height="3" fill="#000"/>    </pattern>
        <pattern id="crosshatch" width="8" height="8" patternUnits="userSpaceOnUse">    <rect width="8" height="8" fill="#fff"/>    </pattern>
        <pattern id="subtlepatch" width="5" height="5" patternUnits="userSpaceOnUse">    <rect width="5" height="5" fill="#fff"/>    <rect x="2" y="2" width="1" height="1" fill="#000"/>    </pattern>
        <pattern id="checkers" width="8" height="8" patternUnits="userSpaceOnUse">    <rect width="8" height="8" fill="#fff"/>    </pattern>
        <pattern id="raindrops" width="10" height="10" patternUnits="userSpaceOnUse">    <rect width="10" height="10" fill="#fff"/>    </pattern>
        <pattern id="texture" width="4" height="4" patternUnits="userSpaceOnUse">    <rect width="4" height="4" fill="#fff"/>    </pattern>
        <pattern id="circles3_a03500_000000" width="10" height="10" patternUnits="userSpaceOnUse">    <rect width="10" height="10" fill="#a03500"/>    <circle cx="4" cy="4" r="2" fill="#000000"/>    </pattern>
        <pattern id="diagonal1_d9b400_535353" width="10" height="10" patternUnits="userSpaceOnUse">    <rect width="10" height="10" fill="#d9b400"/>    </pattern>
        <pattern id="diagonal3_3264c8_ffffff" width="10" height="10" patternUnits="userSpaceOnUse">    <rect width="10" height="10" fill="#3264c8"/>    </pattern>
        <pattern id="horizontal1_72b38e_000000" width="10" height="10" patternUnits="userSpaceOnUse">    <rect width="10" height="10" fill="#72b38e"/>    <rect x="0" y="2" width="10" height="1" fill="#000000"/>    </pattern>
        <pattern id="horizontal3_986ba1_ffffff" width="10" height="10" patternUnits="userSpaceOnUse">    <rect width="10" height="10" fill="#986ba1"/>    <rect x="0" y="2" width="10" height="3" fill="#ffffff"/>    </pattern>
        <pattern id="vertical1_b9a087_ffffff" width="10" height="10" patternUnits="userSpaceOnUse">    <rect width="10" height="10" fill="#b9a087"/>    <rect x="2" y="0" width="1" height="10" fill="#ffffff"/>    </pattern>
        <pattern id="vertical3_4c91bf_ffff33" width="10" height="10" patternUnits="userSpaceOnUse">    <rect width="10" height="10" fill="#4c91bf"/>    <rect x="2" y="0" width="3" height="10" fill="#ffff33"/>    </pattern>
        <pattern id="checkers_cc3333_f7f7f7" width="8" height="8" patternUnits="userSpaceOnUse">    <rect width="8" height="8" fill="#cc3333"/>    </pattern>
        <pattern id="texture_d1dbdd_525252" width="4" height="4" patternUnits="userSpaceOnUse">    <rect width="4" height="4" fill="#d1dbdd"/>    </pattern>
        <style id="map-style">svg { background-color: #ffffff; }</style>
      </defs>
      <path id="MD01" d="m1234.9 303.95.03-.01.13-.05.53-.14.25-.06.45-.12.35-.11 1-.26.8-.22.42-.1.34-.08 4.6-1.25.28-.08.04.19.13.47.05.17v.03l.02.08.23.83.03.19.04.12v.02l.11.32.05.13.17.52.15.46.56 1.69 2.77 8.24.3.94.68 2.06.14.36.22.68.65 1.91.08.25.29.84.13.42.02.07.33.98.15.47.16.42.08.26.38 1.15.18.52.05.18.08.24.03.08.18.5.11.38.1.27.04.12.1.29.02.04.1.35.62 1.83.07.22.12.34.13.38.21.69.16.44.06.19.22.65.02.12.26.72.02.07.48 1.44.27.78 1 2.99 1.51-.33.68-.15.5-.12h.06v-.02h.04l.28-.06.6-.15 3.05-.74 3.74-1 .47-.11.14-.05 2-.55.18-.05.3-.09.33-.08.51-.14.44-.12.07-.02.14-.03.09-.03.06-.02.08-.01.18 1.13.05.83.02 1.13-.04 1.02-.2.09-.1.42-.1 1.4-.02.75-.1 1.24-.05.88.02 1.89-.1 1.04-.23 1.17-.34 1.24-.3.11-.15.07-.03.02-.49.18-2.14.87-.38.15-.38.17-.41.15-.47.17-.43.17-.52.2-.32.14-.1.03-.36.13-.14.07-.26.1-.61.26-.72.26-.02.01-.31.11-.2.1-.04.15-.13.14v.05l-.02.07.2.17-.03.03h-.06l-.1-.07h-.05l-.06.1-.03.1v.15l-.06.12-.17.3-.52-.15-.31.11-.68-.18-.03-.32-.23.2.13.38-.26.35-.17-.33-.04-.25-.23-.12.09.22-.17.2.25.08-.1.1-.55.04-.29.07-.32.63-.27-.05-.03-.2h-.16l-.06.5.25.13-.01.25-.22.08v.24l-.47.4-.08.16-.38.19-.14.19-.23-.13-.18-.26.07-.1-.11-.78.31.03.27-.1.08-.16-.18-.28.02-.28-.2-.08-.19.3-.32-.15-.17.13.12-.48.01-.25.15-.6.05-.43-.2-.05.03-.21.28-.2.19.01.24.24.18-.23.07-.45h.2l.24-.33.04.07.25-.27.03-.19.18-.15.05-.41-.2-.01-.16-.2-.08.1.11.27-.11.17-.3-.04.22.34-.26.18-.38-.35-.15.2-.32-.08-.32.31.07.17-.35.07-.02-.27-.2-.31.29-.08-.1-.23.09-.58.36-.39-.11-.37.19-.3.17.21.25-.4.14.2.15-.26.19-.1-.07-.27-.44.28-.38-.13h-.37l-.06.22-.4.24-.3.03.19.18-.36.04-.1-.34-.15-.03-.32.23-.04.3-.08-.16h-.25l-.25-.15-.15.1.12.18.25.14.06.15-.32.34.1.18-.11.2-.21-.17.02-.18-.33-.14-.1-.16v-1.11l-.15-.18.14-.35.4-.21.28-.3.46-.35.29.1.3-.17.46-.5.04-.19.22.02.16-.4-.2-.03-.48.05-.1.2-.3-.14.47-.58.27-.27.48-.12-.51-.17-.26.2-.28.1-.06.32-.28.08-.1.16-.08-.25-.19-.03-.16.46.15.38-.22.07-.43-.5-.11-.25-.32-.2.23-.32.02-.46-.2-.14.13-.33.16-.98.25-.06-.1-.09.05-.31.27-.31.03-.54-.4-.26-.1-.13-.12.16.31.4-.16.27-.6.36-.26.41.12.38-.28.25-.14.52.05.41.23.66-.3.29.07.4.39.08-.14.36-.46.23.08-.25-.02-.32-.59-.29-.11-.37-.08.04-.53-.49-.2-.24-.28-.08.18-.16.63-.24.33-.33.01-.3-.11-.38.07-.15-.21.06-.4-.56-.42.05-.14-.12-.24.06.1.18-.07.17.1.98-.34.41-.16.08-.1.43-.25.2.29-.01.26.11.47.43-.06 1.04-.43.12.4.17.3.29.2.4-.42-.23-.21.08-.52-.4-.18-.36-.13.1-.44.1.05-.32.2-.02.15-.2-.28-.11-.03-.22-.28.03-.1-.32-.27.14-.11-.1.18-.13-.35-.23v.17l-.28.04.06.38.27.2h-.24l-.32.4-.09-.35.18-.3-.04-.23.14-.1-.1-.24-.27-.05v.11l-.5-.05-.32-.2-.48.37-.04-.31h.2l-.1-.19.14-.2.48.36.19-.05-.13-.25-.29-.08-.09-.33-.34-.36-.38-.03-.24-.18-.06.17-.22.1.01-.29-.14-.48-.29-.11-.1.23.18.23-.08.21.06.3.28.46.44.25.1.26-.16.12.02.43.16.15.34.15.26.28.06-.16.36-.02.2.18-.16.18.1.29.2.26.4.31.4-.14.52.1-.01.25-.23.17-.26-.08-.3-.2-.13.1-.64-.54-.22-.37-.3-.2-.25-.34-.49-.17-.35-.41.02-.22-.13-.19-.06-.28-.14-.06-.4-.43-.57-.18-.4-.38-.04-.46-.2-.35-.32-.23-.48-.62-.24-.23-.23-.1-.33-.3-.15-.4.17-.26-.14-.1.42-.06.5-.37.01.15.37.03.18-.13.14-.75.08-.18.47-.17.1-.24-.13-.22-.29.03-.2.19-.28-.08-.3.04-.11.27-.11.02-.05-.54-.48-.42-.21.04-.06-.16.2-.3.01.16.23.03.27-.44-.2-.15.15-.26-.06-.16-.2.13-.46-.68.4.25-.04.14.22-.05.05-.21.24.05-.13-.24.35-.27.16.45.11-.08.5.1.18-.17.2-.33.3-.35.18-.06.21.37v.41l.24.18.19-.06.18-.4.28.28.53.26.51-.46.14.2.21-.03.04.17.2.1.76.21.35-.25-.24-.4-.6-.26-.08-.3-.83-.2-.03-.22-.41.05-.18.2-.4-.17-.35-.23-.3.15-.35-.61-.66-.41.08-.16-.22-.37-.2-.02-.14.47-.02.38-.5-.4.01-.19-.36-.07-.4-.4-.04-.34.14-.17-.27-.22.19-.12.41.23.14-.39-.53-.25-.08-.29-.3-.01-.12.15.04.33-.24.08.08.39-.26.46.12.47-.62-.29-.13.16-.07-.26.05-.29-.2-.4-.36.11.05.1-.24.25.26.02.1.19-.14.1-.04.36-.13.2.02.34.26.29.14.05.05.3-.37.22-.12-.06-.15-.4-.06-.36v-.61l-.14-.5-.16-.3.03-.4.13-.11-.17-.28.22-.13.03-.43.13-.32-.1-.52.14-.52.22-.02.22-.2-.14-.19.24-.53.23-.4.08.14-.26.26.05.2.14.04.36.5.26.18.26-.19.54.37-.1.2.12.14.01.27.85.4.2.32h.31l.08-.45.12-.2-.14-.06-.25.22-.54-.58-.37-.24-.05-.3.05-.6-.26-.38-.28-.23v-.31l-.13-1.04-.14.06-.16-.43-.18-.67-.2-.05-.08-.28-.3-.07-.02.2-.18.02-.13-.34-.27-.32-.22.1.24.73-.16.3.27.07.1.2-.3.12-.43-.6-.43.55v.33l.27.43-.15.05-.22-.58-.35.06.07.36-.14.05-.13-.19-.16.04-.08.23.13.16.05.43.22.33.18.49-.16.32-.24.01-.25.31v.45l-.18-.06-.12-.49.08-.63-.06-.32-.23-.7-.15-1 .03-.62.17-.6.1-.05-.02-.38.13-.32-.13-.87.11-.42.2-.2.03.42.24.18.2.45.55.56.42-.15v.19l.25-.04.14-.15.2.18.16-.06V327l.3.21.37-.17.22-.27.31-.61.16-.17-.06-.32-.29-.39-.23-.18-.09-.4-.2-.02.13-.44.33-.3.19-.8-.1-.13-.48.02-.44.1-.38.47.05.26-.12.26.15.33.06.56.2.22-.01.2.3.36-.16.2-.58-.16-.34-.25-.02-.54.17-.06v-.25l-.14-.22-.2-.65-.24-.5-.4-.51-.05-.39-.32-.08-.26-.2-.28-.01-.1-.59.04-.52.22-.67.05-.72.13-.44.01-.81.17-.44h.18v-.39l.22-.09.08-.34.26.01.06-.21-.28-.1-.08-.31-.19-.03-.03-.21.18-.2.05-.29.22-.2.35-.03.1.18.18-.2-.17-.33.06-.3.28-.34.05-.39.6-.1.53-.18.72-.06.3.12.42-.3.29-.48-.26-.1-.84.2-.3-.1.1-.43.34-.27.18-.23.1-.55.29-.25.08-.73.07-.22-.33-.16-.17.07.05.27-.2.2.05.09-.29.22-.08-.09.18-.48.05-.34-.13-.42.1-.26-.07-.42.06-.22-.07-.4.3-.17.06-.15-.2-.13.02-.16-.18-.33.25-.4-.07-.18.14-.23-.11-.42-.2.08-.12.24.04.23-.1.29-.55.49-.02.47.12.13-.21.13-.2-.2-.3.02-.2-.08-.18.05.01.2-.4.1-.41.27-.25.23-.06.53-.04.5-.16.61-.09.1.18.13.2-.2.43.23.35-.18.25.04.47.68-.38.55-.12-.19-.38.1-.01.33-.23.26-.08.21-.42.66-.32.04-.21.61-.05.4-.2-.06-.11.47-.48.5-.08.24-.18-.02-.2-.26-.26.06-.12-.26.09-.1-.18-.17.1-.2-.1-.15.07-.48-.05-.1.2-.4.07-.27-.44-.32.05-.59-.29-.08.01.23-.15.2.01.22.21.19v.76l-.26.36.19.3-.15.42.12.1-.3.34.59.16.08.28.2.06.1.26-.37.61.08.72-.36.02.08-.3-.04-.22-.3-.3-.1-.67-.42-.08-.3.04.32-.17.02-.57-.3-.3-.58.1-.53.02.06.39.25.14.32-.02.02.43-.08.1.52.58-.38-.05-.07.12-.13.1-.02-.35-.58-.25-.18.3-.54.43-.34.02-.35-.22.2-.47.38-.15-.33-.17h-.15l-.47-.28-.1.24-.41-.02-.19-.23.17-.46-.38-.17-.18.15.04-.25-.56.13-.36-.03-.2-.18-.36.42-.25-.12-.22-.3-.2-.01-.04-.31.08-.2.1-.86-.25-.24-.28.05-.06-.18-.28.03-.22-.44-.34.1-.51.35-.2-.37.02-.3-.12-.19.03-.48.2-.28-.24-.13-.11-.28-.3.02.08-.15-.16-.15.23-.13-.3-.2-.46-.41-.2.08-.17-.25-.23.15.03-.16-.25-.49.04-.38-.13.07-.19-.42-.23.08.06-.16-.15-.24.15-.16-.03-.21-.14-.04.04-.25-.94-.59v-.1l.1-.02.35-.1.33-.07.45-.12 1.1-.28.14-.04.47-.12.1-.04 1.42-.36.3-.09.65-.16.52-.15 1.3-.32 1-.28.12-.02.08-.03.03-.02.12-.01.52-.14 1.1-.3h.1l1.02-.3.6-.14m17.58 53.4-.23-.77-.16-.31-.04-.61-.14-.33.04-.41.16-.03.27-.3.34-.04.2.34.39.08.31.4-.09.04.19.46h-.19l-.05.19.08.28-.05.29.22.08v.32l-.87.22-.19.04-.1.02-.1.05m-1.22-4.26.16.08.24-.13-.05-.3-.18.02-.26-.18.15-.04-.06-.25.14-.2.2-.06.03-.3.22.02.06.26-.16.17.05.33.2.04.2.2.2.5-.09.24-.36-.28-.25.03.11.27-.68-.34.13-.08m-1.45-1.97-.06-.19.14-.13-.32-.53.18.08.38-.08.14-.35-.4-.07.14-.1.38-.08.38.28-.07.29.41-.04.14.24-.1.2-.25.16.37.28-.04.2-.44.14-.1-.07-.29-.53-.1-.04-.21.47-.18.1-.1-.23m-5.62-4.4.4.43-.13.12-.05-.2-.26-.24.04-.12m-7.7-28.68-.01-.38.22.05-.22.33m1.44 16h.24l.1.4.23.3.1.25-.3.2-.18-.05-.26-.31-.08-.28.15-.5" fill="#d1dbdd" stroke="rgb(209, 219, 221)" stroke-width="0.1" data-originalStrokeWidth="0.1" style="stroke: rgb(0, 0, 0); fill: rgb(209, 219, 221); pointer-events: auto; stroke-width: 0.1;" pointer-events="auto"/>
      <path id="MD02" d="m1216.81 308.69.4-.12 1.5-.38.34-.09.21-.06.29-.06.09-.02.41-.12.67-.16.44-.12.27-.1.8-.2.2-.05.56-.14-.02.1.94.58-.04.25.14.04.03.2-.15.17.15.24-.06.16.23-.08.2.42.12-.07-.04.38.25.49-.03.16.23-.15.17.25.19-.08.47.4.3.21-.23.13.17.15-.09.16.29-.02.12.28.25.12-.2.3-.04.47.12.18-.04.3.22.37.5-.34.35-.1.22.43.28-.03.06.18.28-.05.25.23-.1.86-.08.2.06.32h.18l.22.31.24.12.36-.43.2.18.37.04.56-.13-.04.25.18-.14.37.16-.16.46.19.23.4.02.11-.24.47.3.15-.01.33.16-.38.15-.2.47.35.22.34-.02.55-.44.18-.3.57.26.02.35.13-.1.03.36.14-.1.3.04.17.25-.21.2.05.18-.26-.24-.07.1-.4-.21-.12.05.22.24-.26.51-.17-.28-.18.18-.28-.16-.17.16.12.22.25.03.22.3.26-.07.06.28-.25.06-.08.26.12.08-.13.4.14.19-.34.12-.32-.15-.21.1-.02.18-.29-.43-.07-.54-.3.05-.94-.42-.61-.04-.13-.25-.24-.23.01-.14-.2.04-.34-1.28-1.87.47.12.48-.14.07.11.3-.22.07.11.4-.35.16-.26-.24-.04-.32-.2-.3-.17.22-.55-.42-.77.2.15.54-.19-.02-.3-.3-.47-.17-.05.26-.22.16-.37.11-.04.16-.35.3.87.21.14.22.16-.03.21.17-.04.45.19-.03.24.66.1.12-.1.2.44.4-.09.13.4.3-.09.16.15.3-.02.18-.29-.01-.5-.37-.68-.18-.35-.15.07-.58-.07-.24.1-.24-.47-.12v-.29h-.52l-.06.15-.14-.14-.17.27-.33-.13-.12.12-.4-.36-.29.01-.07-.18-.3-.4-.6.15.05.1-.54-.03-.44-.1-.36.18-.22-.14-.1.12-.34.08-.17-.09.14-.41.04-1.13-.25-.05.08-.26-.44-.07-.03.16-.5-.26-.86-.08-.42.73.06.62-.61-.13-.27-.14-.7-.2.08-.66.12-.32-.12-.13-.06-.42.15-.46-.42-.32-.29-.05-.25-.35h-.32l-.1-.28-.45.05-.12-.61-.16-.14-.2.04-.14-.18-.4-.3-.25.06-.08.17-.17-.03-.05-.2-.18.03-.06-.16-.14.17-.06-.13-.53-.36-.1.33-.26-.3-.34.03-.02.12-.59-.33.13-.24-.25-.13-.11-.25.3-.03.23.18.36-.14-.12-.1.15-.22-.14-.13.14-.3.03-.33.16.02.36-.46-.07-.34-.25-.17.02-.1.4-.06.2-.22-.3-.15.2-.27-.1-.21.16-.04.29-.06.28-.06.74-.21.73-.18.35-.09.15-.04.07-.02.22-.06.51-.12.45-.12 1.32-.33.64-.17m17.3 10.94.04-.08.44-.4.34.03-.05.23-.45.52-.25.01-.2-.26.14-.05" fill="#d1dbdd" stroke="rgb(209, 219, 221)" stroke-width="0.1" data-originalStrokeWidth="0.1" style="stroke: rgb(0, 0, 0); fill: rgb(209, 219, 221); pointer-events: auto; stroke-width: 0.1;" pointer-events="auto"/>
      <path id="MD03" d="m1224.52 326.94-.12-.11h-.63l-.47-.37-.06-.12-.36.29-.3.02-.42-.26-.38.37-.26-.06.05-.43-.25.08-.34-.05-.03-.36-.37-.08-.22.06-.14-.1v-.22l-.26-.07v-.38l-.19-.02-.03-.36-.22-.06-.42-.22-.02-.14-.42-.34h-.4l-.07-.18-.57-.28-.56-.04-.64.07-.33-.4v-.17l-.19-.15-.59-.29-.55-.56-.22-.32.04-.17.3-.34-.02-.46.1-.2-.05-.58.04-.47-.1-.38.22-.51.7.2.27.13.61.13-.06-.62.42-.73.87.07.49.27.03-.16.44.07-.08.26.25.05-.04 1.13-.14.41.17.1.35-.1.09-.11.22.14.36-.18.44.1.54.03-.05-.09.58-.15.33.4.07.18.28-.02.4.37.12-.13.32.13.18-.27.14.14.06-.15h.53v.29l.46.12-.1.24.08.24-.07.58.34.15.67.18.52.37.28.02.58.12.2.23.24-.35.19-.01.18-.3.17-.15.34-.01.22.08.21-.04.17-.48.2.05.84.65.9.13.3-.44-.02.14.25.25-.1.15.28.34.37.07.36.25-.03.17h.23l.12-.27.2-.17.2.31 1.14.46.12.67.47.76.06.21-.06.48-.13.37.22.13.72.26.26.28.14.29-.36.46.07.12-.19.15-.06.25-.04-.4-.18-.02-.04.17-.28.13.06.55-.06.13-.19-.3-.07.16-.3.06-.09.14.2.12.2.47.25.2.11-.02.25.17-.21.5.21.34.04.27-.25-.08-.6-.37-.35.29-1.1-.56-.81-.1-.33-.11-.13.06-.28-.25-.29-.4-.04.1-.34-.08-.45-.38-.34-.42-.26-.08.14-.16-.16-.26-.42-.13.32-.82-.43-.02.05-.18-.36-.05-.1-.24-.31-.38-.05.19-.32-.08v-.2l-.16-.1-.34.12.08-.12-.1-.2-.58-.15v.12l-.25-.06-.17.13-.05-.4-.58-.2-.09.25.02.32-.06.3-.18.14-.33.08-.22.23.01.25-.27.29" fill="#d1dbdd" stroke="rgb(209, 219, 221)" stroke-width="0.1" data-originalStrokeWidth="0.1" style="stroke: rgb(0, 0, 0); fill: rgb(209, 219, 221); pointer-events: auto; stroke-width: 0.1;" pointer-events="auto"/>
      <path id="MD04" d="m1221.77 332.12.14-.34.19-.12-.06-.28-.2-.14.59-2.1v-.1l-.46-.12.17-.73-.43-.05-.15-.2.06-.08-.07-.6-.42.05-.23-.04-.31-.53.35-.02.38-.37.25-.08-.05.43.26.06.38-.38.42.27.3-.02.36-.29.06.13.47.36h.63l.12.1.1.17.26.02.05.13-.12.27.1.2-.1.11.57.24.3-.11.27.2.15.24.37-.07.3.08.12.15.26-.07-.23.61-.16-.21-.28.28.14.25-.28.14.08.22-.15.2.42.54.43.03.28.82-.46.16-.54.05-.52.12-.11.1.33.3-.22.61.29.18.16.28-.32.3.15.23.1.46-.3 1.04h-.18l.1.34-.35.52-.05.27-.16.17.4.57.18.13.41.55.15.61.02.26-.43.22-.18.28-.17.05-.47.52-.69.23-.08.27-.2.06-.1.47-.18.03-.08-.22.19-.15-.84.16-.39-.08.06-.74-.15-.65-.2.05-.25-1.2-.05-.14.02-.07 1.05-1.77 1.2-2.12-2.77-1.7" fill="#d1dbdd" stroke="rgb(209, 219, 221)" stroke-width="0.1" data-originalStrokeWidth="0.1" style="stroke: rgb(0, 0, 0); fill: rgb(209, 219, 221); pointer-events: auto; stroke-width: 0.1;" pointer-events="auto"/>
      <path id="MD05" d="m1222.57 339.12.2-.05.16.66-.06.72.39.08.82-.15-.18.15.08.22.17-.03.1-.47.22-.06.07-.26.7-.24.46-.52.18-.05.17-.28.43-.21-.02-.27-.15-.6-.4-.55-.2-.14-.39-.57.16-.17.05-.27.36-.52-.1-.33.18-.01.29-1.04-.1-.46-.15-.23.32-.3-.16-.28-.3-.18.23-.62-.33-.3.1-.08.53-.12.54-.06.46-.16-.28-.82-.43-.03-.42-.56.15-.18-.08-.22.28-.14-.14-.25.28-.28.16.21.23-.61-.26.07-.13-.15-.29-.08-.37.07-.15-.24-.28-.21-.29.11-.57-.23.1-.12-.1-.18.12-.28-.05-.13-.25-.02-.1-.16.26-.3-.01-.24.22-.23.33-.08.19-.15.06-.29-.04-.32.09-.24.59.2.05.39.18-.13.24.06v-.13l.57.17.1.18-.08.13.35-.11.15.09.01.19.32.09.06-.2.3.39.1.24.36.05-.05.18.43.02-.32.82.42.13.16.26-.14.15.26.08.34.43.45.38.34.08.05-.1.28.4.28.25.13-.06.33.12.81.1 1.1.55.05.26.32.03.29.73-.5.85-.43.17.11.39.51-.26.32.14.03-.22.14.01.21.34-.08.3.08.49-.18.2v.28l-.3.29.02.26-.19.45-.24.1-.19.26.08.26.15.1v.31l.2.26.26.18.31-.11.12.11.06.8.17.64.43.96.36.46.21.38.08.82.12.52.2.54.07.53.11.28.43.7.5.58.27.21.84.54.19.24.41.17.66.45.46.56.22.1.33.02-.12.4.2.4-.26.73-.21.77-.45-.08-.3.15-.05.23-.4-.31-.1.25.04.29.57.47.42-.02.28-.16.08-.36.32-.08.18-.21.65.15.01.16-.27.6.03.63.66 1.19.76.64.3.38.6.44.51.58-.34.7.38.56.26.81.38.65.08.38-.2-.31-.28-.08-.37.1-.25-.14-.42-.62-.38-.23-.19-.03-.09-.25-.34-.05-.38.11-.33-.34-.04-.2-.26-.26-.03-.35-.17-.08.12-.18-.14-.16-.67.43.36.63-.09.41.2.38-.21.12-.23-.32-.7-.58-.4.04-.22.3-.17-.38-.21-.16-.5-.86-.3-.27-.38-.22-.51-.21-1.08-.1-.36.1-.67-.11-.35.05-.04-.18-.28.1-.08.25-.36.1-.1-.23-.3-.1-.15.66-.14.21-.66-.03-.1-.45-.36-.18-.38.06-.22-.5.11-.27-.17-.24-.6-.43.03-.2-.18-.1-.32-.6-.15-.04.23-.23.03-.18-.78-.17-.13.9.32.16.24.21.06.36.18.09.08.26.17.05.28.44-.1.32.05.32-.64-.3-.67-.15-.51-.19-.48-.07-.05-.55-.28-.31-1.02-.35-.28.05-.05-.43-.23-.18-.37-.94-.35-.38-.16-.38-.38-.39-.17-.26-.56.18-.67.83-.23.62-.36.13-.43-.03-.04.33-.14.32-.4.4-.43.59-.58.42-.25-.04-.96-.4-.32-.56-.27-.3.07-.57-.32-.35.01-.3-.28-.3.03-.33-.25-.2.03-.55-.02-.44.32-1.4.37-.2.2-.64.26-.46.09-.5.27-.27.5-.1.39-.38.4-.65-.1-.06-.48.07-.25-.42-.13-.75.09-.18.08-.25.24-.36.13-.16h.03l.18-.22.18-.2.04-.05.09-.13.06.05h.05l.44-.09.09-.12.07-.2v-.25l-.11-.33-.04-.14-.04-.16" fill="#d1dbdd" stroke="rgb(209, 219, 221)" stroke-width="0.1" data-originalStrokeWidth="0.1" style="stroke: rgb(0, 0, 0); fill: rgb(209, 219, 221); pointer-events: auto; stroke-width: 0.1;" pointer-events="auto"/>
      <path id="MD06" d="m1174 324.35-.02.28-.2.45-.07.05-.06.05v.14l.03.02v.2l-.18.23-.2-.05-.05.02-.04.05v.05l.1.18-.18.15-.13.06.1.2-.05.27-.08.07-.02.01v.07l-.05.24h-.15l-.22.09-.15.2.12.19-.12.3-.24.12-.04.05.03.07.02.02.03.25-.02.03.14.06.02.24-.14.06-.17-.09-.22-.1-.09-.03-.1-.03-.33-.05-.26-.08-.2-.1-.13-.09h-.02l-.18.13-.17-.04-.13-.28-.2-.04-.05-.07-.03-.04-.15.14.03.29-.13.01-.17-.22-.12.23-.05.03-.38.1-.16-.07-.07-.02-.04.02-.04.05-.03.07.02.05.07.06.06.02.18.15-.2.05h-.04l-.06.07v.07l.03.05.13.06.01.22-.08.08-.02.02-.09.07-.02.07v.11l.08.2h-.22l-.09.16v.04l.06.13h.04l.01.13-.2.06-.11.15.05.13-.03.16-.14-.07-.06-.21-.06-.03-.18.04v.34l-.04.04v.13l.08.2.1.2-.05.06-.28-.2-.08-.03h-.05l-.03.07v.02l.03.04.1.1-.07.1-.4.01-.06.34-.14.3-.02.06v.18l-.26.04-.16.03.01.15-.15.06-.03-.02-.04.02-.13.1-.15.03-.03.02v.05l.02.04.08.11.03.1-.04.1v.05l.03.07.06.02-.12.18-.16-.03-.05.02-.01.03v.22l-.12.12-.1.1.02.29.04.14-.09.2-.01.05.02.12-.08.02-.06-.02-.1.03-.19-.02-.2-.03-.07.09-.13.05h-.02l-.14.08-.08.09-.03.06-.03.1h-.13l-.01.03v.06l-.03.2-.02.02-.08.25-.04.07-.3.15h-.05l-.09.08-.01.07-.03.1h-.13l-.02.02.05.11-.06.1h-.07v.13l-.08.07v.18l-.22.36-.03.04-.09.03-.06.05.01.08-.07.07-.02.02.06.16-.06.14-.07.01-.05.04-.02.07-.18.22-.08.04-.06.07-.02.05-.07.07h-.05l-.06.02-.06.02-.1.1-.03.06.02.11-.08.07-.09-.05h-.16l-.02-.02-.07.02-.4-1.83-.03-.02-.1-.43-.25-1.2-.18-.81h.05l-.04-.2-.15-.7-.08-.34-.09-.38-.1-.5-.05-.2-.22-1-.06-.3-.09-.4-.1-.42-.17-.87-.06-.19v-.1l-.07-.21.09-.02-.75-3.45h.03l-.57-2.44 5.72-1.33.5-.12.29-.07.75-.18 2.2-.53.46-.1.16-.05 1.4-.32.6-.14.45-.1 4.03-.96.61-.15.85-.18 3.04-.72.7-.16.2-.05 1.77-.43.54-.1 2-.5.17-.01.02-.03.17-.03 1.6-.4 1.2-.28.44-.11.65-.15.52-.14.26-.06.56-.12.34-.1.47-.11 4.4-1.06 1-.24 1.85-.45.3-.06.73-.17 1.17-.29.48-.1.78-.2.35-.07 1.43-.36.23-.06.4-.1.35-.07.13-.04.21-.06.19-.04.06-.02.07-.02.62-.15.38-.1.94-.23.49-.12.44-.1.25-.08.3-.06.46-.12.89-.24.5-.12.21-.06.45-.1.04-.02.1.21-.2.27.3.15-.2.22-.4.06-.02.1.25.18.07.33-.36.46-.16-.02-.03.35-.14.3.14.1-.15.24.12.09-.36.15-.23-.18-.31.01.1.26.27.13-.12.24.58.33.02-.12.34-.03.26.3.1-.32.53.36.06.12.14-.17.06.16.18-.04.05.21.17.03.08-.17.26-.07.4.3.13.18.2-.03.16.14.13.6.44-.04.11.28h.3l.25.35.3.05.42.32-.15.46.06.42.12.13-.12.33-.08.67-.22.49.1.4-.04.46.06.57-.1.2.01.47-.3.34-.04.17.22.32.55.56.59.3-.39.24-.19.23-.02.31.13.16.24.05.09.36-.34.89-.22.14-.24.4.28.48.35.21-.4.3.15.3.44.05-.06.3.32-.03.1.14.22.03-.1.19.01.25.3.27-.2.34-.05.32-.16.14-.22-.04v.21l-.2.14-.34-.03-.81-.36-.1.2-.3-.19-.98-.48-.16.02-.36.52v.18l.2.4-.03.3-.15.07.1.28.2.18.15-.01-.2.39.1.45h-.02l-.21.08-.16.02-.09.02-.12.05v.02l-.12.01-.03.02-.3.06h-.26l-.61.07-.22-.03h-.27l-.19.02-.2.01-.09-.02-.04-.04-.25-.27-.05-.13-.21-.23-.1-.11-.19-.14-.32-.08-.38-.03-.2-.04-.15-.19-.22-.56.03-.5.11-.6.11-.13.52-.31.08-.33-.03-.05-.03-.2.26-.63-.05-.13-.07-.05-.4-.18-.23-.15-.21-.12h-.38l-.27-.05-.14-.06-.4-.05-.13-.04-.1-.11-.07-.08-.1-.06-.16-.18-.2-.1-.12-.39v-.04l-.1-.12h-.14l-.5.28h-.35l-.09.03-.3.02-.2-.04-.06.02h-.43l-.3-.07-.32-.16-.07-.05-.12.06-.18.2-.42.02-.05.01-.13.06-.3.03-.09-.06-.54-.14h-.11l-.16-.15-.01-.17.25-.34v-.28l-.04-.1-.17-.18-.12-.14-.03-.18.22-.11.07-.04.04-.14-.01-.05-.22-.35-.05-.03-.39-.5-.17-.1-.07-.01-.43.07-.1.04-.49-.1v-.14l.22-.13.09-.07.03-.04-.25-.18-.16-.24.03-.04.35-.02.06-.03.03-.06-.04-.05-.05-.04-.44-.15-.04-.29.49-.36.11-.2-.04-.04-.31-.03-.07.04-.07.07-.08.23-.38.12-.95-.05-.08-.11.03-.1.13-.13.21-.26.03-.05.01-.06-.06-.33-.16-.05-.22.12.05.26-.19.22-.21.1-.17-.09-.04-.21-.02-.16-.06-.28-.16-.1-.27-.12-.27-.25.09-.12.09-.09.88-.25.1-.14v-.61l-.03-.13-.2-.36-.18-.06-.3.06-.54-.09h-.25l-.04.08.2.38-.13.12-.3-.01h-.35l-.18-.01-.01-.03-.2-.2-.08-.07-.09-.05h-.05l-.11.01-.06.14.05.03.2.14.09.67-.14.1-.21-.23-.03-.23v-.08l-.06-.06-.1-.05h-.13l-.08.04-.07.06-.1.22-.5.14-.28.02-.24-.2-.2-.2-.21-.2-.1-.07-.22-.25-.19-.09-.31-.23-.13-.06-.5-.34-.07-.04-.13-.03-.16.02-.18-.13-.24-.08-.5-.02-.25-.03h-.12l-.1-.01-.26.06-.55-.04-.14.05-.2.41-.07.17-.28.18-.33.08-.05.02-.03.04-.05.06v.06l.05.06.16.12-.02.3-.05.03-.1.12-.1.16-.2.3-.11.34v.04l-.01.34-.21.01-.1.02h-.1l-.38-.07-.24-.05-.15-.01-.21-.04-.5-.03h-.34l-.04.01-.04.13.19.15-.08.19-.32-.07-.1.02-.16.1.02.2.08.07.1.06.16.14-.25.14-.3-.15-.39-.06-.28-.05-.25.13-.02.06.42.46.25.12.1.03.29.12.09.18-.26.24-.28-.04-.2-.1-.07-.02-.24-.02-.34.08-.07.1.01.18.03.06.12.14.46.26.29.07.3.22v.1l-.2.07-.14-.15h-.03l-.11-.02-.04.02v.1l.07.04.07.28-.24-.14-.1-.08-.12-.04h-.19l-.02.06v.05l.02.03.07.05.1.03.1-.02.06.18-.18.04-.04.01-.03.04-.02.05.01.07.1.22-.1.32h-.34l-.07.02-.06.02-.09.06-.39.01-.19-.03-.3.01-.2.09-.03.02-.18.1-.11.05-.1-.02-.13.06-.18.07-.12-.06-.2-.1-.16.02-.15-.2-.02-.06-.05.03-.07.03-.03.06-.21.02-.34-.05h-.08l-.12.05-.09.1-.18.05-.1.05-.45.07-.2-.08-.24-.04-.22-.01-.08-.15-.32-.08-.16-.04-.1-.11h-.19l-.2-.14-.05-.06-.16-.29-.06-.15h-.07l-.06.03-.03.02-.03.13-.06.1-.12-.04-.05.02-.09.05-.1-.04-.17-.1-.05-.06-.02-.07-.08-.1-.06-.03-.15-.13.13-.2.42-.2.09.1h.07l.15-.17.09-.15v-.05l-.14-.19-.27-.08h-.05l-.3.32-.08-.01h-.2l-.08-.02.01-.33.04-.2.08-.3-.25.13-.05.28-.23.01-.1.07.04.07-.04.1-.06.1-.02.05.02.05.1.13.07.14.06.36-.1-.05-.19.01.01.34-.1.14v.03l-.13.14-.02.02.09.38h.04l.14.04.16.18-.12.27-.25-.1-.23.03-.09.14-.07.03" fill="#d1dbdd" stroke="rgb(209, 219, 221)" stroke-width="0.1" data-originalStrokeWidth="0.1" style="stroke: rgb(0, 0, 0); fill: rgb(209, 219, 221); pointer-events: auto; stroke-width: 0.1;" pointer-events="auto"/>
      <path id="MD07" d="m1226.14 322.37.02-.2-.14-.29.09-.16-.42-.3.1-.14-.45-.39.1-.2-.1-.13-.22-.65-.2.03.04-.45-.2-.17-.17.03-.14-.22-.87-.21.35-.3.04-.15.37-.11.22-.17.05-.27.46.17.31.31.2.02-.16-.54.77-.2.55.42.18-.22.19.3.04.32.26.24.35-.16-.11-.4.22-.07-.1-.3.13-.07-.12-.49 1.88-.47.33 1.29.2-.04v.14l.23.23.13.25.6.04.95.42.3-.05.07.54.29.43-.01.18.3.05.22.16.3-.05.16-.25.11.25-.36.4-.05.48-.24.18-.08.24-.23-.21.07-.24-.12-.22-.27.04-.09.14.06.3-.39.13-.33.2-.17-.2.03-.2-.1-.37-.19-.12-.18.18-.2-.4-.38.18-.23-.28-.36-.16-.25.08-.26-.18-.3.19.1.21.55.3.21.16-.07.32.46.24.34-.07.08.16-.3.44-.9-.13-.86-.65-.2-.05-.16.48-.2.04-.23-.08-.34.01-.18.15-.18.3h-.18l-.25.36-.2-.23-.57-.12" fill="#d1dbdd" stroke="rgb(209, 219, 221)" stroke-width="0.1" data-originalStrokeWidth="0.1" style="stroke: rgb(0, 0, 0); fill: rgb(209, 219, 221); pointer-events: auto; stroke-width: 0.1;" pointer-events="auto"/>
      <path id="MD08" d="m1213.06 331.17-.11-.46.21-.4-.14.03-.2-.18-.1-.28.14-.07.04-.3-.21-.4-.01-.18.37-.52.17-.02.96.48.3.18.1-.19.82.36.35.03.18-.14.01-.21.22.04.16-.14.05-.32.2-.34-.3-.27-.02-.25.11-.2-.23-.02-.09-.14-.32.03.06-.3-.44-.05-.15-.3.4-.3-.35-.21-.28-.48.24-.4.23-.14.34-.89-.1-.36-.25-.05-.12-.16.02-.31.18-.23.39-.25.2.15v.18l.33.39.64-.07.57.04.56.27.06.2h.41l.42.33.02.14.42.22.22.06.03.36.19.02v.38l.26.07v.22l.14.1.22-.06.37.08.03.36.34.05-.38.37-.36.02.32.53.23.04.42-.04.07.59-.06.08.15.19.43.07-.17.72.46.14v.08l-.57 2.1.18.13.05.29-.18.12-.14.34-1.12-.68-1.37 2.35-.15-.08-.25-.24-.2-.22-.04-.05-.19-.14-.14-.04-.6.08h-.14l-.19.1-.04-.02-.42.04-.06.03-.11.01h-.15l-.27-.2-.1.13-.15-.09-.14-.08-.21-.3-.1-.07-.05-.1.06-.44.01-.03-.04-.3-.39-.12h-.32l-.41-.2-.47-.16-.24.04-.32-.08-.2-.1-.2.01" fill="#d1dbdd" stroke="rgb(209, 219, 221)" stroke-width="0.1" data-originalStrokeWidth="0.1" style="stroke: rgb(0, 0, 0); fill: rgb(209, 219, 221); pointer-events: auto; stroke-width: 0.1;" pointer-events="auto"/>
      <g id="state_lines" stroke="rgb(209, 219, 221)" style="display: none; stroke: rgb(0, 0, 0);" stroke-width="0.1">
        <path id="MD_line" d="m1223.76 315.63 67.23 46.7-67.23-46.72Z" fill="#d1dbdd" stroke="rgb(209, 219, 221)" stroke-width="0.1" style="stroke: rgb(0, 0, 0); display: none;"/>
      </g>
      <g id="state_abbr" fill="#000000" style="display: none; fill: rgb(0, 0, 0);">
        <text id="HI_label" x="491.79" y="769.82" style="font-size: 19.2455px; stroke-width: 1.60379; display: none;">
          <tspan id="HI_tspan" x="491.79" y="769.82" fill="#000000" dy="0" font-family="Arial" font-size="24.06" font-style="normal" font-weight="400" style="text-align: center; stroke-width: 2.57215; fill: rgb(0, 0, 0);" text-anchor="middle">HI</tspan>
        </text>
        <text id="AK_label" x="205.24" y="672.25" style="font-size: 19.2455px; stroke-width: 1.60379; display: none;">
          <tspan id="AK_tspan" x="205.24" y="672.25" fill="#000000" dy="0" font-family="Arial" font-size="24.06" font-style="normal" font-weight="400" style="text-align: center; stroke-width: 2.57215; fill: rgb(0, 0, 0);" text-anchor="middle">AK</tspan>
        </text>
        <text id="FL_label" x="1188.11" y="708.7" style="font-size: 19.2455px; stroke-width: 1.60379; display: none;">
          <tspan id="FL_tspan" x="1188.11" y="708.7" fill="#000000" dy="0" font-family="Arial" font-size="24.06" font-style="normal" font-weight="400" style="text-align: center; stroke-width: 2.57215; fill: rgb(0, 0, 0);" text-anchor="middle">FL</tspan>
        </text>
        <text id="NH_label" x="1306.05" y="167.79" stroke-width="1.1" font-size="13.25" style="display: none;">
          <tspan id="NH_tspan" x="1306.05" y="167.79" fill="#000000" stroke-width="1.1" dy="0" font-family="Arial" font-size="16.56" font-style="normal" font-weight="400" style="text-align: center; fill: rgb(0, 0, 0);" text-anchor="middle">NH</tspan>
        </text>
        <text id="MI_label" x="1019.65" y="246.58" style="font-size: 19.2455px; stroke-width: 1.60379; display: none;">
          <tspan id="MI_tspan" x="1019.65" y="246.58" fill="#000000" dy="0" font-family="Arial" font-size="24.06" font-style="normal" font-weight="400" style="text-align: center; stroke-width: 2.57215; fill: rgb(0, 0, 0);" text-anchor="middle">MI</tspan>
        </text>
        <text id="VT_label" x="1274.28" y="145.01" stroke-width="1.05" font-size="12.65" style="display: none;">
          <tspan id="VT_tspan" x="1274.28" y="145.01" fill="#000000" stroke-width="1.05" dy="0" font-family="Arial" font-size="15.81" font-style="normal" font-weight="400" style="text-align: center; fill: rgb(0, 0, 0);" text-anchor="middle">VT</tspan>
        </text>
        <text id="ME_label" x="1338.99" y="105.14" stroke-width="1.45" font-size="17.36" style="display: none;">
          <tspan id="ME_tspan" x="1338.99" y="105.14" fill="#000000" stroke-width="1.45" dy="0" font-family="Arial" font-size="21.7" font-style="normal" font-weight="400" style="text-align: center; fill: rgb(0, 0, 0);" text-anchor="middle">ME</tspan>
        </text>
        <text id="RI_label" x="1361.38" y="262.84" stroke-width="1.25" font-size="14.98" style="display: none;">
          <tspan id="RI_tspan" x="1361.38" y="262.84" fill="#000000" stroke-width="1.25" dy="0" font-family="Arial" font-size="18.72" font-style="normal" font-weight="400" style="text-align: center; fill: rgb(0, 0, 0);" text-anchor="middle">RI</tspan>
        </text>
        <text id="NY_label" x="1227.27" y="204.12" style="font-size: 19.2455px; stroke-width: 1.60379; display: none;">
          <tspan id="NY_tspan" x="1227.27" y="204.12" fill="#000000" dy="0" font-family="Arial" font-size="24.06" font-style="normal" font-weight="400" style="text-align: center; stroke-width: 2.57215; fill: rgb(0, 0, 0);" text-anchor="middle">NY</tspan>
        </text>
        <text id="PA_label" x="1187.28" y="284.69" style="font-size: 19.2455px; stroke-width: 1.60379; display: none;">
          <tspan id="PA_tspan" x="1187.28" y="284.69" fill="#000000" dy="0" font-family="Arial" font-size="24.06" font-style="normal" font-weight="400" style="text-align: center; stroke-width: 2.57215; fill: rgb(0, 0, 0);" text-anchor="middle">PA</tspan>
        </text>
        <text id="NJ_label" x="1330.57" y="290.09" stroke-width="1.28" font-size="15.4" style="display: none;">
          <tspan id="NJ_tspan" x="1330.57" y="290.09" fill="#000000" stroke-width="1.28" dy="0" font-family="Arial" font-size="19.25" font-style="normal" font-weight="400" style="text-align: center; fill: rgb(0, 0, 0);" text-anchor="middle">NJ</tspan>
        </text>
        <text id="DE_label" x="1320.8" y="328.42" stroke-width="1.36" font-size="16.38" style="display: none;">
          <tspan id="DE_tspan" x="1320.8" y="328.42" fill="#000000" stroke-width="1.36" dy="0" font-family="Arial" font-size="20.47" font-style="normal" font-weight="400" style="text-align: center; fill: rgb(0, 0, 0);" text-anchor="middle">DE</tspan>
        </text>
        <text id="MD_label" x="1310.72" y="368.46" stroke-width="1.34" font-size="16.11" style="display: none;">
          <tspan id="MD_tspan" x="1310.72" y="368.46" fill="#000000" stroke-width="1.34" dy="0" font-family="Arial" font-size="20.13" font-style="normal" font-weight="400" style="text-align: center; fill: rgb(0, 0, 0);" text-anchor="middle">MD</tspan>
        </text>
        <text id="VA_label" x="1198.59" y="392.33" style="font-size: 19.2455px; stroke-width: 1.60379; display: none;">
          <tspan id="VA_tspan" x="1198.59" y="392.33" fill="#000000" dy="0" font-family="Arial" font-size="24.06" font-style="normal" font-weight="400" style="text-align: center; stroke-width: 2.57215; fill: rgb(0, 0, 0);" text-anchor="middle">VA</tspan>
        </text>
        <text id="WV_label" x="1129.66" y="382.3" style="font-size: 19.2455px; stroke-width: 1.60379; display: none;">
          <tspan id="WV_tspan" x="1129.66" y="382.3" fill="#000000" dy="0" font-family="Arial" font-size="24.06" font-style="normal" font-weight="400" style="text-align: center; stroke-width: 2.57215; fill: rgb(0, 0, 0);" text-anchor="middle">WV</tspan>
        </text>
        <text id="OH_label" x="1079.05" y="334.46" style="font-size: 19.2455px; stroke-width: 1.60379; display: none;">
          <tspan id="OH_tspan" x="1079.05" y="334.46" fill="#000000" dy="0" font-family="Arial" font-size="24.06" font-style="normal" font-weight="400" style="text-align: center; stroke-width: 2.57215; fill: rgb(0, 0, 0);" text-anchor="middle">OH</tspan>
        </text>
        <text id="IN_label" x="998.79" y="352.94" style="font-size: 19.2455px; stroke-width: 1.60379; display: none;">
          <tspan id="IN_tspan" x="998.79" y="352.94" fill="#000000" dy="0" font-family="Arial" font-size="24.06" font-style="normal" font-weight="400" style="text-align: center; stroke-width: 2.57215; fill: rgb(0, 0, 0);" text-anchor="middle">IN</tspan>
        </text>
        <text id="IL_label" x="927.43" y="364.36" style="font-size: 19.2455px; stroke-width: 1.60379; display: none;">
          <tspan id="IL_tspan" x="927.43" y="364.36" fill="#000000" dy="0" font-family="Arial" font-size="24.06" font-style="normal" font-weight="400" style="text-align: center; stroke-width: 2.57215; fill: rgb(0, 0, 0);" text-anchor="middle">IL</tspan>
        </text>
        <text id="CT_label" x="1299.17" y="228.46" stroke-width="1.06" font-size="12.74" style="display: none;">
          <tspan id="CT_tspan" x="1299.17" y="228.46" fill="#000000" stroke-width="1.06" dy="0" font-family="Arial" font-size="15.93" font-style="normal" font-weight="400" style="text-align: center; fill: rgb(0, 0, 0);" text-anchor="middle">CT</tspan>
        </text>
        <text id="WI_label" x="898.6" y="224.7" style="font-size: 19.2455px; stroke-width: 1.60379; display: none;">
          <tspan id="WI_tspan" x="898.6" y="224.7" fill="#000000" dy="0" font-family="Arial" font-size="24.06" font-style="normal" font-weight="400" style="text-align: center; stroke-width: 2.57215; fill: rgb(0, 0, 0);" text-anchor="middle">WI</tspan>
        </text>
        <text id="NC_label" x="1205.6" y="458.72" style="font-size: 19.2455px; stroke-width: 1.60379; display: none;">
          <tspan id="NC_tspan" x="1205.6" y="458.72" fill="#000000" dy="0" font-family="Arial" font-size="24.06" font-style="normal" font-weight="400" style="text-align: center; stroke-width: 2.57215; fill: rgb(0, 0, 0);" text-anchor="middle">NC</tspan>
        </text>
        <text id="MA_label" x="1305.87" y="200.67" stroke-width="1.04" font-size="12.46" style="display: none;">
          <tspan id="MA_tspan" x="1305.87" y="200.67" fill="#000000" stroke-width="1.04" dy="0" font-family="Arial" font-size="15.58" font-style="normal" font-weight="400" style="text-align: center; fill: rgb(0, 0, 0);" text-anchor="middle">MA</tspan>
        </text>
        <text id="MO_label" x="854.22" y="422.93" style="font-size: 19.2455px; stroke-width: 1.60379; display: none;">
          <tspan id="MO_tspan" x="854.22" y="422.93" fill="#000000" dy="0" font-family="Arial" font-size="24.06" font-style="normal" font-weight="400" style="text-align: center; stroke-width: 2.57215; fill: rgb(0, 0, 0);" text-anchor="middle">MO</tspan>
        </text>
        <text id="GA_label" x="1106.89" y="574.56" style="font-size: 19.2455px; stroke-width: 1.60379; display: none;">
          <tspan id="GA_tspan" x="1106.89" y="574.56" fill="#000000" dy="0" font-family="Arial" font-size="24.06" font-style="normal" font-weight="400" style="text-align: center; stroke-width: 2.57215; fill: rgb(0, 0, 0);" text-anchor="middle">GA</tspan>
        </text>
        <text id="SC_label" x="1166.32" y="522.49" style="font-size: 19.2455px; stroke-width: 1.60379; display: none;">
          <tspan id="SC_tspan" x="1166.32" y="522.49" fill="#000000" dy="0" font-family="Arial" font-size="24.06" font-style="normal" font-weight="400" style="text-align: center; stroke-width: 2.57215; fill: rgb(0, 0, 0);" text-anchor="middle">SC</tspan>
        </text>
        <text id="KY_label" x="1039.99" y="426.39" style="font-size: 19.2455px; stroke-width: 1.60379; display: none;">
          <tspan id="KY_tspan" x="1039.99" y="426.39" fill="#000000" dy="0" font-family="Arial" font-size="24.06" font-style="normal" font-weight="400" style="text-align: center; stroke-width: 2.57215; fill: rgb(0, 0, 0);" text-anchor="middle">KY</tspan>
        </text>
        <text id="AL_label" x="1019.59" y="578.15" style="font-size: 19.2455px; stroke-width: 1.60379; display: none;">
          <tspan id="AL_tspan" fill="#000000" dy="0" font-family="Arial" font-size="24.06" font-style="normal" font-weight="400" style="text-align: center; stroke-width: 2.57215; fill: rgb(0, 0, 0);" text-anchor="middle">AL</tspan>
        </text>
        <text id="LA_label" x="872.7" y="649.59" style="font-size: 19.2455px; stroke-width: 1.60379; display: none;">
          <tspan id="LA_tspan" x="872.7" y="649.59" fill="#000000" dy="0" font-family="Arial" font-size="24.06" font-style="normal" font-weight="400" style="text-align: center; stroke-width: 2.57215; fill: rgb(0, 0, 0);" text-anchor="middle">LA</tspan>
        </text>
        <text id="MS_label" x="940.37" y="592.21" style="font-size: 19.2455px; stroke-width: 1.60379; display: none;">
          <tspan id="MS_tspan" x="940.37" y="592.21" fill="#000000" dy="0" font-family="Arial" font-size="24.06" font-style="normal" font-weight="400" style="text-align: center; stroke-width: 2.57215; fill: rgb(0, 0, 0);" text-anchor="middle">MS</tspan>
        </text>
        <text id="IA_label" x="823.33" y="308.44" style="font-size: 19.2455px; stroke-width: 1.60379; display: none;">
          <tspan id="IA_tspan" x="823.33" y="308.44" fill="#000000" dy="0" font-family="Arial" font-size="24.06" font-style="normal" font-weight="400" style="text-align: center; stroke-width: 2.57215; fill: rgb(0, 0, 0);" text-anchor="middle">IA</tspan>
        </text>
        <text id="MN_label" x="790.84" y="183.37" style="font-size: 19.2455px; stroke-width: 1.60379; display: none;">
          <tspan id="MN_tspan" x="790.84" y="183.37" fill="#000000" dy="0" font-family="Arial" font-size="24.06" font-style="normal" font-weight="400" style="text-align: center; stroke-width: 2.57215; fill: rgb(0, 0, 0);" text-anchor="middle">MN</tspan>
        </text>
        <text id="OK_label" x="732.05" y="519.54" style="font-size: 19.2455px; stroke-width: 1.60379; display: none;">
          <tspan id="OK_tspan" x="732.05" y="519.54" fill="#000000" dy="0" font-family="Arial" font-size="24.06" font-style="normal" font-weight="400" style="text-align: center; stroke-width: 2.57215; fill: rgb(0, 0, 0);" text-anchor="middle">OK</tspan>
        </text>
        <text id="TX_label" x="710.59" y="652.87" style="font-size: 19.2455px; stroke-width: 1.60379; display: none;">
          <tspan id="TX_tspan" x="710.59" y="652.87" fill="#000000" dy="0" font-family="Arial" font-size="24.06" font-style="normal" font-weight="400" style="text-align: center; stroke-width: 2.57215; fill: rgb(0, 0, 0);" text-anchor="middle">TX</tspan>
        </text>
        <text id="NM_label" x="506.94" y="542.36" style="font-size: 19.2455px; stroke-width: 1.60379; display: none;">
          <tspan id="NM_tspan" x="506.94" y="542.36" fill="#000000" dy="0" font-family="Arial" font-size="24.06" font-style="normal" font-weight="400" style="text-align: center; stroke-width: 2.57215; fill: rgb(0, 0, 0);" text-anchor="middle">NM</tspan>
        </text>
        <text id="KS_label" x="701.21" y="427.26" style="font-size: 19.2455px; stroke-width: 1.60379; display: none;">
          <tspan id="KS_tspan" x="701.21" y="427.26" fill="#000000" dy="0" font-family="Arial" font-size="24.06" font-style="normal" font-weight="400" style="text-align: center; stroke-width: 2.57215; fill: rgb(0, 0, 0);" text-anchor="middle">KS</tspan>
        </text>
        <text id="NE_label" x="686.63" y="337.29" style="font-size: 19.2455px; stroke-width: 1.60379; display: none;">
          <tspan id="NE_tspan" x="686.63" y="337.29" fill="#000000" dy="0" font-family="Arial" font-size="24.06" font-style="normal" font-weight="400" style="text-align: center; stroke-width: 2.57215; fill: rgb(0, 0, 0);" text-anchor="middle">NE</tspan>
        </text>
        <text id="SD_label" x="663.02" y="238.75" style="font-size: 19.2455px; stroke-width: 1.60379; display: none;">
          <tspan id="SD_tspan" x="663.02" y="238.75" fill="#000000" dy="0" font-family="Arial" font-size="24.06" font-style="normal" font-weight="400" style="text-align: center; stroke-width: 2.57215; fill: rgb(0, 0, 0);" text-anchor="middle">SD</tspan>
        </text>
        <text id="ND_label" x="663.02" y="150.75" style="font-size: 19.2455px; stroke-width: 1.60379; display: none;">
          <tspan id="ND_tspan" x="663.02" y="150.75" fill="#000000" dy="0" font-family="Arial" font-size="24.06" font-style="normal" font-weight="400" style="text-align: center; stroke-width: 2.57215; fill: rgb(0, 0, 0);" text-anchor="middle">ND</tspan>
        </text>
        <text id="WY_label" x="499.57" y="276.47" style="font-size: 19.2455px; stroke-width: 1.60379; display: none;">
          <tspan id="WY_tspan" x="499.57" y="276.47" fill="#000000" dy="0" font-family="Arial" font-size="24.06" font-style="normal" font-weight="400" style="text-align: center; stroke-width: 2.57215; fill: rgb(0, 0, 0);" text-anchor="middle">WY</tspan>
        </text>
        <text id="MT_label" x="487.84" y="155.58" style="font-size: 19.2455px; stroke-width: 1.60379; display: none;">
          <tspan id="MT_tspan" x="487.84" y="155.58" fill="#000000" dy="0" font-family="Arial" font-size="24.06" font-style="normal" font-weight="400" style="text-align: center; stroke-width: 2.57215; fill: rgb(0, 0, 0);" text-anchor="middle">MT</tspan>
        </text>
        <text id="CO_label" x="525.13" y="406.28" style="font-size: 19.2455px; stroke-width: 1.60379; display: none;">
          <tspan id="CO_tspan" x="525.13" y="406.28" fill="#000000" dy="0" font-family="Arial" font-size="24.06" font-style="normal" font-weight="400" style="text-align: center; stroke-width: 2.57215; fill: rgb(0, 0, 0);" text-anchor="middle">CO</tspan>
        </text>
        <text id="ID_label" x="339.94" y="235.07" style="font-size: 19.2455px; stroke-width: 1.60379; display: none;">
          <tspan id="ID_tspan" x="339.94" y="235.07" fill="#000000" dy="0" font-family="Arial" font-size="24.06" font-style="normal" font-weight="400" style="text-align: center; stroke-width: 2.57215; fill: rgb(0, 0, 0);" text-anchor="middle">ID</tspan>
        </text>
        <text id="UT_label" x="396.81" y="386.73" style="font-size: 19.2455px; stroke-width: 1.60379; display: none;">
          <tspan id="UT_tspan" x="396.81" y="386.73" fill="#000000" dy="0" font-family="Arial" font-size="24.06" font-style="normal" font-weight="400" style="text-align: center; stroke-width: 2.57215; fill: rgb(0, 0, 0);" text-anchor="middle">UT</tspan>
        </text>
        <text id="AZ_label" x="366.76" y="536.9" style="font-size: 19.2455px; stroke-width: 1.60379; display: none;">
          <tspan id="AZ_tspan" x="366.76" y="536.9" fill="#000000" dy="0" font-family="Arial" font-size="24.06" font-style="normal" font-weight="400" style="text-align: center; stroke-width: 2.57215; fill: rgb(0, 0, 0);" text-anchor="middle">AZ</tspan>
        </text>
        <text id="NV_label" x="262.47" y="370.64" style="font-size: 19.2455px; stroke-width: 1.60379; display: none;">
          <tspan id="NV_tspan" x="262.47" y="370.64" fill="#000000" dy="0" font-family="Arial" font-size="24.06" font-style="normal" font-weight="400" style="text-align: center; stroke-width: 2.57215; fill: rgb(0, 0, 0);" text-anchor="middle">NV</tspan>
        </text>
        <text id="OR_label" x="214.43" y="206.88" style="font-size: 19.2455px; stroke-width: 1.60379; display: none;">
          <tspan id="OR_tspan" x="214.43" y="206.88" fill="#000000" dy="0" font-family="Arial" font-size="24.06" font-style="normal" font-weight="400" style="text-align: center; stroke-width: 2.57215; fill: rgb(0, 0, 0);" text-anchor="middle">OR</tspan>
        </text>
        <text id="WA_label" x="238.05" y="102.99" style="font-size: 19.2455px; stroke-width: 1.60379; display: none;">
          <tspan id="WA_tspan" x="238.05" y="102.99" fill="#000000" dy="0" font-family="Arial" font-size="24.06" font-style="normal" font-weight="400" style="text-align: center; stroke-width: 2.57215; fill: rgb(0, 0, 0);" text-anchor="middle">WA</tspan>
        </text>
        <text id="CA_label" x="191.69" y="434.8" style="font-size: 19.2455px; stroke-width: 1.60379; display: none;">
          <tspan id="CA_tspan" x="191.69" y="434.8" fill="#000000" dy="0" font-family="Arial" font-size="24.06" font-style="normal" font-weight="400" style="text-align: center; stroke-width: 2.57215; fill: rgb(0, 0, 0);" text-anchor="middle">CA</tspan>
        </text>
        <text id="DC_label" x="1309.32" y="398.19" stroke-width="1.29" font-size="15.45" style="display: none;">
          <tspan id="DC_tspan" x="1309.32" y="398.19" fill="#000000" stroke-width="1.29" dy="0" font-family="Arial" font-size="19.31" font-style="normal" font-weight="400" style="text-align: center; fill: rgb(0, 0, 0);" text-anchor="middle">DC</tspan>
        </text>
        <text id="TN_label" x="1018.93" y="485.72" style="font-size: 19.2455px; stroke-width: 1.60379; display: none;">
          <tspan id="TN_tspan" x="1018.93" y="485.72" fill="#000000" dy="0" font-family="Arial" font-size="24.06" font-style="normal" font-weight="400" style="text-align: center; stroke-width: 2.57215; fill: rgb(0, 0, 0);" text-anchor="middle">TN</tspan>
        </text>
        <text id="AR_label" x="863.15" y="535.77" style="font-size: 19.2455px; stroke-width: 1.60379; display: none;">
          <tspan id="AR_tspan" x="863.15" y="535.77" fill="#000000" dy="0" font-family="Arial" font-size="24.06" font-style="normal" font-weight="400" style="text-align: center; stroke-width: 2.57215; fill: rgb(0, 0, 0);" text-anchor="middle">AR</tspan>
        </text>
      </g>
      <g id="state_borders" transform="translate(-0.04777967,-0.15336683)" stroke="rgb(209, 219, 221)" style="stroke: rgb(0, 0, 0);" stroke-width="0.3"/>
      <rect id="selection-rectangle" fill="#ffffccaa" stroke="rgb(209, 219, 221)" stroke-width="0.1"/>
      <ellipse id="selection-ellipse" fill="#ffffccaa" stroke="rgb(209, 219, 221)" stroke-width="0.1"/>
      <polygon id="selection-polygon" fill="#ffffccaa" stroke="rgb(209, 219, 221)" stroke-width="0.1"/>
      <polyline id="selection-polyline" fill="#ffffccaa" stroke="rgb(209, 219, 221)" stroke-width="0.1"/>
    </svg>
  </g>
</svg>
