<?xml version='1.0' encoding='UTF-8'?>
<svg xmlns="http://www.w3.org/2000/svg" xmlns:dc="http://purl.org/dc/elements/1.1/" xmlns:ns2="http://creativecommons.org/ns#" xmlns:rdf="http://www.w3.org/1999/02/22-rdf-syntax-ns#" id="wrapper" viewBox="0 0 1520 840" preserveAspectRatio="xMinYMin" height="840" width="1520" style="background-color: rgb(255, 255, 255);">
  <metadata>
    <rdf:rdf>
      <ns2:work rdf:about="">
        <dc:format>image/svg+xml</dc:format>
        <dc:type rdf:resource="http://purl.org/dc/dcmitype/StillImage"/>
        <dc:title>MapChart Map</dc:title>
        <dc:creator>
          <ns2:agent>
            <dc:title>MapChart.net</dc:title>
          </ns2:agent>
        </dc:creator>
        <ns2:license rdf:resource="http://creativecommons.org/licenses/by-sa/4.0/"/>
        <dc:description>This map was created with MapChart.net, a website for creating custom maps.</dc:description>
      </ns2:work>
      <ns2:license rdf:about="http://creativecommons.org/licenses/by-sa/4.0/">
        <ns2:permits rdf:resource="http://creativecommons.org/ns#Reproduction"/>
        <ns2:permits rdf:resource="http://creativecommons.org/ns#Distribution"/>
        <ns2:requires rdf:resource="http://creativecommons.org/ns#Notice"/>
        <ns2:requires rdf:resource="http://creativecommons.org/ns#Attribution"/>
        <ns2:requires rdf:resource="http://creativecommons.org/ns#ShareAlike"/>
      </ns2:license>
    </rdf:rdf>
  </metadata>
  <g id="map-group" transform="translate(-9790.52490234375,-1155.1604614257812) scale(8)">
    <svg id="map" width="1520" height="840" version="1.1" viewBox="0 0 1520 840" preserveAspectRatio="xMinYMin" data-originalStrokeWidth="0.3">
      <defs>
        <pattern id="circles3" width="10" height="10" patternUnits="userSpaceOnUse">    <rect width="10" height="10" fill="#fff"/>    <circle cx="4" cy="4" r="2" fill="#000"/>    </pattern>
        <pattern id="diagonal1" width="10" height="10" patternUnits="userSpaceOnUse">    <rect width="10" height="10" fill="#fff"/>    </pattern>
        <pattern id="diagonal3" width="10" height="10" patternUnits="userSpaceOnUse">    <rect width="10" height="10" fill="#fff"/>    </pattern>
        <pattern id="vertical1" width="10" height="10" patternUnits="userSpaceOnUse">    <rect width="10" height="10" fill="#fff"/>    <rect x="2" y="0" width="1" height="10" fill="#000"/>    </pattern>
        <pattern id="vertical3" width="10" height="10" patternUnits="userSpaceOnUse">    <rect width="10" height="10" fill="#fff"/>    <rect x="2" y="0" width="3" height="10" fill="#000"/>    </pattern>
        <pattern id="horizontal1" width="10" height="10" patternUnits="userSpaceOnUse">    <rect width="10" height="10" fill="#fff"/>    <rect x="0" y="2" width="10" height="1" fill="#000"/>    </pattern>
        <pattern id="horizontal3" width="10" height="10" patternUnits="userSpaceOnUse">    <rect width="10" height="10" fill="#fff"/>    <rect x="0" y="2" width="10" height="3" fill="#000"/>    </pattern>
        <pattern id="crosshatch" width="8" height="8" patternUnits="userSpaceOnUse">    <rect width="8" height="8" fill="#fff"/>    </pattern>
        <pattern id="subtlepatch" width="5" height="5" patternUnits="userSpaceOnUse">    <rect width="5" height="5" fill="#fff"/>    <rect x="2" y="2" width="1" height="1" fill="#000"/>    </pattern>
        <pattern id="checkers" width="8" height="8" patternUnits="userSpaceOnUse">    <rect width="8" height="8" fill="#fff"/>    </pattern>
        <pattern id="raindrops" width="10" height="10" patternUnits="userSpaceOnUse">    <rect width="10" height="10" fill="#fff"/>    </pattern>
        <pattern id="texture" width="4" height="4" patternUnits="userSpaceOnUse">    <rect width="4" height="4" fill="#fff"/>    </pattern>
        <pattern id="circles3_a03500_000000" width="10" height="10" patternUnits="userSpaceOnUse">    <rect width="10" height="10" fill="#a03500"/>    <circle cx="4" cy="4" r="2" fill="#000000"/>    </pattern>
        <pattern id="diagonal1_d9b400_535353" width="10" height="10" patternUnits="userSpaceOnUse">    <rect width="10" height="10" fill="#d9b400"/>    </pattern>
        <pattern id="diagonal3_3264c8_ffffff" width="10" height="10" patternUnits="userSpaceOnUse">    <rect width="10" height="10" fill="#3264c8"/>    </pattern>
        <pattern id="horizontal1_72b38e_000000" width="10" height="10" patternUnits="userSpaceOnUse">    <rect width="10" height="10" fill="#72b38e"/>    <rect x="0" y="2" width="10" height="1" fill="#000000"/>    </pattern>
        <pattern id="horizontal3_986ba1_ffffff" width="10" height="10" patternUnits="userSpaceOnUse">    <rect width="10" height="10" fill="#986ba1"/>    <rect x="0" y="2" width="10" height="3" fill="#ffffff"/>    </pattern>
        <pattern id="vertical1_b9a087_ffffff" width="10" height="10" patternUnits="userSpaceOnUse">    <rect width="10" height="10" fill="#b9a087"/>    <rect x="2" y="0" width="1" height="10" fill="#ffffff"/>    </pattern>
        <pattern id="vertical3_4c91bf_ffff33" width="10" height="10" patternUnits="userSpaceOnUse">    <rect width="10" height="10" fill="#4c91bf"/>    <rect x="2" y="0" width="3" height="10" fill="#ffff33"/>    </pattern>
        <pattern id="checkers_cc3333_f7f7f7" width="8" height="8" patternUnits="userSpaceOnUse">    <rect width="8" height="8" fill="#cc3333"/>    </pattern>
        <pattern id="texture_d1dbdd_525252" width="4" height="4" patternUnits="userSpaceOnUse">    <rect width="4" height="4" fill="#d1dbdd"/>    </pattern>
        <style id="map-style">svg { background-color: #ffffff; }</style>
      </defs>
      <path id="MA01" d="m1313.18 205.29-.71.22-.23.05-.34.1-.41.12-.38.1-.14.04h-.05l-.18.06-.08.03h-.02l-.27.08-.87.23-.54.18-.82.24-1.63.42h-.04l-.11.03-1.09.34-.31.07-.3.1-.33.1-1.12.34-.32.08-.34.1-.4.12-.33.1-.27.07-.53.15-.05.02-.6.18-.52.14-.4.1-.44.14-.28.1-.57.15-.16.05-.15.05-.88.41-.13.2-.07.04-.13.04-.33.08-.06.02-.14-.14-.13.02-.46.12-.6.12-.23.02-.58.13-.27.08-.1.04-.1.03-.7.23-.1.03.12.13v.33l-.16.09h.05l.04.04.05.03.03.04-.05.03-.02.06v.02l.07.07-.02.05-.08.04.04.14-.6.28-.28.15-.2.1-.27-1.22-.25.06-.52.14-.31.1-.46.12-.92.28-.94.27-.3.09-1.27.34-.32.09-.11.03h-.02l-1.08.27-.37.1-.23.06-.53.12-1.58.41-.16.06-.53.12-.05.03-.71.16-.1.04-.26.06-.1.03-.39.1h-.05l-.17.06-.21.04-1.35.35-.47.12-.29.08-1.06.34-.23.07-.57-1.02-.04-1.67-.02-1.14-.02-.6-.03-1.43-.03-1-.05-2.18-.01-.19v-.92l-.03-.48v-.37l-.05-1.89v-.08l-.02-1.07-.03-.93-.02-.8v-.12l-.07-2.82v-.41l-.1-3.55.44-.12.67-.18h.05l.57-.16.99-.27 1.62-.44.17-.04 1.15-.32.09-.02.97-.26.32-.08.41-.12h.03l.07-.02.62-.17.33-.1.4-.1.73 1.59-.12.03.52 1.05.19-.05.07.26.18.04.3-.15.88-.98.43.84.63-.32v.19l-.13.06-.04.29-.78.14-.4.27-.48.07-.15.12.15 1.87-.6.28.32.9.11-.01.06.58.3.68.38-.02.57 1.3-1.21.57 1.25 2.6.89-.42.4-.04.16.08.9 2.44 1.65-.84-.2-.51 1.37-.68.3.01.22-.17.48.07.3-.24.14.1.15-.13.2-.46.37-.26.53-.2.56-.06.28-.22.33.05.26-.25.33-.13-.56-1.27 1.3-.64.3.63.52-.28.56-.18.15.14.08.32v.47l.1.2.2-.41.28-.3-.08-.14.1-.5.49-.57.14-.04.68 1.45 1.32-.73.1.54.09-.41-.1-.13.32-.04.16.1.13-.43.02-.32.12-.27.03-.37.35-.13.04-.48.18-.24 2.34 1.1 1.6-.57 1.78 3.5.95-.42.63.55.49.16.51-.15.14-.23.07.18-.17.14.23-.01-.04.4.18.42.22-.2.78.88-.23.2-.1-.1-1.32 1.2.13.22.09.39.5.16.24.32.33.23" fill="#d1dbdd" stroke="rgb(209, 219, 221)" stroke-width="0.1" data-originalStrokeWidth="0.1" style="stroke: rgb(0, 0, 0); fill: rgb(209, 219, 221); pointer-events: auto; stroke-width: 0.1;" pointer-events="auto"/>
      <path id="MA02" d="m1290.13 188.98.4-.1.06-.01.91-.23.81-.22.76-.2.06-.02.22-.05.14-.04.24-.06 1.25-.33 1.17-.31 1.28-.33.32-.1.3-.09.54-.14.18-.04.56-.16.13-.04.57-.15.46-.12.3-.1.73 2.8.92-.24 1.16.66-.1.1.1.37.18-.05.12.14.41.1-.22.2 1.33.62.86.42-.12-.38.4-.28.12.14.07-.23.2.15.13-.46.2.1.24.36.42.15.32-.42.37.04-.22-1.06.38-.05.3-.13.11-.2.3-.06.25-.34.36.27h.25l-.01-.15-.22-.25-.23-.07.3-.43.74.49.36.45.21-.03-.16.55.14 1.42.23-.02.6 1.9-.05.05.1.6.49-.33.76.06.04.7 1.02-.1.5.37.36.08.05.2.63.44.26-.4.34-.3.73-.36.2.01.45-.22.2.56-.04.74.9.07 1.13.35.16.59.2.07.2.45.47.25.37.06-.01.3-.4.27.14.27 1 1.12-.2.08-.43-.02-.09.23-.19-.1-.33.08-.08.2h-.16l-.76.39-.3-1.05-.45.11-.35-.72-.09.1-.71.21-.28.35.1.13-.2.02.06.4.14.2-.17.27.15.38-.33.68 1.06 3.25-.05.02-.31.11-.15.07-.49.17-.18.05-.36.13-.37.12-.09.04-.44.16-.24.08-.25.1-.34.1-.56.2-.72.28-.05-.13-.03-.1-.14-.2-.66.18-.02.02-.1.02-.1.04-.08.02-.33-.23-.24-.33-.5-.15-.1-.39-.12-.22 1.33-1.2.1.1.22-.2-.78-.87-.22.19-.18-.42.04-.4h-.23l.18-.14-.08-.17-.14.23-.51.15-.49-.16-.63-.55-.95.41-1.78-3.49-1.6.58-2.34-1.1-.18.23-.04.48-.35.13-.03.37-.12.27-.02.32-.13.43-.16-.09-.33.03.1.13-.09.41-.1-.54-1.3.74-.69-1.46-.14.04-.49.57-.1.5.07.15-.27.29-.21.42-.09-.2v-.48l-.08-.32-.16-.14-.56.18-.5.28-.3-.64-1.31.64.56 1.28-.33.13-.26.25-.32-.05-.29.22-.57.07-.52.19-.37.26-.2.46-.15.13-.15-.1-.29.25-.48-.07-.24.16-.28-.01-1.36.68.19.51-1.66.83-.89-2.44-.16-.07-.4.04-.89.43-1.24-2.61 1.2-.58-.57-1.29-.38.02-.3-.68-.06-.57h-.11l-.31-.9.6-.28-.16-1.87.15-.12.47-.07.41-.27.78-.13.04-.3.14-.06-.01-.2-.64.32-.43-.83-.86.98-.3.15-.2-.04-.05-.26-.2.05-.52-1.05.12-.04-.72-1.59.58-.15.64-.17.66-.18 1.26-.32.04-.02.63-.17.22-.06.9-.22.65-.19.52-.14" fill="#d1dbdd" stroke="rgb(209, 219, 221)" stroke-width="0.1" data-originalStrokeWidth="0.1" style="stroke: rgb(0, 0, 0); fill: rgb(209, 219, 221); pointer-events: auto; stroke-width: 0.1;" pointer-events="auto"/>
      <path id="MA03" d="m1321.23 188.02-.23.23.03.29h-.21l-.31.67-.29.45-.01.25-.2.03.05.23-2.5-.43-.2.49.52.98.18 1.6.14.7-.45.22h-.2l-.73.35-.34.32-.27.4-.62-.45-.05-.2-.36-.08-.5-.38-1.03.1-.03-.67-.77-.06-.49.33-.1-.6.07-.06-.6-1.9-.24.02-.14-1.42.16-.55-.2.03-.38-.45-.73-.49-.3.43.23.07.22.25v.15h-.24l-.36-.28-.25.35-.3.05-.11.2-.3.14-.38.05.22 1.06-.37-.04-.32.42-.42-.14-.25-.39-.19-.08-.14.46-.19-.15-.07.23-.12-.14-.4.28.12.38-.86-.42-1.33-.61.22-.21-.41-.1-.12-.14-.17.05-.12-.37.11-.1-1.17-.67-.9.24-.73-2.79.65-.17.47-.12.24-.07.76-.2.46-.12.1-.02.4-.1.38-.12.75-.2.77-.23 1.4-.37 1.17-.33.45-.12.54-.14.13-.04.47-.12.6-.18.16-.04.47-.14.53-.16.14-.02.26-.08.1-.04 1.21-.34h.02l.85-.24.34-.11h.01l.46-.12.33-.1.7-.19.72-.2.81-.24.15-.04.52-.14.58-.19.07-.19.15-.34.03-.16.06-.37.15-.32.09-.2.25-.27.28-.15.17.01.46-.02.1.02.28-.02-.15-.4-.17-.44-.28-.75.01-.05.23-.62.23-.26.11-.1.28-.26h.4l.2-.01h1.04l-.03-.9 1.41.3v.3l-.24.45.05.35-.2 1.06-.15.61-.28.08-.27-.05-.56.23-.21-.12-.22.72.1.27-.07.34.04.28.13.01.04.26.18.19-.42-.01-.68.4-.28-.6-.56.03-.12.05-.07.27.04.49-.12.55-.28.28-.39.15.2.33.09.76-.08.2-.26.18 1.87.48-.28.3-.2.42.1.08-.2.3-.1-.03.07.32-.15.04.14.19.3-.1.03.21.24.15-.6.1-.47.38-.18.56.19.75.2.15.06-.1.28.02.25.14" fill="#d1dbdd" stroke="rgb(209, 219, 221)" stroke-width="0.1" data-originalStrokeWidth="0.1" style="stroke: rgb(0, 0, 0); fill: rgb(209, 219, 221); pointer-events: auto; stroke-width: 0.1;" pointer-events="auto"/>
      <path id="MA04" d="m1330.03 210.46-.45-.4-.53-.43-.3-.25-.26-.05-.33-.07-.07-.02-.75-.17-.4-.13-.01.04-.05-.19-.1-.05-.07-.11-.11-.02-.05-.02-.06-.2-.03-.15-.31-.4v-.14l.04-.06.1-.25-.24-.22.01-.34v-.27l-.17-.25-.02-.04-.21-.5v-.13l-.05-.13-.15.08-.05.03-.1.04-.06.03-.01.02-.07.02-.24.13-.05.02-.16.09h-.01l-.03-.1-.03-.1-.03-.11-.07-.2-.02-.06-.02-.08v-.02l-.04-.13-.02-.03v-.02l-.02-.03-.06-.22-.17-.54-.08-.21-.08-.25-.08-.26v-.03l-.1-.31-.17-.52-.1-.3-.08-.27-.2.07-.14.05-.38.12-.04.02-.14.05-.42.14-.2.07-.16.06-.56.18-.04.01-.09.04h-.06l-.06.04h-.03l-.07.04-.06.02-.11.06-.16.05-.04.02-.05.02-.03.02h-.01l-.02.02-.13.05h-.03l-.13.06-.07.02-.1.03h-.03l-.2.08-.66.23-.07.05h-.02l-.09.01-1.06-3.24.33-.7-.15-.37.17-.27-.14-.19-.07-.41.21-.02-.1-.13.27-.35.72-.2.1-.1.34.71.44-.12.31 1.06.76-.4h.16l.08-.19.34-.08.18.09.09-.22.43.02.2-.08-1-1.12-.14-.28.4-.25v-.3l-.36-.08-.47-.24-.2-.45-.2-.07-.16-.59.43-.27.07-.36h.82l.2.21.24.09.9-.2-.43-.8.25-.4v-.25l.3-.05-.1-.19.33-.15-.4-.15.05-.2.58-.26-.2-.28-.42.08.18-.47-.15-.01-.07-.36.82-.7h.24l.23-.2.05.2.62-.16-.04.36.27.24.05.22.26.01.32-.62.22-.27.38-.06.04.86-.07.05-.08.04-.15.73-.2.3-.38-.17-.22.37-.16.44.1.06-.08.4-.47.15v.17l-.21.06.12 2-.29.07-.1.14.05.61.33.99-.66.18.12.04.2.66.81.97.08-.36.35-.34.3-.14-.14-.44.14-.12-.09-.15.08-.25.72-.8-.11-.23.18-.23.15.3.4.2v.14l.36-.02.1.3.26.16.3.38.1.19-.03.52.13.36-.56.57.85 1.72 1.28-.15.76-.06.07.18.22.01.13.44-.12.09-.02.53-.18.24.17.06.05-.37.41.06.2.24.1-.1.3.03-.02.2.23.06.2-.13.34.48.11-.13v-.3l.24.03.07.29.17-.1.24.11.2-.05.14.12 1.05.18.33.25.04.6.8.5.01.47.25.6-.53.27.58.74-.36.27.12.09-2.53 3.13-.94.05-.18.08.13 1.8.19 1.06-.06-.03-.1-.26-.03-.09.02-.39-.17-.64-.06-.25-.02-.07v-.02l-.7.04-.35.03-.15-.09-.35.02-.43-.38-.48-.4" fill="#d1dbdd" stroke="rgb(209, 219, 221)" stroke-width="0.1" data-originalStrokeWidth="0.1" style="stroke: rgb(0, 0, 0); fill: rgb(209, 219, 221); pointer-events: auto; stroke-width: 0.1;" pointer-events="auto"/>
      <path id="MA05" d="m1328.7 186.36.06.1-.27.4-.12.52.01.3.39.42.32-.04-.09.17.08.23.24.28.1.26-.1.1-.14-.07-.08-.33-.46.32-.28.08-.02-.36.18-.15.01-.2.14-.16-.08-.12-.34-.02-.28.06.07-.15-.42-.02-.24-.2.02-.35-.49.22-.17.3-.25.1.12.21v.38l-.25-.09-.23.1-.05.16-.33-.06-.56-.35.05.4.24.17-.27.16-.32-.1-.04.19.38-.01-.03.12.3.03.15-.33.12.13.5.33v.29l-.21-.05-.04.15-.34-.2-.06.19-.26.33-.43.16-.63.17-.04-.2-.23.19h-.24l-.82.7.07.36.15.01-.17.47.4-.07.2.28-.57.25-.06.2.41.15-.32.14.07.2-.28.05v.26l-.25.4.42.78-.89.2-.25-.08-.2-.2-.81-.01-.07.36-.43.27-1.13-.35-.9-.07.05-.73-.21-.57-.13-.72-.18-1.6-.52-.97.18-.49 2.5.43-.02-.23.18-.03.01-.25.29-.45.3-.68.22.01-.03-.29.23-.23.24.15.2-.07.09-.57-.11-.3.06-.24.38-.02.85.5.17-.04.23-.52.36-.36-.3-.85.62-.69.62.8.41-.2.25-.05.17.24.27.05.07.45h.21l.32-.23.9.75.12-.23.22.2.1.22h.37l.07-.16.23.06.16-.5.2-.05" fill="#d1dbdd" stroke="rgb(209, 219, 221)" stroke-width="0.1" data-originalStrokeWidth="0.1" style="stroke: rgb(0, 0, 0); fill: rgb(209, 219, 221); pointer-events: auto; stroke-width: 0.1;" pointer-events="auto"/>
      <path id="MA06" d="m1328.7 186.36-.18.04-.17.5-.23-.05-.07.16h-.39l-.08-.23-.22-.18-.11.22-.9-.75-.33.23h-.21l-.07-.45-.27-.05-.17-.24-.25.04-.4.21-.64-.8-.62.7.31.85-.36.35-.23.52-.17.04-.85-.5-.38.02-.05.24.1.3-.1.58-.19.06-.24-.15-.25-.14-.28-.01-.06.09-.2-.14-.2-.76.19-.56.48-.38.6-.1-.25-.14-.02-.21-.31.09-.15-.19.16-.04-.08-.32.1.02.22-.3-.1-.07.2-.42.27-.3-1.87-.48.26-.17.07-.2-.08-.77-.2-.33.4-.15.28-.28.11-.55-.04-.49.07-.27.12-.05.57-.02.27.59.68-.4h.42l-.18-.17-.04-.27-.13-.01-.04-.29.07-.32-.1-.29.22-.71.2.12.56-.22.27.05.3-.09.15-.61.19-1.06-.05-.35.25-.45v-.3l-1.42-.3.04-.38.02-.15.19-.4.3-.2.4-.22.2-.1.41-.24.32-.34.2-.25.14-.15.55-.25.39-.02.1.03.38.15.04.01.12.05.42.16.22-.2.12-.16.11-.1.13-.09.2.64.39.8.15.22.39.98.62.94.8.95.1.16-.08.18.08.28.32.09h.48l.51.33.57.07.34-.04.38-.84.3-.49.3-.2.2.11.16.29.11.5.39-.08.21-.1.04.27.16.06.09.42-.27.08-.21.3v.17l-.19.28.08.52-.24.68-.18.11-.08-.09.06-.5-.3-.27-.22.14-.06.4.1.05-.22.6-.22.26-.42.16-.2-.12-.38.35-.07.29-.27.18-.42-.04-.19.16-.3.44-.32.12-.45.36-.2-.06-.18.51.1.06.2-.2.13.27-.22.17-.08.3.04.22.3.02.09-.49.12-.14.3.06.15.22-.12.34.05.22.1-.07.2-.45.07.05.02.43-.1.12-.17-.08-.2.1-.38.53-.02.46-.13.17-.36-.08-.28.1-.22.37.12.55.22-.01-.06.2.5.02.3.14-.14.17-.27-.15-.12.26-.19.02-.12-.36-.16-.18-.16-.46-.12-.14-.26.47.06.06" fill="#d1dbdd" stroke="rgb(209, 219, 221)" stroke-width="0.1" data-originalStrokeWidth="0.1" style="stroke: rgb(0, 0, 0); fill: rgb(209, 219, 221); pointer-events: auto; stroke-width: 0.1;" pointer-events="auto"/>
      <path id="MA07" d="m1328.64 189.03.3.06.04.05-.06.14-.3.08v.39l-.06.02-.48-.2-.02.06-.41-.04v-.22l-.2-.18-.44.2-.06.33-.19.23.14.18.32-.25.39-.18-.12.32.02.89.21.16h.22l.07.43.1.24-.17.14.06.43-.17.3v.22l-.24.13.17.53.53.42-.3.35.33.2.7-.31.19.36.41-.04.26.07.13.56.04 1.1h-.13l-2.37-1.76-.52-.36-.34-.14-.27-.58-.28-.07-.11-.25.18.03.35-.84.1-.2.11-.88h-.4l.06-.05-.04-.86-.38.06-.22.27-.32.62-.26-.01-.05-.22-.27-.24.04-.36.43-.16.26-.33.06-.19.34.2.04-.15.22.06-.02-.3-.49-.33-.12-.13-.16.33-.28-.03.02-.12h-.38l.04-.18.32.1.28-.16-.25-.18-.05-.38.56.35.33.05.05-.15.23-.1.25.08v-.38l-.12-.22.26-.09.16-.3.49-.22-.02.36.24.2.42.01-.06.15.27-.06.34.02.08.12-.14.16v.19l-.19.16.02.36.28-.08" fill="#d1dbdd" stroke="rgb(209, 219, 221)" stroke-width="0.1" data-originalStrokeWidth="0.1" style="stroke: rgb(0, 0, 0); fill: rgb(209, 219, 221); pointer-events: auto; stroke-width: 0.1;" pointer-events="auto"/>
      <path id="MA08" d="m1329.34 189.1.08-.1.21.01.2.32-.5-.23m-.7.65-.05.43-.37.19-.18.26.3.08-.04.48.39-.07.13.06.04-.16-.16-.3.17-.32.12.03-.08.32.12.2.16-.04.17-.23.1.1-.31.27.05.11-.3.38.2.17.5.12.16.12.42-.03.09-.2.2-.16-.03-.33.18.22.05.6.1.14.27-.38.18-.1-.08-.33.19-.16.3.25.33-.11.04.23.3.19.09-.39-.51-.47-.36-.04.04-.1.43.06.14-.07-.4-.5-.4-.03-.13.14-.35-.1.34-.2.28-.01.24-.24.13.28.38.39.6.38.61-.11-.4.3.03.42.23.08-.24.2.55.7.4.27-.77.87-.4.54-.85.9.54.98.94.71-.2.13.85 1.68.1.04.2.83-.3.08-.26-.24-.13-.03-.62.3-.6.03.04.1-.44.44-.99.84-.4-.03-.77.06-1.26.15-.86-1.72.56-.57-.13-.36.02-.53-.07-.18-.32-.38-.25-.16-.11-.3-.36.02v-.13l-.4-.21-.15-.3-.18.23.1.22-.7.81-.08.25.08.15-.14.12.14.44-.3.14-.35.34-.08.36-.8-.98-.21-.65-.12-.04.66-.18-.33-.99-.05-.6.1-.15.29-.06-.12-2 .22-.07-.01-.17.47-.14.07-.4-.09-.07.17-.44.21-.37.37.17.2-.3.16-.73.08-.04h.41l-.1.88-.11.2-.35.84-.2-.03.13.25.29.07.26.58.34.14.52.36 2.37 1.75h.13l-.03-1.09-.13-.57-.27-.06-.41.04-.18-.35-.71.32-.33-.22.3-.35-.53-.42-.17-.53.26-.13-.01-.22.16-.3-.06-.43.19-.14-.12-.24-.07-.44-.22.01-.2-.16-.03-.89.12-.32-.4.18-.3.26-.15-.2.18-.22.08-.32.43-.21.2.18v.22l.41.04.02-.06.48.2.07-.02m1.86 1.3-.1-.1.27-.31-.04-.18.22.03-.12.28.03.23-.26.05m-.8-.56.02-.43.14-.33h.11l-.11.6-.17.16m-.33-.17-.16-.27h.15l.01.28" fill="#d1dbdd" stroke="rgb(209, 219, 221)" stroke-width="0.1" data-originalStrokeWidth="0.1" style="stroke: rgb(0, 0, 0); fill: rgb(209, 219, 221); pointer-events: auto; stroke-width: 0.1;" pointer-events="auto"/>
      <path id="MA09" d="m1333.42 190.77.31-.02.6.12.14.12.18-.07-.01-.16.18-.08.32.55.41.3.2.01.27.2.3-.03.15.1.08.64.25.44.23.1.76.78.71.58.72.42.1.21-.13.22.04.23.3.5.42.36.63.46.4.24-.09.12-.3-.06-.25.55-.16.01-.16-.33.01-.29.27.33.26-.4-.14-.16-.88-.67-.45.44.09.5.2.24-.19.3-.25-.18-.22.05-.3.3.13.22.23-.03.13.32.24.12.2-.03.22.19.7.43.18.06.3-.08-.57-.6-.2-.13.06-.16.21.18.5.56.28.23.36-.02.15-.29.3-.18.52.3.58.12.2.13-.15.12.1.35.48.43.27.71.17.19.03.58-.11.36.17.45.3.27.46.3.64.22.06.13.62.21 1.47.07.88-.09 1.92-.48.47.2.33.2.1-.04.27-.54.4-.65.5-.47.14.01.68-.44.16-.16.44-.1.95-.8.19-.05.72-.73.22-.53.04-.26-.32-.9-.49-1.1.1-.4-.1-.07-.36.09-.2-.18.22-.16-.04-.14-.34-.08-.22-.23.02-.3-.4.12-.3.31.19.03-.16.35.11.38.08.46-.24-.42-.41-1.15-.1-.13-.45-1.26-.4-.75-.47-.54-.37-.23-.42-.13-.83-.09-.28.2-.28.4-.05.48-.2.2.4.17.42-.3-.27.36-.22.01-.37-.17-.37-.38-.3-.18-.48-.17.09-.33.21-.26.37-.23.4-.15.68-.1h1.07l.88.16.67.24.78.5.74.68.97 1.02.78 1 1.17 1.82.53 1.03.89 2 .34.96.18.93-.09.5.06.43.02.73.06.28-.12.33-.31.23.02.44.1.4.3.8-.02.25-.18.3-.2-.05-.12-.18.16-.58-.05-.74-.17-.44.07-.33-.08-.2.07-.4v-.5l-.2-.2-.6-.25h-.44l-.28.22-1.3.6-.51.41-.5.34-.62.17-.56.32-.43.52-.49.43-.15.3.02.34-.11.1-.18-.24-.08-.24-.2-.17-.37.03-.16.26-.32.24-.16-.12-.43-.06-.42.34-.07.51-.16.2-.43.33-.18.02-.38.21-.25.05-.04.48-.15.72-.2.5-.32.31-.6.32-.13.12-.45-.01-.55.33-.13.13-.31.07-.81.5-.18.26-.1.61h-.29l-.16-.14-.25.16-.07-.38.19.09.15-.18-.05-.23.18-.4-.13-.45.16-.3-.08-.33-.46-.58v-.5l.1-.2-.2-.22-.24-.1-.01-.24.4-.26.08-.2-.3-.16-.1.15-.28-.03-.08-.11.22-.2.21-.04-.07-.18-.32-.04-.35.11.22-.5.41-.31-.17-.42-.54.01v.16l-.3.83-.05-.03.22-.77-.19-.02-.44-.23-.18.18-.23-.1-.21.07-.34-.12-.13.15.2.24-.16.08.26.23.25.12.01.2-.31.05.33.31.21.42-.43-.29-.27-.03-.15-.15-.23.2.45.56-.37-.14-.09.16.25.24-.13.03.27.4-.18.3.02.15-.26-.24-.34.02-.06.1-.4-.12-.24.2.02.19.5.1.18.26-.15.27-.29.02-.27.17-.24-.07-.29.26.69.8-.19.05.05.36-.1-.01-.33-.56-.23-.28-.21-.37-.41-.03-.05.29-.31.12-.04.17.26.2.31.5h-.3l-.44-.5-.17.1.26.56-.01.46-.32.15.09.14.29.19.23.48.2.22-.28.08-.03.37-.14.12.14.26-.06.12-.25-.4-.13-.03-.26.23-.03.25.13.34-.45.05-.35.2-.02.17-.23.24-.01.23.18.14-.06.2-.22-.49-.23-.08-.54-.04-.34.1-.12.2-.28.14-.26.27-.28-.73-.37-.86-.06-.1-.3-.72-.16-.42-.2-.18-.06-.07-.19-1.06-.13-1.8.18-.08.94-.05 2.53-3.13-.12-.1.37-.26-.59-.74.53-.28-.24-.59-.04-.47-.79-.5-.03-.6-.33-.25-1.05-.18-.14-.12-.2.05-.24-.1-.18.08-.07-.29-.22-.02v.3l-.12.13-.33-.48-.2.13-.24-.06.02-.19-.29-.04-.1.1-.21-.24-.41-.06-.05.37-.17-.06.18-.24.02-.53.12-.09-.13-.44h-.22l-.08-.2.41.04 1-.84.43-.44-.04-.1.6-.02.62-.3.13.02.26.24.3-.08-.2-.83-.09-.04-.86-1.68.2-.13-.94-.71-.54-.98.86-.9.39-.54.77-.87-.4-.27-.55-.7.24-.21-.23-.07-.02-.42.39-.31m10.37 30.2.03.3-.51.08-.22-.18.27-.11.13-.2.29.11m-.2-3.1.1-.47.25-.6.03-.53.16-.08.17-.39.02-.84.2-.18.03-.15.33-.15.02-.46.08-.17.37-.18.66-.9.13.02.16.35.07.43.15-.07.26-.5.26-.1.38.4.16.69.34.4.51.16h.53l.28.41.25-.03.3-.53-.15-.35.1-.39.29-.14.33.7.09.5.29.8-.28.3-.7.24-1.9.54-1.54.6-.91.39-.39.2-.46.34-.27.3v.1l-.25.35.04.5-.13.13-.71-.21-.53-.27-.61-.47.03-.2.47-.23.28-.03.44.06.28-.28m-3.77-1.06-.38.09-.04.29-.37.31-.08-.21.14-.01-.03-.23.18-.15.04-.25.23.15.32.02m.91-1.2.04.24.24.19-.23.36-.17.13-.66.24-.14-.06.02-.33.44-.08v-.2l.3-.24.16-.25m.92-.21-.33.26-.13.03-.17-.19v-.24l.38-.2.35.19-.1.15m-2.36.54-.01.25-.15-.26.17.01m2.96-1.94.01-.2.28-.2.08-.31.17-.2.16-.03.3-.63.23-.14.05.23.3-.05.14-.22.13.12-.26.36-.1-.04-.25.26.1.1-.12.26-.45.27-.19.37-.24.03-.03.22.2.14-.19.37-.2.06-.2.44-.22.08-.28-.32.05-.22.18-.23.05-.25.24-.08.06-.2m-2.57-3.16-.01-.16.27.2.19.46-.2-.02-.3-.28.05-.2m16 4.61.23.26.02.23-.7-.2-.28-.22.31-.11.41.04m1.41.2-.12-.1-.24.13.1-.28.3-.04 1.4-.45.41-.25.48-.21.32-.45.25-.5.16-.64-.07-.7-.08-.23-.33-.25-.29-.05-.15-.23.16.02.69.45 2.26 2.28.14.42.01.3-.17.35-.52.39-.28.17-.91.1-.68.2-.34.25-.41.09-1.31-.07-1.34-.21-.42-.12h.54l.1.09.37-.27-.03-.19m-3.01-.54-.08-.14.36-.15.07.13-.35.16" fill="#d1dbdd" stroke="rgb(209, 219, 221)" stroke-width="0.1" data-originalStrokeWidth="0.1" style="stroke: rgb(0, 0, 0); fill: rgb(209, 219, 221); pointer-events: auto; stroke-width: 0.1;" pointer-events="auto"/>
      <g id="state_lines" stroke="rgb(209, 219, 221)" style="display: none; stroke: rgb(0, 0, 0);" stroke-width="0.1"/>
      <g id="state_abbr" fill="#000000" style="display: none; fill: rgb(0, 0, 0);">
        <text id="HI_label" x="491.79" y="769.82" style="font-size: 19.2455px; stroke-width: 1.60379; display: none;">
          <tspan id="HI_tspan" x="491.79" y="769.82" fill="#000000" dy="0" font-family="Arial" font-size="24.06" font-style="normal" font-weight="400" style="text-align: center; stroke-width: 2.57215; fill: rgb(0, 0, 0);" text-anchor="middle">HI</tspan>
        </text>
        <text id="AK_label" x="205.24" y="672.25" style="font-size: 19.2455px; stroke-width: 1.60379; display: none;">
          <tspan id="AK_tspan" x="205.24" y="672.25" fill="#000000" dy="0" font-family="Arial" font-size="24.06" font-style="normal" font-weight="400" style="text-align: center; stroke-width: 2.57215; fill: rgb(0, 0, 0);" text-anchor="middle">AK</tspan>
        </text>
        <text id="FL_label" x="1188.11" y="708.7" style="font-size: 19.2455px; stroke-width: 1.60379; display: none;">
          <tspan id="FL_tspan" x="1188.11" y="708.7" fill="#000000" dy="0" font-family="Arial" font-size="24.06" font-style="normal" font-weight="400" style="text-align: center; stroke-width: 2.57215; fill: rgb(0, 0, 0);" text-anchor="middle">FL</tspan>
        </text>
        <text id="NH_label" x="1306.05" y="167.79" stroke-width="1.1" font-size="13.25" style="display: none;">
          <tspan id="NH_tspan" x="1306.05" y="167.79" fill="#000000" stroke-width="1.1" dy="0" font-family="Arial" font-size="16.56" font-style="normal" font-weight="400" style="text-align: center; fill: rgb(0, 0, 0);" text-anchor="middle">NH</tspan>
        </text>
        <text id="MI_label" x="1019.65" y="246.58" style="font-size: 19.2455px; stroke-width: 1.60379; display: none;">
          <tspan id="MI_tspan" x="1019.65" y="246.58" fill="#000000" dy="0" font-family="Arial" font-size="24.06" font-style="normal" font-weight="400" style="text-align: center; stroke-width: 2.57215; fill: rgb(0, 0, 0);" text-anchor="middle">MI</tspan>
        </text>
        <text id="VT_label" x="1274.28" y="145.01" stroke-width="1.05" font-size="12.65" style="display: none;">
          <tspan id="VT_tspan" x="1274.28" y="145.01" fill="#000000" stroke-width="1.05" dy="0" font-family="Arial" font-size="15.81" font-style="normal" font-weight="400" style="text-align: center; fill: rgb(0, 0, 0);" text-anchor="middle">VT</tspan>
        </text>
        <text id="ME_label" x="1338.99" y="105.14" stroke-width="1.45" font-size="17.36" style="display: none;">
          <tspan id="ME_tspan" x="1338.99" y="105.14" fill="#000000" stroke-width="1.45" dy="0" font-family="Arial" font-size="21.7" font-style="normal" font-weight="400" style="text-align: center; fill: rgb(0, 0, 0);" text-anchor="middle">ME</tspan>
        </text>
        <text id="RI_label" x="1361.38" y="262.84" stroke-width="1.25" font-size="14.98" style="display: none;">
          <tspan id="RI_tspan" x="1361.38" y="262.84" fill="#000000" stroke-width="1.25" dy="0" font-family="Arial" font-size="18.72" font-style="normal" font-weight="400" style="text-align: center; fill: rgb(0, 0, 0);" text-anchor="middle">RI</tspan>
        </text>
        <text id="NY_label" x="1227.27" y="204.12" style="font-size: 19.2455px; stroke-width: 1.60379; display: none;">
          <tspan id="NY_tspan" x="1227.27" y="204.12" fill="#000000" dy="0" font-family="Arial" font-size="24.06" font-style="normal" font-weight="400" style="text-align: center; stroke-width: 2.57215; fill: rgb(0, 0, 0);" text-anchor="middle">NY</tspan>
        </text>
        <text id="PA_label" x="1187.28" y="284.69" style="font-size: 19.2455px; stroke-width: 1.60379; display: none;">
          <tspan id="PA_tspan" x="1187.28" y="284.69" fill="#000000" dy="0" font-family="Arial" font-size="24.06" font-style="normal" font-weight="400" style="text-align: center; stroke-width: 2.57215; fill: rgb(0, 0, 0);" text-anchor="middle">PA</tspan>
        </text>
        <text id="NJ_label" x="1330.57" y="290.09" stroke-width="1.28" font-size="15.4" style="display: none;">
          <tspan id="NJ_tspan" x="1330.57" y="290.09" fill="#000000" stroke-width="1.28" dy="0" font-family="Arial" font-size="19.25" font-style="normal" font-weight="400" style="text-align: center; fill: rgb(0, 0, 0);" text-anchor="middle">NJ</tspan>
        </text>
        <text id="DE_label" x="1320.8" y="328.42" stroke-width="1.36" font-size="16.38" style="display: none;">
          <tspan id="DE_tspan" x="1320.8" y="328.42" fill="#000000" stroke-width="1.36" dy="0" font-family="Arial" font-size="20.47" font-style="normal" font-weight="400" style="text-align: center; fill: rgb(0, 0, 0);" text-anchor="middle">DE</tspan>
        </text>
        <text id="MD_label" x="1310.72" y="368.46" stroke-width="1.34" font-size="16.11" style="display: none;">
          <tspan id="MD_tspan" x="1310.72" y="368.46" fill="#000000" stroke-width="1.34" dy="0" font-family="Arial" font-size="20.13" font-style="normal" font-weight="400" style="text-align: center; fill: rgb(0, 0, 0);" text-anchor="middle">MD</tspan>
        </text>
        <text id="VA_label" x="1198.59" y="392.33" style="font-size: 19.2455px; stroke-width: 1.60379; display: none;">
          <tspan id="VA_tspan" x="1198.59" y="392.33" fill="#000000" dy="0" font-family="Arial" font-size="24.06" font-style="normal" font-weight="400" style="text-align: center; stroke-width: 2.57215; fill: rgb(0, 0, 0);" text-anchor="middle">VA</tspan>
        </text>
        <text id="WV_label" x="1129.66" y="382.3" style="font-size: 19.2455px; stroke-width: 1.60379; display: none;">
          <tspan id="WV_tspan" x="1129.66" y="382.3" fill="#000000" dy="0" font-family="Arial" font-size="24.06" font-style="normal" font-weight="400" style="text-align: center; stroke-width: 2.57215; fill: rgb(0, 0, 0);" text-anchor="middle">WV</tspan>
        </text>
        <text id="OH_label" x="1079.05" y="334.46" style="font-size: 19.2455px; stroke-width: 1.60379; display: none;">
          <tspan id="OH_tspan" x="1079.05" y="334.46" fill="#000000" dy="0" font-family="Arial" font-size="24.06" font-style="normal" font-weight="400" style="text-align: center; stroke-width: 2.57215; fill: rgb(0, 0, 0);" text-anchor="middle">OH</tspan>
        </text>
        <text id="IN_label" x="998.79" y="352.94" style="font-size: 19.2455px; stroke-width: 1.60379; display: none;">
          <tspan id="IN_tspan" x="998.79" y="352.94" fill="#000000" dy="0" font-family="Arial" font-size="24.06" font-style="normal" font-weight="400" style="text-align: center; stroke-width: 2.57215; fill: rgb(0, 0, 0);" text-anchor="middle">IN</tspan>
        </text>
        <text id="IL_label" x="927.43" y="364.36" style="font-size: 19.2455px; stroke-width: 1.60379; display: none;">
          <tspan id="IL_tspan" x="927.43" y="364.36" fill="#000000" dy="0" font-family="Arial" font-size="24.06" font-style="normal" font-weight="400" style="text-align: center; stroke-width: 2.57215; fill: rgb(0, 0, 0);" text-anchor="middle">IL</tspan>
        </text>
        <text id="CT_label" x="1299.17" y="228.46" stroke-width="1.06" font-size="12.74" style="display: none;">
          <tspan id="CT_tspan" x="1299.17" y="228.46" fill="#000000" stroke-width="1.06" dy="0" font-family="Arial" font-size="15.93" font-style="normal" font-weight="400" style="text-align: center; fill: rgb(0, 0, 0);" text-anchor="middle">CT</tspan>
        </text>
        <text id="WI_label" x="898.6" y="224.7" style="font-size: 19.2455px; stroke-width: 1.60379; display: none;">
          <tspan id="WI_tspan" x="898.6" y="224.7" fill="#000000" dy="0" font-family="Arial" font-size="24.06" font-style="normal" font-weight="400" style="text-align: center; stroke-width: 2.57215; fill: rgb(0, 0, 0);" text-anchor="middle">WI</tspan>
        </text>
        <text id="NC_label" x="1205.6" y="458.72" style="font-size: 19.2455px; stroke-width: 1.60379; display: none;">
          <tspan id="NC_tspan" x="1205.6" y="458.72" fill="#000000" dy="0" font-family="Arial" font-size="24.06" font-style="normal" font-weight="400" style="text-align: center; stroke-width: 2.57215; fill: rgb(0, 0, 0);" text-anchor="middle">NC</tspan>
        </text>
        <text id="MA_label" x="1305.87" y="200.67" stroke-width="1.04" font-size="12.46" style="display: none;">
          <tspan id="MA_tspan" x="1305.87" y="200.67" fill="#000000" stroke-width="1.04" dy="0" font-family="Arial" font-size="15.58" font-style="normal" font-weight="400" style="text-align: center; fill: rgb(0, 0, 0);" text-anchor="middle">MA</tspan>
        </text>
        <text id="MO_label" x="854.22" y="422.93" style="font-size: 19.2455px; stroke-width: 1.60379; display: none;">
          <tspan id="MO_tspan" x="854.22" y="422.93" fill="#000000" dy="0" font-family="Arial" font-size="24.06" font-style="normal" font-weight="400" style="text-align: center; stroke-width: 2.57215; fill: rgb(0, 0, 0);" text-anchor="middle">MO</tspan>
        </text>
        <text id="GA_label" x="1106.89" y="574.56" style="font-size: 19.2455px; stroke-width: 1.60379; display: none;">
          <tspan id="GA_tspan" x="1106.89" y="574.56" fill="#000000" dy="0" font-family="Arial" font-size="24.06" font-style="normal" font-weight="400" style="text-align: center; stroke-width: 2.57215; fill: rgb(0, 0, 0);" text-anchor="middle">GA</tspan>
        </text>
        <text id="SC_label" x="1166.32" y="522.49" style="font-size: 19.2455px; stroke-width: 1.60379; display: none;">
          <tspan id="SC_tspan" x="1166.32" y="522.49" fill="#000000" dy="0" font-family="Arial" font-size="24.06" font-style="normal" font-weight="400" style="text-align: center; stroke-width: 2.57215; fill: rgb(0, 0, 0);" text-anchor="middle">SC</tspan>
        </text>
        <text id="KY_label" x="1039.99" y="426.39" style="font-size: 19.2455px; stroke-width: 1.60379; display: none;">
          <tspan id="KY_tspan" x="1039.99" y="426.39" fill="#000000" dy="0" font-family="Arial" font-size="24.06" font-style="normal" font-weight="400" style="text-align: center; stroke-width: 2.57215; fill: rgb(0, 0, 0);" text-anchor="middle">KY</tspan>
        </text>
        <text id="AL_label" x="1019.59" y="578.15" style="font-size: 19.2455px; stroke-width: 1.60379; display: none;">
          <tspan id="AL_tspan" fill="#000000" dy="0" font-family="Arial" font-size="24.06" font-style="normal" font-weight="400" style="text-align: center; stroke-width: 2.57215; fill: rgb(0, 0, 0);" text-anchor="middle">AL</tspan>
        </text>
        <text id="LA_label" x="872.7" y="649.59" style="font-size: 19.2455px; stroke-width: 1.60379; display: none;">
          <tspan id="LA_tspan" x="872.7" y="649.59" fill="#000000" dy="0" font-family="Arial" font-size="24.06" font-style="normal" font-weight="400" style="text-align: center; stroke-width: 2.57215; fill: rgb(0, 0, 0);" text-anchor="middle">LA</tspan>
        </text>
        <text id="MS_label" x="940.37" y="592.21" style="font-size: 19.2455px; stroke-width: 1.60379; display: none;">
          <tspan id="MS_tspan" x="940.37" y="592.21" fill="#000000" dy="0" font-family="Arial" font-size="24.06" font-style="normal" font-weight="400" style="text-align: center; stroke-width: 2.57215; fill: rgb(0, 0, 0);" text-anchor="middle">MS</tspan>
        </text>
        <text id="IA_label" x="823.33" y="308.44" style="font-size: 19.2455px; stroke-width: 1.60379; display: none;">
          <tspan id="IA_tspan" x="823.33" y="308.44" fill="#000000" dy="0" font-family="Arial" font-size="24.06" font-style="normal" font-weight="400" style="text-align: center; stroke-width: 2.57215; fill: rgb(0, 0, 0);" text-anchor="middle">IA</tspan>
        </text>
        <text id="MN_label" x="790.84" y="183.37" style="font-size: 19.2455px; stroke-width: 1.60379; display: none;">
          <tspan id="MN_tspan" x="790.84" y="183.37" fill="#000000" dy="0" font-family="Arial" font-size="24.06" font-style="normal" font-weight="400" style="text-align: center; stroke-width: 2.57215; fill: rgb(0, 0, 0);" text-anchor="middle">MN</tspan>
        </text>
        <text id="OK_label" x="732.05" y="519.54" style="font-size: 19.2455px; stroke-width: 1.60379; display: none;">
          <tspan id="OK_tspan" x="732.05" y="519.54" fill="#000000" dy="0" font-family="Arial" font-size="24.06" font-style="normal" font-weight="400" style="text-align: center; stroke-width: 2.57215; fill: rgb(0, 0, 0);" text-anchor="middle">OK</tspan>
        </text>
        <text id="TX_label" x="710.59" y="652.87" style="font-size: 19.2455px; stroke-width: 1.60379; display: none;">
          <tspan id="TX_tspan" x="710.59" y="652.87" fill="#000000" dy="0" font-family="Arial" font-size="24.06" font-style="normal" font-weight="400" style="text-align: center; stroke-width: 2.57215; fill: rgb(0, 0, 0);" text-anchor="middle">TX</tspan>
        </text>
        <text id="NM_label" x="506.94" y="542.36" style="font-size: 19.2455px; stroke-width: 1.60379; display: none;">
          <tspan id="NM_tspan" x="506.94" y="542.36" fill="#000000" dy="0" font-family="Arial" font-size="24.06" font-style="normal" font-weight="400" style="text-align: center; stroke-width: 2.57215; fill: rgb(0, 0, 0);" text-anchor="middle">NM</tspan>
        </text>
        <text id="KS_label" x="701.21" y="427.26" style="font-size: 19.2455px; stroke-width: 1.60379; display: none;">
          <tspan id="KS_tspan" x="701.21" y="427.26" fill="#000000" dy="0" font-family="Arial" font-size="24.06" font-style="normal" font-weight="400" style="text-align: center; stroke-width: 2.57215; fill: rgb(0, 0, 0);" text-anchor="middle">KS</tspan>
        </text>
        <text id="NE_label" x="686.63" y="337.29" style="font-size: 19.2455px; stroke-width: 1.60379; display: none;">
          <tspan id="NE_tspan" x="686.63" y="337.29" fill="#000000" dy="0" font-family="Arial" font-size="24.06" font-style="normal" font-weight="400" style="text-align: center; stroke-width: 2.57215; fill: rgb(0, 0, 0);" text-anchor="middle">NE</tspan>
        </text>
        <text id="SD_label" x="663.02" y="238.75" style="font-size: 19.2455px; stroke-width: 1.60379; display: none;">
          <tspan id="SD_tspan" x="663.02" y="238.75" fill="#000000" dy="0" font-family="Arial" font-size="24.06" font-style="normal" font-weight="400" style="text-align: center; stroke-width: 2.57215; fill: rgb(0, 0, 0);" text-anchor="middle">SD</tspan>
        </text>
        <text id="ND_label" x="663.02" y="150.75" style="font-size: 19.2455px; stroke-width: 1.60379; display: none;">
          <tspan id="ND_tspan" x="663.02" y="150.75" fill="#000000" dy="0" font-family="Arial" font-size="24.06" font-style="normal" font-weight="400" style="text-align: center; stroke-width: 2.57215; fill: rgb(0, 0, 0);" text-anchor="middle">ND</tspan>
        </text>
        <text id="WY_label" x="499.57" y="276.47" style="font-size: 19.2455px; stroke-width: 1.60379; display: none;">
          <tspan id="WY_tspan" x="499.57" y="276.47" fill="#000000" dy="0" font-family="Arial" font-size="24.06" font-style="normal" font-weight="400" style="text-align: center; stroke-width: 2.57215; fill: rgb(0, 0, 0);" text-anchor="middle">WY</tspan>
        </text>
        <text id="MT_label" x="487.84" y="155.58" style="font-size: 19.2455px; stroke-width: 1.60379; display: none;">
          <tspan id="MT_tspan" x="487.84" y="155.58" fill="#000000" dy="0" font-family="Arial" font-size="24.06" font-style="normal" font-weight="400" style="text-align: center; stroke-width: 2.57215; fill: rgb(0, 0, 0);" text-anchor="middle">MT</tspan>
        </text>
        <text id="CO_label" x="525.13" y="406.28" style="font-size: 19.2455px; stroke-width: 1.60379; display: none;">
          <tspan id="CO_tspan" x="525.13" y="406.28" fill="#000000" dy="0" font-family="Arial" font-size="24.06" font-style="normal" font-weight="400" style="text-align: center; stroke-width: 2.57215; fill: rgb(0, 0, 0);" text-anchor="middle">CO</tspan>
        </text>
        <text id="ID_label" x="339.94" y="235.07" style="font-size: 19.2455px; stroke-width: 1.60379; display: none;">
          <tspan id="ID_tspan" x="339.94" y="235.07" fill="#000000" dy="0" font-family="Arial" font-size="24.06" font-style="normal" font-weight="400" style="text-align: center; stroke-width: 2.57215; fill: rgb(0, 0, 0);" text-anchor="middle">ID</tspan>
        </text>
        <text id="UT_label" x="396.81" y="386.73" style="font-size: 19.2455px; stroke-width: 1.60379; display: none;">
          <tspan id="UT_tspan" x="396.81" y="386.73" fill="#000000" dy="0" font-family="Arial" font-size="24.06" font-style="normal" font-weight="400" style="text-align: center; stroke-width: 2.57215; fill: rgb(0, 0, 0);" text-anchor="middle">UT</tspan>
        </text>
        <text id="AZ_label" x="366.76" y="536.9" style="font-size: 19.2455px; stroke-width: 1.60379; display: none;">
          <tspan id="AZ_tspan" x="366.76" y="536.9" fill="#000000" dy="0" font-family="Arial" font-size="24.06" font-style="normal" font-weight="400" style="text-align: center; stroke-width: 2.57215; fill: rgb(0, 0, 0);" text-anchor="middle">AZ</tspan>
        </text>
        <text id="NV_label" x="262.47" y="370.64" style="font-size: 19.2455px; stroke-width: 1.60379; display: none;">
          <tspan id="NV_tspan" x="262.47" y="370.64" fill="#000000" dy="0" font-family="Arial" font-size="24.06" font-style="normal" font-weight="400" style="text-align: center; stroke-width: 2.57215; fill: rgb(0, 0, 0);" text-anchor="middle">NV</tspan>
        </text>
        <text id="OR_label" x="214.43" y="206.88" style="font-size: 19.2455px; stroke-width: 1.60379; display: none;">
          <tspan id="OR_tspan" x="214.43" y="206.88" fill="#000000" dy="0" font-family="Arial" font-size="24.06" font-style="normal" font-weight="400" style="text-align: center; stroke-width: 2.57215; fill: rgb(0, 0, 0);" text-anchor="middle">OR</tspan>
        </text>
        <text id="WA_label" x="238.05" y="102.99" style="font-size: 19.2455px; stroke-width: 1.60379; display: none;">
          <tspan id="WA_tspan" x="238.05" y="102.99" fill="#000000" dy="0" font-family="Arial" font-size="24.06" font-style="normal" font-weight="400" style="text-align: center; stroke-width: 2.57215; fill: rgb(0, 0, 0);" text-anchor="middle">WA</tspan>
        </text>
        <text id="CA_label" x="191.69" y="434.8" style="font-size: 19.2455px; stroke-width: 1.60379; display: none;">
          <tspan id="CA_tspan" x="191.69" y="434.8" fill="#000000" dy="0" font-family="Arial" font-size="24.06" font-style="normal" font-weight="400" style="text-align: center; stroke-width: 2.57215; fill: rgb(0, 0, 0);" text-anchor="middle">CA</tspan>
        </text>
        <text id="DC_label" x="1309.32" y="398.19" stroke-width="1.29" font-size="15.45" style="display: none;">
          <tspan id="DC_tspan" x="1309.32" y="398.19" fill="#000000" stroke-width="1.29" dy="0" font-family="Arial" font-size="19.31" font-style="normal" font-weight="400" style="text-align: center; fill: rgb(0, 0, 0);" text-anchor="middle">DC</tspan>
        </text>
        <text id="TN_label" x="1018.93" y="485.72" style="font-size: 19.2455px; stroke-width: 1.60379; display: none;">
          <tspan id="TN_tspan" x="1018.93" y="485.72" fill="#000000" dy="0" font-family="Arial" font-size="24.06" font-style="normal" font-weight="400" style="text-align: center; stroke-width: 2.57215; fill: rgb(0, 0, 0);" text-anchor="middle">TN</tspan>
        </text>
        <text id="AR_label" x="863.15" y="535.77" style="font-size: 19.2455px; stroke-width: 1.60379; display: none;">
          <tspan id="AR_tspan" x="863.15" y="535.77" fill="#000000" dy="0" font-family="Arial" font-size="24.06" font-style="normal" font-weight="400" style="text-align: center; stroke-width: 2.57215; fill: rgb(0, 0, 0);" text-anchor="middle">AR</tspan>
        </text>
      </g>
      <g id="state_borders" transform="translate(-0.04777967,-0.15336683)" stroke="rgb(209, 219, 221)" style="stroke: rgb(0, 0, 0);" stroke-width="0.3"/>
      <rect id="selection-rectangle" fill="#ffffccaa" stroke="rgb(209, 219, 221)" stroke-width="0.1"/>
      <ellipse id="selection-ellipse" fill="#ffffccaa" stroke="rgb(209, 219, 221)" stroke-width="0.1"/>
      <polygon id="selection-polygon" fill="#ffffccaa" stroke="rgb(209, 219, 221)" stroke-width="0.1"/>
      <polyline id="selection-polyline" fill="#ffffccaa" stroke="rgb(209, 219, 221)" stroke-width="0.1"/>
    </svg>
  </g>
</svg>
