<?xml version='1.0' encoding='UTF-8'?>
<svg xmlns="http://www.w3.org/2000/svg" xmlns:dc="http://purl.org/dc/elements/1.1/" xmlns:ns2="http://creativecommons.org/ns#" xmlns:rdf="http://www.w3.org/1999/02/22-rdf-syntax-ns#" id="wrapper" viewBox="0 0 1520 840" preserveAspectRatio="xMinYMin" height="840" width="1520" style="background-color: rgb(255, 255, 255);">
  <metadata>
    <rdf:rdf>
      <ns2:work rdf:about="">
        <dc:format>image/svg+xml</dc:format>
        <dc:type rdf:resource="http://purl.org/dc/dcmitype/StillImage"/>
        <dc:title>MapChart Map</dc:title>
        <dc:creator>
          <ns2:agent>
            <dc:title>MapChart.net</dc:title>
          </ns2:agent>
        </dc:creator>
        <ns2:license rdf:resource="http://creativecommons.org/licenses/by-sa/4.0/"/>
        <dc:description>This map was created with MapChart.net, a website for creating custom maps.</dc:description>
      </ns2:work>
      <ns2:license rdf:about="http://creativecommons.org/licenses/by-sa/4.0/">
        <ns2:permits rdf:resource="http://creativecommons.org/ns#Reproduction"/>
        <ns2:permits rdf:resource="http://creativecommons.org/ns#Distribution"/>
        <ns2:requires rdf:resource="http://creativecommons.org/ns#Notice"/>
        <ns2:requires rdf:resource="http://creativecommons.org/ns#Attribution"/>
        <ns2:requires rdf:resource="http://creativecommons.org/ns#ShareAlike"/>
      </ns2:license>
    </rdf:rdf>
  </metadata>
  <g id="map-group" transform="translate(-2963.0998456547936,-316.82307722525024) scale(3.8274564358830068)">
    <svg id="map" width="1520" height="840" version="1.1" viewBox="0 0 1520 840" preserveAspectRatio="xMinYMin" data-originalStrokeWidth="0.3">
      <defs>
        <pattern id="circles3" width="10" height="10" patternUnits="userSpaceOnUse">    <rect width="10" height="10" fill="#fff"/>    <circle cx="4" cy="4" r="2" fill="#000"/>    </pattern>
        <pattern id="diagonal1" width="10" height="10" patternUnits="userSpaceOnUse">    <rect width="10" height="10" fill="#fff"/>    </pattern>
        <pattern id="diagonal3" width="10" height="10" patternUnits="userSpaceOnUse">    <rect width="10" height="10" fill="#fff"/>    </pattern>
        <pattern id="vertical1" width="10" height="10" patternUnits="userSpaceOnUse">    <rect width="10" height="10" fill="#fff"/>    <rect x="2" y="0" width="1" height="10" fill="#000"/>    </pattern>
        <pattern id="vertical3" width="10" height="10" patternUnits="userSpaceOnUse">    <rect width="10" height="10" fill="#fff"/>    <rect x="2" y="0" width="3" height="10" fill="#000"/>    </pattern>
        <pattern id="horizontal1" width="10" height="10" patternUnits="userSpaceOnUse">    <rect width="10" height="10" fill="#fff"/>    <rect x="0" y="2" width="10" height="1" fill="#000"/>    </pattern>
        <pattern id="horizontal3" width="10" height="10" patternUnits="userSpaceOnUse">    <rect width="10" height="10" fill="#fff"/>    <rect x="0" y="2" width="10" height="3" fill="#000"/>    </pattern>
        <pattern id="crosshatch" width="8" height="8" patternUnits="userSpaceOnUse">    <rect width="8" height="8" fill="#fff"/>    </pattern>
        <pattern id="subtlepatch" width="5" height="5" patternUnits="userSpaceOnUse">    <rect width="5" height="5" fill="#fff"/>    <rect x="2" y="2" width="1" height="1" fill="#000"/>    </pattern>
        <pattern id="checkers" width="8" height="8" patternUnits="userSpaceOnUse">    <rect width="8" height="8" fill="#fff"/>    </pattern>
        <pattern id="raindrops" width="10" height="10" patternUnits="userSpaceOnUse">    <rect width="10" height="10" fill="#fff"/>    </pattern>
        <pattern id="texture" width="4" height="4" patternUnits="userSpaceOnUse">    <rect width="4" height="4" fill="#fff"/>    </pattern>
        <pattern id="circles3_a03500_000000" width="10" height="10" patternUnits="userSpaceOnUse">    <rect width="10" height="10" fill="#a03500"/>    <circle cx="4" cy="4" r="2" fill="#000000"/>    </pattern>
        <pattern id="diagonal1_d9b400_535353" width="10" height="10" patternUnits="userSpaceOnUse">    <rect width="10" height="10" fill="#d9b400"/>    </pattern>
        <pattern id="diagonal3_3264c8_ffffff" width="10" height="10" patternUnits="userSpaceOnUse">    <rect width="10" height="10" fill="#3264c8"/>    </pattern>
        <pattern id="horizontal1_72b38e_000000" width="10" height="10" patternUnits="userSpaceOnUse">    <rect width="10" height="10" fill="#72b38e"/>    <rect x="0" y="2" width="10" height="1" fill="#000000"/>    </pattern>
        <pattern id="horizontal3_986ba1_ffffff" width="10" height="10" patternUnits="userSpaceOnUse">    <rect width="10" height="10" fill="#986ba1"/>    <rect x="0" y="2" width="10" height="3" fill="#ffffff"/>    </pattern>
        <pattern id="vertical1_b9a087_ffffff" width="10" height="10" patternUnits="userSpaceOnUse">    <rect width="10" height="10" fill="#b9a087"/>    <rect x="2" y="0" width="1" height="10" fill="#ffffff"/>    </pattern>
        <pattern id="vertical3_4c91bf_ffff33" width="10" height="10" patternUnits="userSpaceOnUse">    <rect width="10" height="10" fill="#4c91bf"/>    <rect x="2" y="0" width="3" height="10" fill="#ffff33"/>    </pattern>
        <pattern id="checkers_cc3333_f7f7f7" width="8" height="8" patternUnits="userSpaceOnUse">    <rect width="8" height="8" fill="#cc3333"/>    </pattern>
        <pattern id="texture_d1dbdd_525252" width="4" height="4" patternUnits="userSpaceOnUse">    <rect width="4" height="4" fill="#d1dbdd"/>    </pattern>
        <style id="map-style">svg { background-color: #ffffff; }</style>
      </defs>
      <path id="MI01" d="m943.22 189.36-.53-.11-.15-.04-.12-.02-.12-.07-.65.02-.18-.29-.3-.37.05-.11-.2-.24-.62-.38-.06-.06-.17-.03-.45-.42-.22-.62.02-.16.07-.1.18-.18-.05-.3.09-.25-.1-.13.24-.49.02-.11-.06-.33.06-.08.01-.12.14-.14-.02-.43.07-.17.06-.2.02-.11.46-.8-.03-.17.26-.5-.13-.41h-.05l-.04-.04-.06-.2-.07-.23-.37-.17-.05-.15-.27-.19h-.19l-.15.1-.35.35-.35.72-.25.08-.03.2-.35-.03-.1.03-.18.06-.2-.1-.43.13h-.25l-.29.09-.03.19-.2.18-.08-.21-.32-.13-.21-.41-.1.07.15.23-.18.2-.2-.18.02-.1.06-.12.04-.02.04-.05.02-.07.06-.07.04-.03.01-.04-.01-.03-.1-.09-.01-.06.03-.1.06-.06.13-.08.07-.07.02-.05.04-.13-.02-.05-.05-.04v-.1l.08-.07.08-.06.03-.06-.06-.23-.14-.13-.03-.12-.06-.04-.04-.06-.08-.29.02-.05.06-.07.01-.05.02-.09.01-.02.16-.12.03-.08.01-.05.05-.04.12-.05.02-.02.05-.08.28-.33.1-.1.12-.24-.03-.21.13-.2.06-.66-.16-.04-.17-.54-.04-.39-.09-.13-.3-.28-.34-.2v-.16l.03-.14.71.12.2-.14-.05-.5.19-.25-.02-.37.02-.06-.05-.03-.02-.04-.05-.09.02-.05-.2-.18-.13-.02-.1-.04-.03-.1-.02-.06-.05-.05-.3-.37-.34-.25-.08-.44.4-.16.13-.16.33-.13.04-.14-.02-.11-.18-.19-.23-.12-.1-.04-.09-.06-.02-.06-.08-.05v-.02l.05-.05.02-.06-.01-.08-.04-.06-.09-.04-.05-.04-.07-.02h-.16l-.03.01-.06-.05h-.11l-.14-.05h-.04l-.26-.19-.03-.04h-.09l-.03-.04-.07-.07-.14-.2v-.15l-.03-.03.06-.04-.03-.04-.08-.03-.05-.08-.14-.02-.02-.02-.03-.08h-.15l-.08.03h-.08l-.05.02-.08.05-.1-.01-.04-.1-.08-.08h-.07l-.04.1h-.02l-.07-.02-.03-.05h-.06l-.45.12-.16.06h-.38l-.1-.18-.18-.04-.25-.06-.1-.09.16-.1-.2-.55-.06-.04-.1-.02-.16.08-.07.05-.07.04h-.16l-.15.1-.22.04h-.07l-.07.03v.05l-.01.04.02.03-.02.06h-.06l-.03.05h-.05l-.05.06-.14.03h-.04l-.25.07-.28-.14-.24.04-.15-.15-.1-.11-.16-.28-.44-.1-.21-.37.05-.1.18-.23.03-.08.09-.09.08-.12.09-.07.06-.07.02-.06.04-.1.04-.07.16-.17.06-.1.01-.04v-.08l.06-.14h.05l.07.03.06-.05v-.04l.06-.21v-.06h-.07l-.07-.04-.12-.09-.06-.01h-.1l-.1.05h-.1l-.04-.02-.05-.03-.02-.03-.06-.3-.03-.06-.1-.18.18-.52-.16-.13h-.25l-.18.06-.1-.08-.4-.22-.09-.03v-.09l-.04-.02-.11.03-.07-.01-.12-.07h-.05l.03.05-.04.02h-.03l-.1-.02-.07-.04-.07-.11-.07-.07-.06-.03h-.11l-.08-.07-.07-.03-.39.22-.18.03-.39.02-.22-.17-.03-.27-.21.03-.28.26-.17.04-.3.17-.68-.29-.16.24.02-.07-.02-.16-.76-.48-.2-.06-.09-.02-.2-.18-.15.33-.45.16-.13.15-.2-.22-.06-.03-.35-.17-.13.05-.17-.22-.23-.08-.2.1.02.16-.25.1-.18-.06-.17-.18-.03-.1-.23-.46-.28.03h-.26l-.1.2-.56.03-.13.07-.08.14-.07.1-.04.02-.14.07-.24-.35-.14.04-.15.4-.02.53-.38.04-.1.1-.4-.08-.13.08-.17-.02v-.03l.14-.09-.19-.2-.02-.19-.21-.24-.2-.03h-.1l-.1-.01-.05-.05-.14.03-.15.17-.2-.1v-.17l-.23-.12-.06.05-.14-.04-.43.29-.24-.12.05.18-.26.12-.06-.26.08-.23-.19.1-.23-.08-.06.09.1.09.02.06v.04h-.08l-.06.02-.05.07-.1-.02-.03.02-.04.04-.05.01v-.07l-.03-.04h-.04l-.03-.06h-.11l-.07-.04h-.04l-.07-.02h-.04l-.03-.02h-.07l-.02.02-.05-.06-.05-.02-.02-.06-.07-.03-.03-.06-.07-.07-1.04-.44-.62-.27-.49-.2-.47-.22-.63-.24-.23-.1-1.48-.64-.37-.17-.29-.11-.23-.04-.5-.07-.48-.07-.46-.07-.61-.1-.27-.04-.23-.04-.77-.11-.74-.1-1.08-.18-1.01-.15-.5-.07-.57-.1-.45-.05-.43-.08-.82-.13-.75-.12-1.13-.18-.54-.07-.58-.1-.65-.1-.52-.07-.41-.08-.68-.09-.18-.03-.16-.02-.9-.14h-.02l-.09-.03-1.39-.2-.3-.06-.1-.02-.3-.04-.2-.04h-.14v-.02l-.04-.02-.16-.01h-.14l-.25-.06-2.01-.32-1.98-.32-.27-.04v-.07l-.1-.2.14-.17-.08-.27-.38-.36-.02-.2-.15-.2-.5-.75-.01-.1-.05-.35-.07-.06-.05-.16-.08-.16-.12-.05h-.11l-.07-.31-.02-.07-.06-.13-.18-.04-.06-.19.04-.1-.23-.17-.15-.13-.03-.16-.34-.53h-.03l-.24.06v-.22l-.17.06-.49.2-.24-.06-.03-.1-.09-.3.07-.03-.12-.15-.15.19-.25-.06-.08.14-.36.05.07-.5v-.12l-.25-.3-.13.04-.15-.2-.15.1-.12.04-.03.25-.51.12-.09.1-.18.11-.13.03-.57-.67-.11-.3.62-.6 1.1-.93.56.12.83-.59.58-.25.55-.32.97-.5.24-.08 1.09-.38 1.14-.54.35-.23.63-.67.29-.49.47-.34.63-.68.35-.48 1.07-1.57.34-.3.83-.55 1.46-.55.72-.1.28-.11.28.03.5.17.22.16.35-.08.37-.25.8-.36.26-.05.63-.29.5.05.42-.02.73-.16.46-.2.52-.33.75-.42.46-.48.35-.13.34-.3.24-.1.52-.45.16-.06.43-.35.5-.64.34-.68.12-.4.33-.22.26-.52.28-.29.2-.07.3.21.6-.06.3-.1.48-.41.2-.1.32.2.59-.18.3-.2.43-.42.3-.56.3-.94v-.47l.17-.3-.05-.1.26-.49.66-.5.22-.06.27-.4.15-.36.64-.51.3-.02.28-.24.55-.98.58-.68.51-.51.32-.26.34-.08.44-.26.08-.16.74-.28.5-.64.96-1.11.4-.7.1-.44.2-.42.41-.56.17-.41.25-.15.8-.72.36-.12.62-.38.41-.34.35-.36.82-.29.35-.26.18-.24-.07-.22.4-.15.37-.23.44-.13.06.14.37-.14-.22-.03.46-.19.4-.08.58-.25.05.06.66-.15-.02-.14 1.44-.34.87-.12.77-.02.02.15.52.07.65-.15-.2-.18.2.05.65-.04.33-.08 1 .25.58.28.36.25.12.4-.05.17.2.46-.03.16-.43.03-.23-.08-.33.13-.14.31-.7.15-.28.28-.36-.11-.56-.1-.21.07h-.34l-.3.16h-.29l-.65.18-.32.13-.11.42.1.36.35.17.25.4-.13.27-.47.11-.4.37-.52.59-.79.35-.3.4-.43.88-.42.25-.33.67-.4.34-.15.35-.55.27-.4.04-.3.38-.18.42v.36l.04.52.1.22.18.02-.14.34-.18.12-.22-.23-.21.03-.29.24-.12.3.07.45-.11.53-1.04.82-.03.23.04.45-.06.5-.12.4.02.26-.32.5-.43.9-.34.08-.35.2v.79l-.04.76-.2.91-.1.3.07.29-.05.47.08.34-.05.25.05.54.25.38.05.26.28.44-.13.29-.27-.04-.28.8.44.23.28-.1.3-.4.01-.25.18-.37.07-.37.32-.62.62-.92-.04-.22-.2-.17-.26.18-.04-.13.26-.53.35-.21-.03.33.16.13.36-.06.17-.28.59-.84.56-.6.37-.34.31-.49.55-.39.38-.18.15-.3.47-.25.21-.24.23-.07.3.16-.3.25-.01.33-.7.86-.5.38-.41.5-.14.34-.18.62-.07.42-.18.5-.22.22.03.29.21-.08.2-.41.14-.1.16-.72.18-.39.4-.42-.12-.2.6-.51.5-.07.72-.26.52-.31.42-.15.36.02.73.2.32-.08.43.1.9-.24 1.25-.15.56.43.64.17.6-.31.33.27h.46l.12.07.05.3.25.15.23-.01.29-.18.2.45.07.4.2.26h.49l.36-.27-.06-.28.3.12.06.4.15.2.44.09.33-.05.13.2.6.52.28.12-.05.22.2.65.24.45.05.22.22.3.73.44.1.19.47.14-.1.12.05.33.35.4.24.43.25.12.67.13-.06.3.1.3.32.3.2.06.11.24.2.1.4-.09.4.17.19-.05-.01-.18.19-.01-.05.34-.22.1v.22l.5.7-.3.18-.06.3.36.45.53.36.58.15.52.06 1.13-.04.66-.11.54-.14.47-.23.15-.3.18-.05.13.2.52.07.38-.09.25-.13.03-.14.48-.5.7-.26.1-.2.38-.1-.06-.2.43-.02.2.18.37-.05.3.27.6 1.09-.02.24.45.17.4-.11.45.17.15.23-.02.2.27.2.57.02.26-.05.45-.19.01-.46.12-.46.3-.4.8-.15.44.16v.19l.34.27.4.45.45-.05.27-.25.3.05.11.33-.17.33.3.28.28-.04.2-.5.32-.57-.06-.3.25-.05.22-.5.27-.33.29-.63.4-.2.25-.57.4-.31.2-.4v-.21l.27-.34.32-.03.21.1.75-.5.34-.16.8-.6.58-.51 2.53-2.37.5-.57.49-.19.26.2.2.22.31.05.38-.1.61-.27.43-.27.86-.33.48-.27-.24.24.12.09.62-.3.8-.46.65-.22.8-.06 1.02.08.97-.04.78-.11.96-.27.95-.1h.83l.96-.13.7-.17.56-.24.72-.45.38-.3.37-.2.9-.59 1-.82 1.1-.68.82-.24.53-.24.7-.24 1.64-.05.4-.07.57-.17.78-.47.53-.16h.34l.1.12-.63.8-.34.6-.17.55-.1.48.02.41.09.3.11 1.55.09.76.12.6.26.65.12.5-.28.17-.22.26-.04.2.08.36.17.32.43.44.44.17 1.11-.08.31-.4.27-.04.04.23.33.28.63.03.65-.26.2.13.41.53.48-.03.36-.11.63-.35.9-.61.67-.64.2-.13.54.07.49-.16.24.18.4.6.7.53-.11.18-.16-.28-.15.01-.09.25.08.25.2.3h.3l.49-.17.34-.23.45-.49.17.03.22-.47.13.2.32.17.31-.33.1-.41-.05-.28-.2-.12.27-.74.47-.45.56-.05.4-.38.7-.08.38.17.73.12.6-.17.19-.24.42-1.12.66-.32.43.35.25-.01.52-.3.25.02.3.36.22.4-.28 2.76.4 1.41.6 1.02.38.41-.25.27.33 1.42.46.3-.14.51-.18.1-.06.34-.28-.05-.24.15.08.35-.23.03.02-.33-.4-.27-.36.28-.1-.31-.43-.05-.07.07.03.4-.23.02-.2.41-.14-.07-.3.23-.24.56.28.3.23.08.18-.17.03.34-.13.17.73.28.51-.19.1-.42.09.13.16-.08-.08-.3.23.08.12.25.22-.15.04-.16.24.24.28.03-.1-.19.21-.1.2.1.07.33.35.21.03.13.25.09.17-.13.23.15.23-.11.73.24.04.36-.2-.06-.24.24v.2l-.18.1-.1.25.01.36.21.19.44.28.7.73.25.09.1-.08.4.36.19.03.13.3.25-.01v-.29l.56-.17.1.28.62.19.43.72-.24.3.1.12-.12.3h-.7l.03.15-.31-.1-.24.16-.22-.07-.35.3-.06.45-.38-.3-.98-.1-.3.09-.13-.08-.3.1-.04-.15-.32-.06-.21-.16-.34.18-.19.02-.11.23-.27.03-.43-.13-.02.09.32.3-.2-.05-.1-.2-.29.03-.06.14-.58-.3.07.33-.26-.13v.11l-.34-.13-.24.03-.24-.21-.13.1.44.6.05.31-.15.08-.25-.09-.1.16-.26.08-.36-.23-.25.28-.19-.06-.31.15-.23-.02.3.33-.2.22-.47.05-.27-.15-.03.14.37.28-.59-.26-.59-.37.12-.3-.2-.23.19-.17-.42-.33.13-.04.48.24.24-.12-.2-.15h-.17l-.38-.26-.5-.07-.04.15-.3-.08-.16.22.18.42.14.11-.08.2.08.23-.46-.22-.1-.43-.54-.1.01.22-.18.04.19.22-.13.2.09.19-.39.11-.1-.28.02-.41-.2-.52-.26-.4-.47-.22-.38.12-.1.13h-.41l-.13.08-.13-.24-.38-.06-.38-.27-.2-.05-.4.28-.17.4-.02.57.25.32v.4l-.12.24.26.22-.04.2-.45.02-.02.2-.28.05-.12.2-.1.64.16.22.35.15.19.34-.29-.02-.1.1.06.58.19.14.2.51-.14.2.3.04.38.35-.1.16-.65.15-.2.28-.64-.2-.53-.3-.2-.24-.37.13-.23-.09-.2-.27-.13-.48-.42-.08-.39-.15-.36-.43-.44.1-.12-.05-.5-.65-.31-.35-.8-.65-.75-.5-.26-.13-.48-.06-.46-.16-1.05-.03-.04-.1-.67-.33-.5-.06-.26.15-.2-.28-.25-.06-.14.17.05.26-.9-.25-.12.1-.39-.16-.23.03-.55-.15-.28-.02.04-.1-.3-.07-.4-.22-.44-.04-.24.08-.18.2.03.12-.23.3-.38-.55-.5-.15-.3.03-.3.25-.03.32-.81-.21-.43.04-.43.26-.36.43-.45.66-.12.47-.25.21-.35.67-.13.56-.18.26-.11.3-.28.23v.48l-.65.18-.13.29-.45-.12-.72.06-.5-.02-.58-.2h-.45l-.32.16-.24.44-.48-.05-.68.13-.3.3-.25.38.01.52.2.08.1.28-.48-.21h-.2l-.33-.23-.97-.26-1.44-.2-.7.03-.63.16-.44.31-.1.13-.64-.01-.4-.14-.24.05-.26.16-.14.4-.5.01-.48.25-.1.18.12.16-.15.25-.42.2-.32.55.08.26v.32l-.13.6.02.17.2.24-.24.3.02.14-.14.33.13.35-.12.24v.28l.2.16-.17.28-.23.03-.1.14-.44-.2-.03.22-.17-.16-.19.03-.32.2-.02.48-.12.45-.24-.01-.12.25-.44-.2-.15.17.07.18-.11.25-.4-.15-.24.06-.03.14-.34.1v.21l.28.08-.01.16-.2.1.03.18.2.08-.22.15v.24l-.26-.1-.23.04-.28-.08-.2.17-.05.45.13.39-.17.2.06.45-.4-.07-.22.1-.13.25.14.52.3.78.28.38-.16.14-.07-.19-.42-.31-.38.11-.36-.11-.56-.37-.22-.53-.16-.06-.1.27-.27-.52-.07-.57.3-.26.27.05.28-.16.17-.35-.21-.57.14-.29.34-.06.03-.34.18-.27.03-.28.2.14-.06-.4-.32.02.06-.22.2-.05-.2-.3.34-.06.28.3.37-.27.28.15.27.02.04-.13-.28-.3-.23-.1v-.35l.11-.17h.2l.1-.29-.12-.2.05-.39.28-.2.05-.3.15-.24-.13-.69-.16-.3-.6-.36H962l-.3.18-.26.67-.33.07-.2.23-.14.32.09.52-.25.04-.04.32-.17-.11-.13.12-.27-.08-.58-.07-.4.1-.34-.17-.01-.13-.3-.33-.37-.03-.48.31.08.58-.09.2.28.22.16.47-.07.4.21.02-.7.24-.07.2.26.36-.15-.04-.28.19-.1.23.12.3-.22.16-.23.5.2.43-.46.31-.07.17-.64.06-.17.07-.26.46-.18-.18-.36.08-.16.57-.1.05-.1.35-.22-.56-.24-.08-.13-.32-.03-.6h.07l-.07-.98-.14-.13-.14-.52.02-.26-.18-.34-.09-.42-.3-.19-.16-.42.35-.2.03-.34.26-.28.08-.3.3-.47-.09-.63-.37-.17h-.3l-.14.3.16.08-.24.15-.16.56-.38.49.26.2.3.1-.4.33-.43.21-.2.41-.08.32.08.79.11.36-.12.12.02.42.24.29.42.11-.22.21-.2.06-.2.6.3.3-.76.34-.1.11.06.32-.61.28-.25.3-.48.34-.16.2v.29l-.4.44-.02.36-.09.1-.35 1-.13.19-.05.42-.25.3-.17.51v.39l-.12.25-.07.44-.11.23-.01.38-.29.6-.06.42-.22.26-.03.32-.15.2.04.33.2.18-.16.5-.46.42-.02.39-.2.42-.35.38v.63l-.28.26.1.3-.28.25-.17.33-.08.36.06.36-.46.59-.12.39-.56.94-.22.49.02.13-.38.49-.1.4-.5.38-.15.42-.24.21.01.23-.27.3.14.36-.22.14-.07.4.1.28.47.55m32.6 13.6-.01-.2.1-.8-.06-.8-.19-.6-.37-.72-.2-.25-.5-1.08-.06-.74.12-.4.32-.28 1.08-.57.3-.23.21-.27.46.04.3-.03.32-.14.3-.4.2-.55.03-.39-.22-.75.1-.33.04-.5-.07-.45-.27-.94-.1-.6.01-.67.15-.2.31-.17.56.3.29.06.35-.08.25-.22.12-.3.06-.48.27-.4.15-.46.03-.32.14-.16.34-.05.59.25.32.41.25.09.34-.02.39-.13.59-.4.36-.72.12-.42-.05-.55-.13-.27.32-.46.1-.6.23-.5.57-.42.27-.32.08-.3.2-.32.07-.43-.06-.3.25-.69.03-.33.62-1.42.3.24.45-.14.4-.45.2-.62.23-.05.13.3.28.33-.05.4-.39.37-.17.3.22.5h-.14l.13.3-.17-.12v-.27l-.2-.26-.27.07-.35.21v.29l-.21.45.27.55.22.09.04.42.43.55.2.05.24.28.07.5-.08.08-.29-.4-.14.02-.05.3-.11.1.03.7-.14.3-.5.56-.16.87.42.07.33-.56.05-.27.17.01.02.5.12.74v.39l.16.42-.53.19-.02.47-.22.77v1.1l.11.54.33.61.23.3-.05.8.33.21.34.02.42-.19-.06-.18.14-.9v-.49l.2-.28.22-1.25.3-.37-.03-.53.09-.21-.2-.1-.33.06.01.16-.2.27-.14-.22.44-.76.13-.62-.05-.36.13-.44-.05-.42.39-.31.18-.31.31-.1.36.79v.19l-.3-.04-.16.12.1.18-.03.82.1.28-.04.28.12.22-.02.57-.07.39.1.51-.19.3-.6.53-.27.54-.05.36.12.61-.16.5-.08.42.13.13.43.15.6-.07.35-.63.04-.23-.21-.44v-.26l.14-.3.55-.48.16-.3-.05-.15.16-.51v-.27l.27-.51.14-.46-.02-.4.27-.38.04-.46.13-.39.05-.57-.05-.16.05-.4.02-.38-.1-.34.1-.48-.21-.45-.11-.87.02-.3.17-.46-.12-.15.04-.39-.06-.8-.29-.41-.25-.77-.2-.92-.2-.3-.13-.56-.07-.9.15-1.05.22-.23.08-.27.26-.11.24-.56.3-.14.23-.55.2.23.38-.1.36-.4.04-.45.29-.01.26-.3.35-.54h.24l.42-.17.16-.16.34-.1.2-.17.67.1 1.18-.13.3.05.6-.4h.43l.69-.4h.07l.39-.37.17-.03.26-.24-.02-.53-.27-.35-.76-.05-.55.03-.2.17.3.16-.29-.04-.53-.23-.54-.02-.56-.4-.08-.02-.5-.54-.33-.28-.2-.55-.31-.55-.27-.63-.24-.9.08-.56.33-.5.02-.18.2-.4.05-.4.22-.35.16-.05.43-.34.35-.16.27-.36.08-.6.26-.09.22-.3.28-.62.14-.07.02-.41-.07-.2-.52-.43-.25-.01-.14-.17-.36.1-.4-.1-.06-.22.43.1 1.11-.22h.41l.42.23.22-.03.2-.3.18-.05.87.22.36-.31.29.15.24-.06.2-.2.12-.3-.05-.31h-.14l-.15-.31.37-.29.5.12.36-.23.16.02.21.24-.13.07.1.25.98.24.06.19.56.06.54.28 1.4.48.38-.02.16.33.39.23.32.07.3.22.3.05.2.24.4.07.3.15.4-.12.3.26.2-.2v-.17l-.42-.17.13-.2.33-.09.33.15.55.16.98-.47.99.22.4.17.79.1.47.01.47.34.8.78.75.51.3.45.09.44.28.72.2.27.6.36.45.07.29-.04.38-.25v-.1l.6-.02.15.1.3-.06.38-.2.2.04.52-.08.67.1.32.24.4.21.63.57.42.29.25-.02.17.2.34.14.49.08.44.2.22-.2.38.2.14-.3.42-.16.5.5.6.24.2.02.84.44.32-.03.25.06.23.24.2.01.05-.16.12.12.27.07.06-.14.22.03.18-.15-.01-.19h.16l.46.26.6.14v-.33l-.2-.28.2.01.18.26.17.1-.19.1-.04.21.28.27.03-.2h.29l.11.35.24-.06.21.37.25.04.26.16.04.2.33.06.5.24.2.2-.13.57h-.54l.17.18v.3l.23.37.26.18.3.47.1-.03.37.56.08.37.23.25h.26l.46.55.02-.15.34.07-.08.3.23.2-.12.18.24.24.02.36.29.12.13.18-.02.22.3.31.1.33-.31.11-.04.27.62.02.2.2.2.46-.49-.03-.54-.12-.21-.1-.48-.03-.28-.24-.15.03-.27-.32-.03-.2-.28-.2-.44.28-.68.53-.22.48-.07.62.1.17.52.26-.03.2-.3-.04-.1.2.27.54.2.88.18.33.37.38.5.16.25.22.07.22.43-.02.04.13.6.29.19-.06.6.05-.01.31.08.07-.08.34.25.46.38.36.06.28.2.33.08.38-.01.3.24.65-.1.35.2.54.3.42.3.2.06.69-.06.72.02.4-.3.95-.04.67.06.43.26 1.1.22.51-.08.91.17.88.03 1.33.1.47.26.67-.1 1.11.06.47.16.53-.12.32-.54.06-.17.17-.48.93-.23.28-.13.73-.3.69-.3.2.32-.58-.06-.18-.29-.14-.6-.01-.61.33-.3.43-.21.47-.13.7.08 1.18-.08 1.11.13.92.23.66h-.1l-.33.69.05.51.35.57-.73-.07-.85.27-.57.62-.03.3.07.49.23.76-.52-.02-.16-.18-.28.18-.18-.25-.21.13-.18.35-.14.12-.88.14-.85.1-.06.18-.24.16-.1.47-.17.26-.24.02-.01.51-.15.7-.3.25v.16l-3.02.52-.48-2.67-2.7.49-.89-5.14-1.77.31-2.7.52-5.33.92-3.6.6-2.7.44-1.35.2-3.02.44-2.84.44-2.64.43-.35-1.8-.4-2.38-.68-3.92-2.68.45-1.32.24-5.3.85-.12-.94-.29-1.83-4.5.7-2.65.36-2.25.27-1.19.15m64.5 4.78-.04-.29.31.12.06.12-.18.22-.15-.17m-.9-32.7.14-.04.55.52-.36-.1-.08-.19-.26-.19m0 .12.08.26-.23.08-.14-.24.28-.1m-3.14-3.84-.29-.04.03-.24h.25l.15.21-.15.07m-16.37-23 .04-.33.13.05.24-.66.35.1.12.14-.15.22.26.23-.08.2.27.04.3.24.1-.04.17-.48.2-.03.22-.68-.06-.24.2-.1.2.15.22-.08.15-.39.31-.2.54.03.05-.17-.22-.14.43-.35-.18-.24-.05-.29h-.51l-.75-.22.19-.49.33-.13.93-.08.24-.14.52-.06.25.17.54.13.23-.07.15.16.15.4.2.22.2.03.28.35.15.3.12.57.2.12.1.2.24-.1.37.36.22-.17.32.04.22.35-.11.41-.18.16-.15.29.1.3-.08.3-.16.11.06.35-.3.36-.3-.28.02.24-.17.13-.4-.1-.29.15v.13l-.62-.22.03-.41h-.27l.03.2-.29.2-.08-.26.22-.26-.28-.35-.13.03.17.4-.14.16-.1-.22-.22.17-.11-.06-.6.43-.31-.14-.08.23-.13-.02-.06.2-.25-.42-.13-.05v.27l-.2.06-.23-.08-.2-.4-.26.09-.13.16v.31l-.13.24-.4-.2-.48-.32.01.38-.12.19-.16-.04.13-.18-.17-.25-.21.06.02-.2-.14-.11-.1.1h-.29l-.39-.18.08-.3-.08-.33.2-.27-.1-.09m2.2-2.45.16.22.27.03.02.23-.18.23.01.18-.3-.07-.2-.32-.07.2-.1-.23.18-.46.21-.01m-2.9.43.11-.2.1.22-.2-.01m.95-.2-.19.1.03-.28.16.19m-.3-.13-.1.14-.26-.18.13-.16.24.2m-3.06.02.4.38.06.29-.48-.24-.44-.28.08-.29.27-.01.1.15m3.68-1.26.2.06.33-.11.02.16.4.25-.12.05-.3-.1-.16.12-.01-.22-.23.04v.16l-.32-.1.2-.3m-31.93 45.2v-.2l.23-.13.02.25-.25.07m-11.9-3.73.2.24-.42.08-.08.25.27.37-.45.42-.43.14-.45-.11-.07-.5.24-.82.41-.25.36.13.41.05m1.9-3.44.13.47-.08.21.04.93.23.41.41.33h-.36l-.46.33-.2-.06-.26-.33-.4-.34-.23-.24-.44-.27-.06-.44-.24-.75.03-.4.3-.29h.86l.39.07.35.37m1.07-9.09-.26-.21-.3-.56.75.13.53.43.19.44.01.68-.15.26-.13-.42-.64-.75m1.67-1.86-.17-.28-.24-.11.18-.35.29.12.13.33v.43l-.19-.14m-21.63 2.12.05.02.11.8h-.16l-.36-.25-.14-.29v-.34l.18-.08.32.13m1.9-1.12.12-.05.09.32-.15.05-.07-.32m.46-1.5-.01.1.26-.01.17.4-.08.34-.28.24-.16-.01-.2-.36-.23-.68.1-.28.43.26m-.85-.87-.14.27-.25.18-.3-.22.16-.43.34.05.19.15m23-4.32.05-.24-.25-.75.09-.2-.05-.38.22-.55.14-.1.2-.38-.1-.5.18-.27-.04-.24-.15-.18v-.34l.38.03.16.16.39-.03.39-.21.1-.01.14.25-.26.15-.01-.17-.22.14.03.25.16-.01.37.27-.01.28.12.06.14.5-.15.27-.04.32.21.5.3.35.13.43.07.51-.02.44-.3.21-.03.2-.35.21-.24.57-.44.16-.32-.02-.2-.13-.5.11-.38-.14-.18-.34.1-.37-.03-.54.2-.27m-5.28-1.5.06.32-.18.12v-.32l-.08-.3.2.19m3.12-1.84.42.05.4-.04-.18.1.01.26.14.3-.05.22-.46.7-.38.01.11-.72-.16-.17-.16-.35.12-.32.19-.04m13.6-2.94.1.07.42-.11.28.08-.14.25-.37-.05-.78.08-.08-.09.57-.22m10.8-3.08.4-.04.32-.16.8.25.68.12.28.1.25-.3-.09-.5.43.67.17.13.16-.06.86.28-.25.5.01.36-.37.23.02.37-.24.22-.29.1-.4-.18-.32.1-.54-.09-.12.12-.47-.16-.18-.22-.08-.26-.4-.17-.04-.13-.64-.67-.3-.14-.46-.13-.24-.29.2-.26h.12l.73.21m-24.67 5.17.1.14-.28-.08.19-.07m6.5-1.36.18-.22-.12-.44.16-.16-.23-.08.21-.2h.18l.31.4.04.26-.18.21.14.33-.17.1-.21.26-.57-.16.27-.3m-3.23-.66-.08-.19.25-.02.42.11.69.38.05.25.38.06.04.16-.22.2.28.21-.49.19-.07-.14-.2-.03-.15.26-.3-.13.05-.36.15-.1-.3-.08h-.53l.23-.27-.27-.3.07-.2m-1.67.59-.12.18-.15-.1.1-.12.17.04m21.87-3.94-.38-.1-.08-.25.24-.01.26.2-.04.16m-21.78 3.11.23-.1-.04.2-.19-.1m15.48-3.2-.1-.29.4.17-.05.2-.25-.09m5.02-1.67.36.16.58.7-.28.11-.07.16-.47-.14-.27-.18.03-.48-.06-.28.18-.05m1.16-2.37-.32-.16.01-.34.32.05.08.29-.09.16m-1.02-.37-.13.37-.24.14-.2-.07.03-.22-.16-.22.08-.27.62.27m-51.9-8.17.18-.06.01.21-.2-.15m4.57-2.94.37-.2.23.29.48.44.01.55-.04.4-.11.13-.07.45.27.26.18-.07.17-.4.14-.1.12.54-.01.24-.23.43-.38.1-.19-.21.22-.33-.5.12-.16.66-.38-.13-.06-.23-.08-1.14-.27-.08-.15-.22-.14-.54-.18-.49.2-.32.39-.26.17.11m-1.38 1.76-.08-.24.26.1.04.23-.22-.09m-14.76-.92-.06.22-.1-.14.16-.08m-20.31-12.1-.03.14-.24.01.1-.17.16.03m12.56-12.77.26.02.07.16-.06.29-.38.04-.36-.2-.4.05.25-.1.3-.3.32.04m-36.06-9.71.15-.28-.2-.12-.37.29-.1-.08.41-.27.06-.5.35-.27.01-.14.42-.45 1.65-1.24 1.74-1.1.27-.22.86-.5.02-.07.4-.22.13.02.58-.31v-.2l1.14-.84-.23.44.51-.27v-.1l.72-.37.17-.18.08-.37.14-.2 1.1-.76.63-.58.14-.48 1.03-.75.71-.31.62-.48.5.24.49-.16.36-.4.45-.2.26-.01.48-.3.13.3.02.32-.5.55-.72.7-1.58 1.52-.16.3.1.31.04.37-.2.3-1.63 1.55-.96.65-.94.44-.12.14-.42.1-.33.26-.5.31-.4.02-.28.15-.46.36-.2-.02-.49.4.03.18-.44.25-.37.34-.74.5.12.25-.13.07.13.24.47-.22.42-.03.17.11 1.03-.5-.2.37-.81.47-.5.26-.8.51-.57.22-.56.32-.89.6-.14.13-.47.08-.3.17-.41-.19-.28-.04-.03-.25-.15-.2-.23-.07-.55.06.22-.48-.03-.06.42-.53-.22-.05-.3.32-.6.32-.16-.02.14-.2.65-.22m16.98-13.13-.27.25.1-.28.4-.3.1.05-.33.28" fill="#d1dbdd" stroke="rgb(209, 219, 221)" stroke-width="0.1" data-originalStrokeWidth="0.1" style="stroke: rgb(0, 0, 0); fill: rgb(209, 219, 221); pointer-events: auto; stroke-width: 0.1;" pointer-events="auto"/>
      <path id="MI02" d="m975.82 202.95 1.2-.15 2.24-.27 2.65-.36 4.5-.7.28 1.83.13.94 5.3-.85 1.32-.24 2.68-.45.69 3.92.4 2.38.33 1.8 2.64-.42 2.85-.46 3.02-.44 1.35-.19 2.7-.45 3.6-.59 5.33-.93 2.7-.5 1.77-.32.9 5.14.48 2.63.42 2.69-.9.13-3.56.56.52 3.2-2.66.42.54 3.28.81 4.87 2.69-.46.8 4.64 1.05 5.88.06.33-2.24.39-2.82.48-2.64.45-2.88.45.56 3.42.34 2.05.93 5.42-2.7.45.5 3.03.4 2.38-.43.07.07.48-.88.15.37 2.16-.01.1-1.34.24.5 2.73-5.18.91-1.4.24-4.16.61-.87-5.3-.5-2.83-.44-2.7-.43-2.7 2.64-.49-.47-2.55-.38-2.45-.52-3.17-1.34.23-1.18.17-.13-.3.21-.14-.17-.33-.44.07-.1.12.05.32-.35.03.14.39-2.3.4-1.58.2-3.58.53-.45-2.72-1.57.26-1.12.17-2.65.43-.13-.9-.43.07-.03-.11-.34-.02-.03-.17-.22.03-.03-.18-.34.02-.1-.61-.16.15-.15-.11-.34.15-.3.34-.34.11-.24.3-.17-.15-.18.2-.59.15-.29-.05-.35.24-.04-.2-.37-.36.18.26-.36-.55-.83-1.2-.84-1.52-.43-.87-.46-1.06-.63-1.6-.46-.9-1.2-1.78-.29-.49-.32-.73-.13-.47-.06-.8.11-.64.33-.7.52-.95.35-.74.24-.83.12-.98-.04-.82-.23-.87-.14-.33-.27-.69-.19-.88-.23-.66-.2-.24-.16-.7-.58-.87-.5-.58-.22-.32-.2-.45-.05-.33.23-.58 1.06-1.13.31-.5.28-.64.3-1 .11-.54.37-.8.17-.71.06-.65.31-.48.16-.7.23-.8.53-1.26.04-.77v-.48l.06-.55v-.63l-.08-.45-.16-.5-.07-1 .08-.2.05-.96" fill="#d1dbdd" stroke="rgb(209, 219, 221)" stroke-width="0.1" data-originalStrokeWidth="0.1" style="stroke: rgb(0, 0, 0); fill: rgb(209, 219, 221); pointer-events: auto; stroke-width: 0.1;" pointer-events="auto"/>
      <path id="MI03" d="m984.22 254.38.08.4.1.82-.1-.88-.08-.34m-.53-2.25-.36-1.4-.29-.82-.41-1.03-.22-.3v-.23l-.18-.48-.56-1.05-.3-.51-.7-1.17-.13-.19-.07-.14-.05-.07-.45-.66-.04-.06-.03-.04-.09-.12-.12-.11-.1-.12-.2-.44-.15-.19-.1-.13-.02-.05-.18-.26.37.36.04.2.35-.24.3.05.58-.14.18-.21.17.15.24-.3.34-.11.3-.34.34-.15.15.1.16-.14.1.61.34-.02.03.2.22-.05.03.17.34.02.03.1.43-.06.13.9 2.65-.42 1.13-.18 1.56-.26.45 2.72 3.58-.52 1.57-.21 2.3-.4-.13-.39.35-.03-.06-.32.11-.12.44-.07.17.33-.2.14.12.3 1.18-.17 1.34-.23.52 3.17.38 2.45.48 2.55-2.64.5.41 2.7-5.36.85-.2-1.13-.23-1.63-.28-1.72-.34.05-.9-.65-.24.05-.21-.22h-.32l-.34-.35-.38.06.04.23-.24.05.03.21-3.16.52-1.77.28-2.23.33" fill="#d1dbdd" stroke="rgb(209, 219, 221)" stroke-width="0.1" data-originalStrokeWidth="0.1" style="stroke: rgb(0, 0, 0); fill: rgb(209, 219, 221); pointer-events: auto; stroke-width: 0.1;" pointer-events="auto"/>
      <path id="MI04" d="m981.01 281.1.03-.05V281l.08-.24v-.01l.05-.15.32-1.3-.01-.36.17-.24.24-.37.5-.93.04-.12.27-.49.02-.02.2-.39.03-.05.1-.21.12-.24.03-.1.03-.05.13-.28.1-.25.26-.65.14-.4.51-1.88.36-1.57v-.48l.1-.71-.04-.22.12-.39.22-1.01.1-1.52-.09-1.56v-.91l.08-.36v-.5l-.28-1.32.15-.73.06-.84-.04-.77-.2-1.18-.18-.73-.05-.05-.01-.23-.03-.2v-.08l-.03-.07-.08-.54-.08-.44-.04-.28-.1-.8-.1-.4-.11-.41v-.02l-.03-.16v-.09l-.03-.1-.05-.14-.03-.11v-.1l-.13-.6-.04-.17-.1-.34v-.02l2.23-.34 1.77-.27 3.16-.52-.03-.2.24-.06-.04-.23.38-.06.34.34h.32l.2.23.25-.05.9.65.35-.05.27 1.72.24 1.62.19 1.14 5.37-.86.44 2.7.5 2.84.87 5.3 4.15-.62 1.42-.24 5.16-.92h.18l.32 1.82.65 3.61-2.66.46-1.11.17-1.6.28.47 2.74-5.6.95-2.36.37-.76.1-2.02.34.48 2.75-4.37.67-5.23.78-1.86.25-4.01.6.11.57-.35-.05-.1.23-1.35.2.03.24-.2.02.01.17-.18.04.15-.47" fill="#d1dbdd" stroke="rgb(209, 219, 221)" stroke-width="0.1" data-originalStrokeWidth="0.1" style="stroke: rgb(0, 0, 0); fill: rgb(209, 219, 221); pointer-events: auto; stroke-width: 0.1;" pointer-events="auto"/>
      <path id="MI05" d="m980.87 281.56.17-.04-.02-.17.21-.02-.03-.24 1.34-.2.1-.23.36.05-.12-.57 4.02-.6 1.86-.25 5.23-.78 4.37-.67-.48-2.75 2.02-.33.76-.1 2.36-.38 5.6-.95-.47-2.74 1.6-.27 1.1-.18 2.67-.46-.65-3.61-.32-1.84 2.87-.5 4.68-.76 3.02-.53 5.36-.94v-.1l3.73-.63 1.59-.27.45 2.72.5 2.72.37 2.54.58 3.04 2.83-.57-.04-.15 6.75-1.38.1.47.35-.11.22-.16.1.22.12-.21h.33l-.08-.46.35-.03 2.22-.46 2.91-.6-.02-.2 2.85-.54.3.1.2.38.16-.01.2.18.12-.17.17.15-.05.14.28.03.29.16.06.16.27-.03.05.13.46.17-.06.06.26.23.3-.06.26.11-.03.24-.36.61-.38.35-.36.12-.42.54-.07.44.17.46-.18.2.02.24-.2-.2-.32-.1-.3.03-.28.21-.2.28-.16.62.04.79-.1.33-.27.23-.35-.02-.21.23-.25.67-.16.78-.17.26-.33.15-.1.34.06.6.08.24.47.9.06.3-.13-.12-.42.25-.02.25-.3.06-.25.06h-.07l-.2.06-.29.05-.38.1-.2.05-.54.12-.31.06-.14.03-.28.06-.46.1-.42.1-.1.02-.26.06-.36.09-.24.04-.44.08-.08.05-.24.06-.22.04-.8.19-.41.1-.43.08-.57.13-.33.07-.44.09-.44.1-2.68.6-2.15.45-1.67.38-.32.06-.78.17-.4.09-.48.1-.43.1-.47.09-1.64.36-.42.08-.75.15-.14.03-.23.06-.66.13-.43.09-2.2.44-.45.1-.44.09-1.79.35-.9.18-1.32.28-.44.1-.22.04-.23.05-.06-.36-.16-.93-.07-.46-.13-.22-1.04.16-.32.07-.7.12-.76.13-.35.06-.54.08-.23.05-.9.14-.66.12-.34.05-.33.07-.46.07-.15.02-1.78.29-1.56.26-.1.02-.75.12-.14.02-.36.05-.22.04-.46.07-.4.08-.55.1-.92.14-.18.02-1.38.25-.44.05-.87.14-.3.06-.33.06-.25.03-.09.02-1.22.2-.28.04-.27.04-.33.08-.7.09-.47.09-.5.08-.58.08-.36.06h-.03l-.45.07h-.1l-.27.06-.95.14-.2.04-.47.06-.44.07-.46.05-.32.06-1.05.17h-.13l-.45.07-.47.07-.34.06-.26.04-.95.13-.05.02-.62.1-.45.07-.5.07-.9.14-.65.1-.1.03h-.1l-.4.07h-.07l-.67.1-.21.05-.23.04-.19.03-.22.02-1.24.2-.46.09-.78.12-1.23.18-.2.03-.57.09-.72.11h-.07l-.72.1-.5.08-.77.12h-.09l-.23.05-.69.1-.52.08-.67.08v.01l-.6.1h-.16l-.38.07h-.12l-.16.03h-.04l-.07.01h-.07l-.06.03h-.04l1-.93 1.21-1.3.22-.3.44-.45.28-.54.36-.46.56-.84.43-.91.24-.8.38-2.1.34-1.07" fill="#d1dbdd" stroke="rgb(209, 219, 221)" stroke-width="0.1" data-originalStrokeWidth="0.1" style="stroke: rgb(0, 0, 0); fill: rgb(209, 219, 221); pointer-events: auto; stroke-width: 0.1;" pointer-events="auto"/>
      <path id="MI06" d="m1057.2 268.73-.46-.17-.05-.13-.27.03-.07-.16-.3-.16-.26-.03.05-.14-.17-.15-.13.17-.19-.18h-.16l-.2-.37-.3-.1-2.85.56.02.18-2.92.6-2.21.46-.35.03.08.46h-.33l-.12.2-.1-.2-.22.15-.36.1-.09-.46-6.75 1.38.03.15-2.82.57-.58-3.04-.37-2.54-.5-2.72-.45-2.73 2.04-.35 2.2-.39 4.11-.9.36-.05 4.39-1-.4-1.8 1.46-.34.03-.23.24-.06.04-.42-.1-.32.8-.17.6 2.72 1 4.69.22.96.5 2.4 2.66-.56.87-.22 2.54-.54.18-.6.26-.05.1.89.43 1.11.2.38-.1 1.2-.54.2-.2.4-.45.39.2.37v.23l-.24.3" fill="#d1dbdd" stroke="rgb(209, 219, 221)" stroke-width="0.1" data-originalStrokeWidth="0.1" style="stroke: rgb(0, 0, 0); fill: rgb(209, 219, 221); pointer-events: auto; stroke-width: 0.1;" pointer-events="auto"/>
      <path id="MI07" d="m1012.55 264.23-.17.03-.5-2.73 1.34-.23.01-.1-.37-2.17.88-.15-.07-.48.44-.07-.41-2.4-.5-3.02 2.7-.44-.94-5.42-.33-2.05-.56-3.42 2.88-.45 2.64-.45 2.83-.48 2.23-.4-.06-.32 1.86-.34 2.64-.46 2.64-.56 2.73-.52.51 2.75.46 2.73v.02l.54 2.72.36 1.6.21.02.09.38.43-.1.13.69 2.01-.35 2.68-.56.27 1.37.4 1.79.53 2.32.75-.19.05.35.25.06.28-.08.35.03-.02.15.7.16.02-.1.43-.09.6 2.73.4 1.8-4.38 1-.36.04-4.11.91-2.2.4-2.04.34-1.59.28-3.74.64v.1l-5.35.93-3.02.53-4.68.76-2.87.5" fill="#d1dbdd" stroke="rgb(209, 219, 221)" stroke-width="0.1" data-originalStrokeWidth="0.1" style="stroke: rgb(0, 0, 0); fill: rgb(209, 219, 221); pointer-events: auto; stroke-width: 0.1;" pointer-events="auto"/>
      <path id="MI08" d="m1037.07 222.46 1.28 6.98.2 1.2.09-.01.33 1.88 1.64-.3.09.45.22-.04.18.9 3.38-.64.79 4.05.24 1.35.75 3.65.37 1.7-2.64.6-2.66.54.55 2.74-2.68.55-2 .35-.13-.7-.44.12-.09-.4h-.22l-.36-1.6-.54-2.73.01-.02-.46-2.73-.51-2.75-2.73.52-2.64.56-2.64.46-1.86.34-1.05-5.87-.8-4.65-2.69.46-.8-4.87-.55-3.28 2.66-.43-.52-3.19 3.57-.56.9-.14-.43-2.68-.49-2.63 2.7-.5.48 2.68 3.02-.52.07.76.1.52v.82l.23 1.02-.1.37-.02.8-.18.17.04.24-.26.13.04.36.22.29.28.7.8 1.1.45.3.36.17.74.25.25-.3.35.22.18.03.04.18.25.05.23-.05 1.4.25.86.43.15.35m-3.12-2.15.03.23-.32.06.04-.23.25-.06" fill="#d1dbdd" stroke="rgb(209, 219, 221)" stroke-width="0.1" data-originalStrokeWidth="0.1" style="stroke: rgb(0, 0, 0); fill: rgb(209, 219, 221); pointer-events: auto; stroke-width: 0.1;" pointer-events="auto"/>
      <path id="MI09" d="m1037.07 222.46.35.1.14-.2.2-.07.39-.53.38-.68.42-.81.28-.65.24-.32.14-.44.18.01.05-.29-.07-.12.23-.35h.08l.18-.33.18-.08.09.11.52.11-.03-.13.44-.63-.02-.2-.3-.1.05-.22.4.06.21-.67.02-.34.24-1.22-.24-.23-.3.22-.33.13-.05.55-.08.17-.27-.05.14-.34.17-.06-.08-.3-.02-.44.09-.03.2-.5-.18-.4.08-.23h.41l.06.23-.11.2.38.07-.01.16h.26l.11-.33.2.3-.05-.47.15-.2.3-.06.15-.13.37-.52.14-.42-.01-.31-.26-.28-.86-.02-.42.16-.22-.22.13-.1.44.05 1.17-.29.33-.2.4-.54.14-.39.17-.37.1-.41-.06-.2.33-.08.38-.21.68-.24.3.01.3-.22.42-.12.33-.23.43-.45.76-.02.43-.26.2-.34.25-1.02.07.02.73-.25.37-.63.2-.13.1.16h.22l.37-.31.81.22.16.19.34.12 1.46.14.07.11.43.08.3.38.37-.04.24.1.35.34.14.04.37.43.29.53.24.18.32.48.02.16.45.43.1.46.19.36.59.35.22.34.15.13-.03.31.38.3.26.7.2.3v.3l.27.23.08.23-.09.12.14.66.14.12.1.54.24.45-.03.38.29.76.01.34.22.56.02.29.26.56-.08.13.2.66.1.14.27.72.15.23.03.28.3.45.2.54.19.2.06.33.33.36.1.48.21.18.01.22.34.5.17 1.1.21.41.09.95.25.45.16.67v.35l.2.48.09.46.15.19-.06.27.11.24.2.82.17.37.3.45.4 1.04.26.54.24.78.19.46.43.4.29.53.71.97.42.5.14.26.17.04-.13.42.37.46-.02.33-.18.53-.32.51-.14.39-.08 1.26.21.89.03.7-.06.4v.53l.44.74.18.65-.18.95.09.47-.14.58-.16 1.2.2.87-.06.75-.1.29-.44.53-.1.26-.44.7-.05.36-.46.3-.48-.21-.4.16-.34.49-.28.67-.09-.4.19-.11.1-.3.24-.27.04-.2-.36-.23-.42.5-.17-.1.22-.68.12.06.18-.2.05-.36-.11-.07-.2.13-.2-.1-.19.29-.28.15-.26-.1-.08-.21.23-.33.3-.04.2-.37-.37-.26.56-.02-.04-.27.16-.62.39.27.17-.1.1-.46-.08-.29-.31-.27-.4.2-.56-.38-.27-.05-.34.08-.16.23-.39.1-.17.34-.24.05-.23.35.03.23-.43.21-.3-.03-.24.24-.13.3-.05.3-2.2.5-.06-.25-.19.06-.06-.2-.23.04-.1-.45-.86.2-.4-1.84-.86.2-4.46 1.01-2.08.47-.4.1-2.64.6-.09.03-2.33.51.04.24-.35.07.53 2.5.22.91-.43.1-.01.09-.7-.16v-.15l-.34-.03-.28.08-.25-.06-.05-.35-.75.2-.52-2.32-.4-1.8-.28-1.37-.55-2.73 2.65-.55 2.64-.59-.36-1.7-.75-3.65-.24-1.35-.8-4.05-3.37.63-.18-.9-.22.05-.1-.46-1.63.31-.33-1.88h-.08l-.21-1.19-1.28-6.98m26.36 27.05-.15.07-.05-.29.01.25.2-.03m-.34.87.36.03.07.09-.43-.12m-1.2 3.19-.09-.02-.02-.38.1.4m-20.54-37.3-.35.05-.03-.1.45-.06-.07.11m.16-3.87-.26-.17.08-.07.47.18.03.23-.32-.17" fill="#d1dbdd" stroke="rgb(209, 219, 221)" stroke-width="0.1" data-originalStrokeWidth="0.1" style="stroke: rgb(0, 0, 0); fill: rgb(209, 219, 221); pointer-events: auto; stroke-width: 0.1;" pointer-events="auto"/>
      <path id="MI10" d="m1062.42 248.62-.02.04v.15l.03.04.05.2.08.08.16.07.09.02.38.07h.04l.05.29.15-.07.11-.01.17.04-.06.07h-.03l-.04-.02-.23.08.02.26.03.05.06.08.01.05.1.18v.1l.02.1-.01.04h-.02l-.03-.03-.07-.1-.36-.02-.1.01-.06.02-.04.04-.05.02-.07.02-.04-.02h-.04l-.25.13-.07.06-.03.05-.07.08.01.1v.01l-.1.05-.03.13v.07l-.01.13-.02.01v.04l-.13.2-.04.1-.12.3-.02.08-.06.16v.1l-.02.43-.03.2.03.15.03.13h.02l.02.38h.09l-.05.03-.01.08.26.25v.02l.03.03.04.08.02.02.03.04.08.18.03.02-.01.03-.02.05-.02.02-1.27.25-3.09.7-.44.1-.6-2.73-.11-.45-.52-2.3-2.63.58-.43-1.93-.2-.79 4.46-1 .86-.2.4 1.83.85-.2.1.45.24-.04.07.2.18-.06.06.24 2.2-.5v.07" fill="#d1dbdd" stroke="rgb(209, 219, 221)" stroke-width="0.1" data-originalStrokeWidth="0.1" style="stroke: rgb(0, 0, 0); fill: rgb(209, 219, 221); pointer-events: auto; stroke-width: 0.1;" pointer-events="auto"/>
      <path id="MI11" d="m1045.89 253.27-.22-.91-.53-2.5.35-.07-.04-.24 2.33-.51.1-.04 2.63-.6.4-.1 2.08-.46.2.8.43 1.92 2.63-.59.5 2.31.13.45.6 2.73-1.53.3-1.13.25-.59-2.7-2.62.59.6 2.69-2.65.6-.59-2.73-.82.17.11.32-.03.42-.24.06-.03.23-1.46.34-.61-2.73" fill="#d1dbdd" stroke="rgb(209, 219, 221)" stroke-width="0.1" data-originalStrokeWidth="0.1" style="stroke: rgb(0, 0, 0); fill: rgb(209, 219, 221); pointer-events: auto; stroke-width: 0.1;" pointer-events="auto"/>
      <path id="MI12" d="m1050.57 261.87-1-4.69 2.64-.6-.6-2.68 2.63-.58.58 2.7 1.13-.26.05.46.22.9-.22.04v.53l.14.03.06.25-.13.12.08.45.15-.03.04.22.23-.05.02.35-.15.15.13.28.43.53.02.47-.22-.03-.31.29-.2-.22-.35.13-.25-.14-.3.82-.29-.11-1.26.26-.07.2-.44.1.04.22-.87.19-.15-.67-1.78.37" fill="#d1dbdd" stroke="rgb(209, 219, 221)" stroke-width="0.1" data-originalStrokeWidth="0.1" style="stroke: rgb(0, 0, 0); fill: rgb(209, 219, 221); pointer-events: auto; stroke-width: 0.1;" pointer-events="auto"/>
      <path id="MI13" d="m1057.8 263.26-.26.05-.17.6-2.55.54-.87.23-2.67.55-.5-2.4-.21-.96 1.78-.38.15.68.87-.2-.04-.22.44-.09.08-.2 1.26-.26.3.11.28-.82.25.14.36-.13.19.22.31-.29.22.03-.02-.47-.43-.53-.13-.28.15-.15-.02-.35-.23.05-.04-.22-.15.03-.08-.45.13-.12-.06-.25-.13-.03-.01-.53.22-.05-.22-.9-.05-.45 1.53-.3.44-.1 3.09-.69 1.27-.26-.1 1.8-.24.49-.24.18-.2.64.15.2-.46.24-.28.3-.62.35-.56.15-.27.13-.78.53-.33.38-.33.7-.12.87-.19.76.09 1.14" fill="#d1dbdd" stroke="rgb(209, 219, 221)" stroke-width="0.1" data-originalStrokeWidth="0.1" style="stroke: rgb(0, 0, 0); fill: rgb(209, 219, 221); pointer-events: auto; stroke-width: 0.1;" pointer-events="auto"/>
      <g id="state_lines" stroke="rgb(209, 219, 221)" style="display: none; stroke: rgb(0, 0, 0);" stroke-width="0.1"/>
      <g id="state_abbr" fill="#000000" style="display: none; fill: rgb(0, 0, 0);">
        <text id="HI_label" x="491.79" y="769.82" style="font-size: 19.2455px; stroke-width: 1.60379; display: none;">
          <tspan id="HI_tspan" x="491.79" y="769.82" fill="#000000" dy="0" font-family="Arial" font-size="24.06" font-style="normal" font-weight="400" style="text-align: center; stroke-width: 2.57215; fill: rgb(0, 0, 0);" text-anchor="middle">HI</tspan>
        </text>
        <text id="AK_label" x="205.24" y="672.25" style="font-size: 19.2455px; stroke-width: 1.60379; display: none;">
          <tspan id="AK_tspan" x="205.24" y="672.25" fill="#000000" dy="0" font-family="Arial" font-size="24.06" font-style="normal" font-weight="400" style="text-align: center; stroke-width: 2.57215; fill: rgb(0, 0, 0);" text-anchor="middle">AK</tspan>
        </text>
        <text id="FL_label" x="1188.11" y="708.7" style="font-size: 19.2455px; stroke-width: 1.60379; display: none;">
          <tspan id="FL_tspan" x="1188.11" y="708.7" fill="#000000" dy="0" font-family="Arial" font-size="24.06" font-style="normal" font-weight="400" style="text-align: center; stroke-width: 2.57215; fill: rgb(0, 0, 0);" text-anchor="middle">FL</tspan>
        </text>
        <text id="NH_label" x="1306.05" y="167.79" stroke-width="1.1" font-size="13.25" style="display: none;">
          <tspan id="NH_tspan" x="1306.05" y="167.79" fill="#000000" stroke-width="1.1" dy="0" font-family="Arial" font-size="16.56" font-style="normal" font-weight="400" style="text-align: center; fill: rgb(0, 0, 0);" text-anchor="middle">NH</tspan>
        </text>
        <text id="MI_label" x="1019.65" y="246.58" style="font-size: 19.2455px; stroke-width: 1.60379; display: none;">
          <tspan id="MI_tspan" x="1019.65" y="246.58" fill="#000000" dy="0" font-family="Arial" font-size="24.06" font-style="normal" font-weight="400" style="text-align: center; stroke-width: 2.57215; fill: rgb(0, 0, 0);" text-anchor="middle">MI</tspan>
        </text>
        <text id="VT_label" x="1274.28" y="145.01" stroke-width="1.05" font-size="12.65" style="display: none;">
          <tspan id="VT_tspan" x="1274.28" y="145.01" fill="#000000" stroke-width="1.05" dy="0" font-family="Arial" font-size="15.81" font-style="normal" font-weight="400" style="text-align: center; fill: rgb(0, 0, 0);" text-anchor="middle">VT</tspan>
        </text>
        <text id="ME_label" x="1338.99" y="105.14" stroke-width="1.45" font-size="17.36" style="display: none;">
          <tspan id="ME_tspan" x="1338.99" y="105.14" fill="#000000" stroke-width="1.45" dy="0" font-family="Arial" font-size="21.7" font-style="normal" font-weight="400" style="text-align: center; fill: rgb(0, 0, 0);" text-anchor="middle">ME</tspan>
        </text>
        <text id="RI_label" x="1361.38" y="262.84" stroke-width="1.25" font-size="14.98" style="display: none;">
          <tspan id="RI_tspan" x="1361.38" y="262.84" fill="#000000" stroke-width="1.25" dy="0" font-family="Arial" font-size="18.72" font-style="normal" font-weight="400" style="text-align: center; fill: rgb(0, 0, 0);" text-anchor="middle">RI</tspan>
        </text>
        <text id="NY_label" x="1227.27" y="204.12" style="font-size: 19.2455px; stroke-width: 1.60379; display: none;">
          <tspan id="NY_tspan" x="1227.27" y="204.12" fill="#000000" dy="0" font-family="Arial" font-size="24.06" font-style="normal" font-weight="400" style="text-align: center; stroke-width: 2.57215; fill: rgb(0, 0, 0);" text-anchor="middle">NY</tspan>
        </text>
        <text id="PA_label" x="1187.28" y="284.69" style="font-size: 19.2455px; stroke-width: 1.60379; display: none;">
          <tspan id="PA_tspan" x="1187.28" y="284.69" fill="#000000" dy="0" font-family="Arial" font-size="24.06" font-style="normal" font-weight="400" style="text-align: center; stroke-width: 2.57215; fill: rgb(0, 0, 0);" text-anchor="middle">PA</tspan>
        </text>
        <text id="NJ_label" x="1330.57" y="290.09" stroke-width="1.28" font-size="15.4" style="display: none;">
          <tspan id="NJ_tspan" x="1330.57" y="290.09" fill="#000000" stroke-width="1.28" dy="0" font-family="Arial" font-size="19.25" font-style="normal" font-weight="400" style="text-align: center; fill: rgb(0, 0, 0);" text-anchor="middle">NJ</tspan>
        </text>
        <text id="DE_label" x="1320.8" y="328.42" stroke-width="1.36" font-size="16.38" style="display: none;">
          <tspan id="DE_tspan" x="1320.8" y="328.42" fill="#000000" stroke-width="1.36" dy="0" font-family="Arial" font-size="20.47" font-style="normal" font-weight="400" style="text-align: center; fill: rgb(0, 0, 0);" text-anchor="middle">DE</tspan>
        </text>
        <text id="MD_label" x="1310.72" y="368.46" stroke-width="1.34" font-size="16.11" style="display: none;">
          <tspan id="MD_tspan" x="1310.72" y="368.46" fill="#000000" stroke-width="1.34" dy="0" font-family="Arial" font-size="20.13" font-style="normal" font-weight="400" style="text-align: center; fill: rgb(0, 0, 0);" text-anchor="middle">MD</tspan>
        </text>
        <text id="VA_label" x="1198.59" y="392.33" style="font-size: 19.2455px; stroke-width: 1.60379; display: none;">
          <tspan id="VA_tspan" x="1198.59" y="392.33" fill="#000000" dy="0" font-family="Arial" font-size="24.06" font-style="normal" font-weight="400" style="text-align: center; stroke-width: 2.57215; fill: rgb(0, 0, 0);" text-anchor="middle">VA</tspan>
        </text>
        <text id="WV_label" x="1129.66" y="382.3" style="font-size: 19.2455px; stroke-width: 1.60379; display: none;">
          <tspan id="WV_tspan" x="1129.66" y="382.3" fill="#000000" dy="0" font-family="Arial" font-size="24.06" font-style="normal" font-weight="400" style="text-align: center; stroke-width: 2.57215; fill: rgb(0, 0, 0);" text-anchor="middle">WV</tspan>
        </text>
        <text id="OH_label" x="1079.05" y="334.46" style="font-size: 19.2455px; stroke-width: 1.60379; display: none;">
          <tspan id="OH_tspan" x="1079.05" y="334.46" fill="#000000" dy="0" font-family="Arial" font-size="24.06" font-style="normal" font-weight="400" style="text-align: center; stroke-width: 2.57215; fill: rgb(0, 0, 0);" text-anchor="middle">OH</tspan>
        </text>
        <text id="IN_label" x="998.79" y="352.94" style="font-size: 19.2455px; stroke-width: 1.60379; display: none;">
          <tspan id="IN_tspan" x="998.79" y="352.94" fill="#000000" dy="0" font-family="Arial" font-size="24.06" font-style="normal" font-weight="400" style="text-align: center; stroke-width: 2.57215; fill: rgb(0, 0, 0);" text-anchor="middle">IN</tspan>
        </text>
        <text id="IL_label" x="927.43" y="364.36" style="font-size: 19.2455px; stroke-width: 1.60379; display: none;">
          <tspan id="IL_tspan" x="927.43" y="364.36" fill="#000000" dy="0" font-family="Arial" font-size="24.06" font-style="normal" font-weight="400" style="text-align: center; stroke-width: 2.57215; fill: rgb(0, 0, 0);" text-anchor="middle">IL</tspan>
        </text>
        <text id="CT_label" x="1299.17" y="228.46" stroke-width="1.06" font-size="12.74" style="display: none;">
          <tspan id="CT_tspan" x="1299.17" y="228.46" fill="#000000" stroke-width="1.06" dy="0" font-family="Arial" font-size="15.93" font-style="normal" font-weight="400" style="text-align: center; fill: rgb(0, 0, 0);" text-anchor="middle">CT</tspan>
        </text>
        <text id="WI_label" x="898.6" y="224.7" style="font-size: 19.2455px; stroke-width: 1.60379; display: none;">
          <tspan id="WI_tspan" x="898.6" y="224.7" fill="#000000" dy="0" font-family="Arial" font-size="24.06" font-style="normal" font-weight="400" style="text-align: center; stroke-width: 2.57215; fill: rgb(0, 0, 0);" text-anchor="middle">WI</tspan>
        </text>
        <text id="NC_label" x="1205.6" y="458.72" style="font-size: 19.2455px; stroke-width: 1.60379; display: none;">
          <tspan id="NC_tspan" x="1205.6" y="458.72" fill="#000000" dy="0" font-family="Arial" font-size="24.06" font-style="normal" font-weight="400" style="text-align: center; stroke-width: 2.57215; fill: rgb(0, 0, 0);" text-anchor="middle">NC</tspan>
        </text>
        <text id="MA_label" x="1305.87" y="200.67" stroke-width="1.04" font-size="12.46" style="display: none;">
          <tspan id="MA_tspan" x="1305.87" y="200.67" fill="#000000" stroke-width="1.04" dy="0" font-family="Arial" font-size="15.58" font-style="normal" font-weight="400" style="text-align: center; fill: rgb(0, 0, 0);" text-anchor="middle">MA</tspan>
        </text>
        <text id="MO_label" x="854.22" y="422.93" style="font-size: 19.2455px; stroke-width: 1.60379; display: none;">
          <tspan id="MO_tspan" x="854.22" y="422.93" fill="#000000" dy="0" font-family="Arial" font-size="24.06" font-style="normal" font-weight="400" style="text-align: center; stroke-width: 2.57215; fill: rgb(0, 0, 0);" text-anchor="middle">MO</tspan>
        </text>
        <text id="GA_label" x="1106.89" y="574.56" style="font-size: 19.2455px; stroke-width: 1.60379; display: none;">
          <tspan id="GA_tspan" x="1106.89" y="574.56" fill="#000000" dy="0" font-family="Arial" font-size="24.06" font-style="normal" font-weight="400" style="text-align: center; stroke-width: 2.57215; fill: rgb(0, 0, 0);" text-anchor="middle">GA</tspan>
        </text>
        <text id="SC_label" x="1166.32" y="522.49" style="font-size: 19.2455px; stroke-width: 1.60379; display: none;">
          <tspan id="SC_tspan" x="1166.32" y="522.49" fill="#000000" dy="0" font-family="Arial" font-size="24.06" font-style="normal" font-weight="400" style="text-align: center; stroke-width: 2.57215; fill: rgb(0, 0, 0);" text-anchor="middle">SC</tspan>
        </text>
        <text id="KY_label" x="1039.99" y="426.39" style="font-size: 19.2455px; stroke-width: 1.60379; display: none;">
          <tspan id="KY_tspan" x="1039.99" y="426.39" fill="#000000" dy="0" font-family="Arial" font-size="24.06" font-style="normal" font-weight="400" style="text-align: center; stroke-width: 2.57215; fill: rgb(0, 0, 0);" text-anchor="middle">KY</tspan>
        </text>
        <text id="AL_label" x="1019.59" y="578.15" style="font-size: 19.2455px; stroke-width: 1.60379; display: none;">
          <tspan id="AL_tspan" fill="#000000" dy="0" font-family="Arial" font-size="24.06" font-style="normal" font-weight="400" style="text-align: center; stroke-width: 2.57215; fill: rgb(0, 0, 0);" text-anchor="middle">AL</tspan>
        </text>
        <text id="LA_label" x="872.7" y="649.59" style="font-size: 19.2455px; stroke-width: 1.60379; display: none;">
          <tspan id="LA_tspan" x="872.7" y="649.59" fill="#000000" dy="0" font-family="Arial" font-size="24.06" font-style="normal" font-weight="400" style="text-align: center; stroke-width: 2.57215; fill: rgb(0, 0, 0);" text-anchor="middle">LA</tspan>
        </text>
        <text id="MS_label" x="940.37" y="592.21" style="font-size: 19.2455px; stroke-width: 1.60379; display: none;">
          <tspan id="MS_tspan" x="940.37" y="592.21" fill="#000000" dy="0" font-family="Arial" font-size="24.06" font-style="normal" font-weight="400" style="text-align: center; stroke-width: 2.57215; fill: rgb(0, 0, 0);" text-anchor="middle">MS</tspan>
        </text>
        <text id="IA_label" x="823.33" y="308.44" style="font-size: 19.2455px; stroke-width: 1.60379; display: none;">
          <tspan id="IA_tspan" x="823.33" y="308.44" fill="#000000" dy="0" font-family="Arial" font-size="24.06" font-style="normal" font-weight="400" style="text-align: center; stroke-width: 2.57215; fill: rgb(0, 0, 0);" text-anchor="middle">IA</tspan>
        </text>
        <text id="MN_label" x="790.84" y="183.37" style="font-size: 19.2455px; stroke-width: 1.60379; display: none;">
          <tspan id="MN_tspan" x="790.84" y="183.37" fill="#000000" dy="0" font-family="Arial" font-size="24.06" font-style="normal" font-weight="400" style="text-align: center; stroke-width: 2.57215; fill: rgb(0, 0, 0);" text-anchor="middle">MN</tspan>
        </text>
        <text id="OK_label" x="732.05" y="519.54" style="font-size: 19.2455px; stroke-width: 1.60379; display: none;">
          <tspan id="OK_tspan" x="732.05" y="519.54" fill="#000000" dy="0" font-family="Arial" font-size="24.06" font-style="normal" font-weight="400" style="text-align: center; stroke-width: 2.57215; fill: rgb(0, 0, 0);" text-anchor="middle">OK</tspan>
        </text>
        <text id="TX_label" x="710.59" y="652.87" style="font-size: 19.2455px; stroke-width: 1.60379; display: none;">
          <tspan id="TX_tspan" x="710.59" y="652.87" fill="#000000" dy="0" font-family="Arial" font-size="24.06" font-style="normal" font-weight="400" style="text-align: center; stroke-width: 2.57215; fill: rgb(0, 0, 0);" text-anchor="middle">TX</tspan>
        </text>
        <text id="NM_label" x="506.94" y="542.36" style="font-size: 19.2455px; stroke-width: 1.60379; display: none;">
          <tspan id="NM_tspan" x="506.94" y="542.36" fill="#000000" dy="0" font-family="Arial" font-size="24.06" font-style="normal" font-weight="400" style="text-align: center; stroke-width: 2.57215; fill: rgb(0, 0, 0);" text-anchor="middle">NM</tspan>
        </text>
        <text id="KS_label" x="701.21" y="427.26" style="font-size: 19.2455px; stroke-width: 1.60379; display: none;">
          <tspan id="KS_tspan" x="701.21" y="427.26" fill="#000000" dy="0" font-family="Arial" font-size="24.06" font-style="normal" font-weight="400" style="text-align: center; stroke-width: 2.57215; fill: rgb(0, 0, 0);" text-anchor="middle">KS</tspan>
        </text>
        <text id="NE_label" x="686.63" y="337.29" style="font-size: 19.2455px; stroke-width: 1.60379; display: none;">
          <tspan id="NE_tspan" x="686.63" y="337.29" fill="#000000" dy="0" font-family="Arial" font-size="24.06" font-style="normal" font-weight="400" style="text-align: center; stroke-width: 2.57215; fill: rgb(0, 0, 0);" text-anchor="middle">NE</tspan>
        </text>
        <text id="SD_label" x="663.02" y="238.75" style="font-size: 19.2455px; stroke-width: 1.60379; display: none;">
          <tspan id="SD_tspan" x="663.02" y="238.75" fill="#000000" dy="0" font-family="Arial" font-size="24.06" font-style="normal" font-weight="400" style="text-align: center; stroke-width: 2.57215; fill: rgb(0, 0, 0);" text-anchor="middle">SD</tspan>
        </text>
        <text id="ND_label" x="663.02" y="150.75" style="font-size: 19.2455px; stroke-width: 1.60379; display: none;">
          <tspan id="ND_tspan" x="663.02" y="150.75" fill="#000000" dy="0" font-family="Arial" font-size="24.06" font-style="normal" font-weight="400" style="text-align: center; stroke-width: 2.57215; fill: rgb(0, 0, 0);" text-anchor="middle">ND</tspan>
        </text>
        <text id="WY_label" x="499.57" y="276.47" style="font-size: 19.2455px; stroke-width: 1.60379; display: none;">
          <tspan id="WY_tspan" x="499.57" y="276.47" fill="#000000" dy="0" font-family="Arial" font-size="24.06" font-style="normal" font-weight="400" style="text-align: center; stroke-width: 2.57215; fill: rgb(0, 0, 0);" text-anchor="middle">WY</tspan>
        </text>
        <text id="MT_label" x="487.84" y="155.58" style="font-size: 19.2455px; stroke-width: 1.60379; display: none;">
          <tspan id="MT_tspan" x="487.84" y="155.58" fill="#000000" dy="0" font-family="Arial" font-size="24.06" font-style="normal" font-weight="400" style="text-align: center; stroke-width: 2.57215; fill: rgb(0, 0, 0);" text-anchor="middle">MT</tspan>
        </text>
        <text id="CO_label" x="525.13" y="406.28" style="font-size: 19.2455px; stroke-width: 1.60379; display: none;">
          <tspan id="CO_tspan" x="525.13" y="406.28" fill="#000000" dy="0" font-family="Arial" font-size="24.06" font-style="normal" font-weight="400" style="text-align: center; stroke-width: 2.57215; fill: rgb(0, 0, 0);" text-anchor="middle">CO</tspan>
        </text>
        <text id="ID_label" x="339.94" y="235.07" style="font-size: 19.2455px; stroke-width: 1.60379; display: none;">
          <tspan id="ID_tspan" x="339.94" y="235.07" fill="#000000" dy="0" font-family="Arial" font-size="24.06" font-style="normal" font-weight="400" style="text-align: center; stroke-width: 2.57215; fill: rgb(0, 0, 0);" text-anchor="middle">ID</tspan>
        </text>
        <text id="UT_label" x="396.81" y="386.73" style="font-size: 19.2455px; stroke-width: 1.60379; display: none;">
          <tspan id="UT_tspan" x="396.81" y="386.73" fill="#000000" dy="0" font-family="Arial" font-size="24.06" font-style="normal" font-weight="400" style="text-align: center; stroke-width: 2.57215; fill: rgb(0, 0, 0);" text-anchor="middle">UT</tspan>
        </text>
        <text id="AZ_label" x="366.76" y="536.9" style="font-size: 19.2455px; stroke-width: 1.60379; display: none;">
          <tspan id="AZ_tspan" x="366.76" y="536.9" fill="#000000" dy="0" font-family="Arial" font-size="24.06" font-style="normal" font-weight="400" style="text-align: center; stroke-width: 2.57215; fill: rgb(0, 0, 0);" text-anchor="middle">AZ</tspan>
        </text>
        <text id="NV_label" x="262.47" y="370.64" style="font-size: 19.2455px; stroke-width: 1.60379; display: none;">
          <tspan id="NV_tspan" x="262.47" y="370.64" fill="#000000" dy="0" font-family="Arial" font-size="24.06" font-style="normal" font-weight="400" style="text-align: center; stroke-width: 2.57215; fill: rgb(0, 0, 0);" text-anchor="middle">NV</tspan>
        </text>
        <text id="OR_label" x="214.43" y="206.88" style="font-size: 19.2455px; stroke-width: 1.60379; display: none;">
          <tspan id="OR_tspan" x="214.43" y="206.88" fill="#000000" dy="0" font-family="Arial" font-size="24.06" font-style="normal" font-weight="400" style="text-align: center; stroke-width: 2.57215; fill: rgb(0, 0, 0);" text-anchor="middle">OR</tspan>
        </text>
        <text id="WA_label" x="238.05" y="102.99" style="font-size: 19.2455px; stroke-width: 1.60379; display: none;">
          <tspan id="WA_tspan" x="238.05" y="102.99" fill="#000000" dy="0" font-family="Arial" font-size="24.06" font-style="normal" font-weight="400" style="text-align: center; stroke-width: 2.57215; fill: rgb(0, 0, 0);" text-anchor="middle">WA</tspan>
        </text>
        <text id="CA_label" x="191.69" y="434.8" style="font-size: 19.2455px; stroke-width: 1.60379; display: none;">
          <tspan id="CA_tspan" x="191.69" y="434.8" fill="#000000" dy="0" font-family="Arial" font-size="24.06" font-style="normal" font-weight="400" style="text-align: center; stroke-width: 2.57215; fill: rgb(0, 0, 0);" text-anchor="middle">CA</tspan>
        </text>
        <text id="DC_label" x="1309.32" y="398.19" stroke-width="1.29" font-size="15.45" style="display: none;">
          <tspan id="DC_tspan" x="1309.32" y="398.19" fill="#000000" stroke-width="1.29" dy="0" font-family="Arial" font-size="19.31" font-style="normal" font-weight="400" style="text-align: center; fill: rgb(0, 0, 0);" text-anchor="middle">DC</tspan>
        </text>
        <text id="TN_label" x="1018.93" y="485.72" style="font-size: 19.2455px; stroke-width: 1.60379; display: none;">
          <tspan id="TN_tspan" x="1018.93" y="485.72" fill="#000000" dy="0" font-family="Arial" font-size="24.06" font-style="normal" font-weight="400" style="text-align: center; stroke-width: 2.57215; fill: rgb(0, 0, 0);" text-anchor="middle">TN</tspan>
        </text>
        <text id="AR_label" x="863.15" y="535.77" style="font-size: 19.2455px; stroke-width: 1.60379; display: none;">
          <tspan id="AR_tspan" x="863.15" y="535.77" fill="#000000" dy="0" font-family="Arial" font-size="24.06" font-style="normal" font-weight="400" style="text-align: center; stroke-width: 2.57215; fill: rgb(0, 0, 0);" text-anchor="middle">AR</tspan>
        </text>
      </g>
      <g id="state_borders" transform="translate(-0.04777967,-0.15336683)" stroke="rgb(209, 219, 221)" style="stroke: rgb(0, 0, 0);" stroke-width="0.3"/>
      <rect id="selection-rectangle" fill="#ffffccaa" stroke="rgb(209, 219, 221)" stroke-width="0.1"/>
      <ellipse id="selection-ellipse" fill="#ffffccaa" stroke="rgb(209, 219, 221)" stroke-width="0.1"/>
      <polygon id="selection-polygon" fill="#ffffccaa" stroke="rgb(209, 219, 221)" stroke-width="0.1"/>
      <polyline id="selection-polyline" fill="#ffffccaa" stroke="rgb(209, 219, 221)" stroke-width="0.1"/>
    </svg>
  </g>
</svg>
