<?xml version='1.0' encoding='UTF-8'?>
<svg xmlns="http://www.w3.org/2000/svg" xmlns:dc="http://purl.org/dc/elements/1.1/" xmlns:ns2="http://creativecommons.org/ns#" xmlns:rdf="http://www.w3.org/1999/02/22-rdf-syntax-ns#" id="wrapper" viewBox="0 0 1520 840" preserveAspectRatio="xMinYMin" height="840" width="1520" style="background-color: rgb(255, 255, 255);">
  <metadata>
    <rdf:rdf>
      <ns2:work rdf:about="">
        <dc:format>image/svg+xml</dc:format>
        <dc:type rdf:resource="http://purl.org/dc/dcmitype/StillImage"/>
        <dc:title>MapChart Map</dc:title>
        <dc:creator>
          <ns2:agent>
            <dc:title>MapChart.net</dc:title>
          </ns2:agent>
        </dc:creator>
        <ns2:license rdf:resource="http://creativecommons.org/licenses/by-sa/4.0/"/>
        <dc:description>This map was created with MapChart.net, a website for creating custom maps.</dc:description>
      </ns2:work>
      <ns2:license rdf:about="http://creativecommons.org/licenses/by-sa/4.0/">
        <ns2:permits rdf:resource="http://creativecommons.org/ns#Reproduction"/>
        <ns2:permits rdf:resource="http://creativecommons.org/ns#Distribution"/>
        <ns2:requires rdf:resource="http://creativecommons.org/ns#Notice"/>
        <ns2:requires rdf:resource="http://creativecommons.org/ns#Attribution"/>
        <ns2:requires rdf:resource="http://creativecommons.org/ns#ShareAlike"/>
      </ns2:license>
    </rdf:rdf>
  </metadata>
  <g id="map-group" transform="translate(-2525.6002128402542,-249.6897473285294) scale(4.066487874396673)">
    <svg id="map" width="1520" height="840" version="1.1" viewBox="0 0 1520 840" preserveAspectRatio="xMinYMin" data-originalStrokeWidth="0.3">
      <defs>
        <pattern id="circles3" width="10" height="10" patternUnits="userSpaceOnUse">    <rect width="10" height="10" fill="#fff"/>    <circle cx="4" cy="4" r="2" fill="#000"/>    </pattern>
        <pattern id="diagonal1" width="10" height="10" patternUnits="userSpaceOnUse">    <rect width="10" height="10" fill="#fff"/>    </pattern>
        <pattern id="diagonal3" width="10" height="10" patternUnits="userSpaceOnUse">    <rect width="10" height="10" fill="#fff"/>    </pattern>
        <pattern id="vertical1" width="10" height="10" patternUnits="userSpaceOnUse">    <rect width="10" height="10" fill="#fff"/>    <rect x="2" y="0" width="1" height="10" fill="#000"/>    </pattern>
        <pattern id="vertical3" width="10" height="10" patternUnits="userSpaceOnUse">    <rect width="10" height="10" fill="#fff"/>    <rect x="2" y="0" width="3" height="10" fill="#000"/>    </pattern>
        <pattern id="horizontal1" width="10" height="10" patternUnits="userSpaceOnUse">    <rect width="10" height="10" fill="#fff"/>    <rect x="0" y="2" width="10" height="1" fill="#000"/>    </pattern>
        <pattern id="horizontal3" width="10" height="10" patternUnits="userSpaceOnUse">    <rect width="10" height="10" fill="#fff"/>    <rect x="0" y="2" width="10" height="3" fill="#000"/>    </pattern>
        <pattern id="crosshatch" width="8" height="8" patternUnits="userSpaceOnUse">    <rect width="8" height="8" fill="#fff"/>    </pattern>
        <pattern id="subtlepatch" width="5" height="5" patternUnits="userSpaceOnUse">    <rect width="5" height="5" fill="#fff"/>    <rect x="2" y="2" width="1" height="1" fill="#000"/>    </pattern>
        <pattern id="checkers" width="8" height="8" patternUnits="userSpaceOnUse">    <rect width="8" height="8" fill="#fff"/>    </pattern>
        <pattern id="raindrops" width="10" height="10" patternUnits="userSpaceOnUse">    <rect width="10" height="10" fill="#fff"/>    </pattern>
        <pattern id="texture" width="4" height="4" patternUnits="userSpaceOnUse">    <rect width="4" height="4" fill="#fff"/>    </pattern>
        <pattern id="circles3_a03500_000000" width="10" height="10" patternUnits="userSpaceOnUse">    <rect width="10" height="10" fill="#a03500"/>    <circle cx="4" cy="4" r="2" fill="#000000"/>    </pattern>
        <pattern id="diagonal1_d9b400_535353" width="10" height="10" patternUnits="userSpaceOnUse">    <rect width="10" height="10" fill="#d9b400"/>    </pattern>
        <pattern id="diagonal3_3264c8_ffffff" width="10" height="10" patternUnits="userSpaceOnUse">    <rect width="10" height="10" fill="#3264c8"/>    </pattern>
        <pattern id="horizontal1_72b38e_000000" width="10" height="10" patternUnits="userSpaceOnUse">    <rect width="10" height="10" fill="#72b38e"/>    <rect x="0" y="2" width="10" height="1" fill="#000000"/>    </pattern>
        <pattern id="horizontal3_986ba1_ffffff" width="10" height="10" patternUnits="userSpaceOnUse">    <rect width="10" height="10" fill="#986ba1"/>    <rect x="0" y="2" width="10" height="3" fill="#ffffff"/>    </pattern>
        <pattern id="vertical1_b9a087_ffffff" width="10" height="10" patternUnits="userSpaceOnUse">    <rect width="10" height="10" fill="#b9a087"/>    <rect x="2" y="0" width="1" height="10" fill="#ffffff"/>    </pattern>
        <pattern id="vertical3_4c91bf_ffff33" width="10" height="10" patternUnits="userSpaceOnUse">    <rect width="10" height="10" fill="#4c91bf"/>    <rect x="2" y="0" width="3" height="10" fill="#ffff33"/>    </pattern>
        <pattern id="checkers_cc3333_f7f7f7" width="8" height="8" patternUnits="userSpaceOnUse">    <rect width="8" height="8" fill="#cc3333"/>    </pattern>
        <pattern id="texture_d1dbdd_525252" width="4" height="4" patternUnits="userSpaceOnUse">    <rect width="4" height="4" fill="#d1dbdd"/>    </pattern>
        <style id="map-style">svg { background-color: #ffffff; }</style>
      </defs>
      <path id="MN01" d="m772.16 256.5-.46.02-.08.02-.33.02-.51.03-3.05.16-.78.05-9.91.5-1.47.05-3.3.16h-.05l-.42.03h-.13l-2.2.1-.12-2.3-.01-.65-.15-3.03-.1-2.28-.03-.48-.02-.86-.03-.51-.03-.93 5.15-.2 4.9-.26 5-.22 3.94-.2 3.28-.16 4.34-.28 1.79-.08 3.32-.2 3-.17 1.3-.09-.17-2.73-.32-5.02-.04-.44 2.75-.2-.2-2.75h-.16l-.18-3.18h-.23l-.15-.2v-.23l-1 .05-.03-.45-.67.03-.04-.43-.68.04-.17-3.2-.12-1.78.32.06.65.29.16.18.12-.08.06.33.4.3.07.13 1.62-.1 3.25-.19 4.43-.31 3.65-.25.87-.08 3.86-.26 1.57-.1-.07.16.14.21-.2 1.03-.3.11.07.09.03.44-.27.02.2.1v.5l-.14.1.05.2.22.24h.17l.3.32-.1.2h-.18l.05.26-.18.21.05.14-.17.41-.17.03-.17.26-.34.15-.12.53-.34.18.12.06-.27.33-.05.18.19-.06.15.16-.18.42 3.04-.22 2.59-.2.1 1.4 3.12-.26.48-.02 4.56-.37-.27-4-.11-1.49.46-.04 3.27-.24 2.58-.21-.13-.34-.03-.33.33-.02.2.21.43-.04.05-.2-.03-.5.45-.03-.05-.67.45-.04-.2-2.73.8-.1.4-.1.28.09.36-.03.06.24.17-.2.19.03.4-.23-.05-.8 2.82-.23-.23-2.73 1.36-.12-.23-2.66.77.66.22.17.64.64.23.16.53.23.26.3.07.33-.01.4.2.12.26-.02.37.32.11-.02.09-.14h.09l.21.18.36.48.02.21-.02.09.02.07.03.04.07.05.1.01.18-.12.33-.18.27.15.3.08.13-.02.13-.07.29.06.37.13.35.22.28-.2.22-.1.54.04.13-.01.12-.03.27-.05.64.07.26.13.2.17.22.37.26.47.04.41.1.28.43.49.36.28.52.3.2.22.39.25.13.06.47.11.56.1.19.03.5.04.33.05.32.21.57.13.2.1h.38l.3.18.16.14.07.07.2.09.3.14.33.07.25.18.24.09.27.02.3.2.47.55.3.15.1.11.22.4.07.32-.2.42.08.24.4.17.16.12.12.44.22.38v.11l-.09.37.1.28.35.5v.1l.02.1.04.07.26.1.18.13.27.2.38.17.3.42.5.27.52.16.14.13.3.17.36.05.23.03.18.04.08.06.23.24.09.47.3.18.32.02.35.3.21.39.32.3h.21l.21.18.02.02.07.03.23.07.26.18.1.12.1.19.13.08.22.12h.22l.28.02.31.07.9.02.31.17.34.1.38-.06.53.2.09.04.12.09.15.24.08.18.23.2.22.35.27.1.26.18.45.46.1.33.18.3.26.18.1.23.15.16.28.14.24.3.14.42.3.3.02.03.37.27.18.3.14.56.04.15.04.06.09.09.02.14.15.37.45.52-.14.96.02.3-.05.38-.14.32-.03.13.06.44v.15l-.05.73.1.4.2.23.04.19-.1.46.05.38.26.34.26.19.22.2.21.36v.4l-.18.52.03.29.36.55.2.1.12.17.02.36-.74.07-.39.04-.36.03h-.02l-.22.03-1.1.12-.76.07-1.24.13-.77.07-.22.03-.57.05-.66.06-.11.02-.38.04h-.17l-.74.07-.45.05-.32.02-.15.03-.88.08-.94.1-.57.05-.89.08-.31.03-.38.03-1.45.14-1.3.12h-.02l-.4.05-.2.01-.9.08-.65.07-.5.03-.63.05-.11.03-1.14.1-.21.01-1.89.18-1.96.18-1.36.12-.2.01-.3.02-.34.04-.3.01-.99.1-2.9.26-1.8.16-1.19.1-.22.01-.38.04-.45.04-1.2.11-.83.06-1.93.16-.07.02-1.24.1-1.58.12-1.2.1-.08.01-2.4.19-.37.04-2.35.18-3.04.23h-.12l-1.48.11-2.34.19-5.35.38-.4.04-1.54.1-2.4.16-.42.03-1 .07-.97.06-1.18.07-.13.03-1.26.08-1.6.1-1.58.1-.54.03-2.16.15h-.03l-.9.05-3.5.21-.56.03-.89.06-.76.05-.6.03-.44.04-1.38.07-.67.05-2.5.14-.4.04-.34.01-.4.04-2.04.1-.15.03-.64.03-.57.04-2.94.18v-.02l-.46.03" fill="#d1dbdd" stroke="rgb(209, 219, 221)" stroke-width="0.1" data-originalStrokeWidth="0.1" style="stroke: rgb(0, 0, 0); fill: rgb(209, 219, 221); pointer-events: auto; stroke-width: 0.1;" pointer-events="auto"/>
      <path id="MN02" d="m829.52 209.4.15.76-.14.31.01.21-.17.41-.07.63-.27.4-.08.3-.01.24v.29l.39.36.47.19.39.23.53.24.23 2.67-1.35.11.23 2.73-2.82.22.06.81-.4.23-.2-.02-.18.2-.05-.25-.36.03-.28-.1-.4.11-.8.1.2 2.73-.45.04.05.66-.45.04.03.52-.05.18-.43.04-.2-.2-.33.01.03.33.13.34-2.58.21-3.27.24-.46.04.1 1.49.28 4-4.55.36-.48.02-3.13.26-.1-1.38-2.6.2-3.03.2.17-.41-.15-.15-.18.05.04-.2.28-.31-.12-.06.34-.18.12-.53.34-.15.17-.26.17-.03.16-.41-.05-.14.19-.21-.04-.25.18-.01.08-.2-.3-.32h-.16l-.22-.23-.05-.21.13-.1.01-.5-.2-.1.28-.02-.04-.44-.07-.09.28-.1.22-1.04-.14-.21.07-.17.28-.23-.23-.17.08-.15h.34l.07-.54.13-.03.18-.45.01-.46-.08-.24-.3-.06-.1-.29-.17.02.1-.4.14-.03.02.19.2-.06-.03-.16-.2-.09.18-.34-.21-.1.1-.18.03-.33-.1-.13.13-.23.14.04.2-.4.13.13.16-.1.13-.39-.08-.1.25-.15.22.18.4-.35.04-.13.34-.09.2.18.36-.3.04.22.2-.14-.1-.18.3.14-.13-.26.47-.1.22-.36.28-.04-.14-.16.22-.2.28-.06.39-.61.21-.24.2-.03.1.18.12-.17.23.03.06-.13.38-.34-.2-.26v-.25l-.15.02.06-.25-.07-.18.14-.25.03-.29.18.15.11-.2-.32-.16.12-.2.33-.11.13-.22-.13-.2.4-.03.01-.34.54-.25.18.12.14-.3.45-.04v.1l.38-.12.14-.15.09.14.17-.1.2.08.28-.1.14.1.28-.1.13-.24.42.17.31.02.24.24.25-.02.11.35.33-.14.25.09.17-.18.27.12.2-.21.46-.1.4-.24.05-.14.67-.22.51-.6.19-.13-.07-.19.22-.06.24-.72-.06-.1.44-.5-.02-.26.16.02.38-.21.36-.44.14-.44 1.7-.13.44.64.33.2 3.5-.3.1.92 2.05-.18" fill="#d1dbdd" stroke="rgb(209, 219, 221)" stroke-width="0.1" data-originalStrokeWidth="0.1" style="stroke: rgb(0, 0, 0); fill: rgb(209, 219, 221); pointer-events: auto; stroke-width: 0.1;" pointer-events="auto"/>
      <path id="MN03" d="m817.84 202.04-.31.03.08.18-.37.02-.03.1.4.37.02 1-.08-.29.04-.21-1.56.12.08.68-1.12.1.22 2.73-.22.01.15.16-.02.28h.12l.07.92.43-.04.06.28.19-.06.02.21.46-.02.04.64.47.02.06.31.19-.1.06.9 2.7-.2-.25.72-.21.07.06.18-.18.12-.51.6-.66.23-.07.14-.4.25-.45.09-.2.2-.27-.11-.18.19-.24-.09-.33.13-.11-.35-.25.02-.24-.24-.31-.03-.42-.16-.12.24-.3.1-.13-.1-.28.1-.2-.09-.18.1-.08-.13-.15.15-.37.11v-.1l-.22-2.72-1.92.14-2.2.2-1.37.1-.36-5.23.03-.41.11-.1-.08-.27.29.05.7-.28-.25-.04-.02-.29.11-.54.36-.56.02-.15.36-.46.15-.06.01.2.91-.08.1-.24-.03-.67-.2.01-.3-.25-.2-.32.25-.2.13-.33.22.18.15-.02-.05-.2.47-.13.07.15.25-.23.42-.16.18-.3h.3l.1-.19.2.04.06.25.24-.51-.08-.26.64.14 1.68.6-.02-.29.63.08.04-.23-.15-.08.02-.18.26.02.13.31.23-.01.05.18.19.04.01.22 2.04-.13.18 2.73h.04" fill="#d1dbdd" stroke="rgb(209, 219, 221)" stroke-width="0.1" data-originalStrokeWidth="0.1" style="stroke: rgb(0, 0, 0); fill: rgb(209, 219, 221); pointer-events: auto; stroke-width: 0.1;" pointer-events="auto"/>
      <path id="MN04" d="m820.35 209.32.01-.16-.23-.04-.12-.28-.2-.15-.06-1-.2-.36-.24-2.82-.23.03-.01-.24-.2.01-.2-2.33 4.6-.34 3.47-.29.13 1.38.61-.03.03.16.18-.3.02-.33.21-.23.05.54.12.11.35-.04-.08.23-.13.23.05.27.34.4.07.02.34.25.2.27.03.08-.16.68.02.22.07.14v.29l.02.19.07.19.25.24.19.56v.13l-.07.84-.04.1-.29.23.02.37.28.5-.11.36-2.06.18-.08-.92-3.51.3-.33-.2-.44-.65-1.7.14-.14.44-.36.45-.38.2-.16-.02" fill="#d1dbdd" stroke="rgb(209, 219, 221)" stroke-width="0.1" data-originalStrokeWidth="0.1" style="stroke: rgb(0, 0, 0); fill: rgb(209, 219, 221); pointer-events: auto; stroke-width: 0.1;" pointer-events="auto"/>
      <path id="MN05" d="m820.35 209.32.02.25-.44.5.06.11-2.7.2-.05-.9-.2.1-.06-.3-.47-.03-.04-.64-.46.02-.03-.21-.18.06-.06-.28-.43.04-.07-.92h-.12l.02-.28-.15-.16.22-.01-.22-2.74 1.12-.1-.08-.66 1.56-.13-.04.22.08.27-.02-.99-.4-.36.03-.12.36-.01-.07-.18.31-.03.84-.06.19 2.33h.2l.01.23.23-.03.23 2.82.2.35.08 1.01.19.14.12.29.23.04v.16" fill="#d1dbdd" stroke="rgb(209, 219, 221)" stroke-width="0.1" data-originalStrokeWidth="0.1" style="stroke: rgb(0, 0, 0); fill: rgb(209, 219, 221); pointer-events: auto; stroke-width: 0.1;" pointer-events="auto"/>
      <path id="MN06" d="m805.21 180.96.17 1.83.06.9.2 2.25.27 3.26 2.28-.17 3.18-.2.36 4.52 1.56-.1 1.95-.14 3.12-.25 1.03-.09 1.56-.11h.18l1.43-.08.12 1.17.05 1.02.28 3.45.26 3.42-4.6.34-.83.06h-.04l-.18-2.73-2.03.13-.01-.22-.2-.04-.05-.2-.23.02-.13-.3-.26-.02-.02.19.15.07-.04.23-.63-.07.02.29-1.68-.61-.64-.14.08.26-.24.5-.08-.24-.18-.04-.1.2h-.29l-.2.3-.4.15-.26.23-.07-.15-.47.14.05.18-.15.04-.22-.19-.13.32-.24.2.19.33.3.25h.2l.04.66-.1.24-.92.08v-.2l-.16.06-.36.46-.02.15-.36.56-.11.53.02.3.24.04-.68.28-.3-.05.08.28-.1.09-.04.41.35 5.23 1.38-.1 2.2-.2 1.92-.14.22 2.73-.45.04-.14.3-.18-.12-.54.25v.34l-.4.03.12.19-.13.23-.33.1-.12.21.32.18-.11.18-.18-.14-.03.28-.14.26.07.17-.06.25.16-.02-.02.25.2.27-.37.33-.06.13-.23-.03-.12.16-.1-.17-.2.03-.21.24-.4.6-.28.08-.21.2.14.15-.28.04-.22.36-.47.1.11.26-.3-.14-.04-1.05-2.7.2-.1-1.38-2.73.2-.36-5.5h-.04l-.12-1.36-.08-1.37-3.4.23-2.01.12-.48-7.02-.09-1.15-.1.02-.14-1.88-.12-1.79.88-.06-.08-1.62-.9.07-.05-.67-1.72.11-.99.08-.16-2.28-2.67.22-.1-1.65-.08-1.07 2.6-.19-.05-.8.57.15.19.2.67.25.18-.03.19-.35.27-.26-.06-.45h.12l-.02-.67.54-.06-.06-.91 1.62-.1.09-.22-.38.11-.2-.73-.24-.15-.11-.28.2-.2-.04-.17-.48-.07-.51-.36-.2-.37.03-.26-.2-.16-.02-.26-.71-.2-.16-.16-.05-.32-.3.09-.4-.38-.21-.34 3.85-.28 1.16-.08 2.94-.24 1.14-.08 1.56-.07 2.27-.16" fill="#d1dbdd" stroke="rgb(209, 219, 221)" stroke-width="0.1" data-originalStrokeWidth="0.1" style="stroke: rgb(0, 0, 0); fill: rgb(209, 219, 221); pointer-events: auto; stroke-width: 0.1;" pointer-events="auto"/>
      <path id="MN07" d="m765.46 83.9.05.08-.16.45.04.36.15.19.04.35.22.05-.3.35.01.14.28.52.33.3-.1.11 1 .57.42.07.75-.16.77-.26.49-.12.44-.29.49-.57.25 3.72.16 2.73-1.21.08-4.09.23.3 5.4-2.05.1-1.04.1-2.05.12h-.32l.1 1.35.1 2.72.1 1.35.18-.01.3 6 .24 3.74.05 1h.2l.18 2.94.26 4.05.23 3.83.54-.02.27 4.8v.62l-4.2.25-6.77.33.13 2.72.16 2.82.29 6.19.11 1.89v.44l.13 2.27 4.76-.21 2.22-.13 1.25-.05 2.76-.13 2.88-.2 1.37-.08 5.33-.33 2.53-.17 1.69-.08-.14-1.82-.04-.9 2.72-.14.15 2.43.2-.24.25-.14.57-.13.22-.32.3-.2.2-.02.07-.17.37-.12.04.21.15-.1.26-.48.13 1.84h.12l.16 2.95.15 2.46-2.75.17.36 5.44.12.01.3 4.06.2 3.33.35-.01-.06.1.33.34.1-.2.13.15.2-.14.04.62.21.36.44.06.59-.07.02-.24.17-.02.1.27.09-.07.27.25.2.06.35.44.23.03.1-.14.48.12.3.25.31.13.08.12.46.1.57-.34.38-.07.17-.2.31-.1.13-.28.14.08.24-.12.4-.02.05.1.5.23.02.14.24.09.07.27.12-.2.25.36.2-.1.24.13.16.28-.14.22.3.1-.04.18-.31.26.01.23-.18.1-.14.28-.37.2-.1.32v.52l.72.98-.12.17-.02.54 4.06-.28 1.01-.04 5.22-.39 2.01-.13.4 5.42.9-.04.11.94.07 1.33.31 2.75-2.27.16-1.55.07-1.15.07-2.94.24-1.16.08-3.86.28.21.35.4.38.31-.09.05.32.16.15.71.21.04.26.18.16-.02.26.19.37.5.36.48.07.05.17-.2.2.1.28.24.15.2.72.38-.1-.08.22-1.61.1.05.91-.54.07.02.66-.12.01.06.44-.27.26-.2.35-.18.03-.66-.25-.2-.19-.56-.17.06.81-2.61.19.08 1.07.1 1.65 2.67-.22.16 2.28 1-.08 1.7-.1.06.66.9-.06.08 1.62-.88.04.12 1.81.16 1.86h.08l.09 1.13.48 7.03 2-.12 3.4-.23.1 1.37.1 1.36h.05l.36 5.5 2.73-.2.1 1.39 2.69-.2.07 1.04.1.18-.2.14-.05-.22-.37.3-.18-.18-.34.09-.04.13-.4.35-.22-.18-.25.14.08.11-.13.39-.16.1-.12-.12-.21.39-.14-.04-.13.23.1.13-.03.33-.1.17.21.1-.17.34.19.09.03.17-.19.05-.03-.18-.15.03-.1.4.19-.02.1.28.29.08.08.23-.01.46-.17.45-.13.03-.07.55h-.35l-.08.14.23.18-.28.22-1.57.11-3.86.26-.87.08-3.65.25-4.43.31-3.25.2-1.62.1-.08-.15-.4-.3-.05-.32-.12.09-.16-.19-.65-.29-.32-.06.12 1.77.17 3.2.67-.03.05.43.66-.03.03.45 1-.05.01.23.15.2h.23l.18 3.19.15-.01.2 2.75-2.74.2.04.44.32 5.02.16 2.73-1.29.1-3 .16-3.32.2-1.79.08-4.34.28-3.28.17-3.94.2-5 .21-4.9.27-5.15.2-.03-.39-.07-1.4-.11-2.99-.13-2.57-.03-.91-.05-.92-.1-2.24v-.65l-.08-1.6-.03-.94-.05-1.04-.05-1.22-.14-2.74v-.45l-.07-1.3v-.53l-.12-2.3-.05-1.4-.08-1.84-.13-2.68-.05-1.49-.02-.4-.06-.67-.01-.69-.03-.11.02-.03-.15-3-.04-1.36-.2-3.84-.03-1-.15-2.98-.38-.8-.15-.25-.35-.78-.3-.24-.45-.31-.68-.2-.22-.08-.14-.1-.25-.08-.51-.33-.33-.1-.1-.06-.1.02-.14-.02-.1-.01-.1.02-.1.01-.06-.04h-.07l-.14.05h-.11l-.1-.03-.19.01-.11-.01-.1-.03-.18-.18-.12-.12-.15-.22-.17-.24-.3-.44-.05-.07-.12-.1-.07-.15-.07-.16-.03-.17-.03-.07-.05-.07-.05-.11v-.14l-.05-.13-.18-.42-.18-.38-.08-.17-.4-.48-.31-.46-.18-.11-1.05-1.28-.23-.27v-.13l.09-.16.01-.1v-.06l.02-.16.07-.37.11-.29.25-.22.08-.09.72-.56.3-.28.4-.28.17-.32.92-.68.43-.23.32-.22.21-.2.22-.29.12-.26.13-.27.01-.1v-.1l-.02-.03.01-.04.07-.06.04-.02v-.04h-.02l.02-.07h.02l.06-.05v-.1l.34-.36.35-.59.17-.13.16-.23.1-.68.02-.53v-.79l.08-.55v-.18l-.08-.06.01-.12.1-.16v-.48l.02-.16.01-.17-.21-.56-.06-.41-.11-1.29-.06-.15.04-.45.23-.55.07-.13.03-.2-.03-1.01-.1-.32-.05-.08-.1-.14-.12-.7-.04-.12-.19-.32.1-.56-.1-.25-.29.06.09-.12-.02-.08-.05-.29.1-.14.02-.42-.16-.02-.14-.53-.02-.22-.05-.09.03-.05-.02-.14.1-.1.2-.11-.1-.03-.16-.12.06-.1-.03-.08-.1-.13.04-.23-.08-.27-.02-.03.04-.1.04-.1v-.13l-.2-.06.13-.19-.11-.09.1-.5-.08-.28h-.11l.15-.12-.46-.26.05-.24-.23-.06-.05-.15-.35.11.03-.32-.27-.15-.04-.1-.03-.16-.2-.04-.04-.36-.3-.6-.14.06.01-.3-.17-.2h-.19l.02-.13-.14-.15.09-.2-.28.03.06-.14-.12-.15-.07-.06.02-.05.17-.19v-.1l-.14-.08.1-.16-.2-.08.17-.05-.29-.06-.29-.44.13-.06v-.26l-.15-.13.13-.17-.16-.4.03-.2-.18-.27h.17l-.05-.2-.03-.1-.19.01.08-.38-.12.03-.01-.23.12-.1.07.07.01-.04-.03-.07-.17-.1.07-.18-.22-.07.18-.18-.31-.22.16-.1-.35-.05-.06-.63-.41-.25.12-.16.07-.05-.34.09.04-.14.2-.22-.3-.43.04-.19v-.06l.06-.39-.12-.12.07-.04.18.04.04-.5-.13-.25-.04-.05.17-.4-.17-.04.2-.15.03-.25-.11-.83-.15-.29.23.04-.26-.3.13-.13-.29.04.2-.2-.01-.1-.12-.04-.07-.05v-.09l.05-.04v-.03l-.04-.04h-.03l-.11-.02.12-.07-.08-.47-.03-.16.18-.26.22.08.02-.05-.3-.2.16.01.01-.29.22.09-.14-.21.16-.15-.24-.05.16-.19-.12-.08-.03-.07.03-.25.13-.1v-.04l-.1-.16.27-.11-.03-.06-.11-.01.08-.25h-.12l.1-.24v-.17l.1.03.03-.13.2-.18-.06-.06-.07-.05-.07-.08.2-.1-.23-.05.17-.12-.13-.14-.28.13-.03.17-.32-.06-.03-.38v-.12l-.1-.03-.17-.04v-.05l.08-.2.02-.2.06-.12v-.07l-.13-.06-.18.16-.29-.23.05-.25-.14-.28.13-.32-.2-.19-.24-.07.13-.1.04-.25.06-.16.17-.05.1-.02-.26-.23.22-.05-.13-.14.08-.43-.16-.09.12-.2-.1-.13-.02-.2.15-.2-.07-.12.04-.48-.08-.1.06-.26-.27-.35.14-.33-.3-.4.06-.18-.19-.02-.01-.03.02-.04h.05l.04-.03-.02-.07.02-.02.08.05h.15l.04-.03.02-.03v-.03l-.05-.04-.11.03-.05-.03v-.04l.04-.02.12-.02h.04l.05-.05.01-.06v-.02l-.03-.02h-.05l-.03-.03v-.06l.04-.12-.03-.04h-.16l-.05-.06v-.04h.13l.05-.04.02-.04h-.02l-.07-.04.03-.03h.05l.05-.04V142h-.09l-.07.05-.07.03-.07-.03-.02-.04.06-.06.15-.04.01-.05-.02-.05-.05-.03-.13-.06-.05-.03-.05-.01-.02.03v.03l.02.05v.05h-.06l-.03-.02-.02-.05.02-.04.09-.1.04-.09.06-.09h.02l.05.02.03.06.04.02.02-.05-.05-.06-.04-.04-.12-.06H736l.03-.05h.07l.05-.03v-.07l-.14-.1-.03-.04.02-.03.05-.04.03-.05-.02-.07-.04-.02h-.06l-.03.06-.02.1h-.07l-.04-.04v-.05l.04-.06.11-.05.1-.03.05-.05v-.02l-.03-.04-.1-.02-.05.02-.03-.02-.04-.05.03-.06.03-.04.07-.02.04.03.05.06.02.02.05-.02.02-.03-.02-.07-.03-.04-.1-.1-.03-.09h-.04l-.02.03-.02.06-.03.02-.05-.01v-.05l.01-.03.05-.06.04-.01.1-.04.03-.05v-.04l-.07-.05-.03-.1h-.05l-.01.1-.03.01h-.06l-.01-.04.04-.1h.05l.02-.05v-.04l-.03-.02h-.08l-.03-.02.03-.02h.05l.06.01.07-.04-.01-.1-.03-.01-.1.02-.06.05-.06-.04.04-.07.02-.02h.04l.07.01h.05l.04-.03.02-.04-.02-.05-.07-.01-.07.02-.07-.01-.06-.03v-.07l.02-.03.11-.02.02-.05.01-.04-.02-.11-.03-.1-.05-.17v-.14l.03-.07.11-.14.04-.1.07-.08v-.03l-.05-.07-.06-.08-.02-.02-.04.02-.03.07-.03.02-.05-.03v-.03l.03-.05V138l-.1-.02v-.07l.1-.05h.1v-.16l.12-.08.05-.04v-.03l-.06-.06-.03-.02-.05-.02-.04.06-.02.03-.04.05-.04.02-.03-.02-.05-.02v-.09l.06-.05h.16l.02-.05.07-.14-.02-.05-.05-.04-.03-.01-.07.02-.07-.03-.02-.08-.08-.08-.04-.06.02-.04.08-.02-.06-.1.06-.02.05.02h.06v-.05l-.04-.03h-.16l-.09-.02-.03-.04.02-.06.05-.07v-.06l-.05-.05-.14.01v-.09l.05-.02h.08l.07.03h.1l.12-.1.02-.04-.07-.04-.04.04-.07.07h-.1l-.1-.05-.01-.05.04-.04h.05l.1.01.05-.04v-.03l-.04-.04-.1-.05-.02-.05.02-.03h.03l.05.01.04.03.06.01.03-.02.04-.05-.03-.04-.06-.05v-.03l.08-.06v-.03l-.05-.1-.03-.02-.03.04h-.05l-.09-.04v-.03l.02-.03.1-.05.06-.03.03-.05-.07-.03-.07-.09-.1-.02-.04-.03-.02-.03.01-.03.1-.03.1-.09h.03l-.04-.04h-.03l-.13.05-.1.04h-.03l-.08-.09-.05-.1.04-.07-.07-.01h-.18v-.02l.01-.02.14-.04.04-.05.07-.04.06-.02.03-.03-.01-.05-.04-.01h-.05l-.03.02h-.05l-.03-.02.01-.05.07-.04.05-.07h.04l.03.02h.04v-.03l-.04-.04-.08-.01-.07-.03-.02-.03.02-.05h.07l.06-.04v-.04l-.07-.09-.03-.1.03-.04.01-.06-.03-.07.01-.02h.06l.02-.04v-.03l-.05-.03-.06.01h-.05l-.04-.04.02-.03.02-.02h.07l.1-.08v-.04l-.1-.1-.04-.09-.03-.15.02-.02h.05l.1-.12v-.07l-.01-.04h-.12l-.05.01-.07.12H735l-.03-.02v-.05l.05-.04.08-.12h.02l.1.03.06-.02.02-.05v-.07l-.07-.01-.05-.02-.13-.04-.01-.02v-.05h.07l.13-.1.04-.04v-.13l-.01-.2h.15l.01-.32-.35.06-.19-.41.16-.01.16-.24-.17-.15.28-.05-.27-.1.22-.18-.26-.21.19-.06.06-.2-.26.14-.08-.21.28.02-.18-.2.15-.29.02-.12-.17-.23.16-.07-.02-.06-.08-.33-.4-.14-.1-.11.07-.3-.14-.05-.17-.31.11-.06.01-.25-.13-.24-.05-.4.06-.07v-.05l-.16.05-.05-.04v-.05l.01-.06-.04-.12-.04-.13v-.13l-.04-.05-.02-.02-.05.03-.04.08h-.05l-.03-.03v-.07l.04-.05v-.06l-.04-.05-.06-.13-.03-.02h-.02l-.06.07-.07.03-.02-.03v-.04l.05-.07h.1l.03-.05.01-.07-.03-.05h-.08l-.07-.04v-.06l.02-.1-.03-.06-.03-.02-.06.02-.04.08-.03.02h-.04l-.03-.03.02-.1h.02l.09-.04.07-.05.05-.07v-.05l-.1-.03-.02-.02-.02-.1-.06-.06-.08-.09-.04-.09v-.04l.01-.05.05-.06.03-.06v-.17l-.05-.04-.1-.06-.08-.02-.03-.05.02-.02h.04l.1.04h.05l.02-.05h-.02l-.1-.05-.05-.03-.04-.05v-.08l.06-.08v-.06h-.07l-.15-.15-.02-.07-.03-.02h-.04l-.1.05-.03-.02-.01-.03v-.03l.07-.07-.02-.03h-.08l-.05-.03.04-.1-.02-.05-.08.1h-.03l-.04-.04v-.05l.06-.09.1-.05v-.03l-.04-.06-.1-.06-.05-.04v-.08l-.02-.04-.05.02-.08.06h-.07v-.11l.06-.06-.03-.01-.11-.02-.07-.02-.04-.04-.05-.02-.09-.02v-.03l.02-.04h.05l.13.03.04-.02.04-.05-.02-.05-.03-.06v-.22l.02-.03.05.02.04-.02v-.04l-.05-.05-.05-.01h-.06l-.07.02h-.03l-.02-.02.08-.06.03-.06v-.02l-.07-.09-.01-.07-.03-.07-.04-.01-.06.02-.05-.02-.01-.03.04-.1-.1.01-.02.03v-.06l.02-.05h.06l-.07-.14v-.1l-.09-.28-.1-.1.06-.05h.01v-.06l-.03-.03-.06-.03-.32-.05-.04-.05.08-.08.01-.07-.04-.05-.08-.06-.04-.05.04-.13.09-.05-.02-.07-.1-.16.06-.08.02-.04-.02-.05-.08-.1-.02-.04.01-.04h.05l.05.06.1-.02.01-.07-.03-.1-.02-.03-.05-.04-.09-.03.04-.05.09-.06-.02-.05-.07-.04-.1-.09-.19-.12-.07-.13.04-.1v-.05l-.01-.04-.06-.04h-.11l-.1-.04-.07-.05-.03-.03-.04-.05-.02-.08.05-.17-.14-.24-.06-.09.13-.62-.05-.26-.13-.1-.12-.41.07-.16-.2-.09.03-.15.04-.12v-.14l-.03-.07-.01-.26-.03-.13-.07-.16-.03-.05-.05-.03-.18-.11-.28-.44h-.11l.08-.32-.06-.21-.17-.07.16-.18-.17-.24-.29-.05-.03-.03.05-.29-.27-.59.22-.03-.1-.15-.4-.05.13-.24.3-.17-.06-.18-.24.1-.12-.09-.08-.32.05-.05.17-.22-.27-.13.12-.17.05-.1.09-.07.02-.02-.03-.09-.08-.06.24-.26-.23-.22h.16l.17.27.13-.06-.1-.2-.37-.15-.24.1-.03-.02.02-.1.05-.04.17-.07.1-.04.09.01.1.08.07.03.05-.03.02-.03-.03-.08-.08-.04-.1-.03-.32-.1.02-.05.04-.05.13-.02.03-.02v-.05l-.03-.05-.07-.01h-.11l-.07-.03.02-.07v-.03l.05-.04.1-.03.07-.07h.04l.14.01.06-.05-.02-.07-.04-.06-.08-.1v-.03l.02-.02h.09l.04-.04-.27-.14-.17-.13h.33l.08-.06-.04-.13.18-.12-.03-.14-.1-.18-.16-.03h-.18l.21-.25.08.01.1.13.14-.12-.25-.12-.05-.07v-.04l.09-.1v-.04l-.06-.05h-.06l-.05.02-.06.07h-.05l-.05-.02v-.07l.06-.12v-.05l.06-.07h.13l.16-.08.03-.04.02-.03-.05-.06-.05-.03-.2-.03h-.07l-.07.03-.06.07h-.05l-.03-.04v-.02l.03-.07.06-.05.15-.05h.05l.02-.1.04-.1-.03-.12-.07-.02-.05-.02h-.16l-.04-.05.02-.03.07-.1.02-.02v-.05l-.05-.04-.12-.02-.1-.2-.04-.01-.12-.07-.02-.09.03-.11.07-.05.18.03.07-.02.05-.03-.02-.06-.07-.12v-.05l.03-.03h.08l.03-.04.02-.04-.02-.02-.05-.02-.08.02-.09.05-.04.02-.13-.06-.1-.08-.01-.04.03-.1-.04-.02-.08-.01-.04-.02v-.05l.02-.03.08-.06.12-.01h.09l.08-.05.03-.05.06-.09.11-.07.07-.06.01-.04-.03-.08-.14-.12v-.09l-.02-.04h-.05l-.05.05-.05.1-.04.04h-.1l-.02-.02-.03-.04.02-.1.07-.06.15-.06.12-.02.1.03.08.07.05.06h.06l.03-.02.02-.07-.06-.08-.08-.06-.14-.06-.08-.01-.08-.04-.07-.07.01-.07.08-.05h.06l.16.09h.05l.04-.04.04-.06.02-.07v-.07l-.02-.09-.06-.06-.06-.02h-.03l-.07.02-.1.13-.03.02-.1.02-.1-.03v-.05l.02-.08.2-.1.08-.08.13-.17v-.23l-.04-.04-.05-.02-.1.02h-.09l-.05-.05-.07-.09-.02-.1.01-.05.04-.05.04-.01h.07l.05.02.09.06.03.02.06-.02.04-.04V102l-.02-.05-.05-.02-.07-.02H728l-.23.09h-.15l-.07-.03-.01-.05v-.05l.05-.05.1-.04.2-.04.08-.04.03-.03v-.1l-.07-.09v-.03h.06l.07.12h.07l.05-.02v-.05l-.03-.06-.05-.05-.13-.1-.1-.01-.06-.05-.03-.07-.01-.2-.03-.1.04-.02.14.01.12-.02.18-.18.02-.08-.02-.04-.07-.04h-.07l-.1.05-.09.07-.04.03-.08-.02-.07-.04-.06-.25.05-.05.04-.03.13-.02.07-.06-.02-.06-.02-.04-.07-.04-.1-.05h-.12l-.08-.03-.13-.19.08-.21.41.06v-.16h-.48l-.23-.1.06-.13.36-.07.15-.2-.27-.27h.32l.05-.33-.23-.06.37-.42-.32-.05.03-.14.4-.02-.15-.22.35.04-.13-.18-.07-.27.11.01.17.09.1-.1-.14-.31.16-.16.15-.31-.2-.2.17-.1-.04-.4.2-.17-.28-.1-.3-.34.17-.24-.23-.17-.08-.16-.04-.04-.22-.16-.03-.05.03-.03.1-.02.06-.05v-.04l-.02-.07h-.18l-.04-.01-.05-.05v-.05l.08-.07.03-.07.01-.13-.02-.07-.03-.04-.04-.02h-.05l-.06.02h-.07l-.07-.03-.05-.07-.02-.09.03-.08.11-.08.05-.05v-.07l-.1-.11-.05-.1-.05-.02h-.07l-.03-.04.01-.07.04-.01.13-.07.06-.05v-.02l-.04-.04h-.13l-.08-.02v-.07l.02-.06-.03-.12-.32-.08.22-.06-.07-.16-.28.12v-.09l.27-.15.16-.19-.67-.13.22-.1.04-.2-.15-.2.2-.16-.04-.26-.15-.05.2-.15-.16-.37-.18.03.2-.44h-.25l-.2-.17.02-.21-.04-.1.19.02-.05-.2-.3-.12-.12-.19.04-.2-.2-.17.1-.36-.23-.08-.04-.34-.16-.06.04-.26.06-.13-.19-.15-.02-.25v-.36l.22-.26-.07-.22 6.24-.24v.02l5.48-.23 5.51-.23 4.11-.2 15.16-.75 3.43-.18" fill="#d1dbdd" stroke="rgb(209, 219, 221)" stroke-width="0.1" data-originalStrokeWidth="0.1" style="stroke: rgb(0, 0, 0); fill: rgb(209, 219, 221); pointer-events: auto; stroke-width: 0.1;" pointer-events="auto"/>
      <path id="MN08" d="m840.97 150.14-.09.08-.32-.13-1.3-1.14-.25.03h-.16l-.19.03-.42.34-.1.15.05.3-.05.2-.02.09-.04.04-.48-.07-.09.05-.32.02-.04.05-.03.15-.08.12-.1.08-.03.24.48.04.16.14-.01.22-.21.17-.34.48.1.16v.08l-.1.16-.2.07-.15-.06-.12-.01-.3.15-.28-.27-.1.06-.12.2-.15-.04-.06-.15-.09-.03h-.11l-.05-.04-.03-.11-.12-.04.03.34.07.63.1 1.1v.12l.08.97.19 1.9.04.8.28 3.24.15 1.57.06.63.03.66.32 3.4.01.26.06.7.06.68.07.97.01.22.04.32-.55.22-.31.32-.13.52.02.5-.11.28-.15.19h-.33l-.32-.09-.25-.1-.4-.13-.34.17-.25.37v.08l-.04.1-.04.12-.04.07-.03.14.02.1-.08.1-.11.06-.04.1.09.15-.24.24-.43-.04-.23-.12-.43-.09-.2.09-.38.46.02.5-.09.05-.55.19-.17.16-.4.15-.1.1-.32.1-.18-.04-.09.04.05.28-.44.1-.13.15-.21.21-.07.23-.15.1-.06.07-.08.03-.1.1-.04.03h-.05l-.06.02-.13.14-.09.14-.05.1-.04.05-.02.03-.05.1-.02.07-.04.05-.18.46.07.06-.04.12-.03.3-.22.2-.06.07-.1.1-.12.16-.01.1.08.19.02.1.03.04.04.02.01.07.04.06-.07.32-.2.2-.08.2-.07.23-.04.58-.09.07-.36.53-.13.12-.32.31-.42.22-.05.15-.25.07-.11.15-.07.9-.02.75-.13.69-.03.05.05.44.18.56-.04.18-.02.2.1.26.02.45.27.23h.62l.47.13.24-.04.47-.21.38-.08.37.3.18.09.1.04.35.25.14.15-.02.23-.02.19.06.35.33.28.3.4.26.48.27.33.55.19.13.17.12.4v.34l-.03.12.1.28-.04.5-.18.1-.22.24-.04.1-.12.4-.37.35-.14.32.14.36v.26l-.03.08-.15.32-.36.42-.15.26-.21.19-.05.03-.3.25.09.34.05.08.06.04.06.13.02.09v.06l-.05.22-.08.25.11.59.16.37-.04.15-.01.03-.18.26-.05.35.07.36.28.22.04.03.01.24.05.05.02.05v.12l.02.16.03.16-.04.1-.01.1v.03l.07.1.06.26.05.13.17.28-.1.26-.72.78-.22.18-.03.04-.35.04-.12-.1-.05-.55-.21.23-.01.35-.18.3-.04-.18-.61.03-.13-1.38-3.47.29-.26-3.42-.28-3.45-.05-1.02-.12-1.17-1.43.09-.19-.01-1.55.11-1.04.08-3.11.25-1.95.16-1.56.09-.36-4.52-3.18.2-2.28.17-.27-3.26-.2-2.25-.05-.9-.19-1.82-.3-2.76-.07-1.33-.1-.94-.9.04-.4-5.42-2.02.13-5.22.4-1.01.03-4.06.28.02-.54.13-.17-.73-.98v-.52l.1-.32.37-.21.15-.27.17-.1-.01-.23.31-.26.03-.17-.29-.11.14-.23-.17-.28-.23-.11-.2.1-.25-.37-.12.2-.07-.28-.24-.08-.01-.14-.51-.22-.05-.11-.4.02-.24.12-.14-.08-.13.28-.3.1-.19.2-.37.07-.57.34-.46-.1-.08-.12-.32-.13-.3-.25-.48-.12-.09.14-.23-.03-.35-.44-.2-.06-.27-.25-.08.07-.11-.28-.17.03-.02.24-.59.07-.43-.06-.22-.36-.05-.62-.18.14-.13-.14-.11.2-.33-.35.06-.11-.36.01-.2-3.32-.3-4.06-.1-.01-.37-5.44 2.75-.17-.15-2.47-.17-2.95h-.1l-.13-1.83-.27.48-.15.1-.04-.22-.37.12-.08.17-.19.03-.3.2-.22.32-.57.13-.26.14-.18.24-.16-2.43-2.72.13.04.9.14 1.83-1.7.08-2.52.17-5.33.33-1.37.08-2.88.2-2.76.13-1.25.05-2.23.13-4.76.21-.12-2.27v-.44l-.11-1.9-.29-6.2-.16-2.8-.13-2.72 6.76-.33 4.22-.25-.01-.62-.27-4.8-.54.02-.23-3.83-.26-4.05-.18-2.95-.19.01-.05-1-.24-3.74-.14-2.5-.07-1.79-.1-1.71h-.19l-.09-1.34-.1-2.72-.1-1.35h.32l2.05-.13 1.05-.09 2.04-.1-.3-5.4 4.09-.23 1.21-.08-.16-2.73-.25-3.7-.49.55-.44.3-.49.11-.76.26-.76.17-.42-.08-1-.57.09-.11-.32-.3-.28-.52v-.14l.3-.35-.23-.05-.04-.34-.15-.2-.04-.36.16-.45-.05-.08 3.49-.21-.69-11.96.58.44 1.44.4.91-.14.5-.42h.3l.36-.08 1.03.55.69.5.5.24.36-.02.44.07-.14.4v.44l.74 2.45.02.51.66 2.35.53.65 1.04 3.81.75 2.78.02.36-.16.12.02.48.19.4-.33.28-.04.25.22.46.07.84.16.2.32.17.47.4.25.42.46.09.4.27.2.27.52.08.26-.04.22.1.16.3.63.03.2.05h.6l.4.12.29-.1.45-.53.55-.07.43.15.58.05.28-.06.41-.2.55.1.19.18.28.08.23.39-.03.6.24.32.44.1.52-.08.67.03.22.06 1.4-.02.52-.12.04.08.44-.02.29.05.48-.12 1.12.23.57.04.33-.13.52.07h.9l.21.12.3.48.11.42.25.45.08.3-.1.63.03.24-.11.4.53.4.88-.04.24-.08.66-.08.32.08 1.04-.15.24-.42.13-.04.35.26.33-.24.34.05.65-.13.66-.24.29-.2.69-.21.11-.15.08-.37-.26-.78.02-.13.54-.1.26-.26.42-.28.13.16.57-.08.17-.29.16.06.1-.48 1.92-.66 1-.07.65.54 1.9-.28 2.18-.05.6-.3.1.04.07.66.43.02.42.3.33.02 3.65 1.43 1.46-.34.48.07.3.9-.14.22.12.09-.2.14-.38-.04-.13.17h-.5l-.29.12-.02.33-.17.68.57.55.5.07.18.12 1.66-.27.82-.3.61-.06.44.52.15.04.17.29.41.11.03.4-.34.95.2.6.39.68.53.71.13.01.23.26.36.73.42.63.08.36.31.53.34-.33.44-.16.35-.24.7-.19.21-.13-.1-.27-.38-.23-.3-.69.1-.57-.26-.3.01-.19.18-.06.09-.6.54-.43.86.11.12.13.2-.05.06-.2.23.07.28-.1.03-.2.3-.2.34-.1.07.28 1.26-.04.11-.14.47-.09.17.33.09.42.2.04.15.21.67.08-.2.78.05.3.1.21.06.46.4.13.33.46.08-.3h.23l.26.2-.21.09.03.32.35.07.09-.14.44-.17.47-.02.2.3.4.22.12.38 1-.24.04.1.5.13.07.18.16-.14.34-.04.15-.17.18.21.14-.2.57.11.1.36-.18.25-.03.28.41-.02-.02.58.26.3-.01.32-.2.56h.18l.4-.3-.06.34.23.12.25-.01.24-.26v.14l.32.37.52-.21.55-.06.26-.16.36-.09.14.15-.32.34-.03.85.06.28-.03.26.2.16.49-.36 1.1-.56.48-.02.33-.09.3.5.18.08.33-.18.46-.17.4-.42.13.06.5-.23.08.09.24-.1.74-.13.49-.19.33-.2.28-.4.41-.27.44-.74.3-.04.37-.51.38-.31-.12-.16.45-.23.08-.2.47-.25.17-.26.36-.06.15-.2.68-.14.9-1.03 1.08-.44.2-.04.17-.23.4-.31.26.23.17-.03.4-.23.16.12.28 1.58v.37l.1.09.3-.2h.28l.12.45.1.1.42-.1v.4l-.37.34.05.1.29-.02-.17.2.3.13.4.77.25.21.2-.12.8-.14.35-.17.92-.2.28-.29.75-.25.22-.22.09.09.34-.09.09.15-.25.35.06.18.25.13.82-.19.63-.07.39-.34.32.08.33.16.56-.25.15-.03.66.38.12-.14.46-.02.31-.3.51-.15.37.17.29-.17.44-.02.6-.27.29.04.48-.1.24-.17.27.05.42-.13h.23l.39.18.5-.06.75.17.35.2.4.1.24.5.13-.05.27.31.12.26-.02.44.08.2.44.13.16.24.34.08.02-.16.34-.04.21.28-.02.12.69.39.57-.02.05-.13.46-.14.05-.28.18.04.24-.51.26-.1.07.1.25-.17.26-.04.24-.15.38-.08.15.1.57.04.04.23.3.05.27-.17.34-.04.14.08.19-.1.1.18.3-.02v-.15l.41-.14.14-.21.1.33.49.11.12.14.73-.23.39-.03.29-.18.33-.07.03.12-.34.07-.68.32-.24.03-.25.25-.28.19-.53.1-.13-.13.17-.15-.26-.21-.41.34-.22.28.27.58.05.2-.27-.17-.16-.2-.4.07-.24.42.23.25-.33.14-.3.35-.34.24-.1.24-.4.36-.01.11-.34.1-.39.4-.13.02-.55.41h-.22l-.31.24-.37.05-.37.36-.12-.12-.33.23-.24.03-.14.15.09.2-.49.39-.24.04-.18.32-.6.25-.42.27-.38.05-.33.2-.28.06-.14.29-.28.04-.48.3-.1-.02-.82.17-.35.25-.17.32-.27.08-.59.03-.56.22-.14.13-.84.45-.19.01-.34.21.04.2-.41.02-.87.23-.15.14-.49.12-.33.16-.03.19-.63.25-.56.28-.79.38-.26.44-.69.37-.9.62-.81.65-.32.1-.85.6-.66.6-.3.17-.22.34-.9.82-.25.28-.3.2-.55.59-.74.87-.43.36-.59.67-.8.8-.18.25-.29.08-.45.77-.48.65-.21.1-.44.44-.03.19-.21.2-.64.98-.12.62-.23.07-.21.29-.13.39-.12-.02-.17.38-.2.07-.13.35-.02.34-.45.25-.12.35-.22.05v.23l-.26.14-.45.53-.03.2-.48.56-.06.35-.45.41-.1.25-.49.21v.2l-.19.1-.88 1.39-.3.25-.36.08-.19.16-.25.46-.38.13-.2.28-.17-.01-.34.16-.2.37-.16.54-.2-.04-.52.57-.24.4.16.25-.2.07-.12-.12-.18.12.02.35-.34-.04-.15.36-.43.1-.63.75-.57.85-.2.17-.04.3-.28.1-.37.36-.08.22-.2-.08-.34.09-.26.38-.21.2-.22.04-.4.36-.31.43-.82.63-.24.3-.42.31-.24.36-.4.22-.33.38-.24.12-.25.3-.06.2-.48.3-.17.26.09.3.37.57.64.79.6.62.23.12m47.9-45.1.44-.06.12.22-.62.48-.15-.22.2-.42" fill="#d1dbdd" stroke="rgb(209, 219, 221)" stroke-width="0.1" data-originalStrokeWidth="0.1" style="stroke: rgb(0, 0, 0); fill: rgb(209, 219, 221); pointer-events: auto; stroke-width: 0.1;" pointer-events="auto"/>
      <g id="state_lines" stroke="rgb(209, 219, 221)" style="display: none; stroke: rgb(0, 0, 0);" stroke-width="0.1"/>
      <g id="state_abbr" fill="#000000" style="display: none; fill: rgb(0, 0, 0);">
        <text id="HI_label" x="491.79" y="769.82" style="font-size: 19.2455px; stroke-width: 1.60379; display: none;">
          <tspan id="HI_tspan" x="491.79" y="769.82" fill="#000000" dy="0" font-family="Arial" font-size="24.06" font-style="normal" font-weight="400" style="text-align: center; stroke-width: 2.57215; fill: rgb(0, 0, 0);" text-anchor="middle">HI</tspan>
        </text>
        <text id="AK_label" x="205.24" y="672.25" style="font-size: 19.2455px; stroke-width: 1.60379; display: none;">
          <tspan id="AK_tspan" x="205.24" y="672.25" fill="#000000" dy="0" font-family="Arial" font-size="24.06" font-style="normal" font-weight="400" style="text-align: center; stroke-width: 2.57215; fill: rgb(0, 0, 0);" text-anchor="middle">AK</tspan>
        </text>
        <text id="FL_label" x="1188.11" y="708.7" style="font-size: 19.2455px; stroke-width: 1.60379; display: none;">
          <tspan id="FL_tspan" x="1188.11" y="708.7" fill="#000000" dy="0" font-family="Arial" font-size="24.06" font-style="normal" font-weight="400" style="text-align: center; stroke-width: 2.57215; fill: rgb(0, 0, 0);" text-anchor="middle">FL</tspan>
        </text>
        <text id="NH_label" x="1306.05" y="167.79" stroke-width="1.1" font-size="13.25" style="display: none;">
          <tspan id="NH_tspan" x="1306.05" y="167.79" fill="#000000" stroke-width="1.1" dy="0" font-family="Arial" font-size="16.56" font-style="normal" font-weight="400" style="text-align: center; fill: rgb(0, 0, 0);" text-anchor="middle">NH</tspan>
        </text>
        <text id="MI_label" x="1019.65" y="246.58" style="font-size: 19.2455px; stroke-width: 1.60379; display: none;">
          <tspan id="MI_tspan" x="1019.65" y="246.58" fill="#000000" dy="0" font-family="Arial" font-size="24.06" font-style="normal" font-weight="400" style="text-align: center; stroke-width: 2.57215; fill: rgb(0, 0, 0);" text-anchor="middle">MI</tspan>
        </text>
        <text id="VT_label" x="1274.28" y="145.01" stroke-width="1.05" font-size="12.65" style="display: none;">
          <tspan id="VT_tspan" x="1274.28" y="145.01" fill="#000000" stroke-width="1.05" dy="0" font-family="Arial" font-size="15.81" font-style="normal" font-weight="400" style="text-align: center; fill: rgb(0, 0, 0);" text-anchor="middle">VT</tspan>
        </text>
        <text id="ME_label" x="1338.99" y="105.14" stroke-width="1.45" font-size="17.36" style="display: none;">
          <tspan id="ME_tspan" x="1338.99" y="105.14" fill="#000000" stroke-width="1.45" dy="0" font-family="Arial" font-size="21.7" font-style="normal" font-weight="400" style="text-align: center; fill: rgb(0, 0, 0);" text-anchor="middle">ME</tspan>
        </text>
        <text id="RI_label" x="1361.38" y="262.84" stroke-width="1.25" font-size="14.98" style="display: none;">
          <tspan id="RI_tspan" x="1361.38" y="262.84" fill="#000000" stroke-width="1.25" dy="0" font-family="Arial" font-size="18.72" font-style="normal" font-weight="400" style="text-align: center; fill: rgb(0, 0, 0);" text-anchor="middle">RI</tspan>
        </text>
        <text id="NY_label" x="1227.27" y="204.12" style="font-size: 19.2455px; stroke-width: 1.60379; display: none;">
          <tspan id="NY_tspan" x="1227.27" y="204.12" fill="#000000" dy="0" font-family="Arial" font-size="24.06" font-style="normal" font-weight="400" style="text-align: center; stroke-width: 2.57215; fill: rgb(0, 0, 0);" text-anchor="middle">NY</tspan>
        </text>
        <text id="PA_label" x="1187.28" y="284.69" style="font-size: 19.2455px; stroke-width: 1.60379; display: none;">
          <tspan id="PA_tspan" x="1187.28" y="284.69" fill="#000000" dy="0" font-family="Arial" font-size="24.06" font-style="normal" font-weight="400" style="text-align: center; stroke-width: 2.57215; fill: rgb(0, 0, 0);" text-anchor="middle">PA</tspan>
        </text>
        <text id="NJ_label" x="1330.57" y="290.09" stroke-width="1.28" font-size="15.4" style="display: none;">
          <tspan id="NJ_tspan" x="1330.57" y="290.09" fill="#000000" stroke-width="1.28" dy="0" font-family="Arial" font-size="19.25" font-style="normal" font-weight="400" style="text-align: center; fill: rgb(0, 0, 0);" text-anchor="middle">NJ</tspan>
        </text>
        <text id="DE_label" x="1320.8" y="328.42" stroke-width="1.36" font-size="16.38" style="display: none;">
          <tspan id="DE_tspan" x="1320.8" y="328.42" fill="#000000" stroke-width="1.36" dy="0" font-family="Arial" font-size="20.47" font-style="normal" font-weight="400" style="text-align: center; fill: rgb(0, 0, 0);" text-anchor="middle">DE</tspan>
        </text>
        <text id="MD_label" x="1310.72" y="368.46" stroke-width="1.34" font-size="16.11" style="display: none;">
          <tspan id="MD_tspan" x="1310.72" y="368.46" fill="#000000" stroke-width="1.34" dy="0" font-family="Arial" font-size="20.13" font-style="normal" font-weight="400" style="text-align: center; fill: rgb(0, 0, 0);" text-anchor="middle">MD</tspan>
        </text>
        <text id="VA_label" x="1198.59" y="392.33" style="font-size: 19.2455px; stroke-width: 1.60379; display: none;">
          <tspan id="VA_tspan" x="1198.59" y="392.33" fill="#000000" dy="0" font-family="Arial" font-size="24.06" font-style="normal" font-weight="400" style="text-align: center; stroke-width: 2.57215; fill: rgb(0, 0, 0);" text-anchor="middle">VA</tspan>
        </text>
        <text id="WV_label" x="1129.66" y="382.3" style="font-size: 19.2455px; stroke-width: 1.60379; display: none;">
          <tspan id="WV_tspan" x="1129.66" y="382.3" fill="#000000" dy="0" font-family="Arial" font-size="24.06" font-style="normal" font-weight="400" style="text-align: center; stroke-width: 2.57215; fill: rgb(0, 0, 0);" text-anchor="middle">WV</tspan>
        </text>
        <text id="OH_label" x="1079.05" y="334.46" style="font-size: 19.2455px; stroke-width: 1.60379; display: none;">
          <tspan id="OH_tspan" x="1079.05" y="334.46" fill="#000000" dy="0" font-family="Arial" font-size="24.06" font-style="normal" font-weight="400" style="text-align: center; stroke-width: 2.57215; fill: rgb(0, 0, 0);" text-anchor="middle">OH</tspan>
        </text>
        <text id="IN_label" x="998.79" y="352.94" style="font-size: 19.2455px; stroke-width: 1.60379; display: none;">
          <tspan id="IN_tspan" x="998.79" y="352.94" fill="#000000" dy="0" font-family="Arial" font-size="24.06" font-style="normal" font-weight="400" style="text-align: center; stroke-width: 2.57215; fill: rgb(0, 0, 0);" text-anchor="middle">IN</tspan>
        </text>
        <text id="IL_label" x="927.43" y="364.36" style="font-size: 19.2455px; stroke-width: 1.60379; display: none;">
          <tspan id="IL_tspan" x="927.43" y="364.36" fill="#000000" dy="0" font-family="Arial" font-size="24.06" font-style="normal" font-weight="400" style="text-align: center; stroke-width: 2.57215; fill: rgb(0, 0, 0);" text-anchor="middle">IL</tspan>
        </text>
        <text id="CT_label" x="1299.17" y="228.46" stroke-width="1.06" font-size="12.74" style="display: none;">
          <tspan id="CT_tspan" x="1299.17" y="228.46" fill="#000000" stroke-width="1.06" dy="0" font-family="Arial" font-size="15.93" font-style="normal" font-weight="400" style="text-align: center; fill: rgb(0, 0, 0);" text-anchor="middle">CT</tspan>
        </text>
        <text id="WI_label" x="898.6" y="224.7" style="font-size: 19.2455px; stroke-width: 1.60379; display: none;">
          <tspan id="WI_tspan" x="898.6" y="224.7" fill="#000000" dy="0" font-family="Arial" font-size="24.06" font-style="normal" font-weight="400" style="text-align: center; stroke-width: 2.57215; fill: rgb(0, 0, 0);" text-anchor="middle">WI</tspan>
        </text>
        <text id="NC_label" x="1205.6" y="458.72" style="font-size: 19.2455px; stroke-width: 1.60379; display: none;">
          <tspan id="NC_tspan" x="1205.6" y="458.72" fill="#000000" dy="0" font-family="Arial" font-size="24.06" font-style="normal" font-weight="400" style="text-align: center; stroke-width: 2.57215; fill: rgb(0, 0, 0);" text-anchor="middle">NC</tspan>
        </text>
        <text id="MA_label" x="1305.87" y="200.67" stroke-width="1.04" font-size="12.46" style="display: none;">
          <tspan id="MA_tspan" x="1305.87" y="200.67" fill="#000000" stroke-width="1.04" dy="0" font-family="Arial" font-size="15.58" font-style="normal" font-weight="400" style="text-align: center; fill: rgb(0, 0, 0);" text-anchor="middle">MA</tspan>
        </text>
        <text id="MO_label" x="854.22" y="422.93" style="font-size: 19.2455px; stroke-width: 1.60379; display: none;">
          <tspan id="MO_tspan" x="854.22" y="422.93" fill="#000000" dy="0" font-family="Arial" font-size="24.06" font-style="normal" font-weight="400" style="text-align: center; stroke-width: 2.57215; fill: rgb(0, 0, 0);" text-anchor="middle">MO</tspan>
        </text>
        <text id="GA_label" x="1106.89" y="574.56" style="font-size: 19.2455px; stroke-width: 1.60379; display: none;">
          <tspan id="GA_tspan" x="1106.89" y="574.56" fill="#000000" dy="0" font-family="Arial" font-size="24.06" font-style="normal" font-weight="400" style="text-align: center; stroke-width: 2.57215; fill: rgb(0, 0, 0);" text-anchor="middle">GA</tspan>
        </text>
        <text id="SC_label" x="1166.32" y="522.49" style="font-size: 19.2455px; stroke-width: 1.60379; display: none;">
          <tspan id="SC_tspan" x="1166.32" y="522.49" fill="#000000" dy="0" font-family="Arial" font-size="24.06" font-style="normal" font-weight="400" style="text-align: center; stroke-width: 2.57215; fill: rgb(0, 0, 0);" text-anchor="middle">SC</tspan>
        </text>
        <text id="KY_label" x="1039.99" y="426.39" style="font-size: 19.2455px; stroke-width: 1.60379; display: none;">
          <tspan id="KY_tspan" x="1039.99" y="426.39" fill="#000000" dy="0" font-family="Arial" font-size="24.06" font-style="normal" font-weight="400" style="text-align: center; stroke-width: 2.57215; fill: rgb(0, 0, 0);" text-anchor="middle">KY</tspan>
        </text>
        <text id="AL_label" x="1019.59" y="578.15" style="font-size: 19.2455px; stroke-width: 1.60379; display: none;">
          <tspan id="AL_tspan" fill="#000000" dy="0" font-family="Arial" font-size="24.06" font-style="normal" font-weight="400" style="text-align: center; stroke-width: 2.57215; fill: rgb(0, 0, 0);" text-anchor="middle">AL</tspan>
        </text>
        <text id="LA_label" x="872.7" y="649.59" style="font-size: 19.2455px; stroke-width: 1.60379; display: none;">
          <tspan id="LA_tspan" x="872.7" y="649.59" fill="#000000" dy="0" font-family="Arial" font-size="24.06" font-style="normal" font-weight="400" style="text-align: center; stroke-width: 2.57215; fill: rgb(0, 0, 0);" text-anchor="middle">LA</tspan>
        </text>
        <text id="MS_label" x="940.37" y="592.21" style="font-size: 19.2455px; stroke-width: 1.60379; display: none;">
          <tspan id="MS_tspan" x="940.37" y="592.21" fill="#000000" dy="0" font-family="Arial" font-size="24.06" font-style="normal" font-weight="400" style="text-align: center; stroke-width: 2.57215; fill: rgb(0, 0, 0);" text-anchor="middle">MS</tspan>
        </text>
        <text id="IA_label" x="823.33" y="308.44" style="font-size: 19.2455px; stroke-width: 1.60379; display: none;">
          <tspan id="IA_tspan" x="823.33" y="308.44" fill="#000000" dy="0" font-family="Arial" font-size="24.06" font-style="normal" font-weight="400" style="text-align: center; stroke-width: 2.57215; fill: rgb(0, 0, 0);" text-anchor="middle">IA</tspan>
        </text>
        <text id="MN_label" x="790.84" y="183.37" style="font-size: 19.2455px; stroke-width: 1.60379; display: none;">
          <tspan id="MN_tspan" x="790.84" y="183.37" fill="#000000" dy="0" font-family="Arial" font-size="24.06" font-style="normal" font-weight="400" style="text-align: center; stroke-width: 2.57215; fill: rgb(0, 0, 0);" text-anchor="middle">MN</tspan>
        </text>
        <text id="OK_label" x="732.05" y="519.54" style="font-size: 19.2455px; stroke-width: 1.60379; display: none;">
          <tspan id="OK_tspan" x="732.05" y="519.54" fill="#000000" dy="0" font-family="Arial" font-size="24.06" font-style="normal" font-weight="400" style="text-align: center; stroke-width: 2.57215; fill: rgb(0, 0, 0);" text-anchor="middle">OK</tspan>
        </text>
        <text id="TX_label" x="710.59" y="652.87" style="font-size: 19.2455px; stroke-width: 1.60379; display: none;">
          <tspan id="TX_tspan" x="710.59" y="652.87" fill="#000000" dy="0" font-family="Arial" font-size="24.06" font-style="normal" font-weight="400" style="text-align: center; stroke-width: 2.57215; fill: rgb(0, 0, 0);" text-anchor="middle">TX</tspan>
        </text>
        <text id="NM_label" x="506.94" y="542.36" style="font-size: 19.2455px; stroke-width: 1.60379; display: none;">
          <tspan id="NM_tspan" x="506.94" y="542.36" fill="#000000" dy="0" font-family="Arial" font-size="24.06" font-style="normal" font-weight="400" style="text-align: center; stroke-width: 2.57215; fill: rgb(0, 0, 0);" text-anchor="middle">NM</tspan>
        </text>
        <text id="KS_label" x="701.21" y="427.26" style="font-size: 19.2455px; stroke-width: 1.60379; display: none;">
          <tspan id="KS_tspan" x="701.21" y="427.26" fill="#000000" dy="0" font-family="Arial" font-size="24.06" font-style="normal" font-weight="400" style="text-align: center; stroke-width: 2.57215; fill: rgb(0, 0, 0);" text-anchor="middle">KS</tspan>
        </text>
        <text id="NE_label" x="686.63" y="337.29" style="font-size: 19.2455px; stroke-width: 1.60379; display: none;">
          <tspan id="NE_tspan" x="686.63" y="337.29" fill="#000000" dy="0" font-family="Arial" font-size="24.06" font-style="normal" font-weight="400" style="text-align: center; stroke-width: 2.57215; fill: rgb(0, 0, 0);" text-anchor="middle">NE</tspan>
        </text>
        <text id="SD_label" x="663.02" y="238.75" style="font-size: 19.2455px; stroke-width: 1.60379; display: none;">
          <tspan id="SD_tspan" x="663.02" y="238.75" fill="#000000" dy="0" font-family="Arial" font-size="24.06" font-style="normal" font-weight="400" style="text-align: center; stroke-width: 2.57215; fill: rgb(0, 0, 0);" text-anchor="middle">SD</tspan>
        </text>
        <text id="ND_label" x="663.02" y="150.75" style="font-size: 19.2455px; stroke-width: 1.60379; display: none;">
          <tspan id="ND_tspan" x="663.02" y="150.75" fill="#000000" dy="0" font-family="Arial" font-size="24.06" font-style="normal" font-weight="400" style="text-align: center; stroke-width: 2.57215; fill: rgb(0, 0, 0);" text-anchor="middle">ND</tspan>
        </text>
        <text id="WY_label" x="499.57" y="276.47" style="font-size: 19.2455px; stroke-width: 1.60379; display: none;">
          <tspan id="WY_tspan" x="499.57" y="276.47" fill="#000000" dy="0" font-family="Arial" font-size="24.06" font-style="normal" font-weight="400" style="text-align: center; stroke-width: 2.57215; fill: rgb(0, 0, 0);" text-anchor="middle">WY</tspan>
        </text>
        <text id="MT_label" x="487.84" y="155.58" style="font-size: 19.2455px; stroke-width: 1.60379; display: none;">
          <tspan id="MT_tspan" x="487.84" y="155.58" fill="#000000" dy="0" font-family="Arial" font-size="24.06" font-style="normal" font-weight="400" style="text-align: center; stroke-width: 2.57215; fill: rgb(0, 0, 0);" text-anchor="middle">MT</tspan>
        </text>
        <text id="CO_label" x="525.13" y="406.28" style="font-size: 19.2455px; stroke-width: 1.60379; display: none;">
          <tspan id="CO_tspan" x="525.13" y="406.28" fill="#000000" dy="0" font-family="Arial" font-size="24.06" font-style="normal" font-weight="400" style="text-align: center; stroke-width: 2.57215; fill: rgb(0, 0, 0);" text-anchor="middle">CO</tspan>
        </text>
        <text id="ID_label" x="339.94" y="235.07" style="font-size: 19.2455px; stroke-width: 1.60379; display: none;">
          <tspan id="ID_tspan" x="339.94" y="235.07" fill="#000000" dy="0" font-family="Arial" font-size="24.06" font-style="normal" font-weight="400" style="text-align: center; stroke-width: 2.57215; fill: rgb(0, 0, 0);" text-anchor="middle">ID</tspan>
        </text>
        <text id="UT_label" x="396.81" y="386.73" style="font-size: 19.2455px; stroke-width: 1.60379; display: none;">
          <tspan id="UT_tspan" x="396.81" y="386.73" fill="#000000" dy="0" font-family="Arial" font-size="24.06" font-style="normal" font-weight="400" style="text-align: center; stroke-width: 2.57215; fill: rgb(0, 0, 0);" text-anchor="middle">UT</tspan>
        </text>
        <text id="AZ_label" x="366.76" y="536.9" style="font-size: 19.2455px; stroke-width: 1.60379; display: none;">
          <tspan id="AZ_tspan" x="366.76" y="536.9" fill="#000000" dy="0" font-family="Arial" font-size="24.06" font-style="normal" font-weight="400" style="text-align: center; stroke-width: 2.57215; fill: rgb(0, 0, 0);" text-anchor="middle">AZ</tspan>
        </text>
        <text id="NV_label" x="262.47" y="370.64" style="font-size: 19.2455px; stroke-width: 1.60379; display: none;">
          <tspan id="NV_tspan" x="262.47" y="370.64" fill="#000000" dy="0" font-family="Arial" font-size="24.06" font-style="normal" font-weight="400" style="text-align: center; stroke-width: 2.57215; fill: rgb(0, 0, 0);" text-anchor="middle">NV</tspan>
        </text>
        <text id="OR_label" x="214.43" y="206.88" style="font-size: 19.2455px; stroke-width: 1.60379; display: none;">
          <tspan id="OR_tspan" x="214.43" y="206.88" fill="#000000" dy="0" font-family="Arial" font-size="24.06" font-style="normal" font-weight="400" style="text-align: center; stroke-width: 2.57215; fill: rgb(0, 0, 0);" text-anchor="middle">OR</tspan>
        </text>
        <text id="WA_label" x="238.05" y="102.99" style="font-size: 19.2455px; stroke-width: 1.60379; display: none;">
          <tspan id="WA_tspan" x="238.05" y="102.99" fill="#000000" dy="0" font-family="Arial" font-size="24.06" font-style="normal" font-weight="400" style="text-align: center; stroke-width: 2.57215; fill: rgb(0, 0, 0);" text-anchor="middle">WA</tspan>
        </text>
        <text id="CA_label" x="191.69" y="434.8" style="font-size: 19.2455px; stroke-width: 1.60379; display: none;">
          <tspan id="CA_tspan" x="191.69" y="434.8" fill="#000000" dy="0" font-family="Arial" font-size="24.06" font-style="normal" font-weight="400" style="text-align: center; stroke-width: 2.57215; fill: rgb(0, 0, 0);" text-anchor="middle">CA</tspan>
        </text>
        <text id="DC_label" x="1309.32" y="398.19" stroke-width="1.29" font-size="15.45" style="display: none;">
          <tspan id="DC_tspan" x="1309.32" y="398.19" fill="#000000" stroke-width="1.29" dy="0" font-family="Arial" font-size="19.31" font-style="normal" font-weight="400" style="text-align: center; fill: rgb(0, 0, 0);" text-anchor="middle">DC</tspan>
        </text>
        <text id="TN_label" x="1018.93" y="485.72" style="font-size: 19.2455px; stroke-width: 1.60379; display: none;">
          <tspan id="TN_tspan" x="1018.93" y="485.72" fill="#000000" dy="0" font-family="Arial" font-size="24.06" font-style="normal" font-weight="400" style="text-align: center; stroke-width: 2.57215; fill: rgb(0, 0, 0);" text-anchor="middle">TN</tspan>
        </text>
        <text id="AR_label" x="863.15" y="535.77" style="font-size: 19.2455px; stroke-width: 1.60379; display: none;">
          <tspan id="AR_tspan" x="863.15" y="535.77" fill="#000000" dy="0" font-family="Arial" font-size="24.06" font-style="normal" font-weight="400" style="text-align: center; stroke-width: 2.57215; fill: rgb(0, 0, 0);" text-anchor="middle">AR</tspan>
        </text>
      </g>
      <g id="state_borders" transform="translate(-0.04777967,-0.15336683)" stroke="rgb(209, 219, 221)" style="stroke: rgb(0, 0, 0);" stroke-width="0.3">
        <path id="MN_IA_border" d="m749.54 257.66 10.8-.5 10.52-.55 11.82-.7 11.9-.75 11.34-.74 9.96-.73 5.9-.45 10.92-.9 11.56-1.03 14.23-1.31 9.82-.97.1.5" stroke="rgb(209, 219, 221)" stroke-width="0.3" fill="none" style="stroke: rgb(0, 0, 0); display: none;"/>
        <path id="MN_WI_border" d="m868.3 249.02-.73-1.47.17-1.04-.93-.98v-1.02l-.2-.22-.1-1.73.24-.78.1-1.31-.45-.51-.66-1.7-.67-.57-.3-.64-.9-.81-.23-.55-1.02-.8-.9-1.12-.92-.12-.62-.28-1.72-.11-.62-.56-.88-.4-.93-1.01-.6-.16-.11-.52-.97-.36-1.56-.8-.31-.4-1.1-.61-.51-1.05-.17-1.2-.57-.36.08-.8-.33-.67-.85-.73-1.84-.77-.4-.36-1.3-.28-.33-.23-2.07-.33-1.47-.98-.65-.8-.36-1.15-.8-.53-2.42.05-.87-.05-.6-.24-.66.24-.04-.38-.5-.66-.32.15-.86-.4-.08-.77-1.02-.68-.88-.88-.87-.68-1.18-.55-.48-.4v-.53l.43-.97.28-1.4-.07-1.1-.3-.5.3-.5.13-.94-.5-1.05-.12-.92.08-.88-.78-.63-.17-.45.22-.47.96-1-.38-1.33.05-.7-.37-.33.26-1.06-.27-.97.16-.4-.24-.9.46-.33.74-1.21-.16-.54 1.07-1.5-.04-1.36-.17-.4-.62-.25-1.16-1.5-.05-.83-1.05-.73-1.15.3-1.06-.14-.3-.22-.25-1.98.2-2.5 1.25-.93.49-.7.46-1.52-.21-.48.52-.7.06-.63.5-.9.66-.42.72-.92 1.88-.72v-.53l.58-.55 1.1.25.55-1.41.65-.41.86.33.5-.12.06-.83.27-.75.73-.32-1.6-18.51.6.4 1.18-.06.1-.47.56-.87-.64-.18.28-.64.93-.03v-.6l.55-.5.59-.05 1.3 1.14.4.05" stroke="rgb(209, 219, 221)" stroke-width="0.3" fill="none" style="stroke: rgb(0, 0, 0); display: none;"/>
      </g>
      <rect id="selection-rectangle" fill="#ffffccaa" stroke="rgb(209, 219, 221)" stroke-width="0.1"/>
      <ellipse id="selection-ellipse" fill="#ffffccaa" stroke="rgb(209, 219, 221)" stroke-width="0.1"/>
      <polygon id="selection-polygon" fill="#ffffccaa" stroke="rgb(209, 219, 221)" stroke-width="0.1"/>
      <polyline id="selection-polyline" fill="#ffffccaa" stroke="rgb(209, 219, 221)" stroke-width="0.1"/>
    </svg>
  </g>
</svg>
