<?xml version='1.0' encoding='UTF-8'?>
<svg xmlns="http://www.w3.org/2000/svg" xmlns:dc="http://purl.org/dc/elements/1.1/" xmlns:ns2="http://creativecommons.org/ns#" xmlns:rdf="http://www.w3.org/1999/02/22-rdf-syntax-ns#" id="wrapper" viewBox="0 0 1520 840" preserveAspectRatio="xMinYMin" height="840" width="1520" style="background-color: rgb(255, 255, 255);">
  <metadata>
    <rdf:rdf>
      <ns2:work rdf:about="">
        <dc:format>image/svg+xml</dc:format>
        <dc:type rdf:resource="http://purl.org/dc/dcmitype/StillImage"/>
        <dc:title>MapChart Map</dc:title>
        <dc:creator>
          <ns2:agent>
            <dc:title>MapChart.net</dc:title>
          </ns2:agent>
        </dc:creator>
        <ns2:license rdf:resource="http://creativecommons.org/licenses/by-sa/4.0/"/>
        <dc:description>This map was created with MapChart.net, a website for creating custom maps.</dc:description>
      </ns2:work>
      <ns2:license rdf:about="http://creativecommons.org/licenses/by-sa/4.0/">
        <ns2:permits rdf:resource="http://creativecommons.org/ns#Reproduction"/>
        <ns2:permits rdf:resource="http://creativecommons.org/ns#Distribution"/>
        <ns2:requires rdf:resource="http://creativecommons.org/ns#Notice"/>
        <ns2:requires rdf:resource="http://creativecommons.org/ns#Attribution"/>
        <ns2:requires rdf:resource="http://creativecommons.org/ns#ShareAlike"/>
      </ns2:license>
    </rdf:rdf>
  </metadata>
  <g id="map-group" transform="translate(-3814.274888506762,-2431.7910559588654) scale(4.8639222922467775)">
    <svg id="map" width="1520" height="840" version="1.1" viewBox="0 0 1520 840" preserveAspectRatio="xMinYMin" data-originalStrokeWidth="0.3">
      <defs>
        <pattern id="circles3" width="10" height="10" patternUnits="userSpaceOnUse">    <rect width="10" height="10" fill="#fff"/>    <circle cx="4" cy="4" r="2" fill="#000"/>    </pattern>
        <pattern id="diagonal1" width="10" height="10" patternUnits="userSpaceOnUse">    <rect width="10" height="10" fill="#fff"/>    </pattern>
        <pattern id="diagonal3" width="10" height="10" patternUnits="userSpaceOnUse">    <rect width="10" height="10" fill="#fff"/>    </pattern>
        <pattern id="vertical1" width="10" height="10" patternUnits="userSpaceOnUse">    <rect width="10" height="10" fill="#fff"/>    <rect x="2" y="0" width="1" height="10" fill="#000"/>    </pattern>
        <pattern id="vertical3" width="10" height="10" patternUnits="userSpaceOnUse">    <rect width="10" height="10" fill="#fff"/>    <rect x="2" y="0" width="3" height="10" fill="#000"/>    </pattern>
        <pattern id="horizontal1" width="10" height="10" patternUnits="userSpaceOnUse">    <rect width="10" height="10" fill="#fff"/>    <rect x="0" y="2" width="10" height="1" fill="#000"/>    </pattern>
        <pattern id="horizontal3" width="10" height="10" patternUnits="userSpaceOnUse">    <rect width="10" height="10" fill="#fff"/>    <rect x="0" y="2" width="10" height="3" fill="#000"/>    </pattern>
        <pattern id="crosshatch" width="8" height="8" patternUnits="userSpaceOnUse">    <rect width="8" height="8" fill="#fff"/>    </pattern>
        <pattern id="subtlepatch" width="5" height="5" patternUnits="userSpaceOnUse">    <rect width="5" height="5" fill="#fff"/>    <rect x="2" y="2" width="1" height="1" fill="#000"/>    </pattern>
        <pattern id="checkers" width="8" height="8" patternUnits="userSpaceOnUse">    <rect width="8" height="8" fill="#fff"/>    </pattern>
        <pattern id="raindrops" width="10" height="10" patternUnits="userSpaceOnUse">    <rect width="10" height="10" fill="#fff"/>    </pattern>
        <pattern id="texture" width="4" height="4" patternUnits="userSpaceOnUse">    <rect width="4" height="4" fill="#fff"/>    </pattern>
        <pattern id="circles3_a03500_000000" width="10" height="10" patternUnits="userSpaceOnUse">    <rect width="10" height="10" fill="#a03500"/>    <circle cx="4" cy="4" r="2" fill="#000000"/>    </pattern>
        <pattern id="diagonal1_d9b400_535353" width="10" height="10" patternUnits="userSpaceOnUse">    <rect width="10" height="10" fill="#d9b400"/>    </pattern>
        <pattern id="diagonal3_3264c8_ffffff" width="10" height="10" patternUnits="userSpaceOnUse">    <rect width="10" height="10" fill="#3264c8"/>    </pattern>
        <pattern id="horizontal1_72b38e_000000" width="10" height="10" patternUnits="userSpaceOnUse">    <rect width="10" height="10" fill="#72b38e"/>    <rect x="0" y="2" width="10" height="1" fill="#000000"/>    </pattern>
        <pattern id="horizontal3_986ba1_ffffff" width="10" height="10" patternUnits="userSpaceOnUse">    <rect width="10" height="10" fill="#986ba1"/>    <rect x="0" y="2" width="10" height="3" fill="#ffffff"/>    </pattern>
        <pattern id="vertical1_b9a087_ffffff" width="10" height="10" patternUnits="userSpaceOnUse">    <rect width="10" height="10" fill="#b9a087"/>    <rect x="2" y="0" width="1" height="10" fill="#ffffff"/>    </pattern>
        <pattern id="vertical3_4c91bf_ffff33" width="10" height="10" patternUnits="userSpaceOnUse">    <rect width="10" height="10" fill="#4c91bf"/>    <rect x="2" y="0" width="3" height="10" fill="#ffff33"/>    </pattern>
        <pattern id="checkers_cc3333_f7f7f7" width="8" height="8" patternUnits="userSpaceOnUse">    <rect width="8" height="8" fill="#cc3333"/>    </pattern>
        <pattern id="texture_d1dbdd_525252" width="4" height="4" patternUnits="userSpaceOnUse">    <rect width="4" height="4" fill="#d1dbdd"/>    </pattern>
        <style id="map-style">svg { background-color: #ffffff; }</style>
      </defs>
      <path id="MS01" d="m918.73 519.32-.03-.04-.24-.03-.09-.23.64-.44.36-.11.44-.3.18-.2.14-.35-.01-.53-.13-.6-.1-.13-.62-.22-.37-.24-.44-.34-.27-.38-.01-.1.44-.05 1.04-.12.32-.02.54-.07 1.26-.13.74-.06 1.04-.12.55-.06 1.7-.2.15-.02.32-.04.44-.05.41-.04.5-.06.46-.05.43-.04.57-.06.35-.03.43-.05.69-.1.2-.02.47-.06.9-.09.44-.07.9-.11 1.14-.14.47-.05h.02l.63-.07.15-.02 1.2-.13.91-.11.9-.08.68-.08 2.9-.34.45-.06 2.58-.32.08-.03.61-.06.59-.06.62-.07.5-.07.87-.13.87-.1 1.11-.14.57-.08 1.25-.14.76-.1.79-.13 1.08-.12.7-.09.77-.1 1-.13.87-.1 1.51-.2 1.19-.15.37-.06.82-.1.38-.06.56-.08.37-.04.34-.04.34-.05.22-.03.4-.05 1.8-.22.56-.08h.1l.25-.03.26-.05.5-.05 1.1-.15.74-.1h.05l.93-.12.25-.05.2.15.32.41.47.55.38.75.08.08.2.28.4.28.3.15.75.18.05.07.08 1.82.02.77v.12l.03.9v.7l.02.32.05 1.31-.02.48.02.95v1.4l.01.57.02.36.02.52v1l.02 1.27.02.38.02.64v.42l.06 1.15.04 1.17.03 1.34.02.58v.58l.03.44.01.67v.34l.02.3.06 1.51v.83l.07 2.66.03.73.02.79.01.7.03.93.01.43.02 1.09.05 1.68-.01.17.02.45-.01.07.02.74.02 1.16v.25l.04 1.14v.49l.02 1.02.09 1.96.02.8v.4l.03.57.02 1.14.03.91.01.68.01.13.02.57v.14l.01.53.02.29.01.71.03 1.01.02.34.02.53.02.74.01.34.03.88.01.56.03.48-1.84.25-1.7.2-3.27.48-2.65.35-.39-2.78-.79-5.96-.6.07-.36.26-.54-.04-.14-.09-1.77.25-4.67.6-.43.13-.89.1.17 1.55.25.08.84.1.95.04.14 1.1-.18.03.32 2.61-.61.44-.56.2.08.16.3-.03.05.46.87-.1.26 1.81-3.7.46.33 2.75-2.71.36.31 2.77-2.7.35-.4-3.53-.22-2.04-3.56.43-.56-4.63.15-.23.52.07.19.17.23-.24-.03-.27.2-.3.29-.04.24-.24-3.25.4-.52-4.33-.47-3.91-1.04-8.74-.27-2.23h-.04l-.23-1.69-.22-2.09-2.86.34-2.57.27-.5-4.6-.05-.13-.2-1.62-.11-.7-.13-1.53-.12-1.1-.23-1.7-1.34.15-4.1.5-.39.01-4.42.5-2.11.24v-.17l-.35.03.17-.15-.05-.3-.35-.06.06-.2-.3-.15-.08-.31-.25-.01.17-.29-.15-.2-.02-.36.24-.17.12-.36.18-.2-.02-.42-.3-.37.06-.55-.3-.23.17-.57.34-.32h.18l-.2-1.52-.08-.73-.22-2.05-2.63.28" fill="#d1dbdd" stroke="rgb(209, 219, 221)" stroke-width="0.1" data-originalStrokeWidth="0.1" style="stroke: rgb(0, 0, 0); fill: rgb(209, 219, 221); pointer-events: auto; stroke-width: 0.1;" pointer-events="auto"/>
      <path id="MS02" d="m925.53 641.35-2.03.24-2.94.33-.68.05-1.75.18-.56.07-.36.04-.31.04-.38.02-.72.08-.31.03-1.54.18-1.08.1-1.07.12-1.04.1-.27.03-.42.04-.95.1-.4.03-.68.07-1.32.13-.4.04-1.89.19-.32.03-.72.06v.02l-.57.05-.93.1-.97.1-.9.08-1.3.1-.9.1-1.45.14.3-.2.89-.5.3-.22.34-.51.07-.48-.15-.4-.9-.7-.53-.33-.35-.35-.11-.3.08-.25.56-.88.24-.63-.04-.33-.03-.14-.17-.24-.19-.2-.16-.14-.2-.11-.13-.09-.19-.14-.53-.22-.23-.24-.11-.28.01-.12.06-.13.07-.08.19-.19.52-.07.23.03.68.06h.37l.41-.07.65-.27.22-.13.23-.22.08-.19.06-.24-.06-.74-.05-.07-.14-.09-.23-.18-.3-.17-.03-.11-.4-.25-.11-.44-.02-.53.06-.18-.26-.09-.13.06-.15.17-.04.07-.32-.65.02-.36.26-.44.42-.32.2.02.13.21-.03.34.13.3.06.24.3.52.4.3.19.08.68-.07.1-.13.07-.25-.09-.64-.15-.02-.1-.18-.56-.45-.42-.74-.16-.5-.1-.71V628l-.15-.08-.07-.14.04-.23.1-.2.67-.17.27.08.43-.19.5-.27.39-.4.2-.2.14-.1.17-.34.03-.24v-.31l-.09-.06-.16-.09-.27-.02-.22.02-.62.32-.18.09-.26.04-.4.02-.3-.15-.15-.1-.31-.32-.1-.14-.05-.5.08-.23.37-.39.13.03.1.1.21.28.35.22.3.1.37.08.18.03.5.03.1-.07.4-.26.06-.77-.1-.47-.17-1.17.03-.46.37-.71.14-.22.1-.25.47-.14.83-.1.21.03h.24l.26.06.47-.04.23-.2.12-.2.06-.12-.13-.22-.2-.09h-.44l-.51.26-.37.11-.69.24-.48-.04v-.71l.26-1.73.02-.16.18-.3.25-.16.45-.07.42-.19.2.53-.01.11v.12l.02.07.02.13.02.09.04.08.04.05.05.11.05.07.1.1.1.03.14.04.07.01h.05l.13-.02.11-.07.08-.1.1-.12.08-.19-.01-.14.03-.13-.16-.11-.2-.19-.18-.15-.17-.22v-.19l.05-.13.45-.2.35-.28.77-1.08.53-.35-.12-.19v-.04l-.06-.28-.21-.04.05-.29-.01-.48.16-.24.07-.14.33-.35 1.24-.27.28-.1.4-.38.32-.56-.11-.04-.16-.4-.09-.07-.16-.08-1.41-.16-.3-.16-.19-.28.08-.38.2-.22.36-.05.2.1.44.55.23.17.08.06.12.02.43-.02.08-.05-.14-.8.24-.28.83-.57.17-.34-.02-.26v-.02l.07-.13.18-.1.2-.29.14-.35v-.61h-.07l-.3.07-.22-.02-.49-.34-.46-.17.02.29.29.45v.41l.02.57-.8-.17-.49.14-.24.23-.03-.02-.05-.01-.46.04-.36-.1-.5-.03-.3-.4-.08-.33.03-.62.1-.61.16-.22.62-.43.18.03.25.15h.12l.3-.4.42-.32.33-.02.25.18h.04l.14-.18.05-.32.12-.22.19-.06.33.08.35.23.33.2-.01.34.09.45.1.2.13-.08.2-.5-.01-.73.03-.38.27-.3-.07-.17-.36-.36-.06-.32.04-.16.02-.2.23-.2.16-.01.4.38.22-.09.35-.3.3-.34.24-.38.16-.67.08-.18.16-.34.17-.52.03-.21-.29.01-.1.05-.02.04-.03.2-.15.5-.26.36-.5-.1-.64.03-.86-.11-.37-.15-.17-.29.08-.47.08-.2.01-.5.47-.28.22-.32-.03-.23-.03-.2-.01-.05-.07-.1-.1-.07-.21-.17-.39-.07-.82.61-.58-.02-.52-.17-.52-.24-.3-.2-.42-.43-.13-.2-.09-.57.34-.83v-.61l.13-.14.42.34.9 1.13.32.21.37.13.64.02.25-.21.03-.34-.22-.27-.66-.34-.74-.18-.5-.22-.27-.21-.23-.35.44-.36.42-.32.12-.07.23-.2.18-.3.23-.24.22-.46-.05-.4-.32-.46-.32-.16-.28.3-.06.4-.17.4v.2l-.3.1-.46.18-.69.41h-.22l-.07.19-.16.02-.52-.39-.27-.51-.1-.31-.02-.13v-.34l.37-.34.03-.05.22-.5.18-.25.48-.4.45-.24.4-.41.19-.55v-.07l-.18-.17-.81-.18-.53-.05-.25-.05-.15-.04-.13.04-.5.08-.38-.14-.07-.12-.02-.38.2-.55-.26-.16.03-.37v-.19l-.02-.13v-.1l-.02-.05.03-.12v-.16l.05-.1.12-.1.17-.59.38-.37h.08l.49-.16.39-.44.43-.6.12-.4v-.17l-.04-.25-.02-.29-.25-.44-.24-.15-.06-.18.06-.08-.06-.35-.21-.4-.3-.3-.27-.05-.47.2-.06.02-.18.13-.07.27.25.27-.14.18.03.27.03.07.16.5-.01.34-.27.47-.47.25-.48-.02-.48-.16-.29-.25-.1-.15-.05-.45.23-.45.09-.03v-.04l-.1-.19.05-.2.25-.39.35-.38.14-.48-.01-.11-.02-.12.02-.19.09-.22.27-.2.26-.08.28-.24.05-.18-.02-.04.02-.07.08-.37-.14-.3-.27-.18-.26-.16-.26-.17-.49-.09-.32-.33-.51-.22-.1-.44.08-.27.13-.24.22-.17.6-.05.17.14.05.05.14.14.93-.06.26-.06.42-.24.05-.4-.02-.83-.08-.3-.6-1.05.47-.12.1-.2.17-.01.14-.24.33-.56.1-.76-.11-.23-.22-.1h-.3l-.29.14-.12.16-.06.17-.02.1-.03.35-.19.71-.3-.21-.11-.19-.12-.27-.05-.04-.25-.17v-.05l.03-.2v-.14l-.48-.53-.05-.55-.1-.37.04-.26-.04-.48.37-.31.4-.65.12-.24.08-.12.46-.47.12-.17.18-.29.17-.42-.05-.45-.03-.16-.2-.15-.24-.03-.28.15-.23.44.09.83-.1.23-.5.62-.13.07-.52.28h-.55l-.58-.22-.15-.12-.36-.26v-.23l.19-.3.4-.06.06.03.08.03.1-.02.09-.06.23-.14.1-.04.1-.07.2-.1h.07l.1.02.05-.02.1-.09.07-.07v-.06l.04-.1.24-.48-.08-.32-.16-.35-.21-.23-.59-.34-.38-.12-.13.05-.03.03-.04.13-.03.06-.02.25.25.75v.1l.06.08-.17.3-.23.17-.5.22-.25.01-.53-.16.06-.12-.02-.36.18-.2.45-.33.18-.53.34-.43-.12-.28-.79-.44-.2-.25-.27-.41-.15-.42.01-.07.13-.14.32-.11.95-.04.26-.08.3-.2.4-.46.22-.5-.04-.3-.14-.3-.16-.19-.37-.27-.69-.37-.4-.05-.52-.01-.25-.13-.26-.35-.05-.27.15-.39.2-.19.24-.08.76-.1.4-.2.05.06.42.45.17.2.1.11.1.1.08.04.14.06.33.13.22.1.14.05.14.06h.15l.12-.02.07-.01.17-.08.07-.05.19-.13.1-.06.04-.02.11-.05.4-.16.09-.17.05-.2-.03-.13-.05-.04-.12-.02-.02-.09-.05-.12-.05-.09-.2-.21-.4-.25h-.17l-.5.3-.37.16-.38.01-.23-.08-.22-.2-.2-.17-.1-.11-.16-.17.04-.35.05-.2-.03-.05.06-.35-.13-.22.22-.46.28-.05.44.3.87-.18.53-.17.72.34h.25l.32-.11.23-.2.14-.4-.05-.12-.3-.32-.5-.11-.1-.01-.05-.01-.16-.03-.51-.23-.53-.67-.1-.21-.14-.67.13-.3.35-.33.23-.24.36-.51.3-.57.03-.22-.07-.19-.34-.17-1.27-.17-.22-.03-.19-.15-.08-.28-.08-.63v-.35l.1-.29.29-.01.6.39.4-.04.4-.33.62 1.1.34.15.24-.01.29-.18.1-.43-.06-.1-.24-.3-.26-.18v-.07l-.06-.1-.07-.16-.05-.11-.1-.19.37-.24.38-.08.72.06.4-.02.48-.17.15-.1.06-.36-.1-.39.06-.23.23-.44.04-.12.03-.17-.1-.25-.08-.12-.2-.1-.12-.03-.68.25-.15-.03-.68-.37-.2-.2-.18-.23-.03-.41.51-.5.4-.31.23-.27.21.02.14.08.53.35.1.03.16.13.37.12.49-.06.2-.12.39-.52.07-.25-.05-.24-.06-.2-.23-.15-.63.03-.26-.03-.4.15h-.15l-.1-.06-.23.13-.75-.34-.39-.4-.2-.25-.13-.45.17-.41.15-.08.44.04.32.54.53.32.23.04.1.01h.2l.25.12.2-.42-.12-.6.08-.67-.02-.49.08-.16.33-.09.73.16.13.05.42.02.2-.05.32-.34.2-.32-.02-.68-.24-.35-.7-.69-.08-.28.27-.4h.42l.35.07.33.03.2-.06.77-.4-.07.62-.21.5-.02.25.04.21.2.21.22.06.41-.1.08-.24-.12-.46-.21-.36-.02-.22.24-.54-.1-.11.43-.47.61-.1.44-.3.27-.37.14-.6-.01-.2-.14-.21-.4-1.13-.03-.42.17-.73.07-.17.11-.14.2-.1.33-.26.23-.26v-.6l-.26-.34-.7-.66-.41-.55-.17-.4.04-.44.02-.19.12-.37.24-.4.01-.4-.1-.45.26-.03h.15l.22.13.19.4-.26.5v.49l.24.41.39.08.37-.14.69-.8.34-.45.12-.24.04-.14.02-.2-.1-.4-.1-.17-.16-.07-.47.16-.06.03-.06.02-.46.22h-.43l-.45-.16-.28-.2-.15-.02-.16-.03.05-.38-.02-.26.09-.16.46-.08.11-.54-.3-.85.12-.43.18-.14.3-.09.19.04.08.04.03.25.52.52.02.46-.28.27-.09.1-.2.34-.1.2.43.2.43.04.41-.14.46-.32.16-.22.02-.1-.17-.42-.32-.4-.23-.34-.2-.4.1-.56.35-.34-.04-.07-.14-.21-.67-.9-.07-.45.08-.23.4-.36.5.07.24.18.2.38v.12l-.2.44-.14.29-.08.12.25.33.08.11.7-.12.55-.19.64-.46.55-.57.23.22.22.14.38-.04.08-.19.02-.1-.08-.19 2.63-.28.22 2.05.08.73.2 1.52h-.19l-.33.32-.17.58.3.22-.06.55.3.37.03.43-.2.19-.1.36-.25.17.02.36.14.2-.16.3h.25l.1.3.28.15-.06.2.35.08.05.28-.18.16.37-.03-.01.17 2.1-.24 4.43-.5.38-.03 4.11-.48 1.34-.16.23 1.7.12 1.1.13 1.55.12.69.19 1.61.05.14.5 4.6 2.57-.28 2.86-.33.22 2.1.23 1.68h.04l.27 2.23 1.04 8.74.48 3.9.5 4.33 3.26-.39-.23.24-.3.06-.2.3.03.25-.23.24-.2-.17-.51-.07-.15.23.56 4.63 3.56-.43.22 2.04.4 3.53.45 3.87.4 3.46.05.23.34 2.95.78 6.2-1.51.18-4.43.5-2.3.3-2.57.27-.22-1.8-.14.06-.1.25-.43.43-.04.23-.26.1.05.16-.28.1.03.23-.18.19v-.23l-.19.24-.08-.15h-.26l.02.2-.26-.04-.23.1-.35-.24-.21.36-.27-.04-.07.5-.27.34-.31-.08-.21.32.1.13-.06.26-.43.24.08.21-.32.02-.07.45-.31.08-.15-.18h-.72l-.68-.52-.08-.6-1.13.13-.22-.2-.13-.36-.22.63-.56.05-.16.35-.02-.22-.48.06-.09.14-.66.06-.11-.94-.25.08-.42.47-.54.2-.47.08-.3.34-.28-.07-.38.06-.22-.1-.23.13-.38.37-.96.12-.28-.68v-.23l-.38.16-.94-.89-.1.25-.03-.22-.3.24-.1.39-.64.39-.44-.33-.42.09-.17.23.04.12.3 2.71 1.83-.18 3.58-.4.31 2.74 1.76-.21.35-.36.26-.08.17.2.25-.69h.1l-.23.5.04.35.46-.05.24.43-.68.1.43.39-.22.13-.34.07-.07.58h-.55l.02.4-.22.18-.02.19.29-.02v.46l.26-.03.2.09.04.21.26.28-.15-.03.03.18-.22.15-.24-.18-.15.12.06.33-.19.12.06.4-.21-.03-.27.37.03.18.15.04-.1.32-.12-.04.37.3.15-.06.15.2-.1.3.06.24.2.02-.12.23-.18-.1v.34l-.34.01-.08.3-.52.24-.27-.1-.05.22.14.5-.29.1.28.05-.07.42.23.46-.2.13.15.16-.2.04.18.28.23.03-.26.1.06.2.44-.15-.16.2.28.3-.03.34-.18.16.2.22.03.33-.15.3-.14.02-.1.25.12.22.22-.1-.1.2.5-.06.17-.19-.26.5-.2.06.3.4.02.18.26.05.19-.06.01.32.31.36v.23l.2.05-.03.52.18-.1.1.11.12-.15.3.35.04.82.7.28.13.19.36.91-.16.3-.5.21.41.37.19-.12.26.16h-.18v.28l-.3.38-.01.27.3.3.77-.1.13.36-.1.27-.17.06-.08-.19-.17.29.2.23.01.19-.22-.1-.3.32-.3.03-.43.29-.3.3-.57.25-.6.11-.4.24-.31.47-.36.04-.19.15-2.65.29.07.45-.9.1-.07-.47-.87.09v.05l-2.69.3-1.94.22-3.05.32.27 2.74 2.76-.3.56 5.2.24 2.22.07.8 2.27-.26.41 3.92.78 7.04" fill="#d1dbdd" stroke="rgb(209, 219, 221)" stroke-width="0.1" data-originalStrokeWidth="0.1" style="stroke: rgb(0, 0, 0); fill: rgb(209, 219, 221); pointer-events: auto; stroke-width: 0.1;" pointer-events="auto"/>
      <path id="MS03" d="m947.43 638.84-.05-.05-.28.04-.25.17-.08-.1-.85.13-.4.04-.68.08-.74.08-.29.03-2.61.32-.56.05-.47.06-.25.03-1.12.14-.58.05-1.14.15-.38.03-.5.06-1.04.12-.63.08-.96.1-.87.1-.42.06-.6.06-.6.07-.43.05-.36.03-.81.1-.59.07-.72.09-.22.02-.39.04-.12.02-.3.03-.5.04-.7.09-.41.03-.78-7.04-.42-3.92-2.26.27-.07-.81-.24-2.21-.55-5.2-2.77.3-.27-2.75 3.05-.32 1.94-.23 2.7-.3-.01-.04.87-.1.07.47.9-.09-.07-.45 2.65-.29.19-.15.36-.04.3-.47.4-.24.6-.1.58-.27.3-.3.44-.28.3-.03.29-.33.21.1v-.18l-.2-.23.18-.3.07.2.18-.06.1-.27-.14-.36-.78.1-.3-.3.02-.27.3-.38v-.28l.2-.01-.3-.15-.17.12-.4-.37.49-.21.16-.3-.36-.92-.13-.18-.69-.28-.04-.82-.31-.35-.13.15-.09-.1-.18.09.04-.52-.2-.05v-.24l-.31-.36-.01-.3-.2.05-.25-.05-.01-.18-.32-.4.2-.06.26-.49-.18.18-.5.05.11-.19-.22.1-.13-.22.1-.25.15-.02.15-.3-.03-.33-.2-.22.18-.16.03-.35-.28-.3.16-.19-.44.16-.06-.22.26-.09-.23-.03-.18-.28.19-.04-.13-.16.18-.13-.21-.47.06-.4-.28-.04.29-.11-.14-.51.05-.22.27.1.51-.26.09-.29.35-.01-.01-.34.18.1.13-.22-.21-.02-.06-.23.1-.3-.15-.2-.15.05-.37-.3.11.04.11-.32-.15-.04-.03-.2.27-.35.2.03-.04-.4.18-.12-.06-.33.15-.12.24.18.22-.15-.03-.2.15.06-.26-.29-.04-.21-.2-.09-.27.03.02-.47-.3.04.02-.2.22-.18-.02-.4h.55l.06-.58.35-.07.22-.13-.43-.39.67-.1-.23-.43-.46.05-.04-.36.23-.5h-.1l-.25.7-.17-.2-.26.08-.35.36-1.76.21-.3-2.75-3.59.4-1.83.18-.3-2.7-.04-.12.18-.23.41-.1.44.34.65-.4.1-.4.29-.22.03.22.1-.25.94.89.38-.16v.23l.28.68.96-.12.38-.37.23-.13.21.1.38-.06.3.07.3-.34.46-.07.54-.21.42-.47.25-.08.11.94.66-.06.1-.14.47-.06.02.22.17-.35.55-.05.22-.63.13.36.23.2 1.12-.12.08.6.7.51h.7l.15.18.3-.08.08-.45.32-.02-.08-.2.43-.25.06-.26-.1-.13.2-.32.33.08.26-.34.07-.5.27.04.2-.36.37.23.22-.1.26.06-.02-.22h.26l.08.16.18-.24.01.23.18-.2-.03-.22.28-.11-.05-.15.26-.11.04-.22.43-.43.1-.25.14-.05.22 1.8 2.58-.29 2.29-.27 4.43-.52 1.51-.19-.78-6.18-.34-2.96-.06-.23-.4-3.46-.43-3.87 2.7-.35-.32-2.77 2.71-.36-.32-2.75 3.69-.47-.26-1.8-.87.1-.05-.46-.3.03-.08-.16.56-.2.62-.44-.33-2.6.18-.03-.14-1.11-.95-.04-.84-.1-.24-.08-.17-1.56.88-.09.43-.13 4.67-.6 1.77-.24.14.08.54.04.37-.26.6-.07.78 5.97.39 2.77 2.65-.35 3.27-.48 1.7-.2 1.84-.25v.32l.02.58v.5l.02.21v.53l.05 1.14.03 1.35.09 3.08.06 1.45.03 1.42.05 1.4.1 2.57.03.92.05 1.63.03.67.01.96v.12l.06 1.36.03.86v.56l.03.77.08 2.62v.58l.1 2.5.02.68-.02.27.01.3.03.81.02.78.04 1.15.02.78v.1l.01.49.02.83.02.91v.37l.04 1.17.04 2.03.01.57v.45l.1 3.14-.02.19.02.65.03.5-3.8 1.66-.44.15-3.2.98-4.7.97.15 1.26-1.8.22.05.44-1.93.25.05.55-.23.39-.53.55-.38-.25-.06.2-.06-.36-.32.04.1.9-.46.07-.21-.7-.32-.11-.34-.77.04-.18-2.05.27-.12-1.14-3.58.71.23 1.9.64 5.22.32 2.6.22 1.65-5 .59-1.8.2.34 2.86.41 3.38.62 5.3.23 1.97-1.99.25" fill="#d1dbdd" stroke="rgb(209, 219, 221)" stroke-width="0.1" data-originalStrokeWidth="0.1" style="stroke: rgb(0, 0, 0); fill: rgb(209, 219, 221); pointer-events: auto; stroke-width: 0.1;" pointer-events="auto"/>
      <path id="MS04" d="m985.69 654.72.02.1-.4.28v-.23l-.13-.25-.22.16-.44-.07-.26.05.08.61-.17.3-.44.34-.22.08-.65.03-.1-.21-.45-.24-.16-.16-1.42.13-.22-.62-.11-.13-.27.42-.33.13-.07-.6-.14.04-.5.47-.7.02-.4.25-.51.45-.76.13-.5-.1-.75-.47-1.13-.47.42-.01.14-.1-.12-.16-.2.02-1.15-.42-.15-.34-.21-.03-.17-.22-.3.22.08.47.29.06.12.56-.32-.06-.69.02-.76.08-1.15.23-.88.23-1.65.62-.6.29-.05.25.1.19-.14.18-.25-.42-2.27 1.27-.86.37-.5.28-.13.16-.18.01-.5.26-.53.12V659l-.1-.48.09-.18.4-.06.08-.22-.48-.38-.25-.33-.38.04-.14.19.01-.42-.14-.04-.56.11-.45.22-.26.52.95.37.34.55-.14.53-.38.37-.53.31-.42.6-.9.52-.12.32.18.48-.24.23-.43.71.17.43-.47.5.02-.5-.21-.1-.49.13-.25.34-.46-.04-.28.14-.3-.41-.4.15-.12.2-.44.23-.42-.33-.17-.28-.2-.3-.41-.16-.2-.2.03-.51-.05-.16-.1-.04-.37-.23.08-.16.03-.14-.19-.05-.02-.35-.17-.15-.28-.1.15-.21-.01-.38.34-.25-.22-.42.02-.38-.2-.2h-.23l-.26-.17-.22-.29-.02-.29-.35-.32v-.08l-.07-.09-.02-.07h-.06l-.02-.03-.02-.05-.03-.06-.05-.07v-.08l-.07-.02-.03-.04-.04-.02-.01-.1.02-.04-.02-.04-.03-.01v-.04l.05-.01h.02l.05.04.02-.06-.01-.07v-.05l.03-.02v-.02h-.05v-.07l-.06-.06v-.05l.05-.04v-.03l-.05-.02v-.13l-.01-.07-.04-.02-.07.03.02-.07-.03-.05-.03-.08.05-.08v-.09l-.08-.02.02-.09v-.08l-.05-.03-.02-.05-.02-.01-.01.02-.07.05-.02-.02.03-.05-.01-.03-.04-.04.01-.06-.04-.02h-.04l-.07-.07-.08-.03-.04-.01-.05-.02h-.02l-.02.03h-.09v-.02l.04-.04v-.05l-.03-.05v-.03l-.02-.05-.03-.01h-.05l-.02-.02v-.03l.02-.03v-.02l-.07-.07h-.02l-.04.05h-.1l-.01-.05-.02-.02v-.03l-.02-.01h-.03v-.02l-.02-.03h-.04l-.02.05h-.04v-.01l-.03-.03.02-.02h.03l.01-.04.02-.07-.02-.03v-.02l-.05-.02-.07-.08-.04-.02v.07l-.02.02h-.04l-.01.02h-.02v-.02l.02-.02v-.01l-.02-.02h-.04l-.2-.08-.18.12.05-.22-.2-.09-.18.13h-.02l-.01-.02v-.05l.02-.02.05.02h.04v-.05l-.02-.02v-.02l.01-.03.01-.06v-.02h-.01l-.02.04-.02.03h-.04l-.03.02h-.02l-.02-.02.02-.05h.03l.03-.02h.02v-.07l-.02.02h-.05l-.06-.04-.04-.02v-.02h.03l.01-.03v-.03l-.01-.01v-.04l.02-.01.02-.02v-.07h-.04l-.03.03v.07h-.01l-.01.02-.02-.02h-.04v.02h-.03l-.03.05-.03.02h-.03v-.03l-.02-.03-.02-.02v-.05l-.02-.01-.05-.01-.03-.04-.02-.03h.07l.01-.05-.02-.02.02-.04v-.02l-.02-.02h-.04l-.01-.02v-.03l.06-.02v-.05l-.02-.01h-.1l-.01-.03h-.02v-.03l-.02-.01h-.07v-.02l.05-.1.03-.02v-.04h-.07l-.03-.04v-.05l-.02-.02-.02-.02-.02-.04h-.12l-.1.03-.02-.02h-.17l-.05-.01v-.02h-.1l-.04-.02h.04l.03-.05h.06l.07.02.03-.03.02-.06-.04-.08-.05-.04-.02-.06-.15-.02h-.1l-.02-.01v-.07l.02-.05.02-.05h.06l.1.06.06-.04h.05l.03-.03.03-.07.05-.05.01-.09-.05-.02-.08.03.02.04v.1l-.03.02h-.08v-.06l.04-.03v-.05l-.04-.02-.05-.01-.02.02-.1.04-.14.06h-.02v-.14l-.03-.1-.06-.08v-.06l-.02-.02h-.05l-.05-.02-.07-.11.02-.02.08.02h.05l.05-.01.03-.07-.01-.02-.06.02-.07.02-.01-.13-.02-.04-.07.03h-.03l-.07-.04-.05-.07.01-.05h.13l.02-.05-.04-.02-.07-.05-.06-.03-.1-.08.03-.05.03.02v-.05l-.03.02-.06-.02v-.04l.03-.07-.02-.09v-.05l.03-.08v-.03l-.06-.04-.04.06-.1.04-.01.03h-.05v-.16l.02-.02.1.03.05-.04.02-.12.05-.23.14-.12-.25-.06-.09-.3-.14-.05-.13-.2-.18.19-.02-.27-.26.05.2-.2.1-.1-.25-.03.23-.3h-.13l.11-.36-.01-.29-.07-.12-.03-.01-.07.06h-.04l-.07-.04-.03-.07.05-.04.08-.05.03-.1-.04-.13-.05-.1V648l.04-.03.03.02.06.1.03.03.03.01h.12l.03-.04v-.03l-.05-.13v-.05l.06-.05.07-.08v-.04l-.18.05-.06.03-.05-.02-.02-.03.03-.05.05-.02h.11l.05-.05v-.04h-.07l-.07.02h-.09l-.03-.04.03-.05.04-.05h.2l.26-.08-.23-.08-.01-.45h-.1l.03-.06-.01-.05-.1-.04-.11-.16.01-.07.01.03.07-.05.03-.09v-.06l-.04-.08-.03-.04-.05-.07.04-.09.03-.03.03.01.02.07.06.03.04-.04.06-.07.02-.07v-.02l-.06-.1-.02-.1.14-.14.09.09v.1l.02.05h.05l.16-.09.02-.03v-.1l-.05-.02v.09l-.04.02h-.03l-.02-.12-.1-.07-.13-.15.03-.02.14.09.14-.1v-.15l.14-.14-.1-.2.23-.08.17.1.11-.1-.2-.14.1-.1-.01-.19-.19.08.07-.53.04.05.05.01h.06v-.03l-.01-.07-.13-.16.35-.07.06-.34-.34-.32.04-.15.16.04-.07-.4-.03-.22.32.07.09-.17-.24-.27v-.05l.12-.12.25.05.1-.32-.21-.1.06-.27-.2-.28.28-.54.17-.21.22-.13-.27-.12.13-.16v-.49l-.16-.04-.03-.08v-.02l.18-.07v-.03l1.99-.25-.23-1.97-.62-5.3-.4-3.38-.34-2.85 1.8-.21 4.99-.6-.22-1.63-.32-2.61-.64-5.23-.24-1.9 3.58-.7.13 1.14 2.05-.27-.04.19.34.75.32.12.2.7.48-.06-.11-.91.32-.04.05.34.07-.18.38.25.54-.55.22-.39-.05-.55 1.93-.25-.05-.44 1.8-.22-.16-1.26 4.72-.97 3.19-.98.45-.15 3.79-1.66.04.31.27 1.52.25 1.54.34 1.97.08.54.09.51.09.52.13.65.13.8v.07l.04.07.17.97.13.7.1.63.2 1.1.03.19.03.17.1.56.6 3.48.21 1.13.31 1.71.12.65.05.34.23 1.19.18 1.12.02.07.14.85.12.56.08.57.1.57.04.32.08.31.1.6.19 1.09.11.56.14.9.27 1.57.23 1.26.07.38v.04h.02v.1l.35 2 .04.26.13.72.09.54.04.3.09.41.08.5.02.14.26 1.4.08.61.06.2v.16l.05.36.13.76.05.2.05.57.05.11.03.1v.18l.1.32.02.21.12.76.07.32.13.8.1.52.47 2.74-.06.3.16.22m-2.08 4.92-.4-.2.1-.04.33.15 1.05.1.3-.07.3-.23h.48l-.42.25-.63.2-1.1-.16m-13.05 1.51.65-.17-.16.18-.42.1-.07-.1m-3.01.39-.13-.18-.49.1-.14-.29-1.16-.05.95-.16.11.03 1.06-.12.2-.66.03.45-.22.52-.21.36m13.19-2.15.29.1-.38.04-1.43-.06-.36.06-.58-.09-.8-.2-1 .27-.47-.07.5-.16.48-.07.37-.26.83.18h.23l.67.2.2-.04.38.07 1.07.03m-7.9.67-.04-.1.25-.13-.21.24m8.2-4.27.05.27h-.3l-.17-.16.38-.24.04.13m-7.04.03-1.16-.41.47.06.58.15.34.3-.23-.1" fill="#d1dbdd" stroke="rgb(209, 219, 221)" stroke-width="0.1" data-originalStrokeWidth="0.1" style="stroke: rgb(0, 0, 0); fill: rgb(209, 219, 221); pointer-events: auto; stroke-width: 0.1;" pointer-events="auto"/>
      <g id="state_lines" stroke="rgb(209, 219, 221)" style="display: none; stroke: rgb(0, 0, 0);" stroke-width="0.1"/>
      <g id="state_abbr" fill="#000000" style="display: none; fill: rgb(0, 0, 0);">
        <text id="HI_label" x="491.79" y="769.82" style="font-size: 19.2455px; stroke-width: 1.60379; display: none;">
          <tspan id="HI_tspan" x="491.79" y="769.82" fill="#000000" dy="0" font-family="Arial" font-size="24.06" font-style="normal" font-weight="400" style="text-align: center; stroke-width: 2.57215; fill: rgb(0, 0, 0);" text-anchor="middle">HI</tspan>
        </text>
        <text id="AK_label" x="205.24" y="672.25" style="font-size: 19.2455px; stroke-width: 1.60379; display: none;">
          <tspan id="AK_tspan" x="205.24" y="672.25" fill="#000000" dy="0" font-family="Arial" font-size="24.06" font-style="normal" font-weight="400" style="text-align: center; stroke-width: 2.57215; fill: rgb(0, 0, 0);" text-anchor="middle">AK</tspan>
        </text>
        <text id="FL_label" x="1188.11" y="708.7" style="font-size: 19.2455px; stroke-width: 1.60379; display: none;">
          <tspan id="FL_tspan" x="1188.11" y="708.7" fill="#000000" dy="0" font-family="Arial" font-size="24.06" font-style="normal" font-weight="400" style="text-align: center; stroke-width: 2.57215; fill: rgb(0, 0, 0);" text-anchor="middle">FL</tspan>
        </text>
        <text id="NH_label" x="1306.05" y="167.79" stroke-width="1.1" font-size="13.25" style="display: none;">
          <tspan id="NH_tspan" x="1306.05" y="167.79" fill="#000000" stroke-width="1.1" dy="0" font-family="Arial" font-size="16.56" font-style="normal" font-weight="400" style="text-align: center; fill: rgb(0, 0, 0);" text-anchor="middle">NH</tspan>
        </text>
        <text id="MI_label" x="1019.65" y="246.58" style="font-size: 19.2455px; stroke-width: 1.60379; display: none;">
          <tspan id="MI_tspan" x="1019.65" y="246.58" fill="#000000" dy="0" font-family="Arial" font-size="24.06" font-style="normal" font-weight="400" style="text-align: center; stroke-width: 2.57215; fill: rgb(0, 0, 0);" text-anchor="middle">MI</tspan>
        </text>
        <text id="VT_label" x="1274.28" y="145.01" stroke-width="1.05" font-size="12.65" style="display: none;">
          <tspan id="VT_tspan" x="1274.28" y="145.01" fill="#000000" stroke-width="1.05" dy="0" font-family="Arial" font-size="15.81" font-style="normal" font-weight="400" style="text-align: center; fill: rgb(0, 0, 0);" text-anchor="middle">VT</tspan>
        </text>
        <text id="ME_label" x="1338.99" y="105.14" stroke-width="1.45" font-size="17.36" style="display: none;">
          <tspan id="ME_tspan" x="1338.99" y="105.14" fill="#000000" stroke-width="1.45" dy="0" font-family="Arial" font-size="21.7" font-style="normal" font-weight="400" style="text-align: center; fill: rgb(0, 0, 0);" text-anchor="middle">ME</tspan>
        </text>
        <text id="RI_label" x="1361.38" y="262.84" stroke-width="1.25" font-size="14.98" style="display: none;">
          <tspan id="RI_tspan" x="1361.38" y="262.84" fill="#000000" stroke-width="1.25" dy="0" font-family="Arial" font-size="18.72" font-style="normal" font-weight="400" style="text-align: center; fill: rgb(0, 0, 0);" text-anchor="middle">RI</tspan>
        </text>
        <text id="NY_label" x="1227.27" y="204.12" style="font-size: 19.2455px; stroke-width: 1.60379; display: none;">
          <tspan id="NY_tspan" x="1227.27" y="204.12" fill="#000000" dy="0" font-family="Arial" font-size="24.06" font-style="normal" font-weight="400" style="text-align: center; stroke-width: 2.57215; fill: rgb(0, 0, 0);" text-anchor="middle">NY</tspan>
        </text>
        <text id="PA_label" x="1187.28" y="284.69" style="font-size: 19.2455px; stroke-width: 1.60379; display: none;">
          <tspan id="PA_tspan" x="1187.28" y="284.69" fill="#000000" dy="0" font-family="Arial" font-size="24.06" font-style="normal" font-weight="400" style="text-align: center; stroke-width: 2.57215; fill: rgb(0, 0, 0);" text-anchor="middle">PA</tspan>
        </text>
        <text id="NJ_label" x="1330.57" y="290.09" stroke-width="1.28" font-size="15.4" style="display: none;">
          <tspan id="NJ_tspan" x="1330.57" y="290.09" fill="#000000" stroke-width="1.28" dy="0" font-family="Arial" font-size="19.25" font-style="normal" font-weight="400" style="text-align: center; fill: rgb(0, 0, 0);" text-anchor="middle">NJ</tspan>
        </text>
        <text id="DE_label" x="1320.8" y="328.42" stroke-width="1.36" font-size="16.38" style="display: none;">
          <tspan id="DE_tspan" x="1320.8" y="328.42" fill="#000000" stroke-width="1.36" dy="0" font-family="Arial" font-size="20.47" font-style="normal" font-weight="400" style="text-align: center; fill: rgb(0, 0, 0);" text-anchor="middle">DE</tspan>
        </text>
        <text id="MD_label" x="1310.72" y="368.46" stroke-width="1.34" font-size="16.11" style="display: none;">
          <tspan id="MD_tspan" x="1310.72" y="368.46" fill="#000000" stroke-width="1.34" dy="0" font-family="Arial" font-size="20.13" font-style="normal" font-weight="400" style="text-align: center; fill: rgb(0, 0, 0);" text-anchor="middle">MD</tspan>
        </text>
        <text id="VA_label" x="1198.59" y="392.33" style="font-size: 19.2455px; stroke-width: 1.60379; display: none;">
          <tspan id="VA_tspan" x="1198.59" y="392.33" fill="#000000" dy="0" font-family="Arial" font-size="24.06" font-style="normal" font-weight="400" style="text-align: center; stroke-width: 2.57215; fill: rgb(0, 0, 0);" text-anchor="middle">VA</tspan>
        </text>
        <text id="WV_label" x="1129.66" y="382.3" style="font-size: 19.2455px; stroke-width: 1.60379; display: none;">
          <tspan id="WV_tspan" x="1129.66" y="382.3" fill="#000000" dy="0" font-family="Arial" font-size="24.06" font-style="normal" font-weight="400" style="text-align: center; stroke-width: 2.57215; fill: rgb(0, 0, 0);" text-anchor="middle">WV</tspan>
        </text>
        <text id="OH_label" x="1079.05" y="334.46" style="font-size: 19.2455px; stroke-width: 1.60379; display: none;">
          <tspan id="OH_tspan" x="1079.05" y="334.46" fill="#000000" dy="0" font-family="Arial" font-size="24.06" font-style="normal" font-weight="400" style="text-align: center; stroke-width: 2.57215; fill: rgb(0, 0, 0);" text-anchor="middle">OH</tspan>
        </text>
        <text id="IN_label" x="998.79" y="352.94" style="font-size: 19.2455px; stroke-width: 1.60379; display: none;">
          <tspan id="IN_tspan" x="998.79" y="352.94" fill="#000000" dy="0" font-family="Arial" font-size="24.06" font-style="normal" font-weight="400" style="text-align: center; stroke-width: 2.57215; fill: rgb(0, 0, 0);" text-anchor="middle">IN</tspan>
        </text>
        <text id="IL_label" x="927.43" y="364.36" style="font-size: 19.2455px; stroke-width: 1.60379; display: none;">
          <tspan id="IL_tspan" x="927.43" y="364.36" fill="#000000" dy="0" font-family="Arial" font-size="24.06" font-style="normal" font-weight="400" style="text-align: center; stroke-width: 2.57215; fill: rgb(0, 0, 0);" text-anchor="middle">IL</tspan>
        </text>
        <text id="CT_label" x="1299.17" y="228.46" stroke-width="1.06" font-size="12.74" style="display: none;">
          <tspan id="CT_tspan" x="1299.17" y="228.46" fill="#000000" stroke-width="1.06" dy="0" font-family="Arial" font-size="15.93" font-style="normal" font-weight="400" style="text-align: center; fill: rgb(0, 0, 0);" text-anchor="middle">CT</tspan>
        </text>
        <text id="WI_label" x="898.6" y="224.7" style="font-size: 19.2455px; stroke-width: 1.60379; display: none;">
          <tspan id="WI_tspan" x="898.6" y="224.7" fill="#000000" dy="0" font-family="Arial" font-size="24.06" font-style="normal" font-weight="400" style="text-align: center; stroke-width: 2.57215; fill: rgb(0, 0, 0);" text-anchor="middle">WI</tspan>
        </text>
        <text id="NC_label" x="1205.6" y="458.72" style="font-size: 19.2455px; stroke-width: 1.60379; display: none;">
          <tspan id="NC_tspan" x="1205.6" y="458.72" fill="#000000" dy="0" font-family="Arial" font-size="24.06" font-style="normal" font-weight="400" style="text-align: center; stroke-width: 2.57215; fill: rgb(0, 0, 0);" text-anchor="middle">NC</tspan>
        </text>
        <text id="MA_label" x="1305.87" y="200.67" stroke-width="1.04" font-size="12.46" style="display: none;">
          <tspan id="MA_tspan" x="1305.87" y="200.67" fill="#000000" stroke-width="1.04" dy="0" font-family="Arial" font-size="15.58" font-style="normal" font-weight="400" style="text-align: center; fill: rgb(0, 0, 0);" text-anchor="middle">MA</tspan>
        </text>
        <text id="MO_label" x="854.22" y="422.93" style="font-size: 19.2455px; stroke-width: 1.60379; display: none;">
          <tspan id="MO_tspan" x="854.22" y="422.93" fill="#000000" dy="0" font-family="Arial" font-size="24.06" font-style="normal" font-weight="400" style="text-align: center; stroke-width: 2.57215; fill: rgb(0, 0, 0);" text-anchor="middle">MO</tspan>
        </text>
        <text id="GA_label" x="1106.89" y="574.56" style="font-size: 19.2455px; stroke-width: 1.60379; display: none;">
          <tspan id="GA_tspan" x="1106.89" y="574.56" fill="#000000" dy="0" font-family="Arial" font-size="24.06" font-style="normal" font-weight="400" style="text-align: center; stroke-width: 2.57215; fill: rgb(0, 0, 0);" text-anchor="middle">GA</tspan>
        </text>
        <text id="SC_label" x="1166.32" y="522.49" style="font-size: 19.2455px; stroke-width: 1.60379; display: none;">
          <tspan id="SC_tspan" x="1166.32" y="522.49" fill="#000000" dy="0" font-family="Arial" font-size="24.06" font-style="normal" font-weight="400" style="text-align: center; stroke-width: 2.57215; fill: rgb(0, 0, 0);" text-anchor="middle">SC</tspan>
        </text>
        <text id="KY_label" x="1039.99" y="426.39" style="font-size: 19.2455px; stroke-width: 1.60379; display: none;">
          <tspan id="KY_tspan" x="1039.99" y="426.39" fill="#000000" dy="0" font-family="Arial" font-size="24.06" font-style="normal" font-weight="400" style="text-align: center; stroke-width: 2.57215; fill: rgb(0, 0, 0);" text-anchor="middle">KY</tspan>
        </text>
        <text id="AL_label" x="1019.59" y="578.15" style="font-size: 19.2455px; stroke-width: 1.60379; display: none;">
          <tspan id="AL_tspan" fill="#000000" dy="0" font-family="Arial" font-size="24.06" font-style="normal" font-weight="400" style="text-align: center; stroke-width: 2.57215; fill: rgb(0, 0, 0);" text-anchor="middle">AL</tspan>
        </text>
        <text id="LA_label" x="872.7" y="649.59" style="font-size: 19.2455px; stroke-width: 1.60379; display: none;">
          <tspan id="LA_tspan" x="872.7" y="649.59" fill="#000000" dy="0" font-family="Arial" font-size="24.06" font-style="normal" font-weight="400" style="text-align: center; stroke-width: 2.57215; fill: rgb(0, 0, 0);" text-anchor="middle">LA</tspan>
        </text>
        <text id="MS_label" x="940.37" y="592.21" style="font-size: 19.2455px; stroke-width: 1.60379; display: none;">
          <tspan id="MS_tspan" x="940.37" y="592.21" fill="#000000" dy="0" font-family="Arial" font-size="24.06" font-style="normal" font-weight="400" style="text-align: center; stroke-width: 2.57215; fill: rgb(0, 0, 0);" text-anchor="middle">MS</tspan>
        </text>
        <text id="IA_label" x="823.33" y="308.44" style="font-size: 19.2455px; stroke-width: 1.60379; display: none;">
          <tspan id="IA_tspan" x="823.33" y="308.44" fill="#000000" dy="0" font-family="Arial" font-size="24.06" font-style="normal" font-weight="400" style="text-align: center; stroke-width: 2.57215; fill: rgb(0, 0, 0);" text-anchor="middle">IA</tspan>
        </text>
        <text id="MN_label" x="790.84" y="183.37" style="font-size: 19.2455px; stroke-width: 1.60379; display: none;">
          <tspan id="MN_tspan" x="790.84" y="183.37" fill="#000000" dy="0" font-family="Arial" font-size="24.06" font-style="normal" font-weight="400" style="text-align: center; stroke-width: 2.57215; fill: rgb(0, 0, 0);" text-anchor="middle">MN</tspan>
        </text>
        <text id="OK_label" x="732.05" y="519.54" style="font-size: 19.2455px; stroke-width: 1.60379; display: none;">
          <tspan id="OK_tspan" x="732.05" y="519.54" fill="#000000" dy="0" font-family="Arial" font-size="24.06" font-style="normal" font-weight="400" style="text-align: center; stroke-width: 2.57215; fill: rgb(0, 0, 0);" text-anchor="middle">OK</tspan>
        </text>
        <text id="TX_label" x="710.59" y="652.87" style="font-size: 19.2455px; stroke-width: 1.60379; display: none;">
          <tspan id="TX_tspan" x="710.59" y="652.87" fill="#000000" dy="0" font-family="Arial" font-size="24.06" font-style="normal" font-weight="400" style="text-align: center; stroke-width: 2.57215; fill: rgb(0, 0, 0);" text-anchor="middle">TX</tspan>
        </text>
        <text id="NM_label" x="506.94" y="542.36" style="font-size: 19.2455px; stroke-width: 1.60379; display: none;">
          <tspan id="NM_tspan" x="506.94" y="542.36" fill="#000000" dy="0" font-family="Arial" font-size="24.06" font-style="normal" font-weight="400" style="text-align: center; stroke-width: 2.57215; fill: rgb(0, 0, 0);" text-anchor="middle">NM</tspan>
        </text>
        <text id="KS_label" x="701.21" y="427.26" style="font-size: 19.2455px; stroke-width: 1.60379; display: none;">
          <tspan id="KS_tspan" x="701.21" y="427.26" fill="#000000" dy="0" font-family="Arial" font-size="24.06" font-style="normal" font-weight="400" style="text-align: center; stroke-width: 2.57215; fill: rgb(0, 0, 0);" text-anchor="middle">KS</tspan>
        </text>
        <text id="NE_label" x="686.63" y="337.29" style="font-size: 19.2455px; stroke-width: 1.60379; display: none;">
          <tspan id="NE_tspan" x="686.63" y="337.29" fill="#000000" dy="0" font-family="Arial" font-size="24.06" font-style="normal" font-weight="400" style="text-align: center; stroke-width: 2.57215; fill: rgb(0, 0, 0);" text-anchor="middle">NE</tspan>
        </text>
        <text id="SD_label" x="663.02" y="238.75" style="font-size: 19.2455px; stroke-width: 1.60379; display: none;">
          <tspan id="SD_tspan" x="663.02" y="238.75" fill="#000000" dy="0" font-family="Arial" font-size="24.06" font-style="normal" font-weight="400" style="text-align: center; stroke-width: 2.57215; fill: rgb(0, 0, 0);" text-anchor="middle">SD</tspan>
        </text>
        <text id="ND_label" x="663.02" y="150.75" style="font-size: 19.2455px; stroke-width: 1.60379; display: none;">
          <tspan id="ND_tspan" x="663.02" y="150.75" fill="#000000" dy="0" font-family="Arial" font-size="24.06" font-style="normal" font-weight="400" style="text-align: center; stroke-width: 2.57215; fill: rgb(0, 0, 0);" text-anchor="middle">ND</tspan>
        </text>
        <text id="WY_label" x="499.57" y="276.47" style="font-size: 19.2455px; stroke-width: 1.60379; display: none;">
          <tspan id="WY_tspan" x="499.57" y="276.47" fill="#000000" dy="0" font-family="Arial" font-size="24.06" font-style="normal" font-weight="400" style="text-align: center; stroke-width: 2.57215; fill: rgb(0, 0, 0);" text-anchor="middle">WY</tspan>
        </text>
        <text id="MT_label" x="487.84" y="155.58" style="font-size: 19.2455px; stroke-width: 1.60379; display: none;">
          <tspan id="MT_tspan" x="487.84" y="155.58" fill="#000000" dy="0" font-family="Arial" font-size="24.06" font-style="normal" font-weight="400" style="text-align: center; stroke-width: 2.57215; fill: rgb(0, 0, 0);" text-anchor="middle">MT</tspan>
        </text>
        <text id="CO_label" x="525.13" y="406.28" style="font-size: 19.2455px; stroke-width: 1.60379; display: none;">
          <tspan id="CO_tspan" x="525.13" y="406.28" fill="#000000" dy="0" font-family="Arial" font-size="24.06" font-style="normal" font-weight="400" style="text-align: center; stroke-width: 2.57215; fill: rgb(0, 0, 0);" text-anchor="middle">CO</tspan>
        </text>
        <text id="ID_label" x="339.94" y="235.07" style="font-size: 19.2455px; stroke-width: 1.60379; display: none;">
          <tspan id="ID_tspan" x="339.94" y="235.07" fill="#000000" dy="0" font-family="Arial" font-size="24.06" font-style="normal" font-weight="400" style="text-align: center; stroke-width: 2.57215; fill: rgb(0, 0, 0);" text-anchor="middle">ID</tspan>
        </text>
        <text id="UT_label" x="396.81" y="386.73" style="font-size: 19.2455px; stroke-width: 1.60379; display: none;">
          <tspan id="UT_tspan" x="396.81" y="386.73" fill="#000000" dy="0" font-family="Arial" font-size="24.06" font-style="normal" font-weight="400" style="text-align: center; stroke-width: 2.57215; fill: rgb(0, 0, 0);" text-anchor="middle">UT</tspan>
        </text>
        <text id="AZ_label" x="366.76" y="536.9" style="font-size: 19.2455px; stroke-width: 1.60379; display: none;">
          <tspan id="AZ_tspan" x="366.76" y="536.9" fill="#000000" dy="0" font-family="Arial" font-size="24.06" font-style="normal" font-weight="400" style="text-align: center; stroke-width: 2.57215; fill: rgb(0, 0, 0);" text-anchor="middle">AZ</tspan>
        </text>
        <text id="NV_label" x="262.47" y="370.64" style="font-size: 19.2455px; stroke-width: 1.60379; display: none;">
          <tspan id="NV_tspan" x="262.47" y="370.64" fill="#000000" dy="0" font-family="Arial" font-size="24.06" font-style="normal" font-weight="400" style="text-align: center; stroke-width: 2.57215; fill: rgb(0, 0, 0);" text-anchor="middle">NV</tspan>
        </text>
        <text id="OR_label" x="214.43" y="206.88" style="font-size: 19.2455px; stroke-width: 1.60379; display: none;">
          <tspan id="OR_tspan" x="214.43" y="206.88" fill="#000000" dy="0" font-family="Arial" font-size="24.06" font-style="normal" font-weight="400" style="text-align: center; stroke-width: 2.57215; fill: rgb(0, 0, 0);" text-anchor="middle">OR</tspan>
        </text>
        <text id="WA_label" x="238.05" y="102.99" style="font-size: 19.2455px; stroke-width: 1.60379; display: none;">
          <tspan id="WA_tspan" x="238.05" y="102.99" fill="#000000" dy="0" font-family="Arial" font-size="24.06" font-style="normal" font-weight="400" style="text-align: center; stroke-width: 2.57215; fill: rgb(0, 0, 0);" text-anchor="middle">WA</tspan>
        </text>
        <text id="CA_label" x="191.69" y="434.8" style="font-size: 19.2455px; stroke-width: 1.60379; display: none;">
          <tspan id="CA_tspan" x="191.69" y="434.8" fill="#000000" dy="0" font-family="Arial" font-size="24.06" font-style="normal" font-weight="400" style="text-align: center; stroke-width: 2.57215; fill: rgb(0, 0, 0);" text-anchor="middle">CA</tspan>
        </text>
        <text id="DC_label" x="1309.32" y="398.19" stroke-width="1.29" font-size="15.45" style="display: none;">
          <tspan id="DC_tspan" x="1309.32" y="398.19" fill="#000000" stroke-width="1.29" dy="0" font-family="Arial" font-size="19.31" font-style="normal" font-weight="400" style="text-align: center; fill: rgb(0, 0, 0);" text-anchor="middle">DC</tspan>
        </text>
        <text id="TN_label" x="1018.93" y="485.72" style="font-size: 19.2455px; stroke-width: 1.60379; display: none;">
          <tspan id="TN_tspan" x="1018.93" y="485.72" fill="#000000" dy="0" font-family="Arial" font-size="24.06" font-style="normal" font-weight="400" style="text-align: center; stroke-width: 2.57215; fill: rgb(0, 0, 0);" text-anchor="middle">TN</tspan>
        </text>
        <text id="AR_label" x="863.15" y="535.77" style="font-size: 19.2455px; stroke-width: 1.60379; display: none;">
          <tspan id="AR_tspan" x="863.15" y="535.77" fill="#000000" dy="0" font-family="Arial" font-size="24.06" font-style="normal" font-weight="400" style="text-align: center; stroke-width: 2.57215; fill: rgb(0, 0, 0);" text-anchor="middle">AR</tspan>
        </text>
      </g>
      <g id="state_borders" transform="translate(-0.04777967,-0.15336683)" stroke="rgb(209, 219, 221)" style="stroke: rgb(0, 0, 0);" stroke-width="0.3">
        <path id="MS_AL_border" d="m971.79 508.59.75.96.73 1.18.5.4 1.04.37.19 5.33.02 3.25.1 5.08.1 2.55.3 11.28.2 9.85.5 15.85.13 4.7.65 19.79.43 17.64 1.02 6.1 2.49 14.03 2.08 11.8 1.7 10 .95 5.45" stroke="rgb(209, 219, 221)" stroke-width="0.3" fill="none" style="stroke: rgb(0, 0, 0); display: none;"/>
        <path id="MS_TN_border" d="m918.63 515.65-.4-.58 11.7-1.24 2.73-.36 7.8-.88 5.53-.7 1.54-.15 24.26-3.15" stroke="rgb(209, 219, 221)" stroke-width="0.3" fill="none" style="stroke: rgb(0, 0, 0); display: none;"/>
        <path id="MS_AR_border" d="m902.72 580.14.06-.5.9-.7-.07-.82-.72-.48-.57-.13-.84-.62-.06-.47.4-.58.62-.05.3.32 1.2-.16.38-.47-.02-1.14-.33-1.23.23-.05.76-1 .1-.77-.65-.34-.45.5-.26 1.14-.81-.88.02-.4-.48-.55-.17-1.54.53-.52.4-.8.63-.66.37-.76-.05-.52-.55-.28-.4.45.07.8-.4.82-.68.46-.65.1-1.18-.65.2-.48.6-.02 1.12-.54.29-.78-.26-.57-1.08-.68-.3.4.3 1.03-.9.68-.77-.08.04-.57.58-.43.56-1.01-.15-.36-.81-.53-.5-.7.07-.38 1.3-.7.62-.07.48-.57-.28-.8-.91-.63-1.28-.3-.26-.3.13-.7.37-.28 1.13-.31.9.96 1.25.4 1.23-.61.07-.48-.5-.54-.6-.26-.52.33-.71.13-.77-.6.1-1.8.73.33 1.37-.4.74.4.66-.24.26-.51-.36-.44-1.25-.37-.61-.74-.18-.82 1.37-2.02-.27-.33-1.57-.38-.32-.65 1-.41.7-.64.6 1.1.63.12.33-.64-.82-1.17.99-.06 1.28-.33.25-.2-.02-.93.34-.8-.65-.4-.7.2-.7-.44-.4-.62.1-.27 1.05-.97 1.26.66.46.08.6-.3.32-.6-.3-.64-1.01-.01-.81.23-.78-.38-.5-.52-.15-.7.72-.32.23.45.6.4.82.18.15-.62.05-1.33.72-.54.97-.05.53-.9-.3-.74-.52-.45.23-.67h1.15l.84-.33-.2 1.56.4.27.49-.5-.34-.88.15-.65 1.09-.6.78-.72.3-.62-.53-.88-.24-.8.1-.91.85-.88-.1-.81-.7-.7-.54-.84.03-.86-.24-.88.76-.94.48.45-.28.76.23.87.76-.06 1.16-1.51-.1-.67-.52-.13-.88.24-.63-.1-.55-.54.06-.64.6-.36-.42-1.07.22-.45.56-.18.43.97-.47.57.13.7.5.18.8-.18.4-.7-.75-1.37.36-1-.82-1.12-.07-.5.43-.48.78.17.33 1.3.4.25 1.8-1.1.58.42.38-.2-.33-.66 1.5-1.31.03-.96-.18-.42-1.27-.66-.4-.58" stroke="rgb(209, 219, 221)" stroke-width="0.3" fill="none" style="stroke: rgb(0, 0, 0); display: none;"/>
      </g>
      <rect id="selection-rectangle" fill="#ffffccaa" stroke="rgb(209, 219, 221)" stroke-width="0.1"/>
      <ellipse id="selection-ellipse" fill="#ffffccaa" stroke="rgb(209, 219, 221)" stroke-width="0.1"/>
      <polygon id="selection-polygon" fill="#ffffccaa" stroke="rgb(209, 219, 221)" stroke-width="0.1"/>
      <polyline id="selection-polyline" fill="#ffffccaa" stroke="rgb(209, 219, 221)" stroke-width="0.1"/>
    </svg>
  </g>
</svg>
