<?xml version='1.0' encoding='UTF-8'?>
<svg xmlns="http://www.w3.org/2000/svg" xmlns:dc="http://purl.org/dc/elements/1.1/" xmlns:ns2="http://creativecommons.org/ns#" xmlns:rdf="http://www.w3.org/1999/02/22-rdf-syntax-ns#" id="wrapper" viewBox="0 0 1520 840" preserveAspectRatio="xMinYMin" height="840" width="1520" style="background-color: rgb(255, 255, 255);">
  <metadata>
    <rdf:rdf>
      <ns2:work rdf:about="">
        <dc:format>image/svg+xml</dc:format>
        <dc:type rdf:resource="http://purl.org/dc/dcmitype/StillImage"/>
        <dc:title>MapChart Map</dc:title>
        <dc:creator>
          <ns2:agent>
            <dc:title>MapChart.net</dc:title>
          </ns2:agent>
        </dc:creator>
        <ns2:license rdf:resource="http://creativecommons.org/licenses/by-sa/4.0/"/>
        <dc:description>This map was created with MapChart.net, a website for creating custom maps.</dc:description>
      </ns2:work>
      <ns2:license rdf:about="http://creativecommons.org/licenses/by-sa/4.0/">
        <ns2:permits rdf:resource="http://creativecommons.org/ns#Reproduction"/>
        <ns2:permits rdf:resource="http://creativecommons.org/ns#Distribution"/>
        <ns2:requires rdf:resource="http://creativecommons.org/ns#Notice"/>
        <ns2:requires rdf:resource="http://creativecommons.org/ns#Attribution"/>
        <ns2:requires rdf:resource="http://creativecommons.org/ns#ShareAlike"/>
      </ns2:license>
    </rdf:rdf>
  </metadata>
  <g id="map-group" transform="translate(-3779.796750130111,-1768.4962239056267) scale(5.305638119470307)">
    <svg id="map" width="1520" height="840" version="1.1" viewBox="0 0 1520 840" preserveAspectRatio="xMinYMin" data-originalStrokeWidth="0.3">
      <defs>
        <pattern id="circles3" width="10" height="10" patternUnits="userSpaceOnUse">    <rect width="10" height="10" fill="#fff"/>    <circle cx="4" cy="4" r="2" fill="#000"/>    </pattern>
        <pattern id="diagonal1" width="10" height="10" patternUnits="userSpaceOnUse">    <rect width="10" height="10" fill="#fff"/>    </pattern>
        <pattern id="diagonal3" width="10" height="10" patternUnits="userSpaceOnUse">    <rect width="10" height="10" fill="#fff"/>    </pattern>
        <pattern id="vertical1" width="10" height="10" patternUnits="userSpaceOnUse">    <rect width="10" height="10" fill="#fff"/>    <rect x="2" y="0" width="1" height="10" fill="#000"/>    </pattern>
        <pattern id="vertical3" width="10" height="10" patternUnits="userSpaceOnUse">    <rect width="10" height="10" fill="#fff"/>    <rect x="2" y="0" width="3" height="10" fill="#000"/>    </pattern>
        <pattern id="horizontal1" width="10" height="10" patternUnits="userSpaceOnUse">    <rect width="10" height="10" fill="#fff"/>    <rect x="0" y="2" width="10" height="1" fill="#000"/>    </pattern>
        <pattern id="horizontal3" width="10" height="10" patternUnits="userSpaceOnUse">    <rect width="10" height="10" fill="#fff"/>    <rect x="0" y="2" width="10" height="3" fill="#000"/>    </pattern>
        <pattern id="crosshatch" width="8" height="8" patternUnits="userSpaceOnUse">    <rect width="8" height="8" fill="#fff"/>    </pattern>
        <pattern id="subtlepatch" width="5" height="5" patternUnits="userSpaceOnUse">    <rect width="5" height="5" fill="#fff"/>    <rect x="2" y="2" width="1" height="1" fill="#000"/>    </pattern>
        <pattern id="checkers" width="8" height="8" patternUnits="userSpaceOnUse">    <rect width="8" height="8" fill="#fff"/>    </pattern>
        <pattern id="raindrops" width="10" height="10" patternUnits="userSpaceOnUse">    <rect width="10" height="10" fill="#fff"/>    </pattern>
        <pattern id="texture" width="4" height="4" patternUnits="userSpaceOnUse">    <rect width="4" height="4" fill="#fff"/>    </pattern>
        <pattern id="circles3_a03500_000000" width="10" height="10" patternUnits="userSpaceOnUse">    <rect width="10" height="10" fill="#a03500"/>    <circle cx="4" cy="4" r="2" fill="#000000"/>    </pattern>
        <pattern id="diagonal1_d9b400_535353" width="10" height="10" patternUnits="userSpaceOnUse">    <rect width="10" height="10" fill="#d9b400"/>    </pattern>
        <pattern id="diagonal3_3264c8_ffffff" width="10" height="10" patternUnits="userSpaceOnUse">    <rect width="10" height="10" fill="#3264c8"/>    </pattern>
        <pattern id="horizontal1_72b38e_000000" width="10" height="10" patternUnits="userSpaceOnUse">    <rect width="10" height="10" fill="#72b38e"/>    <rect x="0" y="2" width="10" height="1" fill="#000000"/>    </pattern>
        <pattern id="horizontal3_986ba1_ffffff" width="10" height="10" patternUnits="userSpaceOnUse">    <rect width="10" height="10" fill="#986ba1"/>    <rect x="0" y="2" width="10" height="3" fill="#ffffff"/>    </pattern>
        <pattern id="vertical1_b9a087_ffffff" width="10" height="10" patternUnits="userSpaceOnUse">    <rect width="10" height="10" fill="#b9a087"/>    <rect x="2" y="0" width="1" height="10" fill="#ffffff"/>    </pattern>
        <pattern id="vertical3_4c91bf_ffff33" width="10" height="10" patternUnits="userSpaceOnUse">    <rect width="10" height="10" fill="#4c91bf"/>    <rect x="2" y="0" width="3" height="10" fill="#ffff33"/>    </pattern>
        <pattern id="checkers_cc3333_f7f7f7" width="8" height="8" patternUnits="userSpaceOnUse">    <rect width="8" height="8" fill="#cc3333"/>    </pattern>
        <pattern id="texture_d1dbdd_525252" width="4" height="4" patternUnits="userSpaceOnUse">    <rect width="4" height="4" fill="#d1dbdd"/>    </pattern>
        <style id="map-style">svg { background-color: #ffffff; }</style>
      </defs>
      <path id="MO01" d="m907.65 397.26.11.58.2.28.2.16.25.39.13.28.18.6.04.48-.05.41v.12l-.17.5-.38.54-.13.19-.19.12-.48 1.04-.18.41-.34-.17-.06-.28-.65-.4-.46-.47-.22-.47.16-.79.05-.49h-.29l-.11.18-.29.02.12.8.08.32-.2.26-.82.42-.1-.94-.08-.25.38-.04-.01-.26.34-.1-.03-.17h-.34l-.02-.32.1.01-.07-.42-.36.04-.03-.23-.52.05.03.19-.25.03.06.6-.25.04.1-.3-.36-.03.04-.27-.06-.57-.47.14-.42-.08-.4-.17-.35-.03-.03-.11.3-.2.04-.25.4.05.18.1-.21-.32.05-.44.14-.28-.27-.1-.15.1-.18-.42.2-.5-.6-.2.12-.88.49-.97.17-.27.2-.09.4-.02.37.1.47.02.47-.23.27-.46.09-.55-.03-.26.1-.5.37-.34.53.07.59.41.23.33.33.25.27.12 1.28.7.32.06.22-.1.34-.3.4-.06.4.21.26.47-.1.25-.52.53-.3.27-.22.32-.04.07-.04.16-.16.43-.46.51-.09.23-.03.15" fill="#d1dbdd" stroke="rgb(209, 219, 221)" stroke-width="0.1" data-originalStrokeWidth="0.1" style="stroke: rgb(0, 0, 0); fill: rgb(209, 219, 221); pointer-events: auto; stroke-width: 0.1;" pointer-events="auto"/>
      <path id="MO02" d="m900.95 396.64.6.2-.2.49.18.44.15-.1.27.1-.14.27-.06.44.22.32-.17-.1-.41-.05-.05.23-.3.2.04.13.35.03.4.17.42.08.47-.15.06.57-.04.28.36.05-.1.28.25-.03-.06-.61.25-.03-.03-.2.52-.04.03.23.36-.04.07.42-.1-.01.02.33h.34l.03.16-.34.1.01.26-.38.04.08.25.1.94.81-.42.21-.26-.08-.32-.1-.8.28-.02.1-.2.29.02-.05.49-.16.79.22.47.46.47.65.4.06.28.34.17h.02l-.13.37v.12l-.17 1.12-.02.36-.04.46v.19l-.04.2-.05.38-.14.3-.3.33-.32.5-.34.44-.21-.56-.02-.34-.07-.6.24-.42-.1-.2-.3-.06-.96.34-.14-.23-.31.2-.14-.11-.04-.23-.24-.56.2.05.2-.2-.05-.48-1.4.13-1.21.14-1.9.21-.2.72-.24.3-.39-.18-.15-.23-.5-.01-.14.3.23.67-.2.28-.48.12.15-.3-.1-.09-.18.2-.01-.24-.23-.31-.54.1.08-.18-.3-.2-.16.03-.06.49.15 1.61-.3 5.34-.04 1.46-1.9.16-.66.09-2.08.18-.71.13-7.11.72-1.86.17-.34-4.02h-.04l-.28-2.79-.02-.02-.27-2.8-.04-.17-.15-1.74-.2-1.75-.18-1.9-.05-.45-.66-.22-.57.01-.36-4.28 1.84-.16.91-.14.02.05.89-.09V396l.51-.05.3.03.48.43.7.22.53-.03.42-.11.4.07.4-.04.93-.27.46-.16.94-.18.66.2 2.07.34.46-.06.53-.2.25.08.45-.07 1.54 1 .17-.04-.08-.45.2.02.13-.21-.35-.25-.07-.14.44-.03v.29l.47-.13.04-.2.8-.08.1.71-.22.08-.02.18.26.1-.02-.13.54-.1.06.3-.37.18-.02.2-.15-.07.06.34.22.29.21.12.24.35.04-.16.25-.2.08.2-.43.37-.29.09.29.03.34.35.13.3.47-.15.46-.03.5.22.38-.01.49-.15h.43l.37-.34.05-.24-.16-.87.11-.23.73-.56.27-.51" fill="#d1dbdd" stroke="rgb(209, 219, 221)" stroke-width="0.1" data-originalStrokeWidth="0.1" style="stroke: rgb(0, 0, 0); fill: rgb(209, 219, 221); pointer-events: auto; stroke-width: 0.1;" pointer-events="auto"/>
      <path id="MO03" d="m865.88 424.19-1.33.1h-.39l-2.32.12v-.04l-2.7.17v-.02l-2.06.15-.61.02-2.73.2-.03-.46-.46.02-.02-.44-.46.02-.04-.43-.45.02-.05-.92-.45.02-.04-.46-.23.01-.06-.9h-.21l-.05-.55-.4.52-.35.25-.49.31-.37.12-.3.4.1.39-.07.29-.53-.18-.04-.15.16-.13-.17-.3-.37-.24-.36-.51-.76.05.05.21-.2.04.03-.6-.1-.07-.22-.58.2-.15-.05-.36h.26l-.01-.2.16-.54.15-.17.42-.18.3.03.29-.15.28.03-.2-4 1.37-.11-.13-2.62h.13l-2.62-2.21-3.09-2.62-.19-2.76-.44.04-2.25.11h-2.66l-.44-8.87 2.51-3.12v.16l.35.56.26.6.3.3.46.14.22.13.36.4.52.2h.52l.71.15.4-.04.47-.27.5-.18.33-.04.32.05.36.14.9-.09.64.04.72.12.3-.03.5-.24-.1-.14.31-.25-.22-.2.42.21.49-.22 1.47-.07.62.21.3.27.49-.02.5.43 1.16.04.58-.05.43.1.54-.15-.02-.36 1.25-.07.36.01.89-.07.64.08.13-.46-.13-.3.11-.08.1-.38-.07-.44.1-.23.05-.36-.27-.08.1-.17.04-.6-.02-.43.51-.03.46-.06 2.36-.15 2.85-.24 2.43-.21.6-.03 2.8-.24-.16-2.8 1.78-.13 1.33-.1 1.98-.11 3.83-.29.17 2.22.05.54.15 1.9 1.84-.15.16 1.9 1.91-.2.16 1.87 2.68-.25 1.03-.06-.06-.72.2-.03.24.21h.18l.58-.23.2.14.47-.12.4-.02.13.16.09-.1.31.02.32.13.31.04.26-.13-.1-.19.04-.51.17-.18-.16-.14.24-.2.28-.1.07-.13.59.01.23-.35.35-.04.13.17-.24.2.05.18.2-.06.04.16.33.03.07.16.2-.2-.1-.11-.35-.02.23-.26.25.14.32-.04-.38-.34.13-.2.69-.09v.05l.02.22.74.62.35.5.95.4.03.05h.3l.29-.05.32-.2.65-.84.2-.15.43-.78.06-.3-.01-.33.2-.45.47-.34h.36l.17.08.57-.03.38.1.21.06.2.09.72.28.35.2.34.1.28.13.25-.01.36-.07.81.06.53.22.18.09.26.2.43.37h.05l.13.02.09.02.18.09.33.13.1.04.3.21.16.08.34.16.5.23.1.17.02.18-.1 1.03-.26-.47-.4-.2-.4.04-.33.32-.23.1-.32-.08-1.28-.7-.27-.1-.33-.26-.22-.33-.6-.42-.53-.06-.38.33-.1.5.04.27-.09.55-.27.46-.47.23-.47-.02-.36-.1-.43.02-.17.09-.18.26-.49.97-.12.89-.27.5-.73.57-.11.22.16.88-.05.24-.37.35h-.43l-.49.14h-.38l-.5-.21-.46.03-.47.15-.13-.3-.35-.35-.29-.03.3-.1.43-.37-.07-.19-.26.2-.04.16-.24-.35-.21-.12-.2-.29-.08-.34.15.05.02-.18.37-.2-.06-.27-.54.1.02.12-.26-.1.02-.19.21-.07-.09-.7-.8.07-.03.2-.47.14v-.3l-.45.03.07.13.35.25-.13.22-.19-.02.07.45-.17.03-1.54-.99-.45.07-.25-.07-.53.19-.46.06-2.07-.35-.66-.2-.94.19-.45.16-.94.27-.4.04-.4-.07-.42.1-.52.04-.71-.22-.48-.43-.3-.03-.52.05v.07l-.88.08-.02-.05-.91.14-1.84.17.36 4.28h.57l.66.2.05.47.18 1.89.2 1.75.15 1.74.04.16.27 2.81.02.02.28 2.8h.04l.34 4.01 1.86-.17 7.1-.71.72-.13 2.09-.2.65-.08 1.9-.16.04-1.47.31-5.33-.16-1.61.07-.5.16-.02.3.2-.08.2.53-.13.24.32v.23l.18-.19.1.1-.15.28.48-.11.2-.28-.22-.68.13-.3.5.02.15.24.4.17.22-.3.22-.72 1.89-.2.1.79.25 2.6.22 2.1.27 3.09.09 1.46.07.25.2-.01.06.66-.22-.01.02.16.43.35-.64-.07.04.36-.38.03.15.2.07.54-.58-.16-.08.15.1.25-.37.1-.18.3.06.29-.22-.13-.26.1-.01-.12-.34-.01.04.52-.2-.08-.34.04.21 2.43.64 6.52.16 1.86-2.3.16-.59.01-.57.13-2.16.3-1.8.07-.88.05-1.06.12-2.97.23.13 1.38-4.03.31-.2-2.75-1.69.13-3.74.35-.4-4.83-.62-6.67-2.56.21.26 3.25-2.81.19-1.85.22-1.77.19-.04.1-.47.26-.4.36-.21-.3h-.17l-.23.2-.1.85-1.35.1" fill="#d1dbdd" stroke="rgb(209, 219, 221)" stroke-width="0.1" data-originalStrokeWidth="0.1" style="stroke: rgb(0, 0, 0); fill: rgb(209, 219, 221); pointer-events: auto; stroke-width: 0.1;" pointer-events="auto"/>
      <path id="MO04" d="m860.7 391.07-.52.03.02.43-.03.6-.11.17.27.08-.05.36-.1.23.07.44-.1.38-.1.08.12.3-.13.46-.64-.08-.9.07-.36-.01-1.24.07.02.36-.54.14-.43-.09-.57.05-1.17-.04-.5-.44-.5.02-.3-.27-.61-.19-1.47.07-.49.21-.42-.2.22.2-.31.24.1.14-.5.24-.3.03-.73-.12-.64-.04-.9.1-.35-.15-.32-.05-.32.04-.5.18-.47.27-.4.03-.72-.15h-.52l-.52-.2-.36-.4-.22-.12-.45-.15-.31-.29-.26-.6-.34-.55-.01-.17-2.51 3.12.44 8.87h2.66l2.25-.1.44-.05.2 2.76 3.07 2.62 2.62 2.2-.12.01.13 2.62-1.35.11.06 1.27.11 2.73-.28-.03-.27.15-.3-.03-.43.18-.16.17-.15.54v.2h-.25l.05.36-.19.15.2.58.1.09-.03.58.21-.04-.04-.21.76-.05.35.5.37.26.17.3-.16.12.04.15.53.19.08-.3-.11-.4.3-.4.37-.1.49-.32.35-.25.4-.52.05.55h.2l.07.9h.23l.04.45.45-.02.05.92.45-.02.04.44.46-.03.02.45.46-.02.03.46 2.73-.2.6-.02 2.07-.15v.02l2.7-.17v.04l2.32-.12h.4l1.32-.1.14 1.48.5 6.77.1 1.37h-.05l.3 3.3-3.8.25-1.63.18.3 4.17-1.33.09-.01.02-4.46.3-1.39.04-.97.06-2.57.15.07 1.38.2 2.76h-.02l.18 2.76.34-.02.03.67-2.92.22-2.5.12v.13l-.45.02v-.12l-.45.01-.2.12v.32l-.68.06-.27-.31.22-.14-.03-.65-.37.08-.15-.1-.22.26-.16-.03-.08.26-.14-.22-.54-.02-.2-.15.19-.1v-.16l-.17-.03-.08.18-.7.16-.2-3.19-.07-1.38-1.62.09-2.5.11-2.18.12-3.33.14-1.23.08-2.7.11.22 4.63-6.18.29-2.64.15-2.53.09-.1-1.84-5.68.2-1.12.05-3.16.09h-1l-1.62.03-.7.04-.08-1.33-.03-.63-.05-.64.01-.09-.05-.66-.02-.46-.05-.72-.03-.69-.05-.5-.01-.35-.03-.09-.03-.65-.06-.98-.05-.6-.1-1.25-.03-.7-.02-.17-.15-2.76-.1-1.87-.02-.2-.01-.12-.01-.65-.05-.62v-.45l-.07-.94-.1-2.12-.27-3.93-.14-2.98-.07-1.14-.1-1.12-.08-1.4-.05-.83-.01-.26-.05-.58-.16-2.4-.03-.6-.14-2.61-.07-1.15-.03-.6-.04-.43.02-.02-.3-6.06-.06-.67h2.4l1.77-.03 3.64-.1.22-.01-.03-.66.27-.06-.05-1.86-.34-.56-.03-.2-.08-2.59-.24-.17-.55.08-.05-.34-.2-.22-.07-.3.31-.01.12-.25-.95.04.36-.4-.04-.21.27-.38.5.01.1.16.28.07.12.47 1.66-.05v-.21l.24-.01-.02-.22-.22.1-.03-.6 2.26-.06-.06-1.65.44.23h.6l.38-.23.5-.47-.07-.32-.26-.4-.04-.22.17-.24.94-.38.2-.14.3.18.17.22v.28l-.45.5-.1.51.25.22.25.08.18-.06.41-.5-.06-.37.08-.3.32-.18.41.03.23-.08.55-.66.32-.24.5-.17h.52l.48.25.38.12.56-.24.51-.14.67.06.26-.12.22-.51.18-.2.47-.2.08-.3.16-.1.4.01.15.1.57.03.47-.03.46.4.13.22.46.1.67-.04.4-.11.25-.37-.01-.28-.27-.85.05-.57.34-.35h.3l.23.2.15.4.17.12.79-.02.23.21-.03.2-.23.39.03.22.34.23.3-.04.5-.21.23-.26.55-.34.11-.24-.03-.26-.41-.65-.03-.32.24-.43.53-.07h.39l.4-.09.24-.26-.04-.19.27-.41.37.01.26.25.32-.37.17-.44.33-.47.01-.51-.27-.43-.04-.19.25-.29.36-.04.25.16.36.55.31.24h.34l.45-.2.45.1.2.21.13.35-.01.4.16.38.3.3.42.21.51.11.53-.04.6-.13.4.06.16.18.04.26-.09.5.31.37.58.16.24.32-.08.43.04.26.33.27h.25l.28-.14.26-.27.3-.12.19.05.1.24.25-.8.84-3.03 1 .26 6.09 1.53 1.85.48 2.79-.18 2.8-.13 2.27-.12.2 2.9.16 2.68" fill="#d1dbdd" stroke="rgb(209, 219, 221)" stroke-width="0.1" data-originalStrokeWidth="0.1" style="stroke: rgb(0, 0, 0); fill: rgb(209, 219, 221); pointer-events: auto; stroke-width: 0.1;" pointer-events="auto"/>
      <path id="MO05" d="m807.53 394.4-.27.37.05.21-.38.4.95-.03-.1.24-.32.02.08.28.19.23.05.34.56-.08.23.17.08 2.58.03.2.34.56.05 1.87-.27.06.03.67h-.22l-3.64.1-1.78.02h-2.38v-.22l-.05-.48-.02-.45-.06-.78-.03-.52-.02-.14-.04-.88-.03-.19-.02-.35-.02-.15v-.23l-.03-.7-.02-.18-.09-1.78-.02-.09-.05-1.02-.03-.16v-.08l.03-.35.33-.45.02-.46-.34-.25-.25-4.34-.07-1.15.96-.06.02.34.12.1 1.55-.07.16 3.08.06.13.4-.1-.07.35-.32.2.19.21h.23l.08 1.2-.03.21-.15.2.38.42.2.32.5-.37.33-.38.14-.24.11.44h.24l.1.13v-.31l.24-.18.18.49.72-.03.24-.19.42-.03.33-.11.24.32.01.24.27-.01.3.27.01.15-.44.17-.19.3" fill="#d1dbdd" stroke="rgb(209, 219, 221)" stroke-width="0.1" data-originalStrokeWidth="0.1" style="stroke: rgb(0, 0, 0); fill: rgb(209, 219, 221); pointer-events: auto; stroke-width: 0.1;" pointer-events="auto"/>
      <path id="MO06" d="m815.15 346.58 1.87-.15.57-.04.15-.01.38-.04 1.23-.1.37-.04.31-.02.5-.05.68-.07 1.16-.13.55-.04.58-.02.35-.04 1.03-.07 1.3-.11.02.01.97-.1h.25l.4-.04h.11l.22-.04 1.02-.08.92-.08.48-.05.42-.04.99-.12.51-.04.39-.05.31-.05.46-.04.7-.08.39-.06.92-.1.56-.06.43-.05 1.26-.1.08-.03.46-.02.25-.03.66-.07 1.27-.1.77-.08 2.22-.25.3-.02h.06l.17-.03.9-.11.17-.01 1.37-.18 1.42-.17.6-.05.2-.03 1.14-.12.1-.01.56-.07.24-.03.36-.05.63-.08.7-.07.45-.05.33-.04.44-.05.37-.03 1.24-.15 1.24-.14.35-.04.68-.1.94-.13.33-.03.89-.1 1.06-.14 1.49-.21.67-.11 2.24-.31.25.35.2.18.39.2.3.27-.12.44.05.16.05.07.17.12.67.07.71.11.15.13.03.92.34.27.34.14.2.24.22.48.42.28.17.04h.43l.25-.05.1.08.04.2-.23.3.17.21h.18l-.01.22-.1.22.12.3.1.04.32.13.27.02.11-.09.05.15-.05.21.13.22.17.11.28-.09.1-.05v.1l.02.2.36-.06.13-.32.12.01.03.02.24.05.17.13-.15.2-.07.07-.22.14-.05.04-.11.12-.15.33-.08.2-.14.31-.06.47-.37 1.18-.04.25.12.6-.17.42-.14.35.09.38-.01.62.08.2-.09.23-.04.4.16.65-.03.46.05.28.03.21.15.6.05.14.1.26.14.54.08.22.19.42-.07.67.21.43.31.45.4.79.1.04.46.79.17.22.26.18.17.26.08.28-.01.23-.07.1-.23.32-.17.3-.07.5.21.51.11.31.02.07.02.07.23.29.53.26.78.48.16.19.08.1.21.46-.07.2.03.46-.02.34-.02.27.06.45.2.21.1.11.3.27.29.25.24.15.4.25.17.13.09.13.45.24.34.27.17.17.1.15.24.18.33.43.43.3.92.3.3.35.25.9.14.18.27.31.41.08.25.03h.3l.34.06.07.09.52.83.13.15.29.23.06.32.05.32.16.24.26.28.24.24.12.09.26.17.78.42.27.06.26.18.37.13.32.05.1.06.14.19.06.17.34.23.16.04.09.01.3.27.33.2 1.02.5.8.73.46.19.15.09.05.16.45.34.19.32.46.46.39.12.24.28.22.64.15.51.04.5.12.4.15.37.07.55.08.2.21.4.4.52.05.14.12.4v.38l-.37.56-.01.22-.24.3.07.32.55.9.13.3.04.05.1.14.06.05.08.15.13.68.04.24v.07l.14.3.27.51v.03l-.7.08-.12.2.38.35-.32.04-.26-.14-.22.26.35.02.1.12-.2.2-.07-.17-.34-.03-.02-.16-.2.06-.06-.2.24-.18-.13-.18-.35.06-.23.34h-.6l-.07.13-.27.08-.24.2.16.15-.18.18-.03.5.1.2-.26.13-.3-.03-.33-.14-.31-.01-.1.1-.12-.18-.41.02-.45.12-.2-.12-.59.21-.19.01-.23-.21-.2.04.06.7-1.03.07-2.68.25-.16-1.88-1.92.2-.15-1.89-1.84.16-.15-1.9-.05-.55-.17-2.22-3.83.29-1.98.11-1.33.1-1.78.13.16 2.8-2.8.24-.6.03-2.44.21-2.84.24-2.36.15-.46.06-.17-2.69-.19-2.89-2.28.12-2.79.13-2.8.17-1.84-.47-6.09-1.53-1-.26-.84 3.02-.25.8-.1-.23-.2-.05-.29.12-.27.28-.27.12h-.25l-.33-.26-.04-.26.08-.43-.23-.3-.58-.17-.32-.38.1-.5-.05-.25-.16-.18-.4-.08-.6.13-.53.05-.5-.1-.43-.22-.3-.3-.16-.39v-.39l-.1-.35-.22-.22-.45-.1-.45.21h-.34l-.31-.24-.36-.55-.25-.16-.36.04-.25.3.04.18.27.43-.01.51-.32.47-.17.44-.33.37-.26-.25-.38-.01-.27.42.05.18-.25.26-.4.1-.38-.01-.53.07-.24.43.03.3.41.67.03.26-.1.24-.55.34-.25.26-.48.21-.3.04-.35-.23-.03-.21.23-.41.03-.19-.23-.21-.8.02-.16-.12-.15-.4-.22-.2h-.3l-.35.35-.05.57.27.85.01.28-.26.37-.38.11-.68.04-.46-.1-.13-.22-.45-.4-.47.03-.58-.02-.15-.1-.4-.02-.16.1-.08.3-.47.2-.18.2-.22.5-.25.13-.68-.06-.5.14-.57.24-.38-.12-.48-.25h-.53l-.5.17-.31.24-.54.66-.24.08-.4-.03-.33.18-.08.3.06.38-.41.5-.19.05-.24-.08-.26-.22.11-.5.45-.5v-.3l-.16-.2-.3-.18-.21.13-.94.38-.17.24.04.23.26.39.06.32-.49.47-.38.23h-.6l-.44-.23.06 1.65-2.26.07.03.59.22-.1.02.22-.25.01.01.21-1.65.05-.12-.47-.29-.07-.1-.16-.5-.01.18-.3.45-.16v-.16l-.31-.27h-.27v-.22l-.25-.31-.33.1-.42.03-.24.2-.72.02-.18-.49-.23.18v.31l-.11-.13h-.23l-.12-.44-.14.24-.34.38-.48.36-.2-.31-.4-.43.16-.2.03-.2-.08-1.2h-.23l-.2-.22.32-.2.08-.33-.4.09-.06-.13-.16-3.08-1.55.08-.12-.11-.02-.34-.96.06.07 1.14.25 4.35h-.33l-.46.23-.38.03-.28-.27.03-.36-.06-.1-.1-.09-.22-.08-.34.02-.59.46-.52.06-.4-.1-.27-.2-.2-.3-.04-.04-.18-.38-.13-.1-.61.05-.34-.07-.29-.24-.03-.19.16-.39-.04-.44-.29-.4-.12-.12-.09-.05-.28-.16-.27-.12-.12-.04-.19-.07-.07-.06-.12-.13-.17-.18-.1-.12-.15-.3-.05-.2-.07-.28-.02-.19-.04-.28-.04-.2v-.12l.04-.23.17-.2.37-.18.1-.42-.05-.13-.1-.19-.2-.1-.12.01-.42.25-.08.05-.43-.02-.12-.08-.13-.19-.01-.31-.22-.26-.25-.07-.2-.15-.26-.58-.2-.18-.43-.13-.36-.11-.29-.15-.28-.32-.1-.28-.1-.55-.22-.28-.44-.18-.4-.33-.23-.22-.17-.25-.14-.38-.02-.14.01-.12.11-.43.18-.2.17-.05.49.12.37-.16.2-.53-.16-.46-.09-.32.04-.28.16-.45.13-.17.03-.1.13-.26.16-.27.14-.14.49-.13.39-.11.22-.3.05-.29-.02-.33-.1-.59.12-.41.06-.1.17-.13.31.05.74.49.25.05h.1l.53-.22.18-.2.13-.28v-.08l.02-.06.03-.14-.05-.17-.02-.13-.11-.23-.12-.07h-.05l-.24.08-.24.2-.14.12-.32.09-.35-.21-.22-.2-.02-.07-.02-.11.01-.1.03-.1.06-.1.08-.04.19-.04h.12l.5-.07.22-.1.15-.31.02-.32-.04-.3-.05-.1-.14-.17-.2-.08-.34.05-.26-.05-.58-.49-.05-.4.23-.29.04-.39-.2-.24-.48-.2-.53.15-.32.03-.16-.06-.18-.04-.32.12-.12.2-.02.61-.2.2-.93.2-.25.02-.64-.25-.43-.1-.2-.1-.16-.24-.05-.51-.16-.1-.24-.02-.45.23-.25.01-.1-.01-.24-.13-.06-.2.1-.45-.14-.44-.37-.13-.5.02-.23-.1-.55-.68-.73-.37-.18-.3-.02-.28-.24-.33-.46-.17-.26-.27-.24-.08-.41.1-.31.09-.49-.17-.2-.22-.15-.44-.03-.22.24-.4.03-.12-.01-.19-.06-.25.03-.19.34-.47v-.25l-.32-.32-.33-.03-.3-.23-.08-.45-.18-.27-.45-.17-.26-.22-.3-.4-.04-.1v-.36l.26-.63-.1-.43-.15-.22-.38-.18-.54.04-.19-.04-.49-.28-.24-.09-.05-.12.09-.43-.07-.31-.43-.24-.25.01-.23-.11-.2-.2-.4-.11-.7.3-.21-.06-.09-.36.21-.2.46-.24.09-.2-.01-.27-.15-.25-.2-.2-.1-.15-.11-.64-.4-.67-.05-.24.1-.56-.04-.17-.07-.17-.32-.38-.3-.19-.23-.18-.1-.3.01-.59-.12-.24.1-.04.08-.05.56-.26.27-.28.06-.46-.1-.28-.14-.1-.13-.23-.13-.14-.36.06-.17.15-.03.62.02.26-.26.25-.1-.14-.24-.06-.36.15-.46-.04-.3-.32.1-.37-.04-.28-.26-.51.13-.31.06-.07 1.17-.05 1.02-.03.84-.05.87-.02.67-.01 1.1-.05.91-.03 1.78-.08h.48l.76-.05 1.05-.03 2-.1h.22l1.4-.07.77-.02 1.48-.07.77-.02 2.43-.12.77-.03 1.47-.07.9-.03 5.3-.26 1.15-.08.95-.05.43-.02v-.02l.9-.05.25-.03.79-.05.32-.03.48-.03.43-.04.76-.04.26-.03.56-.02.36-.03.5-.05 1.38-.11.47-.04 1.07-.09.72-.05.19-.01.6-.05.48-.05.54-.05.38-.04 1.17-.1h.02l.28-.04 1.7-.16" fill="#d1dbdd" stroke="rgb(209, 219, 221)" stroke-width="0.1" data-originalStrokeWidth="0.1" style="stroke: rgb(0, 0, 0); fill: rgb(209, 219, 221); pointer-events: auto; stroke-width: 0.1;" pointer-events="auto"/>
      <path id="MO07" d="m851.48 473.66-1.03.08h-.04l-.58.07-.63.05h-.14l-1.1.1-1.26.1-.17.01-.34.04-.34.01-.32.04h-.19l-1.19.1-.6.04-1.2.11-1.07.1h-.3l-.44.04-1.29.1-.76.05h-.1l-.33.04h-.04l-.48.04-.8.06-.84.05h-.05l-1.04.08-.24.03-1.01.07-.63.04-1.73.13-1.62.12-1.53.1-.94.09h-.18l-.48.05-.59.04-.98.07-.76.06-1.39.1h-.24l-.47.05-.28.03h-.1l-1.49.1-1.21.1-.52.03-.41.03-.36.02-.76.06-.64.05-1.97.1-.41.02-.44.04-.9.05-.6.05h-.19l-.95.07-.4.03-1.52.12h-.1l-.44.04-1.55.08-.92.05-.54.03-.03-.52-.04-.52v-.11l-.14-1.95-.04-.86-.1-1.37v-.04l-.07-1.15-.07-1-.04-.61-.03-.67-.05-.55-.05-.68-.05-.94-.03-.25-.03-.63-.02-.2-.05-1-.08-1.24-.02-.36-.03-.27-.04-.8-.06-1.1v-.07l-.1-1.44-.03-.24-.04-.87-.04-.51-.03-.44-.05-.8-.03-.39-.05-.97-.06-.82-.01-.19-.1-1.68-.06-.95-.08-1.2.7-.03 1.61-.03h1.01l3.16-.1 1.12-.05 5.69-.2.09 1.85 2.53-.1 2.64-.14 6.17-.29-.23-4.63 2.72-.11 1.23-.08 3.33-.14 2.18-.12 2.5-.11 1.62-.09.07 1.38.2 3.19.7-.16.08-.18.18.03-.01.17-.19.1.2.14.54.02.15.22.07-.26.16.03.22-.26.16.1.37-.08.03.64-.23.15.27.31.69-.06-.02-.32.2-.12.45-.01v.12l.47-.02-.01-.13 2.5-.12 2.92-.22.21 3.71.11 1.85-3.13.2-.63.07-1.64.06.04.47.24 3.8.24 4.02 3.6-.19.26 3.88.37 5.87" fill="#d1dbdd" stroke="rgb(209, 219, 221)" stroke-width="0.1" data-originalStrokeWidth="0.1" style="stroke: rgb(0, 0, 0); fill: rgb(209, 219, 221); pointer-events: auto; stroke-width: 0.1;" pointer-events="auto"/>
      <path id="MO08" d="m865.88 424.19 1.35-.1.1-.84.23-.22.18.01.2.3.4-.36.47-.26.04-.1 1.77-.18 1.85-.23 2.8-.19-.25-3.25 2.56-.21.62 6.67.4 4.83 3.74-.35 1.69-.13.2 2.75 4.03-.31-.13-1.38 2.97-.23 1.06-.12.87-.05 1.8-.06 2.17-.3.56-.13.6-.01 2.3-.17-.16-1.86-.64-6.52-.21-2.43.36-.04.18.08-.04-.52.34.01v.11l.27-.08.22.1-.07-.27.19-.28.37-.11-.1-.26.08-.14.58.15-.07-.53-.16-.2.4-.04-.05-.36.64.06-.43-.34-.03-.16.23.02-.08-.67h-.18l-.08-.24-.08-1.46-.27-3.09-.22-2.1-.25-2.6-.1-.8 1.21-.14 1.4-.12.06.45-.21.22-.2-.06.24.56.04.24.14.1.3-.2.15.25.95-.35.3.06.1.2-.23.42.08.6v.33l.22.56-.14.38-.08.33-.03.22-.04.1-.23.78.07 1.05.06.53.06.3.1.38.09.3.17.66.21.42.07.12.56.67.45.3.43.07.25.14.43.36.7.96.23.38.7.53.37.23.8.4.25-.2.19.05.02.01.16.06.41.2.15.22.03.4.06.1.03.02.12.15.33.23.25.13.2.08.6-.08.2.05.1.16.03.07.04.04.3.14.22.13.68.73.3.18.2.03.15-.03.41-.12.58-.27.15.33.27-.02-.11.39-.37.3-.25.01-.05.05-.05.18-.25.2.01.17.29.62.06.04.06.1.15.24.14.22.09.06.26.12v.04l.02-.04.14.04.16.05.2.02.3-.01.09-.04.06-.04.22-.15.12-.1.1-.1.08-.1.12-.22.1-.2.08-.08.05-.03.05-.02.02-.04.1-.12h.03l.05-.03.08-.05h.05l.78.48.37.15.1.6.32.3.09-.1.44.05.3.14.13-.04.2-.02.36.4.55.37.16.1.62.27.2.13.28.42.03.28-.05.28-.02.41.05.11.4.17.4-.05.37-.17.06.21.1.07.15.03.21.1.1.1.02.06.02.05.07.06.03.07.15.22.1.1.22.08.89.14.49.14.14.15.1.28-.07.42.14.99.38.43.07.06.1.13.1.05.4.41.11.26-.11.24-.31.13-.3-.05-.2-.04-.17.2.04.5.14.54.1.32.5.67.32.68.34.42.45.46.54.5.28.47.26.53.19.45.04.2-.09 1.02-.05.25-.09.14-.35.21-.57.1-.23.11-.15.16-.12.3-.25.24-.06.17-.03.07v.43l-.04.3.09.21.38.44.18.16.17.2.14-.03.33-.08.2.03.14.13.02.12v.06l-.1.35-.06.29.23.67.18.36.26.4.27.38.1.28.3.4.33.4.59.37.25.22.16.26.12.4-.03.37-.04.14-.08.36.05.2.25.3.37.22.81.23.37.17.71.59.34.06.28-.27.15-.62-.1-.25-.5-.35-.61-.2-.28-.39.03-.38h.23l.38.02.6-.03.1-.22.55.92.5.36.2.11.36.33.16.57.12.42.2.18.38.06.48-.29.41-.2.18-.06.29.08.37.37.05.13.05.54-.02.23-.1.57-.12 1.18-.16.51-.17.73-.21.02-.23.12-.06.06-.11.02-.07-.01-.12.07-.05.06v.02l-.05.04-.03.26.04.29v.24l.03.1.03.03.22.34.23.15.29.07.48-.04.2.04.12.14.14.47-.17.47-.35-.01-.15-.06-.33.03-.22-.08-.14.04-.08.07-.13.07-.08.06-.12.2-.08.14-.06.14v.07l-.03.16-.01.22.05.23.05.07.07.1.09.07.12.1.05.07.14.12.2.14.18.18.03.07.03.21v.07l-.03.1-.03.06.34.16-.22.37-.38.46-.23.46-.02.88-.2.72-.1.16-.17.2-.22.11-.5.12-.34-.12-.71-.67-.65-.9-.28-.2-.15-.02-.42.12-.4.22-.12.18-.1.35-.04.84-.21.71-.02.62-.13.45-.18.98h-.02l-.17.47-.22.36-.36.45-.25.16-.31.01-.41-.23-.1-.27.15-.7.21-.42.14-.57-.1-.62-.16-.35-.12-.2-.31-.21-.65-.04-.2-.03-.24-.09-.5.18-.15.14-.24.43-.02.33.21.5.16.32.03.05.25.32.35.41.52.55.06.19v.18l-.1.5-.37.46v.38l.1.2.5.58.34.44.15.36-.05.43-.1.38-.27.33-.33.11-.4.02-.54-.08-.48.04-.24.1-.17.38.04.28.23.33.74.43.16.14.62.25.28-.1.17.12.03.09.08.28.03.06v.08l.02.2-.27.2-.46-.04-.22.25-.32.16-.58.08-.7-.2-.35-.05-.67.17-.34-.08-.1-.01-.1.15-.08.17.08.28.07.1.2.17.35.24.43.26.24.11.5.36.35.14.15.08.32.25.12.13.24.31.12.43.01.4-.11.26-.38.3-.23.21-1 .52-.27.44v1l-.01.55-.1.45-.26.53-.01.12-.27.04-.65.08-2.56.32-.73.09-.83.1-.95.12-.68.08-.78.1-1.6.19-.9.11-.94.12-.19.03-1.05.12-1.42.17-1.26.16-.55.06-.58.08-.8.09.1-.4.2-.3.1-.18.03-.06.05-.04v-.07l-.03-.05h-.03l-.02-.04v-.02l.07-.02.01-.07.03-.01.02-.05-.02-.04-.03-.11.02-.05.05-.02.01-.03h.05l.02-.04v-.02h-.02v-.03l.06-.07h.1l-.02-.07v-.03l-.02-.03v-.07l.02-.05.06-.02v-.03l.02-.04h-.02l-.03-.03v-.02h-.04v-.04l.04-.05-.02-.05.04-.13h.02l.04-.04h.05l.06-.07.04-.02v-.02h.02l.05.02v-.09l.06-.07v-.05l-.03-.08-.04-.05v-.04l.02-.03v-.06l-.04-.05.02-.11.05-.02.06-.07.04-.05.18-.04.06-.07h.01l.04-.02.02-.02-.02-.05.01-.05.01-.03.02-.02V480h.01l.08-.25.66-.24.11-.24.22-.1.09-.07v-.02h.02l.02-.06v-.08l.09-.02.13-.15v-.04l.01-.03v-.07h.02l.02-.02.04-.05-.03-.13.02-.09-.07-.02.02-.04h-.04l-.03-.1.18-.58v-.06l.1-.2.26-.07.09-.02.04-.03v-.1l.07-.06-.01-.04h-.02l.02-.07.02-.04.07.01.03-.05-.02-.04.01-.05h.06l.07-.06.04-.07v-.05l.02-.01.04.03.05-.04.02.01.02-.1h.03l.07.03.02-.03v-.04l.03-.06.05.01.02-.01.05-.06.05-.03.39-.12.2-.39.26-.01.17-.3-.16-.24h.13l.12-.5.03-.12v-.11l.05-.04.07-.02.02.02h.08l.01-.02.02-.05h.02l.04-.03.07-.03.04-.02.04-.05h.1l.16-.03.22-.33-.05-.1-.07-.18.18-.13v-.11l.09-.1.05-.14-.05-.04-.08-.2-.31-.21-.07-.1.04-.02.02-.02-.07-.06v-.04l.06-.01v-.07l.05-.04.02-.13-.02-.01-.05-.04-.01-.03.02-.13.05-.02.02-.01v-.06l-.1-.09-.01-.07.05-.02.02-.07v-.02l.05-.05.01-.05.04-.04h.03v-.02l.04-.05v-.05l-.02-.07.01-.03-.02-.05.05-.1-.02-.03.03-.09-.02-.1.01-.06v-.04l-.05.03-.05-.02.04-.15.04-.04h-.02l-.12-.04v-.02l.05-.06-.1-.08-.1-.06-.15-.1-.1-.13-.43-.05-.04.07-.04-.02-.05-.07h-.01l-.07.05h-.06l-.03-.03-.02-.08-.11.05.05-.05v-.03l-.02-.03-.05.07-.07-.08-.01-.07-.04.05v.02h-.1l-.1-.01v-.03l.01-.13-.22.14-.03-.05.07-.1-.05-.15-.22-.07.13-.3-.02-.04.03-.23.01-.07-.02-.04-.04-.12.05-.14h-.04l-.03-.04-.05-.02-.07-.1v-.1l-.05-.15-.03.12-.01.05h-.05l-.04-.01-.05-.05h-.02l-.07.06-.05-.09.05-.13.2.02.06-.05v-.03l-.03-.05v-.07h-.16l-.04-.02-.07-.03-.16-.04v-.05l.02-.04.03-.07v-.19l-.05-.01.02-.1h.1l-.06-.07.07-.07h-.07l-.02.01-.7.08-.26.03-.67.08-1.11.12-.35.03-.69.1h-.26l-1.47.17-1.37.14h-.06l-.34.04-.52.05-.9.1-.24.02-.65.07-1.24.14-.56.07-.67.06-1.46.17-.7.05-1.33.15-.56.06h-.14l-.79.1-.84.1-.4.02-.91.1-.39.03-.79.09-1.93.22-.6.06-.54.06-.78.09-.44.03-.7.07-.23.03-.93.1-.42.04-.81.09-.56.05-.46.04-.4.04-.45.05-.92.1-1.33.11-.08.02-.34.02-.89.06-1.28.11-1.64.13-.38.06-2.27.2-1.26.14-.56.05-.6.05-.34.04-.66.06-1.75.17-.4.04h-.03l-.54.06-.78.08-.63.06h-.02l-.44.04-.66.06-.59.05-1.01.09-.46.05-.7.05-.83.09-1.44.14h-.12l-.55.06-.47.04-1.19.1-.26.06-.6.03-1.17.09h-.06l-.9.06-.32.04-.52.03-.19.03h-.1l-.88.08-1.26.13-.28.01-.57.05-1.7.15-.35.04h-.04l-.34.03-.52.04-.1.02-.37.02-.39-5.87-.25-3.88-3.6.19-.24-4.03-.24-3.8-.04-.46 1.64-.06.63-.07 3.13-.2-.1-1.84-.22-3.72-.03-.67-.34.02-.18-2.76h.02l-.2-2.76-.07-1.38 2.57-.15.97-.06 1.38-.03 4.46-.32h.02l1.33-.1-.3-4.17 1.61-.18 3.81-.25-.29-3.3h.05l-.1-1.37-.5-6.77-.14-1.48" fill="#d1dbdd" stroke="rgb(209, 219, 221)" stroke-width="0.1" data-originalStrokeWidth="0.1" style="stroke: rgb(0, 0, 0); fill: rgb(209, 219, 221); pointer-events: auto; stroke-width: 0.1;" pointer-events="auto"/>
      <g id="state_lines" stroke="rgb(209, 219, 221)" style="display: none; stroke: rgb(0, 0, 0);" stroke-width="0.1"/>
      <g id="state_abbr" fill="#000000" style="display: none; fill: rgb(0, 0, 0);">
        <text id="HI_label" x="491.79" y="769.82" style="font-size: 19.2455px; stroke-width: 1.60379; display: none;">
          <tspan id="HI_tspan" x="491.79" y="769.82" fill="#000000" dy="0" font-family="Arial" font-size="24.06" font-style="normal" font-weight="400" style="text-align: center; stroke-width: 2.57215; fill: rgb(0, 0, 0);" text-anchor="middle">HI</tspan>
        </text>
        <text id="AK_label" x="205.24" y="672.25" style="font-size: 19.2455px; stroke-width: 1.60379; display: none;">
          <tspan id="AK_tspan" x="205.24" y="672.25" fill="#000000" dy="0" font-family="Arial" font-size="24.06" font-style="normal" font-weight="400" style="text-align: center; stroke-width: 2.57215; fill: rgb(0, 0, 0);" text-anchor="middle">AK</tspan>
        </text>
        <text id="FL_label" x="1188.11" y="708.7" style="font-size: 19.2455px; stroke-width: 1.60379; display: none;">
          <tspan id="FL_tspan" x="1188.11" y="708.7" fill="#000000" dy="0" font-family="Arial" font-size="24.06" font-style="normal" font-weight="400" style="text-align: center; stroke-width: 2.57215; fill: rgb(0, 0, 0);" text-anchor="middle">FL</tspan>
        </text>
        <text id="NH_label" x="1306.05" y="167.79" stroke-width="1.1" font-size="13.25" style="display: none;">
          <tspan id="NH_tspan" x="1306.05" y="167.79" fill="#000000" stroke-width="1.1" dy="0" font-family="Arial" font-size="16.56" font-style="normal" font-weight="400" style="text-align: center; fill: rgb(0, 0, 0);" text-anchor="middle">NH</tspan>
        </text>
        <text id="MI_label" x="1019.65" y="246.58" style="font-size: 19.2455px; stroke-width: 1.60379; display: none;">
          <tspan id="MI_tspan" x="1019.65" y="246.58" fill="#000000" dy="0" font-family="Arial" font-size="24.06" font-style="normal" font-weight="400" style="text-align: center; stroke-width: 2.57215; fill: rgb(0, 0, 0);" text-anchor="middle">MI</tspan>
        </text>
        <text id="VT_label" x="1274.28" y="145.01" stroke-width="1.05" font-size="12.65" style="display: none;">
          <tspan id="VT_tspan" x="1274.28" y="145.01" fill="#000000" stroke-width="1.05" dy="0" font-family="Arial" font-size="15.81" font-style="normal" font-weight="400" style="text-align: center; fill: rgb(0, 0, 0);" text-anchor="middle">VT</tspan>
        </text>
        <text id="ME_label" x="1338.99" y="105.14" stroke-width="1.45" font-size="17.36" style="display: none;">
          <tspan id="ME_tspan" x="1338.99" y="105.14" fill="#000000" stroke-width="1.45" dy="0" font-family="Arial" font-size="21.7" font-style="normal" font-weight="400" style="text-align: center; fill: rgb(0, 0, 0);" text-anchor="middle">ME</tspan>
        </text>
        <text id="RI_label" x="1361.38" y="262.84" stroke-width="1.25" font-size="14.98" style="display: none;">
          <tspan id="RI_tspan" x="1361.38" y="262.84" fill="#000000" stroke-width="1.25" dy="0" font-family="Arial" font-size="18.72" font-style="normal" font-weight="400" style="text-align: center; fill: rgb(0, 0, 0);" text-anchor="middle">RI</tspan>
        </text>
        <text id="NY_label" x="1227.27" y="204.12" style="font-size: 19.2455px; stroke-width: 1.60379; display: none;">
          <tspan id="NY_tspan" x="1227.27" y="204.12" fill="#000000" dy="0" font-family="Arial" font-size="24.06" font-style="normal" font-weight="400" style="text-align: center; stroke-width: 2.57215; fill: rgb(0, 0, 0);" text-anchor="middle">NY</tspan>
        </text>
        <text id="PA_label" x="1187.28" y="284.69" style="font-size: 19.2455px; stroke-width: 1.60379; display: none;">
          <tspan id="PA_tspan" x="1187.28" y="284.69" fill="#000000" dy="0" font-family="Arial" font-size="24.06" font-style="normal" font-weight="400" style="text-align: center; stroke-width: 2.57215; fill: rgb(0, 0, 0);" text-anchor="middle">PA</tspan>
        </text>
        <text id="NJ_label" x="1330.57" y="290.09" stroke-width="1.28" font-size="15.4" style="display: none;">
          <tspan id="NJ_tspan" x="1330.57" y="290.09" fill="#000000" stroke-width="1.28" dy="0" font-family="Arial" font-size="19.25" font-style="normal" font-weight="400" style="text-align: center; fill: rgb(0, 0, 0);" text-anchor="middle">NJ</tspan>
        </text>
        <text id="DE_label" x="1320.8" y="328.42" stroke-width="1.36" font-size="16.38" style="display: none;">
          <tspan id="DE_tspan" x="1320.8" y="328.42" fill="#000000" stroke-width="1.36" dy="0" font-family="Arial" font-size="20.47" font-style="normal" font-weight="400" style="text-align: center; fill: rgb(0, 0, 0);" text-anchor="middle">DE</tspan>
        </text>
        <text id="MD_label" x="1310.72" y="368.46" stroke-width="1.34" font-size="16.11" style="display: none;">
          <tspan id="MD_tspan" x="1310.72" y="368.46" fill="#000000" stroke-width="1.34" dy="0" font-family="Arial" font-size="20.13" font-style="normal" font-weight="400" style="text-align: center; fill: rgb(0, 0, 0);" text-anchor="middle">MD</tspan>
        </text>
        <text id="VA_label" x="1198.59" y="392.33" style="font-size: 19.2455px; stroke-width: 1.60379; display: none;">
          <tspan id="VA_tspan" x="1198.59" y="392.33" fill="#000000" dy="0" font-family="Arial" font-size="24.06" font-style="normal" font-weight="400" style="text-align: center; stroke-width: 2.57215; fill: rgb(0, 0, 0);" text-anchor="middle">VA</tspan>
        </text>
        <text id="WV_label" x="1129.66" y="382.3" style="font-size: 19.2455px; stroke-width: 1.60379; display: none;">
          <tspan id="WV_tspan" x="1129.66" y="382.3" fill="#000000" dy="0" font-family="Arial" font-size="24.06" font-style="normal" font-weight="400" style="text-align: center; stroke-width: 2.57215; fill: rgb(0, 0, 0);" text-anchor="middle">WV</tspan>
        </text>
        <text id="OH_label" x="1079.05" y="334.46" style="font-size: 19.2455px; stroke-width: 1.60379; display: none;">
          <tspan id="OH_tspan" x="1079.05" y="334.46" fill="#000000" dy="0" font-family="Arial" font-size="24.06" font-style="normal" font-weight="400" style="text-align: center; stroke-width: 2.57215; fill: rgb(0, 0, 0);" text-anchor="middle">OH</tspan>
        </text>
        <text id="IN_label" x="998.79" y="352.94" style="font-size: 19.2455px; stroke-width: 1.60379; display: none;">
          <tspan id="IN_tspan" x="998.79" y="352.94" fill="#000000" dy="0" font-family="Arial" font-size="24.06" font-style="normal" font-weight="400" style="text-align: center; stroke-width: 2.57215; fill: rgb(0, 0, 0);" text-anchor="middle">IN</tspan>
        </text>
        <text id="IL_label" x="927.43" y="364.36" style="font-size: 19.2455px; stroke-width: 1.60379; display: none;">
          <tspan id="IL_tspan" x="927.43" y="364.36" fill="#000000" dy="0" font-family="Arial" font-size="24.06" font-style="normal" font-weight="400" style="text-align: center; stroke-width: 2.57215; fill: rgb(0, 0, 0);" text-anchor="middle">IL</tspan>
        </text>
        <text id="CT_label" x="1299.17" y="228.46" stroke-width="1.06" font-size="12.74" style="display: none;">
          <tspan id="CT_tspan" x="1299.17" y="228.46" fill="#000000" stroke-width="1.06" dy="0" font-family="Arial" font-size="15.93" font-style="normal" font-weight="400" style="text-align: center; fill: rgb(0, 0, 0);" text-anchor="middle">CT</tspan>
        </text>
        <text id="WI_label" x="898.6" y="224.7" style="font-size: 19.2455px; stroke-width: 1.60379; display: none;">
          <tspan id="WI_tspan" x="898.6" y="224.7" fill="#000000" dy="0" font-family="Arial" font-size="24.06" font-style="normal" font-weight="400" style="text-align: center; stroke-width: 2.57215; fill: rgb(0, 0, 0);" text-anchor="middle">WI</tspan>
        </text>
        <text id="NC_label" x="1205.6" y="458.72" style="font-size: 19.2455px; stroke-width: 1.60379; display: none;">
          <tspan id="NC_tspan" x="1205.6" y="458.72" fill="#000000" dy="0" font-family="Arial" font-size="24.06" font-style="normal" font-weight="400" style="text-align: center; stroke-width: 2.57215; fill: rgb(0, 0, 0);" text-anchor="middle">NC</tspan>
        </text>
        <text id="MA_label" x="1305.87" y="200.67" stroke-width="1.04" font-size="12.46" style="display: none;">
          <tspan id="MA_tspan" x="1305.87" y="200.67" fill="#000000" stroke-width="1.04" dy="0" font-family="Arial" font-size="15.58" font-style="normal" font-weight="400" style="text-align: center; fill: rgb(0, 0, 0);" text-anchor="middle">MA</tspan>
        </text>
        <text id="MO_label" x="854.22" y="422.93" style="font-size: 19.2455px; stroke-width: 1.60379; display: none;">
          <tspan id="MO_tspan" x="854.22" y="422.93" fill="#000000" dy="0" font-family="Arial" font-size="24.06" font-style="normal" font-weight="400" style="text-align: center; stroke-width: 2.57215; fill: rgb(0, 0, 0);" text-anchor="middle">MO</tspan>
        </text>
        <text id="GA_label" x="1106.89" y="574.56" style="font-size: 19.2455px; stroke-width: 1.60379; display: none;">
          <tspan id="GA_tspan" x="1106.89" y="574.56" fill="#000000" dy="0" font-family="Arial" font-size="24.06" font-style="normal" font-weight="400" style="text-align: center; stroke-width: 2.57215; fill: rgb(0, 0, 0);" text-anchor="middle">GA</tspan>
        </text>
        <text id="SC_label" x="1166.32" y="522.49" style="font-size: 19.2455px; stroke-width: 1.60379; display: none;">
          <tspan id="SC_tspan" x="1166.32" y="522.49" fill="#000000" dy="0" font-family="Arial" font-size="24.06" font-style="normal" font-weight="400" style="text-align: center; stroke-width: 2.57215; fill: rgb(0, 0, 0);" text-anchor="middle">SC</tspan>
        </text>
        <text id="KY_label" x="1039.99" y="426.39" style="font-size: 19.2455px; stroke-width: 1.60379; display: none;">
          <tspan id="KY_tspan" x="1039.99" y="426.39" fill="#000000" dy="0" font-family="Arial" font-size="24.06" font-style="normal" font-weight="400" style="text-align: center; stroke-width: 2.57215; fill: rgb(0, 0, 0);" text-anchor="middle">KY</tspan>
        </text>
        <text id="AL_label" x="1019.59" y="578.15" style="font-size: 19.2455px; stroke-width: 1.60379; display: none;">
          <tspan id="AL_tspan" fill="#000000" dy="0" font-family="Arial" font-size="24.06" font-style="normal" font-weight="400" style="text-align: center; stroke-width: 2.57215; fill: rgb(0, 0, 0);" text-anchor="middle">AL</tspan>
        </text>
        <text id="LA_label" x="872.7" y="649.59" style="font-size: 19.2455px; stroke-width: 1.60379; display: none;">
          <tspan id="LA_tspan" x="872.7" y="649.59" fill="#000000" dy="0" font-family="Arial" font-size="24.06" font-style="normal" font-weight="400" style="text-align: center; stroke-width: 2.57215; fill: rgb(0, 0, 0);" text-anchor="middle">LA</tspan>
        </text>
        <text id="MS_label" x="940.37" y="592.21" style="font-size: 19.2455px; stroke-width: 1.60379; display: none;">
          <tspan id="MS_tspan" x="940.37" y="592.21" fill="#000000" dy="0" font-family="Arial" font-size="24.06" font-style="normal" font-weight="400" style="text-align: center; stroke-width: 2.57215; fill: rgb(0, 0, 0);" text-anchor="middle">MS</tspan>
        </text>
        <text id="IA_label" x="823.33" y="308.44" style="font-size: 19.2455px; stroke-width: 1.60379; display: none;">
          <tspan id="IA_tspan" x="823.33" y="308.44" fill="#000000" dy="0" font-family="Arial" font-size="24.06" font-style="normal" font-weight="400" style="text-align: center; stroke-width: 2.57215; fill: rgb(0, 0, 0);" text-anchor="middle">IA</tspan>
        </text>
        <text id="MN_label" x="790.84" y="183.37" style="font-size: 19.2455px; stroke-width: 1.60379; display: none;">
          <tspan id="MN_tspan" x="790.84" y="183.37" fill="#000000" dy="0" font-family="Arial" font-size="24.06" font-style="normal" font-weight="400" style="text-align: center; stroke-width: 2.57215; fill: rgb(0, 0, 0);" text-anchor="middle">MN</tspan>
        </text>
        <text id="OK_label" x="732.05" y="519.54" style="font-size: 19.2455px; stroke-width: 1.60379; display: none;">
          <tspan id="OK_tspan" x="732.05" y="519.54" fill="#000000" dy="0" font-family="Arial" font-size="24.06" font-style="normal" font-weight="400" style="text-align: center; stroke-width: 2.57215; fill: rgb(0, 0, 0);" text-anchor="middle">OK</tspan>
        </text>
        <text id="TX_label" x="710.59" y="652.87" style="font-size: 19.2455px; stroke-width: 1.60379; display: none;">
          <tspan id="TX_tspan" x="710.59" y="652.87" fill="#000000" dy="0" font-family="Arial" font-size="24.06" font-style="normal" font-weight="400" style="text-align: center; stroke-width: 2.57215; fill: rgb(0, 0, 0);" text-anchor="middle">TX</tspan>
        </text>
        <text id="NM_label" x="506.94" y="542.36" style="font-size: 19.2455px; stroke-width: 1.60379; display: none;">
          <tspan id="NM_tspan" x="506.94" y="542.36" fill="#000000" dy="0" font-family="Arial" font-size="24.06" font-style="normal" font-weight="400" style="text-align: center; stroke-width: 2.57215; fill: rgb(0, 0, 0);" text-anchor="middle">NM</tspan>
        </text>
        <text id="KS_label" x="701.21" y="427.26" style="font-size: 19.2455px; stroke-width: 1.60379; display: none;">
          <tspan id="KS_tspan" x="701.21" y="427.26" fill="#000000" dy="0" font-family="Arial" font-size="24.06" font-style="normal" font-weight="400" style="text-align: center; stroke-width: 2.57215; fill: rgb(0, 0, 0);" text-anchor="middle">KS</tspan>
        </text>
        <text id="NE_label" x="686.63" y="337.29" style="font-size: 19.2455px; stroke-width: 1.60379; display: none;">
          <tspan id="NE_tspan" x="686.63" y="337.29" fill="#000000" dy="0" font-family="Arial" font-size="24.06" font-style="normal" font-weight="400" style="text-align: center; stroke-width: 2.57215; fill: rgb(0, 0, 0);" text-anchor="middle">NE</tspan>
        </text>
        <text id="SD_label" x="663.02" y="238.75" style="font-size: 19.2455px; stroke-width: 1.60379; display: none;">
          <tspan id="SD_tspan" x="663.02" y="238.75" fill="#000000" dy="0" font-family="Arial" font-size="24.06" font-style="normal" font-weight="400" style="text-align: center; stroke-width: 2.57215; fill: rgb(0, 0, 0);" text-anchor="middle">SD</tspan>
        </text>
        <text id="ND_label" x="663.02" y="150.75" style="font-size: 19.2455px; stroke-width: 1.60379; display: none;">
          <tspan id="ND_tspan" x="663.02" y="150.75" fill="#000000" dy="0" font-family="Arial" font-size="24.06" font-style="normal" font-weight="400" style="text-align: center; stroke-width: 2.57215; fill: rgb(0, 0, 0);" text-anchor="middle">ND</tspan>
        </text>
        <text id="WY_label" x="499.57" y="276.47" style="font-size: 19.2455px; stroke-width: 1.60379; display: none;">
          <tspan id="WY_tspan" x="499.57" y="276.47" fill="#000000" dy="0" font-family="Arial" font-size="24.06" font-style="normal" font-weight="400" style="text-align: center; stroke-width: 2.57215; fill: rgb(0, 0, 0);" text-anchor="middle">WY</tspan>
        </text>
        <text id="MT_label" x="487.84" y="155.58" style="font-size: 19.2455px; stroke-width: 1.60379; display: none;">
          <tspan id="MT_tspan" x="487.84" y="155.58" fill="#000000" dy="0" font-family="Arial" font-size="24.06" font-style="normal" font-weight="400" style="text-align: center; stroke-width: 2.57215; fill: rgb(0, 0, 0);" text-anchor="middle">MT</tspan>
        </text>
        <text id="CO_label" x="525.13" y="406.28" style="font-size: 19.2455px; stroke-width: 1.60379; display: none;">
          <tspan id="CO_tspan" x="525.13" y="406.28" fill="#000000" dy="0" font-family="Arial" font-size="24.06" font-style="normal" font-weight="400" style="text-align: center; stroke-width: 2.57215; fill: rgb(0, 0, 0);" text-anchor="middle">CO</tspan>
        </text>
        <text id="ID_label" x="339.94" y="235.07" style="font-size: 19.2455px; stroke-width: 1.60379; display: none;">
          <tspan id="ID_tspan" x="339.94" y="235.07" fill="#000000" dy="0" font-family="Arial" font-size="24.06" font-style="normal" font-weight="400" style="text-align: center; stroke-width: 2.57215; fill: rgb(0, 0, 0);" text-anchor="middle">ID</tspan>
        </text>
        <text id="UT_label" x="396.81" y="386.73" style="font-size: 19.2455px; stroke-width: 1.60379; display: none;">
          <tspan id="UT_tspan" x="396.81" y="386.73" fill="#000000" dy="0" font-family="Arial" font-size="24.06" font-style="normal" font-weight="400" style="text-align: center; stroke-width: 2.57215; fill: rgb(0, 0, 0);" text-anchor="middle">UT</tspan>
        </text>
        <text id="AZ_label" x="366.76" y="536.9" style="font-size: 19.2455px; stroke-width: 1.60379; display: none;">
          <tspan id="AZ_tspan" x="366.76" y="536.9" fill="#000000" dy="0" font-family="Arial" font-size="24.06" font-style="normal" font-weight="400" style="text-align: center; stroke-width: 2.57215; fill: rgb(0, 0, 0);" text-anchor="middle">AZ</tspan>
        </text>
        <text id="NV_label" x="262.47" y="370.64" style="font-size: 19.2455px; stroke-width: 1.60379; display: none;">
          <tspan id="NV_tspan" x="262.47" y="370.64" fill="#000000" dy="0" font-family="Arial" font-size="24.06" font-style="normal" font-weight="400" style="text-align: center; stroke-width: 2.57215; fill: rgb(0, 0, 0);" text-anchor="middle">NV</tspan>
        </text>
        <text id="OR_label" x="214.43" y="206.88" style="font-size: 19.2455px; stroke-width: 1.60379; display: none;">
          <tspan id="OR_tspan" x="214.43" y="206.88" fill="#000000" dy="0" font-family="Arial" font-size="24.06" font-style="normal" font-weight="400" style="text-align: center; stroke-width: 2.57215; fill: rgb(0, 0, 0);" text-anchor="middle">OR</tspan>
        </text>
        <text id="WA_label" x="238.05" y="102.99" style="font-size: 19.2455px; stroke-width: 1.60379; display: none;">
          <tspan id="WA_tspan" x="238.05" y="102.99" fill="#000000" dy="0" font-family="Arial" font-size="24.06" font-style="normal" font-weight="400" style="text-align: center; stroke-width: 2.57215; fill: rgb(0, 0, 0);" text-anchor="middle">WA</tspan>
        </text>
        <text id="CA_label" x="191.69" y="434.8" style="font-size: 19.2455px; stroke-width: 1.60379; display: none;">
          <tspan id="CA_tspan" x="191.69" y="434.8" fill="#000000" dy="0" font-family="Arial" font-size="24.06" font-style="normal" font-weight="400" style="text-align: center; stroke-width: 2.57215; fill: rgb(0, 0, 0);" text-anchor="middle">CA</tspan>
        </text>
        <text id="DC_label" x="1309.32" y="398.19" stroke-width="1.29" font-size="15.45" style="display: none;">
          <tspan id="DC_tspan" x="1309.32" y="398.19" fill="#000000" stroke-width="1.29" dy="0" font-family="Arial" font-size="19.31" font-style="normal" font-weight="400" style="text-align: center; fill: rgb(0, 0, 0);" text-anchor="middle">DC</tspan>
        </text>
        <text id="TN_label" x="1018.93" y="485.72" style="font-size: 19.2455px; stroke-width: 1.60379; display: none;">
          <tspan id="TN_tspan" x="1018.93" y="485.72" fill="#000000" dy="0" font-family="Arial" font-size="24.06" font-style="normal" font-weight="400" style="text-align: center; stroke-width: 2.57215; fill: rgb(0, 0, 0);" text-anchor="middle">TN</tspan>
        </text>
        <text id="AR_label" x="863.15" y="535.77" style="font-size: 19.2455px; stroke-width: 1.60379; display: none;">
          <tspan id="AR_tspan" x="863.15" y="535.77" fill="#000000" dy="0" font-family="Arial" font-size="24.06" font-style="normal" font-weight="400" style="text-align: center; stroke-width: 2.57215; fill: rgb(0, 0, 0);" text-anchor="middle">AR</tspan>
        </text>
      </g>
      <g id="state_borders" transform="translate(-0.04777967,-0.15336683)" stroke="rgb(209, 219, 221)" style="stroke: rgb(0, 0, 0);" stroke-width="0.3">
        <path id="MO_NE_border" d="m769.94 349.15-.17.24.48 1.63 1.42-.16v-.88l.54-.22.5.76-.2.67-.87.42.2 1.13.89.82-.04.83.47.9.07.55.4.5.08.6-.74.5.3.43.8-.31 1.4.65.07.93.9.35.92.15.22.47-.24.87.17.59.98.69.17.64.79.34.15.47-.37.64-.22 1.06.23.63.76.32.86-.1.86.56.1.28" stroke="rgb(209, 219, 221)" stroke-width="0.3" fill="none" style="stroke: rgb(0, 0, 0); display: none;"/>
        <path id="MO_IL_border" d="m873.37 347.97-.57.54-.34.7-.53 2.09.12.58-.3.78.15 1.2-.16.57.24 1.66.7 2.18-.06.67 1.37 2.32.7.79.08.56-.48.73-.05.5.54 1.23 1.32.73.47.78-.03 1.69.45.5 2 1.37.94 1.06 1.4.64.3.34.25.9.54.54 1.17.12 1 1.3.12.64.66.76 1.16.68 1.13.4.39.44 1.06.69 1.37.7 1.22.87 1.15 1.28.63.4.37 1.15.38 1.82.69 1.13.18.9-.63 1.08.07.33.98 1.65.14.93.49 1.13 1 1.06 1.07.5.93-.3.79-.95.42-.8.24-1.05.48-.35 1.69.2 1.89.8 1.42-.01.7.3.7.58.78.26 1.4.72.12.35-.2 1.28-.95.92-.32.86-.47.5-.1.69.87 1.39.22 1.13-.2.97-.7.85-.72 1.56-.5 3.32-1.16 1.69-.36 1.78.1 1.3.4 1.4.33.7.88.94.8.27.43.36.94 1.32.67.52 1.22.67.3-.21.72.32.2.66.87.64h.9l1.66 1.45 1.3-.35.33.67-.65.32-.27.7.66 1.07.75.3.53-.02 1.27-1.3 1.2.64.02.4.5.38 1.05.14 1.03.85.86.43.3.42-.1.86.5.39.78-.22.97 1.04 1.46.3.38.37.03 1.42 1.12 1.22.08.4-.95.16-.05.77.23.77 1.36 2.05 1.06 1.15.4.9v1.3l-.14.4-1.3.57-.43.7-.07.82.8 1 .76-.06-.07.92.23.68.83 1.43.6.8.85.58.27.53-.14.92.24.55 1.62.66.7.58.62-.22.15-.61-.6-.6-.61-.2-.25-.77 1.2.03.1-.26.64 1.02.98.7.28 1 .58.23.9-.5" stroke="rgb(209, 219, 221)" stroke-width="0.3" fill="none" style="stroke: rgb(0, 0, 0); display: none;"/>
      </g>
      <rect id="selection-rectangle" fill="#ffffccaa" stroke="rgb(209, 219, 221)" stroke-width="0.1"/>
      <ellipse id="selection-ellipse" fill="#ffffccaa" stroke="rgb(209, 219, 221)" stroke-width="0.1"/>
      <polygon id="selection-polygon" fill="#ffffccaa" stroke="rgb(209, 219, 221)" stroke-width="0.1"/>
      <polyline id="selection-polyline" fill="#ffffccaa" stroke="rgb(209, 219, 221)" stroke-width="0.1"/>
    </svg>
  </g>
</svg>
