<?xml version='1.0' encoding='UTF-8'?>
<svg xmlns="http://www.w3.org/2000/svg" xmlns:dc="http://purl.org/dc/elements/1.1/" xmlns:ns2="http://creativecommons.org/ns#" xmlns:rdf="http://www.w3.org/1999/02/22-rdf-syntax-ns#" id="wrapper" viewBox="0 0 1520 840" preserveAspectRatio="xMinYMin" height="840" width="1520" style="background-color: rgb(255, 255, 255);">
  <metadata>
    <rdf:rdf>
      <ns2:work rdf:about="">
        <dc:format>image/svg+xml</dc:format>
        <dc:type rdf:resource="http://purl.org/dc/dcmitype/StillImage"/>
        <dc:title>MapChart Map</dc:title>
        <dc:creator>
          <ns2:agent>
            <dc:title>MapChart.net</dc:title>
          </ns2:agent>
        </dc:creator>
        <ns2:license rdf:resource="http://creativecommons.org/licenses/by-sa/4.0/"/>
        <dc:description>This map was created with MapChart.net, a website for creating custom maps.</dc:description>
      </ns2:work>
      <ns2:license rdf:about="http://creativecommons.org/licenses/by-sa/4.0/">
        <ns2:permits rdf:resource="http://creativecommons.org/ns#Reproduction"/>
        <ns2:permits rdf:resource="http://creativecommons.org/ns#Distribution"/>
        <ns2:requires rdf:resource="http://creativecommons.org/ns#Notice"/>
        <ns2:requires rdf:resource="http://creativecommons.org/ns#Attribution"/>
        <ns2:requires rdf:resource="http://creativecommons.org/ns#ShareAlike"/>
      </ns2:license>
    </rdf:rdf>
  </metadata>
  <g id="map-group" transform="translate(-1458.2094610021718,-255.27509278876028) scale(4.871763012993082)">
    <svg id="map" width="1520" height="840" version="1.1" viewBox="0 0 1520 840" preserveAspectRatio="xMinYMin" data-originalStrokeWidth="0.3">
      <defs>
        <pattern id="circles3" width="10" height="10" patternUnits="userSpaceOnUse">    <rect width="10" height="10" fill="#fff"/>    <circle cx="4" cy="4" r="2" fill="#000"/>    </pattern>
        <pattern id="diagonal1" width="10" height="10" patternUnits="userSpaceOnUse">    <rect width="10" height="10" fill="#fff"/>    </pattern>
        <pattern id="diagonal3" width="10" height="10" patternUnits="userSpaceOnUse">    <rect width="10" height="10" fill="#fff"/>    </pattern>
        <pattern id="vertical1" width="10" height="10" patternUnits="userSpaceOnUse">    <rect width="10" height="10" fill="#fff"/>    <rect x="2" y="0" width="1" height="10" fill="#000"/>    </pattern>
        <pattern id="vertical3" width="10" height="10" patternUnits="userSpaceOnUse">    <rect width="10" height="10" fill="#fff"/>    <rect x="2" y="0" width="3" height="10" fill="#000"/>    </pattern>
        <pattern id="horizontal1" width="10" height="10" patternUnits="userSpaceOnUse">    <rect width="10" height="10" fill="#fff"/>    <rect x="0" y="2" width="10" height="1" fill="#000"/>    </pattern>
        <pattern id="horizontal3" width="10" height="10" patternUnits="userSpaceOnUse">    <rect width="10" height="10" fill="#fff"/>    <rect x="0" y="2" width="10" height="3" fill="#000"/>    </pattern>
        <pattern id="crosshatch" width="8" height="8" patternUnits="userSpaceOnUse">    <rect width="8" height="8" fill="#fff"/>    </pattern>
        <pattern id="subtlepatch" width="5" height="5" patternUnits="userSpaceOnUse">    <rect width="5" height="5" fill="#fff"/>    <rect x="2" y="2" width="1" height="1" fill="#000"/>    </pattern>
        <pattern id="checkers" width="8" height="8" patternUnits="userSpaceOnUse">    <rect width="8" height="8" fill="#fff"/>    </pattern>
        <pattern id="raindrops" width="10" height="10" patternUnits="userSpaceOnUse">    <rect width="10" height="10" fill="#fff"/>    </pattern>
        <pattern id="texture" width="4" height="4" patternUnits="userSpaceOnUse">    <rect width="4" height="4" fill="#fff"/>    </pattern>
        <pattern id="circles3_a03500_000000" width="10" height="10" patternUnits="userSpaceOnUse">    <rect width="10" height="10" fill="#a03500"/>    <circle cx="4" cy="4" r="2" fill="#000000"/>    </pattern>
        <pattern id="diagonal1_d9b400_535353" width="10" height="10" patternUnits="userSpaceOnUse">    <rect width="10" height="10" fill="#d9b400"/>    </pattern>
        <pattern id="diagonal3_3264c8_ffffff" width="10" height="10" patternUnits="userSpaceOnUse">    <rect width="10" height="10" fill="#3264c8"/>    </pattern>
        <pattern id="horizontal1_72b38e_000000" width="10" height="10" patternUnits="userSpaceOnUse">    <rect width="10" height="10" fill="#72b38e"/>    <rect x="0" y="2" width="10" height="1" fill="#000000"/>    </pattern>
        <pattern id="horizontal3_986ba1_ffffff" width="10" height="10" patternUnits="userSpaceOnUse">    <rect width="10" height="10" fill="#986ba1"/>    <rect x="0" y="2" width="10" height="3" fill="#ffffff"/>    </pattern>
        <pattern id="vertical1_b9a087_ffffff" width="10" height="10" patternUnits="userSpaceOnUse">    <rect width="10" height="10" fill="#b9a087"/>    <rect x="2" y="0" width="1" height="10" fill="#ffffff"/>    </pattern>
        <pattern id="vertical3_4c91bf_ffff33" width="10" height="10" patternUnits="userSpaceOnUse">    <rect width="10" height="10" fill="#4c91bf"/>    <rect x="2" y="0" width="3" height="10" fill="#ffff33"/>    </pattern>
        <pattern id="checkers_cc3333_f7f7f7" width="8" height="8" patternUnits="userSpaceOnUse">    <rect width="8" height="8" fill="#cc3333"/>    </pattern>
        <pattern id="texture_d1dbdd_525252" width="4" height="4" patternUnits="userSpaceOnUse">    <rect width="4" height="4" fill="#d1dbdd"/>    </pattern>
        <style id="map-style">svg { background-color: #ffffff; }</style>
      </defs>
      <path id="MT01" d="m332.95 61.04 13.54 2.2 3.84.61 3.15.48 6.14.9 8.24 1.19 6.07.95 3.38.48 4.37.64 2.32.3 1.12.15 5.97.8 6.57.86 3.41.44 7.62.96 4.16.5-.3 2.62.07.02-1.3 10.74h.1l-.35 2.76-.46-.04-.14-.17-.3-.04.03.41-.17.41-.3.15v.11l-.36.02-.17.1.2.19-.14.28h-.19l-.11.24-.26.11-.03.14-.32.18-.09-.2-.04.22-.1-.13-.05.36h-.33l-.18.64.02.16-.27.17.14.21 4.02.5-.01.24.45.17-.01.1.45.07-.1.66.25.12-.1.12.91.12-.18.14-.2 1.63.4.37.46.18-.03.25.12.2-.27-.25-.49-.21-.09.05-.12-.36-.26-.27-.16.06-.55-.16-.14-.15-.4.1-.2-.03-.3.42-.5-.04-.44.29-.31.07-.18.2-.27.1-.22-.07-.25.24-.14-.17-.36.22-.07.73.15.4-.1.18-.12.8-2.28-.3-2.72-.36-2.28-.31-4.55-.6v.03l-1.36-.17v.05l-2.31-.3.31.45-.22.07.03.21-.11.05v.24l.28.35-.12.44.4.03.06.16.43.34-.02.16-.3.14-.07.28.07.33.24-.1.4.25h.17l.2.34v.28l.11.8.1.32-.3-.06-.2.34-.14.05-.2.48-.83-.04-.09-.23-.5-.2-.4.31-.33.04-.24.42-.87-.05-.53.15-.02.23-.15.1-.04.34.59.4-.1.27.15.21-.11.4-.02.48-.18.1-.11.28.13.24-.08.25.06.19-.17.2.06.42-.15.35-.36.06-.06.13v.57l-.3.17-.6-.02-.32-.18-.41.39-.22.04-.06.31.07.36v.4l.15.3.01.34.18.43.13.09-.04.46-.12.21-.27.03-.03.37.14.17-.27.38.03.46.21.2.04.38.17.19-.03.3-.16.07v.4l-.1.08.02.57-.06.26.11.25-.08.29.04.28.45.36.26-.13.37.15.1-.19-1.25 9.6.2.11 5.4.7-.32 2.63-.35 2.69-.37 2.94-.32 2.5 2.73.35.02-.09 2.84.36-.51 4.2 2.68.33-.16 1.36 1.94.23.07.36.12.12v.27l.17.26-.05.35.08.3-.18.18-.01.23-.16.1-.27.39.1.25v.54l.22.62-.09.14.05.27-.2.02-.1.2.01.63-.18.27.07.13-.1.84-.37.15-.08.32.16.5-.59.38-.33.54-.13.03-.41-.14-.25.08-.37-.16-.35.27.04.19-.25.04-.05.36-.25.16h-.33v.5l-.13.15-.23-.03-.12-.38-.57-.11-.17.35-.18-.1-.23.05-.19-.18-.62.8-.3.03-.08.25.18.29.07.36-.05.3-.38.59-.19.16-.34.05-.04.33.3.27.1.31-.23.38.06.28-.03.33.41.17.1-.1.15.15.32-.11.15-.14.43.11-.32.51.06.27-.07.29-.17.34.08.4.25.13-.03.27.25.2.15.23.3.28-.14.32.17.22-.42.7.09.15-.04.27h.21l.34.23.15.66-.18.13-.08.38.02.92.15.33-.1.16.04.25-.14.12.06.36.26.17-.11.45.2.38.08.36-.18.13-.03.26-.35.32-.14.3.02.22.26.35.4.27 2.16 1.37.12.15.21.01.12.18.07.34.18.18.4.04.23.2h.19l.47.61h.47l.21-.18.08.06.5-.46v-.31l.67-.7-.13-.21.17-.54.22-.32.23.1.25-.36.12.1.24-.11.28.12.44-.2h.32l.32.14-.01.16.48.19.52-.15.1.12.18-.17.17.12.2-.04.26.2v.18l.17.16-.12.22.16.14.5-.03.2.44.65-.03.19.06.26.25.3.15.07.45.35.12.68-.28.58.42h.5l.17-.15.23-.41.22-.2.45-.16-.06-.17.19-.02.04-.27.14-.22.22.14.14-.47.2.06.1-.22.28-.23.1-.34.4-.35.14-.19.46-.03.2-.14.2.18.18-.29.19.06v-.18h.2l.69-.22.05-.15.53-.34.2-.35.1-.82.17-.26.27.3.43-.06.2-.24-.06-.44-.16-.18.18-.17v-.46l.09-.63.47-.7.35-.22-.12-.4.11-.1.17.19.18-.27.68-.23.1-.45.18-1.57 4.07.45v-.16l2.74.3 5.44.6-.18 1.59-.15-.02-.3 2.97-.14.9-.1.92-.03.88-.07.92-.2 1.83-.3 2.7h-.14l-.34 3.15-.3 2.96-1.37-.15-.25 2.07-1.32-.16-.3 2.7h.04l-.3 2.74-2.64-.28-.62 5.47-.17-.02-.26 2.38v.23l-.3 2.9-.22-.02-.32 2.94-.17 1.57-.19 1.76-.24 2.34-.16 1.48-.07.81-.02.05-.1 1.11-.2 1.63-.27 2.69-.27-.02-.1-.13-.68-.26-.14.01-.14-.23-.34-.23-.11-.54.2-.48-.18-.13h-.23l-.14-.37-.34-.13-.12-.19.05-.45-.3-.17-.15-.1-.57-.09-.07-.26.03-.09.02-.29-.15-.57.53-.2-.19-.27-.27-.41-.14-.08-.05-.23-.43.09-.12-.28.3-.36-.2-.28-.03-.18-.38-.37.07-.33-.53-.58-.01-.34-.28-.14-.26.2-.19-.14-.3-.68-.1-.08-.32-.06-.2.57.03.2-.44.49-.2-.12-.14-.23-.25-.02-.68.25-.19.07-.22.03.02.3.07.13-.06.14.33.32-.2.17.09.18-.48.5-.03.22-.23-.17-.09.1-.23-.03.24.56-.36.19-.23.46.12.1-.13.13.07.45.35.39-.22.2.06.12.39.1.18.17.26-.05-.04.57-.25-.11-.44-.05-.21.17-.15-.03-.15-.38-.34-.14-.17-.2-.22.05-.53-.24-.05-.07-.71.34-.04-.05-.08-.02-.58-.2-.3.02-.48-.34-.18.17-.3-.16-.3.48-.5-.04-.3.08-.21.17-.12.23-.17-.18-.23.2-.45-.13-.19.17-.08.25-.25.06-.15-.35-.24-.27-.1-.42-.3-.4-.01-.38-.36.06-.15-.17-.34.22-.98-.13-.1.21h-.23l-.37.37-.64-.12-.59-.35-.06.14v.4l-.49-.3-.3-.05-.59.18-.06.2-.25.02-.05-.1-.36-.2-.07-.28-.31-.08-.07.07-.07-.07-.18-.08-.1-.05-.45.22-.37-.24-.43-.18-.15-.24.05-.45-.56-.3-.25.14h-.13l-.27-.13-.18.1-.09.1-.06.07-.12-.03-.06.04-.19.14-.08.35-.2.06-.7.01-.13.2-.08 1.1-.02.1-.02.07-.04.12-.06-.02-.04.05v.07l-.04.02-.02.14-.02.1-.06.13v.05l-.05-.02-.04.05-.05.07-.01.04-.11.12-.04.05-.06.04-.02.03-.04.03-.05.06-.04.08-.04-.03-.04-.08-.08-.07h-.05l-.05-.04-.05-.1-.1-.02-.04-.03-.11.05-.08.05-.05-.01h-.07l-.03-.05h-.07l-.04.03-.06-.02-.01-.03h-.07v-.06l.02-.11-.02-.07-.1-.09-.05-.04.03-.03-.05-.01-.05-.04h-.07l-.15.01v-.1l.03-.02-.02-.04-.07-.08-.01-.05h-.1l-.1-.12-.08-.05-.06.04-.03.05-.06.05-.09-.01-.01.04-.03.08-.05-.01h-.1l-.08.07-.05-.01-.03.07-.03.03-.03.05-.07-.05h-.05l-.09-.06-.03-.03.03-.08-.01-.03v-.12l-.03-.04-.07-.06-.05.03-.1-.05-.03-.03-.05.02-.09-.07-.08-.01-.07-.14-.06-.04-.03-.02-.1.02-.03-.06-.07.02-.05-.02-.1.04-.14-.03-.1-.01-.1.04h-.05l-.05.02v-.01l-.09-.06-.06.03-.08-.11-.07-.07-.02-.04-.05-.04h-.02l-.02-.03-.07-.06h-.1l-.08.03-.18.03-.08.03-.1.07h-.1v-.11l.02-.05-.04-.06-.05-.05-.07.02h-.18l-.07.03-.2.03-.02-.02-.09.02-.07-.01-.04-.05-.04-.06-.07-.07-.04-.03-.12-.03-.09-.01-.07-.05-.02-.06-.01-.1-.1-.06h-.06l-.05-.01-.11-.07-.05-.04-.18-.04-.07-.04h-.06l-.06.03h-.1l-.14.06-.04.02v.02l-.09.15-.08.1-.02.04h-.05l-.13-.07-.05.01-.06.03h-.18l-.05.03-.08.03-.06.04h-.03l-.19-.06-.01.08-.08.06-.06.05-.32.34v.16l-.26.22h-.16l-.11.17-.22.14-.04.16.02.14-.32.2.32.6.01.2.23.08-.13.13-.02.51-.07.07-.18.2-.54.28-.23-.1-.15-.33-.36-.34-.01-.52.06-.14-.1-.19-.31.18-.26-.14-.13-.29-.36-.1-.28-.2-.02-.18-.24-.04-.32-.37-.15-.33-.26-.23-.1-.46.08-.22-.26-.45-.1-.4.26-.21.07-.4.25-.07v-.2l-.24-.19-.15-.27-.27-.06-.17-.29.09-.24.2-.14-.03-.2-.56-.44.13-.21-.34-.4-.18-.1.44-.45.43-.14.1-.2v-.27l-.25-.42v-.04l.03-.14-.05-.47.07-.3-.3-.19.05-.25-.25-.13-.05-.22-.08-.2.02-.04.01-.18.03-.08h.04l-.01-.1-.02-.06.01-.11.02-.12-.03-.01-.05-.05-.1-.04-.03-.05-.07.03-.05-.02v-.06l.03-.03v-.18l-.03-.07-.02-.08-.06-.1-.05-.04h-.08l-.07-.06-.04-.06.02-.12-.04-.04v-.07l.06-.07.09-.07v-.14l.04-.08v-.01l-.05-.05-.06-.03-.04-.05-.07-.04h-.11l-.07-.08v-.02l-.1-.02-.07-.05h-.04l-.04.03-.05.03-.07-.09h-.02l-.08-.13-.05-.02-.1-.08-.26-.51-.3-.28-.61-.22-.19-.3-.11.02-.13.03-.28.13h-.06l-.16.05-.26.13-.02.03-.35.18-.22.06-.32.18-.29.1-.1-.08-.03-.05-.13-.1-.02-.16.2-.07-.13-.68-.2-.16-.37-.5h-.2l-.33-.17-.28.06-.08-.47-.05-.1-.2-.05-.06-.21-.23-.12-.01-.33-.08-.2.05-.16-.35-.33.2-.43-.11-.09-.25-.43-.1-.55.1-.18.28.04h.23l.15.04.3-.09.1-.04.14-.17-.04-.27.06-.12.03-.32-.02-.09.03-.1.04-.1.02-.12.2-.42-.18-.37.1-.41-.17-.22.18-.2-.01-.38-.16-.22-.38.05-.17-.07v-.15l-.05-.11.06-.1-.14-.17-.12-.07-.14-.08-.06-.02-.12-.08-.15-.22.2-.14.25-.31-.05-.15-.01-.1-.45-.1-.15.11-.28-.05-.08-.18-.32-.24-.13-.23.2-.27.08-.14.04-.05v-.1l-.37-.05-.07-.14-.08-.06v-.45l.04-.05.01-.05.05-.05v-.25l-.1-.09v-.1l-.51-.65-.26-.22.01-.14-.18-.3-.02-.29-.3-.44-.3-.13-.21-.48.1-.28.14.03.11-.09-.15-.33-.26-.24-.17-.3-.11-.52-.22-.13-.17-.33.04-.5.28-.3-.16-.42.16-.13.05-.32v-.17l-.28-.48-.58-.24.04-.11-.01-.15.41-.28-.33-.3.1-.36-.18-.28.2-.18.04-.3.4-.26-.03-.6-.1-.44.17-.22-.78-.2-.19.08-.29-.08h-.22l.06-.16.13-.22v-.03l-.03-.1.35-.58-.05-.29.38-.33.22-.08-.11-.66-.39-.42-.18.07-.2-.1-.07-.25-.3-.17-.58.13-.3-.17-.05-.06.03-.05.12-.1-.03-.3.18-.17-.22-.32-.24-.19v-.19l-.19-.33v-.67l-.06-.05-.35.1-.32-.05-.02-.38h-.19l-.12-.08-.04-.07-.06.03-.08.05-.07.18-.52.08.06.28-.34.23.18.2.07.37-.22.3-.28-.03-.44.41-.36.1-.2.38-.18.08-.08.47-.13.15-.45.12-.34-.03-.24.25v.33l-.2.24-.32-.07-.08.14-.6-.03-.24.3-.03.07-.33.04-.47-.4-.44-.03-.1.23.03.4-.3.4-.08.37-.26.22-.03.2-.25.11-.27-.03-.33.23-.09.04-.06-.04-.16.1-.26.11v.05l-.1.02-.12-.03-.09-.01-.11-.38-.2-.17-.07-.55-.15-.08-.27-.32-.13-.04-.12-.06-.47-.2-.1-.29.03-.37-.11-.04-.02-.16-.33-.34-.2-.04.09-.29.16-.18-.21-.03-.1-.15-.15.07-.12.02-.05-.03-.14.1h-.05l-.2-.04-.28-.37-.1-.03-.1-.08-.15.14-.36.08-.1.12-.17-.09-.1-.02.36-.5-.11-.26.31-.44.24-.17-.1-.35-.17-.1-.16-.43.1-.26h.4l.1-.25.24-.03.12.13.37-.21.23-.32.03-.44-.3-.12.34-.23.18-.3-.12-.43.02-.05-.01-.07v-.03l-.06-.06-.1-.08-.05-.08-.09.02h-.05l-.04-.03-.07-.03-.02-.03v-.1l-.06-.09v-.02l-.04-.05-.02-.07-.02-.02-.07-.05-.13-.1-.03-.02.01-.05.05-.04v-.12l-.01-.06.04-.07v-.05l.05-.05v-.05l-.13-.16h-.06l-.07-.04-.03-.05-.03-.11-.05-.05-.04-.08.03-.05.03-.04.02-.06.04-.07.13-.07.04-.1.14-.04.08-.05.05.02v-.14l.01-.1.04-.02.05-.02.08-.1.03-.04.01-.04.11-.08.05-.04.03-.1-.04-.08.04-.1.11-.03.02-.04.07-.03.02-.03.1-.02.05-.03.07-.05.04-.04-.03-.02-.07-.07-.02-.07.02-.05.06-.1v-.03l.1-.06-.01-.02.06-.07h.14l.01-.04.08-.06.03-.02.08.04h.12l.06-.04h.04l.07.06v.03l.12.11.07-.03.07-.1h.1l.03-.03.06-.06.1.02h.04l.06-.03.11-.08.02-.05.06-.02h.17l.03.04.08.04.07.07.05.02.03.07.07.03.04.07.05.03.14.06.04-.1.04-.12.04-.06v-.11l.06-.07-.03-.06.02-.06.05-.03h.04l.05.05h.05l.04-.03.01-.07.05-.05.03-.03.01-.06.07-.04.06-.1.02-.16-.02-.11h-.08l-.02-.02.03-.1-.04-.06-.02-.12-.05-.03-.03-.02-.07-.05-.02-.02-.05-.09-.03-.06-.07-.1v-.08l-.02-.14.05-.1-.06-.1-.02-.05-.07-.06-.04-.07-.01-.08-.05-.05-.05-.1v-.05l.13-.06.03-.04.01-.07.1-.02v-.03l.05-.04.1-.02.02-.02.02-.05.06-.07.04.02.05-.04.07-.05.06-.03v-.13l.04-.06h-.02l-.03-.09v-.03l-.03-.1-.05-.04-.04-.09v-.12l-.04-.05-.05-.06-.1-.03-.06-.1-.05-.05-.02-.04-.09-.02-.05-.04h-.05l-.04-.02h-.07l-.13-.01-.03-.07-.05-.02v-.03l-.03-.06v-.03l-.04-.13-.14-.01-.05.02-.06.03-.07.05-.09.02-.1-.04-.02-.04-.07-.07-.03-.19v-.07l.08-.12.07.01.08-.05.05-.02.07-.04.02-.05v-.11l-.03-.1v-.04l-.02-.1-.02-.04-.02-.13-.08-.02h-.06l-.06.06-.18-.02-.15-.08-.05-.05v-.02l.06-.07-.02-.06.01-.08.05-.04.02-.05h.04l.07.02.05-.02v-.03l.04-.05.08-.14v-.09h.04l.18-.04h.08l.12-.06.03-.07.03-.01.08-.03.03-.03.05-.1-.04-.03-.07-.08.05-.1v-.15h.02l.07.03.13-.02v-.05l.02-.1.06-.13v-.1l.04-.1v-.16l-.08-.1v-.03l-.06-.1-.04-.01-.03-.1-.03-.1.02-.05-.14-.02-.08-.03h-.1l-.04-.02-.08-.13-.06-.03-.01-.02-.09-.03-.04.02-.05-.05-.1-.04-.02-.06-.1-.05-.06-.06v-.05l.08-.14.04-.13-.05-.02h-.02v-.06l-.1-.25.05-.07.06-.03.05-.05.05-.04.11-.01.02-.04-.02-.05.01-.09.03-.05-.02-.04.01-.05.02-.1.01-.04.06.05.1.08h.1l.1-.06h.09l.1.02.1.08.02.08.1.09h.07l.11-.07.05-.04h.08l.03-.07.15-.06.03.02.06.07h.06l.1.04.03-.07-.02-.14.02-.07.02-.07.01-.09v-.06l.04-.12v-.1l.04-.06v-.09l.02-.12.02-.04.01-.07-.07-.15-.04-.11-.02-.08v-.07l.07-.02.09-.1-.01-.17.02-.16-.02-.14v-.07l-.03-.09v-.04l-.12-.11-.17-.15-.02-.02.03-.06.05-.05-.04-.16v-.14l-.03-.07v-.06l.03-.08.06-.07.03-.05.04-.04.06.02.19.1.19-.02.08-.04.05-.04.1-.01.06-.06.06-.08.06-.05.02-.07.06-.07-.05-.11-.01-.24v-.03l-.03-.04v-.04l.02-.08-.02-.04.04-.05.02-.1.06-.08.06-.07.03-.05.04-.1.06-.1.04-.08.02-.11.1-.03.06-.1h.01l.02-.13.05-.2v-.06l.03-.07.03-.02.02-.13v-.09l.04-.08v-.08l.04-.05-.05-.09-.05-.18v-.1l-.04-.14.01-.07-.04-.04v-.1l.09-.09.06-.05.02-.02.08-.05.07-.03v-.09l.06-.05h.07l.07.01.04-.04v-.07l.06-.02.1-.1h.15l.05-.03.03-.07.02-.1v-.04l.02-.11v-.2l.07-.12.09-.07.23-.02.01-.04-.05-.07v-.1l-.05-.01-.07-.02-.02-.04-.1-.06v-.07l.04-.1.05-.05.07-.22-.06-.09v-.1l-.12-.08-.12-.06v-.12l-.06-.09-.03-.1.02-.2.02-.1-.02-.13v-.05l.02-.13.04-.07.06-.03h.06l.06-.03.14.01.1-.02.07.06.08.06.15-.04.03-.05.13.01.05.03h.04l.07-.04.07-.02.04-.07h.06l.04-.15.1-.07.03-.06v-.1l-.08-.1-.02-.03v-.1l.01-.05v-.07l.05-.03.04-.07.02-.06.02-.12.01-.1v-.06l-.03-.1v-.03l.12-.07.03-.08.07-.12.02-.06.04-.07.06-.05.07-.1.04-.03.05-.1v-.05l-.07-.06-.04-.11-.03-.04-.03-.12-.03-.04-.06-.06.07-.07h.08l.05-.02.09-.1.06-.06.02-.1.01-.06h.03l.06-.08.08-.09.02-.03-.02-.04-.04-.06v-.06l-.01-.01v-.1l.07-.06.01-.03.07-.09v-.06l.02-.05v-.14l.04-.09.03-.04-.03-.08v-.08l.06-.1v-.08l-.05-.05v-.09l-.05-.04-.02-.03-.04-.14-.12-.11h-.12l-.1-.03-.07-.03-.08-.06-.06-.15.02-.07-.05.04-.07.02h-.08l-.38.13-.24-.1-.4.2-.26-.18-.68.3v.22l-.37.24-.29-.03-.34-.23-.55-.2-.34-.34-.12.14-.38.09-.14-.1-.24.21-.07.06-.2-.03-.16-.12-.28-.1.08-.28-.16-.36-.22-.07-.12-.16-.02-.07.16-.1-.14-.09v-.24l.43-.3.15-.5-.08-.16-.38-.4v-.27l-.43-.3-.25-.03-.22.03-.17-.15-.12.3-.14.08-.08.29-.17.1-.5-.01-.33.42-.3-.04-.01-.24-.3-.15-.08-.22.15-.14.03-.21.37-.35.14-.58-.15-.26-.2-.14-.03-.38-.13.1-.17-.01-.16-.22-.2.01-.24-.12-.1-.3-.14-.05-.3-.42-.08-.3-.47.09-.22.2-.03-.22.13-.23-.07-.2-.45-.2-.07-.39-.02-.15.04-.03.02-.18-.01-.13-.3-.1-.1-.15.13-.22.3-.2.06-.19-.06-.47.2-.39.2-.05-.07-.23-.15-.03-.18-.17-.37-.24.06-.1-.22-.2-.29-.41.04-.12-.27-.46.02-.14-.58-.22-.08.13-.39-.05v-.05l.05-.25-.2-.37-.12-.13.08-.15-.09-.44.06-.3-.17-.24-.05-.5-.39-.15-.21-.4-.06-.1.01-.08-.1-.03-.05-.05-.06-.15-.02-.13-.04-.05-.04-.07.01-.15-.02-.07v-.08l.01-.12.03-.05v-.03l.05-.04-.02-.07-.04-.05v-.06h-.03l-.04-.04-.06.04-.07-.02-.06-.04-.05-.02-.04.02-.05-.03-.2-.15v-.1l.02-.07-.02-.02-.05-.09-.02-.06v-.1l-.1-.05v-.05l-.03-.07v-.08l.02-.07-.07-.06-.05-.06-.02-.06-.08-.09v-.08h-.1l-.01-.04h-.05l-.08-.06-.04-.01-.03-.04-.02-.04-.02-.07-.05-.05-.05-.06h-.09l-.35-.11-.07-.15v-.13l-.1-.14V120l-.08-.21-.16-.04-.07-.04h-.11l-.1-.06-.09-.02-.02-.03-.05-.08-.09-.01-.07-.05-.04-.03.03-.07v-.08l.04-.07.03-.08.08-.2.12-.1.02-.06-.05-.11v-.07l.01-.11-.04-.07-.01-.11-.07-.03-.02-.05-.07-.07-.09-.02-.2-.55.16-.16-.1-.16-.33-.27h-.32l-.2-.01-.4-.29-.56.03-.19-.25-.06-.3h-.23l-.04.02-.39-.05-.17-.32-.06.04-.06.05-.23.04-.09-.16-.02-.06-.37-.18-.23-.22-.06-.03-.13-.05v-.1l.04-.04v-.1l.02-.06-.03-.03-.05-.16-.13-.35.08-.1-.22-.2.1-.4-.15-.26-.1.05h-.05l-.05-.02-.03-.06-.16-.13.01-.31-.3-.17-.05-.03-.1-.18-.3-.23-.44.03-.13.05-.03-.32-.29-.53-.3-.03.08-.21-.43-.27-.13-.02-.19-.04-.13-.34-.38-.08-.39.05-.04-.07.34-.5.34-.02.34-.2.36.04.12-.03.09-.07.3.18.42.03.38-.11.32-.6-.1-.06-.29.06-.29-.03-.1-.36-.12.05h-.28l-.04-.54-.16-.16-.09-.19-.08-.24.02-.13.36-.09-.1-.22-.21.02-.38-.17-.42-.25-.03-.3.22-.17.14-.16.37-.15.1-.19.34.02.05-.22.42-.27-.15-.3v-.21l.17-.18-.02-.21-.23-.38-.45-.32-.05-.42.3-.52v-.27l.18-.4-.12-.33-.4-.45-.22-.04-.22-.03-.16-.42.12-.37-.27-.53-.46.02-.11.04-.2-.32.06-.25-.2-.55.07-.2.03-.53.08-.14-.07-.43-.35-.3-.16-.47-.45.13-.13-.34-.18-.16-.27-.8-.39-.6-.16-.05.08-.24-.03-.24-.26-.1.01-.1-.04-.12-.15-.14-.04-.4-.16-.15.01-.1.01-.13-.17-.42-.1-.13-.07-.1-.17-.11H328l-.07-.1-.06-.05-.04-.07.46-2.76.04-.25.06-.4v-.01l.01-.05.15-.9.1-.65.38-2.33.1-.64.44-2.67.17-1.03.15-.85.13-.88.14-.84.66-4.09.07-.43.11-.71.02-.05.02-.15.01-.14.07-.36.06-.39.11-.71.04-.18.12-.74.06-.36.25-1.54.18-1.14.06-.36v-.1l.53-3.17.25-1.57.02-.2.16-.86" fill="#d1dbdd" stroke="rgb(209, 219, 221)" stroke-width="0.1" data-originalStrokeWidth="0.1" style="stroke: rgb(0, 0, 0); fill: rgb(209, 219, 221); pointer-events: auto; stroke-width: 0.1;" pointer-events="auto"/>
      <path id="MT02" d="m582.8 85.8-.01.34-.07 1.73-.02.45v.55l-.06.86.01.26-.02.15v.41l-.05 1.7-.06 1.3v.22l-.04 1.18-.08 2.25v.43l-.1 2.51-.12 4.26-.06 1.89-.02 1.02-.02.5v.28l-.04.67v.22l-.08 2.27-.03 1.29-.02.28-.02 1.18-.08 2.74v.16l-.03.33-.02.66-.01.99-.02 1.5-.03.9v.33l-.02.11-.05 1.26-.04.57-.04.99-.04.8-.06 1.72-.03.72-.03.82-.06 1.79-.04 1.36-.14 3.54-.05 1.27-.04.95-.04 1.04-.04 1.37-.02.07v.27l-.04 1.42-.03.53-.1 2.7-.02.81-.04 1.16-.01.29-.14 3.14v.49l-.03.77-.15 4.34-.05 1.27-.01.5-.05 1.32v.5l-.05.9-.02.9-.07 2.32-.12 2.78-.08 2.2-.03.83-.02.48-.01.63-.06 1.49-.04 1.15-.03 1.24-.05 1.05-.05.92-.01.83-.1 1.65-.03 1.58-.01 1.28-.07 2.5-.08 3.11-.09 2.4v.3l-.03 1.05-.05 1.34-.1 3.2v.03l-.01.89-.03.92-.04 1.27-.1 3.08-.04.96-.07 2.06-.04 1.4-.09 2.38-.03.76-.05 1.8h-.4l-1.18-.03-4.1-.18-1.58-.06-1.01-.04-1.3-.06-1.14-.04-2.44-.1-.63-.04-.6-.04-2.57-.12-2.22-.11-2.74-.12-.78-.05-.87-.04-2.42-.11-2.54-.12-1.08-.06-.7-.04-.46-.02-.74-.03-2.43-.13-.67-.03-2.3-.14-1.49-.07-.9-.05-2.34-.12-.36.2-1.7-.1-.95-.05-.94-.05-.54-.04-1.55-.09-1.15-.08-.82-.03-3.26-.22-.8-.06-.46-.02-1.95-.13-1.3-.1-3.08-.2-.7-.06-1.23-.08-1.18-.07-1.44-.12-1.3-.08-.23-.02-.6-.05-.5-.03-.24-.03-.95-.16-.62-.05-1.58-.11-1-.09-.34-.02-.45-.04h-.23l-.36-.04h-.12l-.43-.04-2.53-.18-.98-.07-.73-.06-1.03-.05-.77-.06-.93-.06-.58-.05-1.9-.14-2.58-.2-1-.07-2.92-.24-3.13-.22-.41-.02-.05-.02-1.34-.11-1.15-.08-3.36-.27-.45-.07-.68-.05-1.27-.1-.12-.01-1.57-.13-4.48-.37h-.05l-1.05-.08-.33-.04-.9-.08-1.08-.08-.65-.06-.42-.23-1.41-.13-1-.09-.33-.03-1.3-.12-.67-.05-2.1-.18-.82-.06-1.8-.13-.25-.02-.57-.04-1.77-.16-.43-.03-.59-.06-.6-.05-1.02-.1-.47-.03-.46-.08-1-.12-.15-.01-3.16-.32-1.02-.1-1.29-.13-1.36.04h-.38l-.89-.1-1.36-.13-.88-.18-1.82-.18-.86.1-1.36-.1-.25-.04-.77-.07-.28-.02-1.67-.18-.69-.06-.45-.05-.28-.04-1.85-.46-1.36-.16-2.1-.2-2.19-.26.33-2.9-.01-.23.26-2.38.16.03.62-5.47 2.63.27.31-2.73h-.03l.3-2.7 1.31.15.25-2.07 1.37.15.3-2.97.34-3.15.14.01.3-2.7.2-1.83.07-.92.03-.88.1-.93.14-.9.3-2.97.15.03.18-1.6-5.44-.59-2.73-.3-.01.16-4.07-.46-.17 1.58-.11.45-.69.23-.17.26-.17-.18-.1.1.1.4-.34.24-.47.68-.09.63-.01.46-.17.17.16.18.07.44-.21.24-.43.06-.27-.3-.17.26-.1.82-.2.35-.53.34-.06.14-.68.23h-.2v.18l-.2-.06-.17.3-.2-.2-.2.15-.46.03-.14.2-.4.34-.1.34-.27.23-.1.22-.2-.06-.15.47-.22-.14-.14.22-.03.27-.2.02.06.17-.45.15-.22.2-.23.42-.18.14h-.49l-.59-.41-.67.28-.35-.12-.07-.45-.3-.15-.26-.25-.2-.06-.63.03-.21-.44-.5.03-.16-.14.12-.22-.16-.16-.01-.19-.25-.2-.2.05-.18-.12-.18.17-.1-.12-.52.15-.48-.19v-.16l-.31-.14h-.32l-.44.2-.28-.12-.24.1-.12-.09-.25.36-.23-.1-.21.32-.18.54.13.2-.66.7-.01.32-.5.46-.08-.06-.2.2-.48-.02-.48-.6h-.18l-.24-.21-.4-.03-.17-.18-.07-.35-.12-.19h-.2l-.13-.15-2.16-1.38-.4-.27-.26-.34-.02-.23.14-.3.35-.3.03-.27.19-.13-.1-.36-.2-.38.12-.45-.26-.17-.06-.36.14-.12-.05-.25.1-.16-.14-.33-.01-.93.06-.38.2-.13-.16-.65-.34-.23h-.2l.03-.27-.09-.14.42-.71-.17-.22.13-.32-.3-.28-.14-.24-.25-.2.03-.26-.25-.13-.09-.4.18-.33.07-.3-.06-.27.32-.51-.43-.11-.15.14-.32.11-.16-.15-.09.1-.41-.17.03-.34-.07-.28.23-.37-.08-.3-.3-.28.03-.33.34-.05.18-.17.39-.58.05-.3-.07-.36-.18-.28.08-.26.3-.04.63-.8.18.2.23-.07.2.1.15-.34.57.11.12.38.23.03.12-.16v-.48l.34-.01.25-.16.05-.36.24-.05-.03-.18.35-.27.37.16.25-.08.4.14.14-.03.33-.54.6-.39-.18-.49.08-.32.39-.15.09-.84-.07-.13.17-.27v-.65l.1-.18.2-.02-.05-.27.1-.14-.23-.62v-.54l-.1-.25.26-.38.17-.1v-.24l.19-.17-.08-.31.05-.35-.18-.26v-.28l-.11-.11-.07-.36-1.94-.23.16-1.36-2.68-.33.51-4.2-2.84-.36-.02.09-2.73-.36.32-2.5.36-2.93.35-2.69.33-2.62-5.4-.7-.2-.12 1.25-9.6-.1.2-.37-.16-.26.13-.45-.36-.04-.28.08-.3-.1-.24.05-.25-.01-.57.09-.1v-.38l.16-.09.03-.28-.17-.2-.04-.39-.2-.2-.04-.45.26-.38-.13-.18.03-.36.27-.03.12-.21.04-.46-.13-.08-.18-.44-.01-.34-.15-.3v-.4l-.07-.36.06-.31.22-.04.4-.4.33.19.6.02.3-.16v-.57l.06-.14.36-.06.15-.35-.06-.42.18-.2-.08-.19.08-.25-.12-.24.1-.27.2-.1v-.49l.12-.4-.14-.2.08-.28-.58-.4.04-.33.15-.1.02-.24.53-.16.86.05.25-.41.32-.04.4-.3.51.2.09.22.84.04.2-.48.13-.05.2-.34.3.06-.1-.31-.11-.8v-.3l-.2-.34-.17.01-.4-.27-.24.11-.07-.32.07-.29.3-.13.02-.16-.43-.34-.07-.16-.39-.03.12-.44-.27-.35-.01-.24.1-.05-.02-.2.22-.08-.3-.46 2.3.3v-.04l1.36.17v-.03l4.55.6 2.28.3 2.72.37 2.28.3.11-.8.1-.2-.14-.37.07-.74.36-.21.14.16.25-.24.22.08.28-.1.17-.2.3-.08.45-.3.5.05.3-.42.2.03.4-.1.14.15.55.17.16-.07.26.27.11.36.1-.05.48.21.28.26-.12-.2.03-.26-.47-.2-.4-.36.21-1.62.18-.14-.92-.12.11-.12-.24-.12.09-.67-.45-.07.01-.1-.45-.16.01-.25-4.02-.49-.14-.2.27-.18-.02-.16.18-.65h.33l.05-.35.1.13.04-.21.09.19.32-.18.03-.14.26-.1.12-.24.18-.01.15-.27-.2-.19.16-.1.37-.03-.01-.11.3-.15.17-.4-.03-.42.29.04.15.18.46.03.34-2.75h-.09l1.3-10.75-.08-.02.31-2.62 3.15.39 6.28.78 3.4.43 6.37.7 5.53.6 2.44.24 6.47.67.93.1 1.5.14 6 .61 4.03.38 5.15.5 6.48.59 3.54.34 3.95.37 1.26.12 3.44.3 7.26.6 5.24.43 5.51.42 8.09.6 3.54.28 1.08.04 3.85.27 7.27.5 7.35.48 4.88.29 4.08.23 4.53.25 3.84.2.8.05 4.7.24 4.7.22 6.01.29 3.97.16 6.47.26 6.87.24" fill="#d1dbdd" stroke="rgb(209, 219, 221)" stroke-width="0.1" data-originalStrokeWidth="0.1" style="stroke: rgb(0, 0, 0); fill: rgb(209, 219, 221); pointer-events: auto; stroke-width: 0.1;" pointer-events="auto"/>
      <g id="state_lines" stroke="rgb(209, 219, 221)" style="display: none; stroke: rgb(0, 0, 0);" stroke-width="0.1"/>
      <g id="state_abbr" fill="#000000" style="display: none; fill: rgb(0, 0, 0);">
        <text id="HI_label" x="491.79" y="769.82" style="font-size: 19.2455px; stroke-width: 1.60379; display: none;">
          <tspan id="HI_tspan" x="491.79" y="769.82" fill="#000000" dy="0" font-family="Arial" font-size="24.06" font-style="normal" font-weight="400" style="text-align: center; stroke-width: 2.57215; fill: rgb(0, 0, 0);" text-anchor="middle">HI</tspan>
        </text>
        <text id="AK_label" x="205.24" y="672.25" style="font-size: 19.2455px; stroke-width: 1.60379; display: none;">
          <tspan id="AK_tspan" x="205.24" y="672.25" fill="#000000" dy="0" font-family="Arial" font-size="24.06" font-style="normal" font-weight="400" style="text-align: center; stroke-width: 2.57215; fill: rgb(0, 0, 0);" text-anchor="middle">AK</tspan>
        </text>
        <text id="FL_label" x="1188.11" y="708.7" style="font-size: 19.2455px; stroke-width: 1.60379; display: none;">
          <tspan id="FL_tspan" x="1188.11" y="708.7" fill="#000000" dy="0" font-family="Arial" font-size="24.06" font-style="normal" font-weight="400" style="text-align: center; stroke-width: 2.57215; fill: rgb(0, 0, 0);" text-anchor="middle">FL</tspan>
        </text>
        <text id="NH_label" x="1306.05" y="167.79" stroke-width="1.1" font-size="13.25" style="display: none;">
          <tspan id="NH_tspan" x="1306.05" y="167.79" fill="#000000" stroke-width="1.1" dy="0" font-family="Arial" font-size="16.56" font-style="normal" font-weight="400" style="text-align: center; fill: rgb(0, 0, 0);" text-anchor="middle">NH</tspan>
        </text>
        <text id="MI_label" x="1019.65" y="246.58" style="font-size: 19.2455px; stroke-width: 1.60379; display: none;">
          <tspan id="MI_tspan" x="1019.65" y="246.58" fill="#000000" dy="0" font-family="Arial" font-size="24.06" font-style="normal" font-weight="400" style="text-align: center; stroke-width: 2.57215; fill: rgb(0, 0, 0);" text-anchor="middle">MI</tspan>
        </text>
        <text id="VT_label" x="1274.28" y="145.01" stroke-width="1.05" font-size="12.65" style="display: none;">
          <tspan id="VT_tspan" x="1274.28" y="145.01" fill="#000000" stroke-width="1.05" dy="0" font-family="Arial" font-size="15.81" font-style="normal" font-weight="400" style="text-align: center; fill: rgb(0, 0, 0);" text-anchor="middle">VT</tspan>
        </text>
        <text id="ME_label" x="1338.99" y="105.14" stroke-width="1.45" font-size="17.36" style="display: none;">
          <tspan id="ME_tspan" x="1338.99" y="105.14" fill="#000000" stroke-width="1.45" dy="0" font-family="Arial" font-size="21.7" font-style="normal" font-weight="400" style="text-align: center; fill: rgb(0, 0, 0);" text-anchor="middle">ME</tspan>
        </text>
        <text id="RI_label" x="1361.38" y="262.84" stroke-width="1.25" font-size="14.98" style="display: none;">
          <tspan id="RI_tspan" x="1361.38" y="262.84" fill="#000000" stroke-width="1.25" dy="0" font-family="Arial" font-size="18.72" font-style="normal" font-weight="400" style="text-align: center; fill: rgb(0, 0, 0);" text-anchor="middle">RI</tspan>
        </text>
        <text id="NY_label" x="1227.27" y="204.12" style="font-size: 19.2455px; stroke-width: 1.60379; display: none;">
          <tspan id="NY_tspan" x="1227.27" y="204.12" fill="#000000" dy="0" font-family="Arial" font-size="24.06" font-style="normal" font-weight="400" style="text-align: center; stroke-width: 2.57215; fill: rgb(0, 0, 0);" text-anchor="middle">NY</tspan>
        </text>
        <text id="PA_label" x="1187.28" y="284.69" style="font-size: 19.2455px; stroke-width: 1.60379; display: none;">
          <tspan id="PA_tspan" x="1187.28" y="284.69" fill="#000000" dy="0" font-family="Arial" font-size="24.06" font-style="normal" font-weight="400" style="text-align: center; stroke-width: 2.57215; fill: rgb(0, 0, 0);" text-anchor="middle">PA</tspan>
        </text>
        <text id="NJ_label" x="1330.57" y="290.09" stroke-width="1.28" font-size="15.4" style="display: none;">
          <tspan id="NJ_tspan" x="1330.57" y="290.09" fill="#000000" stroke-width="1.28" dy="0" font-family="Arial" font-size="19.25" font-style="normal" font-weight="400" style="text-align: center; fill: rgb(0, 0, 0);" text-anchor="middle">NJ</tspan>
        </text>
        <text id="DE_label" x="1320.8" y="328.42" stroke-width="1.36" font-size="16.38" style="display: none;">
          <tspan id="DE_tspan" x="1320.8" y="328.42" fill="#000000" stroke-width="1.36" dy="0" font-family="Arial" font-size="20.47" font-style="normal" font-weight="400" style="text-align: center; fill: rgb(0, 0, 0);" text-anchor="middle">DE</tspan>
        </text>
        <text id="MD_label" x="1310.72" y="368.46" stroke-width="1.34" font-size="16.11" style="display: none;">
          <tspan id="MD_tspan" x="1310.72" y="368.46" fill="#000000" stroke-width="1.34" dy="0" font-family="Arial" font-size="20.13" font-style="normal" font-weight="400" style="text-align: center; fill: rgb(0, 0, 0);" text-anchor="middle">MD</tspan>
        </text>
        <text id="VA_label" x="1198.59" y="392.33" style="font-size: 19.2455px; stroke-width: 1.60379; display: none;">
          <tspan id="VA_tspan" x="1198.59" y="392.33" fill="#000000" dy="0" font-family="Arial" font-size="24.06" font-style="normal" font-weight="400" style="text-align: center; stroke-width: 2.57215; fill: rgb(0, 0, 0);" text-anchor="middle">VA</tspan>
        </text>
        <text id="WV_label" x="1129.66" y="382.3" style="font-size: 19.2455px; stroke-width: 1.60379; display: none;">
          <tspan id="WV_tspan" x="1129.66" y="382.3" fill="#000000" dy="0" font-family="Arial" font-size="24.06" font-style="normal" font-weight="400" style="text-align: center; stroke-width: 2.57215; fill: rgb(0, 0, 0);" text-anchor="middle">WV</tspan>
        </text>
        <text id="OH_label" x="1079.05" y="334.46" style="font-size: 19.2455px; stroke-width: 1.60379; display: none;">
          <tspan id="OH_tspan" x="1079.05" y="334.46" fill="#000000" dy="0" font-family="Arial" font-size="24.06" font-style="normal" font-weight="400" style="text-align: center; stroke-width: 2.57215; fill: rgb(0, 0, 0);" text-anchor="middle">OH</tspan>
        </text>
        <text id="IN_label" x="998.79" y="352.94" style="font-size: 19.2455px; stroke-width: 1.60379; display: none;">
          <tspan id="IN_tspan" x="998.79" y="352.94" fill="#000000" dy="0" font-family="Arial" font-size="24.06" font-style="normal" font-weight="400" style="text-align: center; stroke-width: 2.57215; fill: rgb(0, 0, 0);" text-anchor="middle">IN</tspan>
        </text>
        <text id="IL_label" x="927.43" y="364.36" style="font-size: 19.2455px; stroke-width: 1.60379; display: none;">
          <tspan id="IL_tspan" x="927.43" y="364.36" fill="#000000" dy="0" font-family="Arial" font-size="24.06" font-style="normal" font-weight="400" style="text-align: center; stroke-width: 2.57215; fill: rgb(0, 0, 0);" text-anchor="middle">IL</tspan>
        </text>
        <text id="CT_label" x="1299.17" y="228.46" stroke-width="1.06" font-size="12.74" style="display: none;">
          <tspan id="CT_tspan" x="1299.17" y="228.46" fill="#000000" stroke-width="1.06" dy="0" font-family="Arial" font-size="15.93" font-style="normal" font-weight="400" style="text-align: center; fill: rgb(0, 0, 0);" text-anchor="middle">CT</tspan>
        </text>
        <text id="WI_label" x="898.6" y="224.7" style="font-size: 19.2455px; stroke-width: 1.60379; display: none;">
          <tspan id="WI_tspan" x="898.6" y="224.7" fill="#000000" dy="0" font-family="Arial" font-size="24.06" font-style="normal" font-weight="400" style="text-align: center; stroke-width: 2.57215; fill: rgb(0, 0, 0);" text-anchor="middle">WI</tspan>
        </text>
        <text id="NC_label" x="1205.6" y="458.72" style="font-size: 19.2455px; stroke-width: 1.60379; display: none;">
          <tspan id="NC_tspan" x="1205.6" y="458.72" fill="#000000" dy="0" font-family="Arial" font-size="24.06" font-style="normal" font-weight="400" style="text-align: center; stroke-width: 2.57215; fill: rgb(0, 0, 0);" text-anchor="middle">NC</tspan>
        </text>
        <text id="MA_label" x="1305.87" y="200.67" stroke-width="1.04" font-size="12.46" style="display: none;">
          <tspan id="MA_tspan" x="1305.87" y="200.67" fill="#000000" stroke-width="1.04" dy="0" font-family="Arial" font-size="15.58" font-style="normal" font-weight="400" style="text-align: center; fill: rgb(0, 0, 0);" text-anchor="middle">MA</tspan>
        </text>
        <text id="MO_label" x="854.22" y="422.93" style="font-size: 19.2455px; stroke-width: 1.60379; display: none;">
          <tspan id="MO_tspan" x="854.22" y="422.93" fill="#000000" dy="0" font-family="Arial" font-size="24.06" font-style="normal" font-weight="400" style="text-align: center; stroke-width: 2.57215; fill: rgb(0, 0, 0);" text-anchor="middle">MO</tspan>
        </text>
        <text id="GA_label" x="1106.89" y="574.56" style="font-size: 19.2455px; stroke-width: 1.60379; display: none;">
          <tspan id="GA_tspan" x="1106.89" y="574.56" fill="#000000" dy="0" font-family="Arial" font-size="24.06" font-style="normal" font-weight="400" style="text-align: center; stroke-width: 2.57215; fill: rgb(0, 0, 0);" text-anchor="middle">GA</tspan>
        </text>
        <text id="SC_label" x="1166.32" y="522.49" style="font-size: 19.2455px; stroke-width: 1.60379; display: none;">
          <tspan id="SC_tspan" x="1166.32" y="522.49" fill="#000000" dy="0" font-family="Arial" font-size="24.06" font-style="normal" font-weight="400" style="text-align: center; stroke-width: 2.57215; fill: rgb(0, 0, 0);" text-anchor="middle">SC</tspan>
        </text>
        <text id="KY_label" x="1039.99" y="426.39" style="font-size: 19.2455px; stroke-width: 1.60379; display: none;">
          <tspan id="KY_tspan" x="1039.99" y="426.39" fill="#000000" dy="0" font-family="Arial" font-size="24.06" font-style="normal" font-weight="400" style="text-align: center; stroke-width: 2.57215; fill: rgb(0, 0, 0);" text-anchor="middle">KY</tspan>
        </text>
        <text id="AL_label" x="1019.59" y="578.15" style="font-size: 19.2455px; stroke-width: 1.60379; display: none;">
          <tspan id="AL_tspan" fill="#000000" dy="0" font-family="Arial" font-size="24.06" font-style="normal" font-weight="400" style="text-align: center; stroke-width: 2.57215; fill: rgb(0, 0, 0);" text-anchor="middle">AL</tspan>
        </text>
        <text id="LA_label" x="872.7" y="649.59" style="font-size: 19.2455px; stroke-width: 1.60379; display: none;">
          <tspan id="LA_tspan" x="872.7" y="649.59" fill="#000000" dy="0" font-family="Arial" font-size="24.06" font-style="normal" font-weight="400" style="text-align: center; stroke-width: 2.57215; fill: rgb(0, 0, 0);" text-anchor="middle">LA</tspan>
        </text>
        <text id="MS_label" x="940.37" y="592.21" style="font-size: 19.2455px; stroke-width: 1.60379; display: none;">
          <tspan id="MS_tspan" x="940.37" y="592.21" fill="#000000" dy="0" font-family="Arial" font-size="24.06" font-style="normal" font-weight="400" style="text-align: center; stroke-width: 2.57215; fill: rgb(0, 0, 0);" text-anchor="middle">MS</tspan>
        </text>
        <text id="IA_label" x="823.33" y="308.44" style="font-size: 19.2455px; stroke-width: 1.60379; display: none;">
          <tspan id="IA_tspan" x="823.33" y="308.44" fill="#000000" dy="0" font-family="Arial" font-size="24.06" font-style="normal" font-weight="400" style="text-align: center; stroke-width: 2.57215; fill: rgb(0, 0, 0);" text-anchor="middle">IA</tspan>
        </text>
        <text id="MN_label" x="790.84" y="183.37" style="font-size: 19.2455px; stroke-width: 1.60379; display: none;">
          <tspan id="MN_tspan" x="790.84" y="183.37" fill="#000000" dy="0" font-family="Arial" font-size="24.06" font-style="normal" font-weight="400" style="text-align: center; stroke-width: 2.57215; fill: rgb(0, 0, 0);" text-anchor="middle">MN</tspan>
        </text>
        <text id="OK_label" x="732.05" y="519.54" style="font-size: 19.2455px; stroke-width: 1.60379; display: none;">
          <tspan id="OK_tspan" x="732.05" y="519.54" fill="#000000" dy="0" font-family="Arial" font-size="24.06" font-style="normal" font-weight="400" style="text-align: center; stroke-width: 2.57215; fill: rgb(0, 0, 0);" text-anchor="middle">OK</tspan>
        </text>
        <text id="TX_label" x="710.59" y="652.87" style="font-size: 19.2455px; stroke-width: 1.60379; display: none;">
          <tspan id="TX_tspan" x="710.59" y="652.87" fill="#000000" dy="0" font-family="Arial" font-size="24.06" font-style="normal" font-weight="400" style="text-align: center; stroke-width: 2.57215; fill: rgb(0, 0, 0);" text-anchor="middle">TX</tspan>
        </text>
        <text id="NM_label" x="506.94" y="542.36" style="font-size: 19.2455px; stroke-width: 1.60379; display: none;">
          <tspan id="NM_tspan" x="506.94" y="542.36" fill="#000000" dy="0" font-family="Arial" font-size="24.06" font-style="normal" font-weight="400" style="text-align: center; stroke-width: 2.57215; fill: rgb(0, 0, 0);" text-anchor="middle">NM</tspan>
        </text>
        <text id="KS_label" x="701.21" y="427.26" style="font-size: 19.2455px; stroke-width: 1.60379; display: none;">
          <tspan id="KS_tspan" x="701.21" y="427.26" fill="#000000" dy="0" font-family="Arial" font-size="24.06" font-style="normal" font-weight="400" style="text-align: center; stroke-width: 2.57215; fill: rgb(0, 0, 0);" text-anchor="middle">KS</tspan>
        </text>
        <text id="NE_label" x="686.63" y="337.29" style="font-size: 19.2455px; stroke-width: 1.60379; display: none;">
          <tspan id="NE_tspan" x="686.63" y="337.29" fill="#000000" dy="0" font-family="Arial" font-size="24.06" font-style="normal" font-weight="400" style="text-align: center; stroke-width: 2.57215; fill: rgb(0, 0, 0);" text-anchor="middle">NE</tspan>
        </text>
        <text id="SD_label" x="663.02" y="238.75" style="font-size: 19.2455px; stroke-width: 1.60379; display: none;">
          <tspan id="SD_tspan" x="663.02" y="238.75" fill="#000000" dy="0" font-family="Arial" font-size="24.06" font-style="normal" font-weight="400" style="text-align: center; stroke-width: 2.57215; fill: rgb(0, 0, 0);" text-anchor="middle">SD</tspan>
        </text>
        <text id="ND_label" x="663.02" y="150.75" style="font-size: 19.2455px; stroke-width: 1.60379; display: none;">
          <tspan id="ND_tspan" x="663.02" y="150.75" fill="#000000" dy="0" font-family="Arial" font-size="24.06" font-style="normal" font-weight="400" style="text-align: center; stroke-width: 2.57215; fill: rgb(0, 0, 0);" text-anchor="middle">ND</tspan>
        </text>
        <text id="WY_label" x="499.57" y="276.47" style="font-size: 19.2455px; stroke-width: 1.60379; display: none;">
          <tspan id="WY_tspan" x="499.57" y="276.47" fill="#000000" dy="0" font-family="Arial" font-size="24.06" font-style="normal" font-weight="400" style="text-align: center; stroke-width: 2.57215; fill: rgb(0, 0, 0);" text-anchor="middle">WY</tspan>
        </text>
        <text id="MT_label" x="487.84" y="155.58" style="font-size: 19.2455px; stroke-width: 1.60379; display: none;">
          <tspan id="MT_tspan" x="487.84" y="155.58" fill="#000000" dy="0" font-family="Arial" font-size="24.06" font-style="normal" font-weight="400" style="text-align: center; stroke-width: 2.57215; fill: rgb(0, 0, 0);" text-anchor="middle">MT</tspan>
        </text>
        <text id="CO_label" x="525.13" y="406.28" style="font-size: 19.2455px; stroke-width: 1.60379; display: none;">
          <tspan id="CO_tspan" x="525.13" y="406.28" fill="#000000" dy="0" font-family="Arial" font-size="24.06" font-style="normal" font-weight="400" style="text-align: center; stroke-width: 2.57215; fill: rgb(0, 0, 0);" text-anchor="middle">CO</tspan>
        </text>
        <text id="ID_label" x="339.94" y="235.07" style="font-size: 19.2455px; stroke-width: 1.60379; display: none;">
          <tspan id="ID_tspan" x="339.94" y="235.07" fill="#000000" dy="0" font-family="Arial" font-size="24.06" font-style="normal" font-weight="400" style="text-align: center; stroke-width: 2.57215; fill: rgb(0, 0, 0);" text-anchor="middle">ID</tspan>
        </text>
        <text id="UT_label" x="396.81" y="386.73" style="font-size: 19.2455px; stroke-width: 1.60379; display: none;">
          <tspan id="UT_tspan" x="396.81" y="386.73" fill="#000000" dy="0" font-family="Arial" font-size="24.06" font-style="normal" font-weight="400" style="text-align: center; stroke-width: 2.57215; fill: rgb(0, 0, 0);" text-anchor="middle">UT</tspan>
        </text>
        <text id="AZ_label" x="366.76" y="536.9" style="font-size: 19.2455px; stroke-width: 1.60379; display: none;">
          <tspan id="AZ_tspan" x="366.76" y="536.9" fill="#000000" dy="0" font-family="Arial" font-size="24.06" font-style="normal" font-weight="400" style="text-align: center; stroke-width: 2.57215; fill: rgb(0, 0, 0);" text-anchor="middle">AZ</tspan>
        </text>
        <text id="NV_label" x="262.47" y="370.64" style="font-size: 19.2455px; stroke-width: 1.60379; display: none;">
          <tspan id="NV_tspan" x="262.47" y="370.64" fill="#000000" dy="0" font-family="Arial" font-size="24.06" font-style="normal" font-weight="400" style="text-align: center; stroke-width: 2.57215; fill: rgb(0, 0, 0);" text-anchor="middle">NV</tspan>
        </text>
        <text id="OR_label" x="214.43" y="206.88" style="font-size: 19.2455px; stroke-width: 1.60379; display: none;">
          <tspan id="OR_tspan" x="214.43" y="206.88" fill="#000000" dy="0" font-family="Arial" font-size="24.06" font-style="normal" font-weight="400" style="text-align: center; stroke-width: 2.57215; fill: rgb(0, 0, 0);" text-anchor="middle">OR</tspan>
        </text>
        <text id="WA_label" x="238.05" y="102.99" style="font-size: 19.2455px; stroke-width: 1.60379; display: none;">
          <tspan id="WA_tspan" x="238.05" y="102.99" fill="#000000" dy="0" font-family="Arial" font-size="24.06" font-style="normal" font-weight="400" style="text-align: center; stroke-width: 2.57215; fill: rgb(0, 0, 0);" text-anchor="middle">WA</tspan>
        </text>
        <text id="CA_label" x="191.69" y="434.8" style="font-size: 19.2455px; stroke-width: 1.60379; display: none;">
          <tspan id="CA_tspan" x="191.69" y="434.8" fill="#000000" dy="0" font-family="Arial" font-size="24.06" font-style="normal" font-weight="400" style="text-align: center; stroke-width: 2.57215; fill: rgb(0, 0, 0);" text-anchor="middle">CA</tspan>
        </text>
        <text id="DC_label" x="1309.32" y="398.19" stroke-width="1.29" font-size="15.45" style="display: none;">
          <tspan id="DC_tspan" x="1309.32" y="398.19" fill="#000000" stroke-width="1.29" dy="0" font-family="Arial" font-size="19.31" font-style="normal" font-weight="400" style="text-align: center; fill: rgb(0, 0, 0);" text-anchor="middle">DC</tspan>
        </text>
        <text id="TN_label" x="1018.93" y="485.72" style="font-size: 19.2455px; stroke-width: 1.60379; display: none;">
          <tspan id="TN_tspan" x="1018.93" y="485.72" fill="#000000" dy="0" font-family="Arial" font-size="24.06" font-style="normal" font-weight="400" style="text-align: center; stroke-width: 2.57215; fill: rgb(0, 0, 0);" text-anchor="middle">TN</tspan>
        </text>
        <text id="AR_label" x="863.15" y="535.77" style="font-size: 19.2455px; stroke-width: 1.60379; display: none;">
          <tspan id="AR_tspan" x="863.15" y="535.77" fill="#000000" dy="0" font-family="Arial" font-size="24.06" font-style="normal" font-weight="400" style="text-align: center; stroke-width: 2.57215; fill: rgb(0, 0, 0);" text-anchor="middle">AR</tspan>
        </text>
      </g>
      <g id="state_borders" transform="translate(-0.04777967,-0.15336683)" stroke="rgb(209, 219, 221)" style="stroke: rgb(0, 0, 0);" stroke-width="0.3">
        <path id="MT_WY_border" d="m421.29 216.22.82-7.77.92-8.62 5.86.64 1.85.46 5.75.56.86-.1 4.95.59 1.74-.04 6.2.62 1.43.2 10.18.83 4.4.39.44.22 12.15 1.02.44.06 11.3.87 8.43.63 3.15.22 7.9.59.95.17 11.4.8 6.84.45 7.44.43.36-.2 12.03.63 19.22.9 9.98.42" stroke="rgb(209, 219, 221)" stroke-width="0.3" fill="none" style="stroke: rgb(0, 0, 0); display: none;"/>
      </g>
      <rect id="selection-rectangle" fill="#ffffccaa" stroke="rgb(209, 219, 221)" stroke-width="0.1"/>
      <ellipse id="selection-ellipse" fill="#ffffccaa" stroke="rgb(209, 219, 221)" stroke-width="0.1"/>
      <polygon id="selection-polygon" fill="#ffffccaa" stroke="rgb(209, 219, 221)" stroke-width="0.1"/>
      <polyline id="selection-polyline" fill="#ffffccaa" stroke="rgb(209, 219, 221)" stroke-width="0.1"/>
    </svg>
  </g>
</svg>
