<?xml version='1.0' encoding='UTF-8'?>
<svg xmlns="http://www.w3.org/2000/svg" xmlns:dc="http://purl.org/dc/elements/1.1/" xmlns:ns2="http://creativecommons.org/ns#" xmlns:rdf="http://www.w3.org/1999/02/22-rdf-syntax-ns#" id="wrapper" viewBox="0 0 1520 840" preserveAspectRatio="xMinYMin" height="840" width="1520" style="background-color: rgb(255, 255, 255);">
  <metadata>
    <rdf:rdf>
      <ns2:work rdf:about="">
        <dc:format>image/svg+xml</dc:format>
        <dc:type rdf:resource="http://purl.org/dc/dcmitype/StillImage"/>
        <dc:title>MapChart Map</dc:title>
        <dc:creator>
          <ns2:agent>
            <dc:title>MapChart.net</dc:title>
          </ns2:agent>
        </dc:creator>
        <ns2:license rdf:resource="http://creativecommons.org/licenses/by-sa/4.0/"/>
        <dc:description>This map was created with MapChart.net, a website for creating custom maps.</dc:description>
      </ns2:work>
      <ns2:license rdf:about="http://creativecommons.org/licenses/by-sa/4.0/">
        <ns2:permits rdf:resource="http://creativecommons.org/ns#Reproduction"/>
        <ns2:permits rdf:resource="http://creativecommons.org/ns#Distribution"/>
        <ns2:requires rdf:resource="http://creativecommons.org/ns#Notice"/>
        <ns2:requires rdf:resource="http://creativecommons.org/ns#Attribution"/>
        <ns2:requires rdf:resource="http://creativecommons.org/ns#ShareAlike"/>
      </ns2:license>
    </rdf:rdf>
  </metadata>
  <g id="map-group" transform="translate(-3699.9240708490443,-1701.8840159848373) scale(6.580097398060259)">
    <svg id="map" width="1520" height="840" version="1.1" viewBox="0 0 1520 840" preserveAspectRatio="xMinYMin" data-originalStrokeWidth="0.3">
      <defs>
        <pattern id="circles3" width="10" height="10" patternUnits="userSpaceOnUse">    <rect width="10" height="10" fill="#fff"/>    <circle cx="4" cy="4" r="2" fill="#000"/>    </pattern>
        <pattern id="diagonal1" width="10" height="10" patternUnits="userSpaceOnUse">    <rect width="10" height="10" fill="#fff"/>    </pattern>
        <pattern id="diagonal3" width="10" height="10" patternUnits="userSpaceOnUse">    <rect width="10" height="10" fill="#fff"/>    </pattern>
        <pattern id="vertical1" width="10" height="10" patternUnits="userSpaceOnUse">    <rect width="10" height="10" fill="#fff"/>    <rect x="2" y="0" width="1" height="10" fill="#000"/>    </pattern>
        <pattern id="vertical3" width="10" height="10" patternUnits="userSpaceOnUse">    <rect width="10" height="10" fill="#fff"/>    <rect x="2" y="0" width="3" height="10" fill="#000"/>    </pattern>
        <pattern id="horizontal1" width="10" height="10" patternUnits="userSpaceOnUse">    <rect width="10" height="10" fill="#fff"/>    <rect x="0" y="2" width="10" height="1" fill="#000"/>    </pattern>
        <pattern id="horizontal3" width="10" height="10" patternUnits="userSpaceOnUse">    <rect width="10" height="10" fill="#fff"/>    <rect x="0" y="2" width="10" height="3" fill="#000"/>    </pattern>
        <pattern id="crosshatch" width="8" height="8" patternUnits="userSpaceOnUse">    <rect width="8" height="8" fill="#fff"/>    </pattern>
        <pattern id="subtlepatch" width="5" height="5" patternUnits="userSpaceOnUse">    <rect width="5" height="5" fill="#fff"/>    <rect x="2" y="2" width="1" height="1" fill="#000"/>    </pattern>
        <pattern id="checkers" width="8" height="8" patternUnits="userSpaceOnUse">    <rect width="8" height="8" fill="#fff"/>    </pattern>
        <pattern id="raindrops" width="10" height="10" patternUnits="userSpaceOnUse">    <rect width="10" height="10" fill="#fff"/>    </pattern>
        <pattern id="texture" width="4" height="4" patternUnits="userSpaceOnUse">    <rect width="4" height="4" fill="#fff"/>    </pattern>
        <pattern id="circles3_a03500_000000" width="10" height="10" patternUnits="userSpaceOnUse">    <rect width="10" height="10" fill="#a03500"/>    <circle cx="4" cy="4" r="2" fill="#000000"/>    </pattern>
        <pattern id="diagonal1_d9b400_535353" width="10" height="10" patternUnits="userSpaceOnUse">    <rect width="10" height="10" fill="#d9b400"/>    </pattern>
        <pattern id="diagonal3_3264c8_ffffff" width="10" height="10" patternUnits="userSpaceOnUse">    <rect width="10" height="10" fill="#3264c8"/>    </pattern>
        <pattern id="horizontal1_72b38e_000000" width="10" height="10" patternUnits="userSpaceOnUse">    <rect width="10" height="10" fill="#72b38e"/>    <rect x="0" y="2" width="10" height="1" fill="#000000"/>    </pattern>
        <pattern id="horizontal3_986ba1_ffffff" width="10" height="10" patternUnits="userSpaceOnUse">    <rect width="10" height="10" fill="#986ba1"/>    <rect x="0" y="2" width="10" height="3" fill="#ffffff"/>    </pattern>
        <pattern id="vertical1_b9a087_ffffff" width="10" height="10" patternUnits="userSpaceOnUse">    <rect width="10" height="10" fill="#b9a087"/>    <rect x="2" y="0" width="1" height="10" fill="#ffffff"/>    </pattern>
        <pattern id="vertical3_4c91bf_ffff33" width="10" height="10" patternUnits="userSpaceOnUse">    <rect width="10" height="10" fill="#4c91bf"/>    <rect x="2" y="0" width="3" height="10" fill="#ffff33"/>    </pattern>
        <pattern id="checkers_cc3333_f7f7f7" width="8" height="8" patternUnits="userSpaceOnUse">    <rect width="8" height="8" fill="#cc3333"/>    </pattern>
        <pattern id="texture_d1dbdd_525252" width="4" height="4" patternUnits="userSpaceOnUse">    <rect width="4" height="4" fill="#d1dbdd"/>    </pattern>
        <style id="map-style">svg { background-color: #ffffff; }</style>
      </defs>
      <path id="NE01" d="m765.15 330.15.1.1.3.07.64-.13.28-.04.29.03.3.22.05.26-.12.17-.43-.05-.19.06-.16.28-.03.23.01.15.07.18.05.1.18.26.1.23.03.19v.22l.07.31.05.12-.02.42-.11.19-.16.19-.05.05-.04.07.01.38.17.15.33.33.06.4-.2.53.16.38.46.22.22.15.18.38-.02.28-.13.34-.03.07-.05.36.03.2.06.27.18.3.36.3.14.23.05.19-.15.37-.48.26-.16.12-.08.26v.07l.06.2.2.39.03.43-.13.28.04.44.26.56v.05l-11.3.56-3.57.17.37 8.26-2.58.1-2.88.14-2.93.12-2.27.07-.03-1.38-.1-1.38-.1-2.76-8.06.29-2.72.09-.16-4.6-.14-4.62-.19-5.51-4.54.15v-.45l-.44.02-.02-.47.43-.02-.03-1.36h-.46l-.09-3.13-.43.22-.07-2.13-2.48.08-.1-3.34-.03-.83-.94.01-2 .09-.07-1.62-.1-2.49-.06-2.73-.07-.46-.16-5.06-.2-5.47.45-.06 5.41-.17 4.06-.16 7.22-.25 7.6-.29 4.95-.2.12 2.76.36 8.27 2.6-.11.04 1.84.14 2.3.11 2.75.24-.01.03.92h.2l.03.45.46-.02.03.46h.45v.46l.47-.02v.45l.9-.04.08 1.38-3.73.16-.36-.08-.19-.26-1.4-.84h-.84l-.7.03-.14-.05-.34.22-.37.11-.53.05-.4-.15-.5-.42-.36-.14h-.63l-.35.22h-.24l-.28.15h-.2l-.45-.15-.35.03-.22-.12-.67-.1h-.37l.08 1.9-.05-.01.13 4 .22 5.18.08 1.85 8.11-.3 2.35-.1.05.92 2.7-.1-.03-.93.7-.04.2.24.34.3.3.15.8.05.25.16.2.4.34.19.26-.06.62-.37.84-.4.3-.45.48-.56.82-.36.4-.25.52-.03.48.13.22.01-.03-1.03-.06-1.14-.24-.11-3.38.17-.03-.46-.34.02-.13-.34.23-.01.23-.26-.05-.67-.2.03-.18-.13 5.88-.3" fill="#d1dbdd" stroke="rgb(209, 219, 221)" stroke-width="0.1" data-originalStrokeWidth="0.1" style="stroke: rgb(0, 0, 0); fill: rgb(209, 219, 221); pointer-events: auto; stroke-width: 0.1;" pointer-events="auto"/>
      <path id="NE02" d="m755.35 324.19 9.13-.45.22.48.04.35-.08.17-.4.21-.14.2.1.32.17.18.28.2.25.17.23.01h.13l.1-.04.13-.02.13.02h.05l.16.07.07.05.08.06.07.08.07.12.06.18.02.17v.1l-.07.2-.05.1-.1.07-.06.05-.14.1-.28.13-.07-.01-.17-.15.14-.25.02-.18v-.21l-.1-.04h-.27l-.18.1v.56l.08.04.2.15.04.05-.12.18v.19l.01.05.28.63-.04.5-.2.28-.07.12-.03.22v.15l.08.23.03.07-5.87.29.17.13.21-.03.05.67-.23.26h-.23l.13.35.34-.02.03.46 3.38-.17.24.1.06 1.15.03 1.03h-.22l-.48-.14-.53.03-.4.25-.81.36-.49.56-.3.45-.83.4-.62.37-.26.06-.34-.2-.2-.39-.25-.15-.8-.05-.3-.16-.35-.3-.2-.24-.7.04.04.92-2.7.1-.05-.91-2.35.1-8.11.3-.08-1.85-.22-5.18-.13-4h.04l-.07-1.89h.38l.66.1.22.12.35-.03.45.17.21-.01.28-.16.21-.01.35-.2.63-.01.37.14.5.43.4.14.53-.04.37-.11.33-.23.15.05.7-.03h.83l1.4.84.19.26.36.08 3.73-.16" fill="#d1dbdd" stroke="rgb(209, 219, 221)" stroke-width="0.1" data-originalStrokeWidth="0.1" style="stroke: rgb(0, 0, 0); fill: rgb(209, 219, 221); pointer-events: auto; stroke-width: 0.1;" pointer-events="auto"/>
      <path id="NE03" d="m767.93 342.92-.02.16-.34.4-.46.27-.27.29-.12.6.14.45.32.15.3.15.1.09.17.3.04.29.1.24.25.18.24.12.4.05.4.17.33.36.13.22.03.11.04.36.07.2.22.14.18.16.03.39-.18.24-.23.2-.13.3.26.53.05.28-.12.36.3.32.48.04.35-.15.23.06.1.14.27-.25-.02-.26.03-.62.18-.15.35-.06.13.14.13.24.15.09.1.28-.07.46-.27.28-.56.26-.07.05-.11.04.12.24v.6l.1.29.21.19.3.17.33.39.08.18.03.16-.1.56.06.24.39.67.1.64.1.16.21.18.15.26.01.26-.09.2-.46.24-.2.2.08.37.22.06.69-.3.4.1.2.2.23.12.25-.01.43.24.07.3-.1.44.06.13.25.08.49.28.18.04.54-.04.37.17.17.23.09.43-.26.63v.35l.04.12.3.4.26.2.45.18.18.27.07.45.3.23.34.03.31.32.01.25-.34.47-.03.2.06.25v.18l-.02.12-.24.4.03.22.15.44.2.22.49.17.3-.1.42-.1.24.08.26.3.46.15.24.33v.07l-.42.04-3.09.15-.18.02-3.16.16-4.84.26-8.51.42v-.02l-3.6.18-1.09.04-2.69.12-3.37.17-.01-.02-1.19.04-4.96.2-.29.01-2.83.13-1.04.03-.3.02-1.34.03-1.61.08h-.73l-1.13.06h-.24l-1.27.04-.45.02-.45.01-1.33.05-.9.02-1.05.06h-.29l-2.66.08-3.03.1h-.6l-.28.02-1.37.04-4 .11-.91.04h-.36l-.36.02h-.45l-.3.01-1.3.04h-.44l-.6.03-3.15.07-3.91.1-.2.01h-.43l-.9.02-.87.02h-.31l-.45.02-.67.03h-.93l-.8.03-.73.02h-1.3l-.43.02-.82.02-1.52.03h-.2l-.88.01-.47.02-2.16.04h-.1l-.9.01-.58.02h-.52l-.67.02h-.46l-.88.02h-.8l-.53.03-1.58.02-.67.01h-.26l-.23-.01-.9.01-.47.03h-.89l-.4.01-5.04.05-.26.02H675l-.9.02h-3.23l-.87.03-1.84.01-4.07.01-1.79.01-3.2.02h-.66l-.29-.01-.47.01h-3.48l-.28-.01h-.1l-2.36-.01h-7.19l-2-.02-.8-.01h-2.19l-3.35-.04-.22-.01-1.14-.01h-1.81l-1.98-.02h-.06l-1.54-.02-2.2-.02-.51-.02h-.43l-.76-.01-.44-.02-.67-.01h-.78l-.95-.01-.61-.01h-.52l-.76-.02.04-1.15v-.8l.02-.77.02-1.9v-.45l.02-.51v-.41l.03-1.6.04-2.55v-.52l.01-1.14.02-.58.02-.8v-1.5l.02-.66.01-.44.04-2.6.07-5.58.11-7.64v-.13l-.44.02-1.22-.04-1.57-.02h-1.05l-.81-.03h-.1l-.38-.01h-.09l-1.26-.01-.37-.02h-.45l-1.2-.02h-.7l-.64-.03-3.25-.05-1.96-.06-1.09-.02h-.29l-.16-.02-1.27-.01-.38-.02h-.75l-.27-.02h-1.31l-.3-.03h-.19l-.45-.02-.46-.01-.86-.02h-.5l-.43-.02-.86-.02-.68-.01-.52-.02-.62-.01-1.17-.04h-.22l-.86-.01-.86-.03-.52-.01-.46-.03-2.87-.06-1.14-.04-2-.06-1.59-.05-1.45-.04-2.21-.09-1.24-.03h-.39l-.47-.03-.5-.02h-.45l-1.86-.08h-.04l.03-1.28.06-1.38.01-.63.08-1.64.03-.75-.01-.17.04-1 .13-3.11v-.21l.03-.77.07-1.63.02-.59.06-2.08.05-1.34.01-.7.08-2.01.04-1.1.02-.52.09-2.08-.02-.24.17-4.78v-.12l.02-.53.01-.35.01-.38.06-.82v-.57l.02-.54.02-.26v-.22l.1-3.02.04-.98v-.28l.04-.85.01-.66.04-1 .04-.85V298l.05-1.47.04-1.16.03-.73.05-1.7.09-2.01.02-.84.02-.78.09-2.2v-.36l.03-.77.01-.04v-.18l.01-.4.01-.03.02-.35.09-2.8.02-.68.02-.85.03-.81.06-1.47.12-3.57.02-.56.08.01 1.1.01.8.01.68.05 1.56.06 1.22.03.94.04h.57l.37.01.41.04 1.42.03 1.15.05 1.23.03.59.02h.4l.14.02 2.2.08 2.1.04 1.43.04.6.02 3.2.1 1.45.01 1.03.04 2.63.08 4.79.11.6.02 1.6.02h.04l.5.03h1.15l.95.02 2.46.07 1.9.03h.81l2.59.05 1.38.03h1.1l1.2.03h1.5l3.72.14 1.84.02 1.43.02 2.11-.01h.73l1.62.01h3.39v.02h6.15l.11.02h1.56l.24-.01h1.43l.24-.02.68.02h5.01l.12-.02h.56l2.53-.01h2.39l.05-.02.72.02h1.23l2.19-.03.35.02h2.38l.2-.01h.9l.62-.01 1.58-.01h1.42l.74-.03.06.01 1.45-.02h.32l1.22-.01 2.38-.03.76-.01.27-.02.4.02 1.52-.03.94-.01.36-.02.02.02 1.15-.02.8-.03.54-.01h1l.77-.02h.1l.47-.01.88-.02h.76l.98-.03 1.32-.02h.06l1.86-.03 1.3-.03.89-.01.76-.04h.63l.76-.02.58-.01.85-.02 1.38-.04 1.6-.02.08.32.3.6.1.18.13.23.28.35.34.3.05.13.25.03.07-.07h.25l.08.03.2.15 1.52.74.1.1.06.07.17.22.44.17.3.08.4.15.26.02h.25l.6.4.13.1.05.06.1.08.7.34.44.13.52-.09h.02l.2.22.26.4.48.27.2.22.07.09.2.14.1.04.2.19.06.05.21.18.08.24v.01l.35.15.24.12.2.01.47-.02.29-.06.18-.08.2-.08.33.03.34-.06.48-.45.09-.12.38-.36.13-.25.22-.34.2-.62v-.23l.04-.28.02-.19.22-.14.47-.17.3-.05.56.27.16.06.3.13.32.1.97.04 1.06.14.42-.03.48-.16.38-.18.4-.2h.2l.1.06.87.25.7-.1.2-.07.4-.22.4.24.34-.01.55.14.23-.06.3-.32.17-.28.26-.1.16.1.05.02.28-.01.2-.03.12.16.22.15.48-.04.24-.09.2-.14.28-.15.18.04.16.18.12.12.25.04.13.04h.1l.15-.02.33-.09.38.12.06.06.26.13.02.54.1.3.03.15.29.24.52.07h.14l.11.02.07.02.2.1.3.28.09.14.1.22.08.15.22.04.16.04.27-.04.44-.02.44-.08.46.1.41.16.82.09h.07l.15-.05.18.06.15.14.22.45-.02.09-.07.25.05.25.59.01.42-.4.24-.08.2.09.23.14.03.02.09.02.11.01.45.1.25.16.14.1.34.1h.23l.15.04.17.08.1.22.05.13.01.29-.03.35.03.1.56.18.3.01.38-.15.28-.04h.16l.7.21.15.09.1.14-.01.23-.32.45-.09.18-.08.29.13.53.48.62.26.24.4.14.25.17.33.4.07.6.04.13.08.23.07.1.4.26h.28l.28-.1.26-.28.32-.16h.21l.26.05.3.24.16.29.04.13.04.08.18.22.17.13.29.07.3-.02.69-.36.12.02.61.03h.1l.18.05.38.36.14.47.02.38-.14.47-.44.54-.06.1-.1.3.01.25.02.11.15.33-.04.37-.14.36.12.48.15.19.27.2.3.13.34.46.06.47.2.51.27.22.2.1.24.29.1.29-.02.35.14.13-.05.2-.04.09-.2.28-.49.12-.03.12.3.51.03.27-.06.25.1.4.13.18.14.1.21.1.31.45.24.27.2.03.24.04.3.2.15.29.02.35-.02.11-.15.37-.07.58.1.4.04.09.17.26.06.04.17.06h.05l.09-.07.42-.04.2.18.1.27-.06.17-.07.09-.27.3-.01.3.2.13.11.04.07-.02.05-.07.18-.33.1-.07.2-.02.33.06.1.11v.17l-.17.4.1.23.25.04.44-.15.36.04.03.01.27.16.04.1v.15l-.14.41-.07.14-.12.2.21.46-.03.28-.07.1-.4.18-.05.22.34.5.18.56.13.15.4.2.2.21.1.39-.05.2.02.23.2.24.52.16.17.14.21.33-.03.21-.15.18-.08.17-.03.23.03.16-.06.25-.37.29-.11.12-.08.22.04.25.14.15.3.12.23.15.1.23-.05.29-.25.1-.31-.03h-.2l-.24.22-.04.12.04.38.2.27.32.2.08.22.05.2-.11.4-.34.45-.04.23.06.28.16.28.1.09.45.2.16.39-.09.2-.14.2-.04.12-.04.2-.02.03.13.53.2.22.23.07.12.11.3.3.38.1.12-.11.03-.08-.02-.27.1-.21.05-.4.19-.16.32.04.12.12.2.78-.16.4-.27.24-.15.1.06.26.1.16.23.18.46.03.4.2.22.02.31-.13.21.04.3.17.1.2v.3l-.26.37.03.29.08.24-.16.78-.04-.08-9.12.45-.07-1.38-.91.04v-.45l-.47.02v-.47l-.46.01-.03-.46-.46.02-.02-.46-.21.01-.03-.92-.24.01-.11-2.75-.14-2.3-.05-1.84-2.6.1-.35-8.26-.12-2.75-4.94.2-7.6.29-7.23.24-4.06.17-5.4.17-.45.05.19 5.47.16 5.05.07.48.06 2.72.09 2.5.08 1.61 2-.09h.94l.03.83.11 3.34 2.47-.09.07 2.13.43-.22.09 3.13h.46l.03 1.36-.43.02.02.47.44-.02v.45l4.54-.15.2 5.52.13 4.6.16 4.6 2.72-.08 8.05-.3.1 2.76.1 1.39.04 1.38 2.27-.07 2.93-.12 2.89-.14 2.57-.1-.37-8.26 3.56-.17 11.32-.56" fill="#d1dbdd" stroke="rgb(209, 219, 221)" stroke-width="0.1" data-originalStrokeWidth="0.1" style="stroke: rgb(0, 0, 0); fill: rgb(209, 219, 221); pointer-events: auto; stroke-width: 0.1;" pointer-events="auto"/>
      <g id="state_lines" stroke="rgb(209, 219, 221)" style="display: none; stroke: rgb(0, 0, 0);" stroke-width="0.1"/>
      <g id="state_abbr" fill="#000000" style="display: none; fill: rgb(0, 0, 0);">
        <text id="HI_label" x="491.79" y="769.82" style="font-size: 19.2455px; stroke-width: 1.60379; display: none;">
          <tspan id="HI_tspan" x="491.79" y="769.82" fill="#000000" dy="0" font-family="Arial" font-size="24.06" font-style="normal" font-weight="400" style="text-align: center; stroke-width: 2.57215; fill: rgb(0, 0, 0);" text-anchor="middle">HI</tspan>
        </text>
        <text id="AK_label" x="205.24" y="672.25" style="font-size: 19.2455px; stroke-width: 1.60379; display: none;">
          <tspan id="AK_tspan" x="205.24" y="672.25" fill="#000000" dy="0" font-family="Arial" font-size="24.06" font-style="normal" font-weight="400" style="text-align: center; stroke-width: 2.57215; fill: rgb(0, 0, 0);" text-anchor="middle">AK</tspan>
        </text>
        <text id="FL_label" x="1188.11" y="708.7" style="font-size: 19.2455px; stroke-width: 1.60379; display: none;">
          <tspan id="FL_tspan" x="1188.11" y="708.7" fill="#000000" dy="0" font-family="Arial" font-size="24.06" font-style="normal" font-weight="400" style="text-align: center; stroke-width: 2.57215; fill: rgb(0, 0, 0);" text-anchor="middle">FL</tspan>
        </text>
        <text id="NH_label" x="1306.05" y="167.79" stroke-width="1.1" font-size="13.25" style="display: none;">
          <tspan id="NH_tspan" x="1306.05" y="167.79" fill="#000000" stroke-width="1.1" dy="0" font-family="Arial" font-size="16.56" font-style="normal" font-weight="400" style="text-align: center; fill: rgb(0, 0, 0);" text-anchor="middle">NH</tspan>
        </text>
        <text id="MI_label" x="1019.65" y="246.58" style="font-size: 19.2455px; stroke-width: 1.60379; display: none;">
          <tspan id="MI_tspan" x="1019.65" y="246.58" fill="#000000" dy="0" font-family="Arial" font-size="24.06" font-style="normal" font-weight="400" style="text-align: center; stroke-width: 2.57215; fill: rgb(0, 0, 0);" text-anchor="middle">MI</tspan>
        </text>
        <text id="VT_label" x="1274.28" y="145.01" stroke-width="1.05" font-size="12.65" style="display: none;">
          <tspan id="VT_tspan" x="1274.28" y="145.01" fill="#000000" stroke-width="1.05" dy="0" font-family="Arial" font-size="15.81" font-style="normal" font-weight="400" style="text-align: center; fill: rgb(0, 0, 0);" text-anchor="middle">VT</tspan>
        </text>
        <text id="ME_label" x="1338.99" y="105.14" stroke-width="1.45" font-size="17.36" style="display: none;">
          <tspan id="ME_tspan" x="1338.99" y="105.14" fill="#000000" stroke-width="1.45" dy="0" font-family="Arial" font-size="21.7" font-style="normal" font-weight="400" style="text-align: center; fill: rgb(0, 0, 0);" text-anchor="middle">ME</tspan>
        </text>
        <text id="RI_label" x="1361.38" y="262.84" stroke-width="1.25" font-size="14.98" style="display: none;">
          <tspan id="RI_tspan" x="1361.38" y="262.84" fill="#000000" stroke-width="1.25" dy="0" font-family="Arial" font-size="18.72" font-style="normal" font-weight="400" style="text-align: center; fill: rgb(0, 0, 0);" text-anchor="middle">RI</tspan>
        </text>
        <text id="NY_label" x="1227.27" y="204.12" style="font-size: 19.2455px; stroke-width: 1.60379; display: none;">
          <tspan id="NY_tspan" x="1227.27" y="204.12" fill="#000000" dy="0" font-family="Arial" font-size="24.06" font-style="normal" font-weight="400" style="text-align: center; stroke-width: 2.57215; fill: rgb(0, 0, 0);" text-anchor="middle">NY</tspan>
        </text>
        <text id="PA_label" x="1187.28" y="284.69" style="font-size: 19.2455px; stroke-width: 1.60379; display: none;">
          <tspan id="PA_tspan" x="1187.28" y="284.69" fill="#000000" dy="0" font-family="Arial" font-size="24.06" font-style="normal" font-weight="400" style="text-align: center; stroke-width: 2.57215; fill: rgb(0, 0, 0);" text-anchor="middle">PA</tspan>
        </text>
        <text id="NJ_label" x="1330.57" y="290.09" stroke-width="1.28" font-size="15.4" style="display: none;">
          <tspan id="NJ_tspan" x="1330.57" y="290.09" fill="#000000" stroke-width="1.28" dy="0" font-family="Arial" font-size="19.25" font-style="normal" font-weight="400" style="text-align: center; fill: rgb(0, 0, 0);" text-anchor="middle">NJ</tspan>
        </text>
        <text id="DE_label" x="1320.8" y="328.42" stroke-width="1.36" font-size="16.38" style="display: none;">
          <tspan id="DE_tspan" x="1320.8" y="328.42" fill="#000000" stroke-width="1.36" dy="0" font-family="Arial" font-size="20.47" font-style="normal" font-weight="400" style="text-align: center; fill: rgb(0, 0, 0);" text-anchor="middle">DE</tspan>
        </text>
        <text id="MD_label" x="1310.72" y="368.46" stroke-width="1.34" font-size="16.11" style="display: none;">
          <tspan id="MD_tspan" x="1310.72" y="368.46" fill="#000000" stroke-width="1.34" dy="0" font-family="Arial" font-size="20.13" font-style="normal" font-weight="400" style="text-align: center; fill: rgb(0, 0, 0);" text-anchor="middle">MD</tspan>
        </text>
        <text id="VA_label" x="1198.59" y="392.33" style="font-size: 19.2455px; stroke-width: 1.60379; display: none;">
          <tspan id="VA_tspan" x="1198.59" y="392.33" fill="#000000" dy="0" font-family="Arial" font-size="24.06" font-style="normal" font-weight="400" style="text-align: center; stroke-width: 2.57215; fill: rgb(0, 0, 0);" text-anchor="middle">VA</tspan>
        </text>
        <text id="WV_label" x="1129.66" y="382.3" style="font-size: 19.2455px; stroke-width: 1.60379; display: none;">
          <tspan id="WV_tspan" x="1129.66" y="382.3" fill="#000000" dy="0" font-family="Arial" font-size="24.06" font-style="normal" font-weight="400" style="text-align: center; stroke-width: 2.57215; fill: rgb(0, 0, 0);" text-anchor="middle">WV</tspan>
        </text>
        <text id="OH_label" x="1079.05" y="334.46" style="font-size: 19.2455px; stroke-width: 1.60379; display: none;">
          <tspan id="OH_tspan" x="1079.05" y="334.46" fill="#000000" dy="0" font-family="Arial" font-size="24.06" font-style="normal" font-weight="400" style="text-align: center; stroke-width: 2.57215; fill: rgb(0, 0, 0);" text-anchor="middle">OH</tspan>
        </text>
        <text id="IN_label" x="998.79" y="352.94" style="font-size: 19.2455px; stroke-width: 1.60379; display: none;">
          <tspan id="IN_tspan" x="998.79" y="352.94" fill="#000000" dy="0" font-family="Arial" font-size="24.06" font-style="normal" font-weight="400" style="text-align: center; stroke-width: 2.57215; fill: rgb(0, 0, 0);" text-anchor="middle">IN</tspan>
        </text>
        <text id="IL_label" x="927.43" y="364.36" style="font-size: 19.2455px; stroke-width: 1.60379; display: none;">
          <tspan id="IL_tspan" x="927.43" y="364.36" fill="#000000" dy="0" font-family="Arial" font-size="24.06" font-style="normal" font-weight="400" style="text-align: center; stroke-width: 2.57215; fill: rgb(0, 0, 0);" text-anchor="middle">IL</tspan>
        </text>
        <text id="CT_label" x="1299.17" y="228.46" stroke-width="1.06" font-size="12.74" style="display: none;">
          <tspan id="CT_tspan" x="1299.17" y="228.46" fill="#000000" stroke-width="1.06" dy="0" font-family="Arial" font-size="15.93" font-style="normal" font-weight="400" style="text-align: center; fill: rgb(0, 0, 0);" text-anchor="middle">CT</tspan>
        </text>
        <text id="WI_label" x="898.6" y="224.7" style="font-size: 19.2455px; stroke-width: 1.60379; display: none;">
          <tspan id="WI_tspan" x="898.6" y="224.7" fill="#000000" dy="0" font-family="Arial" font-size="24.06" font-style="normal" font-weight="400" style="text-align: center; stroke-width: 2.57215; fill: rgb(0, 0, 0);" text-anchor="middle">WI</tspan>
        </text>
        <text id="NC_label" x="1205.6" y="458.72" style="font-size: 19.2455px; stroke-width: 1.60379; display: none;">
          <tspan id="NC_tspan" x="1205.6" y="458.72" fill="#000000" dy="0" font-family="Arial" font-size="24.06" font-style="normal" font-weight="400" style="text-align: center; stroke-width: 2.57215; fill: rgb(0, 0, 0);" text-anchor="middle">NC</tspan>
        </text>
        <text id="MA_label" x="1305.87" y="200.67" stroke-width="1.04" font-size="12.46" style="display: none;">
          <tspan id="MA_tspan" x="1305.87" y="200.67" fill="#000000" stroke-width="1.04" dy="0" font-family="Arial" font-size="15.58" font-style="normal" font-weight="400" style="text-align: center; fill: rgb(0, 0, 0);" text-anchor="middle">MA</tspan>
        </text>
        <text id="MO_label" x="854.22" y="422.93" style="font-size: 19.2455px; stroke-width: 1.60379; display: none;">
          <tspan id="MO_tspan" x="854.22" y="422.93" fill="#000000" dy="0" font-family="Arial" font-size="24.06" font-style="normal" font-weight="400" style="text-align: center; stroke-width: 2.57215; fill: rgb(0, 0, 0);" text-anchor="middle">MO</tspan>
        </text>
        <text id="GA_label" x="1106.89" y="574.56" style="font-size: 19.2455px; stroke-width: 1.60379; display: none;">
          <tspan id="GA_tspan" x="1106.89" y="574.56" fill="#000000" dy="0" font-family="Arial" font-size="24.06" font-style="normal" font-weight="400" style="text-align: center; stroke-width: 2.57215; fill: rgb(0, 0, 0);" text-anchor="middle">GA</tspan>
        </text>
        <text id="SC_label" x="1166.32" y="522.49" style="font-size: 19.2455px; stroke-width: 1.60379; display: none;">
          <tspan id="SC_tspan" x="1166.32" y="522.49" fill="#000000" dy="0" font-family="Arial" font-size="24.06" font-style="normal" font-weight="400" style="text-align: center; stroke-width: 2.57215; fill: rgb(0, 0, 0);" text-anchor="middle">SC</tspan>
        </text>
        <text id="KY_label" x="1039.99" y="426.39" style="font-size: 19.2455px; stroke-width: 1.60379; display: none;">
          <tspan id="KY_tspan" x="1039.99" y="426.39" fill="#000000" dy="0" font-family="Arial" font-size="24.06" font-style="normal" font-weight="400" style="text-align: center; stroke-width: 2.57215; fill: rgb(0, 0, 0);" text-anchor="middle">KY</tspan>
        </text>
        <text id="AL_label" x="1019.59" y="578.15" style="font-size: 19.2455px; stroke-width: 1.60379; display: none;">
          <tspan id="AL_tspan" fill="#000000" dy="0" font-family="Arial" font-size="24.06" font-style="normal" font-weight="400" style="text-align: center; stroke-width: 2.57215; fill: rgb(0, 0, 0);" text-anchor="middle">AL</tspan>
        </text>
        <text id="LA_label" x="872.7" y="649.59" style="font-size: 19.2455px; stroke-width: 1.60379; display: none;">
          <tspan id="LA_tspan" x="872.7" y="649.59" fill="#000000" dy="0" font-family="Arial" font-size="24.06" font-style="normal" font-weight="400" style="text-align: center; stroke-width: 2.57215; fill: rgb(0, 0, 0);" text-anchor="middle">LA</tspan>
        </text>
        <text id="MS_label" x="940.37" y="592.21" style="font-size: 19.2455px; stroke-width: 1.60379; display: none;">
          <tspan id="MS_tspan" x="940.37" y="592.21" fill="#000000" dy="0" font-family="Arial" font-size="24.06" font-style="normal" font-weight="400" style="text-align: center; stroke-width: 2.57215; fill: rgb(0, 0, 0);" text-anchor="middle">MS</tspan>
        </text>
        <text id="IA_label" x="823.33" y="308.44" style="font-size: 19.2455px; stroke-width: 1.60379; display: none;">
          <tspan id="IA_tspan" x="823.33" y="308.44" fill="#000000" dy="0" font-family="Arial" font-size="24.06" font-style="normal" font-weight="400" style="text-align: center; stroke-width: 2.57215; fill: rgb(0, 0, 0);" text-anchor="middle">IA</tspan>
        </text>
        <text id="MN_label" x="790.84" y="183.37" style="font-size: 19.2455px; stroke-width: 1.60379; display: none;">
          <tspan id="MN_tspan" x="790.84" y="183.37" fill="#000000" dy="0" font-family="Arial" font-size="24.06" font-style="normal" font-weight="400" style="text-align: center; stroke-width: 2.57215; fill: rgb(0, 0, 0);" text-anchor="middle">MN</tspan>
        </text>
        <text id="OK_label" x="732.05" y="519.54" style="font-size: 19.2455px; stroke-width: 1.60379; display: none;">
          <tspan id="OK_tspan" x="732.05" y="519.54" fill="#000000" dy="0" font-family="Arial" font-size="24.06" font-style="normal" font-weight="400" style="text-align: center; stroke-width: 2.57215; fill: rgb(0, 0, 0);" text-anchor="middle">OK</tspan>
        </text>
        <text id="TX_label" x="710.59" y="652.87" style="font-size: 19.2455px; stroke-width: 1.60379; display: none;">
          <tspan id="TX_tspan" x="710.59" y="652.87" fill="#000000" dy="0" font-family="Arial" font-size="24.06" font-style="normal" font-weight="400" style="text-align: center; stroke-width: 2.57215; fill: rgb(0, 0, 0);" text-anchor="middle">TX</tspan>
        </text>
        <text id="NM_label" x="506.94" y="542.36" style="font-size: 19.2455px; stroke-width: 1.60379; display: none;">
          <tspan id="NM_tspan" x="506.94" y="542.36" fill="#000000" dy="0" font-family="Arial" font-size="24.06" font-style="normal" font-weight="400" style="text-align: center; stroke-width: 2.57215; fill: rgb(0, 0, 0);" text-anchor="middle">NM</tspan>
        </text>
        <text id="KS_label" x="701.21" y="427.26" style="font-size: 19.2455px; stroke-width: 1.60379; display: none;">
          <tspan id="KS_tspan" x="701.21" y="427.26" fill="#000000" dy="0" font-family="Arial" font-size="24.06" font-style="normal" font-weight="400" style="text-align: center; stroke-width: 2.57215; fill: rgb(0, 0, 0);" text-anchor="middle">KS</tspan>
        </text>
        <text id="NE_label" x="686.63" y="337.29" style="font-size: 19.2455px; stroke-width: 1.60379; display: none;">
          <tspan id="NE_tspan" x="686.63" y="337.29" fill="#000000" dy="0" font-family="Arial" font-size="24.06" font-style="normal" font-weight="400" style="text-align: center; stroke-width: 2.57215; fill: rgb(0, 0, 0);" text-anchor="middle">NE</tspan>
        </text>
        <text id="SD_label" x="663.02" y="238.75" style="font-size: 19.2455px; stroke-width: 1.60379; display: none;">
          <tspan id="SD_tspan" x="663.02" y="238.75" fill="#000000" dy="0" font-family="Arial" font-size="24.06" font-style="normal" font-weight="400" style="text-align: center; stroke-width: 2.57215; fill: rgb(0, 0, 0);" text-anchor="middle">SD</tspan>
        </text>
        <text id="ND_label" x="663.02" y="150.75" style="font-size: 19.2455px; stroke-width: 1.60379; display: none;">
          <tspan id="ND_tspan" x="663.02" y="150.75" fill="#000000" dy="0" font-family="Arial" font-size="24.06" font-style="normal" font-weight="400" style="text-align: center; stroke-width: 2.57215; fill: rgb(0, 0, 0);" text-anchor="middle">ND</tspan>
        </text>
        <text id="WY_label" x="499.57" y="276.47" style="font-size: 19.2455px; stroke-width: 1.60379; display: none;">
          <tspan id="WY_tspan" x="499.57" y="276.47" fill="#000000" dy="0" font-family="Arial" font-size="24.06" font-style="normal" font-weight="400" style="text-align: center; stroke-width: 2.57215; fill: rgb(0, 0, 0);" text-anchor="middle">WY</tspan>
        </text>
        <text id="MT_label" x="487.84" y="155.58" style="font-size: 19.2455px; stroke-width: 1.60379; display: none;">
          <tspan id="MT_tspan" x="487.84" y="155.58" fill="#000000" dy="0" font-family="Arial" font-size="24.06" font-style="normal" font-weight="400" style="text-align: center; stroke-width: 2.57215; fill: rgb(0, 0, 0);" text-anchor="middle">MT</tspan>
        </text>
        <text id="CO_label" x="525.13" y="406.28" style="font-size: 19.2455px; stroke-width: 1.60379; display: none;">
          <tspan id="CO_tspan" x="525.13" y="406.28" fill="#000000" dy="0" font-family="Arial" font-size="24.06" font-style="normal" font-weight="400" style="text-align: center; stroke-width: 2.57215; fill: rgb(0, 0, 0);" text-anchor="middle">CO</tspan>
        </text>
        <text id="ID_label" x="339.94" y="235.07" style="font-size: 19.2455px; stroke-width: 1.60379; display: none;">
          <tspan id="ID_tspan" x="339.94" y="235.07" fill="#000000" dy="0" font-family="Arial" font-size="24.06" font-style="normal" font-weight="400" style="text-align: center; stroke-width: 2.57215; fill: rgb(0, 0, 0);" text-anchor="middle">ID</tspan>
        </text>
        <text id="UT_label" x="396.81" y="386.73" style="font-size: 19.2455px; stroke-width: 1.60379; display: none;">
          <tspan id="UT_tspan" x="396.81" y="386.73" fill="#000000" dy="0" font-family="Arial" font-size="24.06" font-style="normal" font-weight="400" style="text-align: center; stroke-width: 2.57215; fill: rgb(0, 0, 0);" text-anchor="middle">UT</tspan>
        </text>
        <text id="AZ_label" x="366.76" y="536.9" style="font-size: 19.2455px; stroke-width: 1.60379; display: none;">
          <tspan id="AZ_tspan" x="366.76" y="536.9" fill="#000000" dy="0" font-family="Arial" font-size="24.06" font-style="normal" font-weight="400" style="text-align: center; stroke-width: 2.57215; fill: rgb(0, 0, 0);" text-anchor="middle">AZ</tspan>
        </text>
        <text id="NV_label" x="262.47" y="370.64" style="font-size: 19.2455px; stroke-width: 1.60379; display: none;">
          <tspan id="NV_tspan" x="262.47" y="370.64" fill="#000000" dy="0" font-family="Arial" font-size="24.06" font-style="normal" font-weight="400" style="text-align: center; stroke-width: 2.57215; fill: rgb(0, 0, 0);" text-anchor="middle">NV</tspan>
        </text>
        <text id="OR_label" x="214.43" y="206.88" style="font-size: 19.2455px; stroke-width: 1.60379; display: none;">
          <tspan id="OR_tspan" x="214.43" y="206.88" fill="#000000" dy="0" font-family="Arial" font-size="24.06" font-style="normal" font-weight="400" style="text-align: center; stroke-width: 2.57215; fill: rgb(0, 0, 0);" text-anchor="middle">OR</tspan>
        </text>
        <text id="WA_label" x="238.05" y="102.99" style="font-size: 19.2455px; stroke-width: 1.60379; display: none;">
          <tspan id="WA_tspan" x="238.05" y="102.99" fill="#000000" dy="0" font-family="Arial" font-size="24.06" font-style="normal" font-weight="400" style="text-align: center; stroke-width: 2.57215; fill: rgb(0, 0, 0);" text-anchor="middle">WA</tspan>
        </text>
        <text id="CA_label" x="191.69" y="434.8" style="font-size: 19.2455px; stroke-width: 1.60379; display: none;">
          <tspan id="CA_tspan" x="191.69" y="434.8" fill="#000000" dy="0" font-family="Arial" font-size="24.06" font-style="normal" font-weight="400" style="text-align: center; stroke-width: 2.57215; fill: rgb(0, 0, 0);" text-anchor="middle">CA</tspan>
        </text>
        <text id="DC_label" x="1309.32" y="398.19" stroke-width="1.29" font-size="15.45" style="display: none;">
          <tspan id="DC_tspan" x="1309.32" y="398.19" fill="#000000" stroke-width="1.29" dy="0" font-family="Arial" font-size="19.31" font-style="normal" font-weight="400" style="text-align: center; fill: rgb(0, 0, 0);" text-anchor="middle">DC</tspan>
        </text>
        <text id="TN_label" x="1018.93" y="485.72" style="font-size: 19.2455px; stroke-width: 1.60379; display: none;">
          <tspan id="TN_tspan" x="1018.93" y="485.72" fill="#000000" dy="0" font-family="Arial" font-size="24.06" font-style="normal" font-weight="400" style="text-align: center; stroke-width: 2.57215; fill: rgb(0, 0, 0);" text-anchor="middle">TN</tspan>
        </text>
        <text id="AR_label" x="863.15" y="535.77" style="font-size: 19.2455px; stroke-width: 1.60379; display: none;">
          <tspan id="AR_tspan" x="863.15" y="535.77" fill="#000000" dy="0" font-family="Arial" font-size="24.06" font-style="normal" font-weight="400" style="text-align: center; stroke-width: 2.57215; fill: rgb(0, 0, 0);" text-anchor="middle">AR</tspan>
        </text>
      </g>
      <g id="state_borders" transform="translate(-0.04777967,-0.15336683)" stroke="rgb(209, 219, 221)" style="stroke: rgb(0, 0, 0);" stroke-width="0.3">
        <path id="NE_SD_border" d="m576.15 274.26 5.47.17 4.48.16 18.93.53 6.98.14 9.27.17 5.34.07 3.12.14 15.36.06h9.43l16.35-.07 5.02-.03 11.55-.16 6.75-.12 9.2-.2.22.64.54.95.65.59.44-.12 1.8.93.4.45 1.58.35.88.64 1.14.48.54-.1.44.58 2.2 1.73.8.02 1.14-.23 1.03-.96.35-.6.26-1.31 1.07-.36 1.26.56 2.04.19 1.88-.57.96.3 1.3-.4.46.25 1 .1.53-.64.95-.01.4.3 1.2-.43.4.36.94-.03.7.28.24 1.16 1.38.38.47.74 1.36-.07 1.1.27.99.02.5.6-.02.64.32.03.95-.5 1.5.63.87.23.13 1 .88.28.83-.2.7.22.22.47-.48.87.14.57.5.65 1.14.78.35 1.2.52.27 1.02-.55.77.29.59.85.6.05.68-.37" stroke="rgb(209, 219, 221)" stroke-width="0.3" fill="none" style="stroke: rgb(0, 0, 0); display: none;"/>
        <path id="NE_CO_border" d="m620.65 370.45.15-10.66.3-21.07-5.66-.08-13.53-.25L587 338l-13.1-.43" stroke="rgb(209, 219, 221)" stroke-width="0.3" fill="none" style="stroke: rgb(0, 0, 0); display: none;"/>
        <path id="NE_WY_border" d="m573.93 337.58.17-4.93.3-8.26.2-6.5.58-15.9.42-11.88.17-4.76.38-11.1" stroke="rgb(209, 219, 221)" stroke-width="0.3" fill="none" style="stroke: rgb(0, 0, 0); display: none;"/>
      </g>
      <rect id="selection-rectangle" fill="#ffffccaa" stroke="rgb(209, 219, 221)" stroke-width="0.1"/>
      <ellipse id="selection-ellipse" fill="#ffffccaa" stroke="rgb(209, 219, 221)" stroke-width="0.1"/>
      <polygon id="selection-polygon" fill="#ffffccaa" stroke="rgb(209, 219, 221)" stroke-width="0.1"/>
      <polyline id="selection-polyline" fill="#ffffccaa" stroke="rgb(209, 219, 221)" stroke-width="0.1"/>
    </svg>
  </g>
</svg>
