<?xml version='1.0' encoding='UTF-8'?>
<svg xmlns="http://www.w3.org/2000/svg" xmlns:dc="http://purl.org/dc/elements/1.1/" xmlns:ns2="http://creativecommons.org/ns#" xmlns:rdf="http://www.w3.org/1999/02/22-rdf-syntax-ns#" id="wrapper" viewBox="0 0 1520 840" preserveAspectRatio="xMinYMin" height="840" width="1520" style="background-color: rgb(255, 255, 255);">
  <metadata>
    <rdf:rdf>
      <ns2:work rdf:about="">
        <dc:format>image/svg+xml</dc:format>
        <dc:type rdf:resource="http://purl.org/dc/dcmitype/StillImage"/>
        <dc:title>MapChart Map</dc:title>
        <dc:creator>
          <ns2:agent>
            <dc:title>MapChart.net</dc:title>
          </ns2:agent>
        </dc:creator>
        <ns2:license rdf:resource="http://creativecommons.org/licenses/by-sa/4.0/"/>
        <dc:description>This map was created with MapChart.net, a website for creating custom maps.</dc:description>
      </ns2:work>
      <ns2:license rdf:about="http://creativecommons.org/licenses/by-sa/4.0/">
        <ns2:permits rdf:resource="http://creativecommons.org/ns#Reproduction"/>
        <ns2:permits rdf:resource="http://creativecommons.org/ns#Distribution"/>
        <ns2:requires rdf:resource="http://creativecommons.org/ns#Notice"/>
        <ns2:requires rdf:resource="http://creativecommons.org/ns#Attribution"/>
        <ns2:requires rdf:resource="http://creativecommons.org/ns#ShareAlike"/>
      </ns2:license>
    </rdf:rdf>
  </metadata>
  <g id="map-group" transform="translate(-73.03172877353938,-778.4697873683549) scale(3.132640127892345)">
    <svg id="map" width="1520" height="840" version="1.1" viewBox="0 0 1520 840" preserveAspectRatio="xMinYMin" data-originalStrokeWidth="0.3">
      <defs>
        <pattern id="circles3" width="10" height="10" patternUnits="userSpaceOnUse">    <rect width="10" height="10" fill="#fff"/>    <circle cx="4" cy="4" r="2" fill="#000"/>    </pattern>
        <pattern id="diagonal1" width="10" height="10" patternUnits="userSpaceOnUse">    <rect width="10" height="10" fill="#fff"/>    </pattern>
        <pattern id="diagonal3" width="10" height="10" patternUnits="userSpaceOnUse">    <rect width="10" height="10" fill="#fff"/>    </pattern>
        <pattern id="vertical1" width="10" height="10" patternUnits="userSpaceOnUse">    <rect width="10" height="10" fill="#fff"/>    <rect x="2" y="0" width="1" height="10" fill="#000"/>    </pattern>
        <pattern id="vertical3" width="10" height="10" patternUnits="userSpaceOnUse">    <rect width="10" height="10" fill="#fff"/>    <rect x="2" y="0" width="3" height="10" fill="#000"/>    </pattern>
        <pattern id="horizontal1" width="10" height="10" patternUnits="userSpaceOnUse">    <rect width="10" height="10" fill="#fff"/>    <rect x="0" y="2" width="10" height="1" fill="#000"/>    </pattern>
        <pattern id="horizontal3" width="10" height="10" patternUnits="userSpaceOnUse">    <rect width="10" height="10" fill="#fff"/>    <rect x="0" y="2" width="10" height="3" fill="#000"/>    </pattern>
        <pattern id="crosshatch" width="8" height="8" patternUnits="userSpaceOnUse">    <rect width="8" height="8" fill="#fff"/>    </pattern>
        <pattern id="subtlepatch" width="5" height="5" patternUnits="userSpaceOnUse">    <rect width="5" height="5" fill="#fff"/>    <rect x="2" y="2" width="1" height="1" fill="#000"/>    </pattern>
        <pattern id="checkers" width="8" height="8" patternUnits="userSpaceOnUse">    <rect width="8" height="8" fill="#fff"/>    </pattern>
        <pattern id="raindrops" width="10" height="10" patternUnits="userSpaceOnUse">    <rect width="10" height="10" fill="#fff"/>    </pattern>
        <pattern id="texture" width="4" height="4" patternUnits="userSpaceOnUse">    <rect width="4" height="4" fill="#fff"/>    </pattern>
        <pattern id="circles3_a03500_000000" width="10" height="10" patternUnits="userSpaceOnUse">    <rect width="10" height="10" fill="#a03500"/>    <circle cx="4" cy="4" r="2" fill="#000000"/>    </pattern>
        <pattern id="diagonal1_d9b400_535353" width="10" height="10" patternUnits="userSpaceOnUse">    <rect width="10" height="10" fill="#d9b400"/>    </pattern>
        <pattern id="diagonal3_3264c8_ffffff" width="10" height="10" patternUnits="userSpaceOnUse">    <rect width="10" height="10" fill="#3264c8"/>    </pattern>
        <pattern id="horizontal1_72b38e_000000" width="10" height="10" patternUnits="userSpaceOnUse">    <rect width="10" height="10" fill="#72b38e"/>    <rect x="0" y="2" width="10" height="1" fill="#000000"/>    </pattern>
        <pattern id="horizontal3_986ba1_ffffff" width="10" height="10" patternUnits="userSpaceOnUse">    <rect width="10" height="10" fill="#986ba1"/>    <rect x="0" y="2" width="10" height="3" fill="#ffffff"/>    </pattern>
        <pattern id="vertical1_b9a087_ffffff" width="10" height="10" patternUnits="userSpaceOnUse">    <rect width="10" height="10" fill="#b9a087"/>    <rect x="2" y="0" width="1" height="10" fill="#ffffff"/>    </pattern>
        <pattern id="vertical3_4c91bf_ffff33" width="10" height="10" patternUnits="userSpaceOnUse">    <rect width="10" height="10" fill="#4c91bf"/>    <rect x="2" y="0" width="3" height="10" fill="#ffff33"/>    </pattern>
        <pattern id="checkers_cc3333_f7f7f7" width="8" height="8" patternUnits="userSpaceOnUse">    <rect width="8" height="8" fill="#cc3333"/>    </pattern>
        <pattern id="texture_d1dbdd_525252" width="4" height="4" patternUnits="userSpaceOnUse">    <rect width="4" height="4" fill="#d1dbdd"/>    </pattern>
        <style id="map-style">svg { background-color: #ffffff; }</style>
      </defs>
      <path id="NV01" d="m300 469.48.02.1.08.27-.18.19-.04.3.19.03.24.32-.2.22-.25.13-.02.02-.08.1-.07.16.02.5-.14.23.03.26.48 1.41.13.19-.1.57.1.13.1.24.06.09h-.03l.39.42.14.25.2.18-.2.24-.33.03-.38.24h-.22l-.08.2.2.47-.07.17-.2.35-.27.26.25.53-.13.73.1.34-.11.17-.03.38-.34.81.05.36.4.46-.03.33-.14.22-.12.16-.05.46.31.43.15.57.25.35-.12.52-.1.19-2.96-.45-1.61-.23-1.15-.2-.72-.1-2.1-.3-3.76-.63-1.46-.24.26-1.85-.03-.09.34-2.14-.01-.29.14-.53.33-1.94.05.01.31-2.27.1-.52-.26-.04.99-1.22.14-.31.07-.36.43-.18.3-.21.08-.48.23.02-.04.27.24-.16.04-.25.29.05.18-.12.09-.53.45.06.04-.22-.33-.05-.1-.19.1-.51.46-.05.04-.23.22-.08.17-.25h.11l.18-.36-1.02-.18-.08.46-1.34-.2-.16-.2.2-1.57.16-.32.18-.2.34.08.71-.97.1-.36 1.58.26.06-.48.67.1.05-.22.26.03.1-.21h.12l-.1.5.4.07.03.11.46-.02-.22 1.33.35.07-.28 2.17.65-.09.3-.12-.13.73.75-.23.27-.37-.12-.02.1-.57.46-.23.47-.04.4.5.18.04.63.42 1.77 1.63" fill="#d1dbdd" stroke="rgb(209, 219, 221)" stroke-width="0.1" data-originalStrokeWidth="0.1" style="stroke: rgb(0, 0, 0); fill: rgb(209, 219, 221); pointer-events: auto; stroke-width: 0.1;" pointer-events="auto"/>
      <path id="NV02" d="m201.2 372.69-.58-.78-.3-.4-.26-.32-.78-1.1-.5-.68-.36-.48-.44-.6-.72-.94-.3-.45-.04-.01-1.19-1.61-.56-.78-.35-.48-.2-.27-.47-.64-.09-.1-.61-.84-.53-.7-.72-.98-.45-.62-.14-.18-1.27-1.73-.86-1.18-.14-.18-.25-.33-.98-1.3.68-3.53.45-2.32.2-1.1.02-.15.28-1.43.65-3.14.66-2.84.02-.08.26-1.15.11-.51.05-.18.11-.66.4-1.8.27-1.36.16-.71.04-.22.27-1.3.2-.93.14-.72.15-.68.18-.77.34-1.64.2-.9.34-1.58.31-1.4.45-2.17.13-.67.34-1.6.08-.34.1-.55.39-1.84.3-1.35.26-1.36.39-1.79.4-1.96.83-4.1.17-.89.35-1.82.58-2.93.13-.68.3-1.51.32-1.54.29-1.41.5-2.57.79-3.82.27-1.24.46-2.28.07-.44.5-2.25.93-4.6.19-.92.16-.71.23-1.08.4-1.9.29-1.44.34-1.72.2-.9.79-3.89.76-3.73.3.03.4.08.47.08 2.77.54 1.11.24 1 .24.52.1.87.17.6.14 1.64.34 1.83.36 2.1.46.57.11.9.2.35.08 2.25.44.44.1.9.19 1.13.23 2.6.49 2.97.61 1.41.28.98.2.63.11.68.16.72.11.84.15h.12l1.49.25.72.12 3.24.59.45.07 1.3.24.39.06 1.4.26 1.05.2 1.54.27.11.03 2.83.5.93.16 1.04.19 3.46.63.93.17.1.02 1.38.25.28.06.5.07 2.14.37.68.1 2.23.42 4.26.73 1.92.32 2.46.45v-.02l.39.12 2.69.46 2.1.37.92.17.77.15 2.08.35 1.1.2 2.66.46 1.3.23.82.15.9.11.5.1 2.9.46.37.07.32.05.52.09 1.64.26.8.18.44.05.6.1.92.15.79.12.93.15.66.12.29.03 1.04.16.36.07.32.05.5.1.5.06.23.04.66.1.45.07 1.41.24 1.49.21.52.1.28.05.72.12.54.09.58.08.34.05.72.13 1.08.16.68.11.78.12.83.12 1.6.25.14.03 1.7.26.73.11 1.91.23.43.03.14.03.89.09.83.1.75.08.16.03.55.11 1.63.32.87.17.3.07.68.12.96.18.67.11.72.12.83.1.27.05 1.43.21 1.12.17.67.08 1.14.18.36.04.06.01.77.12.32.05.39.06.47.07.82.11.82.13 1.48.2.46.08-.07.5-.1.88-.06.44-.13 1-.05.4-.08.45-.19 1.36-.27 1.87-.13 1.04-.13.92-.21 1.57-.13.89-.25 1.6-.37 2.71-.04.3-.28 1.9-.15 1.08-.12.73-.1.83-.19 1.21-.14 1.02-.08.52-.28 1.97-.25 1.73-.14 1.02-.37 2.52-.18 1.3-.27 1.88-.34 2.4-.32 2.07-.18 1.26-.62 4.15-.11.9-.4 2.8-.27 1.86-.05.2-.1.71-.14.92-.17 1.26-.22 1.51-.13.92-.14.92-.36 2.6-.29 1.94-.33 2.46-.15.98-.27 1.9-.07.5-.19 1.33-.34 2.33-.17 1.3-.12.9-.14.92-.06.38-.31 2.2-.47 3.31-.14.95-.07.46-.1.76-.18 1.18-.23 1.69-.42 2.83-.21 1.48-.61 4.33-.05.43-.19 1.17-.25 1.77-.22 1.54-.22 1.54-.1.75-.14.88-.08.63-.44 3.06-.02.17-2.62-.37-7.53-1.1-3.82-.55-.06.03-.14.55-.36.97-.3 1.25-.44-.26-.74-.29-.57.12-.25-.1-.53.1-.19-.06-.41-.65-.34-.77v-.43l-.34-.14-.06-.43-.26-.63-3.96-.6-5.36-5.18-.59-.56-2.09-2.01-2.6-2.5-1.5-1.47-1.26-1.18-2.47-2.36-.16-.18-2.54-2.43-.8-.76-2.23-.36-.03.02-5.92-1-8.22-1.35-3.44-.6-.29-.05-5.93-1.07-5.24-.91-2.66-.48-4.16.02-6.8.26-2.25.23-9.02-1.65-.17-.06-2.98-.54-2.4-.46.22-1.24-1.33-.23.09-.45-.88-.19.1-.45-1.44-.27-3.87-.74.18-.92-1.3-.25.07-.43-.44-.1.08-.4-.58-.1.19-.92-.45-.08.06-.23-.64.13-.55-.06-.25-.06-.26-.26.03-.41-1-.85-.23-.13-.41 1.29-.48 1.8.03.07-1.37-.28-.05.24.16.2-.1.17-.3.13-.17.37.3.18 1.1.36h.54l.48.13-.07.31.43.1-.16.87 1.13.21.16.18-.05.31.4.08-2.48 2.88-.46.6-.56 2.89.34.06-.45.04-.17.2-.52-.04-.4-.3-.25-.1-.3.02-.43-.2-.08.1-.88-.18-.07.3-.47.1.05-.28-.27-.05-.3.09-.27.26-.2-.01-.24.24-.38.13-.72-.22-.52.16-.04-.15-.33-.03-.02.1-1.32-.26-.1.48.03.16.43-.12-.16.7-.1.22-.11.65.07.52.46 1.28.41 1.78-.53.54-.2.78-.22.53-.3-.51-.22-.16-.37-.1-.33 1.62" fill="#d1dbdd" stroke="rgb(209, 219, 221)" stroke-width="0.1" data-originalStrokeWidth="0.1" style="stroke: rgb(0, 0, 0); fill: rgb(209, 219, 221); pointer-events: auto; stroke-width: 0.1;" pointer-events="auto"/>
      <path id="NV03" d="m289.47 465.58-.14.32-.22 1.57.17.2 1.34.2.07-.46 1.02.18-.18.35h-.11l-.18.26-.21.08-.04.23-.47.05-.08.5.1.2.32.05-.04.22-.45-.06-.09.53-.18.12-.3-.05-.03.25-.24.16.04-.28h-.23l-.07.46-.3.22-.45.18-.06.36-.15.3-.98 1.23.25.04-.09.52-.31 2.27-.05-.01-.33 1.94-.14.54.01.29-.34 2.13.03.09-.26 1.85 1.46.24 3.77.63 2.09.3.73.1 1.15.2 1.6.23 2.96.45-.07.05-.4.13.26.56-.07.65.07.3-.23.37-.33.15-.1.32-.05.25.09.51-.08.19.17.27-.05.31v.21l.04.22.2.55.47.64.13.38.01.63.08.23.12.46.07.6.02.6-.15.71.04.95.06.4-.01.61-.06.3v.64l.15.33v.54l-.03.16-.07.48-.2.55.02.14-.25.37-.13.05-.34.05h-.16l-.37-.08-.38.12-.19.15-.23.26.04.11.03.07.07.06.1.06.52.42.16.23.02.1v.22l-.25.33-.47.27-.25.3-.08.21-.07.41.01.25.03.13-.51-.7-.39-.5-.17-.24-.27-.37-.72-.99-.36-.5-.82-1.07-.36-.52-.74-1-.3-.37-.1-.12-.9-1.22-1.1-1.5-.8-1.07-.22-.3-1.55-2.06-.35-.5-.07-.1-.2-.22-1.4-1.88-.07-.14-1.02-1.37-.99-1.37-.53-.69-.97-1.3-.86-1.2-.4-.5-.04-.06-.28-.39-.28-.4-1.4-1.85-1.4-1.9-1.5-2.03-.54-.71-1.02-1.38-.3-.44-1.59-2.14-1.3-1.73.8-4.98 1.6.17.34-.07.3-.18.81-.25.17.15.33.05.32-.06.36.04.37-.36.38-.07.35.2.52.03.4-.1.62.1.11.4-.03.48-.11.47v.16l-.13.33.3-.02.15-.3.34-.17.37-.04.1-.32.23-.36.19-.15.38-.02.28.43.31.25.81.39.3.27.37-.1.28-.17.4-.09.03-.26-.18-.03-.39-.52.08-.67-.22-.02.5-3.29.58-.32 1.48-.33v.09l.32.05-.25 1.71.03.13 1.3.18-.18 1.16.8.15-.23.67.17.02-.16 1.17-.08.7 1.07.15.23.09-.03.2.33.03" fill="#d1dbdd" stroke="rgb(209, 219, 221)" stroke-width="0.1" data-originalStrokeWidth="0.1" style="stroke: rgb(0, 0, 0); fill: rgb(209, 219, 221); pointer-events: auto; stroke-width: 0.1;" pointer-events="auto"/>
      <path id="NV04" d="m271.95 468.4-.25-.33-.3-.43-1.9-2.55-.8-1.08-1.32-1.78-.69-.94-.67-.91-.83-1.13-.92-1.24-.69-.92-2.64-3.57-.17-.18-.87-1.2-1.02-1.42-.6-.8-1.96-2.65-3.2-4.35-.88-1.17-1.67-2.3-1.12-1.48-.96-1.33-2.3-3.06-1.32-1.8-.64-.9-.46-.58-.81-1.13-.44-.55-3.73-5.07-1.04-1.44-1.05-1.4-.6-.78-1.08-1.47-.39-.54-.52-.76-.67-.8-.78-1.08-1.73-2.4-.78-1.08-.59-.7-.65-.9-.8-1.11-.5-.67-.71-.96-.31-.44-1.48-1.99-5.47-7.38-.72-.98-2.72-3.72-1-1.3-1.83-2.54-1.16-1.5-.5-.7-1.8-2.45-.66-.94-.55-.71-1.02-1.34-.55-.76-1.06-1.4-.28-.43-2.12-2.83-.15-.24-.55-.72-.78-1.05-.99-1.35.33-1.62.37.1.23.16.29.5.23-.52.19-.77.54-.55-.42-1.78-.46-1.28-.07-.52.12-.65.1-.22.15-.7-.43.12-.02-.16.09-.48 1.32.25.02-.1.33.04.04.15.52-.16.72.22.38-.13.24-.24h.2l.27-.25.3-.09.27.06-.05.29.47-.12.07-.3.88.17.09-.1.43.21.29-.01.25.1.4.3.52.04.18-.21.44-.04-.34-.06.56-2.9.46-.6 2.48-2.87-.4-.08.05-.3-.16-.19-1.13-.21.15-.87-.42-.1.08-.3-.49-.15-.54.01-1.1-.37-.3-.17.17-.37.28-.13.12-.17-.16-.2.05-.24 1.37.28-.03-.06.48-1.81.4-1.29.24.13 1 .85-.03.41.26.26.25.06.55.06.64-.13-.06.23.45.08-.19.91.58.1-.08.41.44.1-.08.43 1.31.25-.18.92 3.87.74 1.43.27-.09.45.88.19-.1.45 1.34.23-.22 1.23 2.4.46 2.98.55.17.06 9.02 1.65 2.24-.23 6.8-.26 4.17-.01 2.66.47 5.24.9 5.93 1.08.29.04 3.44.6 8.22 1.36 5.92 1 .03-.02 2.24.36.8.76 2.53 2.43.16.18 2.47 2.36 1.26 1.18 1.5 1.45 2.6 2.52 2.1 2.01.58.57 5.36 5.16 3.96.6.26.64.06.43.33.14.01.43.33.76.41.66.2.05.53-.09.24.1.58-.12.74.29.44.26.3-1.25.36-.97.14-.55.06-.03 3.82.56 7.53 1.1 2.62.36-.1.83-.57 3.94-.15.93-.17 1.3-.27 1.95-.12.83-.26 1.98-.17 1.18-.16.9-.14 1.01-.47 3.4-.2 1.34-.05.46-.27 1.9-.12.81-.13.93-.35 2.71-.07.44-.04.45-.23 1.37-.1.45-.13.86-.21 1.4-.14.93-.07.55-.06.43-.12.79-.03.16-.06.45-.11.77-.14 1-.37 2.63-.06.55-1.02 7.3-.4 2.7-.07.75-.3 2.36-.5 3.29-.27 2.11-.14.91-.23 1.62-.03.29-.12.92-.28 2.28-.29 2.28-.16 1.36-.16 1.64-.4 2.8-.11.62-.1.44-.1.91-.17.9-.15 1.38-.15 1.1-.07.54-.4.11-.25.24-.4.65-.08.22-.32.36-.2.51-.5.08-.19.3.19.4-.22.23-.34.5-.22.46v.3l-.12.2-.22.1-.01.18-.22.11-.17-.12-.13-.05-.21-.02-.44.15-.54.09-.54-.02-.26-.12-.45-.47-.1-.57-.46-.22-.17-.24-.25-.04-.14-.13.34-.42-.04-.23-.45-.83-.13-.04-.21-.42-.3-.33-.22-.51-.24.01-.62-.27h-.17l-.31.24-.56.3-.18-.17-.1-.28-.29-.08-.42.24h-.53l-.1-.2.28-.23-.17-.28-.14-.07-.43.04-.2-.15-.78-.1-.73.23-.49.28-.31-.45-.69.42-.16.17-.1.1-.2-.02-.28.18-.23-.14-.3.09h-.8l-.4.24-.19.26.21.62.03.09-1.77-1.63-.63-.42-.18-.04-.4-.5-.48.04-.45.23-.1.57.11.02-.26.37-.75.23.12-.73-.29.12-.66.1.3-2.19-.35-.07.22-1.32-.48.02v-.11l-.43-.07.11-.5h-.11l-.1.21-.27-.03-.04.23-.68-.11-.06.48-1.58-.26-.1.36-.7.97-.34-.08-.19.2-.33-.03.03-.2-.23-.08-1.07-.16.08-.7.16-1.16-.17-.03.23-.68-.8-.14.17-1.15-1.29-.19-.03-.13.25-1.7-.32-.06v-.09l-1.48.33-.59.32-.5 3.29.24.03-.09.66.4.52.18.03-.04.26-.4.09-.27.17-.37.09-.3-.27-.82-.38-.3-.25-.3-.43-.37.02-.19.15-.23.36-.1.32-.37.04-.34.17-.16.3-.28.02.13-.33-.01-.16.1-.47.05-.48-.11-.4-.64-.1-.4.1-.5-.04-.36-.19-.38.07-.37.36-.36-.04-.32.06-.33-.05-.17-.15-.8.25-.31.18-.33.07-1.6-.17-.81 4.98" fill="#d1dbdd" stroke="rgb(209, 219, 221)" stroke-width="0.1" data-originalStrokeWidth="0.1" style="stroke: rgb(0, 0, 0); fill: rgb(209, 219, 221); pointer-events: auto; stroke-width: 0.1;" pointer-events="auto"/>
      <g id="state_lines" stroke="rgb(209, 219, 221)" style="display: none; stroke: rgb(0, 0, 0);" stroke-width="0.1"/>
      <g id="state_abbr" fill="#000000" style="display: none; fill: rgb(0, 0, 0);">
        <text id="HI_label" x="491.79" y="769.82" style="font-size: 19.2455px; stroke-width: 1.60379; display: none;">
          <tspan id="HI_tspan" x="491.79" y="769.82" fill="#000000" dy="0" font-family="Arial" font-size="24.06" font-style="normal" font-weight="400" style="text-align: center; stroke-width: 2.57215; fill: rgb(0, 0, 0);" text-anchor="middle">HI</tspan>
        </text>
        <text id="AK_label" x="205.24" y="672.25" style="font-size: 19.2455px; stroke-width: 1.60379; display: none;">
          <tspan id="AK_tspan" x="205.24" y="672.25" fill="#000000" dy="0" font-family="Arial" font-size="24.06" font-style="normal" font-weight="400" style="text-align: center; stroke-width: 2.57215; fill: rgb(0, 0, 0);" text-anchor="middle">AK</tspan>
        </text>
        <text id="FL_label" x="1188.11" y="708.7" style="font-size: 19.2455px; stroke-width: 1.60379; display: none;">
          <tspan id="FL_tspan" x="1188.11" y="708.7" fill="#000000" dy="0" font-family="Arial" font-size="24.06" font-style="normal" font-weight="400" style="text-align: center; stroke-width: 2.57215; fill: rgb(0, 0, 0);" text-anchor="middle">FL</tspan>
        </text>
        <text id="NH_label" x="1306.05" y="167.79" stroke-width="1.1" font-size="13.25" style="display: none;">
          <tspan id="NH_tspan" x="1306.05" y="167.79" fill="#000000" stroke-width="1.1" dy="0" font-family="Arial" font-size="16.56" font-style="normal" font-weight="400" style="text-align: center; fill: rgb(0, 0, 0);" text-anchor="middle">NH</tspan>
        </text>
        <text id="MI_label" x="1019.65" y="246.58" style="font-size: 19.2455px; stroke-width: 1.60379; display: none;">
          <tspan id="MI_tspan" x="1019.65" y="246.58" fill="#000000" dy="0" font-family="Arial" font-size="24.06" font-style="normal" font-weight="400" style="text-align: center; stroke-width: 2.57215; fill: rgb(0, 0, 0);" text-anchor="middle">MI</tspan>
        </text>
        <text id="VT_label" x="1274.28" y="145.01" stroke-width="1.05" font-size="12.65" style="display: none;">
          <tspan id="VT_tspan" x="1274.28" y="145.01" fill="#000000" stroke-width="1.05" dy="0" font-family="Arial" font-size="15.81" font-style="normal" font-weight="400" style="text-align: center; fill: rgb(0, 0, 0);" text-anchor="middle">VT</tspan>
        </text>
        <text id="ME_label" x="1338.99" y="105.14" stroke-width="1.45" font-size="17.36" style="display: none;">
          <tspan id="ME_tspan" x="1338.99" y="105.14" fill="#000000" stroke-width="1.45" dy="0" font-family="Arial" font-size="21.7" font-style="normal" font-weight="400" style="text-align: center; fill: rgb(0, 0, 0);" text-anchor="middle">ME</tspan>
        </text>
        <text id="RI_label" x="1361.38" y="262.84" stroke-width="1.25" font-size="14.98" style="display: none;">
          <tspan id="RI_tspan" x="1361.38" y="262.84" fill="#000000" stroke-width="1.25" dy="0" font-family="Arial" font-size="18.72" font-style="normal" font-weight="400" style="text-align: center; fill: rgb(0, 0, 0);" text-anchor="middle">RI</tspan>
        </text>
        <text id="NY_label" x="1227.27" y="204.12" style="font-size: 19.2455px; stroke-width: 1.60379; display: none;">
          <tspan id="NY_tspan" x="1227.27" y="204.12" fill="#000000" dy="0" font-family="Arial" font-size="24.06" font-style="normal" font-weight="400" style="text-align: center; stroke-width: 2.57215; fill: rgb(0, 0, 0);" text-anchor="middle">NY</tspan>
        </text>
        <text id="PA_label" x="1187.28" y="284.69" style="font-size: 19.2455px; stroke-width: 1.60379; display: none;">
          <tspan id="PA_tspan" x="1187.28" y="284.69" fill="#000000" dy="0" font-family="Arial" font-size="24.06" font-style="normal" font-weight="400" style="text-align: center; stroke-width: 2.57215; fill: rgb(0, 0, 0);" text-anchor="middle">PA</tspan>
        </text>
        <text id="NJ_label" x="1330.57" y="290.09" stroke-width="1.28" font-size="15.4" style="display: none;">
          <tspan id="NJ_tspan" x="1330.57" y="290.09" fill="#000000" stroke-width="1.28" dy="0" font-family="Arial" font-size="19.25" font-style="normal" font-weight="400" style="text-align: center; fill: rgb(0, 0, 0);" text-anchor="middle">NJ</tspan>
        </text>
        <text id="DE_label" x="1320.8" y="328.42" stroke-width="1.36" font-size="16.38" style="display: none;">
          <tspan id="DE_tspan" x="1320.8" y="328.42" fill="#000000" stroke-width="1.36" dy="0" font-family="Arial" font-size="20.47" font-style="normal" font-weight="400" style="text-align: center; fill: rgb(0, 0, 0);" text-anchor="middle">DE</tspan>
        </text>
        <text id="MD_label" x="1310.72" y="368.46" stroke-width="1.34" font-size="16.11" style="display: none;">
          <tspan id="MD_tspan" x="1310.72" y="368.46" fill="#000000" stroke-width="1.34" dy="0" font-family="Arial" font-size="20.13" font-style="normal" font-weight="400" style="text-align: center; fill: rgb(0, 0, 0);" text-anchor="middle">MD</tspan>
        </text>
        <text id="VA_label" x="1198.59" y="392.33" style="font-size: 19.2455px; stroke-width: 1.60379; display: none;">
          <tspan id="VA_tspan" x="1198.59" y="392.33" fill="#000000" dy="0" font-family="Arial" font-size="24.06" font-style="normal" font-weight="400" style="text-align: center; stroke-width: 2.57215; fill: rgb(0, 0, 0);" text-anchor="middle">VA</tspan>
        </text>
        <text id="WV_label" x="1129.66" y="382.3" style="font-size: 19.2455px; stroke-width: 1.60379; display: none;">
          <tspan id="WV_tspan" x="1129.66" y="382.3" fill="#000000" dy="0" font-family="Arial" font-size="24.06" font-style="normal" font-weight="400" style="text-align: center; stroke-width: 2.57215; fill: rgb(0, 0, 0);" text-anchor="middle">WV</tspan>
        </text>
        <text id="OH_label" x="1079.05" y="334.46" style="font-size: 19.2455px; stroke-width: 1.60379; display: none;">
          <tspan id="OH_tspan" x="1079.05" y="334.46" fill="#000000" dy="0" font-family="Arial" font-size="24.06" font-style="normal" font-weight="400" style="text-align: center; stroke-width: 2.57215; fill: rgb(0, 0, 0);" text-anchor="middle">OH</tspan>
        </text>
        <text id="IN_label" x="998.79" y="352.94" style="font-size: 19.2455px; stroke-width: 1.60379; display: none;">
          <tspan id="IN_tspan" x="998.79" y="352.94" fill="#000000" dy="0" font-family="Arial" font-size="24.06" font-style="normal" font-weight="400" style="text-align: center; stroke-width: 2.57215; fill: rgb(0, 0, 0);" text-anchor="middle">IN</tspan>
        </text>
        <text id="IL_label" x="927.43" y="364.36" style="font-size: 19.2455px; stroke-width: 1.60379; display: none;">
          <tspan id="IL_tspan" x="927.43" y="364.36" fill="#000000" dy="0" font-family="Arial" font-size="24.06" font-style="normal" font-weight="400" style="text-align: center; stroke-width: 2.57215; fill: rgb(0, 0, 0);" text-anchor="middle">IL</tspan>
        </text>
        <text id="CT_label" x="1299.17" y="228.46" stroke-width="1.06" font-size="12.74" style="display: none;">
          <tspan id="CT_tspan" x="1299.17" y="228.46" fill="#000000" stroke-width="1.06" dy="0" font-family="Arial" font-size="15.93" font-style="normal" font-weight="400" style="text-align: center; fill: rgb(0, 0, 0);" text-anchor="middle">CT</tspan>
        </text>
        <text id="WI_label" x="898.6" y="224.7" style="font-size: 19.2455px; stroke-width: 1.60379; display: none;">
          <tspan id="WI_tspan" x="898.6" y="224.7" fill="#000000" dy="0" font-family="Arial" font-size="24.06" font-style="normal" font-weight="400" style="text-align: center; stroke-width: 2.57215; fill: rgb(0, 0, 0);" text-anchor="middle">WI</tspan>
        </text>
        <text id="NC_label" x="1205.6" y="458.72" style="font-size: 19.2455px; stroke-width: 1.60379; display: none;">
          <tspan id="NC_tspan" x="1205.6" y="458.72" fill="#000000" dy="0" font-family="Arial" font-size="24.06" font-style="normal" font-weight="400" style="text-align: center; stroke-width: 2.57215; fill: rgb(0, 0, 0);" text-anchor="middle">NC</tspan>
        </text>
        <text id="MA_label" x="1305.87" y="200.67" stroke-width="1.04" font-size="12.46" style="display: none;">
          <tspan id="MA_tspan" x="1305.87" y="200.67" fill="#000000" stroke-width="1.04" dy="0" font-family="Arial" font-size="15.58" font-style="normal" font-weight="400" style="text-align: center; fill: rgb(0, 0, 0);" text-anchor="middle">MA</tspan>
        </text>
        <text id="MO_label" x="854.22" y="422.93" style="font-size: 19.2455px; stroke-width: 1.60379; display: none;">
          <tspan id="MO_tspan" x="854.22" y="422.93" fill="#000000" dy="0" font-family="Arial" font-size="24.06" font-style="normal" font-weight="400" style="text-align: center; stroke-width: 2.57215; fill: rgb(0, 0, 0);" text-anchor="middle">MO</tspan>
        </text>
        <text id="GA_label" x="1106.89" y="574.56" style="font-size: 19.2455px; stroke-width: 1.60379; display: none;">
          <tspan id="GA_tspan" x="1106.89" y="574.56" fill="#000000" dy="0" font-family="Arial" font-size="24.06" font-style="normal" font-weight="400" style="text-align: center; stroke-width: 2.57215; fill: rgb(0, 0, 0);" text-anchor="middle">GA</tspan>
        </text>
        <text id="SC_label" x="1166.32" y="522.49" style="font-size: 19.2455px; stroke-width: 1.60379; display: none;">
          <tspan id="SC_tspan" x="1166.32" y="522.49" fill="#000000" dy="0" font-family="Arial" font-size="24.06" font-style="normal" font-weight="400" style="text-align: center; stroke-width: 2.57215; fill: rgb(0, 0, 0);" text-anchor="middle">SC</tspan>
        </text>
        <text id="KY_label" x="1039.99" y="426.39" style="font-size: 19.2455px; stroke-width: 1.60379; display: none;">
          <tspan id="KY_tspan" x="1039.99" y="426.39" fill="#000000" dy="0" font-family="Arial" font-size="24.06" font-style="normal" font-weight="400" style="text-align: center; stroke-width: 2.57215; fill: rgb(0, 0, 0);" text-anchor="middle">KY</tspan>
        </text>
        <text id="AL_label" x="1019.59" y="578.15" style="font-size: 19.2455px; stroke-width: 1.60379; display: none;">
          <tspan id="AL_tspan" fill="#000000" dy="0" font-family="Arial" font-size="24.06" font-style="normal" font-weight="400" style="text-align: center; stroke-width: 2.57215; fill: rgb(0, 0, 0);" text-anchor="middle">AL</tspan>
        </text>
        <text id="LA_label" x="872.7" y="649.59" style="font-size: 19.2455px; stroke-width: 1.60379; display: none;">
          <tspan id="LA_tspan" x="872.7" y="649.59" fill="#000000" dy="0" font-family="Arial" font-size="24.06" font-style="normal" font-weight="400" style="text-align: center; stroke-width: 2.57215; fill: rgb(0, 0, 0);" text-anchor="middle">LA</tspan>
        </text>
        <text id="MS_label" x="940.37" y="592.21" style="font-size: 19.2455px; stroke-width: 1.60379; display: none;">
          <tspan id="MS_tspan" x="940.37" y="592.21" fill="#000000" dy="0" font-family="Arial" font-size="24.06" font-style="normal" font-weight="400" style="text-align: center; stroke-width: 2.57215; fill: rgb(0, 0, 0);" text-anchor="middle">MS</tspan>
        </text>
        <text id="IA_label" x="823.33" y="308.44" style="font-size: 19.2455px; stroke-width: 1.60379; display: none;">
          <tspan id="IA_tspan" x="823.33" y="308.44" fill="#000000" dy="0" font-family="Arial" font-size="24.06" font-style="normal" font-weight="400" style="text-align: center; stroke-width: 2.57215; fill: rgb(0, 0, 0);" text-anchor="middle">IA</tspan>
        </text>
        <text id="MN_label" x="790.84" y="183.37" style="font-size: 19.2455px; stroke-width: 1.60379; display: none;">
          <tspan id="MN_tspan" x="790.84" y="183.37" fill="#000000" dy="0" font-family="Arial" font-size="24.06" font-style="normal" font-weight="400" style="text-align: center; stroke-width: 2.57215; fill: rgb(0, 0, 0);" text-anchor="middle">MN</tspan>
        </text>
        <text id="OK_label" x="732.05" y="519.54" style="font-size: 19.2455px; stroke-width: 1.60379; display: none;">
          <tspan id="OK_tspan" x="732.05" y="519.54" fill="#000000" dy="0" font-family="Arial" font-size="24.06" font-style="normal" font-weight="400" style="text-align: center; stroke-width: 2.57215; fill: rgb(0, 0, 0);" text-anchor="middle">OK</tspan>
        </text>
        <text id="TX_label" x="710.59" y="652.87" style="font-size: 19.2455px; stroke-width: 1.60379; display: none;">
          <tspan id="TX_tspan" x="710.59" y="652.87" fill="#000000" dy="0" font-family="Arial" font-size="24.06" font-style="normal" font-weight="400" style="text-align: center; stroke-width: 2.57215; fill: rgb(0, 0, 0);" text-anchor="middle">TX</tspan>
        </text>
        <text id="NM_label" x="506.94" y="542.36" style="font-size: 19.2455px; stroke-width: 1.60379; display: none;">
          <tspan id="NM_tspan" x="506.94" y="542.36" fill="#000000" dy="0" font-family="Arial" font-size="24.06" font-style="normal" font-weight="400" style="text-align: center; stroke-width: 2.57215; fill: rgb(0, 0, 0);" text-anchor="middle">NM</tspan>
        </text>
        <text id="KS_label" x="701.21" y="427.26" style="font-size: 19.2455px; stroke-width: 1.60379; display: none;">
          <tspan id="KS_tspan" x="701.21" y="427.26" fill="#000000" dy="0" font-family="Arial" font-size="24.06" font-style="normal" font-weight="400" style="text-align: center; stroke-width: 2.57215; fill: rgb(0, 0, 0);" text-anchor="middle">KS</tspan>
        </text>
        <text id="NE_label" x="686.63" y="337.29" style="font-size: 19.2455px; stroke-width: 1.60379; display: none;">
          <tspan id="NE_tspan" x="686.63" y="337.29" fill="#000000" dy="0" font-family="Arial" font-size="24.06" font-style="normal" font-weight="400" style="text-align: center; stroke-width: 2.57215; fill: rgb(0, 0, 0);" text-anchor="middle">NE</tspan>
        </text>
        <text id="SD_label" x="663.02" y="238.75" style="font-size: 19.2455px; stroke-width: 1.60379; display: none;">
          <tspan id="SD_tspan" x="663.02" y="238.75" fill="#000000" dy="0" font-family="Arial" font-size="24.06" font-style="normal" font-weight="400" style="text-align: center; stroke-width: 2.57215; fill: rgb(0, 0, 0);" text-anchor="middle">SD</tspan>
        </text>
        <text id="ND_label" x="663.02" y="150.75" style="font-size: 19.2455px; stroke-width: 1.60379; display: none;">
          <tspan id="ND_tspan" x="663.02" y="150.75" fill="#000000" dy="0" font-family="Arial" font-size="24.06" font-style="normal" font-weight="400" style="text-align: center; stroke-width: 2.57215; fill: rgb(0, 0, 0);" text-anchor="middle">ND</tspan>
        </text>
        <text id="WY_label" x="499.57" y="276.47" style="font-size: 19.2455px; stroke-width: 1.60379; display: none;">
          <tspan id="WY_tspan" x="499.57" y="276.47" fill="#000000" dy="0" font-family="Arial" font-size="24.06" font-style="normal" font-weight="400" style="text-align: center; stroke-width: 2.57215; fill: rgb(0, 0, 0);" text-anchor="middle">WY</tspan>
        </text>
        <text id="MT_label" x="487.84" y="155.58" style="font-size: 19.2455px; stroke-width: 1.60379; display: none;">
          <tspan id="MT_tspan" x="487.84" y="155.58" fill="#000000" dy="0" font-family="Arial" font-size="24.06" font-style="normal" font-weight="400" style="text-align: center; stroke-width: 2.57215; fill: rgb(0, 0, 0);" text-anchor="middle">MT</tspan>
        </text>
        <text id="CO_label" x="525.13" y="406.28" style="font-size: 19.2455px; stroke-width: 1.60379; display: none;">
          <tspan id="CO_tspan" x="525.13" y="406.28" fill="#000000" dy="0" font-family="Arial" font-size="24.06" font-style="normal" font-weight="400" style="text-align: center; stroke-width: 2.57215; fill: rgb(0, 0, 0);" text-anchor="middle">CO</tspan>
        </text>
        <text id="ID_label" x="339.94" y="235.07" style="font-size: 19.2455px; stroke-width: 1.60379; display: none;">
          <tspan id="ID_tspan" x="339.94" y="235.07" fill="#000000" dy="0" font-family="Arial" font-size="24.06" font-style="normal" font-weight="400" style="text-align: center; stroke-width: 2.57215; fill: rgb(0, 0, 0);" text-anchor="middle">ID</tspan>
        </text>
        <text id="UT_label" x="396.81" y="386.73" style="font-size: 19.2455px; stroke-width: 1.60379; display: none;">
          <tspan id="UT_tspan" x="396.81" y="386.73" fill="#000000" dy="0" font-family="Arial" font-size="24.06" font-style="normal" font-weight="400" style="text-align: center; stroke-width: 2.57215; fill: rgb(0, 0, 0);" text-anchor="middle">UT</tspan>
        </text>
        <text id="AZ_label" x="366.76" y="536.9" style="font-size: 19.2455px; stroke-width: 1.60379; display: none;">
          <tspan id="AZ_tspan" x="366.76" y="536.9" fill="#000000" dy="0" font-family="Arial" font-size="24.06" font-style="normal" font-weight="400" style="text-align: center; stroke-width: 2.57215; fill: rgb(0, 0, 0);" text-anchor="middle">AZ</tspan>
        </text>
        <text id="NV_label" x="262.47" y="370.64" style="font-size: 19.2455px; stroke-width: 1.60379; display: none;">
          <tspan id="NV_tspan" x="262.47" y="370.64" fill="#000000" dy="0" font-family="Arial" font-size="24.06" font-style="normal" font-weight="400" style="text-align: center; stroke-width: 2.57215; fill: rgb(0, 0, 0);" text-anchor="middle">NV</tspan>
        </text>
        <text id="OR_label" x="214.43" y="206.88" style="font-size: 19.2455px; stroke-width: 1.60379; display: none;">
          <tspan id="OR_tspan" x="214.43" y="206.88" fill="#000000" dy="0" font-family="Arial" font-size="24.06" font-style="normal" font-weight="400" style="text-align: center; stroke-width: 2.57215; fill: rgb(0, 0, 0);" text-anchor="middle">OR</tspan>
        </text>
        <text id="WA_label" x="238.05" y="102.99" style="font-size: 19.2455px; stroke-width: 1.60379; display: none;">
          <tspan id="WA_tspan" x="238.05" y="102.99" fill="#000000" dy="0" font-family="Arial" font-size="24.06" font-style="normal" font-weight="400" style="text-align: center; stroke-width: 2.57215; fill: rgb(0, 0, 0);" text-anchor="middle">WA</tspan>
        </text>
        <text id="CA_label" x="191.69" y="434.8" style="font-size: 19.2455px; stroke-width: 1.60379; display: none;">
          <tspan id="CA_tspan" x="191.69" y="434.8" fill="#000000" dy="0" font-family="Arial" font-size="24.06" font-style="normal" font-weight="400" style="text-align: center; stroke-width: 2.57215; fill: rgb(0, 0, 0);" text-anchor="middle">CA</tspan>
        </text>
        <text id="DC_label" x="1309.32" y="398.19" stroke-width="1.29" font-size="15.45" style="display: none;">
          <tspan id="DC_tspan" x="1309.32" y="398.19" fill="#000000" stroke-width="1.29" dy="0" font-family="Arial" font-size="19.31" font-style="normal" font-weight="400" style="text-align: center; fill: rgb(0, 0, 0);" text-anchor="middle">DC</tspan>
        </text>
        <text id="TN_label" x="1018.93" y="485.72" style="font-size: 19.2455px; stroke-width: 1.60379; display: none;">
          <tspan id="TN_tspan" x="1018.93" y="485.72" fill="#000000" dy="0" font-family="Arial" font-size="24.06" font-style="normal" font-weight="400" style="text-align: center; stroke-width: 2.57215; fill: rgb(0, 0, 0);" text-anchor="middle">TN</tspan>
        </text>
        <text id="AR_label" x="863.15" y="535.77" style="font-size: 19.2455px; stroke-width: 1.60379; display: none;">
          <tspan id="AR_tspan" x="863.15" y="535.77" fill="#000000" dy="0" font-family="Arial" font-size="24.06" font-style="normal" font-weight="400" style="text-align: center; stroke-width: 2.57215; fill: rgb(0, 0, 0);" text-anchor="middle">AR</tspan>
        </text>
      </g>
      <g id="state_borders" transform="translate(-0.04777967,-0.15336683)" stroke="rgb(209, 219, 221)" style="stroke: rgb(0, 0, 0);" stroke-width="0.3">
        <path id="NV_ID_border" d="m343.8 285.69-5.52-.82-4.28-.65-3-.4-4.75-.95-1.61-.22-3.6-.38-6.48-1-7.17-1.17-5.6-.87-10.61-1.77-.83-.1-13.75-2.43-1.3-.25" stroke="rgb(209, 219, 221)" stroke-width="0.3" fill="none" style="stroke: rgb(0, 0, 0); display: none;"/>
        <path id="NV_CA_border" d="m207.38 261.9-2.4 11.7-.78 3.68-2.02 9.83-1.98 9.64-2.28 11.62-1.54 7.38-1.98 9.5-1.58 7.29-1.2 5.69-2.1 9.74-1.33 7.03 9.89 13.35 2.3 3.16 5.5 7.37 1.88 2.6 1.02 1.33 3.5 4.79 1.15 1.5 9.25 12.55 5.52 7.45 1.43 2 .6.7 3.28 4.55.66.8 2 2.78 1.66 2.18 2.54 3.48 7.67 10.34 5.98 8.12 4.6 6.2 15.42 20.85 1.73 2.3 3.54 4.84 9.73 13.12 8.8 11.9" stroke="rgb(209, 219, 221)" stroke-width="0.3" fill="none" style="stroke: rgb(0, 0, 0); display: none;"/>
        <path id="NV_AZ_border" d="m321.47 442.6-1.34 9.8-1.22 9.76-.53 3.33-.31 2.53-.68.4-.96 1.6-.68.36.16.47-.73 1.12-.16.58-.43.4-.32-.17-1.23.2-.64-.05-.6-.55-.06-.54-.97-.52.28-.53-.48-1.03-.92-1.35-1.06-.23-.8.52-.27-.43-.71.15-.62-.08.1-.64-1.55-.26-1.24.49-.33-.46-.92.72-.5.15-1.35-.05-.55.54.33.9-.22.39.4.64-.5.36-.17 1.18.5 1.5.17.98.8 1-1.2.64.2.57-.54.75.25.55-.08 1.1-.44 1.35.45.77-.34 1.16.7 1.43-.24.7-.43.22.23.52.02.94-.6.57-.13.75.14 1.3.23.7.53.7.4 2.76-.17.89.09 1.1-.04 1.7.13.86-.3 1.4-.74.44-.8-.03-.5.46.95 1-.12.48-.9.87-.05.84" stroke="rgb(209, 219, 221)" stroke-width="0.3" fill="none" style="stroke: rgb(0, 0, 0); display: none;"/>
        <path id="NV_OR_border" d="m207.38 261.92 2.8.5 9.84 2.06 5.37 1.14 4.72.9 6.96 1.42 4.48.73 14.35 2.6 5.67 1.03 9.8 1.68 3.95.7" stroke="rgb(209, 219, 221)" stroke-width="0.3" fill="none" style="stroke: rgb(0, 0, 0); display: none;"/>
        <path id="NV_UT_border" d="m321.47 442.62.37-2.8 1.45-10.34.75-5.5.7-4.81.4-2.44.78-5.54 1.2-8.33 1-7.4 2.29-15.88 2.23-15.54.18-1.36 3.82-26.9 1.73-11.71 3.26-22.6 1.75-12.35.44-3.42" stroke="rgb(209, 219, 221)" stroke-width="0.3" fill="none" style="stroke: rgb(0, 0, 0); display: none;"/>
      </g>
      <rect id="selection-rectangle" fill="#ffffccaa" stroke="rgb(209, 219, 221)" stroke-width="0.1"/>
      <ellipse id="selection-ellipse" fill="#ffffccaa" stroke="rgb(209, 219, 221)" stroke-width="0.1"/>
      <polygon id="selection-polygon" fill="#ffffccaa" stroke="rgb(209, 219, 221)" stroke-width="0.1"/>
      <polyline id="selection-polyline" fill="#ffffccaa" stroke="rgb(209, 219, 221)" stroke-width="0.1"/>
    </svg>
  </g>
</svg>
