<?xml version='1.0' encoding='UTF-8'?>
<svg xmlns="http://www.w3.org/2000/svg" xmlns:dc="http://purl.org/dc/elements/1.1/" xmlns:ns2="http://creativecommons.org/ns#" xmlns:rdf="http://www.w3.org/1999/02/22-rdf-syntax-ns#" id="wrapper" viewBox="0 0 1520 840" preserveAspectRatio="xMinYMin" height="840" width="1520" style="background-color: rgb(255, 255, 255);">
  <metadata>
    <rdf:rdf>
      <ns2:work rdf:about="">
        <dc:format>image/svg+xml</dc:format>
        <dc:type rdf:resource="http://purl.org/dc/dcmitype/StillImage"/>
        <dc:title>MapChart Map</dc:title>
        <dc:creator>
          <ns2:agent>
            <dc:title>MapChart.net</dc:title>
          </ns2:agent>
        </dc:creator>
        <ns2:license rdf:resource="http://creativecommons.org/licenses/by-sa/4.0/"/>
        <dc:description>This map was created with MapChart.net, a website for creating custom maps.</dc:description>
      </ns2:work>
      <ns2:license rdf:about="http://creativecommons.org/licenses/by-sa/4.0/">
        <ns2:permits rdf:resource="http://creativecommons.org/ns#Reproduction"/>
        <ns2:permits rdf:resource="http://creativecommons.org/ns#Distribution"/>
        <ns2:requires rdf:resource="http://creativecommons.org/ns#Notice"/>
        <ns2:requires rdf:resource="http://creativecommons.org/ns#Attribution"/>
        <ns2:requires rdf:resource="http://creativecommons.org/ns#ShareAlike"/>
      </ns2:license>
    </rdf:rdf>
  </metadata>
  <g id="map-group" transform="translate(-9700.9970703125,-737.6003723144531) scale(8)">
    <svg id="map" width="1520" height="840" version="1.1" viewBox="0 0 1520 840" preserveAspectRatio="xMinYMin" data-originalStrokeWidth="0.3">
      <defs>
        <pattern id="circles3" width="10" height="10" patternUnits="userSpaceOnUse">    <rect width="10" height="10" fill="#fff"/>    <circle cx="4" cy="4" r="2" fill="#000"/>    </pattern>
        <pattern id="diagonal1" width="10" height="10" patternUnits="userSpaceOnUse">    <rect width="10" height="10" fill="#fff"/>    </pattern>
        <pattern id="diagonal3" width="10" height="10" patternUnits="userSpaceOnUse">    <rect width="10" height="10" fill="#fff"/>    </pattern>
        <pattern id="vertical1" width="10" height="10" patternUnits="userSpaceOnUse">    <rect width="10" height="10" fill="#fff"/>    <rect x="2" y="0" width="1" height="10" fill="#000"/>    </pattern>
        <pattern id="vertical3" width="10" height="10" patternUnits="userSpaceOnUse">    <rect width="10" height="10" fill="#fff"/>    <rect x="2" y="0" width="3" height="10" fill="#000"/>    </pattern>
        <pattern id="horizontal1" width="10" height="10" patternUnits="userSpaceOnUse">    <rect width="10" height="10" fill="#fff"/>    <rect x="0" y="2" width="10" height="1" fill="#000"/>    </pattern>
        <pattern id="horizontal3" width="10" height="10" patternUnits="userSpaceOnUse">    <rect width="10" height="10" fill="#fff"/>    <rect x="0" y="2" width="10" height="3" fill="#000"/>    </pattern>
        <pattern id="crosshatch" width="8" height="8" patternUnits="userSpaceOnUse">    <rect width="8" height="8" fill="#fff"/>    </pattern>
        <pattern id="subtlepatch" width="5" height="5" patternUnits="userSpaceOnUse">    <rect width="5" height="5" fill="#fff"/>    <rect x="2" y="2" width="1" height="1" fill="#000"/>    </pattern>
        <pattern id="checkers" width="8" height="8" patternUnits="userSpaceOnUse">    <rect width="8" height="8" fill="#fff"/>    </pattern>
        <pattern id="raindrops" width="10" height="10" patternUnits="userSpaceOnUse">    <rect width="10" height="10" fill="#fff"/>    </pattern>
        <pattern id="texture" width="4" height="4" patternUnits="userSpaceOnUse">    <rect width="4" height="4" fill="#fff"/>    </pattern>
        <pattern id="circles3_a03500_000000" width="10" height="10" patternUnits="userSpaceOnUse">    <rect width="10" height="10" fill="#a03500"/>    <circle cx="4" cy="4" r="2" fill="#000000"/>    </pattern>
        <pattern id="diagonal1_d9b400_535353" width="10" height="10" patternUnits="userSpaceOnUse">    <rect width="10" height="10" fill="#d9b400"/>    </pattern>
        <pattern id="diagonal3_3264c8_ffffff" width="10" height="10" patternUnits="userSpaceOnUse">    <rect width="10" height="10" fill="#3264c8"/>    </pattern>
        <pattern id="horizontal1_72b38e_000000" width="10" height="10" patternUnits="userSpaceOnUse">    <rect width="10" height="10" fill="#72b38e"/>    <rect x="0" y="2" width="10" height="1" fill="#000000"/>    </pattern>
        <pattern id="horizontal3_986ba1_ffffff" width="10" height="10" patternUnits="userSpaceOnUse">    <rect width="10" height="10" fill="#986ba1"/>    <rect x="0" y="2" width="10" height="3" fill="#ffffff"/>    </pattern>
        <pattern id="vertical1_b9a087_ffffff" width="10" height="10" patternUnits="userSpaceOnUse">    <rect width="10" height="10" fill="#b9a087"/>    <rect x="2" y="0" width="1" height="10" fill="#ffffff"/>    </pattern>
        <pattern id="vertical3_4c91bf_ffff33" width="10" height="10" patternUnits="userSpaceOnUse">    <rect width="10" height="10" fill="#4c91bf"/>    <rect x="2" y="0" width="3" height="10" fill="#ffff33"/>    </pattern>
        <pattern id="checkers_cc3333_f7f7f7" width="8" height="8" patternUnits="userSpaceOnUse">    <rect width="8" height="8" fill="#cc3333"/>    </pattern>
        <pattern id="texture_d1dbdd_525252" width="4" height="4" patternUnits="userSpaceOnUse">    <rect width="4" height="4" fill="#d1dbdd"/>    </pattern>
        <style id="map-style">svg { background-color: #ffffff; }</style>
      </defs>
      <path id="NH01" d="m1327.66 172.45-.13.08-.1.1-.13.18-.22.19-.42-.16-.12-.05-.04-.01-.38-.15-.1-.03-.39.02-.56.25-.13.15-.2.25-.32.34-.41.24-.2.1-.4.21-.3.2-.2.4-.01.16-.04.39.03.88h-.9l-.02.01h-.32l.02-.2-.24-.28-.08-.22-.56-.44-.08.27h-.29l-.56.17-.16-.08-.04.17-.27-.27-.15.29.1.2-.75.37-.25.04-2 .98.08.06.09.38.11.02.05.4-.19.43-.81-.56-.88.24-.97-1.87-.38-.35-.06.58-.27.79.22.46.06.38.42.55.13.33.18.15.02.2-.1.16h-.4l-.15-.3-.28.07-.11.2-.43.08-.27-.03-.13.48-.56-1.17-.9-1.8.15-.07-.71-1.33-.58.3-.42-.85-.84-1.52-.18.03v-.32l-.32-.57 2.69-1.38-.1-.18.59-1.72.05.15.17-.15 3.35-.2 1.5-.14.88-.05.19-1.16-.39.04.2-.7.45.19.16-.52-.48-.12.53-2.04-2.19-.96-1.13-.48.16-.37-3.06-1.07-5.35-1.8-.29.02-.23.34-.33.2-.12.32-.08-.13-.18.12-.24-.12-.3-.4-.12-.28.09-.07-.5-.57-.3.22-.08-.1-.57-.11-.44-.37-.07-.43-.47-.13 1.25-2.32.52-.96.6-1.25 1.04-1.89.5.23.37-.4-.69-.35-1.35-.7-.57-.3-.05-.1 2.6-1.2 1.61-.75-1.87-3.57.7-.33-.1-.28.27-.13.13.28.61-.27 1.41-.77.59-1.43.6-.22-.93-1.74-.52.23-3.03.9-1.33.5.08-.24.27-1.42-.42.15-.61-.77.05-.23-.13-.45-.59-1.02-.67-.18-.71-1.23.65-.32.57 1 .72.2.7 1.19.29.94.23.14.2-.26.25-.08-.23-1.44 1.39-.53v.08l.63.04v-.32h.53l.52-.06.05.12.31-.07.86-.31.23.03-1.1-3.34.58-.26.62-.2-.37-1.12-.13-.26.72-.26.2.56.14.38.1.3.05.1.03.1.11.34.11.28.17.44.38 1.1.34.96.22.6.19.5.07.25.27.7.19.54.1.2.15.48.11.33.11.3.23.63.22.66.23.61.2.55.02.05.12.3.1.32.32.96.19.5.25.72.3.87v.06l.55 1.32.38 1.03.47 1.24.42 1.09.17.42.02.05.03.12.22.59.15.44.15.26.37.14.22.3.06.3-.06-.03-.13.08.06.2.14.06v.05l.05.05.02.08.03.03.04.02.01.02.05.09v.1l-.02.05v.07l.1.07-.04.4-.02.15-.03.1.07.32-.02.04-.04.05-.05.07.23.06.05.01.14.14-.02.43.27.39-.09.17h-.02l-.04.45-.17.28v.1l.14.3.1.09v.13l.08.39.09.09.36.4-.04.15.17.07.05.2.37.15.1.15.55-.22v.05l.22.22.02.03.13-.04.42.49.04-.01.04-.04.05.04.2.14-.15.28.2.06.16.06.29.09.05.2.2-.03.27.1.05.03.12.19.26-.02.24.07v.11h.02l.03-.02.04.04v.11h.05l.1-.05.1-.05.08.04.06.04.1.02.1.07v.16l.22.08-.03.2-.02.16.08.54.08.15-.13.26.2.35-.03.13.08.38.02.4.4.56.24.09.3.1.28.13.39.2.24.02.14.02.36.32.3-.03.15.08.67-.27.2.43v.02l-.15.1.13.44-.05.39-.15.22v.51l-.1.07.03.3-.05.34-.2.25.07.4-.11.22.07.1-.2.52.05.22-.13.17.1.6-.12.2-.03.33.15.43-.03.27.09.38" fill="#d1dbdd" stroke="rgb(209, 219, 221)" stroke-width="0.1" data-originalStrokeWidth="0.1" style="stroke: rgb(0, 0, 0); fill: rgb(209, 219, 221); pointer-events: auto; stroke-width: 0.1;" pointer-events="auto"/>
      <path id="NH02" d="m1292.58 106.18-.12-.14-.26.01-.8-.34.2-.14.3.08.3-.43.17-.02.3.17.04-.35.18-.15.18-.3-.27-.35.5-.36.06-.26.43-.36.05-.34.3-.28.13.21.35-.07.2.47.45.14.3.18.22.3.4-.18.26-.17.47.29.08-.24.2-.2.37.16.3-.18.12-.6-.04-.42.15-.17-.15-.18.11-.58.28-.2.24.6.33.75.43 1.17.4 1.04.43 1.1.23.6.87 2.31.5 1.3.15.39.13.36.44 1.12.72 1.85.04.08.1.21.03.16.1.19.07.22.08.18 1.03 2.67.44 1.14.08.24.07.19.59 1.59.13.37.44 1.22.08.2.33.95.24.64.52 1.36.26.7.33.86.28.82.21.57.32.84.13.36.15.45.3.85.2.47-.73.26.13.26.37 1.13-.62.2-.58.25 1.1 3.34-.23-.03-.86.3-.3.08-.06-.12-.52.05-.53.01v.32l-.63-.04v-.08l-1.39.53.23 1.44-.26.08-.2.26-.22-.14-.3-.94-.7-1.2-.7-.18-.59-1.02-.64.33.7 1.23.68.2.59 1 .13.45-.05.23.6.77.43-.15-.27 1.42-.08.23 1.33-.5 3.03-.89.52-.23.93 1.75-.6.2-.6 1.44-1.4.77-.61.26-.13-.27-.28.13.11.28-.7.32 1.87 3.58-1.6.74-2.62 1.2.06.11.57.3 1.35.7.69.34-.36.41-.51-.23-1.03 1.89-.6 1.25-.53.96-1.25 2.32.47.13.07.43.44.37.58.1.06.11.3-.22.5.57-.08.07.1.28.32.4.25.12.17-.12.08.13.12-.31.33-.2.23-.35.29-.02 5.35 1.8 3.06 1.07-.16.37 1.13.48 2.2.96-.54 2.03.48.13-.17.52-.45-.19-.19.7.39-.04-.2 1.16-.88.05-1.5.13-3.34.21-.18.15-.04-.15-.59 1.72.1.19-2.7 1.37.34.57-.01.32.18-.03.84 1.52.42.86.58-.32.71 1.34-.15.08.9 1.79.56 1.17.13-.48.27.03.43-.09.11-.2.28-.06.15.3h.4l.1-.16-.02-.2-.18-.15-.13-.32-.42-.55-.06-.38-.2-.46.24-.8.07-.58.38.35.97 1.88.88-.24.81.55.2-.42-.06-.41-.11-.03-.09-.38-.09-.05 2.01-.98.25-.04.74-.37-.1-.19.16-.31.27.28.04-.18.16.08.56-.17h.29l.08-.26.56.44.08.22.24.28-.01.2h-.41l-.28.27-.1.1-.24.26-.23.62-.01.05.28.75.17.44.15.4-.29.02-.1-.02-.45.03-.16-.02-.29.15-.25.28-.09.19-.15.32-.06.37-.03.16-.15.34-.07.2-.58.18-.52.14-.15.04-.8.23-.72.21-.7.2-.34.1-.46.1-.01.01-.34.11-.85.23h-.02l-1.22.35-.1.04-.25.08-.14.02-.53.16-.47.14-.16.04-.6.18-.47.12-.13.04-.54.14-.45.12-1.17.33-1.4.37-.78.23-.75.2-.37.11-.4.11-.1.02-.46.12-.76.2-.25.06-.45.12-.66.19-.31.08-.46.12-.57.16-.13.04-.56.16-.2.04-.53.14-.28.08-.33.1-1.28.34-1.17.31-1.25.33-.24.06-.14.04-.22.05-.06.02-.51-.51-.29-.46-.32-.2-.19.08-.01.16-.18.16-.12-.01-.03-.17.07-.12-.04-.2-.2-.19-.76-.42-.08-.23-.2-.3-.12-.37-.3-.34-.06-.29-.04-.07-.08-.24-.03-.12-.01-.22-.03-.1.3-.37.04-.17-.08-.26.08-.29-.18-.4-.04-.2-.13-.29-.2-.08.16-.37.08-.16.17-.08.37-.24.17-.26h.2l.14-.44-.1-.05-.05-.22.06-.24.19-.04.05-.35-.4-.17-.16-.18-.12-.54-.24-.28.06-.16.08-.12.04-.08.06-.2.2-.47-.01-.19-.32-.37.11-.35-.1-.31-.2-.15-.09-.13.02-.05-.03-.07v-.04l-.13.03h-.12l-.04-.03-.18-.27.06-.15-.05-.17-.05-.2-.02-.04-.06-.2.1-.2-.2-.28v-.2l.14-.26-.1-.26-.1-.24-.02-.16.04-.21v-.07l-.12-.15-.14-.35-.04-.07.03-.23.14-.14.09-.1.12-.62-.03-.66.04-.39-.5-.46.04-.29.13-.42-.08-.2-.36-.01-.14-.06-.1-.31-.05-.17.01-.1.08-.16.03-.39-.03-.13-.02-.1-.08-.66-.04-.12-.08-.42-.01-.32-.16-.37.04-.12.09-.18-.02-.17-.03-.21-.06-.16-.17-.22-.32-.18-.1-.23-.04-.22.16-.39-.06-.4-.17-.57h.03v-.07l-.03-.06-.03-.17.08-.16.11-.14.15-.14.03-.05.14-.1.11-.16.16-.32.07-.06v-.06l-.06-.13-.23-.22-.01-.3.04-.07-.04-.3.2-.2-.01-.22-.06-.11V159l.07-.19.02-.12-.14-.37-.07-.16-.05-.15-.03-.11.03-.17.01-.13.16-.62.06-.14.19-.37.14-.1.47-.45.04-.19.04-.14v-.04l.05-.07.01-.08.01-.12.01-.07.04-.06.1-.07.05-.06.04-.13-.03-.13v-.08l-.08-.1v-.04l.02-.07.02-.07.07-.05.02-.07.03-.17v-.12l.01-.06.03-.07.04-.05.02-.08-.03-.11-.02-.06-.13-.13-.07-.11v-.14l.01-.1.02-.09v-.1l-.1-.22-.02-.11-.1-.11-.03-.07-.08-.09v-.07l.02-.13-.02-.09v-.03l.01-.03.05-.03.12-.06.12-.1.01-.02-.03-.06-.04-.04-.05-.07-.07-.06-.03-.05-.03-.14.03-.08.13-.04.06-.06.04-.03-.03-.15.02-.16.02-.07.06-.12.06-.1.11-.12.06-.09.13-.23.12-.3-.2-.6.27-.45-.04-.22.13-.23h-.33l-.08.13-.1-.06-.1-.54-.14-.1.04-.19.11-.27-.1-.19.14-.2.1.04.03-.02-.08-.05-.05-.24h.2l.1-.33.03-.06-.07-.1-.09-.08-.03-.06v-.08l.04-.05.17-.2.08-.04.01-.03-.05-.04-.1-.02-.05-.03v-.08l.05-.05.18-.04.03-.3.04-.09v-.05l-.07-.06-.05-.03-.04-.04.02-.04.1-.05.06-.07h.05l.07.04h.05l.04-.04.05-.05v-.03l-.03-.05-.06-.02h-.1l-.14-.05-.04-.03v-.05l.06-.04h.07l.06-.03.03-.05.01-.09-.02-.11v-.09l-.04-.04-.04-.02-.14-.02-.04.02-.02.08.02.11-.01.06-.16-.03-.08-.08-.04-.1-.09-.29v-.19l.26-.23v-.25l-.23-.18-.08-.16-.06-.14-.01-.13.01-.1h-.09l-.26-.2-.34-.48-.18-.15-.03-.23.03-.34-.04-.13.06-.11v-.15l-.06-.09-.02-.08-.02-.32.02-.1-.03-.09-.07-.07-.03-.03-.06-.03-.04-.03-.04-.07-.18-.2v-.06l-.07-.32-.24.05.03-.3.12-.38.15-.13.19-.37-.17-.5.01-.07.11-.09.29-.06.16-.12.06-.1.26-.25.05-.22.43-.1.69-.25.16-.36.24-.13.78.12.42-.25.17-.18.15-.22.4-.32-.18-.3.03-.22-.13-.25.24-.13-.1-.21.13-.34.35-.12.17-.23.09-.1.31.07.18-.05.03-.23.41-.16.28-.21.1-.17.1-.12.22-.36-.12-.14.32-.21.04-.17-.06-.5.21-.14.04-.22-.2-.18.2-.3.06-.12h.06l.05.02-.02.07-.01.03-.07.04-.04.05-.03-.02.02.09.03.02.03.02h.06l.06-.03.05-.06v-.31l.04-.06.05-.01.09.02h.05l.18-.12.02-.03v-.12l.02-.13-.06-.19.2-.06-.1-.13.25.03-.03-.1-.52-.4.24-.12.1-.46-.14-.14-.26-.07-.3-.15-.02-.29.04-.1.7-.17v-.05l-.04-.07v-.08l.03-.01h.11l.05-.01.01-.07-.03-.04-.09-.06-.04-.02-.05-.07-.03-.04.03-.14.06.11.08.07.18-.33-.05-.02-.05-.2-.15.16-.06-.22-.15.2.04-.24-.15.05-.07.03-.03-.02-.04-.05v-.04l.08-.03.05-.02.03-.08-.02-.03-.04-.09-.03-.04-.05-.14-.05-.05v-.1l-.01-.1-.02-.02.02-.02.06.02.05.03h.07v-.04l-.05-.04-.13-.02-.29-.21.06-.22-.2-.25-.08-.04-.03.03v.04l-.01.05-.1.04h-.15v-.03l.07-.03.02-.05-.03-.04h-.05l-.03.03-.05.02-.08-.03-.1-.07v-.05l-.09-.27.11-.1-.38-.07v-.2l-.15-.2.02-.19-.42-.36-.04-.04-.12-.06-.01-.04v-.04l-.04-.02-.12-.02-.04-.22h-.04l-.06.1h-.03l-.05-.02-.02-.03-.04-.15v-.1l-.06-.08v-.08l-.01-.05-.06-.06-.1-.03-.05-.06v-.07l.27-.18.04-.33.15-.17v-.1l.02-.04.08-.1v-.04l-.05-.04v-.08l.04-.07.1-.07.07-.07h.05l.04-.04.02-.13.04-.06.01-.12-.05-.06-.04-.09.02-.07.02-.14-.01-.06-.14-.08h-.05l-.06-.03-.01-.06v-.07l.02-.1.15-.18.04.02.02-.02v-.23l.12-.25-.2-.28.04-.24.06-.06v-.03l-.08-.06-.04-.05.02-.05.02-.13.11-.12.1-.05.03-.06.01-.07.05-.03v-.05l-.02-.04v-.06l.01-.03.05-.02.05-.12.14-.32-.1-.11.1-.24.05-.05.02-.06v-.05h.12v-.07l-.04-.05v-.06l.01-.03.03-.02-.01-.02-.1.05-.78-.67.02-.02.09-.09v-.1l-.08-.04-.06-.4-.18-.26-.07.07-.02-.04.02-.05-.06.02-.1-.09-.12-.07-.05-.11h-.12l.01-.04-.01-.05h-.04l-.04.03h-.02l-.02-.04.03-.03.02-.04-.02-.08.09-.09-.1-.01v-.01l.03-.09.05-.07.02-.1.24-.2.12-.18.47.08.04-.03.13-.07.03-.25.22-.17-.02-.03v.01l-.73.24h-.03l-.1-.39.08-.25-.07-.33-.34-.06.12-.25-.16-.42.16-.08.1-.45.24-.1-.02-.3.22-.45-.08-.16.16-.16.18-.52-.13-.24-.18-.07-.02-.28.09-.12-.06-.5.1-.7-.03-.35.13-.2-.1-.2" fill="#d1dbdd" stroke="rgb(209, 219, 221)" stroke-width="0.1" data-originalStrokeWidth="0.1" style="stroke: rgb(0, 0, 0); fill: rgb(209, 219, 221); pointer-events: auto; stroke-width: 0.1;" pointer-events="auto"/>
      <g id="state_lines" stroke="rgb(209, 219, 221)" style="display: none; stroke: rgb(0, 0, 0);" stroke-width="0.1"/>
      <g id="state_abbr" fill="#000000" style="display: none; fill: rgb(0, 0, 0);">
        <text id="HI_label" x="491.79" y="769.82" style="font-size: 19.2455px; stroke-width: 1.60379; display: none;">
          <tspan id="HI_tspan" x="491.79" y="769.82" fill="#000000" dy="0" font-family="Arial" font-size="24.06" font-style="normal" font-weight="400" style="text-align: center; stroke-width: 2.57215; fill: rgb(0, 0, 0);" text-anchor="middle">HI</tspan>
        </text>
        <text id="AK_label" x="205.24" y="672.25" style="font-size: 19.2455px; stroke-width: 1.60379; display: none;">
          <tspan id="AK_tspan" x="205.24" y="672.25" fill="#000000" dy="0" font-family="Arial" font-size="24.06" font-style="normal" font-weight="400" style="text-align: center; stroke-width: 2.57215; fill: rgb(0, 0, 0);" text-anchor="middle">AK</tspan>
        </text>
        <text id="FL_label" x="1188.11" y="708.7" style="font-size: 19.2455px; stroke-width: 1.60379; display: none;">
          <tspan id="FL_tspan" x="1188.11" y="708.7" fill="#000000" dy="0" font-family="Arial" font-size="24.06" font-style="normal" font-weight="400" style="text-align: center; stroke-width: 2.57215; fill: rgb(0, 0, 0);" text-anchor="middle">FL</tspan>
        </text>
        <text id="NH_label" x="1306.05" y="167.79" stroke-width="1.1" font-size="13.25" style="display: none;">
          <tspan id="NH_tspan" x="1306.05" y="167.79" fill="#000000" stroke-width="1.1" dy="0" font-family="Arial" font-size="16.56" font-style="normal" font-weight="400" style="text-align: center; fill: rgb(0, 0, 0);" text-anchor="middle">NH</tspan>
        </text>
        <text id="MI_label" x="1019.65" y="246.58" style="font-size: 19.2455px; stroke-width: 1.60379; display: none;">
          <tspan id="MI_tspan" x="1019.65" y="246.58" fill="#000000" dy="0" font-family="Arial" font-size="24.06" font-style="normal" font-weight="400" style="text-align: center; stroke-width: 2.57215; fill: rgb(0, 0, 0);" text-anchor="middle">MI</tspan>
        </text>
        <text id="VT_label" x="1274.28" y="145.01" stroke-width="1.05" font-size="12.65" style="display: none;">
          <tspan id="VT_tspan" x="1274.28" y="145.01" fill="#000000" stroke-width="1.05" dy="0" font-family="Arial" font-size="15.81" font-style="normal" font-weight="400" style="text-align: center; fill: rgb(0, 0, 0);" text-anchor="middle">VT</tspan>
        </text>
        <text id="ME_label" x="1338.99" y="105.14" stroke-width="1.45" font-size="17.36" style="display: none;">
          <tspan id="ME_tspan" x="1338.99" y="105.14" fill="#000000" stroke-width="1.45" dy="0" font-family="Arial" font-size="21.7" font-style="normal" font-weight="400" style="text-align: center; fill: rgb(0, 0, 0);" text-anchor="middle">ME</tspan>
        </text>
        <text id="RI_label" x="1361.38" y="262.84" stroke-width="1.25" font-size="14.98" style="display: none;">
          <tspan id="RI_tspan" x="1361.38" y="262.84" fill="#000000" stroke-width="1.25" dy="0" font-family="Arial" font-size="18.72" font-style="normal" font-weight="400" style="text-align: center; fill: rgb(0, 0, 0);" text-anchor="middle">RI</tspan>
        </text>
        <text id="NY_label" x="1227.27" y="204.12" style="font-size: 19.2455px; stroke-width: 1.60379; display: none;">
          <tspan id="NY_tspan" x="1227.27" y="204.12" fill="#000000" dy="0" font-family="Arial" font-size="24.06" font-style="normal" font-weight="400" style="text-align: center; stroke-width: 2.57215; fill: rgb(0, 0, 0);" text-anchor="middle">NY</tspan>
        </text>
        <text id="PA_label" x="1187.28" y="284.69" style="font-size: 19.2455px; stroke-width: 1.60379; display: none;">
          <tspan id="PA_tspan" x="1187.28" y="284.69" fill="#000000" dy="0" font-family="Arial" font-size="24.06" font-style="normal" font-weight="400" style="text-align: center; stroke-width: 2.57215; fill: rgb(0, 0, 0);" text-anchor="middle">PA</tspan>
        </text>
        <text id="NJ_label" x="1330.57" y="290.09" stroke-width="1.28" font-size="15.4" style="display: none;">
          <tspan id="NJ_tspan" x="1330.57" y="290.09" fill="#000000" stroke-width="1.28" dy="0" font-family="Arial" font-size="19.25" font-style="normal" font-weight="400" style="text-align: center; fill: rgb(0, 0, 0);" text-anchor="middle">NJ</tspan>
        </text>
        <text id="DE_label" x="1320.8" y="328.42" stroke-width="1.36" font-size="16.38" style="display: none;">
          <tspan id="DE_tspan" x="1320.8" y="328.42" fill="#000000" stroke-width="1.36" dy="0" font-family="Arial" font-size="20.47" font-style="normal" font-weight="400" style="text-align: center; fill: rgb(0, 0, 0);" text-anchor="middle">DE</tspan>
        </text>
        <text id="MD_label" x="1310.72" y="368.46" stroke-width="1.34" font-size="16.11" style="display: none;">
          <tspan id="MD_tspan" x="1310.72" y="368.46" fill="#000000" stroke-width="1.34" dy="0" font-family="Arial" font-size="20.13" font-style="normal" font-weight="400" style="text-align: center; fill: rgb(0, 0, 0);" text-anchor="middle">MD</tspan>
        </text>
        <text id="VA_label" x="1198.59" y="392.33" style="font-size: 19.2455px; stroke-width: 1.60379; display: none;">
          <tspan id="VA_tspan" x="1198.59" y="392.33" fill="#000000" dy="0" font-family="Arial" font-size="24.06" font-style="normal" font-weight="400" style="text-align: center; stroke-width: 2.57215; fill: rgb(0, 0, 0);" text-anchor="middle">VA</tspan>
        </text>
        <text id="WV_label" x="1129.66" y="382.3" style="font-size: 19.2455px; stroke-width: 1.60379; display: none;">
          <tspan id="WV_tspan" x="1129.66" y="382.3" fill="#000000" dy="0" font-family="Arial" font-size="24.06" font-style="normal" font-weight="400" style="text-align: center; stroke-width: 2.57215; fill: rgb(0, 0, 0);" text-anchor="middle">WV</tspan>
        </text>
        <text id="OH_label" x="1079.05" y="334.46" style="font-size: 19.2455px; stroke-width: 1.60379; display: none;">
          <tspan id="OH_tspan" x="1079.05" y="334.46" fill="#000000" dy="0" font-family="Arial" font-size="24.06" font-style="normal" font-weight="400" style="text-align: center; stroke-width: 2.57215; fill: rgb(0, 0, 0);" text-anchor="middle">OH</tspan>
        </text>
        <text id="IN_label" x="998.79" y="352.94" style="font-size: 19.2455px; stroke-width: 1.60379; display: none;">
          <tspan id="IN_tspan" x="998.79" y="352.94" fill="#000000" dy="0" font-family="Arial" font-size="24.06" font-style="normal" font-weight="400" style="text-align: center; stroke-width: 2.57215; fill: rgb(0, 0, 0);" text-anchor="middle">IN</tspan>
        </text>
        <text id="IL_label" x="927.43" y="364.36" style="font-size: 19.2455px; stroke-width: 1.60379; display: none;">
          <tspan id="IL_tspan" x="927.43" y="364.36" fill="#000000" dy="0" font-family="Arial" font-size="24.06" font-style="normal" font-weight="400" style="text-align: center; stroke-width: 2.57215; fill: rgb(0, 0, 0);" text-anchor="middle">IL</tspan>
        </text>
        <text id="CT_label" x="1299.17" y="228.46" stroke-width="1.06" font-size="12.74" style="display: none;">
          <tspan id="CT_tspan" x="1299.17" y="228.46" fill="#000000" stroke-width="1.06" dy="0" font-family="Arial" font-size="15.93" font-style="normal" font-weight="400" style="text-align: center; fill: rgb(0, 0, 0);" text-anchor="middle">CT</tspan>
        </text>
        <text id="WI_label" x="898.6" y="224.7" style="font-size: 19.2455px; stroke-width: 1.60379; display: none;">
          <tspan id="WI_tspan" x="898.6" y="224.7" fill="#000000" dy="0" font-family="Arial" font-size="24.06" font-style="normal" font-weight="400" style="text-align: center; stroke-width: 2.57215; fill: rgb(0, 0, 0);" text-anchor="middle">WI</tspan>
        </text>
        <text id="NC_label" x="1205.6" y="458.72" style="font-size: 19.2455px; stroke-width: 1.60379; display: none;">
          <tspan id="NC_tspan" x="1205.6" y="458.72" fill="#000000" dy="0" font-family="Arial" font-size="24.06" font-style="normal" font-weight="400" style="text-align: center; stroke-width: 2.57215; fill: rgb(0, 0, 0);" text-anchor="middle">NC</tspan>
        </text>
        <text id="MA_label" x="1305.87" y="200.67" stroke-width="1.04" font-size="12.46" style="display: none;">
          <tspan id="MA_tspan" x="1305.87" y="200.67" fill="#000000" stroke-width="1.04" dy="0" font-family="Arial" font-size="15.58" font-style="normal" font-weight="400" style="text-align: center; fill: rgb(0, 0, 0);" text-anchor="middle">MA</tspan>
        </text>
        <text id="MO_label" x="854.22" y="422.93" style="font-size: 19.2455px; stroke-width: 1.60379; display: none;">
          <tspan id="MO_tspan" x="854.22" y="422.93" fill="#000000" dy="0" font-family="Arial" font-size="24.06" font-style="normal" font-weight="400" style="text-align: center; stroke-width: 2.57215; fill: rgb(0, 0, 0);" text-anchor="middle">MO</tspan>
        </text>
        <text id="GA_label" x="1106.89" y="574.56" style="font-size: 19.2455px; stroke-width: 1.60379; display: none;">
          <tspan id="GA_tspan" x="1106.89" y="574.56" fill="#000000" dy="0" font-family="Arial" font-size="24.06" font-style="normal" font-weight="400" style="text-align: center; stroke-width: 2.57215; fill: rgb(0, 0, 0);" text-anchor="middle">GA</tspan>
        </text>
        <text id="SC_label" x="1166.32" y="522.49" style="font-size: 19.2455px; stroke-width: 1.60379; display: none;">
          <tspan id="SC_tspan" x="1166.32" y="522.49" fill="#000000" dy="0" font-family="Arial" font-size="24.06" font-style="normal" font-weight="400" style="text-align: center; stroke-width: 2.57215; fill: rgb(0, 0, 0);" text-anchor="middle">SC</tspan>
        </text>
        <text id="KY_label" x="1039.99" y="426.39" style="font-size: 19.2455px; stroke-width: 1.60379; display: none;">
          <tspan id="KY_tspan" x="1039.99" y="426.39" fill="#000000" dy="0" font-family="Arial" font-size="24.06" font-style="normal" font-weight="400" style="text-align: center; stroke-width: 2.57215; fill: rgb(0, 0, 0);" text-anchor="middle">KY</tspan>
        </text>
        <text id="AL_label" x="1019.59" y="578.15" style="font-size: 19.2455px; stroke-width: 1.60379; display: none;">
          <tspan id="AL_tspan" fill="#000000" dy="0" font-family="Arial" font-size="24.06" font-style="normal" font-weight="400" style="text-align: center; stroke-width: 2.57215; fill: rgb(0, 0, 0);" text-anchor="middle">AL</tspan>
        </text>
        <text id="LA_label" x="872.7" y="649.59" style="font-size: 19.2455px; stroke-width: 1.60379; display: none;">
          <tspan id="LA_tspan" x="872.7" y="649.59" fill="#000000" dy="0" font-family="Arial" font-size="24.06" font-style="normal" font-weight="400" style="text-align: center; stroke-width: 2.57215; fill: rgb(0, 0, 0);" text-anchor="middle">LA</tspan>
        </text>
        <text id="MS_label" x="940.37" y="592.21" style="font-size: 19.2455px; stroke-width: 1.60379; display: none;">
          <tspan id="MS_tspan" x="940.37" y="592.21" fill="#000000" dy="0" font-family="Arial" font-size="24.06" font-style="normal" font-weight="400" style="text-align: center; stroke-width: 2.57215; fill: rgb(0, 0, 0);" text-anchor="middle">MS</tspan>
        </text>
        <text id="IA_label" x="823.33" y="308.44" style="font-size: 19.2455px; stroke-width: 1.60379; display: none;">
          <tspan id="IA_tspan" x="823.33" y="308.44" fill="#000000" dy="0" font-family="Arial" font-size="24.06" font-style="normal" font-weight="400" style="text-align: center; stroke-width: 2.57215; fill: rgb(0, 0, 0);" text-anchor="middle">IA</tspan>
        </text>
        <text id="MN_label" x="790.84" y="183.37" style="font-size: 19.2455px; stroke-width: 1.60379; display: none;">
          <tspan id="MN_tspan" x="790.84" y="183.37" fill="#000000" dy="0" font-family="Arial" font-size="24.06" font-style="normal" font-weight="400" style="text-align: center; stroke-width: 2.57215; fill: rgb(0, 0, 0);" text-anchor="middle">MN</tspan>
        </text>
        <text id="OK_label" x="732.05" y="519.54" style="font-size: 19.2455px; stroke-width: 1.60379; display: none;">
          <tspan id="OK_tspan" x="732.05" y="519.54" fill="#000000" dy="0" font-family="Arial" font-size="24.06" font-style="normal" font-weight="400" style="text-align: center; stroke-width: 2.57215; fill: rgb(0, 0, 0);" text-anchor="middle">OK</tspan>
        </text>
        <text id="TX_label" x="710.59" y="652.87" style="font-size: 19.2455px; stroke-width: 1.60379; display: none;">
          <tspan id="TX_tspan" x="710.59" y="652.87" fill="#000000" dy="0" font-family="Arial" font-size="24.06" font-style="normal" font-weight="400" style="text-align: center; stroke-width: 2.57215; fill: rgb(0, 0, 0);" text-anchor="middle">TX</tspan>
        </text>
        <text id="NM_label" x="506.94" y="542.36" style="font-size: 19.2455px; stroke-width: 1.60379; display: none;">
          <tspan id="NM_tspan" x="506.94" y="542.36" fill="#000000" dy="0" font-family="Arial" font-size="24.06" font-style="normal" font-weight="400" style="text-align: center; stroke-width: 2.57215; fill: rgb(0, 0, 0);" text-anchor="middle">NM</tspan>
        </text>
        <text id="KS_label" x="701.21" y="427.26" style="font-size: 19.2455px; stroke-width: 1.60379; display: none;">
          <tspan id="KS_tspan" x="701.21" y="427.26" fill="#000000" dy="0" font-family="Arial" font-size="24.06" font-style="normal" font-weight="400" style="text-align: center; stroke-width: 2.57215; fill: rgb(0, 0, 0);" text-anchor="middle">KS</tspan>
        </text>
        <text id="NE_label" x="686.63" y="337.29" style="font-size: 19.2455px; stroke-width: 1.60379; display: none;">
          <tspan id="NE_tspan" x="686.63" y="337.29" fill="#000000" dy="0" font-family="Arial" font-size="24.06" font-style="normal" font-weight="400" style="text-align: center; stroke-width: 2.57215; fill: rgb(0, 0, 0);" text-anchor="middle">NE</tspan>
        </text>
        <text id="SD_label" x="663.02" y="238.75" style="font-size: 19.2455px; stroke-width: 1.60379; display: none;">
          <tspan id="SD_tspan" x="663.02" y="238.75" fill="#000000" dy="0" font-family="Arial" font-size="24.06" font-style="normal" font-weight="400" style="text-align: center; stroke-width: 2.57215; fill: rgb(0, 0, 0);" text-anchor="middle">SD</tspan>
        </text>
        <text id="ND_label" x="663.02" y="150.75" style="font-size: 19.2455px; stroke-width: 1.60379; display: none;">
          <tspan id="ND_tspan" x="663.02" y="150.75" fill="#000000" dy="0" font-family="Arial" font-size="24.06" font-style="normal" font-weight="400" style="text-align: center; stroke-width: 2.57215; fill: rgb(0, 0, 0);" text-anchor="middle">ND</tspan>
        </text>
        <text id="WY_label" x="499.57" y="276.47" style="font-size: 19.2455px; stroke-width: 1.60379; display: none;">
          <tspan id="WY_tspan" x="499.57" y="276.47" fill="#000000" dy="0" font-family="Arial" font-size="24.06" font-style="normal" font-weight="400" style="text-align: center; stroke-width: 2.57215; fill: rgb(0, 0, 0);" text-anchor="middle">WY</tspan>
        </text>
        <text id="MT_label" x="487.84" y="155.58" style="font-size: 19.2455px; stroke-width: 1.60379; display: none;">
          <tspan id="MT_tspan" x="487.84" y="155.58" fill="#000000" dy="0" font-family="Arial" font-size="24.06" font-style="normal" font-weight="400" style="text-align: center; stroke-width: 2.57215; fill: rgb(0, 0, 0);" text-anchor="middle">MT</tspan>
        </text>
        <text id="CO_label" x="525.13" y="406.28" style="font-size: 19.2455px; stroke-width: 1.60379; display: none;">
          <tspan id="CO_tspan" x="525.13" y="406.28" fill="#000000" dy="0" font-family="Arial" font-size="24.06" font-style="normal" font-weight="400" style="text-align: center; stroke-width: 2.57215; fill: rgb(0, 0, 0);" text-anchor="middle">CO</tspan>
        </text>
        <text id="ID_label" x="339.94" y="235.07" style="font-size: 19.2455px; stroke-width: 1.60379; display: none;">
          <tspan id="ID_tspan" x="339.94" y="235.07" fill="#000000" dy="0" font-family="Arial" font-size="24.06" font-style="normal" font-weight="400" style="text-align: center; stroke-width: 2.57215; fill: rgb(0, 0, 0);" text-anchor="middle">ID</tspan>
        </text>
        <text id="UT_label" x="396.81" y="386.73" style="font-size: 19.2455px; stroke-width: 1.60379; display: none;">
          <tspan id="UT_tspan" x="396.81" y="386.73" fill="#000000" dy="0" font-family="Arial" font-size="24.06" font-style="normal" font-weight="400" style="text-align: center; stroke-width: 2.57215; fill: rgb(0, 0, 0);" text-anchor="middle">UT</tspan>
        </text>
        <text id="AZ_label" x="366.76" y="536.9" style="font-size: 19.2455px; stroke-width: 1.60379; display: none;">
          <tspan id="AZ_tspan" x="366.76" y="536.9" fill="#000000" dy="0" font-family="Arial" font-size="24.06" font-style="normal" font-weight="400" style="text-align: center; stroke-width: 2.57215; fill: rgb(0, 0, 0);" text-anchor="middle">AZ</tspan>
        </text>
        <text id="NV_label" x="262.47" y="370.64" style="font-size: 19.2455px; stroke-width: 1.60379; display: none;">
          <tspan id="NV_tspan" x="262.47" y="370.64" fill="#000000" dy="0" font-family="Arial" font-size="24.06" font-style="normal" font-weight="400" style="text-align: center; stroke-width: 2.57215; fill: rgb(0, 0, 0);" text-anchor="middle">NV</tspan>
        </text>
        <text id="OR_label" x="214.43" y="206.88" style="font-size: 19.2455px; stroke-width: 1.60379; display: none;">
          <tspan id="OR_tspan" x="214.43" y="206.88" fill="#000000" dy="0" font-family="Arial" font-size="24.06" font-style="normal" font-weight="400" style="text-align: center; stroke-width: 2.57215; fill: rgb(0, 0, 0);" text-anchor="middle">OR</tspan>
        </text>
        <text id="WA_label" x="238.05" y="102.99" style="font-size: 19.2455px; stroke-width: 1.60379; display: none;">
          <tspan id="WA_tspan" x="238.05" y="102.99" fill="#000000" dy="0" font-family="Arial" font-size="24.06" font-style="normal" font-weight="400" style="text-align: center; stroke-width: 2.57215; fill: rgb(0, 0, 0);" text-anchor="middle">WA</tspan>
        </text>
        <text id="CA_label" x="191.69" y="434.8" style="font-size: 19.2455px; stroke-width: 1.60379; display: none;">
          <tspan id="CA_tspan" x="191.69" y="434.8" fill="#000000" dy="0" font-family="Arial" font-size="24.06" font-style="normal" font-weight="400" style="text-align: center; stroke-width: 2.57215; fill: rgb(0, 0, 0);" text-anchor="middle">CA</tspan>
        </text>
        <text id="DC_label" x="1309.32" y="398.19" stroke-width="1.29" font-size="15.45" style="display: none;">
          <tspan id="DC_tspan" x="1309.32" y="398.19" fill="#000000" stroke-width="1.29" dy="0" font-family="Arial" font-size="19.31" font-style="normal" font-weight="400" style="text-align: center; fill: rgb(0, 0, 0);" text-anchor="middle">DC</tspan>
        </text>
        <text id="TN_label" x="1018.93" y="485.72" style="font-size: 19.2455px; stroke-width: 1.60379; display: none;">
          <tspan id="TN_tspan" x="1018.93" y="485.72" fill="#000000" dy="0" font-family="Arial" font-size="24.06" font-style="normal" font-weight="400" style="text-align: center; stroke-width: 2.57215; fill: rgb(0, 0, 0);" text-anchor="middle">TN</tspan>
        </text>
        <text id="AR_label" x="863.15" y="535.77" style="font-size: 19.2455px; stroke-width: 1.60379; display: none;">
          <tspan id="AR_tspan" x="863.15" y="535.77" fill="#000000" dy="0" font-family="Arial" font-size="24.06" font-style="normal" font-weight="400" style="text-align: center; stroke-width: 2.57215; fill: rgb(0, 0, 0);" text-anchor="middle">AR</tspan>
        </text>
      </g>
      <g id="state_borders" transform="translate(-0.04777967,-0.15336683)" stroke="rgb(209, 219, 221)" style="stroke: rgb(0, 0, 0);" stroke-width="0.3">
        <path id="NH_MA_border" d="m1293.15 188.23 3.84-1 6.77-1.83 5.24-1.45 10-2.84.62-1.72.45-.27h1l-.6-1.58.28-.68.59-.63 1.64-.04.02-1.41.19-.4 1.3-.75.64-.72 1-.27 1.03.4.58-.58" stroke="rgb(209, 219, 221)" stroke-width="0.3" fill="none" style="stroke: rgb(0, 0, 0); display: none;"/>
        <path id="NH_ME_border" d="m1298.4 101.2.7 1.7 2.72 7.14 1.86 4.7 2.13 5.6 3.82 10.48 2.8 7.75 2.62 7.4 2.5 6.58.67.43-.13.56.33.33.12.7-.11.79.4.23.26.85-.33.9.43 1.14 1 1.05.5-.23.97.74v.38l.77.45 1.72.6.5 1.94.04.9.35.55 2.46.98.65-.28.22.45" stroke="rgb(209, 219, 221)" stroke-width="0.3" fill="none" style="stroke: rgb(0, 0, 0); display: none;"/>
      </g>
      <rect id="selection-rectangle" fill="#ffffccaa" stroke="rgb(209, 219, 221)" stroke-width="0.1"/>
      <ellipse id="selection-ellipse" fill="#ffffccaa" stroke="rgb(209, 219, 221)" stroke-width="0.1"/>
      <polygon id="selection-polygon" fill="#ffffccaa" stroke="rgb(209, 219, 221)" stroke-width="0.1"/>
      <polyline id="selection-polyline" fill="#ffffccaa" stroke="rgb(209, 219, 221)" stroke-width="0.1"/>
    </svg>
  </g>
</svg>
