<?xml version='1.0' encoding='UTF-8'?>
<svg xmlns="http://www.w3.org/2000/svg" xmlns:dc="http://purl.org/dc/elements/1.1/" xmlns:ns2="http://creativecommons.org/ns#" xmlns:rdf="http://www.w3.org/1999/02/22-rdf-syntax-ns#" id="wrapper" viewBox="0 0 1520 840" preserveAspectRatio="xMinYMin" height="840" width="1520" style="background-color: rgb(255, 255, 255);">
  <metadata>
    <rdf:rdf>
      <ns2:work rdf:about="">
        <dc:format>image/svg+xml</dc:format>
        <dc:type rdf:resource="http://purl.org/dc/dcmitype/StillImage"/>
        <dc:title>MapChart Map</dc:title>
        <dc:creator>
          <ns2:agent>
            <dc:title>MapChart.net</dc:title>
          </ns2:agent>
        </dc:creator>
        <ns2:license rdf:resource="http://creativecommons.org/licenses/by-sa/4.0/"/>
        <dc:description>This map was created with MapChart.net, a website for creating custom maps.</dc:description>
      </ns2:work>
      <ns2:license rdf:about="http://creativecommons.org/licenses/by-sa/4.0/">
        <ns2:permits rdf:resource="http://creativecommons.org/ns#Reproduction"/>
        <ns2:permits rdf:resource="http://creativecommons.org/ns#Distribution"/>
        <ns2:requires rdf:resource="http://creativecommons.org/ns#Notice"/>
        <ns2:requires rdf:resource="http://creativecommons.org/ns#Attribution"/>
        <ns2:requires rdf:resource="http://creativecommons.org/ns#ShareAlike"/>
      </ns2:license>
    </rdf:rdf>
  </metadata>
  <g id="map-group" transform="translate(-5729.849887865882,-617.9675737795137) scale(5.285237120710951)">
    <svg id="map" width="1520" height="840" version="1.1" viewBox="0 0 1520 840" preserveAspectRatio="xMinYMin" data-originalStrokeWidth="0.3">
      <defs>
        <pattern id="circles3" width="10" height="10" patternUnits="userSpaceOnUse">    <rect width="10" height="10" fill="#fff"/>    <circle cx="4" cy="4" r="2" fill="#000"/>    </pattern>
        <pattern id="diagonal1" width="10" height="10" patternUnits="userSpaceOnUse">    <rect width="10" height="10" fill="#fff"/>    </pattern>
        <pattern id="diagonal3" width="10" height="10" patternUnits="userSpaceOnUse">    <rect width="10" height="10" fill="#fff"/>    </pattern>
        <pattern id="vertical1" width="10" height="10" patternUnits="userSpaceOnUse">    <rect width="10" height="10" fill="#fff"/>    <rect x="2" y="0" width="1" height="10" fill="#000"/>    </pattern>
        <pattern id="vertical3" width="10" height="10" patternUnits="userSpaceOnUse">    <rect width="10" height="10" fill="#fff"/>    <rect x="2" y="0" width="3" height="10" fill="#000"/>    </pattern>
        <pattern id="horizontal1" width="10" height="10" patternUnits="userSpaceOnUse">    <rect width="10" height="10" fill="#fff"/>    <rect x="0" y="2" width="10" height="1" fill="#000"/>    </pattern>
        <pattern id="horizontal3" width="10" height="10" patternUnits="userSpaceOnUse">    <rect width="10" height="10" fill="#fff"/>    <rect x="0" y="2" width="10" height="3" fill="#000"/>    </pattern>
        <pattern id="crosshatch" width="8" height="8" patternUnits="userSpaceOnUse">    <rect width="8" height="8" fill="#fff"/>    </pattern>
        <pattern id="subtlepatch" width="5" height="5" patternUnits="userSpaceOnUse">    <rect width="5" height="5" fill="#fff"/>    <rect x="2" y="2" width="1" height="1" fill="#000"/>    </pattern>
        <pattern id="checkers" width="8" height="8" patternUnits="userSpaceOnUse">    <rect width="8" height="8" fill="#fff"/>    </pattern>
        <pattern id="raindrops" width="10" height="10" patternUnits="userSpaceOnUse">    <rect width="10" height="10" fill="#fff"/>    </pattern>
        <pattern id="texture" width="4" height="4" patternUnits="userSpaceOnUse">    <rect width="4" height="4" fill="#fff"/>    </pattern>
        <pattern id="circles3_a03500_000000" width="10" height="10" patternUnits="userSpaceOnUse">    <rect width="10" height="10" fill="#a03500"/>    <circle cx="4" cy="4" r="2" fill="#000000"/>    </pattern>
        <pattern id="diagonal1_d9b400_535353" width="10" height="10" patternUnits="userSpaceOnUse">    <rect width="10" height="10" fill="#d9b400"/>    </pattern>
        <pattern id="diagonal3_3264c8_ffffff" width="10" height="10" patternUnits="userSpaceOnUse">    <rect width="10" height="10" fill="#3264c8"/>    </pattern>
        <pattern id="horizontal1_72b38e_000000" width="10" height="10" patternUnits="userSpaceOnUse">    <rect width="10" height="10" fill="#72b38e"/>    <rect x="0" y="2" width="10" height="1" fill="#000000"/>    </pattern>
        <pattern id="horizontal3_986ba1_ffffff" width="10" height="10" patternUnits="userSpaceOnUse">    <rect width="10" height="10" fill="#986ba1"/>    <rect x="0" y="2" width="10" height="3" fill="#ffffff"/>    </pattern>
        <pattern id="vertical1_b9a087_ffffff" width="10" height="10" patternUnits="userSpaceOnUse">    <rect width="10" height="10" fill="#b9a087"/>    <rect x="2" y="0" width="1" height="10" fill="#ffffff"/>    </pattern>
        <pattern id="vertical3_4c91bf_ffff33" width="10" height="10" patternUnits="userSpaceOnUse">    <rect width="10" height="10" fill="#4c91bf"/>    <rect x="2" y="0" width="3" height="10" fill="#ffff33"/>    </pattern>
        <pattern id="checkers_cc3333_f7f7f7" width="8" height="8" patternUnits="userSpaceOnUse">    <rect width="8" height="8" fill="#cc3333"/>    </pattern>
        <pattern id="texture_d1dbdd_525252" width="4" height="4" patternUnits="userSpaceOnUse">    <rect width="4" height="4" fill="#d1dbdd"/>    </pattern>
        <style id="map-style">svg { background-color: #ffffff; }</style>
      </defs>
      <g id="state_lines" stroke="rgb(209, 219, 221)" style="display: none; stroke: rgb(0, 0, 0);" stroke-width="0.1"/>
      <path id="NY25" d="m1179.58 201.81-.41.31-.25.03-.3.33-.6.33-.32.3-.3.07-.26.38-.28.23-.47.12h-.33l-.3-.08-1.34-.57-.63-.13-.76-.4-.67-.27-.24-.35-.41-.1-.64-.09-.1-.1-.82.24h-.45l-.22.09-.42-.07-.71.1-.7-.06-.4.1-1.02-.1-.26.02-.48.27-.14-.1-.15.05.14.55.2.86.23.94.23 1.05.52 2.16.25.98.1.5 1.29-.32.73-.2-.2 2.31-.03.25-.06.57 1.06-.18.08.37-.01.06.11.64-.04.02.1.46 1.15-.29.45-.12 1.02-.25 1.08-.28.27-.07v.21l.05.03.25-.01.11.18-.11.05-.02.2.08.2-.03.21-.15-.02.13.18-.01.1-.15-.04-.05.1-.1.06-.16-.01-.13.07.03.12 1.51-.37 1.2-.29.01-.13v-.02l.93-.22 1.17-.29 1.38-.33.34 1.22.21-.01h.56l.28-.07.09-.08.36-.33.45-.3.35-.1-.25-.97-.22-.86-.1-.35-.43-1.71-.39-1.45-.14-.53-.16-.58-.32-1.14-.22-.87-.04-.12-.26-1zm-15.02.61-.02.01.15.07h.02z" fill="#d1dbdd" stroke="rgb(209, 219, 221)" stroke-width="0.1" data-originalStrokeWidth="0.1" style="stroke: rgb(0, 0, 0); fill: rgb(209, 219, 221); pointer-events: auto; stroke-width: 0.1;" pointer-events="auto"/>
      <path id="NY11" d="m1276.63 261.87-.04.1v.12l-.03.52.18.36.26.17h.41l.2.08-.15-.17.06-.05.07-.18.18-.08-.09-.2-.13-.11-.07-.2-.15-.1-.28-.13-.28-.1zm-1.04.27-.25.04-.7.41-.72.33-.67-.02-.17.16-.16.4.06.37.17.06.14.58-.1.3.1.92-.09.21-.27.08-.32.5.1.11.13.2.05.32-.17.5.23.3.35-.27.3-.13.14-.26.22-.14.33-.39h.1l.33-.33.23-.3.3.05.23-.49.2-.2.3-.72.35-.7.2-.68-.5-.53-.23-.5z" fill="#d1dbdd" stroke="rgb(209, 219, 221)" stroke-width="0.1" data-originalStrokeWidth="0.1" style="stroke: rgb(0, 0, 0); fill: rgb(209, 219, 221); pointer-events: auto; stroke-width: 0.1;" pointer-events="auto"/>
      <path id="NY22" d="m1213.33 196.6-.07-.01-.4.06h-.48l-.08-.05-.04-.16-.17-.2-.1.1-.16.07-.06.1h-.14l-.11-.1-.04-.12-.3.1-.11.1-.14-.03-.08-.12h-.13l-.15.21-.12.03-.16-.14-.35-.07-.11.03-.14-.13-.3-.14-.14.02-.06.13-.2.02-.18.09-.1.02-.13-.13.01-.18h-.1l-.01-.11-.13-.13-.3-.1-.15.05-.12-.14-.19-.07h-.11l-.1.04-.2-.03-.15-.09-.18.07-.23-.05h-.09l-.2-.04-.15-.11-.13-.04-.09-.1-.08-.02-.25-.18-.24-.11-.14.13.08.2-.04.16.16.4-.03.13.2.03.05.08.03.18.1.2.22.1-.06.17-.2-.08-.05.32-.1.1v.01l-.15.03-.14-.05-.13-.12h-.25l-.2-.3-.2-.17-.1-.15-.1.06-.1-.07-.15.02.08.15.1.02.08.17.13.1.05.15-.02.17-.07.33-.19.14-.09-.16-.12-.1-.06-.16-.08-.09-.2-.08-.11-.1-.2-.05-.17.09-.17-.05-.44.15-.01-.04-.84.28-2.08.67.18.58.6 1.88-.17.05-.1.1.27.33.17.29.14.3.06.18-.04.04-.23-.01-.18.04-.1.15v.16l.2.6.38 1.15.23.73-1.69.57.14.44-.04.02.42 1.28-.47.16-.07-.08-.12-.06-.1.04.06.17.07-.02.41 1.3.13.45-.92.3-.04-.12-.27.08-1.02.34h-.06l-.79.25.31.41.16.28.13.46.14.3.1.35.01.17v.06l-.05.5-.12.55v.18l.17.58.47 1.26.22.44.19.23.11.1.66.39h.02l.23.2.1.13.38.66.4.67 1.15-.36.03.1.68-.22 1.13-.36 1.6-.5.08.27 1.28-.4 2.96-.9.68 2.22.4-.13 1.63-.52.35-.11.88-.29.18.14.2.1.1.09.68-.23-.22-.71-.55-1.72-.22-.72 1.57-.51 2.52-.87-.69-2.05.43-.15.85-.28.85-.33 1.02-.35 2.6-.9.35-.1 1.23-.4 1.15-.41.22-.07 1.32-.47.08.22.15-.05 1.1-.37 1.61-.57.06-.24.13-.04.07-.14v-.18l-.06-.14.04-.04.02-.23.28-.22-.02-.2.1-.06-.06-.2.04-.06-.09-.12-.01-.17.01-.17-.04-.05-.01-.17.08-.13-.1-.03-.12-.15.08-.23.08-.13-.12-.11-.07-.17-.1-.04.04-.15-.07-.17v-.18l-.08-.08v-.13l-.11-.08.06-.1.02-.1.65-.26.22-.09-.07-.2-.59-1.68-.04-.11-.3-.84-.43-1.2-.07-.18-.17-.49-.16-.43.3-.91.31-.02.04-.24-.07-.03-.05-.1h-.1l.32-.96h-.88l-.72-.14-.17.78-.1-.06-.15.05-.13-.1-.01-.05-.03-.1-.13.04-.15-.12-.33-.09-.13-.12-.13-.08-.12.06-.03.09-.12-.06.06-.15-.15-.07-.11.07-.11-.06.01-.16-.08-.11-.2-.14-.07.01-.3-.12-.05-.12-.15-.1-.8.3-.76.26-.18.07-2.64.9.96.93-.7.33-.18-.17-.2.2-.05.05-.14.18-.13-.12-.1.1-.14-.09-.16.26-.24.04-.12.07-.52.39.07.08-.1.16-.15.12-.08-.04.03-.16-.14.06-.23.01-.11-.06-.06-.13-.1.08-.23-.23-.03-.11-.15.03-.15-.14-.04.1h-.15l-.03-.21-.05-.02v-.17l-.15.04-.1-.01-.15-.1.05-.12-.27.03-.2-.08-.14.26-.12.01-.15-.06-.07-.08-.27-.1h-.15v.01l-.01.1-.17.09v.09l-.08.15-.08.05h-.2l-.3.07-.19.13-.27.02-.12.13-.13.07-.03.21-.06.09-.16.1-.24-.13z" fill="#d1dbdd" stroke="rgb(209, 219, 221)" stroke-width="0.1" data-originalStrokeWidth="0.1" style="stroke: rgb(0, 0, 0); fill: rgb(209, 219, 221); pointer-events: auto; stroke-width: 0.1;" pointer-events="auto"/>
      <path id="NY24" d="m1143.85 214.98.65-.13.7-.18.19-.05.18-.05.03-.01.3-.08.6-.12.04-.01.97-.24 1-.26.5-.13 1.05-.25-.25-1.06h.17l.04.24.15-.08.36-.26.13.68.12-.04.06-.25.61-.13h.15l-.03-.13.93-.16.04.12.14-.03-.02-.08.14-.07.02.26-.02.11.17-.04.1.13.14.55.22.92.15.1-.07.18.13.04.14-.01.07.1.18-.06.1.01v-.15l.11.07.06-.07.02-.18-.14-.11.03-.14h.2l.2-.1.01-.27.1.07-.02.14.18-.14-.01-.12.07-.09.11.05.05.16.16.15.15-.14.18-.05.08-.1v-.12l.13-.07.1.16.12.05.07.13.08.04.07-.09.1.02.06-.13.08.06.13-.08.14.04.08-.13.06.18.2.8.32 1.26.25 1.14.1.41v.02l.36 1.45.05.23.29 1.25-.48.1h-.01v.01l.15.65.45 2.04.55-.12.45 1.93.14.58.07.28.2.83.23.85.08.3.3 1.32.1.44.33 1.53 1.34-.34h.01l1.2-.33.98-.26 1.5-.38.42-.1.34-.09.33-.07 1.46-.36 1.45-.34.44-.1-.05.08.97-.24 1.6-.39.36-.08.84-.2.76-.19.23.9.11.43 1.35-.28.7-.14.08-.02.51-.11.34 1.55.1.53.25-.04 1.13-.25-.2-.82 1.08-.25-.04-.15.24-.07-.02-.12.44-.1-.09-.44.24-.05-.03-.12.22-.06.03.13.22-.05.04.24.28-.06.1.42.66-.15.21.95.19-.04.82-.17.24 1 1.15-.26-.04-.15.37-.1-.04-.17.41-.09v-.03l.35-.5 1.42-.36-.14-.47.27-.08-.06-.13.05-.12-.03-.1-.03-.12.03-.02-.08-.29.4-.11-.25-.94.22-.05-.22-.84.43-.11.02.05.23-.06.21.76.83-.22.52-.14-.06-.2.2-.64.14-.4.2-.05.15-.12.15-.25.04-.16.18.03.44 1.62.23.8.11.42.2.73 1.4-.4 1.27-.34.12.35.22-.07.5-.15 1.65-.52-.14-.22.55-.06.08.12.71-.23 1.05-.33.63-.21 1.28-.4-.4-1.33-.6-1.9-.47-1.52.5-.14 1.94-.6-.52-.18-.33-.14-.25-.18-.55-.43-.35-.34-.14-.16-.24-.35-.4-.67-.39-.66-.09-.12-.23-.2-.02-.01-.66-.4-.11-.09-.2-.23-.21-.44-.47-1.26-.17-.58v-.18l.12-.55.05-.44v-.29l-.1-.36-.15-.29-.13-.47-.15-.27-.31-.4v-.01l.79-.26h.06l1.01-.33.28-.08.04.12.92-.3-.13-.45-.41-1.3-.07.02-.07-.17.1-.04.13.05.07.08.46-.15-.41-1.28.03-.02-.13-.44 1.68-.57-.23-.73-.37-1.15-.2-.6-.01-.16.1-.15.19-.05.23.01.03-.03-.05-.19-.14-.29-.17-.29-.27-.32.1-.11.17-.06-.6-1.87-.2-.59 2.1-.66.83-.28.01.03.44-.14.18.04.17-.09.19.06.11.1.2.08.09.09.05.16.13.1.08.16.2-.14.07-.33.01-.16v-.01l-.04-.16-.14-.09-.08-.17-.1-.02-.08-.15.15-.03.11.08.1-.06.1.15.2.17.2.3h.25l.12.11.15.06.14-.03.1-.11.05-.26.02-.06.19.07.06-.16-.22-.1-.1-.2-.03-.18-.05-.08-.2-.03.02-.13-.15-.4.03-.17-.08-.19.15-.14.24.12.25.17.08.02.09.1.13.04.15.12.2.04h.08l.23.05.19-.07.14.08.2.04.1-.05h.12l.18.08.13.14.14-.06.3.1.13.14v.1h.11v.18l.12.14.1-.02.18-.1.2-.01.07-.13.14-.02.3.14.13.13.12-.03.35.07.15.14.13-.03.15-.2.12-.01.09.11.13.04.11-.1v-.01l.3-.1.04.13.12.1h.14l.05-.1.17-.07.09-.1.17.2.04.16.08.05h.5l.39-.06h.07l-.37-2.1-.08-.45-.13-.78-.07-.34-.02-.21-.2-1.25-.57-.04.1-1.67.08-1.65.1-1.95 1.38.05-.44-1.39-.13-.45-.07-.19-.09-.24-.29-.91-.2-.53-.03-.15-.25-.8-.14-.35-.19-.55-.68-1.89-.21-.58-.33-.87-.23-.63-.74.13-.68.14-.16-.91-.3-1.63-.08-.34 1.84-.33.52-.75.38-.52.72-1.05.16-.22.17-.27.58-.83.06-.1-.26-.09-.03-.09-.17-.01-.18-.13-.15-.2-.14-.06-.13-.27-.03-.13-.15-.2-.15-.03-.1-.05-.12.14h-.04l-.1.03-.34-.16h-.12l-.14-.13-.02-.2.16-.23-.03-.13-.09-.05-.17.07-.11-.09-.14.22h-.09l-.08.09-.04.11.04.13-.04.13-.12.05-.17.24-.17.16-.13.04-.13-.01-.15.1-.09.12-.16.17-.06.28-.15.13-.2-.05-.16.03h-.02l-.06.16.1.17-.05.09-.1.05-.16.15-.02.17-.23.09-.22.24-.14.1-.08-.08-.22-.58-.4-.97-.14-.42-.3-.9-.11-.4-.04-.15-.49-1.35-.19-.56-.09-.33.52.17.02-.07.51.14.18.07.87.26.23-.78.14-.54.07-.22.23-.81.52.14-.09-.14-.01-.17.07-.03.07-.11-.2-.21-.09-.2.06-.18v-.12l.13.07.08-.15.17-.06.04.2.3-.66.18-.13.08-.17-.08-.06-.09.06h-.09l-.02-.15.1-.06.01-.1.12-.06.04-.13.1-.12.03-.16.2-.04.13-.2-.02-.18-.1-.03-.1.1-.06-.08.1-.16v-.19l-.71-.21-.48-.13-.73-.21-.02-.01-.75-.26-.37-.1.37.1.75.26h.02l.73.22-.72-.21-.02-.01-.76-.26-.37-.1-.85-.27-.41-.12-.93-.3-.2.37-.7 1.06-.19.02-.08.34-.36.43-.39.32-.25-.06-.47.1-.13.15-.7.58-.88 1.28-.4.27-.3.02-.55.67.27 1.27-.44.71-.27.3-.75.55-.9.23-.53.3-.36 2.2-.05.05.25.24-.26.47-.05.4.21-.11.1.42.2-.21.16.17-.25.36.03.19.27-.06.23-.23.1.07.03.29.44.05.44-.12v.32l.11.03-.06.25.05.3-.09.2.17.11.02.22.2.13.15-.14.48.2.14.17-.04.5-.13.46.12.21.18-.1.2-.26h.14l.3-.46.22-.56-.06-.29.27-.83-.09-.1-.62.17-.85.64-.17-.02-.02-.47.12-.68.26-.42.1.04.5-.27.3-.5.04.05-.16.56.25.16.12-.15.27-.09.18-.23.42-.12.26.25-.03.28-.26.45.22.1.2-.08.14-.3.4-.08.1.2-.1.39-.34.48-.78.45-.24.42v.46l.15-.01.08.19.51-.34.1.09-.04.22.17.14.23-.08.24-.26.2-.04.22-.23.67-1 .12-.05.23.18.3.01.06.36-.25.2-.07-.16-.2.01-.3.42-.1.37-.16.26h-.15l-.23.39.25.17.28.59.08.48-.32.37-.2-.01-.27.38-.22.17-.38.52.15.31-.14.1-.26-.27-.26-.02-.24.14.2-.57.03-.7-.23.5-.45.32-.2.01-.27.27-.18.3-.14.44.1.19v.34l.16-.01.28-.17.31.08v.36l.31-.15.33.25.14-.23.03.38.24.15.75 1.44.73 1.68v.09l.36.9.45 1.95.1.8-.1 1.18-.22.4-.87.5-.24.3-.42.07-.43.21-.33.04-.62-.25-.89.32-.2.3-.9.9-.2.7-.4.32-.36.37-.4.3-.3.27-.6.96-.19.07-.24.38-.2.05-.15.44-.32 1.22-.39.76-.35.1-.45.2-.4.71-.59.6-.8.42-.36.06-.23.3-.45.3h-.44l-.45.5h-.09l-.35.5-.39.18-.29-.06-.3.07-.22.16-.94.26-.19-.16-.15.05-.37-.12-.1.09h-.47l-.32-.08-.6.3-.32-.03-.46.36-.43-.02-.1.11-.4.06-1.06.48-1.03.22-.27.01-.28.16-.16-.06-.7.34-.36.07h-.01l.35 1.32.25 1 .04.12.22.87.32 1.14.16.57.14.53.39 1.46.44 1.71.1.35.2.86.26.96-.35.1-.44.3-.37.33-.1.09-.27.07h-.55l-.22.01-.34-1.22-1.38.33-1.17.28-.92.23v.02l-.02.13-1.2.29-1.5.37-.04-.12.13-.08.16.02.1-.07.05-.09.15.04.01-.1-.12-.18.14.02.03-.2-.08-.2.02-.21.11-.05-.1-.18h-.26l-.04-.02-.01-.2-.27.06-1.07.27-1.03.26-.45.12-1.14.3v-.01l-.1-.46.03-.02-.11-.64.01-.06-.07-.37-1.06.18.05-.57.03-.25.2-2.32-.73.2-1.28.32-.11-.5-.25-.97-.51-2.16-.24-1.05-.22-.94-.2-.86-.16-.56-.5.15-.17-.08-.4.13-1.08.07-1.22.33-.38.23-.69.13-.5.22-.47.02-1.1.26-.2-.01-.56.17-.64.1-.13-.05-2.08.67-.54.03-1.26.45-1.08.54-.75.3-1.07.71-.6.27-.3.1-.52.31h.01c.27.36-.08.36 0 0l-.4.27-.73.31-.54.31-.35.25-1.62 1.01-.49.36-.67.4-.68.3-1.06.6.4.18.11.48.18.5-.02.38.28.27.1.85.2.3.18.38.05.36z" fill="#d1dbdd" stroke="rgb(209, 219, 221)" stroke-width="0.1" data-originalStrokeWidth="0.1" style="stroke: rgb(0, 0, 0); fill: rgb(209, 219, 221); pointer-events: auto; stroke-width: 0.1;" pointer-events="auto"/>
      <path id="NY26" d="m1150.3 224.15 2.53-.6-.05-.2v-.03l.92-.23-.09-.36-1.31-5.54-.23-.97-.38-1.6-.24.03-.02.15-.14.02-.05.07-.14-.1-.08-.01-.13.1-.05.2-.02.06-.09.24-.18.06-.1-.03-.24.09-.16.18-.2.02-.35.1-.07.17.1.17-.19.16-.18.05-.23-.88-.03-.11-.06.17-.08.06-.08.04-.19-.71-.18-.66.29-.08-.09-.33-.99.27-.97.23-.64.14-.3.07-.04.01-.18.05-.2.05-.69.18-.65.14-.16.32-.23.3.19.1.15.23-.04.46-.17.42.05.1 1.59.02.25.27-.07.3-.02.6-.16.44.23.66.25.23.93.33.38.27.65-.1.4.22.3.36.14.28.17.76.44.36.06.24.6.66.15-.04.22.32.02.2-.2.12c.26-.12.18-.11 0 .01l.03.3z" fill="#d1dbdd" stroke="rgb(209, 219, 221)" stroke-width="0.1" data-originalStrokeWidth="0.1" style="stroke: rgb(0, 0, 0); fill: rgb(209, 219, 221); pointer-events: auto; stroke-width: 0.1;" pointer-events="auto"/>
      <path id="NY23" d="m1217.99 233.64-.4-1.28.03-.02-.72-2.1.1-.05-.1-.31-.09.02-.7-2.22.65-.21-.07-.2.08-.03-.07-.16-.11-.35.1-.03-.16-.6-.08.02-.08-.12-.09-.29-.07.02-.06-.16-.12.04-.07-.24.36-.12-.1-.2-.08-.2-.08.02-.07-.2-.28.08-.1-.27-.11.03-.05-.2.17-.04-.08-.3-.06.02-.06-.22-.1.03-.07-.25-.14.04-.06-.25-.09.03-.1-.33.17-.05-.1-.3-.03.01-.09-.3-.06.01-.08-.3-.17.05-.13-.42.07-.01-.16-.33h-.03l-.08-.3-.12.03-.08-.25-2.64.8-.96.29-.02.05v.31l.09.18-.04.16.06.1.07.02.23-.04.13-.05.1.07h.26l.28.1.12.07.16.04.13.1.11.27-.03.03-.06.35.06.23v.12l-.06.14.05.16.07.11.03.28.1.21v.1l-.84.23-.1-.36-1.39.37-.08-.3-.53.14-.45.11-.46.13.42 1.7-1.3.32-.13-.53-1.97.49-.4.09-.89.22-1.42.33-.2.05-.03-.1-.2-.8h.03l-.3-1.13-.2-.7.1-.03-.14-.52-.98.3-.3.1-.63.2-1.05.34-.7.23-.1-.11-.49.05h-.05l.14.22-1.66.52-.4.12-.1.03-.22.07-.1-.35-1.28.34-1.4.4-.2-.73-.11-.41-.23-.81-.44-1.61-.18-.04-.04.16-.15.25-.15.12-.2.05-.14.4-.2.63.06.2-.52.16-.83.21-.2-.76-.24.06-.02-.05-.43.1.22.85-.21.05.24.94-.4.12.08.28-.03.02.03.13.03.1-.05.11.06.13-.26.08.13.48-1.41.35-.36.5v.03l-.4.1.03.16-.37.1.04.15-1.15.26-.24-1-.82.18-.19.03-.21-.95-.67.16-.1-.43-.26.06-.05-.24-.21.05-.04-.13-.22.06.03.12-.24.05.1.44-.45.1.02.12-.19.06h-.05l.04.16-1.08.26.2.81-1.13.25-.25.04-.1-.53-.34-1.55-.51.11-.09.02-.7.14-1.34.28-.11-.43-.23-.9-.76.18-.84.2-.37.1-1.59.38-.97.25.05-.1-.44.1-1.45.35-1.46.36-.33.07-.34.08-.42.1-1.5.39-.99.26-1.19.32v.01l-1.35.34-.33-1.53-.1-.44-.3-1.31-.3-1.16-.28-1.1-.59-2.52-.56.12-.45-2.04-.14-.65h.01l.48-.11-.3-1.25-.05-.23-.36-1.45v-.02l-.09-.4-.25-1.15-.32-1.26-.2-.8-.06-.18-.08.13-.14-.03-.13.07-.08-.06-.07.13-.1-.02-.06.09-.08-.03-.07-.14-.13-.05-.1-.15-.13.06v.11l-.07.1-.18.06-.16.14-.15-.14-.05-.17-.11-.05-.08.09.02.12-.19.14.03-.14-.1-.07-.02.26-.2.11h-.2l-.02.14.14.1-.03.19-.05.07-.1-.07-.02.15-.09-.01-.18.06-.07-.1h-.14l-.13-.03.07-.19-.15-.09-.22-.92-.14-.55-.1-.13-.18.04.03-.11-.03-.26-.13.08.02.08-.15.02-.03-.12-.94.16.04.13h-.15l-.61.13-.06.25-.12.04-.13-.68-.36.26-.15.08-.04-.24h-.17l.24 1.06-1.04.25-.51.13.09.33-.29.08.18.66.19.7.08-.04.08-.04v-.01l.06-.17.03.11.22.88.2-.05.17-.15-.1-.18.08-.17.34-.1.2-.02.16-.18.25-.09.1.03.18-.06.09-.24.02-.06.05-.2.13-.1h.07l.14.11.06-.07.14-.02.02-.15.24-.04.38 1.6.22.98 1.32 5.54.09.36-.93.23.01.03.04.2-2.52.6.13.18.17.2.08.31-.2.44-.9 1.33-.56.3-.87 1.07-.32.11-.82.62-.05.5-.12.4.12.61-.3.22-.08.3-.18.1-.06.27-.23.33v.32l-.1.06.01.26-.17.17v.84l-.14.4-.28.07-.32.2-.1-.07-.12.21-1 .7-.29.07-.06.18-.35.32-.1.3-.35.12-.06.1-.42.24-.16.44-.28.1-.34-.09-.07.46-.33.54-.45.53-.28.1-.01.67-.5.77-.42.32-.67.87-.65.76-.15.07-.3.43-.36.35-.2.03-.28.43-.62.7-.75.7-1.1.97-.48.31.24 1.07.04.14.08.36.26 1.11.21 1.01.44 2 .32 1.36.3 1.34 1.9-.43 1.19-.27.77-.17.66-.15.25-.05.53-.12.33-.06.12-.04 1-.23.43-.1.77-.18 1.03-.24 1.58-.36.68-.15.22-.07.48-.1.4-.1.73-.19.6-.14.3-.07.33-.07 1.75-.4 1.9-.42.17-.04.42-.09.16-.04 1.1-.23 1.62-.4 2.7-.65 1.47-.38.28-.08h.02l1.36-.3.87-.23.63-.14.6-.15.53-.12.67-.17.72-.17.47-.1.2-.04.02-.03h.11l.5-.12.94-.23.29-.07.47-.12 1.17-.28.43-.13 1.24-.3 1.5-.36.6-.13 1.1-.25.38-.09.15-.03.37-.09 1.6-.37.16-.04 1.03-.27 1.07-.26.75-.19.35-.09.2-.06.55-.14.78-.2.5-.13.26-.06.55-.14.73-.18 1.32-.35.35-.09.3-.08 1.14-.28.73-.17.68-.17.52-.14h.05l.47-.12.29-.09 1.05-.25.83-.2.37-.1.55-.15.98-.24.02-.02.18-.04.3-.06.03-.03.36-.08.71-.2 1.12-.3 1.1-.28.51-.15.9-.24.03-.02.75-.18.76-.2.44-.1.65-.2.85-.2.12-.02.2-.04.1-.05h.08l.44-.12 1.35-.33.31-.08.24-.06.6-.15.87-.2.1-.04.44-.1.18-.05.66-.17.5-.12h.04l.13-.04.48-.1 1.22-.33.3-.06.75-.2.71-.19.45-.12.25-.06.28-.08.56-.15.44-.12.46-.1 1.07-.3.42-.12.15-.05z" fill="#d1dbdd" stroke="rgb(209, 219, 221)" stroke-width="0.1" data-originalStrokeWidth="0.1" style="stroke: rgb(0, 0, 0); fill: rgb(209, 219, 221); pointer-events: auto; stroke-width: 0.1;" pointer-events="auto"/>
      <path id="NY09" d="m1277.52 260.03.1.23h-.16l.04.36.09.24-.03.14-.12.12-.23.1.05.16-.08.21.06.03-.07.19-.06-.03-.06.22.28.14.15.1.07.19.13.1.09.2.24-.1-.03-.07.45-.2.05-.11-.04-.21.16-.25-.02-.18.04-.09.17-.06.02-.09-.15-.4.1-.06.14-.2-.08-.12-.34-.22-.06-.2.03-.17-.2.04-.02-.1-.37.03-.13.06z" fill="#d1dbdd" stroke="rgb(209, 219, 221)" stroke-width="0.1" data-originalStrokeWidth="0.1" style="stroke: rgb(0, 0, 0); fill: rgb(209, 219, 221); pointer-events: auto; stroke-width: 0.1;" pointer-events="auto"/>
      <path id="NY07" d="m1277.08 257.29-.13.46-.07.19-.06.24.04.25.1.18.01.19-.05.22.21.2-.27.06.09.04v.16l-.2.08.04.25.22-.05.14.13v-.1l.19-.04.31-.15-.05-.1.36-.17-.03-.06.86.5v.01l.01.02.02.07.57-.3.11.13.2-.1v.01l.12.08.13-.06-.07-.27v-.11l-.06-.13.1-.07-.34-.35-.11.02.01-.05.02-.12-.12.05-.1-.09-.12-.04-.2.1-.6.15-.29-.25.14-.24.05-.18-.03-.14-.08-.07-.3.03-.02-.1.15-.12v-.21l-.05-.06-.02-.09-.3.2-.52-.15z" fill="#d1dbdd" stroke="rgb(209, 219, 221)" stroke-width="0.1" data-originalStrokeWidth="0.1" style="stroke: rgb(0, 0, 0); fill: rgb(209, 219, 221); pointer-events: auto; stroke-width: 0.1;" pointer-events="auto"/>
      <path id="NY13" d="m1277.21 253.37-.13.01-.07.07h-.16l-.03.06v.34l-.02.22v.03l-.1.66-.03.12-.04.26-.03.84-.07.34-.02.1.12.04-.06.26.17.04.14.09.15-.02.1.1.12.02.1-.13.22-.44-.1-.15-.2-.05-.1-.08-.08.03-.16-.13.04-.07h.02l-.03-.41-.02-.32v-.54h.03l.08-.15.06-.17.08-.07.1.02.03-.14.24-.37-.23-.3z" fill="#d1dbdd" stroke="rgb(209, 219, 221)" stroke-width="0.1" data-originalStrokeWidth="0.1" style="stroke: rgb(0, 0, 0); fill: rgb(209, 219, 221); pointer-events: auto; stroke-width: 0.1;" pointer-events="auto"/>
      <path id="NY15" d="m1277.88 252.42-.12.09-.02.18-.9-.08v.27h-.02v.63l.02-.05.17-.01.06-.07h.14l.1.1.23.3-.23.37-.04.13h-.1l-.08.06-.05.17-.09.15h-.03v.53l.02.32.03.43.12.04.03-.17.15-.02.01-.11.3-.35-.01-.2.1-.1.05-.32.23-.11.08-.16.18-.1.18-.2-.05-.28.12-.03.02-.11-.03-.15.25.09v-.07l-.12-.15-.08-.2-.16-.14-.08.08-.16-.04.02-.22-.17-.22.06-.04v-.22z" fill="#d1dbdd" stroke="rgb(209, 219, 221)" stroke-width="0.1" data-originalStrokeWidth="0.1" style="stroke: rgb(0, 0, 0); fill: rgb(209, 219, 221); pointer-events: auto; stroke-width: 0.1;" pointer-events="auto"/>
      <path id="NY12" d="m1276.07 258.5.15.04-.02.07.18.07.18.02.41.1-.01-.2-.1-.17-.04-.25.06-.24.06-.19.14-.46.07-.1-.08-.15.05-.12-.1-.09-.15.02-.14-.1-.17-.03.06-.26-.12-.04-.24 1.05-.06.27-.1.45-.04.23z" fill="#d1dbdd" stroke="rgb(209, 219, 221)" stroke-width="0.1" data-originalStrokeWidth="0.1" style="stroke: rgb(0, 0, 0); fill: rgb(209, 219, 221); pointer-events: auto; stroke-width: 0.1;" pointer-events="auto"/>
      <path id="NY10" d="m1276.63 261.88.14.03.28.1.06-.23.06.03.07-.2-.06-.02.08-.2-.05-.16.23-.11.12-.12.03-.14-.09-.24-.04-.35.16-.01-.1-.23-.2-.05-.04-.08-.12-.01-.15-.13-.21.05-.05-.25.2-.08v-.16l-.09-.04.28-.06-.22-.2.06-.22-.41-.1-.19-.02-.17-.07.01-.07-.14-.05.03.32v.12l.05.43.08.57.23.2.29-.16.2.04-.13.48-.22.35.2.58z" fill="#d1dbdd" stroke="rgb(209, 219, 221)" stroke-width="0.1" data-originalStrokeWidth="0.1" style="stroke: rgb(0, 0, 0); fill: rgb(209, 219, 221); pointer-events: auto; stroke-width: 0.1;" pointer-events="auto"/>
      <path id="NY08" d="m1278.07 264 .7-.52.21-.1.66-.36.3-.13.23-.13.48-.53.07-.1.03-.15.15-.51-.15-.65-.49-.37-.14.07-.08-.19-.24-.23.1-.1.02-.12-.1-.19-.12-.08-.2.1-.1-.14-.58.3-.02-.09-.86-.5.03.05-.36.17.05.1-.32.15-.18.04v.1l.13.01.03.08.2.05h.22l.12-.06.37-.03.03.1.19-.04-.03.17.07.2.33.22.09.12-.15.2-.1.06.15.4-.02.09-.17.06-.03.1.01.17-.16.25.05.2-.06.11-.45.21.03.07-.24.1-.18.1-.06.17-.06.05.15.17.1.03.17.39-.18.1v.22l.26.05z" fill="#d1dbdd" stroke="rgb(209, 219, 221)" stroke-width="0.1" data-originalStrokeWidth="0.1" style="stroke: rgb(0, 0, 0); fill: rgb(209, 219, 221); pointer-events: auto; stroke-width: 0.1;" pointer-events="auto"/>
      <path id="NY05" d="m1282.96 261.9-.02-.1-.05-.2.12-.24.06-.06.16-.05-.05-.08-.06-.2-.16-.12-.05-.07-.03-.05-.1.05-.1.06h-.13l-.18-.06-.13-.26.01-.1.37-.37.02-.04.06-.1-.04-.28.12-.13.2-.14-.01-.05-.14-.22-.1-.38-.01-.18-.04-.1-.29-.88-.16-.28-.04.1-.13.1-.16-.13-.09.12-.2-.14-.2.04-.18.12-.14-.14-.41.34.06.18.14-.09-.05.19-.14.1-.03.1-.1.07-.26.01-.1-.08-.07-.07-.2.21-.19.15-.24.1-.02.12-.01.04.1-.01.34.35-.1.07.07.13v.1l.07.28-.13.06.09.2-.01.12-.11.09.24.23.09.2.14-.08.48.36.15.66-.15.5-.03.16-.06.1-.48.53-.24.13-.3.13-.66.36-.21.1-.64.5.09-.02.98-.46.34-.12v.3q.01 0 0 0l-.02.42.1.36.43-.45.8-.54.89-.76.57-.4z" fill="#d1dbdd" stroke="rgb(209, 219, 221)" stroke-width="0.1" data-originalStrokeWidth="0.1" style="stroke: rgb(0, 0, 0); fill: rgb(209, 219, 221); pointer-events: auto; stroke-width: 0.1;" pointer-events="auto"/>
      <path id="NY04" d="m1289.1 259.99-.04-.12-.01-.03-.36-1.19-.05-.16-.18-.64-.12-.2-.02-.11.05-.3-.12-.32-.08-.3-.19-.42-.17.1-.03-.13-.25.1-.02.09-.44-.05-.1-.09v-.14l-.1-.28-.29.1-.2-.25-.25.07-.04-.32-.14-.36-.32.25-.41.26-.08.03-.42.25-.1.04-.7.41-.17.08-.48.26-.3.15-.32.2-.13.08-.27.22.16.28.3.88.03.1v.18l.1.38.15.22v.05l-.2.14-.11.13.03.29-.05.1-.02.03-.37.38-.01.09.12.26.19.06h.13l.1-.06.1-.05.03.05.05.07.16.12.06.2.05.08-.16.05-.06.06-.13.24.06.2.02.1.44-.14.06.16v.01l.02-.03.26-.1.88-.15 1.45-.4.65-.35.96-.16-.03.21.5-.37.7-.46z" fill="#d1dbdd" stroke="rgb(209, 219, 221)" stroke-width="0.1" data-originalStrokeWidth="0.1" style="stroke: rgb(0, 0, 0); fill: rgb(209, 219, 221); pointer-events: auto; stroke-width: 0.1;" pointer-events="auto"/>
      <path id="NY01" d="m1288.46 249.89.1.45-.02.2-.17.18.12.09.12.02.33.14-.04.14-.16.02-.16.08-.23.2-.2.1.1.24.03.19-.16.04-.21.11-.1.11-.01.13-.13.08.5 1.1.4.83.5-.26.49-.33.93-.61 1.04-.71-.17-.6.3-.13.95-.38.14-.07-.1-.46 2.23-.9.09-.11.17.05.09.43.04.29 1.52-.66-.04-.2.07-.08.56-.25.5-.17.44-.08.2-.08.24-.15.83-.47.18-.14.13-.13.21-.29.07-.12.2-.16.23-.1.16.5.26-.07.33.05.07.22.17.2.1.18.07.06.18.32.55.42 1.12 1.09.66-.55.32-.16.5-.42 1.32-.96 1.8-1.37 2.06-1.6 1.46-1.26 1.06-1 1.55-1.5.42-.44 2.33-2.2 1.65-1.45 1.34-1.3.82-.67.34-.15.03-.1.47-.45.23-.7-.23-.1-.1.08-.62.1-.28-.2-.28.28-.4.23-.43.34.03.22.25.45-.08.22-.17.11-.3-.17-.23.08-.08.31-.42.78-.68.14-.06.4-.28.16-.04.43-.24.24-.33.01-.22-.12-.38-.4-.32-.18-.13-.47-.5-.27-.2.02-.2.3-.05.27-.2.26-.43.07-.25-.14-.29-.02-.28.06-.39.22-.4-.2-.36-.42.06-.32-.12-.08-.5.08-.4-.08-.2-.34-.39-.1-.14-.2.1-.62.15-.28.18-.07.28.17.4.12-.23.48.82-.94v-.27l.1-.43.16-.3-.3.08-.44.4-.28-.08-.4.31-.13.24h-.14l-.1.35-.28.1-.14-.06-.34.14.02.21-.18.52-.24.24v.29l-.15.37-.4.4-.6.24-.14.7-.26.56-.26.17-.37.39-.18.08-.65 1.05-.48.7-.98.83-.82.35-.3.04-.48.23-.76.55-.62.27-.6.15-.79.12-1.17.58-.56.2-.98.18-.93.26-1.16.44-.82-.05-.28.2-.36.02-.23-.14-.19.36-.37.21h-.29l.44.3.15.63v.22l-.49.4-1.1.82-.23-.04-.73.04-.7-.1-.88.08-.47.23-.58-.2-.58-.4-.16.08.05.39.16.51.06-.12.5-.04.18-.2.4.07.05.34-.22.27-.24-.16v.4l-.45-.1-.1.12z" fill="#d1dbdd" stroke="rgb(209, 219, 221)" stroke-width="0.1" data-originalStrokeWidth="0.1" style="stroke: rgb(0, 0, 0); fill: rgb(209, 219, 221); pointer-events: auto; stroke-width: 0.1;" pointer-events="auto"/>
      <path id="NY02" d="m1300.61 247.46-.23.11-.2.16-.07.12-.21.29-.13.14-.18.13-.83.47-.24.15-.2.08-.44.08-.5.17-.56.25-.07.08.04.2-1.52.66-.04-.29-.1-.43-.16-.05-.1.12-2.23.9.11.45-.14.07-.95.38-.3.13.17.6-1.04.7-.93.62-.49.34-.5.25-.1-.19-.01.03.76 1.61-.5.1-.4-.3-.46.08-.02.17.06.16v.21l-.03.05.11-.06.2.42.07.3.12.33-.05.29.02.11.12.2.18.64.04.16.37 1.2v.02l.04.12.42-.23.73-.41.69-.45 1.33-1.04.55-.24.55.24.98-.34.52-.25.64-.4.83-.58.29-.15 1.42-.95.6-.44.88-.68 1.7-1.63 1.19-1.01 1.2-1-1.1-1.08-.56-.42-.18-.32-.07-.06-.1-.17-.16-.2-.07-.22-.34-.06-.25.06z" fill="#d1dbdd" stroke="rgb(209, 219, 221)" stroke-width="0.1" data-originalStrokeWidth="0.1" style="stroke: rgb(0, 0, 0); fill: rgb(209, 219, 221); pointer-events: auto; stroke-width: 0.1;" pointer-events="auto"/>
      <path id="NY03" d="m1280.35 255.15-.11.12-.13.04-.44-.04-.15.03-.2.12.16.2-.06.04.11.18.02.3.13.02.04.19.1-.03.07.09.12-.02.01.08.23.08.21-.05.32-.14-.06-.1.12-.1.12.13.32-.33-.02-.02.06-.09-.18-.19-.13.07-.17-.16h-.01l-.17-.17-.29-.07.1-.13zm7.52 1.11.03-.05V256l-.06-.16.02-.17.46-.08.4.3.5-.1-.76-1.6.01-.04-.3-.63-.5-1.1.13-.09.02-.13.09-.1.21-.12.16-.04-.03-.19-.1-.25.2-.09.23-.2.16-.08.16-.02.04-.14-.33-.14-.12-.02-.12-.1.17-.17.02-.2-.1-.45-.15.08-.44-.03-.07-.14.06-.27-.1-.25-.22-.1h-.17l-.26.06h-.44l-.15-.04-.12-.05-.13.3.01.26.03.2.24.16.03.03.1.15.2.22.1.08.16.13.1.36.3.36-.09.06-.52-.18-.32-.5-.3.13v.18l.24.36-.36.15-.17-.1-.3.13-.23-.23-.16-.53.25-.1.1-.2.16-.05.11.36-.18.3.06.15.3-.13-.08-.46.21-.07-.05-.23-.36-.1-.04-.1-.52.48-.48-.1-.3.3-.27.1-.12.23-.24.09-.07.16-.4-.03-.1.22-.05.43-.1.23.08.45.26.28-.06.25.1.3.17.18-.12.03-.68-.6-.05-.11-.98-.14-.14.2-.2.05.17.24-.19.29.23.17.13.28.3-.25.28.2.08.43-.18.2-.25-.3-.44-.07-.4-.22-.07.17.2.36-.17.4.37.26.2.5-.04.47-.03-.04.09.64-.13.27-.08.08.2.14.1-.12.16.14.13-.12.04-.1.26-.21.14-.07.32-.2.3-.16.47-.26.17-.08.71-.41.03-.01.06-.03.43-.26.08-.02.4-.26.33-.25.13.36.05.32.25-.07.2.26.28-.1.11.27.01.14.1.1.44.04.01-.1.26-.09.03.13z" fill="#d1dbdd" stroke="rgb(209, 219, 221)" stroke-width="0.1" data-originalStrokeWidth="0.1" style="stroke: rgb(0, 0, 0); fill: rgb(209, 219, 221); pointer-events: auto; stroke-width: 0.1;" pointer-events="auto"/>
      <path id="NY14" d="m1280.3 252.79-.13.02-.49-.03-1.04-.05.01.12.11.03.03.1v.3l.11.13.06.22-.13.1-.12-.14-.01.07-.25-.09.04.15-.02.11-.13.03.05.27-.18.2-.17.11-.08.16-.24.12-.05.32-.1.09.01.2-.3.35v.11l-.15.02-.04.17-.13-.05-.04.07.16.13.08-.03.1.08.2.05.1.15-.22.44-.1.13-.12-.03-.05.12.08.16-.07.09.02.05.51.14.3-.19.03.09.22-.1.14.27.13.01.35-.16.05.1.2-.1.07-.05.04-.03.12-.1-.12-.18.1-.1.14-.22.04-.2.1-.19.03-.18-.02-.31-.1-.18.05-.03-.02-.03-.15-.18.21-.12.15-.03.44.04.13-.04.11-.12-.29-.15-.19-.27-.02-.39-.16-.16.05-.2.18-.04.15.3.16-.3.1.29.25.22-.06-.33-.38-.42.16-.3-.1-.3.01-.13z" fill="#d1dbdd" stroke="rgb(209, 219, 221)" stroke-width="0.1" data-originalStrokeWidth="0.1" style="stroke: rgb(0, 0, 0); fill: rgb(209, 219, 221); pointer-events: auto; stroke-width: 0.1;" pointer-events="auto"/>
      <path id="NY16" d="m1279.76 246.29-.43.25-.05-.2-.1.01-.03.15-.15.04-.09-.08-.15.06-.08-.04-.11.07.14.37-.17.01-.13.17.11.12.06.16-.24.04-.09-.22-.16-.08-.12-.1-.2.01-.2.02-.17-.05-.3.06-.23-.07-.14-.09-.18.06-.19-.03-.05.06.02.22-.07.12-.01.14.14.12.08.17-.12.02-.12-.03-.13-.1-.19-.03-.45.14.05.15.07.21.19.35.1.24.11.46.08.55.06.25.04.26.01.04.12.03.2.05.2-.04.1.46.01 1.2.05.57v.07l.9.08.03-.18.12-.09.12.02v.22l-.05.04.17.23-.03.21.16.04.09-.08.16.13.08.21.12.15.13.14.12-.1-.05-.22-.11-.13v-.3l-.03-.1-.11-.03-.01-.11 1.04.04.65-.06.11-.22.09-.52.25-.25-.06-.32.23.14.2-.4-.05-.29.24-.17.1.15.13-.48.05.4.24-.37v-.47l.37-.27-.02-.39-.08-.16-.06-.07.02-.1-.08-.09-.02-.08-.06-.1v-.4l-.04-.06-.07-.04-.2-.17-.15-.16-.19-.18h-.02l-.25-.2-.3-.3-.45-.4-.02-.03-.3-.3-.1-.08z" fill="#d1dbdd" stroke="rgb(209, 219, 221)" stroke-width="0.1" data-originalStrokeWidth="0.1" style="stroke: rgb(0, 0, 0); fill: rgb(209, 219, 221); pointer-events: auto; stroke-width: 0.1;" pointer-events="auto"/>
      <path id="NY17" d="m1279.43 228.39-1.9.77-.9.43-.16.22-.46.59-.08-.03-.1-.2-.05-.03-.05-.17-.1-.03-.15.02-.02-.11h-.08l-.34.15-.09-.05-.07.15.05.05-.15.18h-.07l-.08.29h.17l.16.18-.15.13-.13.05-.04.1-.72-.67-.5-.46-.85.07-.28.01-.01.06.12.07-.03.11.01.18-.18.08-.03.12-.24.16-.03.11-.08.06.11.14-.05.33-.12.1.06.14-.01.11.06.15-.04.12.07.18.09.12.07-.02.16.12-.03.1.06.13.1.08-.13.08.18 1.45.05.24-.33.12-.6.27-.1.07-.56.26-.64 1.81.33.38.14.1.21.3.07.17.1.08h.2l.08.05.04.1-.02.21.02.2-.02.21.04.43.06.23v.16l-.02.16-.21.7-.12.2-.62 1.08-.26.46-.51.92-.28.47-.54.96-.26.46-.67 1.16-.5.92-.29.76.09.02.43.1-.01.08.01-.07h.03l.4.11.3.05.99.25.16.04.11.04h.05l.07.04h.1l.12.03.48.13.4.1.37.1.03.01.4.1.37.1.23.07.19.04.17.04.23.08.3.08.16.04h.04l.14.04.35.1.19.04.4.11.5.12.22.08.15.03.15.04.44.12.07.01.14.05-.01-.04-.05-.26-.06-.25-.07-.55-.12-.46-.1-.24-.19-.35-.12-.36.45-.14.19.04.13.1.12.02.12-.02-.08-.17-.14-.12v-.14l.08-.12-.02-.21.05-.06.2.02.17-.06.14.1.24.06.3-.06.16.05.2-.02.2-.02.12.11.16.08.1.22.23-.04-.06-.16-.1-.11.13-.18h.16l-.14-.38.12-.06.08.03.14-.06.1.08.15-.04.02-.15.1-.02.05.21.43-.26-.08-.05-.17-.17.46-.5.34-.37.16-.2.27-.31.02-.01.3-.34.1-.1.19-.22.25-.26.04-.06.3-.34.62-.63.23-.3.29-.3.22-.27.26-.3.1-.1.3-.33.1-.1-.3-.27-.72-.67-.4-.36-.85-.77-.16-.65-.5-2.24V236l-.12-.5-.13-.75-.07-.3-.1-.46-.04-.15-.02-.12-.02-.04-.03-.05-.01-.1v-.06l-.03-.05v-.08l-.12-.45-.05-.24-.18-.82-.08-.35-.24-1.13-.31-1.37-.01-.1zm34.53 4.24-.17.23-.4.07-.4.43.05.2.33.14.02.02.16-.7h.1l.38-.29zm1.37 1.85.18.47-.23.4.14.15.41-.15.45.06.23.3.2.63.2-.17-.08-.2.07-.24-.25-.4.08-.48-.96-.07zm-34.94 18.36-.02.2.2-.02zm.22.85.16.38.07-.3z" fill="#d1dbdd" stroke="rgb(209, 219, 221)" stroke-width="0.1" data-originalStrokeWidth="0.1" style="stroke: rgb(0, 0, 0); fill: rgb(209, 219, 221); pointer-events: auto; stroke-width: 0.1;" pointer-events="auto"/>
      <path id="NY18" d="m1275.98 215.16-.38.12-.54.15.3 1.34.22.9-.68.07-.52.05-.99.08-1.24.08-.9.1-1.06-.24-1.26-.25-.44-.07-.73-.14-.52-.1-1.02-.17h-.18v.15l-.3.01-.03-.53-.06-.47.04-.38.05-.21h-.18l-.06-.03-.2-.07-.05-.02-1.41-.56-.4-.17-.17-.07.09.42-.46.18-.46-.14-.07 2.46-1.04.18-.1.02-.84.16-1.61.3-.91.15.32.86.31.81.39 1.06.13-.06h.14l.08.21.12-.08.06.13 1.2-.15.73-.65.37-.09.28-.2.05-.15.16-.1.43.17.2.45h.24v.17l-.12.07.23.5.42.43.52.52.2.12.4.8.48.85-.1.12h-.02v.13l.06.17-.02.15.06.12-.1.06v.12l.23.05-.02.2.01.33.1.23-.08.05-.15.36-.1-.1-.14-.03-.03.12.14.14.08.17-.06.1-.1-.13-.1-.02-.1.08v.19l-.69.28-.13.37-.24.55v.03l-.3.67-.08.21-.73.12-.35.85.02.24.22.2.18-.31.09-.21.22.1v.19l-.04.09.16.17.16.26-.3.15-.06.11.02.41-.02.26.14.11-.08.11.07.22 1.33.04.5.01v.11l.48.02-.07.6.47.96-.86.02h-.56l-.02.12-1.32-.02h-.24l-.18-.74-.34-.02-.05.15h-.05l-.1.15-.1.04-.09.14-.12.15-.04-.02h-.02l-.09.12-.09.07.03.1-.03.1-.08-.05-.08.08-.01.14-.06.1-.2.1-.01.17-.18.13-.11-.08-.14.02v.19l-.1.07-.13.02-.12.15-.22.14v.03l-.04.06-.1.04-.14.13v.19l-.1.01-.08.13-.03.14-.18.06.01.18-.05.1-.13.07-.02.17-.07.12-.02.13.02.13-.15.02.08.2-.1.16-.1.07-.04.25-.1.09.05.18-.05.1-.13.17.06.03.01.16-.2.05-1.6.56-.08.04-.77.27-1.04.35-1.77.6-.66.22-.04.09-.12.05-.01.1.1.17.15.06.1.17.03.15.08.12-.18.15.08.18-.04.18.05.15.08.04.15.24.1.02-.06.16.07.09.04.4.06-.05h.35l.07-.07.05-.12.18-.16.22.18v.51l.2.3h.4l.18.1.1.16.27.22.22.1.18.23-.09.16h.03l.51.16.87.25.3.08.38.1.53.17.61.17.3.08.16.04.27.08.24.07.49.15.28.08.44.14.48.12.5.15.4.12.2.06.24.08.13.03.6.2.36.13.46.17.3.1.63.18.3.08 1.06.28.7.19.28-.76.5-.92.67-1.16.26-.46.55-.95.27-.48.51-.92.26-.46.63-1.08.11-.2.05-.16.16-.54.03-.13v-.19l-.06-.23-.05-.43.03-.22-.02-.19.02-.22-.04-.1-.09-.05-.2.01-.1-.08-.06-.17-.22-.3-.13-.1-.33-.38.64-1.81.56-.26.1-.07.6-.27.32-.12-.04-.24-.18-1.45.13-.08-.1-.08-.06-.12.03-.11-.16-.12-.07.02-.09-.12-.07-.18.04-.12-.07-.15.01-.1-.05-.14.12-.11.04-.32-.1-.15.08-.06.03-.1.24-.17.03-.12.18-.08-.01-.18.02-.1-.11-.08v-.06l.28-.01.85-.07.52.46.7.66.05-.09.13-.05.15-.13-.16-.17-.17-.01.08-.29h.07l.15-.18-.05-.05.07-.15.1.05.33-.16.07.01.03.11.15-.02.1.03.05.17.05.03.1.2.08.03.46-.59.16-.22.9-.43 1.89-.82-.03-.1-.02-.13-.17-.68-.16-.62-.06-.3-.1-.53-.3-1.23-.04-.16-.2-.85-.08-.46-.47-2.1-.16-.76-.23-.9-.2-.96-.03-.15-.3-1.3-.15-.56-.24-.97-.23.07z" fill="#d1dbdd" stroke="rgb(209, 219, 221)" stroke-width="0.1" data-originalStrokeWidth="0.1" style="stroke: rgb(0, 0, 0); fill: rgb(209, 219, 221); pointer-events: auto; stroke-width: 0.1;" pointer-events="auto"/>
      <path id="NY19" d="m1273.87 189.62-1.47.73-1.06.52-2.2 1.05-.55.27-1.89.9-.32.16-.27.16-.22.1-.28.15-.06.08-.04.05.11.1.05.05.16-.04-.03.13.23.27-.02.13.05.19-.07.03-.02.02v.16l.08.05.08.14.06.03.08.03.08.18.24.02-.05.1-.04.03-.1.06-.1.05-.06.09-.18.16.33.8.92-.43.09 1.15.03.25.04.79h-.07l-.7.07-.58.05h-.37l-.2.06-.3.03-.04.16h-.06l-.02.3.06.13-.18.07.07.45-.14.14-.15.05v.12l.08.3.21.38.1.12.1.17.1.3.05.32v.18l.02.08.09.45v.4l-.14.58-.05.54.02.2.11.36.11.22-1.12.51-.78.42-.42.21-.8.42-1.09.49-.34.16-.76.36-.7.34-1 .49-.16.06-.74.37-2 .92.09.16.4.72-.06-.04-.2.03-.08.05-.1.18-.04.21-.11.2-.15.1-.2.07h-.15l-.17.14-.07.11-.13-.06-.16.06-.12.12-.23.02-.08.12-.17-.1h-.08l-.06-.1-.18-.05-.2-.03-.1.02-.1-.08-.1.07-1.16.91-.15-.03-.45-.1-.24-.06h-.05l-3.6-.8-2.16-1.72-.7-.55.47-1.67.03-.17.27-1.5.09-.5-.27-.61-.32-.59-.83-1.55-.46-.8-.13-.4-.18-.86.05-1.26h-.05l-1.46-.16-.73-.08-.58-.06-.78-.1-.2-.03-1.86-.22.11.84.09.63.02.34v.3l-.2.3-.86-.25-.8-.22-.32-.1-.06-.02-.36-.09-.65-.16-1.56-.4-.38-.1-.22.83-.1.35-.13.54-1.53.54-.23-.7-.66.24v.12l-.07.09.1.08v.13l.08.08.02.18.06.17-.03.14.1.05.07.17.1.1-.07.14-.07.22.1.16.12.03-.09.12.02.18.04.05-.02.17.02.17.09.12-.04.07.06.19-.1.06.01.2-.27.22-.02.23-.05.04.06.14v.18l-.07.14-.14.04-.05.24-1.61.57-1.1.37-.16.05-.07-.22-1.32.47-.22.07-1.16.4-1.22.41-.35.1-2.61.9-1.02.36-.24.09-.61.23-.85.28-.43.15.7 2.05-1.9.65-.29.1-.34.12-1.57.51.23.72.54 1.71.22.71-.68.24-.1-.1-.2-.09-.17-.13-1.24.4-1.63.5-.4.14-.68-2.21-2.97.9-1.28.39-.08-.27-1.6.5-.81.26-.31.1-.69.22-.03-.1-1.14.36.24.35.14.16.35.34.55.43.25.18.33.15.52.17-1.95.6-.49.14.47 1.51.6 1.91.4 1.33.15.52-.1.03.18.7.3 1.13h-.02l.2.8.02.1.2-.04 1.42-.34.9-.22.4-.1 1.96-.48.13.53 1.3-.32-.42-1.7.46-.13.45-.1.53-.15.08.3 1.4-.36.1.35.84-.23v-.1l-.1-.21-.04-.28-.07-.1-.05-.17.06-.14v-.11l-.06-.24.06-.35.03-.03-.11-.26-.13-.1-.16-.05-.12-.08-.28-.1-.25.01-.1-.06-.13.05-.23.04-.08-.03-.05-.1.03-.16-.1-.18.01-.3.03-.06.95-.3 2.64-.79.08.25.12-.03.08.3h.03l.16.33-.06.01.12.42.17-.05.08.3h.06l.1.3.03-.02.1.3-.17.05.1.33.08-.02.07.24.13-.04.07.25.1-.03.06.22.06-.02.09.3-.18.05.05.19.12-.03.09.27.28-.09.07.22.08-.03.07.2.1.2-.34.12.07.24.12-.04.05.16.08-.01.09.28.08.12.07-.02.15.6-.1.03.12.35.07.16-.08.03.07.2-.65.22.7 2.21.1-.02.08.32-.09.05.72 2.09-.03.02.4 1.28.66-.18.58-.15 1.33-.35.1-.04 1.07-.26.4-.1.83-.24.94-.24 1.54-.4.53-.15h.04l.05-.02.22-.06.45-.1.16-.05.64-.18.53-.17.43-.12 1-.26.03-.02.1-.03.38-.1.14-.03.78-.23.95-.25.76-.22h.05l.66-.19 1.72-.48.33.05.2.1.09.2-.02.3.15.1.19.01.05.03.04.05.12.08.08.04.05.1.02.06.02.02.07.03.07.05.05.02h.05l.03-.02h.14l-.03-.13v-.05l.07-.06h.09l.07.04.02.1v.08l.05.06.06.04h.1l.1.05h.06l.04.1.05.1.02.03.04.13.02.08.02.06.03.06.1.1.06.05.12.18.05.07v.14l-.06.12v.05l.08.2.03.05.03.04h.15l.09.01.07.1.06.1v.07l-.1.17.2.22.34-.26.43.2.06-.03.1-.32.34-.16.38.17.1-.42.14-.02.1.11.08.3.3.21.24-.14.1-.06.31.16.3-.1.1.1.1.44.12.13.26.04.31.15.2-.18.12-.03.1.1v.38l-.35.21-.13.27v.3l.05.12.03.15.27.02.37-.2.1.06.33.1.22.28.13.56.08.23.2.4-.31.08-.08.14.54.55.1.24-.14.25.4.42.1.36.1.4.2.26-.05.26-.13-.07-.17.1.1.2-.2.05-.12.1.24.23.14.14.08.08.36.14.26.4.32.07.32.3.13.27-.15.14.04.16.6.22.07.27.02.2.43-.09.13.25.02.25.05.2.32.11.36-.04.28-.3.41.06.2-.03.12.01.2.22.07.2.3.01.18.17-.07.37.18.03.54-.34.22-.03.5.25.22-.06.03-.2.18-.24.3.05.3.44.12.01.27-.2-.05-.4-.06-.09.06-.16-.1-.02-.16-.24-.08-.04-.05-.15.05-.18-.08-.18.17-.15-.08-.12-.03-.15-.1-.17-.14-.06-.1-.18v-.09l.12-.05.04-.09.66-.22 1.77-.6 1.04-.35.78-.27.06-.04-.07.04-.77.27-1.04.35 1.04-.35.77-.27.07-.04 1.62-.56.2-.05-.02-.15-.06-.04.13-.16.05-.1-.05-.19.1-.09.04-.25.11-.07.1-.17-.08-.2h.15l-.03-.14.02-.13.07-.11.03-.17.12-.08.05-.1V236l.17-.05.04-.15.08-.12.1-.02v-.19l.12-.13.11-.04.03-.07.01-.02.22-.14.12-.15.13-.02.1-.07v-.2l.13-.01.12.08.17-.13.01-.16.2-.1.07-.1v-.15l.08-.08.08.06.04-.12-.03-.1.09-.06.08-.13.07.03.12-.14.08-.15.1-.04.1-.15h.06l.05-.15h.02l.32.02.18.74h.24l1.32.02.01-.11.56-.01.86-.02-.47-.96.07-.6-.48-.02.01-.1-.5-.02-1.33-.04-.07-.21.08-.12-.14-.1.02-.27-.02-.4.06-.12.3-.15-.16-.26-.16-.17.04-.09v-.18l-.22-.11-.08.21-.18.31-.23-.2-.02-.24.35-.85.73-.11.08-.22.29-.67v-.03l.24-.55.14-.37.69-.28v-.18l.1-.09h.02l.06.02.1.14.07-.1-.08-.18-.14-.13.03-.13.14.04.1.09.15-.36.09-.05-.1-.23-.02-.33.02-.2-.22-.05v-.12l.1-.06-.05-.12.01-.15-.07-.17.01-.12.01-.01.12-.12-.49-.84-.39-.81-.2-.12-.95-.94-.22-.5.12-.08v-.16l-.25-.01-.2-.45-.42-.17-.16.1-.05.16-.28.2-.36.08-.73.65-1.21.15-.06-.13-.12.09-.07-.22h-.15l-.13.06-.39-1.06-.3-.8-.33-.87.91-.16 1.61-.3.85-.15.1-.01 1.03-.19.07-2.46.46.14.46-.18-.1-.42.17.07.41.16 1.41.57.05.02.25.1h.19l-.05.2-.04.39.06.47.04.54.3-.01-.02-.15.18-.01.65.1.37.07.53.1.73.14.44.08.48.09.78.15 1.05.23.9-.09 1.25-.08.98-.08.52-.05.68-.08-.22-.88-.3-1.34.55-.15.38-.13-.3-.54-.04-1.66-.02-1.14-.02-.6-.03-1.43-.03-1-.06-2.18v-.43l-.01-.24v-.45l-.02-.48v-.36l-.05-1.9v-.07l-.02-1.07-.03-.9c.09 0-.07 0 0-.01v-.03l-.03-.81v-.11l-.06-2.83v-.4l-.1-3.55-.25.06-.83-1.6.06-.2-.03-.07v-.05l.04-.08-.04-.03-.1-.14-.1-.43.16-.02z" fill="#d1dbdd" stroke="rgb(209, 219, 221)" stroke-width="0.1" data-originalStrokeWidth="0.1" style="stroke: rgb(0, 0, 0); fill: rgb(209, 219, 221); pointer-events: auto; stroke-width: 0.1;" pointer-events="auto"/>
      <path id="NY20" d="m1273.03 186.35-2.61.9-.27.08v-.1l-.23.02-.11-.1-.14.02-.1.09-.04-.1-.2-.03-.17.13h-.1l-.07-.07-.13.04-.1.17-.2.18.04.2-3.19 1.03-.6.2-.24.07.04-.11.01-.2-.06-.28-.15-.3.02-.09.34-.4.02-.09-.1-.48.13-.32.02-.22-.68.2-.7.18v-.03l-.58.16-1.12.32-.04.02-.19.05.04-.19-.01-.13.16-.28.01-.32-.11-.13-.02-.17.1-.1.12-.33.1-.13.04-.19.12-.11-.32-.7-.04-.1.68-.31-.56-1.28-.16-.08-.06.07-.2.45-.2.05-.17-.28-.22.1.09.23-.11.05-.08-.17-.13.13h-.12l-.08.1-.1.23-.61.05.43 1.04.05.06.07.2-.2.1.02-.32-.1-.07-.22.31.11.15-.72.31-.8.35-.47.2-.99.42-.63.28-1.42.6-1.06.45-.7.3 1.02 2.47-.72.21-1.1.3-.08.03-.1.03-.29.08-1.94.53.43 1.06-.02.1-.1.1.06.08.22.03.12.19v.1l-.11.01-.1.1.13.19.04.19.09.02.18-.06.1.06.06.16-.02.08-.13.1-.09.13-.03.13.06.11.22-.08-.02.13.04.15.14.19.25.06-.19.22v.16l.1.07.08-.05.12.04.02.1-.11.14.05.15.15-.04.17.05.02.15-.02.18.06.24.18.27.11.09.02.12-.03.13-.11.1.04.1.08.03.15-.02.05.12.15.07.02.07-.06.3.03.12.11.17-.08.32-.09.07-.15-.01-.38.13-.12.07-.23.18.03.15.71.56.14.12.15-.05.02.17.66-.28.01-.07h.89l.39-.16-.06-.56.45.29.12.82.17.51.03.22-.02.7-.02.16-.1.52.04.25-.17.48-.05.17-.07.14-.04.21.03.2-.21.38.03.4.04.09-.02.31.13.2.34.39.1.05.16.54.05.3v.16l-.1.32v.44l-.04.08.03.78v.04l-.05.84.14.38.2-.1 1.99-.91.75-.37.16-.06 1-.5.7-.33.75-.36.35-.16 1.08-.5 1.22-.62.78-.42 1.13-.51-.11-.22-.12-.37-.02-.19.05-.5v-.04l.02-.11.11-.47v-.4l-.08-.45-.02-.26-.05-.31-.1-.31-.09-.17-.1-.12-.21-.39-.09-.29v-.12l.15-.05.15-.15-.08-.44.18-.07-.05-.12.02-.32h.05l.05-.15.3-.03.19-.05h.31l.64-.07.77-.06-.04-.79-.03-.25-.09-1.15-.92.43-.33-.8.19-.16.06-.1.1-.04.09-.06.04-.02.06-.1-.25-.03-.07-.18-.08-.03-.06-.03-.08-.14-.08-.05v-.16l.02-.02.07-.03-.05-.2.02-.12-.23-.27.03-.13-.16.04-.05-.04-.1-.11.1-.13.27-.15.22-.1.27-.16.32-.16 1.88-.9.56-.27 2.2-1.05 1.06-.52 1.46-.75-.06-.23-.4-1.5-.16-.65-.02-.1-.02-.06-.04-.1-.01-.1-.1-.46z" fill="#d1dbdd" stroke="rgb(209, 219, 221)" stroke-width="0.1" data-originalStrokeWidth="0.1" style="stroke: rgb(0, 0, 0); fill: rgb(209, 219, 221); pointer-events: auto; stroke-width: 0.1;" pointer-events="auto"/>
      <path id="NY21" d="m1253.17 124.87-1.96.62-4.55 1.55-2.66.78-2.06.66-5.83 2-1.88.52-2.09.6-2.66.6-1.97.5-2.02.54-.44.14-.2-.18-.03.18-.22.1-.4.01-.4.27-.13.3-.29.08-.36-.05-.17-.32-.62.22-.26-.25-.33.18-.23-.07-.16.1-.56.62-.46.12-.2.3-.08.34-.86.18-.53.2-.39.3-.08.22-.02.43-.36.5-.62.54-.06.2-.66.26-.1.28-.3.02-.3.3.02.57-.52.25-.67.71-.34.07-.13.36-.26.1-.23.4-.34.2-.6.72.2.27-.53.8-.25-.02-.37.8.04.15-.35.2-.15.24-.36.14-.08.56-.85 1.4-.5.64-1.13 2.13-.59 1.12-.7 1.07-.57 1-.45.92-.63 1.05-.53 1.58.03 1.3-.58 1.04.93.3.41.13.85.26.37.1.76.26h.02l.72.23.48.12.71.2v.21l-.08.16.04.07.11-.1.1.03.03.17-.13.21-.21.04-.02.16-.1.12-.05.13-.11.07-.02.1-.1.06.03.14h.09l.08-.06.08.06-.07.17-.18.13-.3.66-.04-.2-.17.06-.08.16-.13-.07v.12l-.06.17.08.2.21.2-.07.12-.08.04.02.16.08.15-.52-.15-.22.8-.08.23-.14.54-.22.78-.88-.26-.17-.07-.52-.13-.02.07-.51-.17.09.32.19.56.48 1.35.04.15.12.41.3.9.14.41.4.97.22.59.08.08.14-.11.22-.24.22-.09.02-.16.16-.16.1-.05.05-.09-.1-.17.06-.16.2-.02.18.05.15-.14.07-.27.16-.17.08-.12.15-.11.14.02.12-.05.17-.16.17-.24.12-.05.04-.13-.04-.13.04-.1.09-.1h.08l.14-.21.11.08.17-.07.1.05.03.13-.16.22.02.2.13.13.13.01.33.16.14-.03.13-.14.09.06.15.01.15.21.04.13.12.27.15.05.15.21.18.13.16.01.04.1.26.08-.07.1-.57.83-.18.27-.15.22-.72 1.06-.39.52-.51.75-1.84.33.08.33.3 1.64.16.9.68-.14.74-.13.23.64.33.86.2.59.69 1.88.18.55.15.35.25.8.03.15.2.53.29.91.09.25.06.18.13.45.45 1.4-1.39-.06-.1 1.95-.08 1.66-.1 1.67.57.03.2 1.25.03.21.07.35.13.77.08.46.36 2.1.2.05.23.12.17-.1.06-.07.02-.22.14-.07.12-.13.27-.02.19-.13.3-.07h.19l.08-.05.09-.15v-.1l.16-.08.01-.1h.09l.06-.01.28.1.07.08.15.06.11-.01.14-.26.06.02.14.06.27-.03-.05.12.09.06.06.04.1.01.15-.04v.17l.06.02.03.2h.14l.04-.1.15.16.15-.04.03.1.22.24.11-.08.06.13.11.06.23-.01.14-.06-.02.16.07.03.15-.1.1-.17-.07-.08.52-.39.12-.07.24-.04.16-.26.14.09.1-.1.12.12.15-.18.25-.25.18.17.7-.33-.96-.93 2.64-.9.94-.33.8-.3.14.1.05.12.3.12.07-.01.2.14.1.11-.02.16.1.06.12-.07.15.07-.06.15.12.06.03-.1.12-.05.13.08.13.12.33.09.15.12.12-.05.05.16.12.1.15-.05.1.06.18-.78.72.15.5-.01h.38l-.32.95h.09l.05.11.08.03-.04.25h-.31l-.3.92.15.43.24.67.43 1.2.3.84.04.12.6 1.67.07.2-.23.1.23.7 1.53-.54.13-.54.1-.35.22-.83.39.1 1.56.4.64.17.36.08.07.01.31.11.8.22.85.25.21-.3v-.3l-.02-.34-.09-.63-.1-.84 1.86.22.2.02.78.1.58.07.73.08 1.45.16h.06l-.05 1.25.18.87.12.4.46.8.84 1.55.31.59.28.62-.1.5-.26 1.49-.04.17-.46 1.67.7.55 2.16 1.71 3.6.8.04.01.24.05.45.11.15.03 1.17-.9.1-.08.09.07h.1l.21.02.18.06.05.08h.08l.17.1.09-.1.22-.02.12-.13.16-.05.13.05.07-.1.17-.15h.15l.2-.07.14-.1.12-.2.04-.21.1-.18.08-.05.2-.03.05.04-.48-.88-.2.1-.14-.39.06-.84-.04-.82.04-.07v-.45l.1-.32v-.16l-.05-.3-.16-.54-.1-.05-.33-.4-.14-.19.02-.3-.04-.1-.03-.4.22-.39-.04-.18.05-.21.07-.14.04-.18.18-.48-.05-.25.1-.52.02-.16.03-.7-.04-.22-.17-.5v-.01l-.12-.82-.45-.29.06.56-.39.17-.88-.01-.01.07-.67.28-.01-.17-.15.05-.14-.12-.71-.56-.04-.15.23-.18.13-.07.37-.13.16.01.09-.07.08-.32-.12-.17-.03-.11.06-.3-.02-.08-.15-.07-.04-.12-.15.02-.08-.03-.04-.1.1-.1.04-.13-.02-.12-.1-.09-.2-.27-.06-.24.02-.18-.02-.15-.16-.05-.16.04-.05-.15.12-.14-.02-.1-.13-.04-.08.05-.1-.07.01-.16.18-.22-.24-.06-.14-.2-.04-.14.02-.13-.22.08-.06-.11.03-.13.09-.12.13-.1.02-.08-.06-.16-.1-.07-.18.06-.09-.02-.04-.2-.13-.18.1-.1.1-.01.01-.1-.12-.18-.22-.03-.06-.08.1-.11.02-.1-.43-1.06 1.95-.53.28-.08.1-.03.07-.03 1.1-.3.73-.21-1.02-2.47.7-.3 1.06-.44 1.43-.61.63-.28.99-.42.47-.2.8-.34.72-.31-.12-.16.22-.31.1.07-.01.32.2-.1-.07-.2-.06-.06-.43-1.04.61-.05.1-.22.1-.1h.1l.14-.14.08.17.1-.04-.09-.23.23-.1.16.28.21-.06.2-.44.06-.08.16.08.56 1.28-.68.3.04.11.32.7-.13.11-.04.19-.09.13-.12.33-.1.1.01.17.12.13-.01.32-.17.28.01.14-.03.18.19-.05.04-.01 1.12-.33.58-.16v.03h.04l.66-.19.68-.19-.02.22-.13.32.1.48-.02.09-.34.4-.02.1.15.3.06.27v.2l-.05.11.24-.07.6-.2 3.18-1.04-.03-.19.19-.18.11-.17.13-.04.06.07h.1l.17-.13.2.02.05.1.1-.08.13-.03.11.12.23-.04v.11l.27-.08 2.62-.9-.26-.88-.03-.17-.3-1.1-.07-.4-.3-1.2-.06-.25-.1-.38-.07-.27-.28-1.14-.03-.07-.4-1.56-.16-.61-.12-.54-.17-.62-.14-.58-.16-.55-.17-.64-.16-.55-.08-.36-.08-.25-.12-.53-.19-.67-.05-.2-.25-.97-.04-.14-.22-.85-.32-1.14-.06-.2v-.03l-.03-.01.01-.08-.04-.02v-.03l.02-.04-.04-.05v-.1l.05-.06v-.16l-.05-.04.02-.02h-.02l-.02-.02-.05-.1h-.05l-.02-.04v-.03l-.1-.02v-.06l.03-.03h-.05l.02-.01v-.02h-.04v-.03h.02v-.03h-.03v-.06l-.01-.07v-.03l-.07-.03-.09-.07-.05-.07h-.02l-.12-.1-.07-.04h-.06l-.27-.1h-.12l-.05-.08-.03-.02-.04.02-.01-.02-.1.03-.02.03h-.03l-.06.05-.02.02-.01-.02v-.04l.02-.19v-.03h-.02l-.1-.03.01-.37v-.02l-.06-.12-.14-.1V167l-.02-.02h-.07l-.03-.02v.05h-.04l-.01-.24-.08-.08v-.08l-.03-.08-.1-.05-.06.14-.2-.03-.2.1-.06.02h-.01l-.03-.04h-.06v.02l-.1.1-.04.03-.02-.05h-.01l-.04.02-.06.17h-.02l-.07-.07-.04-.04h-.03l-.05.01-.31.15.1.13v.02l-.03.3-.02.03v.02h.05l.03.2-.02.06-.02.02v.01l.02.02v.03l-.05.03h-.03l-.03.05.02.05.03.03.03.04v.05l-.04.01h-.03l-.03.04v.03l.1.05.03.01v.03l-.02.07v.05l.09.07v.08l-.07.1h-.04l-.05.07v.01l.04.05v.03l-.03.03h-.05v.07h-.1l-.6-.27-.14-.02-.1-.19.07-.42-.12-.28v-.36l-.3-.27-.05-.26.14-.22.02-.8v-.3l-.1-.2.14-.3.02-.19.07-.35.2-.52-.14-.55.15-.92-.27-.43-.54-.29-.08-.16-.15-.2-.32-.25v-.29l.22-.54-.2-.14-.1-.14v-.6l-.35-.44-.38-.28-.26-.46-.2-.22-.08-.18-.05-.42-.22-.6-.23-.4-.18-1.07-.07-.15-.2-.2-.3-.08-.3-.16-.06-.09-.12-1.1.07-.58v-.56l-.26-.53.16-.47-.1-.82.07-.38-.1-.19v-.14l.43-.64.07-.76.14-.2-.06-.08.24-.28h.13l.04-.48.01-.26-.03-.29-.48-.75-.23-.5-.1-.45-.1-.16-.2-.3-.15-.18-.1-.47.21-.53v-.54l.08-.87-.08-.43-.24-.37-.1-.43-.08-.2-.16-.2-.21-.48-.45-.4-.06-.14-.58-.56-.03-.13-.46-.2-.1-.1-.1-.04-.35-.27-.26-.37v-.35l-.22-.32-.2-.13-.02-.2-.1-.37.13-.2-.16-.19.01-.3.13-.23-.1-.35-.06-.07.1-.08-.14-.19.1-.34-.12-.07-.37-1.45.12-.36v-.14l-.02-.13.02-.32.15-.3v-.28l-.2-.43-.21-.18-.3-.2-.33-.1-.15-.1-.24-.18-.17-.56.13-.35-.04-.54-.03-.27v-.43l.13-.25.13-.14v-.16l-.23-.72-.17-.67-.46-.38-.1-.18.03-.19z" fill="#d1dbdd" stroke="rgb(209, 219, 221)" stroke-width="0.1" data-originalStrokeWidth="0.1" style="stroke: rgb(0, 0, 0); fill: rgb(209, 219, 221); pointer-events: auto; stroke-width: 0.1;" pointer-events="auto"/>
      <path id="NY06" d="m1281.73 255.68-.24.14h-.2l.05.05-.06.09.02.01-.32.33-.12-.12-.12.1.06.1-.32.13-.21.05-.23-.08-.01-.08-.12.02-.07-.09-.1.03-.05-.18-.12-.02-.02.18-.11.2-.04.19-.15.22-.09.1.12.18-.12.1-.04.03-.07.06-.2.1-.05-.1-.35.15-.13-.01-.14-.27-.22.1.05.06v.2l-.15.13.01.1.3-.03.09.07.03.14-.05.18-.14.24.28.25.6-.15.2-.1.12.04h.01l.1.1.09-.04v-.03l.24-.1.18-.15.2-.21.08.07.1.08.25-.01.1-.08.04-.1.14-.1.04-.18-.13.1-.07-.19.42-.34.14.14.18-.12.19-.04.2.14-.18-.13.08-.08.14-.27-.04-.63-.02.03.04-.47zm.2 1.67h-.01l.14.13v-.01zm-2.35 1.35h-.08v.02h.1z" fill="#d1dbdd" stroke="rgb(209, 219, 221)" stroke-width="0.1" data-originalStrokeWidth="0.1" style="stroke: rgb(0, 0, 0); fill: rgb(209, 219, 221); pointer-events: auto; stroke-width: 0.1;" pointer-events="auto"/>
      <g id="state_abbr" fill="#000000" style="display: none; fill: rgb(0, 0, 0);">
        <text id="HI_label" x="491.79" y="769.82" style="font-size: 19.2455px; stroke-width: 1.60379; display: none;">
          <tspan id="HI_tspan" x="491.79" y="769.82" fill="#000000" dy="0" font-family="Arial" font-size="24.06" font-style="normal" font-weight="400" style="text-align: center; stroke-width: 2.57215; fill: rgb(0, 0, 0);" text-anchor="middle">HI</tspan>
        </text>
        <text id="AK_label" x="205.24" y="672.25" style="font-size: 19.2455px; stroke-width: 1.60379; display: none;">
          <tspan id="AK_tspan" x="205.24" y="672.25" fill="#000000" dy="0" font-family="Arial" font-size="24.06" font-style="normal" font-weight="400" style="text-align: center; stroke-width: 2.57215; fill: rgb(0, 0, 0);" text-anchor="middle">AK</tspan>
        </text>
        <text id="FL_label" x="1188.11" y="708.7" style="font-size: 19.2455px; stroke-width: 1.60379; display: none;">
          <tspan id="FL_tspan" x="1188.11" y="708.7" fill="#000000" dy="0" font-family="Arial" font-size="24.06" font-style="normal" font-weight="400" style="text-align: center; stroke-width: 2.57215; fill: rgb(0, 0, 0);" text-anchor="middle">FL</tspan>
        </text>
        <text id="NH_label" x="1306.05" y="167.79" stroke-width="1.1" font-size="13.25" style="display: none;">
          <tspan id="NH_tspan" x="1306.05" y="167.79" fill="#000000" stroke-width="1.1" dy="0" font-family="Arial" font-size="16.56" font-style="normal" font-weight="400" style="text-align: center; fill: rgb(0, 0, 0);" text-anchor="middle">NH</tspan>
        </text>
        <text id="MI_label" x="1019.65" y="246.58" style="font-size: 19.2455px; stroke-width: 1.60379; display: none;">
          <tspan id="MI_tspan" x="1019.65" y="246.58" fill="#000000" dy="0" font-family="Arial" font-size="24.06" font-style="normal" font-weight="400" style="text-align: center; stroke-width: 2.57215; fill: rgb(0, 0, 0);" text-anchor="middle">MI</tspan>
        </text>
        <text id="VT_label" x="1274.28" y="145.01" stroke-width="1.05" font-size="12.65" style="display: none;">
          <tspan id="VT_tspan" x="1274.28" y="145.01" fill="#000000" stroke-width="1.05" dy="0" font-family="Arial" font-size="15.81" font-style="normal" font-weight="400" style="text-align: center; fill: rgb(0, 0, 0);" text-anchor="middle">VT</tspan>
        </text>
        <text id="ME_label" x="1338.99" y="105.14" stroke-width="1.45" font-size="17.36" style="display: none;">
          <tspan id="ME_tspan" x="1338.99" y="105.14" fill="#000000" stroke-width="1.45" dy="0" font-family="Arial" font-size="21.7" font-style="normal" font-weight="400" style="text-align: center; fill: rgb(0, 0, 0);" text-anchor="middle">ME</tspan>
        </text>
        <text id="RI_label" x="1361.38" y="262.84" stroke-width="1.25" font-size="14.98" style="display: none;">
          <tspan id="RI_tspan" x="1361.38" y="262.84" fill="#000000" stroke-width="1.25" dy="0" font-family="Arial" font-size="18.72" font-style="normal" font-weight="400" style="text-align: center; fill: rgb(0, 0, 0);" text-anchor="middle">RI</tspan>
        </text>
        <text id="NY_label" x="1227.27" y="204.12" style="font-size: 19.2455px; stroke-width: 1.60379; display: none;">
          <tspan id="NY_tspan" x="1227.27" y="204.12" fill="#000000" dy="0" font-family="Arial" font-size="24.06" font-style="normal" font-weight="400" style="text-align: center; stroke-width: 2.57215; fill: rgb(0, 0, 0);" text-anchor="middle">NY</tspan>
        </text>
        <text id="PA_label" x="1187.28" y="284.69" style="font-size: 19.2455px; stroke-width: 1.60379; display: none;">
          <tspan id="PA_tspan" x="1187.28" y="284.69" fill="#000000" dy="0" font-family="Arial" font-size="24.06" font-style="normal" font-weight="400" style="text-align: center; stroke-width: 2.57215; fill: rgb(0, 0, 0);" text-anchor="middle">PA</tspan>
        </text>
        <text id="NJ_label" x="1330.57" y="290.09" stroke-width="1.28" font-size="15.4" style="display: none;">
          <tspan id="NJ_tspan" x="1330.57" y="290.09" fill="#000000" stroke-width="1.28" dy="0" font-family="Arial" font-size="19.25" font-style="normal" font-weight="400" style="text-align: center; fill: rgb(0, 0, 0);" text-anchor="middle">NJ</tspan>
        </text>
        <text id="DE_label" x="1320.8" y="328.42" stroke-width="1.36" font-size="16.38" style="display: none;">
          <tspan id="DE_tspan" x="1320.8" y="328.42" fill="#000000" stroke-width="1.36" dy="0" font-family="Arial" font-size="20.47" font-style="normal" font-weight="400" style="text-align: center; fill: rgb(0, 0, 0);" text-anchor="middle">DE</tspan>
        </text>
        <text id="MD_label" x="1310.72" y="368.46" stroke-width="1.34" font-size="16.11" style="display: none;">
          <tspan id="MD_tspan" x="1310.72" y="368.46" fill="#000000" stroke-width="1.34" dy="0" font-family="Arial" font-size="20.13" font-style="normal" font-weight="400" style="text-align: center; fill: rgb(0, 0, 0);" text-anchor="middle">MD</tspan>
        </text>
        <text id="VA_label" x="1198.59" y="392.33" style="font-size: 19.2455px; stroke-width: 1.60379; display: none;">
          <tspan id="VA_tspan" x="1198.59" y="392.33" fill="#000000" dy="0" font-family="Arial" font-size="24.06" font-style="normal" font-weight="400" style="text-align: center; stroke-width: 2.57215; fill: rgb(0, 0, 0);" text-anchor="middle">VA</tspan>
        </text>
        <text id="WV_label" x="1129.66" y="382.3" style="font-size: 19.2455px; stroke-width: 1.60379; display: none;">
          <tspan id="WV_tspan" x="1129.66" y="382.3" fill="#000000" dy="0" font-family="Arial" font-size="24.06" font-style="normal" font-weight="400" style="text-align: center; stroke-width: 2.57215; fill: rgb(0, 0, 0);" text-anchor="middle">WV</tspan>
        </text>
        <text id="OH_label" x="1079.05" y="334.46" style="font-size: 19.2455px; stroke-width: 1.60379; display: none;">
          <tspan id="OH_tspan" x="1079.05" y="334.46" fill="#000000" dy="0" font-family="Arial" font-size="24.06" font-style="normal" font-weight="400" style="text-align: center; stroke-width: 2.57215; fill: rgb(0, 0, 0);" text-anchor="middle">OH</tspan>
        </text>
        <text id="IN_label" x="998.79" y="352.94" style="font-size: 19.2455px; stroke-width: 1.60379; display: none;">
          <tspan id="IN_tspan" x="998.79" y="352.94" fill="#000000" dy="0" font-family="Arial" font-size="24.06" font-style="normal" font-weight="400" style="text-align: center; stroke-width: 2.57215; fill: rgb(0, 0, 0);" text-anchor="middle">IN</tspan>
        </text>
        <text id="IL_label" x="927.43" y="364.36" style="font-size: 19.2455px; stroke-width: 1.60379; display: none;">
          <tspan id="IL_tspan" x="927.43" y="364.36" fill="#000000" dy="0" font-family="Arial" font-size="24.06" font-style="normal" font-weight="400" style="text-align: center; stroke-width: 2.57215; fill: rgb(0, 0, 0);" text-anchor="middle">IL</tspan>
        </text>
        <text id="CT_label" x="1299.17" y="228.46" stroke-width="1.06" font-size="12.74" style="display: none;">
          <tspan id="CT_tspan" x="1299.17" y="228.46" fill="#000000" stroke-width="1.06" dy="0" font-family="Arial" font-size="15.93" font-style="normal" font-weight="400" style="text-align: center; fill: rgb(0, 0, 0);" text-anchor="middle">CT</tspan>
        </text>
        <text id="WI_label" x="898.6" y="224.7" style="font-size: 19.2455px; stroke-width: 1.60379; display: none;">
          <tspan id="WI_tspan" x="898.6" y="224.7" fill="#000000" dy="0" font-family="Arial" font-size="24.06" font-style="normal" font-weight="400" style="text-align: center; stroke-width: 2.57215; fill: rgb(0, 0, 0);" text-anchor="middle">WI</tspan>
        </text>
        <text id="NC_label" x="1205.6" y="458.72" style="font-size: 19.2455px; stroke-width: 1.60379; display: none;">
          <tspan id="NC_tspan" x="1205.6" y="458.72" fill="#000000" dy="0" font-family="Arial" font-size="24.06" font-style="normal" font-weight="400" style="text-align: center; stroke-width: 2.57215; fill: rgb(0, 0, 0);" text-anchor="middle">NC</tspan>
        </text>
        <text id="MA_label" x="1305.87" y="200.67" stroke-width="1.04" font-size="12.46" style="display: none;">
          <tspan id="MA_tspan" x="1305.87" y="200.67" fill="#000000" stroke-width="1.04" dy="0" font-family="Arial" font-size="15.58" font-style="normal" font-weight="400" style="text-align: center; fill: rgb(0, 0, 0);" text-anchor="middle">MA</tspan>
        </text>
        <text id="MO_label" x="854.22" y="422.93" style="font-size: 19.2455px; stroke-width: 1.60379; display: none;">
          <tspan id="MO_tspan" x="854.22" y="422.93" fill="#000000" dy="0" font-family="Arial" font-size="24.06" font-style="normal" font-weight="400" style="text-align: center; stroke-width: 2.57215; fill: rgb(0, 0, 0);" text-anchor="middle">MO</tspan>
        </text>
        <text id="GA_label" x="1106.89" y="574.56" style="font-size: 19.2455px; stroke-width: 1.60379; display: none;">
          <tspan id="GA_tspan" x="1106.89" y="574.56" fill="#000000" dy="0" font-family="Arial" font-size="24.06" font-style="normal" font-weight="400" style="text-align: center; stroke-width: 2.57215; fill: rgb(0, 0, 0);" text-anchor="middle">GA</tspan>
        </text>
        <text id="SC_label" x="1166.32" y="522.49" style="font-size: 19.2455px; stroke-width: 1.60379; display: none;">
          <tspan id="SC_tspan" x="1166.32" y="522.49" fill="#000000" dy="0" font-family="Arial" font-size="24.06" font-style="normal" font-weight="400" style="text-align: center; stroke-width: 2.57215; fill: rgb(0, 0, 0);" text-anchor="middle">SC</tspan>
        </text>
        <text id="KY_label" x="1039.99" y="426.39" style="font-size: 19.2455px; stroke-width: 1.60379; display: none;">
          <tspan id="KY_tspan" x="1039.99" y="426.39" fill="#000000" dy="0" font-family="Arial" font-size="24.06" font-style="normal" font-weight="400" style="text-align: center; stroke-width: 2.57215; fill: rgb(0, 0, 0);" text-anchor="middle">KY</tspan>
        </text>
        <text id="AL_label" x="1019.59" y="578.15" style="font-size: 19.2455px; stroke-width: 1.60379; display: none;">
          <tspan id="AL_tspan" fill="#000000" dy="0" font-family="Arial" font-size="24.06" font-style="normal" font-weight="400" style="text-align: center; stroke-width: 2.57215; fill: rgb(0, 0, 0);" text-anchor="middle">AL</tspan>
        </text>
        <text id="LA_label" x="872.7" y="649.59" style="font-size: 19.2455px; stroke-width: 1.60379; display: none;">
          <tspan id="LA_tspan" x="872.7" y="649.59" fill="#000000" dy="0" font-family="Arial" font-size="24.06" font-style="normal" font-weight="400" style="text-align: center; stroke-width: 2.57215; fill: rgb(0, 0, 0);" text-anchor="middle">LA</tspan>
        </text>
        <text id="MS_label" x="940.37" y="592.21" style="font-size: 19.2455px; stroke-width: 1.60379; display: none;">
          <tspan id="MS_tspan" x="940.37" y="592.21" fill="#000000" dy="0" font-family="Arial" font-size="24.06" font-style="normal" font-weight="400" style="text-align: center; stroke-width: 2.57215; fill: rgb(0, 0, 0);" text-anchor="middle">MS</tspan>
        </text>
        <text id="IA_label" x="823.33" y="308.44" style="font-size: 19.2455px; stroke-width: 1.60379; display: none;">
          <tspan id="IA_tspan" x="823.33" y="308.44" fill="#000000" dy="0" font-family="Arial" font-size="24.06" font-style="normal" font-weight="400" style="text-align: center; stroke-width: 2.57215; fill: rgb(0, 0, 0);" text-anchor="middle">IA</tspan>
        </text>
        <text id="MN_label" x="790.84" y="183.37" style="font-size: 19.2455px; stroke-width: 1.60379; display: none;">
          <tspan id="MN_tspan" x="790.84" y="183.37" fill="#000000" dy="0" font-family="Arial" font-size="24.06" font-style="normal" font-weight="400" style="text-align: center; stroke-width: 2.57215; fill: rgb(0, 0, 0);" text-anchor="middle">MN</tspan>
        </text>
        <text id="OK_label" x="732.05" y="519.54" style="font-size: 19.2455px; stroke-width: 1.60379; display: none;">
          <tspan id="OK_tspan" x="732.05" y="519.54" fill="#000000" dy="0" font-family="Arial" font-size="24.06" font-style="normal" font-weight="400" style="text-align: center; stroke-width: 2.57215; fill: rgb(0, 0, 0);" text-anchor="middle">OK</tspan>
        </text>
        <text id="TX_label" x="710.59" y="652.87" style="font-size: 19.2455px; stroke-width: 1.60379; display: none;">
          <tspan id="TX_tspan" x="710.59" y="652.87" fill="#000000" dy="0" font-family="Arial" font-size="24.06" font-style="normal" font-weight="400" style="text-align: center; stroke-width: 2.57215; fill: rgb(0, 0, 0);" text-anchor="middle">TX</tspan>
        </text>
        <text id="NM_label" x="506.94" y="542.36" style="font-size: 19.2455px; stroke-width: 1.60379; display: none;">
          <tspan id="NM_tspan" x="506.94" y="542.36" fill="#000000" dy="0" font-family="Arial" font-size="24.06" font-style="normal" font-weight="400" style="text-align: center; stroke-width: 2.57215; fill: rgb(0, 0, 0);" text-anchor="middle">NM</tspan>
        </text>
        <text id="KS_label" x="701.21" y="427.26" style="font-size: 19.2455px; stroke-width: 1.60379; display: none;">
          <tspan id="KS_tspan" x="701.21" y="427.26" fill="#000000" dy="0" font-family="Arial" font-size="24.06" font-style="normal" font-weight="400" style="text-align: center; stroke-width: 2.57215; fill: rgb(0, 0, 0);" text-anchor="middle">KS</tspan>
        </text>
        <text id="NE_label" x="686.63" y="337.29" style="font-size: 19.2455px; stroke-width: 1.60379; display: none;">
          <tspan id="NE_tspan" x="686.63" y="337.29" fill="#000000" dy="0" font-family="Arial" font-size="24.06" font-style="normal" font-weight="400" style="text-align: center; stroke-width: 2.57215; fill: rgb(0, 0, 0);" text-anchor="middle">NE</tspan>
        </text>
        <text id="SD_label" x="663.02" y="238.75" style="font-size: 19.2455px; stroke-width: 1.60379; display: none;">
          <tspan id="SD_tspan" x="663.02" y="238.75" fill="#000000" dy="0" font-family="Arial" font-size="24.06" font-style="normal" font-weight="400" style="text-align: center; stroke-width: 2.57215; fill: rgb(0, 0, 0);" text-anchor="middle">SD</tspan>
        </text>
        <text id="ND_label" x="663.02" y="150.75" style="font-size: 19.2455px; stroke-width: 1.60379; display: none;">
          <tspan id="ND_tspan" x="663.02" y="150.75" fill="#000000" dy="0" font-family="Arial" font-size="24.06" font-style="normal" font-weight="400" style="text-align: center; stroke-width: 2.57215; fill: rgb(0, 0, 0);" text-anchor="middle">ND</tspan>
        </text>
        <text id="WY_label" x="499.57" y="276.47" style="font-size: 19.2455px; stroke-width: 1.60379; display: none;">
          <tspan id="WY_tspan" x="499.57" y="276.47" fill="#000000" dy="0" font-family="Arial" font-size="24.06" font-style="normal" font-weight="400" style="text-align: center; stroke-width: 2.57215; fill: rgb(0, 0, 0);" text-anchor="middle">WY</tspan>
        </text>
        <text id="MT_label" x="487.84" y="155.58" style="font-size: 19.2455px; stroke-width: 1.60379; display: none;">
          <tspan id="MT_tspan" x="487.84" y="155.58" fill="#000000" dy="0" font-family="Arial" font-size="24.06" font-style="normal" font-weight="400" style="text-align: center; stroke-width: 2.57215; fill: rgb(0, 0, 0);" text-anchor="middle">MT</tspan>
        </text>
        <text id="CO_label" x="525.13" y="406.28" style="font-size: 19.2455px; stroke-width: 1.60379; display: none;">
          <tspan id="CO_tspan" x="525.13" y="406.28" fill="#000000" dy="0" font-family="Arial" font-size="24.06" font-style="normal" font-weight="400" style="text-align: center; stroke-width: 2.57215; fill: rgb(0, 0, 0);" text-anchor="middle">CO</tspan>
        </text>
        <text id="ID_label" x="339.94" y="235.07" style="font-size: 19.2455px; stroke-width: 1.60379; display: none;">
          <tspan id="ID_tspan" x="339.94" y="235.07" fill="#000000" dy="0" font-family="Arial" font-size="24.06" font-style="normal" font-weight="400" style="text-align: center; stroke-width: 2.57215; fill: rgb(0, 0, 0);" text-anchor="middle">ID</tspan>
        </text>
        <text id="UT_label" x="396.81" y="386.73" style="font-size: 19.2455px; stroke-width: 1.60379; display: none;">
          <tspan id="UT_tspan" x="396.81" y="386.73" fill="#000000" dy="0" font-family="Arial" font-size="24.06" font-style="normal" font-weight="400" style="text-align: center; stroke-width: 2.57215; fill: rgb(0, 0, 0);" text-anchor="middle">UT</tspan>
        </text>
        <text id="AZ_label" x="366.76" y="536.9" style="font-size: 19.2455px; stroke-width: 1.60379; display: none;">
          <tspan id="AZ_tspan" x="366.76" y="536.9" fill="#000000" dy="0" font-family="Arial" font-size="24.06" font-style="normal" font-weight="400" style="text-align: center; stroke-width: 2.57215; fill: rgb(0, 0, 0);" text-anchor="middle">AZ</tspan>
        </text>
        <text id="NV_label" x="262.47" y="370.64" style="font-size: 19.2455px; stroke-width: 1.60379; display: none;">
          <tspan id="NV_tspan" x="262.47" y="370.64" fill="#000000" dy="0" font-family="Arial" font-size="24.06" font-style="normal" font-weight="400" style="text-align: center; stroke-width: 2.57215; fill: rgb(0, 0, 0);" text-anchor="middle">NV</tspan>
        </text>
        <text id="OR_label" x="214.43" y="206.88" style="font-size: 19.2455px; stroke-width: 1.60379; display: none;">
          <tspan id="OR_tspan" x="214.43" y="206.88" fill="#000000" dy="0" font-family="Arial" font-size="24.06" font-style="normal" font-weight="400" style="text-align: center; stroke-width: 2.57215; fill: rgb(0, 0, 0);" text-anchor="middle">OR</tspan>
        </text>
        <text id="WA_label" x="238.05" y="102.99" style="font-size: 19.2455px; stroke-width: 1.60379; display: none;">
          <tspan id="WA_tspan" x="238.05" y="102.99" fill="#000000" dy="0" font-family="Arial" font-size="24.06" font-style="normal" font-weight="400" style="text-align: center; stroke-width: 2.57215; fill: rgb(0, 0, 0);" text-anchor="middle">WA</tspan>
        </text>
        <text id="CA_label" x="191.69" y="434.8" style="font-size: 19.2455px; stroke-width: 1.60379; display: none;">
          <tspan id="CA_tspan" x="191.69" y="434.8" fill="#000000" dy="0" font-family="Arial" font-size="24.06" font-style="normal" font-weight="400" style="text-align: center; stroke-width: 2.57215; fill: rgb(0, 0, 0);" text-anchor="middle">CA</tspan>
        </text>
        <text id="DC_label" x="1309.32" y="398.19" stroke-width="1.29" font-size="15.45" style="display: none;">
          <tspan id="DC_tspan" x="1309.32" y="398.19" fill="#000000" stroke-width="1.29" dy="0" font-family="Arial" font-size="19.31" font-style="normal" font-weight="400" style="text-align: center; fill: rgb(0, 0, 0);" text-anchor="middle">DC</tspan>
        </text>
        <text id="TN_label" x="1018.93" y="485.72" style="font-size: 19.2455px; stroke-width: 1.60379; display: none;">
          <tspan id="TN_tspan" x="1018.93" y="485.72" fill="#000000" dy="0" font-family="Arial" font-size="24.06" font-style="normal" font-weight="400" style="text-align: center; stroke-width: 2.57215; fill: rgb(0, 0, 0);" text-anchor="middle">TN</tspan>
        </text>
        <text id="AR_label" x="863.15" y="535.77" style="font-size: 19.2455px; stroke-width: 1.60379; display: none;">
          <tspan id="AR_tspan" x="863.15" y="535.77" fill="#000000" dy="0" font-family="Arial" font-size="24.06" font-style="normal" font-weight="400" style="text-align: center; stroke-width: 2.57215; fill: rgb(0, 0, 0);" text-anchor="middle">AR</tspan>
        </text>
      </g>
      <g id="state_borders" transform="translate(-0.04777967,-0.15336683)" stroke="rgb(209, 219, 221)" style="stroke: rgb(0, 0, 0);" stroke-width="0.3">
        <path id="NY_MA_border" d="m1276.54 215.64-.24.06-.55-1.02-.53-21.64" stroke="rgb(209, 219, 221)" stroke-width="0.3" fill="none" style="stroke: rgb(0, 0, 0); display: none;"/>
        <path id="NY_PA_border" d="m1133.9 245.45 1.9 8.37 6.55-1.44 6.65-1.57 6.9-1.55 6.27-1.55 7.37-1.73 3.3-.86 2.88-.64 3.75-.9 7.36-1.9 8.6-2.12 4.56-1.24 3.85-1 9.17-2.27 10.63-2.84 2.87-.74 8.58-2.4.48.1.1.57.95.59.33-.3.46.4.52.9.08.64.5.69.3-.23.52.16.48-.5.36.19.23-.46.39.6.46-.18.65.1.2.62.7.18.32.35-.47.47.18.56.54-.21.67.44.4 1.12-.37.33.53.5-.03.46.39.5.42 1.12-.6.5 1.73 1.38.06.59 1 .53.39.84.79-.33.8.02.74.6.12.4.62-.38.8.22.42-.48.5.52 1.05-.6.4.97.57.13.7.53v.34" stroke="rgb(209, 219, 221)" stroke-width="0.3" fill="none" style="stroke: rgb(0, 0, 0); display: none;"/>
        <path id="NY_VT_border" d="m1253.22 124.88-.02.8.53.55.4 1.57-.23.4.1 2.15 1.25.73.18.47-.28 1.64.62 2.42-.17.57.16.9.42.82.8.78.35.1.84 1.02.4.3.37.68.5 1.44-.04 1.32-.26.62.56 1.1.2.72.6 1v1l-.35.3-.15 1-.46.8.15 1.37-.16.49.26.58-.1 1.13.13 1.08.74.37.24.46.14.98.5 1.4.56.82.72.74-.02.5.33.36-.25.84 1.37 1.25-.16.97.14.56-.4 1.2.09.76-.13 1.19.3.27.14 1.26.8.28.25-.31-.2-.46.18-.55-.15-.56 1.52-.46.42.6.02.5 1.03.43.64.8-.02.32 2.18 8.14 1.7 6.86 1.63 6.2v1.04l.84 1.6.26-.07" stroke="rgb(209, 219, 221)" stroke-width="0.3" fill="none" style="stroke: rgb(0, 0, 0); display: none;"/>
      </g>
      <rect id="selection-rectangle" fill="#ffffccaa" stroke="rgb(209, 219, 221)" stroke-width="0.1"/>
      <ellipse id="selection-ellipse" fill="#ffffccaa" stroke="rgb(209, 219, 221)" stroke-width="0.1"/>
      <polygon id="selection-polygon" fill="#ffffccaa" stroke="rgb(209, 219, 221)" stroke-width="0.1"/>
      <polyline id="selection-polyline" fill="#ffffccaa" stroke="rgb(209, 219, 221)" stroke-width="0.1"/>
    </svg>
  </g>
</svg>
