<?xml version='1.0' encoding='UTF-8'?>
<svg xmlns="http://www.w3.org/2000/svg" xmlns:dc="http://purl.org/dc/elements/1.1/" xmlns:ns2="http://creativecommons.org/ns#" xmlns:rdf="http://www.w3.org/1999/02/22-rdf-syntax-ns#" id="wrapper" viewBox="0 0 1520 840" preserveAspectRatio="xMinYMin" height="840" width="1520" style="background-color: rgb(255, 255, 255);">
  <metadata>
    <rdf:rdf>
      <ns2:work rdf:about="">
        <dc:format>image/svg+xml</dc:format>
        <dc:type rdf:resource="http://purl.org/dc/dcmitype/StillImage"/>
        <dc:title>MapChart Map</dc:title>
        <dc:creator>
          <ns2:agent>
            <dc:title>MapChart.net</dc:title>
          </ns2:agent>
        </dc:creator>
        <ns2:license rdf:resource="http://creativecommons.org/licenses/by-sa/4.0/"/>
        <dc:description>This map was created with MapChart.net, a website for creating custom maps.</dc:description>
      </ns2:work>
      <ns2:license rdf:about="http://creativecommons.org/licenses/by-sa/4.0/">
        <ns2:permits rdf:resource="http://creativecommons.org/ns#Reproduction"/>
        <ns2:permits rdf:resource="http://creativecommons.org/ns#Distribution"/>
        <ns2:requires rdf:resource="http://creativecommons.org/ns#Notice"/>
        <ns2:requires rdf:resource="http://creativecommons.org/ns#Attribution"/>
        <ns2:requires rdf:resource="http://creativecommons.org/ns#ShareAlike"/>
      </ns2:license>
    </rdf:rdf>
  </metadata>
  <g id="map-group" transform="translate(-1385.5606189018386,-1870.8125977332393) scale(4.186503370228256)">
    <svg id="map" width="1520" height="840" version="1.1" viewBox="0 0 1520 840" preserveAspectRatio="xMinYMin" data-originalStrokeWidth="0.3">
      <defs>
        <pattern id="circles3" width="10" height="10" patternUnits="userSpaceOnUse">    <rect width="10" height="10" fill="#fff"/>    <circle cx="4" cy="4" r="2" fill="#000"/>    </pattern>
        <pattern id="diagonal1" width="10" height="10" patternUnits="userSpaceOnUse">    <rect width="10" height="10" fill="#fff"/>    </pattern>
        <pattern id="diagonal3" width="10" height="10" patternUnits="userSpaceOnUse">    <rect width="10" height="10" fill="#fff"/>    </pattern>
        <pattern id="vertical1" width="10" height="10" patternUnits="userSpaceOnUse">    <rect width="10" height="10" fill="#fff"/>    <rect x="2" y="0" width="1" height="10" fill="#000"/>    </pattern>
        <pattern id="vertical3" width="10" height="10" patternUnits="userSpaceOnUse">    <rect width="10" height="10" fill="#fff"/>    <rect x="2" y="0" width="3" height="10" fill="#000"/>    </pattern>
        <pattern id="horizontal1" width="10" height="10" patternUnits="userSpaceOnUse">    <rect width="10" height="10" fill="#fff"/>    <rect x="0" y="2" width="10" height="1" fill="#000"/>    </pattern>
        <pattern id="horizontal3" width="10" height="10" patternUnits="userSpaceOnUse">    <rect width="10" height="10" fill="#fff"/>    <rect x="0" y="2" width="10" height="3" fill="#000"/>    </pattern>
        <pattern id="crosshatch" width="8" height="8" patternUnits="userSpaceOnUse">    <rect width="8" height="8" fill="#fff"/>    </pattern>
        <pattern id="subtlepatch" width="5" height="5" patternUnits="userSpaceOnUse">    <rect width="5" height="5" fill="#fff"/>    <rect x="2" y="2" width="1" height="1" fill="#000"/>    </pattern>
        <pattern id="checkers" width="8" height="8" patternUnits="userSpaceOnUse">    <rect width="8" height="8" fill="#fff"/>    </pattern>
        <pattern id="raindrops" width="10" height="10" patternUnits="userSpaceOnUse">    <rect width="10" height="10" fill="#fff"/>    </pattern>
        <pattern id="texture" width="4" height="4" patternUnits="userSpaceOnUse">    <rect width="4" height="4" fill="#fff"/>    </pattern>
        <pattern id="circles3_a03500_000000" width="10" height="10" patternUnits="userSpaceOnUse">    <rect width="10" height="10" fill="#a03500"/>    <circle cx="4" cy="4" r="2" fill="#000000"/>    </pattern>
        <pattern id="diagonal1_d9b400_535353" width="10" height="10" patternUnits="userSpaceOnUse">    <rect width="10" height="10" fill="#d9b400"/>    </pattern>
        <pattern id="diagonal3_3264c8_ffffff" width="10" height="10" patternUnits="userSpaceOnUse">    <rect width="10" height="10" fill="#3264c8"/>    </pattern>
        <pattern id="horizontal1_72b38e_000000" width="10" height="10" patternUnits="userSpaceOnUse">    <rect width="10" height="10" fill="#72b38e"/>    <rect x="0" y="2" width="10" height="1" fill="#000000"/>    </pattern>
        <pattern id="horizontal3_986ba1_ffffff" width="10" height="10" patternUnits="userSpaceOnUse">    <rect width="10" height="10" fill="#986ba1"/>    <rect x="0" y="2" width="10" height="3" fill="#ffffff"/>    </pattern>
        <pattern id="vertical1_b9a087_ffffff" width="10" height="10" patternUnits="userSpaceOnUse">    <rect width="10" height="10" fill="#b9a087"/>    <rect x="2" y="0" width="1" height="10" fill="#ffffff"/>    </pattern>
        <pattern id="vertical3_4c91bf_ffff33" width="10" height="10" patternUnits="userSpaceOnUse">    <rect width="10" height="10" fill="#4c91bf"/>    <rect x="2" y="0" width="3" height="10" fill="#ffff33"/>    </pattern>
        <pattern id="checkers_cc3333_f7f7f7" width="8" height="8" patternUnits="userSpaceOnUse">    <rect width="8" height="8" fill="#cc3333"/>    </pattern>
        <pattern id="texture_d1dbdd_525252" width="4" height="4" patternUnits="userSpaceOnUse">    <rect width="4" height="4" fill="#d1dbdd"/>    </pattern>
        <style id="map-style">svg { background-color: #ffffff; }</style>
      </defs>
      <path id="NM01" d="m542.76 585.98-2.66-.12.01.14-1.8-.09h-.67l-.22.05-2.24-.12-3.2-.16-.18 4.09-1.55-.09-.99-.06-.05.29-.23-.18-.32-.02-.01-.15-1.26-.08.33-.46.34-.12-.54-.31-.44-.15-.55-.3-.14-.1-.67-.22-.2.04-.23-.2-.49-.27-.57-.54-.1-.28-.55-.58-.35-.22-.16-.02-.52-.33-.23.26-.23-.03-.07-.52.05-.39-.11-.94-.18-.3-.06-.34h-.19l-.37-.34v-.26l-.15-.28-.2-.2-.17.06-.39-.07-.21.1-.24.24-.55-.15-.47.04-.81-.04-1.88-.12.08-1.48.05-1.33.02-.22.1-1.79v-.6l-2.77-.16-3.15-.16-2.15-.18-3.41-.2.23-4.46.24-4.07 2.74.16 2.84.43-.01.07 2.75.15.3-5.55 3.32.2.15-2.72h-.02l.3-5.5h.02l.11-2.35.11-1.82.05-1.36-5.84-.32-6.78-.4.3-5.67h-1.01l-1.19-.7-1.51-.63-.32-.34-.03-.2-.58-.78-2.89-4.16.3-.17.03-.43-.6.13-.18-.27-.01-.34.09-.14.07-.47-.15-.5.34-.51-.06-.77.3-.45.1-.5-.14-.14h-.19l.45-.7.1.02.18-.26-.11-.45.14-.34-.01-.36-.08-.36.04-.35.92.09-.13.17.08.54.1.16.45.01-.2 1.03 5.21.36.12-1.9 1.33.08.04-.62.22-.03.55-.3.14-.34-.14-.15.04-.78.08-.16-2.75-.2-2.04-.1-2.43-.13.15-.35.27-.87.34-.99.3-.47.02-.4-.21-.08-.02-.47-.29-.05.22-.2-.24-.01-.08-.33-.39.05-.23-.38-.17-.1-.1-.47h-.3l.07-.2-.45-.09-.14-.3.46-.5-.2-.47.26-.4.31-.1.02.15.25.02v-.41l.24-.44-.23-.15-1 .14.05-.63.19-.02-.22-.18-3.57-.23-2.36-.16-.09-.33-.21-.05.21-.36-.23-1 .21-.16-.03-.28.29.08.54-.15.21.03.33-.24.33-.02-.06.1.86.05.48.13.06-.68-.12-.54.04-.8.13.01.33.76.13-.02 2.17.12h.61l.26.16-.06.27.2.01v-.16l.37.1v-.48l-.1-.13.1-.26.21.07.14-.36.28.2.08.2.12-.12.2.1.3.02.04-.22h.18V513l1.36 1.1.4.38.15-.18.2.14.34.12.02-.27.82.05.38-.52.33-.18 1.93.23v.2h.25l-.12-.19.03-.34 1.02.1.1-.04.13-2.65.8-.36.7.26 1.22.44-.26 4.4h.08l-.1 2.08.6-.25.33.37.48.24.81.25-.13 2.58 4.5.26-1.07 2.6-.38.53 1.27.07 4.58.23 6.33.33 6.66.32.28-5.53 7.66.36 3.38.17 5.77.24 4.4.2 8.5.31-.2 5.53-.1 2.3-.04.46-.06-.01-.1 1.88-.01 1.15-.21 5.74-.08 2.3 4.63.16-.12 3.56-.27 7.4.09-.01-.06 1.93-.13 3.67 2.7.11-.08 2.75-.1 2.86-.1 2.71 3.24.1-.15 3.65-.46-.29-.23-.04-.2-.23-.41-.24-.36.47-.34.17-.76.16-1.46.89-.22.06-1.01-.05-2.63.02-1.09.21-1.31.02-.1-.08-.73.19-1.42.2-1.14.65-2.16.68v.2H558l-.51.52-.44.26-2.91 3.87-.43.01-.2-.36-.13.1-.02.28-1.15-.04-.03.46-.94-.02-.02.89-2.64-.1-1.13.34-1.56.16-.83.15-1.46-.09-.1 2.01-.48-.03-.12 2.68h-.04l-.11 2.6" fill="#d1dbdd" stroke="rgb(209, 219, 221)" stroke-width="0.1" data-originalStrokeWidth="0.1" style="stroke: rgb(0, 0, 0); fill: rgb(209, 219, 221); pointer-events: auto; stroke-width: 0.1;" pointer-events="auto"/>
      <path id="NM02" d="m429.44 635.6.38-4.33.02-.44.09-.94.03-.44.1-.92.12-1.5.08-.8.26-2.76.2-2.23.05-.66.09-.97.22-2.49.06-.7.16-1.64.04-.58.51-5.72.33-3.5.18-2 .1-1.37.09-.81.29-3.4.16-1.72.12-1.41.08-.9.02-.18.01-.15.02-.29.2-2.26.11-1.18.11-1.13.2-2.25.12-1.53.46-5.13.07-.88.04-.45.21-2.35v-.01l.16-1.75.32-3.58.54-6.13.2-2.17.13-1.34.16-1.95.12-1.45.1-1.25.07-.72.1-1.05.05-.54.1-1.2.25-2.98.14-1.34.1-1.28.04-.48.33-3.66.13-1.34.12-1.48.12-1.18.18-2.15.16-1.82.12-1.25.05-.6.24-2.8.15-1.49.04-.67.1-1.07.09-.9.02-.47.14-1.5.05-.62.35-3.91.15-1.71.14-1.5.15-1.72 3.47.27 1.56.15.25.37-.07.08-.08.72v.46l-.5.58 1.08-.42.23.14.06.21-.07.28-.57.5-.03.33h.39l.38.34.54.18.22.22.63-.01.33-.16.3-.02-.02-.19-.38-.39-.07-.55.81-.32.34-.07 1.48-.11.4.11.8.5.43.05.81-.47.17-1.98.09-1.5.04-.54h.28l.02-.28-.28.1.14-1.14.13-.14.72-.07.37-.13.59.25.02-.23 5.15.4 3.4.29 3.35.3 2.05.16 4.7.36.1-1.38 2.69.2-.12 1.4 2.38.2 5.75.33 1.8.13.86 2.79 1.59.12.93.09 3.47.24 2.36.17 3.57.23.22.17-.2.02-.05.63 1.01-.14.23.15-.24.44v.41l-.25-.02-.02-.15-.3.1-.27.4.21.46-.47.5.14.31.45.1-.08.18.32.01.09.47.17.1.23.38.4-.05.07.33h.24l-.23.2.3.05.02.5.21.07-.03.4-.29.46-.34 1-.27.86-.15.35 2.43.13 2.04.1 2.76.2-.08.16-.06.78.15.15-.14.35-.55.3-.22.02-.04.62-1.33-.07-.12 1.89-5.2-.36.19-1.03-.45-.01-.1-.16-.08-.54.13-.17-.92-.09-.04.35.08.36.01.36-.14.34.1.45-.17.26-.1-.02-.45.7h.2l.13.14-.1.5-.3.45.06.77-.34.51.14.5-.05.47-.1.14v.34l.18.28.6-.14-.01.43-.3.17 2.88 4.15.58.79.03.2.32.34 1.51.64 1.18.7 1.03-.01-.31 5.67 6.78.4 5.84.32-.05 1.36-.1 1.82-.12 2.35-.32 5.5h.02l-.15 2.72-3.31-.2-.3 5.55-2.77-.14.01-.1-2.83-.41-2.74-.15-.24 4.06-.23 4.46 3.4.2 2.15.18 3.15.17 2.77.14v.62l-.09 1.78-.02.22-.05 1.33-.08 1.48 1.88.12.8.04.47-.04.56.16.24-.25.22-.1.39.07.16-.05.2.18.14.3v.25l.38.34h.2l.05.35.18.3.11.93-.05.39.07.52.23.03.23-.26.52.33.16.02.35.22.54.58.11.28.57.54.49.27.23.2.19-.04.68.21.14.12.55.29.44.15.54.31-.34.12-.33.46 1.26.08v.15l.33.02.23.18.05-.3.99.07 1.55.09.18-4.09 3.2.16 2.24.12.22-.04h.67l1.8.08v-.14l2.65.12-.15 3.35-.08 2.2 4.86.2 4.42.17-.02.6h-.23l-.01.47-.12.3-.3.3-.54.74-.06 1.36h-.38l-.23.08-.3.33.23.03.22.92.73.16.23-.12.35.17v.14l.39.28.34.03.34-.15-.06.68-.35.16.03.1 1.29.06.1-.3.01-.48.48-.1 1.26.04.07-1.36h.43l-.04 1.39h.9l-.01.32.82.15.22.37.66-.18.25-.15.83-.28.15-.13.46-.14.4.16h.4l.18-.3.94-.01.3-.16.1-.85.18-.48.02-.56.17-.67.06-.52.24-.31.11-.27.03-.46-.11-.47.45-.38.02-.12 6.13.23 1.57.05-.2 6.16 1.9.08 4.28.14h.4l5.6.18-.05 2.29 5.97.17.32-.44-.3-.16.03-.13h.22v-.18h-.18l.06-.18.22.08.02-.27.32.18.08.2.79-.02v.51l-.02.41v.48l-.05 1.83-.04.96-.02 1.01-.02.77-.02 1.2-.16 6.28-.05 1.68v.23l-.05 2.35-.04 2.06-.08 2.25-.01.93-1.83-.05-1.67-.05-1.88-.05h-.3l-4.21-.13-2.55-.06-1.82-.06-3.15-.1-.99-.03-4.2-.14-.84-.02-.81-.03h-.16l-.5-.03-.77-.01-3.85-.14-1.17-.05-2.9-.1-.32-.03-2.5-.09-4.56-.2-2.49-.1-.8-.03-.62-.03v.1l-.46-.02-2.01-.19-3.53-.15-.63-.03-2.07-.1-3.16-.14-1.16-.05-3.85-.21-4.6-.23-2.36-.14-3.5-.2-3.09-.18-4.84-.29-.94-.05-4.22-.22-1.2-.07h-.1l-1.35-.07-.84-.05-.05-.02-.88-.03-1.92-.1-1.26-.1-.5-.02-.28-.01-.24-.03h-.42l-.04.18-.07.07-.04.03-.14.02h-.06l-.17.13-.07.17.02.1.07.05.14.15h.28l.01.15-.02.07-.06.05-.08.06.03.25.22-.08-.03.23-.23.08.03.16-.01.13-.06.15-.16.16.13.04.07.03.16.11.08.02-.09.1-.08-.02-.04.04-.37.2-.03.01-.13.1-.17.21-.01.13.16.08.1.08.12.14.04.07-.08.15-.13.22-.01.16.19.2.05.14.05.05.21.27.07.01.14.01.14.07v.15l-.05.12v.09l-.07.16.06.1.25.02h.01l.13.09.15.22.02.06.1.1h.02l.11.03.09-.05.2.05.26.09.05.01.06.03v.02l.05.06.01.02.16.13.05.06.02.05.03.06.03.08.04.03h.02l.1.1-.05.11v.05l-5.92-.38-5-.32-5.8-.38-6.12-.42-6.88-.5-6.9-.52-8.05-.63-1.1 14.17-6.36-.51-6.57-.55-2.59-.2-1.65-.13-5.31-.48" fill="#d1dbdd" stroke="rgb(209, 219, 221)" stroke-width="0.1" data-originalStrokeWidth="0.1" style="stroke: rgb(0, 0, 0); fill: rgb(209, 219, 221); pointer-events: auto; stroke-width: 0.1;" pointer-events="auto"/>
      <path id="NM03" d="M592.35 552.68v.07l-.07 2.54-.04 1.91-.07 3.1-.01.23-.07 1.6-.07 1.85-.02.25-.09 2.24-.04.87-.06 1.62-.04 1.15-.05.68-.02.74-.04 1.07-.05.93v.47l-.02.25-.04.86v.48l-.12 2.7-.12 2.49-.06 1.66-.1 1.9-.01.78-.15 3.38v.07l-.03.64-.03.43-.03 1.22-.06.86-.02.98-.01.47-.03 1.32-.02.7-.02.68-.1 3.72-.01.63v.23l-.01.22-.79.02-.08-.21-.32-.17-.02.27-.22-.08-.06.18h.2l-.02.2-.22-.02-.02.13.3.15-.33.45-5.97-.17.04-2.3-5.6-.17h-.4l-4.27-.14-1.9-.1.2-6.14-1.57-.05-6.13-.23-.02.12-.45.38.11.47-.03.46-.11.27-.24.3-.06.53-.16.67-.03.55-.17.48-.1.86-.31.16-.94.01-.18.3h-.4l-.4-.17-.46.15-.15.13-.83.28-.24.15-.66.19-.23-.4-.82-.13.01-.32h-.9l.04-1.39h-.43l-.07 1.36-1.26-.05-.48.11-.01.48-.1.29-1.3-.04-.02-.11.35-.16.06-.68-.34.15-.34-.03-.4-.28v-.13l-.34-.18-.23.1-.73-.14-.23-.92-.21-.03.3-.33.22-.09.38.01.05-1.36.53-.75.32-.29.12-.3.01-.47h.23l.02-.6-4.42-.18-4.86-.18.08-2.22.15-3.35.1-2.58h.05l.12-2.68.5.02.08-2 1.45.07.83-.15 1.57-.17 1.13-.34 2.63.1.02-.88.94.02.02-.47 1.16.04.02-.26.13-.1.2.35.43-.01 2.91-3.87.44-.26.51-.53h.36l.01-.19 2.16-.68 1.14-.65 1.42-.2.73-.19.1.08 1.31-.02 1.09-.21 2.63-.02 1 .05.23-.06 1.47-.9.76-.15.33-.17.36-.47.42.24.2.23.22.04.46.3.15-3.66-3.24-.1.1-2.71.1-2.87.07-2.74-2.69-.11.13-3.67.06-1.93h-.09l.27-7.39.12-3.56-4.62-.16.07-2.3.21-5.73.02-1.16.1-1.88h.05l.04-.45.1-2.3.2-5.53-8.5-.32-4.4-.2-5.77-.23-3.38-.17-7.66-.36-.28 5.53-6.66-.32-6.34-.32-4.57-.24-1.27-.07.38-.53 1.06-2.61-4.49-.24.13-2.6-.8-.24-.49-.24-.34-.37-.6.25.11-2.08h-.08l.25-4.4-1.22-.44-.68-.25-.8.35-.14 2.65-.1.05-1.02-.11-.03.34.12.19h-.25v-.2l-1.93-.23-.33.18-.38.53-.82-.05-.02.26-.35-.12-.2-.14-.14.18-.4-.38-1.35-1.1v.32l-.2.01-.02.22-.3-.02-.2-.1-.13.12-.08-.19-.3-.2-.12.35-.21-.07-.11.26.1.13.02.48-.37-.1-.02.16-.19-.01.06-.27-.26-.15-.6-.01-2.18-.12-.13.02-.32-.76h-.14l-.04.79.12.53-.06.69-.48-.13-.86-.06.06-.1-.33.03-.33.24-.2-.03-.54.14-.3-.06.03.28-.2.16.23.99-.22.36.21.05.09.33-3.47-.24-.93-.09-1.59-.11-.87-2.8-1.79-.13-5.75-.34-2.38-.2.13-1.38-2.7-.2-.1 1.37-4.69-.36-2.05-.16-3.36-.3-3.4-.27-5.15-.42-.01.23-.59-.26-.37.14-.73.07-.13.14-.13 1.15.28-.11-.03.29-.28-.01-.04.54-.09 1.5-.17 1.98-.81.47-.43-.05-.8-.5-.4-.11-1.48.11-.34.07-.8.32.06.55.38.4.02.18-.29.02-.34.16-.63.01-.22-.22-.54-.18-.38-.33-.4-.01.04-.32.57-.5.07-.3-.06-.2-.23-.14-1.07.42.5-.58v-.46l.07-.72.07-.1-.25-.36-1.56-.14-3.47-.27.04-.46.06-.77.07-.86.1-1.12.22-2.69v-.02l.04-.52.05-.58.16-1.68.03-.47.28-2.93.09-1.07.12-1.48.05-.43.03-.29.12-1.48.05-.51.03-.3.06-.65.04-.46.03-.43.04-.62.06-.68.25-2.68.08-.84.1-1.18.11-1.16.17-1.96.04-.5.15-1.66v-.03l.06-.67.09-.94.05-.64.02-.1.03-.5.08-.87.15-1.65.05-.56v-.15l.27-2.83.07-.98.2-2.3.02-.1.06-.66.11-1.19.05-.57v-.22l.19-1.82.27-3.26.2-2.11.08-1 .01-.09.15-1.73.08-.91.09-1 .01-.27.3.03.7.06h.02l3.2.29.43.02 1.54.14 1.16.11 1.49.1 2.87.25.47.03 6.4.52 2.04.15.67.06h.05l2.36.2 2.45.18 1.38.1.46.04 1.21.1h.1l2.46.17 2.37.2.88.06.77.04.76.06 1 .07.92.07.7.05.4.03.55.02.14.02.61.04.14.01 1.2.1.9.06 2.82.19 2.2.16h.01l2 .13 2.81.2h.19l.74.05.17.25.95.05 1.24.09.76.04.7.05 1.32.07 3.22.18 1 .07 2.32.13 2.1.11.87.06 1.27.07h.4l1.38.1.57.01 1.05.06.78.03.7.05 1.08.04.78.05 1.53.09.67.03 1.34.07.95.05.86.04 1.06.06 2.1.1 2.23.14.29.01.86.04 1.7.1 4.94.24 1.49.06.61.04.41.02 1.63.13.62.05.72.01 3.12.14 3.56.16 2.17.09.47.01h.29l3.34.13.74.05 1.87.07h.2l1.14.04.62.01 1.15.03.86.04 2.24.05h.02l.75.03 4.4.1 1.23.04 1.8.06 2.34.04.5.03 1.42.02 1.63.03 1.5.05 1.69.04 2.23.07 2.57.06 2.78.05 2.26.06.88.03-.08 3.12-.09 3.58-.03 1.18-.01.63-.06 1.78-.02 1.43-.02.42-.01 1.05-.03.92-.03 1.04-.03.69-.97-.02-.04 1.28-.01 1.02-.04 1.28-.02 1.17-.03 1.1-.06 2.62-.01.64-.06 2.65-.06 2.24-.04 1.48-.05 2.3-.03.85-.02.92-.05 1.75v.1l-.02.9v.06l-.04 1.78-.03 1.4-.05 1.41-.04 1.3-.01.96-.09 2.95-.24 8.64v1l-.07 2.27-.08 3.32v.2l-.03 1v.3l-.03.88-.02.55-.07 2.94v.73l-.03.43-.02.87-.03 1-.02.6-.03 1.43-.01.3-.11 4.15-.1 3.55v.77l-.03.26-.1 4.18" fill="#d1dbdd" stroke="rgb(209, 219, 221)" stroke-width="0.1" data-originalStrokeWidth="0.1" style="stroke: rgb(0, 0, 0); fill: rgb(209, 219, 221); pointer-events: auto; stroke-width: 0.1;" pointer-events="auto"/>
      <g id="state_lines" stroke="rgb(209, 219, 221)" style="display: none; stroke: rgb(0, 0, 0);" stroke-width="0.1"/>
      <g id="state_abbr" fill="#000000" style="display: none; fill: rgb(0, 0, 0);">
        <text id="HI_label" x="491.79" y="769.82" style="font-size: 19.2455px; stroke-width: 1.60379; display: none;">
          <tspan id="HI_tspan" x="491.79" y="769.82" fill="#000000" dy="0" font-family="Arial" font-size="24.06" font-style="normal" font-weight="400" style="text-align: center; stroke-width: 2.57215; fill: rgb(0, 0, 0);" text-anchor="middle">HI</tspan>
        </text>
        <text id="AK_label" x="205.24" y="672.25" style="font-size: 19.2455px; stroke-width: 1.60379; display: none;">
          <tspan id="AK_tspan" x="205.24" y="672.25" fill="#000000" dy="0" font-family="Arial" font-size="24.06" font-style="normal" font-weight="400" style="text-align: center; stroke-width: 2.57215; fill: rgb(0, 0, 0);" text-anchor="middle">AK</tspan>
        </text>
        <text id="FL_label" x="1188.11" y="708.7" style="font-size: 19.2455px; stroke-width: 1.60379; display: none;">
          <tspan id="FL_tspan" x="1188.11" y="708.7" fill="#000000" dy="0" font-family="Arial" font-size="24.06" font-style="normal" font-weight="400" style="text-align: center; stroke-width: 2.57215; fill: rgb(0, 0, 0);" text-anchor="middle">FL</tspan>
        </text>
        <text id="NH_label" x="1306.05" y="167.79" stroke-width="1.1" font-size="13.25" style="display: none;">
          <tspan id="NH_tspan" x="1306.05" y="167.79" fill="#000000" stroke-width="1.1" dy="0" font-family="Arial" font-size="16.56" font-style="normal" font-weight="400" style="text-align: center; fill: rgb(0, 0, 0);" text-anchor="middle">NH</tspan>
        </text>
        <text id="MI_label" x="1019.65" y="246.58" style="font-size: 19.2455px; stroke-width: 1.60379; display: none;">
          <tspan id="MI_tspan" x="1019.65" y="246.58" fill="#000000" dy="0" font-family="Arial" font-size="24.06" font-style="normal" font-weight="400" style="text-align: center; stroke-width: 2.57215; fill: rgb(0, 0, 0);" text-anchor="middle">MI</tspan>
        </text>
        <text id="VT_label" x="1274.28" y="145.01" stroke-width="1.05" font-size="12.65" style="display: none;">
          <tspan id="VT_tspan" x="1274.28" y="145.01" fill="#000000" stroke-width="1.05" dy="0" font-family="Arial" font-size="15.81" font-style="normal" font-weight="400" style="text-align: center; fill: rgb(0, 0, 0);" text-anchor="middle">VT</tspan>
        </text>
        <text id="ME_label" x="1338.99" y="105.14" stroke-width="1.45" font-size="17.36" style="display: none;">
          <tspan id="ME_tspan" x="1338.99" y="105.14" fill="#000000" stroke-width="1.45" dy="0" font-family="Arial" font-size="21.7" font-style="normal" font-weight="400" style="text-align: center; fill: rgb(0, 0, 0);" text-anchor="middle">ME</tspan>
        </text>
        <text id="RI_label" x="1361.38" y="262.84" stroke-width="1.25" font-size="14.98" style="display: none;">
          <tspan id="RI_tspan" x="1361.38" y="262.84" fill="#000000" stroke-width="1.25" dy="0" font-family="Arial" font-size="18.72" font-style="normal" font-weight="400" style="text-align: center; fill: rgb(0, 0, 0);" text-anchor="middle">RI</tspan>
        </text>
        <text id="NY_label" x="1227.27" y="204.12" style="font-size: 19.2455px; stroke-width: 1.60379; display: none;">
          <tspan id="NY_tspan" x="1227.27" y="204.12" fill="#000000" dy="0" font-family="Arial" font-size="24.06" font-style="normal" font-weight="400" style="text-align: center; stroke-width: 2.57215; fill: rgb(0, 0, 0);" text-anchor="middle">NY</tspan>
        </text>
        <text id="PA_label" x="1187.28" y="284.69" style="font-size: 19.2455px; stroke-width: 1.60379; display: none;">
          <tspan id="PA_tspan" x="1187.28" y="284.69" fill="#000000" dy="0" font-family="Arial" font-size="24.06" font-style="normal" font-weight="400" style="text-align: center; stroke-width: 2.57215; fill: rgb(0, 0, 0);" text-anchor="middle">PA</tspan>
        </text>
        <text id="NJ_label" x="1330.57" y="290.09" stroke-width="1.28" font-size="15.4" style="display: none;">
          <tspan id="NJ_tspan" x="1330.57" y="290.09" fill="#000000" stroke-width="1.28" dy="0" font-family="Arial" font-size="19.25" font-style="normal" font-weight="400" style="text-align: center; fill: rgb(0, 0, 0);" text-anchor="middle">NJ</tspan>
        </text>
        <text id="DE_label" x="1320.8" y="328.42" stroke-width="1.36" font-size="16.38" style="display: none;">
          <tspan id="DE_tspan" x="1320.8" y="328.42" fill="#000000" stroke-width="1.36" dy="0" font-family="Arial" font-size="20.47" font-style="normal" font-weight="400" style="text-align: center; fill: rgb(0, 0, 0);" text-anchor="middle">DE</tspan>
        </text>
        <text id="MD_label" x="1310.72" y="368.46" stroke-width="1.34" font-size="16.11" style="display: none;">
          <tspan id="MD_tspan" x="1310.72" y="368.46" fill="#000000" stroke-width="1.34" dy="0" font-family="Arial" font-size="20.13" font-style="normal" font-weight="400" style="text-align: center; fill: rgb(0, 0, 0);" text-anchor="middle">MD</tspan>
        </text>
        <text id="VA_label" x="1198.59" y="392.33" style="font-size: 19.2455px; stroke-width: 1.60379; display: none;">
          <tspan id="VA_tspan" x="1198.59" y="392.33" fill="#000000" dy="0" font-family="Arial" font-size="24.06" font-style="normal" font-weight="400" style="text-align: center; stroke-width: 2.57215; fill: rgb(0, 0, 0);" text-anchor="middle">VA</tspan>
        </text>
        <text id="WV_label" x="1129.66" y="382.3" style="font-size: 19.2455px; stroke-width: 1.60379; display: none;">
          <tspan id="WV_tspan" x="1129.66" y="382.3" fill="#000000" dy="0" font-family="Arial" font-size="24.06" font-style="normal" font-weight="400" style="text-align: center; stroke-width: 2.57215; fill: rgb(0, 0, 0);" text-anchor="middle">WV</tspan>
        </text>
        <text id="OH_label" x="1079.05" y="334.46" style="font-size: 19.2455px; stroke-width: 1.60379; display: none;">
          <tspan id="OH_tspan" x="1079.05" y="334.46" fill="#000000" dy="0" font-family="Arial" font-size="24.06" font-style="normal" font-weight="400" style="text-align: center; stroke-width: 2.57215; fill: rgb(0, 0, 0);" text-anchor="middle">OH</tspan>
        </text>
        <text id="IN_label" x="998.79" y="352.94" style="font-size: 19.2455px; stroke-width: 1.60379; display: none;">
          <tspan id="IN_tspan" x="998.79" y="352.94" fill="#000000" dy="0" font-family="Arial" font-size="24.06" font-style="normal" font-weight="400" style="text-align: center; stroke-width: 2.57215; fill: rgb(0, 0, 0);" text-anchor="middle">IN</tspan>
        </text>
        <text id="IL_label" x="927.43" y="364.36" style="font-size: 19.2455px; stroke-width: 1.60379; display: none;">
          <tspan id="IL_tspan" x="927.43" y="364.36" fill="#000000" dy="0" font-family="Arial" font-size="24.06" font-style="normal" font-weight="400" style="text-align: center; stroke-width: 2.57215; fill: rgb(0, 0, 0);" text-anchor="middle">IL</tspan>
        </text>
        <text id="CT_label" x="1299.17" y="228.46" stroke-width="1.06" font-size="12.74" style="display: none;">
          <tspan id="CT_tspan" x="1299.17" y="228.46" fill="#000000" stroke-width="1.06" dy="0" font-family="Arial" font-size="15.93" font-style="normal" font-weight="400" style="text-align: center; fill: rgb(0, 0, 0);" text-anchor="middle">CT</tspan>
        </text>
        <text id="WI_label" x="898.6" y="224.7" style="font-size: 19.2455px; stroke-width: 1.60379; display: none;">
          <tspan id="WI_tspan" x="898.6" y="224.7" fill="#000000" dy="0" font-family="Arial" font-size="24.06" font-style="normal" font-weight="400" style="text-align: center; stroke-width: 2.57215; fill: rgb(0, 0, 0);" text-anchor="middle">WI</tspan>
        </text>
        <text id="NC_label" x="1205.6" y="458.72" style="font-size: 19.2455px; stroke-width: 1.60379; display: none;">
          <tspan id="NC_tspan" x="1205.6" y="458.72" fill="#000000" dy="0" font-family="Arial" font-size="24.06" font-style="normal" font-weight="400" style="text-align: center; stroke-width: 2.57215; fill: rgb(0, 0, 0);" text-anchor="middle">NC</tspan>
        </text>
        <text id="MA_label" x="1305.87" y="200.67" stroke-width="1.04" font-size="12.46" style="display: none;">
          <tspan id="MA_tspan" x="1305.87" y="200.67" fill="#000000" stroke-width="1.04" dy="0" font-family="Arial" font-size="15.58" font-style="normal" font-weight="400" style="text-align: center; fill: rgb(0, 0, 0);" text-anchor="middle">MA</tspan>
        </text>
        <text id="MO_label" x="854.22" y="422.93" style="font-size: 19.2455px; stroke-width: 1.60379; display: none;">
          <tspan id="MO_tspan" x="854.22" y="422.93" fill="#000000" dy="0" font-family="Arial" font-size="24.06" font-style="normal" font-weight="400" style="text-align: center; stroke-width: 2.57215; fill: rgb(0, 0, 0);" text-anchor="middle">MO</tspan>
        </text>
        <text id="GA_label" x="1106.89" y="574.56" style="font-size: 19.2455px; stroke-width: 1.60379; display: none;">
          <tspan id="GA_tspan" x="1106.89" y="574.56" fill="#000000" dy="0" font-family="Arial" font-size="24.06" font-style="normal" font-weight="400" style="text-align: center; stroke-width: 2.57215; fill: rgb(0, 0, 0);" text-anchor="middle">GA</tspan>
        </text>
        <text id="SC_label" x="1166.32" y="522.49" style="font-size: 19.2455px; stroke-width: 1.60379; display: none;">
          <tspan id="SC_tspan" x="1166.32" y="522.49" fill="#000000" dy="0" font-family="Arial" font-size="24.06" font-style="normal" font-weight="400" style="text-align: center; stroke-width: 2.57215; fill: rgb(0, 0, 0);" text-anchor="middle">SC</tspan>
        </text>
        <text id="KY_label" x="1039.99" y="426.39" style="font-size: 19.2455px; stroke-width: 1.60379; display: none;">
          <tspan id="KY_tspan" x="1039.99" y="426.39" fill="#000000" dy="0" font-family="Arial" font-size="24.06" font-style="normal" font-weight="400" style="text-align: center; stroke-width: 2.57215; fill: rgb(0, 0, 0);" text-anchor="middle">KY</tspan>
        </text>
        <text id="AL_label" x="1019.59" y="578.15" style="font-size: 19.2455px; stroke-width: 1.60379; display: none;">
          <tspan id="AL_tspan" fill="#000000" dy="0" font-family="Arial" font-size="24.06" font-style="normal" font-weight="400" style="text-align: center; stroke-width: 2.57215; fill: rgb(0, 0, 0);" text-anchor="middle">AL</tspan>
        </text>
        <text id="LA_label" x="872.7" y="649.59" style="font-size: 19.2455px; stroke-width: 1.60379; display: none;">
          <tspan id="LA_tspan" x="872.7" y="649.59" fill="#000000" dy="0" font-family="Arial" font-size="24.06" font-style="normal" font-weight="400" style="text-align: center; stroke-width: 2.57215; fill: rgb(0, 0, 0);" text-anchor="middle">LA</tspan>
        </text>
        <text id="MS_label" x="940.37" y="592.21" style="font-size: 19.2455px; stroke-width: 1.60379; display: none;">
          <tspan id="MS_tspan" x="940.37" y="592.21" fill="#000000" dy="0" font-family="Arial" font-size="24.06" font-style="normal" font-weight="400" style="text-align: center; stroke-width: 2.57215; fill: rgb(0, 0, 0);" text-anchor="middle">MS</tspan>
        </text>
        <text id="IA_label" x="823.33" y="308.44" style="font-size: 19.2455px; stroke-width: 1.60379; display: none;">
          <tspan id="IA_tspan" x="823.33" y="308.44" fill="#000000" dy="0" font-family="Arial" font-size="24.06" font-style="normal" font-weight="400" style="text-align: center; stroke-width: 2.57215; fill: rgb(0, 0, 0);" text-anchor="middle">IA</tspan>
        </text>
        <text id="MN_label" x="790.84" y="183.37" style="font-size: 19.2455px; stroke-width: 1.60379; display: none;">
          <tspan id="MN_tspan" x="790.84" y="183.37" fill="#000000" dy="0" font-family="Arial" font-size="24.06" font-style="normal" font-weight="400" style="text-align: center; stroke-width: 2.57215; fill: rgb(0, 0, 0);" text-anchor="middle">MN</tspan>
        </text>
        <text id="OK_label" x="732.05" y="519.54" style="font-size: 19.2455px; stroke-width: 1.60379; display: none;">
          <tspan id="OK_tspan" x="732.05" y="519.54" fill="#000000" dy="0" font-family="Arial" font-size="24.06" font-style="normal" font-weight="400" style="text-align: center; stroke-width: 2.57215; fill: rgb(0, 0, 0);" text-anchor="middle">OK</tspan>
        </text>
        <text id="TX_label" x="710.59" y="652.87" style="font-size: 19.2455px; stroke-width: 1.60379; display: none;">
          <tspan id="TX_tspan" x="710.59" y="652.87" fill="#000000" dy="0" font-family="Arial" font-size="24.06" font-style="normal" font-weight="400" style="text-align: center; stroke-width: 2.57215; fill: rgb(0, 0, 0);" text-anchor="middle">TX</tspan>
        </text>
        <text id="NM_label" x="506.94" y="542.36" style="font-size: 19.2455px; stroke-width: 1.60379; display: none;">
          <tspan id="NM_tspan" x="506.94" y="542.36" fill="#000000" dy="0" font-family="Arial" font-size="24.06" font-style="normal" font-weight="400" style="text-align: center; stroke-width: 2.57215; fill: rgb(0, 0, 0);" text-anchor="middle">NM</tspan>
        </text>
        <text id="KS_label" x="701.21" y="427.26" style="font-size: 19.2455px; stroke-width: 1.60379; display: none;">
          <tspan id="KS_tspan" x="701.21" y="427.26" fill="#000000" dy="0" font-family="Arial" font-size="24.06" font-style="normal" font-weight="400" style="text-align: center; stroke-width: 2.57215; fill: rgb(0, 0, 0);" text-anchor="middle">KS</tspan>
        </text>
        <text id="NE_label" x="686.63" y="337.29" style="font-size: 19.2455px; stroke-width: 1.60379; display: none;">
          <tspan id="NE_tspan" x="686.63" y="337.29" fill="#000000" dy="0" font-family="Arial" font-size="24.06" font-style="normal" font-weight="400" style="text-align: center; stroke-width: 2.57215; fill: rgb(0, 0, 0);" text-anchor="middle">NE</tspan>
        </text>
        <text id="SD_label" x="663.02" y="238.75" style="font-size: 19.2455px; stroke-width: 1.60379; display: none;">
          <tspan id="SD_tspan" x="663.02" y="238.75" fill="#000000" dy="0" font-family="Arial" font-size="24.06" font-style="normal" font-weight="400" style="text-align: center; stroke-width: 2.57215; fill: rgb(0, 0, 0);" text-anchor="middle">SD</tspan>
        </text>
        <text id="ND_label" x="663.02" y="150.75" style="font-size: 19.2455px; stroke-width: 1.60379; display: none;">
          <tspan id="ND_tspan" x="663.02" y="150.75" fill="#000000" dy="0" font-family="Arial" font-size="24.06" font-style="normal" font-weight="400" style="text-align: center; stroke-width: 2.57215; fill: rgb(0, 0, 0);" text-anchor="middle">ND</tspan>
        </text>
        <text id="WY_label" x="499.57" y="276.47" style="font-size: 19.2455px; stroke-width: 1.60379; display: none;">
          <tspan id="WY_tspan" x="499.57" y="276.47" fill="#000000" dy="0" font-family="Arial" font-size="24.06" font-style="normal" font-weight="400" style="text-align: center; stroke-width: 2.57215; fill: rgb(0, 0, 0);" text-anchor="middle">WY</tspan>
        </text>
        <text id="MT_label" x="487.84" y="155.58" style="font-size: 19.2455px; stroke-width: 1.60379; display: none;">
          <tspan id="MT_tspan" x="487.84" y="155.58" fill="#000000" dy="0" font-family="Arial" font-size="24.06" font-style="normal" font-weight="400" style="text-align: center; stroke-width: 2.57215; fill: rgb(0, 0, 0);" text-anchor="middle">MT</tspan>
        </text>
        <text id="CO_label" x="525.13" y="406.28" style="font-size: 19.2455px; stroke-width: 1.60379; display: none;">
          <tspan id="CO_tspan" x="525.13" y="406.28" fill="#000000" dy="0" font-family="Arial" font-size="24.06" font-style="normal" font-weight="400" style="text-align: center; stroke-width: 2.57215; fill: rgb(0, 0, 0);" text-anchor="middle">CO</tspan>
        </text>
        <text id="ID_label" x="339.94" y="235.07" style="font-size: 19.2455px; stroke-width: 1.60379; display: none;">
          <tspan id="ID_tspan" x="339.94" y="235.07" fill="#000000" dy="0" font-family="Arial" font-size="24.06" font-style="normal" font-weight="400" style="text-align: center; stroke-width: 2.57215; fill: rgb(0, 0, 0);" text-anchor="middle">ID</tspan>
        </text>
        <text id="UT_label" x="396.81" y="386.73" style="font-size: 19.2455px; stroke-width: 1.60379; display: none;">
          <tspan id="UT_tspan" x="396.81" y="386.73" fill="#000000" dy="0" font-family="Arial" font-size="24.06" font-style="normal" font-weight="400" style="text-align: center; stroke-width: 2.57215; fill: rgb(0, 0, 0);" text-anchor="middle">UT</tspan>
        </text>
        <text id="AZ_label" x="366.76" y="536.9" style="font-size: 19.2455px; stroke-width: 1.60379; display: none;">
          <tspan id="AZ_tspan" x="366.76" y="536.9" fill="#000000" dy="0" font-family="Arial" font-size="24.06" font-style="normal" font-weight="400" style="text-align: center; stroke-width: 2.57215; fill: rgb(0, 0, 0);" text-anchor="middle">AZ</tspan>
        </text>
        <text id="NV_label" x="262.47" y="370.64" style="font-size: 19.2455px; stroke-width: 1.60379; display: none;">
          <tspan id="NV_tspan" x="262.47" y="370.64" fill="#000000" dy="0" font-family="Arial" font-size="24.06" font-style="normal" font-weight="400" style="text-align: center; stroke-width: 2.57215; fill: rgb(0, 0, 0);" text-anchor="middle">NV</tspan>
        </text>
        <text id="OR_label" x="214.43" y="206.88" style="font-size: 19.2455px; stroke-width: 1.60379; display: none;">
          <tspan id="OR_tspan" x="214.43" y="206.88" fill="#000000" dy="0" font-family="Arial" font-size="24.06" font-style="normal" font-weight="400" style="text-align: center; stroke-width: 2.57215; fill: rgb(0, 0, 0);" text-anchor="middle">OR</tspan>
        </text>
        <text id="WA_label" x="238.05" y="102.99" style="font-size: 19.2455px; stroke-width: 1.60379; display: none;">
          <tspan id="WA_tspan" x="238.05" y="102.99" fill="#000000" dy="0" font-family="Arial" font-size="24.06" font-style="normal" font-weight="400" style="text-align: center; stroke-width: 2.57215; fill: rgb(0, 0, 0);" text-anchor="middle">WA</tspan>
        </text>
        <text id="CA_label" x="191.69" y="434.8" style="font-size: 19.2455px; stroke-width: 1.60379; display: none;">
          <tspan id="CA_tspan" x="191.69" y="434.8" fill="#000000" dy="0" font-family="Arial" font-size="24.06" font-style="normal" font-weight="400" style="text-align: center; stroke-width: 2.57215; fill: rgb(0, 0, 0);" text-anchor="middle">CA</tspan>
        </text>
        <text id="DC_label" x="1309.32" y="398.19" stroke-width="1.29" font-size="15.45" style="display: none;">
          <tspan id="DC_tspan" x="1309.32" y="398.19" fill="#000000" stroke-width="1.29" dy="0" font-family="Arial" font-size="19.31" font-style="normal" font-weight="400" style="text-align: center; fill: rgb(0, 0, 0);" text-anchor="middle">DC</tspan>
        </text>
        <text id="TN_label" x="1018.93" y="485.72" style="font-size: 19.2455px; stroke-width: 1.60379; display: none;">
          <tspan id="TN_tspan" x="1018.93" y="485.72" fill="#000000" dy="0" font-family="Arial" font-size="24.06" font-style="normal" font-weight="400" style="text-align: center; stroke-width: 2.57215; fill: rgb(0, 0, 0);" text-anchor="middle">TN</tspan>
        </text>
        <text id="AR_label" x="863.15" y="535.77" style="font-size: 19.2455px; stroke-width: 1.60379; display: none;">
          <tspan id="AR_tspan" x="863.15" y="535.77" fill="#000000" dy="0" font-family="Arial" font-size="24.06" font-style="normal" font-weight="400" style="text-align: center; stroke-width: 2.57215; fill: rgb(0, 0, 0);" text-anchor="middle">AR</tspan>
        </text>
      </g>
      <g id="state_borders" transform="translate(-0.04777967,-0.15336683)" stroke="rgb(209, 219, 221)" style="stroke: rgb(0, 0, 0);" stroke-width="0.3">
        <path id="NM_TX_border" d="m595.24 481.2-1-.04-.32 14.13-.78 29.97-.35 13.9-.3 11.36-.24 9.79-1.34 31.75-.28 11.85-.5 19.72-6.95-.18-10.53-.31-8-.26-8.11-.3-13.76-.6-8.12-.36-8.5-.42-6.84-.38-10.45-.6-6.67-.35-6.4-.38-.6.6.5.32-.15 1.15.25.46-.92.63.4.5-.21.53.52.67.33.08-.12.52.72.6.79.15.47.79" stroke="rgb(209, 219, 221)" stroke-width="0.3" fill="none" style="stroke: rgb(0, 0, 0); display: none;"/>
      </g>
      <rect id="selection-rectangle" fill="#ffffccaa" stroke="rgb(209, 219, 221)" stroke-width="0.1"/>
      <ellipse id="selection-ellipse" fill="#ffffccaa" stroke="rgb(209, 219, 221)" stroke-width="0.1"/>
      <polygon id="selection-polygon" fill="#ffffccaa" stroke="rgb(209, 219, 221)" stroke-width="0.1"/>
      <polyline id="selection-polyline" fill="#ffffccaa" stroke="rgb(209, 219, 221)" stroke-width="0.1"/>
    </svg>
  </g>
</svg>
