<?xml version='1.0' encoding='UTF-8'?>
<svg xmlns="http://www.w3.org/2000/svg" xmlns:dc="http://purl.org/dc/elements/1.1/" xmlns:ns2="http://creativecommons.org/ns#" xmlns:rdf="http://www.w3.org/1999/02/22-rdf-syntax-ns#" id="wrapper" viewBox="0 0 1520 840" preserveAspectRatio="xMinYMin" height="840" width="1520" style="background-color: rgb(255, 255, 255);">
  <metadata>
    <rdf:rdf>
      <ns2:work rdf:about="">
        <dc:format>image/svg+xml</dc:format>
        <dc:type rdf:resource="http://purl.org/dc/dcmitype/StillImage"/>
        <dc:title>MapChart Map</dc:title>
        <dc:creator>
          <ns2:agent>
            <dc:title>MapChart.net</dc:title>
          </ns2:agent>
        </dc:creator>
        <ns2:license rdf:resource="http://creativecommons.org/licenses/by-sa/4.0/"/>
        <dc:description>This map was created with MapChart.net, a website for creating custom maps.</dc:description>
      </ns2:work>
      <ns2:license rdf:about="http://creativecommons.org/licenses/by-sa/4.0/">
        <ns2:permits rdf:resource="http://creativecommons.org/ns#Reproduction"/>
        <ns2:permits rdf:resource="http://creativecommons.org/ns#Distribution"/>
        <ns2:requires rdf:resource="http://creativecommons.org/ns#Notice"/>
        <ns2:requires rdf:resource="http://creativecommons.org/ns#Attribution"/>
        <ns2:requires rdf:resource="http://creativecommons.org/ns#ShareAlike"/>
      </ns2:license>
    </rdf:rdf>
  </metadata>
  <g id="map-group" transform="translate(-9366.32275390625,-1839.8794555664062) scale(8)">
    <svg id="map" width="1520" height="840" version="1.1" viewBox="0 0 1520 840" preserveAspectRatio="xMinYMin" data-originalStrokeWidth="0.3">
      <defs>
        <pattern id="circles3" width="10" height="10" patternUnits="userSpaceOnUse">    <rect width="10" height="10" fill="#fff"/>    <circle cx="4" cy="4" r="2" fill="#000"/>    </pattern>
        <pattern id="diagonal1" width="10" height="10" patternUnits="userSpaceOnUse">    <rect width="10" height="10" fill="#fff"/>    </pattern>
        <pattern id="diagonal3" width="10" height="10" patternUnits="userSpaceOnUse">    <rect width="10" height="10" fill="#fff"/>    </pattern>
        <pattern id="vertical1" width="10" height="10" patternUnits="userSpaceOnUse">    <rect width="10" height="10" fill="#fff"/>    <rect x="2" y="0" width="1" height="10" fill="#000"/>    </pattern>
        <pattern id="vertical3" width="10" height="10" patternUnits="userSpaceOnUse">    <rect width="10" height="10" fill="#fff"/>    <rect x="2" y="0" width="3" height="10" fill="#000"/>    </pattern>
        <pattern id="horizontal1" width="10" height="10" patternUnits="userSpaceOnUse">    <rect width="10" height="10" fill="#fff"/>    <rect x="0" y="2" width="10" height="1" fill="#000"/>    </pattern>
        <pattern id="horizontal3" width="10" height="10" patternUnits="userSpaceOnUse">    <rect width="10" height="10" fill="#fff"/>    <rect x="0" y="2" width="10" height="3" fill="#000"/>    </pattern>
        <pattern id="crosshatch" width="8" height="8" patternUnits="userSpaceOnUse">    <rect width="8" height="8" fill="#fff"/>    </pattern>
        <pattern id="subtlepatch" width="5" height="5" patternUnits="userSpaceOnUse">    <rect width="5" height="5" fill="#fff"/>    <rect x="2" y="2" width="1" height="1" fill="#000"/>    </pattern>
        <pattern id="checkers" width="8" height="8" patternUnits="userSpaceOnUse">    <rect width="8" height="8" fill="#fff"/>    </pattern>
        <pattern id="raindrops" width="10" height="10" patternUnits="userSpaceOnUse">    <rect width="10" height="10" fill="#fff"/>    </pattern>
        <pattern id="texture" width="4" height="4" patternUnits="userSpaceOnUse">    <rect width="4" height="4" fill="#fff"/>    </pattern>
        <pattern id="circles3_a03500_000000" width="10" height="10" patternUnits="userSpaceOnUse">    <rect width="10" height="10" fill="#a03500"/>    <circle cx="4" cy="4" r="2" fill="#000000"/>    </pattern>
        <pattern id="diagonal1_d9b400_535353" width="10" height="10" patternUnits="userSpaceOnUse">    <rect width="10" height="10" fill="#d9b400"/>    </pattern>
        <pattern id="diagonal3_3264c8_ffffff" width="10" height="10" patternUnits="userSpaceOnUse">    <rect width="10" height="10" fill="#3264c8"/>    </pattern>
        <pattern id="horizontal1_72b38e_000000" width="10" height="10" patternUnits="userSpaceOnUse">    <rect width="10" height="10" fill="#72b38e"/>    <rect x="0" y="2" width="10" height="1" fill="#000000"/>    </pattern>
        <pattern id="horizontal3_986ba1_ffffff" width="10" height="10" patternUnits="userSpaceOnUse">    <rect width="10" height="10" fill="#986ba1"/>    <rect x="0" y="2" width="10" height="3" fill="#ffffff"/>    </pattern>
        <pattern id="vertical1_b9a087_ffffff" width="10" height="10" patternUnits="userSpaceOnUse">    <rect width="10" height="10" fill="#b9a087"/>    <rect x="2" y="0" width="1" height="10" fill="#ffffff"/>    </pattern>
        <pattern id="vertical3_4c91bf_ffff33" width="10" height="10" patternUnits="userSpaceOnUse">    <rect width="10" height="10" fill="#4c91bf"/>    <rect x="2" y="0" width="3" height="10" fill="#ffff33"/>    </pattern>
        <pattern id="checkers_cc3333_f7f7f7" width="8" height="8" patternUnits="userSpaceOnUse">    <rect width="8" height="8" fill="#cc3333"/>    </pattern>
        <pattern id="texture_d1dbdd_525252" width="4" height="4" patternUnits="userSpaceOnUse">    <rect width="4" height="4" fill="#d1dbdd"/>    </pattern>
        <style id="map-style">svg { background-color: #ffffff; }</style>
      </defs>
      <path id="NJ01" d="m1268.36 294.53-2.78 5.77-2.43-1.27-1.66-.85-1.29.27-.3-.4-.75.3-.23.32h-.15l.4-1.09-1.95-.81-.48.07.51-1.3-.18-.12-.47.63-.36-.39.17-.19-.18-.12-.23.33.05.15-.6-.27.26-.44.34-.12-.5-.1.13-.43-.37-.33.22-.12.24-.17.27-.22.32-.42.2-.3.26-.18.67-.23.07-.03.08-.06.1-.2.02-.15.05-.27v-.1l-.03-.11-.03-.13-.09-.11-.2-.34-.14-.42-.03-.31v-.05l.24-.42.46-.4.22-.11.13-.1.21-.24.05-.1.07-.35v-.09l.1-.35.12-.2.26-.2.2.18.37.1-.03.15-.3.22.25.1.18.24-.01.43.27-.26.52.29.18.18.18-.05.3.42-.3.42.27.13.25-.04.26.17.2.33.6.35 1.43 2.7.28.21.44-.07.14-.12.55-.34.57-.1.34.07.46.25.33.32.64.36.09-.02.55.26" fill="#d1dbdd" stroke="rgb(209, 219, 221)" stroke-width="0.1" data-originalStrokeWidth="0.1" style="stroke: rgb(0, 0, 0); fill: rgb(209, 219, 221); pointer-events: auto; stroke-width: 0.1;" pointer-events="auto"/>
      <path id="NJ02" d="m1251.63 306.83.3-.11.05-.07-.12-.15-.02-.39-.12-.4-.03-.11-.02-.04-.1-.03-.1-.09.03-.1.17-.35.04-.14.08-.4-.2-.38-.1-.04h-.1l-.43-.2-.17-.02-.13-.08-.05-.03-.09-.03-.03-.05-.1-.09-.23-.68.13-.26.13-.32.18-.12.1-.3v-.02l.05-.17.13-.34.02-.05-.02-.25h-.02v-.17l-.01-.01-.05-.2-.02-.09.03-.1.1-.08.11-.2v-.02l.02-.04v-.16l.06-.16.06-.03.16.02.01-.05-.05-.28-.02-.03.01-.14v-.4l.04-.32v-.2l.02-.3.14-.15.02-.18-.03-.02.03-.03.18-.32.22-.2.43-.38h.02l-.27-.1.36-.45.42-.63.3-.48.1-.12.15-.13.38-.24.33-.1.37-.07.48-.14.35-.18.37.33-.13.44.5.08-.33.12-.28.45.6.26-.04-.14.23-.33.18.12-.18.2.37.37.47-.62.18.13-.5 1.3.47-.08 1.94.81-.4 1.1h.16l.23-.34.76-.28.3.4 1.27-.28 1.67.85 2.44 1.27 2.76-5.77 1.73.77.25.19.3.41.28.72.09.42.18.1h.39l.04-.16.2.18.1-.23.88.24.14.19.27.15.52-.16.38.32.17.32.39.06.1-.2.3.09.34.17.06.15.22-.14.24.17.29-.24.1.22.15-.04-.04-.26h.22l.02.28.3.05-.16-.26.02-.14.2.02.23-.33-.16-.2.39-.24.03-.8-1.5-5.4-1.07-1.35 1.91-.73 2.14.39.13-.2.26-.1-.09-.86.32-.07-.13-.24.3-.14.15.16-.07.3.2.42.48-.07.18-.1 1.69-.02.05-.34-.09-.78-.3-1.38-.58.2-.63.34-.31.04-.25.18-.16-.07-.29-.93.06-.26-.1-.15.38-.07-.04-.26.29-.16.37-.09-.1-.37.55-.36.12.3.07.5.54-.06.38 2.14.2 1.03.2 1.14.02.38.16.14-.24.51-.09.3-.16 1.6-.59 2.28-.54 2.5-.13.25-.55 1.48-.83.25.08.22.4.43.06.31-.17.68.12.18v.3l-.57 1.4-.64 1.13v.27l-.28.4-.32.17-.43.37-.6.7-.45.52-.33.56-.38.21.1.49-.15.29-.34.3-.3.49-.34.68-.38 1.21-.02.29-.15.26-.16.44-.31 1.35-.12.94.3.13v.17l-.5 1.06-.15.58-.38 1.28-.24.4.26.35-.17.4-.45.6-.49.81-.21.52-.19-.06-.27.13-.46.47-.58.28-.12-.06-.62.16-.28-.21.03-.72-.07-.19-.07-1.05.01-.46.1-.7.34-1.72.06-.5-.01-.47-.16-.86.07-.11-.16-.45-.43-.38-.45.02-.25-.1-.92-.07-1.04.28-.52.05.06-.26-.15-.3.06-.2-.25-.16v.16l-.29.07-.06.2-1.03.38-.26-.12-.31.29-.08.36-.1.07.14.28-.15.33-.08-.14-.32-.03-.17-.18-.31-.12.04-.33-.16-.14-.15-.37-.17-.2-.3-.16-.18.08-.2-.28-.27-.16-.16.04-.77-.16-.08-.09.08-.24-.14-.03-.3-.24-.03-.14-.76.04v.46l-.78-.4-.45-.6-.08-.22-.3-.17h-.32l-.17.13.05.18-.14.03-.18-.24-.56-.1-.22-.4-.26-.24-.24.08-.14-.17-.27.06-.45-.36-.5-.51-.34-.45-.16.1-.42-.1-.04-.13-.24.04-.31-.26-.67.13-.23-.25-.11-.28-.11-.54" fill="#d1dbdd" stroke="rgb(209, 219, 221)" stroke-width="0.1" data-originalStrokeWidth="0.1" style="stroke: rgb(0, 0, 0); fill: rgb(209, 219, 221); pointer-events: auto; stroke-width: 0.1;" pointer-events="auto"/>
      <path id="NJ03" d="m1273.53 271.1.7-.04.63.11-.2-.71.23-.24.33-.17.98-.76.06.52-.08.23.05.45.18.42-.12.17.3.69.13.75-.45.05-.24-.16-.42-.05-.06-.14-.22.02-.46.34.14.16-.03.18.3.78.3 1.26-.44 1.5-.1.47-.24-.08-.05.19-.72-.08-.02.15-.38.17-.1-.31-.27.13-.42.62-1.65 2.73-1.11 1.74-.5.47 1 1.22.83 1.16 1.5 1.96 2.03 2.6 1.06 1.34 1.5 5.42-.02.79-.39.24.16.2-.23.33-.19-.02-.03.14.16.26-.3-.05v-.29h-.24l.04.27-.14.04-.11-.22-.3.24-.23-.18-.22.15-.06-.15-.34-.17-.29-.08-.11.2-.39-.07-.17-.32-.38-.32-.52.16-.27-.14-.14-.2-.87-.24-.1.24-.2-.19-.05.17h-.4l-.17-.1-.09-.43-.27-.72-.3-.41-.26-.18-1.72-.77-.55-.26-.09.02-.64-.36-.33-.32-.46-.26-.34-.06-.57.1-.55.34-.14.12-.44.07-.28-.22-1.43-2.7-.6-.34-.21-.33-.25-.17-.25.04-.27-.13.31-.42-.31-.42-.19.04-.17-.17-.52-.29-.27.26.01-.43-.18-.24-.24-.1.3-.22.02-.16-.36-.1-.2-.17.12-.09.09-.03.13-.1.23-.35.16-.3.28-.47.12-.18.17-.17.44-.48.43-.22.1-.01.45-.32.08-.05.23-.2.23-.13.1-.33.37-.48-.02-.28.01-.16.04-.25.14-.16.5.02.38-.02.26-.37.3-.28.24-.05.14-.17.2-.3-.08-.46-.38-.35-.48-.16h-.02l.13-.1-.27-.35.4-.18-.13-.26.1-.4-.35-.25.1-.38-.28-.02-.11.2-.24-.22.1-.1-.05-.34-.18-.03.04-.3-.3-.08-.04-.2.02-1.56.46-1.02 1.9 2.47.56.7.86-.64.25.15.46-1.18-.08-.29-.14-.03-.11-.32.36.05.2.12.23-.1.08.09.16-.23.44.11.23.15.21-.07.41.1.13.65.55-.08 1.3-1.32-.08-.26.25-.67 1.83-3.46" fill="#d1dbdd" stroke="rgb(209, 219, 221)" stroke-width="0.1" data-originalStrokeWidth="0.1" style="stroke: rgb(0, 0, 0); fill: rgb(209, 219, 221); pointer-events: auto; stroke-width: 0.1;" pointer-events="auto"/>
      <path id="NJ04" d="m1282 284.62-.55.06-.07-.5-.1-.3-.56.36.1.37-.38.09-.3.16.05.26-.39.07.1.15-.05.26.29.93.16.07.25-.18.31-.04.63-.35.58-.19.3 1.38.09.78-.05.34h-1.7l-.17.1-.49.09-.19-.42.07-.3-.16-.16-.28.14.12.24-.32.08.09.85-.26.09-.13.2-2.14-.38-1.91.73-2.04-2.6-1.48-1.96-.83-1.16-1-1.22.49-.47 1.11-1.74 1.65-2.73.42-.62.28-.13.1.3.37-.16.02-.15.72.08.05-.2.23.1.11-.48.43-1.5-.29-1.26-.3-.78.03-.19-.14-.15.46-.34.22-.02.06.14.42.05.24.17.45-.06-.13-.75-.3-.7.12-.16-.18-.42-.06-.45.08-.23-.05-.52-.02-.26.25-.16.09.1.48.2.25.05 1.14-.05.32.23.3.05.02.13.34.28-.63.48-.19-.03-.17.18-.36.5.08.11-.06.67.53-.22.45.14.23.26-.18.22.56.37-.09.27.29.18.14.33.53-.3.2.42.03.48h-.13l.13.4-.38-.07.03.2.29.07-.34.28h-1.17l-.04.23-.21.13.1.61.84.1.2.21.4.1.17-.29.16.08v-.41l.33-.04v.02l.12 2.36.13.73v.6l.37 3.44.17 1.01.1.94" fill="#d1dbdd" stroke="rgb(209, 219, 221)" stroke-width="0.1" data-originalStrokeWidth="0.1" style="stroke: rgb(0, 0, 0); fill: rgb(209, 219, 221); pointer-events: auto; stroke-width: 0.1;" pointer-events="auto"/>
      <path id="NJ05" d="m1265.1 247.44.3.09 1.06.27.78.2.2.06.26.06.4.11.3.05 1 .24.15.05.12.03h.04l.07.04h.12l.11.04.49.14.39.1.37.09.04.02.4.1.36.09.24.07.18.04.17.04.23.08.3.08.16.04h.04l.14.04.36.1.18.04.4.11.5.12.22.09.15.02.15.04.44.12.06.01h.01l.25.08.2.05.21-.06.09.49.02 1.2.04.56v1.3l-.2 1.29v.11l-.31.11-.02.65-.94-.35.02.22-.2.06-.28-.14-.01-.24-.26-.08-.37-.37-.25.12-.2-.08.03-.55v-.46l-.35.02-.43-.22-.38.04-.28.2-.3-.15-.36.13-.08-.31-.26-.2-.05-.78-.81-.35.03.2-.47.1-.25-1.21.4-.3-.08-.15-.85-.32-.46-.04-.8-.2-.12 1.44h-.27l-.07.24-.32.25.15.24-.17.2-.17-.07-.24.1-.3-.12-.26.2-.2-.27-.19.14-.42.03-.16.1-.3-.09-.17-.18-.43.01-.05.25-.15.06.02-.56-.4-.17-.2-.23-.6.4-.36.5-.13-.07-.05-.74.13-.16-.08-.36-.45-.17-.49 1.05-1.12-.37-.83-.34-.9-.48-.46.93-.02 1.4.3 1.33-.86 1.55-.04-.84-.4-.04.13.71-1.08-.64.2-.57-.04-.76-.3-.27.18-.25v-.23l-.45.29-.29-.08-.27.37-.29-.34-.55-.9-.1.07-.43-.73-.25-.5-.98-1.54.04-.16.09-.5-.05-.05-.1-.04-.06-.03-.03-.05-.02-.05v-.11l.05-.17v-.03l-.02-.09v-.07l.03-.12v-.06l.04-.06.02-.04.1-.03.03-.06.02-.05v-.14l-.08-.11.02-.09v-.07l.02-.1.01-.08v-.1l.02-.09.05-.1.19-.51.5-.7-.15-.23.33-.26.14-.04.1-.16.06-.38.12-.26.2-.05.4-.1.6-.54h.03l.5.15.89.25.29.08.38.11.53.16.61.16.3.08.16.05.27.08.25.07.48.14.3.08.42.15.48.12.49.15.42.12.18.06.25.08.12.03.6.2.37.14.46.16.29.1.63.17" fill="#d1dbdd" stroke="rgb(209, 219, 221)" stroke-width="0.1" data-originalStrokeWidth="0.1" style="stroke: rgb(0, 0, 0); fill: rgb(209, 219, 221); pointer-events: auto; stroke-width: 0.1;" pointer-events="auto"/>
      <path id="NJ06" d="m1281.1 275.52-.32.04v.4l-.15-.07-.19.3-.4-.1-.2-.23-.83-.09-.1-.6.21-.14.04-.22 1.17-.01.33-.28-.3-.07-.01-.19.38.06-.13-.4h.12l-.02-.48-.2-.42-.53.3-.14-.33-.28-.18.08-.27-.57-.37.19-.22-.23-.26-.45-.14-.53.22.06-.67-.08-.11.36-.5.18-.18.18.03.64-.48-.35-.28-.02-.13-.3-.05-.33-.23-1.14.05-.24-.05-.48-.2-.1-.1-.25.16.03.26-.98.76-.33.17-.22.24.2.71-.64-.1-.7.04-.14-.5-.4-.33-.29.1-.07.38h-.26l-.09-.61h-.17l-.09-.28-.14-.11-.17.42-.64.93.04-.5-.34-.4h-.12l-.14-.23-.13.15v-.29l-.23.12.1-.19-.06-.43-.33-.2-.25.3-.27-.05-.02.19-.73.27-.31.04-.3.42-.33-.12.17-.37.36-.34-.03-.17-.23-.15-.05-.18h-.39l-.5-.48-.4-.18-.32-.43.25-.2.52-.61-.1-.11.22-.3.05.13.2-.08.1-.3-.13-.17 1.35-.55 2.02-.84.02.27.4.17.68-.38v-.16h.37l.12-.14.14.08.33-.27.3.25-.02.04.06.9-.08.23-.29-.03-.39.43v.13l.34.75-.13.43-.1.77.44.67.45.1.19-.07.7.15.16.22.25-.13.1-.42.12-.2.37.2.31-.07.25-.35.1-.03.7.23.8.09.5.22.3.04 1-.04.13-.05.05-.27-.12-.73-.32-.1-.2-.46-.35-.12-.04-.22.19-.08.36.1.38.45.23.35.16.59.29.5.55 1.55.34 1.71.07.65.1 1.34.06 1.37" fill="#d1dbdd" stroke="rgb(209, 219, 221)" stroke-width="0.1" data-originalStrokeWidth="0.1" style="stroke: rgb(0, 0, 0); fill: rgb(209, 219, 221); pointer-events: auto; stroke-width: 0.1;" pointer-events="auto"/>
      <path id="NJ07" d="M1272.87 263.69v.08l.1.54.16.1-.03.27-.3-.25-.33.27-.14-.08-.12.14h-.39l.01.16-.66.39-.41-.18-.02-.27-2.02.84-.1-.2.02-.54.1-.21-.71-.28-.63.67-.37.7.25.22-.33.28-.15.27-.62.46-.14.42h-.14l.02-.36-.24.15-.02.27-.4.07.11.12-.76.13v.3l-.4.04.01.18-.15.1-.25-.13-.34.03-.27.49-.51.26-.28-.15-.12.47-.22.2.25.48.38.04.38.84.23.05h.5v.08l-.43.07.02.28-.56.24-.08.87-.54.23-.23.35.17.2-1.33.6.43.93-1.5.67.57.86-1.68.71h-.26l-.07-.1-.08-.2-.1-.25-.08-.13-.27-.4-.35-.44-.15-.1-.25-.03-.25-.1-.2-.03-.24.17-.38.24-.29-.07-.14-.06-.07-.04-.09-.02h-.13l-.08-.01-.06-.02-.15-.22-.05-.11-.05-.12-.05-.09-.02-.05-.06-.12-.03-.09-.04-.05-.08-.13-.07-.13-.03-.06.02-.1v-.13l-.08-.19v-.07l.02-.05.04-.17-.12-.44-.22-.56-.09-.26-.04-.2-.2-.4-.16-.08-.67-.45-.08-.06-.29-.03-.2-.03-.23.03-.28.05-.16.15-.16.26-.1.07-.17.04-.46-.07-.2-.13-.04-.2.06-.2-.19-.43-.12-.1-.1-.14-.11-.17.23-.26-.07-.18-.2-.31-.03-.06-.16-.09-.02-.06.04-.1.05-.25.07-.17.1-.1.06-.22-.02-.17-.2-.04-.29.05-.12-.1-.13-.17v-.1l.01-.36.03-.15v-.17l.13-.18v-.35l-.04-.12-.15-.14-.23-.14-.07-.2.06-.15.06-.05.1-.1.09-.1-.02-.37.06-.19.18-.05h.44l.15-.01.1-.05.08-.25.03-.11.04-.1.03-.04.11-.08.16-.1.1-.32-.06-.24.22-.54-.04-.22-.07-.05-.23-.12-.06-.06-.03-.05-.03-.11.02-.1.02-.02.07-.06.08-.03.14-.05.1-.03.07.01.23-.05-.06-.2.18-.33v-.15l-.1-.16-.27-.2-.1-.08-.33-.25-.21-.53-.36-.16-.1-.05-.32-.28-.26-.35-.17-.12-.16-.3-.1-.18-.18.07-.16-.2.02-.15v-.12l-.04-.19.38-.53.32-.27.15-.25.27-.19.45-.48.14-.14.25-.3-.06-.12.13-.45v-.32l.24-.3.36-.28.22-.33.01-.19-.03-.07-.27.24-.23.1-.02-.14.1-.6.35-.23.28-.4-.03-.1.43-.44.28-.67.03-.32.23-.45.08-.34v-.36l.03-.14.98 1.53.25.51.43.73.1-.06.55.9.28.33.28-.37.29.08.44-.3.01.24-.17.25.3.27.03.77-.2.56 1.08.64-.13-.7.4.03.04.84.85-1.55-.3-1.32.03-1.4.45-.94.91.5.83.33 1.12.36-1.2 2.56-.39.94.23.37.06.3.28-.08 1.03 1.05.18-.48.4.11.08.52-.15.24-.03.47h-.18l-.15.4-.5.03-.1.53-.18.4.05.14.43.05-.01.19.23.2-.07.4 1.25-.7.2.28-.23.08.3.27.37-.2.15-.2-.2-.2.22-.1.28 2.01.11.4.47.02.06.26.22.12-.02.17.25.1.15.22 1.3-1.02.4.85.24-.26.01-.25.36-.39.06-.28.27-.08-.06-.21h.14l.21-.42-.05-.14.33.03.47.23.45.13.19-.14.34.11.12-.1.02.33-.2.18.17.2-.09.14.13.36-.26.13.02.64-.04.26.79.3.35-.3.41.34.19-.09.13-.42.25.04.1-.23.5-.23.45.23-.02.05.02.02v.16" fill="#d1dbdd" stroke="rgb(209, 219, 221)" stroke-width="0.1" data-originalStrokeWidth="0.1" style="stroke: rgb(0, 0, 0); fill: rgb(209, 219, 221); pointer-events: auto; stroke-width: 0.1;" pointer-events="auto"/>
      <path id="NJ08" d="M1274.82 262.4h-.03l-.37.23-.68.22h-.08l-.47.05-.16.17-.11.3-.04.05-.02.04-.44-.23-1.1-.56.34-.3.18.12.17-.18.15-.56.21.08.9-.34.7.25.27-.93.32.1.26.2.62-1.15-.06-.34-.14-.16-.24.13-.1-.15-.2.15-.21-.08-.09.16-.08.55-.23.33-.2-.37h-.44l-.06.19-.17-.07v.19l-.19.15v-.19l-.44-.03.26-.36-.3-.37-.43-.17-.19-.27.01-.2.19-.15.03-.36.62.1-.16.71.01.16.46-.04-.04-.29.14.05.06-.27-.12-.04.08-.33.12.18.34-.33h.2l.25.36h.11l-.03.3.15.1.26-.12.03-.26.17-.25.12.01-.03-.59.28-.06.1-.43-.2-.04.1-.3-.1-.12.27-.43v-.16l.2.18.53.2.26.17-.11.52-.06.26-.1.45-.04.23.04.51.05.43.09.57-.22.03-.27.56-.07.9-.05.3-.33.32-.08.2-.37.13" fill="#d1dbdd" stroke="rgb(209, 219, 221)" stroke-width="0.1" data-originalStrokeWidth="0.1" style="stroke: rgb(0, 0, 0); fill: rgb(209, 219, 221); pointer-events: auto; stroke-width: 0.1;" pointer-events="auto"/>
      <path id="NJ09" d="m1267.39 252.8-.15-.24.32-.25.07-.25h.26l.12-1.43.81.2.46.04.85.32.08.13-.4.32.26 1.2.47-.08-.04-.21.8.35.06.78.26.2.08.3.38-.12.29.14.27-.2.38-.03.43.22.36-.02-.01.46-.04.55.21.08.25-.13.37.37.26.08v.25l.28.14.2-.06-.01-.22.94.35.02-.65.3-.1-.02.7-.22 1.02-.26-.17-.53-.2-.2-.19v.16l-.28.43.1.13-.1.29.2.04-.09.43-.28.06.03.6-.12-.02-.17.25-.03.26-.26.12-.15-.1.03-.3-.1.01-.26-.37-.2.01-.34.3-.12-.16-.08.33.12.04-.06.27-.14-.04.04.29-.47.02v-.14l.16-.72-.04-.22.1-.41-.08-.2-.04-.42.1-.1-1.84-.69-.02-.38.17-.58-.03-.54-.5-.04-.33-.24.1-.29-.11.05.07-.39-.19-.58-.06.18-.6-.1-.75.04-.43-.3.01.22-.37-.2-.28.06.02-.28-.3-.43" fill="#d1dbdd" stroke="rgb(209, 219, 221)" stroke-width="0.1" data-originalStrokeWidth="0.1" style="stroke: rgb(0, 0, 0); fill: rgb(209, 219, 221); pointer-events: auto; stroke-width: 0.1;" pointer-events="auto"/>
      <path id="NJ10" d="m1272.4 263.23-.49.22-.1.24-.25-.04-.12.42-.2.09-.41-.34-.35.3-.79-.3.04-.26-.02-.64.26-.13-.14-.36.1-.14-.17-.2.2-.18-.02-.32.22-.3.74.06.13-.59-.23-.16.22-.17.05-.34-.86-.14-.47.3-.33.08.15-1.92-.23-.08-.47-.3.14-.09-.01-.27.2-.25.32.08.26.18.05-.5.47.05-.02.27.4-.06-.12.32.03.19-.05.53.3.2.2-.36-.07-.29.07-.16.17.22-.09.75.44.07.4.34.17.27.44.17.29.37-.27.36.45.04v.18l.18-.16.01-.18.17.06.06-.19.44.02.2.37.23-.34.07-.55.09-.16.22.08.19-.15.1.15.25-.13.14.16.06.34-.62 1.16-.26-.21-.32-.1-.27.92-.7-.25-.9.35-.2-.08-.17.56-.16.18-.18-.12-.35.3 1.1.56" fill="#d1dbdd" stroke="rgb(209, 219, 221)" stroke-width="0.1" data-originalStrokeWidth="0.1" style="stroke: rgb(0, 0, 0); fill: rgb(209, 219, 221); pointer-events: auto; stroke-width: 0.1;" pointer-events="auto"/>
      <path id="NJ11" d="m1272.78 258.64-.62-.1-.02.36-.2.15v.19l-.4-.33-.43-.07.09-.75-.17-.22-.07.16.07.29-.21.35-.3-.18.07-.55-.04-.18.11-.32-.4.06.03-.27-.47-.05-.05.5-.26-.18-.31-.08-.21.25.01.27-.14.08.47.31.23.07-.15 1.93.33-.09.47-.29.86.15-.05.33-.22.17.23.16-.13.6-.74-.06-.22.29-.12.09-.33-.1-.2.13-.45-.13-.47-.23-.33-.03.05.14-.2.41h-.15l.06.22-.27.08-.06.28-.36.39v.25l-.26.26-.38-.85-1.3 1.02-.16-.22-.25-.1.02-.17-.22-.12-.06-.26-.47-.02-.11-.4-.29-2-.2.1.2.2-.15.2-.39.19-.3-.27.26-.1-.2-.26-1.27.7.07-.4-.23-.2v-.2l-.42-.04-.04-.13.16-.41.11-.53.5-.03.15-.4h.19l.02-.47.15-.24-.07-.52-.4-.11-.2.48-1.02-1.05-.28.08-.06-.3-.23-.37.38-.94 1.21-2.56.5-1.06.44.18.08.36-.13.16.05.74.13.07.36-.5.6-.4.2.23.4.17-.02.56.15-.06.05-.25h.43l.19.17.28.08.16-.09.42-.03.19-.14.2.27.28-.2.28.14.24-.11.17.07.17-.2.3.42-.04.3.3-.08.36.2v-.22l.43.3.76-.04.58.1.06-.2.2.6-.08.39.1-.05-.1.3.33.23.52.04.03.54-.18.58.02.38 1.85.68-.11.1.04.42.08.2-.1.42.04.22" fill="#d1dbdd" stroke="rgb(209, 219, 221)" stroke-width="0.1" data-originalStrokeWidth="0.1" style="stroke: rgb(0, 0, 0); fill: rgb(209, 219, 221); pointer-events: auto; stroke-width: 0.1;" pointer-events="auto"/>
      <path id="NJ12" d="m1264.13 280.75-.07-.03-.04-.03-.17-.28-.28-.29-.06-.06-.1-.15-.2-.08-.73-.25-.21-.04h-.05l-.23-.08-.34-.07-.35-.33-.17-.2-.3-.42-.05-.07-.28-.27-.37-.24-.3-.17-.14-.02-.16.03-.39-.11-.43-.23-.2-.1-.11-.1h.27l1.68-.71-.58-.86 1.5-.67-.43-.92 1.33-.61-.17-.2.23-.35.54-.22.07-.88.56-.25-.02-.28.45-.06v-.09h-.51l-.23-.05-.38-.84-.38-.03-.25-.47.22-.21.12-.47.28.15.51-.26.27-.5.34-.02.25.13.15-.1v-.19l.38-.03v-.3l.77-.13-.12-.12.4-.07.03-.27.24-.15-.02.37.14-.01.14-.42.62-.46.15-.27.33-.28-.25-.22.38-.7.62-.67.72.28-.1.21-.05.54.11.2-1.34.55.13.18-.1.29-.19.08-.06-.14-.22.3.1.12-.52.6-.25.2.31.44.41.17.5.48.4.01.04.18.23.15.03.17-.36.34-.17.37.33.12.3-.42.31-.04.73-.28.02-.18.27.05.25-.3.33.2.06.43-.1.2.22-.12.02.29.12-.16.14.24h.12l.34.39-.04.5.65-.93.16-.42.14.12.09.29.17-.01.09.6h.26l.07-.39.28-.09.4.33.15.5-1.84 3.46-.25.68.08.25-1.3 1.32-.56.08-.12-.64-.41-.11-.2.07-.24-.15-.44-.11-.16.23-.08-.1-.24.11-.2-.12-.35-.05.11.32.14.03.08.28-.46 1.19-.25-.15-.86.63-.56-.7-1.9-2.46-.46 1.02-.02 1.56.04.2.3.08-.04.3.18.03.04.34-.09.1.24.22.1-.2.3.02-.11.38.34.25-.1.4.13.26-.39.18.27.35-.13.1" fill="#d1dbdd" stroke="rgb(209, 219, 221)" stroke-width="0.1" data-originalStrokeWidth="0.1" style="stroke: rgb(0, 0, 0); fill: rgb(209, 219, 221); pointer-events: auto; stroke-width: 0.1;" pointer-events="auto"/>
      <g id="state_lines" stroke="rgb(209, 219, 221)" style="display: none; stroke: rgb(0, 0, 0);" stroke-width="0.1">
        <path id="NJ_line" d="m1274.13 284.02 38.76.33z" fill="#d1dbdd" stroke="rgb(209, 219, 221)" stroke-width="0.1" style="stroke: rgb(0, 0, 0); display: none;"/>
      </g>
      <g id="state_abbr" fill="#000000" style="display: none; fill: rgb(0, 0, 0);">
        <text id="HI_label" x="491.79" y="769.82" style="font-size: 19.2455px; stroke-width: 1.60379; display: none;">
          <tspan id="HI_tspan" x="491.79" y="769.82" fill="#000000" dy="0" font-family="Arial" font-size="24.06" font-style="normal" font-weight="400" style="text-align: center; stroke-width: 2.57215; fill: rgb(0, 0, 0);" text-anchor="middle">HI</tspan>
        </text>
        <text id="AK_label" x="205.24" y="672.25" style="font-size: 19.2455px; stroke-width: 1.60379; display: none;">
          <tspan id="AK_tspan" x="205.24" y="672.25" fill="#000000" dy="0" font-family="Arial" font-size="24.06" font-style="normal" font-weight="400" style="text-align: center; stroke-width: 2.57215; fill: rgb(0, 0, 0);" text-anchor="middle">AK</tspan>
        </text>
        <text id="FL_label" x="1188.11" y="708.7" style="font-size: 19.2455px; stroke-width: 1.60379; display: none;">
          <tspan id="FL_tspan" x="1188.11" y="708.7" fill="#000000" dy="0" font-family="Arial" font-size="24.06" font-style="normal" font-weight="400" style="text-align: center; stroke-width: 2.57215; fill: rgb(0, 0, 0);" text-anchor="middle">FL</tspan>
        </text>
        <text id="NH_label" x="1306.05" y="167.79" stroke-width="1.1" font-size="13.25" style="display: none;">
          <tspan id="NH_tspan" x="1306.05" y="167.79" fill="#000000" stroke-width="1.1" dy="0" font-family="Arial" font-size="16.56" font-style="normal" font-weight="400" style="text-align: center; fill: rgb(0, 0, 0);" text-anchor="middle">NH</tspan>
        </text>
        <text id="MI_label" x="1019.65" y="246.58" style="font-size: 19.2455px; stroke-width: 1.60379; display: none;">
          <tspan id="MI_tspan" x="1019.65" y="246.58" fill="#000000" dy="0" font-family="Arial" font-size="24.06" font-style="normal" font-weight="400" style="text-align: center; stroke-width: 2.57215; fill: rgb(0, 0, 0);" text-anchor="middle">MI</tspan>
        </text>
        <text id="VT_label" x="1274.28" y="145.01" stroke-width="1.05" font-size="12.65" style="display: none;">
          <tspan id="VT_tspan" x="1274.28" y="145.01" fill="#000000" stroke-width="1.05" dy="0" font-family="Arial" font-size="15.81" font-style="normal" font-weight="400" style="text-align: center; fill: rgb(0, 0, 0);" text-anchor="middle">VT</tspan>
        </text>
        <text id="ME_label" x="1338.99" y="105.14" stroke-width="1.45" font-size="17.36" style="display: none;">
          <tspan id="ME_tspan" x="1338.99" y="105.14" fill="#000000" stroke-width="1.45" dy="0" font-family="Arial" font-size="21.7" font-style="normal" font-weight="400" style="text-align: center; fill: rgb(0, 0, 0);" text-anchor="middle">ME</tspan>
        </text>
        <text id="RI_label" x="1361.38" y="262.84" stroke-width="1.25" font-size="14.98" style="display: none;">
          <tspan id="RI_tspan" x="1361.38" y="262.84" fill="#000000" stroke-width="1.25" dy="0" font-family="Arial" font-size="18.72" font-style="normal" font-weight="400" style="text-align: center; fill: rgb(0, 0, 0);" text-anchor="middle">RI</tspan>
        </text>
        <text id="NY_label" x="1227.27" y="204.12" style="font-size: 19.2455px; stroke-width: 1.60379; display: none;">
          <tspan id="NY_tspan" x="1227.27" y="204.12" fill="#000000" dy="0" font-family="Arial" font-size="24.06" font-style="normal" font-weight="400" style="text-align: center; stroke-width: 2.57215; fill: rgb(0, 0, 0);" text-anchor="middle">NY</tspan>
        </text>
        <text id="PA_label" x="1187.28" y="284.69" style="font-size: 19.2455px; stroke-width: 1.60379; display: none;">
          <tspan id="PA_tspan" x="1187.28" y="284.69" fill="#000000" dy="0" font-family="Arial" font-size="24.06" font-style="normal" font-weight="400" style="text-align: center; stroke-width: 2.57215; fill: rgb(0, 0, 0);" text-anchor="middle">PA</tspan>
        </text>
        <text id="NJ_label" x="1330.57" y="290.09" stroke-width="1.28" font-size="15.4" style="display: none;">
          <tspan id="NJ_tspan" x="1330.57" y="290.09" fill="#000000" stroke-width="1.28" dy="0" font-family="Arial" font-size="19.25" font-style="normal" font-weight="400" style="text-align: center; fill: rgb(0, 0, 0);" text-anchor="middle">NJ</tspan>
        </text>
        <text id="DE_label" x="1320.8" y="328.42" stroke-width="1.36" font-size="16.38" style="display: none;">
          <tspan id="DE_tspan" x="1320.8" y="328.42" fill="#000000" stroke-width="1.36" dy="0" font-family="Arial" font-size="20.47" font-style="normal" font-weight="400" style="text-align: center; fill: rgb(0, 0, 0);" text-anchor="middle">DE</tspan>
        </text>
        <text id="MD_label" x="1310.72" y="368.46" stroke-width="1.34" font-size="16.11" style="display: none;">
          <tspan id="MD_tspan" x="1310.72" y="368.46" fill="#000000" stroke-width="1.34" dy="0" font-family="Arial" font-size="20.13" font-style="normal" font-weight="400" style="text-align: center; fill: rgb(0, 0, 0);" text-anchor="middle">MD</tspan>
        </text>
        <text id="VA_label" x="1198.59" y="392.33" style="font-size: 19.2455px; stroke-width: 1.60379; display: none;">
          <tspan id="VA_tspan" x="1198.59" y="392.33" fill="#000000" dy="0" font-family="Arial" font-size="24.06" font-style="normal" font-weight="400" style="text-align: center; stroke-width: 2.57215; fill: rgb(0, 0, 0);" text-anchor="middle">VA</tspan>
        </text>
        <text id="WV_label" x="1129.66" y="382.3" style="font-size: 19.2455px; stroke-width: 1.60379; display: none;">
          <tspan id="WV_tspan" x="1129.66" y="382.3" fill="#000000" dy="0" font-family="Arial" font-size="24.06" font-style="normal" font-weight="400" style="text-align: center; stroke-width: 2.57215; fill: rgb(0, 0, 0);" text-anchor="middle">WV</tspan>
        </text>
        <text id="OH_label" x="1079.05" y="334.46" style="font-size: 19.2455px; stroke-width: 1.60379; display: none;">
          <tspan id="OH_tspan" x="1079.05" y="334.46" fill="#000000" dy="0" font-family="Arial" font-size="24.06" font-style="normal" font-weight="400" style="text-align: center; stroke-width: 2.57215; fill: rgb(0, 0, 0);" text-anchor="middle">OH</tspan>
        </text>
        <text id="IN_label" x="998.79" y="352.94" style="font-size: 19.2455px; stroke-width: 1.60379; display: none;">
          <tspan id="IN_tspan" x="998.79" y="352.94" fill="#000000" dy="0" font-family="Arial" font-size="24.06" font-style="normal" font-weight="400" style="text-align: center; stroke-width: 2.57215; fill: rgb(0, 0, 0);" text-anchor="middle">IN</tspan>
        </text>
        <text id="IL_label" x="927.43" y="364.36" style="font-size: 19.2455px; stroke-width: 1.60379; display: none;">
          <tspan id="IL_tspan" x="927.43" y="364.36" fill="#000000" dy="0" font-family="Arial" font-size="24.06" font-style="normal" font-weight="400" style="text-align: center; stroke-width: 2.57215; fill: rgb(0, 0, 0);" text-anchor="middle">IL</tspan>
        </text>
        <text id="CT_label" x="1299.17" y="228.46" stroke-width="1.06" font-size="12.74" style="display: none;">
          <tspan id="CT_tspan" x="1299.17" y="228.46" fill="#000000" stroke-width="1.06" dy="0" font-family="Arial" font-size="15.93" font-style="normal" font-weight="400" style="text-align: center; fill: rgb(0, 0, 0);" text-anchor="middle">CT</tspan>
        </text>
        <text id="WI_label" x="898.6" y="224.7" style="font-size: 19.2455px; stroke-width: 1.60379; display: none;">
          <tspan id="WI_tspan" x="898.6" y="224.7" fill="#000000" dy="0" font-family="Arial" font-size="24.06" font-style="normal" font-weight="400" style="text-align: center; stroke-width: 2.57215; fill: rgb(0, 0, 0);" text-anchor="middle">WI</tspan>
        </text>
        <text id="NC_label" x="1205.6" y="458.72" style="font-size: 19.2455px; stroke-width: 1.60379; display: none;">
          <tspan id="NC_tspan" x="1205.6" y="458.72" fill="#000000" dy="0" font-family="Arial" font-size="24.06" font-style="normal" font-weight="400" style="text-align: center; stroke-width: 2.57215; fill: rgb(0, 0, 0);" text-anchor="middle">NC</tspan>
        </text>
        <text id="MA_label" x="1305.87" y="200.67" stroke-width="1.04" font-size="12.46" style="display: none;">
          <tspan id="MA_tspan" x="1305.87" y="200.67" fill="#000000" stroke-width="1.04" dy="0" font-family="Arial" font-size="15.58" font-style="normal" font-weight="400" style="text-align: center; fill: rgb(0, 0, 0);" text-anchor="middle">MA</tspan>
        </text>
        <text id="MO_label" x="854.22" y="422.93" style="font-size: 19.2455px; stroke-width: 1.60379; display: none;">
          <tspan id="MO_tspan" x="854.22" y="422.93" fill="#000000" dy="0" font-family="Arial" font-size="24.06" font-style="normal" font-weight="400" style="text-align: center; stroke-width: 2.57215; fill: rgb(0, 0, 0);" text-anchor="middle">MO</tspan>
        </text>
        <text id="GA_label" x="1106.89" y="574.56" style="font-size: 19.2455px; stroke-width: 1.60379; display: none;">
          <tspan id="GA_tspan" x="1106.89" y="574.56" fill="#000000" dy="0" font-family="Arial" font-size="24.06" font-style="normal" font-weight="400" style="text-align: center; stroke-width: 2.57215; fill: rgb(0, 0, 0);" text-anchor="middle">GA</tspan>
        </text>
        <text id="SC_label" x="1166.32" y="522.49" style="font-size: 19.2455px; stroke-width: 1.60379; display: none;">
          <tspan id="SC_tspan" x="1166.32" y="522.49" fill="#000000" dy="0" font-family="Arial" font-size="24.06" font-style="normal" font-weight="400" style="text-align: center; stroke-width: 2.57215; fill: rgb(0, 0, 0);" text-anchor="middle">SC</tspan>
        </text>
        <text id="KY_label" x="1039.99" y="426.39" style="font-size: 19.2455px; stroke-width: 1.60379; display: none;">
          <tspan id="KY_tspan" x="1039.99" y="426.39" fill="#000000" dy="0" font-family="Arial" font-size="24.06" font-style="normal" font-weight="400" style="text-align: center; stroke-width: 2.57215; fill: rgb(0, 0, 0);" text-anchor="middle">KY</tspan>
        </text>
        <text id="AL_label" x="1019.59" y="578.15" style="font-size: 19.2455px; stroke-width: 1.60379; display: none;">
          <tspan id="AL_tspan" fill="#000000" dy="0" font-family="Arial" font-size="24.06" font-style="normal" font-weight="400" style="text-align: center; stroke-width: 2.57215; fill: rgb(0, 0, 0);" text-anchor="middle">AL</tspan>
        </text>
        <text id="LA_label" x="872.7" y="649.59" style="font-size: 19.2455px; stroke-width: 1.60379; display: none;">
          <tspan id="LA_tspan" x="872.7" y="649.59" fill="#000000" dy="0" font-family="Arial" font-size="24.06" font-style="normal" font-weight="400" style="text-align: center; stroke-width: 2.57215; fill: rgb(0, 0, 0);" text-anchor="middle">LA</tspan>
        </text>
        <text id="MS_label" x="940.37" y="592.21" style="font-size: 19.2455px; stroke-width: 1.60379; display: none;">
          <tspan id="MS_tspan" x="940.37" y="592.21" fill="#000000" dy="0" font-family="Arial" font-size="24.06" font-style="normal" font-weight="400" style="text-align: center; stroke-width: 2.57215; fill: rgb(0, 0, 0);" text-anchor="middle">MS</tspan>
        </text>
        <text id="IA_label" x="823.33" y="308.44" style="font-size: 19.2455px; stroke-width: 1.60379; display: none;">
          <tspan id="IA_tspan" x="823.33" y="308.44" fill="#000000" dy="0" font-family="Arial" font-size="24.06" font-style="normal" font-weight="400" style="text-align: center; stroke-width: 2.57215; fill: rgb(0, 0, 0);" text-anchor="middle">IA</tspan>
        </text>
        <text id="MN_label" x="790.84" y="183.37" style="font-size: 19.2455px; stroke-width: 1.60379; display: none;">
          <tspan id="MN_tspan" x="790.84" y="183.37" fill="#000000" dy="0" font-family="Arial" font-size="24.06" font-style="normal" font-weight="400" style="text-align: center; stroke-width: 2.57215; fill: rgb(0, 0, 0);" text-anchor="middle">MN</tspan>
        </text>
        <text id="OK_label" x="732.05" y="519.54" style="font-size: 19.2455px; stroke-width: 1.60379; display: none;">
          <tspan id="OK_tspan" x="732.05" y="519.54" fill="#000000" dy="0" font-family="Arial" font-size="24.06" font-style="normal" font-weight="400" style="text-align: center; stroke-width: 2.57215; fill: rgb(0, 0, 0);" text-anchor="middle">OK</tspan>
        </text>
        <text id="TX_label" x="710.59" y="652.87" style="font-size: 19.2455px; stroke-width: 1.60379; display: none;">
          <tspan id="TX_tspan" x="710.59" y="652.87" fill="#000000" dy="0" font-family="Arial" font-size="24.06" font-style="normal" font-weight="400" style="text-align: center; stroke-width: 2.57215; fill: rgb(0, 0, 0);" text-anchor="middle">TX</tspan>
        </text>
        <text id="NM_label" x="506.94" y="542.36" style="font-size: 19.2455px; stroke-width: 1.60379; display: none;">
          <tspan id="NM_tspan" x="506.94" y="542.36" fill="#000000" dy="0" font-family="Arial" font-size="24.06" font-style="normal" font-weight="400" style="text-align: center; stroke-width: 2.57215; fill: rgb(0, 0, 0);" text-anchor="middle">NM</tspan>
        </text>
        <text id="KS_label" x="701.21" y="427.26" style="font-size: 19.2455px; stroke-width: 1.60379; display: none;">
          <tspan id="KS_tspan" x="701.21" y="427.26" fill="#000000" dy="0" font-family="Arial" font-size="24.06" font-style="normal" font-weight="400" style="text-align: center; stroke-width: 2.57215; fill: rgb(0, 0, 0);" text-anchor="middle">KS</tspan>
        </text>
        <text id="NE_label" x="686.63" y="337.29" style="font-size: 19.2455px; stroke-width: 1.60379; display: none;">
          <tspan id="NE_tspan" x="686.63" y="337.29" fill="#000000" dy="0" font-family="Arial" font-size="24.06" font-style="normal" font-weight="400" style="text-align: center; stroke-width: 2.57215; fill: rgb(0, 0, 0);" text-anchor="middle">NE</tspan>
        </text>
        <text id="SD_label" x="663.02" y="238.75" style="font-size: 19.2455px; stroke-width: 1.60379; display: none;">
          <tspan id="SD_tspan" x="663.02" y="238.75" fill="#000000" dy="0" font-family="Arial" font-size="24.06" font-style="normal" font-weight="400" style="text-align: center; stroke-width: 2.57215; fill: rgb(0, 0, 0);" text-anchor="middle">SD</tspan>
        </text>
        <text id="ND_label" x="663.02" y="150.75" style="font-size: 19.2455px; stroke-width: 1.60379; display: none;">
          <tspan id="ND_tspan" x="663.02" y="150.75" fill="#000000" dy="0" font-family="Arial" font-size="24.06" font-style="normal" font-weight="400" style="text-align: center; stroke-width: 2.57215; fill: rgb(0, 0, 0);" text-anchor="middle">ND</tspan>
        </text>
        <text id="WY_label" x="499.57" y="276.47" style="font-size: 19.2455px; stroke-width: 1.60379; display: none;">
          <tspan id="WY_tspan" x="499.57" y="276.47" fill="#000000" dy="0" font-family="Arial" font-size="24.06" font-style="normal" font-weight="400" style="text-align: center; stroke-width: 2.57215; fill: rgb(0, 0, 0);" text-anchor="middle">WY</tspan>
        </text>
        <text id="MT_label" x="487.84" y="155.58" style="font-size: 19.2455px; stroke-width: 1.60379; display: none;">
          <tspan id="MT_tspan" x="487.84" y="155.58" fill="#000000" dy="0" font-family="Arial" font-size="24.06" font-style="normal" font-weight="400" style="text-align: center; stroke-width: 2.57215; fill: rgb(0, 0, 0);" text-anchor="middle">MT</tspan>
        </text>
        <text id="CO_label" x="525.13" y="406.28" style="font-size: 19.2455px; stroke-width: 1.60379; display: none;">
          <tspan id="CO_tspan" x="525.13" y="406.28" fill="#000000" dy="0" font-family="Arial" font-size="24.06" font-style="normal" font-weight="400" style="text-align: center; stroke-width: 2.57215; fill: rgb(0, 0, 0);" text-anchor="middle">CO</tspan>
        </text>
        <text id="ID_label" x="339.94" y="235.07" style="font-size: 19.2455px; stroke-width: 1.60379; display: none;">
          <tspan id="ID_tspan" x="339.94" y="235.07" fill="#000000" dy="0" font-family="Arial" font-size="24.06" font-style="normal" font-weight="400" style="text-align: center; stroke-width: 2.57215; fill: rgb(0, 0, 0);" text-anchor="middle">ID</tspan>
        </text>
        <text id="UT_label" x="396.81" y="386.73" style="font-size: 19.2455px; stroke-width: 1.60379; display: none;">
          <tspan id="UT_tspan" x="396.81" y="386.73" fill="#000000" dy="0" font-family="Arial" font-size="24.06" font-style="normal" font-weight="400" style="text-align: center; stroke-width: 2.57215; fill: rgb(0, 0, 0);" text-anchor="middle">UT</tspan>
        </text>
        <text id="AZ_label" x="366.76" y="536.9" style="font-size: 19.2455px; stroke-width: 1.60379; display: none;">
          <tspan id="AZ_tspan" x="366.76" y="536.9" fill="#000000" dy="0" font-family="Arial" font-size="24.06" font-style="normal" font-weight="400" style="text-align: center; stroke-width: 2.57215; fill: rgb(0, 0, 0);" text-anchor="middle">AZ</tspan>
        </text>
        <text id="NV_label" x="262.47" y="370.64" style="font-size: 19.2455px; stroke-width: 1.60379; display: none;">
          <tspan id="NV_tspan" x="262.47" y="370.64" fill="#000000" dy="0" font-family="Arial" font-size="24.06" font-style="normal" font-weight="400" style="text-align: center; stroke-width: 2.57215; fill: rgb(0, 0, 0);" text-anchor="middle">NV</tspan>
        </text>
        <text id="OR_label" x="214.43" y="206.88" style="font-size: 19.2455px; stroke-width: 1.60379; display: none;">
          <tspan id="OR_tspan" x="214.43" y="206.88" fill="#000000" dy="0" font-family="Arial" font-size="24.06" font-style="normal" font-weight="400" style="text-align: center; stroke-width: 2.57215; fill: rgb(0, 0, 0);" text-anchor="middle">OR</tspan>
        </text>
        <text id="WA_label" x="238.05" y="102.99" style="font-size: 19.2455px; stroke-width: 1.60379; display: none;">
          <tspan id="WA_tspan" x="238.05" y="102.99" fill="#000000" dy="0" font-family="Arial" font-size="24.06" font-style="normal" font-weight="400" style="text-align: center; stroke-width: 2.57215; fill: rgb(0, 0, 0);" text-anchor="middle">WA</tspan>
        </text>
        <text id="CA_label" x="191.69" y="434.8" style="font-size: 19.2455px; stroke-width: 1.60379; display: none;">
          <tspan id="CA_tspan" x="191.69" y="434.8" fill="#000000" dy="0" font-family="Arial" font-size="24.06" font-style="normal" font-weight="400" style="text-align: center; stroke-width: 2.57215; fill: rgb(0, 0, 0);" text-anchor="middle">CA</tspan>
        </text>
        <text id="DC_label" x="1309.32" y="398.19" stroke-width="1.29" font-size="15.45" style="display: none;">
          <tspan id="DC_tspan" x="1309.32" y="398.19" fill="#000000" stroke-width="1.29" dy="0" font-family="Arial" font-size="19.31" font-style="normal" font-weight="400" style="text-align: center; fill: rgb(0, 0, 0);" text-anchor="middle">DC</tspan>
        </text>
        <text id="TN_label" x="1018.93" y="485.72" style="font-size: 19.2455px; stroke-width: 1.60379; display: none;">
          <tspan id="TN_tspan" x="1018.93" y="485.72" fill="#000000" dy="0" font-family="Arial" font-size="24.06" font-style="normal" font-weight="400" style="text-align: center; stroke-width: 2.57215; fill: rgb(0, 0, 0);" text-anchor="middle">TN</tspan>
        </text>
        <text id="AR_label" x="863.15" y="535.77" style="font-size: 19.2455px; stroke-width: 1.60379; display: none;">
          <tspan id="AR_tspan" x="863.15" y="535.77" fill="#000000" dy="0" font-family="Arial" font-size="24.06" font-style="normal" font-weight="400" style="text-align: center; stroke-width: 2.57215; fill: rgb(0, 0, 0);" text-anchor="middle">AR</tspan>
        </text>
      </g>
      <g id="state_borders" transform="translate(-0.04777967,-0.15336683)" stroke="rgb(209, 219, 221)" style="stroke: rgb(0, 0, 0);" stroke-width="0.3">
        <path id="NJ_NY_border" d="m1276.3 259.98-.17-1.51.52-2.48.23-2.13-.06-3.03-.3-.43-7.42-1.96-3.14-.8-4.16-1.28-6.3-1.81" stroke="rgb(209, 219, 221)" stroke-width="0.3" fill="none" style="stroke: rgb(0, 0, 0); display: none;"/>
      </g>
      <rect id="selection-rectangle" fill="#ffffccaa" stroke="rgb(209, 219, 221)" stroke-width="0.1"/>
      <ellipse id="selection-ellipse" fill="#ffffccaa" stroke="rgb(209, 219, 221)" stroke-width="0.1"/>
      <polygon id="selection-polygon" fill="#ffffccaa" stroke="rgb(209, 219, 221)" stroke-width="0.1"/>
      <polyline id="selection-polyline" fill="#ffffccaa" stroke="rgb(209, 219, 221)" stroke-width="0.1"/>
    </svg>
  </g>
</svg>
