<?xml version='1.0' encoding='UTF-8'?>
<svg xmlns="http://www.w3.org/2000/svg" xmlns:dc="http://purl.org/dc/elements/1.1/" xmlns:ns2="http://creativecommons.org/ns#" xmlns:rdf="http://www.w3.org/1999/02/22-rdf-syntax-ns#" id="wrapper" viewBox="0 0 1520 840" preserveAspectRatio="xMinYMin" height="840" width="1520" style="background-color: rgb(255, 255, 255);">
  <metadata>
    <rdf:rdf>
      <ns2:work rdf:about="">
        <dc:format>image/svg+xml</dc:format>
        <dc:type rdf:resource="http://purl.org/dc/dcmitype/StillImage"/>
        <dc:title>MapChart Map</dc:title>
        <dc:creator>
          <ns2:agent>
            <dc:title>MapChart.net</dc:title>
          </ns2:agent>
        </dc:creator>
        <ns2:license rdf:resource="http://creativecommons.org/licenses/by-sa/4.0/"/>
        <dc:description>This map was created with MapChart.net, a website for creating custom maps.</dc:description>
      </ns2:work>
      <ns2:license rdf:about="http://creativecommons.org/licenses/by-sa/4.0/">
        <ns2:permits rdf:resource="http://creativecommons.org/ns#Reproduction"/>
        <ns2:permits rdf:resource="http://creativecommons.org/ns#Distribution"/>
        <ns2:requires rdf:resource="http://creativecommons.org/ns#Notice"/>
        <ns2:requires rdf:resource="http://creativecommons.org/ns#Attribution"/>
        <ns2:requires rdf:resource="http://creativecommons.org/ns#ShareAlike"/>
      </ns2:license>
    </rdf:rdf>
  </metadata>
  <g id="map-group" transform="translate(-4394.6047361555475,-625.7236841587965) scale(7.791408494005697)">
    <svg id="map" width="1520" height="840" version="1.1" viewBox="0 0 1520 840" preserveAspectRatio="xMinYMin" data-originalStrokeWidth="0.3">
      <defs>
        <pattern id="circles3" width="10" height="10" patternUnits="userSpaceOnUse">    <rect width="10" height="10" fill="#fff"/>    <circle cx="4" cy="4" r="2" fill="#000"/>    </pattern>
        <pattern id="diagonal1" width="10" height="10" patternUnits="userSpaceOnUse">    <rect width="10" height="10" fill="#fff"/>    </pattern>
        <pattern id="diagonal3" width="10" height="10" patternUnits="userSpaceOnUse">    <rect width="10" height="10" fill="#fff"/>    </pattern>
        <pattern id="vertical1" width="10" height="10" patternUnits="userSpaceOnUse">    <rect width="10" height="10" fill="#fff"/>    <rect x="2" y="0" width="1" height="10" fill="#000"/>    </pattern>
        <pattern id="vertical3" width="10" height="10" patternUnits="userSpaceOnUse">    <rect width="10" height="10" fill="#fff"/>    <rect x="2" y="0" width="3" height="10" fill="#000"/>    </pattern>
        <pattern id="horizontal1" width="10" height="10" patternUnits="userSpaceOnUse">    <rect width="10" height="10" fill="#fff"/>    <rect x="0" y="2" width="10" height="1" fill="#000"/>    </pattern>
        <pattern id="horizontal3" width="10" height="10" patternUnits="userSpaceOnUse">    <rect width="10" height="10" fill="#fff"/>    <rect x="0" y="2" width="10" height="3" fill="#000"/>    </pattern>
        <pattern id="crosshatch" width="8" height="8" patternUnits="userSpaceOnUse">    <rect width="8" height="8" fill="#fff"/>    </pattern>
        <pattern id="subtlepatch" width="5" height="5" patternUnits="userSpaceOnUse">    <rect width="5" height="5" fill="#fff"/>    <rect x="2" y="2" width="1" height="1" fill="#000"/>    </pattern>
        <pattern id="checkers" width="8" height="8" patternUnits="userSpaceOnUse">    <rect width="8" height="8" fill="#fff"/>    </pattern>
        <pattern id="raindrops" width="10" height="10" patternUnits="userSpaceOnUse">    <rect width="10" height="10" fill="#fff"/>    </pattern>
        <pattern id="texture" width="4" height="4" patternUnits="userSpaceOnUse">    <rect width="4" height="4" fill="#fff"/>    </pattern>
        <pattern id="circles3_a03500_000000" width="10" height="10" patternUnits="userSpaceOnUse">    <rect width="10" height="10" fill="#a03500"/>    <circle cx="4" cy="4" r="2" fill="#000000"/>    </pattern>
        <pattern id="diagonal1_d9b400_535353" width="10" height="10" patternUnits="userSpaceOnUse">    <rect width="10" height="10" fill="#d9b400"/>    </pattern>
        <pattern id="diagonal3_3264c8_ffffff" width="10" height="10" patternUnits="userSpaceOnUse">    <rect width="10" height="10" fill="#3264c8"/>    </pattern>
        <pattern id="horizontal1_72b38e_000000" width="10" height="10" patternUnits="userSpaceOnUse">    <rect width="10" height="10" fill="#72b38e"/>    <rect x="0" y="2" width="10" height="1" fill="#000000"/>    </pattern>
        <pattern id="horizontal3_986ba1_ffffff" width="10" height="10" patternUnits="userSpaceOnUse">    <rect width="10" height="10" fill="#986ba1"/>    <rect x="0" y="2" width="10" height="3" fill="#ffffff"/>    </pattern>
        <pattern id="vertical1_b9a087_ffffff" width="10" height="10" patternUnits="userSpaceOnUse">    <rect width="10" height="10" fill="#b9a087"/>    <rect x="2" y="0" width="1" height="10" fill="#ffffff"/>    </pattern>
        <pattern id="vertical3_4c91bf_ffff33" width="10" height="10" patternUnits="userSpaceOnUse">    <rect width="10" height="10" fill="#4c91bf"/>    <rect x="2" y="0" width="3" height="10" fill="#ffff33"/>    </pattern>
        <pattern id="checkers_cc3333_f7f7f7" width="8" height="8" patternUnits="userSpaceOnUse">    <rect width="8" height="8" fill="#cc3333"/>    </pattern>
        <pattern id="texture_d1dbdd_525252" width="4" height="4" patternUnits="userSpaceOnUse">    <rect width="4" height="4" fill="#d1dbdd"/>    </pattern>
        <style id="map-style">svg { background-color: #ffffff; }</style>
      </defs>
      <path id="ND00" d="m725.53 85.7.07.23-.23.26.01.36.02.25.2.15-.07.13-.04.26.16.06.04.33.23.09-.1.36.2.18-.04.19.13.18.29.12.04.21-.18-.02.04.1-.01.22.19.17.25-.01-.2.43.19-.02.16.37-.21.15.15.05.04.26-.2.16.15.2-.04.2-.22.1.68.13-.16.2-.28.14v.1l.28-.13.08.15-.23.07.32.08.03.12-.02.06v.07l.08.02h.13l.04.03v.03l-.06.05-.13.07h-.04v.08l.02.03h.07l.05.04.04.09.1.1v.07l-.04.06-.1.08-.04.1.02.07.05.07.07.04h.07l.06-.03h.05l.04.02.03.04.02.07-.01.13-.03.07-.09.07v.05l.06.04.04.02h.18l.02.07v.04l-.06.05-.1.02-.03.03.03.05.22.16.04.04.08.16.23.18-.17.23.3.34.29.1-.21.17.04.4-.16.1.19.19-.15.32-.16.16.15.3-.11.1-.17-.08-.11-.01.07.28.13.17-.35-.04.14.22-.39.02-.03.14.32.05-.37.42.23.06-.05.32h-.32l.27.28-.15.2-.36.07-.06.13.23.1h.47l.01.16-.41-.06-.07.22.12.18.09.02.11.01.1.05.07.04.02.04.02.06-.06.05-.14.03-.04.03-.05.05.06.25.07.04.08.02.05-.04.1-.06.08-.05h.07l.07.04.02.04-.03.08-.17.18-.12.02-.14-.01-.04.02.03.1v.19l.04.09.06.03.1.04.13.08.05.05.03.06v.05l-.05.03-.06-.01-.08-.12h-.06v.04l.07.08v.1l-.03.03-.08.04-.2.04-.09.04-.06.05v.05l.01.05.07.03h.15l.23-.08h.2l.05.03.02.05v.05l-.04.04-.06.02-.03-.02-.09-.06-.05-.03h-.07l-.04.02-.04.05v.15l.08.1.06.05h.08l.09-.03.06.01.05.05v.03l-.01.2-.12.17-.1.07-.18.1-.04.1.03.04.07.03.1-.02.03-.02.11-.13.07-.02h.03l.06.02.06.06.02.09v.07l-.02.07-.04.06-.04.03h-.05l-.16-.07h-.06l-.09.04v.07l.07.07.08.04.08.01.14.06.08.06.06.09-.02.06-.03.03h-.03l-.03-.01-.05-.06-.07-.07-.1-.03-.13.02-.15.06-.07.06-.02.1.03.04.02.02h.1l.04-.04.05-.1.05-.05h.05l.02.04v.09l.14.11.03.1-.01.03-.07.06-.1.07-.07.09-.03.05-.08.04h-.1l-.1.02-.1.06v.08l.03.02.08.01.04.01-.03.1.02.05.09.08.13.06.05-.02.08-.05.08-.02.05.02.02.02-.02.04-.03.03h-.08l-.03.04v.05l.08.12v.06l-.04.03-.07.02-.18-.03-.07.05-.03.11.02.09.12.07.04.01.1.19.12.03.05.04v.05l-.02.03-.07.09-.02.02.04.06h.16l.05.02.07.02.03.13-.04.1-.02.08-.05.01-.15.05-.06.05-.03.07v.02l.03.04h.05l.06-.07.07-.02h.07l.19.02.06.03.05.06-.02.03-.03.04-.15.08h-.14l-.06.07v.05l-.06.12v.06l.05.03h.05l.06-.07.05-.01h.06l.07.04v.05l-.1.09.01.04.04.07.25.12-.13.12-.1-.13-.1-.01-.2.26.2-.01.14.03.1.18.03.14-.19.12.05.13-.07.05h-.34l.17.14.27.14-.04.03h-.09l-.02.03v.03l.08.09.04.07.02.07-.06.05-.14-.01h-.04l-.09.07-.08.03-.05.04v.03l-.02.07.07.04.11-.01h.07l.03.06v.05l-.02.02-.14.02-.04.05-.02.05.32.1.1.03.08.04.03.08-.02.03-.05.03-.06-.03-.1-.08-.1-.01-.1.04-.17.07-.04.05-.03.09.03.03.24-.11.35.14.1.21-.11.06-.17-.28-.16.01.23.22-.23.26.07.06.03.09-.02.02-.1.07-.03.1-.13.17.27.13-.18.22-.04.05.08.31.12.1.24-.11.06.2-.3.16-.14.24.41.05.1.15-.22.03.27.6-.05.29.03.02.3.05.16.24-.16.18.17.06.06.22-.08.32h.11l.28.44.18.1.05.04.03.05.07.16.03.13.01.26.02.07.02.11-.01.03-.04.12-.01.15.18.09-.06.15.11.43.13.09.05.26-.13.62.06.1.14.23-.05.17.02.08.04.05.03.03.07.05.1.04h.11l.06.04.01.04v.06l-.04.1.07.11.2.13.1.09.06.04.02.05-.1.06-.03.05.09.03.05.04.02.04.03.1v.06l-.1.02-.06-.06h-.04l-.02.04.02.05.08.09.02.05-.02.03-.07.08.1.17.03.07-.09.05-.04.13.04.05.08.06.04.05-.01.07-.08.08.04.05.32.05.06.03.03.03v.05l-.01.01-.07.04.1.11.11.28-.01.1.07.13-.06.01-.02.05v.06l.03-.02.06-.02.04.01-.04.1.01.02.05.02.06-.03.04.02.03.07v.07l.08.09v.02l-.03.06-.08.05.02.03h.03l.07-.02h.06l.05.01.05.05v.03l-.04.03-.05-.02-.03.03.01.22.03.06.02.05-.04.05-.04.02-.13-.03h-.05l-.03.04.01.03.1.01.04.03.04.04.07.02.11.02.03.01-.06.05v.12h.07l.08-.06.05-.02.02.04v.08l.05.04.1.06.04.06v.03l-.09.05-.07.09v.05l.04.03h.03l.1-.1v.06l-.04.1.05.03h.08l.02.02-.07.07v.07l.05.02.09-.04h.04l.03.01.02.07.15.14h.07v.07l-.06.07v.1l.04.04.05.03.1.04.02.01-.02.04h-.05l-.1-.04h-.04l-.02.03.03.05.09.01.09.07.05.04v.16l-.03.07-.05.06-.01.05v.05l.04.08.08.1.06.06.02.1.02.01.1.02v.06l-.05.07-.07.05-.09.03-.02.03-.02.08.03.03h.04l.03-.02.04-.08.06-.02.03.02.03.07-.03.09v.06l.08.05h.08l.03.04-.01.07-.05.05h-.08l-.05.07v.04l.02.03.07-.03.06-.07h.02l.03.02.06.13.04.05v.06l-.05.05v.07l.04.04h.05l.04-.1.05-.02.02.02.04.05v.13l.04.13.04.12-.01.06v.05l.05.04.16-.05v.05l-.06.07.05.4.13.24v.25l-.12.06.17.3.14.06-.08.29.1.12.41.14.08.33.02.06-.16.07.17.23-.02.12-.15.3.2.18-.3-.02.08.22.26-.15-.07.2-.18.06.26.22-.22.17.27.1-.28.06.17.15-.17.24h-.15l.19.42.35-.06v.32h-.16v.33l-.03.04-.13.1h-.07v.07l.14.04.05.02.07.01v.07l-.02.05-.05.02-.1-.03h-.03l-.08.12-.05.04v.05l.03.02h.06l.07-.12.05-.01h.12l.01.04v.07l-.1.12h-.05l-.02.02.03.16.03.08.1.09v.05l-.09.07h-.07l-.02.03-.02.03.04.03.05.01.06-.01.05.02v.04l-.02.03h-.06v.02l.02.08-.01.06-.03.05.03.1.07.08v.04l-.06.03h-.07l-.02.06.02.03.07.03.08.01.04.04v.03h-.04l-.03-.02h-.04l-.05.07-.07.04-.01.05.03.02h.05l.03-.02h.05l.04.01v.05l-.02.03-.06.02-.07.04-.04.05-.14.04-.01.02v.03h.04l.07-.02h.06l.07.02-.04.07.05.1.08.09h.03l.1-.04.13-.05h.03l.04.03-.02.01-.11.1-.1.02-.01.03.02.03.05.03.1.02.06.1.07.02-.03.05-.05.03-.11.05-.02.03v.03l.1.05h.04l.03-.05.03.02.05.1v.03l-.09.06v.03l.07.05.03.04-.04.05-.03.02-.06-.01-.04-.03-.05-.01h-.03l-.02.03.02.05.1.05.04.04v.03l-.05.04-.1-.01h-.05l-.04.04.01.05.1.06h.1l.07-.08.04-.04.07.04-.02.05-.12.09h-.1l-.07-.03h-.07l-.06.02v.09h.14l.05.04v.06l-.05.07-.02.06.03.04.09.02h.16l.05.03v.05h-.07l-.05-.02-.06.03.06.09-.1.02v.04l.04.06.08.09.02.07.07.03.07-.02.03.01.05.04.02.05-.07.14-.02.04-.16.01-.06.05v.09l.05.02.03.02.04-.02.04-.05.02-.03.04-.06.05.02.03.02.06.06v.03l-.05.04-.11.08v.15h-.12l-.1.06.01.07.1.02v.06l-.03.05v.03l.05.03.03-.02.03-.07.04-.02.03.02.05.08.05.07v.03l-.07.09-.04.1-.11.13-.04.07v.14l.07.17.02.1.02.11-.01.04-.02.05-.11.02-.02.03v.07l.06.02.07.02.07-.02.07.01.02.05-.01.04-.05.03h-.05l-.07-.01h-.04l-.02.02-.04.07.06.04.07-.05.1-.02.02.02v.09l-.06.04-.06-.01h-.05l-.03.02.03.03h.11v.05l-.02.05h-.05l-.04.1.01.03.06.01.03-.01.01-.1h.05l.03.1.07.05v.04l-.04.05-.09.04-.04.01-.05.06-.02.03v.05l.06.01.03-.02.02-.06.02-.03.04.01.02.08.1.09.04.05.02.07-.02.03-.04.02-.02-.02-.06-.06-.04-.03-.07.02-.03.03-.03.07.04.05.03.02.06-.03.1.03.02.04v.02l-.06.05-.09.03-.1.05-.05.06v.05l.04.04h.07l.02-.1.03-.05h.06l.04.01.02.07-.03.04-.05.05-.02.02.03.04.13.1v.08l-.04.03h-.06l-.04.04h.02l.12.07.05.04.04.06-.02.05-.04-.02-.03-.06-.05-.03-.02.01-.06.1-.04.08-.1.1-.01.04.02.05.03.02h.07v-.05l-.03-.05v-.04l.02-.02.05.01.05.03.13.06.05.02.02.06-.01.05-.14.03-.07.07.02.04.07.03.08-.04.06-.04h.09v.07l-.05.04h-.05l-.03.03.07.03.02.01-.02.04-.05.03h-.13v.05l.05.06h.17l.02.04-.05.12v.06l.04.03h.05l.03.02v.02l-.01.06-.05.05h-.04l-.12.02-.03.02-.01.04.05.03.11-.03.05.04v.02l-.02.04-.04.03h-.15l-.1-.05.01.09-.03.03h-.05l-.02.04.02.03.18.02-.05.19.3.4-.15.32.27.35-.06.27.08.09-.04.48.07.1-.16.2.03.21.1.13-.12.2.16.09-.08.44.14.14-.23.05.26.23-.1.02-.16.05-.07.16-.04.25-.13.1.25.07.2.18-.14.34.14.27-.05.25.3.23.17-.16.13.06v.07l-.06.11-.02.2-.07.2-.01.06.16.04.12.03-.01.12.03.38.32.05.02-.16.29-.13.13.14-.17.12.23.04-.2.1.07.1.07.04.05.06-.18.18-.03.13-.1-.03v.17l-.11.23h.12l-.08.26.11.01.04.05-.3.1.1.18.01.02-.12.1-.03.27.03.07.12.08-.16.2.24.04-.16.15.14.2-.22-.07-.01.28-.16-.01.3.2-.02.05-.21-.08-.19.25.03.17.08.47-.12.07.11.02h.03l.04.04v.03l-.05.04v.09l.07.05.12.04v.1l-.18.2.29-.04-.14.12.26.3-.23-.03.15.29.1.83-.02.25-.2.15.18.03-.17.41.03.05.13.24-.04.51-.18-.04-.07.04.12.12-.07.39v.06l-.03.2.3.42-.2.22-.04.13.34-.08-.07.05-.12.16.4.25.07.63.35.03-.16.1.3.24-.17.18.22.07-.07.17.17.1.03.08-.01.04-.07-.06-.12.09v.23l.13-.03-.07.39.18-.01.03.08.05.21h-.17l.18.28-.03.2.16.4-.13.16.16.13v.26l-.14.06.3.44.28.06-.19.05.22.08-.1.15.14.08v.11l-.18.2v.04l.06.06.12.15-.06.14.29-.02-.09.19.13.15-.03.14.2-.01.17.22v.28l.14-.06.29.6.03.36.21.03.03.18.04.09.27.15-.03.31.35-.1.05.15.23.06-.05.23.46.27-.15.12h.11l.08.28-.1.5.11.1-.13.18.2.06v.14l-.04.1-.04.1.02.02.08.27-.04.23.1.13.03.07-.06.1.16.13.1.03-.2.1-.1.1.02.14-.03.06.06.1v.2l.15.54.16.02-.03.41-.08.16.04.29.02.07-.09.12.28-.06.11.25-.1.56.2.31.03.14.13.69.1.14.03.08.11.32.03 1-.03.2-.06.14-.24.55-.04.45.06.15.1 1.29.06.41.22.57v.16l-.03.16-.76.04-3 .1-1.4.07-.7.02-1.39.06-1.38.05-.34.02-1.02.03-.92.05-.92.03-.92.05-.91.03-.92.04-.91.02-.47.02-.66.01-.71.02-1.38.05-.72.06-1.81.06-2.03.06h-.3l-4.32.13-1.52.04-1.8.04-.72.02-1.12.04-2.26.05-.5.02h-.43l-.26.02-1.56.05-3.38.04-1.64.03-3.23.03-.64.02h-.69l-2.95.05h-.32l-.67.01-2.2.03-1.7.02-1.91.03-1.7.04h-2.25l-1.8.04-2.53.01-1.58.02-2.75.04h-6.89l-1.16.01h-.84l-1.15-.01h-3.13l-.38.01h-1.27l-.76-.01h-3.57l-.48.02-1.27-.04-.94.02-1.34.01-.84-.02H645l-.91-.02H641l-2.02-.02h-2.16l-1.1-.02-1.04-.02-1-.01-1.09-.02h-.9l-.39-.02-2.23-.01-.61-.01-1.85-.04h-1.3l-.76-.01-1.12-.03-.99-.01-.84-.02-.72-.01h-.51l-1.9-.04h-.36l-1.39-.03-.54-.01h-.56l-.6-.02-.52-.01-.57-.02-1.36-.01-.43-.02h-.5l-.45-.02h-.81l-.86-.03-.6-.02-.67-.01-2.06-.05-.92-.02-1.09-.03h-.48l-.39-.01-.67-.03-.96-.01h-.28l-.69-.02-.53-.01-1.73-.06h-.27l-1.12-.04-.86-.02-1.86-.05-.48-.02-.88-.02-.79-.03h-.59l-.14-.02-1.24-.03-.61-.03-1.67-.05-1.95-.05-.82-.02-1.46-.07h-.77l-.27-.03-.5-.02-1.27-.04-.4-.01-1-.03.02-.92.04-1.58.09-1.65.01-.83.05-.93.05-1.04.03-1.24.04-1.15.06-1.5.01-.62.02-.48.03-.84.09-2.2.1-2.77.08-2.31.02-.9.05-.92v-.5l.05-1.31.01-.5.05-1.27.15-4.35.03-.77v-.48l.14-3.14.01-.29.04-1.15.02-.83.1-2.7.03-.52.04-1.43v-.26l.02-.07.04-1.37.04-1.05.04-.95.05-1.25.14-3.54.04-1.37.06-1.79.03-.82.03-.72.06-1.72.04-.8.04-.98.04-.57.05-1.27.01-.11v-.2l.01-.14.03-.89.02-1.5.01-.99.02-.67.02-.32.01-.16.08-2.74.02-1.18.02-.3.03-1.27.08-2.27v-.22l.03-.67v-.28l.03-.5.02-1.02.06-1.89.13-4.26.08-2.51.02-.43.07-2.25.04-1.18v-.23l.06-1.29.04-1.7.01-.41.01-.15.01-.26.04-.86v-.55l.03-.45.07-1.73.01-.33 1.17.05 8.28.3 4.64.12h.26l4.74.14 8.1.19 6.13.13 5.13.1 4.43.07 7.84.07 3.52.03 4.9.03 2.04.03 4.28-.02h11.6l4.3-.02 5.18-.01 8.13-.1 3.12-.03 7.89-.15 5.5-.13 3.08-.05 5.18-.13 11.4-.32 7.01-.24 4.88-.16" fill="#d1dbdd" stroke="rgb(209, 219, 221)" stroke-width="0.1" data-originalStrokeWidth="0.1" style="stroke: rgb(0, 0, 0); fill: rgb(209, 219, 221); pointer-events: auto; stroke-width: 0.1;" pointer-events="auto"/>
      <g id="state_lines" stroke="rgb(209, 219, 221)" style="display: none; stroke: rgb(0, 0, 0);" stroke-width="0.1"/>
      <g id="state_abbr" fill="#000000" style="display: none; fill: rgb(0, 0, 0);">
        <text id="HI_label" x="491.79" y="769.82" style="font-size: 19.2455px; stroke-width: 1.60379; display: none;">
          <tspan id="HI_tspan" x="491.79" y="769.82" fill="#000000" dy="0" font-family="Arial" font-size="24.06" font-style="normal" font-weight="400" style="text-align: center; stroke-width: 2.57215; fill: rgb(0, 0, 0);" text-anchor="middle">HI</tspan>
        </text>
        <text id="AK_label" x="205.24" y="672.25" style="font-size: 19.2455px; stroke-width: 1.60379; display: none;">
          <tspan id="AK_tspan" x="205.24" y="672.25" fill="#000000" dy="0" font-family="Arial" font-size="24.06" font-style="normal" font-weight="400" style="text-align: center; stroke-width: 2.57215; fill: rgb(0, 0, 0);" text-anchor="middle">AK</tspan>
        </text>
        <text id="FL_label" x="1188.11" y="708.7" style="font-size: 19.2455px; stroke-width: 1.60379; display: none;">
          <tspan id="FL_tspan" x="1188.11" y="708.7" fill="#000000" dy="0" font-family="Arial" font-size="24.06" font-style="normal" font-weight="400" style="text-align: center; stroke-width: 2.57215; fill: rgb(0, 0, 0);" text-anchor="middle">FL</tspan>
        </text>
        <text id="NH_label" x="1306.05" y="167.79" stroke-width="1.1" font-size="13.25" style="display: none;">
          <tspan id="NH_tspan" x="1306.05" y="167.79" fill="#000000" stroke-width="1.1" dy="0" font-family="Arial" font-size="16.56" font-style="normal" font-weight="400" style="text-align: center; fill: rgb(0, 0, 0);" text-anchor="middle">NH</tspan>
        </text>
        <text id="MI_label" x="1019.65" y="246.58" style="font-size: 19.2455px; stroke-width: 1.60379; display: none;">
          <tspan id="MI_tspan" x="1019.65" y="246.58" fill="#000000" dy="0" font-family="Arial" font-size="24.06" font-style="normal" font-weight="400" style="text-align: center; stroke-width: 2.57215; fill: rgb(0, 0, 0);" text-anchor="middle">MI</tspan>
        </text>
        <text id="VT_label" x="1274.28" y="145.01" stroke-width="1.05" font-size="12.65" style="display: none;">
          <tspan id="VT_tspan" x="1274.28" y="145.01" fill="#000000" stroke-width="1.05" dy="0" font-family="Arial" font-size="15.81" font-style="normal" font-weight="400" style="text-align: center; fill: rgb(0, 0, 0);" text-anchor="middle">VT</tspan>
        </text>
        <text id="ME_label" x="1338.99" y="105.14" stroke-width="1.45" font-size="17.36" style="display: none;">
          <tspan id="ME_tspan" x="1338.99" y="105.14" fill="#000000" stroke-width="1.45" dy="0" font-family="Arial" font-size="21.7" font-style="normal" font-weight="400" style="text-align: center; fill: rgb(0, 0, 0);" text-anchor="middle">ME</tspan>
        </text>
        <text id="RI_label" x="1361.38" y="262.84" stroke-width="1.25" font-size="14.98" style="display: none;">
          <tspan id="RI_tspan" x="1361.38" y="262.84" fill="#000000" stroke-width="1.25" dy="0" font-family="Arial" font-size="18.72" font-style="normal" font-weight="400" style="text-align: center; fill: rgb(0, 0, 0);" text-anchor="middle">RI</tspan>
        </text>
        <text id="NY_label" x="1227.27" y="204.12" style="font-size: 19.2455px; stroke-width: 1.60379; display: none;">
          <tspan id="NY_tspan" x="1227.27" y="204.12" fill="#000000" dy="0" font-family="Arial" font-size="24.06" font-style="normal" font-weight="400" style="text-align: center; stroke-width: 2.57215; fill: rgb(0, 0, 0);" text-anchor="middle">NY</tspan>
        </text>
        <text id="PA_label" x="1187.28" y="284.69" style="font-size: 19.2455px; stroke-width: 1.60379; display: none;">
          <tspan id="PA_tspan" x="1187.28" y="284.69" fill="#000000" dy="0" font-family="Arial" font-size="24.06" font-style="normal" font-weight="400" style="text-align: center; stroke-width: 2.57215; fill: rgb(0, 0, 0);" text-anchor="middle">PA</tspan>
        </text>
        <text id="NJ_label" x="1330.57" y="290.09" stroke-width="1.28" font-size="15.4" style="display: none;">
          <tspan id="NJ_tspan" x="1330.57" y="290.09" fill="#000000" stroke-width="1.28" dy="0" font-family="Arial" font-size="19.25" font-style="normal" font-weight="400" style="text-align: center; fill: rgb(0, 0, 0);" text-anchor="middle">NJ</tspan>
        </text>
        <text id="DE_label" x="1320.8" y="328.42" stroke-width="1.36" font-size="16.38" style="display: none;">
          <tspan id="DE_tspan" x="1320.8" y="328.42" fill="#000000" stroke-width="1.36" dy="0" font-family="Arial" font-size="20.47" font-style="normal" font-weight="400" style="text-align: center; fill: rgb(0, 0, 0);" text-anchor="middle">DE</tspan>
        </text>
        <text id="MD_label" x="1310.72" y="368.46" stroke-width="1.34" font-size="16.11" style="display: none;">
          <tspan id="MD_tspan" x="1310.72" y="368.46" fill="#000000" stroke-width="1.34" dy="0" font-family="Arial" font-size="20.13" font-style="normal" font-weight="400" style="text-align: center; fill: rgb(0, 0, 0);" text-anchor="middle">MD</tspan>
        </text>
        <text id="VA_label" x="1198.59" y="392.33" style="font-size: 19.2455px; stroke-width: 1.60379; display: none;">
          <tspan id="VA_tspan" x="1198.59" y="392.33" fill="#000000" dy="0" font-family="Arial" font-size="24.06" font-style="normal" font-weight="400" style="text-align: center; stroke-width: 2.57215; fill: rgb(0, 0, 0);" text-anchor="middle">VA</tspan>
        </text>
        <text id="WV_label" x="1129.66" y="382.3" style="font-size: 19.2455px; stroke-width: 1.60379; display: none;">
          <tspan id="WV_tspan" x="1129.66" y="382.3" fill="#000000" dy="0" font-family="Arial" font-size="24.06" font-style="normal" font-weight="400" style="text-align: center; stroke-width: 2.57215; fill: rgb(0, 0, 0);" text-anchor="middle">WV</tspan>
        </text>
        <text id="OH_label" x="1079.05" y="334.46" style="font-size: 19.2455px; stroke-width: 1.60379; display: none;">
          <tspan id="OH_tspan" x="1079.05" y="334.46" fill="#000000" dy="0" font-family="Arial" font-size="24.06" font-style="normal" font-weight="400" style="text-align: center; stroke-width: 2.57215; fill: rgb(0, 0, 0);" text-anchor="middle">OH</tspan>
        </text>
        <text id="IN_label" x="998.79" y="352.94" style="font-size: 19.2455px; stroke-width: 1.60379; display: none;">
          <tspan id="IN_tspan" x="998.79" y="352.94" fill="#000000" dy="0" font-family="Arial" font-size="24.06" font-style="normal" font-weight="400" style="text-align: center; stroke-width: 2.57215; fill: rgb(0, 0, 0);" text-anchor="middle">IN</tspan>
        </text>
        <text id="IL_label" x="927.43" y="364.36" style="font-size: 19.2455px; stroke-width: 1.60379; display: none;">
          <tspan id="IL_tspan" x="927.43" y="364.36" fill="#000000" dy="0" font-family="Arial" font-size="24.06" font-style="normal" font-weight="400" style="text-align: center; stroke-width: 2.57215; fill: rgb(0, 0, 0);" text-anchor="middle">IL</tspan>
        </text>
        <text id="CT_label" x="1299.17" y="228.46" stroke-width="1.06" font-size="12.74" style="display: none;">
          <tspan id="CT_tspan" x="1299.17" y="228.46" fill="#000000" stroke-width="1.06" dy="0" font-family="Arial" font-size="15.93" font-style="normal" font-weight="400" style="text-align: center; fill: rgb(0, 0, 0);" text-anchor="middle">CT</tspan>
        </text>
        <text id="WI_label" x="898.6" y="224.7" style="font-size: 19.2455px; stroke-width: 1.60379; display: none;">
          <tspan id="WI_tspan" x="898.6" y="224.7" fill="#000000" dy="0" font-family="Arial" font-size="24.06" font-style="normal" font-weight="400" style="text-align: center; stroke-width: 2.57215; fill: rgb(0, 0, 0);" text-anchor="middle">WI</tspan>
        </text>
        <text id="NC_label" x="1205.6" y="458.72" style="font-size: 19.2455px; stroke-width: 1.60379; display: none;">
          <tspan id="NC_tspan" x="1205.6" y="458.72" fill="#000000" dy="0" font-family="Arial" font-size="24.06" font-style="normal" font-weight="400" style="text-align: center; stroke-width: 2.57215; fill: rgb(0, 0, 0);" text-anchor="middle">NC</tspan>
        </text>
        <text id="MA_label" x="1305.87" y="200.67" stroke-width="1.04" font-size="12.46" style="display: none;">
          <tspan id="MA_tspan" x="1305.87" y="200.67" fill="#000000" stroke-width="1.04" dy="0" font-family="Arial" font-size="15.58" font-style="normal" font-weight="400" style="text-align: center; fill: rgb(0, 0, 0);" text-anchor="middle">MA</tspan>
        </text>
        <text id="MO_label" x="854.22" y="422.93" style="font-size: 19.2455px; stroke-width: 1.60379; display: none;">
          <tspan id="MO_tspan" x="854.22" y="422.93" fill="#000000" dy="0" font-family="Arial" font-size="24.06" font-style="normal" font-weight="400" style="text-align: center; stroke-width: 2.57215; fill: rgb(0, 0, 0);" text-anchor="middle">MO</tspan>
        </text>
        <text id="GA_label" x="1106.89" y="574.56" style="font-size: 19.2455px; stroke-width: 1.60379; display: none;">
          <tspan id="GA_tspan" x="1106.89" y="574.56" fill="#000000" dy="0" font-family="Arial" font-size="24.06" font-style="normal" font-weight="400" style="text-align: center; stroke-width: 2.57215; fill: rgb(0, 0, 0);" text-anchor="middle">GA</tspan>
        </text>
        <text id="SC_label" x="1166.32" y="522.49" style="font-size: 19.2455px; stroke-width: 1.60379; display: none;">
          <tspan id="SC_tspan" x="1166.32" y="522.49" fill="#000000" dy="0" font-family="Arial" font-size="24.06" font-style="normal" font-weight="400" style="text-align: center; stroke-width: 2.57215; fill: rgb(0, 0, 0);" text-anchor="middle">SC</tspan>
        </text>
        <text id="KY_label" x="1039.99" y="426.39" style="font-size: 19.2455px; stroke-width: 1.60379; display: none;">
          <tspan id="KY_tspan" x="1039.99" y="426.39" fill="#000000" dy="0" font-family="Arial" font-size="24.06" font-style="normal" font-weight="400" style="text-align: center; stroke-width: 2.57215; fill: rgb(0, 0, 0);" text-anchor="middle">KY</tspan>
        </text>
        <text id="AL_label" x="1019.59" y="578.15" style="font-size: 19.2455px; stroke-width: 1.60379; display: none;">
          <tspan id="AL_tspan" fill="#000000" dy="0" font-family="Arial" font-size="24.06" font-style="normal" font-weight="400" style="text-align: center; stroke-width: 2.57215; fill: rgb(0, 0, 0);" text-anchor="middle">AL</tspan>
        </text>
        <text id="LA_label" x="872.7" y="649.59" style="font-size: 19.2455px; stroke-width: 1.60379; display: none;">
          <tspan id="LA_tspan" x="872.7" y="649.59" fill="#000000" dy="0" font-family="Arial" font-size="24.06" font-style="normal" font-weight="400" style="text-align: center; stroke-width: 2.57215; fill: rgb(0, 0, 0);" text-anchor="middle">LA</tspan>
        </text>
        <text id="MS_label" x="940.37" y="592.21" style="font-size: 19.2455px; stroke-width: 1.60379; display: none;">
          <tspan id="MS_tspan" x="940.37" y="592.21" fill="#000000" dy="0" font-family="Arial" font-size="24.06" font-style="normal" font-weight="400" style="text-align: center; stroke-width: 2.57215; fill: rgb(0, 0, 0);" text-anchor="middle">MS</tspan>
        </text>
        <text id="IA_label" x="823.33" y="308.44" style="font-size: 19.2455px; stroke-width: 1.60379; display: none;">
          <tspan id="IA_tspan" x="823.33" y="308.44" fill="#000000" dy="0" font-family="Arial" font-size="24.06" font-style="normal" font-weight="400" style="text-align: center; stroke-width: 2.57215; fill: rgb(0, 0, 0);" text-anchor="middle">IA</tspan>
        </text>
        <text id="MN_label" x="790.84" y="183.37" style="font-size: 19.2455px; stroke-width: 1.60379; display: none;">
          <tspan id="MN_tspan" x="790.84" y="183.37" fill="#000000" dy="0" font-family="Arial" font-size="24.06" font-style="normal" font-weight="400" style="text-align: center; stroke-width: 2.57215; fill: rgb(0, 0, 0);" text-anchor="middle">MN</tspan>
        </text>
        <text id="OK_label" x="732.05" y="519.54" style="font-size: 19.2455px; stroke-width: 1.60379; display: none;">
          <tspan id="OK_tspan" x="732.05" y="519.54" fill="#000000" dy="0" font-family="Arial" font-size="24.06" font-style="normal" font-weight="400" style="text-align: center; stroke-width: 2.57215; fill: rgb(0, 0, 0);" text-anchor="middle">OK</tspan>
        </text>
        <text id="TX_label" x="710.59" y="652.87" style="font-size: 19.2455px; stroke-width: 1.60379; display: none;">
          <tspan id="TX_tspan" x="710.59" y="652.87" fill="#000000" dy="0" font-family="Arial" font-size="24.06" font-style="normal" font-weight="400" style="text-align: center; stroke-width: 2.57215; fill: rgb(0, 0, 0);" text-anchor="middle">TX</tspan>
        </text>
        <text id="NM_label" x="506.94" y="542.36" style="font-size: 19.2455px; stroke-width: 1.60379; display: none;">
          <tspan id="NM_tspan" x="506.94" y="542.36" fill="#000000" dy="0" font-family="Arial" font-size="24.06" font-style="normal" font-weight="400" style="text-align: center; stroke-width: 2.57215; fill: rgb(0, 0, 0);" text-anchor="middle">NM</tspan>
        </text>
        <text id="KS_label" x="701.21" y="427.26" style="font-size: 19.2455px; stroke-width: 1.60379; display: none;">
          <tspan id="KS_tspan" x="701.21" y="427.26" fill="#000000" dy="0" font-family="Arial" font-size="24.06" font-style="normal" font-weight="400" style="text-align: center; stroke-width: 2.57215; fill: rgb(0, 0, 0);" text-anchor="middle">KS</tspan>
        </text>
        <text id="NE_label" x="686.63" y="337.29" style="font-size: 19.2455px; stroke-width: 1.60379; display: none;">
          <tspan id="NE_tspan" x="686.63" y="337.29" fill="#000000" dy="0" font-family="Arial" font-size="24.06" font-style="normal" font-weight="400" style="text-align: center; stroke-width: 2.57215; fill: rgb(0, 0, 0);" text-anchor="middle">NE</tspan>
        </text>
        <text id="SD_label" x="663.02" y="238.75" style="font-size: 19.2455px; stroke-width: 1.60379; display: none;">
          <tspan id="SD_tspan" x="663.02" y="238.75" fill="#000000" dy="0" font-family="Arial" font-size="24.06" font-style="normal" font-weight="400" style="text-align: center; stroke-width: 2.57215; fill: rgb(0, 0, 0);" text-anchor="middle">SD</tspan>
        </text>
        <text id="ND_label" x="663.02" y="150.75" style="font-size: 19.2455px; stroke-width: 1.60379; display: none;">
          <tspan id="ND_tspan" x="663.02" y="150.75" fill="#000000" dy="0" font-family="Arial" font-size="24.06" font-style="normal" font-weight="400" style="text-align: center; stroke-width: 2.57215; fill: rgb(0, 0, 0);" text-anchor="middle">ND</tspan>
        </text>
        <text id="WY_label" x="499.57" y="276.47" style="font-size: 19.2455px; stroke-width: 1.60379; display: none;">
          <tspan id="WY_tspan" x="499.57" y="276.47" fill="#000000" dy="0" font-family="Arial" font-size="24.06" font-style="normal" font-weight="400" style="text-align: center; stroke-width: 2.57215; fill: rgb(0, 0, 0);" text-anchor="middle">WY</tspan>
        </text>
        <text id="MT_label" x="487.84" y="155.58" style="font-size: 19.2455px; stroke-width: 1.60379; display: none;">
          <tspan id="MT_tspan" x="487.84" y="155.58" fill="#000000" dy="0" font-family="Arial" font-size="24.06" font-style="normal" font-weight="400" style="text-align: center; stroke-width: 2.57215; fill: rgb(0, 0, 0);" text-anchor="middle">MT</tspan>
        </text>
        <text id="CO_label" x="525.13" y="406.28" style="font-size: 19.2455px; stroke-width: 1.60379; display: none;">
          <tspan id="CO_tspan" x="525.13" y="406.28" fill="#000000" dy="0" font-family="Arial" font-size="24.06" font-style="normal" font-weight="400" style="text-align: center; stroke-width: 2.57215; fill: rgb(0, 0, 0);" text-anchor="middle">CO</tspan>
        </text>
        <text id="ID_label" x="339.94" y="235.07" style="font-size: 19.2455px; stroke-width: 1.60379; display: none;">
          <tspan id="ID_tspan" x="339.94" y="235.07" fill="#000000" dy="0" font-family="Arial" font-size="24.06" font-style="normal" font-weight="400" style="text-align: center; stroke-width: 2.57215; fill: rgb(0, 0, 0);" text-anchor="middle">ID</tspan>
        </text>
        <text id="UT_label" x="396.81" y="386.73" style="font-size: 19.2455px; stroke-width: 1.60379; display: none;">
          <tspan id="UT_tspan" x="396.81" y="386.73" fill="#000000" dy="0" font-family="Arial" font-size="24.06" font-style="normal" font-weight="400" style="text-align: center; stroke-width: 2.57215; fill: rgb(0, 0, 0);" text-anchor="middle">UT</tspan>
        </text>
        <text id="AZ_label" x="366.76" y="536.9" style="font-size: 19.2455px; stroke-width: 1.60379; display: none;">
          <tspan id="AZ_tspan" x="366.76" y="536.9" fill="#000000" dy="0" font-family="Arial" font-size="24.06" font-style="normal" font-weight="400" style="text-align: center; stroke-width: 2.57215; fill: rgb(0, 0, 0);" text-anchor="middle">AZ</tspan>
        </text>
        <text id="NV_label" x="262.47" y="370.64" style="font-size: 19.2455px; stroke-width: 1.60379; display: none;">
          <tspan id="NV_tspan" x="262.47" y="370.64" fill="#000000" dy="0" font-family="Arial" font-size="24.06" font-style="normal" font-weight="400" style="text-align: center; stroke-width: 2.57215; fill: rgb(0, 0, 0);" text-anchor="middle">NV</tspan>
        </text>
        <text id="OR_label" x="214.43" y="206.88" style="font-size: 19.2455px; stroke-width: 1.60379; display: none;">
          <tspan id="OR_tspan" x="214.43" y="206.88" fill="#000000" dy="0" font-family="Arial" font-size="24.06" font-style="normal" font-weight="400" style="text-align: center; stroke-width: 2.57215; fill: rgb(0, 0, 0);" text-anchor="middle">OR</tspan>
        </text>
        <text id="WA_label" x="238.05" y="102.99" style="font-size: 19.2455px; stroke-width: 1.60379; display: none;">
          <tspan id="WA_tspan" x="238.05" y="102.99" fill="#000000" dy="0" font-family="Arial" font-size="24.06" font-style="normal" font-weight="400" style="text-align: center; stroke-width: 2.57215; fill: rgb(0, 0, 0);" text-anchor="middle">WA</tspan>
        </text>
        <text id="CA_label" x="191.69" y="434.8" style="font-size: 19.2455px; stroke-width: 1.60379; display: none;">
          <tspan id="CA_tspan" x="191.69" y="434.8" fill="#000000" dy="0" font-family="Arial" font-size="24.06" font-style="normal" font-weight="400" style="text-align: center; stroke-width: 2.57215; fill: rgb(0, 0, 0);" text-anchor="middle">CA</tspan>
        </text>
        <text id="DC_label" x="1309.32" y="398.19" stroke-width="1.29" font-size="15.45" style="display: none;">
          <tspan id="DC_tspan" x="1309.32" y="398.19" fill="#000000" stroke-width="1.29" dy="0" font-family="Arial" font-size="19.31" font-style="normal" font-weight="400" style="text-align: center; fill: rgb(0, 0, 0);" text-anchor="middle">DC</tspan>
        </text>
        <text id="TN_label" x="1018.93" y="485.72" style="font-size: 19.2455px; stroke-width: 1.60379; display: none;">
          <tspan id="TN_tspan" x="1018.93" y="485.72" fill="#000000" dy="0" font-family="Arial" font-size="24.06" font-style="normal" font-weight="400" style="text-align: center; stroke-width: 2.57215; fill: rgb(0, 0, 0);" text-anchor="middle">TN</tspan>
        </text>
        <text id="AR_label" x="863.15" y="535.77" style="font-size: 19.2455px; stroke-width: 1.60379; display: none;">
          <tspan id="AR_tspan" x="863.15" y="535.77" fill="#000000" dy="0" font-family="Arial" font-size="24.06" font-style="normal" font-weight="400" style="text-align: center; stroke-width: 2.57215; fill: rgb(0, 0, 0);" text-anchor="middle">AR</tspan>
        </text>
      </g>
      <g id="state_borders" transform="translate(-0.04777967,-0.15336683)" stroke="rgb(209, 219, 221)" style="stroke: rgb(0, 0, 0);" stroke-width="0.3">
        <path id="ND_SD_border" d="m579.58 181.38 10.68.36 14 .37 8.1.17 8.2.17 9.95.13 6.66.08 10.64.05h25.99l5.72-.05 18.96-.27 4.63-.04 13.83-.34 9.43-.3 5.5-.25 11.83-.45" stroke="rgb(209, 219, 221)" stroke-width="0.3" fill="none" style="stroke: rgb(0, 0, 0); display: none;"/>
        <path id="ND_MT_border" d="m582.88 85.82-.43 12.48-.6 19.58-.07 3.4-.16 3.6-.48 12.63-.23 6.77-.36 9.3-.33 10.05-.42 12.09-.2 3.92-.02 1.74" stroke="rgb(209, 219, 221)" stroke-width="0.3" fill="none" style="stroke: rgb(0, 0, 0); display: none;"/>
        <path id="ND_MN_border" d="m725.63 85.7-.18.57.45 1.89.66.82-.17.45.4.1.17 1.2-.33.7.68.13-.24.6.29.04.44 1.24.06.76.58.54-.2.13.6.53-.3.72-.07 1.03-.36.05.02.5-.56.98.17.45-.3.59.53.37-.11 1.09.37.28-.6.4.7.79-.43.4.53.56-.35.18.27.35-.64.4.5.73-.32.23.87 1.25-.36 1.1.4.24-.54.45.4.05v.43l-.4.13.1.74.46.27-.44.34-.16.6.14.66.46.15-.46.39.26.23.78 1.59-.1.4.65.6.54 2-.13.78.25.62.72.7-.1.79.1.7.32.06.66 1.8-.27.14.72.46.08.54.46.25.07.92.3.44.3 1.04.47.45v1.12l.34.7.36.12.12.98-.23.32.33.47-.37.8.52.36-.12.93-.32.29.39 1.46-.35.36.7.63.04.54-.34.3.17.73.38.33.03 1.05-.26.38.4 1.82-.3.1.3.64-.15.46.33.33.1.64-.44.44.48.7.14 1.56-.2.07.3 1.6-.42.27.32.43v1.02l.69.73.17.67.5-.32-.04 1.6-.45 1.78-.06 1.57.32.64.13 1.04-.07.92-.3 1.07.52 1.03.2.98h.34l.25.77-.07.84.27.55.18 1.35 1.44 2.67.15.66.84.6.65.7-.06 1.2.18.96.34.45-.28.16.5 2.87.28.58.39 1.5-.04.6-.4 1.2.43 2.88" stroke="rgb(209, 219, 221)" stroke-width="0.3" fill="none" style="stroke: rgb(0, 0, 0); display: none;"/>
      </g>
      <rect id="selection-rectangle" fill="#ffffccaa" stroke="rgb(209, 219, 221)" stroke-width="0.1"/>
      <ellipse id="selection-ellipse" fill="#ffffccaa" stroke="rgb(209, 219, 221)" stroke-width="0.1"/>
      <polygon id="selection-polygon" fill="#ffffccaa" stroke="rgb(209, 219, 221)" stroke-width="0.1"/>
      <polyline id="selection-polyline" fill="#ffffccaa" stroke="rgb(209, 219, 221)" stroke-width="0.1"/>
    </svg>
  </g>
</svg>
