<?xml version='1.0' encoding='UTF-8'?>
<svg xmlns="http://www.w3.org/2000/svg" xmlns:dc="http://purl.org/dc/elements/1.1/" xmlns:ns2="http://creativecommons.org/ns#" xmlns:rdf="http://www.w3.org/1999/02/22-rdf-syntax-ns#" id="wrapper" viewBox="0 0 1520 840" preserveAspectRatio="xMinYMin" height="840" width="1520" style="background-color: rgb(255, 255, 255);">
  <metadata>
    <rdf:rdf>
      <ns2:work rdf:about="">
        <dc:format>image/svg+xml</dc:format>
        <dc:type rdf:resource="http://purl.org/dc/dcmitype/StillImage"/>
        <dc:title>MapChart Map</dc:title>
        <dc:creator>
          <ns2:agent>
            <dc:title>MapChart.net</dc:title>
          </ns2:agent>
        </dc:creator>
        <ns2:license rdf:resource="http://creativecommons.org/licenses/by-sa/4.0/"/>
        <dc:description>This map was created with MapChart.net, a website for creating custom maps.</dc:description>
      </ns2:work>
      <ns2:license rdf:about="http://creativecommons.org/licenses/by-sa/4.0/">
        <ns2:permits rdf:resource="http://creativecommons.org/ns#Reproduction"/>
        <ns2:permits rdf:resource="http://creativecommons.org/ns#Distribution"/>
        <ns2:requires rdf:resource="http://creativecommons.org/ns#Notice"/>
        <ns2:requires rdf:resource="http://creativecommons.org/ns#Attribution"/>
        <ns2:requires rdf:resource="http://creativecommons.org/ns#ShareAlike"/>
      </ns2:license>
    </rdf:rdf>
  </metadata>
  <g id="map-group" transform="translate(-5961.315403706832,-1572.6590465249278) scale(6.252068366249351)">
    <svg id="map" width="1520" height="840" version="1.1" viewBox="0 0 1520 840" preserveAspectRatio="xMinYMin" data-originalStrokeWidth="0.3">
      <defs>
        <pattern id="circles3" width="10" height="10" patternUnits="userSpaceOnUse">    <rect width="10" height="10" fill="#fff"/>    <circle cx="4" cy="4" r="2" fill="#000"/>    </pattern>
        <pattern id="diagonal1" width="10" height="10" patternUnits="userSpaceOnUse">    <rect width="10" height="10" fill="#fff"/>    </pattern>
        <pattern id="diagonal3" width="10" height="10" patternUnits="userSpaceOnUse">    <rect width="10" height="10" fill="#fff"/>    </pattern>
        <pattern id="vertical1" width="10" height="10" patternUnits="userSpaceOnUse">    <rect width="10" height="10" fill="#fff"/>    <rect x="2" y="0" width="1" height="10" fill="#000"/>    </pattern>
        <pattern id="vertical3" width="10" height="10" patternUnits="userSpaceOnUse">    <rect width="10" height="10" fill="#fff"/>    <rect x="2" y="0" width="3" height="10" fill="#000"/>    </pattern>
        <pattern id="horizontal1" width="10" height="10" patternUnits="userSpaceOnUse">    <rect width="10" height="10" fill="#fff"/>    <rect x="0" y="2" width="10" height="1" fill="#000"/>    </pattern>
        <pattern id="horizontal3" width="10" height="10" patternUnits="userSpaceOnUse">    <rect width="10" height="10" fill="#fff"/>    <rect x="0" y="2" width="10" height="3" fill="#000"/>    </pattern>
        <pattern id="crosshatch" width="8" height="8" patternUnits="userSpaceOnUse">    <rect width="8" height="8" fill="#fff"/>    </pattern>
        <pattern id="subtlepatch" width="5" height="5" patternUnits="userSpaceOnUse">    <rect width="5" height="5" fill="#fff"/>    <rect x="2" y="2" width="1" height="1" fill="#000"/>    </pattern>
        <pattern id="checkers" width="8" height="8" patternUnits="userSpaceOnUse">    <rect width="8" height="8" fill="#fff"/>    </pattern>
        <pattern id="raindrops" width="10" height="10" patternUnits="userSpaceOnUse">    <rect width="10" height="10" fill="#fff"/>    </pattern>
        <pattern id="texture" width="4" height="4" patternUnits="userSpaceOnUse">    <rect width="4" height="4" fill="#fff"/>    </pattern>
        <pattern id="circles3_a03500_000000" width="10" height="10" patternUnits="userSpaceOnUse">    <rect width="10" height="10" fill="#a03500"/>    <circle cx="4" cy="4" r="2" fill="#000000"/>    </pattern>
        <pattern id="diagonal1_d9b400_535353" width="10" height="10" patternUnits="userSpaceOnUse">    <rect width="10" height="10" fill="#d9b400"/>    </pattern>
        <pattern id="diagonal3_3264c8_ffffff" width="10" height="10" patternUnits="userSpaceOnUse">    <rect width="10" height="10" fill="#3264c8"/>    </pattern>
        <pattern id="horizontal1_72b38e_000000" width="10" height="10" patternUnits="userSpaceOnUse">    <rect width="10" height="10" fill="#72b38e"/>    <rect x="0" y="2" width="10" height="1" fill="#000000"/>    </pattern>
        <pattern id="horizontal3_986ba1_ffffff" width="10" height="10" patternUnits="userSpaceOnUse">    <rect width="10" height="10" fill="#986ba1"/>    <rect x="0" y="2" width="10" height="3" fill="#ffffff"/>    </pattern>
        <pattern id="vertical1_b9a087_ffffff" width="10" height="10" patternUnits="userSpaceOnUse">    <rect width="10" height="10" fill="#b9a087"/>    <rect x="2" y="0" width="1" height="10" fill="#ffffff"/>    </pattern>
        <pattern id="vertical3_4c91bf_ffff33" width="10" height="10" patternUnits="userSpaceOnUse">    <rect width="10" height="10" fill="#4c91bf"/>    <rect x="2" y="0" width="3" height="10" fill="#ffff33"/>    </pattern>
        <pattern id="checkers_cc3333_f7f7f7" width="8" height="8" patternUnits="userSpaceOnUse">    <rect width="8" height="8" fill="#cc3333"/>    </pattern>
        <pattern id="texture_d1dbdd_525252" width="4" height="4" patternUnits="userSpaceOnUse">    <rect width="4" height="4" fill="#d1dbdd"/>    </pattern>
        <style id="map-style">svg { background-color: #ffffff; }</style>
      </defs>
      <path id="OH01" d="m1042.48 366.18-.23-.08h-.12l-.27.24-.04.13-.3.35-.55.31-.2.07-.21.03-.3-.05-.23-.12-.32-.25-.44-.14-.34.01-.23-.08-.17-.2-.31-.34-.18-.21-.03-.01.18-.1.26.22.6-.08 1.52-.1v-.27l-.31-.03-.21-.58.34-.08.06-.44.1-.1.36-.03-.04-.37.12-.25-.13.02-.08-.69h.16l.04-.2.62-.09.1-.23.27.05.02.23-.11.15.97-.08-.08-.7.39.04.68-.16v-.4l-.16-.13.03-.43-.13.01-.04-.38.2.01v-.14l.18-.01v-.17l.48-.04.06.29.28-.05.27-.22-.12-.67h.42l-.13-.17.08-.18h.44l-.25-2.42-.25-2.77h-.09l-.29-2.94-.66.34-.08-.04-.28-1.42 1.89-.33 3.66-.3 3.76-.36.66 6.17.36 3.78-2.17.2-3.91.37-.02.2-.73.75v.34l-.2.04-.25.4.32.42.24-.04.27-.2.33.27v.2l-.18.3.01.25-.22.27.12.23-.1.23.07.56.15 2.58.09 1.25-.03-.05-.16-.1-.39-.18-.17-.06-.48-.08-.63.04-.2-.01-.45-.03-.2-.07-.05-.06.11.05-.14-.11-.18-.38-.08-.34v-.1l-.07-.26-.05-.24-.08-.12-.19-.23-.12-.1-.29-.12h-.16l-.1.05-.27.2-.25.53-.12.17-.18.13-.2.07-.07.02-.27-.06" fill="#d1dbdd" stroke="rgb(209, 219, 221)" stroke-width="0.1" data-originalStrokeWidth="0.1" style="stroke: rgb(0, 0, 0); fill: rgb(209, 219, 221); pointer-events: auto; stroke-width: 0.1;" pointer-events="auto"/>
      <path id="OH02" d="m1079.04 336.98.55 4.6.07-.02.32 2.8 2.69-.3-.06-.45.87-.1 1.76-.25-.21-1.4 2.91-.38-.22-1.85 2.76-.33.24 1.83 1.91-.23.9-.13.13.9 2.5-.3.36 2.84-2.7.33.32 2.8.33 2.83.92-.12.35 2.81 5.34-.67 6.95-1.03.01.12.07.1.02.07.06.07.05.11.1.19.12.25.05.04.02.03.05.13v.05l-.02-.07h-.02l.04.14-.02.04.03.04.01.12.08.28.06.14.02.06v.09l.04.1-.01.08.02.06v.28l-.04.08-.1.25-.13.18-.47.28-.65-.06-.12.17.07.35.07.22.3.38.24.16.2.09.26.16.08.07.23.17.15.26.03.22-.14.37.04.44-.07.54.07.18.07.07.28.19.26.28.15.13-.02.19-.17.18h-.47l-.3-.15-.3-.27-.35-.08-.12.05-.13.12-.14.34-.09.19.06.48.04.1-.02.28-.17.41-.2.22-.38.38-.08.05-.1.03-.1-.02-.2-.05-.1-.03-.15-.12-.1-.07-.17-.08-.1-.08v-.25l.18-.3-.05.03.02-.06.13-.23.2-.32v-.15l-.08-.22-.28-.32-.1-.13-.05-.08-.14-.24-.53-.65-.23-.12-.15-.04-.1-.01-.2.1-.17.08-.23.05-.13-.06-.07-.23-.3-.45-.35-.27h-.17l-.26.08-.15.07-.08.05-.12.12-.01.04-.04.2v.35l-.02.19-.04.1-.08.15-.1.13-.1.08-.23.23-.18.15-.15.15-.03.34-.1.34-.09.24-.04.1-.01.49-.16.44-.11.36-.13.15-.1.2.02.43.16.28.05.14.07.19.02.4-.01.16-.01.2-.08.17-.11.24-.14.2-.4.3-.21.1-.46.61-.08.24-.02.16v.05l.08.33.15.18.19.09.26.13.07.07.2.44.18.24.29.83-.03.35v.48l.25.6.23.3.32.72.05.42-.04.11-.1.3-.13.2-.29.14-.3.08h-.05l-.2.02-.6-.08-.35.11-.2.1-.06.07-.35.66.14.86.03.3-.07.52.1.54.01.02.02.27-.08.45.03.57-.04.24-.04.12-.19.35-.14.13-1.12.44-.1.03-.38-.08-.46.3-.33.2-.43.21-.62.36-.33.2-.35.22-.46.22-.3.08-.1.03-.14-.01-.29.04-.29-.1-.31-.21v-.09l-.1-.11-.16-.3-.22-.64-.16-.33-.1-.13-.2-.12-.46-.12-.61-.34-.32-.29-.01-.02-.21-.18-.37-.46-.14-.17-.12-.08-.48-.2-.18-.08-.38-.1-.9.14-.39.09-.33-.06-.13-.04-.1-.03-.26-.1-.05-.03-.09-.05-.05-.03-.06-.05-.02-.03-.36-.21-.08-.09-.14-.2-.15-.26-.07-.16-.08-.18v-.1l-.04-.07-.02-.14-.05-.09v-.05l-.01-.11-.05-.19-.03-.07-.18-.56-.39-.48-.17-.31-.02-.93-.1-.5-.06-.19-.1-.13-.2-.09-.12-.12-.24.01-.24.15-.25.1-.36.25-.12.08-.04.04-.4.4-.03.05-.09.1-.09.09v-.04l-.15.1-.74.01-.23.1-.2.08-.14.15-.14.54-.17.42-.42.4-.24.2-.52.28-.21.36-.07.61-.13.5-.32.45-.26.07-.39.08-.37.13-.23.06-.25-.04-.27-.12-.54-.04-.4.32-.07.22-.3.5-.1.1-.32.06-.34-.2-.15-.18-.17-.52-.18-.21-.35-.2-.83-.32-.32-.02-1.14.03-.19.03-.41-.05-.3-.02-.55-.39-.52-.2-.39-.05-.3.08-.77.43-.29.13-.08.06-.33.18-.36.13-.36.38-.07.3-.01.75-.06.35-.06.05-.22.14-.19.06-.72-.18-.3-.07-.08-.04-.14-.02-.13-.1-.57.05-.25-.01-.4-.11-.14-.2-.4-.93-.13-.18-.3-.1-.32-.01h-.08l-.24-.05-.11-.06-.2-.08-.04-.04-.1-.11-.25-.6-.09-.16-.12-.13-.54-.24-.72-.04h-.24l-.16.02-.27-.03-.36-.27-.4-.07h-.14l-.32.04-.06.03-.05.03-.07.04-.13.1-.09.05-.14.07-.14.05-.28.18-.16.1-.17.07-.14.07-.11.05h-.17l-.07.02-.4.1-.51-.05-.48-.12-.14-.03h-.04l-.5-.14-.1-.01-.4-.07h-.87l-.39-.03-.18-.07-.05-.04-.23-.18-.07-.07-.17-.28-.08-.19-.12-.46-.07-.46-.06-.54-.2-.5-.2-.18-.44-.55-.63-.57-.24-.26-.31-.48-.06-.19-.1-.35.01-.06-.1-.26-.21-.3-.3-.3-.1-.08-.1-1.25-.15-2.58-.07-.57.1-.22-.12-.23.21-.27v-.25l.17-.3.01-.2-.33-.27-.27.2-.24.04-.32-.41.26-.4.18-.05.01-.34.73-.74.02-.21 3.91-.37 2.17-.2-.37-3.78-.65-6.17 1.32-.14 1.51-.12 4.55-.45 2.24-.23.15 1.44.32 2.68 1.33-.94.35-.21.4-.7.7-.13v-.33l.22-.13.12.14.15-.12.17.22.2-.1.15.12-.11.19.26.33.2.01.3.24.23.35.23.03.03.54.22.15-.05.36.2.2 1.73-4.8-.41-3.28-.76-6.07 1.8-.21 1.13-.2 1.81-.24.15-.05 2.39-.3 2.7-.32" fill="#d1dbdd" stroke="rgb(209, 219, 221)" stroke-width="0.1" data-originalStrokeWidth="0.1" style="stroke: rgb(0, 0, 0); fill: rgb(209, 219, 221); pointer-events: auto; stroke-width: 0.1;" pointer-events="auto"/>
      <path id="OH03" d="m1071.4 327.33 1.36-.2 5.79-.74.37 2.8.24 1.92-.13.03.14 1.13-.67.1.02.28-1.15.13-.04.45-.1.22-1.3.13.16.35-.4.1.01.08-.65.09-.12-.67-.38.02-.12-.5-.22-.13-.29.06-.14-.15.38-.25-.1-.63-.24.36-.22-.08.08.29-.16.04-.12-.23-.98-.03-.31-.41-.49-.39-.2-.34-.02-.23-.29-.82-.2-.19.24-.08-.2-1.24.25.05.14-.2.46-.08-.4-1.03" fill="#d1dbdd" stroke="rgb(209, 219, 221)" stroke-width="0.1" data-originalStrokeWidth="0.1" style="stroke: rgb(0, 0, 0); fill: rgb(209, 219, 221); pointer-events: auto; stroke-width: 0.1;" pointer-events="auto"/>
      <path id="OH04" d="m1086.64 294.49.4 2.23 1-.2.38 1.7.22 1.13.16.44.21 1.13.24 1.44.35 1.72.51 2.51-2.21.45.47 2.27.16.82-3.5 1.25-2.75.55-1.56.32-1.9.38.15.86.22-.07.24 1.88.18 1.27.34 2.46-3.84.5-2.85.35.35 2.89.48 3.8.35-.1.72-.1.29.04-.02.19.18-.04.04.2-2.9.37-1.35.2-1.33.2-1.2.13.22 1.13-2.6.4-5.26.9.08.78.2 2.43-2.77.33-3.82.35-2.8.3-.26.02-1.58.14-1.17.14-.24-2.25-.19-1.79-.4-3.74-.1-.99-.7-.33-.15-.17-.29.01-.32.12-.14-.05-.21.3-.62.6-.12.3-.25.04-.09-.52-.23-.04.1.16-.52.23-.06-.14-.16.17-.87.18-.2-.98-.2-.18-.71.14.26 1.36-.2.04.08-.22-.35.09.09.45-.45.1-.18-.93-2.2.4.02.13-1.32.23-.16-.9-.5-.06-.57-3.34-.66-3.64-.55-3.21 1.38-.25-.72-4.09 1.34-.23-.26-1.34 1.18-.22 1.52-.27 2.19-.41.49-.11-.24-1.37 2.64-.49-.07-.45 2.66-.5.57 3.14 2.66-.46 2.75-.5 4.2-.72 1.58-.27.08.45-.46.08.4 2.27 2.7-.5.16.88 2.6-.49 1.88-.38 3.14-.6.87-.2 1.89-.38-.05-.22.86-.18 2.19-.37-.55-3.02-.14-.88-.55-2.93-.4-2.05 5.7-1 1.07-.21-.52-2.25 2.54-.5 3.6-.64" fill="#d1dbdd" stroke="rgb(209, 219, 221)" stroke-width="0.1" data-originalStrokeWidth="0.1" style="stroke: rgb(0, 0, 0); fill: rgb(209, 219, 221); pointer-events: auto; stroke-width: 0.1;" pointer-events="auto"/>
      <path id="OH05" d="m1080.34 283.94.56-.18.73-.08.52-.17.3-.19 1.23-1.2.07-.34.24.05.54-.32.72-.51 1.21-.68 1.06-.63.38-.04.7.17.14.85.36 1.91.38 2.04 2.16-.42.45 2.36-.98.18-1.18.26.36 2.06.06.28-2.27.46.35 1.98-2.22.42.43 2.29-3.6.64-2.55.5.52 2.25-1.08.2-5.69 1.01.39 2.05.56 2.93.14.88.55 3.02-2.2.37-.85.18.04.22-1.88.38-.87.2-3.13.61-1.88.38-2.6.48-.17-.87-2.7.5-.39-2.28.45-.08-.08-.45-1.57.27-4.2.72-2.76.5-2.66.46-.57-3.14-2.66.5.07.45-2.64.49.24 1.37-.5.1-2.18.42-1.51.27-1.18.22.25 1.34-1.34.23.72 4.09-1.38.26.55 3.2.66 3.64.56 3.34.51.06-1.15.2-2.71.5v.06l-1.74.27-3.05.5-.26-1.55-.04-.13-.04-.31-.3-1.95-.04-.19-.22-1.36-.18-1.12-.05-.26-.56-3.4-.05-.34-.3-1.75-.12-.54-.05-.42-.33-2.03-.37-2.08-.1-.59-.13-.72-.24-1.45-.01-.02-.2-1.16-.21-1.31h-.02l-.37-2.23-.02-.16-.05-.24-.02-.2-.03-.13-.14-.82-.05-.31-.23-1.4 2.2-.35 4.24-.75 1.58-.3.23 1.4 2.68-.47.23 1.37 2.62-.47-.45-2.74-.47-2.72-.5-2.73-2.6.47-.33-1.82.17-.03 6.39-1.13.44-.1 3.58-.66.38 2.28.28-.1.44-.07.1-.32.6-.35.23-.17.52-.54-.04-.29.15-.16.42-.04.18-.16.13-.51.42-.2.1-.24-.04-.71.27-.15-.03-.12.36-.08.21.44.64-.12.17.92 2.71-.5-.2-1.13 2.62-.5.48 2.71.5 2.95.4 2.5 1.91-.38 1.23-.18 1.55-.3.66-.16 1.3-.3 1.35-.25 1.39-.24 1.3-.25 2.68-.5-.25-1.07 2.04-.32 2.16-.37 1.74-.31 3.3-.59 2.33-.46-1.01-4.45" fill="#d1dbdd" stroke="rgb(209, 219, 221)" stroke-width="0.1" data-originalStrokeWidth="0.1" style="stroke: rgb(0, 0, 0); fill: rgb(209, 219, 221); pointer-events: auto; stroke-width: 0.1;" pointer-events="auto"/>
      <path id="OH06" d="m1101.17 304.37-.4-2.15.32-.07 2.24-.33.13.24.13-.29.13-.03v-.33l-.16.03-.31-.6.3-.43-.02-.2-.33-.38.13-.07-.1-.25.24.15.01.2.3.06-.16-.15.19-.3.3-.06.13-.22-.35-.01-.05-.3 1.6-.25.36 2.33.2-.04v-.23l.45.02-.04-.57.49-.21.21.54.24-.07v-.18l-.28.05-.16-.33-.12-.04.16-.21.28.08v-.4l.18.05.1-.21.58.06.17-.1.35.25.09.36.22-.16-.08-.2.07-.3-.17-.06-.88.16-.34-.04.06-.17.38-.07-.11-.39.13.05-.05-.22.23-.04-.91-5.6 2.26-.46 4.62-.96-.37-1.68-.6-2.85 2.67-.58 6.66-1.38 1.8-.4.19.87.05.25.05.2.13.59.05.27.01.04.32 1.48.26 1.25.04.16.09.47.22.99.04.21.02.12.07.28.03.1.12.54.04.2.16.77.09.42.07.28.23 1.09.02.08.09.46.06.26.12.59.2.93.2.9.2 1 .06.19v.02l.05.2.03.12-.58.43-.17.14-.17.2-.06.13-.25.17-.14-.01-.27-.2-.36.07-.1.05-.35.21-.08.1-.06.15-.04.08-.12.3-.12.2-.17.2-.03.12.02.31.12.22.33.18.34.36.16.17.26.18.14.28.09.15.02.12.05.09.14.35.3.34.23.14.03.03.15.2.04.12.02.26-.07.4-.1.36-.02.2.02.18.04.11.06.25.02.28.05.1.02.09-.31.3-.08.08v.1l.07.15.02-.02.1.02.19.05.13.07.21.25.03.25-.01.1.01.36.1.2.2.28.2.4-.01.22-.06.21-.05.24-.06.19v.21l.1.4-.02.23-.06.13-.28.3-.16.13-.14.24-.12.52.01.34.05.2-.06.68-.18.25-.07.14-.11.4-.04.2-.1.29-.02.07v.1l.03-.01-.02.05v.15l-.01.2.07.43.07.14.09.21.04.38-.2.3-.12.13-.1.15-.1.22v.26l.05.02.01.15.1.17.07.03.1.3.05.16.03.26-.03.13-.01.25-.02.4v.12l.03.09.08.28.08.23.07.22.05.34-.17.23-.27.43.08.37.2.47.1.12.05.13.01.1-.15.2-.51-.16-.3-.02-.24.14-.03.2.19.42.28.28.1.14.13.26-.02.3-.47.43-.16.41.21.49.1.42v.33l-.17.39-.19.2-.13.13-.2.22-.12.37.07.23.1.16.42.3h.07l.38.46.2.2.03.07.01.2-.05.15-.44.29-.14.16-.05.06v.19l.04.24.04.18.07.21.02.21.02.15v.18l-.03.07.03.16-.02.1-.01.13-.07.47-.26.2-.34.01-.27.05-.18.07-.52.62-.36.45-.15.25-.21.35-.1.18-.14.14-.1.1-.3.43-.04.15-.04.07-.08.1-.27.33-.07.19-.12.16-.17.25-.12.2-.48.95-.27.92-.07.25-.18.3-.19.1-.23.06-.24.1-.16.1-.04.05-.1.1-.05.02-.05.07-.06.1v.04l-.02.07-.02.08-.2.38-.1.14-.05.14-.01.23.01.06.02.09v.08l-.05.13-.13.12h-.36l-.15-.02h-.06l-.1.05h-.03l-.24.15-.18.05-.03.01-.06.06-.06.05-.06.08-.03.07-.06.06-.05.03-.1.05-.1.06-.33.37-.4.4-.27.37-.26.16-.32.11-.33.02-.35-.3-.13-.29-.16-.35-.17-.34-.19-.17-.21-.13-.24-.13-.15-.04-.02-.01h-.32l-.26.16-.26.27-.08.2-.2.39-.17.29-.36.42-.3.24-.23.28-.27.5.02.25.06.42.02.76.09.33.03.24-.01.14-.05.13-.09.04h-.31l-.2-.08-.24-.05-.44.16-.81.06-.49.18-.27.42v.06l-.04.02-.02.1-.02.06.03.1.02.05v.07l.04.14.07.13.07.1.08.19-.04.2-.1.1-.05.04-.1.05-.1.03-.23.12-.11.08-.25-1.69-2.3.36-.15-.92-.46.05-.07-.45-.45.07-.06-.45-.57-3.7.47-.06-.23-1.41.95-.13.02.09.54-.08.05.18 1.24-.18-.22-1.6-.41.07-.15-.48.07-.5-.1-.52.03-.17.45-.18.1-.14 2.4-.37-.44-2.4-1.36.21-.46-2.75-1.37.24-.25-1.38-.21-1.37 2.69-.44-.34-1.82 2.71-.45-.16-.92 1.8-.3-.16-.92.9-.16-.03-.11 2.68-.49-.5-2.84-.72-3.99-2.66.5-.46-2.56-.27-1.59 1.37-.26-.15-.91-1.4.25v-.16l-.25.05-.02-.23-.22.03-.1-.46-1.22.2-.33.02.05-.2-.59-.02-.62.16-.12-.88-1.36.2-.11-.7-1.11.2-.26-1.59.99-.16-.04-.2.59-.03.03-.11.4-.05.03-.2-.35-.05-.02-.17.16-.04-.14-.23-.17.06-.02-.47-.24-.2h.17l-.3-.4-.32-.64.1-.25-.3-.18-.4-2.3-3.16 1.15-.24-1.03" fill="#d1dbdd" stroke="rgb(209, 219, 221)" stroke-width="0.1" data-originalStrokeWidth="0.1" style="stroke: rgb(0, 0, 0); fill: rgb(209, 219, 221); pointer-events: auto; stroke-width: 0.1;" pointer-events="auto"/>
      <path id="OH07" d="m1088.6 279.82.62.28.64-.03h.95l.4-.09.49-.3.14.1.03.29.26-.05v.2l-.23.04-.01.2.3-.03.12.19-.13.26-.13-.04.1.27-.06.12-.25-.04.04.38-.18.04.03.33-.21.6-.19.15.12.25.15-.15.37.06.18-.27.3-.78.56-.1.42-.16.26.06-.16-.82.13-.04.47-.65.09.33-.18.02.05.16.22-.07.05.24.17.1.08.37-.1.18 1.13-.24.15-.1-.07-.37.26-.04-.03.17.37.2h.72l.2.23.92.52.42-.19-.07.28.4-.08.09-.3.26.07.07.36.96-.2-.17-.92.13-.01-.13-.7 2.21-.45.5 2.35-.19.02-4.58.86.13.22h.15l.03.47.24.35.01.22.32.13.13.35.27.3-.07.1-2.75.58.42 2.12.42 2.27.68 3.44.22 1.15.94-.19.84 4.19.66 3.28.47 2.51-3.1.63.07.47-.66.13.24.17-.78.19.07.34.13-.03.16.41-.44.19.13.7-.89.17-1.83.3-.67.26-1.28.22-2.2.43-1.06.18-.69.18-.47-2.27 2.21-.45-.51-2.51-.35-1.72-.24-1.44-.21-1.14-.16-.43-.22-1.13-.39-1.7-1 .2-.4-2.23-.42-2.29 2.22-.42-.35-2 2.27-.45-.07-.28-.35-2.05 1.18-.25.98-.2-.44-2.35-2.17.42-.4-2.04-.34-1.91-.14-.85" fill="#d1dbdd" stroke="rgb(209, 219, 221)" stroke-width="0.1" data-originalStrokeWidth="0.1" style="stroke: rgb(0, 0, 0); fill: rgb(209, 219, 221); pointer-events: auto; stroke-width: 0.1;" pointer-events="auto"/>
      <path id="OH08" d="m1038 365.84-.01-.04-.14-.13-.4-.2-.26-.06-.32.11-.13.16-.2.4-.07.19-.12.24-.42.31-.17.07-.07.11-.13.05v-.07l-.03-.16-.04-.24-.03-.14-.02-.15-.1-.5-.04-.35v-.06l-.13-.75-.14-.86-.21-1.2v-.03l-.03-.05-.05-.32v-.03l-.07-.44-.1-.73-.04-.18-.1-.68-.22-1.4-.02-.1-.05-.39-.1-.6-.34-2.28-.07-.47-.07-.46-.03-.15-.04-.3-.14-.81-.06-.38-.04-.2v-.05l-.02-.1v-.02l-.03-.12v-.01l-.4-2.46-.14-.79-.1-.63-.1-.7-.13-.65-.28-1.75-.03-.16-.1-.7-.03-.12v-.08l-.05-.3-.05-.22-.05-.48-.05-.25-.17-1.13-.03-.13-.1-.57-.16-1.01-.1-.71-.01-.05-.07-.54-.2-1.37-.23-1.38-.05-.46-.1-.64-.12-.74-.07-.55-.03-.15-.08-.6-.02-.09v-.06l-.01-.05-.03-.16v-.14l-.15-.93-.14-.92-.13-.76-.18-1.17-.13-.73 3.05-.5 1.74-.28v-.06l2.7-.5 1.16-.2.16.9.78 4.27.57 2.94 3.1-.59.43 2.26 1.28-.25-.42.21.11.33.22-.05.07-.3.32-.02.06.23.24-.04.08-.22-.3.01.06-.16.33.05-.04-.2.23-.04.1.52.14.02-.1-.27.1-.35.15.07.11.41-.13.22.19.26-.9.14-1.2.25.2 1.42.16.86-2.64.51-2.31.44 1.24 6.57.67 3.65.12.02 2.59-.45v.02l.28 1.42.08.04.65-.34.3 2.94h.09l.25 2.77.25 2.41h-.43l-.08.2.12.17-.42-.01.12.66-.28.23-.27.04-.06-.29-.48.05.01.17h-.19v.15h-.2l.04.38h.13l-.03.41.15.13.01.4-.68.16-.39-.04.08.7-.97.08.11-.15-.02-.23-.27-.05-.1.23-.62.08-.04.2h-.16l.08.7.13-.02-.12.25.04.37-.35.02-.11.1-.06.45-.34.08.21.58.31.03v.27l-1.51.1-.61.08-.25-.22-.2.1" fill="#d1dbdd" stroke="rgb(209, 219, 221)" stroke-width="0.1" data-originalStrokeWidth="0.1" style="stroke: rgb(0, 0, 0); fill: rgb(209, 219, 221); pointer-events: auto; stroke-width: 0.1;" pointer-events="auto"/>
      <path id="OH09" d="m1080.34 283.94 1 4.45-2.31.46-3.3.59-1.75.31-2.16.37-2.03.32.24 1.07-2.68.5-1.3.25-1.4.23-1.34.26-1.31.3-.65.16-1.55.3-1.23.18-1.92.38-.4-2.5-.49-2.94-.48-2.72-2.63.49.2 1.15-2.7.5-.17-.93-.65.12-.2-.44-.36.08.03.12-.28.15.05.71-.1.25-.42.19-.13.51-.19.16-.41.04-.15.15.04.3-.52.54-.22.17-.61.35-.1.32-.44.07-.28.1-.4-2.28-3.56.66-.44.1-6.4 1.13-.16.03.32 1.82 2.6-.47.5 2.73.48 2.72.45 2.75-2.62.46-.23-1.37-2.68.47-.23-1.4-1.57.3-4.26.75-2.19.36-.04-.29-.07-.28-.14-.9-.14-.79-.23-1.34-.1-.51-.1-.63-.08-.57-.1-.5-.2-1.24-.13-.68-.13-.76-.13-.76-.13-.7-.15-.86-.08-.44-.08-.5-.26-1.44-.1-.67.22-.05.22-.04.44-.1 1.33-.28.9-.18 1.78-.35.44-.1.45-.1 2.2-.43.42-.1.67-.12.23-.06.15-.03.75-.15.4-.08 1.65-.37.47-.08.42-.1.47-.1.42-.09.78-.17.32-.06 1.67-.37 2.15-.46 2.68-.6.44-.1.44-.09.33-.06.56-.13.44-.1.41-.1.8-.18.22-.04.24-.06.08-.05.44-.08.24-.04.36-.09.27-.06.09-.02.42-.1.46-.1.28-.06.14-.03.31-.06.54-.12.19-.05.4-.1.27-.05.21-.06h.07l.24-.06.31-.06-.24.5-.04.67.26.16.77-.82.24.26-.32.36.33.08.68-.2.3.11.66-.15.2-.23.07-.41.82.44-.06.16.1.19.51-.08 1.2.58.06.18.35.15.19-.03.51.14 1.2.2.98-.04.45.13.51.26.18.26.4.38.54.45.74.36.04.06.74.3.8.09.08.06.48-.14.53-.31.36-.45.2-.5.05-.43-.28-.36.11-.3.42-.23.42.46.4.28.34.36.24.15.3-.06.47-.27h.78l.19.13.02.27-.16.4.27.43-.16.03-.01-.2-.17-.09-.64.16-.21.3-.67-.01-.32.08-.21.28-.06.29-.39-.24-.16-.02-.5.42-.31.14-.87.16-.28.15-.47.02-.21.18-.15.55-.25.08-.14.25-.35-.08-.3.13-.3-.03-.1.19.2.1h.58l-.02.18-.17-.1-.18.07.33.2.11.38.23-.14-.13-.17.3-.5.2-.13.17.12.41.54.22.21.22.05.44-.07.51-.57.19-.06.13-.3.52-.03.27-.3.27-.24.03-.13-.1-.44.42.01-.01-.18.3.3.91.43h.3l.17-.25.24-.1.7-.53.1.17.62.06.16-.1.08.19-.15.13.28.15.53.2h.27l.07.14.63.04.44.18.25.02.39.2.23.01.88.3h.36l.4-.07.46-.25.6-.46.66-.67.54-.38.17-.22.36-.08m-11.56-6.45.03.04-.43.22-.06.1.05.55-.19.05-.15-.3-.22-.07.27-.28.7-.32m-.94-.13-.38.02.15-.47.28-.08.19.45-.24.08m3.12 6.44-.06-.3.28-.17-.05.28-.17.2m.4-4.03.32-.48-.1.44.2.4-.17.37-.3.13-.16-.21-.5.01-.28-.22.24-.25.05-.32.28-.05.2.2.21-.02m-2.73-1.24.07.03-.16.37-.16.03v.26l-.41.62-.17.06.01-.47-.16-.07.16-.4.18-.1.26.09.17-.33.2-.1" fill="#d1dbdd" stroke="rgb(209, 219, 221)" stroke-width="0.1" data-originalStrokeWidth="0.1" style="stroke: rgb(0, 0, 0); fill: rgb(209, 219, 221); pointer-events: auto; stroke-width: 0.1;" pointer-events="auto"/>
      <path id="OH10" d="m1060.48 348.34-4.54.45-1.51.12-1.32.14-3.76.36-3.66.3-1.9.33v-.02l-2.58.45-.12-.02-.67-3.65-1.24-6.57 2.31-.44 5.4-1.04-.17.37.18.52.2.28 2.54-.26.09.93 2.74-.27.18-.15-.01-.14-.37-.05.13-.18-.46-.14.13-.14.32.08-.1-.8.55-.54.3-.11-.13-1.17 1.04-.12.15-.46.23-.03.2-.43-.24.2-.16-.08.14-.14-.08-.27.19-.2.3-.03.15.26-.03.3.2.06-.09-.18.41-.08-.04-.43.2.09.38-.05.07.6-.35.04v.22l1.15-.1.7-.1.43 4.9.05.43 1.76-.2.02.47.3 2.88.1 1.02.3 2.79" fill="#d1dbdd" stroke="rgb(209, 219, 221)" stroke-width="0.1" data-originalStrokeWidth="0.1" style="stroke: rgb(0, 0, 0); fill: rgb(209, 219, 221); pointer-events: auto; stroke-width: 0.1;" pointer-events="auto"/>
      <path id="OH11" d="m1098.8 273.67.4 1.89 2.22-.43.34 1.66.45 2.2.37-.08.15.66-.4.08-2.21.46.13.69-.13.01.17.92-.96.2-.07-.36-.25-.05-.08.29-.42.07.07-.29-.42.2-.92-.52-.2-.24h-.72l-.37-.2.03-.16-.26.04.07.36-.14.1-1.14.25.1-.2-.08-.34-.17-.1-.05-.25-.22.07-.05-.16.19-.02-.11-.33-.46.65-.13.04.16.82-.26-.06-.42.16-.57.1-.3.78-.17.27-.37-.06-.15.15-.1-.25.17-.14.21-.6-.03-.34.18-.04-.04-.38.25.04.08-.12-.11-.28.12.05.13-.25-.13-.2-.3.04.02-.2.22-.05.01-.2-.26.05-.03-.29-.14-.1.35-.2.59-.23 1.2.1.28-.22.67-.77.13-.24.47-.52.07.13.49-.56.03-.21.2.08.5-.66.25-.54.11.03.92-1.48.32-.2.52-.52" fill="#d1dbdd" stroke="rgb(209, 219, 221)" stroke-width="0.1" data-originalStrokeWidth="0.1" style="stroke: rgb(0, 0, 0); fill: rgb(209, 219, 221); pointer-events: auto; stroke-width: 0.1;" pointer-events="auto"/>
      <path id="OH12" d="m1079.04 336.98-.1-.92.45-.05-.32-2.77-.46.05-.09-.65-.02-.29.66-.07-.13-1.14.13-.03-.24-1.92-.37-2.8-2.9.37-.03-.19-.2.02.02-.18-.3-.04-.7.09-.35.11-.47-3.8-.36-2.89 2.84-.35 3.85-.5-.34-2.47-.18-1.26-.24-1.88-.22.07-.16-.86 1.9-.38 1.57-.32 2.76-.55 3.49-1.25-.16-.82.69-.18 1.05-.18 2.21-.43 1.28-.22.67-.25 1.83-.3.9-.18-.13-.7.43-.19-.16-.4-.13.02-.07-.34.78-.18-.25-.17.67-.14-.09-.47 3.11-.63.25 1.04 3.15-1.17.4 2.3.3.19-.1.25.33.65.3.4-.18-.01.24.2.02.47.17-.06.14.23-.16.04.02.17.35.05-.02.19-.4.06-.04.11-.59.02.04.2-1 .17.27 1.6 1.11-.21.11.7 1.36-.2.12.88.62-.16.6.01-.06.21.33-.01 1.23-.2.09.45.22-.03.02.23.24-.05.02.16 1.38-.26.16.92-1.38.26.28 1.6.46 2.55 2.66-.5.72 4 .5 2.83-2.68.49.02.11-.9.16.17.92-1.8.3.16.92-2.71.45.34 1.82-2.7.44.22 1.37.25 1.37 1.37-.23.46 2.75 1.36-.21.45 2.4-2.4.37-.11.14-.45.18-.03.17.1.52-.07.5.15.48.4-.06.23 1.59-1.24.18-.05-.2-.54.11-.01-.1-.95.13.22 1.41-.46.07.56 3.68.06.46.45-.07.07.45.46-.05.14.92 2.31-.36.25 1.69-.07.21-.03.13.01.32-.04.12-.06.1-.03.01-.09.06-.1.07-.04.06-.06.16-6.95 1.02-5.34.68-.35-2.8-.92.1-.33-2.81-.33-2.81 2.71-.33-.36-2.84-2.5.31-.14-.9-.89.12-1.9.23-.25-1.84-2.77.33.23 1.86-2.91.38.2 1.4-1.75.24-.87.11.06.46-2.7.29-.31-2.8-.07.02-.55-4.6" fill="#d1dbdd" stroke="rgb(209, 219, 221)" stroke-width="0.1" data-originalStrokeWidth="0.1" style="stroke: rgb(0, 0, 0); fill: rgb(209, 219, 221); pointer-events: auto; stroke-width: 0.1;" pointer-events="auto"/>
      <path id="OH13" d="m1100.76 302.22-.06-.36-.66-3.28-.83-4.19-.94.19-.23-1.15-.68-3.43-.42-2.27-.42-2.13 2.75-.59.07-.1-.27-.29-.13-.35-.32-.13v-.22l-.25-.35-.03-.48-.15.01-.13-.22 4.57-.86.2-.02 1.44 7.16.35 1.8.27.07.11.58.26.18.21 1.09.4-.12.33.2 1.05-.22.9 5.59-.22.05.05.22-.13-.05.11.39-.38.07-.06.17.34.04.88-.16.17.05-.07.3.08.2-.22.17-.09-.36-.35-.25-.17.1-.57-.06-.1.21-.2-.04.01.39-.29-.08-.15.21.12.04.16.33.29-.05-.01.2-.24.05-.21-.53-.49.2.04.57-.46-.02.01.23-.19.04-.38-2.33-1.59.25.05.3.35.01-.12.22-.31.07-.18.28.13.16-.29-.05v-.21l-.23-.15.09.25-.13.07.33.39.03.19-.31.43.31.6.16-.03v.33l-.13.04-.13.3-.13-.26-2.24.33-.33.07" fill="#d1dbdd" stroke="rgb(209, 219, 221)" stroke-width="0.1" data-originalStrokeWidth="0.1" style="stroke: rgb(0, 0, 0); fill: rgb(209, 219, 221); pointer-events: auto; stroke-width: 0.1;" pointer-events="auto"/>
      <path id="OH14" d="m1118.66 258.26.1.5.08.35.09.4.08.4.13.54.1.56.02.1.15.72.13.56.61 2.84.08.36.17.82.17.8.25 1.11v.05l.18.81.12.57.43 1.95.08.38.25 1.15.14.64.47 2.16.1.54.16.7.02.1.09.41.06.24.18.9.05.18.18.88.18.85v.04l.05.16.06.32v.03l.03.05v.03l.01.04v.08l.02.03.03.11.02.07.06.26v.05l.15.7v.05l.09.35.15.71.08.36v.07l.03.1-1.79.38-6.67 1.38-2.67.59.6 2.85.37 1.68-4.62.96-2.26.46-1.04.22-.34-.2-.4.1-.21-1.06-.26-.19-.11-.58-.27-.08-.35-1.8-1.44-7.15-.5-2.36.4-.07-.15-.67-.37.09-.45-2.2-.34-1.66-2.22.43-.4-1.89.4-.67.4-.88.43-.5.57-.78.69-.8.17-.1.33-.4.52-.45.32-.5.15.11.34-.04.77-.46.86-.8.09-.05.6-.6.76-.64.55-.36.33-.28.26-.1.2-.24.7-.41.21-.24 1.03-.43.09-.1.34-.09.8-.37.64-.51.37-.25.1-.14.45-.23.3-.33.1-.27.43-.17.04.13.2-.06.4-.35.71-.27 1.1-.72.45-.34.35-.11.7-.51.3-.17.36-.27.08-.25.15.02.7-.43" fill="#d1dbdd" stroke="rgb(209, 219, 221)" stroke-width="0.1" data-originalStrokeWidth="0.1" style="stroke: rgb(0, 0, 0); fill: rgb(209, 219, 221); pointer-events: auto; stroke-width: 0.1;" pointer-events="auto"/>
      <path id="OH15" d="m1071.4 327.33.4 1.03-.46.1-.14.19-.25-.05.2 1.24-.24.08.2.18.28.84.01.22.22.34.49.39.3.41.99.03.12.23.16-.04-.08-.29.22.09.24-.37.1.63-.38.25.14.15.29-.06.22.12.12.51.38-.02.12.67.66-.1v-.09l.37-.08-.16-.35 1.31-.13.1-.22.04-.45 1.15-.14.1.66.45-.06.32 2.77-.45.05.1.92-2.7.32-2.39.31-.15.04-1.82.25-1.12.19-1.8.2.76 6.08.4 3.27-1.7 4.8-.22-.18.05-.37-.22-.15-.03-.54-.23-.03-.23-.35-.31-.23-.19-.02-.26-.33.11-.2-.15-.12-.19.1-.18-.21-.15.12-.12-.14-.22.13v.32l-.7.13-.4.7-.35.22-1.33.94-.32-2.67-.15-1.45-2.25.23-.3-2.8-.1-1.01-.29-2.88-.02-.47-1.76.2-.04-.43-.44-4.9-.7.1-1.13.1-.02-.22.35-.04-.07-.6-.38.04-.2-.08.04.43-.41.08.1.18-.2-.05.02-.31-.15-.26-.3.03-.19.2.08.27-.14.14.16.09.23-.2-.2.42-.22.03-.16.46-1.03.12.12 1.17-.29.1-.54.55.09.8-.32-.08-.13.14.46.14-.13.18.37.05.02.14-.2.15-2.73.27-.1-.93-2.53.25-.2-.27-.18-.52.18-.37-2.77.53-.15-.86-.2-1.42 1.19-.25.9-.14-.19-.26.13-.22-.11-.41-.15-.07-.1.35.1.28-.15-.03-.1-.52-.22.04.04.19-.33-.04-.05.16.28-.01-.08.22-.23.04-.06-.23-.32.04-.08.29-.2.04-.12-.33.42-.21-1.28.25-.43-2.26-3.1.59-.58-2.93-.77-4.28 1.32-.23-.01-.12 2.2-.4.17.91.45-.09-.1-.45.36-.09-.07.22.19-.04-.26-1.36.7-.15.2.19.2.98.88-.18.16-.17.06.14.51-.23-.09-.16.23.04.1.52.24-.04.12-.3.62-.6.21-.3.14.05.31-.12.3-.01.16.18.68.32.1.99.4 3.74.19 1.8.25 2.24 1.17-.14 1.58-.14.26-.02 2.8-.3 3.82-.36 2.76-.32-.2-2.43-.07-.76 5.26-.91 2.6-.42-.21-1.12 1.2-.13 1.32-.2" fill="#d1dbdd" stroke="rgb(209, 219, 221)" stroke-width="0.1" data-originalStrokeWidth="0.1" style="stroke: rgb(0, 0, 0); fill: rgb(209, 219, 221); pointer-events: auto; stroke-width: 0.1;" pointer-events="auto"/>
      <g id="state_lines" stroke="rgb(209, 219, 221)" style="display: none; stroke: rgb(0, 0, 0);" stroke-width="0.1"/>
      <g id="state_abbr" fill="#000000" style="display: none; fill: rgb(0, 0, 0);">
        <text id="HI_label" x="491.79" y="769.82" style="font-size: 19.2455px; stroke-width: 1.60379; display: none;">
          <tspan id="HI_tspan" x="491.79" y="769.82" fill="#000000" dy="0" font-family="Arial" font-size="24.06" font-style="normal" font-weight="400" style="text-align: center; stroke-width: 2.57215; fill: rgb(0, 0, 0);" text-anchor="middle">HI</tspan>
        </text>
        <text id="AK_label" x="205.24" y="672.25" style="font-size: 19.2455px; stroke-width: 1.60379; display: none;">
          <tspan id="AK_tspan" x="205.24" y="672.25" fill="#000000" dy="0" font-family="Arial" font-size="24.06" font-style="normal" font-weight="400" style="text-align: center; stroke-width: 2.57215; fill: rgb(0, 0, 0);" text-anchor="middle">AK</tspan>
        </text>
        <text id="FL_label" x="1188.11" y="708.7" style="font-size: 19.2455px; stroke-width: 1.60379; display: none;">
          <tspan id="FL_tspan" x="1188.11" y="708.7" fill="#000000" dy="0" font-family="Arial" font-size="24.06" font-style="normal" font-weight="400" style="text-align: center; stroke-width: 2.57215; fill: rgb(0, 0, 0);" text-anchor="middle">FL</tspan>
        </text>
        <text id="NH_label" x="1306.05" y="167.79" stroke-width="1.1" font-size="13.25" style="display: none;">
          <tspan id="NH_tspan" x="1306.05" y="167.79" fill="#000000" stroke-width="1.1" dy="0" font-family="Arial" font-size="16.56" font-style="normal" font-weight="400" style="text-align: center; fill: rgb(0, 0, 0);" text-anchor="middle">NH</tspan>
        </text>
        <text id="MI_label" x="1019.65" y="246.58" style="font-size: 19.2455px; stroke-width: 1.60379; display: none;">
          <tspan id="MI_tspan" x="1019.65" y="246.58" fill="#000000" dy="0" font-family="Arial" font-size="24.06" font-style="normal" font-weight="400" style="text-align: center; stroke-width: 2.57215; fill: rgb(0, 0, 0);" text-anchor="middle">MI</tspan>
        </text>
        <text id="VT_label" x="1274.28" y="145.01" stroke-width="1.05" font-size="12.65" style="display: none;">
          <tspan id="VT_tspan" x="1274.28" y="145.01" fill="#000000" stroke-width="1.05" dy="0" font-family="Arial" font-size="15.81" font-style="normal" font-weight="400" style="text-align: center; fill: rgb(0, 0, 0);" text-anchor="middle">VT</tspan>
        </text>
        <text id="ME_label" x="1338.99" y="105.14" stroke-width="1.45" font-size="17.36" style="display: none;">
          <tspan id="ME_tspan" x="1338.99" y="105.14" fill="#000000" stroke-width="1.45" dy="0" font-family="Arial" font-size="21.7" font-style="normal" font-weight="400" style="text-align: center; fill: rgb(0, 0, 0);" text-anchor="middle">ME</tspan>
        </text>
        <text id="RI_label" x="1361.38" y="262.84" stroke-width="1.25" font-size="14.98" style="display: none;">
          <tspan id="RI_tspan" x="1361.38" y="262.84" fill="#000000" stroke-width="1.25" dy="0" font-family="Arial" font-size="18.72" font-style="normal" font-weight="400" style="text-align: center; fill: rgb(0, 0, 0);" text-anchor="middle">RI</tspan>
        </text>
        <text id="NY_label" x="1227.27" y="204.12" style="font-size: 19.2455px; stroke-width: 1.60379; display: none;">
          <tspan id="NY_tspan" x="1227.27" y="204.12" fill="#000000" dy="0" font-family="Arial" font-size="24.06" font-style="normal" font-weight="400" style="text-align: center; stroke-width: 2.57215; fill: rgb(0, 0, 0);" text-anchor="middle">NY</tspan>
        </text>
        <text id="PA_label" x="1187.28" y="284.69" style="font-size: 19.2455px; stroke-width: 1.60379; display: none;">
          <tspan id="PA_tspan" x="1187.28" y="284.69" fill="#000000" dy="0" font-family="Arial" font-size="24.06" font-style="normal" font-weight="400" style="text-align: center; stroke-width: 2.57215; fill: rgb(0, 0, 0);" text-anchor="middle">PA</tspan>
        </text>
        <text id="NJ_label" x="1330.57" y="290.09" stroke-width="1.28" font-size="15.4" style="display: none;">
          <tspan id="NJ_tspan" x="1330.57" y="290.09" fill="#000000" stroke-width="1.28" dy="0" font-family="Arial" font-size="19.25" font-style="normal" font-weight="400" style="text-align: center; fill: rgb(0, 0, 0);" text-anchor="middle">NJ</tspan>
        </text>
        <text id="DE_label" x="1320.8" y="328.42" stroke-width="1.36" font-size="16.38" style="display: none;">
          <tspan id="DE_tspan" x="1320.8" y="328.42" fill="#000000" stroke-width="1.36" dy="0" font-family="Arial" font-size="20.47" font-style="normal" font-weight="400" style="text-align: center; fill: rgb(0, 0, 0);" text-anchor="middle">DE</tspan>
        </text>
        <text id="MD_label" x="1310.72" y="368.46" stroke-width="1.34" font-size="16.11" style="display: none;">
          <tspan id="MD_tspan" x="1310.72" y="368.46" fill="#000000" stroke-width="1.34" dy="0" font-family="Arial" font-size="20.13" font-style="normal" font-weight="400" style="text-align: center; fill: rgb(0, 0, 0);" text-anchor="middle">MD</tspan>
        </text>
        <text id="VA_label" x="1198.59" y="392.33" style="font-size: 19.2455px; stroke-width: 1.60379; display: none;">
          <tspan id="VA_tspan" x="1198.59" y="392.33" fill="#000000" dy="0" font-family="Arial" font-size="24.06" font-style="normal" font-weight="400" style="text-align: center; stroke-width: 2.57215; fill: rgb(0, 0, 0);" text-anchor="middle">VA</tspan>
        </text>
        <text id="WV_label" x="1129.66" y="382.3" style="font-size: 19.2455px; stroke-width: 1.60379; display: none;">
          <tspan id="WV_tspan" x="1129.66" y="382.3" fill="#000000" dy="0" font-family="Arial" font-size="24.06" font-style="normal" font-weight="400" style="text-align: center; stroke-width: 2.57215; fill: rgb(0, 0, 0);" text-anchor="middle">WV</tspan>
        </text>
        <text id="OH_label" x="1079.05" y="334.46" style="font-size: 19.2455px; stroke-width: 1.60379; display: none;">
          <tspan id="OH_tspan" x="1079.05" y="334.46" fill="#000000" dy="0" font-family="Arial" font-size="24.06" font-style="normal" font-weight="400" style="text-align: center; stroke-width: 2.57215; fill: rgb(0, 0, 0);" text-anchor="middle">OH</tspan>
        </text>
        <text id="IN_label" x="998.79" y="352.94" style="font-size: 19.2455px; stroke-width: 1.60379; display: none;">
          <tspan id="IN_tspan" x="998.79" y="352.94" fill="#000000" dy="0" font-family="Arial" font-size="24.06" font-style="normal" font-weight="400" style="text-align: center; stroke-width: 2.57215; fill: rgb(0, 0, 0);" text-anchor="middle">IN</tspan>
        </text>
        <text id="IL_label" x="927.43" y="364.36" style="font-size: 19.2455px; stroke-width: 1.60379; display: none;">
          <tspan id="IL_tspan" x="927.43" y="364.36" fill="#000000" dy="0" font-family="Arial" font-size="24.06" font-style="normal" font-weight="400" style="text-align: center; stroke-width: 2.57215; fill: rgb(0, 0, 0);" text-anchor="middle">IL</tspan>
        </text>
        <text id="CT_label" x="1299.17" y="228.46" stroke-width="1.06" font-size="12.74" style="display: none;">
          <tspan id="CT_tspan" x="1299.17" y="228.46" fill="#000000" stroke-width="1.06" dy="0" font-family="Arial" font-size="15.93" font-style="normal" font-weight="400" style="text-align: center; fill: rgb(0, 0, 0);" text-anchor="middle">CT</tspan>
        </text>
        <text id="WI_label" x="898.6" y="224.7" style="font-size: 19.2455px; stroke-width: 1.60379; display: none;">
          <tspan id="WI_tspan" x="898.6" y="224.7" fill="#000000" dy="0" font-family="Arial" font-size="24.06" font-style="normal" font-weight="400" style="text-align: center; stroke-width: 2.57215; fill: rgb(0, 0, 0);" text-anchor="middle">WI</tspan>
        </text>
        <text id="NC_label" x="1205.6" y="458.72" style="font-size: 19.2455px; stroke-width: 1.60379; display: none;">
          <tspan id="NC_tspan" x="1205.6" y="458.72" fill="#000000" dy="0" font-family="Arial" font-size="24.06" font-style="normal" font-weight="400" style="text-align: center; stroke-width: 2.57215; fill: rgb(0, 0, 0);" text-anchor="middle">NC</tspan>
        </text>
        <text id="MA_label" x="1305.87" y="200.67" stroke-width="1.04" font-size="12.46" style="display: none;">
          <tspan id="MA_tspan" x="1305.87" y="200.67" fill="#000000" stroke-width="1.04" dy="0" font-family="Arial" font-size="15.58" font-style="normal" font-weight="400" style="text-align: center; fill: rgb(0, 0, 0);" text-anchor="middle">MA</tspan>
        </text>
        <text id="MO_label" x="854.22" y="422.93" style="font-size: 19.2455px; stroke-width: 1.60379; display: none;">
          <tspan id="MO_tspan" x="854.22" y="422.93" fill="#000000" dy="0" font-family="Arial" font-size="24.06" font-style="normal" font-weight="400" style="text-align: center; stroke-width: 2.57215; fill: rgb(0, 0, 0);" text-anchor="middle">MO</tspan>
        </text>
        <text id="GA_label" x="1106.89" y="574.56" style="font-size: 19.2455px; stroke-width: 1.60379; display: none;">
          <tspan id="GA_tspan" x="1106.89" y="574.56" fill="#000000" dy="0" font-family="Arial" font-size="24.06" font-style="normal" font-weight="400" style="text-align: center; stroke-width: 2.57215; fill: rgb(0, 0, 0);" text-anchor="middle">GA</tspan>
        </text>
        <text id="SC_label" x="1166.32" y="522.49" style="font-size: 19.2455px; stroke-width: 1.60379; display: none;">
          <tspan id="SC_tspan" x="1166.32" y="522.49" fill="#000000" dy="0" font-family="Arial" font-size="24.06" font-style="normal" font-weight="400" style="text-align: center; stroke-width: 2.57215; fill: rgb(0, 0, 0);" text-anchor="middle">SC</tspan>
        </text>
        <text id="KY_label" x="1039.99" y="426.39" style="font-size: 19.2455px; stroke-width: 1.60379; display: none;">
          <tspan id="KY_tspan" x="1039.99" y="426.39" fill="#000000" dy="0" font-family="Arial" font-size="24.06" font-style="normal" font-weight="400" style="text-align: center; stroke-width: 2.57215; fill: rgb(0, 0, 0);" text-anchor="middle">KY</tspan>
        </text>
        <text id="AL_label" x="1019.59" y="578.15" style="font-size: 19.2455px; stroke-width: 1.60379; display: none;">
          <tspan id="AL_tspan" fill="#000000" dy="0" font-family="Arial" font-size="24.06" font-style="normal" font-weight="400" style="text-align: center; stroke-width: 2.57215; fill: rgb(0, 0, 0);" text-anchor="middle">AL</tspan>
        </text>
        <text id="LA_label" x="872.7" y="649.59" style="font-size: 19.2455px; stroke-width: 1.60379; display: none;">
          <tspan id="LA_tspan" x="872.7" y="649.59" fill="#000000" dy="0" font-family="Arial" font-size="24.06" font-style="normal" font-weight="400" style="text-align: center; stroke-width: 2.57215; fill: rgb(0, 0, 0);" text-anchor="middle">LA</tspan>
        </text>
        <text id="MS_label" x="940.37" y="592.21" style="font-size: 19.2455px; stroke-width: 1.60379; display: none;">
          <tspan id="MS_tspan" x="940.37" y="592.21" fill="#000000" dy="0" font-family="Arial" font-size="24.06" font-style="normal" font-weight="400" style="text-align: center; stroke-width: 2.57215; fill: rgb(0, 0, 0);" text-anchor="middle">MS</tspan>
        </text>
        <text id="IA_label" x="823.33" y="308.44" style="font-size: 19.2455px; stroke-width: 1.60379; display: none;">
          <tspan id="IA_tspan" x="823.33" y="308.44" fill="#000000" dy="0" font-family="Arial" font-size="24.06" font-style="normal" font-weight="400" style="text-align: center; stroke-width: 2.57215; fill: rgb(0, 0, 0);" text-anchor="middle">IA</tspan>
        </text>
        <text id="MN_label" x="790.84" y="183.37" style="font-size: 19.2455px; stroke-width: 1.60379; display: none;">
          <tspan id="MN_tspan" x="790.84" y="183.37" fill="#000000" dy="0" font-family="Arial" font-size="24.06" font-style="normal" font-weight="400" style="text-align: center; stroke-width: 2.57215; fill: rgb(0, 0, 0);" text-anchor="middle">MN</tspan>
        </text>
        <text id="OK_label" x="732.05" y="519.54" style="font-size: 19.2455px; stroke-width: 1.60379; display: none;">
          <tspan id="OK_tspan" x="732.05" y="519.54" fill="#000000" dy="0" font-family="Arial" font-size="24.06" font-style="normal" font-weight="400" style="text-align: center; stroke-width: 2.57215; fill: rgb(0, 0, 0);" text-anchor="middle">OK</tspan>
        </text>
        <text id="TX_label" x="710.59" y="652.87" style="font-size: 19.2455px; stroke-width: 1.60379; display: none;">
          <tspan id="TX_tspan" x="710.59" y="652.87" fill="#000000" dy="0" font-family="Arial" font-size="24.06" font-style="normal" font-weight="400" style="text-align: center; stroke-width: 2.57215; fill: rgb(0, 0, 0);" text-anchor="middle">TX</tspan>
        </text>
        <text id="NM_label" x="506.94" y="542.36" style="font-size: 19.2455px; stroke-width: 1.60379; display: none;">
          <tspan id="NM_tspan" x="506.94" y="542.36" fill="#000000" dy="0" font-family="Arial" font-size="24.06" font-style="normal" font-weight="400" style="text-align: center; stroke-width: 2.57215; fill: rgb(0, 0, 0);" text-anchor="middle">NM</tspan>
        </text>
        <text id="KS_label" x="701.21" y="427.26" style="font-size: 19.2455px; stroke-width: 1.60379; display: none;">
          <tspan id="KS_tspan" x="701.21" y="427.26" fill="#000000" dy="0" font-family="Arial" font-size="24.06" font-style="normal" font-weight="400" style="text-align: center; stroke-width: 2.57215; fill: rgb(0, 0, 0);" text-anchor="middle">KS</tspan>
        </text>
        <text id="NE_label" x="686.63" y="337.29" style="font-size: 19.2455px; stroke-width: 1.60379; display: none;">
          <tspan id="NE_tspan" x="686.63" y="337.29" fill="#000000" dy="0" font-family="Arial" font-size="24.06" font-style="normal" font-weight="400" style="text-align: center; stroke-width: 2.57215; fill: rgb(0, 0, 0);" text-anchor="middle">NE</tspan>
        </text>
        <text id="SD_label" x="663.02" y="238.75" style="font-size: 19.2455px; stroke-width: 1.60379; display: none;">
          <tspan id="SD_tspan" x="663.02" y="238.75" fill="#000000" dy="0" font-family="Arial" font-size="24.06" font-style="normal" font-weight="400" style="text-align: center; stroke-width: 2.57215; fill: rgb(0, 0, 0);" text-anchor="middle">SD</tspan>
        </text>
        <text id="ND_label" x="663.02" y="150.75" style="font-size: 19.2455px; stroke-width: 1.60379; display: none;">
          <tspan id="ND_tspan" x="663.02" y="150.75" fill="#000000" dy="0" font-family="Arial" font-size="24.06" font-style="normal" font-weight="400" style="text-align: center; stroke-width: 2.57215; fill: rgb(0, 0, 0);" text-anchor="middle">ND</tspan>
        </text>
        <text id="WY_label" x="499.57" y="276.47" style="font-size: 19.2455px; stroke-width: 1.60379; display: none;">
          <tspan id="WY_tspan" x="499.57" y="276.47" fill="#000000" dy="0" font-family="Arial" font-size="24.06" font-style="normal" font-weight="400" style="text-align: center; stroke-width: 2.57215; fill: rgb(0, 0, 0);" text-anchor="middle">WY</tspan>
        </text>
        <text id="MT_label" x="487.84" y="155.58" style="font-size: 19.2455px; stroke-width: 1.60379; display: none;">
          <tspan id="MT_tspan" x="487.84" y="155.58" fill="#000000" dy="0" font-family="Arial" font-size="24.06" font-style="normal" font-weight="400" style="text-align: center; stroke-width: 2.57215; fill: rgb(0, 0, 0);" text-anchor="middle">MT</tspan>
        </text>
        <text id="CO_label" x="525.13" y="406.28" style="font-size: 19.2455px; stroke-width: 1.60379; display: none;">
          <tspan id="CO_tspan" x="525.13" y="406.28" fill="#000000" dy="0" font-family="Arial" font-size="24.06" font-style="normal" font-weight="400" style="text-align: center; stroke-width: 2.57215; fill: rgb(0, 0, 0);" text-anchor="middle">CO</tspan>
        </text>
        <text id="ID_label" x="339.94" y="235.07" style="font-size: 19.2455px; stroke-width: 1.60379; display: none;">
          <tspan id="ID_tspan" x="339.94" y="235.07" fill="#000000" dy="0" font-family="Arial" font-size="24.06" font-style="normal" font-weight="400" style="text-align: center; stroke-width: 2.57215; fill: rgb(0, 0, 0);" text-anchor="middle">ID</tspan>
        </text>
        <text id="UT_label" x="396.81" y="386.73" style="font-size: 19.2455px; stroke-width: 1.60379; display: none;">
          <tspan id="UT_tspan" x="396.81" y="386.73" fill="#000000" dy="0" font-family="Arial" font-size="24.06" font-style="normal" font-weight="400" style="text-align: center; stroke-width: 2.57215; fill: rgb(0, 0, 0);" text-anchor="middle">UT</tspan>
        </text>
        <text id="AZ_label" x="366.76" y="536.9" style="font-size: 19.2455px; stroke-width: 1.60379; display: none;">
          <tspan id="AZ_tspan" x="366.76" y="536.9" fill="#000000" dy="0" font-family="Arial" font-size="24.06" font-style="normal" font-weight="400" style="text-align: center; stroke-width: 2.57215; fill: rgb(0, 0, 0);" text-anchor="middle">AZ</tspan>
        </text>
        <text id="NV_label" x="262.47" y="370.64" style="font-size: 19.2455px; stroke-width: 1.60379; display: none;">
          <tspan id="NV_tspan" x="262.47" y="370.64" fill="#000000" dy="0" font-family="Arial" font-size="24.06" font-style="normal" font-weight="400" style="text-align: center; stroke-width: 2.57215; fill: rgb(0, 0, 0);" text-anchor="middle">NV</tspan>
        </text>
        <text id="OR_label" x="214.43" y="206.88" style="font-size: 19.2455px; stroke-width: 1.60379; display: none;">
          <tspan id="OR_tspan" x="214.43" y="206.88" fill="#000000" dy="0" font-family="Arial" font-size="24.06" font-style="normal" font-weight="400" style="text-align: center; stroke-width: 2.57215; fill: rgb(0, 0, 0);" text-anchor="middle">OR</tspan>
        </text>
        <text id="WA_label" x="238.05" y="102.99" style="font-size: 19.2455px; stroke-width: 1.60379; display: none;">
          <tspan id="WA_tspan" x="238.05" y="102.99" fill="#000000" dy="0" font-family="Arial" font-size="24.06" font-style="normal" font-weight="400" style="text-align: center; stroke-width: 2.57215; fill: rgb(0, 0, 0);" text-anchor="middle">WA</tspan>
        </text>
        <text id="CA_label" x="191.69" y="434.8" style="font-size: 19.2455px; stroke-width: 1.60379; display: none;">
          <tspan id="CA_tspan" x="191.69" y="434.8" fill="#000000" dy="0" font-family="Arial" font-size="24.06" font-style="normal" font-weight="400" style="text-align: center; stroke-width: 2.57215; fill: rgb(0, 0, 0);" text-anchor="middle">CA</tspan>
        </text>
        <text id="DC_label" x="1309.32" y="398.19" stroke-width="1.29" font-size="15.45" style="display: none;">
          <tspan id="DC_tspan" x="1309.32" y="398.19" fill="#000000" stroke-width="1.29" dy="0" font-family="Arial" font-size="19.31" font-style="normal" font-weight="400" style="text-align: center; fill: rgb(0, 0, 0);" text-anchor="middle">DC</tspan>
        </text>
        <text id="TN_label" x="1018.93" y="485.72" style="font-size: 19.2455px; stroke-width: 1.60379; display: none;">
          <tspan id="TN_tspan" x="1018.93" y="485.72" fill="#000000" dy="0" font-family="Arial" font-size="24.06" font-style="normal" font-weight="400" style="text-align: center; stroke-width: 2.57215; fill: rgb(0, 0, 0);" text-anchor="middle">TN</tspan>
        </text>
        <text id="AR_label" x="863.15" y="535.77" style="font-size: 19.2455px; stroke-width: 1.60379; display: none;">
          <tspan id="AR_tspan" x="863.15" y="535.77" fill="#000000" dy="0" font-family="Arial" font-size="24.06" font-style="normal" font-weight="400" style="text-align: center; stroke-width: 2.57215; fill: rgb(0, 0, 0);" text-anchor="middle">AR</tspan>
        </text>
      </g>
      <g id="state_borders" transform="translate(-0.04777967,-0.15336683)" stroke="rgb(209, 219, 221)" style="stroke: rgb(0, 0, 0);" stroke-width="0.3">
        <path id="OH_MI_border" d="m1053.22 279.3-12.43 2.76-8.27 1.78-8.92 1.8-1.27.29" stroke="rgb(209, 219, 221)" stroke-width="0.3" fill="none" style="stroke: rgb(0, 0, 0); display: none;"/>
        <path id="OH_PA_border" d="m1127.66 299.79-4.06-18.93-.63-2.84-4.25-19.73" stroke="rgb(209, 219, 221)" stroke-width="0.3" fill="none" style="stroke: rgb(0, 0, 0); display: none;"/>
      </g>
      <rect id="selection-rectangle" fill="#ffffccaa" stroke="rgb(209, 219, 221)" stroke-width="0.1"/>
      <ellipse id="selection-ellipse" fill="#ffffccaa" stroke="rgb(209, 219, 221)" stroke-width="0.1"/>
      <polygon id="selection-polygon" fill="#ffffccaa" stroke="rgb(209, 219, 221)" stroke-width="0.1"/>
      <polyline id="selection-polyline" fill="#ffffccaa" stroke="rgb(209, 219, 221)" stroke-width="0.1"/>
    </svg>
  </g>
</svg>
