<?xml version='1.0' encoding='UTF-8'?>
<svg xmlns="http://www.w3.org/2000/svg" xmlns:dc="http://purl.org/dc/elements/1.1/" xmlns:ns2="http://creativecommons.org/ns#" xmlns:rdf="http://www.w3.org/1999/02/22-rdf-syntax-ns#" id="wrapper" viewBox="0 0 1520 840" preserveAspectRatio="xMinYMin" height="840" width="1520" style="background-color: rgb(255, 255, 255);">
  <metadata>
    <rdf:rdf>
      <ns2:work rdf:about="">
        <dc:format>image/svg+xml</dc:format>
        <dc:type rdf:resource="http://purl.org/dc/dcmitype/StillImage"/>
        <dc:title>MapChart Map</dc:title>
        <dc:creator>
          <ns2:agent>
            <dc:title>MapChart.net</dc:title>
          </ns2:agent>
        </dc:creator>
        <ns2:license rdf:resource="http://creativecommons.org/licenses/by-sa/4.0/"/>
        <dc:description>This map was created with MapChart.net, a website for creating custom maps.</dc:description>
      </ns2:work>
      <ns2:license rdf:about="http://creativecommons.org/licenses/by-sa/4.0/">
        <ns2:permits rdf:resource="http://creativecommons.org/ns#Reproduction"/>
        <ns2:permits rdf:resource="http://creativecommons.org/ns#Distribution"/>
        <ns2:requires rdf:resource="http://creativecommons.org/ns#Notice"/>
        <ns2:requires rdf:resource="http://creativecommons.org/ns#Attribution"/>
        <ns2:requires rdf:resource="http://creativecommons.org/ns#ShareAlike"/>
      </ns2:license>
    </rdf:rdf>
  </metadata>
  <g id="map-group" transform="translate(-3635.2782942410777,-2790.606617444533) scale(6.235762111198842)">
    <svg id="map" width="1520" height="840" version="1.1" viewBox="0 0 1520 840" preserveAspectRatio="xMinYMin" data-originalStrokeWidth="0.3">
      <defs>
        <pattern id="circles3" width="10" height="10" patternUnits="userSpaceOnUse">    <rect width="10" height="10" fill="#fff"/>    <circle cx="4" cy="4" r="2" fill="#000"/>    </pattern>
        <pattern id="diagonal1" width="10" height="10" patternUnits="userSpaceOnUse">    <rect width="10" height="10" fill="#fff"/>    </pattern>
        <pattern id="diagonal3" width="10" height="10" patternUnits="userSpaceOnUse">    <rect width="10" height="10" fill="#fff"/>    </pattern>
        <pattern id="vertical1" width="10" height="10" patternUnits="userSpaceOnUse">    <rect width="10" height="10" fill="#fff"/>    <rect x="2" y="0" width="1" height="10" fill="#000"/>    </pattern>
        <pattern id="vertical3" width="10" height="10" patternUnits="userSpaceOnUse">    <rect width="10" height="10" fill="#fff"/>    <rect x="2" y="0" width="3" height="10" fill="#000"/>    </pattern>
        <pattern id="horizontal1" width="10" height="10" patternUnits="userSpaceOnUse">    <rect width="10" height="10" fill="#fff"/>    <rect x="0" y="2" width="10" height="1" fill="#000"/>    </pattern>
        <pattern id="horizontal3" width="10" height="10" patternUnits="userSpaceOnUse">    <rect width="10" height="10" fill="#fff"/>    <rect x="0" y="2" width="10" height="3" fill="#000"/>    </pattern>
        <pattern id="crosshatch" width="8" height="8" patternUnits="userSpaceOnUse">    <rect width="8" height="8" fill="#fff"/>    </pattern>
        <pattern id="subtlepatch" width="5" height="5" patternUnits="userSpaceOnUse">    <rect width="5" height="5" fill="#fff"/>    <rect x="2" y="2" width="1" height="1" fill="#000"/>    </pattern>
        <pattern id="checkers" width="8" height="8" patternUnits="userSpaceOnUse">    <rect width="8" height="8" fill="#fff"/>    </pattern>
        <pattern id="raindrops" width="10" height="10" patternUnits="userSpaceOnUse">    <rect width="10" height="10" fill="#fff"/>    </pattern>
        <pattern id="texture" width="4" height="4" patternUnits="userSpaceOnUse">    <rect width="4" height="4" fill="#fff"/>    </pattern>
        <pattern id="circles3_a03500_000000" width="10" height="10" patternUnits="userSpaceOnUse">    <rect width="10" height="10" fill="#a03500"/>    <circle cx="4" cy="4" r="2" fill="#000000"/>    </pattern>
        <pattern id="diagonal1_d9b400_535353" width="10" height="10" patternUnits="userSpaceOnUse">    <rect width="10" height="10" fill="#d9b400"/>    </pattern>
        <pattern id="diagonal3_3264c8_ffffff" width="10" height="10" patternUnits="userSpaceOnUse">    <rect width="10" height="10" fill="#3264c8"/>    </pattern>
        <pattern id="horizontal1_72b38e_000000" width="10" height="10" patternUnits="userSpaceOnUse">    <rect width="10" height="10" fill="#72b38e"/>    <rect x="0" y="2" width="10" height="1" fill="#000000"/>    </pattern>
        <pattern id="horizontal3_986ba1_ffffff" width="10" height="10" patternUnits="userSpaceOnUse">    <rect width="10" height="10" fill="#986ba1"/>    <rect x="0" y="2" width="10" height="3" fill="#ffffff"/>    </pattern>
        <pattern id="vertical1_b9a087_ffffff" width="10" height="10" patternUnits="userSpaceOnUse">    <rect width="10" height="10" fill="#b9a087"/>    <rect x="2" y="0" width="1" height="10" fill="#ffffff"/>    </pattern>
        <pattern id="vertical3_4c91bf_ffff33" width="10" height="10" patternUnits="userSpaceOnUse">    <rect width="10" height="10" fill="#4c91bf"/>    <rect x="2" y="0" width="3" height="10" fill="#ffff33"/>    </pattern>
        <pattern id="checkers_cc3333_f7f7f7" width="8" height="8" patternUnits="userSpaceOnUse">    <rect width="8" height="8" fill="#cc3333"/>    </pattern>
        <pattern id="texture_d1dbdd_525252" width="4" height="4" patternUnits="userSpaceOnUse">    <rect width="4" height="4" fill="#d1dbdd"/>    </pattern>
        <style id="map-style">svg { background-color: #ffffff; }</style>
      </defs>
      <path id="OK01" d="m770.8 481.4 5.19-.25.05.92-.45.02.11 2.29 1.8-.1.02.31-.27.1-.43-.01-.18.12.07 1.38.45-.02.03.92.06.92.57-.02.22-.15.08.3-.05.3.05.9 2.71-.14.03.38.38.5.32.1-.03-.22.43.1.2.12-.03.5.07.18.42.5-.08.29-.55-.02.02.18.26.17.52.2.65.46v.37l-.15.32.1.32-.12.25-.39.18-.3.35-.07.25.18.19-.2.4.1.05.3-.23.35-.1.02.27.27.25.33.08.43-.04.11.36.12.6.26.6.23.1.24-.04.28.15.06.19.54.01.12.17.2-.1.32.08.07 1.5.08 1-.63.3-.5-.02-.43-.13-.5.09-.86.36-.51.1-.38.14h-.23l-.33.51-.18.21-.23-.05-.23-.31-.5.03-.44-.3.03-.4-.16-.47v-.63l-.23-.2-.06-.46-2.92.16-3.6.17-1.4.06-4.38.22-.03-.04-.1-1.35h.08l-.04-.52.19-.2-.07-.38h.16l-.01-.26.18-.1-.05-.44-.45.02-.02-.43-1.35.06-.02-.46h-.46l-.02-.46-.45.05-.11-.37-.3-.2-.52.03-.04-.82-.25.01v-.27l.24-.22-.02-.44-.92.04-.12-2.75 2.71-.09 2.5-.1 2.25-.13-.4-8.32" fill="#d1dbdd" stroke="rgb(209, 219, 221)" stroke-width="0.1" data-originalStrokeWidth="0.1" style="stroke: rgb(0, 0, 0); fill: rgb(209, 219, 221); pointer-events: auto; stroke-width: 0.1;" pointer-events="auto"/>
      <path id="OK02" d="m812.27 512.01.01.05v.2l.06.2-.01.12v.19l.02.69.02.34.01.7.05.97.02.5.02.93.01.2.05 1.24.03.7.02.57.05 1.08.02.74.05 1.41.08 2.06.06 1.4v.48l.06 1.09v.29l.07 1.52.07 1.94.05 1 .02.88.06 1.12.02.9.02.28.04 1.1.08 1.57.04 1.27.08 1.48v.51l.04.86.04 1.08.04.93.03.76.04.72.02.75.12 2.58.04 1.04.06 1.24.13 3.28.05 1.05.04 1.2.06 1.2.03.97.09 1.72.01.5.05.95.02.76.1 1.96.04 1.25.04.81-.06.19.02.1-.28.17-.07.1H814l-.21-.3-.05-.06-.03.3-.02.2-.18.08-.22-.26.06-.12.34-.33-.25-.1-.35.18-.11.16-.17.14-.07.02-.2.02-.19-.12.05-.2.12-.1.2-.11.26-.1.06-.26-.2-.21-.53.31-.22.25-.28-.01.36-.47.18-.06.19-.14-.07-.13-.45.12-.02-.38-.2-.23-.1.67-.26.1-.07-.04-.05-.05-.04-.04-.07-.09-.08-.2-.03-.07-.05-.06-.04-.03-.1-.01-.03.02-.11.01-.07.25-.18.33-.47.14h-.13l-.24-.23.27-.23.23.13.14-.1-.1-.28.25-.43-.1-.13-.11-.06-.01.3-.04.19-.35-.2-.16-.02-.15.1-.27.26-.16-.03-.12-.01-.54-.03-.05-.02.08-.18.25-.1.04-.24-.08-.06-.68-.26-.1.02.2.3.22.04.1.28-.03.13-.16.04-.34-.06-.07-.13-.1-.17-.3-.13.01-.13.31-.1.18-.2.03-.12-.07-.09-.2.01-.06.3-.13.11-.18-.11.21-.3-.08-.23-.02-.01-.2.23h-.06l-.16.03-.36-.07-.18-.19.08-.1.14-.16.06-.07.03-.01.13-.01h.14l.1-.01.05-.06.02-.01.03-.06.01-.12-.08-.14-.15-.04-.28.13-.06.37-.05.05-.2.14-.31.23-.26-.06-.14-.13.1-.23-.12-.24v-.29l-.2-.16-.17.35.2.33.12.32-.22.07.01-.18-.38.07h-.3l-.2-.03-.33-.23-.07-.18.23-.26-.04-.17-.17-.06-.02.1-.03.32-.08-.08-.2-.28-.3.02-.17-.23-.23-.06-.12-.18-.13-.16-.02-.1.23-.8-.02-.04-.18-.21-.06-.06h-.1l-.04.02-.01.07.06.13.06.21-.04.08-.08.17-.13.02h-.39l-.08-.14-.07-.13.13-.23.06-.07.04-.09v-.05l-.03-.02-.08-.06-.1-.04h-.14l-.2-.06-.13-.62-.03-.14-.2.05-.12.25-.28.03-.28-.37-.25.2-.5-.03-.33-.03-.13-.08-.07-.43-.24-.33-.02-.36-.1-.09-.28.06.03.14-.08-.3.21-.05.1-.13-.15-.16-.14.08-.03.2-.05.08-.02.67-.06.18-.25-.08-.17-.21-.06-.09v-.13l.5-.4.02-.31-.05-.07-.07-.03-.05.05-.02.1-.07.05-.02.05-.17.1-.1.03-.09.02-.05.04-.11.13-.08.03h-.19l-.03-.02-.06-.02-.17-.18-.04-.12.22-.33-.09-.28-.27-.02-.09.05h-.26l-.07-.02-.15-.02-.4-.3-.18-.04-.16-.03-.12-.04-.08-.02-.16-.04h-.02l-.1-.1-.16-.1-.14-.05-.06-.02-.1.05-.19.03-.03.02-.04.04.02-.02v.12l-.04.1-.01.1-.04.03-.05.03h-.07l-.17.13-.04.06-.04.1-.04.16.02.05.06.35.04.13v.1l-.01.26-.04.19-.05.1v.08l-.03.03-.1.16-.07.05-.05-.02-.04-.04-.02-.07-.01-.05-.04-.01.03-.1.01-.09v-.14l-.06-.15-.03-.05-.05-.03h-.09l-.08.03-.08.05-.06.04-.06.1-.04.07.02.04.03.09.07.04.03.05.07.19v.21l.02.16-.02.04-.04.05-.16.08h-.11l-.07.03-.07-.02-.11-.02h-.09l-.05-.01-.1-.05-.08-.09-.2-.14-.26-.05v.11l-.06.17-.06.12-.05-.01-.04.02-.02.03-.03-.02-.14.07-.01.04h-.09l-.04.04-.14.02-.01.02-.07.03-.05.03h-.07l-.06.01h-.07l-.14-.05-.19.01-.17.02-.21.1-.06.03h-.1l-.17-.02-.13-.03-.32-.1-.14.1-.13.05h-.1l-.1-.02-.1-.06-.13-.04-.23-.05.08-.44-.34.23-.42.17-.2.03-.21-.05-.02-.57-.17-.08-.18.24-.12.1-.1.11-.05.03-.05.05-.05.02h-.05l-.08.01h-.05l-.06.03-.06-.03-.07-.06-.05-.07-.05-.13V561l.03-.1.02-.1.02-.08-.01-.22-.05-.15-.05-.14-.03-.07-.03-.19-.02-.06-.1-.12-.14-.06-.14-.03-.23.01-.01.02-.14-.03-.07-.07-.05-.1-.03-.03-.05-.03-.1-.03-.1.02v.03l-.01.07v.12l-.02.08-.06.1-.07.03h-.11l-.17.04-.03.04-.04.07v.02l-.04.07-.04.05-.03.09-.04.08-.03.1-.03.15-.05.06-.07.01-.05.04-.04-.01h-.07l-.16-.04-.1-.04-.1-.02-.09-.03v.02l-.08-.03h-.04l-.12.06-.09.05-.02.05-.05.04-.03.08-.04.06-.09.12-.03.07-.1.08-.05.05-.05.02-.04.05-.16.05-.12.05h-.1l-.06.02-.16.01-.1-.06-.06-.06-.05-.04-.19-.07-.03-.03-.1-.03-.03-.03h-.09l-.18.01h-.05l-.1.03-.07.05-.11.09-.04.03-.04.09-.05.11v.17l.02.13v.07l.05.01.05.11.04.02.04.07.03.02.08.15.01.07v.08l-.02.04-.06.1-.1.08-.28.15-.67-.43-.25-.04-.28.06-.14.23.07.32-.27.26-.2-.02-.18-.07-.12-.11-.2-.22-.28-.05-.57-.42-.19-.06-.8-.5-.18.02-.03.18-.21.58-.24.08-.26.06-.1.01-.26.07-.22.09v-.25l-.11-.24-.4-.14v.16l.23.19-.07.35-.31.23-.17.1-.16-.04.08-.34-.26-.08-.04.07.01.2-.17.24-.28.15-.06-.04-.1-.02-.1-.04-.68-.2-.2.02h-.06l-.1-.02-.07.03.1.28-.02.23-.29-.03-.33-.23h-.13l-.09.08-.19-.03-.3.1-.02.13.09.4-.05.08-.24-.04-.04.03-.14-.01-.09.1-.04.03-.1-.02-.02.03-.06.12.06.17.03.08.17.04v-.1l.06-.18.07-.1.13-.05.05.02-.07.07v.5l-.19.84-.25.31-.44.24-.06.02-.24.08-.3.1-.25-.03-.23-.15-.25-.15-.12-.04-.07-.04-.05-.06-.14-.09-.05-.02H768l-.05-.03-.1-.02-.1-.02-.23-.01h-.09l-.07.06-.06.05-.01.15-.05.07v.07l.02-.07v.06l-.04.07-.06.17-.03.1-.06.13v.17l-.02.05-.01.1.05.16v.13l.01.07-.02.11-.03.17-.02.12-.13.25-.08.2-.33.1-.1.06-.08.13-.1.04-.11.04-.1-.01-.04-.02h-.05l-.07-.02-.08-.05-.2-.52-.07-.27-.03-.05-.16-.13-.07-.09-.03-.06-.1-.1-.16-.14-.14-.1-.07-.09-.1-.1-.2-.19-.03-.05-.09-.13-.1-.23-.2-.39-.22-.1-.4-.05-.14.03-.03.05-.13.1-.06.02h-.31l-.12.02-.16.07h-.06l-.41.03-.31-.3-.1-.27v-.12l-.04-.22-.09-.27-.12-.2-.2-.16-.03-.01.02-.02-.26.1h-.03l-.15.04-.05.04h-.13l-.28.03h-.1l-.81-.46-.58-.21-.17-.12v-.17l.1-.19.34-.4.35-.21.18-.19.11-.27-.02-.11-.16-.08-.84.04-.09.03-.16-.13-.27-.22-.1-.06-.12-.09-.07-.08-.26-.1-.06.02-.2.26-.04.12-.1.32-.05.34.04.25-.04.43-.13.42-.12.2-.1.15-.11.14-.24.13-.43.08-.15.05-.47.12-.31-.01-.1-.07-.13-.32-.17-.63-.1-.17-.3-.17-.47-.09-.5-.05-.2.22-.03.48-.22.2-.42-.17-.45-.46-.22-.58-.1-.22-.1-.35.01-.26-.1-.66-.16-.41-.35-.35h-.16l-.28.15-.07-1.84-.9.02-.08-1.84.05.01-.13-2.75v-.48l.9-.02-.19-5.08 1.35-.07-.22-5.46 8.1-.3 1.37-.08-.23-5.54 2.7-.12-.34-8.04-.28.85-.15.14-.28.06-.64-.43-.48.02-.3.2-.29-6.5 1.27-.05-.5-11.14-.1.29-.3-.08-.22.1-.19-.16-.35.48.14.29-.12.24-.22.12-.56-.05-.1-.23-.58-.42-.24-.03-.36.51.32.1-.11.39.22-.01.07.24.33.1-.02.2.17.17-.12.29-.5-.11.03-.21-.29.08-.25-.09-.24-.27-.17.08-.17.38-.2-.05-.1.16-.32-.2-.11-1.95-.04-2.77-.1-2.83 5.48-.25 2.22-.09 3.16-.16-.34-6.89 5.77-.29 1.42-.06 3.59-.17 2.92-.16.06.46.22.2.01.63.16.46-.03.4.45.31.49-.03.23.3.23.06.18-.2.33-.53.23.01.38-.14.51-.1.85-.36.51-.1.44.14.5.02.62-.3-.08-1-.07-1.5-.32-.08-.19.1-.13-.17h-.54l-.06-.19-.3-.16-.22.04-.23-.1-.26-.6-.12-.6-.11-.36-.43.04-.33-.08-.27-.25-.02-.27-.35.1-.3.23-.1-.04.2-.4-.18-.2.08-.25.3-.35.38-.18.12-.25-.1-.32.15-.32v-.37l-.65-.46-.52-.2-.26-.18-.02-.17.55.02.08-.3-.42-.48-.07-.19.04-.5-.2-.13-.44-.09.03.23-.32-.1-.38-.5-.03-.39-2.71.14-.05-.9.05-.3-.08-.3-.22.15-.57.02-.06-.92-.03-.92-.45.02-.08-1.38.2-.12h.42l.28-.09-.01-.3-1.8.1-.12-2.29.44-.02-.05-.93-5.19.25-.51-10.6-.38-7.63.7-.05 5.3-.27.67-.05 3.58-.18 1.84-.1 1.4-.07 6.85-.4 2.16-.13.26-.01 1.27-.08 2.57-.14.67-.03 1.5-.1.33-.01 1.96-.12.28-.01.7-.06h.04l.5-.03.24-.02 1.25-.08.33-.01.04.88.03.27.02.36.08 1.25.05 1 .02.19.03.63.03.25.05.94.05.67.05.57.03.66.04.6.07 1.02.07 1.14v.04l.1 1.37.04.86.14 1.95v.11l.04.52.03.56.47 2.42.1.5.36 1.95.07.34.15.83.18.89.33 1.63.17.84.04.22.03.09.02.16.06.24v.07l.18.85.04.14.07.4.08.42.03.12.06.26.02.1.15.76.4 1.9.1.52.09.4.27 1.35.13.66.08.38.04.17.28 1.35.13.67.05.24.1.52.09.45.2.94.06.32.28 1.45.13.57.35 1.72.09.44.09.51.12.59.08.34.35 1.79.08.43.07.33.02.16.02.07.29 1.32v.09l.02.07.04.2.02.13.22.97.09.42-.1.15.05.1" fill="#d1dbdd" stroke="rgb(209, 219, 221)" stroke-width="0.1" data-originalStrokeWidth="0.1" style="stroke: rgb(0, 0, 0); fill: rgb(209, 219, 221); pointer-events: auto; stroke-width: 0.1;" pointer-events="auto"/>
      <path id="OK03" d="m760.65 463.6 2.18-.12h.29l3.7-.17 1.91-.08 1.18-.06.38 7.64.51 10.6.41 8.3-2.25.14-2.5.1-2.7.09.11 2.75.92-.04.02.44-.23.22v.27l.24-.01.04.82.52-.03.3.2.11.38.45-.06.02.46h.46l.02.46 1.35-.06.02.43.45-.02.06.45-.18.1.01.24h-.17l.07.4-.18.19.03.51h-.08l.1 1.36.03.04-1.4.07.34 6.9-3.16.15-2.22.1-5.48.24-.13-3.82-.25-5.77-1.48.04-3.39.14-2.44.12-.9.02-4.94.2-.02-.54-.06.14-.4.32-.32.13-.44.01-.36-.1-.47-.6-.55-.22h-.83l-.27-.22-.06-.52-.18-.28-.36-.15-.38.02-.26.2-.13.34-.38.34-.15-.18h-.22l-.27.28-.45-.17-.08.26-.42.21-.03.42.37.51.04.23-.16.32-.23.1-.33.56-.65.29-.33.11-.23-.25-.32.21-.4-.33-.26-.04-.24.22h-.46l-.1.23-.35.2-.3-.02-.35.11-.01.24-.35-.17-.2.03-.05.26h-.35l-.11.23-.22.14-.06.19-.2.03-.29-.24-.17.17.15 4.29-2.92.1-1.14.03.15 5.07v.46h.1l.04 1.39h-.23l.02.45.21-.01.04.92 1.8-.05.01.46 1.98-.05.28.05-.01-.52.88-.03-.02-.46.67-.02-.01-.23h.23v-.23l1.8-.07.04 1.12.56-.01.28-.2.67-.01.27-.18.07 1.52.9-.04.05 1.4-2.7.07-3.61.13.05 1.3-.35.07-.28.2-.3.13-.3-.12-.44.17-.3-.17-.24-.32-.39-.17-.03.18-.36.1-.08.14-.13-.2-.27-.05-.1.22h-.75l-.4-.32-.04-.34-.14-.19-.19-.02-.15.23-.22.01.03.21-.49.12.04-.24-.15-.08-.34.08-.27-.33-.04-.29-.3-.12-.08.08.03.6-.2.32-.39-.17-.1-.17-.2.05-.48-.2-.15.08-.32-.54-1.97.06.1 3.2.06 2.3h.1l.1 3.64-.04.01.19 7.41-6.3.16-3.05.06-9.42.21.04 2.32.11 5.94-4.49.1-.03-1.37-2.61.03.18.14.16.25.2.02.02.35-.17-.04.16.76-.3.11-.14-.2-.56.19-.09.18-.18-.3h-.23l-.56.14-.37.69-.18.13.14.39.2.12-.16.2-.48-.07-.04.37-.26.57-.02.36-.28.24v.51l.16-.1-.17.54.23.26-.38.13-.07.34.2.26.05.23-.17.2-.15-.28-.11.1.08.77.23-.01-.04.45.28-.1.09-.15.12.19-.25.3v.16h.31l.13.28.26.33.01.25-.16.24-.22.04-.03-.03-.18-.06-.3.11-.19-.08.16-.3-.16-.11-.1-.43-.18.1-.09-.12.13-.15-.16-.1-.06.02-.2.05v-.12l-.27-.1-.16-.18.3-.06.06-.5-.45.12-.25-.43-.16-.04-.5.2-.12.03-.27-.43-.73-.63v-.17l.05-.12-.1-.13-.13-.01-.3-.08-.17.08-.34.45.06.35-.1.44.27.19-.23.58-.06.54-.22.1-.12-.06-.4-.32-.17.47-.17-.07-.29-.45-.24.2-.04-.33-.1-.15h-.19l-.15-.03h-.04l-.25-.08-.25-.32-.44-.14-.33.09-.52-.03-.3-.14-.39-.01-.09.08-.1.22v.55l-.08.18-.3.34-.15-.07-.47.1-.23-.13-.4-.13-.12.16-.29.13-.37-.2-.42.05-.31-.23-.22-.27.01-.17-.33-.34-.68-.31-.36-.32.05-.21-.26-.22-.22-.02-.06-.18-.2-.09-.42-.57-.17-.3-.01-.27-.08-.16-.42-.23-.27-.2-.17-.1-.35-.43-.06-.07-.1-.12-.04-.17-.06-.08-.33-.34-.54-.38-.3-.24-.05-.13-.55-.17-.23.04-.1.19-.35.32-.55.1-.08-.05-.1.03-.01-.3v-.88l-.01-.88-.02-.84v-.95l-.02-.86v-1.9l-.03-4.16-.01-.84-.03-4-.03-5.28v-.63l-.02-.28v-.94l-.01-.72v-.2l-.02-1.84v-1.84l.01-.23v-1.13l-.03-1.43-.01-.27-.01-1.53-.02-2.74v-.93l-.02-1.97-.01-2.15-.02-1.38-.03-5-.01-.45-.02-1.24v-2.03l-.02-2.26-.01-1.83-.02-1.38v-2.02l-.01-2.1-.03-2.1-.09-.02-1.43.03h-2.73l-.28.01-.9.02h-.91l-.6-.01h-1.17l-1.37.03h-11.82l-3.2-.02-1.92.02h-1.12l-.68-.02-1.07-.01h-.44l-2.6-.01h-.68l-1.05-.01h-1.27l-1.7-.02-.77-.02-1.5-.01-.73-.01h-.68l-1.87-.02h-.29l-.86-.03-.19.01h-.91l-.95-.02h-.21l-.1-.01-4.86-.08-1.12-.03h-1.22l-2.38-.03-.6-.03-.15.01-1.74-.03-.7-.01h-.47l-.4-.02-2-.04-.96-.02-.88-.01-2.26-.04-3.13-.08-.9-.02-.53-.01-.35-.01-1.17-.03-2.12-.04-1.24-.02.01-.7.03-1.06.03-.9.01-1.05v-.44l.03-1.42.07-1.78.01-.63.03-1.18.1-3.58.07-3.12.38.04 1.25.03 1.52.02 1.49.02 1.57.07 1.35.14 3.17.07 1.15.03 1.95.04h.3l1.13.02.84.02.3.02.89.02 1.17.01h.22l.4.02 3.76.1h.77l.28.01 3.5.02h.04l.03.01 4.64.02 5 .02h1.77l4.37.01h1.27l.6-.01h4.86l2.28-.02h2.23l1.24-.01h1.78l.47-.01.88-.02h1.89l.32-.02h1.41l1.62-.02 1.33-.01.82-.02h.74l1.56-.01h1.21l.18-.02h2.15l2.86-.02h3.91l.73-.02h4.38l1.81-.02.02.01.81-.02h.41l.6-.01h.71l1.22-.02.53-.03 1.65-.01 3.46-.04 2.62-.03.65-.02.5-.02 1.3-.02.9-.02 1.5-.01.29-.02h.64l1.15-.02 1.37-.04h.62l1.64-.02 4.02-.09h.19l1.84-.03 2.91-.06 1.05-.02 1-.03.66-.02.92-.04 7.6-.24 1.43-.05 1.7-.05h.13l1-.02.5-.03h.3l.02-.01h.71l.33-.03h.6l.7-.04h.39l.43-.02 1.12-.05 1.36-.05.85-.02.85-.02 5.3-.22.73-.01 1.35-.06 1.04-.05h.47l.97-.06h.57l1.73-.1h.32l1.15-.05 1.1-.04.94-.05.93-.02 1.28-.05 1.74-.07 4.5-.23" fill="#d1dbdd" stroke="rgb(209, 219, 221)" stroke-width="0.1" data-originalStrokeWidth="0.1" style="stroke: rgb(0, 0, 0); fill: rgb(209, 219, 221); pointer-events: auto; stroke-width: 0.1;" pointer-events="auto"/>
      <path id="OK04" d="m760.65 529.93.3-.2.48-.02.65.43.28-.06.14-.14.28-.85.35 8.04-2.71.12.23 5.53-1.37.07-8.1.32.22 5.46-1.35.07.19 5.08-.9.02v.48l.13 2.76-.05-.02.08 1.84.9-.02.08 1.84-.1.09-.33.22-.18.1-.08.05h-.03l-.18.13-.1.04-.08-.06-.1-.33.03-.25-.25.07-.18.39.05.32.02.1.18.39.09.35.02.53-.07.09-.04.1-.11.22-.75 1.02-.17.1-.25.14-.14-.06-.27-.5-.35-.15-.34.15-.18.3.17.2.67.11.25.26-.04.36-.18.03-.63.17-.26.24-.02.5.2.53.07.7-.04.25-.19.4-.27.23-.45.18-.48-.07-.4-.17-.15-.11-.26-.27-.26-.56-.25-.06-.06-.1.13-.28-.08-.36-.39-.58-.03-.57.25-.43.39-.02.2-.12.11-.2v-.19l-.22-.77-.15-.64-.1-.16-.16-.15-.26-.16-.37-.24-.42.1-.26.18-.14.15-.09.9-.15.35-.44.09-.4-.25-.58-.58-.04.05.04.3-.1.35-.37.38h-.09l-.04-.28.23-.4-.05-.23h-.16l-.14.3-.04.48-.41.91-.44.43-.67-.01-.16.02-.52.02-.48-.15-.38-.3-.11-.29.25-.81v-.73l-.24-.34-.05-.08-.59-.3-.43-.11-.15.05-.11.07-.23.08-.8.52-.23.01-.08-.09-.47.05-.16-.09-.24-.35-.03-.19.13-.36-.1-.32.15-.34-.3-.13-.25-.35-.16-.04-.37-.3-.12-.06-.72-.29h-.26l-.16.05-.27.1-.24.27-.17.48-.3.53-.2.2-.19.14-.59.03-.2.07.1.5-.14.17-.3-.17-.25.2.17.25.01.29-.1.15-.22-.24-.24.12.02.32-.1.29-.26-.18-.1.37-.16.2-.1.06-.08.14-.42.13-.2.1-.37.1-.6-.26-.4-.29-.79-.37-.44.04-.45-.22-.22-.3-.07-.07.02-.2.16-.28.22.21.3-.28.1-.47-.02-.16-.07-.12-.39.04-.1-.18.07-.07.28-.2.1-.22.22-1.04h-.3l-.41-.49-.28.2-.06.03-.16.06-.3.08-.09.02-.23.04-.6.05-1.14-.28-.12-.12.12-.24-.3-.21-.3-.38.07-.16.3.15.24-.2-.03-.05-.44-.26-.46-.52-.08-.25-.03-.2.18-.25.1-.13.39-.6.06-.17.04-.43-.34-.12.01-.4-.19-.22-.36-.01-.37.4-.05.05-.29.51-.33.26-.26.08-.75-.08-.52-.22-.24-.29-.6.18-.26-.08-.07.01-.3.04-.51-.11-.6-.47-.35-.06-.14-.03-.05-.02-.28-.04-.25-.04-.18.16-.27.1-.13.26.2.3-.25-.07-.24.17.02.54v.22l-.03.15-.01.04h-.05l-.05-.02-.07-.06-.13.09.06.14v.05l-.03.07v.04l-.08.13-.12.07-.17-.05-.08-.02-.25.03-.12.06-.06.11-.02.08-.3.11-.22.01-.14.25-.18.1h-.2l-.07-.13-.07-.03-.07-.07h-.07l-.05-.02-.07-.02-.06-.02-.27-.3-.07-.13-.14-.13-.07-.07-.1-.08-.05-.15-.1-.11-.05-.11-.4-.38-.27-.15.24-.11.03-.16-.25-.03-.45-.48-.59-.36-.19.06-.15.1-.21-.03-.59-.22h-.1l-.6.51-.47.5-.27-.08-.32.17-.16-.19-.43.06-.1.26-.25.1-.22-.01-.23-.38-.3-.07-.27-.22-.2.12-.23-.35-.68-.25-.16.18-.17-.04-.18-.06-.19-.03-.01.27-.19.1-.25-.23.05-.3-.36-.06-.3-.2-.28-.07-.3-.18-.1-.18-.4-.46-.26-.2-.23-.1-.19.39-.27-.16-.14-.36-.27-.1-.33.24.07.11-.28.22-.3-.01-.11-.04-.22-.03-.15.26-.37-.06-.07-.13-.41-.21-.14.02-.13.07-.22-.1-.19.2h-.26l-.18.12h-.03l-.29-.16.12-.33-.27-.05-.24.3-.25.09-.86-.2-.08-.14.07-.28-.2-.53.12-.37-.12-.15h-.05l.12-.35-.04-.3-.31-.08-.11-.27.03-.28-.08-.22.06-.2.06-.05-.08-.67.1-.03.22-.04.16-.24v-.25l-.27-.34-.13-.27h-.31v-.16l.25-.3-.12-.19-.1.15-.27.11.04-.46-.23.01-.08-.76.1-.1.16.27.17-.2-.05-.23-.2-.27.07-.33.38-.13-.22-.26.16-.53-.16.1v-.52l.28-.24.03-.36.25-.57.04-.36.48.05.15-.19-.2-.12-.12-.39.17-.12.36-.7.56-.14h.24l.2.29.06-.17.57-.19.15.21.28-.1-.15-.78.17.04-.04-.35-.18-.02-.16-.25-.2-.15 2.63-.03.03 1.37 4.5-.09-.11-5.94-.06-2.32 9.42-.2 3.06-.07 6.3-.16-.2-7.4.05-.02-.1-3.64h-.09l-.07-2.28-.1-3.22 1.98-.06.32.53.14-.07.48.2.19-.05.11.18.4.16.19-.32-.03-.6.09-.08.29.12.04.28.27.34.34-.08.15.08-.03.25.48-.12-.03-.22.22-.01.15-.23.19.03.14.18.03.34.41.32h.74l.1-.22.3.04.1.2.1-.13.35-.1.03-.19.4.18.24.32.3.17.42-.17.3.12.31-.11.28-.22.35-.06-.05-1.3 3.61-.14 2.7-.08-.05-1.39-.9.04-.06-1.53.37-.32h.52l-.02-.47 1.54-.06v.11l.27.06v.28l.45-.01.12 3.21 1.8-.07 3.11-.1.31 8.26.21 5.97.27.05-.03-.28.42-.02.42.17.33-.1.2.08.22.28.48-.05.44.24h.25l.28.15.5-.25.46-.4.11-.27h.13l.24-.51.27-.25.45-.24.46.2.21.38.17.12.3.5.44-.11.41-.02.76-.57.26.07.36.42-.02.61.26.3h.9l.15.23.23.71.2.28.3.1.27-.1.45-.31.2-.46-.11-.4-.18-.23-.42-.3.13-.35.36-.31.62.1.21.18.35.66.18.08h.47l.66-.26.46-.34.35-.04.19.09.03.51.35.55.4.32.22-.03.17-.17.3-.59.03-.3.19-.26" fill="#d1dbdd" stroke="rgb(209, 219, 221)" stroke-width="0.1" data-originalStrokeWidth="0.1" style="stroke: rgb(0, 0, 0); fill: rgb(209, 219, 221); pointer-events: auto; stroke-width: 0.1;" pointer-events="auto"/>
      <path id="OK05" d="m735.26 513.22-.28.18h-.67l-.27.2-.58.02-.03-1.12-1.8.07v.22l-.22.01v.23l-.67.02.02.46-.88.03v.52l-.28-.05-1.97.05v-.46l-1.81.05-.04-.92h-.2l-.03-.45h.23l-.03-1.38h-.1l-.02-.45-.14-5.08 1.14-.02 2.92-.12-.15-4.28.18-.17.27.24.21-.03.06-.2.22-.13.11-.24.35.01.05-.26.19-.04.36.17v-.22l.36-.11.29.01.36-.2.1-.22h.46l.24-.23.27.04.4.32.3-.2.24.26.34-.11.65-.3.32-.55.23-.11.17-.32-.05-.23-.37-.5.03-.43.42-.21.08-.25.46.16.27-.28.2-.01.16.18.38-.33.13-.35.25-.2.38-.02.37.16.18.28.06.52.27.21h.83l.55.23.47.6.36.1.44-.01.32-.13.4-.3.06-.16.02.54 4.94-.2.9-.02 2.44-.12 3.4-.14 1.47-.04.25 5.77.13 3.82.1 2.84.04 2.76.11 1.95.33.2.1-.16.19.05.17-.38.17-.08.24.27.25.09.28-.08-.03.2.51.12.12-.3-.17-.17.02-.18-.33-.1-.07-.25h-.22l.11-.38-.32-.1.36-.51.23.03.59.42.1.23.56.05.22-.12.12-.24-.14-.28.35-.5.2.18.22-.1.29.06.1-.3.5 11.16-1.27.04.29 6.5-.18.26-.04.3-.3.59-.18.18-.23.03-.4-.32-.33-.56-.04-.5-.18-.09-.35.04-.45.34-.67.26h-.47l-.18-.08-.35-.65-.21-.19-.62-.1-.36.31-.13.34.42.3.18.25.1.4-.2.46-.43.3-.29.1-.29-.1-.2-.28-.23-.71-.14-.22h-.9l-.27-.3.02-.62-.36-.42-.26-.08-.76.59h-.4l-.45.12-.3-.5-.18-.12-.2-.38-.46-.2-.46.24-.26.25-.24.51h-.13l-.1.26-.47.4-.5.26-.28-.15h-.25l-.44-.24-.48.05-.21-.28-.2-.08-.34.09-.42-.16-.42.02.03.28-.27-.05-.2-5.97-.32-8.27-3.12.11-1.8.07-.11-3.21h-.45v-.28l-.27-.05v-.11l-1.54.06.02.46-.53.01-.37.33" fill="#d1dbdd" stroke="rgb(209, 219, 221)" stroke-width="0.1" data-originalStrokeWidth="0.1" style="stroke: rgb(0, 0, 0); fill: rgb(209, 219, 221); pointer-events: auto; stroke-width: 0.1;" pointer-events="auto"/>
      <g id="state_lines" stroke="rgb(209, 219, 221)" style="display: none; stroke: rgb(0, 0, 0);" stroke-width="0.1"/>
      <g id="state_abbr" fill="#000000" style="display: none; fill: rgb(0, 0, 0);">
        <text id="HI_label" x="491.79" y="769.82" style="font-size: 19.2455px; stroke-width: 1.60379; display: none;">
          <tspan id="HI_tspan" x="491.79" y="769.82" fill="#000000" dy="0" font-family="Arial" font-size="24.06" font-style="normal" font-weight="400" style="text-align: center; stroke-width: 2.57215; fill: rgb(0, 0, 0);" text-anchor="middle">HI</tspan>
        </text>
        <text id="AK_label" x="205.24" y="672.25" style="font-size: 19.2455px; stroke-width: 1.60379; display: none;">
          <tspan id="AK_tspan" x="205.24" y="672.25" fill="#000000" dy="0" font-family="Arial" font-size="24.06" font-style="normal" font-weight="400" style="text-align: center; stroke-width: 2.57215; fill: rgb(0, 0, 0);" text-anchor="middle">AK</tspan>
        </text>
        <text id="FL_label" x="1188.11" y="708.7" style="font-size: 19.2455px; stroke-width: 1.60379; display: none;">
          <tspan id="FL_tspan" x="1188.11" y="708.7" fill="#000000" dy="0" font-family="Arial" font-size="24.06" font-style="normal" font-weight="400" style="text-align: center; stroke-width: 2.57215; fill: rgb(0, 0, 0);" text-anchor="middle">FL</tspan>
        </text>
        <text id="NH_label" x="1306.05" y="167.79" stroke-width="1.1" font-size="13.25" style="display: none;">
          <tspan id="NH_tspan" x="1306.05" y="167.79" fill="#000000" stroke-width="1.1" dy="0" font-family="Arial" font-size="16.56" font-style="normal" font-weight="400" style="text-align: center; fill: rgb(0, 0, 0);" text-anchor="middle">NH</tspan>
        </text>
        <text id="MI_label" x="1019.65" y="246.58" style="font-size: 19.2455px; stroke-width: 1.60379; display: none;">
          <tspan id="MI_tspan" x="1019.65" y="246.58" fill="#000000" dy="0" font-family="Arial" font-size="24.06" font-style="normal" font-weight="400" style="text-align: center; stroke-width: 2.57215; fill: rgb(0, 0, 0);" text-anchor="middle">MI</tspan>
        </text>
        <text id="VT_label" x="1274.28" y="145.01" stroke-width="1.05" font-size="12.65" style="display: none;">
          <tspan id="VT_tspan" x="1274.28" y="145.01" fill="#000000" stroke-width="1.05" dy="0" font-family="Arial" font-size="15.81" font-style="normal" font-weight="400" style="text-align: center; fill: rgb(0, 0, 0);" text-anchor="middle">VT</tspan>
        </text>
        <text id="ME_label" x="1338.99" y="105.14" stroke-width="1.45" font-size="17.36" style="display: none;">
          <tspan id="ME_tspan" x="1338.99" y="105.14" fill="#000000" stroke-width="1.45" dy="0" font-family="Arial" font-size="21.7" font-style="normal" font-weight="400" style="text-align: center; fill: rgb(0, 0, 0);" text-anchor="middle">ME</tspan>
        </text>
        <text id="RI_label" x="1361.38" y="262.84" stroke-width="1.25" font-size="14.98" style="display: none;">
          <tspan id="RI_tspan" x="1361.38" y="262.84" fill="#000000" stroke-width="1.25" dy="0" font-family="Arial" font-size="18.72" font-style="normal" font-weight="400" style="text-align: center; fill: rgb(0, 0, 0);" text-anchor="middle">RI</tspan>
        </text>
        <text id="NY_label" x="1227.27" y="204.12" style="font-size: 19.2455px; stroke-width: 1.60379; display: none;">
          <tspan id="NY_tspan" x="1227.27" y="204.12" fill="#000000" dy="0" font-family="Arial" font-size="24.06" font-style="normal" font-weight="400" style="text-align: center; stroke-width: 2.57215; fill: rgb(0, 0, 0);" text-anchor="middle">NY</tspan>
        </text>
        <text id="PA_label" x="1187.28" y="284.69" style="font-size: 19.2455px; stroke-width: 1.60379; display: none;">
          <tspan id="PA_tspan" x="1187.28" y="284.69" fill="#000000" dy="0" font-family="Arial" font-size="24.06" font-style="normal" font-weight="400" style="text-align: center; stroke-width: 2.57215; fill: rgb(0, 0, 0);" text-anchor="middle">PA</tspan>
        </text>
        <text id="NJ_label" x="1330.57" y="290.09" stroke-width="1.28" font-size="15.4" style="display: none;">
          <tspan id="NJ_tspan" x="1330.57" y="290.09" fill="#000000" stroke-width="1.28" dy="0" font-family="Arial" font-size="19.25" font-style="normal" font-weight="400" style="text-align: center; fill: rgb(0, 0, 0);" text-anchor="middle">NJ</tspan>
        </text>
        <text id="DE_label" x="1320.8" y="328.42" stroke-width="1.36" font-size="16.38" style="display: none;">
          <tspan id="DE_tspan" x="1320.8" y="328.42" fill="#000000" stroke-width="1.36" dy="0" font-family="Arial" font-size="20.47" font-style="normal" font-weight="400" style="text-align: center; fill: rgb(0, 0, 0);" text-anchor="middle">DE</tspan>
        </text>
        <text id="MD_label" x="1310.72" y="368.46" stroke-width="1.34" font-size="16.11" style="display: none;">
          <tspan id="MD_tspan" x="1310.72" y="368.46" fill="#000000" stroke-width="1.34" dy="0" font-family="Arial" font-size="20.13" font-style="normal" font-weight="400" style="text-align: center; fill: rgb(0, 0, 0);" text-anchor="middle">MD</tspan>
        </text>
        <text id="VA_label" x="1198.59" y="392.33" style="font-size: 19.2455px; stroke-width: 1.60379; display: none;">
          <tspan id="VA_tspan" x="1198.59" y="392.33" fill="#000000" dy="0" font-family="Arial" font-size="24.06" font-style="normal" font-weight="400" style="text-align: center; stroke-width: 2.57215; fill: rgb(0, 0, 0);" text-anchor="middle">VA</tspan>
        </text>
        <text id="WV_label" x="1129.66" y="382.3" style="font-size: 19.2455px; stroke-width: 1.60379; display: none;">
          <tspan id="WV_tspan" x="1129.66" y="382.3" fill="#000000" dy="0" font-family="Arial" font-size="24.06" font-style="normal" font-weight="400" style="text-align: center; stroke-width: 2.57215; fill: rgb(0, 0, 0);" text-anchor="middle">WV</tspan>
        </text>
        <text id="OH_label" x="1079.05" y="334.46" style="font-size: 19.2455px; stroke-width: 1.60379; display: none;">
          <tspan id="OH_tspan" x="1079.05" y="334.46" fill="#000000" dy="0" font-family="Arial" font-size="24.06" font-style="normal" font-weight="400" style="text-align: center; stroke-width: 2.57215; fill: rgb(0, 0, 0);" text-anchor="middle">OH</tspan>
        </text>
        <text id="IN_label" x="998.79" y="352.94" style="font-size: 19.2455px; stroke-width: 1.60379; display: none;">
          <tspan id="IN_tspan" x="998.79" y="352.94" fill="#000000" dy="0" font-family="Arial" font-size="24.06" font-style="normal" font-weight="400" style="text-align: center; stroke-width: 2.57215; fill: rgb(0, 0, 0);" text-anchor="middle">IN</tspan>
        </text>
        <text id="IL_label" x="927.43" y="364.36" style="font-size: 19.2455px; stroke-width: 1.60379; display: none;">
          <tspan id="IL_tspan" x="927.43" y="364.36" fill="#000000" dy="0" font-family="Arial" font-size="24.06" font-style="normal" font-weight="400" style="text-align: center; stroke-width: 2.57215; fill: rgb(0, 0, 0);" text-anchor="middle">IL</tspan>
        </text>
        <text id="CT_label" x="1299.17" y="228.46" stroke-width="1.06" font-size="12.74" style="display: none;">
          <tspan id="CT_tspan" x="1299.17" y="228.46" fill="#000000" stroke-width="1.06" dy="0" font-family="Arial" font-size="15.93" font-style="normal" font-weight="400" style="text-align: center; fill: rgb(0, 0, 0);" text-anchor="middle">CT</tspan>
        </text>
        <text id="WI_label" x="898.6" y="224.7" style="font-size: 19.2455px; stroke-width: 1.60379; display: none;">
          <tspan id="WI_tspan" x="898.6" y="224.7" fill="#000000" dy="0" font-family="Arial" font-size="24.06" font-style="normal" font-weight="400" style="text-align: center; stroke-width: 2.57215; fill: rgb(0, 0, 0);" text-anchor="middle">WI</tspan>
        </text>
        <text id="NC_label" x="1205.6" y="458.72" style="font-size: 19.2455px; stroke-width: 1.60379; display: none;">
          <tspan id="NC_tspan" x="1205.6" y="458.72" fill="#000000" dy="0" font-family="Arial" font-size="24.06" font-style="normal" font-weight="400" style="text-align: center; stroke-width: 2.57215; fill: rgb(0, 0, 0);" text-anchor="middle">NC</tspan>
        </text>
        <text id="MA_label" x="1305.87" y="200.67" stroke-width="1.04" font-size="12.46" style="display: none;">
          <tspan id="MA_tspan" x="1305.87" y="200.67" fill="#000000" stroke-width="1.04" dy="0" font-family="Arial" font-size="15.58" font-style="normal" font-weight="400" style="text-align: center; fill: rgb(0, 0, 0);" text-anchor="middle">MA</tspan>
        </text>
        <text id="MO_label" x="854.22" y="422.93" style="font-size: 19.2455px; stroke-width: 1.60379; display: none;">
          <tspan id="MO_tspan" x="854.22" y="422.93" fill="#000000" dy="0" font-family="Arial" font-size="24.06" font-style="normal" font-weight="400" style="text-align: center; stroke-width: 2.57215; fill: rgb(0, 0, 0);" text-anchor="middle">MO</tspan>
        </text>
        <text id="GA_label" x="1106.89" y="574.56" style="font-size: 19.2455px; stroke-width: 1.60379; display: none;">
          <tspan id="GA_tspan" x="1106.89" y="574.56" fill="#000000" dy="0" font-family="Arial" font-size="24.06" font-style="normal" font-weight="400" style="text-align: center; stroke-width: 2.57215; fill: rgb(0, 0, 0);" text-anchor="middle">GA</tspan>
        </text>
        <text id="SC_label" x="1166.32" y="522.49" style="font-size: 19.2455px; stroke-width: 1.60379; display: none;">
          <tspan id="SC_tspan" x="1166.32" y="522.49" fill="#000000" dy="0" font-family="Arial" font-size="24.06" font-style="normal" font-weight="400" style="text-align: center; stroke-width: 2.57215; fill: rgb(0, 0, 0);" text-anchor="middle">SC</tspan>
        </text>
        <text id="KY_label" x="1039.99" y="426.39" style="font-size: 19.2455px; stroke-width: 1.60379; display: none;">
          <tspan id="KY_tspan" x="1039.99" y="426.39" fill="#000000" dy="0" font-family="Arial" font-size="24.06" font-style="normal" font-weight="400" style="text-align: center; stroke-width: 2.57215; fill: rgb(0, 0, 0);" text-anchor="middle">KY</tspan>
        </text>
        <text id="AL_label" x="1019.59" y="578.15" style="font-size: 19.2455px; stroke-width: 1.60379; display: none;">
          <tspan id="AL_tspan" fill="#000000" dy="0" font-family="Arial" font-size="24.06" font-style="normal" font-weight="400" style="text-align: center; stroke-width: 2.57215; fill: rgb(0, 0, 0);" text-anchor="middle">AL</tspan>
        </text>
        <text id="LA_label" x="872.7" y="649.59" style="font-size: 19.2455px; stroke-width: 1.60379; display: none;">
          <tspan id="LA_tspan" x="872.7" y="649.59" fill="#000000" dy="0" font-family="Arial" font-size="24.06" font-style="normal" font-weight="400" style="text-align: center; stroke-width: 2.57215; fill: rgb(0, 0, 0);" text-anchor="middle">LA</tspan>
        </text>
        <text id="MS_label" x="940.37" y="592.21" style="font-size: 19.2455px; stroke-width: 1.60379; display: none;">
          <tspan id="MS_tspan" x="940.37" y="592.21" fill="#000000" dy="0" font-family="Arial" font-size="24.06" font-style="normal" font-weight="400" style="text-align: center; stroke-width: 2.57215; fill: rgb(0, 0, 0);" text-anchor="middle">MS</tspan>
        </text>
        <text id="IA_label" x="823.33" y="308.44" style="font-size: 19.2455px; stroke-width: 1.60379; display: none;">
          <tspan id="IA_tspan" x="823.33" y="308.44" fill="#000000" dy="0" font-family="Arial" font-size="24.06" font-style="normal" font-weight="400" style="text-align: center; stroke-width: 2.57215; fill: rgb(0, 0, 0);" text-anchor="middle">IA</tspan>
        </text>
        <text id="MN_label" x="790.84" y="183.37" style="font-size: 19.2455px; stroke-width: 1.60379; display: none;">
          <tspan id="MN_tspan" x="790.84" y="183.37" fill="#000000" dy="0" font-family="Arial" font-size="24.06" font-style="normal" font-weight="400" style="text-align: center; stroke-width: 2.57215; fill: rgb(0, 0, 0);" text-anchor="middle">MN</tspan>
        </text>
        <text id="OK_label" x="732.05" y="519.54" style="font-size: 19.2455px; stroke-width: 1.60379; display: none;">
          <tspan id="OK_tspan" x="732.05" y="519.54" fill="#000000" dy="0" font-family="Arial" font-size="24.06" font-style="normal" font-weight="400" style="text-align: center; stroke-width: 2.57215; fill: rgb(0, 0, 0);" text-anchor="middle">OK</tspan>
        </text>
        <text id="TX_label" x="710.59" y="652.87" style="font-size: 19.2455px; stroke-width: 1.60379; display: none;">
          <tspan id="TX_tspan" x="710.59" y="652.87" fill="#000000" dy="0" font-family="Arial" font-size="24.06" font-style="normal" font-weight="400" style="text-align: center; stroke-width: 2.57215; fill: rgb(0, 0, 0);" text-anchor="middle">TX</tspan>
        </text>
        <text id="NM_label" x="506.94" y="542.36" style="font-size: 19.2455px; stroke-width: 1.60379; display: none;">
          <tspan id="NM_tspan" x="506.94" y="542.36" fill="#000000" dy="0" font-family="Arial" font-size="24.06" font-style="normal" font-weight="400" style="text-align: center; stroke-width: 2.57215; fill: rgb(0, 0, 0);" text-anchor="middle">NM</tspan>
        </text>
        <text id="KS_label" x="701.21" y="427.26" style="font-size: 19.2455px; stroke-width: 1.60379; display: none;">
          <tspan id="KS_tspan" x="701.21" y="427.26" fill="#000000" dy="0" font-family="Arial" font-size="24.06" font-style="normal" font-weight="400" style="text-align: center; stroke-width: 2.57215; fill: rgb(0, 0, 0);" text-anchor="middle">KS</tspan>
        </text>
        <text id="NE_label" x="686.63" y="337.29" style="font-size: 19.2455px; stroke-width: 1.60379; display: none;">
          <tspan id="NE_tspan" x="686.63" y="337.29" fill="#000000" dy="0" font-family="Arial" font-size="24.06" font-style="normal" font-weight="400" style="text-align: center; stroke-width: 2.57215; fill: rgb(0, 0, 0);" text-anchor="middle">NE</tspan>
        </text>
        <text id="SD_label" x="663.02" y="238.75" style="font-size: 19.2455px; stroke-width: 1.60379; display: none;">
          <tspan id="SD_tspan" x="663.02" y="238.75" fill="#000000" dy="0" font-family="Arial" font-size="24.06" font-style="normal" font-weight="400" style="text-align: center; stroke-width: 2.57215; fill: rgb(0, 0, 0);" text-anchor="middle">SD</tspan>
        </text>
        <text id="ND_label" x="663.02" y="150.75" style="font-size: 19.2455px; stroke-width: 1.60379; display: none;">
          <tspan id="ND_tspan" x="663.02" y="150.75" fill="#000000" dy="0" font-family="Arial" font-size="24.06" font-style="normal" font-weight="400" style="text-align: center; stroke-width: 2.57215; fill: rgb(0, 0, 0);" text-anchor="middle">ND</tspan>
        </text>
        <text id="WY_label" x="499.57" y="276.47" style="font-size: 19.2455px; stroke-width: 1.60379; display: none;">
          <tspan id="WY_tspan" x="499.57" y="276.47" fill="#000000" dy="0" font-family="Arial" font-size="24.06" font-style="normal" font-weight="400" style="text-align: center; stroke-width: 2.57215; fill: rgb(0, 0, 0);" text-anchor="middle">WY</tspan>
        </text>
        <text id="MT_label" x="487.84" y="155.58" style="font-size: 19.2455px; stroke-width: 1.60379; display: none;">
          <tspan id="MT_tspan" x="487.84" y="155.58" fill="#000000" dy="0" font-family="Arial" font-size="24.06" font-style="normal" font-weight="400" style="text-align: center; stroke-width: 2.57215; fill: rgb(0, 0, 0);" text-anchor="middle">MT</tspan>
        </text>
        <text id="CO_label" x="525.13" y="406.28" style="font-size: 19.2455px; stroke-width: 1.60379; display: none;">
          <tspan id="CO_tspan" x="525.13" y="406.28" fill="#000000" dy="0" font-family="Arial" font-size="24.06" font-style="normal" font-weight="400" style="text-align: center; stroke-width: 2.57215; fill: rgb(0, 0, 0);" text-anchor="middle">CO</tspan>
        </text>
        <text id="ID_label" x="339.94" y="235.07" style="font-size: 19.2455px; stroke-width: 1.60379; display: none;">
          <tspan id="ID_tspan" x="339.94" y="235.07" fill="#000000" dy="0" font-family="Arial" font-size="24.06" font-style="normal" font-weight="400" style="text-align: center; stroke-width: 2.57215; fill: rgb(0, 0, 0);" text-anchor="middle">ID</tspan>
        </text>
        <text id="UT_label" x="396.81" y="386.73" style="font-size: 19.2455px; stroke-width: 1.60379; display: none;">
          <tspan id="UT_tspan" x="396.81" y="386.73" fill="#000000" dy="0" font-family="Arial" font-size="24.06" font-style="normal" font-weight="400" style="text-align: center; stroke-width: 2.57215; fill: rgb(0, 0, 0);" text-anchor="middle">UT</tspan>
        </text>
        <text id="AZ_label" x="366.76" y="536.9" style="font-size: 19.2455px; stroke-width: 1.60379; display: none;">
          <tspan id="AZ_tspan" x="366.76" y="536.9" fill="#000000" dy="0" font-family="Arial" font-size="24.06" font-style="normal" font-weight="400" style="text-align: center; stroke-width: 2.57215; fill: rgb(0, 0, 0);" text-anchor="middle">AZ</tspan>
        </text>
        <text id="NV_label" x="262.47" y="370.64" style="font-size: 19.2455px; stroke-width: 1.60379; display: none;">
          <tspan id="NV_tspan" x="262.47" y="370.64" fill="#000000" dy="0" font-family="Arial" font-size="24.06" font-style="normal" font-weight="400" style="text-align: center; stroke-width: 2.57215; fill: rgb(0, 0, 0);" text-anchor="middle">NV</tspan>
        </text>
        <text id="OR_label" x="214.43" y="206.88" style="font-size: 19.2455px; stroke-width: 1.60379; display: none;">
          <tspan id="OR_tspan" x="214.43" y="206.88" fill="#000000" dy="0" font-family="Arial" font-size="24.06" font-style="normal" font-weight="400" style="text-align: center; stroke-width: 2.57215; fill: rgb(0, 0, 0);" text-anchor="middle">OR</tspan>
        </text>
        <text id="WA_label" x="238.05" y="102.99" style="font-size: 19.2455px; stroke-width: 1.60379; display: none;">
          <tspan id="WA_tspan" x="238.05" y="102.99" fill="#000000" dy="0" font-family="Arial" font-size="24.06" font-style="normal" font-weight="400" style="text-align: center; stroke-width: 2.57215; fill: rgb(0, 0, 0);" text-anchor="middle">WA</tspan>
        </text>
        <text id="CA_label" x="191.69" y="434.8" style="font-size: 19.2455px; stroke-width: 1.60379; display: none;">
          <tspan id="CA_tspan" x="191.69" y="434.8" fill="#000000" dy="0" font-family="Arial" font-size="24.06" font-style="normal" font-weight="400" style="text-align: center; stroke-width: 2.57215; fill: rgb(0, 0, 0);" text-anchor="middle">CA</tspan>
        </text>
        <text id="DC_label" x="1309.32" y="398.19" stroke-width="1.29" font-size="15.45" style="display: none;">
          <tspan id="DC_tspan" x="1309.32" y="398.19" fill="#000000" stroke-width="1.29" dy="0" font-family="Arial" font-size="19.31" font-style="normal" font-weight="400" style="text-align: center; fill: rgb(0, 0, 0);" text-anchor="middle">DC</tspan>
        </text>
        <text id="TN_label" x="1018.93" y="485.72" style="font-size: 19.2455px; stroke-width: 1.60379; display: none;">
          <tspan id="TN_tspan" x="1018.93" y="485.72" fill="#000000" dy="0" font-family="Arial" font-size="24.06" font-style="normal" font-weight="400" style="text-align: center; stroke-width: 2.57215; fill: rgb(0, 0, 0);" text-anchor="middle">TN</tspan>
        </text>
        <text id="AR_label" x="863.15" y="535.77" style="font-size: 19.2455px; stroke-width: 1.60379; display: none;">
          <tspan id="AR_tspan" x="863.15" y="535.77" fill="#000000" dy="0" font-family="Arial" font-size="24.06" font-style="normal" font-weight="400" style="text-align: center; stroke-width: 2.57215; fill: rgb(0, 0, 0);" text-anchor="middle">AR</tspan>
        </text>
      </g>
      <g id="state_borders" transform="translate(-0.04777967,-0.15336683)" stroke="rgb(209, 219, 221)" style="stroke: rgb(0, 0, 0);" stroke-width="0.3">
        <path id="OK_MO_border" d="m804.38 461.2.28 4.82.74 11.02" stroke="rgb(209, 219, 221)" stroke-width="0.3" fill="none" style="stroke: rgb(0, 0, 0); display: none;"/>
        <path id="OK_CO_border" d="m595.62 465.33.38.04 4.33.08 2.86.2 16.33.36" stroke="rgb(209, 219, 221)" stroke-width="0.3" fill="none" style="stroke: rgb(0, 0, 0); display: none;"/>
        <path id="OK_AR_border" d="m805.4 477.04 1.2 6.26.93 4.64 1.42 6.85 2.22 11.03.52 2.7.7 3.26.2 6.5.35 9.24.7 17.23.98 22.6" stroke="rgb(209, 219, 221)" stroke-width="0.3" fill="none" style="stroke: rgb(0, 0, 0); display: none;"/>
        <path id="OK_NM_border" d="m595.23 481.19.39-15.86" stroke="rgb(209, 219, 221)" stroke-width="0.3" fill="none" style="stroke: rgb(0, 0, 0); display: none;"/>
      </g>
      <rect id="selection-rectangle" fill="#ffffccaa" stroke="rgb(209, 219, 221)" stroke-width="0.1"/>
      <ellipse id="selection-ellipse" fill="#ffffccaa" stroke="rgb(209, 219, 221)" stroke-width="0.1"/>
      <polygon id="selection-polygon" fill="#ffffccaa" stroke="rgb(209, 219, 221)" stroke-width="0.1"/>
      <polyline id="selection-polyline" fill="#ffffccaa" stroke="rgb(209, 219, 221)" stroke-width="0.1"/>
    </svg>
  </g>
</svg>
