<?xml version='1.0' encoding='UTF-8'?>
<svg xmlns="http://www.w3.org/2000/svg" xmlns:dc="http://purl.org/dc/elements/1.1/" xmlns:ns2="http://creativecommons.org/ns#" xmlns:rdf="http://www.w3.org/1999/02/22-rdf-syntax-ns#" id="wrapper" viewBox="0 0 1520 840" preserveAspectRatio="xMinYMin" height="840" width="1520" style="background-color: rgb(255, 255, 255);">
  <metadata>
    <rdf:rdf>
      <ns2:work rdf:about="">
        <dc:format>image/svg+xml</dc:format>
        <dc:type rdf:resource="http://purl.org/dc/dcmitype/StillImage"/>
        <dc:title>MapChart Map</dc:title>
        <dc:creator>
          <ns2:agent>
            <dc:title>MapChart.net</dc:title>
          </ns2:agent>
        </dc:creator>
        <ns2:license rdf:resource="http://creativecommons.org/licenses/by-sa/4.0/"/>
        <dc:description>This map was created with MapChart.net, a website for creating custom maps.</dc:description>
      </ns2:work>
      <ns2:license rdf:about="http://creativecommons.org/licenses/by-sa/4.0/">
        <ns2:permits rdf:resource="http://creativecommons.org/ns#Reproduction"/>
        <ns2:permits rdf:resource="http://creativecommons.org/ns#Distribution"/>
        <ns2:requires rdf:resource="http://creativecommons.org/ns#Notice"/>
        <ns2:requires rdf:resource="http://creativecommons.org/ns#Attribution"/>
        <ns2:requires rdf:resource="http://creativecommons.org/ns#ShareAlike"/>
      </ns2:license>
    </rdf:rdf>
  </metadata>
  <g id="map-group" transform="translate(-191.89486695424796,-458.4776652139884) scale(4.57432962404474)">
    <svg id="map" width="1520" height="840" version="1.1" viewBox="0 0 1520 840" preserveAspectRatio="xMinYMin" data-originalStrokeWidth="0.3">
      <defs>
        <pattern id="circles3" width="10" height="10" patternUnits="userSpaceOnUse">    <rect width="10" height="10" fill="#fff"/>    <circle cx="4" cy="4" r="2" fill="#000"/>    </pattern>
        <pattern id="diagonal1" width="10" height="10" patternUnits="userSpaceOnUse">    <rect width="10" height="10" fill="#fff"/>    </pattern>
        <pattern id="diagonal3" width="10" height="10" patternUnits="userSpaceOnUse">    <rect width="10" height="10" fill="#fff"/>    </pattern>
        <pattern id="vertical1" width="10" height="10" patternUnits="userSpaceOnUse">    <rect width="10" height="10" fill="#fff"/>    <rect x="2" y="0" width="1" height="10" fill="#000"/>    </pattern>
        <pattern id="vertical3" width="10" height="10" patternUnits="userSpaceOnUse">    <rect width="10" height="10" fill="#fff"/>    <rect x="2" y="0" width="3" height="10" fill="#000"/>    </pattern>
        <pattern id="horizontal1" width="10" height="10" patternUnits="userSpaceOnUse">    <rect width="10" height="10" fill="#fff"/>    <rect x="0" y="2" width="10" height="1" fill="#000"/>    </pattern>
        <pattern id="horizontal3" width="10" height="10" patternUnits="userSpaceOnUse">    <rect width="10" height="10" fill="#fff"/>    <rect x="0" y="2" width="10" height="3" fill="#000"/>    </pattern>
        <pattern id="crosshatch" width="8" height="8" patternUnits="userSpaceOnUse">    <rect width="8" height="8" fill="#fff"/>    </pattern>
        <pattern id="subtlepatch" width="5" height="5" patternUnits="userSpaceOnUse">    <rect width="5" height="5" fill="#fff"/>    <rect x="2" y="2" width="1" height="1" fill="#000"/>    </pattern>
        <pattern id="checkers" width="8" height="8" patternUnits="userSpaceOnUse">    <rect width="8" height="8" fill="#fff"/>    </pattern>
        <pattern id="raindrops" width="10" height="10" patternUnits="userSpaceOnUse">    <rect width="10" height="10" fill="#fff"/>    </pattern>
        <pattern id="texture" width="4" height="4" patternUnits="userSpaceOnUse">    <rect width="4" height="4" fill="#fff"/>    </pattern>
        <pattern id="circles3_a03500_000000" width="10" height="10" patternUnits="userSpaceOnUse">    <rect width="10" height="10" fill="#a03500"/>    <circle cx="4" cy="4" r="2" fill="#000000"/>    </pattern>
        <pattern id="diagonal1_d9b400_535353" width="10" height="10" patternUnits="userSpaceOnUse">    <rect width="10" height="10" fill="#d9b400"/>    </pattern>
        <pattern id="diagonal3_3264c8_ffffff" width="10" height="10" patternUnits="userSpaceOnUse">    <rect width="10" height="10" fill="#3264c8"/>    </pattern>
        <pattern id="horizontal1_72b38e_000000" width="10" height="10" patternUnits="userSpaceOnUse">    <rect width="10" height="10" fill="#72b38e"/>    <rect x="0" y="2" width="10" height="1" fill="#000000"/>    </pattern>
        <pattern id="horizontal3_986ba1_ffffff" width="10" height="10" patternUnits="userSpaceOnUse">    <rect width="10" height="10" fill="#986ba1"/>    <rect x="0" y="2" width="10" height="3" fill="#ffffff"/>    </pattern>
        <pattern id="vertical1_b9a087_ffffff" width="10" height="10" patternUnits="userSpaceOnUse">    <rect width="10" height="10" fill="#b9a087"/>    <rect x="2" y="0" width="1" height="10" fill="#ffffff"/>    </pattern>
        <pattern id="vertical3_4c91bf_ffff33" width="10" height="10" patternUnits="userSpaceOnUse">    <rect width="10" height="10" fill="#4c91bf"/>    <rect x="2" y="0" width="3" height="10" fill="#ffff33"/>    </pattern>
        <pattern id="checkers_cc3333_f7f7f7" width="8" height="8" patternUnits="userSpaceOnUse">    <rect width="8" height="8" fill="#cc3333"/>    </pattern>
        <pattern id="texture_d1dbdd_525252" width="4" height="4" patternUnits="userSpaceOnUse">    <rect width="4" height="4" fill="#d1dbdd"/>    </pattern>
        <style id="map-style">svg { background-color: #ffffff; }</style>
      </defs>
      <path id="OR01" d="m158.88 112.92.98-.12.46.17.19.2.33.55.28.74-.33 1.13-.1.3.31.52.35.52.2.18.14.17.22.06.9.24.37.12.45.1 1.63-.5 1.1-.27.84.31.21.07.18.28.97 1 .05.1.27.33.3.25.23.18.65 1.06.04.06.6.5.48.42.22.75.03.07-.09.93.04.05.32.57.15 1.12.36.75-.04.9-.25.57.07.93.09.33.08.25-.2.71-.35.54-.1.46.34 1.04.02.7-.15.77-.5.99-.19.58.05.76.04.04-.28.3-.46.28-.16.4.13.69.2.5.31.34.18.3.34.46.34.3.47.84.15.1.31-.06.57.04-.16.64h-.2l-.13.4-.45-.26-.19-.02-.21.5-.08.63-.43-.3-.7.35-.29.02-.13.17h-.27l.31-1.34h-.13l-.93-.23.02.56-.38-.1v.08l-.73-.12-.1.39-.14-.04-.11.14-.12.55.19.17-.07.29-.14.1-.06.24.2.14h-.24l-.17.3-.13-.02-.22.49-.19.1-.92-.21-.07.21-.27.31-.29.02-.73-.18-.14-.1.08-.37-.45-.13.1-.44-.42-.13.1-.44-.44-.11.1-.44-1.77-.4.1-.44-.44-.11.1-.45-5.16-1.27-1.93-.44-.14.53-.46 2.16-.97 3.96-3.09-.78-.8-.2-.91-.2-2.12-.53-1.05 4.28 1.3.32-.25.98-4.3-1.12-1.84-.43-.15-.2.32-.8.2-.2.42-.2.7-1.5.31-.8.26-.86.04-.47-.08-.13.17-.2.6-1.59.25-1.14-.04-.64-.1-.09-.65-.1.02-.08.67-.1.2-.18.4-.92.44-1.33.06-.58-.09-.62.21-.4-.14-.22.44-.21.19-.4.44-1.03.16-.58-.11-.24.2-.43.83-2.26.22-.8.23-1.2-.03-.2-.29-.4-.08-.28.14-.22-.1-.18-.24.01.04-.2.4-.3.59-1.67.09-.63.1-.2.22-1.37-.16-.37.1-.32-.25-.39.04-.24.48-.2.2-.37.31-.09.44.03.45-.93.22-1 .14-.94.03-1.43-.04-.84-.12-.91-.34-1.86-.2-.25.24-.17.27.08.16.35-.21.2.06.33.2.13.18-.14.37.27.1.19.74.88-.04.38.2.17.2-.07.15.22.37.28.36-.07.08-.27-.38-.4-.08-.25.25.04.22-.08.5.19.89-.05.64-.32.2.37.18.12.27.47.53.1.47-.15.1-.44.23-.12.44.26.53.07.44-.21.46-.07.87-.37.18-.3m-2.46-.2.23.07-.48.01.25-.08m-7.28-2.51-.13.05-.11-.24-.19-.1-.1-.29.2-.04.12-.2.08.62.13.2" fill="#d1dbdd" stroke="rgb(209, 219, 221)" stroke-width="0.1" data-originalStrokeWidth="0.1" style="stroke: rgb(0, 0, 0); fill: rgb(209, 219, 221); pointer-events: auto; stroke-width: 0.1;" pointer-events="auto"/>
      <path id="OR02" d="m147.97 248.46-.23-.04-.47-.1-.85-.2-.44-.08-.38-.08-.04-.02-.92-.22-.43-.1-.42-.1-.34-.08-.55-.12-.36-.08-1.31-.31-.9-.22-.35-.07-.9-.2-.84-.22-.8-.24-.7-.25-.73-.23-.9-.11-.88-.17-2.86-.52-2.22-.6-1.18-.29-.13-.04-.22-.05-.49-.11-.64-.16-1.35-.3-.8-.04-1.59-.47-1.34-.3h-.05l-.03-.01-.07-.02-.38-.07-.25-.08-.08-.18.02-.34-.2-.18.2-.41-.12-.09-.07-.47.26-.17.04-.22.42-.34.22-.42-.09-.34.03-.35-.11-.32.07-.23-.15-.06-.21-.37.13-.17.28-.1.15-.17.4-.06.34-.3.1-.46-.13-.23.16-.4.11-.04.13-.26.52-.05.08-.55-.4-.3.09-.11v-.48l-.15-.09.01-.38-.2-.46.06-.18-.17-.18.27-.37-.1-.23-.31-.08-.2-.19-.09-.44.08-.3-.26-.31-.19.06-.48-.02-.25-.37v-.19l-.33.08-.8-.3-.91-.21-.14-.39.08-.38-.06-.13.26-.47.57-.2.16-.22-.02-.44.17-.2.19-.07.3-1.2-.17-.2.12-.21.5-.05v.12l.3.17.64-.03.2.07.15.22.88.02.2-.2.26-.11-.04-.27.47-.55.28-.16-.05-.38.35-.36.08-.3.52-.23.13-.33.18-.05.08-.33-.2-.24.08-.2 1.77-1.77.55-.52.12-.34.2-.26.37-.3.22-.46.28-.13.2-.28-.38.07-.2-.3-.15-.03-.63-.54-.21.02-.34.23-.19-.07.28-1.1-.2-.05.25-.9.43-1.72.06-.43.33-1.29.52.17.63.09.53-.12.56-.36.03-.14.7-.35h.17l.48-.4.43-.47.12-.06.35-.46.41-.06.12.18.67-.03.5-.16.54-.47.45-.11 1.1-.12.13.12.12.4.66-.05-.05.16.48.18.09.29.2.37.3.23.25.04.19-.3.18-.03.17.75.13-.02-.13-.3V211l.1-.35.34-.21-.1-.43.14-.67.06.01.1-.46-.04-.25.17-.17-.03-.23.74-.4.72-.04.5.06.88.25.19.18.18-.1.44.05.17.12.67.16.85-.25.2-.3 1.52-.79.04-.16.29.1.14-.01.46.32.4.2.43-.12.34.06.61-.36-.07-.06.36-.12.12-.17-.38-.4.01-.16-.63-.5-.07-.32-.22-.06.46-.09.2-.53-.44-.65.18-.32.19-.02.39.1.22-.9.4.09.14-.5.43.13.08-.35h.32l.1-.16.17-.77.25.06.1-.46.28.05.1-.44.38.1.08-.35 1.7.42 1.65.37-.57 2.47 2.64.6v-.05l2.54.58.02-.04 5.28 1.23-.02.04 3.08.71-.12-.18-.2.03-.1-.18.23-.19.15.03.05-.37.11-.02.22-.5-.02-.17.16-.17v-.45l-.25-.15-.04-.25.27-.22v-.25l.2-.2.18-.36.36-.09.38-.3.26-.1.22.11.27-.01.04-.25.18.04.65-.3.68-.1.25-.18.1-.29.52.13.19-.01-.19-.43-.02-.42.06-.29.2-.32.16-.44.13-.1.22-.35-.12-.09.08-.3-.05-.29.13-.17-.07-.43.57-.53-.13-.15.06-.23.22-.15-.1-.22.07-.43.14-.2.21.02.2.18.3.1.07.18.25.19.37.1.43-.08-.09-.2.68.18.81-.27.58-.13 1.16.17.47-.11.13.22.34.2.25.04.5-.12.41.23.33-.05.76.43.15-.32.2-.1.3.21.5-.23.83-.13.14.6.26-.14.17.03.23-.36.4.1.13.18-.01.2-.17-.02.15.32-.29.53.75.15.09-.24.24-.42.68-.66-.1-.09.26-.26 1.09-.7.13-.15.06-.5.32-.97.31.03.29-.83.46-.18.39.05.07-.18.38-.07.04.13.67.15.29-1.33-.21-.06.23-1.12.22.06.05-.23.32.06.26-.7.2.02.2-.13.16-.25.44-.43.4-.25.95.22.3.06.39-.21.31-1.53-.11-.03.98-4.47.18-.83-2.65-.6v-.06l-2.24-.5-3.1-.7-3.57-.77-.85-.23-.58-1.28-.4-.05-.81.12-.37-.1-.38-.24-.45-.16-.28.03-.25-.12.03-.3.2-.3-.07-.33.05-.43.22-.3-.1-.2.1-.2.57-.38.1-.12.33-.09-.03-.59.12-.27.3-.3.08-.3.3-.71.1-.14-.09-.22.02-.32-.16-.16.15-.42.31-.33.1-.42-.04-.19.2-.74.3-.1-.18-.52v-.19l.2-.14.1-.3-.2-.17.48-.5.14-.51.13-.2-.26-.08.02-.13-.32-.22-.09-.28.05-.35.25-.12v-.16l.44.04.4-.13.57-1.59.39-1.13.32-.56-.15-.4-.4.1-.35-.14.26-.2-.03-.82-.1-.24.07-.15.14-.95.29-.08.23.12.14-.32-.02-.25.38-.1.52.27 1.09-3.05-.34-.48-.03-.5.22-.15.2.05-.23-.73.1-.4.28-.02.16-.1.32.08.2-.24.27-.15.3-.14.24-.5-.17-.08-.1-.23 2.42.54 2.22.48.12-.43.3-1.32.18-.93 1.16-5.36.9.19.24-1.03.23-1.2.12-.43.6-2.8.36.18.46.15.7-.17.77.12.5.26.46.53.76.46.68.35.18.74-.01.05-.03.6-.1.38.2.39.34.08.5.04.16-.1.14.11.1-.07.1-.05h.02l.15-.12v-.03l-.03-.09.92-.59.48-.04.66.19.57.05.49.26.7-.1.2.03.55.64.4.01 1.06-.7 1.54-.14 1.42-.3.9-.14.52-.34.84-.34.96.18.64.4.6 1.02.29.4.47.27 1.72.22 1.75-.02 1-.12 1.59.2 1.1-.94.7-.22 1.6-.05 1.34-.43 1.15-.31 1.3.14 1.32-.11 1.05-.01.63.17 2.29.1 1.3-1.28.58-.34.65-.05.92.73.77.23.87-.2 1.87.26.76-.15.23-.03h.52l.29.02.64.05.62.35.63.28.56.11.95.03.77-.16.8-.36.78-.19.47-.21.58-.57.24.04h.01l1.88.35.85.17.67.12.9.18 2.1.4h.02l.41.07.46.1 1 .2.46.07 1.56.31 1.25.25.67.11.1.04.34.05.2.04.81.16.55.09.13.03.55.1 1.02.2 1.21.22.73.15.67.1 1.24.25 2.88.53.48.1 1.37.25 2.33.43 1.04.2.99.2.47.07.55.13.89.16.88.18.85.15.46.07.74.12.6.14.58.13.04.02h.37l1.28.22.4.08 1.56.27 2.09.4.61.12.25.05 1.35.22 1.52.3.05.1.02.08.02.06.12.18.1.06.04.1v.01l.07.08v.03l-.02.1-.06.12v.12l.04.12v.04l.04.05.1.04.08.01.04.05.04.08v.15l-.03.06-.02.11v.08l.02.11v.09l.03.13v.05l-.03.11-.01.1.02.06.02.16.02.08.03.1.08.26.05.04.09.13.05.1.04.13.06.08.03.01.18.16.1.11.1.1.02.02.05.06.03.04.02.1.04.06.06.19.03.1.07.07.07.06v.04l-.01.05.04.13.04.16.02.13v.16l-.05.1-.02.12v.05l.1.23.04.02.12.06.01.04.07.05.04.06.08.1.05.03.16-.01.1-.04.1-.06.13-.09.13-.03.22.03.07.03h.12l.1.03.06.04.1.13.05.04h.06v.04l.03.11.01.18.04.05.08.13.01.08v.03l.03.12.02.16.04.06.07.1.09.12.01.06.06.1.08.07.09.03.16.02.12.01.11-.02.06-.03.09-.06h.03l.1.05.04.08h.18l.09.05h.06l.1.04.09.07.13.04.06.06.05.1.05.08.05.04.07.1.06.09.06.07.1.06.03.06.04.1.05.06.02.05.03.03.09.05h.06l.03.04.04.07v.07l.06.14.04.15.02.1v.06l.03.03-.04.12-.02.06-.02.1-.08.28.01.14-.03.12v.08l-.02.15-.01.11v.16l.06.18v.08l.03.06.05.07.02.08.04.03.08.06.1.19.03.1.07.12v.05l.1.13.07.04.1.14.04.1.01.07v.03l-.02.1v.01l.1.09v.06l-.05.2.02.03.04.02.07.02.04.04.06.07-.02.05-.03.07.04.15.1.13v.07l-.02.12-.03.25-.11.12-.13.13-.08.05-.03.05-.11.04-.04.04-.02.05-.04.07.04.06v.03l-.03.07-.04.04-.09.01-.06.02-.09.06-.05.04-.13.07-.07.05v.1l-.02.04-.08.08-.05.02-.06.02h-.05l-.1-.03-.1.02-.08.05-.08.06v.05l.05.01.03.04v.06l-.05.04-.09.17-.24.44-.3.35-.23.1.02.35-.2.48-.01.54-.24.08-.6.42-.36.92-.55.37-.12.14v.02l-.35.5-.1.1v.04h-.03l-.04.05-.01.04-.23.33-.16.17-.01.03-.04.05-.03.03-.35.54-.04.05-.05.07-.06.11-.02.07v.15l-.02.07v.09l-.02.16-.01.1v.12l-.02.1-.02.07-.02.11-.05.14-.15.23-.07.05-.13.07-.04.05-.1.07-.05.1-.05.09-.03.07-.03.07-.06.1-.03.1-.05.08-.09.07-.06.36-.18.33-.07.44-.49.92-.04.26-.2.58-.14.15-.29.13-.07.26-.14.07-.09.23-.49.19-.24.33-.07.33-.04.19-.38.47-.3.25-.31.2-.1.13-.45.19-.15.2-.03.67-.27.34-.16.33.04.1.03.08.04.04.07.02h.04l.08-.1.03-.05.04-.07.04-.08.05-.02.14-.01.12.03v.05l-.06.1-.06.07-.04.07-.1.09-.03.05-.08.02-.3.2.05.29.07.13.05.07.07.19.04.24-.01.05-.05.07-.13.22-.04.1-.16.3-.06.07-.06.1-.07.16-.03.08-.05.1-.02.09-.06.03-.09.1v.06l-.09.09-.03.05-.1.14-.04.02-.13.05-.1.01-.05.06-.04.08-.1.1-.12.07-.2-.04-.05.05-.01.07.04.06v.05l-.08.18-.04.05-.03.12-.03.02-.11.02-.5.67-.25.22-.03.36-.12.21-.36.13-.4.02-.6.39-.24.08-.32-.07-.18.15-.16-.04-.37.13-.09.1-.11.27-.28.11v.2l-.17.55-.2.05-.2.3-.06.1-.02.08.03.13-.02.07-.06.11-.13.05-.26.2-.04.38-.13.35-.3.37-.19.09-.16.25-.23.68-.01.26-.26.23-.3.16-.07.2.07.17-.07.36-.27.4-.22.17h-.48l-.27.35-.06.2-.23.33-.23.16-.17-.04-.19.04-.08.26.1.54-.14 1-.37.63-.38.21-.04.18.07.56.72 1 .07.38-.48.66-.22.04-.11.16-.09.12.12.44.14.25.1.13.2.26.37.37.62.14.59-.54.36.02.19.37v.29l.22.37.18.18.18.32.03.18.16.08.07-.03.14-.37.26-.14.33.16.19.01.58.15.15.18v.16l-.07.18.02.37-.12.29-.02.3.2.2.36.11.08-.04.15.01.22.12.18.3.23.13.13.3-.01.29-.08.25-.13.1-.3.28-.13.4-.29.2-.13.36-.37.32-.27.03-.17.01-.3.05-.09.15v.07l-.05.67-.04.17-.01.16.1.08.26.22.22.23.08.13.04.23.02.04-.12.37-.22.22.03.13.1.3-.1.17-.44-.03-.05.02-.07.02-.07.1-.05.04-.01-.04h-.1l-.06.01-.02.05-.02.04.03.08.06.01v.1l.2.04.06.07-.34.24.23.08v.05l-.04.07-.04.14-.06.1-.1.04-.03.1v.1l.17.26-.1.3-.45.03v.18l.02.12-.02.25-.12.27-.17.35.01.27-.23.1-.36-.03-.34.13v.11l.2.18-.11.29-.22-.1-.24.2-.04.18.18.32-.02.11-.04.06-.06.07-.06.13-.03.27-.06.27-.07.5-.07.39v.02l-.14.75-.3 1.64v.04l-.22 1.3-.22 1.3-.12.63v.08l-.1.5-.18 1.16-.14.7-.1.5-.78 4.65-.32 1.85-.47 2.74-.2 1.06-.03.17-.04.34-.07.4-.17.88-.1.62-.44 2.53-.2 1.19-.01.1-.22 1.23-.24 1.41-.2 1.2-.61 3.57-.2 1.06-.33 1.8-.23 1.5-.26 1.44-.16.96-.06.3-.26 1.49-.14.86-.12.69-.2 1.11-.16 1.03-.48 2.8-.25 1.36-.53 3.06-.4 2.34-.08.37-.02.21-2.45-.45-1.93-.32-4.26-.73-2.23-.42-.67-.1-2.16-.36-.5-.07-.28-.07-1.38-.25-.1-.02-.93-.17-3.46-.63-1.03-.19-.93-.16-2.83-.5-.11-.03-1.54-.27-1.06-.2-1.4-.26-.38-.06-1.3-.23-.45-.07-3.24-.6-.72-.12-1.5-.24h-.1l-.85-.16-.72-.12-.68-.15-.63-.11-.98-.2-1.41-.29-2.99-.61-2.6-.5-1.12-.22-.9-.18-.43-.1-2.25-.44-.34-.07-.9-.2-.57-.12-2.11-.47-1.83-.35-1.64-.34-.6-.14-.87-.17-.52-.1-1-.24-1.1-.24-2.8-.53-.44-.08-.43-.08-.29-.04-.97-.2-.67-.15-.94-.18-1.06-.21-.15-.03-.74-.15-.95-.17-.4-.07-.6-.11-.26-.06-.06-.03-.65-.11-4.14-.9-.56-.13-1.15-.23-1.79-.39-.43-.1-1.31-.28-.22-.04-1.12-.26-1.03-.21-1.44-.31-.48-.11-.61-.11-.44-.1-.37-.07-.67-.16-.56-.15-.25-.07-.85-.2-.4-.1-.33-.09-.96-.25-.95-.22-.92-.2-.4-.1-.65-.12-.44-.1-.67-.12-.33-.08-1.05-.24-.39-.1-.29-.07-.1-.02-.16-.05-.8-.19-.2-.04-.24-.05-.38-.1h-.02l-.34-.07-.1-.04-1.37-.32-.66-.17-1.1-.28-.9-.21-.86-.2-3-.76-1.14-.26-.41-.08-1.74-.45-.3-.1-2.19-.53-.26-.07-.57-.15-1.23-.29-.57-.14-1.33-.32-.7-.2-1.08-.23-.4-.08-1.29-.3-.94-.22-.5-.1-.67-.13-1.1-.22" fill="#d1dbdd" stroke="rgb(209, 219, 221)" stroke-width="0.1" data-originalStrokeWidth="0.1" style="stroke: rgb(0, 0, 0); fill: rgb(209, 219, 221); pointer-events: auto; stroke-width: 0.1;" pointer-events="auto"/>
      <path id="OR03" d="m171.79 141.78.09-.64.2-.5.2.04.45.27.14-.43.19.01.16-.64-.57-.04-.3.07-.16-.11-.47-.84-.34-.3-.34-.45-.18-.31-.31-.35-.19-.5-.13-.68.15-.4.46-.27.27-.31.42.5.5.32.52.67.77.53.76.23.95.52.21.12.52.36.37.21.25.15.26.17.45.5.3.2.46.01.18.01.45-.12h.26l.55.36.3.74.72.33.65.13.08.02.31-.06 1.18-.28.46-.28.93-.01.49.2h.42l1.37-.5.54-.05.39.06.48-.12.5-.21.23-.3.23.03.22.05.65-.17.2-.21.04-.25.91-.54 1.3-.13 1.54.76.61.1.9-.12.8.19 2.23-.2.7.35.1.08.57.68.42.23-.6 2.8-.11.41-.24 1.2-.23 1.04-.9-.19-1.16 5.36-.2.93-.29 1.32-.12.43-2.22-.48-2.43-.55.1.24.18.07-.24.51-.3.14.04-.44-.37.33-.68.15-.1-.1-.2.08-.62-.07-.18-.28-.4-.14-.22-.15-.37-.05-.21.11-.21-.06-.3-.33-.15-.47-.16-.1-.45-.8-.3-.26-.26.3-1.21-.27-.4 1.77-.13-.09-.26.02-.14-.13.04-.44-.32.05-.13.12-.36-.06-.08-.26-.3.1-.29-.02-.32.16-1.13-.23-.66-.25-.2-.02-.26-.35-.01-.34-.19-.22-.1.45-.17-.03-.36-.69-.13.09-.56-.1-.03-.25-.33-.13.08-.37-.37-.46.05-.23.4.17-.12-.38-.37-.37-.1-.45-.33.03.01-.23.16-.1-.5-.38.19-.16.06-.27-.14-.22.2-.1-.02-.25.12-.2-.26-.44.01-.17-.2-.2-.19-.4-.25-.07-.09.1-.73-.15.02-.19-.18-.03-.46-.26-.12-.45-.1-.02.1-.43-.2-.35-.19-.04.27-.43-.26-.5-.5-.15.31-.35-.07-.14-.92-.25-.08.2-.63-.04-.02.17-.61-.15" fill="#d1dbdd" stroke="rgb(209, 219, 221)" stroke-width="0.1" data-originalStrokeWidth="0.1" style="stroke: rgb(0, 0, 0); fill: rgb(209, 219, 221); pointer-events: auto; stroke-width: 0.1;" pointer-events="auto"/>
      <path id="OR04" d="m139.76 147.57 1.83.43 4.3 1.12-.36 1.34h.04l-.7 2.72-.1.42-.77 3.09-.42 1.77.45.13-.14.53 2.22.56.45.17.86.14.75.2 2.68.66 1.9.48.76.18 2.43.59v.29l.4.74-.02.48.1.09.42.05.1.38.17.29-.17.3-.65.1-.3-.13-.32.02-.67-.17-.19.06-.1.43-.17-.03-.14.26-.3.14-.12.21.28.2-.13.34.07.04-.13.42h-.46l-.22.93-.15-.04.08.25-.25.22-.07.45-.2.44-.17.09.11.19-.13.34-.02.57.1.25-.16.23-.27-.01-.13.19.02.4-.29-.03.04.66-.27.17-.26-.01.05.32.25.2.07.37-.36.02.06.38-.33.15-.13.2.16.1.25-.01.15.24-.09.42.41.2.07.42-.1.25.2.17.02.54-.21.5.15.15.07.41.21.32-.27.33-.25.41 1.5.35 4.18.98.48-1.79.83.2.22-.86.72.34.1.29.2-.01.23-.23.42.08.23.11.36-.15.22.24h.47l.08.19.41.26.12-.03.2.24.27.08.13.19.26-.02.2.18-.06.42.1.16.38.08.36.27.23.05.33.4-.08.18h.59l.06-.09.33.14.1.24.34-.08.14.36.51.2.33-.04.34.26.33-.05.65.18-.03.1.46.1-.05.2.37.12.23-.07.17-.2.26.04.37-.23.08-.2-.1-.2.17-.26 1.37.32.02-.03 5.19 1.2.01-.1 2.6.56 2.42.54.16.32-.05.44.1.54-.17.08-.08.67.1.32-.2.26.12.3-.27.18-.14.36.2.3-.08.5.02.28-.27.74-.23.3-.26.1-.44.63-.38-.06-.45.37.1.28v.57l-.26.5-.48.48.17.19-.51.09-.3.87-.11.1-.08.34-.18.28-.18.07-.3-.08-.17-.3-.64.09-.3.2.15.09-.06.16-.54.37v.16l-.65.37-.08.46-.17.41h.1l-.17.52.22.18-.14.21-.07.43.1.22-.22.15-.05.23.12.15-.57.53.07.43-.13.18.06.28-.08.3.1.08-.21.37-.13.09-.17.44-.2.31-.05.3.02.42.2.43h-.2l-.52-.1-.1.28-.25.17-.67.1-.66.3-.18-.04-.04.25-.27.01-.22-.1-.26.09-.38.3-.36.09-.19.37-.2.2v.24l-.27.22.05.25.25.15v.45l-.16.17.02.19-.22.49-.11.01-.05.37-.15-.03-.22.18.09.18h.19l.13.16-3.08-.7.02-.05-5.28-1.23-.02.04-2.53-.58-.01.04-2.64-.59.57-2.47-1.64-.37-1.7-.42-.08.35-.38-.1-.11.44-.27-.05-.11.46-.25-.06-.16.77-.11.15h-.32l-.08.36-.43-.14-.14.5-.4-.09-.21.9-.41-.1-.18.03-.17.3.44.67-.21.53-.46.09.22.06.07.33.63.49v.15l.37.41-.12.17-.36.12.07.06-.6.36-.36-.07-.44.12-.39-.19-.45-.32-.15.02-.28-.11-.04.16-1.53.78-.18.3-.87.25-.66-.15-.17-.12-.45-.06-.17.1-.2-.17-.86-.25-.51-.06-.73.04-.74.4.04.23-.17.17.03.25-.09.46-.06-.01-.13.67.1.42-.36.22-.1.35.01.35.13.29-.13.02-.17-.75-.18.04-.18.29-.25-.04-.3-.23-.21-.37-.1-.3-.47-.16.04-.17-.65.06-.12-.4-.14-.13-1.1.12-.44.1-.54.48-.51.15-.66.03-.12-.17-.4.06-.36.46-.12.06-.43.48-.48.38-.19.01-.68.35-.03.14-.55.35-.55.12-.62-.07-.52-.18-.33 1.29-.07.43-.42 1.72-.24.9.19.05-.28 1.1.2.07.33-.23.2-.03.64.54.15.03.2.3.39-.06-.2.28-.29.13-.22.47-.37.3-.2.25-.11.34-.55.52-1.78 1.77-.07.2.2.24-.09.33-.19.05-.12.33-.51.24-.08.3-.36.36.06.37-.29.16-.47.55.04.27-.27.1-.18.21-.9-.02-.14-.22-.2-.08-.64.03-.3-.16v-.12l-.5.05-.12.2.17.2-.3 1.21-.19.06-.18.2.02.45-.15.22-.56.2-.27.47.07.13-.08.38.13.39.91.22.8.3.34-.09-.01.2.24.36.48.03.2-.07.26.33-.08.29.1.43.2.18.3.1.1.22-.27.37.17.18-.06.2.21.44-.02.38.15.09v.48l-.08.12.4.3-.1.54-.5.05-.14.26-.1.04-.18.4.14.23-.1.45-.34.31-.4.06-.15.17-.28.1-.12.17.2.37.15.06-.07.23.11.32-.03.35.1.34-.23.42-.42.34-.04.22-.26.18.07.45.12.09-.19.41.2.18-.03.35.08.18-.3-.08-.69-.18-.44-.1-.5-.13-.1-.03-.7-.16-.54-.14-2.05-.53-.67-.18-.39-.1-.81-.21-1.16-.33-.08-.03h-.02l-.3-.1-.12-.32-.32-.43-.01-.18-.19-.1-.35-.76-.36-.07-.23-.28-.03-.3-.17-.2-.2-.69-.25-.35v-.2l-.2-.15.12-.12-.06-.35.11-.09.14-.4-.15-.33v-.48l.18-.07-.05-.24.18-.34-.22-.56.15-.69-.08-.3-.5-.95.2-.22.16-.6.14-.85-.12-.46-.15.01-.08-.19.22-.3.38-1.28.23-.99-.02-.92.06-.14.44-.52.12-.55.15-.32v-.21l.38-.47.46-.69.5-1.05-.08-.6-.18-.13.19-.04.2-.62.03-.3-.13-.64.1-.08-.01-.3-.39-.48-.3-.27.15-.25-.15-.6.05-.17-.13-.86-.32-.37h-.28l-.28.14.1-.4.1-1.4-.05-.81-.11-.33-.26-.43.2-.16.52-.57.14-.39.25-.09.85-1 .7-.94.72-1.1.66-1.17.56-1.14.09-.45.2-.33.07-.45-.09-.1.42-.3.96-1.66.34-.78.1-.38.64-1.35-.05-.24.06-.42-.05-.4-.15-.15.58-.57.06-.16.3-.1.46-.02.28-.2.4-.4.51-.58 1.01-1.32 1.19-1.84.99-1.72.9-1.9.54-1.37.5-.93.84-1.78.5-1.23 1.2-3.01.5-1.42.42-1.1.23-.85.93-2.45.08-.35-.03-.17.17-.35-.08-.13.17-.13.35-.87.26-.79.03-.27.32-.84-.02-.36.3-.56-.07-.33.15-.23-.06-.11.27-.5.11-.45.3-.36.47-1.15.65-1.78.54-2.17.42-.88.7-1.93.05-.53.6-1.35.04-.33-.3-.18.21-.28.45-.97.18-.57.02-1.07-.13-.14.25-.8.27-.16-.02-.3.16-.48.32-.2.22-.3.73-1.48.37-.8.2-.66.43-.95.39-1.02.07-.5.14-.14.01-.2" fill="#d1dbdd" stroke="rgb(209, 219, 221)" stroke-width="0.1" data-originalStrokeWidth="0.1" style="stroke: rgb(0, 0, 0); fill: rgb(209, 219, 221); pointer-events: auto; stroke-width: 0.1;" pointer-events="auto"/>
      <path id="OR05" d="m191 153.9-.28.14-.18.24-.33-.08-.17.1-.27.01-.1.41.23.73-.2-.05-.22.14.03.5.34.49-1.1 3.06-.52-.27-.37.1v.24l-.12.32-.23-.12-.29.08-.14.95-.08.15.1.24.04.83-.26.2.35.14.4-.12.15.4-.32.57-.39 1.13-.56 1.59-.4.13-.46-.04.01.16-.25.12-.05.34.09.3.32.2-.02.14.26.07-.13.2-.14.52-.48.5.2.17-.1.29-.2.15v.2l.19.52-.3.09-.21.73.04.2-.1.42-.31.33-.15.42.16.16-.02.32.1.22-.1.14-.3.72-.09.29-.3.3-.12.27.03.6-.34.08-.09.12-.58.39-.08.2.1.18-.23.3-.05.44.08.33-.2.3-.04.3.26.12.28-.03.45.17.37.24.37.1.8-.13.41.05.58 1.28.85.23 3.57.77 3.1.7 2.24.5v.06l2.65.6-.18.83-.98 4.47.11.03-.31 1.52-.4.2-.29-.04-.95-.22-.4.25-.44.43-.16.25-.22.13-.18-.02-.25.7-.33-.06-.05.23-.21-.06-.24 1.12.2.06-.29 1.33-.66-.16-.04-.12-.38.07-.07.2-.39-.07-.46.18-.29.83-.31-.03-.32.96-.06.51-.13.14-1.09.72-.25.25.09.09-.68.66-.24.42-.09.25-.75-.16.3-.53-.16-.32.17.03v-.2l-.12-.2-.4-.09-.23.36-.17-.03-.26.15-.14-.6-.83.12-.5.23-.3-.21-.2.1-.15.32-.76-.43-.33.05-.4-.24-.5.12-.26-.04-.34-.2-.13-.21-.47.11-1.16-.17-.58.13-.81.27-.68-.16.09.18-.43.08-.37-.1-.25-.18-.08-.2-.29-.08-.2-.19-.2-.03-.24-.18.18-.52h-.1l.17-.41.08-.46.64-.37.01-.16.54-.37.06-.16-.15-.09.3-.2.64-.08.16.28.31.08.2-.06.16-.28.08-.35.1-.09.3-.87.52-.1-.17-.18.47-.49.28-.49-.01-.57-.1-.28.45-.37.38.06.44-.63.26-.11.23-.3.26-.73-.02-.28.07-.5-.18-.3.14-.36.28-.18-.11-.3.2-.26-.12-.32.08-.67.16-.08-.09-.54.05-.44-.15-.33-2.41-.53-2.62-.54-.01.07-5.2-1.19-.01.03-1.37-.32-.18.26.1.22-.07.18-.37.23-.26-.03-.18.2-.22.06-.37-.13.05-.18-.46-.1.03-.1-.65-.19-.33.06-.34-.27-.33.04-.51-.2-.14-.36-.34.08-.1-.24-.33-.14-.06.1h-.6l.1-.2-.34-.4-.23-.05-.36-.26-.38-.08-.1-.16.07-.42-.2-.18-.27.02-.13-.19-.28-.08-.2-.24-.1.03-.42-.27-.08-.18h-.47l-.22-.24-.36.15-.23-.12-.42-.07-.22.22h-.21l-.1-.27-.72-.34-.22.87-.83-.2-.49 1.78-4.17-.98-1.5-.35.24-.41.28-.33-.2-.32-.08-.41-.15-.16.22-.49-.02-.54-.21-.18.1-.24-.07-.43-.4-.19.08-.42-.15-.24h-.25l-.16-.1.13-.19.33-.15-.06-.38.36-.02-.07-.36-.25-.2-.05-.33h.26l.26-.16-.02-.67.3.05-.03-.41.12-.2.28.02.15-.23-.1-.25.02-.57.14-.34-.1-.19.15-.1.2-.43.07-.45.25-.22-.08-.25.15.04.22-.93h.46l.13-.42-.07-.04.13-.34-.28-.2.12-.21.3-.14.14-.26.18.03.1-.43.18-.06.67.16.34-.02.28.14.66-.1.16-.3-.16-.29-.1-.38-.44-.05-.09-.1.02-.47-.4-.74v-.29l.02-.23.45-.25.06-.14-.2-.24.23-.05.24.09.13-.2.18.03.04.32.5.31.44-.04-.05.29.41.14-.07.39.14.18.3-.1.08.4-.23.46.16.42.25-.01.01-.18.2.05.33-.05.24-.44.3-.18.28.25.2.04.64-.39.04-.11.52-.29h.38l.24-.16.1-.54-.14-.34.06-.19.55.23.32-.02.03-.16-.44-.1.04-.19.25.07.07-.54-.16-.04.03-.29.14-.53-.85-1.05-.8-1.3.15-.07-.18-.5.2-.84.03-.36.4-.97.08-.3-.52-.1.17-.58.88-.86.25-.3.47-.28.5-.4.54-.31.43-.14.34-.27.26.05.23-.38.34-.24-.12-.11.47-.47.22.03.2-.33-.04-.08.41-.28.7-.58h.31l-.06-.23.12-.15-.02-.24.32-.4-.06-.2.25-.02v-.25l.23-.23.3.02-.1-.26.14-.24-.39-.15.1-.3.15.04.04-.2-.27-.07.39-1.67.33.05.14-.07.22-.56-.07-.07.08-.36-.1-.24-.29-.06.21-.86.27-.01.13-.17.29-.02.7-.35.43.3.61.16.02-.18.63.04.08-.2.92.25.07.14-.32.35.5.14.28.51-.28.43.2.04.19.35-.1.43.1.02.12.45.46.26.19.02-.03.2.73.16.1-.11.24.06.18.41.21.2v.17l.25.45-.12.19.02.26-.2.1.14.21-.07.27-.17.16.49.37-.16.1-.01.24.34-.03.09.45.38.37.1.38-.4-.17-.04.23.36.46-.07.37.33.13.03.25.56.1.13-.09.36.7.16.02.11-.45.19.22.01.34.27.35.19.01.66.26 1.13.23.32-.16.29.03.3-.11.08.26.36.06.13-.12.32-.05-.04.44.14.13.26-.03.14.09.39-1.76 1.21.27.27-.3.3.27.44.79.16.1.15.47.3.33.2.06.22-.1.37.04.21.15.41.14.18.27.63.08.18-.09.11.11.7-.15.36-.33-.06.44" fill="#d1dbdd" stroke="rgb(209, 219, 221)" stroke-width="0.1" data-originalStrokeWidth="0.1" style="stroke: rgb(0, 0, 0); fill: rgb(209, 219, 221); pointer-events: auto; stroke-width: 0.1;" pointer-events="auto"/>
      <path id="OR06" d="m169.98 142.03-.2.86.28.06.11.24-.08.36.06.07-.22.56-.14.07-.33-.05-.4 1.67.28.08-.04.19-.16-.04-.08.3.4.15-.15.24.1.26-.3-.02-.24.23v.25l-.25.02.06.21-.32.4.02.23-.12.15.06.22-.31.01-.7.58-.41.28.05.09-.21.32-.22-.03-.47.47.12.1-.34.25-.23.38-.26-.05-.34.27-.43.14-.54.3-.5.4-.47.29-.25.3-.88.86-.16.57.5.13-.06.28-.41.97-.03.36-.2.85.18.49-.15.08.8 1.29.85 1.05-.14.54-.03.3.16.02-.07.54-.25-.06-.04.19.44.1-.03.15-.32.02-.55-.24-.06.2.13.34-.1.54-.23.16h-.38l-.52.29-.04.11-.64.39-.2-.04-.27-.25-.31.18-.24.44-.33.05-.2-.05v.18h-.26l-.16-.41.23-.46-.08-.4-.3.1-.14-.18.07-.39-.41-.15.05-.28-.45.04-.49-.3-.04-.33-.18-.03-.13.2-.24-.09-.24.05.2.24-.05.14-.45.25-.02.23-2.43-.59-.76-.18-1.9-.48-2.68-.66-.75-.19-.86-.15-.46-.17-2.22-.56.15-.53-.45-.13.42-1.77.77-3.1.1-.4.7-2.74h-.04l.37-1.33.24-.98-1.29-.32 1.06-4.28 2.12.52.9.2.8.21 3.09.78.97-3.96.46-2.16.15-.53 1.92.45 5.17 1.26-.11.45.44.1-.1.44 1.78.41-.11.44.44.1-.1.45.42.13-.1.44.45.13-.08.36.14.11.73.18.3-.02.26-.3.07-.22.93.21.18-.1.22-.5.14.01.16-.28h.25l-.2-.14.05-.25.14-.08.07-.3-.2-.17.13-.55.11-.14.15.04.1-.39.71.12v-.07l.4.1-.03-.57.93.24h.13l-.3 1.35" fill="#d1dbdd" stroke="rgb(209, 219, 221)" stroke-width="0.1" data-originalStrokeWidth="0.1" style="stroke: rgb(0, 0, 0); fill: rgb(209, 219, 221); pointer-events: auto; stroke-width: 0.1;" pointer-events="auto"/>
      <g id="state_lines" stroke="rgb(209, 219, 221)" style="display: none; stroke: rgb(0, 0, 0);" stroke-width="0.1"/>
      <g id="state_abbr" fill="#000000" style="display: none; fill: rgb(0, 0, 0);">
        <text id="HI_label" x="491.79" y="769.82" style="font-size: 19.2455px; stroke-width: 1.60379; display: none;">
          <tspan id="HI_tspan" x="491.79" y="769.82" fill="#000000" dy="0" font-family="Arial" font-size="24.06" font-style="normal" font-weight="400" style="text-align: center; stroke-width: 2.57215; fill: rgb(0, 0, 0);" text-anchor="middle">HI</tspan>
        </text>
        <text id="AK_label" x="205.24" y="672.25" style="font-size: 19.2455px; stroke-width: 1.60379; display: none;">
          <tspan id="AK_tspan" x="205.24" y="672.25" fill="#000000" dy="0" font-family="Arial" font-size="24.06" font-style="normal" font-weight="400" style="text-align: center; stroke-width: 2.57215; fill: rgb(0, 0, 0);" text-anchor="middle">AK</tspan>
        </text>
        <text id="FL_label" x="1188.11" y="708.7" style="font-size: 19.2455px; stroke-width: 1.60379; display: none;">
          <tspan id="FL_tspan" x="1188.11" y="708.7" fill="#000000" dy="0" font-family="Arial" font-size="24.06" font-style="normal" font-weight="400" style="text-align: center; stroke-width: 2.57215; fill: rgb(0, 0, 0);" text-anchor="middle">FL</tspan>
        </text>
        <text id="NH_label" x="1306.05" y="167.79" stroke-width="1.1" font-size="13.25" style="display: none;">
          <tspan id="NH_tspan" x="1306.05" y="167.79" fill="#000000" stroke-width="1.1" dy="0" font-family="Arial" font-size="16.56" font-style="normal" font-weight="400" style="text-align: center; fill: rgb(0, 0, 0);" text-anchor="middle">NH</tspan>
        </text>
        <text id="MI_label" x="1019.65" y="246.58" style="font-size: 19.2455px; stroke-width: 1.60379; display: none;">
          <tspan id="MI_tspan" x="1019.65" y="246.58" fill="#000000" dy="0" font-family="Arial" font-size="24.06" font-style="normal" font-weight="400" style="text-align: center; stroke-width: 2.57215; fill: rgb(0, 0, 0);" text-anchor="middle">MI</tspan>
        </text>
        <text id="VT_label" x="1274.28" y="145.01" stroke-width="1.05" font-size="12.65" style="display: none;">
          <tspan id="VT_tspan" x="1274.28" y="145.01" fill="#000000" stroke-width="1.05" dy="0" font-family="Arial" font-size="15.81" font-style="normal" font-weight="400" style="text-align: center; fill: rgb(0, 0, 0);" text-anchor="middle">VT</tspan>
        </text>
        <text id="ME_label" x="1338.99" y="105.14" stroke-width="1.45" font-size="17.36" style="display: none;">
          <tspan id="ME_tspan" x="1338.99" y="105.14" fill="#000000" stroke-width="1.45" dy="0" font-family="Arial" font-size="21.7" font-style="normal" font-weight="400" style="text-align: center; fill: rgb(0, 0, 0);" text-anchor="middle">ME</tspan>
        </text>
        <text id="RI_label" x="1361.38" y="262.84" stroke-width="1.25" font-size="14.98" style="display: none;">
          <tspan id="RI_tspan" x="1361.38" y="262.84" fill="#000000" stroke-width="1.25" dy="0" font-family="Arial" font-size="18.72" font-style="normal" font-weight="400" style="text-align: center; fill: rgb(0, 0, 0);" text-anchor="middle">RI</tspan>
        </text>
        <text id="NY_label" x="1227.27" y="204.12" style="font-size: 19.2455px; stroke-width: 1.60379; display: none;">
          <tspan id="NY_tspan" x="1227.27" y="204.12" fill="#000000" dy="0" font-family="Arial" font-size="24.06" font-style="normal" font-weight="400" style="text-align: center; stroke-width: 2.57215; fill: rgb(0, 0, 0);" text-anchor="middle">NY</tspan>
        </text>
        <text id="PA_label" x="1187.28" y="284.69" style="font-size: 19.2455px; stroke-width: 1.60379; display: none;">
          <tspan id="PA_tspan" x="1187.28" y="284.69" fill="#000000" dy="0" font-family="Arial" font-size="24.06" font-style="normal" font-weight="400" style="text-align: center; stroke-width: 2.57215; fill: rgb(0, 0, 0);" text-anchor="middle">PA</tspan>
        </text>
        <text id="NJ_label" x="1330.57" y="290.09" stroke-width="1.28" font-size="15.4" style="display: none;">
          <tspan id="NJ_tspan" x="1330.57" y="290.09" fill="#000000" stroke-width="1.28" dy="0" font-family="Arial" font-size="19.25" font-style="normal" font-weight="400" style="text-align: center; fill: rgb(0, 0, 0);" text-anchor="middle">NJ</tspan>
        </text>
        <text id="DE_label" x="1320.8" y="328.42" stroke-width="1.36" font-size="16.38" style="display: none;">
          <tspan id="DE_tspan" x="1320.8" y="328.42" fill="#000000" stroke-width="1.36" dy="0" font-family="Arial" font-size="20.47" font-style="normal" font-weight="400" style="text-align: center; fill: rgb(0, 0, 0);" text-anchor="middle">DE</tspan>
        </text>
        <text id="MD_label" x="1310.72" y="368.46" stroke-width="1.34" font-size="16.11" style="display: none;">
          <tspan id="MD_tspan" x="1310.72" y="368.46" fill="#000000" stroke-width="1.34" dy="0" font-family="Arial" font-size="20.13" font-style="normal" font-weight="400" style="text-align: center; fill: rgb(0, 0, 0);" text-anchor="middle">MD</tspan>
        </text>
        <text id="VA_label" x="1198.59" y="392.33" style="font-size: 19.2455px; stroke-width: 1.60379; display: none;">
          <tspan id="VA_tspan" x="1198.59" y="392.33" fill="#000000" dy="0" font-family="Arial" font-size="24.06" font-style="normal" font-weight="400" style="text-align: center; stroke-width: 2.57215; fill: rgb(0, 0, 0);" text-anchor="middle">VA</tspan>
        </text>
        <text id="WV_label" x="1129.66" y="382.3" style="font-size: 19.2455px; stroke-width: 1.60379; display: none;">
          <tspan id="WV_tspan" x="1129.66" y="382.3" fill="#000000" dy="0" font-family="Arial" font-size="24.06" font-style="normal" font-weight="400" style="text-align: center; stroke-width: 2.57215; fill: rgb(0, 0, 0);" text-anchor="middle">WV</tspan>
        </text>
        <text id="OH_label" x="1079.05" y="334.46" style="font-size: 19.2455px; stroke-width: 1.60379; display: none;">
          <tspan id="OH_tspan" x="1079.05" y="334.46" fill="#000000" dy="0" font-family="Arial" font-size="24.06" font-style="normal" font-weight="400" style="text-align: center; stroke-width: 2.57215; fill: rgb(0, 0, 0);" text-anchor="middle">OH</tspan>
        </text>
        <text id="IN_label" x="998.79" y="352.94" style="font-size: 19.2455px; stroke-width: 1.60379; display: none;">
          <tspan id="IN_tspan" x="998.79" y="352.94" fill="#000000" dy="0" font-family="Arial" font-size="24.06" font-style="normal" font-weight="400" style="text-align: center; stroke-width: 2.57215; fill: rgb(0, 0, 0);" text-anchor="middle">IN</tspan>
        </text>
        <text id="IL_label" x="927.43" y="364.36" style="font-size: 19.2455px; stroke-width: 1.60379; display: none;">
          <tspan id="IL_tspan" x="927.43" y="364.36" fill="#000000" dy="0" font-family="Arial" font-size="24.06" font-style="normal" font-weight="400" style="text-align: center; stroke-width: 2.57215; fill: rgb(0, 0, 0);" text-anchor="middle">IL</tspan>
        </text>
        <text id="CT_label" x="1299.17" y="228.46" stroke-width="1.06" font-size="12.74" style="display: none;">
          <tspan id="CT_tspan" x="1299.17" y="228.46" fill="#000000" stroke-width="1.06" dy="0" font-family="Arial" font-size="15.93" font-style="normal" font-weight="400" style="text-align: center; fill: rgb(0, 0, 0);" text-anchor="middle">CT</tspan>
        </text>
        <text id="WI_label" x="898.6" y="224.7" style="font-size: 19.2455px; stroke-width: 1.60379; display: none;">
          <tspan id="WI_tspan" x="898.6" y="224.7" fill="#000000" dy="0" font-family="Arial" font-size="24.06" font-style="normal" font-weight="400" style="text-align: center; stroke-width: 2.57215; fill: rgb(0, 0, 0);" text-anchor="middle">WI</tspan>
        </text>
        <text id="NC_label" x="1205.6" y="458.72" style="font-size: 19.2455px; stroke-width: 1.60379; display: none;">
          <tspan id="NC_tspan" x="1205.6" y="458.72" fill="#000000" dy="0" font-family="Arial" font-size="24.06" font-style="normal" font-weight="400" style="text-align: center; stroke-width: 2.57215; fill: rgb(0, 0, 0);" text-anchor="middle">NC</tspan>
        </text>
        <text id="MA_label" x="1305.87" y="200.67" stroke-width="1.04" font-size="12.46" style="display: none;">
          <tspan id="MA_tspan" x="1305.87" y="200.67" fill="#000000" stroke-width="1.04" dy="0" font-family="Arial" font-size="15.58" font-style="normal" font-weight="400" style="text-align: center; fill: rgb(0, 0, 0);" text-anchor="middle">MA</tspan>
        </text>
        <text id="MO_label" x="854.22" y="422.93" style="font-size: 19.2455px; stroke-width: 1.60379; display: none;">
          <tspan id="MO_tspan" x="854.22" y="422.93" fill="#000000" dy="0" font-family="Arial" font-size="24.06" font-style="normal" font-weight="400" style="text-align: center; stroke-width: 2.57215; fill: rgb(0, 0, 0);" text-anchor="middle">MO</tspan>
        </text>
        <text id="GA_label" x="1106.89" y="574.56" style="font-size: 19.2455px; stroke-width: 1.60379; display: none;">
          <tspan id="GA_tspan" x="1106.89" y="574.56" fill="#000000" dy="0" font-family="Arial" font-size="24.06" font-style="normal" font-weight="400" style="text-align: center; stroke-width: 2.57215; fill: rgb(0, 0, 0);" text-anchor="middle">GA</tspan>
        </text>
        <text id="SC_label" x="1166.32" y="522.49" style="font-size: 19.2455px; stroke-width: 1.60379; display: none;">
          <tspan id="SC_tspan" x="1166.32" y="522.49" fill="#000000" dy="0" font-family="Arial" font-size="24.06" font-style="normal" font-weight="400" style="text-align: center; stroke-width: 2.57215; fill: rgb(0, 0, 0);" text-anchor="middle">SC</tspan>
        </text>
        <text id="KY_label" x="1039.99" y="426.39" style="font-size: 19.2455px; stroke-width: 1.60379; display: none;">
          <tspan id="KY_tspan" x="1039.99" y="426.39" fill="#000000" dy="0" font-family="Arial" font-size="24.06" font-style="normal" font-weight="400" style="text-align: center; stroke-width: 2.57215; fill: rgb(0, 0, 0);" text-anchor="middle">KY</tspan>
        </text>
        <text id="AL_label" x="1019.59" y="578.15" style="font-size: 19.2455px; stroke-width: 1.60379; display: none;">
          <tspan id="AL_tspan" fill="#000000" dy="0" font-family="Arial" font-size="24.06" font-style="normal" font-weight="400" style="text-align: center; stroke-width: 2.57215; fill: rgb(0, 0, 0);" text-anchor="middle">AL</tspan>
        </text>
        <text id="LA_label" x="872.7" y="649.59" style="font-size: 19.2455px; stroke-width: 1.60379; display: none;">
          <tspan id="LA_tspan" x="872.7" y="649.59" fill="#000000" dy="0" font-family="Arial" font-size="24.06" font-style="normal" font-weight="400" style="text-align: center; stroke-width: 2.57215; fill: rgb(0, 0, 0);" text-anchor="middle">LA</tspan>
        </text>
        <text id="MS_label" x="940.37" y="592.21" style="font-size: 19.2455px; stroke-width: 1.60379; display: none;">
          <tspan id="MS_tspan" x="940.37" y="592.21" fill="#000000" dy="0" font-family="Arial" font-size="24.06" font-style="normal" font-weight="400" style="text-align: center; stroke-width: 2.57215; fill: rgb(0, 0, 0);" text-anchor="middle">MS</tspan>
        </text>
        <text id="IA_label" x="823.33" y="308.44" style="font-size: 19.2455px; stroke-width: 1.60379; display: none;">
          <tspan id="IA_tspan" x="823.33" y="308.44" fill="#000000" dy="0" font-family="Arial" font-size="24.06" font-style="normal" font-weight="400" style="text-align: center; stroke-width: 2.57215; fill: rgb(0, 0, 0);" text-anchor="middle">IA</tspan>
        </text>
        <text id="MN_label" x="790.84" y="183.37" style="font-size: 19.2455px; stroke-width: 1.60379; display: none;">
          <tspan id="MN_tspan" x="790.84" y="183.37" fill="#000000" dy="0" font-family="Arial" font-size="24.06" font-style="normal" font-weight="400" style="text-align: center; stroke-width: 2.57215; fill: rgb(0, 0, 0);" text-anchor="middle">MN</tspan>
        </text>
        <text id="OK_label" x="732.05" y="519.54" style="font-size: 19.2455px; stroke-width: 1.60379; display: none;">
          <tspan id="OK_tspan" x="732.05" y="519.54" fill="#000000" dy="0" font-family="Arial" font-size="24.06" font-style="normal" font-weight="400" style="text-align: center; stroke-width: 2.57215; fill: rgb(0, 0, 0);" text-anchor="middle">OK</tspan>
        </text>
        <text id="TX_label" x="710.59" y="652.87" style="font-size: 19.2455px; stroke-width: 1.60379; display: none;">
          <tspan id="TX_tspan" x="710.59" y="652.87" fill="#000000" dy="0" font-family="Arial" font-size="24.06" font-style="normal" font-weight="400" style="text-align: center; stroke-width: 2.57215; fill: rgb(0, 0, 0);" text-anchor="middle">TX</tspan>
        </text>
        <text id="NM_label" x="506.94" y="542.36" style="font-size: 19.2455px; stroke-width: 1.60379; display: none;">
          <tspan id="NM_tspan" x="506.94" y="542.36" fill="#000000" dy="0" font-family="Arial" font-size="24.06" font-style="normal" font-weight="400" style="text-align: center; stroke-width: 2.57215; fill: rgb(0, 0, 0);" text-anchor="middle">NM</tspan>
        </text>
        <text id="KS_label" x="701.21" y="427.26" style="font-size: 19.2455px; stroke-width: 1.60379; display: none;">
          <tspan id="KS_tspan" x="701.21" y="427.26" fill="#000000" dy="0" font-family="Arial" font-size="24.06" font-style="normal" font-weight="400" style="text-align: center; stroke-width: 2.57215; fill: rgb(0, 0, 0);" text-anchor="middle">KS</tspan>
        </text>
        <text id="NE_label" x="686.63" y="337.29" style="font-size: 19.2455px; stroke-width: 1.60379; display: none;">
          <tspan id="NE_tspan" x="686.63" y="337.29" fill="#000000" dy="0" font-family="Arial" font-size="24.06" font-style="normal" font-weight="400" style="text-align: center; stroke-width: 2.57215; fill: rgb(0, 0, 0);" text-anchor="middle">NE</tspan>
        </text>
        <text id="SD_label" x="663.02" y="238.75" style="font-size: 19.2455px; stroke-width: 1.60379; display: none;">
          <tspan id="SD_tspan" x="663.02" y="238.75" fill="#000000" dy="0" font-family="Arial" font-size="24.06" font-style="normal" font-weight="400" style="text-align: center; stroke-width: 2.57215; fill: rgb(0, 0, 0);" text-anchor="middle">SD</tspan>
        </text>
        <text id="ND_label" x="663.02" y="150.75" style="font-size: 19.2455px; stroke-width: 1.60379; display: none;">
          <tspan id="ND_tspan" x="663.02" y="150.75" fill="#000000" dy="0" font-family="Arial" font-size="24.06" font-style="normal" font-weight="400" style="text-align: center; stroke-width: 2.57215; fill: rgb(0, 0, 0);" text-anchor="middle">ND</tspan>
        </text>
        <text id="WY_label" x="499.57" y="276.47" style="font-size: 19.2455px; stroke-width: 1.60379; display: none;">
          <tspan id="WY_tspan" x="499.57" y="276.47" fill="#000000" dy="0" font-family="Arial" font-size="24.06" font-style="normal" font-weight="400" style="text-align: center; stroke-width: 2.57215; fill: rgb(0, 0, 0);" text-anchor="middle">WY</tspan>
        </text>
        <text id="MT_label" x="487.84" y="155.58" style="font-size: 19.2455px; stroke-width: 1.60379; display: none;">
          <tspan id="MT_tspan" x="487.84" y="155.58" fill="#000000" dy="0" font-family="Arial" font-size="24.06" font-style="normal" font-weight="400" style="text-align: center; stroke-width: 2.57215; fill: rgb(0, 0, 0);" text-anchor="middle">MT</tspan>
        </text>
        <text id="CO_label" x="525.13" y="406.28" style="font-size: 19.2455px; stroke-width: 1.60379; display: none;">
          <tspan id="CO_tspan" x="525.13" y="406.28" fill="#000000" dy="0" font-family="Arial" font-size="24.06" font-style="normal" font-weight="400" style="text-align: center; stroke-width: 2.57215; fill: rgb(0, 0, 0);" text-anchor="middle">CO</tspan>
        </text>
        <text id="ID_label" x="339.94" y="235.07" style="font-size: 19.2455px; stroke-width: 1.60379; display: none;">
          <tspan id="ID_tspan" x="339.94" y="235.07" fill="#000000" dy="0" font-family="Arial" font-size="24.06" font-style="normal" font-weight="400" style="text-align: center; stroke-width: 2.57215; fill: rgb(0, 0, 0);" text-anchor="middle">ID</tspan>
        </text>
        <text id="UT_label" x="396.81" y="386.73" style="font-size: 19.2455px; stroke-width: 1.60379; display: none;">
          <tspan id="UT_tspan" x="396.81" y="386.73" fill="#000000" dy="0" font-family="Arial" font-size="24.06" font-style="normal" font-weight="400" style="text-align: center; stroke-width: 2.57215; fill: rgb(0, 0, 0);" text-anchor="middle">UT</tspan>
        </text>
        <text id="AZ_label" x="366.76" y="536.9" style="font-size: 19.2455px; stroke-width: 1.60379; display: none;">
          <tspan id="AZ_tspan" x="366.76" y="536.9" fill="#000000" dy="0" font-family="Arial" font-size="24.06" font-style="normal" font-weight="400" style="text-align: center; stroke-width: 2.57215; fill: rgb(0, 0, 0);" text-anchor="middle">AZ</tspan>
        </text>
        <text id="NV_label" x="262.47" y="370.64" style="font-size: 19.2455px; stroke-width: 1.60379; display: none;">
          <tspan id="NV_tspan" x="262.47" y="370.64" fill="#000000" dy="0" font-family="Arial" font-size="24.06" font-style="normal" font-weight="400" style="text-align: center; stroke-width: 2.57215; fill: rgb(0, 0, 0);" text-anchor="middle">NV</tspan>
        </text>
        <text id="OR_label" x="214.43" y="206.88" style="font-size: 19.2455px; stroke-width: 1.60379; display: none;">
          <tspan id="OR_tspan" x="214.43" y="206.88" fill="#000000" dy="0" font-family="Arial" font-size="24.06" font-style="normal" font-weight="400" style="text-align: center; stroke-width: 2.57215; fill: rgb(0, 0, 0);" text-anchor="middle">OR</tspan>
        </text>
        <text id="WA_label" x="238.05" y="102.99" style="font-size: 19.2455px; stroke-width: 1.60379; display: none;">
          <tspan id="WA_tspan" x="238.05" y="102.99" fill="#000000" dy="0" font-family="Arial" font-size="24.06" font-style="normal" font-weight="400" style="text-align: center; stroke-width: 2.57215; fill: rgb(0, 0, 0);" text-anchor="middle">WA</tspan>
        </text>
        <text id="CA_label" x="191.69" y="434.8" style="font-size: 19.2455px; stroke-width: 1.60379; display: none;">
          <tspan id="CA_tspan" x="191.69" y="434.8" fill="#000000" dy="0" font-family="Arial" font-size="24.06" font-style="normal" font-weight="400" style="text-align: center; stroke-width: 2.57215; fill: rgb(0, 0, 0);" text-anchor="middle">CA</tspan>
        </text>
        <text id="DC_label" x="1309.32" y="398.19" stroke-width="1.29" font-size="15.45" style="display: none;">
          <tspan id="DC_tspan" x="1309.32" y="398.19" fill="#000000" stroke-width="1.29" dy="0" font-family="Arial" font-size="19.31" font-style="normal" font-weight="400" style="text-align: center; fill: rgb(0, 0, 0);" text-anchor="middle">DC</tspan>
        </text>
        <text id="TN_label" x="1018.93" y="485.72" style="font-size: 19.2455px; stroke-width: 1.60379; display: none;">
          <tspan id="TN_tspan" x="1018.93" y="485.72" fill="#000000" dy="0" font-family="Arial" font-size="24.06" font-style="normal" font-weight="400" style="text-align: center; stroke-width: 2.57215; fill: rgb(0, 0, 0);" text-anchor="middle">TN</tspan>
        </text>
        <text id="AR_label" x="863.15" y="535.77" style="font-size: 19.2455px; stroke-width: 1.60379; display: none;">
          <tspan id="AR_tspan" x="863.15" y="535.77" fill="#000000" dy="0" font-family="Arial" font-size="24.06" font-style="normal" font-weight="400" style="text-align: center; stroke-width: 2.57215; fill: rgb(0, 0, 0);" text-anchor="middle">AR</tspan>
        </text>
      </g>
      <g id="state_borders" transform="translate(-0.04777967,-0.15336683)" stroke="rgb(209, 219, 221)" style="stroke: rgb(0, 0, 0);" stroke-width="0.3">
        <path id="OR_ID_border" d="m275.3 274.69 3.35-19.52 6.4-36.88-.02-.7.64-.42-.21-.46.85-.1.33-.83.03-.65h.4v-.8l.3-.63-.3-.42.9-.16-.03-.6.3-.51-.12-.5-.57-.51.08-1.15.8-.14.83-.92.62-.96-.08-.64-.45-.46-.98-.34.13-1.44-1.2-.41-.44.54-.78-1.06-.21-.72h-.4l-.48.5-.7-.12-.53-.56-.43-.84.53-.4.43-.7-.8-1.31-.04-.75.76-.83.13-.64-.08-1.03.82-.52.4-.65h.47l.48-.57.07-.73.57-.4.24-.93.65-.71.17-.74.39-.24.13-.57.46-.36.1-.65.49-.5 1.06-.17.8-.46.77-.15.09-.44 1.14-1.64.75-.35 1.06-1.77-.27-.88.67-.68-.53.25-.12-.42.35-.5.03-.66 1.3-.97.39-.47.35-.85.49-.2.65-.72.32-.95.48-.92.32-1.12.4-.7.44-.33.24-1.4 1.6-2.17.55-.37.37-.92.83-.5.18-1.34.32-.2.62-.94 1.04-.8.56-.72.05-.41-.34-1.13-.81-1.5.2-1.3-.14-.57-.87-1-.81-.37-.74-.03-.5-1.33-.8-.3-.65.2-.36-.35-.12-1.06-.28-.67-.57-.56-.36-.86v-1.2l-.64-1.41" stroke="rgb(209, 219, 221)" stroke-width="0.3" fill="none" style="stroke: rgb(0, 0, 0); display: none;"/>
      </g>
      <rect id="selection-rectangle" fill="#ffffccaa" stroke="rgb(209, 219, 221)" stroke-width="0.1"/>
      <ellipse id="selection-ellipse" fill="#ffffccaa" stroke="rgb(209, 219, 221)" stroke-width="0.1"/>
      <polygon id="selection-polygon" fill="#ffffccaa" stroke="rgb(209, 219, 221)" stroke-width="0.1"/>
      <polyline id="selection-polyline" fill="#ffffccaa" stroke="rgb(209, 219, 221)" stroke-width="0.1"/>
    </svg>
  </g>
</svg>
