<?xml version='1.0' encoding='UTF-8'?>
<svg xmlns="http://www.w3.org/2000/svg" xmlns:dc="http://purl.org/dc/elements/1.1/" xmlns:ns2="http://creativecommons.org/ns#" xmlns:rdf="http://www.w3.org/1999/02/22-rdf-syntax-ns#" id="wrapper" viewBox="0 0 1520 840" preserveAspectRatio="xMinYMin" height="840" width="1520" style="background-color: rgb(255, 255, 255);">
  <metadata>
    <rdf:rdf>
      <ns2:work rdf:about="">
        <dc:format>image/svg+xml</dc:format>
        <dc:type rdf:resource="http://purl.org/dc/dcmitype/StillImage"/>
        <dc:title>MapChart Map</dc:title>
        <dc:creator>
          <ns2:agent>
            <dc:title>MapChart.net</dc:title>
          </ns2:agent>
        </dc:creator>
        <ns2:license rdf:resource="http://creativecommons.org/licenses/by-sa/4.0/"/>
        <dc:description>This map was created with MapChart.net, a website for creating custom maps.</dc:description>
      </ns2:work>
      <ns2:license rdf:about="http://creativecommons.org/licenses/by-sa/4.0/">
        <ns2:permits rdf:resource="http://creativecommons.org/ns#Reproduction"/>
        <ns2:permits rdf:resource="http://creativecommons.org/ns#Distribution"/>
        <ns2:requires rdf:resource="http://creativecommons.org/ns#Notice"/>
        <ns2:requires rdf:resource="http://creativecommons.org/ns#Attribution"/>
        <ns2:requires rdf:resource="http://creativecommons.org/ns#ShareAlike"/>
      </ns2:license>
    </rdf:rdf>
  </metadata>
  <g id="map-group" transform="translate(-8325.000698630969,-1704.0124590471632) scale(7.622510963706113)">
    <svg id="map" width="1520" height="840" version="1.1" viewBox="0 0 1520 840" preserveAspectRatio="xMinYMin" data-originalStrokeWidth="0.3">
      <defs>
        <pattern id="circles3" width="10" height="10" patternUnits="userSpaceOnUse">    <rect width="10" height="10" fill="#fff"/>    <circle cx="4" cy="4" r="2" fill="#000"/>    </pattern>
        <pattern id="diagonal1" width="10" height="10" patternUnits="userSpaceOnUse">    <rect width="10" height="10" fill="#fff"/>    </pattern>
        <pattern id="diagonal3" width="10" height="10" patternUnits="userSpaceOnUse">    <rect width="10" height="10" fill="#fff"/>    </pattern>
        <pattern id="vertical1" width="10" height="10" patternUnits="userSpaceOnUse">    <rect width="10" height="10" fill="#fff"/>    <rect x="2" y="0" width="1" height="10" fill="#000"/>    </pattern>
        <pattern id="vertical3" width="10" height="10" patternUnits="userSpaceOnUse">    <rect width="10" height="10" fill="#fff"/>    <rect x="2" y="0" width="3" height="10" fill="#000"/>    </pattern>
        <pattern id="horizontal1" width="10" height="10" patternUnits="userSpaceOnUse">    <rect width="10" height="10" fill="#fff"/>    <rect x="0" y="2" width="10" height="1" fill="#000"/>    </pattern>
        <pattern id="horizontal3" width="10" height="10" patternUnits="userSpaceOnUse">    <rect width="10" height="10" fill="#fff"/>    <rect x="0" y="2" width="10" height="3" fill="#000"/>    </pattern>
        <pattern id="crosshatch" width="8" height="8" patternUnits="userSpaceOnUse">    <rect width="8" height="8" fill="#fff"/>    </pattern>
        <pattern id="subtlepatch" width="5" height="5" patternUnits="userSpaceOnUse">    <rect width="5" height="5" fill="#fff"/>    <rect x="2" y="2" width="1" height="1" fill="#000"/>    </pattern>
        <pattern id="checkers" width="8" height="8" patternUnits="userSpaceOnUse">    <rect width="8" height="8" fill="#fff"/>    </pattern>
        <pattern id="raindrops" width="10" height="10" patternUnits="userSpaceOnUse">    <rect width="10" height="10" fill="#fff"/>    </pattern>
        <pattern id="texture" width="4" height="4" patternUnits="userSpaceOnUse">    <rect width="4" height="4" fill="#fff"/>    </pattern>
        <pattern id="circles3_a03500_000000" width="10" height="10" patternUnits="userSpaceOnUse">    <rect width="10" height="10" fill="#a03500"/>    <circle cx="4" cy="4" r="2" fill="#000000"/>    </pattern>
        <pattern id="diagonal1_d9b400_535353" width="10" height="10" patternUnits="userSpaceOnUse">    <rect width="10" height="10" fill="#d9b400"/>    </pattern>
        <pattern id="diagonal3_3264c8_ffffff" width="10" height="10" patternUnits="userSpaceOnUse">    <rect width="10" height="10" fill="#3264c8"/>    </pattern>
        <pattern id="horizontal1_72b38e_000000" width="10" height="10" patternUnits="userSpaceOnUse">    <rect width="10" height="10" fill="#72b38e"/>    <rect x="0" y="2" width="10" height="1" fill="#000000"/>    </pattern>
        <pattern id="horizontal3_986ba1_ffffff" width="10" height="10" patternUnits="userSpaceOnUse">    <rect width="10" height="10" fill="#986ba1"/>    <rect x="0" y="2" width="10" height="3" fill="#ffffff"/>    </pattern>
        <pattern id="vertical1_b9a087_ffffff" width="10" height="10" patternUnits="userSpaceOnUse">    <rect width="10" height="10" fill="#b9a087"/>    <rect x="2" y="0" width="1" height="10" fill="#ffffff"/>    </pattern>
        <pattern id="vertical3_4c91bf_ffff33" width="10" height="10" patternUnits="userSpaceOnUse">    <rect width="10" height="10" fill="#4c91bf"/>    <rect x="2" y="0" width="3" height="10" fill="#ffff33"/>    </pattern>
        <pattern id="checkers_cc3333_f7f7f7" width="8" height="8" patternUnits="userSpaceOnUse">    <rect width="8" height="8" fill="#cc3333"/>    </pattern>
        <pattern id="texture_d1dbdd_525252" width="4" height="4" patternUnits="userSpaceOnUse">    <rect width="4" height="4" fill="#d1dbdd"/>    </pattern>
        <style id="map-style">svg { background-color: #ffffff; }</style>
      </defs>
      <path id="PA01" d="m1244.07 277.64 1.27.58 1.13-2.6 2.04-2.99.68-.86 1.14-1.17.04.04.12.11.19.44-.06.18.05.21.19.13.46.07.19-.04.09-.07.15-.26.17-.15.28-.05.21-.03.21.03.29.03.08.06.67.45.16.08.2.42.04.18.08.25.23.56.12.45-.04.17-.03.05.01.08.08.18v.13l-.02.1.03.06.07.13.08.13.04.05.03.1.06.1.02.05.05.1.05.12.05.1.15.23.06.02.08.01h.13l.09.02.07.04.14.06.3.07.37-.24.24-.17.19.02.26.11.25.04.15.09.35.45.27.4.07.12.11.25.08.2.17.18.2.12.44.23.4.11.15-.03.14.02.3.18.37.22.28.28.04.07.31.41.17.21.35.33.34.07.23.08h.05l.21.04.73.25.2.08.1.15.06.06.28.28.17.3.04.02.08.04.48.17.38.34.08.46-.2.3-.14.17-.23.05-.31.28-.27.37-.38.02-.49-.02-.14.16-.04.25v.41l-.36.51-.1.33-.23.14-.23.19-.09.05-.44.31-.1.03-.16.01-.27.2-.44.48-.17.17-.12.18-.33-.19.03-.29.3-.47.07-.25-.06-.36-.14-.02-.18-.3-.08-.32-.33.06-.12-.09-.38-.04-.49-.2-2.56-1.07-.32.76-.23-.1-.09.23-.21.03-.06-.13-.88-.39-.17.17-.12-.24-.17-.04-.03.27-1.6-.7.14-.2-.69-.37.05-.1-.34-.17-.17.4-1.07-.45-.38-.13-.07.2-.84-.36-.25-.04-.94-.35-.45-.43-.38.53-.21.18-.24-.25-.08-.31.08-.12.34.03-.2-.18-.44.05-.11-.23-.11.24-1.34-.5.14-.41-.9-.3.5-1.73" fill="#d1dbdd" stroke="rgb(209, 219, 221)" stroke-width="0.1" data-originalStrokeWidth="0.1" style="stroke: rgb(0, 0, 0); fill: rgb(209, 219, 221); pointer-events: auto; stroke-width: 0.1;" pointer-events="auto"/>
      <path id="PA02" d="m1256.23 286.92.84.35.36-.69-.25-.1.28-.63.28-.74.66-1.05.06-.22.49.2.38.05.12.1.33-.07.08.32.18.3.14.02.06.36-.07.25-.3.47-.03.3.33.17-.28.48-.16.3-.23.36-.13.09-.1.03-.12.1-.26.2-.11.2-.12.34.01.09-.07.37-.05.08-.21.24-.13.09-.24.1-.44.4-.25.44v.05l.04.31-.69.18-.4-3.84" fill="#d1dbdd" stroke="rgb(209, 219, 221)" stroke-width="0.1" data-originalStrokeWidth="0.1" style="stroke: rgb(0, 0, 0); fill: rgb(209, 219, 221); pointer-events: auto; stroke-width: 0.1;" pointer-events="auto"/>
      <path id="PA03" d="m1254.55 289.61.6-.7-.4-.2-.35-.11-.97-.6.62-1.45.98.4.17-.45 1.03.42.4 3.84.69-.18.14.42.2.34.07.06-.73.1v.09h-.35l-.2-.1-.45.22-.29-.1.06-.34-.21.12-.27-.14-.19.13-.32-.08-.17-.16-.04-.5-.22.09-.45-.07-.17-.13.82-.92" fill="#d1dbdd" stroke="rgb(209, 219, 221)" stroke-width="0.1" data-originalStrokeWidth="0.1" style="stroke: rgb(0, 0, 0); fill: rgb(209, 219, 221); pointer-events: auto; stroke-width: 0.1;" pointer-events="auto"/>
      <path id="PA04" d="m1233.46 284.45-.19.04-.25-.3-.55-.17.18-.48-.53-.06-.14.14.1-.32-.16-.47.12-.03.31-.33.2.15.53-.84-.33-.62 1-.63.16-.18-.18-.18-.1-.41.1-.26-.03-.3-.14-.17.14-.3.28-.18-.2-.04.17-.49-.16-.45 1.54-.59-.06-.31-.12-.18-1.62-.78 3.87-1.2.8.36 4.43 2.11 1.43.66-.5 1.74.9.29-.14.4 1.34.5.1-.23.12.23.44-.04.2.17-.33-.03-.09.12.08.31.24.25.2-.18.4-.53.44.43.94.35.25.04.84.36.07-.19.4.12 1.05.46.17-.42.34.17-.06.11.69.39-.14.18 1.61.69.03-.26.17.04.12.24.16-.17.9.39.05.13.21-.03.09-.24.23.1.32-.75 2.56 1.06-.06.22-.66 1.05-.28.74-.28.62.25.1-.36.7-.84-.35-1.03-.42-.16.44-.99-.39-.62 1.45.97.6.35.11.4.21-.6.69-.3-.27-.48-.1-.19.07-.15-.26-.16.01-.17-.24-.47-.13-.06.16-.19-.1-.13.07-.57-.55.23-.2-.13-.34.17-.19-.2-.51-.17-.21.06-.64-.78-.37-.3.78.03.14.47.05-.09.07-.74-.08-.28.1-.27.26.01.18.37.15-.35.2-.05.2-.18-.2-.34.36-.1-.13-.3.3-.08-.22-.17-.05v-.18l-.2-.06-.1-.3.11-.3-.29-.08-.44.24-.35-.12-.15-.15-.03-.25.11-.34-.09-.1-.22.1-.05.35-.2.01-.21-.56-.33-.18-.65-.87-.15.1.1.26-.22.13-.48-.5-.4-.63-.21.18.15.16-.17.19-.22-.17-.84-.17-.47.03-.27.35-.39-.14-.62-.03-.37-.27-.78.3-.4-.27h-.25l-.03-.26-.67-.1.03-.43-.13.32-.2.04.06-.28-.1-.16.41-.09.05-.34.25-.08-.26-.24-.12-.38-.34-.27-.25-.33-.24.04-.3.2-.26-.1-.22.15-.84.05-.98.23-.07-.1-.22.14.32.05-.38.43-.17-.04-.1-.2-.23-.15-.32.13-.01.41-.16.08.1.13-.4.38-.1.52-.07.05" fill="#d1dbdd" stroke="rgb(209, 219, 221)" stroke-width="0.1" data-originalStrokeWidth="0.1" style="stroke: rgb(0, 0, 0); fill: rgb(209, 219, 221); pointer-events: auto; stroke-width: 0.1;" pointer-events="auto"/>
      <path id="PA05" d="m1252.07 296.67-.23-.1-.3-.07-.07-.04-.1-.03h-.02l-.11-.04-.13-.01v-.01l-.26-.04-.08-.03-.25-.02-.21-.03h-.45l-.21-.01-.24.01-.03.02h-.16l-.35.05-.49.11-.1.04-.14.04-.1.04-.22.07-.16.08-.05.02-.1-.09.04-.38-.25-.08.1-.36-.17-.22.51-.57-.13-.25.52-.57-.14-.14.15-.15-.08-.27.13-.12.21.2.15-.07-.23-.24.24-.12-.2-.28 1.7-1.8-.11-.26-.38.09.85-1.34-.36-.38 1.05-1.06-.2-.18-.49.51-.76-.73.05-.2.35-.2-.37-.15v-.19l.25-.24.29-.11.74.08.09-.07-.47-.05-.04-.14.3-.78.79.37-.06.64.17.2.2.52-.18.2.14.32-.23.2.57.55.13-.07.2.1.05-.15.47.13.17.24h.15l.16.25.19-.06.48.1.3.26-.82.92.17.13.45.07.22-.08.04.5.17.15.32.08.19-.13.27.14.21-.12-.05.34.3.1.42-.23.2.1h.37v-.09l.72-.1.02.06.03.13.02.11v.1l-.04.27-.02.16-.1.2-.08.05-.07.03-.67.22-.26.19-.2.3-.33.42-.27.22-.23.17-.56.31-.5.13-.37.07-.32.11-.38.23-.15.13-.1.12-.3.48-.42.63-.36.45" fill="#d1dbdd" stroke="rgb(209, 219, 221)" stroke-width="0.1" data-originalStrokeWidth="0.1" style="stroke: rgb(0, 0, 0); fill: rgb(209, 219, 221); pointer-events: auto; stroke-width: 0.1;" pointer-events="auto"/>
      <path id="PA06" d="m1232.52 286.3.3-.35.08-.32.44-.58v-.43l.12-.17.06-.05.1-.52.4-.38-.1-.13.17-.08.01-.4.32-.14.24.14.1.2.16.05.38-.43-.32-.05.22-.15.07.1.98-.22.84-.05.22-.14.25.1.3-.2.25-.05.25.33.34.27.12.38.26.24-.25.08-.05.34-.4.09.1.16-.06.28.19-.04.13-.32-.02.43.66.1.03.26h.25l.4.27.78-.3.37.27.61.03.41.14.26-.35.47-.03.84.17.22.17.18-.2-.16-.15.22-.18.4.63.47.5.23-.13-.11-.26.15-.1.65.87.33.18.22.56.19-.01.05-.36.22-.08.1.09-.12.34.03.25.15.15.35.12.45-.23.3.07-.14.3.1.3.2.06v.2l.18.03.08.21.3-.3.1.14.34-.35.18.18.76.74.5-.5.2.17-1.06 1.06.36.38-.85 1.34.38-.1.1.26-1.69 1.8.2.29-.24.12.23.24-.15.07-.2-.2-.14.12.08.27-.15.15.14.14-.52.57.13.25-.51.57.17.22-.1.36.25.08-.04.38.1.1h-.06l-.19.1-.38.2-.4.27-.14.1-.18.16-.19.16-.26.27h-.02l-.34.43-.1.16-.14.2-.17.3-.03.03-.22.49-.09.25-.04.12-.06.18-.15.68v.19l-.03.35-1.58.44-3.98 1.07-.41.1-.8.23-1 .26-.36.1-.26.07-.05-.12.18-.1.24-.02-.14-.31.29-.03-.01.21.23.09.16-.35-.28-.13.01-.2.2.01.14-.2-.1-.23.04-.18.38-.05-.05-.33.06-.33.18-.18.1-.44-.25-.12.27-.05v-.33l.1-.07-.3-.39.2.05.26-.28-.21-.42-.04-.28.3-.07-.1-.57.1-.13.23.14.06-.14-.18-.27.03-.33-.23-.18-.15-.32v-.2l-.15-.36.12.04.17-.35-.21-.14-.2-.3.04-.5.6-2.47-.04-.31-.3-.94-.4-.91.61-.53.77-.75-2.28-1.11-3.9-1.87" fill="#d1dbdd" stroke="rgb(209, 219, 221)" stroke-width="0.1" data-originalStrokeWidth="0.1" style="stroke: rgb(0, 0, 0); fill: rgb(209, 219, 221); pointer-events: auto; stroke-width: 0.1;" pointer-events="auto"/>
      <path id="PA07" d="m1237.4 274.5-1.61-.74-1.9-.95.7-.7.23-.07.73-.66.17-.37.33-.35v-.15l.27-.1.14-.2-.66-.3-2.93-1.38-3.35-2.3 2.99-2.54-.08-.16.59-.5.41-.13 1.37-1.21-.2-.21-.12-.35-.1-.09-.35.1-.15-.27-.28-.22-.26-.76.08-.32-.1-.21.29-.27-.08-.14.5-.15.22-.58.2.04-.07-.19.15-.06.16-.33.19-.03.35-.2.35.27.1.17.08-.2.14.28.19-.09.25.16.05-.17.27.16.15.3.18-.06.05.28h.12l.7.37.26.28.03.21.2-.02 1.7 1.28.91.8 1.7 1.73.08-.03.32.17.23-.1.02.13.28-.16.24.03.2.22.16-.32.46-.18-.01-.3.54.16.1-.08.7.71.39-.46.07-.34.63-.74-.27-.23.36-.43.01-.29.45-.4.37-.23-.03-.16.51-.28.46-.43.13-.35.03.14.16.3.17.13.26.35.32.28.1.05.35.17.22.52.33.24.1.09.27.2.1.16v.15l-.18.33.06.2-.23.05-.06-.01-.1.03-.15.05-.08.03-.07.06-.02.03-.02.09.03.1.03.06.06.06.23.12.07.05.04.22-.22.54.06.24-.1.32-.16.1-.1.08-.04.04-.04.1-.03.11-.07.25-.11.05h-.59l-.19.07-.05.19.02.35-.08.1-.11.11-.06.05-.06.16.07.18.23.15.15.14.04.12v.34l-.12.2-.01.15-.03.15-.02.36v.1l.14.17.12.1.28-.05.21.04.02.17-.05.23-.11.1-.07.16-.05.25-.04.1.02.06.16.09.01.06.22.31.07.19-.23.25.1.18.07.08-1.14 1.17-.68.86-2.04 2.99-1.12 2.6-1.29-.58-1.43-.66-4.43-2.1-.8-.38" fill="#d1dbdd" stroke="rgb(209, 219, 221)" stroke-width="0.1" data-originalStrokeWidth="0.1" style="stroke: rgb(0, 0, 0); fill: rgb(209, 219, 221); pointer-events: auto; stroke-width: 0.1;" pointer-events="auto"/>
      <path id="PA08" d="m1232.26 229.82.34-.1h.04l.66-.18 1.72-.48.33.05.2.09.1.19-.03.3.16.1.18.03.05.03.04.05.12.08.08.04.05.09.02.07.02.02.07.03.07.05.05.03h.05l.03-.03h.12l.02-.01-.03-.12v-.05l.07-.06h.09l.07.04.02.09.01.1.04.05.07.04h.08l.1.04.07.02.04.1.05.08.02.04.04.13.02.08.02.06.03.05.1.1.06.07.12.17.05.07v.14l-.06.12v.04l.08.2.03.06.03.04h.15l.1.02.06.08.05.11v.07l-.08.17.2.22.33-.27.43.2.07-.02.1-.32.33-.16.39.17.1-.42.13-.02.1.12.08.28.3.22.24-.14.1-.06.3.15.3-.1.1.1.1.46.13.12.26.04.3.15.2-.18.12-.03.1.1.01.39-.35.2-.12.26v.3l.04.13.03.15.27.01.37-.2.1.07.33.1.23.28.12.57.08.21.21.41-.32.08-.08.13.55.55.1.25-.15.25.39.42.11.35.12.4.18.28-.05.25-.13-.06-.17.1.1.18-.2.06-.12.1.24.23.14.14.08.08.36.14.26.4.32.07.33.3.12.28-.15.13.03.16.59.22.09.28.02.18.43-.08.13.25.02.24.05.2.32.12.36-.04.27-.3.42.06.19-.03.14.01.2.22.07.19.28.02.2.18-.07.36.17.03.55-.34.21-.03.5.26.22-.07.03-.2.18-.24.3.05.3.44.12.01.32-.25h.35l.14-.19.17-.15.22.17-.02.5.21.3h.41l.17.1.1.18.27.2.23.11.18.23-.1.15.01.02-.6.53-.4.12-.2.04-.12.26-.05.38-.1.16-.15.04-.33.26.15.22-.5.7-.19.51-.05.1-.02.1v.1l-.01.09-.02.1v.06l-.02.09.07.1.01.15-.02.05-.02.06-.1.03-.03.04-.05.06v.06l-.03.12v.07l.03.1v.02l-.06.17.01.11.02.05.03.05.05.03.1.05.06.04-.1.5-.06.3v.36l-.07.34-.24.45-.03.32-.28.68-.43.43.03.11-.27.4-.36.23-.1.6.02.13.23-.1.27-.24.03.08v.18l-.24.33-.36.28-.23.3v.32l-.13.45.06.13-.25.3-.15.13-.43.48-.28.19-.15.25-.32.27-.38.52.03.2v.12l-.01.15.15.2.2-.07.06.03-.13.35-.46.43-.5.28.02.16-.37.24-.45.4-.01.28-.36.43.28.23-.64.74-.07.34-.4.46-.7-.7-.09.08-.53-.17.01.3-.46.18-.18.32-.2-.22-.24-.03-.27.16-.02-.14-.23.11-.32-.17-.07.04-1.7-1.73-.91-.8-1.7-1.29-.21.02-.03-.2-.27-.29-.68-.37h-.13l-.06-.28-.17.05-.15-.3-.27-.15-.05.17-.24-.16-.2.08-.14-.28-.08.21-.1-.18-.35-.26-.35.2-.2.02-.15.34-.15.06.07.19-.2-.04-.24.58-.48.15.08.14-.3.27.11.21-.08.32.26.75.28.23.15.27.34-.1.1.1.12.34.2.22-1.37 1.2-.4.14-.6.5.09.15-2.99 2.54-.6.5-2-.14-.53-1.06 1.76-.9-.08-.15.49-.25-.54-.52.44-.43-.15-.47-.18-.32-.05-.27-.32.22.26-.54-.08-.04 1.76-1.43-.83-.49-.41-.6-.38-.41-.03.05-.48-.54-.33.13-.6.56-.17-.18-.21.18-.27-.55h.21l-.5-.73.03-.18.4-.36-1.14-.94 1.92-2.43-.2-.18.4-.6-.35-.26-.15.22-.3-.23.05.15-.2.28-.4-.34-.31.35-.32.09-.07-.2-.42.21.01-.24.18-.2-.16-.15-.09.17h-.28l.04-.46-.1-.31 1.28-.42.45-.33 1.7-1.05 1.28-.85.21-.5.64-2.4-.83-.35.39-1.57-.16-.16.52-2.17.22-.06-.07-.18 1.53-.42 2.2-.57 2.09-.56-1.27-3.95-.76-2.42-.25-.77-.76-2.45-.4-1.24" fill="#d1dbdd" stroke="rgb(209, 219, 221)" stroke-width="0.1" data-originalStrokeWidth="0.1" style="stroke: rgb(0, 0, 0); fill: rgb(209, 219, 221); pointer-events: auto; stroke-width: 0.1;" pointer-events="auto"/>
      <path id="PA09" d="m1229.52 266.23 3.35 2.3 2.93 1.37.66.3-.14.2-.26.11v.15l-.34.35-.17.37-.73.66-.23.06-.7.7 1.9.96 1.6.74-3.86 1.21 1.62.78.12.19.06.3-1.54.6.15.44-.16.49.2.04-.28.18-.14.3.14.18.04.3-.1.25.1.4.17.18-.16.2-1 .62.32.62-.51.84-.2-.15-.32.33-.12.03.16.47-.1.32.14-.14.53.06-.18.48.55.17.26.3.18-.04-.13.17v.43l-.42.58-.08.32-.3.34-1.67-.8-3.12 2.82-1.33.6-1.48.68-1.42 1.1-1.28.97-.06.05-1.88-3.19-1-1.65-1.82-3.08 2.63-3.33-1.32-.6-3.32-1.56-.27.01-.15.24-.56.11-.18.25-.48.22-.32.24-.26-.16-.13.2.06.24-.4.13-.23.33-.57.07-.09.4-.4.11.03.18-.31.03-.48.22-.3-.05-.4-.4.13-.36.23-.3.18-.78.28-.42.3-.36.2-.62.07-.6-.24-1-.25-.65-.03-.48v-.6l.1-.4.44-.96.09-.89-.08-.26-.17-.09h-.4l-.85-.57-.28-.27-.58-.75-.31-.65.14-.63-.08-.5-.01-.68-.07-.25.04-.36-.24-.75-.2-.2-.19-.01-.55-.49-.31-.56-.15-.47.05-.51-.46-.12-1.68-.97.18-.38.5-.16.38-.27.37-.52-.29.1-.22-.1-.49.21-.56-.2-.33-.02-.37.2-.52.56-.42.11-.18.16-.28-.18-.84.35-.01-.28-.17-.13 1.09-.37.05-.46-.15-.22-.27-.02-.28-.2.17-.39-.11-.24 1.31-.32-.18-.42-.05-.58-.1-.61 1.64-.24.16-.4.48-.05.08-.27.35-.36.27-.15-.13-.3.02-.3.25-.17.31.49.1-.12-.09-.32-.2-.15.2-.04-.36-1.29-.24-1.03 1.23-.37-1.88-3.39-1.42.14-.29-.7-.53-1.6-1.6-4.54-.77-2.16-1.16-3.13.53-.14.03-.02.75-.18.76-.21.45-.1.64-.18.85-.2.13-.03.18-.04.11-.04h.05l.03-.02.44-.11 1.35-.33.3-.08.25-.06.6-.15.87-.2.1-.04.44-.1.18-.05.66-.17.5-.12h.04l.13-.03.49-.12 1.22-.32.28-.06.75-.2.72-.19.45-.12.25-.06.28-.08.56-.14.44-.12.46-.13 1.07-.28.42-.11.15-.05.91-.24.58-.17 1.34-.35.1-.03 1.07-.27.39-.1.83-.23.94-.23 1.54-.41.53-.14h.04l.05-.03.22-.06.45-.11.16-.05.64-.17.53-.16.43-.12 1-.27.03-.02.09-.02.4-.12.13-.03.78-.22.95-.25.43-.12.4 1.22.75 2.46.25.77.76 2.42 1.27 3.95-2.08.56-2.21.57-1.53.42.07.18-.22.06-.52 2.17.16.16-.4 1.57.85.35-.65 2.4-.21.5-1.27.85-1.71 1.05-.45.33-1.3.42.11.3-.03.47h.28l.09-.17.15.16-.17.2v.24l.41-.22.07.19.32-.08.31-.35.4.34.2-.28-.04-.15.29.23.15-.21.36.26-.4.6.2.17-1.93 2.43 1.15.94-.41.36-.02.2.5.7-.22.01.27.55.2-.17.18.17.6-.56.33-.13.48.54.03-.05.38.41.4.6.84.5-1.76 1.42.1.04-.28.54.32-.2.05.25.18.32.15.47-.44.43.54.52-.49.25.08.15-1.76.9.53 1.06 2 .15.6-.5" fill="#d1dbdd" stroke="rgb(209, 219, 221)" stroke-width="0.1" data-originalStrokeWidth="0.1" style="stroke: rgb(0, 0, 0); fill: rgb(209, 219, 221); pointer-events: auto; stroke-width: 0.1;" pointer-events="auto"/>
      <path id="PA10" d="m1210.02 280.68.4.39.3.05.48-.21.31-.04-.03-.19.4-.1.1-.4.56-.07.23-.33.4-.13-.06-.23.13-.2.26.15.32-.25.48-.2.18-.26.57-.12.14-.23.28-.01 3.3 1.55 1.33.6-2.63 3.34 1.81 3.08 1.01 1.65 1.88 3.2.06-.06-.3.14-.02.13-.38.2-.16-.02-.14.34-.24.2-.06.21-.23.24-.4.1-.21.3-.02.28-.17-.05-.14.16-.1-.28-.05.25-.3.7-.04.38.69.4.54.5.2.25.36.27.48.03-.05.2-.23.15.15.18-.19.03.03.4.57.63.48.3.57.54-.69.43-.65.66-.05.28-.1-.09-1.11 1.34-.15-.25-.34.17-.34.36-.09-.13-.3-.1-.04.29.18.1-.04.21-.3.11v.23l-.33-.03-.13.14.09.43-.48.23v-.38l-.2-.14-.28.05-.24.31.05.18-.27.3-.27.04.07.2-.12.16-.28-.1-.07.12-.14-.3.05-.48.25-.73.13-.14.01-.23-.16-.15-.01-.3-.15-.49-.8-.2-.05.16-.57.12.47.18-.07.2-.2-.12-.12.34.02.29-.91-1.02-.91-1.1-.22-.08-.74.01-.32-.1-.4-.36-.35-.26-.94-.24h-.23l-.42.71-.38.83-.96.39-1.05.53-1.68.87-.82-.67-.1-.12-.57-.4-.57-.45-1.02-.72.18-.35.28.24.44-.6-.08-.32-.23.03.26-.22-.04-.33-.26.14-.72-.44-.23-.05-.25-.42.22-.15.2-.42.28-.18.2.16.4-.06.13-.2.4-.19-.01-.25.15-.01v-.24l.16-.22h.3l.18-.17-.23-.3-.15-.77.06-.1.08-.64.3.04.87-.59 1.44-.63.56-.18.68-.28.59-.32.58-.28 1.22-.44.4-.09 1.06-.46.57-.37.7-.57-.34-.31-.3-.41-.64.1-.21.1-.64.15h-.24l-.3-.12-.42-.63v-.16l.26-.4-.25-.69.29-.13.34-.72.4-.42.16-.47-.12-.47-.13-.18-.43-.1-.5-.5-.09-.26.04-.25-.1-.34-.37-.49-.06-.2.12-.36.36-.38.1-.23.04-.4-.11-.37v-.36" fill="#d1dbdd" stroke="rgb(209, 219, 221)" stroke-width="0.1" data-originalStrokeWidth="0.1" style="stroke: rgb(0, 0, 0); fill: rgb(209, 219, 221); pointer-events: auto; stroke-width: 0.1;" pointer-events="auto"/>
      <path id="PA11" d="m1222.23 291.66 1.28-.97 1.42-1.1 1.5-.69 1.3-.58 3.12-2.83 1.67.8 3.92 1.87 2.27 1.1-.77.76-.6.53.4.9.3.94.04.32-.6 2.46-.07.52.22.29.22.14-.18.35-.12-.04.15.35v.21l.15.33.23.17-.03.33.18.27-.06.14-.24-.14-.09.12.1.57-.3.09.05.27.2.42-.25.28-.2-.05.3.39-.11.07v.33l-.27.05.25.12-.1.44-.18.18-.06.33.05.33-.38.05-.04.2.1.22-.15.2-.19-.02v.19l.27.14-.16.35-.23-.09v-.2l-.28.02.14.32h-.24l-.19.1.06.13-.2.05-.24.06-.53.14-.13.05h-.03l-.6.15-1.04.3h-.1l-1.1.3-.5.14-.13.01-.03.02-.08.03-.12.02-1 .28-1.3.32-.53.15-.65.16-.28.08-1.44.37-.09.04-.47.12-.13.04-1.11.27-.45.12-.33.08-.34.11-.66.16-.19.06-.8.2-.27.08-.44.12-.66.17-.43.12-.07.02-.3.06-.21.06-.34.09-1.5.38-.4.12-.64.17-.2.03-.79-3.06-.1-.34.2-.15.16-.49.31-.18.17-.24-.23-.2-.09-.28-.21.1-.42-.61-.07-.23.29-.53-.27-.53.13-.07-.02-.29.12-.33.2.1.08-.18-.48-.17.57-.12.06-.18.79.21.15.5.01.28.16.16v.23l-.14.14-.25.73-.05.48.13.3.1-.13.26.11.12-.17-.07-.18.27-.06.27-.3-.05-.17.25-.31.29-.05.18.15v.38l.48-.24-.09-.43.13-.14.33.03v-.23l.3-.1.04-.23-.18-.1.04-.3.3.12.1.13.33-.36.34-.17.15.25 1.12-1.34.09.1.05-.3.65-.65.7-.43-.58-.55-.48-.29-.57-.64-.04-.38.2-.03-.15-.2.23-.14.05-.19-.48-.05-.37-.26-.2-.26-.52-.5-.7-.4.03-.38.31-.68.04-.25.1.27.15-.16.17.05.02-.29.21-.3.4-.09.23-.24.06-.22.24-.2.14-.33.16.01.38-.19.02-.13.3-.14" fill="#d1dbdd" stroke="rgb(209, 219, 221)" stroke-width="0.1" data-originalStrokeWidth="0.1" style="stroke: rgb(0, 0, 0); fill: rgb(209, 219, 221); pointer-events: auto; stroke-width: 0.1;" pointer-events="auto"/>
      <path id="PA12" d="m1145.67 298.7.29-.15h.36l.42.18.2.2.42.17.2.22.46.29.17.19.24-.03.64.16.1.14.49.12v.24l.27.34.23.13.06.25.36.34.15-.07.3.27-.27.26.12.2.15-.05-.32.38h-.08l.66.72-.07.32.14.3.12-.07-.06.25-.24.27-.02.32-.38.24.22.15.1.17-.32.16.1.12v.6l.11.24.53-.12.05.36-.18.23-.23-.12-.15.24.14.38-.38.17.02.38-.16.33-.14.53.02.11-.5.36-.25-.19-.17-.35-.34-.02-.1.42-.24.1-.38.03.08-.47-.2-.05.02-.18-.22.08-.16-.53-.29.03-.24.3.17.29-.21.18-1.86 1.4-.53.2h-.38l-.5-.2-.71-.08-.4-.32-.02-.2.13-.2.56-.24.26-.17.2-.27-2.78-.44-2.31-.4-.06-.3.28-.15-.02-.23-.33.02.1-.44-.13-.19-.25-.13.01-.26.27.07.8-.2.2.03.37.27.52-.28.1-.13.29-.11-.01-.19.14-.17-.16-.09.08-.2-.12-.1-.13.14-.43-.27-.3-.33-.15.2-.17-.05.2-.91-.28.03-.38.18.02.29-.17.17-.09-.23-.24-.03.27-.14.07-.18.14.07.11-.15-.15-.25.1-.14-.28-.1-.25.14.07.14-.31.02-.24-.49.26-.04.1-.2.24.09.37-.26.05-.19-.2-.3.22-.35.3-.06.2-.33h.3l.12.48.41.11.16.29.08-.2h.2l.25-.55.3-.24.3-.09.64.05.06-.24.3-.01.08.92.61.07.01.2-.26.05-.16.13-.17-.07.02.5.13.18.38.25.14-.05.34.23.18-.03.3-.28-.3-.37.58-.27-.23-.34.61.07.08-.38.18-.14.15-.45-.15-.46-.22-.42h-.1l-.25-.46-.08.07-.29-.14-.17.1-.16-.34-.17.09-.22-.2.31-.2.36-.12h.51l.37-.31-.03-.26" fill="#d1dbdd" stroke="rgb(209, 219, 221)" stroke-width="0.1" data-originalStrokeWidth="0.1" style="stroke: rgb(0, 0, 0); fill: rgb(209, 219, 221); pointer-events: auto; stroke-width: 0.1;" pointer-events="auto"/>
      <path id="PA13" d="m1215.05 302.08-.13.07.27.53-.29.53.07.23.42.6.21-.1.1.29.22.2-.18.24-.3.17-.17.49-.18.16.1.34.77 3.06-1.1.3-.46.12-.5.12-.23.06-.07.02-.15.04-.35.09-.73.18-.73.2-.3.07-.28.06-.16.04-.04.02-.45.1-.2.06-.51.12-.9.24-.44.12-.3.06-.26.08-.44.1-.5.12-.93.23-.38.1-.62.15-.07.02-.05.02-.2.04-.21.06-.13.04-.35.06-.4.11-.23.06-1.43.36-.35.07-.78.2-.48.1-1.17.29-.74.17-.28.06-1.86.44-1.01.24-4.4 1.07-.46.12-.34.08-.57.12-.25.07-.52.14-.66.15-.43.1-1.2.3-1.6.39-.17.03-.02.03h-.2l-1.97.5-.54.1-1.77.44-.2.05-.7.16-3.04.72-.85.18-.6.15-.94.24.13-.64.25-1.62.06-.22.03-.9-.32-1.35-1.17-4.56h-.03l-.31-1.3.13-.62.32.1.3-3.07.13-1.64.2-.68v-.41l-3.14.7-1.23.28-.3.13-.24-.14-.35.2-.2-.13-.23-.38.04-.16-.22-.14h-.56l-.1-.2-.16.05.24.24-.19.34.04.18-.36.4-.21.34-.85.7-.45-.69-.42-.2-.68.17-.23-.17.3-.46.06-.4.18-.57.2-.98.2-.2.02-.35.16-.2.26-1.23.01-.14.3-1.55.26-1.44.33-2.34.3-2.46.15-1.83.12-1.32.26.06-.1-.22 2.51-.58 1.32-.26 1.51-.44.9-.23 2.93-.67 1.26-.25-.33-.22 3.13-.97 2.04-.63.38.03 4.32.51.97-1.04.7-.64.7-.6 1.47.43 1.08-.52.29.33.5-.58.44-.4.17-.28 1.22-.83 1.64-1.47 1.43-1.36.5-.42.94-.69.27.02.42 1.62.75 2.76 4.38-.36.5-.07v-.11l.51-.3.3-.27.25.06.25.32.72-.3.2.1.29-.23.1.06.17.53.14.1.13-.2.32-.07.2.54.25.15.15-.3.26-.11.23.06.1-.17.34-.22.21.33-.13.37-.01.36.11.38-.05.4-.1.22-.36.38-.1.37.05.18.37.5.1.34-.04.25.08.26.51.5.43.1.14.18.12.47-.17.47-.4.42-.34.72-.28.13.24.68-.26.4v.17l.42.63.3.13.24-.01.64-.15.2-.1.64-.1.3.41.35.3-.7.58-.57.37-1.06.46-.4.09-1.22.44-.58.28-.6.32-.66.28-.56.18-1.45.63-.88.59-.29-.04-.08.64-.06.1.15.77.23.3-.18.18h-.3l-.15.2-.01.25h-.15l.01.26-.4.2-.13.2-.4.05-.2-.16-.27.18-.21.42-.22.15.25.42.23.05.72.44.26-.14.04.33-.26.22.23-.03.08.33-.44.59-.28-.24-.18.35 1.02.72.57.45.59.4.08.12.82.67 1.68-.87 1.05-.53.96-.39.38-.83.42-.7.23-.01.94.24.35.26.4.37.32.1.74-.02.22.08.9 1.1.92 1" fill="#d1dbdd" stroke="rgb(209, 219, 221)" stroke-width="0.1" data-originalStrokeWidth="0.1" style="stroke: rgb(0, 0, 0); fill: rgb(209, 219, 221); pointer-events: auto; stroke-width: 0.1;" pointer-events="auto"/>
      <path id="PA14" d="m1166.68 288.15.1.22-.24-.06-.13 1.32-.16 1.83-.29 2.46-.33 2.34-.25 1.44-.3 1.54-.02.15-.26 1.22-.16.2-.01.35-.21.21-.2.98-.18.58-.05.39-.31.46.23.18.68-.17.42.2.45.7.85-.72.22-.35.36-.4-.05-.17.18-.34-.23-.24.16-.03.1.17h.56l.22.15-.04.16.24.38.2.14.34-.2.23.13.3-.13 1.24-.28 3.15-.7v.4l-.21.69-.13 1.64-.3 3.07-.32-.1-.13.62.31 1.3h.03l1.17 4.56.32 1.34-.03.91-.06.22-.25 1.62-.13.63-3.1.72-.45.12-.58.13-1.41.32-.17.05-.46.1-2.2.53-.75.18-.28.06-.51.12-1.88.45-4.08.94-.42.11-.65.15-1.53.33-.22.07h-.06l-.32.07-.04.03-.42.08-.12.03-.28.06-.35.08-.62.13-1.13.28-1.21.27-.14.02-.32.08-.37.09-.4.09h-.05l-.04.01-.68.16-.55.12-.1.02-.6.13-.2.04-.57.12-.77.16-1 .24-.3.06-1.02.21v.02h-.1l-.73.17-.3.07-.46.1-.28.07h-.08l-.15.04-.06.02-.21.05h-.05l-.11.03-.38.07-.22.07h-.05l-.06.01-.14.05-.3.06-.16.03-.12.01-.02.02-.76.16-.49.1-.47.1h-.02l-.47.13h-.07l-.17.04-1.2.27-.33.06-.3.06-.43.1-.45.1-.56.11-.02-.06-.15-.64-.03-.18-.1-.5-.1-.45-.04-.19-.11-.5-.03-.1-.15-.71-.02-.13-.16-.79-.05-.22-.1-.4-.18-.93-.2-.82-.02-.19-.06-.2-.09-.47-.01-.11-.26-1.14-.09-.45-.24-1.07-.08-.43-.02-.08-.07-.31-.44-2.04-.2-.86-.06-.35-.09-.4-.05-.24-.44-2-.1-.5-.05-.2-.06-.32-.27-1.28-.17-.82-.19-.97-.04-.14-.17-.87-.2-.93-.02-.05-.09-.31-.02-.11 1.76-.38 1.9-.42 1.85 1.29 2.76 1.94.47.36 1.73.27 2.3.4 2.79.43-.2.28-.25.17-.56.23-.14.2.02.2.4.33.7.08.51.2h.38l.53-.2 1.86-1.4.2-.2-.16-.26.24-.31.29-.03.16.53.22-.08-.02.18.2.05-.08.47.38-.02.25-.11.09-.42.34.02.17.35.24.18.5-.35v-.11l.13-.53.16-.33-.02-.38.38-.17-.14-.38.15-.24.22.12.19-.23-.05-.36-.53.12-.1-.24v-.6l-.1-.12.3-.16-.1-.18-.21-.14.38-.24.02-.32.24-.27.06-.25-.12.07-.14-.3.08-.33-.67-.7.08-.01.32-.38-.15.06-.1-.2.26-.27-.31-.27-.15.07-.36-.34-.06-.25-.23-.13-.26-.34-.01-.24-.5-.12-.09-.15-.63-.15-.25.03-.17-.18-.46-.3-.2-.23-.41-.16-.2-.21-.43-.17h-.36l-.3.15-.36-.6-.06-.37.2-.45.52-.36.33-.33.07-.25.35-.66.04-.34-.27-.47.02-.27v-.02l.28-.12.22-.31.8.3.1.31.23.15.38.07.12.11.12.42.15.02.17-.36.17-.13.01.65.29.4h.13l.18-.25.35.03.04.09-.27.33-.04.32.36.56.67.3.28.2.33-.08.38.24.14.21.18-.16v-.25l.16-.02.06.19.24-.2.36.05 1.12-2.6 2.56-6.25-.42-1.93 1.52-.39.19.47.6-.21.45.09.42 1.81 1.72-.11h.76l.48-.08 3.85-.24-.04-.22.3.05.08.11" fill="#d1dbdd" stroke="rgb(209, 219, 221)" stroke-width="0.1" data-originalStrokeWidth="0.1" style="stroke: rgb(0, 0, 0); fill: rgb(209, 219, 221); pointer-events: auto; stroke-width: 0.1;" pointer-events="auto"/>
      <path id="PA15" d="m1210.15 280.31-.2-.33-.35.22-.1.17-.23-.06-.26.12-.15.3-.26-.16-.2-.54-.32.07-.12.2-.14-.1-.17-.53-.1-.06-.29.23-.2-.1-.72.3-.25-.32-.25-.06-.3.27-.51.31v.1l-.5.07-4.38.36-.75-2.76-.42-1.62-.27-.02-.94.69-.5.42-1.43 1.36-1.64 1.47-1.22.83-.18.28-.44.4-.5.58-.28-.33-1.08.52-1.47-.42-.7.59-.7.64-.97 1.04-4.32-.5-.38-.04-2.04.63-3.13.97.33.23-1.26.24-2.92.67-.9.24-1.5.42-1.33.27-2.53.58-.07-.1-.31-.06.04.22-3.85.24-.48.09-.76-.01-1.72.11-.42-1.81-.45-.1-.6.23-.19-.47-1.52.38.42 1.93-2.55 6.24-1.13 2.6-.36-.04-.24.2-.06-.19-.17.02.01.25-.18.16-.14-.21-.38-.24-.33.08-.28-.2-.68-.3-.35-.55.03-.33.28-.33-.04-.09-.34-.03-.19.26-.13-.01-.29-.4-.01-.65-.16.13-.17.35h-.15l-.12-.43-.13-.1-.38-.08-.22-.15-.1-.32-.81-.29-.23.3-.28.14-.27-1.29-.23-.91-.48-2.24-.4-1.91-.54-2.55-1.01-4.53-.18-.95-.28-1.1-.14-.07-2.74.6-2.09.49-.22-.78-.17-.81-.12-.1-.17-.73-.15-.8.31-.05-.08-.22-.3.01.08-.38.32-.3.24-.54-.07-.23.23.04.15-.17.25.17.46-.43.45.08.56-.1.26-.33-.1-.25-.35-.1-.1-.1-.12-.48-.1-.09-.58-.06-.18-.51.5-.5.19-.32.35-.08.54.17.25-.17.06-.55-.2-.34-.02-.36-.1-.14-.1-.57-.27.06-.21.24-.19-.16-.92.26-.02-.04-.56.14-.11-.44-.4.1.06-.48.19-.18-.35-.4.13-.18-.2-.45-.25.06-.2-.33-.25.15-.36-.05-.07-.18-.16.03-.04-.21-.19.04-.07-.37.52-.1-.1-.22.46-.3-.06-.33.44-.21-.13-.65 1.39-.26.01.1 3.55-.78-.09-.42-.48-2.19-1.18-5.38-.22-.97-.63-2.87.43-.09.67-.15.25-.05.53-.12.33-.06.12-.05 1-.23.43-.09.76-.18 1.03-.24 1.59-.36.68-.15.22-.07.48-.12.4-.09.73-.18.6-.14.28-.07.35-.07 1.75-.4 1.9-.42.17-.04.42-.09.16-.04 1.1-.24 1.62-.39 2.67-.65 1.5-.38.28-.08h.02l1.36-.31.87-.22.63-.14.6-.15.53-.12.66-.17.73-.17.47-.1.2-.04.02-.02h.03l.08-.02.51-.11.94-.23.29-.06.47-.12 1.16-.3.43-.11 1.25-.31 1.5-.36.58-.13 1.11-.24.38-.1.16-.03.37-.09 1.6-.37.15-.04 1.04-.27 1.06-.26.75-.2.34-.08.19-.05.57-.15.78-.2.5-.12.26-.07.55-.14.73-.19 1.32-.35.36-.08.28-.08 1.15-.28.73-.17.68-.17.52-.14h.05l.47-.12.29-.08 1.05-.25.83-.2.37-.11.55-.15.98-.23.02-.03.17-.04.31-.06.03-.03.36-.08.71-.2 1.13-.3 1.08-.28.53-.14.36-.1 1.15 3.12.78 2.16 1.6 4.56.53 1.58.29.7 1.42-.14 1.88 3.39-1.23.36.24 1.03.35 1.3-.19.04.2.15.08.32-.09.12-.3-.49-.26.19-.02.28.13.3-.28.15-.33.36-.08.27-.49.06-.16.39-1.63.24.1.6.04.58.18.43-1.31.32.1.24-.16.4.28.19.28.02.14.22-.05.46-1.1.37.18.13.01.28.84-.35.28.18.18-.16.42-.11.52-.56.37-.2.33.03.56.19.49-.22.22.12.28-.11-.35.52-.39.27-.5.16-.18.39 1.67.96.48.12-.07.51.16.47.31.56.55.49h.2l.2.2.22.76-.03.36.07.25.01.67.08.5-.13.65.31.65.57.73.28.28.85.56.4.01.17.09.08.26-.1.89-.42.95-.12.4v.62l.04.46.25.66.24 1-.07.6-.2.62-.3.36-.28.42-.18.77-.23.3" fill="#d1dbdd" stroke="rgb(209, 219, 221)" stroke-width="0.1" data-originalStrokeWidth="0.1" style="stroke: rgb(0, 0, 0); fill: rgb(209, 219, 221); pointer-events: auto; stroke-width: 0.1;" pointer-events="auto"/>
      <path id="PA16" d="m1133.83 245.43.24 1.07.04.14.08.36.25 1.1.22 1.02.44 1.98.32 1.38.3 1.34 1.88-.43 1.21-.27.33-.08.63 2.87.22.98 1.18 5.37.48 2.19.1.42-3.56.78-.01-.1-1.4.26.14.64-.44.22.06.34-.47.29.1.21-.51.1.08.38.18-.04.04.21.16-.04.07.2.36.04.25-.15.2.33.24-.06.22.45-.14.2.34.38-.18.18-.07.48.4-.1.12.44.57-.14v.04l.94-.26.18.16.2-.24.27-.07.1.57.1.15.02.36.21.34-.06.55-.25.17-.54-.16-.35.07-.2.3-.49.51.17.5.58.07.1.1.12.48.11.1.35.1.1.25-.27.32-.55.12-.45-.08-.46.4-.25-.15-.15.17-.23-.04.07.23-.24.53-.32.3-.07.4.3-.02.07.22-.31.05.15.8.17.74.12.09.17.8.22.79 2.08-.5 2.74-.59.15.07.28 1.11.17.93 1.02 4.53.53 2.55.41 1.92.48 2.24.23.91.28 1.28v.02l-.94.21-1.07.19-3.13.63-1.05.27-.56.08-2.03.42h-.02l-1.3.32-.47.09-1.03-3.87-.44-1.68-2.4.55-1.56.39-4.33.98-.09-.46-.06-.28-.05-.19-.11-.54-.03-.09-.07-.3-.02-.1-.04-.22-.22-.99-.09-.47-.04-.16-.25-1.26-.33-1.47-.01-.04-.05-.27-.13-.59-.05-.2-.05-.25-.21-.96v-.07l-.1-.36-.14-.71-.08-.35v-.05l-.16-.7v-.05l-.06-.26-.02-.07-.03-.11-.02-.03v-.1l-.01-.02v-.03l-.02-.05v-.03l-.07-.32-.05-.16v-.04l-.18-.85-.18-.88-.05-.2-.18-.88-.06-.24-.09-.4-.02-.11-.15-.7-.11-.54-.47-2.16-.15-.64-.24-1.16-.08-.38-.42-1.93-.12-.57-.19-.82v-.05l-.25-1.11-.17-.8-.17-.82-.07-.36-.61-2.83-.13-.58-.16-.71-.01-.1-.12-.56-.13-.54-.07-.4-.09-.4-.08-.35-.11-.5.49-.42.13-.04 1.43-1.02.4-.22.76-.63.3-.14.4-.28 1.27-1.05.37-.41.12-.23.53-.32.35-.3.63-.66.2-.34.18-1.15.3-.57.35-.3.26-.11.5-.08-.24.33.24.22-.02.25.33.02.96-.9.52-.53 1.05-1.14.6-.46.53-.6.08.03.55-.3.22-.3.28-.1.1-.2.7-.65h.1l.22-.23" fill="#d1dbdd" stroke="rgb(209, 219, 221)" stroke-width="0.1" data-originalStrokeWidth="0.1" style="stroke: rgb(0, 0, 0); fill: rgb(209, 219, 221); pointer-events: auto; stroke-width: 0.1;" pointer-events="auto"/>
      <path id="PA17" d="m1139.14 307.84-1.73-.28-.47-.36-2.76-1.93-1.85-1.29-1.9.41-1.76.39-.03-.08-.1-.53-.11-.55-.05-.12-.1-.45-.1-.56-.14-.65-.05-.23-.1-.4-.27-1.3-.02-.15-.03-.11-.05-.21v-.02l-.05-.19-.21-1-.2-.9-.19-.93-.12-.59-.07-.26-.1-.46v-.08l-.25-1.09-.06-.28-.09-.42-.01-.03 4.33-.99 1.56-.4 2.4-.54.44 1.68 1.03 3.87.47-.1 1.3-.31h.02l2.03-.42.56-.08 1.04-.27 3.14-.63 1.07-.19.94-.2-.02.26.27.47-.05.34-.35.66-.06.25-.33.33-.52.36-.2.45.06.38.37.6.03.26-.37.3h-.5l-.37.12-.31.2.22.2.17-.09.16.34.18-.1.28.14.09-.07.24.47h.1l.22.41.15.46-.16.45-.17.14-.08.38-.61-.06.23.33-.58.28.3.37-.3.27-.19.03-.33-.23-.14.05-.38-.25-.13-.18-.02-.5.17.07.16-.13.26-.05v-.2l-.62-.06-.09-.93-.28.01-.07.24-.64-.05-.3.1-.3.23-.27.54h-.17l-.08.2-.17-.28-.4-.11-.12-.47h-.32l-.17.32-.32.06-.23.35.21.3-.06.2-.36.25-.24-.08-.1.2-.26.03.24.49.31-.02-.07-.14.26-.14.28.1-.11.14.15.25-.11.15-.14-.07-.07.2-.28.12.25.03.1.23.16-.17-.02-.29.38-.18.29-.03-.2.9.16.05.15-.2.3.35.43.27.13-.15.12.1-.08.2.16.09-.13.17v.19l-.28.1-.11.14-.52.27-.38-.26-.19-.03-.8.2-.27-.07-.01.26.25.14.12.18-.09.44.34-.02v.23l-.28.14.07.3" fill="#d1dbdd" stroke="rgb(209, 219, 221)" stroke-width="0.1" data-originalStrokeWidth="0.1" style="stroke: rgb(0, 0, 0); fill: rgb(209, 219, 221); pointer-events: auto; stroke-width: 0.1;" pointer-events="auto"/>
      <g id="state_lines" stroke="rgb(209, 219, 221)" style="display: none; stroke: rgb(0, 0, 0);" stroke-width="0.1"/>
      <g id="state_abbr" fill="#000000" style="display: none; fill: rgb(0, 0, 0);">
        <text id="HI_label" x="491.79" y="769.82" style="font-size: 19.2455px; stroke-width: 1.60379; display: none;">
          <tspan id="HI_tspan" x="491.79" y="769.82" fill="#000000" dy="0" font-family="Arial" font-size="24.06" font-style="normal" font-weight="400" style="text-align: center; stroke-width: 2.57215; fill: rgb(0, 0, 0);" text-anchor="middle">HI</tspan>
        </text>
        <text id="AK_label" x="205.24" y="672.25" style="font-size: 19.2455px; stroke-width: 1.60379; display: none;">
          <tspan id="AK_tspan" x="205.24" y="672.25" fill="#000000" dy="0" font-family="Arial" font-size="24.06" font-style="normal" font-weight="400" style="text-align: center; stroke-width: 2.57215; fill: rgb(0, 0, 0);" text-anchor="middle">AK</tspan>
        </text>
        <text id="FL_label" x="1188.11" y="708.7" style="font-size: 19.2455px; stroke-width: 1.60379; display: none;">
          <tspan id="FL_tspan" x="1188.11" y="708.7" fill="#000000" dy="0" font-family="Arial" font-size="24.06" font-style="normal" font-weight="400" style="text-align: center; stroke-width: 2.57215; fill: rgb(0, 0, 0);" text-anchor="middle">FL</tspan>
        </text>
        <text id="NH_label" x="1306.05" y="167.79" stroke-width="1.1" font-size="13.25" style="display: none;">
          <tspan id="NH_tspan" x="1306.05" y="167.79" fill="#000000" stroke-width="1.1" dy="0" font-family="Arial" font-size="16.56" font-style="normal" font-weight="400" style="text-align: center; fill: rgb(0, 0, 0);" text-anchor="middle">NH</tspan>
        </text>
        <text id="MI_label" x="1019.65" y="246.58" style="font-size: 19.2455px; stroke-width: 1.60379; display: none;">
          <tspan id="MI_tspan" x="1019.65" y="246.58" fill="#000000" dy="0" font-family="Arial" font-size="24.06" font-style="normal" font-weight="400" style="text-align: center; stroke-width: 2.57215; fill: rgb(0, 0, 0);" text-anchor="middle">MI</tspan>
        </text>
        <text id="VT_label" x="1274.28" y="145.01" stroke-width="1.05" font-size="12.65" style="display: none;">
          <tspan id="VT_tspan" x="1274.28" y="145.01" fill="#000000" stroke-width="1.05" dy="0" font-family="Arial" font-size="15.81" font-style="normal" font-weight="400" style="text-align: center; fill: rgb(0, 0, 0);" text-anchor="middle">VT</tspan>
        </text>
        <text id="ME_label" x="1338.99" y="105.14" stroke-width="1.45" font-size="17.36" style="display: none;">
          <tspan id="ME_tspan" x="1338.99" y="105.14" fill="#000000" stroke-width="1.45" dy="0" font-family="Arial" font-size="21.7" font-style="normal" font-weight="400" style="text-align: center; fill: rgb(0, 0, 0);" text-anchor="middle">ME</tspan>
        </text>
        <text id="RI_label" x="1361.38" y="262.84" stroke-width="1.25" font-size="14.98" style="display: none;">
          <tspan id="RI_tspan" x="1361.38" y="262.84" fill="#000000" stroke-width="1.25" dy="0" font-family="Arial" font-size="18.72" font-style="normal" font-weight="400" style="text-align: center; fill: rgb(0, 0, 0);" text-anchor="middle">RI</tspan>
        </text>
        <text id="NY_label" x="1227.27" y="204.12" style="font-size: 19.2455px; stroke-width: 1.60379; display: none;">
          <tspan id="NY_tspan" x="1227.27" y="204.12" fill="#000000" dy="0" font-family="Arial" font-size="24.06" font-style="normal" font-weight="400" style="text-align: center; stroke-width: 2.57215; fill: rgb(0, 0, 0);" text-anchor="middle">NY</tspan>
        </text>
        <text id="PA_label" x="1187.28" y="284.69" style="font-size: 19.2455px; stroke-width: 1.60379; display: none;">
          <tspan id="PA_tspan" x="1187.28" y="284.69" fill="#000000" dy="0" font-family="Arial" font-size="24.06" font-style="normal" font-weight="400" style="text-align: center; stroke-width: 2.57215; fill: rgb(0, 0, 0);" text-anchor="middle">PA</tspan>
        </text>
        <text id="NJ_label" x="1330.57" y="290.09" stroke-width="1.28" font-size="15.4" style="display: none;">
          <tspan id="NJ_tspan" x="1330.57" y="290.09" fill="#000000" stroke-width="1.28" dy="0" font-family="Arial" font-size="19.25" font-style="normal" font-weight="400" style="text-align: center; fill: rgb(0, 0, 0);" text-anchor="middle">NJ</tspan>
        </text>
        <text id="DE_label" x="1320.8" y="328.42" stroke-width="1.36" font-size="16.38" style="display: none;">
          <tspan id="DE_tspan" x="1320.8" y="328.42" fill="#000000" stroke-width="1.36" dy="0" font-family="Arial" font-size="20.47" font-style="normal" font-weight="400" style="text-align: center; fill: rgb(0, 0, 0);" text-anchor="middle">DE</tspan>
        </text>
        <text id="MD_label" x="1310.72" y="368.46" stroke-width="1.34" font-size="16.11" style="display: none;">
          <tspan id="MD_tspan" x="1310.72" y="368.46" fill="#000000" stroke-width="1.34" dy="0" font-family="Arial" font-size="20.13" font-style="normal" font-weight="400" style="text-align: center; fill: rgb(0, 0, 0);" text-anchor="middle">MD</tspan>
        </text>
        <text id="VA_label" x="1198.59" y="392.33" style="font-size: 19.2455px; stroke-width: 1.60379; display: none;">
          <tspan id="VA_tspan" x="1198.59" y="392.33" fill="#000000" dy="0" font-family="Arial" font-size="24.06" font-style="normal" font-weight="400" style="text-align: center; stroke-width: 2.57215; fill: rgb(0, 0, 0);" text-anchor="middle">VA</tspan>
        </text>
        <text id="WV_label" x="1129.66" y="382.3" style="font-size: 19.2455px; stroke-width: 1.60379; display: none;">
          <tspan id="WV_tspan" x="1129.66" y="382.3" fill="#000000" dy="0" font-family="Arial" font-size="24.06" font-style="normal" font-weight="400" style="text-align: center; stroke-width: 2.57215; fill: rgb(0, 0, 0);" text-anchor="middle">WV</tspan>
        </text>
        <text id="OH_label" x="1079.05" y="334.46" style="font-size: 19.2455px; stroke-width: 1.60379; display: none;">
          <tspan id="OH_tspan" x="1079.05" y="334.46" fill="#000000" dy="0" font-family="Arial" font-size="24.06" font-style="normal" font-weight="400" style="text-align: center; stroke-width: 2.57215; fill: rgb(0, 0, 0);" text-anchor="middle">OH</tspan>
        </text>
        <text id="IN_label" x="998.79" y="352.94" style="font-size: 19.2455px; stroke-width: 1.60379; display: none;">
          <tspan id="IN_tspan" x="998.79" y="352.94" fill="#000000" dy="0" font-family="Arial" font-size="24.06" font-style="normal" font-weight="400" style="text-align: center; stroke-width: 2.57215; fill: rgb(0, 0, 0);" text-anchor="middle">IN</tspan>
        </text>
        <text id="IL_label" x="927.43" y="364.36" style="font-size: 19.2455px; stroke-width: 1.60379; display: none;">
          <tspan id="IL_tspan" x="927.43" y="364.36" fill="#000000" dy="0" font-family="Arial" font-size="24.06" font-style="normal" font-weight="400" style="text-align: center; stroke-width: 2.57215; fill: rgb(0, 0, 0);" text-anchor="middle">IL</tspan>
        </text>
        <text id="CT_label" x="1299.17" y="228.46" stroke-width="1.06" font-size="12.74" style="display: none;">
          <tspan id="CT_tspan" x="1299.17" y="228.46" fill="#000000" stroke-width="1.06" dy="0" font-family="Arial" font-size="15.93" font-style="normal" font-weight="400" style="text-align: center; fill: rgb(0, 0, 0);" text-anchor="middle">CT</tspan>
        </text>
        <text id="WI_label" x="898.6" y="224.7" style="font-size: 19.2455px; stroke-width: 1.60379; display: none;">
          <tspan id="WI_tspan" x="898.6" y="224.7" fill="#000000" dy="0" font-family="Arial" font-size="24.06" font-style="normal" font-weight="400" style="text-align: center; stroke-width: 2.57215; fill: rgb(0, 0, 0);" text-anchor="middle">WI</tspan>
        </text>
        <text id="NC_label" x="1205.6" y="458.72" style="font-size: 19.2455px; stroke-width: 1.60379; display: none;">
          <tspan id="NC_tspan" x="1205.6" y="458.72" fill="#000000" dy="0" font-family="Arial" font-size="24.06" font-style="normal" font-weight="400" style="text-align: center; stroke-width: 2.57215; fill: rgb(0, 0, 0);" text-anchor="middle">NC</tspan>
        </text>
        <text id="MA_label" x="1305.87" y="200.67" stroke-width="1.04" font-size="12.46" style="display: none;">
          <tspan id="MA_tspan" x="1305.87" y="200.67" fill="#000000" stroke-width="1.04" dy="0" font-family="Arial" font-size="15.58" font-style="normal" font-weight="400" style="text-align: center; fill: rgb(0, 0, 0);" text-anchor="middle">MA</tspan>
        </text>
        <text id="MO_label" x="854.22" y="422.93" style="font-size: 19.2455px; stroke-width: 1.60379; display: none;">
          <tspan id="MO_tspan" x="854.22" y="422.93" fill="#000000" dy="0" font-family="Arial" font-size="24.06" font-style="normal" font-weight="400" style="text-align: center; stroke-width: 2.57215; fill: rgb(0, 0, 0);" text-anchor="middle">MO</tspan>
        </text>
        <text id="GA_label" x="1106.89" y="574.56" style="font-size: 19.2455px; stroke-width: 1.60379; display: none;">
          <tspan id="GA_tspan" x="1106.89" y="574.56" fill="#000000" dy="0" font-family="Arial" font-size="24.06" font-style="normal" font-weight="400" style="text-align: center; stroke-width: 2.57215; fill: rgb(0, 0, 0);" text-anchor="middle">GA</tspan>
        </text>
        <text id="SC_label" x="1166.32" y="522.49" style="font-size: 19.2455px; stroke-width: 1.60379; display: none;">
          <tspan id="SC_tspan" x="1166.32" y="522.49" fill="#000000" dy="0" font-family="Arial" font-size="24.06" font-style="normal" font-weight="400" style="text-align: center; stroke-width: 2.57215; fill: rgb(0, 0, 0);" text-anchor="middle">SC</tspan>
        </text>
        <text id="KY_label" x="1039.99" y="426.39" style="font-size: 19.2455px; stroke-width: 1.60379; display: none;">
          <tspan id="KY_tspan" x="1039.99" y="426.39" fill="#000000" dy="0" font-family="Arial" font-size="24.06" font-style="normal" font-weight="400" style="text-align: center; stroke-width: 2.57215; fill: rgb(0, 0, 0);" text-anchor="middle">KY</tspan>
        </text>
        <text id="AL_label" x="1019.59" y="578.15" style="font-size: 19.2455px; stroke-width: 1.60379; display: none;">
          <tspan id="AL_tspan" fill="#000000" dy="0" font-family="Arial" font-size="24.06" font-style="normal" font-weight="400" style="text-align: center; stroke-width: 2.57215; fill: rgb(0, 0, 0);" text-anchor="middle">AL</tspan>
        </text>
        <text id="LA_label" x="872.7" y="649.59" style="font-size: 19.2455px; stroke-width: 1.60379; display: none;">
          <tspan id="LA_tspan" x="872.7" y="649.59" fill="#000000" dy="0" font-family="Arial" font-size="24.06" font-style="normal" font-weight="400" style="text-align: center; stroke-width: 2.57215; fill: rgb(0, 0, 0);" text-anchor="middle">LA</tspan>
        </text>
        <text id="MS_label" x="940.37" y="592.21" style="font-size: 19.2455px; stroke-width: 1.60379; display: none;">
          <tspan id="MS_tspan" x="940.37" y="592.21" fill="#000000" dy="0" font-family="Arial" font-size="24.06" font-style="normal" font-weight="400" style="text-align: center; stroke-width: 2.57215; fill: rgb(0, 0, 0);" text-anchor="middle">MS</tspan>
        </text>
        <text id="IA_label" x="823.33" y="308.44" style="font-size: 19.2455px; stroke-width: 1.60379; display: none;">
          <tspan id="IA_tspan" x="823.33" y="308.44" fill="#000000" dy="0" font-family="Arial" font-size="24.06" font-style="normal" font-weight="400" style="text-align: center; stroke-width: 2.57215; fill: rgb(0, 0, 0);" text-anchor="middle">IA</tspan>
        </text>
        <text id="MN_label" x="790.84" y="183.37" style="font-size: 19.2455px; stroke-width: 1.60379; display: none;">
          <tspan id="MN_tspan" x="790.84" y="183.37" fill="#000000" dy="0" font-family="Arial" font-size="24.06" font-style="normal" font-weight="400" style="text-align: center; stroke-width: 2.57215; fill: rgb(0, 0, 0);" text-anchor="middle">MN</tspan>
        </text>
        <text id="OK_label" x="732.05" y="519.54" style="font-size: 19.2455px; stroke-width: 1.60379; display: none;">
          <tspan id="OK_tspan" x="732.05" y="519.54" fill="#000000" dy="0" font-family="Arial" font-size="24.06" font-style="normal" font-weight="400" style="text-align: center; stroke-width: 2.57215; fill: rgb(0, 0, 0);" text-anchor="middle">OK</tspan>
        </text>
        <text id="TX_label" x="710.59" y="652.87" style="font-size: 19.2455px; stroke-width: 1.60379; display: none;">
          <tspan id="TX_tspan" x="710.59" y="652.87" fill="#000000" dy="0" font-family="Arial" font-size="24.06" font-style="normal" font-weight="400" style="text-align: center; stroke-width: 2.57215; fill: rgb(0, 0, 0);" text-anchor="middle">TX</tspan>
        </text>
        <text id="NM_label" x="506.94" y="542.36" style="font-size: 19.2455px; stroke-width: 1.60379; display: none;">
          <tspan id="NM_tspan" x="506.94" y="542.36" fill="#000000" dy="0" font-family="Arial" font-size="24.06" font-style="normal" font-weight="400" style="text-align: center; stroke-width: 2.57215; fill: rgb(0, 0, 0);" text-anchor="middle">NM</tspan>
        </text>
        <text id="KS_label" x="701.21" y="427.26" style="font-size: 19.2455px; stroke-width: 1.60379; display: none;">
          <tspan id="KS_tspan" x="701.21" y="427.26" fill="#000000" dy="0" font-family="Arial" font-size="24.06" font-style="normal" font-weight="400" style="text-align: center; stroke-width: 2.57215; fill: rgb(0, 0, 0);" text-anchor="middle">KS</tspan>
        </text>
        <text id="NE_label" x="686.63" y="337.29" style="font-size: 19.2455px; stroke-width: 1.60379; display: none;">
          <tspan id="NE_tspan" x="686.63" y="337.29" fill="#000000" dy="0" font-family="Arial" font-size="24.06" font-style="normal" font-weight="400" style="text-align: center; stroke-width: 2.57215; fill: rgb(0, 0, 0);" text-anchor="middle">NE</tspan>
        </text>
        <text id="SD_label" x="663.02" y="238.75" style="font-size: 19.2455px; stroke-width: 1.60379; display: none;">
          <tspan id="SD_tspan" x="663.02" y="238.75" fill="#000000" dy="0" font-family="Arial" font-size="24.06" font-style="normal" font-weight="400" style="text-align: center; stroke-width: 2.57215; fill: rgb(0, 0, 0);" text-anchor="middle">SD</tspan>
        </text>
        <text id="ND_label" x="663.02" y="150.75" style="font-size: 19.2455px; stroke-width: 1.60379; display: none;">
          <tspan id="ND_tspan" x="663.02" y="150.75" fill="#000000" dy="0" font-family="Arial" font-size="24.06" font-style="normal" font-weight="400" style="text-align: center; stroke-width: 2.57215; fill: rgb(0, 0, 0);" text-anchor="middle">ND</tspan>
        </text>
        <text id="WY_label" x="499.57" y="276.47" style="font-size: 19.2455px; stroke-width: 1.60379; display: none;">
          <tspan id="WY_tspan" x="499.57" y="276.47" fill="#000000" dy="0" font-family="Arial" font-size="24.06" font-style="normal" font-weight="400" style="text-align: center; stroke-width: 2.57215; fill: rgb(0, 0, 0);" text-anchor="middle">WY</tspan>
        </text>
        <text id="MT_label" x="487.84" y="155.58" style="font-size: 19.2455px; stroke-width: 1.60379; display: none;">
          <tspan id="MT_tspan" x="487.84" y="155.58" fill="#000000" dy="0" font-family="Arial" font-size="24.06" font-style="normal" font-weight="400" style="text-align: center; stroke-width: 2.57215; fill: rgb(0, 0, 0);" text-anchor="middle">MT</tspan>
        </text>
        <text id="CO_label" x="525.13" y="406.28" style="font-size: 19.2455px; stroke-width: 1.60379; display: none;">
          <tspan id="CO_tspan" x="525.13" y="406.28" fill="#000000" dy="0" font-family="Arial" font-size="24.06" font-style="normal" font-weight="400" style="text-align: center; stroke-width: 2.57215; fill: rgb(0, 0, 0);" text-anchor="middle">CO</tspan>
        </text>
        <text id="ID_label" x="339.94" y="235.07" style="font-size: 19.2455px; stroke-width: 1.60379; display: none;">
          <tspan id="ID_tspan" x="339.94" y="235.07" fill="#000000" dy="0" font-family="Arial" font-size="24.06" font-style="normal" font-weight="400" style="text-align: center; stroke-width: 2.57215; fill: rgb(0, 0, 0);" text-anchor="middle">ID</tspan>
        </text>
        <text id="UT_label" x="396.81" y="386.73" style="font-size: 19.2455px; stroke-width: 1.60379; display: none;">
          <tspan id="UT_tspan" x="396.81" y="386.73" fill="#000000" dy="0" font-family="Arial" font-size="24.06" font-style="normal" font-weight="400" style="text-align: center; stroke-width: 2.57215; fill: rgb(0, 0, 0);" text-anchor="middle">UT</tspan>
        </text>
        <text id="AZ_label" x="366.76" y="536.9" style="font-size: 19.2455px; stroke-width: 1.60379; display: none;">
          <tspan id="AZ_tspan" x="366.76" y="536.9" fill="#000000" dy="0" font-family="Arial" font-size="24.06" font-style="normal" font-weight="400" style="text-align: center; stroke-width: 2.57215; fill: rgb(0, 0, 0);" text-anchor="middle">AZ</tspan>
        </text>
        <text id="NV_label" x="262.47" y="370.64" style="font-size: 19.2455px; stroke-width: 1.60379; display: none;">
          <tspan id="NV_tspan" x="262.47" y="370.64" fill="#000000" dy="0" font-family="Arial" font-size="24.06" font-style="normal" font-weight="400" style="text-align: center; stroke-width: 2.57215; fill: rgb(0, 0, 0);" text-anchor="middle">NV</tspan>
        </text>
        <text id="OR_label" x="214.43" y="206.88" style="font-size: 19.2455px; stroke-width: 1.60379; display: none;">
          <tspan id="OR_tspan" x="214.43" y="206.88" fill="#000000" dy="0" font-family="Arial" font-size="24.06" font-style="normal" font-weight="400" style="text-align: center; stroke-width: 2.57215; fill: rgb(0, 0, 0);" text-anchor="middle">OR</tspan>
        </text>
        <text id="WA_label" x="238.05" y="102.99" style="font-size: 19.2455px; stroke-width: 1.60379; display: none;">
          <tspan id="WA_tspan" x="238.05" y="102.99" fill="#000000" dy="0" font-family="Arial" font-size="24.06" font-style="normal" font-weight="400" style="text-align: center; stroke-width: 2.57215; fill: rgb(0, 0, 0);" text-anchor="middle">WA</tspan>
        </text>
        <text id="CA_label" x="191.69" y="434.8" style="font-size: 19.2455px; stroke-width: 1.60379; display: none;">
          <tspan id="CA_tspan" x="191.69" y="434.8" fill="#000000" dy="0" font-family="Arial" font-size="24.06" font-style="normal" font-weight="400" style="text-align: center; stroke-width: 2.57215; fill: rgb(0, 0, 0);" text-anchor="middle">CA</tspan>
        </text>
        <text id="DC_label" x="1309.32" y="398.19" stroke-width="1.29" font-size="15.45" style="display: none;">
          <tspan id="DC_tspan" x="1309.32" y="398.19" fill="#000000" stroke-width="1.29" dy="0" font-family="Arial" font-size="19.31" font-style="normal" font-weight="400" style="text-align: center; fill: rgb(0, 0, 0);" text-anchor="middle">DC</tspan>
        </text>
        <text id="TN_label" x="1018.93" y="485.72" style="font-size: 19.2455px; stroke-width: 1.60379; display: none;">
          <tspan id="TN_tspan" x="1018.93" y="485.72" fill="#000000" dy="0" font-family="Arial" font-size="24.06" font-style="normal" font-weight="400" style="text-align: center; stroke-width: 2.57215; fill: rgb(0, 0, 0);" text-anchor="middle">TN</tspan>
        </text>
        <text id="AR_label" x="863.15" y="535.77" style="font-size: 19.2455px; stroke-width: 1.60379; display: none;">
          <tspan id="AR_tspan" x="863.15" y="535.77" fill="#000000" dy="0" font-family="Arial" font-size="24.06" font-style="normal" font-weight="400" style="text-align: center; stroke-width: 2.57215; fill: rgb(0, 0, 0);" text-anchor="middle">AR</tspan>
        </text>
      </g>
      <g id="state_borders" transform="translate(-0.04777967,-0.15336683)" stroke="rgb(209, 219, 221)" style="stroke: rgb(0, 0, 0);" stroke-width="0.3">
        <path id="PA_WV_border" d="m1127.68 299.77 4.97 23.22 1.14 5.26 2.3-.5 13.32-2.91 8.8-2" stroke="rgb(209, 219, 221)" stroke-width="0.3" fill="none" style="stroke: rgb(0, 0, 0); display: none;"/>
        <path id="PA_NJ_border" d="m1255.47 244.55-.5.48-.72.23-.23.77-.46.2.12.36-.77 1.3-.02.89-.2.83.23.18-.18 1.35-.56 1.55-1.1 1.3.04.65.4-.02-.8.83-.08.9-1.56 1.6-.38.55.1.65 1.27 1.18.45.2.22.54.7.54-.02.8-.62.18-.08.29.45.42-.28 1.18-.44.7-.88.1-.35.96.5.58-.18 1.3.73.26-.3 1.02.48.83.29 1.36.53.2.78-.55.9.02.94.59.65 1.8.05.86.57 1.06.92.24.59-.4.87.26.9 1.48 1.05.56 1.08.4.99 1.2 1.92.62.6.78.99.58.08.46-1.11 1.14-.84.02-.27.96-.37.63-1 .76-.54.19-.66.7-.75 1.29-.82.74-.3.96-1.1.94.17 1 .29.43-.04.73-1 .53-.71.88-1.07.7-1.34.38-.47.4-1.08 1.57" stroke="rgb(209, 219, 221)" stroke-width="0.3" fill="none" style="stroke: rgb(0, 0, 0); display: none;"/>
        <path id="PA_MD_border" d="m1244.49 301.38-.34.1-4.9 1.34-9.73 2.58-13.28 3.48-11.13 2.8-5.96 1.45-18.98 4.57-21.96 5.15" stroke="rgb(209, 219, 221)" stroke-width="0.3" fill="none" style="stroke: rgb(0, 0, 0); display: none;"/>
        <path id="PA_DE_border" d="m1251.9 296.6-.81-.23-1.16-.1-1.7.27-1.05.44-.93.7-.74.8-.84 1.7-.18 1.2-.34.1" stroke="rgb(209, 219, 221)" stroke-width="0.3" fill="none" style="stroke: rgb(0, 0, 0); display: none;"/>
      </g>
      <rect id="selection-rectangle" fill="#ffffccaa" stroke="rgb(209, 219, 221)" stroke-width="0.1"/>
      <ellipse id="selection-ellipse" fill="#ffffccaa" stroke="rgb(209, 219, 221)" stroke-width="0.1"/>
      <polygon id="selection-polygon" fill="#ffffccaa" stroke="rgb(209, 219, 221)" stroke-width="0.1"/>
      <polyline id="selection-polyline" fill="#ffffccaa" stroke="rgb(209, 219, 221)" stroke-width="0.1"/>
    </svg>
  </g>
</svg>
