<?xml version='1.0' encoding='UTF-8'?>
<svg xmlns="http://www.w3.org/2000/svg" xmlns:dc="http://purl.org/dc/elements/1.1/" xmlns:ns2="http://creativecommons.org/ns#" xmlns:rdf="http://www.w3.org/1999/02/22-rdf-syntax-ns#" id="wrapper" viewBox="0 0 1520 840" preserveAspectRatio="xMinYMin" height="840" width="1520" style="background-color: rgb(255, 255, 255);">
  <metadata>
    <rdf:rdf>
      <ns2:work rdf:about="">
        <dc:format>image/svg+xml</dc:format>
        <dc:type rdf:resource="http://purl.org/dc/dcmitype/StillImage"/>
        <dc:title>MapChart Map</dc:title>
        <dc:creator>
          <ns2:agent>
            <dc:title>MapChart.net</dc:title>
          </ns2:agent>
        </dc:creator>
        <ns2:license rdf:resource="http://creativecommons.org/licenses/by-sa/4.0/"/>
        <dc:description>This map was created with MapChart.net, a website for creating custom maps.</dc:description>
      </ns2:work>
      <ns2:license rdf:about="http://creativecommons.org/licenses/by-sa/4.0/">
        <ns2:permits rdf:resource="http://creativecommons.org/ns#Reproduction"/>
        <ns2:permits rdf:resource="http://creativecommons.org/ns#Distribution"/>
        <ns2:requires rdf:resource="http://creativecommons.org/ns#Notice"/>
        <ns2:requires rdf:resource="http://creativecommons.org/ns#Attribution"/>
        <ns2:requires rdf:resource="http://creativecommons.org/ns#ShareAlike"/>
      </ns2:license>
    </rdf:rdf>
  </metadata>
  <g id="map-group" transform="translate(-3844.8747869246754,-1214.0673918907978) scale(6.939597680171732)">
    <svg id="map" width="1520" height="840" version="1.1" viewBox="0 0 1520 840" preserveAspectRatio="xMinYMin" data-originalStrokeWidth="0.3">
      <defs>
        <pattern id="circles3" width="10" height="10" patternUnits="userSpaceOnUse">    <rect width="10" height="10" fill="#fff"/>    <circle cx="4" cy="4" r="2" fill="#000"/>    </pattern>
        <pattern id="diagonal1" width="10" height="10" patternUnits="userSpaceOnUse">    <rect width="10" height="10" fill="#fff"/>    </pattern>
        <pattern id="diagonal3" width="10" height="10" patternUnits="userSpaceOnUse">    <rect width="10" height="10" fill="#fff"/>    </pattern>
        <pattern id="vertical1" width="10" height="10" patternUnits="userSpaceOnUse">    <rect width="10" height="10" fill="#fff"/>    <rect x="2" y="0" width="1" height="10" fill="#000"/>    </pattern>
        <pattern id="vertical3" width="10" height="10" patternUnits="userSpaceOnUse">    <rect width="10" height="10" fill="#fff"/>    <rect x="2" y="0" width="3" height="10" fill="#000"/>    </pattern>
        <pattern id="horizontal1" width="10" height="10" patternUnits="userSpaceOnUse">    <rect width="10" height="10" fill="#fff"/>    <rect x="0" y="2" width="10" height="1" fill="#000"/>    </pattern>
        <pattern id="horizontal3" width="10" height="10" patternUnits="userSpaceOnUse">    <rect width="10" height="10" fill="#fff"/>    <rect x="0" y="2" width="10" height="3" fill="#000"/>    </pattern>
        <pattern id="crosshatch" width="8" height="8" patternUnits="userSpaceOnUse">    <rect width="8" height="8" fill="#fff"/>    </pattern>
        <pattern id="subtlepatch" width="5" height="5" patternUnits="userSpaceOnUse">    <rect width="5" height="5" fill="#fff"/>    <rect x="2" y="2" width="1" height="1" fill="#000"/>    </pattern>
        <pattern id="checkers" width="8" height="8" patternUnits="userSpaceOnUse">    <rect width="8" height="8" fill="#fff"/>    </pattern>
        <pattern id="raindrops" width="10" height="10" patternUnits="userSpaceOnUse">    <rect width="10" height="10" fill="#fff"/>    </pattern>
        <pattern id="texture" width="4" height="4" patternUnits="userSpaceOnUse">    <rect width="4" height="4" fill="#fff"/>    </pattern>
        <pattern id="circles3_a03500_000000" width="10" height="10" patternUnits="userSpaceOnUse">    <rect width="10" height="10" fill="#a03500"/>    <circle cx="4" cy="4" r="2" fill="#000000"/>    </pattern>
        <pattern id="diagonal1_d9b400_535353" width="10" height="10" patternUnits="userSpaceOnUse">    <rect width="10" height="10" fill="#d9b400"/>    </pattern>
        <pattern id="diagonal3_3264c8_ffffff" width="10" height="10" patternUnits="userSpaceOnUse">    <rect width="10" height="10" fill="#3264c8"/>    </pattern>
        <pattern id="horizontal1_72b38e_000000" width="10" height="10" patternUnits="userSpaceOnUse">    <rect width="10" height="10" fill="#72b38e"/>    <rect x="0" y="2" width="10" height="1" fill="#000000"/>    </pattern>
        <pattern id="horizontal3_986ba1_ffffff" width="10" height="10" patternUnits="userSpaceOnUse">    <rect width="10" height="10" fill="#986ba1"/>    <rect x="0" y="2" width="10" height="3" fill="#ffffff"/>    </pattern>
        <pattern id="vertical1_b9a087_ffffff" width="10" height="10" patternUnits="userSpaceOnUse">    <rect width="10" height="10" fill="#b9a087"/>    <rect x="2" y="0" width="1" height="10" fill="#ffffff"/>    </pattern>
        <pattern id="vertical3_4c91bf_ffff33" width="10" height="10" patternUnits="userSpaceOnUse">    <rect width="10" height="10" fill="#4c91bf"/>    <rect x="2" y="0" width="3" height="10" fill="#ffff33"/>    </pattern>
        <pattern id="checkers_cc3333_f7f7f7" width="8" height="8" patternUnits="userSpaceOnUse">    <rect width="8" height="8" fill="#cc3333"/>    </pattern>
        <pattern id="texture_d1dbdd_525252" width="4" height="4" patternUnits="userSpaceOnUse">    <rect width="4" height="4" fill="#d1dbdd"/>    </pattern>
        <style id="map-style">svg { background-color: #ffffff; }</style>
      </defs>
      <path id="SD00" d="m748.56 237.43.05.92.03.91.13 2.57.1 2.98.08 1.42.03.38.03.92.03.51.02.86.02.48.1 2.28.16 3.03v.65l.12 2.3-1.24.04-2.07.1v.14l.34.17-.02.2-.01.18.1.36-.24.13v.07l-.15.2.03.07v.2l.03.05.15.35.43.05.1.13-.08.25.13.06.54.6.19.07.28-.04.11.63-.11.42.07.44-.06.19-.15.19.26.78-.15.23.05.15-.4.2-.06.03-.1-.1-.21.07-.24-.14-.33.13.03.1.2-.1-.04.21.09.33-.18.15.05.2.2-.02.26.23.18.02h.08l.03.15.07.18-.33.14-.17.2.06.12.04.1.2.27.1-.14.67.07.12.15.26.05.06-.16.3-.06h.13l.19.01.22.47-.08.16.02.13.11.38.05.04.06.45h-.06l.05.1.03.18-.03.32.17.24.23.03.2.28.17.42-.22.34-.16.4-.18.24.2.1-.03.17-.09.54-.37.07-.27.35-.48.07-.09.2.13.18-.1.26.1.18.25.14.2.3-.1.3-.19.12-.18.18.03.18-.15.07-.02.1.1.24.25.05.16.4-.22.15.01.27-.36.31-.23.42-.08.34.09.2-.14.08.06.1.27.07.05.23-.3.04-.05.17.12.18-.2.14.01.54.14-.03-.08.26-.25.05.2.24-.07.14-.2-.08-.06.29-.01.06-.03-.03-.1-.15-.3-.1-.02.12.13.19-.19.14.05.12-.24.14v.1l.07.09.03.13-.08.39-.23.1.04.13-.35.09-.08.25-.06.14-.16.02-.07.22.2.24.06.08-.19.47.1.14-.19-.07.02.1.2.15-.1.17.22-.06-.07.25.1.1-.03.11.16.36.22-.1.37.24.01.18.17-.05.02.22.22-.01.1.12-.13.22.12.05.13-.2.29.4-.06.19.4-.09.1.24-.03.16.3.18.06.21.2.16v.13l-.02.1-.03.07-.08.06-.05.03-.1-.03-.05.03-.02.07v.05l.03.1.06.05h.05l.07-.14.02-.03.04-.06.06-.03.04.01.03.03.1.08.25.58-.02.12.18.05-.04.26.23.21-.28.42.02.07.12.06.08-.02h.3v.52l-.02.5-.3.17v.03l-.01.09.03.05.13.08.05.02.14-.01.14.22-.06.43.33-.04.16-.05.17.06.06-.02-.69.36-.31.02-.3-.08-.15-.12-.18-.22-.04-.08-.04-.13-.16-.28-.3-.25-.26-.06-.21.01-.32.16-.27.26-.27.11h-.3l-.4-.24-.06-.11-.08-.23-.04-.13-.07-.6-.33-.4-.24-.18-.41-.13-.26-.24-.48-.62-.14-.54.08-.29.1-.17.32-.45.02-.23-.1-.13-.15-.09-.71-.22h-.16l-.29.04-.37.15-.3-.01-.56-.2-.03-.08.03-.36-.01-.28-.05-.13-.1-.22-.17-.08-.15-.04h-.23l-.34-.1-.14-.1-.26-.17-.44-.09-.11-.01-.09-.02-.03-.02-.22-.14-.2-.09-.25.08-.42.4h-.6l-.04-.26.07-.25v-.09l-.2-.45-.15-.14-.19-.06-.14.04h-.07l-.82-.08-.4-.16-.47-.1-.44.08-.44.02-.27.04-.16-.04-.22-.04-.08-.15-.1-.22-.1-.14-.3-.27-.19-.1-.07-.03-.11-.04-.14.01-.52-.06-.3-.24-.02-.15-.1-.29-.02-.55-.26-.13-.07-.06-.43-.11-.27.08-.15.01h-.1l-.13-.03-.25-.04-.12-.13-.16-.17-.19-.04-.27.15-.2.14-.24.1-.48.03-.22-.15-.13-.16-.19.03-.28.01-.05-.02-.16-.1-.25.1-.18.29-.3.3-.23.07-.55-.14-.33.01-.4-.24-.41.22-.2.07-.7.1-.87-.24-.1-.07h-.19l-.42.2-.38.18-.47.16-.41.03-1.07-.14-.97-.04-.32-.1-.3-.13-.16-.06-.55-.26-.31.04-.47.17-.22.14-.02.2-.03.27-.01.23-.2.62-.22.34-.13.25-.38.36-.1.12-.47.45-.34.06-.33-.03-.19.08-.2.08-.28.06-.47.02h-.2l-.24-.13-.35-.15v-.01l-.08-.25-.21-.17-.06-.06-.2-.18-.11-.04-.19-.13-.08-.1-.2-.22-.47-.27-.25-.4-.2-.22h-.03l-.52.1-.43-.14-.7-.34-.1-.08-.06-.06-.12-.1-.61-.4h-.25l-.27-.02-.4-.14-.29-.08-.44-.18-.17-.22-.05-.07-.1-.09-1.52-.75-.2-.15-.1-.04-.24.01-.07.07-.25-.03-.05-.13-.34-.3-.28-.35-.13-.24-.1-.18-.3-.6-.08-.31-1.6.02-1.38.04-.85.02-.6.01-.75.03h-.62l-.76.03-.89.01-1.3.03-1.86.03h-.06l-1.32.02-.98.04-.27-.01h-.48l-.88.02h-.58l-.76.03h-1.55l-.8.04-1.15.02-.02-.02-.36.02-.94.01-1.52.03-.4-.02-.27.02h-.76l-2.38.04-1.22.01h-.32l-1.45.02-.06-.01-.74.02h-1.41l-1.6.02h-1.5l-.2.02h-2.39l-.35-.02-2.19.03h-1.23l-.72-.02-.05.02h-2.39l-2.53.01h-.58l-.1.01-3.57.02h-.86l-.58-.02h-2.36l-.25.02h-1.54l-.12-.01-.57-.01h-1.34l-2.02.01-2.21-.01v-.02h-5.02l-.73-.01h-2.1l-1.43-.01-1.85-.02-3.72-.13h-1.5l-1.2-.04h-1.1l-1.38-.03-2.59-.04-.8-.01-1.91-.04-2.46-.06-.95-.02h-1.14l-.51-.03h-.04l-1.6-.02-.6-.02-4.79-.11-2.63-.08-1.03-.04-1.45-.02-3.2-.09-.59-.02-1.43-.04-2.11-.05-2.2-.07-.13-.01-.41-.01-.6-.02-1.21-.03-1.16-.05-1.42-.03-.41-.04h-.93l-.94-.05-1.22-.04-1.56-.05-.67-.05h-.8l-1.1-.02-.1-.01v-.01l.04-1 .1-3.25.09-2.1.04-1.38v-.14l.05-1.72.07-2.04v-.19l.07-1.82.1-3.19.02-.76.03-.67v-.15l.17-4.97.03-.67.02-.38.06-2.52.06-.8.05-1.78.02-.1.06-1.95.14-3.57.05-1.4.03-.71.01-.75.04-1.45v-.27l.06-1.62.03-.48.07-2.21.12-3.87.03-.78v-.15l.07-1.75.05-1.22.04-1.42.06-1.64.06-1.44v-.54l.02-.34.04-1.74.06-1.46.02-.63.05-2.03h.4l.05-1.8.03-.77.08-2.38.05-1.4.08-2.05.04-.96.08-3.08.04-1.26.05-.93v-.92l.1-3.2.05-1.33.04-1.05-.02-.33.1-2.2.08-3.28.07-2.5-.01-.37 1 .03.4.01 1.27.04.5.02.28.02.76.01 1.46.07.82.02 1.95.05 1.67.05.61.04 1.24.02.14.02h.6l.78.03.88.02.48.02 1.87.05.86.02 1.11.03h.27l1.73.07h.53l.69.02h.28l.97.01.66.04.4.02h.47l1.09.02.92.02 2.06.05.67.01.6.02.86.02.8.01.45.02h.51l.43.02h1.35l.57.03h.54l.59.03h1.1l1.39.04h.36l1.9.04h.51l.72.01.84.02 1 .01 1.1.03h2.08l1.85.05h.6l2.24.02.39.02h.9l1.09.02 1 .01 1.05.02 1.1.01h2.15l2.02.02.8.01h2.29l.9.02h4.6l.84.02h1.34l.94-.02 1.27.03.47-.02h4.35l1.14.02.12-.01h2.75l.76-.01h1.55l.44.01h1.86l.43-.01h5.67l2.7-.06 1.72.01 2.51-.02 1.81-.04h2.27l1.68-.04 1.91-.03 1.72-.02 2.19-.03.66-.01h.33l2.94-.05h.7l.65-.02 3.22-.03 1.64-.03 3.11-.06 1.83-.03.26-.01h.43l.5-.03 2.26-.05 1.12-.04.72-.02 1.8-.04 1.52-.04 4.33-.14h.29l2.03-.05 1.8-.06.73-.06 1.38-.05.7-.01.67-.02.47-.02.91-.02.92-.04.9-.03.93-.05.92-.03.92-.05 1.02-.03.34-.02 1.38-.05 1.39-.06.7-.02 1.4-.07 3-.1.76-.04v.48l-.1.16-.01.12.09.06-.01.18-.07.55-.01.79-.01.54-.11.67-.16.23-.18.14-.35.58-.33.37v.09l-.06.05h-.03l-.02.06h.02v.05l-.04.02-.07.06-.01.04.02.03v.1l-.01.1-.13.27-.12.26-.22.28-.2.2-.33.23-.42.23-.92.68-.19.32-.38.28-.31.28-.72.56-.08.09-.25.22-.1.3-.08.36-.02.16v.05l-.01.1-.08.17v.13l.22.27 1.05 1.28.19.11.3.46.4.48.08.17.18.38.18.42.04.13.01.14.05.1.06.08.02.07.03.17.07.16.07.15.12.1.05.07.31.44.16.24.15.22.12.13.2.17.08.03.11.01h.2l.09.02h.11l.14-.05h.07l.07.04h.08l.12-.03.1.01.13.02.11-.02.09.05.33.1.5.34.26.1.14.07.21.08.69.2.44.32.31.24.35.78.15.26.38.79.15 2.99.04.99.19 3.84.04 1.36.15 3-.01.03.02.11.01.68.06.67.02.41.05 1.49.13 2.68.08 1.84.05 1.4.12 2.3v.52l.07 1.3v.46l.14 2.74.05 1.2.05 1.04.03.96.08 1.59.01.66.1 2.23" fill="#d1dbdd" stroke="rgb(209, 219, 221)" stroke-width="0.1" data-originalStrokeWidth="0.1" style="stroke: rgb(0, 0, 0); fill: rgb(209, 219, 221); pointer-events: auto; stroke-width: 0.1;" pointer-events="auto"/>
      <g id="state_lines" stroke="rgb(209, 219, 221)" style="display: none; stroke: rgb(0, 0, 0);" stroke-width="0.1"/>
      <g id="state_abbr" fill="#000000" style="display: none; fill: rgb(0, 0, 0);">
        <text id="HI_label" x="491.79" y="769.82" style="font-size: 19.2455px; stroke-width: 1.60379; display: none;">
          <tspan id="HI_tspan" x="491.79" y="769.82" fill="#000000" dy="0" font-family="Arial" font-size="24.06" font-style="normal" font-weight="400" style="text-align: center; stroke-width: 2.57215; fill: rgb(0, 0, 0);" text-anchor="middle">HI</tspan>
        </text>
        <text id="AK_label" x="205.24" y="672.25" style="font-size: 19.2455px; stroke-width: 1.60379; display: none;">
          <tspan id="AK_tspan" x="205.24" y="672.25" fill="#000000" dy="0" font-family="Arial" font-size="24.06" font-style="normal" font-weight="400" style="text-align: center; stroke-width: 2.57215; fill: rgb(0, 0, 0);" text-anchor="middle">AK</tspan>
        </text>
        <text id="FL_label" x="1188.11" y="708.7" style="font-size: 19.2455px; stroke-width: 1.60379; display: none;">
          <tspan id="FL_tspan" x="1188.11" y="708.7" fill="#000000" dy="0" font-family="Arial" font-size="24.06" font-style="normal" font-weight="400" style="text-align: center; stroke-width: 2.57215; fill: rgb(0, 0, 0);" text-anchor="middle">FL</tspan>
        </text>
        <text id="NH_label" x="1306.05" y="167.79" stroke-width="1.1" font-size="13.25" style="display: none;">
          <tspan id="NH_tspan" x="1306.05" y="167.79" fill="#000000" stroke-width="1.1" dy="0" font-family="Arial" font-size="16.56" font-style="normal" font-weight="400" style="text-align: center; fill: rgb(0, 0, 0);" text-anchor="middle">NH</tspan>
        </text>
        <text id="MI_label" x="1019.65" y="246.58" style="font-size: 19.2455px; stroke-width: 1.60379; display: none;">
          <tspan id="MI_tspan" x="1019.65" y="246.58" fill="#000000" dy="0" font-family="Arial" font-size="24.06" font-style="normal" font-weight="400" style="text-align: center; stroke-width: 2.57215; fill: rgb(0, 0, 0);" text-anchor="middle">MI</tspan>
        </text>
        <text id="VT_label" x="1274.28" y="145.01" stroke-width="1.05" font-size="12.65" style="display: none;">
          <tspan id="VT_tspan" x="1274.28" y="145.01" fill="#000000" stroke-width="1.05" dy="0" font-family="Arial" font-size="15.81" font-style="normal" font-weight="400" style="text-align: center; fill: rgb(0, 0, 0);" text-anchor="middle">VT</tspan>
        </text>
        <text id="ME_label" x="1338.99" y="105.14" stroke-width="1.45" font-size="17.36" style="display: none;">
          <tspan id="ME_tspan" x="1338.99" y="105.14" fill="#000000" stroke-width="1.45" dy="0" font-family="Arial" font-size="21.7" font-style="normal" font-weight="400" style="text-align: center; fill: rgb(0, 0, 0);" text-anchor="middle">ME</tspan>
        </text>
        <text id="RI_label" x="1361.38" y="262.84" stroke-width="1.25" font-size="14.98" style="display: none;">
          <tspan id="RI_tspan" x="1361.38" y="262.84" fill="#000000" stroke-width="1.25" dy="0" font-family="Arial" font-size="18.72" font-style="normal" font-weight="400" style="text-align: center; fill: rgb(0, 0, 0);" text-anchor="middle">RI</tspan>
        </text>
        <text id="NY_label" x="1227.27" y="204.12" style="font-size: 19.2455px; stroke-width: 1.60379; display: none;">
          <tspan id="NY_tspan" x="1227.27" y="204.12" fill="#000000" dy="0" font-family="Arial" font-size="24.06" font-style="normal" font-weight="400" style="text-align: center; stroke-width: 2.57215; fill: rgb(0, 0, 0);" text-anchor="middle">NY</tspan>
        </text>
        <text id="PA_label" x="1187.28" y="284.69" style="font-size: 19.2455px; stroke-width: 1.60379; display: none;">
          <tspan id="PA_tspan" x="1187.28" y="284.69" fill="#000000" dy="0" font-family="Arial" font-size="24.06" font-style="normal" font-weight="400" style="text-align: center; stroke-width: 2.57215; fill: rgb(0, 0, 0);" text-anchor="middle">PA</tspan>
        </text>
        <text id="NJ_label" x="1330.57" y="290.09" stroke-width="1.28" font-size="15.4" style="display: none;">
          <tspan id="NJ_tspan" x="1330.57" y="290.09" fill="#000000" stroke-width="1.28" dy="0" font-family="Arial" font-size="19.25" font-style="normal" font-weight="400" style="text-align: center; fill: rgb(0, 0, 0);" text-anchor="middle">NJ</tspan>
        </text>
        <text id="DE_label" x="1320.8" y="328.42" stroke-width="1.36" font-size="16.38" style="display: none;">
          <tspan id="DE_tspan" x="1320.8" y="328.42" fill="#000000" stroke-width="1.36" dy="0" font-family="Arial" font-size="20.47" font-style="normal" font-weight="400" style="text-align: center; fill: rgb(0, 0, 0);" text-anchor="middle">DE</tspan>
        </text>
        <text id="MD_label" x="1310.72" y="368.46" stroke-width="1.34" font-size="16.11" style="display: none;">
          <tspan id="MD_tspan" x="1310.72" y="368.46" fill="#000000" stroke-width="1.34" dy="0" font-family="Arial" font-size="20.13" font-style="normal" font-weight="400" style="text-align: center; fill: rgb(0, 0, 0);" text-anchor="middle">MD</tspan>
        </text>
        <text id="VA_label" x="1198.59" y="392.33" style="font-size: 19.2455px; stroke-width: 1.60379; display: none;">
          <tspan id="VA_tspan" x="1198.59" y="392.33" fill="#000000" dy="0" font-family="Arial" font-size="24.06" font-style="normal" font-weight="400" style="text-align: center; stroke-width: 2.57215; fill: rgb(0, 0, 0);" text-anchor="middle">VA</tspan>
        </text>
        <text id="WV_label" x="1129.66" y="382.3" style="font-size: 19.2455px; stroke-width: 1.60379; display: none;">
          <tspan id="WV_tspan" x="1129.66" y="382.3" fill="#000000" dy="0" font-family="Arial" font-size="24.06" font-style="normal" font-weight="400" style="text-align: center; stroke-width: 2.57215; fill: rgb(0, 0, 0);" text-anchor="middle">WV</tspan>
        </text>
        <text id="OH_label" x="1079.05" y="334.46" style="font-size: 19.2455px; stroke-width: 1.60379; display: none;">
          <tspan id="OH_tspan" x="1079.05" y="334.46" fill="#000000" dy="0" font-family="Arial" font-size="24.06" font-style="normal" font-weight="400" style="text-align: center; stroke-width: 2.57215; fill: rgb(0, 0, 0);" text-anchor="middle">OH</tspan>
        </text>
        <text id="IN_label" x="998.79" y="352.94" style="font-size: 19.2455px; stroke-width: 1.60379; display: none;">
          <tspan id="IN_tspan" x="998.79" y="352.94" fill="#000000" dy="0" font-family="Arial" font-size="24.06" font-style="normal" font-weight="400" style="text-align: center; stroke-width: 2.57215; fill: rgb(0, 0, 0);" text-anchor="middle">IN</tspan>
        </text>
        <text id="IL_label" x="927.43" y="364.36" style="font-size: 19.2455px; stroke-width: 1.60379; display: none;">
          <tspan id="IL_tspan" x="927.43" y="364.36" fill="#000000" dy="0" font-family="Arial" font-size="24.06" font-style="normal" font-weight="400" style="text-align: center; stroke-width: 2.57215; fill: rgb(0, 0, 0);" text-anchor="middle">IL</tspan>
        </text>
        <text id="CT_label" x="1299.17" y="228.46" stroke-width="1.06" font-size="12.74" style="display: none;">
          <tspan id="CT_tspan" x="1299.17" y="228.46" fill="#000000" stroke-width="1.06" dy="0" font-family="Arial" font-size="15.93" font-style="normal" font-weight="400" style="text-align: center; fill: rgb(0, 0, 0);" text-anchor="middle">CT</tspan>
        </text>
        <text id="WI_label" x="898.6" y="224.7" style="font-size: 19.2455px; stroke-width: 1.60379; display: none;">
          <tspan id="WI_tspan" x="898.6" y="224.7" fill="#000000" dy="0" font-family="Arial" font-size="24.06" font-style="normal" font-weight="400" style="text-align: center; stroke-width: 2.57215; fill: rgb(0, 0, 0);" text-anchor="middle">WI</tspan>
        </text>
        <text id="NC_label" x="1205.6" y="458.72" style="font-size: 19.2455px; stroke-width: 1.60379; display: none;">
          <tspan id="NC_tspan" x="1205.6" y="458.72" fill="#000000" dy="0" font-family="Arial" font-size="24.06" font-style="normal" font-weight="400" style="text-align: center; stroke-width: 2.57215; fill: rgb(0, 0, 0);" text-anchor="middle">NC</tspan>
        </text>
        <text id="MA_label" x="1305.87" y="200.67" stroke-width="1.04" font-size="12.46" style="display: none;">
          <tspan id="MA_tspan" x="1305.87" y="200.67" fill="#000000" stroke-width="1.04" dy="0" font-family="Arial" font-size="15.58" font-style="normal" font-weight="400" style="text-align: center; fill: rgb(0, 0, 0);" text-anchor="middle">MA</tspan>
        </text>
        <text id="MO_label" x="854.22" y="422.93" style="font-size: 19.2455px; stroke-width: 1.60379; display: none;">
          <tspan id="MO_tspan" x="854.22" y="422.93" fill="#000000" dy="0" font-family="Arial" font-size="24.06" font-style="normal" font-weight="400" style="text-align: center; stroke-width: 2.57215; fill: rgb(0, 0, 0);" text-anchor="middle">MO</tspan>
        </text>
        <text id="GA_label" x="1106.89" y="574.56" style="font-size: 19.2455px; stroke-width: 1.60379; display: none;">
          <tspan id="GA_tspan" x="1106.89" y="574.56" fill="#000000" dy="0" font-family="Arial" font-size="24.06" font-style="normal" font-weight="400" style="text-align: center; stroke-width: 2.57215; fill: rgb(0, 0, 0);" text-anchor="middle">GA</tspan>
        </text>
        <text id="SC_label" x="1166.32" y="522.49" style="font-size: 19.2455px; stroke-width: 1.60379; display: none;">
          <tspan id="SC_tspan" x="1166.32" y="522.49" fill="#000000" dy="0" font-family="Arial" font-size="24.06" font-style="normal" font-weight="400" style="text-align: center; stroke-width: 2.57215; fill: rgb(0, 0, 0);" text-anchor="middle">SC</tspan>
        </text>
        <text id="KY_label" x="1039.99" y="426.39" style="font-size: 19.2455px; stroke-width: 1.60379; display: none;">
          <tspan id="KY_tspan" x="1039.99" y="426.39" fill="#000000" dy="0" font-family="Arial" font-size="24.06" font-style="normal" font-weight="400" style="text-align: center; stroke-width: 2.57215; fill: rgb(0, 0, 0);" text-anchor="middle">KY</tspan>
        </text>
        <text id="AL_label" x="1019.59" y="578.15" style="font-size: 19.2455px; stroke-width: 1.60379; display: none;">
          <tspan id="AL_tspan" fill="#000000" dy="0" font-family="Arial" font-size="24.06" font-style="normal" font-weight="400" style="text-align: center; stroke-width: 2.57215; fill: rgb(0, 0, 0);" text-anchor="middle">AL</tspan>
        </text>
        <text id="LA_label" x="872.7" y="649.59" style="font-size: 19.2455px; stroke-width: 1.60379; display: none;">
          <tspan id="LA_tspan" x="872.7" y="649.59" fill="#000000" dy="0" font-family="Arial" font-size="24.06" font-style="normal" font-weight="400" style="text-align: center; stroke-width: 2.57215; fill: rgb(0, 0, 0);" text-anchor="middle">LA</tspan>
        </text>
        <text id="MS_label" x="940.37" y="592.21" style="font-size: 19.2455px; stroke-width: 1.60379; display: none;">
          <tspan id="MS_tspan" x="940.37" y="592.21" fill="#000000" dy="0" font-family="Arial" font-size="24.06" font-style="normal" font-weight="400" style="text-align: center; stroke-width: 2.57215; fill: rgb(0, 0, 0);" text-anchor="middle">MS</tspan>
        </text>
        <text id="IA_label" x="823.33" y="308.44" style="font-size: 19.2455px; stroke-width: 1.60379; display: none;">
          <tspan id="IA_tspan" x="823.33" y="308.44" fill="#000000" dy="0" font-family="Arial" font-size="24.06" font-style="normal" font-weight="400" style="text-align: center; stroke-width: 2.57215; fill: rgb(0, 0, 0);" text-anchor="middle">IA</tspan>
        </text>
        <text id="MN_label" x="790.84" y="183.37" style="font-size: 19.2455px; stroke-width: 1.60379; display: none;">
          <tspan id="MN_tspan" x="790.84" y="183.37" fill="#000000" dy="0" font-family="Arial" font-size="24.06" font-style="normal" font-weight="400" style="text-align: center; stroke-width: 2.57215; fill: rgb(0, 0, 0);" text-anchor="middle">MN</tspan>
        </text>
        <text id="OK_label" x="732.05" y="519.54" style="font-size: 19.2455px; stroke-width: 1.60379; display: none;">
          <tspan id="OK_tspan" x="732.05" y="519.54" fill="#000000" dy="0" font-family="Arial" font-size="24.06" font-style="normal" font-weight="400" style="text-align: center; stroke-width: 2.57215; fill: rgb(0, 0, 0);" text-anchor="middle">OK</tspan>
        </text>
        <text id="TX_label" x="710.59" y="652.87" style="font-size: 19.2455px; stroke-width: 1.60379; display: none;">
          <tspan id="TX_tspan" x="710.59" y="652.87" fill="#000000" dy="0" font-family="Arial" font-size="24.06" font-style="normal" font-weight="400" style="text-align: center; stroke-width: 2.57215; fill: rgb(0, 0, 0);" text-anchor="middle">TX</tspan>
        </text>
        <text id="NM_label" x="506.94" y="542.36" style="font-size: 19.2455px; stroke-width: 1.60379; display: none;">
          <tspan id="NM_tspan" x="506.94" y="542.36" fill="#000000" dy="0" font-family="Arial" font-size="24.06" font-style="normal" font-weight="400" style="text-align: center; stroke-width: 2.57215; fill: rgb(0, 0, 0);" text-anchor="middle">NM</tspan>
        </text>
        <text id="KS_label" x="701.21" y="427.26" style="font-size: 19.2455px; stroke-width: 1.60379; display: none;">
          <tspan id="KS_tspan" x="701.21" y="427.26" fill="#000000" dy="0" font-family="Arial" font-size="24.06" font-style="normal" font-weight="400" style="text-align: center; stroke-width: 2.57215; fill: rgb(0, 0, 0);" text-anchor="middle">KS</tspan>
        </text>
        <text id="NE_label" x="686.63" y="337.29" style="font-size: 19.2455px; stroke-width: 1.60379; display: none;">
          <tspan id="NE_tspan" x="686.63" y="337.29" fill="#000000" dy="0" font-family="Arial" font-size="24.06" font-style="normal" font-weight="400" style="text-align: center; stroke-width: 2.57215; fill: rgb(0, 0, 0);" text-anchor="middle">NE</tspan>
        </text>
        <text id="SD_label" x="663.02" y="238.75" style="font-size: 19.2455px; stroke-width: 1.60379; display: none;">
          <tspan id="SD_tspan" x="663.02" y="238.75" fill="#000000" dy="0" font-family="Arial" font-size="24.06" font-style="normal" font-weight="400" style="text-align: center; stroke-width: 2.57215; fill: rgb(0, 0, 0);" text-anchor="middle">SD</tspan>
        </text>
        <text id="ND_label" x="663.02" y="150.75" style="font-size: 19.2455px; stroke-width: 1.60379; display: none;">
          <tspan id="ND_tspan" x="663.02" y="150.75" fill="#000000" dy="0" font-family="Arial" font-size="24.06" font-style="normal" font-weight="400" style="text-align: center; stroke-width: 2.57215; fill: rgb(0, 0, 0);" text-anchor="middle">ND</tspan>
        </text>
        <text id="WY_label" x="499.57" y="276.47" style="font-size: 19.2455px; stroke-width: 1.60379; display: none;">
          <tspan id="WY_tspan" x="499.57" y="276.47" fill="#000000" dy="0" font-family="Arial" font-size="24.06" font-style="normal" font-weight="400" style="text-align: center; stroke-width: 2.57215; fill: rgb(0, 0, 0);" text-anchor="middle">WY</tspan>
        </text>
        <text id="MT_label" x="487.84" y="155.58" style="font-size: 19.2455px; stroke-width: 1.60379; display: none;">
          <tspan id="MT_tspan" x="487.84" y="155.58" fill="#000000" dy="0" font-family="Arial" font-size="24.06" font-style="normal" font-weight="400" style="text-align: center; stroke-width: 2.57215; fill: rgb(0, 0, 0);" text-anchor="middle">MT</tspan>
        </text>
        <text id="CO_label" x="525.13" y="406.28" style="font-size: 19.2455px; stroke-width: 1.60379; display: none;">
          <tspan id="CO_tspan" x="525.13" y="406.28" fill="#000000" dy="0" font-family="Arial" font-size="24.06" font-style="normal" font-weight="400" style="text-align: center; stroke-width: 2.57215; fill: rgb(0, 0, 0);" text-anchor="middle">CO</tspan>
        </text>
        <text id="ID_label" x="339.94" y="235.07" style="font-size: 19.2455px; stroke-width: 1.60379; display: none;">
          <tspan id="ID_tspan" x="339.94" y="235.07" fill="#000000" dy="0" font-family="Arial" font-size="24.06" font-style="normal" font-weight="400" style="text-align: center; stroke-width: 2.57215; fill: rgb(0, 0, 0);" text-anchor="middle">ID</tspan>
        </text>
        <text id="UT_label" x="396.81" y="386.73" style="font-size: 19.2455px; stroke-width: 1.60379; display: none;">
          <tspan id="UT_tspan" x="396.81" y="386.73" fill="#000000" dy="0" font-family="Arial" font-size="24.06" font-style="normal" font-weight="400" style="text-align: center; stroke-width: 2.57215; fill: rgb(0, 0, 0);" text-anchor="middle">UT</tspan>
        </text>
        <text id="AZ_label" x="366.76" y="536.9" style="font-size: 19.2455px; stroke-width: 1.60379; display: none;">
          <tspan id="AZ_tspan" x="366.76" y="536.9" fill="#000000" dy="0" font-family="Arial" font-size="24.06" font-style="normal" font-weight="400" style="text-align: center; stroke-width: 2.57215; fill: rgb(0, 0, 0);" text-anchor="middle">AZ</tspan>
        </text>
        <text id="NV_label" x="262.47" y="370.64" style="font-size: 19.2455px; stroke-width: 1.60379; display: none;">
          <tspan id="NV_tspan" x="262.47" y="370.64" fill="#000000" dy="0" font-family="Arial" font-size="24.06" font-style="normal" font-weight="400" style="text-align: center; stroke-width: 2.57215; fill: rgb(0, 0, 0);" text-anchor="middle">NV</tspan>
        </text>
        <text id="OR_label" x="214.43" y="206.88" style="font-size: 19.2455px; stroke-width: 1.60379; display: none;">
          <tspan id="OR_tspan" x="214.43" y="206.88" fill="#000000" dy="0" font-family="Arial" font-size="24.06" font-style="normal" font-weight="400" style="text-align: center; stroke-width: 2.57215; fill: rgb(0, 0, 0);" text-anchor="middle">OR</tspan>
        </text>
        <text id="WA_label" x="238.05" y="102.99" style="font-size: 19.2455px; stroke-width: 1.60379; display: none;">
          <tspan id="WA_tspan" x="238.05" y="102.99" fill="#000000" dy="0" font-family="Arial" font-size="24.06" font-style="normal" font-weight="400" style="text-align: center; stroke-width: 2.57215; fill: rgb(0, 0, 0);" text-anchor="middle">WA</tspan>
        </text>
        <text id="CA_label" x="191.69" y="434.8" style="font-size: 19.2455px; stroke-width: 1.60379; display: none;">
          <tspan id="CA_tspan" x="191.69" y="434.8" fill="#000000" dy="0" font-family="Arial" font-size="24.06" font-style="normal" font-weight="400" style="text-align: center; stroke-width: 2.57215; fill: rgb(0, 0, 0);" text-anchor="middle">CA</tspan>
        </text>
        <text id="DC_label" x="1309.32" y="398.19" stroke-width="1.29" font-size="15.45" style="display: none;">
          <tspan id="DC_tspan" x="1309.32" y="398.19" fill="#000000" stroke-width="1.29" dy="0" font-family="Arial" font-size="19.31" font-style="normal" font-weight="400" style="text-align: center; fill: rgb(0, 0, 0);" text-anchor="middle">DC</tspan>
        </text>
        <text id="TN_label" x="1018.93" y="485.72" style="font-size: 19.2455px; stroke-width: 1.60379; display: none;">
          <tspan id="TN_tspan" x="1018.93" y="485.72" fill="#000000" dy="0" font-family="Arial" font-size="24.06" font-style="normal" font-weight="400" style="text-align: center; stroke-width: 2.57215; fill: rgb(0, 0, 0);" text-anchor="middle">TN</tspan>
        </text>
        <text id="AR_label" x="863.15" y="535.77" style="font-size: 19.2455px; stroke-width: 1.60379; display: none;">
          <tspan id="AR_tspan" x="863.15" y="535.77" fill="#000000" dy="0" font-family="Arial" font-size="24.06" font-style="normal" font-weight="400" style="text-align: center; stroke-width: 2.57215; fill: rgb(0, 0, 0);" text-anchor="middle">AR</tspan>
        </text>
      </g>
      <g id="state_borders" transform="translate(-0.04777967,-0.15336683)" stroke="rgb(209, 219, 221)" style="stroke: rgb(0, 0, 0);" stroke-width="0.3">
        <path id="SD_WY_border" d="m576.15 274.25.4-12.53.49-14.2.33-8.86.4-12.1.4-11.5.1-3.87" stroke="rgb(209, 219, 221)" stroke-width="0.3" fill="none" style="stroke: rgb(0, 0, 0); display: none;"/>
        <path id="SD_MT_border" d="M578.27 211.19h.4l.4-11.86.37-11.8.14-6.15" stroke="rgb(209, 219, 221)" stroke-width="0.3" fill="none" style="stroke: rgb(0, 0, 0); display: none;"/>
        <path id="SD_IA_border" d="m749.54 257.65-3.32.15.35.34.09.7-.4.33.16.72.44.05.06.4.87.72h.28l.08 1.49-.24.37.25.75-.1.38-.5.25-.63-.04-.1.67.8.49-.4.6.26.46.56-.13.4.3.96-.18.13 1.15.2.1-.01 1 .39.23.35.68-.56 1 .07.8-1.12.5-.03.68.53.59-.63.96.49.64-.2.45-.68.7.34 1.05-.47.9.22.15-.52.88-.68.53-.14 1.02-.35-.02-.3.5-.1 1 .35.35-.12.64.8.3 1.95 1.97-.2.68.38-.13.6 1.22-.3.42.52.12v1l-.23.4.4.26-.03.44.69-.06" stroke="rgb(209, 219, 221)" stroke-width="0.3" fill="none" style="stroke: rgb(0, 0, 0); display: none;"/>
        <path id="SD_MN_border" d="m743.7 181-.2 3.47-.95 1.24-.54 1.3-.43.5-1.66 1.12-.22.35-1.7 1.4-.32 1.26 2.12 2.58.85 2 1.19 1.4 1.38.02 1.62.78.55.15.75.55.88 1.83.85 18.25 1 23.37.67 15.08" stroke="rgb(209, 219, 221)" stroke-width="0.3" fill="none" style="stroke: rgb(0, 0, 0); display: none;"/>
      </g>
      <rect id="selection-rectangle" fill="#ffffccaa" stroke="rgb(209, 219, 221)" stroke-width="0.1"/>
      <ellipse id="selection-ellipse" fill="#ffffccaa" stroke="rgb(209, 219, 221)" stroke-width="0.1"/>
      <polygon id="selection-polygon" fill="#ffffccaa" stroke="rgb(209, 219, 221)" stroke-width="0.1"/>
      <polyline id="selection-polyline" fill="#ffffccaa" stroke="rgb(209, 219, 221)" stroke-width="0.1"/>
    </svg>
  </g>
</svg>
