<?xml version='1.0' encoding='UTF-8'?>
<svg xmlns="http://www.w3.org/2000/svg" xmlns:dc="http://purl.org/dc/elements/1.1/" xmlns:ns2="http://creativecommons.org/ns#" xmlns:rdf="http://www.w3.org/1999/02/22-rdf-syntax-ns#" id="wrapper" viewBox="0 0 1520 840" preserveAspectRatio="xMinYMin" height="840" width="1520" style="background-color: rgb(255, 255, 255);">
  <metadata>
    <rdf:rdf>
      <ns2:work rdf:about="">
        <dc:format>image/svg+xml</dc:format>
        <dc:type rdf:resource="http://purl.org/dc/dcmitype/StillImage"/>
        <dc:title>MapChart Map</dc:title>
        <dc:creator>
          <ns2:agent>
            <dc:title>MapChart.net</dc:title>
          </ns2:agent>
        </dc:creator>
        <ns2:license rdf:resource="http://creativecommons.org/licenses/by-sa/4.0/"/>
        <dc:description>This map was created with MapChart.net, a website for creating custom maps.</dc:description>
      </ns2:work>
      <ns2:license rdf:about="http://creativecommons.org/licenses/by-sa/4.0/">
        <ns2:permits rdf:resource="http://creativecommons.org/ns#Reproduction"/>
        <ns2:permits rdf:resource="http://creativecommons.org/ns#Distribution"/>
        <ns2:requires rdf:resource="http://creativecommons.org/ns#Notice"/>
        <ns2:requires rdf:resource="http://creativecommons.org/ns#Attribution"/>
        <ns2:requires rdf:resource="http://creativecommons.org/ns#ShareAlike"/>
      </ns2:license>
    </rdf:rdf>
  </metadata>
  <g id="map-group" transform="translate(-8399.080932446905,-3693.905959284062) scale(7.900491711575984)">
    <svg id="map" width="1520" height="840" version="1.1" viewBox="0 0 1520 840" preserveAspectRatio="xMinYMin" data-originalStrokeWidth="0.3">
      <defs>
        <pattern id="circles3" width="10" height="10" patternUnits="userSpaceOnUse">    <rect width="10" height="10" fill="#fff"/>    <circle cx="4" cy="4" r="2" fill="#000"/>    </pattern>
        <pattern id="diagonal1" width="10" height="10" patternUnits="userSpaceOnUse">    <rect width="10" height="10" fill="#fff"/>    </pattern>
        <pattern id="diagonal3" width="10" height="10" patternUnits="userSpaceOnUse">    <rect width="10" height="10" fill="#fff"/>    </pattern>
        <pattern id="vertical1" width="10" height="10" patternUnits="userSpaceOnUse">    <rect width="10" height="10" fill="#fff"/>    <rect x="2" y="0" width="1" height="10" fill="#000"/>    </pattern>
        <pattern id="vertical3" width="10" height="10" patternUnits="userSpaceOnUse">    <rect width="10" height="10" fill="#fff"/>    <rect x="2" y="0" width="3" height="10" fill="#000"/>    </pattern>
        <pattern id="horizontal1" width="10" height="10" patternUnits="userSpaceOnUse">    <rect width="10" height="10" fill="#fff"/>    <rect x="0" y="2" width="10" height="1" fill="#000"/>    </pattern>
        <pattern id="horizontal3" width="10" height="10" patternUnits="userSpaceOnUse">    <rect width="10" height="10" fill="#fff"/>    <rect x="0" y="2" width="10" height="3" fill="#000"/>    </pattern>
        <pattern id="crosshatch" width="8" height="8" patternUnits="userSpaceOnUse">    <rect width="8" height="8" fill="#fff"/>    </pattern>
        <pattern id="subtlepatch" width="5" height="5" patternUnits="userSpaceOnUse">    <rect width="5" height="5" fill="#fff"/>    <rect x="2" y="2" width="1" height="1" fill="#000"/>    </pattern>
        <pattern id="checkers" width="8" height="8" patternUnits="userSpaceOnUse">    <rect width="8" height="8" fill="#fff"/>    </pattern>
        <pattern id="raindrops" width="10" height="10" patternUnits="userSpaceOnUse">    <rect width="10" height="10" fill="#fff"/>    </pattern>
        <pattern id="texture" width="4" height="4" patternUnits="userSpaceOnUse">    <rect width="4" height="4" fill="#fff"/>    </pattern>
        <pattern id="circles3_a03500_000000" width="10" height="10" patternUnits="userSpaceOnUse">    <rect width="10" height="10" fill="#a03500"/>    <circle cx="4" cy="4" r="2" fill="#000000"/>    </pattern>
        <pattern id="diagonal1_d9b400_535353" width="10" height="10" patternUnits="userSpaceOnUse">    <rect width="10" height="10" fill="#d9b400"/>    </pattern>
        <pattern id="diagonal3_3264c8_ffffff" width="10" height="10" patternUnits="userSpaceOnUse">    <rect width="10" height="10" fill="#3264c8"/>    </pattern>
        <pattern id="horizontal1_72b38e_000000" width="10" height="10" patternUnits="userSpaceOnUse">    <rect width="10" height="10" fill="#72b38e"/>    <rect x="0" y="2" width="10" height="1" fill="#000000"/>    </pattern>
        <pattern id="horizontal3_986ba1_ffffff" width="10" height="10" patternUnits="userSpaceOnUse">    <rect width="10" height="10" fill="#986ba1"/>    <rect x="0" y="2" width="10" height="3" fill="#ffffff"/>    </pattern>
        <pattern id="vertical1_b9a087_ffffff" width="10" height="10" patternUnits="userSpaceOnUse">    <rect width="10" height="10" fill="#b9a087"/>    <rect x="2" y="0" width="1" height="10" fill="#ffffff"/>    </pattern>
        <pattern id="vertical3_4c91bf_ffff33" width="10" height="10" patternUnits="userSpaceOnUse">    <rect width="10" height="10" fill="#4c91bf"/>    <rect x="2" y="0" width="3" height="10" fill="#ffff33"/>    </pattern>
        <pattern id="checkers_cc3333_f7f7f7" width="8" height="8" patternUnits="userSpaceOnUse">    <rect width="8" height="8" fill="#cc3333"/>    </pattern>
        <pattern id="texture_d1dbdd_525252" width="4" height="4" patternUnits="userSpaceOnUse">    <rect width="4" height="4" fill="#d1dbdd"/>    </pattern>
        <style id="map-style">svg { background-color: #ffffff; }</style>
      </defs>
      <path id="SC01" d="m1195.44 540-.17-1.15-.13.03-.33-.16-.13-.64-.23-.18-.51-.05-.2-.18-.2-.46v-.38l.26-.5-.1-.08-1.49.67-1.12-1.53-.1-.31-.07-.61-.18-.01-.34-.37-.68.34-.31.25-.23-.1.04-.25-.23-.02-.08.15-1.04-.53-.28.1-.07.26-.14-.05-.13.2.2.14.05-.26.1.04-.08.26.69.44.14-.51.75.28-.45.3-.28.06.17.09 1.2.8-.16.2.08.25h-.16l-.17.35.07.15-.22.17.08.32-.18.05-.1-.31-.37-.17.1-.09-.35-.16-.11-.38-.31-.17-.08.1-.35.01-.19-.21h-.36l.01.26-.14.34-.36.56-.42-.28-.16.13-.16-.24-.56.04-.71-.2-2.57-.87-.49.12.02-.32-.14-.24.3-.33.08-.28.3-.28h.27l.08-.19.38-.12-.06-.22-.42-.37.3.05.18-.1.28.06.7-.2.2.14.04-.2.23-.3.16-.44.1.34.25-.24.3.11.3-.28-3-1.48.55-.54.19-.8-.35-.2-.46-.17-.16.03-.25-.47-.01-.25-.28-.23-.2-.27-.04-.24-.4-.17-.03-.48.14-.21.2-.04.4.07.38.19.53-.35.08-.26.39-.3.04-.19.34-.34-.1-.64.07-.32-.08-.27.12-.46-.04-.34-.17-.4-.03-.5.26.17-.03-.23.19-.02-.08-.41-.12-.15-.1-.49.03-.29-.1-.43.5.09-.18-.25.28-.05.1.18.31-.4.15.16.13-.07.13-.37.14.14-.02.22.26-.05-.06-.38.3.15-.18-.3.32-.07-.48-.2-.13-.13.01-.27.12.05.4-.37.04-.31.5.06.3-.27.2.08.02-.2.85-.2.2.13.1-.22.22.11.11-.16.2.2.11-.24.19.05.07.19.27-.34.07.18.4-.06.05-.12.56.2.07.13.49.18.15.15.45.18.16.22.42-.03.43.24.16.22.27.08-.26.14.55.3.02.22.2.14.4.06.1.18.68.16.23.26.16-.03.08-.2.44.22.15.26.18.06.18.33.2.04.03.19h.16l.01.16.19-.05.28.21.34-.1.22.07.22-.14.94.31.38.14.88-.02.53.13.19.15.28-.06h.9l.13.11-.03.2.28-.14.13.28.32.1.52.04.64.16.12-.06.1-.32.13.06v.29l.19-.2.1.07-.09.23.35-.24-.04.18.3.06-.06.2.26.15.21-.1.32.12.06.1.38.15.25.32.39.2.24.02.56.3.47.17.5-.09.43.11.64-.14.37.05.27.13.06.18-.13.43-.3.31-.57.5-.27.47-.06 1.08-.23 1.16v.33l-.45.11-.9.3-.2-.08.55-.16-.15-.25-.03.2-.24-.01-1.67.57-.66-.4-.1-.17-.66.09-.04.2-.24.13-.59.55-.17.3-.02.32-.15.39-.27.47.06.2-.2.47.05.24.42.52.53-.14-.03-.08.29-.18.05.36-.06.5-1.15.83-.31.49-.25.06-.9 1-.04.5-.35.4.11.26-.14.4-.22.18-.48.28-.72.56-.39.38-.22.06.01.13-.19.3-.57.44-.17-.02-.38-.27.05-.17-.46-.37-.23-.02-.77.32m-.16.68.07.28.28-.07.57.02.43-.14.28.22.1.38-.16.48-.08.48.14.58-.63.73-1.23 1.06h-.11l-.22.53-.03.5-.18.22-.45-.05-.52.11-.99.44-.5.28-.55.38-.65.67-.28.53-.76.15-.55.42-.6.6-.7.8-1.16 1.49h-.14l-.31-.42-.4-.1-.18.3-.42.38-.07.27-.52.25-.19-.22-.06-.33-.4-.26-.36-.08-.26.1-.05.15-.36.16-.1.72.18.2-.17.26.24.45.34.31.34.6.12.06.55-.19.42.26-.13.1.02.31-.13 1.15-.18.56.16.5-.64.4-.93.68-.6.6-.53.38-.44.14-.1-.21-.4.4-.04.16-.3.38-.25.1-.34-.05-.02-.4-.16-.56-.67-.07-.12.09-.43-.13-.3-.18-.34-.35-.38.05-.26.21-.1.23.1.22-.11.1-.32-.05-.22.53.2.35.59.4.29-.28.32.05.38.27.58.25.47.38.18.24-.05.25-.32.4-.25.57-.23.68-.35.62-.34.36-.98.84-.5.5-.22.1-.23-.1-.39-.08-.08.31-.22.36-.24.58-.17.1-.3.05-.2.15-.22.05-.13-.29.22-.46.04-.23-.16-.09-.75-.11-.01-.13.35-.2.02-.23-.38.2-.08-.16-.38.07-.1.27-.19-.03-.16.2v-.35l-.24-.08-.08-.26.19-.09.24.25-.02-.46-.24-.22.23-.14-.2-.2-.12.06-.13-.25-.44-.02-.26-.16-.1.09-.26-.09.13-.07-.18-.26-.3-.15-.15-.18-.22-.67.08-.3.13-.06.17-.4.02-.35-.2-.24.04-.3-.43-.43v-.36l.13-.3-.3-.46-.16-.45-.21-.16-.24-.32-.03-.28.57-.08.38.03.76.32h.25l.1.27-.02.35.63.25-.05-.47.09-.2.28-.14.48-.08.07.18.36-.02-.02-.43.13-.18-.17-.13.29-.2.03-.22.22-.02.2-.23-.09-.25.23-.64-.17-.07-.33.16-.08-.12-.02-.42.23-1.11.3-.11v-.2l-.23-.63-.57-.75-.38-.31.18-.34v-.24l-.14-.31.05-.23-.12-.45.03-.48-.23-.45-.34-.12-.1-.47-.19-.07-.32-.34-.25-.42.6-1.39.23-.2.14.2.31-.05.13.21.4-.04.18.15.18-.05.48.13.06-.14.2.13.22-.05.1-.3.39.18.06-.2.18.17.26-.03.14.26.33-.17.1-.2.26-.05.23.19-.06.14h-.25v.33l.59-.4.43-.76-.97-.55-.34.13-.35-.33-.34-1.08.58-.35.58.1.17-.06.14-.32h.72l.35-.23 1.06.37.16-.01-.14.25.33.29.47.07.24.16-.01.27h.19l.38.23v.29l.13.06.15.27.23.15-.1.22.1.08.12-.2.21.03 1-.41.24-.06.28-.2.62.47.5-.27.21.12.08-.2.16.05-.05.22.31.03.1-.13.28.15-.08.2.35-.14.17.03v-.28l.35.04-.02.32.86.11.35-.17v-.64l.57-.54.04-.29-.2-.27.04-.14.35-.24v-.29l.3-.13.42-.52.42-.02.17-.45-.3-.41.15-.46.18-.1.41-.02.14-.46-.1-.22.14-.37.54-.4.39.18.25-.02.28.18.37-.35h.17l.44.13.61-.08.14.06.33-.18.2.06.5-.18.32-.24.28.23.33-.03m-4.79 8.06-.01.12-.34.16-.12-.18.17-.22.3.11" fill="#d1dbdd" stroke="rgb(209, 219, 221)" stroke-width="0.1" data-originalStrokeWidth="0.1" style="stroke: rgb(0, 0, 0); fill: rgb(209, 219, 221); pointer-events: auto; stroke-width: 0.1;" pointer-events="auto"/>
      <path id="SC02" d="m1169.1 504.48-.5.29-.6.03-.34.21-.8.2.25 1.22-.1.09-1.4.38-2.48.98-1.18.62-.17-.05-.17.19.2.21-.07.47-.33.23-.84-.1-.24-.11-.14-.2-.17-.78-.23-.04-.14-.76.22-.17-.04-.16.4-.44-.14-.13.12-.35.38-.63.06-.2.3-.31-.15-.16-.1-.4.1-.3.25-.15-.08-.23-.34.05.27-.26.05-.17-.26.15-.32-.05.07-.5-.02-.35h-.23l-.2-.35-.26.17-.2-.12-.24.1v.5l-.33.15-.44.06.04.28.2.09-.07.18-.35.18-.15-.19-.58-.04.04.16.3.3.22.42-.44.24-.13.15.05.35-.15.25-.04.52-.43-.23-.13.1.02.28-.5-.26-.42.56.17.14-.1.14-.35.03.43.31.33.31.41.57.1-.01.25.24.34.03.18.12.22-.1.3.15.3.39.1.34.2.2.82 1.06v.32l-.2.2.02.12.4.05.16.09-.02.2-.15.09.01.41.24.07-.6.42-.01.39.17.38.07 1.33.06.47-.17.63.01.28.16.47.57-.05-.03-.61.24-.04-.04-.3.18-.1-.01-.2 1.2-.12.13-.1.8.3.26.25-.46.29-.17.42-.21.07-.33.27-.36.02-.15.21-.46.33-.51.51 1.4 1.21 1.1.92.43-.7.15.19.12.37.06.5h.54l.78-.59.15.13.19.64.34.27.05 1.41-.07.5-.1-.03.06-.65-.26-.12-.23.51-.08-.06-.36.72.17.1-.02.2-.8-.4-.1.19-.01.45-.3.96.65-.37.13.4.4.17.27.28.44-.14.21.49.67-.65.24.14.24.4v.35l.15.26-.34.96.08.36-.13.12.1.88.16.13.1.44.29.2-.27.6.25.34-.08.17.15.26-.12.26h-.3l-.12-.14-.46-.17-.37-.3-.56-.3-.34.06-.17-.24-.43-.06-.12-.16-.4-.03-.15-.15-.52.03-.23-.27-.36.1-.88-.48-.07-.16-.43-.06-.28.06-.8-.17-.4-.25-.61-.16-.54.04-.2-.22-.18-.06-.09-.25-.23-.21-.42.02.5 1.26.29 1.78.4 2.55.25 1.06.08.07-.05.27.1.24.13 1.15-.04.3.54.43.21.41.22.06.13.25-.43.01-.17.17-.54.03-.58.37-.35.04-.13.14-2.07.44-2.44-.35-2.43-.26-1.45 2.33h-.04l-.28.08-.1.04-.17.07-.07.02h-.14l-.1-.05-.11-.06-.1-.06-.1-.07-.18-.04-.18-.01-.15-.06-.07-.04h-.18l-.21-.03-.1-.02-.07.01-.08.04-.04-.01-.18-.1-.09-.03-.1-.04-.13-.04-.24-.18-.42-.19-.59-.42-.4-.65h.03l.24-.3.03-.3-.05-.06-.09-.04-.07-.04-.03-.1-.07-.1-.04-.06-.02-.07-.04-.04-.02-.03-.1-.04-.04-.06h-.14l-.02.05-.02.03.02.03.05.05.05.06.02.05v.07l-.03.05-.13.07-.13.02h-.08l-.13-.05h-.09l-.07.03h-.05l-.06-.02-.03-.06-.05-.14-.03-.07-.09-.05h-.06l-.15-.04-.09-.02h-.13l-.15-.14-.17-.11-.12-.02-.12-.05-.07-.08-.03-.01-.08-.05-.04-.1.3-.18-.27-.27.34-.02-.02-.42-.12.1-.28-.3-.28.08-.2-.15.05-.3.26.02.05-.28-.26-.12-.12.3-.19-.35h-.05l-.02.02-.02.03-.03.04-.01.07-.02.03-.03.04-.02.03-.01.02-.02.06v.03l-.02.05h-.02l-.01.02-.02-.02h-.02l-.02-.04-.02-.07h-.03l-.03-.04v-.02l-.03-.03.02-.03.03-.04.02-.03v-.06l-.03-.04-.02-.03-.05-.02-.06.04-.03.04-.04.03h-.1l.03-.03.02-.05.02-.04.02-.06-.02-.03h-.03l-.1.02v.01h-.02l-.12-.07v-.03l.01-.02.04-.05-.07-.12-.02-.02-.07-.09h-.03l-.04.05.02.02v.02l.02.03.02.1-.03.07-.05.23-.09.06-.02-.02-.03-.03.02-.05.07-.04v-.13l-.07-.05-.08-.02-.13-.06-.03-.05.04-.15v-.09l.13-.05.04-.08-.05-.06h-.06l-.03.03-.04.15-.06.07-.14-.12-.38.12-.07-.12.08-.23-.4-.4.07-.12.35.08.1-.25v-.04l-.1-.02-.07-.06-.03-.07-.04-.16-.05-.08-.1-.2-.15-.1-.12-.07-.06-.05.02-.07.02-.04.04-.02.14.03.1.02.06-.04.06-.07.04-.08.04-.04.01.04.32.03-.04-.23-.23-.03-.31-.14-.04-.14.4-.3.01-.1-.02-.1-.05-.06-.15-.14-.19-.27-.07-.11-.23-.14-.6-.11-.12-.05-.57-.1-.16-.04-.1-.1-.1-.32-.14-.2-.04-.06-.2-.28-.18-.06-.05-.05-.13-.21h-.02l2.02-2.85 2.8-4 4.27-6.13.03-.42.25-1.26.24-1.28.65-3.07.16-1.03.62.16.34-.23.13-.03.3.24.33.03.22-.06.08-.3-.23-.14-.64-.54-.17-.06v-.2l-.32-.1-.19-.26.55-1.66.42-.05.34-.15.42-.65.33-.1-.2-.18.28-.8.21-.44.2.06.34-.1.5.16.76.63.71-.16.26.24.29.01.87.46-.1-.39.21-.28-.22-.48-.26-.26 2.2-.25.25-.41.19.08.12-.17v-.22l.23.1.05-.2.36-.17.12.11 1.82-1.01 3.33-1.26-.54 2.92.51.16 4.03 2.54.32-.45.5-.14.16-.12.45-.15v-.1l.51-.38.47-.18v.25l-.34.17-.06.22.1.12.32-.01-.18.3.31.1.17-.03.02.19" fill="#d1dbdd" stroke="rgb(209, 219, 221)" stroke-width="0.1" data-originalStrokeWidth="0.1" style="stroke: rgb(0, 0, 0); fill: rgb(209, 219, 221); pointer-events: auto; stroke-width: 0.1;" pointer-events="auto"/>
      <path id="SC03" d="m1150.11 502.58-.21.44-.28.8.2.18-.33.1-.42.65-.34.15-.42.05-.55 1.66.19.26.33.12v.18l.16.06.64.54.23.14-.08.29-.22.07-.32-.03-.3-.24-.14.03-.34.24-.62-.17-.16 1.03-.65 3.07-.23 1.28-.26 1.26-.03.4-4.26 6.15-2.8 4-2.03 2.85-.2-.06-.13-.15-.34-.2-.1-.16-.29-.25-.07-.01-.1.02-.14-.03-.34-.21-.11-.04-.4-.03-.23-.06-.33-.31-.19-.01-.17.1-.1.16-.47-.03-.2-.08-.3-.32-.21-.02h-.22l-.66-.43-.24-.54-.03-.4-.31-.19-.13-.24-.3-.3-.16-.13-.23-.18-.12-.43-.24-.6-.06-.06-.23-.47-.26-.18-.65-.28-.23-.19-.38-.1-.12-.47-.37-.17-.05-.1-.12-.06-.59-.3-.08-.07-.18-.12-.1-.03-.32-.07-.32-.1-.35-.23-.68-.26-.35.15-.1-.01-.14-.04-.22-.18-.11-.05-.12-.02-.11-.06-.12-.02-.04-.04-.3-.17-.92-.6-.25-.34-.3-.3-.33-.13-.24.03-.13.1-.47-.04-.26-.28-.21-.44-.32-.23-.04-.23.1-.13-.3-.14-.26-.37-.1-.16-.05-.18-.06-.3-.34-.17-.68-.7-.36-.07-.16-.22v-.14l.05-.03.03-.2-.23-.3-.35-.14-.24-.22-.08-.2-.24-.29-.44-.2-.38-.02-.4-.23-.2-.38-.25-.3-.08-.16-.09-.42-.34-.46-.03-.11-.1-.33.01-.17-.05-.16-.09-.4-.03-.12-.42-.7-.53-.29-.14-.12-.39-.53-.3-.82-.15-.08-.44-.27-.01-.04-.06.02-.26-.17-.1-.02-.18-.08-.03-.07-.16-.53-.12-.15-.02-.03-.03-.19-.15-.28-.1-.18-.04-.16v-.06l-.1-.17-.11-.07-.12-.4-.33-.5-.2-.03-.28-.2v-.08l-.23-.25-.4-.1-.23.08-.35.19-.14-.1-.34.06-.25.25h-.08l-.14-.12-.27.2-.14-.08-.16.1-.17.1-.03.11-.08.1-.5-.08-.29-.12-.17.04-.42-.24-.1-.05-.11-.23h-.09l-.16.11-.32-.14-.1-.18-.2-.02v-.08l.16-.22-.37-.2-.13.04-.18-.01-.04-.16-.46-.38-.17-.08-.1-.17-.15.1-.2-.05-.01-.19-.12-.13-.44-.1.08-.28-.38-.06-.1-.23.25-.2-.25-.07h-.1l-.32.1-.15.09-.46-.12-.2.03-.4.07-.33-.17.04-.2-.24-.2-.17-.12-.48-.07-.37-.2-.15-.04-.1-.05-.14-.16-.1-.06-.01-.03-.02-.09-.02-.02-.09-.07-.06-.01-.08.02-.08.05h-.07l-.03-.04-.07-.15-.27-.1h-.07l-.18.07-.05-.02-.05-.03-.02-.01.08-.2-.1-.13-.34-.1.15-.23-.14-.15-.03-.1-.08-.18-.06-.29.06-.27.22-.1.24-.55v-.05l.04-.03.14-.06-.01-.05h-.04l-.09-.04.04-.05.04-.07v-.02h-.07l-.03-.02.05-.1.02-.07-.03-.1-.1-.08.04-.05-.12-.26v-.08l.07-.03-.02-.1.07-.04.03-.02.06-.07-.04-.08.09-.06.12-.07.07-.01.04-.07v-.07l.01-.06v-.04l-.05-.05-.07.02-.1-.09v-.03l.01-.03.02-.02v-.04l.04-.03v-.02h.07l.03.03v.08l.02.02h.03l.02.01.04.02h.01l.02-.02v-.02l-.02-.05v-.01l.01-.02.04-.02.05-.04v-.04l-.05-.1v-.04l.04-.05.06.02.01.02h.04l.03.02.04.02.01.03.16.09h.06l.02-.04.03-.02.04-.03v-.16l.03-.11v-.14l-.05-.04-.08-.04-.01.02-.03-.04.02-.06.02-.07v-.24l.01-.07.04-.03h.1l.02.02h.02v.07l.12.03.08-.02.07-.02.05-.05-.02-.02h-.1l-.04-.04v-.07l.01-.05-.02-.06-.01-.05v-.02l.14.01.04-.02V493l-.05-.03-.02-.03.02-.07-.03-.03-.02-.12.03-.07.12.06.09-.14-.2-.22.33-.13h.05l.07-.03h.06l.07.01.03-.02-.04-.08.06-.03-.01-.1.02-.1.05-.02.02.03-.02.03v.09l.04.03.05.01.05.07.1-.03.06-.12.03-.04v-.02l-.07-.07-.02-.04-.03-.03v-.04l.01-.07.03-.02h.07l.02.04.03.04h.02l.02-.03-.04-.06v-.04l.03-.1.02-.07.1.07.04-.02.08-.08.05-.1.05-.1-.04-.1v-.02l.02-.04.08-.02h.05l.02-.07v-.01l.02-.04.03-.01.01-.1.02-.1h.03l.06-.01.04.02.1.09h.07l.02-.03v-.03l-.05-.09v-.1l-.06-.09v-.05l-.02-.02v-.04l.04-.05.06-.02.05.03.05.02.07.03.08.01.05.05h.07l.03-.06.08-.07.02-.04.04-.05h.05l.02-.07-.07-.09v-.03l.05-.06.07-.05.15.15h.06l.02-.07v-.04l.05.01h.06l.02.02.03-.02v-.03l-.1-.09-.04-.06-.03-.04h-.05l-.05.05-.03-.03-.05-.06-.05-.06-.05-.04-.03-.05h.05l.02-.05-.07-.03v-.05l.04-.01.12.02h.03l.06.02v.02l.08.04v-.04l-.04-.06h-.02l-.12-.11-.02-.05h.07l.04-.02v-.03l-.1-.04-.06-.02-.03-.05.02-.13.09-.16v-.03l-.03-.04.01-.02h.07l.05-.03v-.03l-.05-.08.16-.22.03-.1.08-.12-.23-.18-.07-.06v-.02l1.23-.66.87-.47.25-.15.62-.32 1.25-.68.02-.02.72-.4.07-.04 1.37-.73.6-.34.52-.28.15-.08h.03l.05.03h.03l.07.08.02.18-.04.1v.04l.04.02-.02.07-.04.05.03.06h.05l.04-.03.13-.02.02-.05.04-.04.03.02.04-.03h.04l.03-.03.17.3.3.28.32-.05.17-.28h.28l.05-.19.92-.37.2.04.28-.18.07.13.38-.03.06-.14.59-.21.55-.3.35-.09.16.09-.06.2-.46.14-.08.29.1.5.14-.22.2.36-.13.2.13.16-.15.3.1.13.4-.13.5-.28.45-.1-.07.36.16.18.19.43-.3.23.58.29.05.37.27.33-.11.12.24.13-.06.22h.13l.01.24h.18l.28.19.01.22.26.2-.06.16.3.16.09.73.2.08.03.86.3.04-.2.36.34.17v.24l.2-.01.01.13h.22l.12.46.23.14.05.21-.09.45.12.14.54-.15.08.36.29.01.11.23.64.12.52-.08.35.06.28-.09.21-.2.31.48.4.1.08-.19.24-.18.09-.23.4-.06.21.56.69-.34.27-.01.36.25-.11-.37.27-.33.12.01.2-.65-.23-.05-.3.27-.04-.16h-.25l-.25-.38.2-.5.4-.37-.2-.24.43-.45.17-.33.21.33.33-.27.35.21.58.18.36.56.25.27.08-.25.32.34.38-.14.01.2.29.33.01.24.25-.04.1.13-.05.38h.33l.08.2.25.03.24.24.62.23.41.27.23-.09.36.12.07-.12.2.02.09.28.37-.11.33.17.11.28.1-.09.31.3.08.2.46.25.04.15.3.06.08-.12.21.36.2-.26.29.08.22.34.07-.4.16-.1.18-.23.13.2.39.1.18-.03.17.22.28-.08.08.17.34-.05.2.08.32-.05.43.11.02-.15.37.23.09-.07.5.2.33-.33.3.16.21-.2.1.11.3.1.25-.03.34.42.25.12.22-.05.13.16.23-.16.18.33.28-.02.44.42.27.04.46.28.3.12.08.2-.09.21.28.03-.07.32.32.16.64-1 .48-.68.26-.06.14-.15.27.17.14-.14.2.04v-.25l.28.05.24-.1.1.37.16.04.17.34-.13.48.18.24.4.69.06.21.28.38.17.42.23.18.21.37.37.43.08.33.21.44.48.64.37.18.08.16-.08.31.14.4.36.18.47.55" fill="#d1dbdd" stroke="rgb(209, 219, 221)" stroke-width="0.1" data-originalStrokeWidth="0.1" style="stroke: rgb(0, 0, 0); fill: rgb(209, 219, 221); pointer-events: auto; stroke-width: 0.1;" pointer-events="auto"/>
      <path id="SC04" d="M1108.54 484.1h.07l.07.02.01-.02h.05l.04-.08.04-.03v-.18l.02-.04-.03-.01-.04-.08.02-.04v-.03l.04.02.07.03h.05l.02-.03.03.04h.11l-.03-.04v-.05l.06-.02v-.05l.03-.07v-.05l-.02-.01.03-.03.07.01.04-.07-.03-.1.04-.07.03-.03.04.03.03-.03.04.02.1-.03v.02h.06l.04-.04.09-.04.01-.06h.05l.02-.08.09-.02.02-.05.02-.03v.07l.05.03v.04l.03.02.02-.02.04-.08.03-.04v-.04l.05-.05v-.06l.02-.01.02-.09-.16-.18.12-.2.01-.1-.04-.1.1-.13.14.02.15.28.4-.13.09-.25.18-.1v-.18l.18.09.05.09.19-.02.09-.3.28-.2.35-.02.09-.11h.05l.15-.1.16-.1h.11l.15-.29.28-.09-.1-.11.05-.15.13-.04.15-.02.12.03.05.09.02.08.08-.07.15-.02.1-.1.05-.12.04-.05.25-.01.08-.14.21.08.17-.41.46-.11.18-.14.22.09.02.03-.12.2.03.1.07-.04.08-.05.07.02.07-.04.06-.04v.01h.07l.04-.07.12-.37.11-.06-.08-.13.14-.52.48-.34.02-.18v-.01l.01-.1h.09l.1.03.24.37.05.05.06.09-.13.08v.06l.03.04.03.02.05.07.05.03h.06l.04.06.03.01.05.07.09-.02.08-.09v-.06l.09-.26h.12l.07.04.13-.12.07-.02.16.12.11-.1.09.03.21.1.15-.19.24-.15.29-.11.02-.14.01-.04.26-.02.74-.1.35-.06h.11l.08-.03h.06l.23-.02 1.07-.14.23-.03.4-.07.31-.06.12-.02.72-.09.25.14.13.25-.33.37-.13-.03-.27.28.36.27.44.51.38.34.76.93.4.3.4.75.62-.5.36.68.5-.37.1-.04.27.2.36.4.12.24.4-.42v.47l.46-.06.25.46.12.1.14-.25.1.12.49.34.2-.23.17-.8.43-.05.4.24-.18.12-.06.23.47-.16.24-.28.19.28.09.28.14.1.37-.07.1.19.23-.09.09-.26-.02-.36.88 1.73.49-.19.22.3.42.23-.53 1.1-.3.5-.41 1.1-.04.57-.01 1.19.06 1.33-.02 1.7-.03.77-.16.65-.01 1.67-.17.1-.07.41-.22-.33-.3-.08-.19.25-.2-.36-.1.12-.29-.06-.04-.15-.46-.24-.08-.21-.33-.3-.07.09-.1-.28-.35-.17-.37.1-.08-.27-.2-.02-.09.12-.35-.12-.23.08-.41-.27-.62-.22-.24-.24-.25-.04-.08-.18h-.33l.05-.39-.1-.13-.25.04-.01-.24-.29-.33-.01-.2-.38.14-.31-.34-.08.25-.26-.27-.35-.56-.58-.18-.36-.2-.33.26-.2-.33-.18.33-.44.45.2.24-.38.38-.2.5.24.37h.25l.03.16.3-.27.24.05-.2.65-.12-.01-.27.33.11.37-.36-.26-.28.01-.69.35-.2-.56-.4.06-.08.23-.25.2-.08.18-.4-.1-.3-.5-.2.2-.3.11-.35-.08-.52.09-.64-.12-.1-.23-.3-.01-.08-.36-.54.15-.12-.14.1-.45-.06-.2-.23-.15-.12-.45h-.22v-.14h-.21v-.22l-.34-.18.2-.36-.3-.03-.04-.88-.2-.07-.1-.73-.28-.16.06-.17-.26-.2v-.21l-.3-.18-.17-.01v-.24h-.14l.06-.22-.24-.13.1-.12-.26-.33-.04-.37-.59-.3.3-.22-.19-.42-.16-.18.07-.37-.45.1-.5.28-.4.13-.1-.15.15-.29-.13-.15.13-.2-.2-.36-.13.2-.11-.48.08-.3.46-.13.06-.2-.16-.08-.34.07-.56.32-.59.2-.07.14-.38.04-.06-.14-.27.18-.2-.04-.93.36-.04.2-.3.01-.17.27-.3.04-.31-.27-.17-.3" fill="#d1dbdd" stroke="rgb(209, 219, 221)" stroke-width="0.1" data-originalStrokeWidth="0.1" style="stroke: rgb(0, 0, 0); fill: rgb(209, 219, 221); pointer-events: auto; stroke-width: 0.1;" pointer-events="auto"/>
      <path id="SC05" d="m1145.86 473.67.4-.07.65-.1.28-.05h.04l.41-.07.42-.05.15-.02.31-.05.41-.06.4-.04.48-.07h.02l.07-.02.54-.07.22-.02h.07l.06-.03.56-.08-.24.11-.07.23.03.32.2.03.21.18.14.22-.03.37-.3.2-.04.24-.04.22.04.1.01.2.02.15.11.32.47.4.87-.97.24-.24.36-.4.78-.9.11.1.64.56.16.16.28.22.46.42.42.39.63.58.36.34.1.1.19.2.32.3.25.22.1.09.25.23.48.42.2.18.05.45.01.22.04.39.1.87.05.59.06.47.03.4.03.29.34-.07.47-.08.51-.12.47-.08.64-.15.21-.04 1.04-.2.17-.05h.05l1.3-.25.73-.15-.04.07.24.4.45.48.31-.02.14.33.37.03.07.28.17.1.33.52.54.53v.33l.4.15.24.4.2.04.06.15h.25l-.04.13.4.17.01.19.21-.1.03.56.63.32.07.15-.15.1.41.2-.04.11.25.06.1.18.17-.05.35.41.03.34.13.03.19.38-.14-.1.22.48.15.02.4.37.1.3.31.21.24.04.26.33.1.29v.48h.07l.12.66.15.04v.39l.2.32h.26l.08.29.22.1.1.32.45.14.15.45-.07.25.38.53.58.21h.15l.31.45.86-.67.2-.93.36-.07.33 1.22.2.28.16.12.03.16.56.4.34.12.1.18-.03.2.43.5-.01.09.48.63.19.98-.92 1.35 1.02.97.4.23h.22l.27.12.18.28.49.26.25-.06.28.18.66-.07.36.21.05.15.42.12.16.24-.16.6-.24.76-1.09.27-.27.3-1.83 1.83-.3.2-.16-.63-.3-.46-.1-.5-.96.53.08.26.15.12.15.34-.07.42-.18.3-.04.4.1.12-.46-.12-.32.23-.22.68-.25.06-.28-.2-.84-.46-.38.02-.21.1-.1.27-.16.08-.02.67.31-.11.24.08-.08.18.22.59.02.43-.24.56v.9l.14.8-.06.24-.26.26-.23.63v.2l.23.44.16.13.33.94-1.04.36-.03-.3.15-.14-.2-.41-.48.12.04.78-.62.12-.19.7-.03.62-.3.52-.44.63-.32-.08-.25-.2-.04-.16-.32-.08.09-.18-.17-.24-.36.08-.3-.08-.24-.3v-.23l-.19.02-.4-.21-.1-.23-.35-.3-.08-.28.22-.15.1-.4.14-.1-.09-.44.18-.23-.2-.2.16-.08-.24-.18.07-.34-.16-.2-.07.08-.28-.12-.14-.62-.3-.16-.25-.3.08-.3.12-.03-.11-.25.02-.43-.2-.3.21.11v-.23l-.25-.05v-.22l-.3-.3-.02-.2.2-.38-.01-.29-.23.08-.03-.23.2-.3-.08-.1.08-.19-.2-.04-.25.11.02-.29-.32-.18v-.23l-.24-.26.28-.1-.1-.2.34.07-.13-.24.2-.2.05-.28.27-.02-.12-.15.11-.24-.38-.43.1-.16h-.18l-.02-.2-.17.04-.3-.1.17-.3-.31.02-.1-.13.05-.22.33-.17.01-.25-.47.18-.5.39-.01.1-.45.14-.15.12-.5.14-.33.45-4.03-2.54-.51-.17.54-2.9-3.33 1.25-1.82 1.01-.12-.1-.36.16-.05.2-.24-.1.01.22-.12.18-.2-.08-.23.39-2.2.26.25.26.22.48-.22.28.1.39-.87-.46-.29-.01-.25-.24-.7.17-.76-.64-.51-.16-.35.1-.19-.06-.46-.53-.36-.18-.14-.4.08-.32-.08-.16-.37-.18-.48-.64-.21-.44-.08-.33-.38-.42-.2-.39-.23-.17-.17-.42-.28-.38-.06-.21-.4-.69-.18-.24.13-.48-.17-.34-.17-.05-.09-.37-.24.11-.27-.05v.25l-.2-.04-.15.14-.27-.18-.14.16-.26.06-.48.68-.64 1-.32-.17.07-.31-.29-.03.09-.21-.07-.19-.3-.13-.46-.28-.27-.04-.45-.42-.28.02-.17-.33-.23.16-.13-.16-.22.05-.25-.12-.34-.42-.24.03-.31-.1-.1-.1-.2.19-.3-.16-.33.33-.51-.2-.1.07-.36-.23-.02.15-.43-.11-.31.06-.2-.08-.35.04-.1-.18-.26.09-.16-.23-.2.04-.38-.1-.14-.2-.17.22v-1.67l.18-.65.04-.77v-1.7l-.05-1.33v-1.18l.05-.57.4-1.1.3-.51.54-1.1-.42-.23-.22-.3-.49.19-.87-1.73.02.36-.09.26-.23.1-.1-.19-.38.06-.14-.1-.1-.28-.18-.28-.24.28-.47.16.05-.23.2-.12-.41-.24-.43.05-.18.8-.2.23-.48-.34-.1-.12-.14.25-.12-.09-.25-.46-.45.05-.02-.47-.39.42-.12-.24-.36-.4-.26-.2-.11.04-.5.37-.36-.68-.62.5-.42-.74-.4-.3-.74-.94-.38-.34-.44-.52-.35-.27.27-.27.12.03.33-.37-.13-.25-.25-.14.77-.12.68-.11.22-.03.47-.1.34-.04.15-.02.25-.06.23-.02.63-.1 1.3-.2.2-.02.43-.07.16-.04.64-.1.32-.05.2-.04.35-.05.4-.05.07-.02.43-.07.12-.03.24-.03.06-.01.5-.07.47-.09.4-.04 1.64-.28.85-.11h.03l1.54-.24.22-.03h.05l.38-.07.47-.07.85-.14.31-.04.13-.02.05-.02.2-.02.18-.03.93-.16.33-.06.92-.12.52-.1h.09l.24-.05 1.1-.16.1-.03.42-.05" fill="#d1dbdd" stroke="rgb(209, 219, 221)" stroke-width="0.1" data-originalStrokeWidth="0.1" style="stroke: rgb(0, 0, 0); fill: rgb(209, 219, 221); pointer-events: auto; stroke-width: 0.1;" pointer-events="auto"/>
      <path id="SC06" d="m1195.28 540.66-.33.03-.28-.23-.33.24-.5.18-.19-.06-.33.18-.14-.06-.61.08-.44-.14-.17.01-.37.34-.28-.17-.25.02-.4-.17-.53.39-.15.37.1.22-.13.46-.4.01-.2.11-.13.46.3.4-.18.46-.42.02-.43.52-.27.12-.02.3-.35.24-.04.14.2.26-.04.3-.56.54v.64l-.36.17-.86-.1.02-.33-.35-.03v.27l-.17-.03-.35.14.08-.2-.29-.15-.09.13-.31-.03.05-.22-.16-.05-.08.2-.21-.12-.5.27-.62-.47-.28.2-.25.06-.99.41-.2-.04-.13.2-.1-.07.1-.22-.23-.14-.15-.28-.14-.06.01-.3-.37-.21-.2-.01.01-.27-.24-.15-.47-.07-.33-.3.14-.25-.16.01-1.07-.37-.34.23h-.72l-.14.32-.16.07-.58-.1-.58.34.34 1.08.34.33.34-.13.97.55-.43.76-.6.41.01-.33.25-.01.06-.14-.23-.18-.26.04-.1.2-.33.17-.14-.26-.26.03-.18-.16-.06.19-.4-.17-.1.29-.2.05-.2-.13-.07.14-.48-.13-.19.05-.16-.15-.41.04-.13-.2-.3.04-.15-.19-.24.2-.59 1.38.25.42.31.34.2.07.1.47.34.12.23.45-.03.48.12.45-.05.23.14.3v.25l-.18.34.38.31.58.74.21.64.01.2-.29.1-.24 1.12.02.42.08.12.33-.16.17.07-.23.64.09.25-.2.23-.22.02-.03.22-.29.2.17.13-.13.18.02.43-.36.02-.07-.18-.48.08-.28.13-.09.2.05.47-.63-.24.03-.35-.1-.28h-.26l-.75-.31-.38-.03-.57.08.02.28.24.32.21.16.16.45.31.48-.14.3v.34l.43.43-.03.3.19.24-.01.34-.18.41-.13.06-.08.3.22.68.14.18.3.14.2.26-.14.07.25.09.11-.1.26.18.44.01.13.25.12-.06.2.2-.23.14.24.22.02.46-.25-.25-.18.09.08.26.24.08v.34l.15-.19.2.03.1-.27.38-.07.08.16.38-.21-.02.24-.35.2.01.13.75.11.16.1-.04.22-.22.46.12.28.23-.04.18-.15.32-.05-.32.64-.16.53.33.03.27.13h-.02l-.06.07-.03.07-.83.03-.11-.03-.94-.73-.5-.02-.34-.1-.3-.44-.38-.17-.2.09-.13.2-.04.15-.39.34-.14-.04h-.45l-.46-.19h-.36l.02-.14-.28-.2-.27.14-.07-.06-.25-.13-.02-.25-.15-.22-.02-.4.1-.14-.22-.08-.08-.11-.2-.18-.06-.04.22-.36.23.05-.06-.17-.22.06-.01-.37-.42-.57-.17-.04-.06-.04-.03-.1-.07-.09h-.05l-.07-.02h-.04l-.09.02-.02.03-.07-.04.09-.05.04-.03.04-.14-.02-.04-.05-.05-.2-.11-.16-.27.21-.16.02-.04-.02-.06-.05-.05-.02-.04.08-.1-.02-.02-.05-.04v-.11h.14l.06-.06.02-.05-.05-.08-.04-.02h-.07l-.01-.04v-.02l.07-.01.07-.05.04.02v.05l.06.02.02-.02-.03-.08.05-.1.01-.03.07-.01.07.03.03-.03-.02-.04-.05-.03-.05-.04-.04-.06.02-.03.03-.04.08-.03.01-.21-.09-.06-.03-.06-.02-.05.02-.11-.01-.13-.05-.08-.05-.05h-.03l-.03.06-.03.03h-.1l-.03-.03v-.06l.04-.02.02-.07v-.05l-.07-.06v-.07l-.03-.05v-.16l-.04-.01-.05.06h-.05l-.02-.03-.05-.06v-.05l.04-.01.02-.07.02-.07.02-.07.07-.04.01-.07-.05-.09h-.04l-.07.04-.04-.05-.12-.04-.08-.14-.04-.02-.05-.02-.08.08.02.06-.23.3.03-.34-.14.08-.07-.22-.28-.12-.09-.06.08-.21-.29-.18-.07-.12-.04-.36-.55-.5-.2-.17-.15-.15-.16-.35.18-.33-.2-.03.03-.17.19.09-.04-.19.2-.26-.04-.12-.31-.03-1.04-.74-.17-.22.09-.2-.04-.2-.29-.02-.17.12-.52-.23-.1-.03-.04-.03-.02-.06-.03-.02-.07-.03-.08-.01-.02-.02.08-.07.03-.05v-.05l-.02-.1-.02-.03-.12-.01-.04-.02v-.06l.02-.07v-.05l-.03-.06-.06-.04h-.03l-.03.03v.1l-.03.06-.05.02h-.04v-.16l-.04-.13-.03-.04h-.09v.05l.06.06.02.11-.04.05-.06.03h-.05l-.01-.06v-.03l.04-.07v-.04l-.02-.05-.07-.04h-.05l-.15.1-.2.06-.13.07h-.25l-.16-.06h-.05l-.12-.02-.24-.08h-.16l-.05-.02-.07-.04v-.06l.06-.06.03-.06v-.04l-.13-.07-.05.05-.01.06-.05.1-.05.02-.05-.01v-.03l.06-.1v-.06l-.02-.04h-.16l-.02-.03v-.05l.03-.07-.04-.05-.1-.01-.02.02-.04.09-.06.03-.07-.02-.12-.06-.12-.07-.17-.18-.51-.4-.1-.08-.14-.18-.08-.2.1-.14.2.16.08-.2-.25-.02.4-.47-.41-.24.02-.06.22-.02-.2-.14.02-.32-.14-.17-.2-.37-.02.13-.46-.17-.04-.28.23-.13-.19-.62.19-.06-.08-.17.16-.1v-.22l-.37.08.1-.46-.12.07-.1-.21-.27.05-.1-.06.38-.18.02-.2-.22.07-.2-.06-.03-.06v-.04l.01-.01.12.06.07-.02v-.02l.02-.05-.02-.03h-.06l-.06-.01v-.04l.06-.12.07-.03.02-.04v-.06l-.09.06h-.07v-.04l-.05-.1-.03-.03-.02-.04.02-.03h.1v-.07l-.01-.02-.05-.07-.07-.09v-.04l.06.02.08-.3-.04.03-.1.09h-.06l-.05-.04.02-.05.1-.02.03-.05-.04-.05-.11-.06-.1-.05.02-.03.17-.06.03-.07-.05-.13-.26-.15-.09-.04-.04.01-.05.1-.18-.14.01-.08-.04-.05h-.05l-.13.13v.1l-.07.01-.19-.02.02-.03.07.01.04-.03-.05-.1.02-.46.02-.09-.02-.05-.07-.13-.13.01-.09-.04-.03-.05-.1-.09-.05.01v.14h-.2l-.06-.04-.07-.02.01-.06.02-.1v-.05l.01-.03.11-.1h.03l.09.02.02-.03-.06-.05-.02-.04.08-.1.01-.04-.02-.05-.1-.06h-.06l-.03.05.01.07.05.07-.04.06-.08-.06-.06-.04h-.07l-.03-.13v-.1l-.1-.1v-.05l.02-.07-.02-.04-.12.01h-.06l-.02-.04v-.05l.07-.05.02-.07-.02-.03-.12-.08-.07-.04-.1-.03-.06-.08h-.14l-.08-.09-.02-.08.04-.24-.3-.17-.15-.47.32.08.04-.5-.1-.38.08-.14-.06-.13-.22-.1.18-.13-.36-.23-.11.21-.08-.34-.21.04.18-.17-.53-.22-.1-.15-.23.07-.23-.23-.09.2-.4-.12-.04-.1-.35-.12-.05-.22-.4-.14h-.29l.15-.2-.17-.2-.2.27.02-.29-.12-.15-.07-.01 1.45-2.33 2.43.26 2.44.35 2.07-.44.13-.14.35-.04.58-.37.54-.03.17-.17.43-.01-.13-.25-.22-.06-.21-.4-.54-.44.04-.3-.14-1.15-.1-.24.06-.27-.09-.07-.23-1.07-.42-2.55-.27-1.77-.51-1.26.42-.02.23.2.1.26.17.06.2.22.54-.04.6.16.41.25.8.17.28-.06.43.06.07.16.88.47.36-.1.23.28.52-.03.14.15.41.03.12.16.43.06.17.24.34-.06.56.3.37.3.46.16.12.15h.3l.12-.26-.15-.26.08-.17-.25-.34.26-.6-.29-.2-.09-.44-.16-.13-.1-.88.13-.12-.08-.36.34-.96-.16-.26v-.35l-.23-.4-.24-.14-.68.65-.2-.49-.44.14-.28-.27-.39-.19-.13-.39-.65.37.3-.96v-.45l.1-.2.8.4.03-.18-.17-.1.36-.73.08.06.23-.5.26.11-.06.65.1.04.06-.51-.04-1.42-.34-.27-.19-.63-.15-.13-.78.6-.54-.01-.05-.5-.12-.37-.16-.19-.43.7-1.1-.92-1.4-1.2.51-.52.46-.33.15-.21.36-.02.33-.27.2-.07.18-.42.46-.3-.26-.24-.8-.3-.12.1-1.21.13.01.19-.18.1.04.3-.24.04.03.6-.57.06-.16-.47-.01-.28.16-.63-.05-.47-.07-1.33-.17-.38.02-.39.59-.42-.24-.08v-.4l.14-.1.02-.18-.17-.1-.39-.05-.02-.13.2-.2v-.3l-.82-1.07-.2-.2-.1-.34-.3-.39-.3-.17-.22.11-.18-.11-.34-.03-.24-.24-.1.01-.42-.57-.33-.3-.43-.32.34-.03.1-.14-.16-.14.42-.56.5.26-.02-.29.13-.09.43.23.04-.52.15-.25-.05-.35.13-.15.44-.24-.21-.43-.31-.29-.03-.16.57.04.15.18.35-.17.06-.19-.19-.09-.04-.28.44-.05.32-.16v-.5l.25-.1.2.13.26-.17.2.36.23-.01.02.35-.07.5.32.05.26-.15-.04.17-.28.26.34-.05.08.23-.24.15-.1.3.09.4.15.16-.3.3-.06.2-.38.64-.12.35.13.13-.4.44.05.16-.22.17.14.76.23.04.17.78.14.2.24.1.84.11.33-.23.07-.47-.2-.21.18-.2.16.06 1.18-.63 2.46-.98 1.41-.37.12-.1-.26-1.22.8-.19.33-.2.61-.03.5-.3h.18l-.11.16.38.43-.11.24.12.15-.27.02-.05.29-.2.19.13.24-.34-.05.1.18-.28.1.25.26-.01.23.32.17-.02.3.26-.1.2.04-.1.19.1.1-.2.3.02.22.23-.08.01.29-.2.37v.2l.31.31.01.22.25.05v.23l-.2-.1.2.3-.03.42.1.25-.1.02-.09.3.25.3.29.18.15.61.28.12.07-.09.16.2-.07.36.24.17-.16.08.2.2-.18.23.1.43-.16.1-.1.4-.21.17.08.29.36.28.1.23.4.2.18-.01v.23l.24.3.3.08.36-.08.17.24-.09.19.32.08.04.14.25.2.32.09.45-.63.29-.52.03-.63.19-.7.61-.11-.02-.77.45-.12.22.4-.15.14.03.29 1.05-.34-.34-.94-.16-.14-.21-.44-.01-.2.22-.63.26-.26.06-.25-.13-.8v-.89l.24-.57-.02-.42-.22-.6.07-.18-.24-.06-.3.09v-.66l.17-.08.1-.26.21-.1.38-.02.84.44.28.2.25-.06.22-.67.32-.23.46.12-.1-.12.03-.4.18-.3.08-.42-.15-.34-.15-.12-.08-.26.97-.53.1.5.29.46.16.65.3-.21 1.84-1.83.27-.3 1.08-.28.25-.76.15-.6.27.2.31.04.2.2.55.17.2-.14.02.15.5.05.14.15.3-.05.63.48-1.77 1.74.93 1.48.22.23 1.07-.34.95-.06.23-.3.26.2.31-.02.21-.16.83-.24.3-.21.8-.22.03-.39-.08-.25.08-.32.2.1.74-.16-.45-.56.4-.39.06-.18.2.32.06-.18.08.22.35.28.16-.08.4.3-.02.18.22.15.06-.1.3.22.22.34.37.23h.2l.2.24.15-.14.26.12v.13l.3.1v.4l.1.25-.58.14.1.2-.34.3-.42.2.1.31 3.73.22.57-.41.35.02.42-.21.15-.3.53-.4.27-.04.27-.3-.05-.25.45-.18.17.09.25-.07.4.3.18-.1.23.12.1.3.23.27-.5.3-.08.6-.48 1.13-.38.5-.25.8-.08.75.1.56-.16.7-.06 1.05.28.48.05.21-.44.56-.5.8-.15.57-.24.3-.76.72-.08.29-.87 1.67.03.67-.14.14-.13.42-.26.58-.11.61-.41.46-.08.24-.37.66.04.52.26.26-.07.16-.94-.31-.22.14-.22-.06-.34.1-.3-.22-.17.05V522l-.17.03-.05-.19-.18-.05-.18-.33-.18-.06-.15-.26-.44-.2-.08.18-.16.03-.23-.26-.68-.16-.1-.18-.42-.06-.18-.14-.02-.22-.55-.3.26-.13-.27-.08-.16-.23-.43-.24-.42.03-.16-.22-.45-.18-.15-.15-.49-.18-.07-.13-.56-.2-.06.12-.4.06-.07-.19-.27.35-.06-.19-.19-.05-.12.25-.19-.21-.1.16-.22-.1-.11.2-.2-.13-.85.2-.03.2-.2-.07-.28.27-.51-.06-.03.31-.41.37-.12-.05v.27l.12.13.48.2-.32.07.18.3-.3-.14.06.38-.26.04.02-.22-.14-.14-.13.37-.13.07-.15-.16-.31.4-.09-.18-.3.05.18.25-.5-.09.11.42-.02.3.09.5.12.14.07.4-.18.03.03.23-.26-.18.03.5.17.41.04.34-.12.46.08.28-.08.3.11.65-.34.34-.04.2-.39.3-.08.25-.53.35-.38-.18-.4-.08-.2.04-.14.2.02.48.41.18.02.23.22.28.28.23v.25l.26.47.16-.02.46.16.35.2-.19.8-.54.54 3 1.47-.3.3-.3-.12-.25.24-.1-.34-.17.44-.23.3-.04.2-.2-.14-.7.2-.29-.05-.17.1-.3-.06.4.37.08.22-.38.11-.08.2h-.27l-.3.28-.08.3-.3.31.14.24-.02.32.5-.12 2.56.87.71.2.56-.04.16.24.16-.13.42.28.36-.56.14-.34-.01-.27h.36l.2.22.34-.01.08-.1.3.17.11.38.35.17-.09.08.36.17.11.3.2-.04-.1-.32.22-.17-.06-.15.16-.34.16-.01-.08-.26.15-.2-1.18-.8-.2-.08.3-.06.45-.31-.75-.27-.14.52-.69-.44.08-.27-.1-.04-.04.25-.2-.13.12-.2.14.05.06-.27.29-.09 1.04.53.09-.15.22.02-.04.25.23.1.31-.25.68-.33.34.37h.2l.05.6.1.32 1.12 1.53 1.5-.67.1.07-.27.51v.38l.22.45.18.2.51.05.22.17.13.64.34.17.13-.03.17 1.13-.14.06-.06.43.04.18" fill="#d1dbdd" stroke="rgb(209, 219, 221)" stroke-width="0.1" data-originalStrokeWidth="0.1" style="stroke: rgb(0, 0, 0); fill: rgb(209, 219, 221); pointer-events: auto; stroke-width: 0.1;" pointer-events="auto"/>
      <path id="SC07" d="m1209.22 526.25.3-.3.13-.44-.06-.18-.27-.13-.37-.05-.65.15-.43-.12-.49.1-.47-.17-.56-.31-.25-.03-.4-.19-.23-.32-.38-.14-.06-.11-.32-.12-.21.1-.26-.15.06-.19-.29-.08.03-.17-.35.24.08-.23-.1-.06-.17.19v-.29l-.15-.06-.1.32-.1.06-.65-.16-.52-.04-.32-.1-.14-.28-.27.14.04-.19-.14-.12h-.9l-.28.06-.19-.15-.53-.13-.88.02-.38-.14.07-.16-.26-.26-.04-.52.37-.66.08-.24.4-.46.13-.61.25-.58.13-.42.13-.14-.01-.66.85-1.67.08-.3.77-.72.24-.3.14-.56.51-.81.44-.56-.05-.2-.28-.49.07-1.05.14-.7-.1-.57.08-.74.26-.8.38-.5.48-1.13.09-.6.49-.31-.23-.27-.1-.29-.23-.12-.19.1-.4-.3-.24.06-.17-.08-.45.18.04.26-.26.3-.28.03-.52.4-.15.3-.42.2-.35-.01-.57.4-3.72-.2-.11-.3.42-.23.34-.28-.1-.2.56-.15-.08-.24v-.4l-.29-.1v-.14l-.27-.12-.13.14-.21-.24h-.21l-.37-.23-.2-.34-.32-.23-.06.1-.22-.14.01-.19-.4-.3-.15.1-.35-.28-.08-.23-.06.18-.21-.32-.05.2-.4.36.45.57-.74.17-.2-.1-.08.31.08.25-.02.39-.8.22-.31.2-.83.25-.21.16-.31.01-.26-.17-.23.28-.95.06-1.07.34-.22-.22-.93-1.49 1.77-1.74-.63-.48-.3.05-.14-.15-.5-.05-.01-.15-.22.13-.53-.16-.2-.2-.32-.04-.27-.2-.16-.24-.42-.12-.05-.15-.37-.21-.65.08-.28-.18-.25.05-.49-.26-.18-.28-.27-.12h-.24l-.39-.23-1-.97.9-1.35-.18-.98-.48-.64.01-.08-.43-.5.04-.2-.1-.18-.35-.12-.56-.4-.03-.16-.17-.1-.2-.3-.32-1.22-.36.07-.2.93-.85.67-.32-.46-.15.01-.58-.21-.38-.53.07-.25-.15-.45-.45-.14-.1-.33-.22-.08-.08-.3h-.26l-.2-.32v-.4l-.15-.03-.12-.67h-.08v-.47l-.1-.28-.25-.34-.24-.04-.32-.2-.1-.31-.4-.37-.13-.02-.23-.48.14.09-.19-.37-.13-.03-.03-.34-.35-.41-.16.05-.1-.18-.26-.06.04-.11-.4-.2.14-.1-.07-.15-.63-.32-.03-.57-.2.1-.01-.18-.4-.17.03-.14-.25.01-.07-.15-.2-.04-.25-.4-.39-.15v-.33l-.53-.54-.33-.5-.17-.12-.07-.27-.37-.03-.14-.33-.31.02-.45-.48-.24-.4.04-.07.22-.05.66-.13.25-.05.79-.16.85-.17.45-.09.36-.07h.06l.43-.09.4-.08.36-.07.67-.13.15-.04.16-.02.6-.13.34-.07.38-.07 1.77-.35 1.02-.2.25-.05.81-.15 1.37-.26.7-.16.76-.13.48-.11.63-.1 1.13-.26.86-.16 1.94-.41 1.23-.28.99-.22.58-.12.33-.06.28-.07.27.18.44.28.58.37 1.01.64.13.07.85.54.44.29.4.25.29.17.85.56.79.49.02.02.63.4.49.3.7.45.87.53 1 .67.7.46.16.11.58.4.17.1.3.23.7.49 1.25.83.55.37.5.34.6.35.44.3.14.1.64.4 1.08.7.3.21.87.55 1.43.92.61.4.54.34.44.3.5.31 1.13.73.28.17.26.18.4.24.29.2.2.12.02.04.38.23 1.34.85.02.03.47.3.33.2.52.34.96.62.37.24.18.11.57.36 1.06.68 1.93 1.24.73.48v.01l.17.11.05.02.34.23.1.06.38.24.04.04.52.33-.23.16-.24.06-.56.26-2.02 1.35-.94.8-1.25 1.3-.83 1.02-.99 1.47-.56.98-.88 1.48-1.24 2.68-.28 1.15-.15.34-.55.87-.38.65-.26.79-.26 1-.2.97-.12.86.04.85-.02.53-.07.25h-.17l.03.17.24.14.06.3-.13.46.06 1.31.1.51.32.8-.09.48.04.19-.13.72-.62.8-.4.85-.55.35-.47.4" fill="#d1dbdd" stroke="rgb(209, 219, 221)" stroke-width="0.1" data-originalStrokeWidth="0.1" style="stroke: rgb(0, 0, 0); fill: rgb(209, 219, 221); pointer-events: auto; stroke-width: 0.1;" pointer-events="auto"/>
      <g id="state_lines" stroke="rgb(209, 219, 221)" style="display: none; stroke: rgb(0, 0, 0);" stroke-width="0.1"/>
      <g id="state_abbr" fill="#000000" style="display: none; fill: rgb(0, 0, 0);">
        <text id="HI_label" x="491.79" y="769.82" style="font-size: 19.2455px; stroke-width: 1.60379; display: none;">
          <tspan id="HI_tspan" x="491.79" y="769.82" fill="#000000" dy="0" font-family="Arial" font-size="24.06" font-style="normal" font-weight="400" style="text-align: center; stroke-width: 2.57215; fill: rgb(0, 0, 0);" text-anchor="middle">HI</tspan>
        </text>
        <text id="AK_label" x="205.24" y="672.25" style="font-size: 19.2455px; stroke-width: 1.60379; display: none;">
          <tspan id="AK_tspan" x="205.24" y="672.25" fill="#000000" dy="0" font-family="Arial" font-size="24.06" font-style="normal" font-weight="400" style="text-align: center; stroke-width: 2.57215; fill: rgb(0, 0, 0);" text-anchor="middle">AK</tspan>
        </text>
        <text id="FL_label" x="1188.11" y="708.7" style="font-size: 19.2455px; stroke-width: 1.60379; display: none;">
          <tspan id="FL_tspan" x="1188.11" y="708.7" fill="#000000" dy="0" font-family="Arial" font-size="24.06" font-style="normal" font-weight="400" style="text-align: center; stroke-width: 2.57215; fill: rgb(0, 0, 0);" text-anchor="middle">FL</tspan>
        </text>
        <text id="NH_label" x="1306.05" y="167.79" stroke-width="1.1" font-size="13.25" style="display: none;">
          <tspan id="NH_tspan" x="1306.05" y="167.79" fill="#000000" stroke-width="1.1" dy="0" font-family="Arial" font-size="16.56" font-style="normal" font-weight="400" style="text-align: center; fill: rgb(0, 0, 0);" text-anchor="middle">NH</tspan>
        </text>
        <text id="MI_label" x="1019.65" y="246.58" style="font-size: 19.2455px; stroke-width: 1.60379; display: none;">
          <tspan id="MI_tspan" x="1019.65" y="246.58" fill="#000000" dy="0" font-family="Arial" font-size="24.06" font-style="normal" font-weight="400" style="text-align: center; stroke-width: 2.57215; fill: rgb(0, 0, 0);" text-anchor="middle">MI</tspan>
        </text>
        <text id="VT_label" x="1274.28" y="145.01" stroke-width="1.05" font-size="12.65" style="display: none;">
          <tspan id="VT_tspan" x="1274.28" y="145.01" fill="#000000" stroke-width="1.05" dy="0" font-family="Arial" font-size="15.81" font-style="normal" font-weight="400" style="text-align: center; fill: rgb(0, 0, 0);" text-anchor="middle">VT</tspan>
        </text>
        <text id="ME_label" x="1338.99" y="105.14" stroke-width="1.45" font-size="17.36" style="display: none;">
          <tspan id="ME_tspan" x="1338.99" y="105.14" fill="#000000" stroke-width="1.45" dy="0" font-family="Arial" font-size="21.7" font-style="normal" font-weight="400" style="text-align: center; fill: rgb(0, 0, 0);" text-anchor="middle">ME</tspan>
        </text>
        <text id="RI_label" x="1361.38" y="262.84" stroke-width="1.25" font-size="14.98" style="display: none;">
          <tspan id="RI_tspan" x="1361.38" y="262.84" fill="#000000" stroke-width="1.25" dy="0" font-family="Arial" font-size="18.72" font-style="normal" font-weight="400" style="text-align: center; fill: rgb(0, 0, 0);" text-anchor="middle">RI</tspan>
        </text>
        <text id="NY_label" x="1227.27" y="204.12" style="font-size: 19.2455px; stroke-width: 1.60379; display: none;">
          <tspan id="NY_tspan" x="1227.27" y="204.12" fill="#000000" dy="0" font-family="Arial" font-size="24.06" font-style="normal" font-weight="400" style="text-align: center; stroke-width: 2.57215; fill: rgb(0, 0, 0);" text-anchor="middle">NY</tspan>
        </text>
        <text id="PA_label" x="1187.28" y="284.69" style="font-size: 19.2455px; stroke-width: 1.60379; display: none;">
          <tspan id="PA_tspan" x="1187.28" y="284.69" fill="#000000" dy="0" font-family="Arial" font-size="24.06" font-style="normal" font-weight="400" style="text-align: center; stroke-width: 2.57215; fill: rgb(0, 0, 0);" text-anchor="middle">PA</tspan>
        </text>
        <text id="NJ_label" x="1330.57" y="290.09" stroke-width="1.28" font-size="15.4" style="display: none;">
          <tspan id="NJ_tspan" x="1330.57" y="290.09" fill="#000000" stroke-width="1.28" dy="0" font-family="Arial" font-size="19.25" font-style="normal" font-weight="400" style="text-align: center; fill: rgb(0, 0, 0);" text-anchor="middle">NJ</tspan>
        </text>
        <text id="DE_label" x="1320.8" y="328.42" stroke-width="1.36" font-size="16.38" style="display: none;">
          <tspan id="DE_tspan" x="1320.8" y="328.42" fill="#000000" stroke-width="1.36" dy="0" font-family="Arial" font-size="20.47" font-style="normal" font-weight="400" style="text-align: center; fill: rgb(0, 0, 0);" text-anchor="middle">DE</tspan>
        </text>
        <text id="MD_label" x="1310.72" y="368.46" stroke-width="1.34" font-size="16.11" style="display: none;">
          <tspan id="MD_tspan" x="1310.72" y="368.46" fill="#000000" stroke-width="1.34" dy="0" font-family="Arial" font-size="20.13" font-style="normal" font-weight="400" style="text-align: center; fill: rgb(0, 0, 0);" text-anchor="middle">MD</tspan>
        </text>
        <text id="VA_label" x="1198.59" y="392.33" style="font-size: 19.2455px; stroke-width: 1.60379; display: none;">
          <tspan id="VA_tspan" x="1198.59" y="392.33" fill="#000000" dy="0" font-family="Arial" font-size="24.06" font-style="normal" font-weight="400" style="text-align: center; stroke-width: 2.57215; fill: rgb(0, 0, 0);" text-anchor="middle">VA</tspan>
        </text>
        <text id="WV_label" x="1129.66" y="382.3" style="font-size: 19.2455px; stroke-width: 1.60379; display: none;">
          <tspan id="WV_tspan" x="1129.66" y="382.3" fill="#000000" dy="0" font-family="Arial" font-size="24.06" font-style="normal" font-weight="400" style="text-align: center; stroke-width: 2.57215; fill: rgb(0, 0, 0);" text-anchor="middle">WV</tspan>
        </text>
        <text id="OH_label" x="1079.05" y="334.46" style="font-size: 19.2455px; stroke-width: 1.60379; display: none;">
          <tspan id="OH_tspan" x="1079.05" y="334.46" fill="#000000" dy="0" font-family="Arial" font-size="24.06" font-style="normal" font-weight="400" style="text-align: center; stroke-width: 2.57215; fill: rgb(0, 0, 0);" text-anchor="middle">OH</tspan>
        </text>
        <text id="IN_label" x="998.79" y="352.94" style="font-size: 19.2455px; stroke-width: 1.60379; display: none;">
          <tspan id="IN_tspan" x="998.79" y="352.94" fill="#000000" dy="0" font-family="Arial" font-size="24.06" font-style="normal" font-weight="400" style="text-align: center; stroke-width: 2.57215; fill: rgb(0, 0, 0);" text-anchor="middle">IN</tspan>
        </text>
        <text id="IL_label" x="927.43" y="364.36" style="font-size: 19.2455px; stroke-width: 1.60379; display: none;">
          <tspan id="IL_tspan" x="927.43" y="364.36" fill="#000000" dy="0" font-family="Arial" font-size="24.06" font-style="normal" font-weight="400" style="text-align: center; stroke-width: 2.57215; fill: rgb(0, 0, 0);" text-anchor="middle">IL</tspan>
        </text>
        <text id="CT_label" x="1299.17" y="228.46" stroke-width="1.06" font-size="12.74" style="display: none;">
          <tspan id="CT_tspan" x="1299.17" y="228.46" fill="#000000" stroke-width="1.06" dy="0" font-family="Arial" font-size="15.93" font-style="normal" font-weight="400" style="text-align: center; fill: rgb(0, 0, 0);" text-anchor="middle">CT</tspan>
        </text>
        <text id="WI_label" x="898.6" y="224.7" style="font-size: 19.2455px; stroke-width: 1.60379; display: none;">
          <tspan id="WI_tspan" x="898.6" y="224.7" fill="#000000" dy="0" font-family="Arial" font-size="24.06" font-style="normal" font-weight="400" style="text-align: center; stroke-width: 2.57215; fill: rgb(0, 0, 0);" text-anchor="middle">WI</tspan>
        </text>
        <text id="NC_label" x="1205.6" y="458.72" style="font-size: 19.2455px; stroke-width: 1.60379; display: none;">
          <tspan id="NC_tspan" x="1205.6" y="458.72" fill="#000000" dy="0" font-family="Arial" font-size="24.06" font-style="normal" font-weight="400" style="text-align: center; stroke-width: 2.57215; fill: rgb(0, 0, 0);" text-anchor="middle">NC</tspan>
        </text>
        <text id="MA_label" x="1305.87" y="200.67" stroke-width="1.04" font-size="12.46" style="display: none;">
          <tspan id="MA_tspan" x="1305.87" y="200.67" fill="#000000" stroke-width="1.04" dy="0" font-family="Arial" font-size="15.58" font-style="normal" font-weight="400" style="text-align: center; fill: rgb(0, 0, 0);" text-anchor="middle">MA</tspan>
        </text>
        <text id="MO_label" x="854.22" y="422.93" style="font-size: 19.2455px; stroke-width: 1.60379; display: none;">
          <tspan id="MO_tspan" x="854.22" y="422.93" fill="#000000" dy="0" font-family="Arial" font-size="24.06" font-style="normal" font-weight="400" style="text-align: center; stroke-width: 2.57215; fill: rgb(0, 0, 0);" text-anchor="middle">MO</tspan>
        </text>
        <text id="GA_label" x="1106.89" y="574.56" style="font-size: 19.2455px; stroke-width: 1.60379; display: none;">
          <tspan id="GA_tspan" x="1106.89" y="574.56" fill="#000000" dy="0" font-family="Arial" font-size="24.06" font-style="normal" font-weight="400" style="text-align: center; stroke-width: 2.57215; fill: rgb(0, 0, 0);" text-anchor="middle">GA</tspan>
        </text>
        <text id="SC_label" x="1166.32" y="522.49" style="font-size: 19.2455px; stroke-width: 1.60379; display: none;">
          <tspan id="SC_tspan" x="1166.32" y="522.49" fill="#000000" dy="0" font-family="Arial" font-size="24.06" font-style="normal" font-weight="400" style="text-align: center; stroke-width: 2.57215; fill: rgb(0, 0, 0);" text-anchor="middle">SC</tspan>
        </text>
        <text id="KY_label" x="1039.99" y="426.39" style="font-size: 19.2455px; stroke-width: 1.60379; display: none;">
          <tspan id="KY_tspan" x="1039.99" y="426.39" fill="#000000" dy="0" font-family="Arial" font-size="24.06" font-style="normal" font-weight="400" style="text-align: center; stroke-width: 2.57215; fill: rgb(0, 0, 0);" text-anchor="middle">KY</tspan>
        </text>
        <text id="AL_label" x="1019.59" y="578.15" style="font-size: 19.2455px; stroke-width: 1.60379; display: none;">
          <tspan id="AL_tspan" fill="#000000" dy="0" font-family="Arial" font-size="24.06" font-style="normal" font-weight="400" style="text-align: center; stroke-width: 2.57215; fill: rgb(0, 0, 0);" text-anchor="middle">AL</tspan>
        </text>
        <text id="LA_label" x="872.7" y="649.59" style="font-size: 19.2455px; stroke-width: 1.60379; display: none;">
          <tspan id="LA_tspan" x="872.7" y="649.59" fill="#000000" dy="0" font-family="Arial" font-size="24.06" font-style="normal" font-weight="400" style="text-align: center; stroke-width: 2.57215; fill: rgb(0, 0, 0);" text-anchor="middle">LA</tspan>
        </text>
        <text id="MS_label" x="940.37" y="592.21" style="font-size: 19.2455px; stroke-width: 1.60379; display: none;">
          <tspan id="MS_tspan" x="940.37" y="592.21" fill="#000000" dy="0" font-family="Arial" font-size="24.06" font-style="normal" font-weight="400" style="text-align: center; stroke-width: 2.57215; fill: rgb(0, 0, 0);" text-anchor="middle">MS</tspan>
        </text>
        <text id="IA_label" x="823.33" y="308.44" style="font-size: 19.2455px; stroke-width: 1.60379; display: none;">
          <tspan id="IA_tspan" x="823.33" y="308.44" fill="#000000" dy="0" font-family="Arial" font-size="24.06" font-style="normal" font-weight="400" style="text-align: center; stroke-width: 2.57215; fill: rgb(0, 0, 0);" text-anchor="middle">IA</tspan>
        </text>
        <text id="MN_label" x="790.84" y="183.37" style="font-size: 19.2455px; stroke-width: 1.60379; display: none;">
          <tspan id="MN_tspan" x="790.84" y="183.37" fill="#000000" dy="0" font-family="Arial" font-size="24.06" font-style="normal" font-weight="400" style="text-align: center; stroke-width: 2.57215; fill: rgb(0, 0, 0);" text-anchor="middle">MN</tspan>
        </text>
        <text id="OK_label" x="732.05" y="519.54" style="font-size: 19.2455px; stroke-width: 1.60379; display: none;">
          <tspan id="OK_tspan" x="732.05" y="519.54" fill="#000000" dy="0" font-family="Arial" font-size="24.06" font-style="normal" font-weight="400" style="text-align: center; stroke-width: 2.57215; fill: rgb(0, 0, 0);" text-anchor="middle">OK</tspan>
        </text>
        <text id="TX_label" x="710.59" y="652.87" style="font-size: 19.2455px; stroke-width: 1.60379; display: none;">
          <tspan id="TX_tspan" x="710.59" y="652.87" fill="#000000" dy="0" font-family="Arial" font-size="24.06" font-style="normal" font-weight="400" style="text-align: center; stroke-width: 2.57215; fill: rgb(0, 0, 0);" text-anchor="middle">TX</tspan>
        </text>
        <text id="NM_label" x="506.94" y="542.36" style="font-size: 19.2455px; stroke-width: 1.60379; display: none;">
          <tspan id="NM_tspan" x="506.94" y="542.36" fill="#000000" dy="0" font-family="Arial" font-size="24.06" font-style="normal" font-weight="400" style="text-align: center; stroke-width: 2.57215; fill: rgb(0, 0, 0);" text-anchor="middle">NM</tspan>
        </text>
        <text id="KS_label" x="701.21" y="427.26" style="font-size: 19.2455px; stroke-width: 1.60379; display: none;">
          <tspan id="KS_tspan" x="701.21" y="427.26" fill="#000000" dy="0" font-family="Arial" font-size="24.06" font-style="normal" font-weight="400" style="text-align: center; stroke-width: 2.57215; fill: rgb(0, 0, 0);" text-anchor="middle">KS</tspan>
        </text>
        <text id="NE_label" x="686.63" y="337.29" style="font-size: 19.2455px; stroke-width: 1.60379; display: none;">
          <tspan id="NE_tspan" x="686.63" y="337.29" fill="#000000" dy="0" font-family="Arial" font-size="24.06" font-style="normal" font-weight="400" style="text-align: center; stroke-width: 2.57215; fill: rgb(0, 0, 0);" text-anchor="middle">NE</tspan>
        </text>
        <text id="SD_label" x="663.02" y="238.75" style="font-size: 19.2455px; stroke-width: 1.60379; display: none;">
          <tspan id="SD_tspan" x="663.02" y="238.75" fill="#000000" dy="0" font-family="Arial" font-size="24.06" font-style="normal" font-weight="400" style="text-align: center; stroke-width: 2.57215; fill: rgb(0, 0, 0);" text-anchor="middle">SD</tspan>
        </text>
        <text id="ND_label" x="663.02" y="150.75" style="font-size: 19.2455px; stroke-width: 1.60379; display: none;">
          <tspan id="ND_tspan" x="663.02" y="150.75" fill="#000000" dy="0" font-family="Arial" font-size="24.06" font-style="normal" font-weight="400" style="text-align: center; stroke-width: 2.57215; fill: rgb(0, 0, 0);" text-anchor="middle">ND</tspan>
        </text>
        <text id="WY_label" x="499.57" y="276.47" style="font-size: 19.2455px; stroke-width: 1.60379; display: none;">
          <tspan id="WY_tspan" x="499.57" y="276.47" fill="#000000" dy="0" font-family="Arial" font-size="24.06" font-style="normal" font-weight="400" style="text-align: center; stroke-width: 2.57215; fill: rgb(0, 0, 0);" text-anchor="middle">WY</tspan>
        </text>
        <text id="MT_label" x="487.84" y="155.58" style="font-size: 19.2455px; stroke-width: 1.60379; display: none;">
          <tspan id="MT_tspan" x="487.84" y="155.58" fill="#000000" dy="0" font-family="Arial" font-size="24.06" font-style="normal" font-weight="400" style="text-align: center; stroke-width: 2.57215; fill: rgb(0, 0, 0);" text-anchor="middle">MT</tspan>
        </text>
        <text id="CO_label" x="525.13" y="406.28" style="font-size: 19.2455px; stroke-width: 1.60379; display: none;">
          <tspan id="CO_tspan" x="525.13" y="406.28" fill="#000000" dy="0" font-family="Arial" font-size="24.06" font-style="normal" font-weight="400" style="text-align: center; stroke-width: 2.57215; fill: rgb(0, 0, 0);" text-anchor="middle">CO</tspan>
        </text>
        <text id="ID_label" x="339.94" y="235.07" style="font-size: 19.2455px; stroke-width: 1.60379; display: none;">
          <tspan id="ID_tspan" x="339.94" y="235.07" fill="#000000" dy="0" font-family="Arial" font-size="24.06" font-style="normal" font-weight="400" style="text-align: center; stroke-width: 2.57215; fill: rgb(0, 0, 0);" text-anchor="middle">ID</tspan>
        </text>
        <text id="UT_label" x="396.81" y="386.73" style="font-size: 19.2455px; stroke-width: 1.60379; display: none;">
          <tspan id="UT_tspan" x="396.81" y="386.73" fill="#000000" dy="0" font-family="Arial" font-size="24.06" font-style="normal" font-weight="400" style="text-align: center; stroke-width: 2.57215; fill: rgb(0, 0, 0);" text-anchor="middle">UT</tspan>
        </text>
        <text id="AZ_label" x="366.76" y="536.9" style="font-size: 19.2455px; stroke-width: 1.60379; display: none;">
          <tspan id="AZ_tspan" x="366.76" y="536.9" fill="#000000" dy="0" font-family="Arial" font-size="24.06" font-style="normal" font-weight="400" style="text-align: center; stroke-width: 2.57215; fill: rgb(0, 0, 0);" text-anchor="middle">AZ</tspan>
        </text>
        <text id="NV_label" x="262.47" y="370.64" style="font-size: 19.2455px; stroke-width: 1.60379; display: none;">
          <tspan id="NV_tspan" x="262.47" y="370.64" fill="#000000" dy="0" font-family="Arial" font-size="24.06" font-style="normal" font-weight="400" style="text-align: center; stroke-width: 2.57215; fill: rgb(0, 0, 0);" text-anchor="middle">NV</tspan>
        </text>
        <text id="OR_label" x="214.43" y="206.88" style="font-size: 19.2455px; stroke-width: 1.60379; display: none;">
          <tspan id="OR_tspan" x="214.43" y="206.88" fill="#000000" dy="0" font-family="Arial" font-size="24.06" font-style="normal" font-weight="400" style="text-align: center; stroke-width: 2.57215; fill: rgb(0, 0, 0);" text-anchor="middle">OR</tspan>
        </text>
        <text id="WA_label" x="238.05" y="102.99" style="font-size: 19.2455px; stroke-width: 1.60379; display: none;">
          <tspan id="WA_tspan" x="238.05" y="102.99" fill="#000000" dy="0" font-family="Arial" font-size="24.06" font-style="normal" font-weight="400" style="text-align: center; stroke-width: 2.57215; fill: rgb(0, 0, 0);" text-anchor="middle">WA</tspan>
        </text>
        <text id="CA_label" x="191.69" y="434.8" style="font-size: 19.2455px; stroke-width: 1.60379; display: none;">
          <tspan id="CA_tspan" x="191.69" y="434.8" fill="#000000" dy="0" font-family="Arial" font-size="24.06" font-style="normal" font-weight="400" style="text-align: center; stroke-width: 2.57215; fill: rgb(0, 0, 0);" text-anchor="middle">CA</tspan>
        </text>
        <text id="DC_label" x="1309.32" y="398.19" stroke-width="1.29" font-size="15.45" style="display: none;">
          <tspan id="DC_tspan" x="1309.32" y="398.19" fill="#000000" stroke-width="1.29" dy="0" font-family="Arial" font-size="19.31" font-style="normal" font-weight="400" style="text-align: center; fill: rgb(0, 0, 0);" text-anchor="middle">DC</tspan>
        </text>
        <text id="TN_label" x="1018.93" y="485.72" style="font-size: 19.2455px; stroke-width: 1.60379; display: none;">
          <tspan id="TN_tspan" x="1018.93" y="485.72" fill="#000000" dy="0" font-family="Arial" font-size="24.06" font-style="normal" font-weight="400" style="text-align: center; stroke-width: 2.57215; fill: rgb(0, 0, 0);" text-anchor="middle">TN</tspan>
        </text>
        <text id="AR_label" x="863.15" y="535.77" style="font-size: 19.2455px; stroke-width: 1.60379; display: none;">
          <tspan id="AR_tspan" x="863.15" y="535.77" fill="#000000" dy="0" font-family="Arial" font-size="24.06" font-style="normal" font-weight="400" style="text-align: center; stroke-width: 2.57215; fill: rgb(0, 0, 0);" text-anchor="middle">AR</tspan>
        </text>
      </g>
      <g id="state_borders" transform="translate(-0.04777967,-0.15336683)" stroke="rgb(209, 219, 221)" style="stroke: rgb(0, 0, 0);" stroke-width="0.3">
        <path id="SC_NC_border" d="m1222.99 498.96-16.56-10.67-5.56-3.6-3.41-2.34-9.74-6.22-4.9 1.1-15.84 3.1-7.48 1.5-.37-3.67-3.35-3.1-1.6-1.4-2.25 2.5-.53-.47-.13-.74.43-.97-.56-.45.06-.62-5.02.72-8.6 1.34-3.4.53-11.62 1.82-2.48.29-1.12.72-.58-.16-.6.5-.7-.96-.62.66-.2 1.03-.56.14-.13-.34-.86.68-.92.43-.3-.23-.46.7-.97.38-.4.48-.34-.13-.45.55-.36-.2-.44.45.24.18-.63.6-.3.03-.61.96-.6.16-.14-.6-5.11 2.78-2.57 1.42" stroke="rgb(209, 219, 221)" stroke-width="0.3" fill="none" style="stroke: rgb(0, 0, 0); display: none;"/>
        <path id="SC_GA_border" d="m1100.36 487.86.3.25-.43.94.27.38-.57.96-.36-.14-.96 1.8-.93.28-.13 1.1-.3-.1-.03 1.05-.4-.18-.18.68-.48.56.26.96-.6.8.1 1.2.37.46 1.03.23.4.43 1.04.34.75.7 1.34-.14.7.48v.33l.55.43h.45l.7.77.44-.05.56.83.28-.11.7.52.88.2.52-.45h.56l1.4-.5 1.26.79 1 2.14.13.52 1.2.62.36.87.55.7.73.48.87 2.6.55.86 1.14.39.63.79.58.45.1.57.5.19.84.75.36.9 1.16 1.55 1.17.04.67.76 1.14.69.92.38.36-.15 1.14.56.6.13 1.4.83.1.42 1.3.6.54.7.36 1.06 1.12 1.02.28.94.66.43.43.03.76.48.67-.3.37.34 1.35.33 1.13.85.9 1.25 1.44.3.7.73-.35.63.6.25-.86.32.3.26.3.9h-.41l.33.76.55.02.45.55h.6l.22.4.6-.35-.04.8.84.26-.4.75 1.46 1.02.93-.33.39.5-.31.63.39.6.6.44 1.18.58 1.25.18.49.23.62-.2 1.63 1.16 1.56.43.6.49.06 1.38-.3-.03.4.82.59.4.23.73.43-.08-.3.62.8.22-.02.64.36-.1.7.46.04 1.47.45.1-.4.42.56.14.29.53-.27.37.22.57-.24.45.53.1.28.42.04.76.32.16-.5.75.26.3 1.4 1.04 1.33.3.5-.21.76.4-.05.3.8.4.48-.02.14.55 1.07.77.38.04-.42.62.18.73.93.83v.39l.95 1.05.28-.33.94 1.8-.67 1.49.96 1 .4.67-.17.66.46.54.19.88.7.08.77.49.92-.03.58-.64.87.59.7.15 1.15.74.85-.1" stroke="rgb(209, 219, 221)" stroke-width="0.3" fill="none" style="stroke: rgb(0, 0, 0); display: none;"/>
      </g>
      <rect id="selection-rectangle" fill="#ffffccaa" stroke="rgb(209, 219, 221)" stroke-width="0.1"/>
      <ellipse id="selection-ellipse" fill="#ffffccaa" stroke="rgb(209, 219, 221)" stroke-width="0.1"/>
      <polygon id="selection-polygon" fill="#ffffccaa" stroke="rgb(209, 219, 221)" stroke-width="0.1"/>
      <polyline id="selection-polyline" fill="#ffffccaa" stroke="rgb(209, 219, 221)" stroke-width="0.1"/>
    </svg>
  </g>
</svg>
