<?xml version='1.0' encoding='UTF-8'?>
<svg xmlns="http://www.w3.org/2000/svg" xmlns:dc="http://purl.org/dc/elements/1.1/" xmlns:ns2="http://creativecommons.org/ns#" xmlns:rdf="http://www.w3.org/1999/02/22-rdf-syntax-ns#" id="wrapper" viewBox="0 0 1520 840" preserveAspectRatio="xMinYMin" height="840" width="1520" style="background-color: rgb(255, 255, 255);">
  <metadata>
    <rdf:rdf>
      <ns2:work rdf:about="">
        <dc:format>image/svg+xml</dc:format>
        <dc:type rdf:resource="http://purl.org/dc/dcmitype/StillImage"/>
        <dc:title>MapChart Map</dc:title>
        <dc:creator>
          <ns2:agent>
            <dc:title>MapChart.net</dc:title>
          </ns2:agent>
        </dc:creator>
        <ns2:license rdf:resource="http://creativecommons.org/licenses/by-sa/4.0/"/>
        <dc:description>This map was created with MapChart.net, a website for creating custom maps.</dc:description>
      </ns2:work>
      <ns2:license rdf:about="http://creativecommons.org/licenses/by-sa/4.0/">
        <ns2:permits rdf:resource="http://creativecommons.org/ns#Reproduction"/>
        <ns2:permits rdf:resource="http://creativecommons.org/ns#Distribution"/>
        <ns2:requires rdf:resource="http://creativecommons.org/ns#Notice"/>
        <ns2:requires rdf:resource="http://creativecommons.org/ns#Attribution"/>
        <ns2:requires rdf:resource="http://creativecommons.org/ns#ShareAlike"/>
      </ns2:license>
    </rdf:rdf>
  </metadata>
  <g id="map-group" transform="translate(-5933.6575969328,-2674.996828654779) scale(6.5457546642196975)">
    <svg id="map" width="1520" height="840" version="1.1" viewBox="0 0 1520 840" preserveAspectRatio="xMinYMin" data-originalStrokeWidth="0.3">
      <defs>
        <pattern id="circles3" width="10" height="10" patternUnits="userSpaceOnUse">    <rect width="10" height="10" fill="#fff"/>    <circle cx="4" cy="4" r="2" fill="#000"/>    </pattern>
        <pattern id="diagonal1" width="10" height="10" patternUnits="userSpaceOnUse">    <rect width="10" height="10" fill="#fff"/>    </pattern>
        <pattern id="diagonal3" width="10" height="10" patternUnits="userSpaceOnUse">    <rect width="10" height="10" fill="#fff"/>    </pattern>
        <pattern id="vertical1" width="10" height="10" patternUnits="userSpaceOnUse">    <rect width="10" height="10" fill="#fff"/>    <rect x="2" y="0" width="1" height="10" fill="#000"/>    </pattern>
        <pattern id="vertical3" width="10" height="10" patternUnits="userSpaceOnUse">    <rect width="10" height="10" fill="#fff"/>    <rect x="2" y="0" width="3" height="10" fill="#000"/>    </pattern>
        <pattern id="horizontal1" width="10" height="10" patternUnits="userSpaceOnUse">    <rect width="10" height="10" fill="#fff"/>    <rect x="0" y="2" width="10" height="1" fill="#000"/>    </pattern>
        <pattern id="horizontal3" width="10" height="10" patternUnits="userSpaceOnUse">    <rect width="10" height="10" fill="#fff"/>    <rect x="0" y="2" width="10" height="3" fill="#000"/>    </pattern>
        <pattern id="crosshatch" width="8" height="8" patternUnits="userSpaceOnUse">    <rect width="8" height="8" fill="#fff"/>    </pattern>
        <pattern id="subtlepatch" width="5" height="5" patternUnits="userSpaceOnUse">    <rect width="5" height="5" fill="#fff"/>    <rect x="2" y="2" width="1" height="1" fill="#000"/>    </pattern>
        <pattern id="checkers" width="8" height="8" patternUnits="userSpaceOnUse">    <rect width="8" height="8" fill="#fff"/>    </pattern>
        <pattern id="raindrops" width="10" height="10" patternUnits="userSpaceOnUse">    <rect width="10" height="10" fill="#fff"/>    </pattern>
        <pattern id="texture" width="4" height="4" patternUnits="userSpaceOnUse">    <rect width="4" height="4" fill="#fff"/>    </pattern>
        <pattern id="circles3_a03500_000000" width="10" height="10" patternUnits="userSpaceOnUse">    <rect width="10" height="10" fill="#a03500"/>    <circle cx="4" cy="4" r="2" fill="#000000"/>    </pattern>
        <pattern id="diagonal1_d9b400_535353" width="10" height="10" patternUnits="userSpaceOnUse">    <rect width="10" height="10" fill="#d9b400"/>    </pattern>
        <pattern id="diagonal3_3264c8_ffffff" width="10" height="10" patternUnits="userSpaceOnUse">    <rect width="10" height="10" fill="#3264c8"/>    </pattern>
        <pattern id="horizontal1_72b38e_000000" width="10" height="10" patternUnits="userSpaceOnUse">    <rect width="10" height="10" fill="#72b38e"/>    <rect x="0" y="2" width="10" height="1" fill="#000000"/>    </pattern>
        <pattern id="horizontal3_986ba1_ffffff" width="10" height="10" patternUnits="userSpaceOnUse">    <rect width="10" height="10" fill="#986ba1"/>    <rect x="0" y="2" width="10" height="3" fill="#ffffff"/>    </pattern>
        <pattern id="vertical1_b9a087_ffffff" width="10" height="10" patternUnits="userSpaceOnUse">    <rect width="10" height="10" fill="#b9a087"/>    <rect x="2" y="0" width="1" height="10" fill="#ffffff"/>    </pattern>
        <pattern id="vertical3_4c91bf_ffff33" width="10" height="10" patternUnits="userSpaceOnUse">    <rect width="10" height="10" fill="#4c91bf"/>    <rect x="2" y="0" width="3" height="10" fill="#ffff33"/>    </pattern>
        <pattern id="checkers_cc3333_f7f7f7" width="8" height="8" patternUnits="userSpaceOnUse">    <rect width="8" height="8" fill="#cc3333"/>    </pattern>
        <pattern id="texture_d1dbdd_525252" width="4" height="4" patternUnits="userSpaceOnUse">    <rect width="4" height="4" fill="#d1dbdd"/>    </pattern>
        <style id="map-style">svg { background-color: #ffffff; }</style>
      </defs>
      <path id="TN01" d="m1082.04 439.73.4-.09 1.23-.22.54-.1.9-.18.54-.1.33-.07.09-.02.78-.14.4.07.21-.05.08-.02.6-.11.25-.05h.08l.92-.18 1.79-.34.63-.1.22-.06 1.32-.25.52-.09.19-.04.56-.1.79-.14.4-.07.1-.03.47-.09h.04l.9-.18.98-.19.67-.13.13-.02.38-.08.6-.1 1-.2.88-.16.3-.07.45-.09.26-.04.31-.08h.01l.9-.2.46-.09.19-.04.7-.14.57-.12.07-.02.1-.02.54-.06.36-.09.22-.04.88-.17 1.23-.25.73-.16.8-.16.19-.05.33-.06.26-.04.46-.1h.03l.18-.04.13-.02.28-.06.18-.04.23-.04h.06l.05-.01.18-.03h.02l.06-.02h.12l.06-.03h.05l.18-.02.07-.02.14-.03.1-.01.09-.03.56-.11.13-.03h.01l.29-.06h.02l.25-.06.36-.07 1.16-.22.28-.05.73-.15.71-.13.05-.02.15-.03.69-.13.06-.22.04-.33.04-.2.25-.03.54-.1.65-.12.92-.16v.02l.57-.12 1.22-.2.43-.08.53-.1.56-.11 1.13-.22-.6.89.02.28.1.26-.31.11.11.53-.09.1.03.04-.02.02-.06.37-.2.05.07.25.2.27.08.17.06.09.05.1-.01.08.02.06-.05.08.02.06.07.04.05.13h.02l-.03.08.2.67-.03.04-.4.36.03.13v.08h.03l.04.1-.04.07-.04.07.1.04-.02.11-.1.17.11.15-.03.21-.28.38-.16.02.15.52.25.04.02.1-.07.33.3.3-.01.1.34.51.13.02.12-.01.1.13v.07l-.02.14-.15-.01-.14.02-.05-.04-.2-.06h-.2l-.18.2-.51.06-.4-.23-.19.06-.1-.01-.2-.4-.04.13-.27.26-.37.19-.56.48-.18.2-.12.11-.18.49-.23.25-.11.05-.19.1-.06.1-.09.08-.2.64-.32 1.03-.26.71-.08.3-.15.42-.24.8-.03.16-.17.49-.05.18-.39 1.2-.1.34-.3-.12-.24.01-.04.14-.07.34-.4.3-.5.11-.14-.04-.25.17-.26.04-.12-.07-.25-.34-.03-.31-.34-.46-.18-.04-.3.16-.43.12-.15-.2-.1.08-.27-.18-.32-.04-.14.1-.05.08-.23.5-.12.14-.04.15-.14.04-.14-.09-.17.33-.38.02-.36-.14-.26.16-.37.46h-.06l-.1.1-.2.14-.27.03-.08-.05-.31.38h-.05l-.05.02-.08.05-.1.07-.05.2-.21.1-.43.55-.1.34-.37 1.18-.02.06-.11.33-.07.27-.17.42-.5.6-.06.06-.15.2-.15.22-.18.14-.02.02-.27.2-.15-.01-.43.34-.2.33-.05.02-.03-.02-.04.02-.07-.01-.07-.05h-.17l-.04-.14-.03-.03-.06-.01-.09.02-.2.01-.1.05-.1.03-.12-.03-.08.02-.07-.02-.04-.22.07-.44-.25-.15-.08-.29v-.05h.01l.03-.06.06-.07.04-.07.02-.43.23-.31-.02-.13-.29-.04-.1-.06-.37-.13-.02-.28-.54-.22-.2.2-.09.15-.2.04-.55.47-.09.25-.59.43.04.16-.24.2-.31.19-.32.4-.38.16-.11.04-.04.29-.12.13.05.35.3.13-.2.36v.2l-.04.15-.22.25-.1.32.05.05.03.08-.39.37-.23-.3-.28-.1-.4-.32-.2.1-.39-.08-.54.35-.04.23.1.3-.03.05-.46.02.19.1.03.3.22.2.24.44-.11.3.3.12-.08.2-.2.17-.27.07.13.26-.02.26.13.19-.03.13-.01.05-.3.11-.03.4-.22.06-.1.3-.15.77.03.07-.27.18-.19.32-.27.2-.3-.1-.47-.08-.08-.03-.25-.04-.15.1-.26-.08-.33.14-.2-.06-.12.04-.44.55-.84.47-.57.11-.13.2-.05.45-.17.1-.16.5-.1.05-.14.13-.48.07h-.1l-.5.07-.04.16-.23.2.1.26-.11.14.1.23-.01.08-.06.15-.25.18-.05.26-.39.27.01.35-.09.17-.34.13-.28-.21-.34-.02-.37.23-.11.45-.18.34-.5.22-.05.3-.32.21-.33.35-.14.05h-.05l-.42.05-.18.5-.32.38-.12.28-.06.23-.06.14-.28.24-.45.09-.16-.08-.47.07-.1.04-.15.09-.36-.01-.46.18-.24-.24-.29-.17-.17-.01-.2.3-.26.17-.12-.06-.27.2-.29-.08-.1.07-.07-.03-.66-3.78-.28.2-.13-.06-.15-.36-.05-.28-.3.12-.19-.02-.03-.31-.18-.01-.04-.21-.22-.03-.15-.56-.27-.1-.07-.32-.66-1.04.15-.3h-.29l-.22-.26-.53-.81-.17-.16-.26-.5-.06-.33-.3-.2.34-.36.2-.52.33-.28.28-.13.08.1.88-.9.09-.16.25.22-.11-.4.18-.15.48-.7-.2-.4.18-.17-.26-.01-.28-.5-.21-.5h-.1l.03-.4.45.04-.06-.25.4-.5-.04-.16.12-.2-.08-.23.11-.2-.95.57-.08-.36.23-.26-.05-.18-.26-.23-.31-.61.2-.22.18.15v-.16l.18-.01.17.33-.12.3.1.15.28.06.2-.13.07-.17-.09-.57-.29-.14-.06-.5.23.13.28-.18.23.37.09-.09-.2-.2.3-.07-.08-.32.01-.43.16-.1.13.34.19-.06-.12-.31.1-.1h.35l.05-.22-.25-.5.22.03.04.23.5-.12.14.32.22.22.11-.43.13-.1.3.22.32.04.23-.08.37-.3-.1-.32.03-.14.43-.11v-.2l-.14-.2-.04-.47.15-.17.16.3.29-.03.22-.3-.2-.38.2-.55.29-.2.17-.4.52-.15.09-.07-.09-.34.18-.16.28.05.23-.19-.01-.31.24-.08.11.34.46.41.21-.36.19.47.29-.11-.09-.36h.3l-.07-.34.28-.18-.29-.47-.33-.37.14-.32-.1-.72-.33-.56-.25.01-.2-.2.36-.25-.23-.3-.55.32-.18-.34-.16.06-.3-.24-.38.05-.35-.3-.84.52-.04-.32.24-.15-.04-.26.12-.13-.09-.8-.3-.7-.4-.77-.45-.77-1.07-1.05-1.1-.56" fill="#d1dbdd" stroke="rgb(209, 219, 221)" stroke-width="0.1" data-originalStrokeWidth="0.1" style="stroke: rgb(0, 0, 0); fill: rgb(209, 219, 221); pointer-events: auto; stroke-width: 0.1;" pointer-events="auto"/>
      <path id="TN02" d="m1060.67 473.4.2-.04-.01-.19.22-.05-.05-.2-.23.02-.02-.23.2-.15-.04-.32.21-.41.4-.07.9-1.53.38.29.24-.2-.05-.5.16-.27.34-.04.4.17.14-.33-.2-.1.22-.31-.15-.17-.07-.65.18-.3.15-.02.4-.3h.12l.08-.27-.08-.33v-1.36l.17.15.37-.1.4.07.25.25.13-.23-.23-.38-.01-.22.18-.06.3.2.06-.09-.24-.31.04-.21.37-.21-.17-.3-.46-.17.01-.19.16-.07.3.07.37.27.13-.1-.2-.48-.13-.22.27.05.35.16.15-.1-.05-.2-.19-.21.11-.46.35-.12.08-.22-.08-.3.86-.03.31.03.66-.56.14.02.27-.44.37-.23.31-.37.04-.16.2-.2-1.06-.87.08-.29.16.01.23-.27.16-.36.37-.4.01-.24.23-.07.13-.4.24-.18-.01-.21.14-.01.24-.21-.06-.13.42-.62.04-.23.75-.73-.8-.63-.31-.5-.29-.22-.33-.38.01-.11-.47-.53-.26.03-.14-.19-.07-.47-.21-.21-.13.1.16.17-.17.39.05.22-.28.4.04.45-.14.13-.4-.15-.19-.75-.22-.22-.21.13-.33-.18-.25-.02-.05-.57.16-.05-.3-.28h.32l-.13-.18-.35-.24-.25-.29.14-.06-.07-.23.3-.22-.26-.06-.11-.29.14-.37-.19-.03-.12-.3-.41.35-.23.38-.28.3-.2-.09v-.14l-.24.34-.23-.18-.18.01-.23.28-.09.27-.14-.02-.92-.83-.1.07-.26-.15-.33.03-.55-.46-.11.05-.13.55-.22.16-.18-.31-.49-.3-.1-.44v-.37l-.22-.37-.17-.07.02-.25.29-.1.03-.32-.07-.35.04-.2-.15-.14.22-.2-.04-.19.45.04.44-.11.2.05.35-.3.28-.13-.1-.4.18-.13-.13-.8.02-.3h-.36l.03-.18-.1-.6.83-.16h.01l2.03-.35h.05l.28-.05.13-.02.53-.1.14-.02.66-.1 1.8-.28.72-.1.33-.06 1.42-.2h.09l2.09-.3.69-.12.85-.12.8-.14.1-.03.56-.09.27-.54.01-.08.5-.08.24-.04.59-.05.96-.16.22-.03.73-.13.54-.1.83-.15.43-.07 1.1.56 1.06 1.05.45.77.4.78.3.68.09.8-.12.14.04.26-.24.15.04.33.84-.52.35.29.39-.05.3.24.15-.06.18.34.56-.32.22.3-.35.24.2.2.24-.01.31.56.13.73-.15.32.33.37.29.47-.28.18.07.34h-.29l.08.36-.28.1-.2-.46-.2.36-.46-.4-.11-.35-.25.08.01.31-.24.2-.27-.06-.18.16.09.34-.09.07-.53.14-.16.41-.28.2-.2.55.19.38-.21.3-.3.02-.16-.3-.15.18.04.47.15.19-.01.2-.43.11-.04.15.1.32-.36.3-.23.08-.33-.04-.3-.23-.12.1-.1.44-.23-.22-.15-.32-.49.12-.04-.23-.22-.04.25.5-.05.24h-.34l-.11.09.1.32-.17.05-.13-.35-.16.1-.01.44.08.32-.28.06.18.21-.1.1-.23-.38-.27.18-.23-.12.05.49.3.14.09.57-.06.17-.21.13-.26-.06-.1-.17.1-.28-.17-.33h-.19l.01.17-.2-.15-.18.21.32.62.25.23.05.18-.23.26.08.36.95-.58-.1.2.07.23-.12.2.05.17-.4.5.05.25-.45-.04-.03.4h.1l.21.5.28.5.27.01-.18.17.2.4-.48.7-.19.14.11.4-.25-.21-.09.17-.88.9-.1-.11-.26.13-.33.28-.2.52-.34.37.3.2.06.32.26.5.17.16.53.81.23.26h.29l-.16.3.66 1.04.07.31.27.1.15.57.22.03.04.2.19.02.02.3.2.03.3-.13.04.3.15.35.13.08.28-.2.66 3.76h-.05l-.76.13-.26.1-.37.27-.36-.04-.26.2-.2-.08-.37.15-.2.4-.5.38-.14.3-.33.34-.19.01-.36.27-.22-.06-.57.2-.16.49-.25.3-.15.7-.59.23-.21.3-.06.1-.12-.05h-.17v.01l-.11-.28.44-.34.08-.23-.14-.07-.33.1-.34-.25h-.19l-.04.4-.23-.01-.1-.3-.53-.28-.05-.15.1-.25.23-.15.04-.14-.16-.31.03-.29-.19-.11-.2.07-.1.26-.4.05-.3.2-.2-.1-.44.08-.32.2-.19-.04-.2-.26.13-.24-.26-.21-.02-.24-.28.1-.2-.4-.3.2-.11.23-.27-.18-.22.02-.03-.23-.57.03-.3-.12-.38-.55-.7.22-.26-.2-.3.18-.25.06-.05-.17.1-.35-.2.1-.16-.09-.5.1-.04-.2-.4.03.12-.4-.72-.04-.04-.38-.23.03.04.23-.79.12.17.32-.23.05.05.22-.23.04-.05.17-.58.16-.05-.34-.3-.41-.43.2-.04-.32-.34.07.08.17-.54.1.04.2-.74.15-.2.13-.17-.31h-.11l.07.48-.43.06.02.24.23-.04.13.12.08.31.2-.04-.07.33-.2.05-.97-.54-.02.14-.22.05.05.23-.25-.09-.45.08-.1-.56.24-.05-.05-.23.56-.1.07-.25.23-.02-.02-.15m.76 1.9-.1-.12-.36.07-.04-.25.45-.05.06.34m-.77-1.89-.23.04.18-.24.05.2m4.85.05.24.16-.15.14-.18-.22.1-.1" fill="#d1dbdd" stroke="rgb(209, 219, 221)" stroke-width="0.1" data-originalStrokeWidth="0.1" style="stroke: rgb(0, 0, 0); fill: rgb(209, 219, 221); pointer-events: auto; stroke-width: 0.1;" pointer-events="auto"/>
      <path id="TN03" d="m1053.8 469.59.4-.36-.05-.12.8-.82.18-.56.19-.68.52-.35.04-.15-1.46-2.54-2.1-1.7-.51-.93-.13.14-.1-.18h-.27l-.12.36-1.25-1.5h-.16l-.2-.19-.36-.02-.31-.26.02-.31.1-.2-.16-.34-.17-.04-.21-.69.33-.56.09-.51h.17l-.07-.32v-.43l.1-.23-.11-.35.24-.44.25-.08.35.17.45-.49.22.18.4-.2.12-.22-.12-.13.1-.3.18-.1-.13-.2.19-.07.06-.26.32.15.17-.22.12.05.22-.22-.21-.4.05-.09.25.07.14-.14-.16-.12-.05-.23.2-.16v-.21l.37.19.28-.1.27.32.25-.26.08-.58h.7l.37-.15-.13-.39.13-.16.2.03.04-.16.31-.17.28.21.02.23.47-.12.43-.27.31.25.12-.2.35.23.21-.28v-.2l.14-.28h.32l.09.14-.1.24.2.07.27.28.1.24.1-.23.2-.1.26.16v-.13l-.24-.04.04-.19.27-.02-.23-.18.15-.08-.04-.32.3.08.04-.38-.32-.65.6-.21.47.37.31.06.3-.13.34.12.1-.34.3-.17.11.44.5.3.17.3.22-.15.13-.55.1-.05.56.46.33-.03.25.15.11-.07.92.83.14.02.09-.27.23-.27h.19l.22.16.25-.34-.01.15.19.07.29-.3.23-.37.41-.35.13.3.18.03-.15.38.1.28.28.06-.3.22.07.23-.14.06.24.28.36.25.13.18h-.31l.3.27-.17.05.05.57.25.02.33.19.2-.13.23.22.2.75.39.15.14-.13-.04-.44.28-.4-.04-.24.16-.4-.16-.15.13-.1.2.21.08.47.14.19.26-.03.47.53-.01.11.33.38.3.23.3.5.8.62-.75.73-.04.23-.42.62.06.13-.24.2h-.14v.23l-.23.2-.13.38-.23.07v.25l-.38.4-.16.35-.23.27h-.16l-.08.3 1.06.84-.2.2-.04.17-.31.37-.37.23-.26.44-.15-.02-.66.56-.31-.03-.86.04.08.28-.08.22-.35.12-.1.47.2.2.03.2-.16.1-.34-.15-.28-.05.14.22.2.48-.13.1-.38-.27-.29-.07-.16.07v.2l.45.16.17.29-.37.2-.04.23.24.3-.06.1-.3-.2-.2.06.02.22.24.38-.13.23-.24-.24-.4-.08-.38.1-.17-.15v1.36l.08.33-.08.27h-.12l-.4.3-.16.01-.17.3.07.67.15.16-.23.3.2.1-.14.34-.39-.17-.34.04-.16.28.05.5-.24.19-.38-.3-.9 1.54-.4.07-.2.41.04.32-.2.15v.23l.24-.03.05.21-.22.05.01.2-.2.02.02.15-.23.02-.08.26-.55.09.05.23-.23.05.1.56.44-.09.25.09-.05-.22.22-.05.02-.14.97.54.2-.05.07-.33-.2.04-.08-.3-.13-.13-.23.04-.02-.24.43-.05-.07-.48h.11l.17.3.2-.13.74-.15-.04-.2.54-.1-.08-.17.34-.07.04.34.43-.21.3.4.05.34.59-.16.04-.17.23-.04-.05-.22.23-.05-.17-.32.79-.13-.04-.22.23-.03.04.38.72.03-.11.4.38-.02.05.19.5-.09.16.1.2-.11-.1.35.05.18.26-.07.3-.17.24.18.72-.21.37.55.3.12.57-.03.03.23.22-.03.27.19.1-.22.3-.21.22.4.27-.1.02.24.26.21-.13.24.2.27.2.04.3-.21.45-.07.2.08.3-.2.4-.04.1-.26.2-.07.2.12-.04.28.16.3-.04.15-.23.15-.1.25.05.15.52.29.1.28.24.03.03-.42.2.01.34.25.33-.1.15.07-.08.23-.46.34.12.28v.07l-.02.16-.19.08v.27l-.17-.01-.08.26-.19.03-.16.23.06.27-.1.15-.2.32-.22.07.18.35.3.27.02.29.08.24-.28.65-.36.16.03.08.14.15-.04.06v.12h.1l.11.1-.02.08-.03.12v.12l-.02.06.03.04-.03.08v.08l.02.09.04.04.16.01.04.01.04.1.07.07.03.04.04.02v.01l-.04.1.02.03-.02.05-.08.1-.11.13-.14.33-.3.44-.52.28-.12.16-.3.4-.26-.09-.14.1-.31.03.02.27-.57-.07-.12.05-.2.11-.24-.05-.18.22-.26.06-.27-.07-.16-.33-.26-.29-.42-.01-.32.53-.16.1-.2.33-.37.3-.14.28-.16.13.07.82.01.28.03.11-.01.16.01.38v.16l.1 1.44.01.2.05.61.08 1.09.01.32.03.45.05 1 .04.46h-.04l-.22.05-.14.02-.71.13h-.1l-.01.03h-.08l-.23.05-.18.04h-.1l-.5.1-.62.11-.63.09-.6.12-.4.06-1.3.22-.34.06-.74.13-.6.1-.34.08-1.08.17-1.2.2-.3.06-.33.06-.65.11-.66.11-.44.07h-.02l-.29.06-.66.1-.56.1-.62.12-.44.07-.21.02-.34.07-.22.03-.24.04-.46.09h-.09l-.38.07-1.2.23-.16.02-.28.07-.8.12-.15.02-.38.07-.18.03-.07.02-.42.07-.36.06-.16.03-.28.06-.18.03-.13.02-.35.05-.24.06-.18.03h-.07l-.14.02-.1.02-.13.01-.4.1h-.07l-.24.05-.17.03-.18.03h-.08l-.15.04-.02.02h-.04l-.14.02-.28.05-.28.06-.25.05-.16.02-.2.04-.08.03h-.02l-.32.04-.07.02h-.04l-.07.03-.49.1-.26.03h-.08l-.28.05-.32.07-.23.02-.7.12-.39.05.4-.45.3-.1.01-.12.35-.25.17-.46.13-.67.28-.1.14.07.23-.22.05-.36.22-.5.02-.57-.34-.34-.29-.13-.3.05.09-1.02-.1-.25 1.95-4.4.74-1.63.3-1.09.52-1.76.17-.8.25-.93.18.18.38.04.2-.37.2.13-.03-.22.49-.05.26.32-.14.3.26.24.34-.24.2.13.19-.04.11-.25 1.41.65-.2.22.06.57-.05.2.42.16.1-.37.23.05.3.38.31.08.14.15.02.33.17.2.03.28.3.61.23.3.35.3.08-.3.41.16.84-1.37.18-.68-.19-.03.03-.22.47.17.15-.77.3-1.07.17-.04.11-.4-.16-.07.13-.57.28-.02-.09-.24.04-.32.16-.1.13-.3.24-.08.13-.22-.04-.26.24-.23-.08-.21.28-.28v-.33l.12-.04.21-.33.2-.06.34-.7.04-.35.2-.35-.03-.52.46-.37.05-.28.15-.25.26-.78.18-.17.08-.35.22-.2-.07-.43-.22-.08-.16-.86.2-.2-.13-.12.06-.29-.49-.3-.25-.08.05.23-.24.02.03.24-.2.02.02.23-.21.04-.05-.24-.14-.19-.56.08.01-.48-.13-.28-.38.07-.24-.28-.28.14-.57-.09-.1-.18.09-.46.19-.02.11-.18-.1-.25-.22-.18-.48-.08-.2-.24-.48-.13.16-.15-.03-.22m6.88 3.8-.04-.19-.2.23.24-.04m4.85.05-.09.08.18.22.15-.14-.24-.17m-4.1 1.85-.04-.34-.45.05.04.25.36-.07.1.11" fill="#d1dbdd" stroke="rgb(209, 219, 221)" stroke-width="0.1" data-originalStrokeWidth="0.1" style="stroke: rgb(0, 0, 0); fill: rgb(209, 219, 221); pointer-events: auto; stroke-width: 0.1;" pointer-events="auto"/>
      <path id="TN04" d="m1018.31 471.09.28-.14.34.14.03.68.45.54-.08.19h-.18v.92l-.29-.07-.04.37.06 1.51.08.18.03.8-.2-.02.09.77.19.08-.09.16-.08.73-.28.33.07.25v.38l.08.26.41.01.07.3.42.2.25.05.02.12.4.13.23.28.59-.07.85.32.9-.06v-.12l.4.1.1-.3h.43l.25-.27.25.06-.03-.22.25-.02-.05-.2-.2-.42-.1-.52.08-.22-.18-.04-.12-.19h.19l.02-.74.4-.93.18-.2.22-.49.22-.05-.2-.14.52-1.23.37-.3.3-.06-.04-.29.29-.07-.08-.16 1.27-.25h.28l.04-.14.55-.15.08.29.33-.05.13-.21.4-.11.46.13.38-.04.14.11.84.11.02.13.31.15.48.07.28-.06.2.22.4.18v.18l-.26.08-.05.3.18.37v.29l.57.23.3.25.26.66-.14.48.68 2.58.03.23 1.36 2.5v-.1l.28-.04v-.22l.38.02.82-.37.9-.12.1-.38.7-.42 1.3-2.07 1.2-2.06.7-1.31-.19-.22.08-.4-.17-.18.25-.2-.2-.17.37-.3 3.64-.74.54.23.24-.05.28-.28.31-.05.19-.15.27.35-.03.2.18.19 2.4-1.12.34.15.2-.4.55-.26 1.88-1.81.38-.07.03.22-.15.15.48.13.2.24.47.09.22.17.1.25-.1.18-.2.02-.1.47.1.17.58.09.28-.15.24.29.38-.07.13.28v.48l.55-.09.14.2.05.24.2-.04-.02-.23.21-.02-.03-.24.24-.02-.05-.23.25.08.5.3-.07.3.13.12-.2.2.16.85.22.08.07.44-.22.2-.08.34-.18.17-.26.78-.15.26-.05.28-.46.36.03.52-.2.35-.05.35-.35.69-.18.07-.2.33-.12.04-.01.33-.28.28.08.2-.24.24.04.26-.13.22-.24.08-.13.3-.16.1-.04.32.08.24-.28.02-.12.57.16.08-.11.4-.16.04-.31 1.06-.16.77-.46-.17-.02.22.18.04-.18.67-.84 1.37-.4-.17-.08.31-.36-.3-.23-.3-.3-.6-.03-.29-.17-.2-.02-.33-.14-.14-.3-.08-.31-.39-.22-.05-.1.37-.43-.17.05-.2-.05-.56.2-.22-1.42-.65-.12.25-.18.04-.2-.14-.34.25-.25-.23.13-.3-.26-.33-.5.05.04.22-.2-.13-.21.37-.38-.04-.17-.18-.24.92-.18.81-.53 1.76-.3 1.09-.73 1.64-1.96 4.39.11.25-.1 1.02.32-.06.28.14.34.35-.02.56-.22.5-.05.36-.23.22-.13-.06-.3.08-.13.68-.16.46-.35.25-.01.11-.3.11-.4.45-.27.05-.33.05-.13.02-.37.06-.88.12-1.16.17-.18.03h-.16l-.65.1-.47.06-.52.08-1.15.17-.12.01-.93.12-.24.05-.88.12h-.14l-.88.15-.64.1-.66.09-.23.04-1.19.17-1.13.18-1.7.25-.45.07-1 .14-2.4.36-.72.1-1.12.15-2.16.3-1.08.19-.36.07-.13.01-.4.07-.32.06-.6.08-.94.14-.43.06-.64.1-.45.05v.02l-.52.06-1.06.15-.42.05-.09.02-.16.01-.05.02-.85.13-.22.02-.18.03-.27.04-.22.03-.72.1-1.86.29h-.13l-.57.09-.52.05-.17.03-.83.09-.76.1h-.06l-.47.07-.58.06-.47.06h-.02l-.14.02-.17.02-.32.04-.45.05-.42.06-.84.1-.87.1-.11.02-.31.03-.5.06-.6.08h-.14l-.36.05-1.12.12-.47.06-.12.01-.45.05-.23.05h-.17l-.18.03-.39.05-.5.06-.32.05-.32.04-.36.02-.07.03-.2.03-1.62.21-.19.02-.51.08-.82.1-.62.09-.68.1h-.04l-.22-.49.1-.1v-.43l.67-.07-.13-.44.22-.03-.44-.23-.42-2.65.19-.03-.06-.4h.11l.02-1.13-.15.15-.36-2.7-.48-3.96 1.47-.21-.02-.4.15-.13.78-.13-.05-.24.76-.04-.15-1.18 1.87-.26.47.03.76-.16v.29l.84-.02-.01.07 1.75.16v-.34l.51.14.36.03.67-.28.13.03.21-.41.31-.1.08-.15.28-.13.78.34.3-.08.26.04.36.25h.55l.1-.12.38.2.08.24.4.04.1.09.3-.04-.04-.26.5.11.18-.07.06-.19.47.12.13.15.08-.14.24.13-.05.15.09.86.11.38.19-.07-.02.38.32.02-.05.33.25.06.03.4-.2.14.17.2.1-.1h.37l.08.27.56-.04.17-.36.23-.2.1.35.14.01.21.4.1.03.14.93 2.1.03.48-.81.56-.7.56-.48.44-.28.15.13.26-.4.84-.31-.15-.49.06-.1v-.63l-.48.03-.3-.42.06-.16-.25-.09-.84-1.33-.09-.66-.18.02-.02-.59-.13-.53-.1-2.62.29-.03.15-.14-.2-.14-.34.2-.2-.09.04-.22h.23l.01-.39-.1-2.39-.13-.45-.52-.04-.33-.08v-.2h-.24l.02-.18-.23-.08v-.16l-.27.06-.05-.15-.05-.96.39.02.01-.5.15-.22.28.1-.05-.46-.1-.28.32-.01.04-.18.6-.06v.11l.27-.01v-.44l-.1-.19-.2.2-.07-.33.27.02-.02-.35h-.36l-.03-.2.22.01v-.24l.31-.02.02-.48-.48-.28-.2-.56.2-.06-.17-.49-.3-.32.15-1.07-.3-.29.04-.33.18-.14.08-.58-.24-.15v-.6l.29-.11.2-.41.28-.13.38-.48-.17-.26.06-.29-.09-.18.43-.16-.06-.63.2.28.22-.06.08.1-.07.47h.22l-.06-.3.09-.17v-.88l1.2.73.24.08.73.36.52.3.64.26v-.17l.29-.01.01.28h-.11l.34.43.05-.2h.18l.09.2.5.26.59.4.38-.1.04.25.59.01v.07l.95.02v.21h.37l-.01-.13.3-.04.03-.19.33.01.01.14.63-.08v.14l.23-.03" fill="#d1dbdd" stroke="rgb(209, 219, 221)" stroke-width="0.1" data-originalStrokeWidth="0.1" style="stroke: rgb(0, 0, 0); fill: rgb(209, 219, 221); pointer-events: auto; stroke-width: 0.1;" pointer-events="auto"/>
      <path id="TN05" d="m1003.24 468.43.22.08.31.49.35-.23.28-.03.26.28.18-.06.19.2.34.04.24-.23-.04-.12.17-.32.43-.06.21.14.27.01-.02-.32.14-.54-.12-.7-.15-.36-.23-.3-.58-.4.18-.2.06-.24-.18-.16-.04-.29.08-.43.19.07-.12-.4-.05-.73.35.11.37-.11.52-.6.06-.36.42.12-.05.4.29.02-.01-.2.28-.18-.01.16.23-.06.17.1.17.31v.33h.92l.36-.2.33-.3-.03-.4h.23l.1.23.34-.64h1.18l.76-.06.47-.2.25.09.17.16.45.02.02.29h.2l.01.19-.18.08.35.04-.06.33h-.22l.1.24h.23l.13.46 1.24 1.39.85.63.5.52.14.18.6-.03.01.2-.19.15-.39.17.07.31-.33.45-.07.36.35.22-.08.25-.23.12.27.2.01.19-.3.2-.06.29.48.05.03.24.36.1.12.18.16-.07.1.36-.04.43-.23.03v-.14l-.63.08v-.14l-.34-.02-.04.2-.3.04.02.13h-.37l.01-.21-.95-.02v-.07l-.6-.01-.04-.25-.38.1-.58-.4-.51-.27-.09-.2h-.19l-.04.2-.34-.41h.11l-.01-.3-.3.02.01.16-.64-.24-.52-.31-.73-.36-.23-.08-1.22-.73v.89l-.08.15.06.3h-.22l.07-.47-.08-.09-.22.06-.2-.28.06.63-.43.16.09.18-.06.3.17.25-.38.48-.28.13-.2.4-.28.12-.01.6.24.15-.1.58-.17.14-.03.33.3.28-.16 1.08.3.32.18.49-.18.06.18.56.48.28-.02.48-.32.03.01.24h-.22l.03.18.36.01.02.35-.27-.02.08.33.2-.2.1.19v.44l-.27.01-.02-.11-.6.06-.03.19-.32.01.1.27.05.46-.28-.1-.15.23-.01.5-.4-.03.06.96.05.15.26-.06.01.16.23.08-.02.2.23-.02.01.2.33.07.52.05.13.45.1 2.39v.4l-.24-.01-.04.22.2.09.34-.2.2.14-.15.14-.29.03.1 2.62.13.53.02.6.19-.02.08.65.84 1.32.25.09-.06.17.31.41.48-.02-.01.63-.06.1.15.49-.84.3-.26.41-.15-.13-.44.28-.56.5-.56.68-.47.81-2.1-.03-.15-.93-.1-.03-.2-.4-.15-.01-.11-.36-.21.2-.18.37-.56.04-.08-.28-.37.02-.1.09-.18-.2.2-.14-.02-.4-.25-.06.05-.33-.32-.02.01-.38-.18.07-.11-.38-.09-.86.05-.15-.24-.13-.08.14-.13-.15-.47-.12-.06.2-.18.06-.5-.1.04.25-.29.05-.1-.1-.4-.04-.1-.24-.37-.2-.09.12h-.57l-.35-.25-.26-.04-.3.08-.78-.34-.28.13-.08.15-.3.1-.22.4-.13-.02-.67.28-.36-.03-.5-.14-.01.34-1.75-.16v-.07l-.83.02v-.29l-.76.16-.47-.03-1.87.26.15 1.18-.76.04.05.24-.78.13-.15.12.02.41-1.46.2-.03-.24-.58-.1-.36-.44v-.28l-.66.01v-.1l-.36.02-.1-.96-1.03.14-.35-.18-.48-.04-.02-.46.08-.25.51-.07-.05-1.36-.1-.09.16-.23.3.17.41-.5-.02-.83-.19-.17-.13-.38.28-.06.27-.17.06-.2.36-.01-.04-.26-.16-.15.4-.18.03-.2.4-.4.46-.03.2.34.19.05.2.24.49.06.56-.14 1.25.23.28-.18.71-.26 1.38-1.31.16.13.14-.18.53-.01.12-.45-.05-.08.22-.24.02-.2.23-.13.13-.23.75-.1.23-.45-.1-.18-.32-.08.52-.12.23-.17.01-.82-.09-3.2 5.28 1.27.14.17.36-.02.74.17.13-.05-.02-.33h.31v.27l.19-.01.04-.24h.32l.21-.27-.05-.33.1-.16.25.01.05-.21.33-.69.06-.28.24-.49.4-.43.48-.06-.09-.83.04-1.3.16-1.3-.28-.02-.58-.19-.14-.14-.28.21-.09.16-.53-.04-.13.12-.3.04-.08.28.02.32.1.01.02.5-.06.23-.42.04-.13.14-.12-.13-.3-.02-.29.1-.36-.1-.27-.44-.19-.44.25-.15-.25-.07-.34-.4-.6-.25-.27.3-.29.06-.64-1.85.27.06.1.13-.1-1.14h.31l.8-.13-.19-.39.54-.14 1.01-.7-.02-.38h.36l.25-.33.5-.3.13-.16.15.1.39-.15.03.24.23-.04.12-.33h.48l.29.4.44.24.6-.08.2.09.38-.02" fill="#d1dbdd" stroke="rgb(209, 219, 221)" stroke-width="0.1" data-originalStrokeWidth="0.1" style="stroke: rgb(0, 0, 0); fill: rgb(209, 219, 221); pointer-events: auto; stroke-width: 0.1;" pointer-events="auto"/>
      <path id="TN06" d="m1050.48 445.14.5-.08 1.1-.17.85-.11.66-.08.49-.06 1.07-.13.54-.06.48-.09 1.04-.19.5-.07.38-.06.1-.01 1.13-.18 3.05-.43.24-.03.1.6-.03.2h.36l-.01.29.11.8-.17.13.1.4-.28.13-.34.3-.21-.05-.44.11-.45-.04.04.19-.22.2.15.15-.04.19.07.35-.03.3-.28.11-.03.26.17.07.2.37.02.37-.31.17-.1.34-.34-.12-.3.13-.31-.06-.47-.37-.6.22.32.63-.04.38-.29-.07.03.32-.15.07.23.19-.27.03-.04.18.23.04.01.13-.26-.16-.22.11-.07.22-.11-.24-.26-.27-.21-.09.1-.23-.1-.14h-.3l-.16.27.01.21-.21.28-.35-.21-.12.18-.3-.25-.43.27-.47.12-.03-.23-.28-.21-.3.17-.05.16-.19-.03-.14.16.13.39-.37.15h-.7l-.08.58-.25.26-.26-.33-.3.11-.36-.2v.22l-.2.16.05.23.16.12-.14.14-.25-.07-.06.1.22.39-.22.22-.12-.05-.18.22-.31-.15-.07.26-.18.07.12.18-.17.1-.1.32.12.13-.11.23-.41.18-.22-.17-.45.5-.35-.18-.25.08-.24.44.1.35-.1.23v.43l.08.31-.17.01-.09.51-.33.56.22.69.16.04.16.33-.1.2-.02.32.32.27.36.01.19.19h.16l1.25 1.5.12-.37h.27l.1.2.13-.15.51.92 2.1 1.71 1.46 2.54-.04.15-.52.35-.19.68-.18.56-.8.82.05.12-.4.36-.4.07-1.87 1.8-.55.26-.2.41-.34-.15-2.4 1.11-.18-.17.03-.21-.28-.35-.18.15-.3.05-.28.27-.25.06-.54-.23-3.64.75-.36.3.2.14-.26.22.17.18-.08.39.17.23-.7 1.32-1.19 2.05-1.3 2.07-.7.42-.1.38-.89.12-.82.37-.38-.02-.01.22-.28.03v.12l-1.35-2.51-.03-.23-.68-2.57.14-.48-.25-.67-.3-.25-.58-.22v-.3l-.18-.37.05-.3.26-.08v-.18l-.4-.17-.2-.23-.28.06-.48-.07-.31-.15-.02-.13-.84-.11-.14-.1-.38.03-.46-.13-.4.1-.13.22-.33.04-.08-.28-.55.15-.04.14h-.29l-1.26.25.08.16-.28.08.02.28-.3.06-.36.3-.53 1.23.2.14-.2.04-.23.5-.18.2-.4.93-.01.74-.2.01.12.18.18.04-.07.22.1.52.2.42.04.19-.25.03.03.22-.25-.06-.25.27-.43.01-.1.3-.4-.1v.1l-.9.07-.85-.32-.59.06-.23-.28-.4-.12-.02-.12-.25-.06-.42-.2-.07-.29h-.4l-.08-.27-.01-.38-.07-.25.27-.33.1-.73.09-.16-.2-.08-.09-.76h.2l-.03-.79-.08-.19-.06-1.5.04-.37.29.07v-.91l.18-.01.08-.2-.45-.53-.03-.68-.33-.14-.29.13.05-.43-.1-.36-.17.07-.12-.19-.36-.1-.02-.23-.48-.05.05-.3.3-.2-.01-.18-.27-.2.23-.12.08-.25-.35-.22.07-.36.33-.45-.07-.31.4-.17.17-.15v-.2l-.6.03-.14-.18-.5-.52-.85-.62-1.24-1.4-.13-.45-.21-.01-.11-.25.2.01.07-.33-.35-.04.19-.1-.01-.17-.21-.01-.02-.28-.45-.02-.17-.16-.25-.08-.47.19-.76.06h-1.18l-.33.64-.1-.22h-.24l.03.38-.33.31-.36.2h-.93l.01-.33-.17-.3-.17-.1-.23.05v-.16l-.27.17.01.21-.29-.03.05-.4-.42-.1-.06.34-.52.6-.37.12-.35-.11.05.74.11.4-.18-.1-.07.45.03.3.18.15-.07.23-.17.2.59.4.22.31.15.36.13.7-.15.54.02.32-.27-.01-.2-.14-.44.06-.18.32.05.12-.24.23-.34-.05-.2-.18-.17.05-.26-.27-.29.02-.34.23-.3-.5-.22-.07-.02-.38.53-.19-.01-.32.1-.2-.05-.35-.14-.33-.98.32-.25-.14-.21-.33-.13-.5.16-.1-.07-.38.24-.14.09-.53-.04-.76.25.02.18-.25-.01-.65.1-.3-.28-.36.18-.12-.24-.07-.45-.44-.22-.02-.34-.38.42-.35-.16-.54.15-.1-.31-.3-.32-.6.2-.05.37-.61-.08-.22.33-.02.2.1.18-.16.64.26.12-.1-.16-.3.02-.2.24-.43.07-.34.52-.79.08-.33.06-.54-.1-.5.07-.68.43-1.02.18-.3.16-.56.37-1.03.16-.48.28-.2.01-.2.3.05.36-.26.34-.2.2-.02.67-.08 3.03-.39.48-.05.97-.03.72-.07.5-.03.47-.04.7-.06.4-.02.52-.05 1.66-.16.53-.06 1.02-.05 2.77-.28.08-.03 1.06-.1 1.1-.1.65-.12h.07l.13-.03.18-.02h.03l.45-.06.45-.06.71-.08h.11l1.08-.13.29-.04.61-.08.72-.1.2-.03.72-.08.5-.07.4-.06.86-.12h.04l.26-.07h.06l1.44-.35.38-.09.76-.17.33-.07.36-.08.5-.1.09-.04.15-.04.17-.05.43-.05.14-.09.42-.09.29-.04.38-.06h.05l.2-.03.27-.04.17-.03.32-.02.03-.02h.09l.35-.06.1-.02.35-.03.09-.03.8-.1 1.26-.14.38-.04.52-.07.55-.05h.04l.82-.07 1.02-.05 1.38-.09.57-.07 1.14-.08.25-.03 1.72-.23" fill="#d1dbdd" stroke="rgb(209, 219, 221)" stroke-width="0.1" data-originalStrokeWidth="0.1" style="stroke: rgb(0, 0, 0); fill: rgb(209, 219, 221); pointer-events: auto; stroke-width: 0.1;" pointer-events="auto"/>
      <path id="TN07" d="m985.8 493.79.48 3.96.35 2.7.15-.15-.02 1.13h-.11l.05.4-.18.03.42 2.65.44.23-.22.03.13.44-.68.07v.43l-.09.1.22.49-.5.05-.2.03-.25.04-1.14.16-.21.03-.33.03-.31.04-.18.01-.56.09h-.2l-.37.06-.51.06-.5.07-.9.11-.83.11-.9.11-.26.04-1.47.2-.48-3.75-.64-5.38-.44-.14-.5.14.02-.47-.08-.06v-.39l-.09-.06.17-.26.1-.4-.4-.46-.18-.07-.12-.72-1-.63h-.16l-.5.45-.38.51-.18.2-.26.07-.4.02-.55-.16-.13.02-.56.34-.15.17-.2-.47-.12.01-.05-.2-.3-.3-.37-.01-.05-.17-.39-.08-.32-3.32.24-.62.34-.1-.01-.16-.25.03.67-1.85-.04-.47-.19.02-.03-.2.21-.06-.32-3.76-.3-3.02-.98.11-.11-.97-.2.03-.04-.3h.2l-.33-3.06.22-.1.01-.16.31-.2.4-.04.06-.37.19-.07.05-.52-.06-.6-.07-.08.72-.17-.2-.1.46-.1.21-.2.27-.07h.45v-.37l-.4.03-.12-.17.27-.4v-.73l-.3-.88.21.1.43-.1.14-.3-.27-.3-.15.03-.3-.21-.1-.26-.26-.28-.01-.3.1-.3-.4-.05-.33-.14-.43.05-.11-.32.23-.07.04-.13.25-.01.04-.2.21-.12.05-.36-.17-.19.05-.15.22.04.22-.18-.25-.43-.1-.48v-.25l-.37-.48.1-.25-.14-.26.13-.1-.08-.2.13-.14-.2-.49.23-.13 1.39-.2 1-.11-.2-.19-.58-.9-.2-.07-.27-.3-.1-.32-.64-.53-.12-.38.15-.64-.2-.6.06-.2.07-.16.2-.3.07-.88-.15-.63-.22-.6-.23-.8-.38-.9-.02-.12-.04-.12-.05-.09-.15-.16-.1-.19-.08-.2-.12-.5.38-.04.12-.03.2-.02.99-.09h.97l.29-.01h.66l1.94-.1.03.98.8-.15.47-.07.82-.14.42-.08 1.39-.23.92-.14.53-.08.95-.15 1.02-.14 2.02-.34.21-.04h.1l.05-.03.15-.02h.08l.06-.02h.1l.12-.03.1-.02.26-.04.28-.04.7-.12.77-.1.39-.07.6-.08.83-.13 1.7-.24.38-.05.74-.1.19-.05.76-.1.56-.1.53-.07.38-.07.47-.07 1.26-.23.47-.08.18-.02.52-.09.8-.13.47-.1 1.42-.24.98-.16.71-.13.28-.05.33-.05.52-.07.44-.09.47-.07.36-.07.61-.11.76-.13.8-.17.52.38.2.13-.15.48-.36 1.03-.17.56-.17.3-.43 1.01-.07.7.09.49-.06.54-.08.34-.53.8-.06.32-.24.42-.02.2.16.31-.12.1-.65-.26-.17.16-.2-.1-.33.02.08.22-.37.6-.19.06.3.6.32.3-.15.1.16.54-.42.35.34.38.22.02.45.44.24.07-.19.1.29.4-.1.29.02.64-.19.25-.25-.02.04.76-.09.53-.24.14.07.38-.16.1.14.5.2.33.25.14.98-.32.14.33.05.36-.1.19.01.32-.53.19.02.38-.4.02-.19-.09-.6.08-.44-.24-.28-.4h-.48l-.13.33-.23.04-.03-.24-.4.15-.14-.09-.13.15-.5.31-.25.32h-.37l.02.38-1 .7-.54.14.18.38-.79.14-.31-.01.1 1.15-.1-.13-.27-.06.65 1.85.29-.06.26-.3.6.26.34.39.25.08-.25.14.19.44.27.44.36.1.3-.1.29.02.12.13.13-.14.42-.04.06-.23-.03-.5-.1-.01v-.32l.07-.28.3-.04.13-.12.52.04.09-.16.3-.2.13.13.58.19.29.02-.17 1.3-.04 1.3.1.83-.5.06-.39.43-.24.5-.06.28-.33.68-.05.21h-.24l-.11.15.05.33-.21.27h-.32l-.03.24h-.2v-.26h-.31l.02.33-.13.05-.74-.17-.36.02-.14-.17-5.28-1.26.1 3.2-.02.81-.23.17-.52.12.32.08.1.18-.23.44-.75.1-.13.24-.23.15-.02.18-.22.24.05.08-.12.45h-.53l-.14.19-.16-.13-1.38 1.3-.7.27-.29.18-1.25-.23-.56.14-.5-.06-.2-.24-.18-.05-.21-.34-.46.04-.39.38-.03.21-.4.18.16.15.04.25-.36.01-.06.2-.28.18-.28.07.14.37.2.18.01.82-.41.5-.3-.18-.15.23.1.09.04 1.37-.5.07-.1.25.03.46.48.04.35.17 1.02-.13.1.95h.37v.1l.67-.03v.3l.34.43.59.1.03.25" fill="#d1dbdd" stroke="rgb(209, 219, 221)" stroke-width="0.1" data-originalStrokeWidth="0.1" style="stroke: rgb(0, 0, 0); fill: rgb(209, 219, 221); pointer-events: auto; stroke-width: 0.1;" pointer-events="auto"/>
      <path id="TN08" d="M977.12 507.53h-.02l-.49.07-.68.09-.47.06-.63.08-1.08.12-.98.13-.38.03-.28.03-.52.07.1.32-.11.07-.25.05-.93.12h-.05l-.74.09-1.1.15-.5.06-.26.05-.25.02h-.1l-.56.1-1.8.2-.4.06-.22.03-.34.05-.34.04-.36.04-.56.08-.38.06-.83.1-.37.05-1.2.16-1.5.2-.87.1-1.01.13-.76.1-.7.09-1.08.12-.8.12-.75.1-1.24.14-.57.09-1.12.13-.87.11-.88.13-.49.07-.62.07-.59.06-.6.06-.1.02-2.58.32-.44.06-2.9.35-.68.08-.9.08-.92.11-1.2.13-.14.02-.63.06-.48.06-1.16.14-.08-.76-.07.22-.37-.2-.23.01-.09-.18-.64-.14-.05-.44-.32-.41-.84.02v-.09l-.38.01-.28.06-.03-.35-.57.09-.06-.2-.17-.06-.07-.44-.38.04-.6-.34-.91-.04v-.39h-.1l.04-.4 1.28-.39.18.19.55.34.26.28.19-.02.72.08.15-.04.7.29.34.03.8-.33.24-.23.32-.15h.32l.33.15.09-.2-.03-.5-.09-.24-.08-1.04.12-.01-.09-.38-.2-.02-.02-.68-.38.19-.46.08-1.46.2-1.55.15-1.2.14-.02-.26.3-.14.09-.16.45-.28.48-.12.69-.93.64-.38v-.47l-2.21.41.5-.8h-.51v-.28l-.29-.01-.33-.18.64-.22-.04-.38.5-.08-.01-1.02-.22-.06-.01-.23h-.73l-.16-.04.21-.3.15-.03.2-.44.63-.8.1-.16.9-1.05.45-.45.24-.44.24-.2.4-.74.11-.1.96-1.1.21-.6.14-.55.17-.42.01-.48.4-.9-.14.01.04-.21-.24-.09-.06-.16-.18.07.02.2-.51-.06.02.27-.23.27-.29-.18-.42.12-.13-.25-.84.36-.08-.32-.28.2-.01-.13-.45-.1v.26l-.56.31-.12-.08-.2.1-.26.3.07.14-.52.3.1.34-.18-.02-.17.14-.18-.09.07.2-.35.24-.1.22-.16-.08-.05.23-.2-.15-.18.16.14.14-.17.23.04.14-.1.53-.14.25-.2.19-.02.03-.01-.23-.13-.16-.36-.02-.37-.14-.39-.56-.1-.3.2-.48.37-.32.35-.2.13-.14.3.04.23-.06.38-.37.43-.31.06-.18.01-.24-.03-.3-.23-.35-.22-.02-.26.2-.1.3-.26.17-.36.04-.45-.16-.25-.18-.46-.53-.18-.22-.14-.83-.04-.2.07-.23.26-.2.09-.12v-.13l.03-.03.36-.26.14-.12.2-.2.41.24.73-.29.29.04.07.26.3.1.61-.33.33-.33-.07-.34.03-.34-.07-.22.39-.6.38-.18v-.05l.43.06.26.02.05.04.21.05.48-.37.27-.3.04-.15-.05-.28-.74-.27-.82-.19-.37-.13-.2-.32v-.41l.15-.32.26-.35.2-.28.4-.06.3.1.66.44.45.4.36.03.39-.4.05-.58-.07-.31-.25-.42-.68-.36-1.03-.46-.23-.24-.1-.67-.3-.33.4-.05.26-.04v-.12l.28-.53.09-.45.01-.56v-.99l.26-.44 1-.52.24-.2.38-.3.11-.27-.01-.4-.12-.43-.24-.3-.12-.14-.32-.25-.15-.08-.34-.14-.5-.36-.25-.1-.43-.27-.36-.24-.19-.19-.07-.07-.08-.29.08-.17.1-.15.1.01.34.08.66-.17.37.05.68.2.6-.08.3-.16.23-.25.46.04.28-.2-.03-.2v-.08l-.03-.07-.08-.28-.03-.08-.18-.12-.27.1-.62-.26-.16-.13-.74-.43-.23-.34-.05-.27.18-.37.24-.11.48-.04.54.08.4-.02.32-.1.28-.34.1-.38.05-.43-.15-.36-.34-.44-.5-.58-.1-.2v-.38l.36-.45.12-.51-.01-.2-.06-.16-.52-.56 1.23-.15h.11l-.15.7.1.26.4.24.32-.01.25-.16.36-.45.21-.36.18-.47.24-.03.43-.05.83-.2h.02l.6-.16.9-.18.37-.04.61-.05 1.11-.11.64-.07.4-.04h.13l.7-.07.94-.1.2-.02.79-.1.62-.06.7-.08.94-.1.23-.03.6-.07.25-.04.66-.08.16-.02h.08l.07-.02.16-.03h.19l.02-.03h.08l.79-.1.91-.12.57-.08.53-.05.31-.05.7-.09.9-.1.52-.06.3-.04.93-.13 1.37-.16.22-.03.07-.01.46-.05.87-.09.49-.06.3-.04.4-.06 1.32-.14 1.55-.21.4-.06.21-.02 1.04-.12 1.61-.2.29-.03.18-.03 1.26-.14.52-.06.4-.04.88-.09-.06.2.2.6-.16.65.13.38.63.53.11.32.26.3.2.08.6.9.2.18-1.01.1-1.39.21-.23.13.21.49-.14.14.08.2-.13.1.14.26-.1.25.37.48v.25l.1.48.25.43-.22.18-.22-.04-.05.15.17.19-.05.36-.21.14-.04.18-.25.01-.04.13-.24.07.1.32.45-.05.33.14.4.07-.1.28.01.3.26.28.1.26.3.21.15-.03.27.3-.14.3-.43.1-.21-.1.3.88v.73l-.27.4.12.18.4-.04v.38h-.45l-.28.05-.2.2-.45.1.2.1-.73.17.07.09.06.6-.06.52-.18.07-.06.37-.4.03-.3.21-.02.16-.22.11.34 3.04h-.21l.03.31.21-.03.11.97.99-.11.3 3.02.31 3.76-.2.06.02.2.2-.03.03.47-.67 1.85.25-.02v.16l-.33.1-.24.63.32 3.31.4.08.04.17h.36l.31.3.05.21.12-.01.2.47.15-.17.56-.34.13-.01.54.15.4-.02.26-.08.2-.2.38-.5.49-.46.15.01 1.01.62.1.73.2.07.4.46-.1.4-.18.26.1.06v.4l.08.05-.03.47.51-.14.44.14.64 5.38.47 3.74" fill="#d1dbdd" stroke="rgb(209, 219, 221)" stroke-width="0.1" data-originalStrokeWidth="0.1" style="stroke: rgb(0, 0, 0); fill: rgb(209, 219, 221); pointer-events: auto; stroke-width: 0.1;" pointer-events="auto"/>
      <path id="TN09" d="m926.28 514.2-.32.03-.16.02-1.7.2-.54.06-1.04.12-.74.06-1.26.13-.54.07-.33.02-1.03.12-.44.04-.08-.2.04-.3.01-.25.1-.25.05-.18.02-.18.26-.14.56-.02.22.15.12.09.19-.04.19-.03.3.07.33.08.16-.03.36-.5.16-.36.06-.3.06-.52-.1-.11-.09-.14-.03-.3v-.18l.05-.36.03-.15.17-.28.3-.26.34-.1.82.3.33.06.2-.03.16-.12.17-.2.02-.04.16-.3.04-.27-.08-.25-.05-.07-.04-.02-.1-.03-.68-.27-.22-.17-.08-.22-.23-.12-.04-.16.02-.23.19-.05.29.12.15-.5.04-.07.05.01.14.08.11-.32-.3-.39-.06-.2-.24-.32-.36-.17-.4.06-.41.14-.23-.04-.17-.15-.16-.17-.17-.22-.1-.21.04-.44.14-.26.23-.1.23.1.44-.2.32-.06.2-1.43.36-.88-.11-.34-.44-.26-.5-.44-.36-.04-.3.18-.1.3.05.25.3.46-.27.1-.47.07-.37-.21-.03-.1.14-.8v-.38l.77-.63.16-.13.17-.85.25-.3.18-.06.31-.05.23.02.31.27.03.08-.08.82.15.5.25.23-.18.26.47.54.24-.15v-.11l-.35-.2.18-.26.66-.35.42-.37-.2-.75-.2-.33-.03-.05-.32-.27-.28-.2-.24-.3-.06-.14-.17-.53.19-1.1.28-.24h.2l.32-.18.24-.06.53.18.42.3.15.28-.04.22-.01.1.5.14.3.14h.19l.3-.12.12-.36-.14-.39h-.08l.2-.18.14-.25.1-.53-.04-.14.18-.23-.14-.14.17-.16.2.15.05-.23.16.08.1-.22.35-.23-.07-.22.2.09.14-.13.2.02-.11-.34.52-.31-.07-.14.25-.3.2-.09.14.08.55-.31v-.26l.45.1v.13l.3-.2.07.32.84-.36.13.25.42-.12.3.17.22-.26-.02-.27.5.04-.02-.18.2-.07.05.16.24.09-.04.21.15-.02-.4.91-.01.48-.17.42-.15.55-.21.61-.96 1.09-.12.1-.39.74-.24.2-.24.44-.44.45-.9 1.05-.11.17-.63.8-.2.43-.15.03-.21.3.16.04h.73v.23l.23.06v1.02l-.49.07.04.4-.64.21.34.18.3.02-.02.29.51-.02-.5.8 2.21-.4v.46l-.65.38-.68.92-.48.12-.45.29-.09.16-.3.14.03.26 1.2-.14 1.54-.16 1.46-.19.45-.08.38-.19.05.67.18.03.09.38-.12.01.08 1.05.1.23.02.5-.08.2-.34-.14h-.32l-.32.14-.25.22-.8.34-.33-.03-.7-.3-.15.05-.72-.08-.2.03-.25-.29-.55-.33-.18-.2-1.28.4-.05.4h.1l.02.38.9.04.6.34.38-.04.07.44.17.06.06.19.57-.08.03.35.29-.06h.38v.08l.83-.02.32.41.05.44.64.14.09.18.23-.02.37.21.07-.22.08.76-.9.11-.43.07-.9.1-.46.05-.21.02-.7.1-.42.05-.34.03-.57.06-.44.04-.47.05-.49.06-.4.04-.45.05" fill="#d1dbdd" stroke="rgb(209, 219, 221)" stroke-width="0.1" data-originalStrokeWidth="0.1" style="stroke: rgb(0, 0, 0); fill: rgb(209, 219, 221); pointer-events: auto; stroke-width: 0.1;" pointer-events="auto"/>
      <g id="state_lines" stroke="rgb(209, 219, 221)" style="display: none; stroke: rgb(0, 0, 0);" stroke-width="0.1"/>
      <g id="state_abbr" fill="#000000" style="display: none; fill: rgb(0, 0, 0);">
        <text id="HI_label" x="491.79" y="769.82" style="font-size: 19.2455px; stroke-width: 1.60379; display: none;">
          <tspan id="HI_tspan" x="491.79" y="769.82" fill="#000000" dy="0" font-family="Arial" font-size="24.06" font-style="normal" font-weight="400" style="text-align: center; stroke-width: 2.57215; fill: rgb(0, 0, 0);" text-anchor="middle">HI</tspan>
        </text>
        <text id="AK_label" x="205.24" y="672.25" style="font-size: 19.2455px; stroke-width: 1.60379; display: none;">
          <tspan id="AK_tspan" x="205.24" y="672.25" fill="#000000" dy="0" font-family="Arial" font-size="24.06" font-style="normal" font-weight="400" style="text-align: center; stroke-width: 2.57215; fill: rgb(0, 0, 0);" text-anchor="middle">AK</tspan>
        </text>
        <text id="FL_label" x="1188.11" y="708.7" style="font-size: 19.2455px; stroke-width: 1.60379; display: none;">
          <tspan id="FL_tspan" x="1188.11" y="708.7" fill="#000000" dy="0" font-family="Arial" font-size="24.06" font-style="normal" font-weight="400" style="text-align: center; stroke-width: 2.57215; fill: rgb(0, 0, 0);" text-anchor="middle">FL</tspan>
        </text>
        <text id="NH_label" x="1306.05" y="167.79" stroke-width="1.1" font-size="13.25" style="display: none;">
          <tspan id="NH_tspan" x="1306.05" y="167.79" fill="#000000" stroke-width="1.1" dy="0" font-family="Arial" font-size="16.56" font-style="normal" font-weight="400" style="text-align: center; fill: rgb(0, 0, 0);" text-anchor="middle">NH</tspan>
        </text>
        <text id="MI_label" x="1019.65" y="246.58" style="font-size: 19.2455px; stroke-width: 1.60379; display: none;">
          <tspan id="MI_tspan" x="1019.65" y="246.58" fill="#000000" dy="0" font-family="Arial" font-size="24.06" font-style="normal" font-weight="400" style="text-align: center; stroke-width: 2.57215; fill: rgb(0, 0, 0);" text-anchor="middle">MI</tspan>
        </text>
        <text id="VT_label" x="1274.28" y="145.01" stroke-width="1.05" font-size="12.65" style="display: none;">
          <tspan id="VT_tspan" x="1274.28" y="145.01" fill="#000000" stroke-width="1.05" dy="0" font-family="Arial" font-size="15.81" font-style="normal" font-weight="400" style="text-align: center; fill: rgb(0, 0, 0);" text-anchor="middle">VT</tspan>
        </text>
        <text id="ME_label" x="1338.99" y="105.14" stroke-width="1.45" font-size="17.36" style="display: none;">
          <tspan id="ME_tspan" x="1338.99" y="105.14" fill="#000000" stroke-width="1.45" dy="0" font-family="Arial" font-size="21.7" font-style="normal" font-weight="400" style="text-align: center; fill: rgb(0, 0, 0);" text-anchor="middle">ME</tspan>
        </text>
        <text id="RI_label" x="1361.38" y="262.84" stroke-width="1.25" font-size="14.98" style="display: none;">
          <tspan id="RI_tspan" x="1361.38" y="262.84" fill="#000000" stroke-width="1.25" dy="0" font-family="Arial" font-size="18.72" font-style="normal" font-weight="400" style="text-align: center; fill: rgb(0, 0, 0);" text-anchor="middle">RI</tspan>
        </text>
        <text id="NY_label" x="1227.27" y="204.12" style="font-size: 19.2455px; stroke-width: 1.60379; display: none;">
          <tspan id="NY_tspan" x="1227.27" y="204.12" fill="#000000" dy="0" font-family="Arial" font-size="24.06" font-style="normal" font-weight="400" style="text-align: center; stroke-width: 2.57215; fill: rgb(0, 0, 0);" text-anchor="middle">NY</tspan>
        </text>
        <text id="PA_label" x="1187.28" y="284.69" style="font-size: 19.2455px; stroke-width: 1.60379; display: none;">
          <tspan id="PA_tspan" x="1187.28" y="284.69" fill="#000000" dy="0" font-family="Arial" font-size="24.06" font-style="normal" font-weight="400" style="text-align: center; stroke-width: 2.57215; fill: rgb(0, 0, 0);" text-anchor="middle">PA</tspan>
        </text>
        <text id="NJ_label" x="1330.57" y="290.09" stroke-width="1.28" font-size="15.4" style="display: none;">
          <tspan id="NJ_tspan" x="1330.57" y="290.09" fill="#000000" stroke-width="1.28" dy="0" font-family="Arial" font-size="19.25" font-style="normal" font-weight="400" style="text-align: center; fill: rgb(0, 0, 0);" text-anchor="middle">NJ</tspan>
        </text>
        <text id="DE_label" x="1320.8" y="328.42" stroke-width="1.36" font-size="16.38" style="display: none;">
          <tspan id="DE_tspan" x="1320.8" y="328.42" fill="#000000" stroke-width="1.36" dy="0" font-family="Arial" font-size="20.47" font-style="normal" font-weight="400" style="text-align: center; fill: rgb(0, 0, 0);" text-anchor="middle">DE</tspan>
        </text>
        <text id="MD_label" x="1310.72" y="368.46" stroke-width="1.34" font-size="16.11" style="display: none;">
          <tspan id="MD_tspan" x="1310.72" y="368.46" fill="#000000" stroke-width="1.34" dy="0" font-family="Arial" font-size="20.13" font-style="normal" font-weight="400" style="text-align: center; fill: rgb(0, 0, 0);" text-anchor="middle">MD</tspan>
        </text>
        <text id="VA_label" x="1198.59" y="392.33" style="font-size: 19.2455px; stroke-width: 1.60379; display: none;">
          <tspan id="VA_tspan" x="1198.59" y="392.33" fill="#000000" dy="0" font-family="Arial" font-size="24.06" font-style="normal" font-weight="400" style="text-align: center; stroke-width: 2.57215; fill: rgb(0, 0, 0);" text-anchor="middle">VA</tspan>
        </text>
        <text id="WV_label" x="1129.66" y="382.3" style="font-size: 19.2455px; stroke-width: 1.60379; display: none;">
          <tspan id="WV_tspan" x="1129.66" y="382.3" fill="#000000" dy="0" font-family="Arial" font-size="24.06" font-style="normal" font-weight="400" style="text-align: center; stroke-width: 2.57215; fill: rgb(0, 0, 0);" text-anchor="middle">WV</tspan>
        </text>
        <text id="OH_label" x="1079.05" y="334.46" style="font-size: 19.2455px; stroke-width: 1.60379; display: none;">
          <tspan id="OH_tspan" x="1079.05" y="334.46" fill="#000000" dy="0" font-family="Arial" font-size="24.06" font-style="normal" font-weight="400" style="text-align: center; stroke-width: 2.57215; fill: rgb(0, 0, 0);" text-anchor="middle">OH</tspan>
        </text>
        <text id="IN_label" x="998.79" y="352.94" style="font-size: 19.2455px; stroke-width: 1.60379; display: none;">
          <tspan id="IN_tspan" x="998.79" y="352.94" fill="#000000" dy="0" font-family="Arial" font-size="24.06" font-style="normal" font-weight="400" style="text-align: center; stroke-width: 2.57215; fill: rgb(0, 0, 0);" text-anchor="middle">IN</tspan>
        </text>
        <text id="IL_label" x="927.43" y="364.36" style="font-size: 19.2455px; stroke-width: 1.60379; display: none;">
          <tspan id="IL_tspan" x="927.43" y="364.36" fill="#000000" dy="0" font-family="Arial" font-size="24.06" font-style="normal" font-weight="400" style="text-align: center; stroke-width: 2.57215; fill: rgb(0, 0, 0);" text-anchor="middle">IL</tspan>
        </text>
        <text id="CT_label" x="1299.17" y="228.46" stroke-width="1.06" font-size="12.74" style="display: none;">
          <tspan id="CT_tspan" x="1299.17" y="228.46" fill="#000000" stroke-width="1.06" dy="0" font-family="Arial" font-size="15.93" font-style="normal" font-weight="400" style="text-align: center; fill: rgb(0, 0, 0);" text-anchor="middle">CT</tspan>
        </text>
        <text id="WI_label" x="898.6" y="224.7" style="font-size: 19.2455px; stroke-width: 1.60379; display: none;">
          <tspan id="WI_tspan" x="898.6" y="224.7" fill="#000000" dy="0" font-family="Arial" font-size="24.06" font-style="normal" font-weight="400" style="text-align: center; stroke-width: 2.57215; fill: rgb(0, 0, 0);" text-anchor="middle">WI</tspan>
        </text>
        <text id="NC_label" x="1205.6" y="458.72" style="font-size: 19.2455px; stroke-width: 1.60379; display: none;">
          <tspan id="NC_tspan" x="1205.6" y="458.72" fill="#000000" dy="0" font-family="Arial" font-size="24.06" font-style="normal" font-weight="400" style="text-align: center; stroke-width: 2.57215; fill: rgb(0, 0, 0);" text-anchor="middle">NC</tspan>
        </text>
        <text id="MA_label" x="1305.87" y="200.67" stroke-width="1.04" font-size="12.46" style="display: none;">
          <tspan id="MA_tspan" x="1305.87" y="200.67" fill="#000000" stroke-width="1.04" dy="0" font-family="Arial" font-size="15.58" font-style="normal" font-weight="400" style="text-align: center; fill: rgb(0, 0, 0);" text-anchor="middle">MA</tspan>
        </text>
        <text id="MO_label" x="854.22" y="422.93" style="font-size: 19.2455px; stroke-width: 1.60379; display: none;">
          <tspan id="MO_tspan" x="854.22" y="422.93" fill="#000000" dy="0" font-family="Arial" font-size="24.06" font-style="normal" font-weight="400" style="text-align: center; stroke-width: 2.57215; fill: rgb(0, 0, 0);" text-anchor="middle">MO</tspan>
        </text>
        <text id="GA_label" x="1106.89" y="574.56" style="font-size: 19.2455px; stroke-width: 1.60379; display: none;">
          <tspan id="GA_tspan" x="1106.89" y="574.56" fill="#000000" dy="0" font-family="Arial" font-size="24.06" font-style="normal" font-weight="400" style="text-align: center; stroke-width: 2.57215; fill: rgb(0, 0, 0);" text-anchor="middle">GA</tspan>
        </text>
        <text id="SC_label" x="1166.32" y="522.49" style="font-size: 19.2455px; stroke-width: 1.60379; display: none;">
          <tspan id="SC_tspan" x="1166.32" y="522.49" fill="#000000" dy="0" font-family="Arial" font-size="24.06" font-style="normal" font-weight="400" style="text-align: center; stroke-width: 2.57215; fill: rgb(0, 0, 0);" text-anchor="middle">SC</tspan>
        </text>
        <text id="KY_label" x="1039.99" y="426.39" style="font-size: 19.2455px; stroke-width: 1.60379; display: none;">
          <tspan id="KY_tspan" x="1039.99" y="426.39" fill="#000000" dy="0" font-family="Arial" font-size="24.06" font-style="normal" font-weight="400" style="text-align: center; stroke-width: 2.57215; fill: rgb(0, 0, 0);" text-anchor="middle">KY</tspan>
        </text>
        <text id="AL_label" x="1019.59" y="578.15" style="font-size: 19.2455px; stroke-width: 1.60379; display: none;">
          <tspan id="AL_tspan" fill="#000000" dy="0" font-family="Arial" font-size="24.06" font-style="normal" font-weight="400" style="text-align: center; stroke-width: 2.57215; fill: rgb(0, 0, 0);" text-anchor="middle">AL</tspan>
        </text>
        <text id="LA_label" x="872.7" y="649.59" style="font-size: 19.2455px; stroke-width: 1.60379; display: none;">
          <tspan id="LA_tspan" x="872.7" y="649.59" fill="#000000" dy="0" font-family="Arial" font-size="24.06" font-style="normal" font-weight="400" style="text-align: center; stroke-width: 2.57215; fill: rgb(0, 0, 0);" text-anchor="middle">LA</tspan>
        </text>
        <text id="MS_label" x="940.37" y="592.21" style="font-size: 19.2455px; stroke-width: 1.60379; display: none;">
          <tspan id="MS_tspan" x="940.37" y="592.21" fill="#000000" dy="0" font-family="Arial" font-size="24.06" font-style="normal" font-weight="400" style="text-align: center; stroke-width: 2.57215; fill: rgb(0, 0, 0);" text-anchor="middle">MS</tspan>
        </text>
        <text id="IA_label" x="823.33" y="308.44" style="font-size: 19.2455px; stroke-width: 1.60379; display: none;">
          <tspan id="IA_tspan" x="823.33" y="308.44" fill="#000000" dy="0" font-family="Arial" font-size="24.06" font-style="normal" font-weight="400" style="text-align: center; stroke-width: 2.57215; fill: rgb(0, 0, 0);" text-anchor="middle">IA</tspan>
        </text>
        <text id="MN_label" x="790.84" y="183.37" style="font-size: 19.2455px; stroke-width: 1.60379; display: none;">
          <tspan id="MN_tspan" x="790.84" y="183.37" fill="#000000" dy="0" font-family="Arial" font-size="24.06" font-style="normal" font-weight="400" style="text-align: center; stroke-width: 2.57215; fill: rgb(0, 0, 0);" text-anchor="middle">MN</tspan>
        </text>
        <text id="OK_label" x="732.05" y="519.54" style="font-size: 19.2455px; stroke-width: 1.60379; display: none;">
          <tspan id="OK_tspan" x="732.05" y="519.54" fill="#000000" dy="0" font-family="Arial" font-size="24.06" font-style="normal" font-weight="400" style="text-align: center; stroke-width: 2.57215; fill: rgb(0, 0, 0);" text-anchor="middle">OK</tspan>
        </text>
        <text id="TX_label" x="710.59" y="652.87" style="font-size: 19.2455px; stroke-width: 1.60379; display: none;">
          <tspan id="TX_tspan" x="710.59" y="652.87" fill="#000000" dy="0" font-family="Arial" font-size="24.06" font-style="normal" font-weight="400" style="text-align: center; stroke-width: 2.57215; fill: rgb(0, 0, 0);" text-anchor="middle">TX</tspan>
        </text>
        <text id="NM_label" x="506.94" y="542.36" style="font-size: 19.2455px; stroke-width: 1.60379; display: none;">
          <tspan id="NM_tspan" x="506.94" y="542.36" fill="#000000" dy="0" font-family="Arial" font-size="24.06" font-style="normal" font-weight="400" style="text-align: center; stroke-width: 2.57215; fill: rgb(0, 0, 0);" text-anchor="middle">NM</tspan>
        </text>
        <text id="KS_label" x="701.21" y="427.26" style="font-size: 19.2455px; stroke-width: 1.60379; display: none;">
          <tspan id="KS_tspan" x="701.21" y="427.26" fill="#000000" dy="0" font-family="Arial" font-size="24.06" font-style="normal" font-weight="400" style="text-align: center; stroke-width: 2.57215; fill: rgb(0, 0, 0);" text-anchor="middle">KS</tspan>
        </text>
        <text id="NE_label" x="686.63" y="337.29" style="font-size: 19.2455px; stroke-width: 1.60379; display: none;">
          <tspan id="NE_tspan" x="686.63" y="337.29" fill="#000000" dy="0" font-family="Arial" font-size="24.06" font-style="normal" font-weight="400" style="text-align: center; stroke-width: 2.57215; fill: rgb(0, 0, 0);" text-anchor="middle">NE</tspan>
        </text>
        <text id="SD_label" x="663.02" y="238.75" style="font-size: 19.2455px; stroke-width: 1.60379; display: none;">
          <tspan id="SD_tspan" x="663.02" y="238.75" fill="#000000" dy="0" font-family="Arial" font-size="24.06" font-style="normal" font-weight="400" style="text-align: center; stroke-width: 2.57215; fill: rgb(0, 0, 0);" text-anchor="middle">SD</tspan>
        </text>
        <text id="ND_label" x="663.02" y="150.75" style="font-size: 19.2455px; stroke-width: 1.60379; display: none;">
          <tspan id="ND_tspan" x="663.02" y="150.75" fill="#000000" dy="0" font-family="Arial" font-size="24.06" font-style="normal" font-weight="400" style="text-align: center; stroke-width: 2.57215; fill: rgb(0, 0, 0);" text-anchor="middle">ND</tspan>
        </text>
        <text id="WY_label" x="499.57" y="276.47" style="font-size: 19.2455px; stroke-width: 1.60379; display: none;">
          <tspan id="WY_tspan" x="499.57" y="276.47" fill="#000000" dy="0" font-family="Arial" font-size="24.06" font-style="normal" font-weight="400" style="text-align: center; stroke-width: 2.57215; fill: rgb(0, 0, 0);" text-anchor="middle">WY</tspan>
        </text>
        <text id="MT_label" x="487.84" y="155.58" style="font-size: 19.2455px; stroke-width: 1.60379; display: none;">
          <tspan id="MT_tspan" x="487.84" y="155.58" fill="#000000" dy="0" font-family="Arial" font-size="24.06" font-style="normal" font-weight="400" style="text-align: center; stroke-width: 2.57215; fill: rgb(0, 0, 0);" text-anchor="middle">MT</tspan>
        </text>
        <text id="CO_label" x="525.13" y="406.28" style="font-size: 19.2455px; stroke-width: 1.60379; display: none;">
          <tspan id="CO_tspan" x="525.13" y="406.28" fill="#000000" dy="0" font-family="Arial" font-size="24.06" font-style="normal" font-weight="400" style="text-align: center; stroke-width: 2.57215; fill: rgb(0, 0, 0);" text-anchor="middle">CO</tspan>
        </text>
        <text id="ID_label" x="339.94" y="235.07" style="font-size: 19.2455px; stroke-width: 1.60379; display: none;">
          <tspan id="ID_tspan" x="339.94" y="235.07" fill="#000000" dy="0" font-family="Arial" font-size="24.06" font-style="normal" font-weight="400" style="text-align: center; stroke-width: 2.57215; fill: rgb(0, 0, 0);" text-anchor="middle">ID</tspan>
        </text>
        <text id="UT_label" x="396.81" y="386.73" style="font-size: 19.2455px; stroke-width: 1.60379; display: none;">
          <tspan id="UT_tspan" x="396.81" y="386.73" fill="#000000" dy="0" font-family="Arial" font-size="24.06" font-style="normal" font-weight="400" style="text-align: center; stroke-width: 2.57215; fill: rgb(0, 0, 0);" text-anchor="middle">UT</tspan>
        </text>
        <text id="AZ_label" x="366.76" y="536.9" style="font-size: 19.2455px; stroke-width: 1.60379; display: none;">
          <tspan id="AZ_tspan" x="366.76" y="536.9" fill="#000000" dy="0" font-family="Arial" font-size="24.06" font-style="normal" font-weight="400" style="text-align: center; stroke-width: 2.57215; fill: rgb(0, 0, 0);" text-anchor="middle">AZ</tspan>
        </text>
        <text id="NV_label" x="262.47" y="370.64" style="font-size: 19.2455px; stroke-width: 1.60379; display: none;">
          <tspan id="NV_tspan" x="262.47" y="370.64" fill="#000000" dy="0" font-family="Arial" font-size="24.06" font-style="normal" font-weight="400" style="text-align: center; stroke-width: 2.57215; fill: rgb(0, 0, 0);" text-anchor="middle">NV</tspan>
        </text>
        <text id="OR_label" x="214.43" y="206.88" style="font-size: 19.2455px; stroke-width: 1.60379; display: none;">
          <tspan id="OR_tspan" x="214.43" y="206.88" fill="#000000" dy="0" font-family="Arial" font-size="24.06" font-style="normal" font-weight="400" style="text-align: center; stroke-width: 2.57215; fill: rgb(0, 0, 0);" text-anchor="middle">OR</tspan>
        </text>
        <text id="WA_label" x="238.05" y="102.99" style="font-size: 19.2455px; stroke-width: 1.60379; display: none;">
          <tspan id="WA_tspan" x="238.05" y="102.99" fill="#000000" dy="0" font-family="Arial" font-size="24.06" font-style="normal" font-weight="400" style="text-align: center; stroke-width: 2.57215; fill: rgb(0, 0, 0);" text-anchor="middle">WA</tspan>
        </text>
        <text id="CA_label" x="191.69" y="434.8" style="font-size: 19.2455px; stroke-width: 1.60379; display: none;">
          <tspan id="CA_tspan" x="191.69" y="434.8" fill="#000000" dy="0" font-family="Arial" font-size="24.06" font-style="normal" font-weight="400" style="text-align: center; stroke-width: 2.57215; fill: rgb(0, 0, 0);" text-anchor="middle">CA</tspan>
        </text>
        <text id="DC_label" x="1309.32" y="398.19" stroke-width="1.29" font-size="15.45" style="display: none;">
          <tspan id="DC_tspan" x="1309.32" y="398.19" fill="#000000" stroke-width="1.29" dy="0" font-family="Arial" font-size="19.31" font-style="normal" font-weight="400" style="text-align: center; fill: rgb(0, 0, 0);" text-anchor="middle">DC</tspan>
        </text>
        <text id="TN_label" x="1018.93" y="485.72" style="font-size: 19.2455px; stroke-width: 1.60379; display: none;">
          <tspan id="TN_tspan" x="1018.93" y="485.72" fill="#000000" dy="0" font-family="Arial" font-size="24.06" font-style="normal" font-weight="400" style="text-align: center; stroke-width: 2.57215; fill: rgb(0, 0, 0);" text-anchor="middle">TN</tspan>
        </text>
        <text id="AR_label" x="863.15" y="535.77" style="font-size: 19.2455px; stroke-width: 1.60379; display: none;">
          <tspan id="AR_tspan" x="863.15" y="535.77" fill="#000000" dy="0" font-family="Arial" font-size="24.06" font-style="normal" font-weight="400" style="text-align: center; stroke-width: 2.57215; fill: rgb(0, 0, 0);" text-anchor="middle">AR</tspan>
        </text>
      </g>
      <g id="state_borders" transform="translate(-0.04777967,-0.15336683)" stroke="rgb(209, 219, 221)" style="stroke: rgb(0, 0, 0);" stroke-width="0.3">
        <path id="TN_NC_border" d="m1069.88 493.76-.5-7.55.67-.64.77-1.02.32.06.44.64 1.82-.5.7-.06.34-.5.6-.34.67-1-.4-.47.02-.68-.3-.42.66-.87-.12-.6-.42-.37.55-1.18.64-.96 1.16-.58.5-1.43 1.4-.45 1.12-1.44 1.2-.21.38-.28 1.94-.34.46-.45.75.4.4-.18 1.7-.22 1.02-1.75.36-.02 1.46-1.2.27-.72.38-.24.62.2.37-.16.1-.55.7-.82-.1-.64.3-.4 1.37-.35.44-1.2.96-.23.45-.35.45-.57 1.08-.14 1.18.2.59-.62.26-1.16.63-.66-.26-.82.52-.5-.67-1.28.3-.25-.06-.47.55-.34h.57l.92.7.67-1.1.2-.68-.3-.13.1-.75.6-.3 1.42-1.57 1.16-.85.45.5.78.35-.42.96.34.5-.03.64.83-.06.56.24.13-.37 1.02-.62.93-1.16.82-2.6 1.15-1.28.46-.05 1.04-.88.63.14.44-.21.46-.92.42-.1.8.33.65-.37.7 1.26 1.26-.25.5-.77.57.1 1.96-6.26.46-.33.58-.95 1.4-1.16.19.42.68.16.67-.3.77.13-.96-1.26-.36-1 .42-.4-.07-1.1.43-.44-.3-1.13-.38-.61.47-1.56-.11-.52" stroke="rgb(209, 219, 221)" stroke-width="0.3" fill="none" style="stroke: rgb(0, 0, 0); display: none;"/>
        <path id="TN_VA_border" d="m1126.3 431.47.6-.9-2.22.44-4.58.8-.15.74-5.88 1.16-.91.15-6.28 1.27-.52.06-4.73.97-5.12.98-9.2 1.74-.38-.08-2.43.48-6.11 1.09-1.3.16" stroke="rgb(209, 219, 221)" stroke-width="0.3" fill="none" style="stroke: rgb(0, 0, 0); display: none;"/>
        <path id="TN_GA_border" d="m1037.52 499.32 5.58-.85 2.69-.51 8.53-1.5 3.3-.56 12.26-2.14" stroke="rgb(209, 219, 221)" stroke-width="0.3" fill="none" style="stroke: rgb(0, 0, 0); display: none;"/>
        <path id="TN_MO_border" d="m935.62 464.57-1.67-.26-.3-.93-.32-.35-1.12-.15-.45.09-.45.55-.04.54.98 1.47m-.02 0 .59.93-.51 1.07.12.47 1 1.38-.15.82-.27.32-2 .2-.15.57.26.42.9.56 1.14.42.09.57-.58.12-.7.44-.57.08-1.1-.24-1.06.07-.2.53.36.34 2.35 1.45.44.6.04.74-.78.73-.93.48-.27.44-.01 1.55-.37 1.1-.66.1" stroke="rgb(209, 219, 221)" stroke-width="0.3" fill="none" style="stroke: rgb(0, 0, 0); display: none;"/>
        <path id="TN_KY_border" d="m935.28 465.13 2.88-.6 4.55-.44 3.82-.44 3.24-.42 12.54-1.53 6.92-.8.29-.48.03-.98-.57-1.91-.96-2.3 1.48-.15 4.08-.11.03.97 2.68-.47 8.18-1.3 7.4-1.1 9.92-1.67 3.05-.56.7.5 1.32-.8 4.36-.54 3.4-.22 4.1-.35 5-.52 3.85-.47 4.69-.68 4.6-1.03 2.59-.48 4.26-.5 4.55-.3 5.4-.74 2.05-.25 2.47-.41 4.28-.62 6.99-1.16 4.93-.7 2.43-.4.28-.62" stroke="rgb(209, 219, 221)" stroke-width="0.3" fill="none" style="stroke: rgb(0, 0, 0); display: none;"/>
        <path id="TN_AR_border" d="m918.25 515.09-.07-.45.34-1.05 2.16.26.3-.38-.07-.78.36-1.83.83-.6 1.02.42.8-.7-.14-.54-.61-.04-.71-.91-.02-.33.5.07.14-.6h.38l-.17-.5-.6-.7-1.05.1-.5-.27-.33-.6.08-.44 1.37-.45-.1-1.2.67-1.4-1.16-.73-.65.22.3.93-.76.15-.36-.3.12-1.17.93-.76.15-.77.26-.4.58-.12.48.36-.05.84.56 1.1.55-.84.19-1.2-.9-1.15.06-1.4.75-.47.5-.06.83.49.12.5.96.27.33-.7-.3-.45-.73-.13-.51-1.04 1.07-.98.4.02.9-.71-.03-.9-.3-.2-.5.59-.72.1-.42-.18-.74-.9-.18-1.03.16-.5 1.05-.77.78.5.73-.56.78-.23.27-.95.4-.56.96-.14.88-.5-.15-.65-1.45-.43-.24-.21.09-.84.54-.56.68-.05 1.3.6.45-.75-.36-.65-1.6-1-.2-.7-.4-.43" stroke="rgb(209, 219, 221)" stroke-width="0.3" fill="none" style="stroke: rgb(0, 0, 0); display: none;"/>
      </g>
      <rect id="selection-rectangle" fill="#ffffccaa" stroke="rgb(209, 219, 221)" stroke-width="0.1"/>
      <ellipse id="selection-ellipse" fill="#ffffccaa" stroke="rgb(209, 219, 221)" stroke-width="0.1"/>
      <polygon id="selection-polygon" fill="#ffffccaa" stroke="rgb(209, 219, 221)" stroke-width="0.1"/>
      <polyline id="selection-polyline" fill="#ffffccaa" stroke="rgb(209, 219, 221)" stroke-width="0.1"/>
    </svg>
  </g>
</svg>
