<?xml version='1.0' encoding='UTF-8'?>
<svg xmlns="http://www.w3.org/2000/svg" xmlns:dc="http://purl.org/dc/elements/1.1/" xmlns:ns2="http://creativecommons.org/ns#" xmlns:rdf="http://www.w3.org/1999/02/22-rdf-syntax-ns#" id="wrapper" viewBox="0 0 1520 840" preserveAspectRatio="xMinYMin" height="840" width="1520" style="background-color: rgb(255, 255, 255);">
  <metadata>
    <rdf:rdf>
      <ns2:work rdf:about="">
        <dc:format>image/svg+xml</dc:format>
        <dc:type rdf:resource="http://purl.org/dc/dcmitype/StillImage"/>
        <dc:title>MapChart Map</dc:title>
        <dc:creator>
          <ns2:agent>
            <dc:title>MapChart.net</dc:title>
          </ns2:agent>
        </dc:creator>
        <ns2:license rdf:resource="http://creativecommons.org/licenses/by-sa/4.0/"/>
        <dc:description>This map was created with MapChart.net, a website for creating custom maps.</dc:description>
      </ns2:work>
      <ns2:license rdf:about="http://creativecommons.org/licenses/by-sa/4.0/">
        <ns2:permits rdf:resource="http://creativecommons.org/ns#Reproduction"/>
        <ns2:permits rdf:resource="http://creativecommons.org/ns#Distribution"/>
        <ns2:requires rdf:resource="http://creativecommons.org/ns#Notice"/>
        <ns2:requires rdf:resource="http://creativecommons.org/ns#Attribution"/>
        <ns2:requires rdf:resource="http://creativecommons.org/ns#ShareAlike"/>
      </ns2:license>
    </rdf:rdf>
  </metadata>
  <g id="map-group" transform="translate(-956.8085670291932,-1219.4293465522794) scale(4.415375152414218)">
    <svg id="map" width="1520" height="840" version="1.1" viewBox="0 0 1520 840" preserveAspectRatio="xMinYMin" data-originalStrokeWidth="0.3">
      <defs>
        <pattern id="circles3" width="10" height="10" patternUnits="userSpaceOnUse">    <rect width="10" height="10" fill="#fff"/>    <circle cx="4" cy="4" r="2" fill="#000"/>    </pattern>
        <pattern id="diagonal1" width="10" height="10" patternUnits="userSpaceOnUse">    <rect width="10" height="10" fill="#fff"/>    </pattern>
        <pattern id="diagonal3" width="10" height="10" patternUnits="userSpaceOnUse">    <rect width="10" height="10" fill="#fff"/>    </pattern>
        <pattern id="vertical1" width="10" height="10" patternUnits="userSpaceOnUse">    <rect width="10" height="10" fill="#fff"/>    <rect x="2" y="0" width="1" height="10" fill="#000"/>    </pattern>
        <pattern id="vertical3" width="10" height="10" patternUnits="userSpaceOnUse">    <rect width="10" height="10" fill="#fff"/>    <rect x="2" y="0" width="3" height="10" fill="#000"/>    </pattern>
        <pattern id="horizontal1" width="10" height="10" patternUnits="userSpaceOnUse">    <rect width="10" height="10" fill="#fff"/>    <rect x="0" y="2" width="10" height="1" fill="#000"/>    </pattern>
        <pattern id="horizontal3" width="10" height="10" patternUnits="userSpaceOnUse">    <rect width="10" height="10" fill="#fff"/>    <rect x="0" y="2" width="10" height="3" fill="#000"/>    </pattern>
        <pattern id="crosshatch" width="8" height="8" patternUnits="userSpaceOnUse">    <rect width="8" height="8" fill="#fff"/>    </pattern>
        <pattern id="subtlepatch" width="5" height="5" patternUnits="userSpaceOnUse">    <rect width="5" height="5" fill="#fff"/>    <rect x="2" y="2" width="1" height="1" fill="#000"/>    </pattern>
        <pattern id="checkers" width="8" height="8" patternUnits="userSpaceOnUse">    <rect width="8" height="8" fill="#fff"/>    </pattern>
        <pattern id="raindrops" width="10" height="10" patternUnits="userSpaceOnUse">    <rect width="10" height="10" fill="#fff"/>    </pattern>
        <pattern id="texture" width="4" height="4" patternUnits="userSpaceOnUse">    <rect width="4" height="4" fill="#fff"/>    </pattern>
        <pattern id="circles3_a03500_000000" width="10" height="10" patternUnits="userSpaceOnUse">    <rect width="10" height="10" fill="#a03500"/>    <circle cx="4" cy="4" r="2" fill="#000000"/>    </pattern>
        <pattern id="diagonal1_d9b400_535353" width="10" height="10" patternUnits="userSpaceOnUse">    <rect width="10" height="10" fill="#d9b400"/>    </pattern>
        <pattern id="diagonal3_3264c8_ffffff" width="10" height="10" patternUnits="userSpaceOnUse">    <rect width="10" height="10" fill="#3264c8"/>    </pattern>
        <pattern id="horizontal1_72b38e_000000" width="10" height="10" patternUnits="userSpaceOnUse">    <rect width="10" height="10" fill="#72b38e"/>    <rect x="0" y="2" width="10" height="1" fill="#000000"/>    </pattern>
        <pattern id="horizontal3_986ba1_ffffff" width="10" height="10" patternUnits="userSpaceOnUse">    <rect width="10" height="10" fill="#986ba1"/>    <rect x="0" y="2" width="10" height="3" fill="#ffffff"/>    </pattern>
        <pattern id="vertical1_b9a087_ffffff" width="10" height="10" patternUnits="userSpaceOnUse">    <rect width="10" height="10" fill="#b9a087"/>    <rect x="2" y="0" width="1" height="10" fill="#ffffff"/>    </pattern>
        <pattern id="vertical3_4c91bf_ffff33" width="10" height="10" patternUnits="userSpaceOnUse">    <rect width="10" height="10" fill="#4c91bf"/>    <rect x="2" y="0" width="3" height="10" fill="#ffff33"/>    </pattern>
        <pattern id="checkers_cc3333_f7f7f7" width="8" height="8" patternUnits="userSpaceOnUse">    <rect width="8" height="8" fill="#cc3333"/>    </pattern>
        <pattern id="texture_d1dbdd_525252" width="4" height="4" patternUnits="userSpaceOnUse">    <rect width="4" height="4" fill="#d1dbdd"/>    </pattern>
        <style id="map-style">svg { background-color: #ffffff; }</style>
      </defs>
      <path id="UT01" d="m383.57 290.73.63.08 1.11.14.28.02.58.07.06.01.6.07.43.19.8.07.81.1 1 .11.32.03.34.05.88.1.44.05.48.07 1.33.14 1.48.17.57.06.86.09 1.16.13 1.52.18.89.1 2.6.3 1.75.16 2.25.23 1.12.14h.05l1.44.16 1.24.12 1.88.2.38.05-.1.84-.24 2.24-.05.43-.04.47-.02.16-.02.07v.05l-.01.06-.16 1.48-.13 1.2-.1 1.02-.13 1.18-.16 1.48-.05.51-.08.74-.1.96-.1.87-.15 1.38-.18 1.5-.2 1.87-.44 4.07-.17 1.46-.05.44-.17 1.59-.13 1.1-.07.73-.05.39-.03.32-.13 1.23-.17 1.46-.04.35.3.03 1.23.14.4.04 1.25.16.91.08.37 1.13-.13.14-.03.34-.63 1.06-.58.36-.4.78-.17.23-.53.26-.4.05-.17.1.09.14-.3.23-.48-.5-.28.18-.38-.02-.4-.17-.45.1-.13-.07-.33.32-1.45.02-.58.05-.53.42-.38-.15-1.15-.07-.28.1-.42-.1-.59.17-.1-.2-.1.17-.14-.18-.24.18-.3-.25-.12.06-.94-.39-.4-.04-.18.12-.08.43-.04.52.36.7.24.18-.04.48-1.3-.19-.2 1.71-.07.12-.57-.13-.22-.47-.04.44-.44-.05.01-.12-.4-.05-.54.17.03-.11-.42-.05-.28.11.05-.26-.26-.14-.43-.02.06-.3-.4-.49-.97-.1h-.4l-2.23-.27-.56.01.1.07-.05.52-.5.07-.79-.1-.03-.31.14-1.12.07.02.05-.42-.18-.18-1.22-.13.1-.78-.24-.66-.27-.39v-.24l.1-.27.57.07.03-.2.43.08.03-.24.44.05.15-.2-.07-.48.45.06-.1-.13.16-.33.44.03.05-.41-.57.07-.21-.78-.26-.03v-.57l-.08-.25.02-.63-.07-.4.13-.15.02-.26-.1-.08.03-.67-.17-.04-.1-.19.06-.38-.25.08-.1-.12-.17.12-.14-.06-.3.1.1.22-.14.17-.4.01-.54.2-.13-.2-.19-.08-.32.06-.18.16-.6-.14-.43-.24-.11-.57-.16-.37-.21-.12-.21-.27-.26-.13-.1-.46-.3-.5-.08-.81-1.4-.18-2.82-.31-3.38-.4-7.24 1.47-1.24.26-7.45-.96-5.28-.72-3.68-.48-5.8-.81-6.81-.95.08-.75.37-2.52.14-1.02.25-1.73.28-1.97.07-.52.15-1.02.2-1.21.1-.83.11-.73.14-1.08.28-1.9.05-.29.37-2.72.25-1.6.12-.89.22-1.57.14-.92.12-1.05.27-1.86.18-1.36.08-.44.07-.4.12-1 .07-.45.09-.88.07-.5 1.18.19.61.14 1.4.3.15.01.51.07.98.15.36.04 3.83.44.22.03.94.1.44.06.58.07.92.1 1.13.14.28.04 3.2.38 1.02.11.78.1 1.05.13 4.9.57.96.12 1.07.14.76.08.61.07 2.92.36h.13l1.44.2 2.25.27 1.95.25 1.63.18 1.64.2" fill="#d1dbdd" stroke="rgb(209, 219, 221)" stroke-width="0.1" data-originalStrokeWidth="0.1" style="stroke: rgb(0, 0, 0); fill: rgb(209, 219, 221); pointer-events: auto; stroke-width: 0.1;" pointer-events="auto"/>
      <path id="UT02" d="m389.86 333.47-.81-.1-1.22-.15-.53.11-2-.24-.18 1.37-.14-.02-.13.22-.97-.12-.09.07-2.6-.3-.15-.06-.01.27.3.33.12.28-.08.23.02.34-.17.15-.1.56.08.2-.17.54.02.55-.23.23.15.38-.08.32.14.64-.04.17-.4-.1-.16.2-.4.02-.08.45.07.43.28.39-.2.53-.05.67.2.35-.13.12-.04.25.13.18.2.63-.38.16-.2.38-.07.31.14.11.08.56-.21.72.16.19.08.3-.07.52.17.23.03.2.28.04.15.26-.24.15-.08.21.28.16-.17.42.15.15-.36.43-.4.24.14.24-.26.45.26.3-.02.14.27.4-.19.3-.03.22-.35.12-.13.22.02.38-.18-.04-.1.2.2.69-.15.26-.14.58.44.22.2.32-.02.13.37.56.18.13.33.05.12.49.2.17-.22.15-.12.34.02.29.41.15.06.4.2.08.2.24.02.21.16.17-.16.18-.02.22-.32.3-.28.1.12.6-.05.22.2.35-.26.54-.2.27.07.1-.3.26-.01.15-.25.3-.52.53-1.55-.19-.62 1.15-.27.33-1.3.84-1.09.8-.1.11-.81 1.53-.76 1.15 2.84.35.57.05.18.46.2.02-.04.47-.44-.07-.06.45.2.25-.07.47.24.02-.47 3.69.12.01-.16 1.37 2.8.33-.06.48 1.34.17-.44 3.66-.28 2.76-.25 2.07 3.95.47-.11.39 1.22.13 5.04.62 7.07.8-.03.47-.23 2.11-.27 2.27-.44 4-.03.23-.27 2.28-.2-.02-.3 2.73.04.02-.31 2.7 3.16.36 4.95.53 3.36.36 6.51.7 5.34.54 7.75.79.19.28.33.4-.11.4-.18.24-.02.32-.23.05-.3-.45-.21.07v.34h.34l.48 1.04-.07.17-.29.15-.2.3-.24.11v.2l.44.2.1.18-.19.3.38-.15.36-.45.23-.08.14.18-.06.25-.29.35-.09.2.08.19.33.36.2.04.14-.12.08-.3h.2l.06.17-.27.4-.3.07-.07.12.07.4.23.14.08.22-.13.39.04.18.38.19.06.26-.18.26v.18l.17.07.45-.31.12.14.01.36-.4.25.04.24.36-.08.24.38-.04.12-.3-.07-.41.11.01.29.44.3.26.01-.1.17-.32.27.04.17.34-.04-.12.3h-.28l-.31.35-.45.25.06.33-.19.35-.24.01-.34.15-.22.47-.36.1-.2.25h-.27l-.11-.2-.2-.12-.45.37-.2.32-.38.46.06.31-.16.37h-.18l-.27.2-.3.55.02.5-.13.26-.4.09-.48-.48-.56.04-.26.44-.4.22-.16.44-.6.44-.37.17-.12.46.12.46-.18.34-.04.28-.26.13-.45-.17-.26-.01-.46-.16-.33.24-.12.29.02.32-.19.15-.15-.13-.05-.53-.22-.17-.36-.02-1.09-.17-.6.08-.43.2-.02.87-.1.12-.4.09-.28.21-.09.22-.15.72-.34-.14h-.5l-.13.21.1.72.13.25h.54l.34-.14-.12.3-.4.3-.1.68-.54.33-.08.39-.2.18-.25.05.07.22-.12.68-.22.22-.11.4-.16.14-.21-.24-.29.15-.27.46-.24.06-.27-.28-.26.07-.16.68-.11.1-.62.14-.16.12-.03.65-.13.32-.28.18-.52.22-.58.72-.14.1-.2.51-.1.43.03.09.43.07.2.18-.05.11-.47.15-.31.01-.6-.19-.57-.05-.2.34-.03.34-.41-.08-.1.23.43.6.35-.03.24.08.05.17-.32.71-.33.23-.39-.27-.34-.02-.04.23.25.45.42.43-.03.13-.33.28-.07.43h-.17l-.18-.27-.13.13-.07.41-.33.09-.24.24-.28-.06-.29.06-.27-.15-.88-.77-.25-.15-.2.01-.13.26.15.45.4.14.2.18.07.27-.07.35-.22.16-.54.04-.17.1-.02.31.25.43-.12.24-.42.07-.15.17.19.28.02.38-.49.24-.08.16.17.3-.04.19-.29.3-.03.35-.14.01-.4-.14-.26.6-.2.3-.33-.16-.18.15.11.4-.31.35-.46-.2-.11.08v.33l-.25.1-.5-.22-.19.1-.47.03-.24.27h-.24l-.17-.3-.24.11-.4-.09-.28.05-.45-.21-.13.06-.26.44-.26.04-.2-.12-.24-.47-.35.06-.26.4-.83.92-.24-.02-.14-.4-.14-.02-.29.56.01.15.35.15.05.15-.19.35-.18.16-.12-.03-.15-.34-.17-.56-.1-.2-.42-.21-.26-.25-.18.12-.04.37.15.24h.32l.02.18-.55.27-.1.1.06.32-.28.06-.19-.24-.19-.05-.37.31-.37.04-.24.1-.98-.2-.14.1-.22-.03-.8-.08-1.05-.12-.04-.01-1.22-.14-.62-.06-.48-.08-1.2-.1-1.07-.15-7.85-.9-.78-.1-2.12-.26-1.47-.18-1.27-.16-.43-.04-1.37-.17-2.27-.27-1.36-.18-1.14-.13-.86-.11-.23-.04-.23-.02-1.28-.15-.24-.04-.59-.06-3.38-.44-2.25-.3-.37-.04-.8-.1-1.44-.17-.06-.01-.29-.04-.04-.01-.33-.04h-.07l-2.41-.32-.61-.08-2-.27-1.8-.24-4.52-.6-4.05-.56h-.05l-5.44-.77-2.24-.3-1.7-.25-1.13-.15.3-2.36.06-.74.42-2.7 1.02-7.3.06-.56.37-2.64.14-.98.11-.78.06-.45.03-.16.12-.8.06-.42.07-.55.15-.93.2-1.4.12-.86.11-.45.23-1.37.03-.45.07-.44.36-2.7.13-.94.12-.82.27-1.89.06-.46.19-1.35.48-3.39.13-1 .15-.91.18-1.18.26-1.98.12-.83.27-1.94.16-1.31.15-.98.57-3.9.13-1 .44-3.05.09-.63.13-.88.1-.75.21-1.54.23-1.54.25-1.77.19-1.16.05-.44.61-4.33.2-1.48.43-2.83.23-1.7.17-1.16.1-.77.08-.46.14-.95.47-3.31.3-2.2.08-.4.13-.9.12-.9.17-1.3.34-2.33.19-1.34.07-.5.26-1.89.16-.98.34-2.46.29-1.94.35-2.6.15-.92.12-.92.22-1.51.17-1.26.15-.92.09-.72.05-.2.26-1.86.4-2.78.12-.9.62-4.16.18-1.26.32-2.07.34-2.4.27-1.88.09-.55 6.8.95 5.82.8 3.68.5 5.28.7 7.45.97 1.24-.25 7.24-1.48 3.38.4 2.81.3 1.41.19.07.8.31.51.1.46.26.14.2.27.22.1.16.37.1.57.43.25.62.14.17-.16.32-.05.2.07.12.18.54-.18h.4l.14-.18-.09-.2.28-.11.15.05.17-.12.1.12.24-.1-.04.4.1.19.16.04-.04.67.1.09-.01.25-.13.14.07.41-.02.63.08.25v.57l.26.03.2.78.58-.07-.05.41-.44-.03-.16.33.1.13-.45-.07.07.48-.15.2-.44-.04-.03.24-.43-.07-.02.19-.58-.07-.1.27v.24l.27.39.22.66-.08.78 1.22.13.18.19-.05.41-.07-.02-.13 1.12.02.31" fill="#d1dbdd" stroke="rgb(209, 219, 221)" stroke-width="0.1" data-originalStrokeWidth="0.1" style="stroke: rgb(0, 0, 0); fill: rgb(209, 219, 221); pointer-events: auto; stroke-width: 0.1;" pointer-events="auto"/>
      <path id="UT03" d="m434.16 328.36 1.8.16.73.06.96.1 1.05.1 1.08.1 1.76.16.44.04.75.08.51.04 1.41.13 1.7.13.96.08 2.9.24 1.34.1.41.02 1.27.14 3.02.27-.01.2-.23 2.72-.09 1.12-.11 1.5-.33 3.5-.2 2.38-.07.94-.17 1.56-.06.63-.03.36-.27 2.78-.04.4-.2 2.28-.23 2.63-.18 2.03-.05.46-.02.43-.16 1.79-.02.04-.15 1.89-.05.54-.03.37-.03.26-.04.58-.2 2.4-.19 2.17-.13 1.34-.22 2.36-.2 2.22-.06.8-.1 1.09-.15 1.76-.05.37-.08 1.04-.06.6-.33 3.87-.02.45-.1.95-.3 3.27-.09 1.05-.02.25-.11 1.39-.09.82-.14 1.48-.24 2.5-.29 2.93-.07.77-.16 1.35-.13.98-.18 1.57-.1 1.12-.3 3.33-.1.94-.1 1.38-.2 2.26-.04.32-.07.8-.2 2.17-.1 1.05v.29l-.07.69-.05.66.01.7.05 1.02v.2l.01.55.03 1.02-.01.3-.06.78-.13 1.66-.1.9-.05.47-.2 2.32-.13 1.75-.12 1.4-.49 5.57-.11 1.14-.12 1.32-.11 1.5-.17 1.52-.15 1.42-.16 1.48-.19 1.98-.07.96-.04.26-.07.89-.06.8-.17 1.77-.04.36-.03.41-.18 2.12-.26 3.09-.08.76-.89-.1-1.09-.1-1.37-.12-.87-.09-.77-.05-.61-.06-3.03-.27-.48-.04-1.44-.14-2.37-.2-.61-.05-.44-.05-2.24-.2-1.62-.15-.72-.08-1.82-.17-2.6-.25-2.14-.21-.74-.08-1.44-.15-.73-.07-1.37-.13-1.01-.1-.1-.01-.76-.08-1.02-.1-.8-.07-2.17-.22h-.06l-.49-.25-2.22-.23-1.13-.12-3.9-.38-.67-.07-.96-.1-1.21-.13-1.43-.16-.91-.1-1.69-.18-.57-.06-.38-.03-1.06-.09-.23-.02-.98-.1-1.11-.14-.45-.05-.64-.06-.47-.07-.44-.06-.98-.1-.2-.02-.68-.08-.05-.01-.19-.01-.03-.02h-.07l-.2-.01.13-.1.98.18.24-.1.37-.04.37-.31.2.05.17.24.29-.06-.06-.31.1-.1.55-.29-.02-.18h-.32l-.15-.23.03-.37.18-.12.27.25.42.21.1.19.17.56.15.35.13.03.17-.16.18-.35-.04-.15-.35-.15v-.16l.28-.56.14.01.14.4.24.03.84-.94.26-.4.34-.04.25.47.2.12.25-.04.26-.44.13-.06.45.21.28-.05.4.1.24-.11.17.28.24.01.24-.26.47-.02.19-.1.5.2.25-.1v-.33l.11-.09.46.21.3-.35-.1-.4.18-.15.32.18.22-.32.25-.6.4.14h.14l.03-.35.3-.31.03-.2-.17-.3.08-.15.48-.25-.01-.38-.19-.27.15-.17.42-.07.12-.24-.25-.43.02-.32.17-.09.54-.04.22-.16.07-.35-.08-.28-.19-.17-.4-.14-.15-.45.13-.26h.2l.25.14.88.77.27.15.29-.06.28.06.24-.24.33-.09.07-.41.13-.12.18.28.17-.01.07-.45.33-.27.03-.13-.42-.43-.25-.45.04-.23.34.03.39.27.33-.24.32-.71-.05-.16-.24-.08-.35.02-.44-.6.1-.24.42.08.03-.33.2-.34.57.06.6.18.31-.01.47-.15.06-.12-.2-.17-.44-.07-.03-.09.1-.43.2-.5.14-.1.58-.72.53-.23.27-.18.13-.32.03-.65.16-.12.62-.13.11-.1.16-.68.26-.08.26.27.25-.05.26-.46.3-.15.2.24.17-.14.11-.4.22-.21.12-.69-.07-.22.24-.05.21-.2.08-.38.55-.31.1-.69.39-.3.12-.3-.34.15-.54-.01-.14-.25-.09-.72.13-.21h.5l.34.14.15-.72.09-.22.27-.2.4-.1.1-.12.03-.87.43-.21.6-.07 1.09.17.36.01.22.18.04.53.15.13.2-.15-.02-.31.12-.3.33-.24.46.17.26.01.45.16.26-.14.03-.27.18-.34-.12-.46.13-.46.37-.17.6-.45.17-.43.4-.21.26-.46.55-.03.48.48.4-.09.13-.25-.03-.5.3-.56.28-.2h.18l.17-.37-.07-.31.38-.46.19-.32.45-.37.21.11.1.22.27-.02.2-.23.37-.1.22-.48.34-.15.24-.01.2-.35-.07-.33.44-.26.32-.33.29-.03.1-.3-.34.05-.03-.17.33-.26.08-.17h-.25l-.44-.3-.01-.3.41-.1.3.06.04-.12-.24-.38-.36.08-.03-.24.4-.25-.02-.36-.13-.15-.44.32-.17-.07-.01-.2.19-.24-.06-.26-.38-.2-.04-.18.13-.4-.08-.2-.23-.15-.07-.39.07-.12.3-.08.27-.4-.06-.18-.19.01-.08.31-.15.12-.2-.04-.33-.36-.08-.19.09-.2.29-.35.06-.25-.14-.18-.24.08-.36.45-.37.15.18-.3-.09-.2-.44-.18v-.19l.24-.12.2-.3.28-.15.09-.17-.5-1.02-.34-.02v-.34l.21-.07.31.45.23-.05v-.32l.2-.25.11-.4-.33-.39-.18-.27-7.76-.8-5.35-.54-6.5-.7-3.35-.37-4.96-.52-3.16-.36.31-2.7-.04-.02.32-2.73.18.02.27-2.28.03-.23.44-4 .27-2.28.23-2.1.03-.47.3-2.7.6-5.57.07-.93.16-1.36.36-3.17 1.27.15.3-2.67.02.02.27-2.77.07-.48.57-5.01 2.66.3 1.34.16v-.05l1.95.22 3.33.38.3-2.73-.82-.07-4.1-.47-.44-.07.14-1.36-.84-.09-.3-.16.31-.29.04-.32-.23-.1-.06-.27-.2-.3-.22.04-.13-.23-.22.01.03-.41-.16-.42-.2-.13-.11-.35-.13-.04v-.3l-.14-.24-.44.18-.09.12-.25-.1-.23-.57.37-.4-.08-.13.06-.24-.07-.18.24-.56.13-.07.26-.54-.03-.64-.14-.1.2-.5-.42-1.02-.22-.13-.29-.82.07-.44.22-.18-.28-.54-.31-.42-.35-.2.06-.26-.3-.14-.18.15-.17-.19-.58-.11-.36-.33-.11.1-.26-.09-.1.11-.33-.13-.07.17-.34.06-.15-.19-.2.05-.23-.14-.13-.23-.35.2-.6.05-.31.12-.49.37-.25.27h-.12l-.06.43.4.06.3.48.02.4.1.23-.07.58.21.02-.15.51.09.03-.15.47-.69.03-.48.18-.34-.05-.2-.12-.08-.36-.24-.04-.13-.16-.19.04-.08.26-1.34-.17-.16.08-1.6-.17-.03-.24-.3-.06.2-.12.04-.27.18-.1.27.17.02-.16-.17-.18-.04-.38.1-.43-.05-.3-.14-.23v-.31l.1.02.19-.52-.35-.37-.21-.37-.06-.33.03-.45-.05-.47.07-.48-.76-.43.08-.9-.35-.2-.33-.36-.08-.28-.74-.77-.52-.8-.28-.34-.02-.48.33-.48.27-.3.07-.2.1-1.06-.04-.93.06-.84-.05-.8.08-.3.74.07.17-.03.24-2.03.81.1.8.08.49-.06.06-.53-.1-.06h.55l2.23.27.4-.02.96.11.4.49-.05.3.43.02.26.14-.06.27.3-.1.4.03-.02.11.54-.17.4.05-.01.12.44.05.04-.44.22.47.57.13.08-.12.2-1.7 1.29.18.04-.48-.24-.18-.36-.7.04-.52.1-.43.17-.12.39.04.94.39.11-.06.31.24.24-.17.13.19.12-.18.1.2.58-.17.4.1.3-.1 1.15.07.38.14.53-.41.58-.05 1.45-.03.33-.3.13.05.47-.1.39.18.38.01.27-.16.48.49.3-.23-.1-.13.2-.1.37-.06.54-.26.18-.22.39-.8.58-.36.62-1.05.04-.34.13-.14-.37-1.13.72.09.91.12.57.04 1.44.17.83.1 1.02.1.74.08.6.07.82.07.96.16 1.31.12.37.06 1.15.1.66.07.6.06.33.04 1.1.11 2.03.19.61.03.26.02.47.04.63.06.69.06.88.09.25.02.74.07" fill="#d1dbdd" stroke="rgb(209, 219, 221)" stroke-width="0.1" data-originalStrokeWidth="0.1" style="stroke: rgb(0, 0, 0); fill: rgb(209, 219, 221); pointer-events: auto; stroke-width: 0.1;" pointer-events="auto"/>
      <path id="UT04" d="m389.05 333.38-.24 2.03-.17.03-.74-.08-.08.3.05.81-.06.84.05.95-.11 1.04-.06.2-.28.3-.33.49.02.48.27.35.52.8.75.77.08.28.33.36.36.2-.1.89.77.43-.07.48.05.47-.02.45.04.32.22.4.35.36-.2.51-.09-.02v.3l.14.24.04.3-.09.43.04.38.17.18-.02.16-.28-.18-.17.1-.04.28-.2.12.3.06.04.24 1.59.17.16-.08 1.34.17.08-.25.19-.05.13.16.24.04.08.36.2.12.34.05.48-.18.69-.03.15-.47-.1-.03.17-.51-.22-.03.07-.57-.1-.22-.03-.41-.29-.48-.4-.06.07-.43h.11l.25-.27.49-.37.3-.12.61-.04.35-.21.13.23.23.14.2-.04.15.18.34-.06.08-.17.32.13.1-.12.26.09.1-.09.36.33.58.1.18.19.19-.14.29.14-.06.25.35.21.31.42.28.54-.22.18-.07.44.3.82.22.13.43 1.01-.21.5.13.12.04.63-.27.54-.13.07-.24.56.07.19-.06.23.08.12-.37.42.22.55.26.11.1-.12.43-.18.14.24v.3l.13.04.1.35.2.13.17.42-.03.41h.22l.13.22.22-.05.2.3.06.27.23.1-.04.33-.3.29.3.16.83.1-.13 1.36.43.05 4.11.48.8.07-.29 2.73-3.33-.38-1.95-.22v.05l-1.34-.17-2.66-.3-.56 5.02-.08.48-.27 2.77-.02-.02-.3 2.67-1.27-.15-.36 3.17-.16 1.36-.07.93-.6 5.57-.3 2.7-7.07-.8-5.04-.62-1.22-.13.11-.39-3.95-.47.25-2.07.28-2.76.44-3.66-1.34-.17.06-.48-2.8-.33.16-1.37-.12-.01.47-3.69-.24-.02.06-.47-.19-.25.06-.45.44.07.05-.47-.21-.02-.18-.46-.57-.05-2.84-.35.76-1.15.8-1.53.11-.12 1.1-.79 1.3-.84.26-.33.6-1.15 1.57.2.52-.53.25-.3.01-.16.3-.27-.07-.09.2-.27.26-.54-.21-.35.05-.23-.1-.58.28-.11.3-.3.03-.22.16-.2-.16-.15-.01-.2-.2-.25-.2-.08-.07-.4-.41-.16-.02-.29.12-.33.22-.15-.2-.18-.12-.48-.33-.05-.2-.13-.35-.55.02-.14-.2-.32-.44-.2.14-.59.15-.27-.2-.69.1-.2.18.03-.02-.38.13-.21.35-.12.03-.23.18-.3-.26-.39.02-.13-.26-.3.26-.46-.13-.24.39-.24.36-.43-.14-.15.16-.42-.28-.16.08-.21.24-.15-.15-.26-.29-.03-.02-.21-.17-.23.07-.53-.08-.29-.16-.18.2-.73-.07-.56-.14-.1.07-.32.2-.38.39-.16-.22-.64-.12-.17.04-.25.13-.12-.21-.36.07-.67.2-.52-.3-.39-.06-.43.07-.45.4-.03.17-.2.4.1.04-.16-.15-.64.08-.32-.14-.38.23-.23-.02-.55.16-.55-.07-.19.1-.57.18-.14-.03-.34.08-.24-.11-.28-.31-.32.01-.27.16.06 2.6.3.08-.07.97.12.13-.22.14.02.16-1.37 2.02.24.53-.11 1.22.16" fill="#d1dbdd" stroke="rgb(209, 219, 221)" stroke-width="0.1" data-originalStrokeWidth="0.1" style="stroke: rgb(0, 0, 0); fill: rgb(209, 219, 221); pointer-events: auto; stroke-width: 0.1;" pointer-events="auto"/>
      <g id="state_lines" stroke="rgb(209, 219, 221)" style="display: none; stroke: rgb(0, 0, 0);" stroke-width="0.1"/>
      <g id="state_abbr" fill="#000000" style="display: none; fill: rgb(0, 0, 0);">
        <text id="HI_label" x="491.79" y="769.82" style="font-size: 19.2455px; stroke-width: 1.60379; display: none;">
          <tspan id="HI_tspan" x="491.79" y="769.82" fill="#000000" dy="0" font-family="Arial" font-size="24.06" font-style="normal" font-weight="400" style="text-align: center; stroke-width: 2.57215; fill: rgb(0, 0, 0);" text-anchor="middle">HI</tspan>
        </text>
        <text id="AK_label" x="205.24" y="672.25" style="font-size: 19.2455px; stroke-width: 1.60379; display: none;">
          <tspan id="AK_tspan" x="205.24" y="672.25" fill="#000000" dy="0" font-family="Arial" font-size="24.06" font-style="normal" font-weight="400" style="text-align: center; stroke-width: 2.57215; fill: rgb(0, 0, 0);" text-anchor="middle">AK</tspan>
        </text>
        <text id="FL_label" x="1188.11" y="708.7" style="font-size: 19.2455px; stroke-width: 1.60379; display: none;">
          <tspan id="FL_tspan" x="1188.11" y="708.7" fill="#000000" dy="0" font-family="Arial" font-size="24.06" font-style="normal" font-weight="400" style="text-align: center; stroke-width: 2.57215; fill: rgb(0, 0, 0);" text-anchor="middle">FL</tspan>
        </text>
        <text id="NH_label" x="1306.05" y="167.79" stroke-width="1.1" font-size="13.25" style="display: none;">
          <tspan id="NH_tspan" x="1306.05" y="167.79" fill="#000000" stroke-width="1.1" dy="0" font-family="Arial" font-size="16.56" font-style="normal" font-weight="400" style="text-align: center; fill: rgb(0, 0, 0);" text-anchor="middle">NH</tspan>
        </text>
        <text id="MI_label" x="1019.65" y="246.58" style="font-size: 19.2455px; stroke-width: 1.60379; display: none;">
          <tspan id="MI_tspan" x="1019.65" y="246.58" fill="#000000" dy="0" font-family="Arial" font-size="24.06" font-style="normal" font-weight="400" style="text-align: center; stroke-width: 2.57215; fill: rgb(0, 0, 0);" text-anchor="middle">MI</tspan>
        </text>
        <text id="VT_label" x="1274.28" y="145.01" stroke-width="1.05" font-size="12.65" style="display: none;">
          <tspan id="VT_tspan" x="1274.28" y="145.01" fill="#000000" stroke-width="1.05" dy="0" font-family="Arial" font-size="15.81" font-style="normal" font-weight="400" style="text-align: center; fill: rgb(0, 0, 0);" text-anchor="middle">VT</tspan>
        </text>
        <text id="ME_label" x="1338.99" y="105.14" stroke-width="1.45" font-size="17.36" style="display: none;">
          <tspan id="ME_tspan" x="1338.99" y="105.14" fill="#000000" stroke-width="1.45" dy="0" font-family="Arial" font-size="21.7" font-style="normal" font-weight="400" style="text-align: center; fill: rgb(0, 0, 0);" text-anchor="middle">ME</tspan>
        </text>
        <text id="RI_label" x="1361.38" y="262.84" stroke-width="1.25" font-size="14.98" style="display: none;">
          <tspan id="RI_tspan" x="1361.38" y="262.84" fill="#000000" stroke-width="1.25" dy="0" font-family="Arial" font-size="18.72" font-style="normal" font-weight="400" style="text-align: center; fill: rgb(0, 0, 0);" text-anchor="middle">RI</tspan>
        </text>
        <text id="NY_label" x="1227.27" y="204.12" style="font-size: 19.2455px; stroke-width: 1.60379; display: none;">
          <tspan id="NY_tspan" x="1227.27" y="204.12" fill="#000000" dy="0" font-family="Arial" font-size="24.06" font-style="normal" font-weight="400" style="text-align: center; stroke-width: 2.57215; fill: rgb(0, 0, 0);" text-anchor="middle">NY</tspan>
        </text>
        <text id="PA_label" x="1187.28" y="284.69" style="font-size: 19.2455px; stroke-width: 1.60379; display: none;">
          <tspan id="PA_tspan" x="1187.28" y="284.69" fill="#000000" dy="0" font-family="Arial" font-size="24.06" font-style="normal" font-weight="400" style="text-align: center; stroke-width: 2.57215; fill: rgb(0, 0, 0);" text-anchor="middle">PA</tspan>
        </text>
        <text id="NJ_label" x="1330.57" y="290.09" stroke-width="1.28" font-size="15.4" style="display: none;">
          <tspan id="NJ_tspan" x="1330.57" y="290.09" fill="#000000" stroke-width="1.28" dy="0" font-family="Arial" font-size="19.25" font-style="normal" font-weight="400" style="text-align: center; fill: rgb(0, 0, 0);" text-anchor="middle">NJ</tspan>
        </text>
        <text id="DE_label" x="1320.8" y="328.42" stroke-width="1.36" font-size="16.38" style="display: none;">
          <tspan id="DE_tspan" x="1320.8" y="328.42" fill="#000000" stroke-width="1.36" dy="0" font-family="Arial" font-size="20.47" font-style="normal" font-weight="400" style="text-align: center; fill: rgb(0, 0, 0);" text-anchor="middle">DE</tspan>
        </text>
        <text id="MD_label" x="1310.72" y="368.46" stroke-width="1.34" font-size="16.11" style="display: none;">
          <tspan id="MD_tspan" x="1310.72" y="368.46" fill="#000000" stroke-width="1.34" dy="0" font-family="Arial" font-size="20.13" font-style="normal" font-weight="400" style="text-align: center; fill: rgb(0, 0, 0);" text-anchor="middle">MD</tspan>
        </text>
        <text id="VA_label" x="1198.59" y="392.33" style="font-size: 19.2455px; stroke-width: 1.60379; display: none;">
          <tspan id="VA_tspan" x="1198.59" y="392.33" fill="#000000" dy="0" font-family="Arial" font-size="24.06" font-style="normal" font-weight="400" style="text-align: center; stroke-width: 2.57215; fill: rgb(0, 0, 0);" text-anchor="middle">VA</tspan>
        </text>
        <text id="WV_label" x="1129.66" y="382.3" style="font-size: 19.2455px; stroke-width: 1.60379; display: none;">
          <tspan id="WV_tspan" x="1129.66" y="382.3" fill="#000000" dy="0" font-family="Arial" font-size="24.06" font-style="normal" font-weight="400" style="text-align: center; stroke-width: 2.57215; fill: rgb(0, 0, 0);" text-anchor="middle">WV</tspan>
        </text>
        <text id="OH_label" x="1079.05" y="334.46" style="font-size: 19.2455px; stroke-width: 1.60379; display: none;">
          <tspan id="OH_tspan" x="1079.05" y="334.46" fill="#000000" dy="0" font-family="Arial" font-size="24.06" font-style="normal" font-weight="400" style="text-align: center; stroke-width: 2.57215; fill: rgb(0, 0, 0);" text-anchor="middle">OH</tspan>
        </text>
        <text id="IN_label" x="998.79" y="352.94" style="font-size: 19.2455px; stroke-width: 1.60379; display: none;">
          <tspan id="IN_tspan" x="998.79" y="352.94" fill="#000000" dy="0" font-family="Arial" font-size="24.06" font-style="normal" font-weight="400" style="text-align: center; stroke-width: 2.57215; fill: rgb(0, 0, 0);" text-anchor="middle">IN</tspan>
        </text>
        <text id="IL_label" x="927.43" y="364.36" style="font-size: 19.2455px; stroke-width: 1.60379; display: none;">
          <tspan id="IL_tspan" x="927.43" y="364.36" fill="#000000" dy="0" font-family="Arial" font-size="24.06" font-style="normal" font-weight="400" style="text-align: center; stroke-width: 2.57215; fill: rgb(0, 0, 0);" text-anchor="middle">IL</tspan>
        </text>
        <text id="CT_label" x="1299.17" y="228.46" stroke-width="1.06" font-size="12.74" style="display: none;">
          <tspan id="CT_tspan" x="1299.17" y="228.46" fill="#000000" stroke-width="1.06" dy="0" font-family="Arial" font-size="15.93" font-style="normal" font-weight="400" style="text-align: center; fill: rgb(0, 0, 0);" text-anchor="middle">CT</tspan>
        </text>
        <text id="WI_label" x="898.6" y="224.7" style="font-size: 19.2455px; stroke-width: 1.60379; display: none;">
          <tspan id="WI_tspan" x="898.6" y="224.7" fill="#000000" dy="0" font-family="Arial" font-size="24.06" font-style="normal" font-weight="400" style="text-align: center; stroke-width: 2.57215; fill: rgb(0, 0, 0);" text-anchor="middle">WI</tspan>
        </text>
        <text id="NC_label" x="1205.6" y="458.72" style="font-size: 19.2455px; stroke-width: 1.60379; display: none;">
          <tspan id="NC_tspan" x="1205.6" y="458.72" fill="#000000" dy="0" font-family="Arial" font-size="24.06" font-style="normal" font-weight="400" style="text-align: center; stroke-width: 2.57215; fill: rgb(0, 0, 0);" text-anchor="middle">NC</tspan>
        </text>
        <text id="MA_label" x="1305.87" y="200.67" stroke-width="1.04" font-size="12.46" style="display: none;">
          <tspan id="MA_tspan" x="1305.87" y="200.67" fill="#000000" stroke-width="1.04" dy="0" font-family="Arial" font-size="15.58" font-style="normal" font-weight="400" style="text-align: center; fill: rgb(0, 0, 0);" text-anchor="middle">MA</tspan>
        </text>
        <text id="MO_label" x="854.22" y="422.93" style="font-size: 19.2455px; stroke-width: 1.60379; display: none;">
          <tspan id="MO_tspan" x="854.22" y="422.93" fill="#000000" dy="0" font-family="Arial" font-size="24.06" font-style="normal" font-weight="400" style="text-align: center; stroke-width: 2.57215; fill: rgb(0, 0, 0);" text-anchor="middle">MO</tspan>
        </text>
        <text id="GA_label" x="1106.89" y="574.56" style="font-size: 19.2455px; stroke-width: 1.60379; display: none;">
          <tspan id="GA_tspan" x="1106.89" y="574.56" fill="#000000" dy="0" font-family="Arial" font-size="24.06" font-style="normal" font-weight="400" style="text-align: center; stroke-width: 2.57215; fill: rgb(0, 0, 0);" text-anchor="middle">GA</tspan>
        </text>
        <text id="SC_label" x="1166.32" y="522.49" style="font-size: 19.2455px; stroke-width: 1.60379; display: none;">
          <tspan id="SC_tspan" x="1166.32" y="522.49" fill="#000000" dy="0" font-family="Arial" font-size="24.06" font-style="normal" font-weight="400" style="text-align: center; stroke-width: 2.57215; fill: rgb(0, 0, 0);" text-anchor="middle">SC</tspan>
        </text>
        <text id="KY_label" x="1039.99" y="426.39" style="font-size: 19.2455px; stroke-width: 1.60379; display: none;">
          <tspan id="KY_tspan" x="1039.99" y="426.39" fill="#000000" dy="0" font-family="Arial" font-size="24.06" font-style="normal" font-weight="400" style="text-align: center; stroke-width: 2.57215; fill: rgb(0, 0, 0);" text-anchor="middle">KY</tspan>
        </text>
        <text id="AL_label" x="1019.59" y="578.15" style="font-size: 19.2455px; stroke-width: 1.60379; display: none;">
          <tspan id="AL_tspan" fill="#000000" dy="0" font-family="Arial" font-size="24.06" font-style="normal" font-weight="400" style="text-align: center; stroke-width: 2.57215; fill: rgb(0, 0, 0);" text-anchor="middle">AL</tspan>
        </text>
        <text id="LA_label" x="872.7" y="649.59" style="font-size: 19.2455px; stroke-width: 1.60379; display: none;">
          <tspan id="LA_tspan" x="872.7" y="649.59" fill="#000000" dy="0" font-family="Arial" font-size="24.06" font-style="normal" font-weight="400" style="text-align: center; stroke-width: 2.57215; fill: rgb(0, 0, 0);" text-anchor="middle">LA</tspan>
        </text>
        <text id="MS_label" x="940.37" y="592.21" style="font-size: 19.2455px; stroke-width: 1.60379; display: none;">
          <tspan id="MS_tspan" x="940.37" y="592.21" fill="#000000" dy="0" font-family="Arial" font-size="24.06" font-style="normal" font-weight="400" style="text-align: center; stroke-width: 2.57215; fill: rgb(0, 0, 0);" text-anchor="middle">MS</tspan>
        </text>
        <text id="IA_label" x="823.33" y="308.44" style="font-size: 19.2455px; stroke-width: 1.60379; display: none;">
          <tspan id="IA_tspan" x="823.33" y="308.44" fill="#000000" dy="0" font-family="Arial" font-size="24.06" font-style="normal" font-weight="400" style="text-align: center; stroke-width: 2.57215; fill: rgb(0, 0, 0);" text-anchor="middle">IA</tspan>
        </text>
        <text id="MN_label" x="790.84" y="183.37" style="font-size: 19.2455px; stroke-width: 1.60379; display: none;">
          <tspan id="MN_tspan" x="790.84" y="183.37" fill="#000000" dy="0" font-family="Arial" font-size="24.06" font-style="normal" font-weight="400" style="text-align: center; stroke-width: 2.57215; fill: rgb(0, 0, 0);" text-anchor="middle">MN</tspan>
        </text>
        <text id="OK_label" x="732.05" y="519.54" style="font-size: 19.2455px; stroke-width: 1.60379; display: none;">
          <tspan id="OK_tspan" x="732.05" y="519.54" fill="#000000" dy="0" font-family="Arial" font-size="24.06" font-style="normal" font-weight="400" style="text-align: center; stroke-width: 2.57215; fill: rgb(0, 0, 0);" text-anchor="middle">OK</tspan>
        </text>
        <text id="TX_label" x="710.59" y="652.87" style="font-size: 19.2455px; stroke-width: 1.60379; display: none;">
          <tspan id="TX_tspan" x="710.59" y="652.87" fill="#000000" dy="0" font-family="Arial" font-size="24.06" font-style="normal" font-weight="400" style="text-align: center; stroke-width: 2.57215; fill: rgb(0, 0, 0);" text-anchor="middle">TX</tspan>
        </text>
        <text id="NM_label" x="506.94" y="542.36" style="font-size: 19.2455px; stroke-width: 1.60379; display: none;">
          <tspan id="NM_tspan" x="506.94" y="542.36" fill="#000000" dy="0" font-family="Arial" font-size="24.06" font-style="normal" font-weight="400" style="text-align: center; stroke-width: 2.57215; fill: rgb(0, 0, 0);" text-anchor="middle">NM</tspan>
        </text>
        <text id="KS_label" x="701.21" y="427.26" style="font-size: 19.2455px; stroke-width: 1.60379; display: none;">
          <tspan id="KS_tspan" x="701.21" y="427.26" fill="#000000" dy="0" font-family="Arial" font-size="24.06" font-style="normal" font-weight="400" style="text-align: center; stroke-width: 2.57215; fill: rgb(0, 0, 0);" text-anchor="middle">KS</tspan>
        </text>
        <text id="NE_label" x="686.63" y="337.29" style="font-size: 19.2455px; stroke-width: 1.60379; display: none;">
          <tspan id="NE_tspan" x="686.63" y="337.29" fill="#000000" dy="0" font-family="Arial" font-size="24.06" font-style="normal" font-weight="400" style="text-align: center; stroke-width: 2.57215; fill: rgb(0, 0, 0);" text-anchor="middle">NE</tspan>
        </text>
        <text id="SD_label" x="663.02" y="238.75" style="font-size: 19.2455px; stroke-width: 1.60379; display: none;">
          <tspan id="SD_tspan" x="663.02" y="238.75" fill="#000000" dy="0" font-family="Arial" font-size="24.06" font-style="normal" font-weight="400" style="text-align: center; stroke-width: 2.57215; fill: rgb(0, 0, 0);" text-anchor="middle">SD</tspan>
        </text>
        <text id="ND_label" x="663.02" y="150.75" style="font-size: 19.2455px; stroke-width: 1.60379; display: none;">
          <tspan id="ND_tspan" x="663.02" y="150.75" fill="#000000" dy="0" font-family="Arial" font-size="24.06" font-style="normal" font-weight="400" style="text-align: center; stroke-width: 2.57215; fill: rgb(0, 0, 0);" text-anchor="middle">ND</tspan>
        </text>
        <text id="WY_label" x="499.57" y="276.47" style="font-size: 19.2455px; stroke-width: 1.60379; display: none;">
          <tspan id="WY_tspan" x="499.57" y="276.47" fill="#000000" dy="0" font-family="Arial" font-size="24.06" font-style="normal" font-weight="400" style="text-align: center; stroke-width: 2.57215; fill: rgb(0, 0, 0);" text-anchor="middle">WY</tspan>
        </text>
        <text id="MT_label" x="487.84" y="155.58" style="font-size: 19.2455px; stroke-width: 1.60379; display: none;">
          <tspan id="MT_tspan" x="487.84" y="155.58" fill="#000000" dy="0" font-family="Arial" font-size="24.06" font-style="normal" font-weight="400" style="text-align: center; stroke-width: 2.57215; fill: rgb(0, 0, 0);" text-anchor="middle">MT</tspan>
        </text>
        <text id="CO_label" x="525.13" y="406.28" style="font-size: 19.2455px; stroke-width: 1.60379; display: none;">
          <tspan id="CO_tspan" x="525.13" y="406.28" fill="#000000" dy="0" font-family="Arial" font-size="24.06" font-style="normal" font-weight="400" style="text-align: center; stroke-width: 2.57215; fill: rgb(0, 0, 0);" text-anchor="middle">CO</tspan>
        </text>
        <text id="ID_label" x="339.94" y="235.07" style="font-size: 19.2455px; stroke-width: 1.60379; display: none;">
          <tspan id="ID_tspan" x="339.94" y="235.07" fill="#000000" dy="0" font-family="Arial" font-size="24.06" font-style="normal" font-weight="400" style="text-align: center; stroke-width: 2.57215; fill: rgb(0, 0, 0);" text-anchor="middle">ID</tspan>
        </text>
        <text id="UT_label" x="396.81" y="386.73" style="font-size: 19.2455px; stroke-width: 1.60379; display: none;">
          <tspan id="UT_tspan" x="396.81" y="386.73" fill="#000000" dy="0" font-family="Arial" font-size="24.06" font-style="normal" font-weight="400" style="text-align: center; stroke-width: 2.57215; fill: rgb(0, 0, 0);" text-anchor="middle">UT</tspan>
        </text>
        <text id="AZ_label" x="366.76" y="536.9" style="font-size: 19.2455px; stroke-width: 1.60379; display: none;">
          <tspan id="AZ_tspan" x="366.76" y="536.9" fill="#000000" dy="0" font-family="Arial" font-size="24.06" font-style="normal" font-weight="400" style="text-align: center; stroke-width: 2.57215; fill: rgb(0, 0, 0);" text-anchor="middle">AZ</tspan>
        </text>
        <text id="NV_label" x="262.47" y="370.64" style="font-size: 19.2455px; stroke-width: 1.60379; display: none;">
          <tspan id="NV_tspan" x="262.47" y="370.64" fill="#000000" dy="0" font-family="Arial" font-size="24.06" font-style="normal" font-weight="400" style="text-align: center; stroke-width: 2.57215; fill: rgb(0, 0, 0);" text-anchor="middle">NV</tspan>
        </text>
        <text id="OR_label" x="214.43" y="206.88" style="font-size: 19.2455px; stroke-width: 1.60379; display: none;">
          <tspan id="OR_tspan" x="214.43" y="206.88" fill="#000000" dy="0" font-family="Arial" font-size="24.06" font-style="normal" font-weight="400" style="text-align: center; stroke-width: 2.57215; fill: rgb(0, 0, 0);" text-anchor="middle">OR</tspan>
        </text>
        <text id="WA_label" x="238.05" y="102.99" style="font-size: 19.2455px; stroke-width: 1.60379; display: none;">
          <tspan id="WA_tspan" x="238.05" y="102.99" fill="#000000" dy="0" font-family="Arial" font-size="24.06" font-style="normal" font-weight="400" style="text-align: center; stroke-width: 2.57215; fill: rgb(0, 0, 0);" text-anchor="middle">WA</tspan>
        </text>
        <text id="CA_label" x="191.69" y="434.8" style="font-size: 19.2455px; stroke-width: 1.60379; display: none;">
          <tspan id="CA_tspan" x="191.69" y="434.8" fill="#000000" dy="0" font-family="Arial" font-size="24.06" font-style="normal" font-weight="400" style="text-align: center; stroke-width: 2.57215; fill: rgb(0, 0, 0);" text-anchor="middle">CA</tspan>
        </text>
        <text id="DC_label" x="1309.32" y="398.19" stroke-width="1.29" font-size="15.45" style="display: none;">
          <tspan id="DC_tspan" x="1309.32" y="398.19" fill="#000000" stroke-width="1.29" dy="0" font-family="Arial" font-size="19.31" font-style="normal" font-weight="400" style="text-align: center; fill: rgb(0, 0, 0);" text-anchor="middle">DC</tspan>
        </text>
        <text id="TN_label" x="1018.93" y="485.72" style="font-size: 19.2455px; stroke-width: 1.60379; display: none;">
          <tspan id="TN_tspan" x="1018.93" y="485.72" fill="#000000" dy="0" font-family="Arial" font-size="24.06" font-style="normal" font-weight="400" style="text-align: center; stroke-width: 2.57215; fill: rgb(0, 0, 0);" text-anchor="middle">TN</tspan>
        </text>
        <text id="AR_label" x="863.15" y="535.77" style="font-size: 19.2455px; stroke-width: 1.60379; display: none;">
          <tspan id="AR_tspan" x="863.15" y="535.77" fill="#000000" dy="0" font-family="Arial" font-size="24.06" font-style="normal" font-weight="400" style="text-align: center; stroke-width: 2.57215; fill: rgb(0, 0, 0);" text-anchor="middle">AR</tspan>
        </text>
      </g>
      <g id="state_borders" transform="translate(-0.04777967,-0.15336683)" stroke="rgb(209, 219, 221)" style="stroke: rgb(0, 0, 0);" stroke-width="0.3">
        <path id="UT_CO_border" d="m445.33 456.9 1.05-11.9.52-4.91.36-4.28.7-7.62.14-2.12.57-6.04-.14-3.53.9-10.25.35-3.8.56-4.9.76-7.94.68-7.62.36-4.14 1.07-11.93 1.56-18.02.56-5.52.56-6.53.45-5.52" stroke="rgb(209, 219, 221)" stroke-width="0.3" fill="none" style="stroke: rgb(0, 0, 0); display: none;"/>
        <path id="UT_WY_border" d="m412.94 294.13-1.48 13.75-.73 6.45-1.25 11.44 11.88 1.33.92.14 6.17.62 2.72.2 13.78 1.3 6.68.53 4.7.44" stroke="rgb(209, 219, 221)" stroke-width="0.3" fill="none" style="stroke: rgb(0, 0, 0); display: none;"/>
        <path id="UT_AZ_border" d="m445.33 456.9-11.16-1.02-3.23-.27-16.12-1.57-4.81-.5-.75-.27-2.44-.22-11.58-1.21-1.67-.13-3.58-.4-3.14-.4-11.38-1.3-16.7-2.02-10.54-1.32-7.6-1.01-8.58-1.16-10.58-1.48" stroke="rgb(209, 219, 221)" stroke-width="0.3" fill="none" style="stroke: rgb(0, 0, 0); display: none;"/>
        <path id="UT_ID_border" d="m412.93 294.1-6.24-.65-3.74-.4-12.34-1.38-3.27-.36-.74-.21-13.58-1.66-25.24-3.02-3.97-.73" stroke="rgb(209, 219, 221)" stroke-width="0.3" fill="none" style="stroke: rgb(0, 0, 0); display: none;"/>
      </g>
      <rect id="selection-rectangle" fill="#ffffccaa" stroke="rgb(209, 219, 221)" stroke-width="0.1"/>
      <ellipse id="selection-ellipse" fill="#ffffccaa" stroke="rgb(209, 219, 221)" stroke-width="0.1"/>
      <polygon id="selection-polygon" fill="#ffffccaa" stroke="rgb(209, 219, 221)" stroke-width="0.1"/>
      <polyline id="selection-polyline" fill="#ffffccaa" stroke="rgb(209, 219, 221)" stroke-width="0.1"/>
    </svg>
  </g>
</svg>
