<?xml version='1.0' encoding='UTF-8'?>
<svg xmlns="http://www.w3.org/2000/svg" xmlns:dc="http://purl.org/dc/elements/1.1/" xmlns:ns2="http://creativecommons.org/ns#" xmlns:rdf="http://www.w3.org/1999/02/22-rdf-syntax-ns#" id="wrapper" viewBox="0 0 1520 840" preserveAspectRatio="xMinYMin" height="840" width="1520" style="background-color: rgb(255, 255, 255);">
  <metadata>
    <rdf:rdf>
      <ns2:work rdf:about="">
        <dc:format>image/svg+xml</dc:format>
        <dc:type rdf:resource="http://purl.org/dc/dcmitype/StillImage"/>
        <dc:title>MapChart Map</dc:title>
        <dc:creator>
          <ns2:agent>
            <dc:title>MapChart.net</dc:title>
          </ns2:agent>
        </dc:creator>
        <ns2:license rdf:resource="http://creativecommons.org/licenses/by-sa/4.0/"/>
        <dc:description>This map was created with MapChart.net, a website for creating custom maps.</dc:description>
      </ns2:work>
      <ns2:license rdf:about="http://creativecommons.org/licenses/by-sa/4.0/">
        <ns2:permits rdf:resource="http://creativecommons.org/ns#Reproduction"/>
        <ns2:permits rdf:resource="http://creativecommons.org/ns#Distribution"/>
        <ns2:requires rdf:resource="http://creativecommons.org/ns#Notice"/>
        <ns2:requires rdf:resource="http://creativecommons.org/ns#Attribution"/>
        <ns2:requires rdf:resource="http://creativecommons.org/ns#ShareAlike"/>
      </ns2:license>
    </rdf:rdf>
  </metadata>
  <g id="map-group" transform="translate(-9434.8701171875,-802.3601379394531) scale(8)">
    <svg id="map" width="1520" height="840" version="1.1" viewBox="0 0 1520 840" preserveAspectRatio="xMinYMin" data-originalStrokeWidth="0.3">
      <defs>
        <pattern id="circles3" width="10" height="10" patternUnits="userSpaceOnUse">    <rect width="10" height="10" fill="#fff"/>    <circle cx="4" cy="4" r="2" fill="#000"/>    </pattern>
        <pattern id="diagonal1" width="10" height="10" patternUnits="userSpaceOnUse">    <rect width="10" height="10" fill="#fff"/>    </pattern>
        <pattern id="diagonal3" width="10" height="10" patternUnits="userSpaceOnUse">    <rect width="10" height="10" fill="#fff"/>    </pattern>
        <pattern id="vertical1" width="10" height="10" patternUnits="userSpaceOnUse">    <rect width="10" height="10" fill="#fff"/>    <rect x="2" y="0" width="1" height="10" fill="#000"/>    </pattern>
        <pattern id="vertical3" width="10" height="10" patternUnits="userSpaceOnUse">    <rect width="10" height="10" fill="#fff"/>    <rect x="2" y="0" width="3" height="10" fill="#000"/>    </pattern>
        <pattern id="horizontal1" width="10" height="10" patternUnits="userSpaceOnUse">    <rect width="10" height="10" fill="#fff"/>    <rect x="0" y="2" width="10" height="1" fill="#000"/>    </pattern>
        <pattern id="horizontal3" width="10" height="10" patternUnits="userSpaceOnUse">    <rect width="10" height="10" fill="#fff"/>    <rect x="0" y="2" width="10" height="3" fill="#000"/>    </pattern>
        <pattern id="crosshatch" width="8" height="8" patternUnits="userSpaceOnUse">    <rect width="8" height="8" fill="#fff"/>    </pattern>
        <pattern id="subtlepatch" width="5" height="5" patternUnits="userSpaceOnUse">    <rect width="5" height="5" fill="#fff"/>    <rect x="2" y="2" width="1" height="1" fill="#000"/>    </pattern>
        <pattern id="checkers" width="8" height="8" patternUnits="userSpaceOnUse">    <rect width="8" height="8" fill="#fff"/>    </pattern>
        <pattern id="raindrops" width="10" height="10" patternUnits="userSpaceOnUse">    <rect width="10" height="10" fill="#fff"/>    </pattern>
        <pattern id="texture" width="4" height="4" patternUnits="userSpaceOnUse">    <rect width="4" height="4" fill="#fff"/>    </pattern>
        <pattern id="circles3_a03500_000000" width="10" height="10" patternUnits="userSpaceOnUse">    <rect width="10" height="10" fill="#a03500"/>    <circle cx="4" cy="4" r="2" fill="#000000"/>    </pattern>
        <pattern id="diagonal1_d9b400_535353" width="10" height="10" patternUnits="userSpaceOnUse">    <rect width="10" height="10" fill="#d9b400"/>    </pattern>
        <pattern id="diagonal3_3264c8_ffffff" width="10" height="10" patternUnits="userSpaceOnUse">    <rect width="10" height="10" fill="#3264c8"/>    </pattern>
        <pattern id="horizontal1_72b38e_000000" width="10" height="10" patternUnits="userSpaceOnUse">    <rect width="10" height="10" fill="#72b38e"/>    <rect x="0" y="2" width="10" height="1" fill="#000000"/>    </pattern>
        <pattern id="horizontal3_986ba1_ffffff" width="10" height="10" patternUnits="userSpaceOnUse">    <rect width="10" height="10" fill="#986ba1"/>    <rect x="0" y="2" width="10" height="3" fill="#ffffff"/>    </pattern>
        <pattern id="vertical1_b9a087_ffffff" width="10" height="10" patternUnits="userSpaceOnUse">    <rect width="10" height="10" fill="#b9a087"/>    <rect x="2" y="0" width="1" height="10" fill="#ffffff"/>    </pattern>
        <pattern id="vertical3_4c91bf_ffff33" width="10" height="10" patternUnits="userSpaceOnUse">    <rect width="10" height="10" fill="#4c91bf"/>    <rect x="2" y="0" width="3" height="10" fill="#ffff33"/>    </pattern>
        <pattern id="checkers_cc3333_f7f7f7" width="8" height="8" patternUnits="userSpaceOnUse">    <rect width="8" height="8" fill="#cc3333"/>    </pattern>
        <pattern id="texture_d1dbdd_525252" width="4" height="4" patternUnits="userSpaceOnUse">    <rect width="4" height="4" fill="#d1dbdd"/>    </pattern>
        <style id="map-style">svg { background-color: #ffffff; }</style>
      </defs>
      <path id="VT00" d="M1292.3 112.76h.03l.73-.23v-.02l.02.03-.22.17-.03.25-.13.07-.04.03-.47-.08-.12.17-.24.2-.02.11-.05.07-.03.09.1.02-.1.1.03.07-.02.04-.03.03.02.04h.02l.04-.03h.04l.01.05v.04h.1l.06.11.12.06.1.1.06-.02-.02.05.02.04.07-.07.18.26.06.4.08.04v.1l-.08.09-.03.02.78.67.09-.05.02.02-.03.02-.02.03v.06l.06.05v.06l-.01.01h-.1l-.01.05-.02.06-.04.05-.12.24.1.1-.13.33-.05.12-.05.02-.02.03v.06l.03.04v.05l-.05.03-.01.07-.03.06-.09.05-.12.12-.02.13-.02.05.04.05.07.06v.03l-.05.06-.03.24.2.28-.13.25v.23l-.02.02-.04-.02-.15.17-.01.1-.01.08.01.06.06.03h.05l.14.08v.06l-.01.14-.02.07.04.09.05.06v.12l-.05.06-.02.13-.04.04h-.05l-.06.07-.11.07-.04.07v.08l.05.04v.04l-.08.1-.03.04v.1l-.14.17-.05.33-.28.18v.07l.07.06.1.03.06.06v.05l.01.08.05.08v.1l.05.15.02.03.05.01h.03l.06-.09h.04l.04.22.12.02.03.02v.04l.02.04.12.06.03.03.43.38-.02.18.16.2v.2l.38.07-.12.1.1.27v.05l.1.07.07.03.05-.02.03-.03h.05l.03.04-.02.05-.07.03v.02l.07.02h.08l.1-.05.01-.05v-.04l.03-.03.09.04.19.25-.06.22.3.21.12.02.05.04v.05h-.07l-.05-.04-.06-.02-.02.02.02.04v.1l.02.08.04.05.05.14.03.04.04.1.02.02-.03.08-.05.02-.08.03v.04l.04.05.03.02.07-.03.15-.05-.04.23.15-.19.06.22.15-.16.05.19.05.03-.17.32-.1-.06-.05-.1-.03.13.03.04.05.07.04.02.1.06.02.04-.01.07-.05.01h-.13v.1l.02.06v.05l-.69.18-.04.08-.03.29.35.16.26.07.14.14-.1.46-.24.12.52.4.03.1-.26-.03.1.13-.18.07.05.18-.03.13v.12l-.01.03-.18.12h-.05l-.1-.02-.04.01-.03.06-.02.1v.21l-.04.06-.06.03h-.06l-.03-.02-.03-.02-.02-.09.03.02.04-.05.07-.04.01-.03.02-.07-.05-.03h-.06l-.07.14-.2.3.2.17-.03.22-.21.15.06.5-.04.16-.32.2.12.15-.23.36-.09.12-.1.17-.28.2-.41.17-.03.23-.18.05-.31-.07-.1.1-.17.23-.34.12-.13.34.1.21-.24.13.13.25-.03.22.18.3-.4.31-.15.23-.17.18-.42.25-.78-.12-.24.13-.17.36-.68.25-.43.1-.05.22-.26.26-.06.09-.15.12-.3.06-.1.1-.02.07.17.49-.2.37-.14.12-.12.4-.03.3.24-.06.06.32.01.05.18.21.04.07.04.03.06.03.03.03.08.08.02.08-.02.1.02.32.02.07.05.1.01.15-.06.11.04.13-.03.34.03.23.18.15.34.48.26.2h.1l-.02.1v.13l.07.14.08.17.23.17v.25l-.26.22v.2l.1.3.03.09.08.09.16.02.01-.06-.02-.11.02-.08.04-.02.14.02.04.02.04.04v.09l.02.11-.01.09-.03.05-.06.03h-.07l-.06.04v.05l.04.03.14.05h.1l.06.02.03.05v.03l-.05.05-.04.04h-.05l-.07-.05h-.05l-.06.08-.1.05-.02.04.04.04.05.03.07.06v.05l-.04.1-.03.29-.19.04-.05.05v.08l.07.03.1.02.04.04-.01.03-.08.05-.18.19-.03.05v.08l.03.07.09.07.07.09-.03.07-.1.34-.2-.01.05.24.08.05-.03.02-.1-.04-.14.2.1.19-.1.27-.05.2.13.1.12.53.09.06.08-.13h.33l-.13.23.04.22-.27.44.2.6-.12.3-.13.24-.06.1-.1.11-.07.1-.06.12-.02.07-.02.16.03.15-.04.03-.06.06-.13.04-.03.08.03.14.03.05.07.06.05.07.04.04.03.06-.01.01-.12.1-.12.07-.05.03v.15l-.01.13v.07l.08.1.04.06.1.1v.12l.1.21v.2l-.02.1v.14l.07.1.13.14.02.06.03.11-.02.08-.04.05-.03.07-.02.06.01.12-.03.17-.02.07-.07.05-.02.07-.02.07v.05l.07.09v.08l.04.13-.04.13-.04.06-.11.07-.04.06v.07l-.02.12-.01.08-.05.07v.04l-.04.14-.04.2-.47.44-.14.1-.18.37-.07.14-.16.62v.13l-.04.17.03.11.05.15.07.16.14.37-.02.12-.06.2v.28l.06.11v.22l-.2.2.04.3-.04.07.01.29.23.23.06.13v.06l-.07.06-.16.32-.1.17-.15.09-.03.05-.15.14-.11.14-.09.16.04.17.03.06v.07h-.03l.17.56.06.42-.17.39.05.2.1.25.32.17.17.22.06.16.03.21.02.17-.09.2-.04.1.16.37.01.32.08.42.04.13.08.66.02.1.03.12-.03.39-.09.16v.1l.04.17.11.3.14.07.36.01.08.19-.13.44-.04.28.5.45-.04.4.03.66-.11.62-.1.1-.14.14-.03.23.04.07.14.35.12.15v.07l-.04.2.01.17.1.24.1.26-.13.28v.18l.21.28-.11.2.06.2.02.04.05.2.05.17-.06.15.18.28.04.02h.12l.13-.03v.04l.03.07-.02.05.1.13.19.15.11.3-.12.37.32.37.02.18-.2.47-.07.2-.04.09-.08.1-.06.18.24.28.12.53.16.18.4.17-.05.35-.19.04-.06.24.06.22.1.05-.16.43-.19.01-.18.26-.37.24-.16.08-.08.16-.14.37.18.08.13.28.04.21.19.4-.08.3.07.25-.04.17-.3.38.03.1v.21l.04.12.08.24.04.07.04.29.32.34.13.38.18.28.1.24.74.41.2.18.05.22-.07.12.03.17h.13l.17-.15v-.16l.2-.08.32.2.29.46.51.5-.75.2-.82.23-.91.23-.07.02-.38.1-.5.13-.68.19-.89.22-.22.06-.63.17-.04.02-1.25.32-.67.18-.64.17-.43.12-.56.14-.33.1-.62.17-.07.02h-.03l-.41.12-.32.08-.96.26-.1.02-1.15.32-.17.04-1.62.44-1 .27-.56.15h-.05l-.66.2-.7.18-.83-1.6.06-.21-.02-.07v-.05l.03-.08-.04-.03-.1-.13-.1-.44.16-.02-.27-1.04-.4-1.49-.16-.66-.03-.09-.02-.07-.03-.09-.03-.1-.1-.46-.26-.94-.03-.17-.3-1.1-.08-.4-.3-1.2-.05-.25-.1-.38-.07-.27-.28-1.13-.04-.1-.39-1.54-.16-.61-.12-.54-.17-.62-.14-.57-.16-.56-.16-.64-.16-.55-.09-.36-.08-.25-.12-.53-.18-.66-.06-.2-.24-.98-.05-.14-.22-.85-.32-1.13-.06-.2v-.04h-.03v-.1l-.02-.01v-.03l.01-.04-.04-.05v-.1l.04-.06.02-.04V169l-.06-.05.02-.03-.02.01h-.02l-.05-.1-.05-.02-.02-.03v-.03l-.1-.03v-.05l.03-.03h-.05l.02-.02v-.02h-.04v-.02h.02v-.03l-.02-.01v-.02l-.02-.01v-.02h.01v-.07l-.01-.03-.07-.03-.09-.07-.05-.07-.02-.02-.12-.08-.07-.04-.06-.02-.27-.08h-.03l-.05-.01h-.04l-.05-.07-.03-.02-.04.02v-.02l-.1.03-.03.02h-.03l-.06.06-.02.02v-.02l-.01-.05.02-.18v-.02l-.02-.01-.1-.03v-.39l-.05-.12-.13-.11-.01-.03-.02-.02h-.07l-.02-.02h-.01v.04h-.02l-.02-.01v-.22l-.09-.08v-.08l-.04-.08-.1-.05-.05.14-.2-.04-.19.1-.06.03h-.02l-.03-.04-.04-.01h-.01v.03l-.1.1-.05.03-.02-.05-.04.02-.07.17h-.02l-.07-.07-.04-.04h-.03l-.05.01-.3.15.09.13v.02l-.02.3-.02.02-.01.02v.02h.05l.04.18-.03.07-.02.02.02.03v.01l-.04.04h-.04l-.03.05.02.05.03.03.03.04v.04l-.04.02h-.03l-.03.04v.03l.11.05h.02v.04l-.02.07v.05l.08.07v.07l-.06.1h-.04l-.05.08.04.06v.03l-.03.02-.05.01v.06l-.04.01h-.05l-.6-.27-.16-.01-.1-.19.08-.44-.13-.28.02-.35-.3-.28-.06-.25.15-.23v-1.1l-.09-.2.14-.3.02-.19.07-.34.2-.52-.14-.56.16-.9-.28-.44-.54-.3-.08-.15-.15-.21-.33-.24v-.3l.24-.53-.22-.14-.09-.14v-.6l-.35-.44-.37-.27-.27-.47-.2-.22-.08-.19-.06-.41-.2-.6-.24-.4-.18-1.07-.06-.14-.2-.21-.3-.08-.3-.15-.07-.1-.12-1.1.06-.58.01-.36v-.2l-.27-.53.18-.47-.11-.83.07-.38-.08-.18v-.14l.42-.63.07-.78.13-.2-.05-.07.23-.28h.13l.05-.49.01-.26-.04-.28-.48-.75-.21-.51-.12-.44-.07-.15-.22-.3-.16-.2-.1-.46.22-.53v-.54l.08-.87-.1-.44-.24-.37-.09-.42-.08-.21-.16-.2-.2-.47-.46-.4-.05-.14-.6-.56-.02-.13-.46-.2-.1-.1-.1-.03-.35-.28-.26-.37v-.35l-.22-.32-.2-.14-.01-.19-.1-.38.12-.2-.16-.18.02-.31.14-.22-.11-.35-.06-.07.09-.1-.13-.17.1-.34-.12-.07-.38-1.45.11-.36.01-.14-.02-.13.02-.32.15-.31v-.27l-.18-.44-.25-.17-.3-.2-.3-.11-.15-.09-.25-.18-.17-.56.13-.35-.04-.54-.03-.27v-.43l.13-.25.13-.14v-.17l-.23-.7-.17-.67-.46-.38-.09-.2.02-.18.01-.2v-.39l1.99-.64 3.46-1.14 2.53-.73 2.57-.85 2.1-.6 1.06-.32 1.6-.44.85-.17.65-.1 1.62-.51.61-.18 1.06-.27 1.03-.28.9-.23 3.41-1.13 1.02-.29 3.28-1.11.7-.21 2.3-.81 1.07-.37 1.2-.36 1.83-.64 1.07-.34 1.25-.42" fill="#d1dbdd" stroke="rgb(209, 219, 221)" stroke-width="0.1" data-originalStrokeWidth="0.1" style="stroke: rgb(0, 0, 0); fill: rgb(209, 219, 221); pointer-events: auto; stroke-width: 0.1;" pointer-events="auto"/>
      <g id="state_lines" stroke="rgb(209, 219, 221)" style="display: none; stroke: rgb(0, 0, 0);" stroke-width="0.1"/>
      <g id="state_abbr" fill="#000000" style="display: none; fill: rgb(0, 0, 0);">
        <text id="HI_label" x="491.79" y="769.82" style="font-size: 19.2455px; stroke-width: 1.60379; display: none;">
          <tspan id="HI_tspan" x="491.79" y="769.82" fill="#000000" dy="0" font-family="Arial" font-size="24.06" font-style="normal" font-weight="400" style="text-align: center; stroke-width: 2.57215; fill: rgb(0, 0, 0);" text-anchor="middle">HI</tspan>
        </text>
        <text id="AK_label" x="205.24" y="672.25" style="font-size: 19.2455px; stroke-width: 1.60379; display: none;">
          <tspan id="AK_tspan" x="205.24" y="672.25" fill="#000000" dy="0" font-family="Arial" font-size="24.06" font-style="normal" font-weight="400" style="text-align: center; stroke-width: 2.57215; fill: rgb(0, 0, 0);" text-anchor="middle">AK</tspan>
        </text>
        <text id="FL_label" x="1188.11" y="708.7" style="font-size: 19.2455px; stroke-width: 1.60379; display: none;">
          <tspan id="FL_tspan" x="1188.11" y="708.7" fill="#000000" dy="0" font-family="Arial" font-size="24.06" font-style="normal" font-weight="400" style="text-align: center; stroke-width: 2.57215; fill: rgb(0, 0, 0);" text-anchor="middle">FL</tspan>
        </text>
        <text id="NH_label" x="1306.05" y="167.79" stroke-width="1.1" font-size="13.25" style="display: none;">
          <tspan id="NH_tspan" x="1306.05" y="167.79" fill="#000000" stroke-width="1.1" dy="0" font-family="Arial" font-size="16.56" font-style="normal" font-weight="400" style="text-align: center; fill: rgb(0, 0, 0);" text-anchor="middle">NH</tspan>
        </text>
        <text id="MI_label" x="1019.65" y="246.58" style="font-size: 19.2455px; stroke-width: 1.60379; display: none;">
          <tspan id="MI_tspan" x="1019.65" y="246.58" fill="#000000" dy="0" font-family="Arial" font-size="24.06" font-style="normal" font-weight="400" style="text-align: center; stroke-width: 2.57215; fill: rgb(0, 0, 0);" text-anchor="middle">MI</tspan>
        </text>
        <text id="VT_label" x="1274.28" y="145.01" stroke-width="1.05" font-size="12.65" style="display: none;">
          <tspan id="VT_tspan" x="1274.28" y="145.01" fill="#000000" stroke-width="1.05" dy="0" font-family="Arial" font-size="15.81" font-style="normal" font-weight="400" style="text-align: center; fill: rgb(0, 0, 0);" text-anchor="middle">VT</tspan>
        </text>
        <text id="ME_label" x="1338.99" y="105.14" stroke-width="1.45" font-size="17.36" style="display: none;">
          <tspan id="ME_tspan" x="1338.99" y="105.14" fill="#000000" stroke-width="1.45" dy="0" font-family="Arial" font-size="21.7" font-style="normal" font-weight="400" style="text-align: center; fill: rgb(0, 0, 0);" text-anchor="middle">ME</tspan>
        </text>
        <text id="RI_label" x="1361.38" y="262.84" stroke-width="1.25" font-size="14.98" style="display: none;">
          <tspan id="RI_tspan" x="1361.38" y="262.84" fill="#000000" stroke-width="1.25" dy="0" font-family="Arial" font-size="18.72" font-style="normal" font-weight="400" style="text-align: center; fill: rgb(0, 0, 0);" text-anchor="middle">RI</tspan>
        </text>
        <text id="NY_label" x="1227.27" y="204.12" style="font-size: 19.2455px; stroke-width: 1.60379; display: none;">
          <tspan id="NY_tspan" x="1227.27" y="204.12" fill="#000000" dy="0" font-family="Arial" font-size="24.06" font-style="normal" font-weight="400" style="text-align: center; stroke-width: 2.57215; fill: rgb(0, 0, 0);" text-anchor="middle">NY</tspan>
        </text>
        <text id="PA_label" x="1187.28" y="284.69" style="font-size: 19.2455px; stroke-width: 1.60379; display: none;">
          <tspan id="PA_tspan" x="1187.28" y="284.69" fill="#000000" dy="0" font-family="Arial" font-size="24.06" font-style="normal" font-weight="400" style="text-align: center; stroke-width: 2.57215; fill: rgb(0, 0, 0);" text-anchor="middle">PA</tspan>
        </text>
        <text id="NJ_label" x="1330.57" y="290.09" stroke-width="1.28" font-size="15.4" style="display: none;">
          <tspan id="NJ_tspan" x="1330.57" y="290.09" fill="#000000" stroke-width="1.28" dy="0" font-family="Arial" font-size="19.25" font-style="normal" font-weight="400" style="text-align: center; fill: rgb(0, 0, 0);" text-anchor="middle">NJ</tspan>
        </text>
        <text id="DE_label" x="1320.8" y="328.42" stroke-width="1.36" font-size="16.38" style="display: none;">
          <tspan id="DE_tspan" x="1320.8" y="328.42" fill="#000000" stroke-width="1.36" dy="0" font-family="Arial" font-size="20.47" font-style="normal" font-weight="400" style="text-align: center; fill: rgb(0, 0, 0);" text-anchor="middle">DE</tspan>
        </text>
        <text id="MD_label" x="1310.72" y="368.46" stroke-width="1.34" font-size="16.11" style="display: none;">
          <tspan id="MD_tspan" x="1310.72" y="368.46" fill="#000000" stroke-width="1.34" dy="0" font-family="Arial" font-size="20.13" font-style="normal" font-weight="400" style="text-align: center; fill: rgb(0, 0, 0);" text-anchor="middle">MD</tspan>
        </text>
        <text id="VA_label" x="1198.59" y="392.33" style="font-size: 19.2455px; stroke-width: 1.60379; display: none;">
          <tspan id="VA_tspan" x="1198.59" y="392.33" fill="#000000" dy="0" font-family="Arial" font-size="24.06" font-style="normal" font-weight="400" style="text-align: center; stroke-width: 2.57215; fill: rgb(0, 0, 0);" text-anchor="middle">VA</tspan>
        </text>
        <text id="WV_label" x="1129.66" y="382.3" style="font-size: 19.2455px; stroke-width: 1.60379; display: none;">
          <tspan id="WV_tspan" x="1129.66" y="382.3" fill="#000000" dy="0" font-family="Arial" font-size="24.06" font-style="normal" font-weight="400" style="text-align: center; stroke-width: 2.57215; fill: rgb(0, 0, 0);" text-anchor="middle">WV</tspan>
        </text>
        <text id="OH_label" x="1079.05" y="334.46" style="font-size: 19.2455px; stroke-width: 1.60379; display: none;">
          <tspan id="OH_tspan" x="1079.05" y="334.46" fill="#000000" dy="0" font-family="Arial" font-size="24.06" font-style="normal" font-weight="400" style="text-align: center; stroke-width: 2.57215; fill: rgb(0, 0, 0);" text-anchor="middle">OH</tspan>
        </text>
        <text id="IN_label" x="998.79" y="352.94" style="font-size: 19.2455px; stroke-width: 1.60379; display: none;">
          <tspan id="IN_tspan" x="998.79" y="352.94" fill="#000000" dy="0" font-family="Arial" font-size="24.06" font-style="normal" font-weight="400" style="text-align: center; stroke-width: 2.57215; fill: rgb(0, 0, 0);" text-anchor="middle">IN</tspan>
        </text>
        <text id="IL_label" x="927.43" y="364.36" style="font-size: 19.2455px; stroke-width: 1.60379; display: none;">
          <tspan id="IL_tspan" x="927.43" y="364.36" fill="#000000" dy="0" font-family="Arial" font-size="24.06" font-style="normal" font-weight="400" style="text-align: center; stroke-width: 2.57215; fill: rgb(0, 0, 0);" text-anchor="middle">IL</tspan>
        </text>
        <text id="CT_label" x="1299.17" y="228.46" stroke-width="1.06" font-size="12.74" style="display: none;">
          <tspan id="CT_tspan" x="1299.17" y="228.46" fill="#000000" stroke-width="1.06" dy="0" font-family="Arial" font-size="15.93" font-style="normal" font-weight="400" style="text-align: center; fill: rgb(0, 0, 0);" text-anchor="middle">CT</tspan>
        </text>
        <text id="WI_label" x="898.6" y="224.7" style="font-size: 19.2455px; stroke-width: 1.60379; display: none;">
          <tspan id="WI_tspan" x="898.6" y="224.7" fill="#000000" dy="0" font-family="Arial" font-size="24.06" font-style="normal" font-weight="400" style="text-align: center; stroke-width: 2.57215; fill: rgb(0, 0, 0);" text-anchor="middle">WI</tspan>
        </text>
        <text id="NC_label" x="1205.6" y="458.72" style="font-size: 19.2455px; stroke-width: 1.60379; display: none;">
          <tspan id="NC_tspan" x="1205.6" y="458.72" fill="#000000" dy="0" font-family="Arial" font-size="24.06" font-style="normal" font-weight="400" style="text-align: center; stroke-width: 2.57215; fill: rgb(0, 0, 0);" text-anchor="middle">NC</tspan>
        </text>
        <text id="MA_label" x="1305.87" y="200.67" stroke-width="1.04" font-size="12.46" style="display: none;">
          <tspan id="MA_tspan" x="1305.87" y="200.67" fill="#000000" stroke-width="1.04" dy="0" font-family="Arial" font-size="15.58" font-style="normal" font-weight="400" style="text-align: center; fill: rgb(0, 0, 0);" text-anchor="middle">MA</tspan>
        </text>
        <text id="MO_label" x="854.22" y="422.93" style="font-size: 19.2455px; stroke-width: 1.60379; display: none;">
          <tspan id="MO_tspan" x="854.22" y="422.93" fill="#000000" dy="0" font-family="Arial" font-size="24.06" font-style="normal" font-weight="400" style="text-align: center; stroke-width: 2.57215; fill: rgb(0, 0, 0);" text-anchor="middle">MO</tspan>
        </text>
        <text id="GA_label" x="1106.89" y="574.56" style="font-size: 19.2455px; stroke-width: 1.60379; display: none;">
          <tspan id="GA_tspan" x="1106.89" y="574.56" fill="#000000" dy="0" font-family="Arial" font-size="24.06" font-style="normal" font-weight="400" style="text-align: center; stroke-width: 2.57215; fill: rgb(0, 0, 0);" text-anchor="middle">GA</tspan>
        </text>
        <text id="SC_label" x="1166.32" y="522.49" style="font-size: 19.2455px; stroke-width: 1.60379; display: none;">
          <tspan id="SC_tspan" x="1166.32" y="522.49" fill="#000000" dy="0" font-family="Arial" font-size="24.06" font-style="normal" font-weight="400" style="text-align: center; stroke-width: 2.57215; fill: rgb(0, 0, 0);" text-anchor="middle">SC</tspan>
        </text>
        <text id="KY_label" x="1039.99" y="426.39" style="font-size: 19.2455px; stroke-width: 1.60379; display: none;">
          <tspan id="KY_tspan" x="1039.99" y="426.39" fill="#000000" dy="0" font-family="Arial" font-size="24.06" font-style="normal" font-weight="400" style="text-align: center; stroke-width: 2.57215; fill: rgb(0, 0, 0);" text-anchor="middle">KY</tspan>
        </text>
        <text id="AL_label" x="1019.59" y="578.15" style="font-size: 19.2455px; stroke-width: 1.60379; display: none;">
          <tspan id="AL_tspan" fill="#000000" dy="0" font-family="Arial" font-size="24.06" font-style="normal" font-weight="400" style="text-align: center; stroke-width: 2.57215; fill: rgb(0, 0, 0);" text-anchor="middle">AL</tspan>
        </text>
        <text id="LA_label" x="872.7" y="649.59" style="font-size: 19.2455px; stroke-width: 1.60379; display: none;">
          <tspan id="LA_tspan" x="872.7" y="649.59" fill="#000000" dy="0" font-family="Arial" font-size="24.06" font-style="normal" font-weight="400" style="text-align: center; stroke-width: 2.57215; fill: rgb(0, 0, 0);" text-anchor="middle">LA</tspan>
        </text>
        <text id="MS_label" x="940.37" y="592.21" style="font-size: 19.2455px; stroke-width: 1.60379; display: none;">
          <tspan id="MS_tspan" x="940.37" y="592.21" fill="#000000" dy="0" font-family="Arial" font-size="24.06" font-style="normal" font-weight="400" style="text-align: center; stroke-width: 2.57215; fill: rgb(0, 0, 0);" text-anchor="middle">MS</tspan>
        </text>
        <text id="IA_label" x="823.33" y="308.44" style="font-size: 19.2455px; stroke-width: 1.60379; display: none;">
          <tspan id="IA_tspan" x="823.33" y="308.44" fill="#000000" dy="0" font-family="Arial" font-size="24.06" font-style="normal" font-weight="400" style="text-align: center; stroke-width: 2.57215; fill: rgb(0, 0, 0);" text-anchor="middle">IA</tspan>
        </text>
        <text id="MN_label" x="790.84" y="183.37" style="font-size: 19.2455px; stroke-width: 1.60379; display: none;">
          <tspan id="MN_tspan" x="790.84" y="183.37" fill="#000000" dy="0" font-family="Arial" font-size="24.06" font-style="normal" font-weight="400" style="text-align: center; stroke-width: 2.57215; fill: rgb(0, 0, 0);" text-anchor="middle">MN</tspan>
        </text>
        <text id="OK_label" x="732.05" y="519.54" style="font-size: 19.2455px; stroke-width: 1.60379; display: none;">
          <tspan id="OK_tspan" x="732.05" y="519.54" fill="#000000" dy="0" font-family="Arial" font-size="24.06" font-style="normal" font-weight="400" style="text-align: center; stroke-width: 2.57215; fill: rgb(0, 0, 0);" text-anchor="middle">OK</tspan>
        </text>
        <text id="TX_label" x="710.59" y="652.87" style="font-size: 19.2455px; stroke-width: 1.60379; display: none;">
          <tspan id="TX_tspan" x="710.59" y="652.87" fill="#000000" dy="0" font-family="Arial" font-size="24.06" font-style="normal" font-weight="400" style="text-align: center; stroke-width: 2.57215; fill: rgb(0, 0, 0);" text-anchor="middle">TX</tspan>
        </text>
        <text id="NM_label" x="506.94" y="542.36" style="font-size: 19.2455px; stroke-width: 1.60379; display: none;">
          <tspan id="NM_tspan" x="506.94" y="542.36" fill="#000000" dy="0" font-family="Arial" font-size="24.06" font-style="normal" font-weight="400" style="text-align: center; stroke-width: 2.57215; fill: rgb(0, 0, 0);" text-anchor="middle">NM</tspan>
        </text>
        <text id="KS_label" x="701.21" y="427.26" style="font-size: 19.2455px; stroke-width: 1.60379; display: none;">
          <tspan id="KS_tspan" x="701.21" y="427.26" fill="#000000" dy="0" font-family="Arial" font-size="24.06" font-style="normal" font-weight="400" style="text-align: center; stroke-width: 2.57215; fill: rgb(0, 0, 0);" text-anchor="middle">KS</tspan>
        </text>
        <text id="NE_label" x="686.63" y="337.29" style="font-size: 19.2455px; stroke-width: 1.60379; display: none;">
          <tspan id="NE_tspan" x="686.63" y="337.29" fill="#000000" dy="0" font-family="Arial" font-size="24.06" font-style="normal" font-weight="400" style="text-align: center; stroke-width: 2.57215; fill: rgb(0, 0, 0);" text-anchor="middle">NE</tspan>
        </text>
        <text id="SD_label" x="663.02" y="238.75" style="font-size: 19.2455px; stroke-width: 1.60379; display: none;">
          <tspan id="SD_tspan" x="663.02" y="238.75" fill="#000000" dy="0" font-family="Arial" font-size="24.06" font-style="normal" font-weight="400" style="text-align: center; stroke-width: 2.57215; fill: rgb(0, 0, 0);" text-anchor="middle">SD</tspan>
        </text>
        <text id="ND_label" x="663.02" y="150.75" style="font-size: 19.2455px; stroke-width: 1.60379; display: none;">
          <tspan id="ND_tspan" x="663.02" y="150.75" fill="#000000" dy="0" font-family="Arial" font-size="24.06" font-style="normal" font-weight="400" style="text-align: center; stroke-width: 2.57215; fill: rgb(0, 0, 0);" text-anchor="middle">ND</tspan>
        </text>
        <text id="WY_label" x="499.57" y="276.47" style="font-size: 19.2455px; stroke-width: 1.60379; display: none;">
          <tspan id="WY_tspan" x="499.57" y="276.47" fill="#000000" dy="0" font-family="Arial" font-size="24.06" font-style="normal" font-weight="400" style="text-align: center; stroke-width: 2.57215; fill: rgb(0, 0, 0);" text-anchor="middle">WY</tspan>
        </text>
        <text id="MT_label" x="487.84" y="155.58" style="font-size: 19.2455px; stroke-width: 1.60379; display: none;">
          <tspan id="MT_tspan" x="487.84" y="155.58" fill="#000000" dy="0" font-family="Arial" font-size="24.06" font-style="normal" font-weight="400" style="text-align: center; stroke-width: 2.57215; fill: rgb(0, 0, 0);" text-anchor="middle">MT</tspan>
        </text>
        <text id="CO_label" x="525.13" y="406.28" style="font-size: 19.2455px; stroke-width: 1.60379; display: none;">
          <tspan id="CO_tspan" x="525.13" y="406.28" fill="#000000" dy="0" font-family="Arial" font-size="24.06" font-style="normal" font-weight="400" style="text-align: center; stroke-width: 2.57215; fill: rgb(0, 0, 0);" text-anchor="middle">CO</tspan>
        </text>
        <text id="ID_label" x="339.94" y="235.07" style="font-size: 19.2455px; stroke-width: 1.60379; display: none;">
          <tspan id="ID_tspan" x="339.94" y="235.07" fill="#000000" dy="0" font-family="Arial" font-size="24.06" font-style="normal" font-weight="400" style="text-align: center; stroke-width: 2.57215; fill: rgb(0, 0, 0);" text-anchor="middle">ID</tspan>
        </text>
        <text id="UT_label" x="396.81" y="386.73" style="font-size: 19.2455px; stroke-width: 1.60379; display: none;">
          <tspan id="UT_tspan" x="396.81" y="386.73" fill="#000000" dy="0" font-family="Arial" font-size="24.06" font-style="normal" font-weight="400" style="text-align: center; stroke-width: 2.57215; fill: rgb(0, 0, 0);" text-anchor="middle">UT</tspan>
        </text>
        <text id="AZ_label" x="366.76" y="536.9" style="font-size: 19.2455px; stroke-width: 1.60379; display: none;">
          <tspan id="AZ_tspan" x="366.76" y="536.9" fill="#000000" dy="0" font-family="Arial" font-size="24.06" font-style="normal" font-weight="400" style="text-align: center; stroke-width: 2.57215; fill: rgb(0, 0, 0);" text-anchor="middle">AZ</tspan>
        </text>
        <text id="NV_label" x="262.47" y="370.64" style="font-size: 19.2455px; stroke-width: 1.60379; display: none;">
          <tspan id="NV_tspan" x="262.47" y="370.64" fill="#000000" dy="0" font-family="Arial" font-size="24.06" font-style="normal" font-weight="400" style="text-align: center; stroke-width: 2.57215; fill: rgb(0, 0, 0);" text-anchor="middle">NV</tspan>
        </text>
        <text id="OR_label" x="214.43" y="206.88" style="font-size: 19.2455px; stroke-width: 1.60379; display: none;">
          <tspan id="OR_tspan" x="214.43" y="206.88" fill="#000000" dy="0" font-family="Arial" font-size="24.06" font-style="normal" font-weight="400" style="text-align: center; stroke-width: 2.57215; fill: rgb(0, 0, 0);" text-anchor="middle">OR</tspan>
        </text>
        <text id="WA_label" x="238.05" y="102.99" style="font-size: 19.2455px; stroke-width: 1.60379; display: none;">
          <tspan id="WA_tspan" x="238.05" y="102.99" fill="#000000" dy="0" font-family="Arial" font-size="24.06" font-style="normal" font-weight="400" style="text-align: center; stroke-width: 2.57215; fill: rgb(0, 0, 0);" text-anchor="middle">WA</tspan>
        </text>
        <text id="CA_label" x="191.69" y="434.8" style="font-size: 19.2455px; stroke-width: 1.60379; display: none;">
          <tspan id="CA_tspan" x="191.69" y="434.8" fill="#000000" dy="0" font-family="Arial" font-size="24.06" font-style="normal" font-weight="400" style="text-align: center; stroke-width: 2.57215; fill: rgb(0, 0, 0);" text-anchor="middle">CA</tspan>
        </text>
        <text id="DC_label" x="1309.32" y="398.19" stroke-width="1.29" font-size="15.45" style="display: none;">
          <tspan id="DC_tspan" x="1309.32" y="398.19" fill="#000000" stroke-width="1.29" dy="0" font-family="Arial" font-size="19.31" font-style="normal" font-weight="400" style="text-align: center; fill: rgb(0, 0, 0);" text-anchor="middle">DC</tspan>
        </text>
        <text id="TN_label" x="1018.93" y="485.72" style="font-size: 19.2455px; stroke-width: 1.60379; display: none;">
          <tspan id="TN_tspan" x="1018.93" y="485.72" fill="#000000" dy="0" font-family="Arial" font-size="24.06" font-style="normal" font-weight="400" style="text-align: center; stroke-width: 2.57215; fill: rgb(0, 0, 0);" text-anchor="middle">TN</tspan>
        </text>
        <text id="AR_label" x="863.15" y="535.77" style="font-size: 19.2455px; stroke-width: 1.60379; display: none;">
          <tspan id="AR_tspan" x="863.15" y="535.77" fill="#000000" dy="0" font-family="Arial" font-size="24.06" font-style="normal" font-weight="400" style="text-align: center; stroke-width: 2.57215; fill: rgb(0, 0, 0);" text-anchor="middle">AR</tspan>
        </text>
      </g>
      <g id="state_borders" transform="translate(-0.04777967,-0.15336683)" stroke="rgb(209, 219, 221)" style="stroke: rgb(0, 0, 0);" stroke-width="0.3">
        <path id="VT_MA_border" d="m1275.22 193.03 10.12-2.73 7.8-2.06" stroke="rgb(209, 219, 221)" stroke-width="0.3" fill="none" style="stroke: rgb(0, 0, 0); display: none;"/>
        <path id="VT_NH_border" d="m1292.38 112.77.78-.25-.38.54-.5-.1-.4.42-.01.52.74.6.3.94.58.45-.73 2.2.2.3-.26.9.24.63-.32.42-.3.96-.24.18 1.16 1.36.68 1.15.49.04.53.6.29.88.48.28-.3.84-.67.2-.08.38.72.4-.23.67.43.3-.3.7-.9.77.02 1.05-.74 1.16-1.15.56-.67.64-.17.44.3.77-1.18.98-.67-.13-.48.47-1.13.34-.47.68-.46.2.15.5-.4.7-.05.52.74.86.06 1.6.9.82.33.7-.28.5.17.54.54.14.1.45-.64 1.29-.4 1.77.3.75.39.06-.25.64.18.86-.5.74-.26.8.22.28-.31.53.55 1.53-.25.68.1.47-.36.87-.71.7-.4 1.15.28 1.1.03.85-.22.2.05.73.25.37-.76.95-.05.57.24.64-.13.96.56.49.02.93.43 2.27.05.96.57.1-.2.82.47.46-.1 1.69-.24.22.46 1.72-.2.39.3 1.43.76.65-.04.65.3.37-.4 1.26.34.7.57.4-.25.42-.05.95-.9.57-.22.5.5.9.04.67-.36.53.2 1 .84 1.33.59.29.37.77.4-.4 1.15 1.16" stroke="rgb(209, 219, 221)" stroke-width="0.3" fill="none" style="stroke: rgb(0, 0, 0); display: none;"/>
      </g>
      <rect id="selection-rectangle" fill="#ffffccaa" stroke="rgb(209, 219, 221)" stroke-width="0.1"/>
      <ellipse id="selection-ellipse" fill="#ffffccaa" stroke="rgb(209, 219, 221)" stroke-width="0.1"/>
      <polygon id="selection-polygon" fill="#ffffccaa" stroke="rgb(209, 219, 221)" stroke-width="0.1"/>
      <polyline id="selection-polyline" fill="#ffffccaa" stroke="rgb(209, 219, 221)" stroke-width="0.1"/>
    </svg>
  </g>
</svg>
