<?xml version='1.0' encoding='UTF-8'?>
<svg xmlns="http://www.w3.org/2000/svg" xmlns:dc="http://purl.org/dc/elements/1.1/" xmlns:ns2="http://creativecommons.org/ns#" xmlns:rdf="http://www.w3.org/1999/02/22-rdf-syntax-ns#" id="wrapper" viewBox="0 0 1520 840" preserveAspectRatio="xMinYMin" height="840" width="1520" style="background-color: rgb(255, 255, 255);">
  <metadata>
    <rdf:rdf>
      <ns2:work rdf:about="">
        <dc:format>image/svg+xml</dc:format>
        <dc:type rdf:resource="http://purl.org/dc/dcmitype/StillImage"/>
        <dc:title>MapChart Map</dc:title>
        <dc:creator>
          <ns2:agent>
            <dc:title>MapChart.net</dc:title>
          </ns2:agent>
        </dc:creator>
        <ns2:license rdf:resource="http://creativecommons.org/licenses/by-sa/4.0/"/>
        <dc:description>This map was created with MapChart.net, a website for creating custom maps.</dc:description>
      </ns2:work>
      <ns2:license rdf:about="http://creativecommons.org/licenses/by-sa/4.0/">
        <ns2:permits rdf:resource="http://creativecommons.org/ns#Reproduction"/>
        <ns2:permits rdf:resource="http://creativecommons.org/ns#Distribution"/>
        <ns2:requires rdf:resource="http://creativecommons.org/ns#Notice"/>
        <ns2:requires rdf:resource="http://creativecommons.org/ns#Attribution"/>
        <ns2:requires rdf:resource="http://creativecommons.org/ns#ShareAlike"/>
      </ns2:license>
    </rdf:rdf>
  </metadata>
  <g id="map-group" transform="translate(-6890.37138239305,-2072.8618964341636) scale(6.51669276226072)">
    <svg id="map" width="1520" height="840" version="1.1" viewBox="0 0 1520 840" preserveAspectRatio="xMinYMin" data-originalStrokeWidth="0.3">
      <defs>
        <pattern id="circles3" width="10" height="10" patternUnits="userSpaceOnUse">    <rect width="10" height="10" fill="#fff"/>    <circle cx="4" cy="4" r="2" fill="#000"/>    </pattern>
        <pattern id="diagonal1" width="10" height="10" patternUnits="userSpaceOnUse">    <rect width="10" height="10" fill="#fff"/>    </pattern>
        <pattern id="diagonal3" width="10" height="10" patternUnits="userSpaceOnUse">    <rect width="10" height="10" fill="#fff"/>    </pattern>
        <pattern id="vertical1" width="10" height="10" patternUnits="userSpaceOnUse">    <rect width="10" height="10" fill="#fff"/>    <rect x="2" y="0" width="1" height="10" fill="#000"/>    </pattern>
        <pattern id="vertical3" width="10" height="10" patternUnits="userSpaceOnUse">    <rect width="10" height="10" fill="#fff"/>    <rect x="2" y="0" width="3" height="10" fill="#000"/>    </pattern>
        <pattern id="horizontal1" width="10" height="10" patternUnits="userSpaceOnUse">    <rect width="10" height="10" fill="#fff"/>    <rect x="0" y="2" width="10" height="1" fill="#000"/>    </pattern>
        <pattern id="horizontal3" width="10" height="10" patternUnits="userSpaceOnUse">    <rect width="10" height="10" fill="#fff"/>    <rect x="0" y="2" width="10" height="3" fill="#000"/>    </pattern>
        <pattern id="crosshatch" width="8" height="8" patternUnits="userSpaceOnUse">    <rect width="8" height="8" fill="#fff"/>    </pattern>
        <pattern id="subtlepatch" width="5" height="5" patternUnits="userSpaceOnUse">    <rect width="5" height="5" fill="#fff"/>    <rect x="2" y="2" width="1" height="1" fill="#000"/>    </pattern>
        <pattern id="checkers" width="8" height="8" patternUnits="userSpaceOnUse">    <rect width="8" height="8" fill="#fff"/>    </pattern>
        <pattern id="raindrops" width="10" height="10" patternUnits="userSpaceOnUse">    <rect width="10" height="10" fill="#fff"/>    </pattern>
        <pattern id="texture" width="4" height="4" patternUnits="userSpaceOnUse">    <rect width="4" height="4" fill="#fff"/>    </pattern>
        <pattern id="circles3_a03500_000000" width="10" height="10" patternUnits="userSpaceOnUse">    <rect width="10" height="10" fill="#a03500"/>    <circle cx="4" cy="4" r="2" fill="#000000"/>    </pattern>
        <pattern id="diagonal1_d9b400_535353" width="10" height="10" patternUnits="userSpaceOnUse">    <rect width="10" height="10" fill="#d9b400"/>    </pattern>
        <pattern id="diagonal3_3264c8_ffffff" width="10" height="10" patternUnits="userSpaceOnUse">    <rect width="10" height="10" fill="#3264c8"/>    </pattern>
        <pattern id="horizontal1_72b38e_000000" width="10" height="10" patternUnits="userSpaceOnUse">    <rect width="10" height="10" fill="#72b38e"/>    <rect x="0" y="2" width="10" height="1" fill="#000000"/>    </pattern>
        <pattern id="horizontal3_986ba1_ffffff" width="10" height="10" patternUnits="userSpaceOnUse">    <rect width="10" height="10" fill="#986ba1"/>    <rect x="0" y="2" width="10" height="3" fill="#ffffff"/>    </pattern>
        <pattern id="vertical1_b9a087_ffffff" width="10" height="10" patternUnits="userSpaceOnUse">    <rect width="10" height="10" fill="#b9a087"/>    <rect x="2" y="0" width="1" height="10" fill="#ffffff"/>    </pattern>
        <pattern id="vertical3_4c91bf_ffff33" width="10" height="10" patternUnits="userSpaceOnUse">    <rect width="10" height="10" fill="#4c91bf"/>    <rect x="2" y="0" width="3" height="10" fill="#ffff33"/>    </pattern>
        <pattern id="checkers_cc3333_f7f7f7" width="8" height="8" patternUnits="userSpaceOnUse">    <rect width="8" height="8" fill="#cc3333"/>    </pattern>
        <pattern id="texture_d1dbdd_525252" width="4" height="4" patternUnits="userSpaceOnUse">    <rect width="4" height="4" fill="#d1dbdd"/>    </pattern>
        <style id="map-style">svg { background-color: #ffffff; }</style>
      </defs>
      <path id="VA01" d="m1253.3 384.85-.08.23-.37.1-.61.36-.22-.26-.46-.08-.17.2-.16-.08-.42.31.15.21-.24.27-.34.09-.17-.09-.36.13-.44-.17-1.52-1.26v-.15l-.45-.55-.2.13-1.3-1.1-.17.29-.4.1.36.57.15.05-.01.26-.37.23-.21.4-.23-.3-.19-.4-.37-.37-.58-.33h-.27l-.8.2-.18.25-.66.33-.66.07-.02.11.57.05.1.1-.1.35-.36.11-.2-.17-.48-.21-.49-.6-.78-.2-.66.26-.47.07-.17-.22.13-.09-.06-.28-.19.04-.24-.27-.1-.43.17-.37-.32-.4.05-.27-.15-.47v-.3l-.2-.15.04-.5-.14-.15-.2.07-.2.31-.22.45-.2-.08.06-.39.18-.24.01-.19-.53-.14-.03-.15.24-.18-.03-.36-.27.35-.26-.08-.05.4-.24.2-.09-.3.13-.24-.2-.3-.18.26-.41.02-.14-.07-.02-.27-.27-.02-.18.24-.19-.05-.2.19-.35.02-.2-.38-.22.13-.3-.08-.29.16-.07-.2-.42-.07-.47.15-.48-.32-.19-.03-.33-.42-.31.18-.06-.25-.49.12.03-.31-.28.21-.73-.63-.4-.15-.49-.5-.3-.14-.2.1-.36-.06-.24-.17-.66-.05-.18-.1-.31.08-.3-.14-1.12-.23-.42-.22-.48-.04-.28-.2-.07.05-.2-.27.04-.26-.34-.2-.38-.35-.13.03-.4.38-.18-.01-.25-.25-.18.15-.46-.38-.09.25-.1-.16-.17.01.02.36-.12.15-.47-.04-.1.58.5.3.5.64-.19.1.07.17.24.09-.15.11-.45-.25.01.29-.22.42.24-.04.06.11.24-.07-.02.32-.44.07-.28.23h-.43l-.4.2.06.3-.1.06.28.31.32-.04.3-.19.27-.26.29.37.37-.21.05.19-.12.43-.37.43-.4 1.24-.1.07-.77.33.1.12.27-.06.21.12.04.22.23.13-.61.5-.15.21.4.3h.2l.43-.15v.48l.39.01.2.16-.35.14-.07.47-.35-.23-.13.37.13.13-.01.52-.14.03-.05.45.72-.07.43.31.44.03.38-.36.03.17-.14.42.05.86.32.62.2.26-.3.2.04.29-.1.03-.25-.24-.45-.13-.15-.31-.3-.15-.13.17-.32-.01-.2.22-.21.03-.38-.37-.25-.4-.34.12-.05.34-.13.05-.31-.4-.2-.08-.16.15.07.38-.43.1.04.46-.14.16-.34.02-.28-.14-.1-.31-.47-.26-.31-.02-.28-.1-.13-.33.25-.33-.11-.3h-.52l-.47.11-.37-.13-.1-.33-.3-.14-.3.07-.11-.09-.15-.54.17-.4-.14-.13-.21-.48.05-.1.36.05.1-.16.15.09.3-.34.56-.25.01-.38.1-.26-.09-.45 2.25-3.41.56-.8.29-.04-.02-.32.38-.15-.11-.33-.24-.04-.11-.25-.3-.02-.17-.32-.23-.05v-.22l-.22-.5.04-.61v-.61l-.1-.3.09.01.03-.62h-.14l-.25-.56.43-.04.05-.08-.53-.06-.07.1-.1-.32-.2-.14-.02-.39.35.23.22-.5.3-.03.14-.34.27-.37.23-.59-.1-.26h.13l.33.23.22-.18.27.1-.22.58.18-.1.26.02.36-.21.27-.03.25.1.51-.3v-.47l.07.1.2-.18-.06-.2.37.07-.04-.28.43.05.4-.15.08-.14.3-.04.02.36.18.17-.27.01.01.2.23.04.2-.1.34-.05-.02-.3.14-.4.45.07.26-.51.44-.65.26-.53v-.23l.21-.09.27-.69.24-.48-.1-.3.04-.33-.1-.25.04-.19.22-.04.19.26.2-.17.2.03-.05.3.2.16.05-.2.18.06.4-.21-.01-.17h-.16l.05-.22.14-.07-.29-.1.05-.12-.02-.47-.2-.36-.02-.26.23-.54.29-.19.08-.16.66-.11.38-.14.2.19.24-.04.45-.38-.36-.53.08-.16-.3-.18-.24-.3-.32.16-.3-.08-.1.13-.31-.08v-.38l.09-.17-.27-.3-.38.05-.14-.08.05-.26-.4-.1-.36-.42.17-.3.15-.07.17-.5-.14-.18-.06-.39.27-.14h.39l.22-.28-.27-.17-.15-.47.4-.48.26-.03.15.4.2.15.16-.26-.13-.29.14-.18-.1-.39.26-.17v-.15l-.51-2.44h.25l.07-.34.33-.11.08-.27.16-.01.16.06.34-.11.59.4.28.58-.17.36.23.37.68.21.36-.04.3.04 1.05.56.39-.07.54.1.38-.11.5-.3.28-.07.68-.08.47.24.2.2.12.4.24.03.44-.69-.03-.34.28-.07.68.22.31.34h.12l.4.3.12-.2-.22-.46-.21-.14.3-.22.45.04.1.32.22.18.25.59.57.32.65.16.62.24.11.3.45.46-.18.05-.2.29-.27.01.1.34-.1.2.48-.02.05-.2.23.04.15-.14.54.12h.69l-.2.08.31.17.1-.03.1.25-.24.14.08.28.26-.13.52-.05.19.18.18-.03.33.25.84.12.61-.03.39.04.6.17 1.09.32.44.12.46.26.1.15.38.1-.04.67.08.5-.06.05.13.53-.25.64-.17.2h-.19l-.1-.23-.53.14-.07.3h.13l.08.37-.03.29h-.11l.1.32.19-.21.21.06.31-.09.02.19-.17-.12-.3.18-.06.19.13.3-.19.08.23.3-.1.12.08.2.15.04.1.27-.36-.11.03.3.24.34.44.34.1.35-.3-.04.12.3-.32-.04-.2.18.29.23-.2.4v.27l.26.27.13.48.32.02.14-.3-.1-.21.54.05.46.47-.02.14-.27.05-.38-.07-.19-.1-.18.2-.29-.09-.49.28-.1.36-.58-.4-.25-.05-.26.16-.39-.24h-.36l-.34-.28-.28.18-.27-.28-.35-.1.03-.17.3-.3-.48-.48-.18.1-.18.32.3.19-.11.1-.11.43-.2.35.2-.03-.08.34-.2.1-.73-.42-.14-.22-.1-.6-.13-.33-.18-.26-.4-.17-.2-.33-.27-.13-.15-.37-.54-.67-.4.06-.48-.23-.07-.1-.25.08-.13-.06.18-.27-.05-.1-.41-.07-.15.34-.25-.3-.3-.1-.36-.34-.5.23-.36-.24-.33-.03-.23-.39-.27-.1-.02-.32-.3-.27-.47.01-.06-.31-.16-.29-.35-.32-.56-.3-.27.1-.33-.2-.28.11-.57-.53.06-.14-.26-.5-.31-.04-.24-.22-.51.12-.3-.33-.42.09-.08.6.33.17.26-.02.31-.17.36.05-.1.63h.18l.63.35.3.4.13.1.53-.06.2.34.42.07.28-.02.1.3.32.29.13.32.33.2.23.24.01.16.33.36.15.06.6.68.33.25.22.02.62-.13.26.08.05.48.22.26.35.05.59-.13h.28l.35.13-.14.12.16.24.35.1.3.18.14.52.23.14.09.28.3.3-.19.28.46.2-.03.24.6.35.3.33.43.18h.16l.84-.28.4-.04.43-.18.65-.1-.05.48.3.21.36.16.17-.08.66.1.6-.18.64-.05.53.1.3-.04.02.33-.17.2-.4.12.12.47-.13-.22-.2-.08v.15l-.36.11-.13.14.22.63.23.22.4-.09.41.5.22-.15.28-.67-.07-.26.23-.02.22.16.39.5.14.23-.7-.14v-.14l-.34.1v.2l.83.24.02.3.41.18.3.07.05.28.17.18.14.45.3.82.14.47-.16.58-.24.3-.02.2.24.59.05.51-.65-.28-.3.02-.24-.47-.15.07-.52-.42-.07-.13-.3-.1-.14.1-.32-.09-.16-.16-.36-.01-.2-.15-.24-.32-.16-.44-.35.05v.29l.28.88.15.13-.06.23-.44-.32-.2.1-.34.06-.04-.2-.24.06-.1.27.03.31.4.27.2-.15.04-.17.3.32.28.06.07.15.27.12.26-.05.03.3-.2-.07-.06.15.17.12-.1.16h-.51l.04.33.42.07.28-.04.24-.26.31.08-.18.23.18.18.13-.11.18.35.2.13.6-.08-.02.2-.15.17-.4.12-.23.2-.14-.02-.52.14-.13.14.08.21-.29.02-.68.41-.3.07-.19-.11-.45.43-.04.2.46.35.62.15.35-.2.46-.13.36-.2.25-.06.55-.28-.21.71.37.35.07.58-.2-.08-.15.15.01.45.8-.01.4-.53.5-.16-.04.21.4.52.56.04.49.32-.06.36.17.1" fill="#d1dbdd" stroke="rgb(209, 219, 221)" stroke-width="0.1" data-originalStrokeWidth="0.1" style="stroke: rgb(0, 0, 0); fill: rgb(209, 219, 221); pointer-events: auto; stroke-width: 0.1;" pointer-events="auto"/>
      <path id="VA02" d="m1261.81 354.41.06-.12v-.14l.03-.1.06-.1h.05l.1.06h.07l.01-.03-.2-.18.03-.06v-.05l.13-.14.03-.15.2-.09.32-.1.02-.03.72-.26.61-.25.26-.11.14-.07.36-.13.1-.03.32-.13.52-.22.43-.16.47-.17.41-.15.38-.17.38-.16 2.14-.87.49-.17.03-.02.15-.06.3-.11-.2.7-.53 1.82-.27 1.34-.29 1.42-.45.9-.17.13-.27-.35-.18-.14.25-.27.52.2.26-.53-.12-.3h-.38l-.35.08-.17-.15-.57.24-.16.62.05.3-.3.1-.3.26-.6 1.19-.34.93-.2.65-.26 1.42-.16.42-.04 1.05.01.28-.15.26.02.45.07.25.05 1.01-.16.64.01.28.32.98.22-.06.13.17-.3 1.06-.64 2.05h-.38l-.05.47.26.27.56-.13.16.49-.26.55-.25.95-.28 1.16-.12.42v.52l-.13.55-.2.54-.39.65-.17-.13-.2.1-.09.18.24.56.22.7.01.35-.1.35.06.47-.25.3.21.36v.19l-.24.4.04.27-.45.66-.32.83-.32.69-.53.33.14-.4-.44-.13-.35.35-.48.27.18.3h.34l.23.14.04.28-.38.33-.4-.04-.19-.22-.01-.25.15-.32-.15-.52-.36-.75-.35-.3-.08-.18-.38-.41-.37-.29-.12-.18-.14-.78-.15-.12-.42-.58-.06-.38.18-.39-.16-.28.04-.26-.25-.04-.07-.54.02-.55.16-.47.12-.68.1-.12-.15-.38.25-.17.04-.48-.33-.06-.16-.33-.1-.72.11-.67.14-.41-.17-.16-.1-.8.04-.72.13-.43.06-.55-.28-.18-.04-.17.1-.55.28-.28-.27-.26.17-.92.14-.14.26.51.15.1.22-.17.09-.27-.22-.14-.11-.34-.25-.1v-.53l.45-.12-.25-.06.13-.4.32.03.2-.22-.2-.19-.08-.24.17-.17-.18-.09.23-.35-.09-.34.2-.08.32-.38.1.15.28-.38-.19-.15-.55.3-.1.1-.07-.28.31-.57.12.1.33-.25.08-.24-.13-.22-.23.17-.05-.3-.2-.28-.15.13-.2-.3.42-.6.19-.14.36-.02.4.2.16.16.22.05.36-.17v-.27l.19.05-.08-.38h-.16l.06-.2-.15-.22.16-.04-.08-.23.26-.1-.17-.19.06-.48h.15l.1.25.19.06.26-.09-.14-.12.18-.33-.5-.16-.14-.22.23-.32-.07-.41-.22.1-.27-.08.17-.29-.22-.02-.24.11-.33.04-.1.18-.7.17-.06-.11.48-.16-.24-.25.27-.38.12-.46.14-.16.26.23.24-.1.26-.49.35.1.55-.12.07-.34-.08-.3-.18-.21-.19-.06m-9.47 37.65.16.35v.25l-.13.16-.4 1.16-.18.95.14 1.01.37-.25.24.22.4-.42.15.05.3-.14.4.18h.37l.22.08.59-.18-.1.13.09.32.5-.16.8-.14.32.13.18-.16.08.13.46.13.1-.28-.13-.22.16-.12.51.36-.12-.57.2-.13-.12-.08.05-.33h.2l-.97-1.59-.01-.22.35.17.17-.07.2.1.1-.1.03-.3.19-.4v-.23l-.45-.17.04-.29-.35-.31.25-.72-.36-.3.08-.17h.29l-.08-.3h.95l.43.05.88.1.15-.2.55-.3.3-.5.34-.16.5-.02.31.13.29.48.95 1.82.4.87.8 1.46 1.25 1.95.35.51.88 1.16.79 1.34.45.98-.22.06-.37.1-.08.02-.22.06h-.02l-.12.03-.46.12-.84.22-.5.14-.49.14-.22.06-.56.14-.86.23-.1.02-.45.12-1.35.37h-.05l-.93.26h-.05l-.98.27-.31.08-.63.15-1 .27-1.52.4h-.02l-4 1.05-1.44.36-.4.11-.92.24-.38.1-1.07.29-.56.14-.42.1-.63.17-.85.2-.26.07-.38.08-1.36.34-.4.1-.04.04.02.06v.08l.05.06-.1.04-.05.02-.4.1-.7.17-1.07.26-2.19.56h-.04l.02-.45-.25-.1.12-.32.3.1.19.24.08.24.28.05.27-.42.24-.16.11-.42-.35.22-.26.04-.38-.29-.17-.26-.32-.07-.24-.2.08-.2.53.29-.18-.54.2.02v-.14l.56-.2-.1-.28-.26-.44-.68.38.03-.46.1-.29-.18-.04-.23-.35v-.29l-.35-.26-.1-.22.37.07.29-.05-.3-.15-.03-.2.19-.06-.04-.19-.35-.13.3-.53-.09-.16v-.33l.15-.34.06-.53.61-.17.12-.25.11-.04-.18-.38h.7l.55.13-.15-.7.2-.05v-.91l-.34-.02-.14-.14-.15.26-.4-.34.07-.38-.22-.02-.4.29-.18.01-.22-.29.02-.65.16-.1.7-.08.08-.16-.5-.44-.17-.24-.25.02-.1-.11.4-.4 2.97-3.18 1.26-1.2 1.31-1.18.28-.16-.1-.23.06-.48-.08-.08.24-.22.02-.2-.14-.3.18-.17-.12-.07-.15-.46.14-.29-.05-.24.12.01.28.65.19.17.1.47-.06.7.07.5.17.28.22.2.36.1.83-.19.67.04.27.18.09.17-.12.31.17.23.2-.04.15-.22.32.08.35.27.4.02.19.3.23.11h.45l.3.2.16.54-.27-.03v.4l.2.22.12-.05.26.17.07.57-.18.2.11.33.23.04.18-.2.46-.16-.05-.29.07-.36.12-.12.9.04m6.7-27.53-.1-.1.07-.26.17.09-.14.27m1.84-4.7.2.07-.1.18-.1-.26m-5.86.75.13.2-.34.58-.14-.15-.15-.63-.04-.37.54.37m-2.55-3.21.1-.05.1-.02.18-.04.86-.23-.03.28-.18-.12-.27.2-.05.22.2.3-.26.33-.17-.35.1-.36-.16-.19-.2.02-.08.18-.15-.18" fill="#d1dbdd" stroke="rgb(209, 219, 221)" stroke-width="0.1" data-originalStrokeWidth="0.1" style="stroke: rgb(0, 0, 0); fill: rgb(209, 219, 221); pointer-events: auto; stroke-width: 0.1;" pointer-events="auto"/>
      <path id="VA03" d="m1245.28 385.05.22-.4.37-.24.01-.26-.15-.05-.35-.58.38-.1.19-.29 1.3 1.11.2-.12.45.54-.01.14 1.52 1.28.44.16.36-.13.17.09.34-.09.24-.27-.15-.2.42-.32.16.07.18-.2.45.09.22.27.6-.36.38-.1.09-.24.45.16.32.36-.05.45.03.51-.08.78.04.85-.03.27-.27.04-.05-.22-.67-.02-.11.3-.64.5-.33.55-.2.5v.2l-.37-.02-.31-.25-.6-.54.02-.34-.55-.5-.89-.31-.48-.23-.15.03-.25-.19-.12-.47-.49-.22-.06-.14-.24-.1-.17-.26-.31-.1-.02.17.2.05.08.25.15.08.24.33-.19.03.13.15h-.22l-.53-.47-.48-.2-.08-.13-.55-.13-.3-.13.09-.35-.07-.19.13-.08.14-.5-.24-.07.06-.2m7.04 7 .4-.02.06-.16-.13-.74.7-.2.04.02.35.83.2-.03.54.13.11-.12-.07-.43-.28.02-.2-.42-.22-.72-.06-.68.31.18.36-.13-.06-.28-.2-.49.05-.05.2.4.48-.09.24.06.96.38.37.08.82.05.33-.04.08.28-.29.01-.08.17.35.3-.24.72.35.31-.04.3.46.16-.01.23-.2.4-.02.3-.1.1-.2-.1-.17.06-.35-.16.01.22.97 1.6-.2-.01-.05.33.12.08-.2.14.11.56-.5-.36-.16.12.14.22-.11.28-.46-.13-.09-.13-.17.16-.32-.14-.8.14-.5.17-.08-.32.09-.13-.6.18-.2-.09-.4.02-.39-.19-.28.14-.15-.05-.41.42-.24-.22-.37.25-.14-1.01.18-.96.4-1.16.12-.15.01-.25-.17-.35" fill="#d1dbdd" stroke="rgb(209, 219, 221)" stroke-width="0.1" data-originalStrokeWidth="0.1" style="stroke: rgb(0, 0, 0); fill: rgb(209, 219, 221); pointer-events: auto; stroke-width: 0.1;" pointer-events="auto"/>
      <path id="VA04" d="m1238.17 383.81-.19.33-.26.13-.1.3-.25.03-.01.3-.4-.05-.18.1-.08.32.6.24.7.37.28-.08.53-.44 1.16-.18.43-.14.03.25.19.24h.19l.25.26.57.18.48.46.46.04.34-.16.1-.39.03-.4.09-.14-.04-.66.13-.1.51.3.2.26-.05.52.13.52.05.24-.14.3.15.45.12.07-.18.18.14.3-.02.19-.24.22.1.08-.08.48.1.23-.28.16-1.31 1.18-1.26 1.21-2.97 3.17-.41.4.1.1h.26l.17.23.5.44-.08.16-.7.08-.16.1-.02.65.21.3.2-.02.4-.3.21.04-.06.38.4.33.14-.26.14.14.35.02v.91l-.21.05.15.7-.55-.13h-.7l.18.38-.1.04-.13.25-.61.17-.06.53-.15.34v.33l.1.16-.31.53.35.12.03.2-.18.06.03.19.3.16-.3.05-.38-.08.1.24.37.26v.28l.24.35.18.04-.11.3-.03.45.68-.38.27.43.09.3-.56.2v.13l-.19-.02.17.54-.53-.29-.08.2.24.2.32.07.17.26.38.29.26-.04.35-.21-.11.4-.24.17-.27.42-.28-.05-.08-.24-.2-.24-.29-.1-.12.32.25.1-.02.45-.85.23-.64.1h-.17l-.66.24-.18.08-.93.24-.2.04-1.08.26-.73.19-.6.14-1.19.31-1.17.29-.9.23-.3.06-.76.19h-.03l-.45.12-1 .24-.27.07-.94.23-.59.14-1.17.29-2.2.55-.61.17-.85.2-.14.05-.17.03-.2.05-.41.1-.47.12-.06.02-.39.08-.42.12-.34.1h-.03l-.25.06-.34.08-.45.12-.26.06-.23.08-.23.06h-.06l-.51-2.86-.26-1.39-.41-2.36-1.37-8.41.17-.04.03.2.49.32.23.25.24.14.25-.2.27.08.21-.08.1.09.38-.07.35-.26.29-.07-.13-.33-.67-2.2-.63-2.19.28-.09.38-.28.28-.51.23-.11.05-.16.43-.02.24-.13.15-.25-.03-.25.11-.07.03-.32.24-.13.92-.08.7-1.01.2-.2.28-.04.17-.27-.19.07-.01-.22.26-.13.05-.17.25-.03.05-.43.15-.1-.11-.27.2-.04.19-.22.33.01.13-.17.3.15.15.3.45.14.24.24.11-.03-.04-.29.3-.2-.2-.26-.31-.62-.05-.86.13-.42-.03-.17-.38.36-.44-.03-.43-.31-.72.07.05-.45.14-.03v-.52l-.12-.13.13-.37.35.23.07-.47.34-.14-.2-.16-.37-.01v-.48l-.45.16-.18-.01-.4-.3.14-.2.61-.5-.23-.14-.04-.22-.21-.12-.26.06-.1-.12.77-.33.1-.07.39-1.24.38-.43.1-.43-.04-.2-.37.22-.28-.37-.28.26-.3.19-.32.04-.3-.3.12-.07-.07-.3.41-.21.43.01.27-.23.45-.07.02-.32-.24.07-.06-.1-.24.03.22-.42-.01-.29.45.25.15-.1-.23-.09-.08-.18.19-.09-.5-.65-.5-.31.1-.57.47.04.12-.15-.02-.36h.17l.1.15.09-.25.46.38.18-.15.24.25h.2l.39-.37.13-.03.38.35.34.2-.03.27.2.26.06-.05.28.2.48.04.42.21 1.12.24.3.14.3-.08.2.1.65.06.24.16.36.07.2-.1.3.13.5.5.4.14.72.64.28-.2-.03.3.49-.12.06.25.31-.18.33.42.2.03.47.32.47-.16.42.08.07.2.29-.16.3.08.21-.13.21.38.35-.02.2-.2.2.06.17-.24.27.02.02.27.14.07.4-.02.19-.26.2.3-.13.23.1.3.23-.2.05-.39.27.08.27-.35.01.36-.23.18.03.15.53.15v.18l-.19.24-.04.39.18.08.23-.45.2-.31.19-.07.14.16-.04.5.2.15v.3l.15.46-.05.27.3.4-.15.37.1.42.25.28" fill="#d1dbdd" stroke="rgb(209, 219, 221)" stroke-width="0.1" data-originalStrokeWidth="0.1" style="stroke: rgb(0, 0, 0); fill: rgb(209, 219, 221); pointer-events: auto; stroke-width: 0.1;" pointer-events="auto"/>
      <path id="VA05" d="m1198.4 417.12-.58.14-.26.06-.04.02-1 .23-.72.16-.59.12-1.03.26-.47.1-.51.12-.17.03-.05.02-.39.09-.34.08-.9.2-.63.16-.35.08-.7.17-.31.08-1.57.36-.3.07-.23.06-.4.1-.08.02-.54.12-1.46.34-.29.06-.77.17h-.01l-.1.03-.37.1-.62.13-.31.08-.29.06-.43.09-.4.1-.28.08h-.05l-.15.04-.26.06-.33.07-.13.04h-.05l-.49.12h-.03l-.56.13-1.05.24-.5.08-.59.13-1.5.34-.6.13-.19-5.15-.14-3.93-.2-5.71v-1.37l.4.1.4-.04.03-.29.25-.01.15-.15-.2-.18.24.03.07.21.33.15.39.04.43.2.4.43h.14l.14-.28.19-.08v-.22l-.64-.29.03-.29-.38-.39.09-.2.2-.06.72.14.18-.07.97-4.17.47-2.1-.34-.11-.42.03-.83-.34-.55-.39.02-.25.29-.15-.24-.1-.05-.47.14-.12-.24-.18.03-.38.27-.27.17.06.14-.36h.33l.56-.62.07-.65-.2-.11-.28.08-.08-.17-.22.08-.1-.25-.19-.01-.17-.38.17-.16-.03-.19-.29.06-.3-.38-.1-.28-.2-.26-.3.11-.23-.14.08-.3-.06-.23.37-.26.03-.15.4-.22.2.13.26-.04.04.1.22-.3.27-.22.18-.25-.05-.19.2-.01-.3-.2-.5-.04-.4-.1-.68-.65-.19-.25-.19-.53-.33-.34-.06-.25-.16-.13-.28-.06-.27-.23-.27.1-.16.21-.31-.08-.1-.33.26-.02.1-.35.44-.12.38-.63.33-.17.1-.35.28-.22v-.59l.33-.54.07-.47-.1-.17.1-.49-.03-.24.12-.27.13-.68.18-.4.2-.76h.23l.16-.43.23-.28.48.24.01.19.27.14.23-.01.2-.24.2-.09.2-.2-.03-.17.08-.36.12-.14-.1-.22.1-.21-.16-.15.21-.73-.2-.2.07-.12-.24-.47-.17-.11h.29l.36-.31.15-.05.12-.21.37-.18v-.09l.48-.37h.2l.13-.15.26.08.15.4.2.25.64-.23.05.16.32.14.33-.55v-.2l.27-.4.33-.2-.1-.13.1-.39.17-.31.38-.09.1-.2.22-.03.26-.18-.1-.06-.02-.41.05-.43-.32.1-.07-.35.2-.3.15-.03.09-.45-.07-.3.12-.38.34-.07.14-.35.4-.61.76-.68-.04-.2.24-.23-.02-.43-.2-.17.08-.15-.07-.22-.14-.03-.15-.36.17-.22.03-.3-.03-.66-.07-.14.05-.32.21-.69-.04-.19.08-.45.33-.59.44-.06.32-.13.23.13.08-.3.44-.11-.08-.19.17-.2h.32l.23.09.3-.18.53.05.03-.29-.3-.13-.07-.22 2.2.36 2.69.37.57.1 1.38.15 1.97.37 1.6.31.55-.03.38-.14.17-.31.17-.02.2-.25.27.08.4-.14.06-.27.21-.2.52.05.22.14.08-.1.58.11.56-.16.02-.18.5.01.67.43.24-.15.19.08.35-.13.33.11.26-.08.15-.16.43.23.27-.22.19.08.7-.01.2.13.02-.2.16-.1.07.16.47.16.3.34.6-.04.32.5h.19l.43.19.24-.14v.29l.14.55.14-.32.29.1-.02.19.21-.1.13.19.2.07.3-.06.11.14.28-.1.35.07.34.26.44-.08.07.38.35.18.01.22.28-.11.22.18-.05.29.19-.01.03-.17.2-.05.28.1.19-.1.05-.25.38.28.15.3.13-.02.28.25-.21.17.32.14.18-.22.2-.03.1.14.37.28.56.1.08.23.24.12.16-.03.17-.24h.17l.34-.3.3.24.14.29.35.25-.08.29.2.84.1.13.36-.04.03.22-.2.06.1.2.3.12-.1.14-.38.15-.43-.06.04.29-.37-.08.06.2-.2.2-.07-.1v.48l-.5.28-.26-.1-.28.03-.35.2-.26-.03-.19.1.23-.56-.27-.1-.22.18-.33-.24-.13.01.1.26-.24.59-.27.37-.13.34-.3.04-.22.5-.34-.23v.39l.2.13.11.32.07-.1.53.06-.05.08-.43.04.25.56.14-.01-.02.63h-.1l.1.28v.62l-.05.61.22.5.01.22.23.05.17.32.3.02.1.25.25.04.1.33-.37.15.02.32-.28.06-.56.79-2.26 3.4.1.45-.1.27-.03.38-.55.24-.3.34-.14-.1-.1.17-.37-.05-.05.1.21.48.13.13-.16.4.15.54.12.08.3-.06.27.14.11.33.38.12.47-.1h.5l.12.3-.24.33.13.33.29.1.3.03.46.26.11.3.28.14.34-.02.14-.16-.04-.45.43-.12-.07-.37.15-.15.2.08.32.4.13-.05.05-.34.34-.11.25.4.38.36.1.29-.13.1-.05.42-.25.03-.05.17-.27.13.03.22.18-.07-.18.27-.27.05-.2.2-.7 1-.92.08-.24.13-.03.32-.1.07.02.25-.15.25-.24.13-.43.02-.05.16-.23.1-.28.52-.37.28-.3.1.64 2.18.67 2.2.13.33-.3.07-.34.26-.38.07-.1-.1-.21.1-.27-.09-.25.2-.24-.14-.23-.25-.5-.31-.02-.2-.18.03 1.37 8.4.42 2.36.26 1.4.51 2.86-.19.05-.11.03-.3.06-1.26.3-.16.04-.05.02-.06.02-.63.13-.2.06-.4.09-.34.08-1.2.29-.43.1-.14.04-1.14.29h-.01l-1 .25-.1.02-.16.04-.35.1-.5.12h-.04l-.28.08-.47.11-.42.12h-.05l-.15.05-.16.03-.6.19-.96.23-.14.03-.94.24-.45.1-.33.06-.04.02-.64.15-.55.11-.09.01-.29.08-.19.03-.5.12-.93.24" fill="#d1dbdd" stroke="rgb(209, 219, 221)" stroke-width="0.1" data-originalStrokeWidth="0.1" style="stroke: rgb(0, 0, 0); fill: rgb(209, 219, 221); pointer-events: auto; stroke-width: 0.1;" pointer-events="auto"/>
      <path id="VA06" d="M1173.85 387.79h-.19l-.22.44.06.21.3.37.12.28.18-.1.15.16-.11.3-.38.2-.07.37-.36.11-.5.74.07.26-.2.18-.06.28-.31.18-.07.31-.14.26-.3-.27-.2.43-.17.5-.04.33.09.36-.24.16-.37-.13h-.31l-.19.16-.31-.18-.1-.3-.56-.32-.41.14-.27.3-.27.58-.4.57-.57.79-.73.7-.2.03-.32.25.27.18.02.12.4.3.32-.12.1.25-.13.18v.64l-.29.25-.14.3-.46.44-.23.3-.02.28.23.3-.2.14.08.4.12.1-.22.42.43.54.22.54-.18.22.04.28-.21-.03-.26.11-.24.26.03.19-.2.17.11.38-.03.18-.37.23.03.38-.34.3-.16.27-.16.04-.12.4-.2.1-.35-.09-.36.07-.1-.28-.24.08-.14-.2.05-.22-.11-.04.07-.37-.15-.35.24-.12.43-.39.1-.25.22-.12-.33-.24-.35-.48-.04.2-.56-.35.13-.01-.17-.19-.57.3-.12.12-.24-.15v-.41l-.17.07-.19.36-.39-.17-.2.15-.21-.4-.44-.3-.4.27-.21.34-.37-.01-.12.15-.5.33-.14.19v.27l-.17-.12.11.29-.27.3-.3-.16-.05-.14-1.75-1.63-.3-1 .21-.38.5-.54.3-.18.23-.37 1.25-.4.18-.28.71-.69.11-.17.4-.4.6-.9.2-.91v-.2l.26-.66.01-.53.21-.3.19-.46.34-.5-1.03-1.15-.9-.96-.24-.46.21-.35-.37-.32-.34.5-.38.33v.11l-.37.4-.38.21-.35.56-.3.25-.15.2-.42-.12-.2-.12-.07-.22-.9.18-.45-.27-.5-.2-.06-.02-.35-.07-.35-.05-.3-.22-.05-.04-.64-1v-.04l.17-.12.09-.16.04-.1.28-.58.13-.09.08-.32-.3-.21v-.57l.17-.03-.02-.4.34-.4.34-.02-.4-.43.14-.6.25-.24.04-.3.13-.23.03-.13.07-.02.04-.06.03-.05.04-.02.07-.03.05-.05-.05-.06-.04-.07-.05-.04-.02-.07.02-.02-.02-.06.01-.07h.05l.08-.04v-.08l.05-.05.02-.08-.02-.04v-.06l.03-.1v-.07l.02-.04h.05l.02-.05-.02-.04.12-.26.04-.1.05-.06.08-.06-.02-.05.01-.06.1.07.1.03.62-1.1.06-.24h.16l.07-.3.4-.7.27-.26.37-.55.5-.92.21-.2v-.33l.25-.8.14-.24-.08-.13.13-.6.04-.17-.07-.09v-.06l.09-.48.4-.72.05-.13-.04-.12-.26-.05-.16-.4-.14-.18.18-.14.11-.12.05-.07-.03-.18.02-.14.02-.04.14-.17-.08-.24.07-.19-.12-.09.02-.08-.08-.15-.03-.1.07-.09-.01-.05.02-.07.16-.03.2-.3.05-.1.02-.02v-.17l.06-.1.13-.03.02-.05.15-.18.06-.19.06-.1.12-.22.2-.24.05-.21.02-.07.03-.02.2-.06.05-.25.25-.01.13-.14v-.29h.12l.16-.25.2-.13.04-.2-.32-.43-.2-.02-.25-.35v-.15l.18-.46.04-.1.16-.24.18-.07.1-.23.07-.2-.08-.1.08-.3.15-.07.38.03.3-.34-.07-.29-.1-.06.02-.43.28-.99.22-.3-.07-.1.1-.12.04-.05-.1-.25v-.16l-.04-.07.04-.13-.06-.25-.36-.42.08-.25-.1-.09-.04-.07.01-.12.25-.4v-.3l.26.04.01-.16.1-.08-.2-.32-.08-.05-.03-.1.06-.17v-.1l-.1-.03-.05-.33.1-.34.08-.08-.08-.13-.05-.04.15-.8 1.35.32.68.15h.18l.25.01.46.17.03.02.18.23.3.21.4.52.43.54.8 1.06 1.19.16.19.02.64.09.7.1 1.5.15.28-.16.23-.26.15.06.04-.2-.05-.08-.04-.05.04-.13.25-.27.01-.12.03-.04.02-.07.11-.37.08.04h.15l.04-.21-.04-.22.02-.11.28-.28.1-.15-.02-.23.18-.2v-.37l-.13-.1.01-.56.08-.34.24-.59.09-.49.1-.1-.04-.13.17-.73-.08-.23.06-.63.1-.5.1-.14.06-.42-.03-.08.22-.27h.11l.22.03.32-.17-.04-.14.05-.75-.2-.15-.11-.28.05-.46-.04-.22.07-.48.13-.48.06-.12.12-.2.03-.1.06-.34-.04-.1-.14-.21.14-.3.43-.09.08-.26-.09-.35.08-.08-.04-.13.06-.15.04-.02.04.01.14-.19-.01-.19.06-.57.06-.08.47.26 1.02.57 1.27.72h.05l.76.45.24-1.03.13-.37.08-.24.26-1.03.07-.55.26-1 .15-.28.43-.36.07-.19.02-.34.2-.43.37-.25.06-.14.02.42.06.19v.15l.15.22.23-.4h.16l.15-.38.19-.1.06-.11.28-.66.13-.72.22.01.07-.34.04-.14.18-.1.11.25.17-.1.05.15.26.13.14-.26.15-.57.2-.53.32-.57-.42-.17-.2-.15.46-.84.08-.16.27-.36.17-.35-.02-.13.36-.65.35-.43.11.03.07-.12.21-.13.3-.6.04-.4.14-.38.27-.27.11-.22.02-.13-.4-.2-.14-.14-.14-.1.05-.2-.36-.09.04-.1.06-.15.02-.07.04-.01.05-.18.32-.72-.06-.3.1-.1-.44-.28h-.1l-.03-.04.07-.18.23-.67.13-.07.01-.07.07-.23v-.16l.33-.54v-.11l.04-.1-.04-.02.1-.03.03-.1.05-.32.04-.12v-.05l.06-.15-.05-.12.15-.21-.08-.15-.25.01-.29-.01-.12-.04.24-.56.11-.48-.22-.03v-.21l-.18-.12-.16-.17.03-.25.16-.4-.23-.24.1-.15-.09-.6-.07-.19.47.23.65.33 1.22.57.14.07.26.13.11.06.73.4 1.23.64.5.29.3.11.33.17.8.4.22.1.72.37.2.08.19.1.78.39.74.37.2.09.25.12.68.35.27.13.47.24.73.36.65.33.26.12.62.32h.04l.89.46-.26.5-.16 1.29-.32.18-.2.79-.24.37-.4.43-.24.46-.35.16-.12.44-.49.5.03.09-.41.83-.2.74-.15.14-.05.3-.37.29-.05.29-.17.4.14.27.27.05.06.24-.26.1.02.14-.44.15-.02.18-.4.08-.28.32-.02.36-.28.16.04.1-.22.1.06.19-.1.12-.02.28-.17.14.04.47-.15.14.03.75-.18.21.01.2-.2.28-.54.3-.13.26-.15-.01-.15.24-.46-.04-.3.16-.09.29-.13.02-.11.45-.33.1v.55l-.08.52.34.15.25.46-.14.38.16.04.01.29.17.25-.08.7-.28.19-.28.56-.13-.03-.2.69-.17.24v.19l.26.6-.1.2-.17.09-.42.36-.03.41-.23.33-.2-.09-.07.12.19.13-.08.23.02.55.13.12-.16.99-.08.2.04.4-.18.02-.1.57v.48l-.15.27-.09.43-.28.15.01.41-.11.32.1.06-.43.25-.03.42-.12.17.13.35-.14.2-.62.37-.27.43.03.18-.55.39-.08.27-.42.05-.18.58.12.23-.1.12.25.12-.2.49-.33-.17-.33.36-.16.01-.1.3-.3.35-.33.58-.08.44.04.2-.21.68-.05.33.07.14.03.67-.03.28-.18.23.16.36.14.03.06.22-.06.15.19.18.02.42-.24.23.04.2-.77.68-.39.6-.14.36-.34.07-.12.37.07.31-.1.45-.14.02-.2.3.07.37.32-.11-.06.43.04.4.09.07-.26.18-.22.03-.1.2-.38.09-.17.31-.1.39.1.13-.33.2-.27.4v.2l-.33.55-.32-.14-.05-.16-.64.23-.2-.25-.15-.4-.26-.08-.13.15h-.19l-.5.37v.09l-.37.18-.11.21-.15.05-.37.31h-.28l.17.1.24.47-.08.13.21.2-.2.73.15.15-.08.21.08.22-.12.14-.08.36.04.16-.2.2-.22.1-.18.24-.24.01-.26-.15v-.18l-.5-.24-.23.28-.17.43h-.23l-.19.77-.17.39-.14.67-.12.28.04.24-.11.49.1.18-.07.46-.34.54.01.58-.27.23-.1.35-.34.17-.38.63-.44.12-.1.35-.27.02" fill="#d1dbdd" stroke="rgb(209, 219, 221)" stroke-width="0.1" data-originalStrokeWidth="0.1" style="stroke: rgb(0, 0, 0); fill: rgb(209, 219, 221); pointer-events: auto; stroke-width: 0.1;" pointer-events="auto"/>
      <path id="VA07" d="M1227.2 353.36h-.16l-.08.27-.33.11-.07.36-.25-.01.5 2.44v.15l-.25.17.1.4-.14.17.13.28-.15.27-.2-.15-.16-.4-.26.03-.4.48.15.47.27.18-.23.27h-.38l-.27.14.06.4.15.17-.17.5-.17.07-.16.3.36.41.4.1-.05.27.14.08.38-.05.27.3-.09.17v.38l.32.08.09-.13.3.08.32-.15.24.28.3.19-.08.16.36.53-.45.38-.24.04-.2-.18-.38.13-.66.1-.08.17-.28.19-.25.54.01.26.22.36.02.47-.06.12.3.1-.14.07-.05.23.16-.01v.18l-.4.2-.17-.06-.06.2-.19-.16.03-.3-.18-.03-.2.17-.2-.26-.21.05-.04.18.1.25-.03.32.09.31-.25.48-.25.68-.21.1v.23l-.27.53-.44.65-.26.5-.45-.06-.14.38.02.32-.34.03-.19.1-.24-.03v-.19l.26-.01-.18-.18-.02-.35-.3.04-.3-.12-.1-.19.19-.07-.02-.22-.35.04-.1-.13-.2-.83.07-.3-.35-.25-.15-.3-.3-.22-.33.3-.18-.01-.16.24-.16.03-.24-.12-.08-.23-.56-.1-.38-.27-.1-.15-.18.03-.19.22-.32-.14.2-.17-.27-.25-.13.02-.15-.3-.38-.27-.05.24-.19.1-.29-.1-.18.05-.05.17h-.18l.05-.28-.22-.18-.28.1-.01-.2-.35-.18-.07-.4-.44.1-.34-.27-.35-.06-.29.09-.1-.14-.3.06-.2-.07-.13-.19-.21.1.03-.19-.3-.1-.14.32-.14-.56v-.29l-.24.15-.43-.19h-.2l-.3-.5-.61.04-.3-.35-.47-.15-.07-.16-.16.1-.01.2-.22-.13-.7.01-.19-.08-.26.22-.43-.23-.15.16-.26.08-.33-.11-.35.13-.2-.08-.23.15-.67-.43-.5-.01-.03.2-.55.14-.58-.1-.08.09-.22-.14-.52-.05-.21.2-.06.27-.4.13-.27-.07-.2.25-.16.01-.18.32-.38.14-.56.03-1.6-.31-1.96-.37-1.38-.14-.57-.1-2.68-.38-2.21-.36.07.22.3.14-.03.3-.52-.08-.3.19-.24-.09h-.32l-.18.2.09.19-.44.11-.08.3-.23-.13-.32.13-.44.07.3-.36.1-.29h.16l.33-.38.33.17.2-.49-.25-.1.1-.13-.12-.22.18-.58.4-.06.09-.27.56-.4-.03-.18.27-.42.62-.36.14-.2-.13-.36.12-.17.03-.42.43-.25-.1-.06.11-.32v-.4l.27-.16.1-.43.13-.27v-.48l.11-.57.18-.02-.04-.42.08-.18.16-1-.13-.11-.02-.55.08-.23-.2-.13.1-.12.18.09.23-.33.03-.41.42-.36.16-.08.1-.2-.25-.62v-.18l.18-.24.2-.68.12.02.28-.56 2.17 1.54.08.05.98.72.35-.28.22.21.09-.1.36.2.06-.14.23-.01.1.17.15-.14 1.31-2.7 1.48-1.97 1.51-2.09.63-.07.14.15v.2l.3.03-.18.4.23.2.21-.2.48.5.02.26-.15.13.26.17.12.19.24.04.01.18-.17.07-.08.23.34.2-.22.3-.02.2.4.32.27.42.16-.01.26.32.32.1.4.24.1-.06.45.5.07.28.57.32.08.32.17.1.1.31.35.08.2.69.3.21.22-.01.23.35.2-.24.3-.2h.24l.2-.25h.4l1.06.19-.07-.91-.15-.08.05-.35-.22-.34.17-.39 1.1-1.98.48-1.08-.06-.01-1.64-1.89.17-.02.16.24.28-.07.11.08.37-.31.32-.13.11-.14-.01-.48.24-.14.33.1.27-.11.42.14.43-.07.32-.19-.39-.19-.1-.24.01-.25.38-.09.18-.21.4-.38.55-.22.23-.27.29.03.04-.33h-.16l.08-.7.13-.24.1.14.22-.07-.09.26.3.04.23-.3 1.25.48.26.26.32.16.17.13-.05.05.4.36-.04.28-.25.03-.17.15v.24l.15.2v.48l-.1.27.3.2-.36.43.21.43.13.1-.3.4v.4l-.13.4.1.03-.11.38-.17.07.1.23-.2.4-.11.98.08.76.39.74.34.59-.13.09.09.36.6.3.28.28.04.24.32.32.4.13.6-.11.77-.5.56-.16.4-.27.19-.32.2-.49.33-.06.34-.15.6-.13.27-.37.23-.77.28-.11.67.43.23.18-.08.14.16.49.05.43.1.26-.07.29-.2.22-.29-.05-.33.17.43.25.27-.15.17.25.25.08.5.42.05.18" fill="#d1dbdd" stroke="rgb(209, 219, 221)" stroke-width="0.1" data-originalStrokeWidth="0.1" style="stroke: rgb(0, 0, 0); fill: rgb(209, 219, 221); pointer-events: auto; stroke-width: 0.1;" pointer-events="auto"/>
      <path id="VA08" d="m1218.7 342.89-.16-.13.18-.17.08-.29.33-.4.16-.73.33-.03-.36-.3.18-.22.21.04-.01-.38.13-.23-.18-.26.02-.2.16.04-.02-.41.27-.13-.2-.1v-.16l.2-.05.03-.25-.06-.4-.8.43-.2.06-.39-.15-.25.2-.3.09.07-.39-.3-.3-.08-.2v-.43l-.12-.31-.32-1.23.05-.3-.18-.47.39-.54-.4-.17.08-.5.15-.44.2-.36.12-.02.6-.08.14.04.2.14.03.05.2.22.25.24.57.44.14.22.47.2h.45l.36.5.12.02.19.24.1-.12.41.52.08.48-.27.06.14.24.14.04.14.56.1.67.05.14h-.04l.33 1.36.04.14.1.33.01.25-.07.2-.1.12-.43.1h-.05l-.05-.06-.09.13-.04.05-.18.2-.2.22h-.02l-.13.16-.27.38-.04.23-.09.17.12.85.24.33-.68.1-.17.42-.7.44-.48-.54.26-.13.16-.4-.3-.17-.51.15-.23-.06" fill="#d1dbdd" stroke="rgb(209, 219, 221)" stroke-width="0.1" data-originalStrokeWidth="0.1" style="stroke: rgb(0, 0, 0); fill: rgb(209, 219, 221); pointer-events: auto; stroke-width: 0.1;" pointer-events="auto"/>
      <path id="VA09" d="m1173.85 387.79.1.33.32.08.16-.2.28-.1.25.22.3.06.15.13.06.25.33.34.2.53.2.24.66.67.4.1.5.04.3.2h-.19l.04.19-.18.25-.27.23-.22.3-.04-.1-.26.04-.2-.14-.4.21-.03.16-.37.26.06.23-.08.3.23.14.3-.11.2.25.1.29.31.38.28-.06.03.2-.17.15.17.38h.2l.09.26.22-.08.08.17.28-.08.2.11-.07.65-.56.62h-.33l-.14.36-.18-.06-.26.27-.03.38.24.18-.14.12.05.46.24.1-.28.16-.03.25.55.4.83.34.42-.04.35.1-.47 2.1-.97 4.18-.2.07-.7-.14-.2.07-.09.2.37.4-.03.27.65.3-.01.21-.19.08-.14.27-.13.01-.41-.43-.43-.2-.4-.04-.32-.15-.07-.2-.25-.04.2.18-.14.16h-.26l-.02.29-.4.04-.4-.1v1.37l.2 5.7.14 3.94.19 5.15-.42.11-.1.02-.54.1-.33.07-.09.03-.71.17-.1.01-.55.11-.37.09-1.58.34-.01.01-.54.12-1.23.27-.42.11-.88.2-1.35.29-.12.02-.42.08-.2.07h-.1l-.6.13-.57.11-1.28.28-.44.08-.7.15-.57.13-1.04.14-.82.15-1.42.22-.09.03h-.06l-.17.02-.5.09h-.15l-.34.07-1.13.18-.34.05-.59.1-.72.11-.19.04-.36.05-.45.09-.5.09h-.13l-.33.06-.12.02-.48.06-.46.09-.25.04-.14.02-.34.1h-.01l-.1.02-.57.16-.04.02-.45.1-.85.2-.26.08-.92.14-.58.09-.34.06-.47.09-.32.04-.4.07-.6.13-.47.1h-.2l-.17.02-.23.05-.41.04-.6.11-.48.09-.34.06-.15.01-.31.04-.43.08-.07.03-.24.02-.07.02-.23.03h-.06l-.16.03h-.14l-.6.12h-.06l-.78.15-1.78.3-.39.08-.03.02-.59.12-.33.07-.8.13-.1.02-1.13.2-.35.03-.1.02-.28.05-.85.13-.28.03-.04.01h-.05l-.29.04h-.02l-.7.06-.94.1-.42.07-1.47.27.6-.9-1.14.24-.57.11-.52.1-.43.07-1.2.21-.58.12v-.02l-.94.16-.64.12-.54.1-.25.03-.04.2-.04.33-.06.22-.69.13-.15.03-.05.02-.71.13-.74.15-.27.05-1.16.22-.36.07-.25.06h-.02l-.29.06-.14.03-.56.11-.1.03-.1.01-.13.03-.07.02-.19.02h-.04l-.06.02h-.12l-.06.03h-.02l-.18.03-.05.01h-.06l-.23.04-.17.04h-.01l-.28.06-.14.02-.17.05h-.03l-.46.09-.26.04-.33.06-.19.05-.8.16-.74.15-1.22.25-.88.18-.22.04-.36.09-.53.06-.12.02-.06.02-.57.12-.7.14-.2.04-.45.1-.9.19-.32.08-.26.04-.45.1-.3.06-.89.15-.98.2-.6.11-.39.08-.13.01-.66.13-1 .2-.9.18h-.03l-.47.1-.1.02-.4.07-.79.13-.56.11-.2.04-.51.1-1.32.25-.22.04-.63.1-1.8.35-.9.17h-.1l-.25.06-.6.1-.07.03-.22.05-.39-.08-.78.15-.09.02-.33.06-.54.11-.9.18-.54.1-1.23.22-1.66.31-.54.1-.73.13-.22.03-.96.16-.59.05-.25.04-.49.08v-.1l.26-.15.3-.38v-.19l.3-.07.4-.25.06-.21.64-.4.2.02.34-.36.28-.13.16-.1.23-.33.46-.24.09.01.38-.11.3.08.47-.06.1-.04.55-.12.44-.2.11-.06.39-.27.16-.33.65-.35.12-.12.11-.14.3-.13.63-.4.13-.04.32-.11 1.21-.65.1-.07.07-.04.06-.06.61-.34.11-.08.77-.14.16-.1.52-.13.12-.64-.1-.03-.05-.03h-.04v-.04l.01-.02v-.3l-.14-.26.07-.05.25-.17.06-.2.21-.31.08-.34-.06-.32-.06-.22.25-.27.3-.13-.03-.45.64-.03.14-.14.36-.08.05.11.08.04.29.03.11-.03.03-.1.1-.22.46-.16h.26l.38-.33.13-.03.42-.24.12-.12.36-.1-.02-.13.41-.26.25-.28-.04-.07.22-.24-.26-.28.09-.12.26-.54-.18-.37.07-.39-.29-.13-.16-.28.04-.1v-.22l.03-.02.07-.07h.01l.08.04.04-.02h.01l.05-.21.18-.01.23-.2.06-.11.05-.09v-.14l-.05-.06v-.07l.24-.15.05.02v-.04l.03-.02.05.05.07-.06.33-.13.1.1.07-.05.05-.1.13.03.13-.3h.1l.01-.05.02-.02.02-.08.04-.06v-.05l.1-.13h.33l.01-.53.06-.09.12-.05.32-.1-.04-.12-.03-.29-.2-.45.22-.18-.02-.05-.05-.04-.07-.08-.14-.23.04-.1-.06-.32-.08-.14-.1-.15.24-.27.11-.13.6-.5.16.03.07-.08.38-.35v-.14l.06-.06.18-.06.1-.05.14-.06v-.02l.03-.05.12-.2.4-.46.09-.07.3-.37.07-.05.32-.27.23-.28h.01l.18-.2.08.02.08-.07.12-.07.17-.08-.07-.13.24-.04.15-.16.1-.07.05-.1-.02-.05.2-.18.2.03.02-.07.06-.15.68-.36.37-.37.17-.01.46-.3.09-.01.18-.12h.05l.13-.1.08-.06.13-.06.16-.02.65-.4.12-.2-.08-.21.16-.06.12-.02.25-.2.07-.31.02-.01.11-.18.8-1.06 1.02-1.32.02-.05.1-.12.77-1.01.28-.37.72-.94.28-.38.93-1.25h.02l.01-.02.22-.33.64-.87.78-1 .23-.33-.01.1.28-.06.04.18.26-.13-.01.16.28.4.09-.23.2.18-.35.2.02.19-.24.13.07.27-.25-.02-.28.34h-.21l-.18.3v.1l.04.15.07.03.2.28v.1l.35-.1.2.28.32-.07h.13l.04.05.01.03.06.04.01.03h.07l.02.01.02-.03h.07l.07.04.03.07h-.03v.07l.05.06h-.05l-.01.05-.04.07.07.11v.1l.05.01v.03h.08l.02.06.07.07.07.01h.02l.04.03.05.03h.07l-.04.05.03.08-.07.04-.02.05-.04.02v.11l.1.06-.05.07.03.05v.04h.02l-.02.04-.06.04v.04l.02.1.04.03-.01.04-.06.1.02.13.03.02h.09v.09l-.04.02v.03l.02.02.01.1.05.01.04.05.1.01h.01v.02l-.03.14.04.04.05.06h.03v-.03h.02l.05.03.05.1.06-.01.01.07h.02l.02.06.05-.04.11.01.02-.02.03.12h.04l.04.09.04-.03.1.01.03-.02.03.02v.07h.03l.07.14v.06h.06l.05.06.11-.07.1.01.04.02.02-.02.05-.08.07.03v.08l.1.05.06.06.15.1h.02l.11.07.02.03.05.01-.1.22.12.09.13-.05h.05l.02.05v.06l.03.07-.03.03.03.04h.04v.12l.13.21.03.05.07.01v-.02l.1-.02.13-.06.1.07v.04l.05.02h.03l.16.02.02-.01h.1l.03-.04h.04l.05-.04.03-.02.03-.07.1-.02.03-.08.05-.02h.04l.05.01h.02l.07-.02.08.03.02.06.03-.05.07-.07.03.02.01.02.03.02h.09l.03.04h.06l.05.1.01.02.1.03h.03l.07.01.04-.04.14-.07h.07v-.03h.04v.14l.03.1.14.02.02.04.07.03.27.27-.03.14.02.12v.11l.1.05.04.08.24-.13.11-.02.25.14.02.1.02.08.56.26.05.1.17-.02.05.04.07.03.1.2.1.04 1-.26h.02l.45-.12h.02l1.32-.35.06-.07.04.01.07-.05.01-.06.03-.04.04-.12.04-.03v-.13l.04-.04.07.01.04-.07.05-.01.01-.04.08-.03.03-.06.09-.03.07-.1h.1l.26-.3v-.58l.08-.2.1.2.3-.02.38-.34.09-.23.38-.3.09.01.04-.1.25.06.2-.14.07-.05.08-.32v-.11l.17-.54.01-.04-.05-.15.02-.07.02-.05-.02-.07.01-.03.05-.04.06-.05.08-.12.04.07.19-.01.05-.05.12-.3-.04-.07-.03-.05.02-.05.12-.19.57.45.21.16.04.05.1.09.09.04.1.1.4.24.09.05.04.01.42.25.1.06.29.15.33.2.26.13.02.02.44.24.2.13.29.14.44-.35.47-.5.18-.2 1.1-.72.23-.13.7-.35 1.1-.44 1.13-.58.19-.03-.03.18.15.09h.08l.53-.23.68-.5.46-.45.36-.47.2-.35.42-.36-.3-.28-.3-.27-.25-.24-.13-.11-.09-.07.16-.54.15-.42-.05-.09-.05-.09v-.22l.05-.14.03-.05.07.06h.09l.2.06.1-.12.35.18.24.13.23.12.1.02.06.15.06.1.06-.03.05.04.03.03.17-.01.13-.03.13.05.1.12.36.45.47-.36.14-.01.58-.46.13-.1.76-.74.6-.52.18-.3.12-.1.84-.8.3-.41.1-.1.4-.4.37-.07.55-.38.6.65v.43l.22.33.44.23.25-.16.14-.22.3-.27.34-.45.4-.38.92-.88-.13-.13.51-.35.28-.1.2-.2.28-.21.2-.23.24-.84v-.03l-.24-.04-.36.38-.57-.16.03-.06v-.05l.02-.03.08-.06.05-.01.01-.04.03-.01.02-.06.03.02.06-.03v-.1l-.47-.45.7-.64.24-.26.52-.44.38-.46.26-.47.07-.27.45.27.9-.18.06.22.2.12.43.12.15-.2.3-.25.35-.56.38-.21.36-.4.01-.11.38-.34.34-.5.37.33-.2.34.22.46.9.97 1.04 1.15-.34.5-.19.45-.21.31-.01.53-.25.68v.18l-.2.91-.6.9-.41.4-.1.17-.71.69-.18.27-1.26.4-.23.38-.3.18-.5.54-.2.37.29 1 1.75 1.64.06.14.3.18.26-.32-.1-.28.15.11v-.28l.14-.18.5-.33.13-.15h.37l.22-.33.4-.26.44.3.2.39.2-.16.39.18.2-.36.16-.07v.41l.24.15.12-.12.56-.29.18.18-.13.01.56.36.04-.2.35.47.33.24-.21.12-.1.25-.44.39-.25.12.16.35-.08.37.12.04-.05.21.14.21.23-.07.1.28.37-.08.35.1.19-.1.13-.41.16-.04.16-.28.34-.3-.03-.37.37-.23.03-.2-.11-.37.2-.17-.03-.18.24-.25.26-.1.21.01-.04-.28.18-.22-.22-.54-.43-.55.22-.4-.12-.1-.09-.41.2-.15-.22-.3.02-.28.23-.3.46-.43.14-.3.3-.25v-.64l.13-.2-.1-.23-.33.11-.4-.3-.02-.12-.27-.17.32-.25.21-.04.73-.7.56-.78.4-.57.27-.58.27-.3.41-.14.57.32.09.3.3.18.2-.16h.31l.37.13.24-.16-.09-.36.03-.33.17-.5.22-.42.3.26.13-.26.07-.31.31-.18.05-.3.21-.16-.07-.26.5-.74.36-.11.07-.37.38-.2.11-.3-.16-.16-.17.1-.13-.28-.3-.37-.05-.21.21-.43.2-.01" fill="#d1dbdd" stroke="rgb(209, 219, 221)" stroke-width="0.1" data-originalStrokeWidth="0.1" style="stroke: rgb(0, 0, 0); fill: rgb(209, 219, 221); pointer-events: auto; stroke-width: 0.1;" pointer-events="auto"/>
      <path id="VA10" d="m1215.95 341.79-.13.23-.08.7.16.01-.05.33-.29-.03-.22.27-.55.22-.41.38-.17.21-.38.09-.02.25.11.24.4.2-.33.18-.43.07-.42-.14-.27.1-.33-.1-.24.15.01.48-.1.14-.33.13-.37.3-.1-.07-.3.07-.15-.24-.17.02 1.64 1.89.06.01-.48 1.08-1.1 1.99-.17.39.21.33-.04.35.15.08.08.9-1.06-.18h-.41l-.2.24h-.24l-.3.21-.2.24-.23-.35-.24.01-.3-.21-.18-.7-.35-.07-.1-.3-.17-.11-.08-.32-.57-.31-.07-.3-.45-.49-.12.06-.4-.23-.3-.11-.26-.32h-.16l-.26-.41-.41-.31.02-.22.22-.3-.34-.19.08-.23.17-.07v-.18l-.25-.04-.12-.19-.26-.17.15-.13-.02-.26-.48-.48-.2.19-.24-.21.18-.4-.3-.02v-.21l-.14-.15-.62.07-1.52 2.08-1.48 1.98-1.31 2.7-.16.14-.1-.18h-.22l-.06.16-.37-.2-.08.1-.22-.2-.35.28-.98-.73-.08-.05-2.17-1.54.28-.18.08-.71-.16-.24-.02-.3-.16-.04.14-.38-.25-.46-.34-.15.09-.52-.01-.55.33-.1.1-.45.13-.02.08-.29.32-.16.46.04.15-.24.15.01.13-.26.54-.3.21-.3v-.18l.16-.21-.03-.75.15-.14-.04-.47.18-.15.02-.27.09-.12-.06-.19.22-.1-.03-.1.28-.16v-.36l.28-.32.41-.08.02-.19.44-.14-.02-.14.26-.1-.06-.24-.27-.06-.15-.26.18-.41.05-.28.37-.29.05-.29.16-.15.19-.74.4-.83-.02-.1.5-.5.11-.43.35-.16.23-.46.41-.43.25-.37.19-.8.32-.17.17-1.3.26-.49v-.03l.03-.09.02-.03.04-.11-.01-.1-.07-.12.09-.57.12-.28v-.52l.01-.14-.03-.19v-.1l.04-.32.06-.17v-.21l.24-.56.01-.09-.01-.34-.1-.15.02-.05.02-.04.1-.04-.01-.1v-.09h.04l.02-.03.01-.05-.04-.16.01-.1.04-.07.02-.05-.03-.1.02-.47.1-.34.02-.12.03-.13.3-.38.1-.02.14-.06.05-.02.43-.02.17-.2.12-.05.07.05.31.16.3.08h.44l.05-.03.22.04.29-.02.1-.03h.33l.54-.31.12.03.1.12v.04l.09.34.22.16.15.17.1.06.08.09.1.1.14.04.39.05.14.06.27.05h.38l.21.12.24.15.39.17.07.06.05.13-.26.62.03.21.03.05-.08.32-.56.36-.16.44-.04.74.2.56.2.22.16.02.38.04.32.07.2.14.09.1.2.25.06.1.25.29.04.04.1.02h.18l.2-.03h.27l.27.03.56-.07h.25l.31-.06.03-.02h.12v-.03l.12-.05.09-.02.16-.02.21-.08h.21l.18.08-2.66 6.24.65.23.27.18-.33.29.24.44.1-.08.21.2-.02.2.28.2-.14.2.28.22.89.09.05-.58.42.16-.11-.4-.25-.23-.01-.2.26-.11.48.66.27.27.25.34.24.21.33.03.42-.09-.02-.19.37.01.41.17-.31.4.4.36-.36.16.26.27-.33-.09-.17.2.01.33-.37-.12-.2.37.29.15.42.05" fill="#d1dbdd" stroke="rgb(209, 219, 221)" stroke-width="0.1" data-originalStrokeWidth="0.1" style="stroke: rgb(0, 0, 0); fill: rgb(209, 219, 221); pointer-events: auto; stroke-width: 0.1;" pointer-events="auto"/>
      <path id="VA11" d="M1213.43 331.25h.03l.18.07.38-.01.47.15.4.2h.33l.34.08.1.34-.02.03-.06.45.05.09.1.07.2.3.15.08.16.1.13-.11.23.18.05-.01h.1l.12-.02.05-.02.28.06.14-.1.03.02.19-.1.04.02-.21.36-.14.43-.07.52.38.16-.39.53.18.47-.05.3.31 1.24.11.31.02.45.1.17.28.31-.07.39.3-.1.25-.2.4.16.18-.07.8-.42.07.4-.03.25-.19.05v.16l.19.1-.28.13.02.41-.15-.02-.02.18.18.26-.13.24.01.38-.22-.05-.17.23.36.3-.32.02-.16.72-.35.41-.07.3-.18.16-.32-.17-.26-.25-1.25-.48-.25.3-.29-.04.1-.26-.23.07-.1-.14-.41-.05-.3-.15.21-.37.37.12-.01-.34.18-.19.32.08-.26-.26.36-.16-.4-.36.31-.4-.41-.17-.37-.02.02.2-.42.1-.33-.04-.24-.2-.25-.36-.27-.26-.48-.67-.26.1v.22l.26.24.11.4-.42-.18-.05.59-.9-.09-.27-.22.14-.2-.28-.22.02-.18-.22-.2-.09.08-.24-.44.33-.29-.27-.18-.65-.23 2.66-6.24" fill="#d1dbdd" stroke="rgb(209, 219, 221)" stroke-width="0.1" data-originalStrokeWidth="0.1" style="stroke: rgb(0, 0, 0); fill: rgb(209, 219, 221); pointer-events: auto; stroke-width: 0.1;" pointer-events="auto"/>
      <g id="state_lines" stroke="rgb(209, 219, 221)" style="display: none; stroke: rgb(0, 0, 0);" stroke-width="0.1"/>
      <g id="state_abbr" fill="#000000" style="display: none; fill: rgb(0, 0, 0);">
        <text id="HI_label" x="491.79" y="769.82" style="font-size: 19.2455px; stroke-width: 1.60379; display: none;">
          <tspan id="HI_tspan" x="491.79" y="769.82" fill="#000000" dy="0" font-family="Arial" font-size="24.06" font-style="normal" font-weight="400" style="text-align: center; stroke-width: 2.57215; fill: rgb(0, 0, 0);" text-anchor="middle">HI</tspan>
        </text>
        <text id="AK_label" x="205.24" y="672.25" style="font-size: 19.2455px; stroke-width: 1.60379; display: none;">
          <tspan id="AK_tspan" x="205.24" y="672.25" fill="#000000" dy="0" font-family="Arial" font-size="24.06" font-style="normal" font-weight="400" style="text-align: center; stroke-width: 2.57215; fill: rgb(0, 0, 0);" text-anchor="middle">AK</tspan>
        </text>
        <text id="FL_label" x="1188.11" y="708.7" style="font-size: 19.2455px; stroke-width: 1.60379; display: none;">
          <tspan id="FL_tspan" x="1188.11" y="708.7" fill="#000000" dy="0" font-family="Arial" font-size="24.06" font-style="normal" font-weight="400" style="text-align: center; stroke-width: 2.57215; fill: rgb(0, 0, 0);" text-anchor="middle">FL</tspan>
        </text>
        <text id="NH_label" x="1306.05" y="167.79" stroke-width="1.1" font-size="13.25" style="display: none;">
          <tspan id="NH_tspan" x="1306.05" y="167.79" fill="#000000" stroke-width="1.1" dy="0" font-family="Arial" font-size="16.56" font-style="normal" font-weight="400" style="text-align: center; fill: rgb(0, 0, 0);" text-anchor="middle">NH</tspan>
        </text>
        <text id="MI_label" x="1019.65" y="246.58" style="font-size: 19.2455px; stroke-width: 1.60379; display: none;">
          <tspan id="MI_tspan" x="1019.65" y="246.58" fill="#000000" dy="0" font-family="Arial" font-size="24.06" font-style="normal" font-weight="400" style="text-align: center; stroke-width: 2.57215; fill: rgb(0, 0, 0);" text-anchor="middle">MI</tspan>
        </text>
        <text id="VT_label" x="1274.28" y="145.01" stroke-width="1.05" font-size="12.65" style="display: none;">
          <tspan id="VT_tspan" x="1274.28" y="145.01" fill="#000000" stroke-width="1.05" dy="0" font-family="Arial" font-size="15.81" font-style="normal" font-weight="400" style="text-align: center; fill: rgb(0, 0, 0);" text-anchor="middle">VT</tspan>
        </text>
        <text id="ME_label" x="1338.99" y="105.14" stroke-width="1.45" font-size="17.36" style="display: none;">
          <tspan id="ME_tspan" x="1338.99" y="105.14" fill="#000000" stroke-width="1.45" dy="0" font-family="Arial" font-size="21.7" font-style="normal" font-weight="400" style="text-align: center; fill: rgb(0, 0, 0);" text-anchor="middle">ME</tspan>
        </text>
        <text id="RI_label" x="1361.38" y="262.84" stroke-width="1.25" font-size="14.98" style="display: none;">
          <tspan id="RI_tspan" x="1361.38" y="262.84" fill="#000000" stroke-width="1.25" dy="0" font-family="Arial" font-size="18.72" font-style="normal" font-weight="400" style="text-align: center; fill: rgb(0, 0, 0);" text-anchor="middle">RI</tspan>
        </text>
        <text id="NY_label" x="1227.27" y="204.12" style="font-size: 19.2455px; stroke-width: 1.60379; display: none;">
          <tspan id="NY_tspan" x="1227.27" y="204.12" fill="#000000" dy="0" font-family="Arial" font-size="24.06" font-style="normal" font-weight="400" style="text-align: center; stroke-width: 2.57215; fill: rgb(0, 0, 0);" text-anchor="middle">NY</tspan>
        </text>
        <text id="PA_label" x="1187.28" y="284.69" style="font-size: 19.2455px; stroke-width: 1.60379; display: none;">
          <tspan id="PA_tspan" x="1187.28" y="284.69" fill="#000000" dy="0" font-family="Arial" font-size="24.06" font-style="normal" font-weight="400" style="text-align: center; stroke-width: 2.57215; fill: rgb(0, 0, 0);" text-anchor="middle">PA</tspan>
        </text>
        <text id="NJ_label" x="1330.57" y="290.09" stroke-width="1.28" font-size="15.4" style="display: none;">
          <tspan id="NJ_tspan" x="1330.57" y="290.09" fill="#000000" stroke-width="1.28" dy="0" font-family="Arial" font-size="19.25" font-style="normal" font-weight="400" style="text-align: center; fill: rgb(0, 0, 0);" text-anchor="middle">NJ</tspan>
        </text>
        <text id="DE_label" x="1320.8" y="328.42" stroke-width="1.36" font-size="16.38" style="display: none;">
          <tspan id="DE_tspan" x="1320.8" y="328.42" fill="#000000" stroke-width="1.36" dy="0" font-family="Arial" font-size="20.47" font-style="normal" font-weight="400" style="text-align: center; fill: rgb(0, 0, 0);" text-anchor="middle">DE</tspan>
        </text>
        <text id="MD_label" x="1310.72" y="368.46" stroke-width="1.34" font-size="16.11" style="display: none;">
          <tspan id="MD_tspan" x="1310.72" y="368.46" fill="#000000" stroke-width="1.34" dy="0" font-family="Arial" font-size="20.13" font-style="normal" font-weight="400" style="text-align: center; fill: rgb(0, 0, 0);" text-anchor="middle">MD</tspan>
        </text>
        <text id="VA_label" x="1198.59" y="392.33" style="font-size: 19.2455px; stroke-width: 1.60379; display: none;">
          <tspan id="VA_tspan" x="1198.59" y="392.33" fill="#000000" dy="0" font-family="Arial" font-size="24.06" font-style="normal" font-weight="400" style="text-align: center; stroke-width: 2.57215; fill: rgb(0, 0, 0);" text-anchor="middle">VA</tspan>
        </text>
        <text id="WV_label" x="1129.66" y="382.3" style="font-size: 19.2455px; stroke-width: 1.60379; display: none;">
          <tspan id="WV_tspan" x="1129.66" y="382.3" fill="#000000" dy="0" font-family="Arial" font-size="24.06" font-style="normal" font-weight="400" style="text-align: center; stroke-width: 2.57215; fill: rgb(0, 0, 0);" text-anchor="middle">WV</tspan>
        </text>
        <text id="OH_label" x="1079.05" y="334.46" style="font-size: 19.2455px; stroke-width: 1.60379; display: none;">
          <tspan id="OH_tspan" x="1079.05" y="334.46" fill="#000000" dy="0" font-family="Arial" font-size="24.06" font-style="normal" font-weight="400" style="text-align: center; stroke-width: 2.57215; fill: rgb(0, 0, 0);" text-anchor="middle">OH</tspan>
        </text>
        <text id="IN_label" x="998.79" y="352.94" style="font-size: 19.2455px; stroke-width: 1.60379; display: none;">
          <tspan id="IN_tspan" x="998.79" y="352.94" fill="#000000" dy="0" font-family="Arial" font-size="24.06" font-style="normal" font-weight="400" style="text-align: center; stroke-width: 2.57215; fill: rgb(0, 0, 0);" text-anchor="middle">IN</tspan>
        </text>
        <text id="IL_label" x="927.43" y="364.36" style="font-size: 19.2455px; stroke-width: 1.60379; display: none;">
          <tspan id="IL_tspan" x="927.43" y="364.36" fill="#000000" dy="0" font-family="Arial" font-size="24.06" font-style="normal" font-weight="400" style="text-align: center; stroke-width: 2.57215; fill: rgb(0, 0, 0);" text-anchor="middle">IL</tspan>
        </text>
        <text id="CT_label" x="1299.17" y="228.46" stroke-width="1.06" font-size="12.74" style="display: none;">
          <tspan id="CT_tspan" x="1299.17" y="228.46" fill="#000000" stroke-width="1.06" dy="0" font-family="Arial" font-size="15.93" font-style="normal" font-weight="400" style="text-align: center; fill: rgb(0, 0, 0);" text-anchor="middle">CT</tspan>
        </text>
        <text id="WI_label" x="898.6" y="224.7" style="font-size: 19.2455px; stroke-width: 1.60379; display: none;">
          <tspan id="WI_tspan" x="898.6" y="224.7" fill="#000000" dy="0" font-family="Arial" font-size="24.06" font-style="normal" font-weight="400" style="text-align: center; stroke-width: 2.57215; fill: rgb(0, 0, 0);" text-anchor="middle">WI</tspan>
        </text>
        <text id="NC_label" x="1205.6" y="458.72" style="font-size: 19.2455px; stroke-width: 1.60379; display: none;">
          <tspan id="NC_tspan" x="1205.6" y="458.72" fill="#000000" dy="0" font-family="Arial" font-size="24.06" font-style="normal" font-weight="400" style="text-align: center; stroke-width: 2.57215; fill: rgb(0, 0, 0);" text-anchor="middle">NC</tspan>
        </text>
        <text id="MA_label" x="1305.87" y="200.67" stroke-width="1.04" font-size="12.46" style="display: none;">
          <tspan id="MA_tspan" x="1305.87" y="200.67" fill="#000000" stroke-width="1.04" dy="0" font-family="Arial" font-size="15.58" font-style="normal" font-weight="400" style="text-align: center; fill: rgb(0, 0, 0);" text-anchor="middle">MA</tspan>
        </text>
        <text id="MO_label" x="854.22" y="422.93" style="font-size: 19.2455px; stroke-width: 1.60379; display: none;">
          <tspan id="MO_tspan" x="854.22" y="422.93" fill="#000000" dy="0" font-family="Arial" font-size="24.06" font-style="normal" font-weight="400" style="text-align: center; stroke-width: 2.57215; fill: rgb(0, 0, 0);" text-anchor="middle">MO</tspan>
        </text>
        <text id="GA_label" x="1106.89" y="574.56" style="font-size: 19.2455px; stroke-width: 1.60379; display: none;">
          <tspan id="GA_tspan" x="1106.89" y="574.56" fill="#000000" dy="0" font-family="Arial" font-size="24.06" font-style="normal" font-weight="400" style="text-align: center; stroke-width: 2.57215; fill: rgb(0, 0, 0);" text-anchor="middle">GA</tspan>
        </text>
        <text id="SC_label" x="1166.32" y="522.49" style="font-size: 19.2455px; stroke-width: 1.60379; display: none;">
          <tspan id="SC_tspan" x="1166.32" y="522.49" fill="#000000" dy="0" font-family="Arial" font-size="24.06" font-style="normal" font-weight="400" style="text-align: center; stroke-width: 2.57215; fill: rgb(0, 0, 0);" text-anchor="middle">SC</tspan>
        </text>
        <text id="KY_label" x="1039.99" y="426.39" style="font-size: 19.2455px; stroke-width: 1.60379; display: none;">
          <tspan id="KY_tspan" x="1039.99" y="426.39" fill="#000000" dy="0" font-family="Arial" font-size="24.06" font-style="normal" font-weight="400" style="text-align: center; stroke-width: 2.57215; fill: rgb(0, 0, 0);" text-anchor="middle">KY</tspan>
        </text>
        <text id="AL_label" x="1019.59" y="578.15" style="font-size: 19.2455px; stroke-width: 1.60379; display: none;">
          <tspan id="AL_tspan" fill="#000000" dy="0" font-family="Arial" font-size="24.06" font-style="normal" font-weight="400" style="text-align: center; stroke-width: 2.57215; fill: rgb(0, 0, 0);" text-anchor="middle">AL</tspan>
        </text>
        <text id="LA_label" x="872.7" y="649.59" style="font-size: 19.2455px; stroke-width: 1.60379; display: none;">
          <tspan id="LA_tspan" x="872.7" y="649.59" fill="#000000" dy="0" font-family="Arial" font-size="24.06" font-style="normal" font-weight="400" style="text-align: center; stroke-width: 2.57215; fill: rgb(0, 0, 0);" text-anchor="middle">LA</tspan>
        </text>
        <text id="MS_label" x="940.37" y="592.21" style="font-size: 19.2455px; stroke-width: 1.60379; display: none;">
          <tspan id="MS_tspan" x="940.37" y="592.21" fill="#000000" dy="0" font-family="Arial" font-size="24.06" font-style="normal" font-weight="400" style="text-align: center; stroke-width: 2.57215; fill: rgb(0, 0, 0);" text-anchor="middle">MS</tspan>
        </text>
        <text id="IA_label" x="823.33" y="308.44" style="font-size: 19.2455px; stroke-width: 1.60379; display: none;">
          <tspan id="IA_tspan" x="823.33" y="308.44" fill="#000000" dy="0" font-family="Arial" font-size="24.06" font-style="normal" font-weight="400" style="text-align: center; stroke-width: 2.57215; fill: rgb(0, 0, 0);" text-anchor="middle">IA</tspan>
        </text>
        <text id="MN_label" x="790.84" y="183.37" style="font-size: 19.2455px; stroke-width: 1.60379; display: none;">
          <tspan id="MN_tspan" x="790.84" y="183.37" fill="#000000" dy="0" font-family="Arial" font-size="24.06" font-style="normal" font-weight="400" style="text-align: center; stroke-width: 2.57215; fill: rgb(0, 0, 0);" text-anchor="middle">MN</tspan>
        </text>
        <text id="OK_label" x="732.05" y="519.54" style="font-size: 19.2455px; stroke-width: 1.60379; display: none;">
          <tspan id="OK_tspan" x="732.05" y="519.54" fill="#000000" dy="0" font-family="Arial" font-size="24.06" font-style="normal" font-weight="400" style="text-align: center; stroke-width: 2.57215; fill: rgb(0, 0, 0);" text-anchor="middle">OK</tspan>
        </text>
        <text id="TX_label" x="710.59" y="652.87" style="font-size: 19.2455px; stroke-width: 1.60379; display: none;">
          <tspan id="TX_tspan" x="710.59" y="652.87" fill="#000000" dy="0" font-family="Arial" font-size="24.06" font-style="normal" font-weight="400" style="text-align: center; stroke-width: 2.57215; fill: rgb(0, 0, 0);" text-anchor="middle">TX</tspan>
        </text>
        <text id="NM_label" x="506.94" y="542.36" style="font-size: 19.2455px; stroke-width: 1.60379; display: none;">
          <tspan id="NM_tspan" x="506.94" y="542.36" fill="#000000" dy="0" font-family="Arial" font-size="24.06" font-style="normal" font-weight="400" style="text-align: center; stroke-width: 2.57215; fill: rgb(0, 0, 0);" text-anchor="middle">NM</tspan>
        </text>
        <text id="KS_label" x="701.21" y="427.26" style="font-size: 19.2455px; stroke-width: 1.60379; display: none;">
          <tspan id="KS_tspan" x="701.21" y="427.26" fill="#000000" dy="0" font-family="Arial" font-size="24.06" font-style="normal" font-weight="400" style="text-align: center; stroke-width: 2.57215; fill: rgb(0, 0, 0);" text-anchor="middle">KS</tspan>
        </text>
        <text id="NE_label" x="686.63" y="337.29" style="font-size: 19.2455px; stroke-width: 1.60379; display: none;">
          <tspan id="NE_tspan" x="686.63" y="337.29" fill="#000000" dy="0" font-family="Arial" font-size="24.06" font-style="normal" font-weight="400" style="text-align: center; stroke-width: 2.57215; fill: rgb(0, 0, 0);" text-anchor="middle">NE</tspan>
        </text>
        <text id="SD_label" x="663.02" y="238.75" style="font-size: 19.2455px; stroke-width: 1.60379; display: none;">
          <tspan id="SD_tspan" x="663.02" y="238.75" fill="#000000" dy="0" font-family="Arial" font-size="24.06" font-style="normal" font-weight="400" style="text-align: center; stroke-width: 2.57215; fill: rgb(0, 0, 0);" text-anchor="middle">SD</tspan>
        </text>
        <text id="ND_label" x="663.02" y="150.75" style="font-size: 19.2455px; stroke-width: 1.60379; display: none;">
          <tspan id="ND_tspan" x="663.02" y="150.75" fill="#000000" dy="0" font-family="Arial" font-size="24.06" font-style="normal" font-weight="400" style="text-align: center; stroke-width: 2.57215; fill: rgb(0, 0, 0);" text-anchor="middle">ND</tspan>
        </text>
        <text id="WY_label" x="499.57" y="276.47" style="font-size: 19.2455px; stroke-width: 1.60379; display: none;">
          <tspan id="WY_tspan" x="499.57" y="276.47" fill="#000000" dy="0" font-family="Arial" font-size="24.06" font-style="normal" font-weight="400" style="text-align: center; stroke-width: 2.57215; fill: rgb(0, 0, 0);" text-anchor="middle">WY</tspan>
        </text>
        <text id="MT_label" x="487.84" y="155.58" style="font-size: 19.2455px; stroke-width: 1.60379; display: none;">
          <tspan id="MT_tspan" x="487.84" y="155.58" fill="#000000" dy="0" font-family="Arial" font-size="24.06" font-style="normal" font-weight="400" style="text-align: center; stroke-width: 2.57215; fill: rgb(0, 0, 0);" text-anchor="middle">MT</tspan>
        </text>
        <text id="CO_label" x="525.13" y="406.28" style="font-size: 19.2455px; stroke-width: 1.60379; display: none;">
          <tspan id="CO_tspan" x="525.13" y="406.28" fill="#000000" dy="0" font-family="Arial" font-size="24.06" font-style="normal" font-weight="400" style="text-align: center; stroke-width: 2.57215; fill: rgb(0, 0, 0);" text-anchor="middle">CO</tspan>
        </text>
        <text id="ID_label" x="339.94" y="235.07" style="font-size: 19.2455px; stroke-width: 1.60379; display: none;">
          <tspan id="ID_tspan" x="339.94" y="235.07" fill="#000000" dy="0" font-family="Arial" font-size="24.06" font-style="normal" font-weight="400" style="text-align: center; stroke-width: 2.57215; fill: rgb(0, 0, 0);" text-anchor="middle">ID</tspan>
        </text>
        <text id="UT_label" x="396.81" y="386.73" style="font-size: 19.2455px; stroke-width: 1.60379; display: none;">
          <tspan id="UT_tspan" x="396.81" y="386.73" fill="#000000" dy="0" font-family="Arial" font-size="24.06" font-style="normal" font-weight="400" style="text-align: center; stroke-width: 2.57215; fill: rgb(0, 0, 0);" text-anchor="middle">UT</tspan>
        </text>
        <text id="AZ_label" x="366.76" y="536.9" style="font-size: 19.2455px; stroke-width: 1.60379; display: none;">
          <tspan id="AZ_tspan" x="366.76" y="536.9" fill="#000000" dy="0" font-family="Arial" font-size="24.06" font-style="normal" font-weight="400" style="text-align: center; stroke-width: 2.57215; fill: rgb(0, 0, 0);" text-anchor="middle">AZ</tspan>
        </text>
        <text id="NV_label" x="262.47" y="370.64" style="font-size: 19.2455px; stroke-width: 1.60379; display: none;">
          <tspan id="NV_tspan" x="262.47" y="370.64" fill="#000000" dy="0" font-family="Arial" font-size="24.06" font-style="normal" font-weight="400" style="text-align: center; stroke-width: 2.57215; fill: rgb(0, 0, 0);" text-anchor="middle">NV</tspan>
        </text>
        <text id="OR_label" x="214.43" y="206.88" style="font-size: 19.2455px; stroke-width: 1.60379; display: none;">
          <tspan id="OR_tspan" x="214.43" y="206.88" fill="#000000" dy="0" font-family="Arial" font-size="24.06" font-style="normal" font-weight="400" style="text-align: center; stroke-width: 2.57215; fill: rgb(0, 0, 0);" text-anchor="middle">OR</tspan>
        </text>
        <text id="WA_label" x="238.05" y="102.99" style="font-size: 19.2455px; stroke-width: 1.60379; display: none;">
          <tspan id="WA_tspan" x="238.05" y="102.99" fill="#000000" dy="0" font-family="Arial" font-size="24.06" font-style="normal" font-weight="400" style="text-align: center; stroke-width: 2.57215; fill: rgb(0, 0, 0);" text-anchor="middle">WA</tspan>
        </text>
        <text id="CA_label" x="191.69" y="434.8" style="font-size: 19.2455px; stroke-width: 1.60379; display: none;">
          <tspan id="CA_tspan" x="191.69" y="434.8" fill="#000000" dy="0" font-family="Arial" font-size="24.06" font-style="normal" font-weight="400" style="text-align: center; stroke-width: 2.57215; fill: rgb(0, 0, 0);" text-anchor="middle">CA</tspan>
        </text>
        <text id="DC_label" x="1309.32" y="398.19" stroke-width="1.29" font-size="15.45" style="display: none;">
          <tspan id="DC_tspan" x="1309.32" y="398.19" fill="#000000" stroke-width="1.29" dy="0" font-family="Arial" font-size="19.31" font-style="normal" font-weight="400" style="text-align: center; fill: rgb(0, 0, 0);" text-anchor="middle">DC</tspan>
        </text>
        <text id="TN_label" x="1018.93" y="485.72" style="font-size: 19.2455px; stroke-width: 1.60379; display: none;">
          <tspan id="TN_tspan" x="1018.93" y="485.72" fill="#000000" dy="0" font-family="Arial" font-size="24.06" font-style="normal" font-weight="400" style="text-align: center; stroke-width: 2.57215; fill: rgb(0, 0, 0);" text-anchor="middle">TN</tspan>
        </text>
        <text id="AR_label" x="863.15" y="535.77" style="font-size: 19.2455px; stroke-width: 1.60379; display: none;">
          <tspan id="AR_tspan" x="863.15" y="535.77" fill="#000000" dy="0" font-family="Arial" font-size="24.06" font-style="normal" font-weight="400" style="text-align: center; stroke-width: 2.57215; fill: rgb(0, 0, 0);" text-anchor="middle">AR</tspan>
        </text>
      </g>
      <g id="state_borders" transform="translate(-0.04777967,-0.15336683)" stroke="rgb(209, 219, 221)" style="stroke: rgb(0, 0, 0);" stroke-width="0.3">
        <path id="VA_MD_border" d="m1222.37 337.7.46 2.05-.16.57-.63.17-.52.55-.45.86.36 1.18m-19.13-17.68 1-.33.69.27.88.04 1.13-.4.3.59.54.48 1.48.27.85.53-.36 1.39-.53.35-.13 1.1.5.78.76.1.8.89.99.05 1.17-.1.8-.26 1.25.24 1.34.5-.13.63.4.53 1.24.23 1.23-.23.86.75m0 0 .82.73.68.04 1.22 1.28-.04.62.33 1.24m30.17 19.65 1.25-.33m8.1-2.62.34-1 5.2-2.03 3.58-1.45" stroke="rgb(209, 219, 221)" stroke-width="0.3" fill="none" style="stroke: rgb(0, 0, 0); display: none;"/>
      </g>
      <rect id="selection-rectangle" fill="#ffffccaa" stroke="rgb(209, 219, 221)" stroke-width="0.1"/>
      <ellipse id="selection-ellipse" fill="#ffffccaa" stroke="rgb(209, 219, 221)" stroke-width="0.1"/>
      <polygon id="selection-polygon" fill="#ffffccaa" stroke="rgb(209, 219, 221)" stroke-width="0.1"/>
      <polyline id="selection-polyline" fill="#ffffccaa" stroke="rgb(209, 219, 221)" stroke-width="0.1"/>
    </svg>
  </g>
</svg>
