<?xml version='1.0' encoding='UTF-8'?>
<svg xmlns="http://www.w3.org/2000/svg" xmlns:dc="http://purl.org/dc/elements/1.1/" xmlns:ns2="http://creativecommons.org/ns#" xmlns:rdf="http://www.w3.org/1999/02/22-rdf-syntax-ns#" id="wrapper" viewBox="0 0 1520 840" preserveAspectRatio="xMinYMin" height="840" width="1520" style="background-color: rgb(255, 255, 255);">
  <metadata>
    <rdf:rdf>
      <ns2:work rdf:about="">
        <dc:format>image/svg+xml</dc:format>
        <dc:type rdf:resource="http://purl.org/dc/dcmitype/StillImage"/>
        <dc:title>MapChart Map</dc:title>
        <dc:creator>
          <ns2:agent>
            <dc:title>MapChart.net</dc:title>
          </ns2:agent>
        </dc:creator>
        <ns2:license rdf:resource="http://creativecommons.org/licenses/by-sa/4.0/"/>
        <dc:description>This map was created with MapChart.net, a website for creating custom maps.</dc:description>
      </ns2:work>
      <ns2:license rdf:about="http://creativecommons.org/licenses/by-sa/4.0/">
        <ns2:permits rdf:resource="http://creativecommons.org/ns#Reproduction"/>
        <ns2:permits rdf:resource="http://creativecommons.org/ns#Distribution"/>
        <ns2:requires rdf:resource="http://creativecommons.org/ns#Notice"/>
        <ns2:requires rdf:resource="http://creativecommons.org/ns#Attribution"/>
        <ns2:requires rdf:resource="http://creativecommons.org/ns#ShareAlike"/>
      </ns2:license>
    </rdf:rdf>
  </metadata>
  <g id="map-group" transform="translate(-704.0699841048947,-160.72370609437553) scale(6.360958559344495)">
    <svg id="map" width="1520" height="840" version="1.1" viewBox="0 0 1520 840" preserveAspectRatio="xMinYMin" data-originalStrokeWidth="0.3">
      <defs>
        <pattern id="circles3" width="10" height="10" patternUnits="userSpaceOnUse">    <rect width="10" height="10" fill="#fff"/>    <circle cx="4" cy="4" r="2" fill="#000"/>    </pattern>
        <pattern id="diagonal1" width="10" height="10" patternUnits="userSpaceOnUse">    <rect width="10" height="10" fill="#fff"/>    </pattern>
        <pattern id="diagonal3" width="10" height="10" patternUnits="userSpaceOnUse">    <rect width="10" height="10" fill="#fff"/>    </pattern>
        <pattern id="vertical1" width="10" height="10" patternUnits="userSpaceOnUse">    <rect width="10" height="10" fill="#fff"/>    <rect x="2" y="0" width="1" height="10" fill="#000"/>    </pattern>
        <pattern id="vertical3" width="10" height="10" patternUnits="userSpaceOnUse">    <rect width="10" height="10" fill="#fff"/>    <rect x="2" y="0" width="3" height="10" fill="#000"/>    </pattern>
        <pattern id="horizontal1" width="10" height="10" patternUnits="userSpaceOnUse">    <rect width="10" height="10" fill="#fff"/>    <rect x="0" y="2" width="10" height="1" fill="#000"/>    </pattern>
        <pattern id="horizontal3" width="10" height="10" patternUnits="userSpaceOnUse">    <rect width="10" height="10" fill="#fff"/>    <rect x="0" y="2" width="10" height="3" fill="#000"/>    </pattern>
        <pattern id="crosshatch" width="8" height="8" patternUnits="userSpaceOnUse">    <rect width="8" height="8" fill="#fff"/>    </pattern>
        <pattern id="subtlepatch" width="5" height="5" patternUnits="userSpaceOnUse">    <rect width="5" height="5" fill="#fff"/>    <rect x="2" y="2" width="1" height="1" fill="#000"/>    </pattern>
        <pattern id="checkers" width="8" height="8" patternUnits="userSpaceOnUse">    <rect width="8" height="8" fill="#fff"/>    </pattern>
        <pattern id="raindrops" width="10" height="10" patternUnits="userSpaceOnUse">    <rect width="10" height="10" fill="#fff"/>    </pattern>
        <pattern id="texture" width="4" height="4" patternUnits="userSpaceOnUse">    <rect width="4" height="4" fill="#fff"/>    </pattern>
        <pattern id="circles3_a03500_000000" width="10" height="10" patternUnits="userSpaceOnUse">    <rect width="10" height="10" fill="#a03500"/>    <circle cx="4" cy="4" r="2" fill="#000000"/>    </pattern>
        <pattern id="diagonal1_d9b400_535353" width="10" height="10" patternUnits="userSpaceOnUse">    <rect width="10" height="10" fill="#d9b400"/>    </pattern>
        <pattern id="diagonal3_3264c8_ffffff" width="10" height="10" patternUnits="userSpaceOnUse">    <rect width="10" height="10" fill="#3264c8"/>    </pattern>
        <pattern id="horizontal1_72b38e_000000" width="10" height="10" patternUnits="userSpaceOnUse">    <rect width="10" height="10" fill="#72b38e"/>    <rect x="0" y="2" width="10" height="1" fill="#000000"/>    </pattern>
        <pattern id="horizontal3_986ba1_ffffff" width="10" height="10" patternUnits="userSpaceOnUse">    <rect width="10" height="10" fill="#986ba1"/>    <rect x="0" y="2" width="10" height="3" fill="#ffffff"/>    </pattern>
        <pattern id="vertical1_b9a087_ffffff" width="10" height="10" patternUnits="userSpaceOnUse">    <rect width="10" height="10" fill="#b9a087"/>    <rect x="2" y="0" width="1" height="10" fill="#ffffff"/>    </pattern>
        <pattern id="vertical3_4c91bf_ffff33" width="10" height="10" patternUnits="userSpaceOnUse">    <rect width="10" height="10" fill="#4c91bf"/>    <rect x="2" y="0" width="3" height="10" fill="#ffff33"/>    </pattern>
        <pattern id="checkers_cc3333_f7f7f7" width="8" height="8" patternUnits="userSpaceOnUse">    <rect width="8" height="8" fill="#cc3333"/>    </pattern>
        <pattern id="texture_d1dbdd_525252" width="4" height="4" patternUnits="userSpaceOnUse">    <rect width="4" height="4" fill="#d1dbdd"/>    </pattern>
        <style id="map-style">svg { background-color: #ffffff; }</style>
      </defs>
      <path id="WA01" d="m199 79.19-.42-.1v-.32l-.25-.08.03-.13-1.17-.26-.14.43-.15.04-.04-.25-.39-.16-.1.4-.2-.35-.57-.35.27-.8.27-.36.37-.15.17-.17.07-.43-.33-.48-.14-.32-.1-.6.04-.61.27-.33-.04-.16.14-.62-1.17-.3-.05-.34.17-.42.3-.06.52.12.04-.17.29-.16.38.1-.1-.14.18-.28-.16-.42.14-.6.44.17.16-.07.12-.25.25-.2-.35-.08-.1-.27.4-.34.2.06-.06.3.37.17-.03.38.23-.04.17-.45-.13-.08.06-.27.26.3.07-.23-.27-.2.07-.33.63.15.1-.46.1-.1-.1-.22-.28-.1.2-.34.06-.43.14-.13.57-.1.2-.25.04-.5.26-.24-.12-.4-.2-.24h-.11l-.19-.42.52-2.24-.2-.86-.25-.17.03-.11.4.07.04-.2.13.02.04-.42-.09-.4.18-.01-.08.35.04.2.27.24.17-.4.5.22-.09-.38.43.12.1-.1.1-.36.2.18.23-.23.08.28h-.2l-.08.32.24-.05-.14.54-.16-.06-.13-.24-.1.57v.25h.14l-.08.34.36.08.03.22.2.09-.17.86.45.09-.1.45-.23-.05.24.51.76.06-.13.62-.44.39.17.4.12.04-.07.39-.12.01-.08.32.09.15-.13.33.19.13-.17.48.13.03-.12.42.64.16.3.29.07.3-.07.51-.08-.01.01.33.12.02-.26 1.2.06.31-.48.04-.28.13.05.08.4.01.08.19-.32-.13-.01.1-.65.34-.24-.04-.15.3-.84.04.32.24.17.3-.05.8-.1.23-2.33-.56-.06.45-.23.06-.06.32-.12-.01-.12.32.26.01.07.3-.13.43.47.07-.17.34-.07.57.13.26-.05.45-.5.38.2.4.06.22-.12.39-.43.41" fill="#d1dbdd" stroke="rgb(209, 219, 221)" stroke-width="0.1" data-originalStrokeWidth="0.1" style="stroke: rgb(0, 0, 0); fill: rgb(209, 219, 221); pointer-events: auto; stroke-width: 0.1;" pointer-events="auto"/>
      <path id="WA02" d="m194.02 72.4.17-.43.02-.45.35-.15.77-.67.31-.11.38-.65v-.35l.47-.95.3-.3.08-.36.17-.38.66-.08.63.06.47-.25v-.36l.1-.08.15-.73.17-.26.16-.02-.1-.38-.24-.04-.62-.71-.3-.2.04-.08.27.21.07-.18-.09-.23-.28-.03-.1-.31-.35-.4-.02-.4-.32-.2-.05-.57-.13-.13-.07-.56.13-.14.07-.35-.02-.43.38-.49-.21-.31.1-.17-.03-.26.14-.28-.1-.34-.27-.27-.52.02-.16-.1-.08-.27-.23-.02-.29.14-.03.45.12.18-.37.35h-.32l-.2.14-.1.36v.3l.17.17-.02.21.2.46.09.4.32.35V62l.19.12.48.95.08.23.16.8-.14.04-.26-.15-.18-.3-.02-.42-.1-.24-.26-.3-.1-.35-.37-.23-.33-.82h-.24l-.23.2-.42-.52.05-.44-.18-.75-.04-.45.17-.33-.06-.25.22-.58.11-.54.16-.28.6-.1.32.3.29-.09.26-.4.29.18.82.65h.19l.37-.68.02-.38.1-.2.01-.28-.12-.1-.04-.52-.24-.23-.08-.2-.35-.2-.31-.5-.84-.46V54l.35-.09-.1-.09-.45-.04-.05-.2-.25-.03.09-.24-.03-.45-.24-.4.09-.07-.05-.3-.54.08.35-.2.14.07.42-.7-.57-.1-.12.31-.22.2h-.43l-.25.24-.23-.1-.18.1-.48-.02.1-.3-.2.04-.16-.34.09-.6.18.09.18-.27.15-.03.09-.57-.12-.46-.37-.27-.3-.08.12-.22.16.02.22-.22.23.22 1.28-.26.3.09-.03.28-.12-.03-.04.43.1 1.05.29.07.06-.58-.01-.28.28-.13.18.02.1.47.1.65.28.03.43.32.71-.2-.1-.33-.03-.35.08-.54.12-.25.01-.55-.12-.17.05-.44-.06-.35-.35-.15-.24-.3-.4-.17-.05-.15.18-.17.02.2.2.23.9.22.15.55.27.13.12-.23.23.05.55-.37.28-.5-.32-.82-.29-.17-.34-.64-.08-.3-.24-.46.46-.1.06-.39-.05-.62-.18.08-.06.29-.08-.4.04-.5.25-.08.09-.2.4-.35.08-.27-.4-.27v-.2l-.25-.22-.11-.28-.54-.2-.4.13-.1-.06-.53.2-.08.16-.44.3-.25.21-.45.52-.16-.53-.16-.22.4-.44.42-.55.1-.32-.38-.32-.23-.4h-.25l-.25-.1v.48l-.18-.03.24-.92.05-.93-.07-.2-.45-.39-.13-.28-.48-.61-.09-.28.2-.01.35-.23.42-.12.2-.28.03-.28-.1-.28-.3-.19-.42.23-.57-.36-.04-.2.17-.3.53-.41.03-.07.58-.37.45-.11-.03-.16 7.17 1.68 3.71.87 2.57.59 6.87 1.72 7.47 1.6 1.1.2 1.73.42h.15l3.18.72 4.95 1.07-.01.2-.4.36h-.35l-.07.29.14.2.47.32.14.21.02.34.32.02.18-.27.3-.01.03-.18.2.03.44.27.17.34v.27l-.14.17-.28.05-.01.46-.13.14.16.26-.1.35-.18.15.03.19.32.36.25.13.03.29-.27.34.04.28-.21.35-.07.33.1.26-.13.52.12.44.33.12.1.49.13.06v.34l.16.16.01.22.2.08.18.33-.1.13-.39-.01-.12.2-.03.44-.13.05-.39-.17-.22.23-.23.37-.04.32-.3-.12-.39.14-.24.4h-.33l-.27.35-.18.12.05.36-.1.37.35.68.37.21.24-.06.26-.4.3.24.26.55-.07.39-.29.06-.28.49.09.34-.08.16-.62.14-.21-.06-.56.17-.48-.05-.25-.16-.25-.35.2-.24-.19-.56-.4-.27-.28.04-.06.31-.17.2-.16-.06-.24-.29-.42.07-.06.3-.37-.13-.24-.18-.3-.08-.12.2.02.24-.12.46-.87-.16-.18.1-.73-.2-.35.25-.2.25-.23.5.03.22.31.28v.43l-.12.03-.15.35.05.24-.3-.1-.17.2-.17.4.1.14-.1.23.28.56-.04.48-.06.1-.34-.12-.34.45.07.09-.18.3.24.08.22.27h.27l.07.25.5.25v.11l-5.61-1.22-2.84-.63-2.54-.6-.9-.2.01-.06-.94-.2-1.3-.3-1.58-.36-1.95-.38-1.81-.43-3.37-.77-1.1-.25-.72-.17-2.22-.52.44.95.26.71.48 1.1.06.82.1.25.09.4-.04.4-.13-.02-.04.21-.4-.07-.03.12.25.16.2.86-.52 2.24.19.42h.12l.2.24.1.4-.25.24-.05.5-.2.26-.56.1-.14.12-.06.43-.2.34.3.1.08.23-.1.09-.1.46-.63-.15-.07.34.27.2-.07.22-.26-.3-.06.26.12.09-.16.45-.23.03.03-.38-.37-.16.06-.3-.2-.06-.4.34.1.28.35.07-.25.2-.12.25-.16.06-.44-.16-.14.6.16.42-.18.28.1.13-.38-.1-.3.17-.03.17-.52-.12-.3.06-.16.42.04.34-1.4-.34m3.16-6.65-.2-.4.27.01.2.3v.3l-.27-.21m-6.2-10.93.4-.27.22-.34.13-.04.24-.3.38-.36.31-.56.21-.82.43-.02.4.27.37-.27.23.24-.04.26.2.1-.08.29v.46l-.44.34.04.1.54.34.26.26.38.62.2.2.1.37v.28l-.19.2-.5.24-.56-.12-.25-.48-.17-.15-.32-.08-.4.04-.22.13.08.2-.16.4-.3-.1-.04-.32.29-.01-.2-.26-.33.11-.21.25.16.33-.1.41-.17.17-.42.1-.57-.11-.54.04-.12.17.14.44.21.04.44-.17.3.11.4.04.26-.07.23.28.14-.05.17.37.2.24-.05.14.27.67-.06.72.19.4-.08.48.08.51-.41.4.2.86.14.06-.08.42-.14.25.2.16-.13.74-.1.29.2.07.25-.15.3-.5.01-.76.21-.32-.13-.72.24.03.44.2.26.6.1.04.24.78.3.37.47.26.04.13.55.2-.02.47-.08.29-.03.48.23.38-.03.48-.12.49-.27.45-.17.05-.31.28-.07.42-.13.17-.2-.1-.1-.25.14-.2-.2-.13-.24.24-.39-.14.03-.08-.2-.46.23-.64-.03-.38-.32-.7-.16-.26-.48-.02-.32.11-.2.23-.57.04-.02-.33.23-.23.09-.2-.08-.24-.2-.25-.43-.23-.21-.53-.18-.22.28-.19.16-.51-.28-.6.6-1.08.1-.77-.1-.67-.19-.24-.42-.17-.43.02-.28.12-.08-.25.03-.43-.09-.22-.29-.46-.44-.32-.13-.33-.34-.27-.08-.3.61-1 .56-.5.38-.69m3.8-2.06-.2-.04.12-.14.34.03-.26.15m-2.35-2.57-.07-.3h.27l.07.2-.15.18-.12-.08m.53-.57-.12.22-.43-.2.13-.23.5.02-.08.2m-4.39-2.63v-.29l.11-.35.3.08.36-.16.1-.33.14-.09-.1.55.22.08.06-.26h.13l-.03.26-.22.16.02.2.24.06.09.19-.18.1-.3.63-.19.12.01.23.26.47v.28l-.31.48.33.05-.23.32.3.04.27-.27-.07-.3.11-.47-.02-.57.18-.41.21-.16.77.11.38.52-.04.14-.3-.16-.2.1-.21.32-.4.1-.12.32.08.17-.21.33.1.29.2.22-.19.07-.04.2-.18.16h.29l-.08.19-.25.1-.22-.03-.04-.2-.3-.2.05.18-.41-.26-.05.1.23.17-.1.09-.4-.05-.47-.19.2-.2.16.1.09-.15-.2-.18.32.02.02.2.24-.2-.26-.25-.58-.16-.11.15-.38.02-.06-.19.23.05.15-.4-.16-.18-.2.15-.2-.15.15-.37-.04-.18.26-.65.2-.23.13-.32.37-.08v-.23m7.62 1.93-.09.2-.04-.26.13.06m-11.73-5.87.19.1.77.12.07.36-.16.37.48.36.36.59v.2l.24.25.38.14.15.37-.06.3.15.24.52.11-.17.46-.23.12-.2-.05-.22-.24-.25.01-.25.68.15.4-.05.4.33.36.52-.03.04.22-.13.3-.23-.15-1.14-.48-.15-.1-.43-.46-.02-.23-.27-.17h-.2l-.16-.26-.32-.18-.24-.28-.25-.53.01-.16-.15-.4.16-.56-.13-.14-.06-.36.2-.37-.2-.36-.32-.14.01-.27.25-.33.2-.08.22-.26.45.26.14-.13m9.94 3.61.24-.1.16.56.53.69.33.28v.6l-.52-.36-.45.14h-.45l-.17-.14-.03-.29.1-.34.25-.32-.06-.29.07-.42m-2.57.04-.1.32-.4.21-.2.21-.28.04-.17-.52.12-.16-.19-.12.04-.56.23-.32.31-.08.36.37.28.61m-3.89-1.84.58.3-.1.2.17.23.03-.23.34-.11.26.2-.02.2-.46.33-.12.22.01-.28-.26-.04-.17.44-.47-.16V46l-.23.05-.13-.36.3.18-.11-.32-.3-.46-.29-.05v-.36l.18.2.6-.1.2.1m5.45.81.2.25.06.35-.13.03.3.42.07.44-.13-.06-.3.18.11.16-.15.27-.77-.1.03-.28.2-.34-.3-.3.03-.5.26-.1.17-.4.35-.02m-2.25-.22.06-.12.16.26-.4.11.17-.25m4.3.64.05-.2.18.08.01.2-.25-.08m-8.9-2.2-.11-.25.1-.07.18.17-.02.21-.16-.06m7.9 1.78.07.16-.4-.1-.26-.28-.07-.22.54-.08.16.33-.04.19m-9.21-2.81-.36-.25-.47-.4.17-.02.3.24.24.07.4.42-.28-.06m3.37-.71.29-.11v-.13l.26-.04.21-.32-.15-.26.25.14.47-.02.5.1.3.13.18.28.56.31.7.84.4.34.58.42-.31.11-.04.22-.56.2-.18.16-.25.06-.37.33.16.45-.36-.17-.11.13-.25-.09.13-.43-.33-.27-.13-.59-.13-.25-.13-.01-.04-.48.2-.75-.19-.34-.12.14-.17-.11-.29.1.12.52-.13.1v.4l.45.63v.5l.22.37-.07.24-.27.24-.28.14-.41-.25-.45-.05-.17-.22-.22-.05-.02-.7.1-.18-.08-.23-.17.06-.25-.5-.24.18.12.18-.1.2.18.17.08.32-.2.3-.22-.13-.06.2-.39-.1.03-.12.37-.08.01-.18-.2-.42-.07.18-.32.1-.12-.07.1-.58.4-.33.19-.34.56-.31.11-.15.32-.13m7.71 2.48.1.44-.3-.14.2-.3m-11.61-3.17.53.65-.17-.05-.4-.38-.47-.03-.1.17-.33-.24-.32-.35-.27-.48.04-.17.44.1.63.33.42.45m10.12.93-.04.1.2.3v.34l.37.28.4.75.01.67-.03.3-.2-.3-.26-.16-.59-1.08-.15-1.01-.17-.21-.35-.08.04-.47.26-.49.22.22.26.6.03.24m-6.76-1.11-.06.3-.27.23-.34.13-.3.02.23-.42-.17-.22-.48-.22.38-.05.22-.12.18-.23.22.08.43-.08-.04.58m8.15 1.8v.27l-.25.13-.28-.18-.3-.55.17.15h.2l.3.17.1-.23.06.25m-4.6-2.3.15-.1.42.27-.4-.07-.16-.1m-.92-.85-.2-.1-.04.2.3.11.24.32-.42.07-.5-.45.11.01.1-.3.15-.07.3.08.42.3-.46-.18m-1.31-.88-.01-.2.6.3-.18.08-.41-.18m.26-6.2-.06.14-.28-.14-.92-.04.08-.33v-.63l1.14.27.08.6-.04.13" fill="#d1dbdd" stroke="rgb(209, 219, 221)" stroke-width="0.1" data-originalStrokeWidth="0.1" style="stroke: rgb(0, 0, 0); fill: rgb(209, 219, 221); pointer-events: auto; stroke-width: 0.1;" pointer-events="auto"/>
      <path id="WA03" d="m151.2 93.73 1.67.46.43.1 2.13.55.84.24 1.66.38 3.07.73.44.11 1.38.32 1.32.36 1.71.42.85.25.2-.01 1.34.34 1.3.3.5.09.87.25.34-1.35.2-.06.12.13.3-.03.04.13-.15.2.1.03.17-.2.1.21.36-.27.16-.21.35-.07.5.3.48-.12-.32.18-.15.3.04.28.47-.02-.07.35.8.2-.11.38 1.13-.42 1.13-.1.11-.17.26.05.23-.23.18.09.23-.2.51.34.73.12.4.03.57-.12.8-.02.4-.16-.04-.35.12.03.08-.34.11.02.11-.32.28.07.17-.2.77.18-.1-.25.04-.24.45.11-.02.23.3.07.3.18.04.14.23-.07.3.08.1-.18.62.4.1.34.19.06.3.4-.13.22.05.39-.09.16-.05.36.69.31.04.36.67.28.23.26.38-.01.2.24.2-.13.36.33.25.04.28-.14-.06.43.44.17-.1.58-.31.36.04.24.23.17.16.41h.15l.11.3.16.06.06-.16h.52l.2.24.33.04.13.3.2.03.25.28h.3l.34.22.4.04.24.24.73.06.34.25.12-.05.34.29.38.1.4-.24.29.1.14.26h.23l.41-.2.37.33.09.25.37.19.24.03.17.19.53.23.5.16h.23l.41-.47.32-.04v-.17l.38-.18.09-.15.28-.15.43-.14 6.4 1.43.08.54.15.19-.1.13.34.1-.02.16-.2.3.34.26.04.26.53.1.29.14.22.53-.08-.05-.42.12-.15.18.08.2-.09.2-.45-.15-.25.08-.15.22-.03.33-.14.15-.01.36.37.17-.08.1.2.25-.12.2.02.24-.37.26-.22.25.06.24-.14.36-.34.12-.14.17.17.4-.23.18.07.11-.35.2-.47.09-.23.62.05.31.39.24.1.22-.39.38.14.49.26.2-.1.23.05.43-.06.24.19.3.13.42-.28.58-.1.07-1.25-.3-1.41-.32-2.34 10.57-1.92-.44-.42 1.83-.78 3.52h.08l-.61 2.7 2.03.48-.34.07-.25.18-.04.3.25.45-.12.15v.35l-.08.2-.2-.09-2.25.2-.8-.19-.9.12-.61-.1-1.55-.76-1.29.13-.91.54-.04.25-.2.2-.65.18-.22-.05-.23-.02-.23.3-.5.2-.5.11-.38-.05-.53.05-1.37.5h-.42l-.49-.2-.93.01-.46.28-1.18.28-.3.06-.09-.02-.65-.13-.72-.33-.3-.74-.55-.36h-.26l-.45.12h-.18l-.45-.01-.3-.2-.46-.51-.26-.18-.25-.14-.38-.22-.5-.36-.22-.1-.95-.53-.76-.23-.77-.53-.52-.67-.5-.32-.45-.54-.05-.76.18-.58.52-1 .14-.77-.02-.69-.33-1.03.09-.48.35-.53.2-.71-.08-.25-.09-.33-.07-.93.26-.58.03-.9-.37-.75-.13-1.1-.33-.58-.04-.05.09-.93-.03-.07-.23-.75-.48-.41-.6-.5-.03-.07-.65-1.06-.23-.18-.3-.25-.27-.32-.06-.11-.96-1-.18-.27-.21-.09-.84-.3-1.1.27-1.63.5-.45-.1-.37-.13-.9-.24-.22-.05-.14-.18-.2-.17-.34-.52-.32-.51.1-.31.33-1.13-.28-.74-.33-.55-.2-.2-.45-.16-.98.12-.04-.21-.27-.04-.1.1-.85-.21-.23-.01-.42-.28-.7-.23-.16-.22.12-.42.02-.31-.36-.37-.53-.02-.17.35-.44-.2-.16.3-.17.16-.33-.07-.37-.4-.38.05-.21.29-.33-.05-.15.17h-.24l-.3.27-.15-.02-.27.22-.68-.35-.24-.26-.03-.19-.36-.54-.1-.5-.19-.22.04-.25-.23-.37-.3-.21-.4-.18-.36.31-.26.05-.22.2.15.13-.07.4-.37-.18-.36.14-.02-.16.18-.62-.06-.1.24-.13.3-.61.59-1.8.2-.67.64-2.56.38-1.93.2-1.42.34-1.4.15-.18h.18l.02.39.22.32v.2l-.35.1.06.8.1.14.1.42-.14.58-.31.97-.09.61-.12.04-.17.4-.3 2.51-.26 1.16.12.25.7-.08.25.15h.23l.33-.94-.35-.03.02-.5.18-.25-.07-.2-.33-.29-.05-.13.15-.5-.05-.12.2-.6.14-.22.2.03-.05.23.12.15-.07.34.52.45.18-.68.37-.12.23-.37-.03-.13.28-.02.04.2.3-.12.1-.64.15-.13v-.33l-.21-.15-.18-.6.05-.2-.04-.4-.42-.63-.05-.29.16-.7.16.05.11.33.17.04.01-.45.47-.18.16-.53-.03-.17.21-.14.25.06.96-.4.31-.05.26.1.24-.05.02-.44-.3-.07-.1-.26-.42-.27-.1-.66h-.5l-.23.19.02.4-.75-.14-.34-.44-.16.06-.15.24v.34l.1.3-.15.04-.26-.21h-.25l-.09-.3-.2-.2-.26-.01-.47-.5-.12-.18-.35-.14-.25-.41.1-.32.22-1.16" fill="#d1dbdd" stroke="rgb(209, 219, 221)" stroke-width="0.1" data-originalStrokeWidth="0.1" style="stroke: rgb(0, 0, 0); fill: rgb(209, 219, 221); pointer-events: auto; stroke-width: 0.1;" pointer-events="auto"/>
      <path id="WA04" d="m275.48 50.8-1.26 6.53-.43 2.3-.36 1.76-.66-.13-.17.85-.86 4.42.54.1-1.04 5.26h-.02l-.4 2.2-.8 4-.84 4.43-.16.13-.41-.03-.66.15-1.28-.03-.3-.14-.85 4.36-.87 4.26-.4 1.96-.61 3.17-.92 4.47-.2 1.12-.68 3.37-.37 1.8-.47 2.42-.95 4.75-1.16-.22-2.1-.43-.24.35.14.42-.33 1.68.12.03-.21.38-.31 1.6v.3l.24.34.72.5-3.63-.74-2.5-.48-.38 1.83-.9-.18-.88-.2-.07.28.76.7.05.4-.11.64.04.22.4.7.17.4.38.42.38.34.16.36.14.47.52.51.13.27.07.74-.05.31-.15.2v.29l-.14.55-.03.52-.35.97-.12.67-.14.33.43.1.3-.2.26-.25 1.53.3-.07.46.86.18-.18 1.05-.21.22-.14.38-.02 1.02.05-.22.49.1-.06.23.89.17.12-.45 1.35.26.17-.9.39.63.3-.02-.19.98.15-.02 1.8.36.34-.29.14-.32.6.14.1.32.25-.09.38.3.02.09-.44-.1-.38.01-.36.13-.16.26-.31.17-.09.17-.28.19-.47-.02-.88.05-.66-.02-.46-.07-.43.21-.8.26-.52.68.49.61.53 1.05.18.56-.08.46.25 1.09v.57l-.2.4-.03.8-.47.13-.67.5-.58.55-.47.22-.79.2-.79.35-.76.16-.96-.03-.57-.1-.62-.29-.62-.35-.65-.04-.29-.03h-.51l-.24.03-.75.15-1.87-.26-.88.2-.77-.23-.9-.73-.67.05-.56.34-1.31 1.28-2.3-.1-.61-.17h-1.05l-1.32.12-1.3-.14-1.16.31-1.34.43-1.6.05-.71.23-1.1.91-1.58-.18-1 .12-1.75.02-1.72-.21-.47-.27-.3-.4-.6-1.03-.62-.4-.96-.18-.84.33-.54.35-.9.14-1.4.3-1.55.14-1.06.7h-.4l-.55-.65-.2-.03-.7.1-.49-.26-.57-.05-.66-.19-.48.04-.92.6.03.08v.03l-.15.12h-.02l-.1.05-.1.07-.14-.1-.16.09-.5-.04-.33-.08-.21-.4.1-.38.03-.6v-.04l-.17-.74-.69-.35-.75-.46-.46-.52-.5-.27-.77-.12-.7.17-.46-.14-.78-.41-.58-.68-.1-.09-.48-.24.09-.2v-.36l.12-.15-.25-.45.04-.3.25-.18.34-.08-2.02-.46.6-2.7-.09-.01.78-3.52.43-1.83 1.92.44 2.34-10.57 1.41.32 1.26.3.09-.06.28-.58-.13-.44-.19-.3.06-.23-.05-.43.1-.23-.26-.2-.14-.5.4-.37-.11-.22-.4-.24-.04-.3.23-.63.47-.07.35-.22-.07-.11.23-.17-.17-.41.14-.17.34-.12.14-.36-.06-.24.22-.25.37-.26-.02-.25.13-.2-.2-.23.07-.1-.37-.18v-.36l.15-.15.03-.33.15-.22.25-.08.45.14.09-.18-.08-.21.15-.18.42-.12.08.05-.22-.53-.3-.14-.52-.1-.04-.25-.35-.28.21-.3.02-.16-.34-.1.09-.11-.14-.2-.07-.54.06-.11.27-.08-.2-.4-.04-.28-.24-.34.13-.16-.24-.3.01-.21-.11-.47.01-.25-.2-.13-.28-.3.3-.32.02-.2.5-.45.47-.05.46-.23.23-.3.06-.7-.08-.14.42-.3-.02-.24.59-.14.37-.24.09-.42.33-.28-.05-.34.7-.6.08-.5-.08-.39.4.54.32-.18.23.14.5.07.28-.2.46-.02.76.68.17.25.22.08.09.4.36.43.47.34.51.72.17.45-.05.13.38.2.04.15.23.05-.13.67.37.43-.07.33.2.18.04.34.21.04-.05.34.18.15.06.25 4.5.98 3.8.78-.02.23-.55 2.43 2.68.59-.3 1.35-.3 1.32 3.17.69 3.13.68 1.78.38 2.7.53.6.13.19-.54.69-.5.49-.64.1-.58-.5-1.28-.02-.22.18-.88.24-.9.08-.79-.32-1.23-.1-.46.09-.5-.05-.2.09-.54-.06-.2-.35-.54-.1-.25v-.39l.3-.59.26-.36.34-.1.3-.4.15-.58-.11-.52.06-.34.2-.3.06-.46.16-.43-.04-.26-.21-.25-.91-.11-.32-.17-.17-.37-.04-.55.2-.61.07-.06.21-.7.04-.6.25-.4-.08-.26-.22-.09-.27-.61-.2-.24-.75-.21-.7-.43-1.05-.37-.64-.5-.08-.26.02-.41-.16-.67.11-.28-.01-.52.24-.01.05.13.05-.34-.34-.17.26-.57.34-.87.32-.5.45-.34.38-.14.21-.4.32-.23.27-.47v-.36l.14-.7.3-.43.15-.05.17-.41.31-.18.18-.3v-.63l-.22-.73.1-.3.4-.47.38-.2 1.37-.27.3.14.39.42.52.01.73-.15.59-.02.14.08.27-.08.43-.53.1-.27.31-.4.27-.62.6-.11.3-.18.34-.48v-.7l.27-.24.38-.13.73-.6-.07-.63-3.72-.77-.4-.36.2-.35-.28-.43.1-.22-.02-.34-.2-.35-.46-.3-.01-.17-.47-.26-.05-.24.12-.25.25.07.07-.14-.16-.27-.27-.09-.51-.36v-.13l-.4-.05-.39-.33-.31-.58-.24-.35-.14-.06-.22-.43-.18-.22-.63.01-.2-.5-.28-.24-.05-.36-.12-.09.1-.47.48-.76-.1-.64-.36-.03-.17-.1-.13-.32.16-.1-.08-.31-.6-.37-.33-.4-.19-.06-.3-.32.13-.16-.23-.15-.36-.62-.09-.5-.22-.08-.19.1-.42-.07-.3-.43-.36-.12-.08-.16.11-.1.02-.29.1-.17.3-.13.15-.27.14-.05-.05-.48-.6-.45-.16-.32-.2-.18-.61-.12.27-.35-.16-.15-.02-.5.12-.2-.18-.2-.08-.25.3-.04.15-.2.4-.16-.05-.19-.26-.19.12-.36.46-.2-.51-.37.14-.45.16-.1v-.32l-.56.07-.5-.13-.08-.34.3-.5.27-.06.07-.39-.27-.54-.29-.23-.27.4-.23.05-.37-.2-.35-.69.1-.37-.06-.36.2-.12.26-.35h.33l.24-.4.39-.14.3.12.04-.32.23-.37.22-.24.4.17.12-.04.03-.44.12-.2h.39l.1-.12-.17-.33-.2-.08-.02-.22-.16-.16v-.34l-.13-.06-.1-.5-.32-.11-.12-.44.12-.52-.1-.26.07-.33.2-.36-.03-.28.27-.32-.03-.3-.25-.14-.32-.36-.03-.18.19-.16.09-.34-.16-.26.13-.14v-.46l.3-.05.14-.17-.01-.27-.17-.35-.45-.27-.19-.02-.03.18-.31.01-.17.27-.32-.02-.02-.34-.14-.21-.47-.32-.14-.21.07-.28h.34l.4-.36.02-.19 3.43.73 3.8.8 9.5 2.02 12.49 2.53 5.53 1.09 6.58 1.3" fill="#d1dbdd" stroke="rgb(209, 219, 221)" stroke-width="0.1" data-originalStrokeWidth="0.1" style="stroke: rgb(0, 0, 0); fill: rgb(209, 219, 221); pointer-events: auto; stroke-width: 0.1;" pointer-events="auto"/>
      <path id="WA05" d="m312.64 57.67-.65 3.8-.36 1.97-.12.6-.21 1.27-.25 1.39-.42 2.34-.02.05-.57 3.23-.12.66-.1.65-.23 1.25-.27 1.64-.07.3-.01.13-.15.76-.04.2-.33 1.83-.23 1.22-.26 1.33v.04l-.05.2-.04.21v.09l-.02.03v.04l-.02.06-.04.17-.05.3-.21 1.06-.23 1.22-.05.4-.17.9-.12.66-.12.77-.06.26-.14.78-.22 1.27-.16.95-.39 2.25V94l-.18 1-.01.08-.24 1.4v.01l-.15.87v.02l-.03.16v.1l-.02.04-.04.2-.06.46-.06.3-.22 1.3-.04.29-.35 1.95-.04.27-.1.6-.14.93-.05.2-.38 2.26-.04.24-.15.9-.08.43-.23 1.35-.13.68-.04.24-.25 1.49-.2 1.13v.02l-.17.92-.08.56-.32 1.83-.09.55-.1.45-.06.48-.16.86-.07.48-.2 1.12-.1.58-.2 1.13-.02.16-.15.83-.24 1.35-.22 1.31-.15.83-.2 1.1v.01l-.07.41-.07.5-.44 2.53-.08.52-.14.7-.05.28-.1.63-.1.6-.05.25-.23 1.37-.04.18-.05.35-.19.98v.02l.03.25.01.16-.14.37-.12.29-.04.14-.28.45-.1.07-.12.08-.09.13-.05.37.02.16.07.09.14.1.4.18.11.14-.02.24-.02.12v.32l.26.36.33.25.07.2-.22.48.27.4.18.4.05.48-.05.44-.28.45.05.36.2.26.27.62.11.02.09.3-.33.27-.13.55-.37.35-.1.39-.25.32h-.31l-.2.14v.36l.43.25.24.5v.44l.14.26-.06.5.14.28v.62l-.01.02-1.52-.3-1.35-.24-.25-.05-.61-.12-2.09-.4-1.56-.28-.4-.06-1.28-.23h-.37l-.05-.02-.56-.13-.61-.14-.74-.13-.46-.05-.85-.16-.88-.18-.9-.16-.54-.13-.47-.07-1-.2-1.03-.2-2.33-.43-1.37-.25-.48-.1-2.89-.53-1.22-.24-.68-.11-.73-.16-1.21-.21-1.02-.2-.55-.1-.13-.03-.55-.09-.8-.15-.2-.05-.36-.05-.08-.04-.68-.1-1.25-.26-1.56-.3-.45-.08-1.01-.2-.46-.1-.4-.07h-.03l-2.1-.4-.89-.18-.68-.12-.85-.17-1.88-.35-.25-.04.67-.49.47-.14.03-.79.2-.41v-.56l-.25-1.09.08-.47-.18-.55-.53-1.05-.49-.61.52-.68.8-.25.43-.22.46.07.67.02.86-.05.48.02.28-.2.09-.16.31-.17.16-.26.36-.13.38-.02.44.11-.02-.09-.38-.3-.24.1-.11-.33-.6-.14-.14.32-.35.29-1.79-.36-.15.02.18-.98-.28.02-.4-.62-.17.9-1.35-.27-.12.45-.89-.17.06-.24-.49-.09-.05.22.02-1.02.14-.38.2-.22.2-1.05-.88-.18.07-.45-1.52-.31-.25.26-.3.19-.44-.1.14-.32.12-.68.35-.97.03-.52.13-.55v-.29l.16-.2.05-.31-.07-.74-.13-.27-.52-.51-.14-.47-.16-.36-.38-.34-.38-.42-.17-.4-.4-.7-.04-.22.11-.64-.05-.4-.76-.7.07-.29.88.2.9.2.37-1.83 2.5.47 3.64.73-.72-.49-.25-.35v-.3l.32-1.6.21-.37-.12-.03.33-1.68-.14-.42.24-.35 2.11.43 1.15.22.95-4.75.47-2.43.37-1.78.67-3.38.21-1.12.93-4.47.6-3.17.4-1.96.87-4.25.87-4.37.29.14 1.26.03.67-.15.4.03.17-.13.85-4.44.8-4 .39-2.2h.02l1.04-5.25-.54-.1.86-4.42.17-.85.67.13.35-1.76.43-2.3 1.26-6.53 3.03.59 6.16 1.18 4.46.83 3.54.65 2.4.45.15.01 5.1.93 6.6 1.2 3.6.68 2.11.34" fill="#d1dbdd" stroke="rgb(209, 219, 221)" stroke-width="0.1" data-originalStrokeWidth="0.1" style="stroke: rgb(0, 0, 0); fill: rgb(209, 219, 221); pointer-events: auto; stroke-width: 0.1;" pointer-events="auto"/>
      <path id="WA06" d="m180 88.71-.57.18-.45-.09-.03-.59-.37-.22-.08-.36-.24.1-.23.44-.4.18-.34.01-.4.13-.26.2-.2.51-.21.22-.28.03-.58-.1-.37.2-.14.61-1.1-.28-1.1-.23-.45-.13-.22.96-.32 1.3-.14.4.94.28-.14.46-.54 2.15-.53 2.2-.34 1.35-.87-.25-.5-.1-1.29-.29-1.35-.34h-.2l-.85-.24-1.71-.42-1.32-.36-1.38-.32-.44-.1-3.07-.74-1.66-.39-.84-.24-2.13-.55-.43-.09-1.67-.46.12-1.34-.06-1.95-.04-.31.35.08.18-.2.1.05.3.42v.19l-.2.38.07.19-.05.28.29.29.28-.05.15-.12.29-.61.32-.14.52-.05.18-.24h.27l.29-.16.57.15.49-.1 1.5-.1.5-.17.24.01-.07-.24-.26-.29-.31-.15-.3-.06-.16-.11-.5-.13-.54-.04-.18-.47-.67-.12-.4-.25-.06-.29.35-.24-.23-.24.06-.17-.07-.5-.35-.22-.27-.37-.13.05-.84-.28-.33-.05-.46.11-.2.13-.1.23v.38l.1.38-.12.3-.09.55.02.82.39.05.05.09-.14.34-.3-.35-.18-.1-.4.1-.04.15-.5.04.1-.45.2-.49.33-1.08.45-2.2.14-.84.1-1.19.12-1.38.06-1.4-.04-2.25-.32-.62-.4-.18-.07-1.09-.06-.3-.36-.32-.01-.4.08-.33.06-.67-.1-.2.19-.85.28-1.73.12-1.2.16-1.75-.02-.7.07-.91-.04-1.07-.14-.87.1-1.07-.05-.7-.27-.36-.03-.24-.33-.25-.1-.7.1-.61-.05-.28-.13-.22-.3-.08-.13-.34-.36-.15.08-.23-.18-.16-.1-.29.04-.3-.26-.18-.08-.28-.3-.2-.2.17-.14-.04.07-.25-.32-.48.03-.36-.14-.19.14-.31-.02-.52-.06-.29-.17-.13.06-.25-.1-.15.11-.14-.17-.07.02-.29.16-.25-.08-.34.15-.5v-.39l.12-.44.03-.42-.1-.34.04-.33.15-.54.18-.12.05-.5-.03-.38-.23-.25.12-.16-.1-.37-.02-.35-.14-.28.07-.29.43-.24.25-.04.48-.79.07-.34-.16-.56.18-.19.37-.16.16-.3.1-.34-.04-.34.18-.28.1.09.23-.06.18-.32.03-.32.18-.28-.15-.38h-.38l-.1-.39-.17-.2-.04-.4-.24-.21-.02-.34.38-.16.18.15.35-.03.31.04.12.12.21-.01.48.2-.1.07.1.45.13.18.22.09.45-.12.47.31.41.7.26.08.54.53.63.75.2.14.16.34.4.3.27.45.28.21h.43l.19.16.17.3.77.45v.3l.3.22.27.06.32-.11.06-.1.23.13.36.38.46.34.3.31.6.54.2.25.25.07.3.2-.25.47.88.67.13.3.71.42.32.03-.02.1.46.26.58.08.2.22.38.16.61.1.3.13.06.14.55.1.33-.08.19.23.77.2.95-.05.3.24.28-.07-.04-.14.73.33.56.41.04.38.3.24.58.23.5-.17.05-.1.38-.02.3.25.18.38.3.17.7.12.74-.08.77.2v.11l-.72-.22-.55.03v.14l.65.54.36.08.22.2.43.09h.45l.26.2.52.12.59-.1.14.16.64.2.73-.18.65-.38.72-.53.48-.22.2.05.75-.1v.08l-.7.09-.33.47.56.42.06.23.34.54.35.3.23.8.04.53.48-.02.3-.1.55-.04.72.1.12.09.5.2-.18.15-.31.61.14.3.75.54.18.33.06.69-.15.27-.36.2.01.18.46.03.28-.13.28-.5.3-.8-.45-.4-.05-.34-.35-.41-.23-.09.3-.3.06-.3-.05-.29.9-.43.28-.22.1.08.46.03.6-.05.5.1-.13.36.18.5-.69.18-.4.24-.2.22.2.35.02.3.14.3.17.13-.18.28.06.24.27.4.33-.07-.07-.47.2-.58-.17-.15.28-.23.18-.27.35-.14.45-.07.23.1-.2.44.03.42-.15.97.2.38-.13.45-.42.18-.56-.63-.22.08.05.7-.08.32.27.54.37.11.04.45-.28.4v.4l-.12.3-.14-.07-.22.07.3.2.23-.07.32-.31h.1l.07.35-.21.47.1.31.16.24.4.08.15.12-.27.26-.17-.1-.2.3-.36.07-.3-.17-.57-.18.1.8-.24.36-.33.1-.43.35-.65.08-.01.34-.15.13-.15.62-.26.26-.1.36-.29.1-.33.43-.2.64.18.4-.33.1-.59.03-.33-.32.25-.64.28-.09.05-.33.18-.15.07-.48.3-.27.16-.44.28-.5.12-.4-.13-.23.09-.47-.13-.24v-.27l-.26.02-.08.32-.12.15.1.49-.27.52-.5.22-.24-.1.2-.5v-.23l-.24-.07-.17.39-.06.7.23.33-.2.67-.13.03-.03-.28-.22-.02-.14.4-.19-.08-.15.54-.18.2.13.54-.07.1-.4.14-.36.38.09.37-.12.24-.29-.1-.15-.19-.21.18-.23.33-.77.39h-.2l-.07.29-.53.48-.66.74-.19.07.08.14-.18.25h-.21l-.24.23-.39.83-.48.31-.73.64-.2.06-.23.55-.81.99-.37.69.03.14-.24.08-.13.42.11.25.17.12.55-.28h.33l.1.2.34.12.2.25.64.16.43-.06.8-.45.9-.08.22.05.29-.1.32.07.56-.46.29-.04.29-.28-.42-.16h-.28l-.04.15-.35.02-.58.19h-.47l-.08.1-.26-.06-.27.17-.6.18-.35.47-.4-.02-.23-.37-.56-.33-.45-.03-.13-.1.06-.24-.07-.31.54-.62v-.06l.62-.76.4-.24v-.1l.27-.32.37-.23.33-.35.17-.53.41-.4.24-.1.7-.7.19.03.4-.74h.63l.33-.18.23-.3.06-.37.47-.03.85-.24.16-.23.56-.1.06.07-.27.3.1.1.5-.22.6-.17.77-.17.29-.67.1-.75.33-.52h.15l.29-.3.3-.55.59-.19.26-.59.52-.34.25-.05.06-.16.55-.3.16.01.28-.41.18-.13.73.12.12-.48-.07-.92.05-.35-.14-.26-.4-.26.11-.4h.29l-.02.29.14.32.19.12.67.2.15.2.3.12-.1.37.15.62-.16.47.07.56-.14.53.06.18.3.43-.12.34-.4.18-.04.14.33.36.02.41.1.13-.12.48-.4.12-.54-.14-.44-.2-.37-.05.06.1-.06.37-.12.12.15.3-.04.22.3.3.36-.08.05.47-.28.7.17.33-.5.2.25.48.23.24-.34.4.01.3-.11.35-.2-.02.05.16.45.36-.36.04-.2.1-.32-.05-.49.26-.17.18v.39l-.23.41.03.16.44.13.12.18.23.1.1.25-.67.65-.18.3-.23.14-.04.41-.16.17-.06.6-.49.62-.2.37.04.36.13.27-.29.27-.28.52-.57.54.04.67.17.33.09.39-.52.52-.33.23-.19.03-.22-.34.21-.26-.46-.02-.3-.32-.93-.5-.08.17-.33-.2.23-.4.18-.13-.1-.16.38-.42.14-.28.3-.06-.17-.19.32-.27.53-.2.33-.34.02-.21-.52.12-.79.13-.16.27-.43.14-.06.1-.52.12.06.21-.14.3-.35.36-.31.4-.08.38-.16.05.2.16-.18.4.37-.12-.14.3.04.19.33.03-.24.44.07.33-.08.17-.65.3.06-.43-.22.28.03.34.25.06-.27.28.01.32-.52.3-.15-.08-.03-.6-.2-.12-.19-.78.07-.37-.29-.34-.1-.43.56-.87.48-.3.28-.35.04-.66.3-.64-.14-.18.27-.26v-.11h-.43l-.06-.64.2-.4-.05-.42-.19-.06.04.28-.12.3-.21.27.1.25-.12.35.03.5-.24.2.17.18-.13.3-.24.13.06-.19-.13-.13-.18.28-.26.06.05.4-.18.08-.13.23-.34.2.13.18-.26.78.19-.1-.18.3.13.2.01.38.17.47-.42.72-.35.34.07.11m6.8-.86.2-.08.04-.18.55-.57.21-.49-.23-.82.3.08.23.33.16.05.38.78.25.34.36.24.18.37.47-.15.36-.5-.24-.35-.4-.17.04-.2.2.01.2-.34.26.04 1.34 2.14-.05.2.84.18-.07.45-.29-.07-.4.03.02.34-.15.64-.31-.19-.27-.35-.64-.6-.21-.24-.45-.02-.52.11-.08.21-.18-.03-.26 1.18-1.1-.26.04-.2-.2-.08-.08-.25.27.06.02.17.35-1.48-.96-.22-.09.2-.16-.06.23-.16-.15-.09m-29.84 1.82.19-.03.26.12.2.24-.2.05-.45-.38m28.52-2.88.03.25.33.43.06.22.25.24-.1.3-.34.24-.22-.15-.12-.47-.26-.46-.06-.24-.35-.62.03-.19.4.14.26.31h.09m-4.26-.82-.07.15-.17-.06.12-.3.2-.1.13.1-.21.2m8.83-6.98.31.03.23.18-.18.28-.26-.07-.1-.42M150 64.95l-.27.02.3-.16-.03.14m35.7-5.77-.38.15-.2-.1.37-.25.23.2M153 42.8l.13.28h-.15l.02-.28m-2.63-.85-.29-.1.22-.07.07.17" fill="#d1dbdd" stroke="rgb(209, 219, 221)" stroke-width="0.1" data-originalStrokeWidth="0.1" style="stroke: rgb(0, 0, 0); fill: rgb(209, 219, 221); pointer-events: auto; stroke-width: 0.1;" pointer-events="auto"/>
      <path id="WA07" d="m194.02 72.4 1.4.33 1.16.3-.13.62.04.16-.27.33-.04.6.1.61.14.32.33.48-.07.43-.17.17-.38.15-.27.36-.26.8-.12.35-.66-.16.1-.34-.44-.09-.35.2-.02.23.19.06-.1.5-.2.58.07.31.3.62.02.3-.18-.05-.06-.24-.27-.07.16.23.07 1.21-.4-.07-.19.44-.22.19-.14.35.04.28-.17.41-.22-.04-.14.83v-.14l-.21-.3.01-.82-.2-.22-.31-.19.37-.18.07-.42.23-.22-.06-.38-.33-.38-.14-.53.16-.2-.12-.19.13-.16.07-.44-.1-.63-.2-.27.47-.15.38-.29.17.38.27.12.46-.14.12-.22-.04-.35-.41-.6-.28-.1.04-.17-.18.02-.4-.41-.05-.44-.27-.34.66-.17.3-.76.41-.12.27-.33.17-.37-.07-.6.12-.33-.18-.48.01-.19m-5.03 10.35.25-.88.17-.36.34-.4.37-.14.33-.83.44.36-.16.12-.11.35.2.33.01.16.2.25-.29.36-.04.48.1.5-.25.14-.02.32.17.2.66.25.36.42-.13.08h-.47l-.43.12-.09.1-.37.1-.3.27-.2.33-.32-.12-.1-.24.23-.42.2-.25.2.14.32-.33.21-.04-.07-.24.06-.29-.44-.03-.18.32.28-.08.12.22-.18.15-.44-.23-.27.17-.17.44-.36 1.04-.53-.23-.1-.42.23-.62.15-.03.09-.26-.12-.51.22-.42.23-.35" fill="#d1dbdd" stroke="rgb(209, 219, 221)" stroke-width="0.1" data-originalStrokeWidth="0.1" style="stroke: rgb(0, 0, 0); fill: rgb(209, 219, 221); pointer-events: auto; stroke-width: 0.1;" pointer-events="auto"/>
      <path id="WA08" d="m200.91 60.85-.1-.25-.06-.81-.48-1.1-.26-.72-.44-.95 2.22.52.73.17 1.1.25 3.36.77 1.8.43 1.96.38 1.58.36 1.3.3.94.2v.06l.9.2 2.53.6 2.84.62 5.6 1.23V63l-.49-.25-.07-.25-.27.01-.22-.28-.24-.08.18-.3-.07-.1.34-.44.34.11.06-.08.04-.48-.27-.56.08-.24-.08-.15.16-.4.18-.2.29.11-.05-.24.15-.35.12-.03v-.43l-.3-.28-.04-.23.23-.49.2-.25.35-.24.72.2.18-.11.87.16.13-.46-.02-.25.11-.2.31.09.24.17.37.14.06-.3.42-.07.23.28.17.08.18-.2.06-.32.29-.04.38.27.19.56-.2.24.25.35.25.16.48.05.56-.17.2.06.63-.14.08-.16.49.13.57-.07v.32l-.17.1-.14.45.51.37-.45.21-.13.35.26.18.05.2-.4.15-.14.2-.31.05.08.25.18.2-.12.2.02.5.15.15-.27.35.63.13.19.17.15.31.6.45.06.48-.14.06-.14.27-.3.13-.11.17-.02.29-.1.1.07.16.36.12.31.42.4.07.2-.1.22.08.09.51.36.62.23.15-.13.16.3.32.2.06.33.4.59.37.08.3-.16.11.13.33.17.09.35.03.11.64-.48.76-.1.47.12.1.05.35.28.24.2.5.63-.01.2.22.2.43.14.06.24.35.31.58.4.33.38.05v.13l.52.36.27.09.16.27-.07.14-.25-.07-.12.25.05.23.47.27v.17l.48.3.19.35.02.34-.1.22.29.43-.21.35.4.35 3.72.77.08.64-.74.6-.38.13-.27.25v.7l-.34.47-.3.18-.6.12-.26.62-.31.4-.11.26-.43.53-.27.08-.14-.08-.6.02-.72.15h-.52l-.39-.43-.3-.14-1.37.26-.39.21-.38.46-.12.31.24.73v.63l-.19.3-.3.18-.17.4-.15.06-.31.43-.13.7-.02.37-.27.46-.3.22-.22.41-.38.14-.45.33-.32.5-.34.88-.26.56.34.18-.05.34-.05-.13-.24.01.01.52-.1.28.15.66-.02.42.08.26.64.5 1.05.37.69.43.76.2.2.25.27.61.22.09.08.26-.25.4-.04.6-.21.7-.07.06-.2.6.04.57.17.37.32.16.9.1.21.26.05.26-.16.43-.06.48-.2.28-.06.34.1.52-.15.58-.29.4-.34.1-.26.37-.3.58v.4l.1.24.35.54.06.19-.1.56.06.19-.1.5.1.46.33 1.23-.1.78-.23.91-.17.88.01.22.51 1.27-.1.58-.5.65-.68.5-.19.54-.6-.13-2.7-.54-1.78-.37-3.13-.68-3.17-.69.3-1.32.3-1.35-2.67-.6.55-2.43.02-.22-3.81-.78-4.5-.98-.06-.25-.2-.15.08-.34-.22-.04-.05-.35-.2-.17.08-.33-.37-.43.13-.68-.23-.04-.04-.15-.38-.2.05-.13-.17-.45-.51-.72-.47-.34-.36-.43-.09-.39-.22-.08-.17-.26-.76-.68-.46.02-.27.2-.51-.07-.23-.14-.31.18-.41-.55.09.4-.07.5-.72.6.05.34-.33.28-.1.42-.36.24-.59.14.03.25-.43.3.08.12-.06.71-.23.3-.46.23-.48.05-.49.45-.02.2-.3.31.28.31.2.13-.01.25.11.47-.01.22.24.29-.13.16.24.33.02.3.22.39-.28.08-.05.11-6.41-1.43-.44.14-.27.15-.1.15-.36.18-.01.17-.32.04-.41.45-.24.01-.5-.15-.52-.24-.17-.18-.24-.03-.37-.2-.09-.24-.37-.32-.4.2h-.24l-.15-.27-.28-.1-.4.24-.38-.1-.34-.3-.12.06-.34-.25-.73-.06-.24-.24-.4-.04-.33-.22h-.3l-.25-.28-.21-.03-.13-.3-.34-.04-.19-.25h-.52l-.06.17-.16-.07-.1-.3-.16.01-.16-.4-.23-.19-.04-.23.3-.37.11-.56-.44-.18.05-.43-.28.14-.24-.04-.36-.33-.21.13-.2-.24h-.37l-.23-.25-.68-.28-.04-.36-.68-.3.05-.37.09-.16-.05-.39.12-.23-.3-.4-.18-.05-.1-.34-.62-.4-.02-.36.3-.1.39-1.16.15.1.16-.1-.22-.15.2-.3.24-.01 1.79-1.25.47-.22.26-.45-.07.52.39.1.08.42.12.03.1-.38 1.22.28.02-.14.34.1.08-.32.67.16.1-.43.46.1-.06.2.2.18.32.14h.3l.04-.19-.03-.57-.08-.07.21-1.03.12-.06.11-.43.2-.46-.09-.02.08-.38.2.19.04-.26.6.08.13.13.16-.52-.08-.16-.32-.07-.09-.13.18-.75.32.1.32-.12.1-.2-.44-.1.02-.11-.44-.11.13-.55.35.05.19-.83.3-.02-.07-.29.29.06.15-.2.27-.61.15-.14-.16-.07.2-.14.18-.72-.23-.05.06-.23.2.06.22-.42.11.02.06-.21.19-.2-.23-.28-.03-.24.68.15.04-.2.4.09-.23-.42-.05-.44-.17-.24.28.13.02-.13-.35-.21.27-.15.26.05.08.22.22.08.02-.45-.21-.04.05-.23-.16-.04.15-.65.1.03-.04-.34.3.06-.02-.29.46.1.12-.25.16.02.16-.7.17-.34.15-.68.43-.41.12-.39-.04-.23-.22-.39.5-.38.05-.45-.13-.26.07-.57.17-.33-.47-.07.13-.44-.07-.29-.26-.02.12-.32.12.01.06-.32.23-.06.06-.45 2.33.55.1-.21.05-.8-.17-.31-.32-.25.84-.04.15-.3.23.05.66-.35.01-.09.32.12-.07-.18h-.4l-.06-.09.28-.13.48-.04-.06-.31.26-1.2-.12-.02-.01-.33.08.01.07-.52-.06-.3-.3-.27-.65-.16.12-.43-.12-.03.16-.48-.2-.13.14-.33-.09-.15.08-.32.12-.01.07-.39-.12-.04-.17-.4.44-.39.13-.61-.76-.06-.24-.52.24.05.09-.45-.45-.1.17-.86-.2-.08-.03-.22-.37-.08.08-.34h-.12l-.02-.25.1-.58.14.25.16.06.14-.54-.24.05.1-.32.18.01-.08-.3-.22.23-.2-.17-.1.37-.11.09-.43-.12.09.38-.5-.22-.17.4-.27-.24-.05-.2.08-.35-.17.02" fill="#d1dbdd" stroke="rgb(209, 219, 221)" stroke-width="0.1" data-originalStrokeWidth="0.1" style="stroke: rgb(0, 0, 0); fill: rgb(209, 219, 221); pointer-events: auto; stroke-width: 0.1;" pointer-events="auto"/>
      <path id="WA09" d="m192.67 84.1.15-.83.21.04.17-.42-.04-.28.14-.34.22-.2.2-.43.4.07-.08-1.21-.16-.23.27.07.06.24.18.05-.01-.31-.32-.62-.06-.31.2-.58.1-.5-.2-.06.03-.22.35-.21.44.1-.1.32.67.17.11-.35.58.35.2.36.1-.4.38.16.04.24.15-.04.14-.43 1.17.26-.03.12.25.08v.34l.42.09-.16.68-.15.35-.16.7-.17-.03-.12.26-.45-.1v.29l-.28-.08.03.35-.1-.03-.16.65.17.04-.05.23.21.04-.02.45-.22-.08-.08-.22-.25-.05-.28.15.35.2-.02.14-.28-.13.17.24.05.44.24.42-.4-.1-.06.22-.68-.16.04.24.23.28-.18.2-.07.21-.11-.02-.21.42-.21-.06-.06.23.23.05-.17.72-.21.14.16.07-.15.14-.27.6-.15.21-.29-.06.06.28-.28.02-.2.84-.35-.05-.13.55-1.37-.32-.84-.18.04-.19-1.34-2.13.33-.01.3-.11.12.1.25-.17.85-.08.31-.14.28-1.32-.07-.43" fill="#d1dbdd" stroke="rgb(209, 219, 221)" stroke-width="0.1" data-originalStrokeWidth="0.1" style="stroke: rgb(0, 0, 0); fill: rgb(209, 219, 221); pointer-events: auto; stroke-width: 0.1;" pointer-events="auto"/>
      <path id="WA10" d="m180 88.71.32.23-.04.39-.14.07-.01.45-.07.12.1.5.17-.31.06-.4.2-.68.24-.44.14-.05.04.45.09.04.15.43.05.31-.1.5.2.09.02.17.23.08.13.25.59.6.11-.05.3.14.11-.14.4.14.61-.65.33-.17.2.02.25-.13.3-.42.16-.37.47-.09.34-.47.16-.53.37-.28.22-.64.1-.02.15.09-.23.16.16.06.09-.2.96.22-.35 1.48-.02-.17-.27-.06.07.25.2.09-.03.2 1.1.25.26-1.18.18.03.08-.21.52-.11.45.02.2.24.65.6.27.35.3.2.17-.65-.04-.34.41-.03.29.07.07-.45 1.37.32.44.1-.02.12.44.09-.1.2-.32.12-.32-.1-.18.75.1.13.31.07.1.16-.18.52-.12-.13-.6-.08-.05.26-.2-.18-.08.38h.09l-.2.47-.1.43-.13.06-.21 1.03.09.08.02.55-.04.2h-.3l-.32-.13-.2-.18.06-.21-.46-.1-.1.42-.67-.15-.08.32-.34-.1-.02.14-1.23-.28-.1.38-.1-.03-.1-.42-.38-.1.07-.52-.26.44-.47.23-1.78 1.26-.25.01-.2.3.22.15-.16.08-.16-.1-.38 1.17-.3.1.02.36-.1.17-.3-.07-.23.07-.03-.13-.32-.19-.29-.07.02-.23-.45-.11-.06.24.11.25-.76-.17-.17.19-.29-.07-.1.32-.11-.02-.08.34-.12-.03.04.35-.4.16-.8.02-.57.12-.4-.03-.73-.12-.51-.33-.23.2-.2-.1-.21.23-.26-.05-.1.17-1.14.1-1.13.42.1-.39-.79-.19.07-.34-.47.02-.04-.3.15-.29.32-.18-.49.12-.49-.3-.35.07-.17.2-.37.28-.08-.22-.17.2-.1-.03.15-.2-.04-.12-.29.03-.13-.13-.2.06.53-2.2.54-2.15.14-.46-.94-.27.14-.4.32-1.3.22-.97.44.12 1.1.24 1.1.28.16-.6.37-.22.56.1.29-.02.2-.2.21-.52.26-.2.4-.14h.34l.4-.19.23-.44.24-.1.08.36.37.22.03.6.44.08.56-.18m3.57.18.36.54-.18.75-.08.23-.22.03-.19-.17-.11.54-.2.02-.15-.16-.43-.99.33-.09v-.19l.2-.29.43-.23.24.01m1 1.48h-.13l.2-.43.13-.1v.33l-.2.2m-.24-2.19.22-.05.2.18.02.47-.36.14-.43-.02-.3-.13-.17-.2-.27-.1-.2-.21.54-.53.11-.17.41.04.32.37-.08.22" fill="#d1dbdd" stroke="rgb(209, 219, 221)" stroke-width="0.1" data-originalStrokeWidth="0.1" style="stroke: rgb(0, 0, 0); fill: rgb(209, 219, 221); pointer-events: auto; stroke-width: 0.1;" pointer-events="auto"/>
      <g id="state_lines" stroke="rgb(209, 219, 221)" style="display: none; stroke: rgb(0, 0, 0);" stroke-width="0.1"/>
      <g id="state_abbr" fill="#000000" style="display: none; fill: rgb(0, 0, 0);">
        <text id="HI_label" x="491.79" y="769.82" style="font-size: 19.2455px; stroke-width: 1.60379; display: none;">
          <tspan id="HI_tspan" x="491.79" y="769.82" fill="#000000" dy="0" font-family="Arial" font-size="24.06" font-style="normal" font-weight="400" style="text-align: center; stroke-width: 2.57215; fill: rgb(0, 0, 0);" text-anchor="middle">HI</tspan>
        </text>
        <text id="AK_label" x="205.24" y="672.25" style="font-size: 19.2455px; stroke-width: 1.60379; display: none;">
          <tspan id="AK_tspan" x="205.24" y="672.25" fill="#000000" dy="0" font-family="Arial" font-size="24.06" font-style="normal" font-weight="400" style="text-align: center; stroke-width: 2.57215; fill: rgb(0, 0, 0);" text-anchor="middle">AK</tspan>
        </text>
        <text id="FL_label" x="1188.11" y="708.7" style="font-size: 19.2455px; stroke-width: 1.60379; display: none;">
          <tspan id="FL_tspan" x="1188.11" y="708.7" fill="#000000" dy="0" font-family="Arial" font-size="24.06" font-style="normal" font-weight="400" style="text-align: center; stroke-width: 2.57215; fill: rgb(0, 0, 0);" text-anchor="middle">FL</tspan>
        </text>
        <text id="NH_label" x="1306.05" y="167.79" stroke-width="1.1" font-size="13.25" style="display: none;">
          <tspan id="NH_tspan" x="1306.05" y="167.79" fill="#000000" stroke-width="1.1" dy="0" font-family="Arial" font-size="16.56" font-style="normal" font-weight="400" style="text-align: center; fill: rgb(0, 0, 0);" text-anchor="middle">NH</tspan>
        </text>
        <text id="MI_label" x="1019.65" y="246.58" style="font-size: 19.2455px; stroke-width: 1.60379; display: none;">
          <tspan id="MI_tspan" x="1019.65" y="246.58" fill="#000000" dy="0" font-family="Arial" font-size="24.06" font-style="normal" font-weight="400" style="text-align: center; stroke-width: 2.57215; fill: rgb(0, 0, 0);" text-anchor="middle">MI</tspan>
        </text>
        <text id="VT_label" x="1274.28" y="145.01" stroke-width="1.05" font-size="12.65" style="display: none;">
          <tspan id="VT_tspan" x="1274.28" y="145.01" fill="#000000" stroke-width="1.05" dy="0" font-family="Arial" font-size="15.81" font-style="normal" font-weight="400" style="text-align: center; fill: rgb(0, 0, 0);" text-anchor="middle">VT</tspan>
        </text>
        <text id="ME_label" x="1338.99" y="105.14" stroke-width="1.45" font-size="17.36" style="display: none;">
          <tspan id="ME_tspan" x="1338.99" y="105.14" fill="#000000" stroke-width="1.45" dy="0" font-family="Arial" font-size="21.7" font-style="normal" font-weight="400" style="text-align: center; fill: rgb(0, 0, 0);" text-anchor="middle">ME</tspan>
        </text>
        <text id="RI_label" x="1361.38" y="262.84" stroke-width="1.25" font-size="14.98" style="display: none;">
          <tspan id="RI_tspan" x="1361.38" y="262.84" fill="#000000" stroke-width="1.25" dy="0" font-family="Arial" font-size="18.72" font-style="normal" font-weight="400" style="text-align: center; fill: rgb(0, 0, 0);" text-anchor="middle">RI</tspan>
        </text>
        <text id="NY_label" x="1227.27" y="204.12" style="font-size: 19.2455px; stroke-width: 1.60379; display: none;">
          <tspan id="NY_tspan" x="1227.27" y="204.12" fill="#000000" dy="0" font-family="Arial" font-size="24.06" font-style="normal" font-weight="400" style="text-align: center; stroke-width: 2.57215; fill: rgb(0, 0, 0);" text-anchor="middle">NY</tspan>
        </text>
        <text id="PA_label" x="1187.28" y="284.69" style="font-size: 19.2455px; stroke-width: 1.60379; display: none;">
          <tspan id="PA_tspan" x="1187.28" y="284.69" fill="#000000" dy="0" font-family="Arial" font-size="24.06" font-style="normal" font-weight="400" style="text-align: center; stroke-width: 2.57215; fill: rgb(0, 0, 0);" text-anchor="middle">PA</tspan>
        </text>
        <text id="NJ_label" x="1330.57" y="290.09" stroke-width="1.28" font-size="15.4" style="display: none;">
          <tspan id="NJ_tspan" x="1330.57" y="290.09" fill="#000000" stroke-width="1.28" dy="0" font-family="Arial" font-size="19.25" font-style="normal" font-weight="400" style="text-align: center; fill: rgb(0, 0, 0);" text-anchor="middle">NJ</tspan>
        </text>
        <text id="DE_label" x="1320.8" y="328.42" stroke-width="1.36" font-size="16.38" style="display: none;">
          <tspan id="DE_tspan" x="1320.8" y="328.42" fill="#000000" stroke-width="1.36" dy="0" font-family="Arial" font-size="20.47" font-style="normal" font-weight="400" style="text-align: center; fill: rgb(0, 0, 0);" text-anchor="middle">DE</tspan>
        </text>
        <text id="MD_label" x="1310.72" y="368.46" stroke-width="1.34" font-size="16.11" style="display: none;">
          <tspan id="MD_tspan" x="1310.72" y="368.46" fill="#000000" stroke-width="1.34" dy="0" font-family="Arial" font-size="20.13" font-style="normal" font-weight="400" style="text-align: center; fill: rgb(0, 0, 0);" text-anchor="middle">MD</tspan>
        </text>
        <text id="VA_label" x="1198.59" y="392.33" style="font-size: 19.2455px; stroke-width: 1.60379; display: none;">
          <tspan id="VA_tspan" x="1198.59" y="392.33" fill="#000000" dy="0" font-family="Arial" font-size="24.06" font-style="normal" font-weight="400" style="text-align: center; stroke-width: 2.57215; fill: rgb(0, 0, 0);" text-anchor="middle">VA</tspan>
        </text>
        <text id="WV_label" x="1129.66" y="382.3" style="font-size: 19.2455px; stroke-width: 1.60379; display: none;">
          <tspan id="WV_tspan" x="1129.66" y="382.3" fill="#000000" dy="0" font-family="Arial" font-size="24.06" font-style="normal" font-weight="400" style="text-align: center; stroke-width: 2.57215; fill: rgb(0, 0, 0);" text-anchor="middle">WV</tspan>
        </text>
        <text id="OH_label" x="1079.05" y="334.46" style="font-size: 19.2455px; stroke-width: 1.60379; display: none;">
          <tspan id="OH_tspan" x="1079.05" y="334.46" fill="#000000" dy="0" font-family="Arial" font-size="24.06" font-style="normal" font-weight="400" style="text-align: center; stroke-width: 2.57215; fill: rgb(0, 0, 0);" text-anchor="middle">OH</tspan>
        </text>
        <text id="IN_label" x="998.79" y="352.94" style="font-size: 19.2455px; stroke-width: 1.60379; display: none;">
          <tspan id="IN_tspan" x="998.79" y="352.94" fill="#000000" dy="0" font-family="Arial" font-size="24.06" font-style="normal" font-weight="400" style="text-align: center; stroke-width: 2.57215; fill: rgb(0, 0, 0);" text-anchor="middle">IN</tspan>
        </text>
        <text id="IL_label" x="927.43" y="364.36" style="font-size: 19.2455px; stroke-width: 1.60379; display: none;">
          <tspan id="IL_tspan" x="927.43" y="364.36" fill="#000000" dy="0" font-family="Arial" font-size="24.06" font-style="normal" font-weight="400" style="text-align: center; stroke-width: 2.57215; fill: rgb(0, 0, 0);" text-anchor="middle">IL</tspan>
        </text>
        <text id="CT_label" x="1299.17" y="228.46" stroke-width="1.06" font-size="12.74" style="display: none;">
          <tspan id="CT_tspan" x="1299.17" y="228.46" fill="#000000" stroke-width="1.06" dy="0" font-family="Arial" font-size="15.93" font-style="normal" font-weight="400" style="text-align: center; fill: rgb(0, 0, 0);" text-anchor="middle">CT</tspan>
        </text>
        <text id="WI_label" x="898.6" y="224.7" style="font-size: 19.2455px; stroke-width: 1.60379; display: none;">
          <tspan id="WI_tspan" x="898.6" y="224.7" fill="#000000" dy="0" font-family="Arial" font-size="24.06" font-style="normal" font-weight="400" style="text-align: center; stroke-width: 2.57215; fill: rgb(0, 0, 0);" text-anchor="middle">WI</tspan>
        </text>
        <text id="NC_label" x="1205.6" y="458.72" style="font-size: 19.2455px; stroke-width: 1.60379; display: none;">
          <tspan id="NC_tspan" x="1205.6" y="458.72" fill="#000000" dy="0" font-family="Arial" font-size="24.06" font-style="normal" font-weight="400" style="text-align: center; stroke-width: 2.57215; fill: rgb(0, 0, 0);" text-anchor="middle">NC</tspan>
        </text>
        <text id="MA_label" x="1305.87" y="200.67" stroke-width="1.04" font-size="12.46" style="display: none;">
          <tspan id="MA_tspan" x="1305.87" y="200.67" fill="#000000" stroke-width="1.04" dy="0" font-family="Arial" font-size="15.58" font-style="normal" font-weight="400" style="text-align: center; fill: rgb(0, 0, 0);" text-anchor="middle">MA</tspan>
        </text>
        <text id="MO_label" x="854.22" y="422.93" style="font-size: 19.2455px; stroke-width: 1.60379; display: none;">
          <tspan id="MO_tspan" x="854.22" y="422.93" fill="#000000" dy="0" font-family="Arial" font-size="24.06" font-style="normal" font-weight="400" style="text-align: center; stroke-width: 2.57215; fill: rgb(0, 0, 0);" text-anchor="middle">MO</tspan>
        </text>
        <text id="GA_label" x="1106.89" y="574.56" style="font-size: 19.2455px; stroke-width: 1.60379; display: none;">
          <tspan id="GA_tspan" x="1106.89" y="574.56" fill="#000000" dy="0" font-family="Arial" font-size="24.06" font-style="normal" font-weight="400" style="text-align: center; stroke-width: 2.57215; fill: rgb(0, 0, 0);" text-anchor="middle">GA</tspan>
        </text>
        <text id="SC_label" x="1166.32" y="522.49" style="font-size: 19.2455px; stroke-width: 1.60379; display: none;">
          <tspan id="SC_tspan" x="1166.32" y="522.49" fill="#000000" dy="0" font-family="Arial" font-size="24.06" font-style="normal" font-weight="400" style="text-align: center; stroke-width: 2.57215; fill: rgb(0, 0, 0);" text-anchor="middle">SC</tspan>
        </text>
        <text id="KY_label" x="1039.99" y="426.39" style="font-size: 19.2455px; stroke-width: 1.60379; display: none;">
          <tspan id="KY_tspan" x="1039.99" y="426.39" fill="#000000" dy="0" font-family="Arial" font-size="24.06" font-style="normal" font-weight="400" style="text-align: center; stroke-width: 2.57215; fill: rgb(0, 0, 0);" text-anchor="middle">KY</tspan>
        </text>
        <text id="AL_label" x="1019.59" y="578.15" style="font-size: 19.2455px; stroke-width: 1.60379; display: none;">
          <tspan id="AL_tspan" fill="#000000" dy="0" font-family="Arial" font-size="24.06" font-style="normal" font-weight="400" style="text-align: center; stroke-width: 2.57215; fill: rgb(0, 0, 0);" text-anchor="middle">AL</tspan>
        </text>
        <text id="LA_label" x="872.7" y="649.59" style="font-size: 19.2455px; stroke-width: 1.60379; display: none;">
          <tspan id="LA_tspan" x="872.7" y="649.59" fill="#000000" dy="0" font-family="Arial" font-size="24.06" font-style="normal" font-weight="400" style="text-align: center; stroke-width: 2.57215; fill: rgb(0, 0, 0);" text-anchor="middle">LA</tspan>
        </text>
        <text id="MS_label" x="940.37" y="592.21" style="font-size: 19.2455px; stroke-width: 1.60379; display: none;">
          <tspan id="MS_tspan" x="940.37" y="592.21" fill="#000000" dy="0" font-family="Arial" font-size="24.06" font-style="normal" font-weight="400" style="text-align: center; stroke-width: 2.57215; fill: rgb(0, 0, 0);" text-anchor="middle">MS</tspan>
        </text>
        <text id="IA_label" x="823.33" y="308.44" style="font-size: 19.2455px; stroke-width: 1.60379; display: none;">
          <tspan id="IA_tspan" x="823.33" y="308.44" fill="#000000" dy="0" font-family="Arial" font-size="24.06" font-style="normal" font-weight="400" style="text-align: center; stroke-width: 2.57215; fill: rgb(0, 0, 0);" text-anchor="middle">IA</tspan>
        </text>
        <text id="MN_label" x="790.84" y="183.37" style="font-size: 19.2455px; stroke-width: 1.60379; display: none;">
          <tspan id="MN_tspan" x="790.84" y="183.37" fill="#000000" dy="0" font-family="Arial" font-size="24.06" font-style="normal" font-weight="400" style="text-align: center; stroke-width: 2.57215; fill: rgb(0, 0, 0);" text-anchor="middle">MN</tspan>
        </text>
        <text id="OK_label" x="732.05" y="519.54" style="font-size: 19.2455px; stroke-width: 1.60379; display: none;">
          <tspan id="OK_tspan" x="732.05" y="519.54" fill="#000000" dy="0" font-family="Arial" font-size="24.06" font-style="normal" font-weight="400" style="text-align: center; stroke-width: 2.57215; fill: rgb(0, 0, 0);" text-anchor="middle">OK</tspan>
        </text>
        <text id="TX_label" x="710.59" y="652.87" style="font-size: 19.2455px; stroke-width: 1.60379; display: none;">
          <tspan id="TX_tspan" x="710.59" y="652.87" fill="#000000" dy="0" font-family="Arial" font-size="24.06" font-style="normal" font-weight="400" style="text-align: center; stroke-width: 2.57215; fill: rgb(0, 0, 0);" text-anchor="middle">TX</tspan>
        </text>
        <text id="NM_label" x="506.94" y="542.36" style="font-size: 19.2455px; stroke-width: 1.60379; display: none;">
          <tspan id="NM_tspan" x="506.94" y="542.36" fill="#000000" dy="0" font-family="Arial" font-size="24.06" font-style="normal" font-weight="400" style="text-align: center; stroke-width: 2.57215; fill: rgb(0, 0, 0);" text-anchor="middle">NM</tspan>
        </text>
        <text id="KS_label" x="701.21" y="427.26" style="font-size: 19.2455px; stroke-width: 1.60379; display: none;">
          <tspan id="KS_tspan" x="701.21" y="427.26" fill="#000000" dy="0" font-family="Arial" font-size="24.06" font-style="normal" font-weight="400" style="text-align: center; stroke-width: 2.57215; fill: rgb(0, 0, 0);" text-anchor="middle">KS</tspan>
        </text>
        <text id="NE_label" x="686.63" y="337.29" style="font-size: 19.2455px; stroke-width: 1.60379; display: none;">
          <tspan id="NE_tspan" x="686.63" y="337.29" fill="#000000" dy="0" font-family="Arial" font-size="24.06" font-style="normal" font-weight="400" style="text-align: center; stroke-width: 2.57215; fill: rgb(0, 0, 0);" text-anchor="middle">NE</tspan>
        </text>
        <text id="SD_label" x="663.02" y="238.75" style="font-size: 19.2455px; stroke-width: 1.60379; display: none;">
          <tspan id="SD_tspan" x="663.02" y="238.75" fill="#000000" dy="0" font-family="Arial" font-size="24.06" font-style="normal" font-weight="400" style="text-align: center; stroke-width: 2.57215; fill: rgb(0, 0, 0);" text-anchor="middle">SD</tspan>
        </text>
        <text id="ND_label" x="663.02" y="150.75" style="font-size: 19.2455px; stroke-width: 1.60379; display: none;">
          <tspan id="ND_tspan" x="663.02" y="150.75" fill="#000000" dy="0" font-family="Arial" font-size="24.06" font-style="normal" font-weight="400" style="text-align: center; stroke-width: 2.57215; fill: rgb(0, 0, 0);" text-anchor="middle">ND</tspan>
        </text>
        <text id="WY_label" x="499.57" y="276.47" style="font-size: 19.2455px; stroke-width: 1.60379; display: none;">
          <tspan id="WY_tspan" x="499.57" y="276.47" fill="#000000" dy="0" font-family="Arial" font-size="24.06" font-style="normal" font-weight="400" style="text-align: center; stroke-width: 2.57215; fill: rgb(0, 0, 0);" text-anchor="middle">WY</tspan>
        </text>
        <text id="MT_label" x="487.84" y="155.58" style="font-size: 19.2455px; stroke-width: 1.60379; display: none;">
          <tspan id="MT_tspan" x="487.84" y="155.58" fill="#000000" dy="0" font-family="Arial" font-size="24.06" font-style="normal" font-weight="400" style="text-align: center; stroke-width: 2.57215; fill: rgb(0, 0, 0);" text-anchor="middle">MT</tspan>
        </text>
        <text id="CO_label" x="525.13" y="406.28" style="font-size: 19.2455px; stroke-width: 1.60379; display: none;">
          <tspan id="CO_tspan" x="525.13" y="406.28" fill="#000000" dy="0" font-family="Arial" font-size="24.06" font-style="normal" font-weight="400" style="text-align: center; stroke-width: 2.57215; fill: rgb(0, 0, 0);" text-anchor="middle">CO</tspan>
        </text>
        <text id="ID_label" x="339.94" y="235.07" style="font-size: 19.2455px; stroke-width: 1.60379; display: none;">
          <tspan id="ID_tspan" x="339.94" y="235.07" fill="#000000" dy="0" font-family="Arial" font-size="24.06" font-style="normal" font-weight="400" style="text-align: center; stroke-width: 2.57215; fill: rgb(0, 0, 0);" text-anchor="middle">ID</tspan>
        </text>
        <text id="UT_label" x="396.81" y="386.73" style="font-size: 19.2455px; stroke-width: 1.60379; display: none;">
          <tspan id="UT_tspan" x="396.81" y="386.73" fill="#000000" dy="0" font-family="Arial" font-size="24.06" font-style="normal" font-weight="400" style="text-align: center; stroke-width: 2.57215; fill: rgb(0, 0, 0);" text-anchor="middle">UT</tspan>
        </text>
        <text id="AZ_label" x="366.76" y="536.9" style="font-size: 19.2455px; stroke-width: 1.60379; display: none;">
          <tspan id="AZ_tspan" x="366.76" y="536.9" fill="#000000" dy="0" font-family="Arial" font-size="24.06" font-style="normal" font-weight="400" style="text-align: center; stroke-width: 2.57215; fill: rgb(0, 0, 0);" text-anchor="middle">AZ</tspan>
        </text>
        <text id="NV_label" x="262.47" y="370.64" style="font-size: 19.2455px; stroke-width: 1.60379; display: none;">
          <tspan id="NV_tspan" x="262.47" y="370.64" fill="#000000" dy="0" font-family="Arial" font-size="24.06" font-style="normal" font-weight="400" style="text-align: center; stroke-width: 2.57215; fill: rgb(0, 0, 0);" text-anchor="middle">NV</tspan>
        </text>
        <text id="OR_label" x="214.43" y="206.88" style="font-size: 19.2455px; stroke-width: 1.60379; display: none;">
          <tspan id="OR_tspan" x="214.43" y="206.88" fill="#000000" dy="0" font-family="Arial" font-size="24.06" font-style="normal" font-weight="400" style="text-align: center; stroke-width: 2.57215; fill: rgb(0, 0, 0);" text-anchor="middle">OR</tspan>
        </text>
        <text id="WA_label" x="238.05" y="102.99" style="font-size: 19.2455px; stroke-width: 1.60379; display: none;">
          <tspan id="WA_tspan" x="238.05" y="102.99" fill="#000000" dy="0" font-family="Arial" font-size="24.06" font-style="normal" font-weight="400" style="text-align: center; stroke-width: 2.57215; fill: rgb(0, 0, 0);" text-anchor="middle">WA</tspan>
        </text>
        <text id="CA_label" x="191.69" y="434.8" style="font-size: 19.2455px; stroke-width: 1.60379; display: none;">
          <tspan id="CA_tspan" x="191.69" y="434.8" fill="#000000" dy="0" font-family="Arial" font-size="24.06" font-style="normal" font-weight="400" style="text-align: center; stroke-width: 2.57215; fill: rgb(0, 0, 0);" text-anchor="middle">CA</tspan>
        </text>
        <text id="DC_label" x="1309.32" y="398.19" stroke-width="1.29" font-size="15.45" style="display: none;">
          <tspan id="DC_tspan" x="1309.32" y="398.19" fill="#000000" stroke-width="1.29" dy="0" font-family="Arial" font-size="19.31" font-style="normal" font-weight="400" style="text-align: center; fill: rgb(0, 0, 0);" text-anchor="middle">DC</tspan>
        </text>
        <text id="TN_label" x="1018.93" y="485.72" style="font-size: 19.2455px; stroke-width: 1.60379; display: none;">
          <tspan id="TN_tspan" x="1018.93" y="485.72" fill="#000000" dy="0" font-family="Arial" font-size="24.06" font-style="normal" font-weight="400" style="text-align: center; stroke-width: 2.57215; fill: rgb(0, 0, 0);" text-anchor="middle">TN</tspan>
        </text>
        <text id="AR_label" x="863.15" y="535.77" style="font-size: 19.2455px; stroke-width: 1.60379; display: none;">
          <tspan id="AR_tspan" x="863.15" y="535.77" fill="#000000" dy="0" font-family="Arial" font-size="24.06" font-style="normal" font-weight="400" style="text-align: center; stroke-width: 2.57215; fill: rgb(0, 0, 0);" text-anchor="middle">AR</tspan>
        </text>
      </g>
      <g id="state_borders" transform="translate(-0.04777967,-0.15336683)" stroke="rgb(209, 219, 221)" style="stroke: rgb(0, 0, 0);" stroke-width="0.3">
        <path id="WA_ID_border" d="m299.2 150.75-.22-2.13-.72-1.1.54-.15.72-1.04.45-1.04-.7-1.05.3-.8-.13-1.13-.37-.55.24-.47-.67-.83.05-.67-.64-.4-.04-.64.4-.38.48-1.17-.06-.23 1.48-8.5 4.14-24.02 1.87-11.14 1.57-8.8 1.44-7.54L310 73l2.07-11.5.65-3.82" stroke="rgb(209, 219, 221)" stroke-width="0.3" fill="none" style="stroke: rgb(0, 0, 0); display: none;"/>
        <path id="WA_OR_border" d="m299.2 150.75-1.5-.31-7.58-1.38-2.98-.52-11.24-2.13-2.8-.5-8-1.51-9.54-1.84-1-.18-.58.56-2.03.77-.78.16-1.53-.14-1.24-.64-1.45-.06-.97.18-1.9-.24-.85.18-.78-.25-.92-.71-.66.05-.56.34-1.31 1.28-2.3-.1-.61-.17-2.37.12-1.3-.14-2.48.74-1.62.05-.7.23-1.1.9-1.57-.15-2.76.12-1.72-.21-.48-.27-.9-1.43-.62-.4-.95-.18-1.37.68-2.35.44-1.51.14-1.06.7h-.41l-.55-.65-.9.07-.5-.27-1.22-.24-.47.05-1.27.95-1.15-.13-.2-.4.15-1.02-.18-.74-1.44-.81-.96-.8-.77-.1-.7.16-1.26-.55-.65-.78-.67-.33-2.26.2-.8-.2-.9.13-.61-.1-1.55-.77-1.28.15-.92.53-.24.46-1.1.1-.25.3-.97.3h-.92l-1.43.53-.83-.24h-.97l-.48.34-1.13.25-1.01-.1-.76-.32-.3-.74-.55-.36-1.34.1-.67-.64-2.54-1.54-.87-.28-.6-.4-1.64-1.66-.05-.76.69-1.58.13-1.46-.33-1.03.64-1.72-.24-1.51.26-.58.03-.9-.37-.75-.13-1.1-.37-.63.1-.93-.26-.82-1.1-.93-.67-1.11-1.82-1.86-.18-.27-1.05-.4-2.73.77-1.93-.51-1.02-1.38.44-1.45-.28-.73-.52-.74-.46-.17-1.07.1" stroke="rgb(209, 219, 221)" stroke-width="0.3" fill="none" style="stroke: rgb(0, 0, 0); display: none;"/>
      </g>
      <rect id="selection-rectangle" fill="#ffffccaa" stroke="rgb(209, 219, 221)" stroke-width="0.1"/>
      <ellipse id="selection-ellipse" fill="#ffffccaa" stroke="rgb(209, 219, 221)" stroke-width="0.1"/>
      <polygon id="selection-polygon" fill="#ffffccaa" stroke="rgb(209, 219, 221)" stroke-width="0.1"/>
      <polyline id="selection-polyline" fill="#ffffccaa" stroke="rgb(209, 219, 221)" stroke-width="0.1"/>
    </svg>
  </g>
</svg>
