<?xml version='1.0' encoding='UTF-8'?>
<svg xmlns="http://www.w3.org/2000/svg" xmlns:dc="http://purl.org/dc/elements/1.1/" xmlns:ns2="http://creativecommons.org/ns#" xmlns:rdf="http://www.w3.org/1999/02/22-rdf-syntax-ns#" id="wrapper" viewBox="0 0 1520 840" preserveAspectRatio="xMinYMin" height="840" width="1520" style="background-color: rgb(255, 255, 255);">
  <metadata>
    <rdf:rdf>
      <ns2:work rdf:about="">
        <dc:format>image/svg+xml</dc:format>
        <dc:type rdf:resource="http://purl.org/dc/dcmitype/StillImage"/>
        <dc:title>MapChart Map</dc:title>
        <dc:creator>
          <ns2:agent>
            <dc:title>MapChart.net</dc:title>
          </ns2:agent>
        </dc:creator>
        <ns2:license rdf:resource="http://creativecommons.org/licenses/by-sa/4.0/"/>
        <dc:description>This map was created with MapChart.net, a website for creating custom maps.</dc:description>
      </ns2:work>
      <ns2:license rdf:about="http://creativecommons.org/licenses/by-sa/4.0/">
        <ns2:permits rdf:resource="http://creativecommons.org/ns#Reproduction"/>
        <ns2:permits rdf:resource="http://creativecommons.org/ns#Distribution"/>
        <ns2:requires rdf:resource="http://creativecommons.org/ns#Notice"/>
        <ns2:requires rdf:resource="http://creativecommons.org/ns#Attribution"/>
        <ns2:requires rdf:resource="http://creativecommons.org/ns#ShareAlike"/>
      </ns2:license>
    </rdf:rdf>
  </metadata>
  <g id="map-group" transform="translate(-6942.627014685094,-1970.2352357139898) scale(6.712823557497804)">
    <svg id="map" width="1520" height="840" version="1.1" viewBox="0 0 1520 840" preserveAspectRatio="xMinYMin" data-originalStrokeWidth="0.3">
      <defs>
        <pattern id="circles3" width="10" height="10" patternUnits="userSpaceOnUse">    <rect width="10" height="10" fill="#fff"/>    <circle cx="4" cy="4" r="2" fill="#000"/>    </pattern>
        <pattern id="diagonal1" width="10" height="10" patternUnits="userSpaceOnUse">    <rect width="10" height="10" fill="#fff"/>    </pattern>
        <pattern id="diagonal3" width="10" height="10" patternUnits="userSpaceOnUse">    <rect width="10" height="10" fill="#fff"/>    </pattern>
        <pattern id="vertical1" width="10" height="10" patternUnits="userSpaceOnUse">    <rect width="10" height="10" fill="#fff"/>    <rect x="2" y="0" width="1" height="10" fill="#000"/>    </pattern>
        <pattern id="vertical3" width="10" height="10" patternUnits="userSpaceOnUse">    <rect width="10" height="10" fill="#fff"/>    <rect x="2" y="0" width="3" height="10" fill="#000"/>    </pattern>
        <pattern id="horizontal1" width="10" height="10" patternUnits="userSpaceOnUse">    <rect width="10" height="10" fill="#fff"/>    <rect x="0" y="2" width="10" height="1" fill="#000"/>    </pattern>
        <pattern id="horizontal3" width="10" height="10" patternUnits="userSpaceOnUse">    <rect width="10" height="10" fill="#fff"/>    <rect x="0" y="2" width="10" height="3" fill="#000"/>    </pattern>
        <pattern id="crosshatch" width="8" height="8" patternUnits="userSpaceOnUse">    <rect width="8" height="8" fill="#fff"/>    </pattern>
        <pattern id="subtlepatch" width="5" height="5" patternUnits="userSpaceOnUse">    <rect width="5" height="5" fill="#fff"/>    <rect x="2" y="2" width="1" height="1" fill="#000"/>    </pattern>
        <pattern id="checkers" width="8" height="8" patternUnits="userSpaceOnUse">    <rect width="8" height="8" fill="#fff"/>    </pattern>
        <pattern id="raindrops" width="10" height="10" patternUnits="userSpaceOnUse">    <rect width="10" height="10" fill="#fff"/>    </pattern>
        <pattern id="texture" width="4" height="4" patternUnits="userSpaceOnUse">    <rect width="4" height="4" fill="#fff"/>    </pattern>
        <pattern id="circles3_a03500_000000" width="10" height="10" patternUnits="userSpaceOnUse">    <rect width="10" height="10" fill="#a03500"/>    <circle cx="4" cy="4" r="2" fill="#000000"/>    </pattern>
        <pattern id="diagonal1_d9b400_535353" width="10" height="10" patternUnits="userSpaceOnUse">    <rect width="10" height="10" fill="#d9b400"/>    </pattern>
        <pattern id="diagonal3_3264c8_ffffff" width="10" height="10" patternUnits="userSpaceOnUse">    <rect width="10" height="10" fill="#3264c8"/>    </pattern>
        <pattern id="horizontal1_72b38e_000000" width="10" height="10" patternUnits="userSpaceOnUse">    <rect width="10" height="10" fill="#72b38e"/>    <rect x="0" y="2" width="10" height="1" fill="#000000"/>    </pattern>
        <pattern id="horizontal3_986ba1_ffffff" width="10" height="10" patternUnits="userSpaceOnUse">    <rect width="10" height="10" fill="#986ba1"/>    <rect x="0" y="2" width="10" height="3" fill="#ffffff"/>    </pattern>
        <pattern id="vertical1_b9a087_ffffff" width="10" height="10" patternUnits="userSpaceOnUse">    <rect width="10" height="10" fill="#b9a087"/>    <rect x="2" y="0" width="1" height="10" fill="#ffffff"/>    </pattern>
        <pattern id="vertical3_4c91bf_ffff33" width="10" height="10" patternUnits="userSpaceOnUse">    <rect width="10" height="10" fill="#4c91bf"/>    <rect x="2" y="0" width="3" height="10" fill="#ffff33"/>    </pattern>
        <pattern id="checkers_cc3333_f7f7f7" width="8" height="8" patternUnits="userSpaceOnUse">    <rect width="8" height="8" fill="#cc3333"/>    </pattern>
        <pattern id="texture_d1dbdd_525252" width="4" height="4" patternUnits="userSpaceOnUse">    <rect width="4" height="4" fill="#d1dbdd"/>    </pattern>
        <style id="map-style">svg { background-color: #ffffff; }</style>
      </defs>
      <path id="WV02" d="m1126.47 330.03-.04-.06-.19-.2-.38-.46-.07-.02-.42-.29-.1-.16-.07-.23.13-.37.18-.22.14-.14.19-.2.17-.38v-.33l-.1-.42-.21-.49.17-.4.46-.46.02-.28-.13-.26-.1-.14-.28-.28-.19-.42.06-.25.2-.1.3.03.52.16.15-.2-.01-.09-.05-.14-.1-.12-.2-.47-.07-.37.27-.43.16-.23-.05-.34-.07-.22-.08-.24-.08-.28-.03-.1v-.1l.02-.4.01-.25.03-.13-.03-.26-.05-.17-.1-.28-.05-.04-.1-.18-.03-.14-.04-.02-.02-.26.1-.22.11-.15.12-.12.2-.32-.04-.38-.09-.2-.07-.14-.07-.43.02-.2v-.2h-.01v-.1l.01-.06.1-.3.04-.19.11-.4.07-.14.18-.25.06-.68-.05-.2-.01-.34.12-.52.14-.24.16-.12.27-.3.07-.14.02-.23-.1-.4v-.21l.06-.2.05-.23.06-.2v-.24l-.18-.4-.2-.27-.1-.2-.02-.36.01-.1-.03-.25-.2-.25-.14-.07-.2-.05-.09-.02-.02.02-.06-.15v-.1l.07-.09.31-.3-.02-.08-.05-.09-.02-.3-.06-.24-.04-.11-.02-.17.02-.21.1-.35.07-.4-.02-.27-.04-.12-.15-.2-.03-.03-.23-.14-.3-.34-.14-.35-.05-.1-.02-.1-.09-.16-.14-.28-.26-.18-.16-.17-.34-.36-.33-.18-.12-.22-.02-.31.03-.12.18-.2.11-.2.12-.3.04-.08.06-.14.08-.1.36-.2.09-.07.36-.07.27.2.18.01.2-.17.07-.12.18-.2.16-.15.58-.43.02.15.28 1.3.09.4.05.23.13.66.12.55.1.45.04.12.11.55.1.53.05.19.1.3.01.06.2.93.17.87.04.14.2.97.16.82.27 1.28.06.31.05.21.1.5.44 2 .05.23.1.4.06.36.2.86.43 2.04.07.3.02.1.09.42.23 1.07.1.45.24 1.13.02.12.1.48.05.18.03.2.2.82.18.93.09.4.05.22.16.79.02.13.15.7.03.1.1.5.04.2.11.45.1.5.03.19.15.63.02.06.56-.11.45-.1.42-.1.31-.06.33-.06 1.2-.27.17-.05h.07l.47-.11h.02l.47-.1.5-.11.75-.16.02-.02.12-.01.15-.03.31-.06.14-.05h.06l.05-.01.22-.07.38-.07.11-.03h.05l.2-.05.07-.02.15-.04h.09l.27-.06.45-.11.31-.07.74-.17h.08l.01-.02 1.02-.21.28-.06 1.02-.24.78-.15.56-.12.2-.05.61-.13.1-.02.54-.12.68-.16.04-.01h.05l.4-.1.37-.08.32-.08.14-.02 1.22-.28 1.13-.27.61-.13.36-.08.28-.06.1-.03.43-.08.04-.03.32-.07h.06l.22-.07 1.53-.33.66-.15.4-.12.25-.04.57 2.44h-.04l.76 3.45-.09.02.07.2v.1l.06.2.18.87.1.42.08.4.06.3.22 1 .04.2.11.5.09.38.08.34.15.7.04.2h-.05l.18.82.25 1.19.1.43.04.06.38 1.8.09-.03.01.02h.16l.09.05.08-.07-.02-.11.02-.06.11-.1.06-.02.06-.02h.05l.07-.07.02-.05.06-.07.09-.04.17-.22.02-.07.05-.04h.07l.06-.15-.06-.16.02-.02.07-.07-.01-.08.06-.05.1-.03.02-.04.22-.36v-.18l.08-.07v-.13l.07.01.06-.1-.05-.12.02-.03.07.02h.06l.03-.1.01-.08.09-.07.04-.01.31-.15.04-.07.08-.25.02-.02.03-.2v-.08l.14-.03.03-.08.03-.06.08-.1.14-.07h.02l.13-.05.06-.1.21.04.2.02.09-.03.06.02.1-.03-.04-.1.01-.06.09-.2-.04-.14-.01-.29.09-.1.16-.2-.04-.14.01-.03.05-.02.15.03.13-.18-.06-.02-.03-.07v-.04l.04-.1-.03-.1-.08-.12-.02-.04v-.05l.03-.02.15-.03.13-.1.04-.02.03.02.15-.06v-.15l.15-.03.25-.04.01-.19.02-.06.16-.3.03-.32.07-.02.34-.02.06-.08h.02l-.1-.09-.04-.05v-.02l.03-.07h.05l.08.03.28.2.06-.05-.1-.2-.1-.2.01-.14.05-.05-.01-.29v-.04l.2-.04.04.03.06.21.17-.1-.05-.12.1-.15.21-.06-.01-.12-.04-.01-.05-.13V330l.08-.15.05-.02h.06l.11.01-.08-.19v-.12l.02-.07.09-.07.02-.02.08-.08v-.22l-.14-.06-.02-.05v-.07l.05-.07h.04l.2-.05-.18-.15-.07-.02-.06-.06-.02-.05.03-.07.04-.05.04-.02.07.02.16.07.38-.1.05-.03.12-.23.17.22.13-.01-.01-.3.13-.13.03.04.05.07.2.06.15.28.33-.1h.02l.12.07.2.1.28.1.32.04.1.03.1.03.21.1.17.09.15-.1-.03-.2-.14-.06.02-.03.1-.1-.13-.15-.02-.02-.03-.07.04-.06.24-.13.13-.29-.13-.18.15-.2.22-.1.15.01.05-.24v-.07h.02l.08-.08.05-.25-.1-.22.12-.06.19-.14-.1-.2v-.04l.04-.05.06-.02.19.05.18-.22v-.21l-.02-.02-.01-.14.06-.05.08-.05.2-.46v-.28h.1l.07-.16.48.07.13-.24-.17-.2-.14-.05h-.04l-.09-.38.02-.02.13-.14v-.03l.1-.14.01-.36.16.02.1.04-.05-.36-.08-.14-.09-.13-.02-.05.02-.05.06-.1.04-.1-.03-.07.09-.07h.23l.05-.3.24-.12-.07.3-.04.2v.33l.07.02h.2l.09.03.3-.33.04-.02.27.08.13.2v.05l-.08.15-.15.17h-.07l-.17-.1-.34.2-.13.2.15.13.06.02.07.1.03.09.05.05.17.1.1.04.1-.05.04-.02.12.04.06-.1.03-.13.03-.02.06-.02h.07l.06.14.16.29.05.06.2.15.19-.01.1.1.16.05.32.08.08.15.22.01.24.04.2.08.44-.07.1-.05.2-.05.08-.1.12-.05h.1l.32.05.2-.02.04-.06.07-.03.05-.03.02.05.15.21.16-.02.2.1.12.06.19-.07.12-.06.1.02.12-.06.17-.1.03-.01.19-.09.32-.01.18.03.4-.01.08-.06.06-.02.07-.02h.02l.32.02.12-.32-.11-.24-.02-.07.02-.05.03-.04h.04l.18-.06-.06-.17-.1.02-.1-.03-.07-.05-.02-.03v-.05l.03-.05.18-.01.12.04.1.1.16.14.1-.1-.09-.2-.07-.04v-.1l.04-.02.11.01.03.01.14.17.2-.1v-.09l-.29-.24-.3-.05-.46-.27-.12-.13-.03-.05v-.2l.06-.09.34-.08.24.02.07.02.2.1.28.04.26-.24-.08-.19-.3-.11-.1-.03-.29-.15-.38-.43.02-.06.25-.13.28.05.39.06.43.15.11-.17-.16-.1-.09-.07-.08-.08.13-.3h.17l.25.08.07-.22-.17-.14.04-.13h.04l.1-.01h.24l.5.03.21.04h.15l.25.05.39.08.39-.02v-.39l.12-.33.2-.3.1-.17.1-.12.05-.03.12-.2-.1-.1-.16-.12-.05-.06v-.06l.05-.06.03-.04.05-.02.33-.08.27-.18.07-.17.21-.4.14-.06.55.04.26-.06.1.01h.12l.26.03.5.02.23.08.2.15.14-.04.13.03.07.04.5.34.13.06.31.23.2.09.22.25.09.07.22.2.19.2.24.2.28-.02.43-.08.17-.28.07-.06.08-.04h.13l.1.05.05.06v.08l.14.44.2-.01.06-.2-.1-.56-.25-.15.06-.14.11-.01h.05l.09.05.09.06.19.21.01.03h.2l.22.02.11-.01.3.01.14-.08-.02-.22-.18-.17-.01-.03.04-.09.25.01.26.1.58-.07.18.06.2.36.03.13v.6l-.1.15-.87.25-.1.1-.04.28.22.08.27.12.16.11.06.28.02.15.04.22.14.08.28-.1.15-.22-.05-.26.22-.12.16.05.06.33-.01.06-.03.05-.21.26-.13.12-.03.1.09.13.46.07.2-.07h.56l.17-.31.1-.07.05-.04.31.03.04.04v.11l-.6.46.04.28.44.15.05.04.04.05-.03.06-.06.03-.35.02-.03.04.16.24.25.18-.02.04-.1.07-.23.13.19.22.3.02.11-.04.43-.07.07.01.17.1.39.5.05.03.2.36.03.04-.04.14-.07.03-.22.1.03.2.12.13.17.2.04.09v.06l-.07.36-.18.2v.17l.17.16h.11l.55.13.09.06.19-.01-.3.38-.04.13-.02.12-.1.34-.02.48.03.09-.02.05-.04.07-.01.1.04.16-.01.05-.02.04h-.03l-.02.08.03.1-.11.04-.02.04-.03.05.1.15.02.34-.01.1-.23.55-.01.2-.06.18-.05.33v.1l.04.18-.02.14v.52l-.11.28-.09.57.07.13.01.09-.04.11-.02.03-.02.1-.02.02-.89-.45h-.04l-.62-.33-.26-.12-.65-.33-.73-.36-.47-.24-.28-.13-.67-.35-.25-.12-.2-.09-.73-.37h-.02l-.78-.38-.2-.1-.18-.1-.72-.36-.23-.1-.78-.4-.35-.17-.28-.11-.51-.3-1.23-.64-.73-.4-.11-.05-.26-.13-.14-.07-1.22-.57-.65-.33-.47-.22.07.18.1.6-.11.15.23.24-.17.4-.02.25.16.18.17.1.01.22.22.03-.1.48-.25.56.12.04.29.01.25-.01.08.15-.15.21.05.12-.06.15v.05l-.04.12-.05.33-.02.09-.1.03.03.03-.03.1-.01.1-.32.54-.01.16-.07.23-.01.07-.13.07-.23.68-.08.17.04.05.1-.01.44.29-.09.1.05.3-.32.71-.05.18-.04.01-.02.07-.06.15-.04.1.36.1-.05.2.14.09.15.14.39.2-.02.13-.12.22-.27.27-.13.38-.04.4-.3.6-.2.13-.08.12-.11-.03-.35.43-.36.65.02.13-.17.35-.27.36-.08.16-.45.84.2.16.4.16-.3.57-.21.53-.16.57-.13.26-.26-.13-.05-.16-.16.1-.1-.25-.2.1-.04.15-.07.34h-.22l-.13.7-.28.67-.06.1-.19.1-.15.38-.16.01-.23.4-.14-.22-.01-.15-.06-.19-.02-.42-.06.14-.38.25-.2.43v.34l-.08.19-.43.36-.15.28-.26 1-.07.55-.25 1.03-.08.24-.13.36-.25 1.04-.76-.44h-.05l-1.27-.73-1.02-.57-.47-.26-.05.07-.06.57v.2l-.14.2-.04-.02-.04.02-.06.15.04.13-.08.08.1.35-.08.26-.44.08-.14.3.14.23.04.1-.06.35-4.73-2.55-2.8-1.44-.78-.47-.1.15.02.31-.13.65-.13.16-.38.02-.6.14-.26-.15h-.46l-.27.15.11.4.36.5-.6.36-.21.24-.37-.1-.38.01-.17.1.04.19.3.27-.05.42-.27.43-.12.37.46.26-.1.27.1.25.33.12.23.2.1.2-.02.42-.1.12-.17.53-.1.55-.18.04.02.29-.2.2-.07.32.05.19-.24.23-.03.34-.2.3.02.14-.22.13-.04.23.28.43-.2.1-.52-.06-.06.21-.17.1.09-.42-.02-.19-.36.05-.52-.22-.37.36.13.53-.46.07-.2-.42-.23-.13-.2.06-.09.2-.37.09-.17-.2.12-.13-.1-.54.12-.16-.23-.17h-.21l-.24-.2-.01-.2-.3.05-.25-.12-.12.12-.01.26-.18.3.05.12-.18.26.14.17-.17.44.08.24-.15.7v.24l-.22.31.17.28-.07.27-.27.07.24.66-.17.83.08.19.02.55-.03.31-2.73 3.07-.6.64-2.19.01-.15.2-2.32 3.12.11-1.07.4-3.49-3.42-4.76-.52.46-.32.08-.13-.31-.3-.15-.1-.24.02-.25-.37-.03-.26-.28-.87.23-.08.12-.22-.07v.2l-.22-.1-.36-.02-.18.22-.23.01-.22-.26-.16-.06.08-.33-.12-.36.03-.25.16-.14-.14-.18-.25.13-.2-.22.08-.15-.16-.24-.24.1-.3-.1.07-.96-.5-.43-.24.08-.15-.21-.53-.23-.12.21-.28.17-.44-.36-.54.4-.3-.31-.05-.43-.26-.21.04-.14-3.58-2.88-.8-2.27-.06-.37-.51-.03-1.58.02.1.3-.12.3h-.22l-.12.36-.47.05.1.1-.13.24-.45.11.05.13-.15.2-.24.04-.01.28-.16.1-.1.26-.35.1-.86.5-.08.27-.26.1.03.2h-.17l-.23.43-.36.03-.12.1-.16-.1-.26.04-.14.14-.3.11-.39.01-.19-.18-.29.11-.05-.2-.2.06-.21-.18-.09-.23-.2-.18-.09.12-.2-.14-.56.28-.12.34-.29-.05-.2-.2-.24.17-.29.04-.16-.17-.28.1-.11.39-.28-.12-.28.13-.08-.45-.13-.17h-.48v-.16l.24-.11.06-.2-.15-.38-.13-.58-.2-.13-.18.04-.17-.4-.24-.1-.04-.21-.28.16-.65-.29-.17-.27.4-.26-.24-.13.02-.14.4-.44-.07-.22-1.95 1.84-.32.25-.42.1-.45.56-.97 1.33-1.07 1.4-.52.86-2.37-.71-2-.65.03-.08v-.28l-.02-.06.01-.1-.04-.09v-.08l-.02-.06-.06-.15-.08-.27-.01-.12-.03-.04.02-.04-.04-.14h.02l.03.07v-.05l-.06-.13-.02-.03-.05-.04-.1-.25-.11-.19-.06-.11-.06-.07-.02-.06-.07-.11v-.09l.05-.2.06-.05.09-.07.08-.06h.03l.06-.1.04-.13-.01-.3.03-.14.07-.21.1-.08.25-.12.08-.03.11-.05.07-.03.08-.1.04-.21-.08-.19-.07-.1-.07-.13-.04-.14v-.07l-.02-.06-.03-.09.02-.06.02-.1.04-.02v-.06l.26-.42.5-.18.81-.06.44-.16.23.04.2.08h.32l.1-.03.04-.13v-.15l-.02-.23-.09-.32-.01-.77-.07-.42-.02-.25.27-.5.24-.28.3-.24.36-.42.16-.3.2-.39.08-.2.26-.26.27-.17h.31l.02.02.15.04.24.13.21.13.2.18.16.33.16.35.13.28.35.3h.33l.32-.12.26-.16.27-.36.4-.41.32-.37.1-.06.11-.05.05-.03.06-.06.03-.07.06-.08.06-.05.06-.06.03-.01.18-.05.24-.15h.02l.1-.05h.07l.15.01.36.01.13-.12.06-.13v-.08l-.03-.09-.01-.06.01-.23.06-.14.08-.15.21-.37.02-.09.02-.06v-.03l.06-.1.05-.08.04-.03.11-.1.04-.04.16-.1.24-.1.22-.06.2-.1.18-.3.08-.25.26-.92.48-.95.12-.2.18-.25.11-.16.08-.19.27-.33.07-.1.04-.07.04-.15.3-.43.1-.1.13-.14.1-.2.22-.33.16-.25.36-.45.5-.62.2-.07.26-.05.34-.01.26-.2.07-.47.01-.12.02-.1-.03-.17.03-.07v-.18l-.02-.15-.02-.21-.07-.22-.04-.18-.04-.24v-.18l.05-.06.14-.16.45-.3.05-.14-.01-.2" fill="#d1dbdd" stroke="rgb(209, 219, 221)" stroke-width="0.1" data-originalStrokeWidth="0.1" style="stroke: rgb(0, 0, 0); fill: rgb(209, 219, 221); pointer-events: auto; stroke-width: 0.1;" pointer-events="auto"/>
      <path id="WV01" d="m1174.81 350.26-.02.08-.12.2-.06.1-.13.5-.07.47.04.22-.05.46.1.28.2.16-.04.74.04.14-.32.17-.22-.03h-.11l-.22.27.03.08-.07.42-.09.14-.1.5-.06.63.08.23-.16.73.04.13-.11.1-.1.48-.23.59-.08.35v.57l.11.09v.26l.01.1-.18.2.01.24-.09.15-.27.28-.03.11.04.22-.04.21h-.15l-.08-.04-.11.37-.02.07-.03.04v.12l-.26.27-.04.13.04.05.05.08-.04.2-.15-.06-.24.26-.28.16-1.48-.16-.71-.1-.65-.08-.18-.02-1.2-.16-.79-1.06-.41-.54-.41-.52-.3-.2-.19-.24-.03-.02-.46-.17h-.25l-.2-.02-.66-.14-1.35-.32-.15.8.05.04.08.13-.09.08-.1.34.05.33.1.02v.12l-.05.16.03.1.08.05.2.32-.1.08-.01.16-.26-.04v.29l-.25.41-.01.12.04.08.1.08-.08.25.36.42.06.25-.04.13.04.07v.16l.1.25-.05.05-.09.11.07.1-.22.31-.28.99-.02.43.1.06.08.28-.32.35-.38-.03-.14.06-.08.31.08.1-.07.19-.1.24-.19.08-.15.23-.04.1-.19.46.01.15.27.35.18.02.3.43-.01.2-.2.13-.17.25-.12.01v.28l-.13.14h-.25l-.05.26-.19.06-.04.02-.02.07-.05.2-.2.25-.12.22-.06.1-.06.2-.15.17-.02.05-.13.03-.06.1v.17l-.02.01-.04.1-.2.31-.17.03-.02.07.01.05-.07.1.03.1.08.14-.02.08.12.1-.07.19.08.23-.14.17-.02.04-.02.14.03.18-.06.07-.1.12-.18.13.14.2.16.4.26.04.04.12-.04.13-.41.72-.1.48v.05l.08.1-.04.17-.13.6.08.13-.13.23-.26.8v.35l-.2.2-.5.91-.37.55-.28.26-.4.69-.07.3-.16.01-.05.23-.61 1.11-.11-.03-.1-.07-.02.06.02.05-.08.06-.05.06-.04.1-.12.26.02.04-.02.04-.05.01-.02.04v.07l-.03.1v.06l.02.04-.02.08-.06.05v.08l-.07.04h-.05l-.01.07.02.06-.02.02.02.07.05.04.04.07.05.06-.05.05-.07.03-.04.02-.03.05-.04.06-.07.02-.03.13-.13.24-.04.29-.25.24-.14.6.4.43-.34.03-.34.4.02.4-.16.02-.01.57.3.21-.08.32-.13.08-.28.58-.04.11-.1.16-.16.12v.05l.64.99.06.04.3.22.34.05.35.07.05.01.5.2-.07.28-.26.47-.36.46-.53.44-.23.26-.71.63.47.45v.1l-.06.04-.03-.02-.02.06-.03.01-.01.04-.05.01-.08.06-.02.03v.05l-.03.05.57.17.37-.38.24.04-.01.03-.25.84-.2.23-.27.2-.2.2-.28.11-.5.35.12.13-.91.88-.41.38-.34.45-.3.27-.14.22-.24.16-.45-.23-.21-.33v-.43l-.6-.64-.56.37-.38.09-.39.4-.1.08-.3.4-.84.81-.12.1-.17.3-.61.52-.76.73-.13.1-.58.47-.14.01-.47.36-.37-.45-.09-.12-.13-.05-.13.03h-.17l-.03-.02-.05-.04-.06.03-.06-.1-.05-.15-.1-.02-.24-.12-.24-.14-.36-.17-.1.12-.19-.06h-.1l-.06-.06-.03.05-.05.14v.23l.05.08.05.09-.14.41-.17.55.09.07.13.1.25.24.3.28.3.28-.42.36-.2.35-.36.47-.46.43-.68.51-.53.23h-.08l-.15-.08.04-.18-.2.03-1.12.58-1.13.44-.68.35-.22.13-1.11.73-.18.2-.47.5-.44.34-.3-.14-.2-.13-.43-.24-.02-.02-.26-.13-.34-.2-.28-.15-.1-.06-.42-.25h-.04l-.09-.06-.4-.26-.1-.08-.07-.04-.1-.1h-.02l-.04-.04-.2-.16-.6-.45-.1.2-.02.04.03.05.04.08-.12.29-.06.05-.18.01-.04-.07-.08.12-.06.05-.05.04-.01.03.02.07-.02.05-.02.07.05.15-.01.04-.17.54v.11l-.07.32-.08.05-.2.14-.25-.06-.04.1-.1-.01-.36.3-.09.23-.38.34-.31.01-.1-.18-.08.2v.56l-.27.3-.05.02h-.04l-.07.09-.1.03-.02.06-.08.03-.01.04-.05.01-.04.07-.07-.01-.04.04v.13l-.04.03-.04.12-.03.04-.01.06-.07.05-.04-.01-.06.07-1.32.35h-.02l-.45.12h-.02l-1 .26-.1-.04-.1-.19-.07-.04-.05-.04-.17.02-.05-.1-.56-.26-.02-.09-.02-.1-.25-.13-.11.02-.24.13-.03-.08-.1-.05v-.11l-.03-.12.03-.14-.27-.27-.07-.03-.02-.04-.14-.04-.02-.08v-.15h-.06v.04h-.06l-.14.07-.04.04-.07-.01h-.04l-.09-.03v-.01l-.06-.1-.06-.01-.03-.05h-.09l-.03-.01-.01-.02-.03-.02-.07.07-.03.05-.02-.06-.1-.03-.05.02h-.02l-.05-.01h-.04l-.05.02-.03.08-.1.02-.03.07-.03.02-.05.03h-.04l-.02.04h-.1l-.03.02-.16-.02h-.03l-.06-.02v-.04l-.1-.07-.12.06-.09.02v.02l-.1-.01v-.05l-.13-.21v-.12h-.05l-.03-.04.03-.03-.03-.07v-.06l-.02-.05h-.05l-.13.06-.12-.1.1-.22-.05-.01-.02-.03-.11-.06h-.02l-.15-.11-.05-.06-.12-.05v-.08l-.06-.03-.05.08-.02.02-.04-.02-.1-.01-.1.07-.06-.06h-.06v-.06l-.07-.15h-.03v-.06l-.03-.02-.04.02-.09-.01-.04.02-.04-.08h-.04l-.03-.12-.02.02h-.11l-.05.03-.02-.06h-.02l-.01-.07h-.06l-.05-.09-.05-.04h-.02v.04h-.03l-.05-.06-.04-.04.03-.14v-.02h-.02l-.1-.01-.03-.05-.05-.02v-.09l-.03-.02v-.03l.04-.02v-.08l-.05-.01h-.04l-.03-.02-.02-.13.06-.1.01-.04-.04-.04-.03-.09v-.04l.07-.04.02-.04h-.02v-.04l-.03-.05.04-.07-.09-.06v-.11l.04-.02.02-.05.07-.04-.03-.08.04-.05h-.07l-.05-.03-.04-.03h-.02l-.07-.01-.07-.07-.02-.06h-.08v-.03l-.04-.01v-.07l-.01-.03-.07-.11.04-.07.01-.05h.05l-.05-.06v-.07h.03l-.03-.07-.07-.04h-.07l-.02.03-.02-.02h-.07v-.02l-.07-.04v-.03l-.05-.04-.13-.01-.32.06-.2-.28-.34.12-.02-.1-.2-.3-.06-.02-.05-.15v-.1l.19-.3h.21l.27-.34.26.02-.07-.27.24-.13-.02-.2.35-.18-.2-.2-.09.24-.28-.4v-.16l-.25.13-.04-.19-.28.05.05-.2v-.07l-.12-.05-.28.18-.18.03-.15.16-.05-.15-.07.03-.08.27-.26.08-.08-.19-.28.14-.3-.28-.09.05.11.34-.05.27h-.05l-.02-.04-.03-.13-.02-.03-.04-.01-.14-.02-.11.07-.1-.24-.18-.17-.14-.15-.28.06h-.05l-.1.04-.33.11.04-.13-.07-.07-.29.08-.1.26-.12.04-.13-.03-.09-.13.03-.07-.29-.15-.02-.1.16-.1.27-.18-.03-.1-.04-.1-.04-.1-.12-.18-.29-.06-.13.17h-.14l-.14-.15-.1-.38-.19.1-.1-.17.1-.22-.01-.03-.1-.03-.18.15-.18-.24.18-.18-.16-.25.01-.25-.07-.02-.19.05-.1.13.21.46-.24.14-.15.06-.05.03-.18.02-.26-.25.06-.2-.18-.07-.11-.26-.43-.21-.14.1-.06.1-.19.04-.33-.14-.29-.27-.1-.07-.1.25-.15-.06-.14-.13-.12.03.15-.35-.2-.14.09-.3-.08-.13-.17-.02-.06-.04-.06-.1-.04-.04-.03-.13-.14-.08-.18-.4-.32-.12-.07-.04v-.07l.06-.09.02-.07.04-.05.12-.08v-.03l-.02-.14v-.07l.04-.04.05-.03.11-.05h.02l-.02-.05-.03-.04-.02-.03-.1.01-.08.05-.11.08-.08.02h-.03l-.1-.04-.02-.04v-.04l.1-.09.1-.1.03-.04-.04-.06-.07-.02-.07.03-.06.07h-.07l-.05-.02-.06-.02-.01-.07v-.06l-.03-.07-.04-.09v-.02l-.2.02-.03-.01-.14-.15-.05-.02h-.19l-.06-.03-.05-.1-.07-.04-.1-.01-.08.02-.07-.06-.07-.2-.27-.17-.14.33-.14-.23v-.3l-.03-.09-.04-.07-.23-.12-.05-.05-.08-.19h-.12l-.08-.02-.03-.05.06-.12.02-.19-.25-.08.04-.12.29-.1-.3-.24-.05-.29-.37-.14-.15-.25-.04-.02-.24-.07-.06-.07-.12-.07-.2-.08h-.17l.04.33-.06.15-.06-.01-.05-.08v-.15l-.04-.12-.03-.05-.09-.04-.08-.02h-.13l-.02-.03v-.09l.09-.12.06-.08-.03-.03h-.1l-.18.05-.08.01-.07-.02-.12-.13-.02-.03.02-.05.03-.06h.2l.04-.02.02-.07-.02-.03h-.1l-.07-.04-.05-.05-.02-.06.02-.04.05-.01h.16l.06-.02.08-.1.05-.1.08-.14.05-.15v-.03l-.1-.02h-.09l-.12-.02-.04-.01-.03-.14v-.1l.03-.04.03-.02.09-.02.16-.02.04-.02.08-.12.02-.05-.03-.17-.02-.01-.07-.05h-.18l-.09.07-.08.07h-.03l-.04-.04-.06-.14-.03-.19-.05-.07-.04-.02-.09.03-.12.02h-.11l-.1-.03-.08-.01-.02.02-.07.09h-.04l-.07-.02-.05-.02.07-.13-.1-.07-.23-.3-.04-.25-.26-.13-.1-.12-.02-.05-.04-.04.03-.12v-.08l-.1-.07-.04-.02-.1-.11-.02-.09v-.07l-.03-.06-.12-.09-.03-.15-.11-.09-.17-.01-.05-.05-.12-.15-.27-.04-.23-.19-.14-.5-.16-.07-.22-.18-.02-.01-.33-.05-.23-.02-.04-.2-.06-.15-.22-.01-.16-.06-.08-.22-.06-.32-.22-.3.05-.12.5-.07.2-.08.03-.04.03-.32.05-.36.06-.17-.03-.11-.07-.43-.03-.14-.22-.08-.2-.41.07-.35.13-.03.18.01.3-.18.03-.62-.11-.3-.26-.55.17-.57-.14-.28-.08-.16-.37-.32-.16-.04-.08-.09-.1-.6.01-.07.03-.16.01-.11-.02-.12-.05-.08-.14-.17.01-.3.01-.1-.05-.13-.06-.17-.03-.19.04-.2v.12l.31.21.3.1.29-.04h.13l.11-.02.29-.08.46-.21.36-.22.33-.21.62-.35.43-.21.34-.21.44-.3.4.08.08-.03 1.13-.44.14-.13.18-.35.05-.12.03-.24-.01-.36v-.2l.07-.46-.02-.27-.02-.02-.09-.54.07-.52-.02-.29-.14-.87.34-.66.06-.07.19-.09.36-.11.6.07.19-.02h.05l.31-.08.28-.15.14-.2.1-.29.04-.11-.06-.42-.31-.71-.23-.3-.25-.61v-.48l.03-.35-.29-.83-.17-.24-.22-.44-.06-.07-.27-.14-.18-.07-.15-.2-.08-.32v-.05l.03-.16.07-.24.46-.62.21-.09.4-.3.14-.2.11-.24.09-.17-.01-.2.02-.16-.02-.4-.07-.2-.05-.14-.16-.28-.02-.42.1-.2.13-.15.1-.36.17-.44v-.49l.05-.1.09-.24.1-.34.03-.34.14-.15.2-.15.23-.23.09-.08.09-.13.1-.14.03-.1.02-.2v-.36l.04-.19.01-.04.12-.12.1-.05.13-.07.26-.06.29.05.23.2.31.45.06.23.13.06.23-.05.16-.08.2-.1.1.01.16.04.23.12.53.64.14.25.05.08.1.13.28.32.09.22v.15l-.2.32-.14.23-.02.06.05-.04-.18.3v.26l.1.08.16.09.1.06.16.12.1.03.22.05.08.02.1-.03.08-.05.37-.38.21-.22.17-.4.02-.3-.04-.09-.05-.48.08-.2.14-.33.13-.12.12-.05.36.08.3.27.29.14h.47l.17-.18.02-.18-.15-.13-.26-.27-.28-.2-.07-.07-.06-.2.06-.52-.04-.44.14-.37-.03-.22-.15-.26-.23-.18-.08-.06-.25-.16-.2-.09-.24-.16-.3-.38-.08-.22-.07-.35.12-.17.65.06.47-.28.12-.18.11-.25 2.02.65 2.36.7.53-.85 1.06-1.4.98-1.33.45-.57.41-.09.32-.25 1.95-1.84.07.22-.4.44-.02.14.23.13-.4.25.18.28.66.28.27-.15.04.2.24.1.17.41.18-.04.2.13.13.58.15.38-.06.2-.24.1v.16h.48l.13.18.08.45.28-.13.28.1.1-.38.3-.1.15.18.3-.04.23-.17.2.2.3.05.1-.34.57-.28.2.14.08-.11.2.17.11.24.22.17.18-.07.05.2.3-.1.2.18h.36l.31-.12.14-.14.26-.04.16.1.12-.1.36-.03.23-.43h.17l-.03-.2.26-.1.08-.27.86-.5.35-.1.1-.27.16-.1.01-.27.24-.05.15-.19-.05-.13.45-.11.14-.23-.1-.11.47-.05.1-.35.23-.01.13-.3-.11-.3 1.58-.02.51.03.07.37.78 2.28 3.59 2.87-.04.14.26.21.04.43.31.32.54-.4.43.35.29-.17.12-.21.53.23.15.21.23-.08.51.42-.08.96.3.12.25-.1.17.23-.09.15.2.22.25-.12.14.17-.16.14-.03.25.13.36-.08.33.15.06.22.27.24-.01.17-.23.36.01.21.12.01-.2.22.06.08-.12.87-.23.26.27.37.04-.02.25.1.24.3.15.13.3.32-.07.52-.46 3.43 4.76-.4 3.49-.13 1.07 2.33-3.1.16-.22h2.19l.59-.65 2.73-3.07.03-.31-.02-.54-.08-.2.17-.83-.24-.66.28-.07.06-.27-.17-.28.23-.31-.01-.24.15-.7-.08-.24.17-.44-.14-.18.18-.25-.06-.13.19-.3v-.25l.13-.12.25.12.3-.06v.2l.25.21h.2l.24.18-.11.15.1.54-.13.14.17.18.37-.08.1-.2.19-.06.23.13.21.42.45-.07-.12-.54.36-.35.52.22.36-.06.02.19-.1.42.2-.1.04-.2.52.06.2-.1-.28-.43.04-.23.22-.13-.03-.15.2-.29.04-.34.24-.23-.05-.2.07-.3.2-.2-.02-.3.2-.05.08-.54.16-.53.11-.12.02-.43-.1-.18-.23-.21-.32-.12-.11-.25.1-.27-.46-.27.13-.36.27-.43.03-.43-.3-.26-.03-.18.18-.1.37-.02.37.1.2-.24.6-.35-.34-.5-.12-.4.27-.15h.46l.26.14.6-.14.38-.02.13-.16.14-.65-.01-.31.07-.15.79.47 2.8 1.44 4.73 2.56" fill="#d1dbdd" stroke="rgb(209, 219, 221)" stroke-width="0.1" data-originalStrokeWidth="0.1" style="stroke: rgb(0, 0, 0); fill: rgb(209, 219, 221); pointer-events: auto; stroke-width: 0.1;" pointer-events="auto"/>
      <g id="state_lines" stroke="rgb(209, 219, 221)" style="display: none; stroke: rgb(0, 0, 0);" stroke-width="0.1"/>
      <g id="state_abbr" fill="#000000" style="display: none; fill: rgb(0, 0, 0);">
        <text id="HI_label" x="491.79" y="769.82" style="font-size: 19.2455px; stroke-width: 1.60379; display: none;">
          <tspan id="HI_tspan" x="491.79" y="769.82" fill="#000000" dy="0" font-family="Arial" font-size="24.06" font-style="normal" font-weight="400" style="text-align: center; stroke-width: 2.57215; fill: rgb(0, 0, 0);" text-anchor="middle">HI</tspan>
        </text>
        <text id="AK_label" x="205.24" y="672.25" style="font-size: 19.2455px; stroke-width: 1.60379; display: none;">
          <tspan id="AK_tspan" x="205.24" y="672.25" fill="#000000" dy="0" font-family="Arial" font-size="24.06" font-style="normal" font-weight="400" style="text-align: center; stroke-width: 2.57215; fill: rgb(0, 0, 0);" text-anchor="middle">AK</tspan>
        </text>
        <text id="FL_label" x="1188.11" y="708.7" style="font-size: 19.2455px; stroke-width: 1.60379; display: none;">
          <tspan id="FL_tspan" x="1188.11" y="708.7" fill="#000000" dy="0" font-family="Arial" font-size="24.06" font-style="normal" font-weight="400" style="text-align: center; stroke-width: 2.57215; fill: rgb(0, 0, 0);" text-anchor="middle">FL</tspan>
        </text>
        <text id="NH_label" x="1306.05" y="167.79" stroke-width="1.1" font-size="13.25" style="display: none;">
          <tspan id="NH_tspan" x="1306.05" y="167.79" fill="#000000" stroke-width="1.1" dy="0" font-family="Arial" font-size="16.56" font-style="normal" font-weight="400" style="text-align: center; fill: rgb(0, 0, 0);" text-anchor="middle">NH</tspan>
        </text>
        <text id="MI_label" x="1019.65" y="246.58" style="font-size: 19.2455px; stroke-width: 1.60379; display: none;">
          <tspan id="MI_tspan" x="1019.65" y="246.58" fill="#000000" dy="0" font-family="Arial" font-size="24.06" font-style="normal" font-weight="400" style="text-align: center; stroke-width: 2.57215; fill: rgb(0, 0, 0);" text-anchor="middle">MI</tspan>
        </text>
        <text id="VT_label" x="1274.28" y="145.01" stroke-width="1.05" font-size="12.65" style="display: none;">
          <tspan id="VT_tspan" x="1274.28" y="145.01" fill="#000000" stroke-width="1.05" dy="0" font-family="Arial" font-size="15.81" font-style="normal" font-weight="400" style="text-align: center; fill: rgb(0, 0, 0);" text-anchor="middle">VT</tspan>
        </text>
        <text id="ME_label" x="1338.99" y="105.14" stroke-width="1.45" font-size="17.36" style="display: none;">
          <tspan id="ME_tspan" x="1338.99" y="105.14" fill="#000000" stroke-width="1.45" dy="0" font-family="Arial" font-size="21.7" font-style="normal" font-weight="400" style="text-align: center; fill: rgb(0, 0, 0);" text-anchor="middle">ME</tspan>
        </text>
        <text id="RI_label" x="1361.38" y="262.84" stroke-width="1.25" font-size="14.98" style="display: none;">
          <tspan id="RI_tspan" x="1361.38" y="262.84" fill="#000000" stroke-width="1.25" dy="0" font-family="Arial" font-size="18.72" font-style="normal" font-weight="400" style="text-align: center; fill: rgb(0, 0, 0);" text-anchor="middle">RI</tspan>
        </text>
        <text id="NY_label" x="1227.27" y="204.12" style="font-size: 19.2455px; stroke-width: 1.60379; display: none;">
          <tspan id="NY_tspan" x="1227.27" y="204.12" fill="#000000" dy="0" font-family="Arial" font-size="24.06" font-style="normal" font-weight="400" style="text-align: center; stroke-width: 2.57215; fill: rgb(0, 0, 0);" text-anchor="middle">NY</tspan>
        </text>
        <text id="PA_label" x="1187.28" y="284.69" style="font-size: 19.2455px; stroke-width: 1.60379; display: none;">
          <tspan id="PA_tspan" x="1187.28" y="284.69" fill="#000000" dy="0" font-family="Arial" font-size="24.06" font-style="normal" font-weight="400" style="text-align: center; stroke-width: 2.57215; fill: rgb(0, 0, 0);" text-anchor="middle">PA</tspan>
        </text>
        <text id="NJ_label" x="1330.57" y="290.09" stroke-width="1.28" font-size="15.4" style="display: none;">
          <tspan id="NJ_tspan" x="1330.57" y="290.09" fill="#000000" stroke-width="1.28" dy="0" font-family="Arial" font-size="19.25" font-style="normal" font-weight="400" style="text-align: center; fill: rgb(0, 0, 0);" text-anchor="middle">NJ</tspan>
        </text>
        <text id="DE_label" x="1320.8" y="328.42" stroke-width="1.36" font-size="16.38" style="display: none;">
          <tspan id="DE_tspan" x="1320.8" y="328.42" fill="#000000" stroke-width="1.36" dy="0" font-family="Arial" font-size="20.47" font-style="normal" font-weight="400" style="text-align: center; fill: rgb(0, 0, 0);" text-anchor="middle">DE</tspan>
        </text>
        <text id="MD_label" x="1310.72" y="368.46" stroke-width="1.34" font-size="16.11" style="display: none;">
          <tspan id="MD_tspan" x="1310.72" y="368.46" fill="#000000" stroke-width="1.34" dy="0" font-family="Arial" font-size="20.13" font-style="normal" font-weight="400" style="text-align: center; fill: rgb(0, 0, 0);" text-anchor="middle">MD</tspan>
        </text>
        <text id="VA_label" x="1198.59" y="392.33" style="font-size: 19.2455px; stroke-width: 1.60379; display: none;">
          <tspan id="VA_tspan" x="1198.59" y="392.33" fill="#000000" dy="0" font-family="Arial" font-size="24.06" font-style="normal" font-weight="400" style="text-align: center; stroke-width: 2.57215; fill: rgb(0, 0, 0);" text-anchor="middle">VA</tspan>
        </text>
        <text id="WV_label" x="1129.66" y="382.3" style="font-size: 19.2455px; stroke-width: 1.60379; display: none;">
          <tspan id="WV_tspan" x="1129.66" y="382.3" fill="#000000" dy="0" font-family="Arial" font-size="24.06" font-style="normal" font-weight="400" style="text-align: center; stroke-width: 2.57215; fill: rgb(0, 0, 0);" text-anchor="middle">WV</tspan>
        </text>
        <text id="OH_label" x="1079.05" y="334.46" style="font-size: 19.2455px; stroke-width: 1.60379; display: none;">
          <tspan id="OH_tspan" x="1079.05" y="334.46" fill="#000000" dy="0" font-family="Arial" font-size="24.06" font-style="normal" font-weight="400" style="text-align: center; stroke-width: 2.57215; fill: rgb(0, 0, 0);" text-anchor="middle">OH</tspan>
        </text>
        <text id="IN_label" x="998.79" y="352.94" style="font-size: 19.2455px; stroke-width: 1.60379; display: none;">
          <tspan id="IN_tspan" x="998.79" y="352.94" fill="#000000" dy="0" font-family="Arial" font-size="24.06" font-style="normal" font-weight="400" style="text-align: center; stroke-width: 2.57215; fill: rgb(0, 0, 0);" text-anchor="middle">IN</tspan>
        </text>
        <text id="IL_label" x="927.43" y="364.36" style="font-size: 19.2455px; stroke-width: 1.60379; display: none;">
          <tspan id="IL_tspan" x="927.43" y="364.36" fill="#000000" dy="0" font-family="Arial" font-size="24.06" font-style="normal" font-weight="400" style="text-align: center; stroke-width: 2.57215; fill: rgb(0, 0, 0);" text-anchor="middle">IL</tspan>
        </text>
        <text id="CT_label" x="1299.17" y="228.46" stroke-width="1.06" font-size="12.74" style="display: none;">
          <tspan id="CT_tspan" x="1299.17" y="228.46" fill="#000000" stroke-width="1.06" dy="0" font-family="Arial" font-size="15.93" font-style="normal" font-weight="400" style="text-align: center; fill: rgb(0, 0, 0);" text-anchor="middle">CT</tspan>
        </text>
        <text id="WI_label" x="898.6" y="224.7" style="font-size: 19.2455px; stroke-width: 1.60379; display: none;">
          <tspan id="WI_tspan" x="898.6" y="224.7" fill="#000000" dy="0" font-family="Arial" font-size="24.06" font-style="normal" font-weight="400" style="text-align: center; stroke-width: 2.57215; fill: rgb(0, 0, 0);" text-anchor="middle">WI</tspan>
        </text>
        <text id="NC_label" x="1205.6" y="458.72" style="font-size: 19.2455px; stroke-width: 1.60379; display: none;">
          <tspan id="NC_tspan" x="1205.6" y="458.72" fill="#000000" dy="0" font-family="Arial" font-size="24.06" font-style="normal" font-weight="400" style="text-align: center; stroke-width: 2.57215; fill: rgb(0, 0, 0);" text-anchor="middle">NC</tspan>
        </text>
        <text id="MA_label" x="1305.87" y="200.67" stroke-width="1.04" font-size="12.46" style="display: none;">
          <tspan id="MA_tspan" x="1305.87" y="200.67" fill="#000000" stroke-width="1.04" dy="0" font-family="Arial" font-size="15.58" font-style="normal" font-weight="400" style="text-align: center; fill: rgb(0, 0, 0);" text-anchor="middle">MA</tspan>
        </text>
        <text id="MO_label" x="854.22" y="422.93" style="font-size: 19.2455px; stroke-width: 1.60379; display: none;">
          <tspan id="MO_tspan" x="854.22" y="422.93" fill="#000000" dy="0" font-family="Arial" font-size="24.06" font-style="normal" font-weight="400" style="text-align: center; stroke-width: 2.57215; fill: rgb(0, 0, 0);" text-anchor="middle">MO</tspan>
        </text>
        <text id="GA_label" x="1106.89" y="574.56" style="font-size: 19.2455px; stroke-width: 1.60379; display: none;">
          <tspan id="GA_tspan" x="1106.89" y="574.56" fill="#000000" dy="0" font-family="Arial" font-size="24.06" font-style="normal" font-weight="400" style="text-align: center; stroke-width: 2.57215; fill: rgb(0, 0, 0);" text-anchor="middle">GA</tspan>
        </text>
        <text id="SC_label" x="1166.32" y="522.49" style="font-size: 19.2455px; stroke-width: 1.60379; display: none;">
          <tspan id="SC_tspan" x="1166.32" y="522.49" fill="#000000" dy="0" font-family="Arial" font-size="24.06" font-style="normal" font-weight="400" style="text-align: center; stroke-width: 2.57215; fill: rgb(0, 0, 0);" text-anchor="middle">SC</tspan>
        </text>
        <text id="KY_label" x="1039.99" y="426.39" style="font-size: 19.2455px; stroke-width: 1.60379; display: none;">
          <tspan id="KY_tspan" x="1039.99" y="426.39" fill="#000000" dy="0" font-family="Arial" font-size="24.06" font-style="normal" font-weight="400" style="text-align: center; stroke-width: 2.57215; fill: rgb(0, 0, 0);" text-anchor="middle">KY</tspan>
        </text>
        <text id="AL_label" x="1019.59" y="578.15" style="font-size: 19.2455px; stroke-width: 1.60379; display: none;">
          <tspan id="AL_tspan" fill="#000000" dy="0" font-family="Arial" font-size="24.06" font-style="normal" font-weight="400" style="text-align: center; stroke-width: 2.57215; fill: rgb(0, 0, 0);" text-anchor="middle">AL</tspan>
        </text>
        <text id="LA_label" x="872.7" y="649.59" style="font-size: 19.2455px; stroke-width: 1.60379; display: none;">
          <tspan id="LA_tspan" x="872.7" y="649.59" fill="#000000" dy="0" font-family="Arial" font-size="24.06" font-style="normal" font-weight="400" style="text-align: center; stroke-width: 2.57215; fill: rgb(0, 0, 0);" text-anchor="middle">LA</tspan>
        </text>
        <text id="MS_label" x="940.37" y="592.21" style="font-size: 19.2455px; stroke-width: 1.60379; display: none;">
          <tspan id="MS_tspan" x="940.37" y="592.21" fill="#000000" dy="0" font-family="Arial" font-size="24.06" font-style="normal" font-weight="400" style="text-align: center; stroke-width: 2.57215; fill: rgb(0, 0, 0);" text-anchor="middle">MS</tspan>
        </text>
        <text id="IA_label" x="823.33" y="308.44" style="font-size: 19.2455px; stroke-width: 1.60379; display: none;">
          <tspan id="IA_tspan" x="823.33" y="308.44" fill="#000000" dy="0" font-family="Arial" font-size="24.06" font-style="normal" font-weight="400" style="text-align: center; stroke-width: 2.57215; fill: rgb(0, 0, 0);" text-anchor="middle">IA</tspan>
        </text>
        <text id="MN_label" x="790.84" y="183.37" style="font-size: 19.2455px; stroke-width: 1.60379; display: none;">
          <tspan id="MN_tspan" x="790.84" y="183.37" fill="#000000" dy="0" font-family="Arial" font-size="24.06" font-style="normal" font-weight="400" style="text-align: center; stroke-width: 2.57215; fill: rgb(0, 0, 0);" text-anchor="middle">MN</tspan>
        </text>
        <text id="OK_label" x="732.05" y="519.54" style="font-size: 19.2455px; stroke-width: 1.60379; display: none;">
          <tspan id="OK_tspan" x="732.05" y="519.54" fill="#000000" dy="0" font-family="Arial" font-size="24.06" font-style="normal" font-weight="400" style="text-align: center; stroke-width: 2.57215; fill: rgb(0, 0, 0);" text-anchor="middle">OK</tspan>
        </text>
        <text id="TX_label" x="710.59" y="652.87" style="font-size: 19.2455px; stroke-width: 1.60379; display: none;">
          <tspan id="TX_tspan" x="710.59" y="652.87" fill="#000000" dy="0" font-family="Arial" font-size="24.06" font-style="normal" font-weight="400" style="text-align: center; stroke-width: 2.57215; fill: rgb(0, 0, 0);" text-anchor="middle">TX</tspan>
        </text>
        <text id="NM_label" x="506.94" y="542.36" style="font-size: 19.2455px; stroke-width: 1.60379; display: none;">
          <tspan id="NM_tspan" x="506.94" y="542.36" fill="#000000" dy="0" font-family="Arial" font-size="24.06" font-style="normal" font-weight="400" style="text-align: center; stroke-width: 2.57215; fill: rgb(0, 0, 0);" text-anchor="middle">NM</tspan>
        </text>
        <text id="KS_label" x="701.21" y="427.26" style="font-size: 19.2455px; stroke-width: 1.60379; display: none;">
          <tspan id="KS_tspan" x="701.21" y="427.26" fill="#000000" dy="0" font-family="Arial" font-size="24.06" font-style="normal" font-weight="400" style="text-align: center; stroke-width: 2.57215; fill: rgb(0, 0, 0);" text-anchor="middle">KS</tspan>
        </text>
        <text id="NE_label" x="686.63" y="337.29" style="font-size: 19.2455px; stroke-width: 1.60379; display: none;">
          <tspan id="NE_tspan" x="686.63" y="337.29" fill="#000000" dy="0" font-family="Arial" font-size="24.06" font-style="normal" font-weight="400" style="text-align: center; stroke-width: 2.57215; fill: rgb(0, 0, 0);" text-anchor="middle">NE</tspan>
        </text>
        <text id="SD_label" x="663.02" y="238.75" style="font-size: 19.2455px; stroke-width: 1.60379; display: none;">
          <tspan id="SD_tspan" x="663.02" y="238.75" fill="#000000" dy="0" font-family="Arial" font-size="24.06" font-style="normal" font-weight="400" style="text-align: center; stroke-width: 2.57215; fill: rgb(0, 0, 0);" text-anchor="middle">SD</tspan>
        </text>
        <text id="ND_label" x="663.02" y="150.75" style="font-size: 19.2455px; stroke-width: 1.60379; display: none;">
          <tspan id="ND_tspan" x="663.02" y="150.75" fill="#000000" dy="0" font-family="Arial" font-size="24.06" font-style="normal" font-weight="400" style="text-align: center; stroke-width: 2.57215; fill: rgb(0, 0, 0);" text-anchor="middle">ND</tspan>
        </text>
        <text id="WY_label" x="499.57" y="276.47" style="font-size: 19.2455px; stroke-width: 1.60379; display: none;">
          <tspan id="WY_tspan" x="499.57" y="276.47" fill="#000000" dy="0" font-family="Arial" font-size="24.06" font-style="normal" font-weight="400" style="text-align: center; stroke-width: 2.57215; fill: rgb(0, 0, 0);" text-anchor="middle">WY</tspan>
        </text>
        <text id="MT_label" x="487.84" y="155.58" style="font-size: 19.2455px; stroke-width: 1.60379; display: none;">
          <tspan id="MT_tspan" x="487.84" y="155.58" fill="#000000" dy="0" font-family="Arial" font-size="24.06" font-style="normal" font-weight="400" style="text-align: center; stroke-width: 2.57215; fill: rgb(0, 0, 0);" text-anchor="middle">MT</tspan>
        </text>
        <text id="CO_label" x="525.13" y="406.28" style="font-size: 19.2455px; stroke-width: 1.60379; display: none;">
          <tspan id="CO_tspan" x="525.13" y="406.28" fill="#000000" dy="0" font-family="Arial" font-size="24.06" font-style="normal" font-weight="400" style="text-align: center; stroke-width: 2.57215; fill: rgb(0, 0, 0);" text-anchor="middle">CO</tspan>
        </text>
        <text id="ID_label" x="339.94" y="235.07" style="font-size: 19.2455px; stroke-width: 1.60379; display: none;">
          <tspan id="ID_tspan" x="339.94" y="235.07" fill="#000000" dy="0" font-family="Arial" font-size="24.06" font-style="normal" font-weight="400" style="text-align: center; stroke-width: 2.57215; fill: rgb(0, 0, 0);" text-anchor="middle">ID</tspan>
        </text>
        <text id="UT_label" x="396.81" y="386.73" style="font-size: 19.2455px; stroke-width: 1.60379; display: none;">
          <tspan id="UT_tspan" x="396.81" y="386.73" fill="#000000" dy="0" font-family="Arial" font-size="24.06" font-style="normal" font-weight="400" style="text-align: center; stroke-width: 2.57215; fill: rgb(0, 0, 0);" text-anchor="middle">UT</tspan>
        </text>
        <text id="AZ_label" x="366.76" y="536.9" style="font-size: 19.2455px; stroke-width: 1.60379; display: none;">
          <tspan id="AZ_tspan" x="366.76" y="536.9" fill="#000000" dy="0" font-family="Arial" font-size="24.06" font-style="normal" font-weight="400" style="text-align: center; stroke-width: 2.57215; fill: rgb(0, 0, 0);" text-anchor="middle">AZ</tspan>
        </text>
        <text id="NV_label" x="262.47" y="370.64" style="font-size: 19.2455px; stroke-width: 1.60379; display: none;">
          <tspan id="NV_tspan" x="262.47" y="370.64" fill="#000000" dy="0" font-family="Arial" font-size="24.06" font-style="normal" font-weight="400" style="text-align: center; stroke-width: 2.57215; fill: rgb(0, 0, 0);" text-anchor="middle">NV</tspan>
        </text>
        <text id="OR_label" x="214.43" y="206.88" style="font-size: 19.2455px; stroke-width: 1.60379; display: none;">
          <tspan id="OR_tspan" x="214.43" y="206.88" fill="#000000" dy="0" font-family="Arial" font-size="24.06" font-style="normal" font-weight="400" style="text-align: center; stroke-width: 2.57215; fill: rgb(0, 0, 0);" text-anchor="middle">OR</tspan>
        </text>
        <text id="WA_label" x="238.05" y="102.99" style="font-size: 19.2455px; stroke-width: 1.60379; display: none;">
          <tspan id="WA_tspan" x="238.05" y="102.99" fill="#000000" dy="0" font-family="Arial" font-size="24.06" font-style="normal" font-weight="400" style="text-align: center; stroke-width: 2.57215; fill: rgb(0, 0, 0);" text-anchor="middle">WA</tspan>
        </text>
        <text id="CA_label" x="191.69" y="434.8" style="font-size: 19.2455px; stroke-width: 1.60379; display: none;">
          <tspan id="CA_tspan" x="191.69" y="434.8" fill="#000000" dy="0" font-family="Arial" font-size="24.06" font-style="normal" font-weight="400" style="text-align: center; stroke-width: 2.57215; fill: rgb(0, 0, 0);" text-anchor="middle">CA</tspan>
        </text>
        <text id="DC_label" x="1309.32" y="398.19" stroke-width="1.29" font-size="15.45" style="display: none;">
          <tspan id="DC_tspan" x="1309.32" y="398.19" fill="#000000" stroke-width="1.29" dy="0" font-family="Arial" font-size="19.31" font-style="normal" font-weight="400" style="text-align: center; fill: rgb(0, 0, 0);" text-anchor="middle">DC</tspan>
        </text>
        <text id="TN_label" x="1018.93" y="485.72" style="font-size: 19.2455px; stroke-width: 1.60379; display: none;">
          <tspan id="TN_tspan" x="1018.93" y="485.72" fill="#000000" dy="0" font-family="Arial" font-size="24.06" font-style="normal" font-weight="400" style="text-align: center; stroke-width: 2.57215; fill: rgb(0, 0, 0);" text-anchor="middle">TN</tspan>
        </text>
        <text id="AR_label" x="863.15" y="535.77" style="font-size: 19.2455px; stroke-width: 1.60379; display: none;">
          <tspan id="AR_tspan" x="863.15" y="535.77" fill="#000000" dy="0" font-family="Arial" font-size="24.06" font-style="normal" font-weight="400" style="text-align: center; stroke-width: 2.57215; fill: rgb(0, 0, 0);" text-anchor="middle">AR</tspan>
        </text>
      </g>
      <g id="state_borders" transform="translate(-0.04777967,-0.15336683)" stroke="rgb(209, 219, 221)" style="stroke: rgb(0, 0, 0);" stroke-width="0.3">
        <path id="WV_VA_border" d="m1113.28 403.33.57.1.14.54.45-.1-1.06 1.17-.37.1.17.7.67.33.45-.05.82 1.5-.07.52.28.5 1.4.67.74.68.15.58.88.1.35-.3 1.07.1.46.3.35.77.6.19 1.08.65 2.84-.73.3-.53.83-.6.05-.8.5.13.9-.92.5-.08.2-1.26.53-.36.19-.67 1.25.99 2.74 1.52 1.22-1.16 1.23-.76 1.76-.75 1.32-.67.2.3.6-.26 1.03-.84 1.03-1.25-1.07-.97.3-.97-.01-.58.59.04 1.46.66.48.62 1.43-1.02 2.2-2.16.98-1.1.93-.47.6.65.12.72.55.27 2.33-2.36 1.34-1.21.26-.87-.6.33-.6-.16.38-.42-.5-.47 1.46-1.32.7-1.21-1.25-.32-.35-.27-.64-1 .8-1.41-.3-.22.14-1 .7-.4-.42-.45.14-.6.59-1.03.33-1.3.43-.32 1.22-2.21.5-.62.89-1.33.25-.76.3-2.23.5-.98-.34-.07-.28-.57.47-.87-.14-1.06.35-.24.93-1.72.68-.53.48-.64-.28-.65-.47-.4.2-.64.49-.5.04-.7.5-.02.38-.41-.2-.26.3-1.45.29-.57-.58-1.7.26-.8.4-.27-.35-.34-.05-1.35.17-.74 2.95.67.5.44 1.6 2.12 4.22.52.46-.4.86-1.8.55-.86-.12-1.02.65-2.34-.1-.28.3-1.76.87-.4v-.9l-.3-.43.16-1.5.32-.9-.18-.38.6-.36v-.84l.29-.3.1-.85 3.57 2.02.65-2.37.39-1.85.58-.64.28-.94.44-.4.27.95.68-.82.48-1.52.52-.6.58.45.8-1.93-.6-.32.96-1.84.68-1.07.4-.22.49-1.4.44-.6-1.03-.74.53-1.2.04-.42-.58-.33.97-2.18.25-1.12-.73-.14.35-1.04-.56-.64.19-.54-.3-1.17 2.37 1.12 2.98 1.58 3.52 1.73 5.8 2.89.23-1.41-.04-.82.35-1.3.13-1.94.45-.98" stroke="rgb(209, 219, 221)" stroke-width="0.3" fill="none" style="stroke: rgb(0, 0, 0); display: none;"/>
        <path id="WV_MD_border" d="m1158.22 322.84 1.27 5.89-.08.02 1.28 5.8h-.05l.95 4.3.43-.02.89-1 .6-1.42.72-.51.07-.53.65-.5.63.03v-.8l.57-.63-.2-.54.96-.43.22-.87.3.03.47-1.16.2.34.72-.97-.14-.38.32-.7-.24-.43.45.1.77-.6.4.44 2.03.43-.2-.74.42-.8.38-.12.63-1.27.38-1.35.83-.47-.46-.56.26-.7.3.04-.26-.68.68-.84-.07.89.65-.32.43.32-.94.62.89.5.23-.28.39.65 1.83.52.72-.34 1.5.3 1-.4 1.3-.05-.02-.94.97-.37-1.04-.55.13-.57.9.19.18-.42-.64-.26-.42-.48.28-.18.96.26.1-.73.45-.02-.03-.4 1.76.24.4-.08.1-.7.57-.86-.2-.41.57-.14.34-.7 1.84-.02.8.25 1.23.77.8.85.85-.07.52-.34.46.52-.08-1 .3.36.89.02-.07-.57 1.17.02.3.42-.1.9-.81.23-.12.4.65.4.1.54.94-.2-.33.67 1.25-.01.24-.36.44.1-.62.5.53.47-.4.35.35.2-.04.54h1l.65.99-.35.28.39.84-.08.67.94.16" stroke="rgb(209, 219, 221)" stroke-width="0.3" fill="none" style="stroke: rgb(0, 0, 0); display: none;"/>
        <path id="WV_OH_border" d="m1092.8 378.76.6.43 1.03-.2 2.78-1.66.4.09 1.12-.44.36-.32.19-1.57-.2-2.63.3-.54.67-.28.62.1.78-.27.2-1.03-.78-1.61.02-.93-.7-1.45-.48-.24-.18-.85.5-.74.65-.44.3-.56v-.8l-.3-1 .53-1.23.27-1.46.77-.76.18-1.03.66-.28.34.18.6.83.6-.22.48.16 1.1 1.43.08.38-.5.88.54.6.53.05.63-.64.2-.7-.1-.57.22-.53.38-.17 1.1.55.38-.42-.82-.85.1-1.66-1.4-1.15-.07-.8.8.04.49-.47.07-.9-.24-.96-.48-.85.5-1.36.73-.53-.31-.88.33-.6 1.65-.4.95.07-.16-2.28.26-.5.82-.83.89-1.35.66-.02.63.43.46.97.56.34.65-.28 1.54-1.6 1.13-.25.6-1.58 1.12-.7.52-1.48.52-1.05.88-1.35 1.72-2.4 1.2-.45.1-1.05-.14-1.3.58-.45-.05-.5-1.01-.88-.1-.7.73-.92-.3-1.32.63-.86-.14-.58-.48-.57.2-.57.89.15-.35-1.14.44-.88-.3-1.07-.02-1.4-.35-.8.5-.88-.23-1.73.54-1.58-.04-.97.26-.76.44-.43-.02-.97.18-.87-.5-.87-.03-.7-.73-.53.42-.52-.22-1.06.16-1.13-.75-.83-.44-1-1.18-.98v-.57l.64-1.05.6-.32.58.24 1.19-1.07" stroke="rgb(209, 219, 221)" stroke-width="0.3" fill="none" style="stroke: rgb(0, 0, 0); display: none;"/>
      </g>
      <rect id="selection-rectangle" fill="#ffffccaa" stroke="rgb(209, 219, 221)" stroke-width="0.1"/>
      <ellipse id="selection-ellipse" fill="#ffffccaa" stroke="rgb(209, 219, 221)" stroke-width="0.1"/>
      <polygon id="selection-polygon" fill="#ffffccaa" stroke="rgb(209, 219, 221)" stroke-width="0.1"/>
      <polyline id="selection-polyline" fill="#ffffccaa" stroke="rgb(209, 219, 221)" stroke-width="0.1"/>
    </svg>
  </g>
</svg>
