<?xml version='1.0' encoding='UTF-8'?>
<svg xmlns="http://www.w3.org/2000/svg" xmlns:dc="http://purl.org/dc/elements/1.1/" xmlns:ns2="http://creativecommons.org/ns#" xmlns:rdf="http://www.w3.org/1999/02/22-rdf-syntax-ns#" id="wrapper" viewBox="0 0 1520 840" preserveAspectRatio="xMinYMin" height="840" width="1520" style="background-color: rgb(255, 255, 255);">
  <metadata>
    <rdf:rdf>
      <ns2:work rdf:about="">
        <dc:format>image/svg+xml</dc:format>
        <dc:type rdf:resource="http://purl.org/dc/dcmitype/StillImage"/>
        <dc:title>MapChart Map</dc:title>
        <dc:creator>
          <ns2:agent>
            <dc:title>MapChart.net</dc:title>
          </ns2:agent>
        </dc:creator>
        <ns2:license rdf:resource="http://creativecommons.org/licenses/by-sa/4.0/"/>
        <dc:description>This map was created with MapChart.net, a website for creating custom maps.</dc:description>
      </ns2:work>
      <ns2:license rdf:about="http://creativecommons.org/licenses/by-sa/4.0/">
        <ns2:permits rdf:resource="http://creativecommons.org/ns#Reproduction"/>
        <ns2:permits rdf:resource="http://creativecommons.org/ns#Distribution"/>
        <ns2:requires rdf:resource="http://creativecommons.org/ns#Notice"/>
        <ns2:requires rdf:resource="http://creativecommons.org/ns#Attribution"/>
        <ns2:requires rdf:resource="http://creativecommons.org/ns#ShareAlike"/>
      </ns2:license>
    </rdf:rdf>
  </metadata>
  <g id="map-group" transform="translate(-3927.924025930629,-667.907585377264) scale(5.255844416226693)">
    <svg id="map" width="1520" height="840" version="1.1" viewBox="0 0 1520 840" preserveAspectRatio="xMinYMin" data-originalStrokeWidth="0.3">
      <defs>
        <pattern id="circles3" width="10" height="10" patternUnits="userSpaceOnUse">    <rect width="10" height="10" fill="#fff"/>    <circle cx="4" cy="4" r="2" fill="#000"/>    </pattern>
        <pattern id="diagonal1" width="10" height="10" patternUnits="userSpaceOnUse">    <rect width="10" height="10" fill="#fff"/>    </pattern>
        <pattern id="diagonal3" width="10" height="10" patternUnits="userSpaceOnUse">    <rect width="10" height="10" fill="#fff"/>    </pattern>
        <pattern id="vertical1" width="10" height="10" patternUnits="userSpaceOnUse">    <rect width="10" height="10" fill="#fff"/>    <rect x="2" y="0" width="1" height="10" fill="#000"/>    </pattern>
        <pattern id="vertical3" width="10" height="10" patternUnits="userSpaceOnUse">    <rect width="10" height="10" fill="#fff"/>    <rect x="2" y="0" width="3" height="10" fill="#000"/>    </pattern>
        <pattern id="horizontal1" width="10" height="10" patternUnits="userSpaceOnUse">    <rect width="10" height="10" fill="#fff"/>    <rect x="0" y="2" width="10" height="1" fill="#000"/>    </pattern>
        <pattern id="horizontal3" width="10" height="10" patternUnits="userSpaceOnUse">    <rect width="10" height="10" fill="#fff"/>    <rect x="0" y="2" width="10" height="3" fill="#000"/>    </pattern>
        <pattern id="crosshatch" width="8" height="8" patternUnits="userSpaceOnUse">    <rect width="8" height="8" fill="#fff"/>    </pattern>
        <pattern id="subtlepatch" width="5" height="5" patternUnits="userSpaceOnUse">    <rect width="5" height="5" fill="#fff"/>    <rect x="2" y="2" width="1" height="1" fill="#000"/>    </pattern>
        <pattern id="checkers" width="8" height="8" patternUnits="userSpaceOnUse">    <rect width="8" height="8" fill="#fff"/>    </pattern>
        <pattern id="raindrops" width="10" height="10" patternUnits="userSpaceOnUse">    <rect width="10" height="10" fill="#fff"/>    </pattern>
        <pattern id="texture" width="4" height="4" patternUnits="userSpaceOnUse">    <rect width="4" height="4" fill="#fff"/>    </pattern>
        <pattern id="circles3_a03500_000000" width="10" height="10" patternUnits="userSpaceOnUse">    <rect width="10" height="10" fill="#a03500"/>    <circle cx="4" cy="4" r="2" fill="#000000"/>    </pattern>
        <pattern id="diagonal1_d9b400_535353" width="10" height="10" patternUnits="userSpaceOnUse">    <rect width="10" height="10" fill="#d9b400"/>    </pattern>
        <pattern id="diagonal3_3264c8_ffffff" width="10" height="10" patternUnits="userSpaceOnUse">    <rect width="10" height="10" fill="#3264c8"/>    </pattern>
        <pattern id="horizontal1_72b38e_000000" width="10" height="10" patternUnits="userSpaceOnUse">    <rect width="10" height="10" fill="#72b38e"/>    <rect x="0" y="2" width="10" height="1" fill="#000000"/>    </pattern>
        <pattern id="horizontal3_986ba1_ffffff" width="10" height="10" patternUnits="userSpaceOnUse">    <rect width="10" height="10" fill="#986ba1"/>    <rect x="0" y="2" width="10" height="3" fill="#ffffff"/>    </pattern>
        <pattern id="vertical1_b9a087_ffffff" width="10" height="10" patternUnits="userSpaceOnUse">    <rect width="10" height="10" fill="#b9a087"/>    <rect x="2" y="0" width="1" height="10" fill="#ffffff"/>    </pattern>
        <pattern id="vertical3_4c91bf_ffff33" width="10" height="10" patternUnits="userSpaceOnUse">    <rect width="10" height="10" fill="#4c91bf"/>    <rect x="2" y="0" width="3" height="10" fill="#ffff33"/>    </pattern>
        <pattern id="checkers_cc3333_f7f7f7" width="8" height="8" patternUnits="userSpaceOnUse">    <rect width="8" height="8" fill="#cc3333"/>    </pattern>
        <pattern id="texture_d1dbdd_525252" width="4" height="4" patternUnits="userSpaceOnUse">    <rect width="4" height="4" fill="#d1dbdd"/>    </pattern>
        <style id="map-style">svg { background-color: #ffffff; }</style>
      </defs>
      <path id="WI01" d="m946.08 256.2.48.43.17.28.1.53-.01.4.21.51-.09.6.12.19-.03.19.1.34.46.8.13.34.82.8.68.42.26.23-.32.43-.1.65.18.6-.04.95-.19.38-.12.49-.15 1.3.07.9.16.38.2.24-.1.22.15.93v.22l.13.68.34.86-.32.03-.13.02-.7.1-.23.01-.57.07-.25.03-.32.03-.86.1h-.04l-.45.07-.78.09-.45.05-.85.1-.36.06h-.13l-.25.05-.39.06-.28.02-1.23.18h-.1l-.38.08-.9.12-.47.06-1.02.13-.2.02-.44.07h-.1l-.98.14-.28.05-.52.06-.43.05-.25.03-1.32.16-.36.06-.23.03-.56.06-1.12.15-.9.1-.51.1-.39.06-.78.11-1.21.2-.25.05-1.7.18-.32.01-.7.07-2.26.23-.16.01-.44.05h-.02l-.15.03-.23.03-.16.02h-.19l-.03.03-.32.03-.16-.14.03-.2-.17-.1.06-.36-.21-.55.21.08-.07-.57h.25l.13.2.24-.03-.01.3h-.1l.03.3.34.07-.11-.46.17-.3h.45l-.08-.67.22.09.1.8.17-.02v-.25h.15l.08.33.16-.13.69-.05-.2-.24-.45.05-.06-.4-.18-.4-.23-1.58-.33-.32-.39.06.04.22-.4.11.02.34.11.02-.3.3-.37-.13.08-.36-.2-.16-.22.03v-.38l-.13.03.06.36h-.23l-.03-.34.15-.02v-.2l.16-.17.06-.36-.26-.08.1-.25-.33.05.18-.25-.06-.36-.11.01-.06-.34h.12l-.08-.61-.18-.02-.04-.27-.56.06.07.46-.41.03v-.14l-.25-.12-.13-1.06 2.68-.36-.33-2.75 1.36-.11 1.34-.17 1.35-.1 1.47-.16 3.47-.44 1.78-.23 2.67-.32.31 2.7 2.63-.32.05-.21-.32-2.53 1.77-.22.71-.12 2.9-.4-.42-3.43.7-.1.17.1.14-.19.38.05.44-.1v.1l.38.07.18.22-.04.23.46-.06.21-.02.04.29.22-.03-.03-.29.9-.12.07.23-.03-1.16-.15.01-.12-.35.15-.06-.1-.25.32-.06.12-.2" fill="#d1dbdd" stroke="rgb(209, 219, 221)" stroke-width="0.1" data-originalStrokeWidth="0.1" style="stroke: rgb(0, 0, 0); fill: rgb(209, 219, 221); pointer-events: auto; stroke-width: 0.1;" pointer-events="auto"/>
      <path id="WI02" d="m907.49 276.46-.17.02-.42.03-.58.07-1.1.12-.54.06-.34.03-.3.05h-.2l-1.5.18-.8.1-1.21.14-.7.04-.52.05-.23.03-.3.01-.86.07-.55.07-.2.02-.54.06-.74.09-1.03.12-.95.11-.21.04-.46.04-.31.04-1.17.13-.58.07-.64.08h-.11l-.71.09v-.02l-.2-2.06-.35-3.2-.39-3.44-.23-1.96-.16-1.47-.23-1.85-.25-2.3-.37-3.14-.26-2.4.45-.03 1.27-.44.39-.03.57.02.42-.04.2.3.17.06.43-.15.4.2.6.45.58.22.04-.1-.3-2.56-.35-3.34-.07-.63-.33-2.9.57-.07v.24l.46-.06-.03-.23.23-.03-.05-.45.08-.2.22-.11-.03-.24.43-.23.08.51-.18.2.85-.1-.3-2.74-.24-2.27 5.08-.55 1.38-.16.27.3-.12.15.24.2-.04.17.3.27.23-.09.3.22.4-.1.13.14-.28.48.05.28.57.1.43-.04.34-.13.25-.02.4.12.62-.13.44.19.36 3.56.25 2-.34.38-.3.2-.53.24-.33-.03-.2.07-.33.62-.11.38-.33.37-.08.64.15.21 2.27-.27 3.15-.4 2.69-.31.05.4 1.31-.16 1.35-.2 2-.26.98-.11 1.46-.21.9-.16.18 1.37.22 1.83.21 2.28.24 1.75.1.99.65 5.53.33 2.75-2.68.36.13 1.06.24.12v.14l.42-.03-.07-.46.56-.06.04.27.18.02.08.6h-.12l.06.35h.11l.05.35-.17.25.34-.05-.11.25.26.08-.06.36-.16.17v.19l-.15.03.03.35.23-.01-.06-.36.14-.03-.01.38.22-.03.2.16-.08.36.36.14.31-.31-.11-.02-.02-.34.4-.1-.04-.23.4-.06.32.32.23 1.59.18.38.06.4.46-.04.19.24-.7.05-.15.13-.08-.34h-.14l-.01.26-.16.02-.1-.8-.23-.09.08.67-.44.01-.18.3.11.45-.34-.07-.04-.31.1.01.02-.3-.24.04-.13-.22-.25.01.07.57-.2-.08.2.55-.06.37.17.08-.03.2.16.15-.72.08v-.02l-1.23.15-.7.07-.95.09-.32.05-.28.04-.27.02h-.02l-.66.05-1.85.19-2.77.29-.45.04-.4.05-.3.01-1.32.12-1 .09" fill="#d1dbdd" stroke="rgb(209, 219, 221)" stroke-width="0.1" data-originalStrokeWidth="0.1" style="stroke: rgb(0, 0, 0); fill: rgb(209, 219, 221); pointer-events: auto; stroke-width: 0.1;" pointer-events="auto"/>
      <path id="WI03" d="m908.85 206.98.28 2.37.18 1.4 1.17 9.97-5.33.62-1.33.13-1.7.17.22 1.67.3 2.74.49 4.12.32 2.72.24 1.94.22 2.2.4 3.54-2.7.3-1.5.25-1.39.16-5.08.55.23 2.27.32 2.75-.85.09.17-.2-.08-.51-.43.23.03.24-.22.1-.08.2.05.47-.23.01.03.24-.46.06-.01-.24-.55.07.32 2.9.08.63.35 3.34.29 2.57-.03.1-.58-.23-.6-.44-.41-.21-.43.15-.16-.06-.2-.3-.44.04-.56-.02-.4.03-1.26.44-.45.02.26 2.4.37 3.15.25 2.3.22 1.85.16 1.47.24 1.96.38 3.44.35 3.2.2 2.06-1.1.12h-.1l-.57.07-.27.03-.44.03-.15.01-.08.02-.56.07-.47.03-.92.1-.21.03-.09-.02.02-.03.12-.2-.18-.44-.08-.3-.05-.1-.1-.1-.26-.33-.1-.31-.27-.25-.12-.08-.26-.37-.05-.22-.13-.35-.23-.37-.03-.11-.3-.33-.44-.14-.7-.1-.22-.05-.43-.03-.22-.04-.48-.06h-.19l-.15-.05-1-.14-.3-.06-.11-.03-.27-.1-.42-.2-.36.09-.37-.06-.2-.1-.33-.12-.28-.27-.1-.11-.29-.22-.24-.1-.15.04-.34-.3-.04-.14-.3-.1-.05.05-.2-.09-.02-.17-.25-.13.07-.35-.22-.22-.19-.73-.1-.33-.06-.19-.04-.41-.01-.16-.27-.01h-.02l-.1-.19.02-.5-.21-.4-.1-.6-.38-.32-.24-.12-.11-.03-.17-.07-.15-.03-.09-.32.03-.25-.19-.53.03-.52-.04-.2-.03-.1-.26-.44-.04-.35-.22-.6-.16-.33-.12-.43-.04-.08-.04-.16-.11-.57-.06-1.24-.04-.21-.11-.52.05-.32.32-.2.33-.56.04-.34.3-.7.07-.4.11-.08.13-.14.42-.54.49-.71.05-.2-.08-.33-.23-.02-.04-.33-.39-.6-.55-.65-.26-.15-.27-.2-.83-.28-.42-.21-.48-.05-.35-.52.16-.24.14-.7-.2-.77-.11-.14-.16-.19-.4-.4-.12-.47.06-.08.18-.3.07-.43-.07-.18-.03-.2-.03-.48-.14-.16-.18-.1-.36-.56-.03-.29.19-.51v-.41l-.21-.36-.23-.2-.26-.18-.26-.36-.04-.38.09-.46-.06-.18-.19-.22-.09-.4.05-.74V243l-.06-.44.03-.13.14-.32.05-.39-.03-.29.15-.96-.45-.52-.15-.37-.02-.14-.1-.1-.03-.05-.04-.16-.14-.55-.18-.31-.37-.26-.02-.03-.3-.3-.14-.42-.24-.3-.28-.14-.15-.16-.1-.22-.26-.18-.19-.31-.09-.32-.45-.46-.26-.18-.27-.1-.22-.36-.23-.2-.08-.18-.15-.24-.12-.1-.1-.04-.52-.19-.38.07-.34-.11-.3-.18h-.9l-.3-.08-.3-.01-.22-.01-.22-.1-.13-.1-.1-.19-.1-.11-.26-.19-.23-.07-.07-.03-.02-.03-.2-.18-.22.02-.3-.31-.22-.4-.36-.3h-.32l-.3-.18-.1-.48-.22-.24-.08-.06-.2-.04-.21-.03-.37-.04-.3-.18-.13-.13-.52-.16-.48-.27-.32-.41-.38-.17-.27-.2-.2-.13-.24-.1-.04-.07-.01-.1v-.12l-.37-.49-.1-.28.08-.36.02-.12-.23-.38-.11-.44-.17-.13-.39-.16-.08-.24.2-.42-.06-.32-.22-.4-.1-.1-.3-.15-.5-.56-.3-.2-.25-.02-.24-.09-.25-.18-.34-.07-.3-.13-.19-.09-.07-.09-.17-.13-.29-.18-.38.02-.2-.12-.57-.13-.32-.21-.33-.05-.51-.04-.18-.02-.56-.11-.47-.11-.14-.06-.4-.25-.18-.22-.52-.3-.36-.28-.42-.49-.11-.28-.04-.4-.26-.5-.21-.36-.2-.16-.27-.13-.64-.06-.28.04-.11.03-.13.01-.54-.04-.23.08-.27.22-.35-.22-.37-.13-.3-.06-.12.07-.12.02-.31-.08-.27-.15-.34.18-.17.12-.1-.01-.07-.05-.03-.04-.02-.07.02-.09-.02-.2-.36-.49-.21-.18h-.09l-.09.14-.11.02-.37-.32-.26.02-.2-.12v-.4l-.06-.33-.26-.3-.53-.23-.23-.15-.64-.65-.22-.18-.77-.65-.54-.24-.4-.23-.46-.2-.4-.36v-.28l.02-.25.08-.3.27-.4.08-.62.16-.4v-.22l.13-.3-.16-.76 1.84-.2 1.87-.14 5.05-.44 2.15-.07.94-.05 2.23-.2-.19-2.39-.36-3.51-.2-2.38-.45.03-.23-2.75 7.24-.63 1.76-.17 1.82-.17.25 2.74.34-.03.27 2.85 2.7-.3.27 2.72 2.4-.21.02-.36.33.08-.13-.45.2-.03.14.34.35-.03-.04-.35.18.29.05-.3.23-.02.24.15.02.32-.26.2.36.04.2.15.23-.53-.03-.21.22-.3.27.06.37.28.04.15.36.1.05-.22.23.04.09.24.23-.2.3-.02.15 1.03.17 1.85 2.7-.28-.3-2.74 2.25-.2 1.8-.21.59 5.43.47 4.65.08.85-2.7.26.14 1.6.33 2.94.08.93 2.7-.28-.06-.7.45-.03.01.26.14.06 1.23-.11.01-.34h-.16l-.06-.53-.2-.35.28-.02.04.54.37.12-.06.32.44.07.03.22-.66.13.5.64.46-.08-.06-.49 3.3-.32 2.14-.24.12 1.14.46 4.32.11-.02.43 4.04.48 4.22.38-.06-.1-.2.43.04.03-.11.28-.1-.46-.11.08-.32.24-.06-.14-.11.08-.3.46.01.05.33.37.38.81.3 2.88-.14 2.72-.3.29 2.55.45.1.49.24.08-.27.2-.02.1-.32.37-.65.66-.08.13.08.33-.22.62-.22.26.72.16.03.88-.1-.1-.3.23-.2.4-.09.06-.14-.18-.42-.02-.48-.2-.24-.04-.5-.2-.36-.14-.13-.74-.3.09-.5-.13-.23-.33-.33-.15-.66-.13-.12v-.33l-.12-.38.18-.31.28-.1-.17-.33.04-.25.33-.21.16.12.19-.03v-.17l-.19-.1.19-.07.04-.48-.06-.59.37.07.28-.03.24.38.22-.07v-.47l-.14-.24.09-.14.32.04.13-.27-.1-.21-.45.08.07-.26.31-.13-.12-.18-.25-.02-.1-.13.09-.16.25-.1-.04-.25.24-.08-.17-.33-.03-.26-2.53.3-1.45.16-.14-1.36-.23-2.28-.2-1.86 2.58-.26-.16-1.5-.36-.06.06-.2-.11-.26.32-.05-.29-2.5-.4-3.63 4.76-.53 5.77-.72 3.22-.24 2.72-.33" fill="#d1dbdd" stroke="rgb(209, 219, 221)" stroke-width="0.1" data-originalStrokeWidth="0.1" style="stroke: rgb(0, 0, 0); fill: rgb(209, 219, 221); pointer-events: auto; stroke-width: 0.1;" pointer-events="auto"/>
      <path id="WI04" d="m946.08 256.2-.12.2-.31.05.1.25-.16.06.12.35.15-.01.03 1.16-.07-.23-.9.11.03.3-.22.03-.04-.3-.2.03-.04-.23-.34.05v-.19l.32-.04-.12-.95-.23-.06-.28.08.02-.34-.26.2.15.2-.04.2-.23.06-.14-.2-.1.13-.37.05-.02-.11-.52.07-.06-.45.23-.04-.03-.22-.18.03-.04-.24.25-.18-.25-.5-.3-.04-.04-.13-.5.07-.35-2.99-.22-2.09 1.78-.26 2.1-.26.34.64-.32 1.22.12.38.16.21.45.42.4.86-.35.59-.11.36-.13.02v.55l.23.56.36.4.25.16" fill="#d1dbdd" stroke="rgb(209, 219, 221)" stroke-width="0.1" data-originalStrokeWidth="0.1" style="stroke: rgb(0, 0, 0); fill: rgb(209, 219, 221); pointer-events: auto; stroke-width: 0.1;" pointer-events="auto"/>
      <path id="WI05" d="m920.6 263.94-.65-5.53-.1-.99-.24-1.75-.2-2.28-.23-1.83-.18-1.37-.1-.79-.24-1.93.1-.03-.37-2.72 2.65-.34.34-.4.05-.2-.04-.47.33.31-.05.23.1.89.24.1-.08.2-.24.04.02.16.18-.01.12-.3.37.03.3-.3.02-.48.25-.03-.03-.2-.23.02.09-.15-.05-.35.23-.01-.03-.23-.23-.07.06-.38.9-.11.19 1.37 2.98-.37.18-.1.25.05 2.58-.29 1.1-.14-.22-1.82h.13l-.06-.34-.32.14.02.35-.31.38-.3.05.09-.27-.14-.13-.09-.74-.27.28-.42.04-.06-.46 1.8-.22-.06-.23.2-.02.08-.23.47.4 2.94-.38 2.71-.35 2.72-.35.5 3.9.24 1.59-.5.06.46 3.69.25 1.82.22 2.09.36 2.98.49-.07.04.13.29.04.26.5-.25.18.03.24.18-.03.04.22-.23.04.06.45.52-.07.02.11.36-.05.11-.14.14.2.23-.05.04-.2-.15-.2.26-.21-.01.35.27-.08.23.06.12.95-.32.05v.18l.34-.05.03.23-.46.06.04-.23-.18-.22-.38-.07v-.1l-.44.1-.38-.05-.14.2-.17-.12-.7.1.43 3.44-2.9.4-.72.12-1.76.22.3 2.53-.04.21-2.63.32-.31-2.71-2.67.32-1.78.24-3.47.44-1.47.16-1.35.1-1.34.16-1.36.12" fill="#d1dbdd" stroke="rgb(209, 219, 221)" stroke-width="0.1" data-originalStrokeWidth="0.1" style="stroke: rgb(0, 0, 0); fill: rgb(209, 219, 221); pointer-events: auto; stroke-width: 0.1;" pointer-events="auto"/>
      <path id="WI06" d="m944.68 249.82-2.1.26-1.78.27-.25-1.82-.47-3.7.51-.05-.25-1.58-.5-3.91-2.7.35-2.72.35-2.93.37-.5-.38-.08.22-.18.02.05.23-1.79.22.06.46.43-.04.27-.28.08.74.14.13-.09.27.29-.05.32-.38-.02-.35.32-.14.06.34h-.13l.23 1.82-1.11.14-2.58.3-.25-.06-.18.1-2.98.37-.19-1.37-.9.1-.06.4.23.06.03.23h-.23l.05.36-.1.15.24-.02.03.2-.25.04-.01.47-.31.3-.37-.03-.12.3h-.18l-.02-.15.24-.06.08-.18-.23-.1-.1-.89.04-.23-.33-.31.04.46-.05.21-.34.4-2.65.34.37 2.72-.1.03.23 1.93.1.8-.89.15-1.46.2-.98.12-1.99.26-1.36.2-1.31.15-.05-.4-2.7.33-3.14.4-2.27.26-.15-.21.08-.64.33-.38.11-.38.33-.61.2-.07.33.03.53-.24.3-.2.34-.38-.24-2-.37-3.56-.44-.19-.62.13-.4-.12-.25.02-.34.13-.43.04-.57-.09-.05-.3.28-.47-.13-.14-.4.1-.3-.22-.22.1-.31-.28.04-.18-.24-.2.12-.13-.27-.31 1.52-.25 2.7-.3-.4-3.54-.23-2.2-.23-1.94-.33-2.72-.5-4.12-.3-2.74-.2-1.67 1.68-.17 1.33-.13 5.34-.63 1.59-.17 6.77-.84 1.21-.17.22.1.01-.13.44-.05.31 2.31.33-.05.16-.57.33-.07.06.33.43-.06.03.23.88-.1.07.46.7-.1-.07-.46.66-.1-.12-.9.9-.13-.19-1.38 3.6-.47.57 4.55.44 3.05.64-.07 3.21-.4 1.79-.25.1.67 2.43-.33-.88-6.35-.25-1.85 2.11-.27 1.37-.18-.38-2.72 2.75-.37 4.94-.7-.04.2.1.47.13.4.57.98.43.92.1.56-.03.59-.1.43-.38.7-.44.55-.79.51-.4.38-.5.61-.07.3.07.22-.09.21.1.46v.49l-.26.5-.2.58-.15 1 .04.75-.34.93-.03 1.13-.11.73.03.22.26.62.07.67.16.66.62 1.1.27.28-.14.16.12.16-.17.34.1.64.12.3.14.77-.04.27-.45 1.36-.46 1.1-.36.94-.13.52.08 1.22.12.76.07.25-.14.58v.35l-.42.98-.52 1-.16.4.07.25-.18.19-.1.91.05 1v.41l-.2.8-.08 1.07.1.45.4.65.07.52.13.15" fill="#d1dbdd" stroke="rgb(209, 219, 221)" stroke-width="0.1" data-originalStrokeWidth="0.1" style="stroke: rgb(0, 0, 0); fill: rgb(209, 219, 221); pointer-events: auto; stroke-width: 0.1;" pointer-events="auto"/>
      <path id="WI07" d="m875.93 151.06.1.29.58.67.12-.03.18-.1.1-.1.5-.13.04-.25.12-.04.15-.1.15.2.13-.04.24.3v.12l-.06.5.36-.05.08-.14.25.06.15-.2.12.16-.07.03.09.3.03.09.24.06.5-.2.15-.05v.22l.25-.06h.03l.34.53.03.16.15.13.23.18-.04.08.06.2.19.04.05.13.02.07.07.32h.11l.12.04.08.16.05.16.07.06.04.34.03.1.5.76.14.18.02.22.38.36.08.27-.14.16.1.21v.07l.27.04 1.97.32 2.02.32.25.06h.14l.16.01.04.02v.02h.13l.21.04.3.04.1.02.3.06 1.4.21h.09l.91.15.16.03.18.03.67.1.42.06.52.07.66.12.57.08.54.07 1.13.19.75.12.82.12.43.08.45.07.57.09.5.07 1 .14 1.1.18.73.1.77.12.23.04.27.03.61.1.46.08.47.07.51.07.23.04.3.12.36.16 1.48.63.23.1.63.26.47.2.49.21.62.27 1.04.44.07.07.03.06.07.03.02.06.05.02.05.06.02-.02h.07l.03.02h.04l.07.02h.04l.07.04h.11l.03.05.04.01.03.04v.07h.05l.04-.05.03-.02.1.02.05-.07.06-.02h.08v-.04l-.01-.06-.1-.1.05-.08.23.08.19-.1-.09.23.07.26.26-.12-.05-.2.24.14.43-.3.14.05.06-.05.22.12v.16l.21.1.15-.16.14-.03.05.05.1.01h.12l.18.03.2.24.03.2.2.2-.15.08v.03l.17.02.15-.08.38.08.1-.1.39-.04.01-.53.15-.4.14-.04.24.35.14-.07.04-.02.07-.1.09-.14.12-.07.56-.03.1-.2h.27l.27-.03.23.45.03.12.17.17.2.07.23-.11-.02-.16.2-.1.23.08.17.22.13-.05.35.17.05.03.2.22.14-.15.45-.16.14-.32.21.17.1.02.19.06.76.48.02.16-.02.07.17-.24.67.3.3-.18.18-.04.28-.26.2-.03.03.28.22.16.4-.02.18-.03.37-.21.08.02.08.08.11-.01.06.03.07.07.07.11.06.04.1.02h.04l.04-.02-.03-.05h.05l.12.07.07.01.1-.03.06.02v.1l.07.02.41.22.1.08.19-.05.24-.01.16.13-.18.52.1.18.03.07.06.28.02.04.05.03.05.02h.08l.12-.05h.09l.06.01.12.1.07.03h.06l.01.06-.06.21v.04l-.06.05-.07-.03h-.05l-.06.14v.08l-.01.05-.06.09-.16.17-.04.08-.03.1-.03.05-.06.07-.09.07-.08.12-.09.1-.02.07-.19.23-.04.1.2.37.44.11.15.28.1.1.16.15.24-.04.28.14.25-.07h.02l.26 2.12-2.02.16-.6.02-4.09.42-1.31.16.4 3.15.64 4.93.28 2.71-3.17.4-2.31.24.1.97.55 4.48.92-.12.25 2.41.02.34-5.14.64-2.37.3.36 2.78-2.82.32-2.53.32.35 2.92.07.57.32 2.65.12 1.1.28 2.3.19 1.35-2.72.34-3.22.24-5.77.72-4.75.52.4 3.63.28 2.51-.32.05.1.26-.05.2.35.07.16 1.49-2.57.26.2 1.85.23 2.28.14 1.37 1.45-.15 2.53-.32.03.27.17.33-.24.08.04.25-.25.1-.1.16.11.13.25.03.12.17-.3.13-.08.26.44-.08.11.21-.13.27-.32-.04-.08.14.12.24v.47l-.2.07-.24-.38-.3.03-.36-.07.06.6-.04.47-.19.07.2.1v.17l-.2.03-.16-.11-.33.2-.04.25.16.33-.28.1-.16.3.1.4v.32l.15.13.14.65.33.33.13.22-.1.5.75.31.15.13.19.37.05.5.2.23.01.48.18.42-.06.14-.4.1-.23.2.1.3-.88.09-.16-.03-.26-.73-.62.22-.33.23-.12-.08-.67.08-.37.65-.1.32-.19.02-.09.27-.49-.24-.45-.1-.29-2.55-2.72.3-2.88.14-.81-.3-.37-.38-.05-.33h-.46l-.08.3.14.1-.23.06-.08.31.46.12-.29.1-.03.11-.43-.04.1.2-.38.06-.48-4.22-.43-4.04-.1.02-.47-4.32-.12-1.13-2.14.23-3.3.32.06.5-.46.07-.5-.64.66-.13-.03-.22-.44-.07.06-.32-.37-.12-.03-.54-.3.02.2.35.07.53h.16v.34l-1.24.1-.14-.05v-.26l-.46.03.06.7-2.7.28-.08-.92-.33-2.95-.15-1.6 2.71-.26-.08-.86-.47-4.65-.59-5.42-1.8.2-2.24.2.29 2.75-2.7.28-.16-1.85-.15-1.04-.31.04-.23.19-.09-.24-.23-.04-.05.21-.36-.1-.04-.14-.37-.28-.27-.05-.22.29.03.2-.24.54-.19-.15-.36-.05.26-.19-.02-.32-.24-.15-.23.02-.05.3-.18-.28.04.34-.35.03-.14-.34-.2.03.13.45-.33-.08-.02.35-2.4.21-.27-2.7-2.7.3-.27-2.86-.34.03-.25-2.74-1.82.17-1.76.17-7.25.63.23 2.75.47-.04.2 2.39.35 3.51.19 2.38-2.23.21-.94.05-2.15.08-5.05.43-1.87.16-1.84.17.1-.35-.27-.51-.02-.37.28-.23.05-.1.07-.84v-.13l-.2-.57-.24-.24-.07-.18-.03-.19v-.29l-.06-.14-.02-.23.16-.67-.01-.08-.22-.27-.34-.25-.07-.03-.34-.4-.05-.26.12-.23.12-.27.22-.18.72-.78.1-.26-.17-.28-.05-.13-.06-.25-.07-.1v-.03l.01-.1.05-.1-.04-.17-.03-.16.01-.12-.02-.05-.05-.05v-.24l-.05-.03-.28-.22-.07-.36.04-.35.19-.26.01-.03.04-.15-.16-.37-.12-.59.09-.25.06-.22v-.06l-.03-.09-.06-.13-.06-.04-.05-.08-.09-.34.3-.25.05-.03.2-.2.16-.25.36-.42.15-.32.04-.08-.01-.26-.14-.36.14-.32.37-.35.12-.4.04-.1.22-.25.18-.08.03-.5-.09-.3.03-.1v-.34l-.12-.4-.13-.2-.55-.17-.27-.33-.26-.49-.3-.4-.33-.27-.06-.34.02-.2.02-.23-.14-.15-.35-.25-.1-.04-.18-.09-.37-.3-.38.07-.47.21-.24.05-.47-.13h-.62l-.27-.23-.02-.45-.1-.27.02-.19.04-.2-.18-.54-.05-.44.03-.05.13-.68.02-.75.07-.91.11-.15.25-.07.05-.16.42-.2.32-.32.13-.12.36-.53.09-.07.04-.58.06-.23.09-.2.2-.2.07-.32-.04-.06-.01-.07-.04-.02-.03-.05-.02-.1-.08-.18.01-.1.11-.16.11-.1.06-.08.22-.2.04-.28.03-.13-.07-.06.18-.46.04-.05.02-.08.05-.09.02-.03.04-.06.05-.1.1-.13.12-.14.06-.01h.05l.05-.03.09-.1.1-.04.04-.07.15-.1.07-.23.2-.2.14-.16.44-.1-.05-.29.1-.03.17.05.33-.1.09-.1.4-.16.18-.16.54-.19.09-.05-.02-.5.4-.47.18-.08.43.1.23.1.43.05.24-.24-.1-.14.05-.1.1-.08.09-.1-.02-.1.03-.13.04-.07.04-.11.05-.1v-.1l.24-.36.33-.17.41.13.25.1.32.08h.33l.15-.2.1-.25v-.5l.12-.53.3-.33.57-.21-.05-.32v-.22l-.08-.97-.06-.67-.06-.71-.01-.27-.32-3.4-.03-.65-.06-.63-.15-1.57-.27-3.24-.05-.57-.01-.24-.18-1.89-.08-.97v-.11l-.1-1.1-.07-.64-.03-.34.12.04.03.11.05.05h.11l.1.02.05.15.15.04.12-.2.1-.06.3.27.27-.15.13.01.14.06.22-.07.09-.16v-.08l-.1-.16.34-.48.2-.17.02-.22-.16-.14-.48-.04.03-.24.1-.08.08-.12.03-.15.04-.05.32-.02.09-.05.48.07.04-.03.02-.1.05-.2-.06-.3.1-.15.44-.34.18-.03h.16l.25-.03 1.3 1.14.32.13.1-.08h.16l.46.36.58.27.44.04.34-.1.84-.3.63-.15.38.05.43-.06.64-.21.83-.52 1.1-.55 1.07-.46 1.1-.73.37-.14h.81l.55-.13.38-.32.47-.12.66-.3.3-.2.27-.4.39.06.5-.16.57-.8.74-.49.28-.1.29-.02.39-.17.45-.79.24-.18.38-.21.3-.5.14-.01-.08.27-.2.14-.17.48.34.3.27.11.23-.05.03-.33.31-.1.08-.41.23-.03-.03.3.3.11.37-.08.18-.14v-.58l.28-.14.28.14.32-.13.25-.28.08-.44.3-.3.5-.23.2-.28.19-.52.17-.1.78.29.35-.07.08-.25.56-.4.03-.2.32-.17.57.1.22.25.01.4.34.13.18-.24.31.1.23.38.1.35.27.01.32.28.11.31-.4.21.03.19-.18.57-.14.2.1.31-.15.26-.08.4-.25.33-.03.16-.24.16-.16.47-.45.07-.12.28.1.18-.1.32-.39.3.06.3.37.69.46.7v.2l-.28.44-.2.15-.18.3-.25.04-.24.15-.08.23.04.33-.07.53-.3.69-.22.18.14.42.6.14.25-.14.62-.55.28-.09.8-.58.58-.23.5-.4.43-.55.2-.13-.2-.26-.35.12.37-.3.7.05v-.19l-.2-.11-.68-.58-.44-.31-.25-.35-.26-.17-.47-.06.02-.06.5.02.2.13.36.4.59.52 1 .77 1.59 1.12.97.64.66.36.45.1.26-.2.4-.11.74.4.84.3.4-.18m-7.49-6.72v-.2l.3-.35.75-.5.36-.35.27-.34.16-.36.35-.34.29.02.39.42.42.3-.3.26-.63.13-.6.37-.64.34-.04.23.2.38.31-.01v.31l-.94.31-.32-.06-.17.14-.26.46-.66.54-.36.03-.04-.18.12-.3-.24-.4.09-.22.4-.15.3-.23.42-.11.07-.14m-.03-1.88-.2.54-.22.33-.32.25-.07-.05.06-.56.14-.4.26-.36.2.01.15.24m5.49-1.3-.19.18-.04.21-.4.21-.52-.14.4-.36.23-.08.73-.42.04.17-.25.23m-4.76.73-.26.01-.16-.2.51-.34.24.12-.1.26-.23.15m2.79-3 .38-.1.38.26-.23.41-.07.4-.32.02-.13.3.11.3.14.06-.3.17.05-.18-.3-.24-.32.06-.18.19-.2.04-.15-.14-.2.02-.06.24-.5.24-.38-.36.3-.74.4-.14.35-.27.5-.25.39-.08.34-.2m-3.6.8.41.42.18.6-.08.05-.92.18-.49-.7-.24-.27.46-.6.16.12h.4l.11.2m1.48-.6-.61.6-.17-.23.17-.34.27-.34.25-.16.19.02.01.29-.11.16m-3.56.23.14-.32.19-.05.02.35-.35.02m2.63-1-.3.35-.26.03-.1-.22.15-.48.09-.11h.36l.26.2-.2.22m1.34-.02-.24-.37.18-.2h.25l.1.36-.29.21m-2.87-.86.2.38-.16.5-.45-.06-.26-.67.37-.36.3.21m4.34-.16v.38l-.23.3h-.1l-.14-.4-.1-.53-.14-.2.22-.23v.3l.49.38m-2.2-.03-.17-.26.18-.23.15.07.01.32-.18.1m4.1-1.68.24-.3.42-.16.16.09.3-.13.09.58-.18.7.1.35-.18.4-.15.04-.2.36-.37.1-.36.21v-.26l.13-.34.02-.36-.1-.48v-.43l.08-.37m-4.27.79v.15l-.38.3-.13.56v.17l-.3-.08-.02-.47.04-.2.5-.17.28-.26m1.25-.48.05-.33.1.2-.1.33-.05-.2m-3.05-.13.24.19v.31l-.2-.06-.04-.44m-3.84 3.29-.22.2.14.47-.02.13-.45.01-.28.1-.13-.25-.2-.02-.1-.44.55-.22.14.02.24-.22-.02-.22.15.03.21.41m1.24.1-.12-.18h.43l-.08.3-.22-.13" fill="#d1dbdd" stroke="rgb(209, 219, 221)" stroke-width="0.1" data-originalStrokeWidth="0.1" style="stroke: rgb(0, 0, 0); fill: rgb(209, 219, 221); pointer-events: auto; stroke-width: 0.1;" pointer-events="auto"/>
      <path id="WI08" d="m947.64 213.17-4.95.7-2.74.37.38 2.72-1.37.18-2.1.27.24 1.86.88 6.34-2.43.33-.1-.66-1.79.24-3.21.4-.65.07-.44-3.05-.56-4.55-3.6.46.18 1.39-.9.13.14.9-.67.1.07.45-.7.1-.07-.45-.88.1-.03-.23-.43.06-.06-.33-.33.07-.16.58-.33.04-.3-2.31-.45.05-.01.13-.22-.1-1.2.17-6.78.84-1.6.17-1.15-9.96-.2-1.4-.27-2.36-.18-1.36-.29-2.3-.11-1.1-.33-2.63-.07-.57-.35-2.93 2.53-.32 2.82-.33-.35-2.78 2.36-.29 5.15-.64-.03-.34-.25-2.4-.92.1-.56-4.47-.1-.97 2.32-.25 3.17-.39-.28-2.7-.65-4.93-.4-3.16 1.32-.16 4.1-.42.59-.03 2.02-.15-.26-2.12h.02l.14-.03.05-.06h.05l.03-.05h.06l.02-.06-.02-.03.02-.04v-.05l.06-.02h.07l.22-.06.16-.1.09.01h.06l.07-.04.07-.05.17-.08.1.02.04.04.22.56-.18.1.1.08.27.05.17.06.1.18.38-.01.16-.07.45-.11h.06l.03.05.07.03h.02l.04-.1h.07l.08.08.04.09.1.01.08-.05.05-.02h.08l.08-.04h.15l.03.09.02.02.14.02.05.08.09.03.02.04-.06.04.02.03v.15l.15.19.07.09.03.03h.09l.03.04.26.18.04.01.14.05h.11l.06.05h.19l.07.01.05.04.1.04.03.06.01.08-.02.06-.05.05v.02l.08.05.02.06.1.06.09.04.23.12.18.19.02.1-.04.14-.33.14-.13.16-.4.16.08.44.34.25.3.37.05.05.02.06.02.1.1.04.13.03.21.17-.02.05.05.1.02.03.05.03-.02.06.02.37-.18.25.04.5-.19.14-.72-.12-.04.14v.16l.34.2.31.27.1.14.02.4.18.53.16.04-.06.67-.13.19.03.2-.11.24-.11.1-.27.34-.05.08-.03.02-.12.05-.05.04v.05l-.04.08-.16.12-.01.02-.02.09v.05l-.07.07-.02.04.08.3.04.06.06.04.03.12.14.13.06.23-.03.06-.09.06-.07.07v.1l.05.04.02.05-.04.13-.02.05-.07.07-.13.08-.06.07-.03.1.02.05.09.1.01.02v.04l-.05.03-.06.07-.02.07-.04.05-.04.02-.06.11-.03.1.2.2.2-.2-.16-.24.1-.07.2.4.33.14.08.21.2-.18.04-.2.28-.07h.25l.43-.14.2.1.19-.07.1-.02.34.01.03-.18.25-.08.35-.72.35-.35.16-.1h.18l.27.18.05.15.37.17.07.24.06.19.04.05h.05l.13.4-.26.51.03.16-.46.8-.02.12-.05.2-.08.17.02.43-.14.14-.01.12-.06.08.06.33-.02.11-.24.5.1.12-.09.25.06.3-.2.19-.06.09-.03.16.24.62.44.41.17.04.06.06.63.38.19.24-.05.11.3.37.18.28h.66l.11.06.12.02.15.04.53.1.48.7-.35-.13-.2-.22-.24.31-.22.98.16.97.03 1.2-.5.15-.03.08-.36-.05-.54.1-1.53.49-.95.48-.15.1-.2.51-.15.18-.05.42.16.4.3.3-.05.45-.08.23-.21.15-.27.98-.26.08-.47.44-.23 1.21-.3 1.03-.28.22-.32.48-.1.4-.14.26.03.57-.02.5.11.37.32.62-.12.07-.31-.64-.18.3.03.58-.09.3.21.57.54.51.12.42-.15-.3-.6-.54-.1.06.06.37-.05.34.07.19-.19.27-.24.06-.14.26.07.23.25.05.57.49.36.1.16-.13.14.2.23.08.61-.06.3-.25.2-.42.31-.86-.14-.13-.2.06.51-.53.12-.37.22-.12.08-.31.16-.15.34-.02.64-.66.74-.18.19-.1.28-.5v-.35l.34-.53.2-.54-.17-.64v-.18l.26-.32v-.15l.34-.8.43-.62v-.3l.3-.35.14-.5.21-.34.27-.5.35-.22.28-.36.65-.02.01.12-.2.13-.07.46.17.14.34-.29v-.34l.18-.3.35-.01.2-.2-.43-.38.13-.1.4.2-.02.19.33.08.12-.3.4-.57.5-.48.32.17h-.39l-.02.2.24-.06.6.63.25.53.21.31.16-.12-.19-.45.08-.14-.16-.63v-.36l-.27-.39-.3-.15-.01-.23.17-.31-.08-.14.38-1.04.2-1.02.25-.54.01-.28.23-.14.13-.73.25-.25v-.2l.19-.12.15.22.19-.04-.08-.52.04-.39.23-.09.12-.3-.07-.86.13-.58.18-.06-.1-.54.04-.53.11-.24.2-.09.08.28h.56l.23.36.33-.06-.17-.66.14-.35.4-.14.02-.2.57-.06-.05-.44-.14-.54.05-.6.12-.24-.03-.26.19-.12.52.16-.07-.42.08-.21.03-.77.15-.1.23.37.64-.13v-.33l.4.02.08-.11.34.05.36.47-.25.5.11.47.24.05-.24.3v.16l.19.15-.01.3-.52.2-.18-.38-.32-.15-.22.12.14.51-.19.1.11.37-.05.8.08.48.42.32-.2.37-.23.03-.18-.35-.34-.11-.17.37.18.4.41.07.17.24.1.32-.05.15.15.21v.2l-.2.04-.08.27-.6-.42-.13.1-.01.34.25.05.13.16.1.5-.38.1-.07-.32-.28-.1-.28.2.06.76-.18.96-.49.31-.19.63-.12.2-.11.39.12.64.4.34-.01.25-.25.11-.36.31-.21.36.01.28.3.35.08.31-.4.28-.23.3-.5.37-.18.3-.13.9-.46.38.01.17-.23.38-.04.23.1.3-.25.73-.06.97-.16.58-.33.83-.05.4-.22.8-.21.48-.25.23-.05.2-.32.36-.18 1.05-.26.7-.03.65-.13.66.05.38-.05.71-.13.68.05.66-.13.7-.05.63.1.6-.04.26-.22.55.04.3-.14.47m-2.09-23.01.08.1-.36-.1h.28m4.71-4.4-.16.14.09.5h-.12l-.1-.28.05-.25.18-.22.06.11m-1.95-.86.14.16.03 1.15.29.37-1.18-.47.01-.4-.09-.26.22-.17.27.12.32-.5m8.16-4.23.05.23-.29-.1-.07-.31.3.17m-.04-3.2v.32l.13.03.16-.37.45-.09.31-.21h.37l.2.19.49-.25-.1-.47.32-.06.16.1.13.29-.02.22-.34.05-.28.67-.1.53-.29.22.04.28-.08.22.1.42-.18.17-.38-.17-.17.1-.14.44.04.19.2.12.14.47-.16.01-.12-.42-.27-.17-.26-.37-.48-.1-.2-.18-.04-.52.14.06-.02-.33-.25-.52.11-1.03.1-.18.16.08.13.26" fill="#d1dbdd" stroke="rgb(209, 219, 221)" stroke-width="0.1" data-originalStrokeWidth="0.1" style="stroke: rgb(0, 0, 0); fill: rgb(209, 219, 221); pointer-events: auto; stroke-width: 0.1;" pointer-events="auto"/>
      <g id="state_lines" stroke="rgb(209, 219, 221)" style="display: none; stroke: rgb(0, 0, 0);" stroke-width="0.1"/>
      <g id="state_abbr" fill="#000000" style="display: none; fill: rgb(0, 0, 0);">
        <text id="HI_label" x="491.79" y="769.82" style="font-size: 19.2455px; stroke-width: 1.60379; display: none;">
          <tspan id="HI_tspan" x="491.79" y="769.82" fill="#000000" dy="0" font-family="Arial" font-size="24.06" font-style="normal" font-weight="400" style="text-align: center; stroke-width: 2.57215; fill: rgb(0, 0, 0);" text-anchor="middle">HI</tspan>
        </text>
        <text id="AK_label" x="205.24" y="672.25" style="font-size: 19.2455px; stroke-width: 1.60379; display: none;">
          <tspan id="AK_tspan" x="205.24" y="672.25" fill="#000000" dy="0" font-family="Arial" font-size="24.06" font-style="normal" font-weight="400" style="text-align: center; stroke-width: 2.57215; fill: rgb(0, 0, 0);" text-anchor="middle">AK</tspan>
        </text>
        <text id="FL_label" x="1188.11" y="708.7" style="font-size: 19.2455px; stroke-width: 1.60379; display: none;">
          <tspan id="FL_tspan" x="1188.11" y="708.7" fill="#000000" dy="0" font-family="Arial" font-size="24.06" font-style="normal" font-weight="400" style="text-align: center; stroke-width: 2.57215; fill: rgb(0, 0, 0);" text-anchor="middle">FL</tspan>
        </text>
        <text id="NH_label" x="1306.05" y="167.79" stroke-width="1.1" font-size="13.25" style="display: none;">
          <tspan id="NH_tspan" x="1306.05" y="167.79" fill="#000000" stroke-width="1.1" dy="0" font-family="Arial" font-size="16.56" font-style="normal" font-weight="400" style="text-align: center; fill: rgb(0, 0, 0);" text-anchor="middle">NH</tspan>
        </text>
        <text id="MI_label" x="1019.65" y="246.58" style="font-size: 19.2455px; stroke-width: 1.60379; display: none;">
          <tspan id="MI_tspan" x="1019.65" y="246.58" fill="#000000" dy="0" font-family="Arial" font-size="24.06" font-style="normal" font-weight="400" style="text-align: center; stroke-width: 2.57215; fill: rgb(0, 0, 0);" text-anchor="middle">MI</tspan>
        </text>
        <text id="VT_label" x="1274.28" y="145.01" stroke-width="1.05" font-size="12.65" style="display: none;">
          <tspan id="VT_tspan" x="1274.28" y="145.01" fill="#000000" stroke-width="1.05" dy="0" font-family="Arial" font-size="15.81" font-style="normal" font-weight="400" style="text-align: center; fill: rgb(0, 0, 0);" text-anchor="middle">VT</tspan>
        </text>
        <text id="ME_label" x="1338.99" y="105.14" stroke-width="1.45" font-size="17.36" style="display: none;">
          <tspan id="ME_tspan" x="1338.99" y="105.14" fill="#000000" stroke-width="1.45" dy="0" font-family="Arial" font-size="21.7" font-style="normal" font-weight="400" style="text-align: center; fill: rgb(0, 0, 0);" text-anchor="middle">ME</tspan>
        </text>
        <text id="RI_label" x="1361.38" y="262.84" stroke-width="1.25" font-size="14.98" style="display: none;">
          <tspan id="RI_tspan" x="1361.38" y="262.84" fill="#000000" stroke-width="1.25" dy="0" font-family="Arial" font-size="18.72" font-style="normal" font-weight="400" style="text-align: center; fill: rgb(0, 0, 0);" text-anchor="middle">RI</tspan>
        </text>
        <text id="NY_label" x="1227.27" y="204.12" style="font-size: 19.2455px; stroke-width: 1.60379; display: none;">
          <tspan id="NY_tspan" x="1227.27" y="204.12" fill="#000000" dy="0" font-family="Arial" font-size="24.06" font-style="normal" font-weight="400" style="text-align: center; stroke-width: 2.57215; fill: rgb(0, 0, 0);" text-anchor="middle">NY</tspan>
        </text>
        <text id="PA_label" x="1187.28" y="284.69" style="font-size: 19.2455px; stroke-width: 1.60379; display: none;">
          <tspan id="PA_tspan" x="1187.28" y="284.69" fill="#000000" dy="0" font-family="Arial" font-size="24.06" font-style="normal" font-weight="400" style="text-align: center; stroke-width: 2.57215; fill: rgb(0, 0, 0);" text-anchor="middle">PA</tspan>
        </text>
        <text id="NJ_label" x="1330.57" y="290.09" stroke-width="1.28" font-size="15.4" style="display: none;">
          <tspan id="NJ_tspan" x="1330.57" y="290.09" fill="#000000" stroke-width="1.28" dy="0" font-family="Arial" font-size="19.25" font-style="normal" font-weight="400" style="text-align: center; fill: rgb(0, 0, 0);" text-anchor="middle">NJ</tspan>
        </text>
        <text id="DE_label" x="1320.8" y="328.42" stroke-width="1.36" font-size="16.38" style="display: none;">
          <tspan id="DE_tspan" x="1320.8" y="328.42" fill="#000000" stroke-width="1.36" dy="0" font-family="Arial" font-size="20.47" font-style="normal" font-weight="400" style="text-align: center; fill: rgb(0, 0, 0);" text-anchor="middle">DE</tspan>
        </text>
        <text id="MD_label" x="1310.72" y="368.46" stroke-width="1.34" font-size="16.11" style="display: none;">
          <tspan id="MD_tspan" x="1310.72" y="368.46" fill="#000000" stroke-width="1.34" dy="0" font-family="Arial" font-size="20.13" font-style="normal" font-weight="400" style="text-align: center; fill: rgb(0, 0, 0);" text-anchor="middle">MD</tspan>
        </text>
        <text id="VA_label" x="1198.59" y="392.33" style="font-size: 19.2455px; stroke-width: 1.60379; display: none;">
          <tspan id="VA_tspan" x="1198.59" y="392.33" fill="#000000" dy="0" font-family="Arial" font-size="24.06" font-style="normal" font-weight="400" style="text-align: center; stroke-width: 2.57215; fill: rgb(0, 0, 0);" text-anchor="middle">VA</tspan>
        </text>
        <text id="WV_label" x="1129.66" y="382.3" style="font-size: 19.2455px; stroke-width: 1.60379; display: none;">
          <tspan id="WV_tspan" x="1129.66" y="382.3" fill="#000000" dy="0" font-family="Arial" font-size="24.06" font-style="normal" font-weight="400" style="text-align: center; stroke-width: 2.57215; fill: rgb(0, 0, 0);" text-anchor="middle">WV</tspan>
        </text>
        <text id="OH_label" x="1079.05" y="334.46" style="font-size: 19.2455px; stroke-width: 1.60379; display: none;">
          <tspan id="OH_tspan" x="1079.05" y="334.46" fill="#000000" dy="0" font-family="Arial" font-size="24.06" font-style="normal" font-weight="400" style="text-align: center; stroke-width: 2.57215; fill: rgb(0, 0, 0);" text-anchor="middle">OH</tspan>
        </text>
        <text id="IN_label" x="998.79" y="352.94" style="font-size: 19.2455px; stroke-width: 1.60379; display: none;">
          <tspan id="IN_tspan" x="998.79" y="352.94" fill="#000000" dy="0" font-family="Arial" font-size="24.06" font-style="normal" font-weight="400" style="text-align: center; stroke-width: 2.57215; fill: rgb(0, 0, 0);" text-anchor="middle">IN</tspan>
        </text>
        <text id="IL_label" x="927.43" y="364.36" style="font-size: 19.2455px; stroke-width: 1.60379; display: none;">
          <tspan id="IL_tspan" x="927.43" y="364.36" fill="#000000" dy="0" font-family="Arial" font-size="24.06" font-style="normal" font-weight="400" style="text-align: center; stroke-width: 2.57215; fill: rgb(0, 0, 0);" text-anchor="middle">IL</tspan>
        </text>
        <text id="CT_label" x="1299.17" y="228.46" stroke-width="1.06" font-size="12.74" style="display: none;">
          <tspan id="CT_tspan" x="1299.17" y="228.46" fill="#000000" stroke-width="1.06" dy="0" font-family="Arial" font-size="15.93" font-style="normal" font-weight="400" style="text-align: center; fill: rgb(0, 0, 0);" text-anchor="middle">CT</tspan>
        </text>
        <text id="WI_label" x="898.6" y="224.7" style="font-size: 19.2455px; stroke-width: 1.60379; display: none;">
          <tspan id="WI_tspan" x="898.6" y="224.7" fill="#000000" dy="0" font-family="Arial" font-size="24.06" font-style="normal" font-weight="400" style="text-align: center; stroke-width: 2.57215; fill: rgb(0, 0, 0);" text-anchor="middle">WI</tspan>
        </text>
        <text id="NC_label" x="1205.6" y="458.72" style="font-size: 19.2455px; stroke-width: 1.60379; display: none;">
          <tspan id="NC_tspan" x="1205.6" y="458.72" fill="#000000" dy="0" font-family="Arial" font-size="24.06" font-style="normal" font-weight="400" style="text-align: center; stroke-width: 2.57215; fill: rgb(0, 0, 0);" text-anchor="middle">NC</tspan>
        </text>
        <text id="MA_label" x="1305.87" y="200.67" stroke-width="1.04" font-size="12.46" style="display: none;">
          <tspan id="MA_tspan" x="1305.87" y="200.67" fill="#000000" stroke-width="1.04" dy="0" font-family="Arial" font-size="15.58" font-style="normal" font-weight="400" style="text-align: center; fill: rgb(0, 0, 0);" text-anchor="middle">MA</tspan>
        </text>
        <text id="MO_label" x="854.22" y="422.93" style="font-size: 19.2455px; stroke-width: 1.60379; display: none;">
          <tspan id="MO_tspan" x="854.22" y="422.93" fill="#000000" dy="0" font-family="Arial" font-size="24.06" font-style="normal" font-weight="400" style="text-align: center; stroke-width: 2.57215; fill: rgb(0, 0, 0);" text-anchor="middle">MO</tspan>
        </text>
        <text id="GA_label" x="1106.89" y="574.56" style="font-size: 19.2455px; stroke-width: 1.60379; display: none;">
          <tspan id="GA_tspan" x="1106.89" y="574.56" fill="#000000" dy="0" font-family="Arial" font-size="24.06" font-style="normal" font-weight="400" style="text-align: center; stroke-width: 2.57215; fill: rgb(0, 0, 0);" text-anchor="middle">GA</tspan>
        </text>
        <text id="SC_label" x="1166.32" y="522.49" style="font-size: 19.2455px; stroke-width: 1.60379; display: none;">
          <tspan id="SC_tspan" x="1166.32" y="522.49" fill="#000000" dy="0" font-family="Arial" font-size="24.06" font-style="normal" font-weight="400" style="text-align: center; stroke-width: 2.57215; fill: rgb(0, 0, 0);" text-anchor="middle">SC</tspan>
        </text>
        <text id="KY_label" x="1039.99" y="426.39" style="font-size: 19.2455px; stroke-width: 1.60379; display: none;">
          <tspan id="KY_tspan" x="1039.99" y="426.39" fill="#000000" dy="0" font-family="Arial" font-size="24.06" font-style="normal" font-weight="400" style="text-align: center; stroke-width: 2.57215; fill: rgb(0, 0, 0);" text-anchor="middle">KY</tspan>
        </text>
        <text id="AL_label" x="1019.59" y="578.15" style="font-size: 19.2455px; stroke-width: 1.60379; display: none;">
          <tspan id="AL_tspan" fill="#000000" dy="0" font-family="Arial" font-size="24.06" font-style="normal" font-weight="400" style="text-align: center; stroke-width: 2.57215; fill: rgb(0, 0, 0);" text-anchor="middle">AL</tspan>
        </text>
        <text id="LA_label" x="872.7" y="649.59" style="font-size: 19.2455px; stroke-width: 1.60379; display: none;">
          <tspan id="LA_tspan" x="872.7" y="649.59" fill="#000000" dy="0" font-family="Arial" font-size="24.06" font-style="normal" font-weight="400" style="text-align: center; stroke-width: 2.57215; fill: rgb(0, 0, 0);" text-anchor="middle">LA</tspan>
        </text>
        <text id="MS_label" x="940.37" y="592.21" style="font-size: 19.2455px; stroke-width: 1.60379; display: none;">
          <tspan id="MS_tspan" x="940.37" y="592.21" fill="#000000" dy="0" font-family="Arial" font-size="24.06" font-style="normal" font-weight="400" style="text-align: center; stroke-width: 2.57215; fill: rgb(0, 0, 0);" text-anchor="middle">MS</tspan>
        </text>
        <text id="IA_label" x="823.33" y="308.44" style="font-size: 19.2455px; stroke-width: 1.60379; display: none;">
          <tspan id="IA_tspan" x="823.33" y="308.44" fill="#000000" dy="0" font-family="Arial" font-size="24.06" font-style="normal" font-weight="400" style="text-align: center; stroke-width: 2.57215; fill: rgb(0, 0, 0);" text-anchor="middle">IA</tspan>
        </text>
        <text id="MN_label" x="790.84" y="183.37" style="font-size: 19.2455px; stroke-width: 1.60379; display: none;">
          <tspan id="MN_tspan" x="790.84" y="183.37" fill="#000000" dy="0" font-family="Arial" font-size="24.06" font-style="normal" font-weight="400" style="text-align: center; stroke-width: 2.57215; fill: rgb(0, 0, 0);" text-anchor="middle">MN</tspan>
        </text>
        <text id="OK_label" x="732.05" y="519.54" style="font-size: 19.2455px; stroke-width: 1.60379; display: none;">
          <tspan id="OK_tspan" x="732.05" y="519.54" fill="#000000" dy="0" font-family="Arial" font-size="24.06" font-style="normal" font-weight="400" style="text-align: center; stroke-width: 2.57215; fill: rgb(0, 0, 0);" text-anchor="middle">OK</tspan>
        </text>
        <text id="TX_label" x="710.59" y="652.87" style="font-size: 19.2455px; stroke-width: 1.60379; display: none;">
          <tspan id="TX_tspan" x="710.59" y="652.87" fill="#000000" dy="0" font-family="Arial" font-size="24.06" font-style="normal" font-weight="400" style="text-align: center; stroke-width: 2.57215; fill: rgb(0, 0, 0);" text-anchor="middle">TX</tspan>
        </text>
        <text id="NM_label" x="506.94" y="542.36" style="font-size: 19.2455px; stroke-width: 1.60379; display: none;">
          <tspan id="NM_tspan" x="506.94" y="542.36" fill="#000000" dy="0" font-family="Arial" font-size="24.06" font-style="normal" font-weight="400" style="text-align: center; stroke-width: 2.57215; fill: rgb(0, 0, 0);" text-anchor="middle">NM</tspan>
        </text>
        <text id="KS_label" x="701.21" y="427.26" style="font-size: 19.2455px; stroke-width: 1.60379; display: none;">
          <tspan id="KS_tspan" x="701.21" y="427.26" fill="#000000" dy="0" font-family="Arial" font-size="24.06" font-style="normal" font-weight="400" style="text-align: center; stroke-width: 2.57215; fill: rgb(0, 0, 0);" text-anchor="middle">KS</tspan>
        </text>
        <text id="NE_label" x="686.63" y="337.29" style="font-size: 19.2455px; stroke-width: 1.60379; display: none;">
          <tspan id="NE_tspan" x="686.63" y="337.29" fill="#000000" dy="0" font-family="Arial" font-size="24.06" font-style="normal" font-weight="400" style="text-align: center; stroke-width: 2.57215; fill: rgb(0, 0, 0);" text-anchor="middle">NE</tspan>
        </text>
        <text id="SD_label" x="663.02" y="238.75" style="font-size: 19.2455px; stroke-width: 1.60379; display: none;">
          <tspan id="SD_tspan" x="663.02" y="238.75" fill="#000000" dy="0" font-family="Arial" font-size="24.06" font-style="normal" font-weight="400" style="text-align: center; stroke-width: 2.57215; fill: rgb(0, 0, 0);" text-anchor="middle">SD</tspan>
        </text>
        <text id="ND_label" x="663.02" y="150.75" style="font-size: 19.2455px; stroke-width: 1.60379; display: none;">
          <tspan id="ND_tspan" x="663.02" y="150.75" fill="#000000" dy="0" font-family="Arial" font-size="24.06" font-style="normal" font-weight="400" style="text-align: center; stroke-width: 2.57215; fill: rgb(0, 0, 0);" text-anchor="middle">ND</tspan>
        </text>
        <text id="WY_label" x="499.57" y="276.47" style="font-size: 19.2455px; stroke-width: 1.60379; display: none;">
          <tspan id="WY_tspan" x="499.57" y="276.47" fill="#000000" dy="0" font-family="Arial" font-size="24.06" font-style="normal" font-weight="400" style="text-align: center; stroke-width: 2.57215; fill: rgb(0, 0, 0);" text-anchor="middle">WY</tspan>
        </text>
        <text id="MT_label" x="487.84" y="155.58" style="font-size: 19.2455px; stroke-width: 1.60379; display: none;">
          <tspan id="MT_tspan" x="487.84" y="155.58" fill="#000000" dy="0" font-family="Arial" font-size="24.06" font-style="normal" font-weight="400" style="text-align: center; stroke-width: 2.57215; fill: rgb(0, 0, 0);" text-anchor="middle">MT</tspan>
        </text>
        <text id="CO_label" x="525.13" y="406.28" style="font-size: 19.2455px; stroke-width: 1.60379; display: none;">
          <tspan id="CO_tspan" x="525.13" y="406.28" fill="#000000" dy="0" font-family="Arial" font-size="24.06" font-style="normal" font-weight="400" style="text-align: center; stroke-width: 2.57215; fill: rgb(0, 0, 0);" text-anchor="middle">CO</tspan>
        </text>
        <text id="ID_label" x="339.94" y="235.07" style="font-size: 19.2455px; stroke-width: 1.60379; display: none;">
          <tspan id="ID_tspan" x="339.94" y="235.07" fill="#000000" dy="0" font-family="Arial" font-size="24.06" font-style="normal" font-weight="400" style="text-align: center; stroke-width: 2.57215; fill: rgb(0, 0, 0);" text-anchor="middle">ID</tspan>
        </text>
        <text id="UT_label" x="396.81" y="386.73" style="font-size: 19.2455px; stroke-width: 1.60379; display: none;">
          <tspan id="UT_tspan" x="396.81" y="386.73" fill="#000000" dy="0" font-family="Arial" font-size="24.06" font-style="normal" font-weight="400" style="text-align: center; stroke-width: 2.57215; fill: rgb(0, 0, 0);" text-anchor="middle">UT</tspan>
        </text>
        <text id="AZ_label" x="366.76" y="536.9" style="font-size: 19.2455px; stroke-width: 1.60379; display: none;">
          <tspan id="AZ_tspan" x="366.76" y="536.9" fill="#000000" dy="0" font-family="Arial" font-size="24.06" font-style="normal" font-weight="400" style="text-align: center; stroke-width: 2.57215; fill: rgb(0, 0, 0);" text-anchor="middle">AZ</tspan>
        </text>
        <text id="NV_label" x="262.47" y="370.64" style="font-size: 19.2455px; stroke-width: 1.60379; display: none;">
          <tspan id="NV_tspan" x="262.47" y="370.64" fill="#000000" dy="0" font-family="Arial" font-size="24.06" font-style="normal" font-weight="400" style="text-align: center; stroke-width: 2.57215; fill: rgb(0, 0, 0);" text-anchor="middle">NV</tspan>
        </text>
        <text id="OR_label" x="214.43" y="206.88" style="font-size: 19.2455px; stroke-width: 1.60379; display: none;">
          <tspan id="OR_tspan" x="214.43" y="206.88" fill="#000000" dy="0" font-family="Arial" font-size="24.06" font-style="normal" font-weight="400" style="text-align: center; stroke-width: 2.57215; fill: rgb(0, 0, 0);" text-anchor="middle">OR</tspan>
        </text>
        <text id="WA_label" x="238.05" y="102.99" style="font-size: 19.2455px; stroke-width: 1.60379; display: none;">
          <tspan id="WA_tspan" x="238.05" y="102.99" fill="#000000" dy="0" font-family="Arial" font-size="24.06" font-style="normal" font-weight="400" style="text-align: center; stroke-width: 2.57215; fill: rgb(0, 0, 0);" text-anchor="middle">WA</tspan>
        </text>
        <text id="CA_label" x="191.69" y="434.8" style="font-size: 19.2455px; stroke-width: 1.60379; display: none;">
          <tspan id="CA_tspan" x="191.69" y="434.8" fill="#000000" dy="0" font-family="Arial" font-size="24.06" font-style="normal" font-weight="400" style="text-align: center; stroke-width: 2.57215; fill: rgb(0, 0, 0);" text-anchor="middle">CA</tspan>
        </text>
        <text id="DC_label" x="1309.32" y="398.19" stroke-width="1.29" font-size="15.45" style="display: none;">
          <tspan id="DC_tspan" x="1309.32" y="398.19" fill="#000000" stroke-width="1.29" dy="0" font-family="Arial" font-size="19.31" font-style="normal" font-weight="400" style="text-align: center; fill: rgb(0, 0, 0);" text-anchor="middle">DC</tspan>
        </text>
        <text id="TN_label" x="1018.93" y="485.72" style="font-size: 19.2455px; stroke-width: 1.60379; display: none;">
          <tspan id="TN_tspan" x="1018.93" y="485.72" fill="#000000" dy="0" font-family="Arial" font-size="24.06" font-style="normal" font-weight="400" style="text-align: center; stroke-width: 2.57215; fill: rgb(0, 0, 0);" text-anchor="middle">TN</tspan>
        </text>
        <text id="AR_label" x="863.15" y="535.77" style="font-size: 19.2455px; stroke-width: 1.60379; display: none;">
          <tspan id="AR_tspan" x="863.15" y="535.77" fill="#000000" dy="0" font-family="Arial" font-size="24.06" font-style="normal" font-weight="400" style="text-align: center; stroke-width: 2.57215; fill: rgb(0, 0, 0);" text-anchor="middle">AR</tspan>
        </text>
      </g>
      <g id="state_borders" transform="translate(-0.04777967,-0.15336683)" stroke="rgb(209, 219, 221)" style="stroke: rgb(0, 0, 0);" stroke-width="0.3">
        <path id="WI_MI_border" d="m943.3 189.39-.92-.25-.65.02-.66-1.05-1.28-.76-.23-.75.3-.4-.06-.75.26-.26.28-1.87.69-1.41-.38-.92-.85-.52-.5.46-.64.98-.83-.02-.96.22-.24.37-.5-.65-.4.07.44-.9.13-.66-.36-.76.93-1.07.3-1.17-.4-1.18-.73-.57-.01-.26.76.08.34-.9-.2-.8-.35-.07-.72-.8-.05-.5.86-.45-.84-1.1-1-.35-.22-.55-1-.32-1.27.22-.53-.3-.28-.8-1.6.74-.78-.27-.63-.5-.16-.41 1.15-1.8-.7-.17-.2-.5.2-.52-.73-.12-.5-.41-1.26-.16-.85.03-.11-.37-.97.48-.84-.3-1.24-.7-.74.6-1-.62-.83.23-.35-.7-1.2.26-.48.4-.36-.32-.17.94-1.05.02-.41-.65-.85.1-.32-.36-1.08.44-.76-.03-.8-.51-5.65-2.41-9.06-1.38-9.47-1.46-4.51-.73-.03-.72-.36-.34-.66-1.13-.61-1.45-1.3-1.46-.92.2-.02-.45-.9.2-.12-.87-.51-.26-.24.46-.9.34-.64-.97" stroke="rgb(209, 219, 221)" stroke-width="0.3" fill="none" style="stroke: rgb(0, 0, 0); display: none;"/>
      </g>
      <rect id="selection-rectangle" fill="#ffffccaa" stroke="rgb(209, 219, 221)" stroke-width="0.1"/>
      <ellipse id="selection-ellipse" fill="#ffffccaa" stroke="rgb(209, 219, 221)" stroke-width="0.1"/>
      <polygon id="selection-polygon" fill="#ffffccaa" stroke="rgb(209, 219, 221)" stroke-width="0.1"/>
      <polyline id="selection-polyline" fill="#ffffccaa" stroke="rgb(209, 219, 221)" stroke-width="0.1"/>
    </svg>
  </g>
</svg>
